<?xml version="1.0" encoding="UTF-8" standalone="no"?>
<!DOCTYPE svg PUBLIC "-//W3C//DTD SVG 1.1//EN"
 "http://www.w3.org/Graphics/SVG/1.1/DTD/svg11.dtd">
<!-- Generated by graphviz version 2.36.0 (20140111.2315)
 -->
<!-- Title: source/common/x86/asm&#45;primitives.cpp Pages: 1 -->
<svg width="1116pt" height="376pt"
 viewBox="0.00 0.00 1116.00 376.00" xmlns="http://www.w3.org/2000/svg" xmlns:xlink="http://www.w3.org/1999/xlink">
<g id="graph0" class="graph" transform="scale(1 1) rotate(0) translate(4 372)">
<title>source/common/x86/asm&#45;primitives.cpp</title>
<polygon fill="white" stroke="none" points="-4,4 -4,-372 1112,-372 1112,4 -4,4"/>
<!-- Node1 -->
<g id="node1" class="node"><title>Node1</title>
<polygon fill="#bfbfbf" stroke="black" points="603.5,-337 603.5,-367 730.5,-367 730.5,-337 603.5,-337"/>
<text text-anchor="start" x="611.5" y="-355" font-family="Helvetica,sans-Serif" font-size="10.00">source/common/x86/asm</text>
<text text-anchor="middle" x="667" y="-344" font-family="Helvetica,sans-Serif" font-size="10.00">&#45;primitives.cpp</text>
</g>
<!-- Node2 -->
<g id="node2" class="node"><title>Node2</title>
<g id="a_node2"><a xlink:href="common_8h.html" target="_top" xlink:title="common.h">
<polygon fill="white" stroke="black" points="456,-168.5 456,-187.5 518,-187.5 518,-168.5 456,-168.5"/>
<text text-anchor="middle" x="487" y="-175.5" font-family="Helvetica,sans-Serif" font-size="10.00">common.h</text>
</a>
</g>
</g>
<!-- Node1&#45;&gt;Node2 -->
<g id="edge1" class="edge"><title>Node1&#45;&gt;Node2</title>
<path fill="none" stroke="midnightblue" d="M603.447,-339.288C578.117,-331.789 550.427,-319.622 531,-300 502.916,-271.634 492.603,-223.965 488.933,-197.725"/>
<polygon fill="midnightblue" stroke="midnightblue" points="492.386,-197.121 487.704,-187.616 485.437,-197.966 492.386,-197.121"/>
</g>
<!-- Node18 -->
<g id="node18" class="node"><title>Node18</title>
<g id="a_node18"><a xlink:href="x265_8h.html" target="_top" xlink:title="x265.h">
<polygon fill="white" stroke="black" points="15,-112.5 15,-131.5 61,-131.5 61,-112.5 15,-112.5"/>
<text text-anchor="middle" x="38" y="-119.5" font-family="Helvetica,sans-Serif" font-size="10.00">x265.h</text>
</a>
</g>
</g>
<!-- Node1&#45;&gt;Node18 -->
<g id="edge26" class="edge"><title>Node1&#45;&gt;Node18</title>
<path fill="none" stroke="midnightblue" d="M603.401,-346.147C541.844,-340.065 446.571,-326.968 368,-300 243.54,-257.282 109.601,-171.47 58.9719,-137.41"/>
<polygon fill="midnightblue" stroke="midnightblue" points="60.7506,-134.387 50.509,-131.674 56.8235,-140.182 60.7506,-134.387"/>
</g>
<!-- Node21 -->
<g id="node21" class="node"><title>Node21</title>
<g id="a_node21"><a xlink:href="primitives_8h.html" target="_top" xlink:title="primitives.h">
<polygon fill="white" stroke="black" points="377.5,-280.5 377.5,-299.5 444.5,-299.5 444.5,-280.5 377.5,-280.5"/>
<text text-anchor="middle" x="411" y="-287.5" font-family="Helvetica,sans-Serif" font-size="10.00">primitives.h</text>
</a>
</g>
</g>
<!-- Node1&#45;&gt;Node21 -->
<g id="edge22" class="edge"><title>Node1&#45;&gt;Node21</title>
<path fill="none" stroke="midnightblue" d="M606.979,-336.933C560.287,-325.989 496.593,-311.061 454.66,-301.233"/>
<polygon fill="midnightblue" stroke="midnightblue" points="455.288,-297.785 444.753,-298.911 453.691,-304.601 455.288,-297.785"/>
</g>
<!-- Node22 -->
<g id="node22" class="node"><title>Node22</title>
<g id="a_node22"><a xlink:href="cpu_8h.html" target="_top" xlink:title="cpu.h">
<polygon fill="white" stroke="black" points="441.5,-224.5 441.5,-243.5 482.5,-243.5 482.5,-224.5 441.5,-224.5"/>
<text text-anchor="middle" x="462" y="-231.5" font-family="Helvetica,sans-Serif" font-size="10.00">cpu.h</text>
</a>
</g>
</g>
<!-- Node1&#45;&gt;Node22 -->
<g id="edge27" class="edge"><title>Node1&#45;&gt;Node22</title>
<path fill="none" stroke="midnightblue" d="M603.284,-343.886C568.74,-337.276 527.087,-324.538 497,-300 482.134,-287.876 472.687,-267.71 467.404,-253.05"/>
<polygon fill="midnightblue" stroke="midnightblue" points="470.726,-251.947 464.276,-243.542 464.077,-254.135 470.726,-251.947"/>
</g>
<!-- Node23 -->
<g id="node23" class="node"><title>Node23</title>
<g id="a_node23"><a xlink:href="pixel_8h.html" target="_top" xlink:title="pixel.h">
<polygon fill="white" stroke="black" points="539.5,-280.5 539.5,-299.5 584.5,-299.5 584.5,-280.5 539.5,-280.5"/>
<text text-anchor="middle" x="562" y="-287.5" font-family="Helvetica,sans-Serif" font-size="10.00">pixel.h</text>
</a>
</g>
</g>
<!-- Node1&#45;&gt;Node23 -->
<g id="edge28" class="edge"><title>Node1&#45;&gt;Node23</title>
<path fill="none" stroke="midnightblue" d="M642.382,-336.933C625.3,-327.171 602.67,-314.24 585.775,-304.586"/>
<polygon fill="midnightblue" stroke="midnightblue" points="587.469,-301.523 577.05,-299.6 583.996,-307.6 587.469,-301.523"/>
</g>
<!-- Node24 -->
<g id="node24" class="node"><title>Node24</title>
<g id="a_node24"><a xlink:href="pixel-util_8h.html" target="_top" xlink:title="pixel&#45;util.h">
<polygon fill="white" stroke="black" points="602.5,-280.5 602.5,-299.5 663.5,-299.5 663.5,-280.5 602.5,-280.5"/>
<text text-anchor="middle" x="633" y="-287.5" font-family="Helvetica,sans-Serif" font-size="10.00">pixel&#45;util.h</text>
</a>
</g>
</g>
<!-- Node1&#45;&gt;Node24 -->
<g id="edge29" class="edge"><title>Node1&#45;&gt;Node24</title>
<path fill="none" stroke="midnightblue" d="M658.942,-336.781C654.155,-328.332 648.044,-317.548 642.956,-308.569"/>
<polygon fill="midnightblue" stroke="midnightblue" points="645.923,-306.705 637.947,-299.731 639.832,-310.156 645.923,-306.705"/>
</g>
<!-- Node25 -->
<g id="node25" class="node"><title>Node25</title>
<g id="a_node25"><a xlink:href="mc_8h.html" target="_top" xlink:title="mc.h">
<polygon fill="white" stroke="black" points="682,-280.5 682,-299.5 720,-299.5 720,-280.5 682,-280.5"/>
<text text-anchor="middle" x="701" y="-287.5" font-family="Helvetica,sans-Serif" font-size="10.00">mc.h</text>
</a>
</g>
</g>
<!-- Node1&#45;&gt;Node25 -->
<g id="edge30" class="edge"><title>Node1&#45;&gt;Node25</title>
<path fill="none" stroke="midnightblue" d="M675.058,-336.781C679.845,-328.332 685.956,-317.548 691.044,-308.569"/>
<polygon fill="midnightblue" stroke="midnightblue" points="694.168,-310.156 696.053,-299.731 688.077,-306.705 694.168,-310.156"/>
</g>
<!-- Node26 -->
<g id="node26" class="node"><title>Node26</title>
<g id="a_node26"><a xlink:href="ipfilter8_8h.html" target="_top" xlink:title="ipfilter8.h">
<polygon fill="white" stroke="black" points="738,-280.5 738,-299.5 794,-299.5 794,-280.5 738,-280.5"/>
<text text-anchor="middle" x="766" y="-287.5" font-family="Helvetica,sans-Serif" font-size="10.00">ipfilter8.h</text>
</a>
</g>
</g>
<!-- Node1&#45;&gt;Node26 -->
<g id="edge31" class="edge"><title>Node1&#45;&gt;Node26</title>
<path fill="none" stroke="midnightblue" d="M690.211,-336.933C706.168,-327.262 727.259,-314.479 743.14,-304.855"/>
<polygon fill="midnightblue" stroke="midnightblue" points="745.072,-307.776 751.81,-299.6 741.444,-301.79 745.072,-307.776"/>
</g>
<!-- Node27 -->
<g id="node27" class="node"><title>Node27</title>
<g id="a_node27"><a xlink:href="loopfilter_8h.html" target="_top" xlink:title="loopfilter.h">
<polygon fill="white" stroke="black" points="812,-280.5 812,-299.5 874,-299.5 874,-280.5 812,-280.5"/>
<text text-anchor="middle" x="843" y="-287.5" font-family="Helvetica,sans-Serif" font-size="10.00">loopfilter.h</text>
</a>
</g>
</g>
<!-- Node1&#45;&gt;Node27 -->
<g id="edge32" class="edge"><title>Node1&#45;&gt;Node27</title>
<path fill="none" stroke="midnightblue" d="M708.264,-336.933C738.711,-326.553 779.673,-312.589 808.411,-302.792"/>
<polygon fill="midnightblue" stroke="midnightblue" points="809.694,-306.052 818.029,-299.513 807.435,-299.427 809.694,-306.052"/>
</g>
<!-- Node28 -->
<g id="node28" class="node"><title>Node28</title>
<g id="a_node28"><a xlink:href="blockcopy8_8h.html" target="_top" xlink:title="blockcopy8.h">
<polygon fill="white" stroke="black" points="892,-280.5 892,-299.5 966,-299.5 966,-280.5 892,-280.5"/>
<text text-anchor="middle" x="929" y="-287.5" font-family="Helvetica,sans-Serif" font-size="10.00">blockcopy8.h</text>
</a>
</g>
</g>
<!-- Node1&#45;&gt;Node28 -->
<g id="edge33" class="edge"><title>Node1&#45;&gt;Node28</title>
<path fill="none" stroke="midnightblue" d="M728.427,-336.933C775.335,-326.19 839.009,-311.609 881.926,-301.78"/>
<polygon fill="midnightblue" stroke="midnightblue" points="882.862,-305.157 891.828,-299.513 881.299,-298.333 882.862,-305.157"/>
</g>
<!-- Node29 -->
<g id="node29" class="node"><title>Node29</title>
<g id="a_node29"><a xlink:href="intrapred_8h.html" target="_top" xlink:title="intrapred.h">
<polygon fill="white" stroke="black" points="984,-280.5 984,-299.5 1046,-299.5 1046,-280.5 984,-280.5"/>
<text text-anchor="middle" x="1015" y="-287.5" font-family="Helvetica,sans-Serif" font-size="10.00">intrapred.h</text>
</a>
</g>
</g>
<!-- Node1&#45;&gt;Node29 -->
<g id="edge34" class="edge"><title>Node1&#45;&gt;Node29</title>
<path fill="none" stroke="midnightblue" d="M730.603,-341.556C790.761,-332.377 883.794,-317.546 973.518,-300.206"/>
<polygon fill="midnightblue" stroke="midnightblue" points="974.446,-303.591 983.593,-298.245 973.108,-296.72 974.446,-303.591"/>
</g>
<!-- Node30 -->
<g id="node30" class="node"><title>Node30</title>
<g id="a_node30"><a xlink:href="dct8_8h.html" target="_top" xlink:title="dct8.h">
<polygon fill="white" stroke="black" points="1064,-280.5 1064,-299.5 1108,-299.5 1108,-280.5 1064,-280.5"/>
<text text-anchor="middle" x="1086" y="-287.5" font-family="Helvetica,sans-Serif" font-size="10.00">dct8.h</text>
</a>
</g>
</g>
<!-- Node1&#45;&gt;Node30 -->
<g id="edge35" class="edge"><title>Node1&#45;&gt;Node30</title>
<path fill="none" stroke="midnightblue" d="M730.813,-345.416C805.805,-338.223 934.063,-323.955 1053.66,-299.769"/>
<polygon fill="midnightblue" stroke="midnightblue" points="1054.63,-303.143 1063.72,-297.706 1053.22,-296.285 1054.63,-303.143"/>
</g>
<!-- Node3 -->
<g id="node3" class="node"><title>Node3</title>
<polygon fill="white" stroke="#bfbfbf" points="924,-112.5 924,-131.5 980,-131.5 980,-112.5 924,-112.5"/>
<text text-anchor="middle" x="952" y="-119.5" font-family="Helvetica,sans-Serif" font-size="10.00">algorithm</text>
</g>
<!-- Node2&#45;&gt;Node3 -->
<g id="edge2" class="edge"><title>Node2&#45;&gt;Node3</title>
<path fill="none" stroke="midnightblue" d="M518.079,-175.164C587.387,-170.764 759.955,-158.12 913.701,-132.011"/>
<polygon fill="midnightblue" stroke="midnightblue" points="914.539,-135.418 923.8,-130.271 913.351,-128.52 914.539,-135.418"/>
</g>
<!-- Node4 -->
<g id="node4" class="node"><title>Node4</title>
<polygon fill="white" stroke="#bfbfbf" points="79.5,-112.5 79.5,-131.5 124.5,-131.5 124.5,-112.5 79.5,-112.5"/>
<text text-anchor="middle" x="102" y="-119.5" font-family="Helvetica,sans-Serif" font-size="10.00">climits</text>
</g>
<!-- Node2&#45;&gt;Node4 -->
<g id="edge3" class="edge"><title>Node2&#45;&gt;Node4</title>
<path fill="none" stroke="midnightblue" d="M455.581,-174.56C395.246,-169.54 258.895,-156.576 134.687,-131.844"/>
<polygon fill="midnightblue" stroke="midnightblue" points="135.12,-128.36 124.625,-129.808 133.732,-135.221 135.12,-128.36"/>
</g>
<!-- Node5 -->
<g id="node5" class="node"><title>Node5</title>
<polygon fill="white" stroke="#bfbfbf" points="143,-112.5 143,-131.5 187,-131.5 187,-112.5 143,-112.5"/>
<text text-anchor="middle" x="165" y="-119.5" font-family="Helvetica,sans-Serif" font-size="10.00">cmath</text>
</g>
<!-- Node2&#45;&gt;Node5 -->
<g id="edge4" class="edge"><title>Node2&#45;&gt;Node5</title>
<path fill="none" stroke="midnightblue" d="M455.746,-173.511C403.913,-167.436 296.78,-153.656 197.184,-132.023"/>
<polygon fill="midnightblue" stroke="midnightblue" points="197.781,-128.571 187.262,-129.836 196.274,-135.407 197.781,-128.571"/>
</g>
<!-- Node6 -->
<g id="node6" class="node"><title>Node6</title>
<polygon fill="white" stroke="#bfbfbf" points="205.5,-112.5 205.5,-131.5 254.5,-131.5 254.5,-112.5 205.5,-112.5"/>
<text text-anchor="middle" x="230" y="-119.5" font-family="Helvetica,sans-Serif" font-size="10.00">cstdarg</text>
</g>
<!-- Node2&#45;&gt;Node6 -->
<g id="edge5" class="edge"><title>Node2&#45;&gt;Node6</title>
<path fill="none" stroke="midnightblue" d="M455.69,-171.406C414.117,-163.826 338.209,-149.463 264.703,-132.293"/>
<polygon fill="midnightblue" stroke="midnightblue" points="265.356,-128.851 254.82,-129.963 263.75,-135.664 265.356,-128.851"/>
</g>
<!-- Node7 -->
<g id="node7" class="node"><title>Node7</title>
<polygon fill="white" stroke="#bfbfbf" points="272.5,-112.5 272.5,-131.5 321.5,-131.5 321.5,-112.5 272.5,-112.5"/>
<text text-anchor="middle" x="297" y="-119.5" font-family="Helvetica,sans-Serif" font-size="10.00">cstddef</text>
</g>
<!-- Node2&#45;&gt;Node7 -->
<g id="edge6" class="edge"><title>Node2&#45;&gt;Node7</title>
<path fill="none" stroke="midnightblue" d="M456.894,-168.444C422.799,-158.753 367.342,-142.992 331.522,-132.811"/>
<polygon fill="midnightblue" stroke="midnightblue" points="332.103,-129.338 321.528,-129.971 330.19,-136.072 332.103,-129.338"/>
</g>
<!-- Node8 -->
<g id="node8" class="node"><title>Node8</title>
<polygon fill="white" stroke="#bfbfbf" points="339.5,-112.5 339.5,-131.5 382.5,-131.5 382.5,-112.5 339.5,-112.5"/>
<text text-anchor="middle" x="361" y="-119.5" font-family="Helvetica,sans-Serif" font-size="10.00">cstdio</text>
</g>
<!-- Node2&#45;&gt;Node8 -->
<g id="edge7" class="edge"><title>Node2&#45;&gt;Node8</title>
<path fill="none" stroke="midnightblue" d="M467.035,-168.444C446.391,-159.596 413.937,-145.687 390.368,-135.586"/>
<polygon fill="midnightblue" stroke="midnightblue" points="391.442,-132.239 380.872,-131.516 388.684,-138.673 391.442,-132.239"/>
</g>
<!-- Node9 -->
<g id="node9" class="node"><title>Node9</title>
<polygon fill="white" stroke="#bfbfbf" points="400.5,-112.5 400.5,-131.5 445.5,-131.5 445.5,-112.5 400.5,-112.5"/>
<text text-anchor="middle" x="423" y="-119.5" font-family="Helvetica,sans-Serif" font-size="10.00">cstdlib</text>
</g>
<!-- Node2&#45;&gt;Node9 -->
<g id="edge8" class="edge"><title>Node2&#45;&gt;Node9</title>
<path fill="none" stroke="midnightblue" d="M476.717,-168.324C467.164,-160.263 452.72,-148.077 441.216,-138.369"/>
<polygon fill="midnightblue" stroke="midnightblue" points="443.37,-135.608 433.47,-131.834 438.856,-140.958 443.37,-135.608"/>
</g>
<!-- Node10 -->
<g id="node10" class="node"><title>Node10</title>
<polygon fill="white" stroke="#bfbfbf" points="464,-112.5 464,-131.5 510,-131.5 510,-112.5 464,-112.5"/>
<text text-anchor="middle" x="487" y="-119.5" font-family="Helvetica,sans-Serif" font-size="10.00">cstring</text>
</g>
<!-- Node2&#45;&gt;Node10 -->
<g id="edge9" class="edge"><title>Node2&#45;&gt;Node10</title>
<path fill="none" stroke="midnightblue" d="M487,-168.083C487,-161.006 487,-150.861 487,-141.986"/>
<polygon fill="midnightblue" stroke="midnightblue" points="490.5,-141.751 487,-131.751 483.5,-141.751 490.5,-141.751"/>
</g>
<!-- Node11 -->
<g id="node11" class="node"><title>Node11</title>
<polygon fill="white" stroke="#bfbfbf" points="528,-112.5 528,-131.5 574,-131.5 574,-112.5 528,-112.5"/>
<text text-anchor="middle" x="551" y="-119.5" font-family="Helvetica,sans-Serif" font-size="10.00">cctype</text>
</g>
<!-- Node2&#45;&gt;Node11 -->
<g id="edge10" class="edge"><title>Node2&#45;&gt;Node11</title>
<path fill="none" stroke="midnightblue" d="M497.283,-168.324C506.836,-160.263 521.28,-148.077 532.784,-138.369"/>
<polygon fill="midnightblue" stroke="midnightblue" points="535.144,-140.958 540.53,-131.834 530.63,-135.608 535.144,-140.958"/>
</g>
<!-- Node12 -->
<g id="node12" class="node"><title>Node12</title>
<polygon fill="white" stroke="#bfbfbf" points="592.5,-112.5 592.5,-131.5 633.5,-131.5 633.5,-112.5 592.5,-112.5"/>
<text text-anchor="middle" x="613" y="-119.5" font-family="Helvetica,sans-Serif" font-size="10.00">ctime</text>
</g>
<!-- Node2&#45;&gt;Node12 -->
<g id="edge11" class="edge"><title>Node2&#45;&gt;Node12</title>
<path fill="none" stroke="midnightblue" d="M506.965,-168.444C527.609,-159.596 560.063,-145.687 583.632,-135.586"/>
<polygon fill="midnightblue" stroke="midnightblue" points="585.316,-138.673 593.128,-131.516 582.558,-132.239 585.316,-138.673"/>
</g>
<!-- Node13 -->
<g id="node13" class="node"><title>Node13</title>
<g id="a_node13"><a xlink:href="stdint_8h.html" target="_top" xlink:title="stdint.h">
<polygon fill="white" stroke="black" points="365.5,-56.5 365.5,-75.5 414.5,-75.5 414.5,-56.5 365.5,-56.5"/>
<text text-anchor="middle" x="390" y="-63.5" font-family="Helvetica,sans-Serif" font-size="10.00">stdint.h</text>
</a>
</g>
</g>
<!-- Node2&#45;&gt;Node13 -->
<g id="edge12" class="edge"><title>Node2&#45;&gt;Node13</title>
<path fill="none" stroke="midnightblue" d="M518.392,-174.86C573.342,-169.962 677.872,-154.846 642,-112 614.693,-79.3852 487.321,-70.385 424.801,-67.9196"/>
<polygon fill="midnightblue" stroke="midnightblue" points="424.752,-64.4157 414.633,-67.5541 424.501,-71.4112 424.752,-64.4157"/>
</g>
<!-- Node16 -->
<g id="node16" class="node"><title>Node16</title>
<polygon fill="white" stroke="#bfbfbf" points="690,-112.5 690,-131.5 750,-131.5 750,-112.5 690,-112.5"/>
<text text-anchor="middle" x="720" y="-119.5" font-family="Helvetica,sans-Serif" font-size="10.00">memory.h</text>
</g>
<!-- Node2&#45;&gt;Node16 -->
<g id="edge15" class="edge"><title>Node2&#45;&gt;Node16</title>
<path fill="none" stroke="midnightblue" d="M518.423,-169.717C560.228,-160.029 634.17,-142.892 679.937,-132.285"/>
<polygon fill="midnightblue" stroke="midnightblue" points="680.86,-135.664 689.812,-129.996 679.28,-128.845 680.86,-135.664"/>
</g>
<!-- Node17 -->
<g id="node17" class="node"><title>Node17</title>
<polygon fill="white" stroke="#bfbfbf" points="768,-112.5 768,-131.5 820,-131.5 820,-112.5 768,-112.5"/>
<text text-anchor="middle" x="794" y="-119.5" font-family="Helvetica,sans-Serif" font-size="10.00">assert.h</text>
</g>
<!-- Node2&#45;&gt;Node17 -->
<g id="edge16" class="edge"><title>Node2&#45;&gt;Node17</title>
<path fill="none" stroke="midnightblue" d="M518.038,-172.676C566.83,-165.699 664.628,-150.991 757.834,-131.877"/>
<polygon fill="midnightblue" stroke="midnightblue" points="758.628,-135.287 767.71,-129.832 757.208,-128.433 758.628,-135.287"/>
</g>
<!-- Node2&#45;&gt;Node18 -->
<g id="edge17" class="edge"><title>Node2&#45;&gt;Node18</title>
<path fill="none" stroke="midnightblue" d="M455.872,-175.418C387.769,-171.579 220.376,-160.086 71.5397,-132.003"/>
<polygon fill="midnightblue" stroke="midnightblue" points="71.7915,-128.488 61.3111,-130.041 70.4726,-135.362 71.7915,-128.488"/>
</g>
<!-- Node20 -->
<g id="node20" class="node"><title>Node20</title>
<g id="a_node20"><a xlink:href="constants_8h.html" target="_top" xlink:title="constants.h">
<polygon fill="white" stroke="black" points="838,-112.5 838,-131.5 906,-131.5 906,-112.5 838,-112.5"/>
<text text-anchor="middle" x="872" y="-119.5" font-family="Helvetica,sans-Serif" font-size="10.00">constants.h</text>
</a>
</g>
</g>
<!-- Node2&#45;&gt;Node20 -->
<g id="edge20" class="edge"><title>Node2&#45;&gt;Node20</title>
<path fill="none" stroke="midnightblue" d="M518.115,-173.105C577.297,-166.222 709.304,-150.839 820,-132 822.589,-131.559 825.26,-131.074 827.966,-130.565"/>
<polygon fill="midnightblue" stroke="midnightblue" points="828.681,-133.992 837.83,-128.649 827.346,-127.12 828.681,-133.992"/>
</g>
<!-- Node14 -->
<g id="node14" class="node"><title>Node14</title>
<polygon fill="white" stroke="#bfbfbf" points="327.5,-0.5 327.5,-19.5 382.5,-19.5 382.5,-0.5 327.5,-0.5"/>
<text text-anchor="middle" x="355" y="-7.5" font-family="Helvetica,sans-Serif" font-size="10.00">crtdefs.h</text>
</g>
<!-- Node13&#45;&gt;Node14 -->
<g id="edge13" class="edge"><title>Node13&#45;&gt;Node14</title>
<path fill="none" stroke="midnightblue" d="M384.22,-56.083C379.328,-48.5341 372.173,-37.4948 366.167,-28.2298"/>
<polygon fill="midnightblue" stroke="midnightblue" points="369.048,-26.239 360.672,-19.7511 363.174,-30.0463 369.048,-26.239"/>
</g>
<!-- Node15 -->
<g id="node15" class="node"><title>Node15</title>
<polygon fill="white" stroke="#bfbfbf" points="401,-0.5 401,-19.5 449,-19.5 449,-0.5 401,-0.5"/>
<text text-anchor="middle" x="425" y="-7.5" font-family="Helvetica,sans-Serif" font-size="10.00">limits.h</text>
</g>
<!-- Node13&#45;&gt;Node15 -->
<g id="edge14" class="edge"><title>Node13&#45;&gt;Node15</title>
<path fill="none" stroke="midnightblue" d="M395.78,-56.083C400.672,-48.5341 407.827,-37.4948 413.833,-28.2298"/>
<polygon fill="midnightblue" stroke="midnightblue" points="416.826,-30.0463 419.328,-19.7511 410.952,-26.239 416.826,-30.0463"/>
</g>
<!-- Node18&#45;&gt;Node13 -->
<g id="edge18" class="edge"><title>Node18&#45;&gt;Node13</title>
<path fill="none" stroke="midnightblue" d="M61.3289,-114.048C64.2344,-113.297 67.176,-112.593 70,-112 172.601,-90.4596 295.921,-76.3886 355.043,-70.3599"/>
<polygon fill="midnightblue" stroke="midnightblue" points="355.716,-73.81 365.316,-69.3278 355.016,-66.8451 355.716,-73.81"/>
</g>
<!-- Node19 -->
<g id="node19" class="node"><title>Node19</title>
<g id="a_node19"><a xlink:href="x265__config_8h.html" target="_top" xlink:title="x265_config.h">
<polygon fill="white" stroke="black" points="-0.5,-56.5 -0.5,-75.5 76.5,-75.5 76.5,-56.5 -0.5,-56.5"/>
<text text-anchor="middle" x="38" y="-63.5" font-family="Helvetica,sans-Serif" font-size="10.00">x265_config.h</text>
</a>
</g>
</g>
<!-- Node18&#45;&gt;Node19 -->
<g id="edge19" class="edge"><title>Node18&#45;&gt;Node19</title>
<path fill="none" stroke="midnightblue" d="M38,-112.083C38,-105.006 38,-94.8611 38,-85.9865"/>
<polygon fill="midnightblue" stroke="midnightblue" points="41.5001,-85.751 38,-75.7511 34.5001,-85.7511 41.5001,-85.751"/>
</g>
<!-- Node20&#45;&gt;Node2 -->
<g id="edge21" class="edge"><title>Node20&#45;&gt;Node2</title>
<path fill="none" stroke="midnightblue" d="M840.733,-131.524C839.814,-131.688 838.902,-131.846 838,-132 726.761,-150.932 594.001,-166.373 528.072,-173.206"/>
<polygon fill="midnightblue" stroke="midnightblue" points="527.67,-169.729 518.078,-174.228 528.382,-176.692 527.67,-169.729"/>
</g>
<!-- Node21&#45;&gt;Node2 -->
<g id="edge23" class="edge"><title>Node21&#45;&gt;Node2</title>
<path fill="none" stroke="midnightblue" d="M412.2,-280.315C414.353,-267.16 419.835,-241.828 432,-224 440.34,-211.777 452.938,-201.13 463.973,-193.265"/>
<polygon fill="midnightblue" stroke="midnightblue" points="466.057,-196.08 472.377,-187.577 462.134,-190.283 466.057,-196.08"/>
</g>
<!-- Node21&#45;&gt;Node22 -->
<g id="edge24" class="edge"><title>Node21&#45;&gt;Node22</title>
<path fill="none" stroke="midnightblue" d="M419.422,-280.083C426.848,-272.22 437.852,-260.569 446.812,-251.081"/>
<polygon fill="midnightblue" stroke="midnightblue" points="449.413,-253.424 453.735,-243.751 444.324,-248.618 449.413,-253.424"/>
</g>
<!-- Node22&#45;&gt;Node2 -->
<g id="edge25" class="edge"><title>Node22&#45;&gt;Node2</title>
<path fill="none" stroke="midnightblue" d="M466.128,-224.083C469.514,-216.77 474.416,-206.181 478.619,-197.103"/>
<polygon fill="midnightblue" stroke="midnightblue" points="481.923,-198.296 482.949,-187.751 475.571,-195.355 481.923,-198.296"/>
</g>
</g>
</svg>
