<?xml version="1.0" encoding="UTF-8" standalone="no"?>
<!DOCTYPE svg PUBLIC "-//W3C//DTD SVG 1.1//EN"
 "http://www.w3.org/Graphics/SVG/1.1/DTD/svg11.dtd">
<!-- Generated by graphviz version 2.36.0 (20140111.2315)
 -->
<!-- Title: x265::FrameEncoder::enqueueRowFilter Pages: 1 -->
<svg width="846pt" height="60pt"
 viewBox="0.00 0.00 846.00 60.00" xmlns="http://www.w3.org/2000/svg" xmlns:xlink="http://www.w3.org/1999/xlink">
<g id="graph0" class="graph" transform="scale(1 1) rotate(0) translate(4 56)">
<title>x265::FrameEncoder::enqueueRowFilter</title>
<polygon fill="white" stroke="none" points="-4,4 -4,-56 842,-56 842,4 -4,4"/>
<!-- Node1 -->
<g id="node1" class="node"><title>Node1</title>
<polygon fill="#bfbfbf" stroke="black" points="0.5,-22 0.5,-52 107.5,-52 107.5,-22 0.5,-22"/>
<text text-anchor="start" x="8.5" y="-40" font-family="Helvetica,sans-Serif" font-size="10.00">x265::FrameEncoder</text>
<text text-anchor="middle" x="54" y="-29" font-family="Helvetica,sans-Serif" font-size="10.00">::enqueueRowFilter</text>
</g>
<!-- Node2 -->
<g id="node2" class="node"><title>Node2</title>
<g id="a_node2"><a xlink:href="classx265_1_1FrameEncoder.html#acad645a8ece97d884895f8f7366b7d70" target="_top" xlink:title="x265::FrameEncoder\l::processRow">
<polygon fill="white" stroke="black" points="294.5,-22 294.5,-52 401.5,-52 401.5,-22 294.5,-22"/>
<text text-anchor="start" x="302.5" y="-40" font-family="Helvetica,sans-Serif" font-size="10.00">x265::FrameEncoder</text>
<text text-anchor="middle" x="348" y="-29" font-family="Helvetica,sans-Serif" font-size="10.00">::processRow</text>
</a>
</g>
</g>
<!-- Node1&#45;&gt;Node2 -->
<g id="edge1" class="edge"><title>Node1&#45;&gt;Node2</title>
<path fill="none" stroke="midnightblue" d="M117.902,-38.5896C126.667,-38.7597 135.558,-38.9052 144,-39 194.663,-39.5692 207.337,-39.5692 258,-39 269.745,-38.868 282.361,-38.6382 294.295,-38.3801"/>
<polygon fill="midnightblue" stroke="midnightblue" points="117.775,-35.0864 107.705,-38.3801 117.631,-42.0849 117.775,-35.0864"/>
</g>
<!-- Node6 -->
<g id="node6" class="node"><title>Node6</title>
<g id="a_node6"><a xlink:href="classx265_1_1FrameEncoder.html#a0ae85001572afd28238476542523ac5f" target="_top" xlink:title="x265::FrameEncoder\l::processRowEncoder">
<polygon fill="white" stroke="black" points="144.5,-0 144.5,-30 257.5,-30 257.5,-0 144.5,-0"/>
<text text-anchor="start" x="152.5" y="-18" font-family="Helvetica,sans-Serif" font-size="10.00">x265::FrameEncoder</text>
<text text-anchor="middle" x="201" y="-7" font-family="Helvetica,sans-Serif" font-size="10.00">::processRowEncoder</text>
</a>
</g>
</g>
<!-- Node1&#45;&gt;Node6 -->
<g id="edge5" class="edge"><title>Node1&#45;&gt;Node6</title>
<path fill="none" stroke="midnightblue" d="M117.882,-27.4592C126.607,-26.1355 135.521,-24.7831 144.106,-23.4805"/>
<polygon fill="midnightblue" stroke="midnightblue" points="117.12,-24.0347 107.759,-28.9953 118.17,-30.9555 117.12,-24.0347"/>
</g>
<!-- Node3 -->
<g id="node3" class="node"><title>Node3</title>
<g id="a_node3"><a xlink:href="classx265_1_1FrameEncoder.html#ac4e9ce2e876c0cdb25c992c872fe4302" target="_top" xlink:title="x265::FrameEncoder\l::compressCTURows">
<polygon fill="white" stroke="black" points="438,-22 438,-52 550,-52 550,-22 438,-22"/>
<text text-anchor="start" x="446" y="-40" font-family="Helvetica,sans-Serif" font-size="10.00">x265::FrameEncoder</text>
<text text-anchor="middle" x="494" y="-29" font-family="Helvetica,sans-Serif" font-size="10.00">::compressCTURows</text>
</a>
</g>
</g>
<!-- Node2&#45;&gt;Node3 -->
<g id="edge2" class="edge"><title>Node2&#45;&gt;Node3</title>
<path fill="none" stroke="midnightblue" d="M411.834,-37C420.475,-37 429.295,-37 437.786,-37"/>
<polygon fill="midnightblue" stroke="midnightblue" points="411.803,-33.5001 401.803,-37 411.803,-40.5001 411.803,-33.5001"/>
</g>
<!-- Node4 -->
<g id="node4" class="node"><title>Node4</title>
<g id="a_node4"><a xlink:href="classx265_1_1FrameEncoder.html#a2f5c4c0f1a4e36fce4c9b87eb7ec4973" target="_top" xlink:title="x265::FrameEncoder\l::compressFrame">
<polygon fill="white" stroke="black" points="586.5,-22 586.5,-52 693.5,-52 693.5,-22 586.5,-22"/>
<text text-anchor="start" x="594.5" y="-40" font-family="Helvetica,sans-Serif" font-size="10.00">x265::FrameEncoder</text>
<text text-anchor="middle" x="640" y="-29" font-family="Helvetica,sans-Serif" font-size="10.00">::compressFrame</text>
</a>
</g>
</g>
<!-- Node3&#45;&gt;Node4 -->
<g id="edge3" class="edge"><title>Node3&#45;&gt;Node4</title>
<path fill="none" stroke="midnightblue" d="M560.423,-37C569.155,-37 578.018,-37 586.491,-37"/>
<polygon fill="midnightblue" stroke="midnightblue" points="560.262,-33.5001 550.262,-37 560.262,-40.5001 560.262,-33.5001"/>
</g>
<!-- Node5 -->
<g id="node5" class="node"><title>Node5</title>
<g id="a_node5"><a xlink:href="classx265_1_1FrameEncoder.html#aef61f29b9e93b3af9255d96236bc90a7" target="_top" xlink:title="x265::FrameEncoder\l::threadMain">
<polygon fill="white" stroke="black" points="730.5,-22 730.5,-52 837.5,-52 837.5,-22 730.5,-22"/>
<text text-anchor="start" x="738.5" y="-40" font-family="Helvetica,sans-Serif" font-size="10.00">x265::FrameEncoder</text>
<text text-anchor="middle" x="784" y="-29" font-family="Helvetica,sans-Serif" font-size="10.00">::threadMain</text>
</a>
</g>
</g>
<!-- Node4&#45;&gt;Node5 -->
<g id="edge4" class="edge"><title>Node4&#45;&gt;Node5</title>
<path fill="none" stroke="midnightblue" d="M703.994,-37C712.704,-37 721.578,-37 730.08,-37"/>
<polygon fill="midnightblue" stroke="midnightblue" points="703.876,-33.5001 693.876,-37 703.876,-40.5001 703.876,-33.5001"/>
</g>
<!-- Node6&#45;&gt;Node2 -->
<g id="edge6" class="edge"><title>Node6&#45;&gt;Node2</title>
<path fill="none" stroke="midnightblue" d="M267.59,-24.9516C276.476,-26.2998 285.501,-27.6692 294.126,-28.9777"/>
<polygon fill="midnightblue" stroke="midnightblue" points="268.058,-21.4826 257.646,-23.4429 267.008,-28.4034 268.058,-21.4826"/>
</g>
</g>
</svg>
