<?xml version="1.0" encoding="UTF-8" standalone="no"?>
<!DOCTYPE svg PUBLIC "-//W3C//DTD SVG 1.1//EN"
 "http://www.w3.org/Graphics/SVG/1.1/DTD/svg11.dtd">
<!-- Generated by graphviz version 2.36.0 (20140111.2315)
 -->
<!-- Title: x265::Lock::release Pages: 1 -->
<!--zoomable 302 -->
<svg id="main" version="1.1" xmlns="http://www.w3.org/2000/svg" xmlns:xlink="http://www.w3.org/1999/xlink" xml:space="preserve" onload="init(evt)">
<style type="text/css"><![CDATA[
.edge:hover path { stroke: red; }
.edge:hover polygon { stroke: red; fill: red; }
]]></style>
<script type="text/javascript"><![CDATA[
var edges = document.getElementsByTagName('g');
if (edges && edges.length) {
  for (var i=0;i<edges.length;i++) {
    if (edges[i].id.substr(0,4)=='edge') {
      edges[i].setAttribute('class','edge');
    }
  }
}
]]></script>
        <defs>
                <circle id="rim" cx="0" cy="0" r="7"/>
                <circle id="rim2" cx="0" cy="0" r="3.5"/>
                <g id="zoomPlus">
                        <use xlink:href="#rim" fill="#404040">
                                <set attributeName="fill" to="#808080" begin="zoomplus.mouseover" end="zoomplus.mouseout"/>
                        </use>
                        <path d="M-4,0h8M0,-4v8" fill="none" stroke="white" stroke-width="1.5" pointer-events="none"/>
                </g>
                <g id="zoomMin">
                        <use xlink:href="#rim" fill="#404040">
                                <set attributeName="fill" to="#808080" begin="zoomminus.mouseover" end="zoomminus.mouseout"/>
                        </use>
                        <path d="M-4,0h8" fill="none" stroke="white" stroke-width="1.5" pointer-events="none"/>
                </g>
                <g id="dirArrow">
                        <path fill="none" stroke="white" stroke-width="1.5" d="M0,-3.0v7 M-2.5,-0.5L0,-3.0L2.5,-0.5"/>
                </g>
               <g id="resetDef">
                       <use xlink:href="#rim2" fill="#404040">
                               <set attributeName="fill" to="#808080" begin="reset.mouseover" end="reset.mouseout"/>
                       </use>
               </g>
        </defs>

<script type="text/javascript">
var viewWidth = 944;
var viewHeight = 302;
var sectionId = 'dynsection-2';
</script>
<script xlink:href="svgpan.js"/>
<svg id="graph" class="graph">
<g id="viewport">
<title>x265::Lock::release</title>
<polygon fill="white" stroke="none" points="-4,4 -4,-298.377 940,-298.377 940,4 -4,4"/>
<!-- Node1 -->
<g id="node1" class="node"><title>Node1</title>
<polygon fill="#bfbfbf" stroke="black" points="0,-132.877 0,-151.877 102,-151.877 102,-132.877 0,-132.877"/>
<text text-anchor="middle" x="51" y="-139.877" font-family="Helvetica,sans-Serif" font-size="10.00">x265::Lock::release</text>
</g>
<!-- Node2 -->
<g id="node2" class="node"><title>Node2</title>
<g id="a_node2"><a xlink:href="classx265_1_1ScopedLock.html#ab26f74105e66240715724cea7f16a34a" target="_top" xlink:title="x265::ScopedLock::\l~ScopedLock">
<polygon fill="white" stroke="black" points="171,-264.377 171,-294.377 275,-294.377 275,-264.377 171,-264.377"/>
<text text-anchor="start" x="179" y="-282.377" font-family="Helvetica,sans-Serif" font-size="10.00">x265::ScopedLock::</text>
<text text-anchor="middle" x="223" y="-271.377" font-family="Helvetica,sans-Serif" font-size="10.00">~ScopedLock</text>
</a>
</g>
</g>
<!-- Node1&#45;&gt;Node2 -->
<g id="edge1" class="edge"><title>Node1&#45;&gt;Node2</title>
<path fill="none" stroke="midnightblue" d="M61.5829,-161.282C75.2026,-186.263 102.497,-229.952 138,-254.377 147.778,-261.104 159.395,-266.052 170.824,-269.682"/>
<polygon fill="midnightblue" stroke="midnightblue" points="64.5104,-159.33 56.7465,-152.121 58.3201,-162.598 64.5104,-159.33"/>
</g>
<!-- Node3 -->
<g id="node3" class="node"><title>Node3</title>
<g id="a_node3"><a xlink:href="classx265_1_1ThreadPool.html#a9f3974132a6082fa62d4e0c6e37dd3e8" target="_top" xlink:title="x265::ThreadPool::allocThreadPool">
<polygon fill="white" stroke="black" points="138.5,-225.877 138.5,-244.877 307.5,-244.877 307.5,-225.877 138.5,-225.877"/>
<text text-anchor="middle" x="223" y="-232.877" font-family="Helvetica,sans-Serif" font-size="10.00">x265::ThreadPool::allocThreadPool</text>
</a>
</g>
</g>
<!-- Node1&#45;&gt;Node3 -->
<g id="edge2" class="edge"><title>Node1&#45;&gt;Node3</title>
<path fill="none" stroke="midnightblue" d="M67.4647,-159.551C83.4924,-176.292 110.073,-201.234 138,-215.377 146.559,-219.712 156.089,-223.129 165.569,-225.817"/>
<polygon fill="midnightblue" stroke="midnightblue" points="69.8672,-156.996 60.4845,-152.075 64.7505,-161.773 69.8672,-156.996"/>
</g>
<!-- Node7 -->
<g id="node7" class="node"><title>Node7</title>
<g id="a_node7"><a xlink:href="classx265_1_1FrameEncoder.html#a0ae85001572afd28238476542523ac5f" target="_top" xlink:title="x265::FrameEncoder\l::processRowEncoder">
<polygon fill="white" stroke="black" points="166.5,-176.377 166.5,-206.377 279.5,-206.377 279.5,-176.377 166.5,-176.377"/>
<text text-anchor="start" x="174.5" y="-194.377" font-family="Helvetica,sans-Serif" font-size="10.00">x265::FrameEncoder</text>
<text text-anchor="middle" x="223" y="-183.377" font-family="Helvetica,sans-Serif" font-size="10.00">::processRowEncoder</text>
</a>
</g>
</g>
<!-- Node1&#45;&gt;Node7 -->
<g id="edge6" class="edge"><title>Node1&#45;&gt;Node7</title>
<path fill="none" stroke="midnightblue" d="M94.9015,-154.743C117.663,-161.304 145.813,-169.417 169.831,-176.34"/>
<polygon fill="midnightblue" stroke="midnightblue" points="95.7595,-151.348 85.1813,-151.941 93.8207,-158.074 95.7595,-151.348"/>
</g>
<!-- Node12 -->
<g id="node12" class="node"><title>Node12</title>
<g id="a_node12"><a xlink:href="classx265_1_1Lookahead.html#a878bca13580997ab9c01e72a8f8e81c3" target="_top" xlink:title="x265::Lookahead::addPicture">
<polygon fill="white" stroke="black" points="344.5,-85.8771 344.5,-104.877 487.5,-104.877 487.5,-85.8771 344.5,-85.8771"/>
<text text-anchor="middle" x="416" y="-92.8771" font-family="Helvetica,sans-Serif" font-size="10.00">x265::Lookahead::addPicture</text>
</a>
</g>
</g>
<!-- Node1&#45;&gt;Node12 -->
<g id="edge11" class="edge"><title>Node1&#45;&gt;Node12</title>
<path fill="none" stroke="midnightblue" d="M89.4379,-129.694C104.381,-125.108 121.845,-120.335 138,-117.377 207.519,-104.649 288.185,-99.2842 344.474,-97.0231"/>
<polygon fill="midnightblue" stroke="midnightblue" points="88.0266,-126.47 79.5426,-132.816 90.1323,-133.145 88.0266,-126.47"/>
</g>
<!-- Node16 -->
<g id="node16" class="node"><title>Node16</title>
<g id="a_node16"><a xlink:href="classx265_1_1Lookahead.html#a0294c952379ca6f328014f92aa51259c" target="_top" xlink:title="x265::Lookahead::flush">
<polygon fill="white" stroke="black" points="357,-7.8771 357,-26.8771 475,-26.8771 475,-7.8771 357,-7.8771"/>
<text text-anchor="middle" x="416" y="-14.8771" font-family="Helvetica,sans-Serif" font-size="10.00">x265::Lookahead::flush</text>
</a>
</g>
</g>
<!-- Node1&#45;&gt;Node16 -->
<g id="edge15" class="edge"><title>Node1&#45;&gt;Node16</title>
<path fill="none" stroke="midnightblue" d="M60.0032,-123.501C72.3667,-97.0351 98.8474,-49.8487 138,-29.3771 210.942,8.76207 310.031,1.30388 367.79,-7.85347"/>
<polygon fill="midnightblue" stroke="midnightblue" points="56.7167,-122.277 55.8293,-132.834 63.1069,-125.134 56.7167,-122.277"/>
</g>
<!-- Node17 -->
<g id="node17" class="node"><title>Node17</title>
<g id="a_node17"><a xlink:href="classx265_1_1Lookahead.html#a7943043193deb8e265fd4dd3a0945207" target="_top" xlink:title="x265::Lookahead::getDecided\lPicture">
<polygon fill="white" stroke="black" points="150,-127.377 150,-157.377 296,-157.377 296,-127.377 150,-127.377"/>
<text text-anchor="start" x="158" y="-145.377" font-family="Helvetica,sans-Serif" font-size="10.00">x265::Lookahead::getDecided</text>
<text text-anchor="middle" x="223" y="-134.377" font-family="Helvetica,sans-Serif" font-size="10.00">Picture</text>
</a>
</g>
</g>
<!-- Node1&#45;&gt;Node17 -->
<g id="edge17" class="edge"><title>Node1&#45;&gt;Node17</title>
<path fill="none" stroke="midnightblue" d="M112.147,-142.377C124.363,-142.377 137.331,-142.377 149.912,-142.377"/>
<polygon fill="midnightblue" stroke="midnightblue" points="112.086,-138.877 102.086,-142.377 112.086,-145.877 112.086,-138.877"/>
</g>
<!-- Node18 -->
<g id="node18" class="node"><title>Node18</title>
<g id="a_node18"><a xlink:href="classx265_1_1Lookahead.html#ad15172de7a432e47e8514fb157fafedd" target="_top" xlink:title="x265::Lookahead::slicetype\lDecide">
<polygon fill="white" stroke="black" points="155,-39.3771 155,-69.3771 291,-69.3771 291,-39.3771 155,-39.3771"/>
<text text-anchor="start" x="163" y="-57.3771" font-family="Helvetica,sans-Serif" font-size="10.00">x265::Lookahead::slicetype</text>
<text text-anchor="middle" x="223" y="-46.3771" font-family="Helvetica,sans-Serif" font-size="10.00">Decide</text>
</a>
</g>
</g>
<!-- Node1&#45;&gt;Node18 -->
<g id="edge19" class="edge"><title>Node1&#45;&gt;Node18</title>
<path fill="none" stroke="midnightblue" d="M72.2456,-126.585C89.1298,-113.951 114.188,-96.4187 138,-84.3771 149.055,-78.7866 161.404,-73.7605 173.158,-69.4919"/>
<polygon fill="midnightblue" stroke="midnightblue" points="70.0559,-123.853 64.2111,-132.689 74.2909,-129.426 70.0559,-123.853"/>
</g>
<!-- Node4 -->
<g id="node4" class="node"><title>Node4</title>
<g id="a_node4"><a xlink:href="classx265_1_1Encoder.html#aa45d4a8835e915c1e980ad8aaad7cc51" target="_top" xlink:title="x265::Encoder::create">
<polygon fill="white" stroke="black" points="359.5,-225.877 359.5,-244.877 472.5,-244.877 472.5,-225.877 359.5,-225.877"/>
<text text-anchor="middle" x="416" y="-232.877" font-family="Helvetica,sans-Serif" font-size="10.00">x265::Encoder::create</text>
</a>
</g>
</g>
<!-- Node3&#45;&gt;Node4 -->
<g id="edge3" class="edge"><title>Node3&#45;&gt;Node4</title>
<path fill="none" stroke="midnightblue" d="M318.037,-235.377C332.165,-235.377 346.336,-235.377 359.312,-235.377"/>
<polygon fill="midnightblue" stroke="midnightblue" points="317.775,-231.877 307.775,-235.377 317.775,-238.877 317.775,-231.877"/>
</g>
<!-- Node6 -->
<g id="node6" class="node"><title>Node6</title>
<g id="a_node6"><a xlink:href="testpool_8cpp.html#a2c3f6775325c30275d11c6abee2db6a0" target="_top" xlink:title="main">
<polygon fill="white" stroke="black" points="397,-263.877 397,-282.877 435,-282.877 435,-263.877 397,-263.877"/>
<text text-anchor="middle" x="416" y="-270.877" font-family="Helvetica,sans-Serif" font-size="10.00">main</text>
</a>
</g>
</g>
<!-- Node3&#45;&gt;Node6 -->
<g id="edge5" class="edge"><title>Node3&#45;&gt;Node6</title>
<path fill="none" stroke="midnightblue" d="M282.184,-246.953C321.374,-254.75 370.513,-264.526 396.654,-269.727"/>
<polygon fill="midnightblue" stroke="midnightblue" points="282.688,-243.485 272.197,-244.966 281.322,-250.35 282.688,-243.485"/>
</g>
<!-- Node5 -->
<g id="node5" class="node"><title>Node5</title>
<g id="a_node5"><a xlink:href="x265_8h.html#add639f6af182534d265ef22d4bf91f90" target="_top" xlink:title="x265_encoder_open">
<polygon fill="white" stroke="black" points="531,-225.877 531,-244.877 635,-244.877 635,-225.877 531,-225.877"/>
<text text-anchor="middle" x="583" y="-232.877" font-family="Helvetica,sans-Serif" font-size="10.00">x265_encoder_open</text>
</a>
</g>
</g>
<!-- Node4&#45;&gt;Node5 -->
<g id="edge4" class="edge"><title>Node4&#45;&gt;Node5</title>
<path fill="none" stroke="midnightblue" d="M483.165,-235.377C499.07,-235.377 515.818,-235.377 530.916,-235.377"/>
<polygon fill="midnightblue" stroke="midnightblue" points="482.862,-231.877 472.861,-235.377 482.861,-238.877 482.862,-231.877"/>
</g>
<!-- Node8 -->
<g id="node8" class="node"><title>Node8</title>
<g id="a_node8"><a xlink:href="classx265_1_1FrameEncoder.html#acad645a8ece97d884895f8f7366b7d70" target="_top" xlink:title="x265::FrameEncoder\l::processRow">
<polygon fill="white" stroke="black" points="362.5,-176.377 362.5,-206.377 469.5,-206.377 469.5,-176.377 362.5,-176.377"/>
<text text-anchor="start" x="370.5" y="-194.377" font-family="Helvetica,sans-Serif" font-size="10.00">x265::FrameEncoder</text>
<text text-anchor="middle" x="416" y="-183.377" font-family="Helvetica,sans-Serif" font-size="10.00">::processRow</text>
</a>
</g>
</g>
<!-- Node7&#45;&gt;Node8 -->
<g id="edge7" class="edge"><title>Node7&#45;&gt;Node8</title>
<path fill="none" stroke="midnightblue" d="M289.818,-191.377C313.503,-191.377 339.894,-191.377 362.314,-191.377"/>
<polygon fill="midnightblue" stroke="midnightblue" points="289.502,-187.877 279.502,-191.377 289.502,-194.877 289.502,-187.877"/>
</g>
<!-- Node9 -->
<g id="node9" class="node"><title>Node9</title>
<g id="a_node9"><a xlink:href="classx265_1_1FrameEncoder.html#ac4e9ce2e876c0cdb25c992c872fe4302" target="_top" xlink:title="x265::FrameEncoder\l::compressCTURows">
<polygon fill="white" stroke="black" points="527,-176.377 527,-206.377 639,-206.377 639,-176.377 527,-176.377"/>
<text text-anchor="start" x="535" y="-194.377" font-family="Helvetica,sans-Serif" font-size="10.00">x265::FrameEncoder</text>
<text text-anchor="middle" x="583" y="-183.377" font-family="Helvetica,sans-Serif" font-size="10.00">::compressCTURows</text>
</a>
</g>
</g>
<!-- Node8&#45;&gt;Node9 -->
<g id="edge8" class="edge"><title>Node8&#45;&gt;Node9</title>
<path fill="none" stroke="midnightblue" d="M479.718,-191.377C495.279,-191.377 511.838,-191.377 526.998,-191.377"/>
<polygon fill="midnightblue" stroke="midnightblue" points="479.661,-187.877 469.661,-191.377 479.661,-194.877 479.661,-187.877"/>
</g>
<!-- Node10 -->
<g id="node10" class="node"><title>Node10</title>
<g id="a_node10"><a xlink:href="classx265_1_1FrameEncoder.html#a2f5c4c0f1a4e36fce4c9b87eb7ec4973" target="_top" xlink:title="x265::FrameEncoder\l::compressFrame">
<polygon fill="white" stroke="black" points="681.5,-176.377 681.5,-206.377 788.5,-206.377 788.5,-176.377 681.5,-176.377"/>
<text text-anchor="start" x="689.5" y="-194.377" font-family="Helvetica,sans-Serif" font-size="10.00">x265::FrameEncoder</text>
<text text-anchor="middle" x="735" y="-183.377" font-family="Helvetica,sans-Serif" font-size="10.00">::compressFrame</text>
</a>
</g>
</g>
<!-- Node9&#45;&gt;Node10 -->
<g id="edge9" class="edge"><title>Node9&#45;&gt;Node10</title>
<path fill="none" stroke="midnightblue" d="M649.106,-191.377C659.761,-191.377 670.687,-191.377 681.003,-191.377"/>
<polygon fill="midnightblue" stroke="midnightblue" points="649.003,-187.877 639.003,-191.377 649.003,-194.877 649.003,-187.877"/>
</g>
<!-- Node11 -->
<g id="node11" class="node"><title>Node11</title>
<g id="a_node11"><a xlink:href="classx265_1_1FrameEncoder.html#aef61f29b9e93b3af9255d96236bc90a7" target="_top" xlink:title="x265::FrameEncoder\l::threadMain">
<polygon fill="white" stroke="black" points="828.5,-176.377 828.5,-206.377 935.5,-206.377 935.5,-176.377 828.5,-176.377"/>
<text text-anchor="start" x="836.5" y="-194.377" font-family="Helvetica,sans-Serif" font-size="10.00">x265::FrameEncoder</text>
<text text-anchor="middle" x="882" y="-183.377" font-family="Helvetica,sans-Serif" font-size="10.00">::threadMain</text>
</a>
</g>
</g>
<!-- Node10&#45;&gt;Node11 -->
<g id="edge10" class="edge"><title>Node10&#45;&gt;Node11</title>
<path fill="none" stroke="midnightblue" d="M798.801,-191.377C808.549,-191.377 818.535,-191.377 828.038,-191.377"/>
<polygon fill="midnightblue" stroke="midnightblue" points="798.759,-187.877 788.759,-191.377 798.758,-194.877 798.759,-187.877"/>
</g>
<!-- Node13 -->
<g id="node13" class="node"><title>Node13</title>
<g id="a_node13"><a xlink:href="classx265_1_1Encoder.html#af5c80cef5fcafa00d1b3c105681bc784" target="_top" xlink:title="x265::Encoder::encode">
<polygon fill="white" stroke="black" points="524.5,-85.8771 524.5,-104.877 641.5,-104.877 641.5,-85.8771 524.5,-85.8771"/>
<text text-anchor="middle" x="583" y="-92.8771" font-family="Helvetica,sans-Serif" font-size="10.00">x265::Encoder::encode</text>
</a>
</g>
</g>
<!-- Node12&#45;&gt;Node13 -->
<g id="edge12" class="edge"><title>Node12&#45;&gt;Node13</title>
<path fill="none" stroke="midnightblue" d="M497.946,-95.3771C506.844,-95.3771 515.766,-95.3771 524.298,-95.3771"/>
<polygon fill="midnightblue" stroke="midnightblue" points="497.932,-91.8772 487.932,-95.3771 497.932,-98.8772 497.932,-91.8772"/>
</g>
<!-- Node14 -->
<g id="node14" class="node"><title>Node14</title>
<g id="a_node14"><a xlink:href="x265_8h.html#a7a45a920b9d86ed3fb3cb3794b14f5ea" target="_top" xlink:title="x265_encoder_encode">
<polygon fill="white" stroke="black" points="678,-85.8771 678,-104.877 792,-104.877 792,-85.8771 678,-85.8771"/>
<text text-anchor="middle" x="735" y="-92.8771" font-family="Helvetica,sans-Serif" font-size="10.00">x265_encoder_encode</text>
</a>
</g>
</g>
<!-- Node13&#45;&gt;Node14 -->
<g id="edge13" class="edge"><title>Node13&#45;&gt;Node14</title>
<path fill="none" stroke="midnightblue" d="M651.721,-95.3771C660.45,-95.3771 669.311,-95.3771 677.826,-95.3771"/>
<polygon fill="midnightblue" stroke="midnightblue" points="651.565,-91.8772 641.565,-95.3771 651.565,-98.8772 651.565,-91.8772"/>
</g>
<!-- Node15 -->
<g id="node15" class="node"><title>Node15</title>
<g id="a_node15"><a xlink:href="x265_8cpp.html#a3c04138a5bfe5d72780bb7e82a18e627" target="_top" xlink:title="main">
<polygon fill="white" stroke="black" points="863,-85.8771 863,-104.877 901,-104.877 901,-85.8771 863,-85.8771"/>
<text text-anchor="middle" x="882" y="-92.8771" font-family="Helvetica,sans-Serif" font-size="10.00">main</text>
</a>
</g>
</g>
<!-- Node14&#45;&gt;Node15 -->
<g id="edge14" class="edge"><title>Node14&#45;&gt;Node15</title>
<path fill="none" stroke="midnightblue" d="M802.212,-95.3771C824.494,-95.3771 847.575,-95.3771 862.949,-95.3771"/>
<polygon fill="midnightblue" stroke="midnightblue" points="802.061,-91.8772 792.061,-95.3771 802.061,-98.8772 802.061,-91.8772"/>
</g>
<!-- Node16&#45;&gt;Node13 -->
<g id="edge16" class="edge"><title>Node16&#45;&gt;Node13</title>
<path fill="none" stroke="midnightblue" d="M470.795,-29.9288C476.688,-31.8459 482.53,-33.993 488,-36.3771 519.087,-49.9253 551.859,-72.7315 569.306,-85.6622"/>
<polygon fill="midnightblue" stroke="midnightblue" points="471.468,-26.4754 460.882,-26.9182 469.433,-33.1733 471.468,-26.4754"/>
</g>
<!-- Node17&#45;&gt;Node13 -->
<g id="edge18" class="edge"><title>Node17&#45;&gt;Node13</title>
<path fill="none" stroke="midnightblue" d="M306.438,-135.637C358.635,-130.874 427.462,-123.685 488,-114.377 504.785,-111.796 523.117,-108.256 539.099,-104.93"/>
<polygon fill="midnightblue" stroke="midnightblue" points="305.873,-132.173 296.228,-136.557 306.501,-139.145 305.873,-132.173"/>
</g>
<!-- Node18&#45;&gt;Node12 -->
<g id="edge20" class="edge"><title>Node18&#45;&gt;Node12</title>
<path fill="none" stroke="midnightblue" d="M301.078,-70.9225C324.691,-75.9914 349.866,-81.3955 370.529,-85.831"/>
<polygon fill="midnightblue" stroke="midnightblue" points="301.583,-67.4513 291.071,-68.7745 300.114,-74.2954 301.583,-67.4513"/>
</g>
<!-- Node18&#45;&gt;Node16 -->
<g id="edge21" class="edge"><title>Node18&#45;&gt;Node16</title>
<path fill="none" stroke="midnightblue" d="M301.008,-39.4594C322.879,-35.2225 346.096,-30.725 365.83,-26.9022"/>
<polygon fill="midnightblue" stroke="midnightblue" points="300.223,-36.0463 291.071,-41.3843 301.554,-42.9185 300.223,-36.0463"/>
</g>
<!-- Node19 -->
<g id="node19" class="node"><title>Node19</title>
<g id="a_node19"><a xlink:href="classx265_1_1Lookahead.html#a341d8c6a3a971583aa911cf8dedbe6a1" target="_top" xlink:title="x265::Lookahead::findJob">
<polygon fill="white" stroke="black" points="352,-45.8771 352,-64.8771 480,-64.8771 480,-45.8771 352,-45.8771"/>
<text text-anchor="middle" x="416" y="-52.8771" font-family="Helvetica,sans-Serif" font-size="10.00">x265::Lookahead::findJob</text>
</a>
</g>
</g>
<!-- Node18&#45;&gt;Node19 -->
<g id="edge22" class="edge"><title>Node18&#45;&gt;Node19</title>
<path fill="none" stroke="midnightblue" d="M301.408,-54.7824C318.202,-54.8703 335.772,-54.9623 351.934,-55.0469"/>
<polygon fill="midnightblue" stroke="midnightblue" points="301.089,-51.2808 291.071,-54.7283 301.052,-58.2807 301.089,-51.2808"/>
</g>
</g>
</svg>
        <g id="navigator" transform="translate(0 0)" fill="#404254">
                <rect fill="#f2f5e9" fill-opacity="0.5" stroke="#606060" stroke-width=".5" x="0" y="0" width="60" height="60"/>
                <use id="zoomplus" xlink:href="#zoomPlus" x="17" y="9" onmousedown="handleZoom(evt,'in')"/>
                <use id="zoomminus" xlink:href="#zoomMin" x="42" y="9" onmousedown="handleZoom(evt,'out')"/>
                <use id="reset" xlink:href="#resetDef" x="30" y="36" onmousedown="handleReset()"/>
                <g id="arrowUp" xlink:href="#dirArrow" transform="translate(30 24)" onmousedown="handlePan(0,-1)">
                  <use xlink:href="#rim" fill="#404040">
                        <set attributeName="fill" to="#808080" begin="arrowUp.mouseover" end="arrowUp.mouseout"/>
                  </use>
                  <path fill="none" stroke="white" stroke-width="1.5" d="M0,-3.0v7 M-2.5,-0.5L0,-3.0L2.5,-0.5"/>
                </g>
                <g id="arrowRight" xlink:href="#dirArrow" transform="rotate(90) translate(36 -43)" onmousedown="handlePan(1,0)">
                  <use xlink:href="#rim" fill="#404040">
                        <set attributeName="fill" to="#808080" begin="arrowRight.mouseover" end="arrowRight.mouseout"/>
                  </use>
                  <path fill="none" stroke="white" stroke-width="1.5" d="M0,-3.0v7 M-2.5,-0.5L0,-3.0L2.5,-0.5"/>
                </g>
                <g id="arrowDown" xlink:href="#dirArrow" transform="rotate(180) translate(-30 -48)" onmousedown="handlePan(0,1)">
                  <use xlink:href="#rim" fill="#404040">
                        <set attributeName="fill" to="#808080" begin="arrowDown.mouseover" end="arrowDown.mouseout"/>
                  </use>
                  <path fill="none" stroke="white" stroke-width="1.5" d="M0,-3.0v7 M-2.5,-0.5L0,-3.0L2.5,-0.5"/>
                </g>
                <g id="arrowLeft" xlink:href="#dirArrow" transform="rotate(270) translate(-36 17)" onmousedown="handlePan(-1,0)">
                  <use xlink:href="#rim" fill="#404040">
                        <set attributeName="fill" to="#808080" begin="arrowLeft.mouseover" end="arrowLeft.mouseout"/>
                  </use>
                  <path fill="none" stroke="white" stroke-width="1.5" d="M0,-3.0v7 M-2.5,-0.5L0,-3.0L2.5,-0.5"/>
                </g>
        </g>
        <svg viewBox="0 0 15 15" width="100%" height="30px" preserveAspectRatio="xMaxYMin meet">
         <g id="arrow_out" transform="scale(0.3 0.3)">
          <a xlink:href="classx265_1_1Lock_a985bcbbf08696312e240893ec0386c78_icgraph_org.svg" target="_base">
           <rect id="button" ry="5" rx="5" y="6" x="6" height="38" width="38"
                fill="#f2f5e9" fill-opacity="0.5" stroke="#606060" stroke-width="1.0"/>
           <path id="arrow"
             d="M 11.500037,31.436501 C 11.940474,20.09759 22.043105,11.32322 32.158766,21.979434 L 37.068811,17.246167 C 37.068811,17.246167 37.088388,32 37.088388,32 L 22.160133,31.978069 C 22.160133,31.978069 26.997745,27.140456 26.997745,27.140456 C 18.528582,18.264221 13.291696,25.230495 11.500037,31.436501 z"
             style="fill:#404040;"/>
          </a>
         </g>
        </svg>
</svg>
