<?xml version="1.0" encoding="UTF-8" standalone="no"?>
<!DOCTYPE svg PUBLIC "-//W3C//DTD SVG 1.1//EN"
 "http://www.w3.org/Graphics/SVG/1.1/DTD/svg11.dtd">
<!-- Generated by graphviz version 2.36.0 (20140111.2315)
 -->
<!-- Title: x265::PoolThread::threadMain Pages: 1 -->
<svg width="304pt" height="175pt"
 viewBox="0.00 0.00 304.00 175.00" xmlns="http://www.w3.org/2000/svg" xmlns:xlink="http://www.w3.org/1999/xlink">
<g id="graph0" class="graph" transform="scale(1 1) rotate(0) translate(4 171)">
<title>x265::PoolThread::threadMain</title>
<polygon fill="white" stroke="none" points="-4,4 -4,-171 300,-171 300,4 -4,4"/>
<!-- Node1 -->
<g id="node1" class="node"><title>Node1</title>
<polygon fill="#bfbfbf" stroke="black" points="0.5,-68.5 0.5,-87.5 147.5,-87.5 147.5,-68.5 0.5,-68.5"/>
<text text-anchor="middle" x="74" y="-75.5" font-family="Helvetica,sans-Serif" font-size="10.00">x265::PoolThread::threadMain</text>
</g>
<!-- Node2 -->
<g id="node2" class="node"><title>Node2</title>
<g id="a_node2"><a xlink:href="classx265_1_1ThreadPoolImpl.html#ab1f945cea305933a6d6e0f832d907b62" target="_top" xlink:title="x265::ThreadPoolImpl\l::IsValid">
<polygon fill="white" stroke="black" points="184,-137 184,-167 296,-167 296,-137 184,-137"/>
<text text-anchor="start" x="192" y="-155" font-family="Helvetica,sans-Serif" font-size="10.00">x265::ThreadPoolImpl</text>
<text text-anchor="middle" x="240" y="-144" font-family="Helvetica,sans-Serif" font-size="10.00">::IsValid</text>
</a>
</g>
</g>
<!-- Node1&#45;&gt;Node2 -->
<g id="edge1" class="edge"><title>Node1&#45;&gt;Node2</title>
<path fill="none" stroke="midnightblue" d="M96.1044,-87.5227C121.301,-98.8918 164.071,-118.19 196.267,-132.718"/>
<polygon fill="midnightblue" stroke="midnightblue" points="194.911,-135.946 205.466,-136.869 197.79,-129.566 194.911,-135.946"/>
</g>
<!-- Node3 -->
<g id="node3" class="node"><title>Node3</title>
<g id="a_node3"><a xlink:href="classx265_1_1JobProvider.html#a1630d385c1024b81b53b693c88274cde" target="_top" xlink:title="x265::JobProvider::\lfindJob">
<polygon fill="white" stroke="black" points="189.5,-88 189.5,-118 290.5,-118 290.5,-88 189.5,-88"/>
<text text-anchor="start" x="197.5" y="-106" font-family="Helvetica,sans-Serif" font-size="10.00">x265::JobProvider::</text>
<text text-anchor="middle" x="240" y="-95" font-family="Helvetica,sans-Serif" font-size="10.00">findJob</text>
</a>
</g>
</g>
<!-- Node1&#45;&gt;Node3 -->
<g id="edge2" class="edge"><title>Node1&#45;&gt;Node3</title>
<path fill="none" stroke="midnightblue" d="M137.469,-87.5227C151.175,-89.612 165.653,-91.819 179.248,-93.8915"/>
<polygon fill="midnightblue" stroke="midnightblue" points="179.032,-97.3989 189.445,-95.4459 180.087,-90.4788 179.032,-97.3989"/>
</g>
<!-- Node4 -->
<g id="node4" class="node"><title>Node4</title>
<g id="a_node4"><a xlink:href="classx265_1_1ThreadPoolImpl.html#a8468353662b90431b73f2e5023eeebd3" target="_top" xlink:title="x265::ThreadPoolImpl\l::markThreadAsleep">
<polygon fill="white" stroke="black" points="184,-39 184,-69 296,-69 296,-39 184,-39"/>
<text text-anchor="start" x="192" y="-57" font-family="Helvetica,sans-Serif" font-size="10.00">x265::ThreadPoolImpl</text>
<text text-anchor="middle" x="240" y="-46" font-family="Helvetica,sans-Serif" font-size="10.00">::markThreadAsleep</text>
</a>
</g>
</g>
<!-- Node1&#45;&gt;Node4 -->
<g id="edge3" class="edge"><title>Node1&#45;&gt;Node4</title>
<path fill="none" stroke="midnightblue" d="M140.288,-68.4456C151.367,-66.8243 162.872,-65.1407 173.945,-63.5203"/>
<polygon fill="midnightblue" stroke="midnightblue" points="174.58,-66.9646 183.968,-62.0535 173.567,-60.0384 174.58,-66.9646"/>
</g>
<!-- Node5 -->
<g id="node5" class="node"><title>Node5</title>
<g id="a_node5"><a xlink:href="classx265_1_1Event.html#a0a057be2071322603d9f2405729bd036" target="_top" xlink:title="x265::Event::wait">
<polygon fill="white" stroke="black" points="193.5,-0.5 193.5,-19.5 286.5,-19.5 286.5,-0.5 193.5,-0.5"/>
<text text-anchor="middle" x="240" y="-7.5" font-family="Helvetica,sans-Serif" font-size="10.00">x265::Event::wait</text>
</a>
</g>
</g>
<!-- Node1&#45;&gt;Node5 -->
<g id="edge4" class="edge"><title>Node1&#45;&gt;Node5</title>
<path fill="none" stroke="midnightblue" d="M95.7225,-68.3857C117.523,-58.3871 152.915,-42.4805 184,-30 189.878,-27.6399 196.155,-25.2432 202.288,-22.9677"/>
<polygon fill="midnightblue" stroke="midnightblue" points="203.54,-26.2366 211.729,-19.5142 201.136,-19.6626 203.54,-26.2366"/>
</g>
</g>
</svg>
