<?xml version="1.0" encoding="UTF-8" standalone="no"?>
<!DOCTYPE svg PUBLIC "-//W3C//DTD SVG 1.1//EN"
 "http://www.w3.org/Graphics/SVG/1.1/DTD/svg11.dtd">
<!-- Generated by graphviz version 2.36.0 (20140111.2315)
 -->
<!-- Title: x265::ThreadPoolImpl::Stop Pages: 1 -->
<svg width="414pt" height="115pt"
 viewBox="0.00 0.00 414.00 115.00" xmlns="http://www.w3.org/2000/svg" xmlns:xlink="http://www.w3.org/1999/xlink">
<g id="graph0" class="graph" transform="scale(1 1) rotate(0) translate(4 111)">
<title>x265::ThreadPoolImpl::Stop</title>
<polygon fill="white" stroke="none" points="-4,4 -4,-111 410,-111 410,4 -4,4"/>
<!-- Node1 -->
<g id="node1" class="node"><title>Node1</title>
<polygon fill="#bfbfbf" stroke="black" points="0,-33 0,-63 112,-63 112,-33 0,-33"/>
<text text-anchor="start" x="8" y="-51" font-family="Helvetica,sans-Serif" font-size="10.00">x265::ThreadPoolImpl</text>
<text text-anchor="middle" x="56" y="-40" font-family="Helvetica,sans-Serif" font-size="10.00">::Stop</text>
</g>
<!-- Node2 -->
<g id="node2" class="node"><title>Node2</title>
<g id="a_node2"><a xlink:href="classx265_1_1ThreadPoolImpl.html#af17f546fdc382ff7102897b91812ea12" target="_top" xlink:title="x265::ThreadPoolImpl\l::waitForAllIdle">
<polygon fill="white" stroke="black" points="152,-77 152,-107 264,-107 264,-77 152,-77"/>
<text text-anchor="start" x="160" y="-95" font-family="Helvetica,sans-Serif" font-size="10.00">x265::ThreadPoolImpl</text>
<text text-anchor="middle" x="208" y="-84" font-family="Helvetica,sans-Serif" font-size="10.00">::waitForAllIdle</text>
</a>
</g>
</g>
<!-- Node1&#45;&gt;Node2 -->
<g id="edge1" class="edge"><title>Node1&#45;&gt;Node2</title>
<path fill="none" stroke="midnightblue" d="M108.202,-63.0192C120.323,-66.5748 133.37,-70.4018 145.882,-74.0721"/>
<polygon fill="midnightblue" stroke="midnightblue" points="145.193,-77.5175 155.774,-76.9738 147.164,-70.8005 145.193,-77.5175"/>
</g>
<!-- Node3 -->
<g id="node3" class="node"><title>Node3</title>
<g id="a_node3"><a xlink:href="classx265_1_1PoolThread.html#a9e1083006da7d4bea5e60ff5a9e2ff41" target="_top" xlink:title="x265::PoolThread::poke">
<polygon fill="white" stroke="black" points="148,-38.5 148,-57.5 268,-57.5 268,-38.5 148,-38.5"/>
<text text-anchor="middle" x="208" y="-45.5" font-family="Helvetica,sans-Serif" font-size="10.00">x265::PoolThread::poke</text>
</a>
</g>
</g>
<!-- Node1&#45;&gt;Node3 -->
<g id="edge2" class="edge"><title>Node1&#45;&gt;Node3</title>
<path fill="none" stroke="midnightblue" d="M112.003,-48C120.416,-48 129.192,-48 137.863,-48"/>
<polygon fill="midnightblue" stroke="midnightblue" points="137.965,-51.5001 147.965,-48 137.965,-44.5001 137.965,-51.5001"/>
</g>
<!-- Node5 -->
<g id="node5" class="node"><title>Node5</title>
<g id="a_node5"><a xlink:href="classx265_1_1Thread.html#a6264fa4e413afa477a9db5e46a127113" target="_top" xlink:title="x265::Thread::stop">
<polygon fill="white" stroke="black" points="159,-0.5 159,-19.5 257,-19.5 257,-0.5 159,-0.5"/>
<text text-anchor="middle" x="208" y="-7.5" font-family="Helvetica,sans-Serif" font-size="10.00">x265::Thread::stop</text>
</a>
</g>
</g>
<!-- Node1&#45;&gt;Node5 -->
<g id="edge4" class="edge"><title>Node1&#45;&gt;Node5</title>
<path fill="none" stroke="midnightblue" d="M112.003,-34.066C127.492,-30.142 144.209,-25.9071 159.237,-22.0998"/>
<polygon fill="midnightblue" stroke="midnightblue" points="160.502,-25.3901 169.336,-19.5415 158.783,-18.6045 160.502,-25.3901"/>
</g>
<!-- Node4 -->
<g id="node4" class="node"><title>Node4</title>
<g id="a_node4"><a xlink:href="classx265_1_1Event.html#ad3e86a968fd0b5340255f8691c22441b" target="_top" xlink:title="x265::Event::trigger">
<polygon fill="white" stroke="black" points="304,-38.5 304,-57.5 406,-57.5 406,-38.5 304,-38.5"/>
<text text-anchor="middle" x="355" y="-45.5" font-family="Helvetica,sans-Serif" font-size="10.00">x265::Event::trigger</text>
</a>
</g>
</g>
<!-- Node3&#45;&gt;Node4 -->
<g id="edge3" class="edge"><title>Node3&#45;&gt;Node4</title>
<path fill="none" stroke="midnightblue" d="M268.395,-48C276.736,-48 285.316,-48 293.673,-48"/>
<polygon fill="midnightblue" stroke="midnightblue" points="293.726,-51.5001 303.726,-48 293.726,-44.5001 293.726,-51.5001"/>
</g>
</g>
</svg>
