<?xml version="1.0" encoding="UTF-8" standalone="no"?>
<!DOCTYPE svg PUBLIC "-//W3C//DTD SVG 1.1//EN"
 "http://www.w3.org/Graphics/SVG/1.1/DTD/svg11.dtd">
<!-- Generated by graphviz version 2.36.0 (20140111.2315)
 -->
<!-- Title: x265::SyntaxElementWriter::writeSvlc Pages: 1 -->
<!--zoomable 202 -->
<svg id="main" version="1.1" xmlns="http://www.w3.org/2000/svg" xmlns:xlink="http://www.w3.org/1999/xlink" xml:space="preserve" onload="init(evt)">
<style type="text/css"><![CDATA[
.edge:hover path { stroke: red; }
.edge:hover polygon { stroke: red; fill: red; }
]]></style>
<script type="text/javascript"><![CDATA[
var edges = document.getElementsByTagName('g');
if (edges && edges.length) {
  for (var i=0;i<edges.length;i++) {
    if (edges[i].id.substr(0,4)=='edge') {
      edges[i].setAttribute('class','edge');
    }
  }
}
]]></script>
        <defs>
                <circle id="rim" cx="0" cy="0" r="7"/>
                <circle id="rim2" cx="0" cy="0" r="3.5"/>
                <g id="zoomPlus">
                        <use xlink:href="#rim" fill="#404040">
                                <set attributeName="fill" to="#808080" begin="zoomplus.mouseover" end="zoomplus.mouseout"/>
                        </use>
                        <path d="M-4,0h8M0,-4v8" fill="none" stroke="white" stroke-width="1.5" pointer-events="none"/>
                </g>
                <g id="zoomMin">
                        <use xlink:href="#rim" fill="#404040">
                                <set attributeName="fill" to="#808080" begin="zoomminus.mouseover" end="zoomminus.mouseout"/>
                        </use>
                        <path d="M-4,0h8" fill="none" stroke="white" stroke-width="1.5" pointer-events="none"/>
                </g>
                <g id="dirArrow">
                        <path fill="none" stroke="white" stroke-width="1.5" d="M0,-3.0v7 M-2.5,-0.5L0,-3.0L2.5,-0.5"/>
                </g>
               <g id="resetDef">
                       <use xlink:href="#rim2" fill="#404040">
                               <set attributeName="fill" to="#808080" begin="reset.mouseover" end="reset.mouseout"/>
                       </use>
               </g>
        </defs>

<script type="text/javascript">
var viewWidth = 978;
var viewHeight = 202;
var sectionId = 'dynsection-15';
</script>
<script xlink:href="svgpan.js"/>
<svg id="graph" class="graph">
<g id="viewport">
<title>x265::SyntaxElementWriter::writeSvlc</title>
<polygon fill="white" stroke="none" points="-4,4 -4,-198 974,-198 974,4 -4,4"/>
<!-- Node1 -->
<g id="node1" class="node"><title>Node1</title>
<polygon fill="#bfbfbf" stroke="black" points="0.5,-93 0.5,-123 137.5,-123 137.5,-93 0.5,-93"/>
<text text-anchor="start" x="8.5" y="-111" font-family="Helvetica,sans-Serif" font-size="10.00">x265::SyntaxElementWriter</text>
<text text-anchor="middle" x="69" y="-100" font-family="Helvetica,sans-Serif" font-size="10.00">::writeSvlc</text>
</g>
<!-- Node2 -->
<g id="node2" class="node"><title>Node2</title>
<g id="a_node2"><a xlink:href="classx265_1_1SyntaxElementWriter.html#abd043bffe2e86e34473d57508388ebce" target="_top" xlink:title="x265::SyntaxElementWriter\l::WRITE_SVLC">
<polygon fill="white" stroke="black" points="174.5,-93 174.5,-123 311.5,-123 311.5,-93 174.5,-93"/>
<text text-anchor="start" x="182.5" y="-111" font-family="Helvetica,sans-Serif" font-size="10.00">x265::SyntaxElementWriter</text>
<text text-anchor="middle" x="243" y="-100" font-family="Helvetica,sans-Serif" font-size="10.00">::WRITE_SVLC</text>
</a>
</g>
</g>
<!-- Node1&#45;&gt;Node2 -->
<g id="edge1" class="edge"><title>Node1&#45;&gt;Node2</title>
<path fill="none" stroke="midnightblue" d="M148.134,-108C156.846,-108 165.666,-108 174.233,-108"/>
<polygon fill="midnightblue" stroke="midnightblue" points="147.979,-104.5 137.979,-108 147.979,-111.5 147.979,-104.5"/>
</g>
<!-- Node3 -->
<g id="node3" class="node"><title>Node3</title>
<g id="a_node3"><a xlink:href="classx265_1_1Entropy.html#a6214592673cec7c00e87e3d79376fac0" target="_top" xlink:title="x265::Entropy::codePPS">
<polygon fill="white" stroke="black" points="363.5,-174.5 363.5,-193.5 488.5,-193.5 488.5,-174.5 363.5,-174.5"/>
<text text-anchor="middle" x="426" y="-181.5" font-family="Helvetica,sans-Serif" font-size="10.00">x265::Entropy::codePPS</text>
</a>
</g>
</g>
<!-- Node2&#45;&gt;Node3 -->
<g id="edge2" class="edge"><title>Node2&#45;&gt;Node3</title>
<path fill="none" stroke="midnightblue" d="M276.222,-128.507C296.247,-140.521 322.879,-155.209 348,-165 357.493,-168.7 367.932,-171.849 377.977,-174.455"/>
<polygon fill="midnightblue" stroke="midnightblue" points="277.877,-125.417 267.516,-123.203 274.235,-131.395 277.877,-125.417"/>
</g>
<!-- Node9 -->
<g id="node9" class="node"><title>Node9</title>
<g id="a_node9"><a xlink:href="classx265_1_1Entropy.html#a5893b3a79fe1f0bce9d7a0ee95d0d36a" target="_top" xlink:title="x265::Entropy::codeScalingList">
<polygon fill="white" stroke="black" points="350,-136.5 350,-155.5 502,-155.5 502,-136.5 350,-136.5"/>
<text text-anchor="middle" x="426" y="-143.5" font-family="Helvetica,sans-Serif" font-size="10.00">x265::Entropy::codeScalingList</text>
</a>
</g>
</g>
<!-- Node2&#45;&gt;Node9 -->
<g id="edge8" class="edge"><title>Node2&#45;&gt;Node9</title>
<path fill="none" stroke="midnightblue" d="M321.604,-124.293C341.413,-128.451 362.063,-132.787 379.654,-136.48"/>
<polygon fill="midnightblue" stroke="midnightblue" points="322.161,-120.833 311.655,-122.204 320.723,-127.684 322.161,-120.833"/>
</g>
<!-- Node10 -->
<g id="node10" class="node"><title>Node10</title>
<g id="a_node10"><a xlink:href="classx265_1_1Entropy.html#ad1f2a2f7d75512adb1d05131b6689ac1" target="_top" xlink:title="x265::Entropy::codeSlice\lHeader">
<polygon fill="white" stroke="black" points="543,-93 543,-123 669,-123 669,-93 543,-93"/>
<text text-anchor="start" x="551" y="-111" font-family="Helvetica,sans-Serif" font-size="10.00">x265::Entropy::codeSlice</text>
<text text-anchor="middle" x="606" y="-100" font-family="Helvetica,sans-Serif" font-size="10.00">Header</text>
</a>
</g>
</g>
<!-- Node2&#45;&gt;Node10 -->
<g id="edge9" class="edge"><title>Node2&#45;&gt;Node10</title>
<path fill="none" stroke="midnightblue" d="M322.266,-108C388.365,-108 481.754,-108 542.83,-108"/>
<polygon fill="midnightblue" stroke="midnightblue" points="321.901,-104.5 311.901,-108 321.901,-111.5 321.901,-104.5"/>
</g>
<!-- Node11 -->
<g id="node11" class="node"><title>Node11</title>
<g id="a_node11"><a xlink:href="classx265_1_1Entropy.html#a0e72c57a90e34eda0f725ac6973cb72d" target="_top" xlink:title="x265::Entropy::codePredWeight\lTable">
<polygon fill="white" stroke="black" points="348.5,-49 348.5,-79 503.5,-79 503.5,-49 348.5,-49"/>
<text text-anchor="start" x="356.5" y="-67" font-family="Helvetica,sans-Serif" font-size="10.00">x265::Entropy::codePredWeight</text>
<text text-anchor="middle" x="426" y="-56" font-family="Helvetica,sans-Serif" font-size="10.00">Table</text>
</a>
</g>
</g>
<!-- Node2&#45;&gt;Node11 -->
<g id="edge11" class="edge"><title>Node2&#45;&gt;Node11</title>
<path fill="none" stroke="midnightblue" d="M315.929,-90.5145C331.568,-86.7127 347.981,-82.723 363.188,-79.0262"/>
<polygon fill="midnightblue" stroke="midnightblue" points="314.674,-87.2176 305.784,-92.9808 316.327,-94.0195 314.674,-87.2176"/>
</g>
<!-- Node12 -->
<g id="node12" class="node"><title>Node12</title>
<g id="a_node12"><a xlink:href="classx265_1_1SEIRecoveryPoint.html#a1305df775c7e64b8d68cfc1a3c4c40e8" target="_top" xlink:title="x265::SEIRecoveryPoint\l::writeSEI">
<polygon fill="white" stroke="black" points="363.5,-0 363.5,-30 488.5,-30 488.5,-0 363.5,-0"/>
<text text-anchor="start" x="371.5" y="-18" font-family="Helvetica,sans-Serif" font-size="10.00">x265::SEIRecoveryPoint</text>
<text text-anchor="middle" x="426" y="-7" font-family="Helvetica,sans-Serif" font-size="10.00">::writeSEI</text>
</a>
</g>
</g>
<!-- Node2&#45;&gt;Node12 -->
<g id="edge13" class="edge"><title>Node2&#45;&gt;Node12</title>
<path fill="none" stroke="midnightblue" d="M271.93,-86.8004C292.21,-72.1558 320.759,-53.0415 348,-40 355.606,-36.3585 363.877,-33.0506 372.082,-30.1201"/>
<polygon fill="midnightblue" stroke="midnightblue" points="269.774,-84.041 263.772,-92.7723 273.909,-89.6892 269.774,-84.041"/>
</g>
<!-- Node4 -->
<g id="node4" class="node"><title>Node4</title>
<g id="a_node4"><a xlink:href="classx265_1_1Encoder.html#a5095039a4d1af32049c30052ef3e6588" target="_top" xlink:title="x265::Encoder::getStream\lHeaders">
<polygon fill="white" stroke="black" points="540.5,-155 540.5,-185 671.5,-185 671.5,-155 540.5,-155"/>
<text text-anchor="start" x="548.5" y="-173" font-family="Helvetica,sans-Serif" font-size="10.00">x265::Encoder::getStream</text>
<text text-anchor="middle" x="606" y="-162" font-family="Helvetica,sans-Serif" font-size="10.00">Headers</text>
</a>
</g>
</g>
<!-- Node3&#45;&gt;Node4 -->
<g id="edge3" class="edge"><title>Node3&#45;&gt;Node4</title>
<path fill="none" stroke="midnightblue" d="M499.066,-178.332C512.717,-177.258 526.921,-176.141 540.327,-175.087"/>
<polygon fill="midnightblue" stroke="midnightblue" points="498.451,-174.869 488.756,-179.143 499,-181.848 498.451,-174.869"/>
</g>
<!-- Node5 -->
<g id="node5" class="node"><title>Node5</title>
<g id="a_node5"><a xlink:href="x265_8h.html#a575071c7bc7374ffd708d93f016211b5" target="_top" xlink:title="x265_encoder_headers">
<polygon fill="white" stroke="black" points="708.5,-160.5 708.5,-179.5 825.5,-179.5 825.5,-160.5 708.5,-160.5"/>
<text text-anchor="middle" x="767" y="-167.5" font-family="Helvetica,sans-Serif" font-size="10.00">x265_encoder_headers</text>
</a>
</g>
</g>
<!-- Node4&#45;&gt;Node5 -->
<g id="edge4" class="edge"><title>Node4&#45;&gt;Node5</title>
<path fill="none" stroke="midnightblue" d="M681.699,-170C690.632,-170 699.646,-170 708.288,-170"/>
<polygon fill="midnightblue" stroke="midnightblue" points="681.671,-166.5 671.671,-170 681.671,-173.5 681.671,-166.5"/>
</g>
<!-- Node7 -->
<g id="node7" class="node"><title>Node7</title>
<g id="a_node7"><a xlink:href="classx265_1_1FrameEncoder.html#a2f5c4c0f1a4e36fce4c9b87eb7ec4973" target="_top" xlink:title="x265::FrameEncoder\l::compressFrame">
<polygon fill="white" stroke="black" points="713.5,-102 713.5,-132 820.5,-132 820.5,-102 713.5,-102"/>
<text text-anchor="start" x="721.5" y="-120" font-family="Helvetica,sans-Serif" font-size="10.00">x265::FrameEncoder</text>
<text text-anchor="middle" x="767" y="-109" font-family="Helvetica,sans-Serif" font-size="10.00">::compressFrame</text>
</a>
</g>
</g>
<!-- Node4&#45;&gt;Node7 -->
<g id="edge6" class="edge"><title>Node4&#45;&gt;Node7</title>
<path fill="none" stroke="midnightblue" d="M661.688,-151.771C680.944,-145.352 702.358,-138.214 720.749,-132.084"/>
<polygon fill="midnightblue" stroke="midnightblue" points="660.518,-148.471 652.138,-154.954 662.731,-155.112 660.518,-148.471"/>
</g>
<!-- Node6 -->
<g id="node6" class="node"><title>Node6</title>
<g id="a_node6"><a xlink:href="x265_8cpp.html#a3c04138a5bfe5d72780bb7e82a18e627" target="_top" xlink:title="main">
<polygon fill="white" stroke="black" points="897,-160.5 897,-179.5 935,-179.5 935,-160.5 897,-160.5"/>
<text text-anchor="middle" x="916" y="-167.5" font-family="Helvetica,sans-Serif" font-size="10.00">main</text>
</a>
</g>
</g>
<!-- Node5&#45;&gt;Node6 -->
<g id="edge5" class="edge"><title>Node5&#45;&gt;Node6</title>
<path fill="none" stroke="midnightblue" d="M835.914,-170C858.368,-170 881.521,-170 896.927,-170"/>
<polygon fill="midnightblue" stroke="midnightblue" points="835.676,-166.5 825.676,-170 835.676,-173.5 835.676,-166.5"/>
</g>
<!-- Node8 -->
<g id="node8" class="node"><title>Node8</title>
<g id="a_node8"><a xlink:href="classx265_1_1FrameEncoder.html#aef61f29b9e93b3af9255d96236bc90a7" target="_top" xlink:title="x265::FrameEncoder\l::threadMain">
<polygon fill="white" stroke="black" points="862.5,-102 862.5,-132 969.5,-132 969.5,-102 862.5,-102"/>
<text text-anchor="start" x="870.5" y="-120" font-family="Helvetica,sans-Serif" font-size="10.00">x265::FrameEncoder</text>
<text text-anchor="middle" x="916" y="-109" font-family="Helvetica,sans-Serif" font-size="10.00">::threadMain</text>
</a>
</g>
</g>
<!-- Node7&#45;&gt;Node8 -->
<g id="edge7" class="edge"><title>Node7&#45;&gt;Node8</title>
<path fill="none" stroke="midnightblue" d="M830.948,-117C841.37,-117 852.081,-117 862.218,-117"/>
<polygon fill="midnightblue" stroke="midnightblue" points="830.655,-113.5 820.655,-117 830.655,-120.5 830.655,-113.5"/>
</g>
<!-- Node10&#45;&gt;Node7 -->
<g id="edge10" class="edge"><title>Node10&#45;&gt;Node7</title>
<path fill="none" stroke="midnightblue" d="M679.706,-112.115C691.03,-112.756 702.54,-113.408 713.306,-114.017"/>
<polygon fill="midnightblue" stroke="midnightblue" points="679.567,-108.602 669.385,-111.531 679.171,-115.591 679.567,-108.602"/>
</g>
<!-- Node11&#45;&gt;Node10 -->
<g id="edge12" class="edge"><title>Node11&#45;&gt;Node10</title>
<path fill="none" stroke="midnightblue" d="M497.737,-81.4855C513.117,-85.2873 529.257,-89.277 544.212,-92.9738"/>
<polygon fill="midnightblue" stroke="midnightblue" points="498.307,-78.0213 487.76,-79.0192 496.628,-84.8167 498.307,-78.0213"/>
</g>
</g>
</svg>
        <g id="navigator" transform="translate(0 0)" fill="#404254">
                <rect fill="#f2f5e9" fill-opacity="0.5" stroke="#606060" stroke-width=".5" x="0" y="0" width="60" height="60"/>
                <use id="zoomplus" xlink:href="#zoomPlus" x="17" y="9" onmousedown="handleZoom(evt,'in')"/>
                <use id="zoomminus" xlink:href="#zoomMin" x="42" y="9" onmousedown="handleZoom(evt,'out')"/>
                <use id="reset" xlink:href="#resetDef" x="30" y="36" onmousedown="handleReset()"/>
                <g id="arrowUp" xlink:href="#dirArrow" transform="translate(30 24)" onmousedown="handlePan(0,-1)">
                  <use xlink:href="#rim" fill="#404040">
                        <set attributeName="fill" to="#808080" begin="arrowUp.mouseover" end="arrowUp.mouseout"/>
                  </use>
                  <path fill="none" stroke="white" stroke-width="1.5" d="M0,-3.0v7 M-2.5,-0.5L0,-3.0L2.5,-0.5"/>
                </g>
                <g id="arrowRight" xlink:href="#dirArrow" transform="rotate(90) translate(36 -43)" onmousedown="handlePan(1,0)">
                  <use xlink:href="#rim" fill="#404040">
                        <set attributeName="fill" to="#808080" begin="arrowRight.mouseover" end="arrowRight.mouseout"/>
                  </use>
                  <path fill="none" stroke="white" stroke-width="1.5" d="M0,-3.0v7 M-2.5,-0.5L0,-3.0L2.5,-0.5"/>
                </g>
                <g id="arrowDown" xlink:href="#dirArrow" transform="rotate(180) translate(-30 -48)" onmousedown="handlePan(0,1)">
                  <use xlink:href="#rim" fill="#404040">
                        <set attributeName="fill" to="#808080" begin="arrowDown.mouseover" end="arrowDown.mouseout"/>
                  </use>
                  <path fill="none" stroke="white" stroke-width="1.5" d="M0,-3.0v7 M-2.5,-0.5L0,-3.0L2.5,-0.5"/>
                </g>
                <g id="arrowLeft" xlink:href="#dirArrow" transform="rotate(270) translate(-36 17)" onmousedown="handlePan(-1,0)">
                  <use xlink:href="#rim" fill="#404040">
                        <set attributeName="fill" to="#808080" begin="arrowLeft.mouseover" end="arrowLeft.mouseout"/>
                  </use>
                  <path fill="none" stroke="white" stroke-width="1.5" d="M0,-3.0v7 M-2.5,-0.5L0,-3.0L2.5,-0.5"/>
                </g>
        </g>
        <svg viewBox="0 0 15 15" width="100%" height="30px" preserveAspectRatio="xMaxYMin meet">
         <g id="arrow_out" transform="scale(0.3 0.3)">
          <a xlink:href="classx265_1_1SyntaxElementWriter_aaa4cbfe0fa90daf355de0c7d7f4f5788_icgraph_org.svg" target="_base">
           <rect id="button" ry="5" rx="5" y="6" x="6" height="38" width="38"
                fill="#f2f5e9" fill-opacity="0.5" stroke="#606060" stroke-width="1.0"/>
           <path id="arrow"
             d="M 11.500037,31.436501 C 11.940474,20.09759 22.043105,11.32322 32.158766,21.979434 L 37.068811,17.246167 C 37.068811,17.246167 37.088388,32 37.088388,32 L 22.160133,31.978069 C 22.160133,31.978069 26.997745,27.140456 26.997745,27.140456 C 18.528582,18.264221 13.291696,25.230495 11.500037,31.436501 z"
             style="fill:#404040;"/>
          </a>
         </g>
        </svg>
</svg>
