<?xml version="1.0" encoding="UTF-8" standalone="no"?>
<!DOCTYPE svg PUBLIC "-//W3C//DTD SVG 1.1//EN"
 "http://www.w3.org/Graphics/SVG/1.1/DTD/svg11.dtd">
<!-- Generated by graphviz version 2.36.0 (20140111.2315)
 -->
<!-- Title: x265::RateControl::RateControl Pages: 1 -->
<svg width="290pt" height="142pt"
 viewBox="0.00 0.00 290.00 142.00" xmlns="http://www.w3.org/2000/svg" xmlns:xlink="http://www.w3.org/1999/xlink">
<g id="graph0" class="graph" transform="scale(1 1) rotate(0) translate(4 138)">
<title>x265::RateControl::RateControl</title>
<polygon fill="white" stroke="none" points="-4,4 -4,-138 286,-138 286,4 -4,4"/>
<!-- Node1 -->
<g id="node1" class="node"><title>Node1</title>
<polygon fill="#bfbfbf" stroke="black" points="0,-52 0,-82 102,-82 102,-52 0,-52"/>
<text text-anchor="start" x="8" y="-70" font-family="Helvetica,sans-Serif" font-size="10.00">x265::RateControl::</text>
<text text-anchor="middle" x="51" y="-59" font-family="Helvetica,sans-Serif" font-size="10.00">RateControl</text>
</g>
<!-- Node2 -->
<g id="node2" class="node"><title>Node2</title>
<g id="a_node2"><a xlink:href="classx265_1_1ThreadSafeInteger.html#a7ccef198afc7cd642b949381b0b9bbe8" target="_top" xlink:title="x265::ThreadSafeInteger::set">
<polygon fill="white" stroke="black" points="138.5,-114.5 138.5,-133.5 281.5,-133.5 281.5,-114.5 138.5,-114.5"/>
<text text-anchor="middle" x="210" y="-121.5" font-family="Helvetica,sans-Serif" font-size="10.00">x265::ThreadSafeInteger::set</text>
</a>
</g>
</g>
<!-- Node1&#45;&gt;Node2 -->
<g id="edge1" class="edge"><title>Node1&#45;&gt;Node2</title>
<path fill="none" stroke="midnightblue" d="M82.9826,-82.081C99.1401,-89.5879 119.372,-98.4362 138,-105 144.785,-107.391 152.024,-109.65 159.189,-111.719"/>
<polygon fill="midnightblue" stroke="midnightblue" points="158.292,-115.102 168.864,-114.419 160.173,-108.36 158.292,-115.102"/>
</g>
<!-- Node3 -->
<g id="node3" class="node"><title>Node3</title>
<g id="a_node3"><a xlink:href="common_8cpp.html#a4f4c9b86a7de778b323e810d58f82881" target="_top" xlink:title="x265_qp2qScale">
<polygon fill="white" stroke="black" points="165.5,-76.5 165.5,-95.5 254.5,-95.5 254.5,-76.5 165.5,-76.5"/>
<text text-anchor="middle" x="210" y="-83.5" font-family="Helvetica,sans-Serif" font-size="10.00">x265_qp2qScale</text>
</a>
</g>
</g>
<!-- Node1&#45;&gt;Node3 -->
<g id="edge2" class="edge"><title>Node1&#45;&gt;Node3</title>
<path fill="none" stroke="midnightblue" d="M102.107,-73.064C119.136,-75.1248 138.226,-77.4349 155.509,-79.5265"/>
<polygon fill="midnightblue" stroke="midnightblue" points="155.099,-83.0024 165.447,-80.7292 155.94,-76.0531 155.099,-83.0024"/>
</g>
<!-- Node4 -->
<g id="node4" class="node"><title>Node4</title>
<g id="a_node4"><a xlink:href="common_8cpp.html#a746489f014374f963df715ddf9bd3986" target="_top" xlink:title="x265_log">
<polygon fill="white" stroke="black" points="182,-38.5 182,-57.5 238,-57.5 238,-38.5 182,-38.5"/>
<text text-anchor="middle" x="210" y="-45.5" font-family="Helvetica,sans-Serif" font-size="10.00">x265_log</text>
</a>
</g>
</g>
<!-- Node1&#45;&gt;Node4 -->
<g id="edge3" class="edge"><title>Node1&#45;&gt;Node4</title>
<path fill="none" stroke="midnightblue" d="M102.107,-60.936C124.678,-58.2046 150.867,-55.0351 171.674,-52.5171"/>
<polygon fill="midnightblue" stroke="midnightblue" points="172.209,-55.9781 181.716,-51.3019 171.368,-49.0288 172.209,-55.9781"/>
</g>
<!-- Node5 -->
<g id="node5" class="node"><title>Node5</title>
<g id="a_node5"><a xlink:href="common_8h.html#a0bc45c2b4097068046b78520c8c09a94" target="_top" xlink:title="Clip3">
<polygon fill="white" stroke="black" points="190.5,-0.5 190.5,-19.5 229.5,-19.5 229.5,-0.5 190.5,-0.5"/>
<text text-anchor="middle" x="210" y="-7.5" font-family="Helvetica,sans-Serif" font-size="10.00">Clip3</text>
</a>
</g>
</g>
<!-- Node1&#45;&gt;Node5 -->
<g id="edge4" class="edge"><title>Node1&#45;&gt;Node5</title>
<path fill="none" stroke="midnightblue" d="M82.9826,-51.919C99.1401,-44.4121 119.372,-35.5638 138,-29 151.77,-24.1482 167.413,-19.8381 180.505,-16.5545"/>
<polygon fill="midnightblue" stroke="midnightblue" points="181.486,-19.9181 190.373,-14.1506 179.829,-13.117 181.486,-19.9181"/>
</g>
</g>
</svg>
