<?xml version="1.0" encoding="UTF-8" standalone="no"?>
<!DOCTYPE svg PUBLIC "-//W3C//DTD SVG 1.1//EN"
 "http://www.w3.org/Graphics/SVG/1.1/DTD/svg11.dtd">
<!-- Generated by graphviz version 2.36.0 (20140111.2315)
 -->
<!-- Title: x265::Entropy::codePartSize Pages: 1 -->
<!--zoomable 453 -->
<svg id="main" version="1.1" xmlns="http://www.w3.org/2000/svg" xmlns:xlink="http://www.w3.org/1999/xlink" xml:space="preserve" onload="init(evt)">
<style type="text/css"><![CDATA[
.edge:hover path { stroke: red; }
.edge:hover polygon { stroke: red; fill: red; }
]]></style>
<script type="text/javascript"><![CDATA[
var edges = document.getElementsByTagName('g');
if (edges && edges.length) {
  for (var i=0;i<edges.length;i++) {
    if (edges[i].id.substr(0,4)=='edge') {
      edges[i].setAttribute('class','edge');
    }
  }
}
]]></script>
        <defs>
                <circle id="rim" cx="0" cy="0" r="7"/>
                <circle id="rim2" cx="0" cy="0" r="3.5"/>
                <g id="zoomPlus">
                        <use xlink:href="#rim" fill="#404040">
                                <set attributeName="fill" to="#808080" begin="zoomplus.mouseover" end="zoomplus.mouseout"/>
                        </use>
                        <path d="M-4,0h8M0,-4v8" fill="none" stroke="white" stroke-width="1.5" pointer-events="none"/>
                </g>
                <g id="zoomMin">
                        <use xlink:href="#rim" fill="#404040">
                                <set attributeName="fill" to="#808080" begin="zoomminus.mouseover" end="zoomminus.mouseout"/>
                        </use>
                        <path d="M-4,0h8" fill="none" stroke="white" stroke-width="1.5" pointer-events="none"/>
                </g>
                <g id="dirArrow">
                        <path fill="none" stroke="white" stroke-width="1.5" d="M0,-3.0v7 M-2.5,-0.5L0,-3.0L2.5,-0.5"/>
                </g>
               <g id="resetDef">
                       <use xlink:href="#rim2" fill="#404040">
                               <set attributeName="fill" to="#808080" begin="reset.mouseover" end="reset.mouseout"/>
                       </use>
               </g>
        </defs>

<script type="text/javascript">
var viewWidth = 1978;
var viewHeight = 453;
var sectionId = 'dynsection-32';
</script>
<script xlink:href="svgpan.js"/>
<svg id="graph" class="graph">
<g id="viewport">
<title>x265::Entropy::codePartSize</title>
<polygon fill="white" stroke="none" points="-4,4 -4,-449.46 1974,-449.46 1974,4 -4,4"/>
<!-- Node1 -->
<g id="node1" class="node"><title>Node1</title>
<polygon fill="#bfbfbf" stroke="black" points="0,-181.5 0,-200.5 142,-200.5 142,-181.5 0,-181.5"/>
<text text-anchor="middle" x="71" y="-188.5" font-family="Helvetica,sans-Serif" font-size="10.00">x265::Entropy::codePartSize</text>
</g>
<!-- Node2 -->
<g id="node2" class="node"><title>Node2</title>
<g id="a_node2"><a xlink:href="classx265_1_1Analysis.html#ae4d61bcf4d2c22a054d68d6d77136428" target="_top" xlink:title="x265::Analysis::encodeIntra\lInInter">
<polygon fill="white" stroke="black" points="377,-274 377,-304 515,-304 515,-274 377,-274"/>
<text text-anchor="start" x="385" y="-292" font-family="Helvetica,sans-Serif" font-size="10.00">x265::Analysis::encodeIntra</text>
<text text-anchor="middle" x="446" y="-281" font-family="Helvetica,sans-Serif" font-size="10.00">InInter</text>
</a>
</g>
</g>
<!-- Node1&#45;&gt;Node2 -->
<g id="edge1" class="edge"><title>Node1&#45;&gt;Node2</title>
<path fill="none" stroke="midnightblue" d="M94.4663,-206.026C115.248,-219.193 147.448,-237.778 178,-248 243.488,-269.911 321.976,-280.181 376.843,-284.952"/>
<polygon fill="midnightblue" stroke="midnightblue" points="96.3328,-203.065 86.0331,-200.582 92.536,-208.946 96.3328,-203.065"/>
</g>
<!-- Node13 -->
<g id="node13" class="node"><title>Node13</title>
<g id="a_node13"><a xlink:href="classx265_1_1Entropy.html#adeb50a7c9a5df6643407d01158d93799" target="_top" xlink:title="x265::Entropy::encodeCU">
<polygon fill="white" stroke="black" points="192,-48.5 192,-67.5 322,-67.5 322,-48.5 192,-48.5"/>
<text text-anchor="middle" x="257" y="-55.5" font-family="Helvetica,sans-Serif" font-size="10.00">x265::Entropy::encodeCU</text>
</a>
</g>
</g>
<!-- Node1&#45;&gt;Node13 -->
<g id="edge14" class="edge"><title>Node1&#45;&gt;Node13</title>
<path fill="none" stroke="midnightblue" d="M93.6255,-175.369C131.952,-147.665 210.736,-90.7179 242.391,-67.8372"/>
<polygon fill="midnightblue" stroke="midnightblue" points="91.287,-172.74 85.2328,-181.435 95.3877,-178.413 91.287,-172.74"/>
</g>
<!-- Node16 -->
<g id="node16" class="node"><title>Node16</title>
<g id="a_node16"><a xlink:href="classx265_1_1Search.html#a59b84ac1e21c86af579b6e84e43c5b7a" target="_top" xlink:title="x265::Search::codeIntraLumaQT">
<polygon fill="white" stroke="black" points="178,-219.5 178,-238.5 336,-238.5 336,-219.5 178,-219.5"/>
<text text-anchor="middle" x="257" y="-226.5" font-family="Helvetica,sans-Serif" font-size="10.00">x265::Search::codeIntraLumaQT</text>
</a>
</g>
</g>
<!-- Node1&#45;&gt;Node16 -->
<g id="edge19" class="edge"><title>Node1&#45;&gt;Node16</title>
<path fill="none" stroke="midnightblue" d="M128.561,-202.681C154.654,-208.07 185.238,-214.386 209.903,-219.48"/>
<polygon fill="midnightblue" stroke="midnightblue" points="128.932,-199.184 118.431,-200.589 127.516,-206.039 128.932,-199.184"/>
</g>
<!-- Node18 -->
<g id="node18" class="node"><title>Node18</title>
<g id="a_node18"><a xlink:href="classx265_1_1Search.html#ab02df91827cf67796d1605bde60c6aed" target="_top" xlink:title="x265::Search::checkIntra">
<polygon fill="white" stroke="black" points="567,-173.5 567,-192.5 693,-192.5 693,-173.5 567,-173.5"/>
<text text-anchor="middle" x="630" y="-180.5" font-family="Helvetica,sans-Serif" font-size="10.00">x265::Search::checkIntra</text>
</a>
</g>
</g>
<!-- Node1&#45;&gt;Node18 -->
<g id="edge32" class="edge"><title>Node1&#45;&gt;Node18</title>
<path fill="none" stroke="midnightblue" d="M152.493,-189.844C264.561,-188.234 465.227,-185.352 566.659,-183.895"/>
<polygon fill="midnightblue" stroke="midnightblue" points="152.211,-186.348 142.262,-189.991 152.311,-193.347 152.211,-186.348"/>
</g>
<!-- Node22 -->
<g id="node22" class="node"><title>Node22</title>
<g id="a_node22"><a xlink:href="classx265_1_1Search.html#aba5e04ce529f41accd43c540ba1dc7ad" target="_top" xlink:title="x265::Search::encodeResAnd\lCalcRdInterCU">
<polygon fill="white" stroke="black" points="556.5,-212 556.5,-242 703.5,-242 703.5,-212 556.5,-212"/>
<text text-anchor="start" x="564.5" y="-230" font-family="Helvetica,sans-Serif" font-size="10.00">x265::Search::encodeResAnd</text>
<text text-anchor="middle" x="630" y="-219" font-family="Helvetica,sans-Serif" font-size="10.00">CalcRdInterCU</text>
</a>
</g>
</g>
<!-- Node1&#45;&gt;Node22 -->
<g id="edge33" class="edge"><title>Node1&#45;&gt;Node22</title>
<path fill="none" stroke="midnightblue" d="M152.119,-191.689C241.9,-193.09 391.696,-197.314 520,-210 531.817,-211.168 544.303,-212.768 556.442,-214.521"/>
<polygon fill="midnightblue" stroke="midnightblue" points="152.061,-188.188 142.01,-191.539 151.957,-195.187 152.061,-188.188"/>
</g>
<!-- Node3 -->
<g id="node3" class="node"><title>Node3</title>
<g id="a_node3"><a xlink:href="classx265_1_1Analysis.html#aa6122285d10bb1bd7584958b88b029d5" target="_top" xlink:title="x265::Analysis::parallel\lModeAnalysis">
<polygon fill="white" stroke="black" points="571,-356 571,-386 689,-386 689,-356 571,-356"/>
<text text-anchor="start" x="579" y="-374" font-family="Helvetica,sans-Serif" font-size="10.00">x265::Analysis::parallel</text>
<text text-anchor="middle" x="630" y="-363" font-family="Helvetica,sans-Serif" font-size="10.00">ModeAnalysis</text>
</a>
</g>
</g>
<!-- Node2&#45;&gt;Node3 -->
<g id="edge2" class="edge"><title>Node2&#45;&gt;Node3</title>
<path fill="none" stroke="midnightblue" d="M489.59,-308.189C521.9,-322.746 565.697,-342.479 595.522,-355.917"/>
<polygon fill="midnightblue" stroke="midnightblue" points="490.937,-304.957 480.382,-304.04 488.061,-311.339 490.937,-304.957"/>
</g>
<!-- Node5 -->
<g id="node5" class="node"><title>Node5</title>
<g id="a_node5"><a xlink:href="classx265_1_1Analysis.html#a87060ff27a37f56adc5f5b8a4c033ece" target="_top" xlink:title="x265::Analysis::compress\lInterCU_dist">
<polygon fill="white" stroke="black" points="922,-340 922,-370 1052,-370 1052,-340 922,-340"/>
<text text-anchor="start" x="930" y="-358" font-family="Helvetica,sans-Serif" font-size="10.00">x265::Analysis::compress</text>
<text text-anchor="middle" x="987" y="-347" font-family="Helvetica,sans-Serif" font-size="10.00">InterCU_dist</text>
</a>
</g>
</g>
<!-- Node2&#45;&gt;Node5 -->
<g id="edge11" class="edge"><title>Node2&#45;&gt;Node5</title>
<path fill="none" stroke="midnightblue" d="M464.105,-312.068C483.569,-336.576 517.669,-374.547 556,-395 629.752,-434.353 656.861,-425.286 740,-434 804.535,-440.764 824.703,-455.291 886,-434 922.366,-421.368 955.495,-389.412 972.986,-370.236"/>
<polygon fill="midnightblue" stroke="midnightblue" points="466.746,-309.763 457.848,-304.012 461.217,-314.057 466.746,-309.763"/>
</g>
<!-- Node12 -->
<g id="node12" class="node"><title>Node12</title>
<g id="a_node12"><a xlink:href="classx265_1_1Analysis.html#a30d2ff7eca5addbb0a6b3dfe14f09650" target="_top" xlink:title="x265::Analysis::compress\lInterCU_rd0_4">
<polygon fill="white" stroke="black" points="922,-236 922,-266 1052,-266 1052,-236 922,-236"/>
<text text-anchor="start" x="930" y="-254" font-family="Helvetica,sans-Serif" font-size="10.00">x265::Analysis::compress</text>
<text text-anchor="middle" x="987" y="-243" font-family="Helvetica,sans-Serif" font-size="10.00">InterCU_rd0_4</text>
</a>
</g>
</g>
<!-- Node2&#45;&gt;Node12 -->
<g id="edge12" class="edge"><title>Node2&#45;&gt;Node12</title>
<path fill="none" stroke="midnightblue" d="M525.361,-283.475C632.43,-275.927 822.436,-262.531 921.645,-255.537"/>
<polygon fill="midnightblue" stroke="midnightblue" points="524.994,-279.993 515.265,-284.187 525.486,-286.975 524.994,-279.993"/>
</g>
<!-- Node4 -->
<g id="node4" class="node"><title>Node4</title>
<g id="a_node4"><a xlink:href="classx265_1_1Analysis.html#a29a58dad4cc1c07d2f5e5717c6be7c25" target="_top" xlink:title="x265::Analysis::findJob">
<polygon fill="white" stroke="black" points="753.5,-405.5 753.5,-424.5 872.5,-424.5 872.5,-405.5 753.5,-405.5"/>
<text text-anchor="middle" x="813" y="-412.5" font-family="Helvetica,sans-Serif" font-size="10.00">x265::Analysis::findJob</text>
</a>
</g>
</g>
<!-- Node3&#45;&gt;Node4 -->
<g id="edge3" class="edge"><title>Node3&#45;&gt;Node4</title>
<path fill="none" stroke="midnightblue" d="M699.024,-387.536C723.895,-393.582 751.185,-400.216 772.712,-405.449"/>
<polygon fill="midnightblue" stroke="midnightblue" points="699.81,-384.125 689.266,-385.164 698.156,-390.927 699.81,-384.125"/>
</g>
<!-- Node4&#45;&gt;Node5 -->
<g id="edge4" class="edge"><title>Node4&#45;&gt;Node5</title>
<path fill="none" stroke="midnightblue" d="M852.726,-402.279C863.515,-398.684 875.229,-394.733 886,-391 905.352,-384.292 926.723,-376.633 944.723,-370.109"/>
<polygon fill="midnightblue" stroke="midnightblue" points="851.518,-398.992 843.13,-405.465 853.724,-405.636 851.518,-398.992"/>
</g>
<!-- Node6 -->
<g id="node6" class="node"><title>Node6</title>
<g id="a_node6"><a xlink:href="classx265_1_1Analysis.html#aaebc9de2ff98834c650244f3b58942c2" target="_top" xlink:title="x265::Analysis::compressCTU">
<polygon fill="white" stroke="black" points="1088.5,-181.5 1088.5,-200.5 1239.5,-200.5 1239.5,-181.5 1088.5,-181.5"/>
<text text-anchor="middle" x="1164" y="-188.5" font-family="Helvetica,sans-Serif" font-size="10.00">x265::Analysis::compressCTU</text>
</a>
</g>
</g>
<!-- Node5&#45;&gt;Node6 -->
<g id="edge5" class="edge"><title>Node5&#45;&gt;Node6</title>
<path fill="none" stroke="midnightblue" d="M1011.8,-332.693C1050.37,-296.551 1124.97,-226.639 1152.48,-200.859"/>
<polygon fill="midnightblue" stroke="midnightblue" points="1009.05,-330.473 1004.15,-339.865 1013.84,-335.581 1009.05,-330.473"/>
</g>
<!-- Node7 -->
<g id="node7" class="node"><title>Node7</title>
<g id="a_node7"><a xlink:href="classx265_1_1FrameEncoder.html#a0ae85001572afd28238476542523ac5f" target="_top" xlink:title="x265::FrameEncoder\l::processRowEncoder">
<polygon fill="white" stroke="black" points="1276.5,-105 1276.5,-135 1389.5,-135 1389.5,-105 1276.5,-105"/>
<text text-anchor="start" x="1284.5" y="-123" font-family="Helvetica,sans-Serif" font-size="10.00">x265::FrameEncoder</text>
<text text-anchor="middle" x="1333" y="-112" font-family="Helvetica,sans-Serif" font-size="10.00">::processRowEncoder</text>
</a>
</g>
</g>
<!-- Node6&#45;&gt;Node7 -->
<g id="edge6" class="edge"><title>Node6&#45;&gt;Node7</title>
<path fill="none" stroke="midnightblue" d="M1197,-177.397C1225.44,-165.305 1266.96,-147.652 1296.43,-135.121"/>
<polygon fill="midnightblue" stroke="midnightblue" points="1195.36,-174.291 1187.52,-181.425 1198.09,-180.733 1195.36,-174.291"/>
</g>
<!-- Node8 -->
<g id="node8" class="node"><title>Node8</title>
<g id="a_node8"><a xlink:href="classx265_1_1FrameEncoder.html#acad645a8ece97d884895f8f7366b7d70" target="_top" xlink:title="x265::FrameEncoder\l::processRow">
<polygon fill="white" stroke="black" points="1426.5,-105 1426.5,-135 1533.5,-135 1533.5,-105 1426.5,-105"/>
<text text-anchor="start" x="1434.5" y="-123" font-family="Helvetica,sans-Serif" font-size="10.00">x265::FrameEncoder</text>
<text text-anchor="middle" x="1480" y="-112" font-family="Helvetica,sans-Serif" font-size="10.00">::processRow</text>
</a>
</g>
</g>
<!-- Node7&#45;&gt;Node8 -->
<g id="edge7" class="edge"><title>Node7&#45;&gt;Node8</title>
<path fill="none" stroke="midnightblue" d="M1399.88,-120C1408.67,-120 1417.59,-120 1426.13,-120"/>
<polygon fill="midnightblue" stroke="midnightblue" points="1399.65,-116.5 1389.65,-120 1399.65,-123.5 1399.65,-116.5"/>
</g>
<!-- Node9 -->
<g id="node9" class="node"><title>Node9</title>
<g id="a_node9"><a xlink:href="classx265_1_1FrameEncoder.html#ac4e9ce2e876c0cdb25c992c872fe4302" target="_top" xlink:title="x265::FrameEncoder\l::compressCTURows">
<polygon fill="white" stroke="black" points="1570,-103 1570,-133 1682,-133 1682,-103 1570,-103"/>
<text text-anchor="start" x="1578" y="-121" font-family="Helvetica,sans-Serif" font-size="10.00">x265::FrameEncoder</text>
<text text-anchor="middle" x="1626" y="-110" font-family="Helvetica,sans-Serif" font-size="10.00">::compressCTURows</text>
</a>
</g>
</g>
<!-- Node8&#45;&gt;Node9 -->
<g id="edge8" class="edge"><title>Node8&#45;&gt;Node9</title>
<path fill="none" stroke="midnightblue" d="M1543.83,-119.127C1552.48,-119.007 1561.3,-118.885 1569.79,-118.767"/>
<polygon fill="midnightblue" stroke="midnightblue" points="1543.75,-115.628 1533.8,-119.267 1543.85,-122.627 1543.75,-115.628"/>
</g>
<!-- Node10 -->
<g id="node10" class="node"><title>Node10</title>
<g id="a_node10"><a xlink:href="classx265_1_1FrameEncoder.html#a2f5c4c0f1a4e36fce4c9b87eb7ec4973" target="_top" xlink:title="x265::FrameEncoder\l::compressFrame">
<polygon fill="white" stroke="black" points="1718.5,-80 1718.5,-110 1825.5,-110 1825.5,-80 1718.5,-80"/>
<text text-anchor="start" x="1726.5" y="-98" font-family="Helvetica,sans-Serif" font-size="10.00">x265::FrameEncoder</text>
<text text-anchor="middle" x="1772" y="-87" font-family="Helvetica,sans-Serif" font-size="10.00">::compressFrame</text>
</a>
</g>
</g>
<!-- Node9&#45;&gt;Node10 -->
<g id="edge9" class="edge"><title>Node9&#45;&gt;Node10</title>
<path fill="none" stroke="midnightblue" d="M1692.14,-107.596C1700.96,-106.187 1709.93,-104.755 1718.49,-103.387"/>
<polygon fill="midnightblue" stroke="midnightblue" points="1691.59,-104.14 1682.26,-109.173 1692.69,-111.052 1691.59,-104.14"/>
</g>
<!-- Node11 -->
<g id="node11" class="node"><title>Node11</title>
<g id="a_node11"><a xlink:href="classx265_1_1FrameEncoder.html#aef61f29b9e93b3af9255d96236bc90a7" target="_top" xlink:title="x265::FrameEncoder\l::threadMain">
<polygon fill="white" stroke="black" points="1862.5,-80 1862.5,-110 1969.5,-110 1969.5,-80 1862.5,-80"/>
<text text-anchor="start" x="1870.5" y="-98" font-family="Helvetica,sans-Serif" font-size="10.00">x265::FrameEncoder</text>
<text text-anchor="middle" x="1916" y="-87" font-family="Helvetica,sans-Serif" font-size="10.00">::threadMain</text>
</a>
</g>
</g>
<!-- Node10&#45;&gt;Node11 -->
<g id="edge10" class="edge"><title>Node10&#45;&gt;Node11</title>
<path fill="none" stroke="midnightblue" d="M1835.99,-95C1844.7,-95 1853.58,-95 1862.08,-95"/>
<polygon fill="midnightblue" stroke="midnightblue" points="1835.88,-91.5001 1825.88,-95 1835.88,-98.5001 1835.88,-91.5001"/>
</g>
<!-- Node12&#45;&gt;Node6 -->
<g id="edge13" class="edge"><title>Node12&#45;&gt;Node6</title>
<path fill="none" stroke="midnightblue" d="M1041.93,-232.509C1072.82,-221.92 1110.28,-209.077 1135.27,-200.507"/>
<polygon fill="midnightblue" stroke="midnightblue" points="1040.48,-229.305 1032.16,-235.859 1042.75,-235.927 1040.48,-229.305"/>
</g>
<!-- Node14 -->
<g id="node14" class="node"><title>Node14</title>
<g id="a_node14"><a xlink:href="classx265_1_1Entropy.html#abb101b71f310e90eb504a8204babc180" target="_top" xlink:title="x265::Entropy::encodeCTU">
<polygon fill="white" stroke="black" points="1096,-61.5 1096,-80.5 1232,-80.5 1232,-61.5 1096,-61.5"/>
<text text-anchor="middle" x="1164" y="-68.5" font-family="Helvetica,sans-Serif" font-size="10.00">x265::Entropy::encodeCTU</text>
</a>
</g>
</g>
<!-- Node13&#45;&gt;Node14 -->
<g id="edge15" class="edge"><title>Node13&#45;&gt;Node14</title>
<path fill="none" stroke="midnightblue" d="M304.104,-46.0757C373.899,-29.1003 510.786,-0 629,-0 629,-0 629,-0 814,-0 935.808,-0 1076.82,-42.0447 1135.34,-61.4246"/>
<polygon fill="midnightblue" stroke="midnightblue" points="303.177,-42.6993 294.303,-48.4874 304.85,-49.4965 303.177,-42.6993"/>
</g>
<!-- Node14&#45;&gt;Node7 -->
<g id="edge18" class="edge"><title>Node14&#45;&gt;Node7</title>
<path fill="none" stroke="midnightblue" d="M1207.45,-83.4541C1229.75,-89.9992 1257.26,-98.0713 1280.75,-104.963"/>
<polygon fill="midnightblue" stroke="midnightblue" points="1208.18,-80.0211 1197.6,-80.564 1206.21,-86.7379 1208.18,-80.0211"/>
</g>
<!-- Node15 -->
<g id="node15" class="node"><title>Node15</title>
<g id="a_node15"><a xlink:href="classx265_1_1FrameEncoder.html#a6d4045d35bfe6b10c8d0dc39353be360" target="_top" xlink:title="x265::FrameEncoder\l::encodeSlice">
<polygon fill="white" stroke="black" points="1426.5,-56 1426.5,-86 1533.5,-86 1533.5,-56 1426.5,-56"/>
<text text-anchor="start" x="1434.5" y="-74" font-family="Helvetica,sans-Serif" font-size="10.00">x265::FrameEncoder</text>
<text text-anchor="middle" x="1480" y="-63" font-family="Helvetica,sans-Serif" font-size="10.00">::encodeSlice</text>
</a>
</g>
</g>
<!-- Node14&#45;&gt;Node15 -->
<g id="edge16" class="edge"><title>Node14&#45;&gt;Node15</title>
<path fill="none" stroke="midnightblue" d="M1242.45,-71C1299.65,-71 1376,-71 1426.29,-71"/>
<polygon fill="midnightblue" stroke="midnightblue" points="1242.36,-67.5001 1232.36,-71 1242.36,-74.5001 1242.36,-67.5001"/>
</g>
<!-- Node15&#45;&gt;Node10 -->
<g id="edge17" class="edge"><title>Node15&#45;&gt;Node10</title>
<path fill="none" stroke="midnightblue" d="M1543.65,-76.1849C1595.81,-80.5014 1669.23,-86.5779 1718.38,-90.6456"/>
<polygon fill="midnightblue" stroke="midnightblue" points="1543.77,-72.683 1533.52,-75.3462 1543.19,-79.6592 1543.77,-72.683"/>
</g>
<!-- Node16&#45;&gt;Node2 -->
<g id="edge20" class="edge"><title>Node16&#45;&gt;Node2</title>
<path fill="none" stroke="midnightblue" d="M297.531,-241.684C326.885,-251.102 367.03,-263.983 398.023,-273.927"/>
<polygon fill="midnightblue" stroke="midnightblue" points="298.222,-238.23 287.631,-238.507 296.083,-244.895 298.222,-238.23"/>
</g>
<!-- Node17 -->
<g id="node17" class="node"><title>Node17</title>
<g id="a_node17"><a xlink:href="classx265_1_1Search.html#a1778d2ab96ac88c7f76d36818d6adbdd" target="_top" xlink:title="x265::Search::estIntraPredQT">
<polygon fill="white" stroke="black" points="372.5,-219.5 372.5,-238.5 519.5,-238.5 519.5,-219.5 372.5,-219.5"/>
<text text-anchor="middle" x="446" y="-226.5" font-family="Helvetica,sans-Serif" font-size="10.00">x265::Search::estIntraPredQT</text>
</a>
</g>
</g>
<!-- Node16&#45;&gt;Node17 -->
<g id="edge21" class="edge"><title>Node16&#45;&gt;Node17</title>
<path fill="none" stroke="midnightblue" d="M346.419,-229C355.144,-229 363.928,-229 372.467,-229"/>
<polygon fill="midnightblue" stroke="midnightblue" points="346.221,-225.5 336.221,-229 346.221,-232.5 346.221,-225.5"/>
</g>
<!-- Node17&#45;&gt;Node18 -->
<g id="edge22" class="edge"><title>Node17&#45;&gt;Node18</title>
<path fill="none" stroke="midnightblue" d="M494.601,-216.969C524.785,-209.34 563.286,-199.609 591.338,-192.519"/>
<polygon fill="midnightblue" stroke="midnightblue" points="493.548,-213.625 484.711,-219.469 495.263,-220.412 493.548,-213.625"/>
</g>
<!-- Node19 -->
<g id="node19" class="node"><title>Node19</title>
<g id="a_node19"><a xlink:href="classx265_1_1Analysis.html#a10f0a8d9d143faf8dc671c6f0982693d" target="_top" xlink:title="x265::Analysis::tryLossless">
<polygon fill="white" stroke="black" points="744.5,-203.5 744.5,-222.5 881.5,-222.5 881.5,-203.5 744.5,-203.5"/>
<text text-anchor="middle" x="813" y="-210.5" font-family="Helvetica,sans-Serif" font-size="10.00">x265::Analysis::tryLossless</text>
</a>
</g>
</g>
<!-- Node18&#45;&gt;Node19 -->
<g id="edge23" class="edge"><title>Node18&#45;&gt;Node19</title>
<path fill="none" stroke="midnightblue" d="M698.79,-194.236C717.115,-197.273 736.768,-200.531 754.471,-203.465"/>
<polygon fill="midnightblue" stroke="midnightblue" points="699.205,-190.757 688.767,-192.575 698.06,-197.663 699.205,-190.757"/>
</g>
<!-- Node20 -->
<g id="node20" class="node"><title>Node20</title>
<g id="a_node20"><a xlink:href="classx265_1_1Analysis.html#aae2a6a2252270782b591d2bed7e99dae" target="_top" xlink:title="x265::Analysis::compress\lIntraCU">
<polygon fill="white" stroke="black" points="922,-176 922,-206 1052,-206 1052,-176 922,-176"/>
<text text-anchor="start" x="930" y="-194" font-family="Helvetica,sans-Serif" font-size="10.00">x265::Analysis::compress</text>
<text text-anchor="middle" x="987" y="-183" font-family="Helvetica,sans-Serif" font-size="10.00">IntraCU</text>
</a>
</g>
</g>
<!-- Node18&#45;&gt;Node20 -->
<g id="edge30" class="edge"><title>Node18&#45;&gt;Node20</title>
<path fill="none" stroke="midnightblue" d="M703.277,-184.629C767.388,-186.074 860.16,-188.164 921.729,-189.552"/>
<polygon fill="midnightblue" stroke="midnightblue" points="703.319,-181.129 693.243,-184.403 703.161,-188.127 703.319,-181.129"/>
</g>
<!-- Node21 -->
<g id="node21" class="node"><title>Node21</title>
<g id="a_node21"><a xlink:href="classx265_1_1Analysis.html#a0b22b7765aa4a36b1ba6d07ba26901e6" target="_top" xlink:title="x265::Analysis::compress\lInterCU_rd5_6">
<polygon fill="white" stroke="black" points="922,-116 922,-146 1052,-146 1052,-116 922,-116"/>
<text text-anchor="start" x="930" y="-134" font-family="Helvetica,sans-Serif" font-size="10.00">x265::Analysis::compress</text>
<text text-anchor="middle" x="987" y="-123" font-family="Helvetica,sans-Serif" font-size="10.00">InterCU_rd5_6</text>
</a>
</g>
</g>
<!-- Node18&#45;&gt;Node21 -->
<g id="edge31" class="edge"><title>Node18&#45;&gt;Node21</title>
<path fill="none" stroke="midnightblue" d="M640.459,-164.088C656.36,-134.704 691.526,-79.1613 740,-57 799.014,-30.0201 824.375,-36.6784 886,-57 921.074,-68.5662 953.91,-97.6982 971.848,-115.769"/>
<polygon fill="midnightblue" stroke="midnightblue" points="637.178,-162.809 635.648,-173.293 643.382,-166.052 637.178,-162.809"/>
</g>
<!-- Node19&#45;&gt;Node5 -->
<g id="edge26" class="edge"><title>Node19&#45;&gt;Node5</title>
<path fill="none" stroke="midnightblue" d="M833.684,-229.251C867.268,-256.977 935.159,-313.027 967.742,-339.927"/>
<polygon fill="midnightblue" stroke="midnightblue" points="835.492,-226.205 825.552,-222.538 831.036,-231.603 835.492,-226.205"/>
</g>
<!-- Node19&#45;&gt;Node12 -->
<g id="edge27" class="edge"><title>Node19&#45;&gt;Node12</title>
<path fill="none" stroke="midnightblue" d="M867.293,-224.774C884.54,-228.584 903.849,-232.85 921.801,-236.816"/>
<polygon fill="midnightblue" stroke="midnightblue" points="867.922,-221.329 857.403,-222.589 866.412,-228.164 867.922,-221.329"/>
</g>
<!-- Node19&#45;&gt;Node20 -->
<g id="edge24" class="edge"><title>Node19&#45;&gt;Node20</title>
<path fill="none" stroke="midnightblue" d="M891.928,-203.032C901.947,-201.751 912.114,-200.451 921.877,-199.202"/>
<polygon fill="midnightblue" stroke="midnightblue" points="891.454,-199.564 881.979,-204.305 892.342,-206.508 891.454,-199.564"/>
</g>
<!-- Node19&#45;&gt;Node21 -->
<g id="edge28" class="edge"><title>Node19&#45;&gt;Node21</title>
<path fill="none" stroke="midnightblue" d="M843.44,-198.965C874.336,-184.235 922.731,-161.163 954.41,-146.06"/>
<polygon fill="midnightblue" stroke="midnightblue" points="841.588,-195.97 834.067,-203.433 844.6,-202.289 841.588,-195.97"/>
</g>
<!-- Node20&#45;&gt;Node6 -->
<g id="edge25" class="edge"><title>Node20&#45;&gt;Node6</title>
<path fill="none" stroke="midnightblue" d="M1062.25,-191C1070.93,-191 1079.78,-191 1088.47,-191"/>
<polygon fill="midnightblue" stroke="midnightblue" points="1062.17,-187.5 1052.17,-191 1062.17,-194.5 1062.17,-187.5"/>
</g>
<!-- Node21&#45;&gt;Node6 -->
<g id="edge29" class="edge"><title>Node21&#45;&gt;Node6</title>
<path fill="none" stroke="midnightblue" d="M1041.93,-149.491C1072.82,-160.08 1110.28,-172.923 1135.27,-181.493"/>
<polygon fill="midnightblue" stroke="midnightblue" points="1042.75,-146.073 1032.16,-146.141 1040.48,-152.695 1042.75,-146.073"/>
</g>
<!-- Node22&#45;&gt;Node5 -->
<g id="edge35" class="edge"><title>Node22&#45;&gt;Node5</title>
<path fill="none" stroke="midnightblue" d="M642.83,-251.313C659.542,-282.517 693.315,-335.22 740,-357 797.283,-383.725 870.553,-378.88 922.179,-370.037"/>
<polygon fill="midnightblue" stroke="midnightblue" points="645.906,-249.644 638.195,-242.378 639.692,-252.866 645.906,-249.644"/>
</g>
<!-- Node22&#45;&gt;Node12 -->
<g id="edge36" class="edge"><title>Node22&#45;&gt;Node12</title>
<path fill="none" stroke="midnightblue" d="M713.674,-232.589C777.113,-236.878 863.429,-242.713 921.744,-246.656"/>
<polygon fill="midnightblue" stroke="midnightblue" points="713.91,-229.097 703.696,-231.915 713.437,-236.081 713.91,-229.097"/>
</g>
<!-- Node22&#45;&gt;Node19 -->
<g id="edge34" class="edge"><title>Node22&#45;&gt;Node19</title>
<path fill="none" stroke="midnightblue" d="M713.766,-220.598C724.02,-219.805 734.407,-219.002 744.395,-218.229"/>
<polygon fill="midnightblue" stroke="midnightblue" points="713.277,-217.125 703.577,-221.386 713.817,-224.105 713.277,-217.125"/>
</g>
<!-- Node23 -->
<g id="node23" class="node"><title>Node23</title>
<g id="a_node23"><a xlink:href="classx265_1_1Analysis.html#addd72cb95590e2b2a6965d42d110eab3" target="_top" xlink:title="x265::Analysis::checkMerge2\lNx2N_rd0_4">
<polygon fill="white" stroke="black" points="740,-318 740,-348 886,-348 886,-318 740,-318"/>
<text text-anchor="start" x="748" y="-336" font-family="Helvetica,sans-Serif" font-size="10.00">x265::Analysis::checkMerge2</text>
<text text-anchor="middle" x="813" y="-325" font-family="Helvetica,sans-Serif" font-size="10.00">Nx2N_rd0_4</text>
</a>
</g>
</g>
<!-- Node22&#45;&gt;Node23 -->
<g id="edge37" class="edge"><title>Node22&#45;&gt;Node23</title>
<path fill="none" stroke="midnightblue" d="M665.896,-247.437C701.074,-268.038 754.552,-299.356 786.115,-317.841"/>
<polygon fill="midnightblue" stroke="midnightblue" points="667.331,-244.221 656.933,-242.187 663.793,-250.261 667.331,-244.221"/>
</g>
<!-- Node24 -->
<g id="node24" class="node"><title>Node24</title>
<g id="a_node24"><a xlink:href="classx265_1_1Analysis.html#a0194a9da53aa95173fa1132ba3aea1c7" target="_top" xlink:title="x265::Analysis::checkMerge2\lNx2N_rd5_6">
<polygon fill="white" stroke="black" points="740,-116 740,-146 886,-146 886,-116 740,-116"/>
<text text-anchor="start" x="748" y="-134" font-family="Helvetica,sans-Serif" font-size="10.00">x265::Analysis::checkMerge2</text>
<text text-anchor="middle" x="813" y="-123" font-family="Helvetica,sans-Serif" font-size="10.00">Nx2N_rd5_6</text>
</a>
</g>
</g>
<!-- Node22&#45;&gt;Node24 -->
<g id="edge40" class="edge"><title>Node22&#45;&gt;Node24</title>
<path fill="none" stroke="midnightblue" d="M689.793,-208.329C694.662,-206.342 699.455,-204.228 704,-202 736.641,-186 771.219,-161.818 792.212,-146.217"/>
<polygon fill="midnightblue" stroke="midnightblue" points="688.433,-205.102 680.38,-211.987 690.969,-211.627 688.433,-205.102"/>
</g>
<!-- Node25 -->
<g id="node25" class="node"><title>Node25</title>
<g id="a_node25"><a xlink:href="classx265_1_1Analysis.html#a828daa3e9f1ed40a1af9f99f7ff7bb33" target="_top" xlink:title="x265::Analysis::checkInter\l_rd5_6">
<polygon fill="white" stroke="black" points="746.5,-67 746.5,-97 879.5,-97 879.5,-67 746.5,-67"/>
<text text-anchor="start" x="754.5" y="-85" font-family="Helvetica,sans-Serif" font-size="10.00">x265::Analysis::checkInter</text>
<text text-anchor="middle" x="813" y="-74" font-family="Helvetica,sans-Serif" font-size="10.00">_rd5_6</text>
</a>
</g>
</g>
<!-- Node22&#45;&gt;Node25 -->
<g id="edge42" class="edge"><title>Node22&#45;&gt;Node25</title>
<path fill="none" stroke="midnightblue" d="M699.326,-206.064C700.96,-204.788 702.523,-203.435 704,-202 736.682,-170.246 707.188,-137.62 740,-106 743.605,-102.526 747.727,-99.554 752.132,-97.0123"/>
<polygon fill="midnightblue" stroke="midnightblue" points="697.048,-203.375 690.647,-211.817 700.916,-209.209 697.048,-203.375"/>
</g>
<!-- Node23&#45;&gt;Node5 -->
<g id="edge38" class="edge"><title>Node23&#45;&gt;Node5</title>
<path fill="none" stroke="midnightblue" d="M896.422,-343.542C904.957,-344.634 913.539,-345.732 921.831,-346.792"/>
<polygon fill="midnightblue" stroke="midnightblue" points="896.808,-340.063 886.445,-342.266 895.92,-347.007 896.808,-340.063"/>
</g>
<!-- Node23&#45;&gt;Node12 -->
<g id="edge39" class="edge"><title>Node23&#45;&gt;Node12</title>
<path fill="none" stroke="midnightblue" d="M861.244,-313.988C869.548,-310.456 878.067,-306.707 886,-303 910.819,-291.402 938.399,-276.937 958.298,-266.21"/>
<polygon fill="midnightblue" stroke="midnightblue" points="859.868,-310.77 852.005,-317.871 862.58,-317.223 859.868,-310.77"/>
</g>
<!-- Node24&#45;&gt;Node21 -->
<g id="edge41" class="edge"><title>Node24&#45;&gt;Node21</title>
<path fill="none" stroke="midnightblue" d="M896.701,-131C905.144,-131 913.629,-131 921.831,-131"/>
<polygon fill="midnightblue" stroke="midnightblue" points="896.445,-127.5 886.445,-131 896.445,-134.5 896.445,-127.5"/>
</g>
<!-- Node25&#45;&gt;Node21 -->
<g id="edge43" class="edge"><title>Node25&#45;&gt;Node21</title>
<path fill="none" stroke="midnightblue" d="M876.812,-99.8941C895.312,-105.164 915.359,-110.876 933.166,-115.948"/>
<polygon fill="midnightblue" stroke="midnightblue" points="877.585,-96.4753 867.009,-97.1014 875.668,-103.207 877.585,-96.4753"/>
</g>
</g>
</svg>
        <g id="navigator" transform="translate(0 0)" fill="#404254">
                <rect fill="#f2f5e9" fill-opacity="0.5" stroke="#606060" stroke-width=".5" x="0" y="0" width="60" height="60"/>
                <use id="zoomplus" xlink:href="#zoomPlus" x="17" y="9" onmousedown="handleZoom(evt,'in')"/>
                <use id="zoomminus" xlink:href="#zoomMin" x="42" y="9" onmousedown="handleZoom(evt,'out')"/>
                <use id="reset" xlink:href="#resetDef" x="30" y="36" onmousedown="handleReset()"/>
                <g id="arrowUp" xlink:href="#dirArrow" transform="translate(30 24)" onmousedown="handlePan(0,-1)">
                  <use xlink:href="#rim" fill="#404040">
                        <set attributeName="fill" to="#808080" begin="arrowUp.mouseover" end="arrowUp.mouseout"/>
                  </use>
                  <path fill="none" stroke="white" stroke-width="1.5" d="M0,-3.0v7 M-2.5,-0.5L0,-3.0L2.5,-0.5"/>
                </g>
                <g id="arrowRight" xlink:href="#dirArrow" transform="rotate(90) translate(36 -43)" onmousedown="handlePan(1,0)">
                  <use xlink:href="#rim" fill="#404040">
                        <set attributeName="fill" to="#808080" begin="arrowRight.mouseover" end="arrowRight.mouseout"/>
                  </use>
                  <path fill="none" stroke="white" stroke-width="1.5" d="M0,-3.0v7 M-2.5,-0.5L0,-3.0L2.5,-0.5"/>
                </g>
                <g id="arrowDown" xlink:href="#dirArrow" transform="rotate(180) translate(-30 -48)" onmousedown="handlePan(0,1)">
                  <use xlink:href="#rim" fill="#404040">
                        <set attributeName="fill" to="#808080" begin="arrowDown.mouseover" end="arrowDown.mouseout"/>
                  </use>
                  <path fill="none" stroke="white" stroke-width="1.5" d="M0,-3.0v7 M-2.5,-0.5L0,-3.0L2.5,-0.5"/>
                </g>
                <g id="arrowLeft" xlink:href="#dirArrow" transform="rotate(270) translate(-36 17)" onmousedown="handlePan(-1,0)">
                  <use xlink:href="#rim" fill="#404040">
                        <set attributeName="fill" to="#808080" begin="arrowLeft.mouseover" end="arrowLeft.mouseout"/>
                  </use>
                  <path fill="none" stroke="white" stroke-width="1.5" d="M0,-3.0v7 M-2.5,-0.5L0,-3.0L2.5,-0.5"/>
                </g>
        </g>
        <svg viewBox="0 0 15 15" width="100%" height="30px" preserveAspectRatio="xMaxYMin meet">
         <g id="arrow_out" transform="scale(0.3 0.3)">
          <a xlink:href="classx265_1_1Entropy_a8f9e9a25bfc30ae5dd32ecc364b1512a_icgraph_org.svg" target="_base">
           <rect id="button" ry="5" rx="5" y="6" x="6" height="38" width="38"
                fill="#f2f5e9" fill-opacity="0.5" stroke="#606060" stroke-width="1.0"/>
           <path id="arrow"
             d="M 11.500037,31.436501 C 11.940474,20.09759 22.043105,11.32322 32.158766,21.979434 L 37.068811,17.246167 C 37.068811,17.246167 37.088388,32 37.088388,32 L 22.160133,31.978069 C 22.160133,31.978069 26.997745,27.140456 26.997745,27.140456 C 18.528582,18.264221 13.291696,25.230495 11.500037,31.436501 z"
             style="fill:#404040;"/>
          </a>
         </g>
        </svg>
</svg>
