<?xml version="1.0" encoding="UTF-8" standalone="no"?>
<!DOCTYPE svg PUBLIC "-//W3C//DTD SVG 1.1//EN"
 "http://www.w3.org/Graphics/SVG/1.1/DTD/svg11.dtd">
<!-- Generated by graphviz version 2.36.0 (20140111.2315)
 -->
<!-- Title: x265::Entropy::codePredInfo Pages: 1 -->
<svg width="1774pt" height="445pt"
 viewBox="0.00 0.00 1774.00 445.16" xmlns="http://www.w3.org/2000/svg" xmlns:xlink="http://www.w3.org/1999/xlink">
<g id="graph0" class="graph" transform="scale(1 1) rotate(0) translate(4 441.163)">
<title>x265::Entropy::codePredInfo</title>
<polygon fill="white" stroke="none" points="-4,4 -4,-441.163 1770,-441.163 1770,4 -4,4"/>
<!-- Node1 -->
<g id="node1" class="node"><title>Node1</title>
<polygon fill="#bfbfbf" stroke="black" points="0.5,-92.5 0.5,-111.5 141.5,-111.5 141.5,-92.5 0.5,-92.5"/>
<text text-anchor="middle" x="71" y="-99.5" font-family="Helvetica,sans-Serif" font-size="10.00">x265::Entropy::codePredInfo</text>
</g>
<!-- Node2 -->
<g id="node2" class="node"><title>Node2</title>
<g id="a_node2"><a xlink:href="classx265_1_1Analysis.html#ae4d61bcf4d2c22a054d68d6d77136428" target="_top" xlink:title="x265::Analysis::encodeIntra\lInInter">
<polygon fill="white" stroke="black" points="178,-344 178,-374 316,-374 316,-344 178,-344"/>
<text text-anchor="start" x="186" y="-362" font-family="Helvetica,sans-Serif" font-size="10.00">x265::Analysis::encodeIntra</text>
<text text-anchor="middle" x="247" y="-351" font-family="Helvetica,sans-Serif" font-size="10.00">InInter</text>
</a>
</g>
</g>
<!-- Node1&#45;&gt;Node2 -->
<g id="edge1" class="edge"><title>Node1&#45;&gt;Node2</title>
<path fill="none" stroke="midnightblue" d="M84.3755,-120.279C117.085,-168.591 205.391,-299.02 235.657,-343.723"/>
<polygon fill="midnightblue" stroke="midnightblue" points="87.1131,-118.079 78.6085,-111.761 81.3167,-122.004 87.1131,-118.079"/>
</g>
<!-- Node13 -->
<g id="node13" class="node"><title>Node13</title>
<g id="a_node13"><a xlink:href="classx265_1_1Entropy.html#adeb50a7c9a5df6643407d01158d93799" target="_top" xlink:title="x265::Entropy::encodeCU">
<polygon fill="white" stroke="black" points="182,-4.5 182,-23.5 312,-23.5 312,-4.5 182,-4.5"/>
<text text-anchor="middle" x="247" y="-11.5" font-family="Helvetica,sans-Serif" font-size="10.00">x265::Entropy::encodeCU</text>
</a>
</g>
</g>
<!-- Node1&#45;&gt;Node13 -->
<g id="edge14" class="edge"><title>Node1&#45;&gt;Node13</title>
<path fill="none" stroke="midnightblue" d="M100.328,-87.6734C136.052,-69.6061 196.492,-39.0384 227.071,-23.5732"/>
<polygon fill="midnightblue" stroke="midnightblue" points="98.2963,-84.7785 90.9523,-92.4149 101.456,-91.0251 98.2963,-84.7785"/>
</g>
<!-- Node16 -->
<g id="node16" class="node"><title>Node16</title>
<g id="a_node16"><a xlink:href="classx265_1_1Search.html#ab02df91827cf67796d1605bde60c6aed" target="_top" xlink:title="x265::Search::checkIntra">
<polygon fill="white" stroke="black" points="363,-38.5 363,-57.5 489,-57.5 489,-38.5 363,-38.5"/>
<text text-anchor="middle" x="426" y="-45.5" font-family="Helvetica,sans-Serif" font-size="10.00">x265::Search::checkIntra</text>
</a>
</g>
</g>
<!-- Node1&#45;&gt;Node16 -->
<g id="edge19" class="edge"><title>Node1&#45;&gt;Node16</title>
<path fill="none" stroke="midnightblue" d="M144.362,-90.9305C208.667,-81.0934 301.684,-66.8642 362.733,-57.5252"/>
<polygon fill="midnightblue" stroke="midnightblue" points="143.652,-87.4982 134.297,-92.4702 144.711,-94.4177 143.652,-87.4982"/>
</g>
<!-- Node20 -->
<g id="node20" class="node"><title>Node20</title>
<g id="a_node20"><a xlink:href="classx265_1_1Search.html#aba5e04ce529f41accd43c540ba1dc7ad" target="_top" xlink:title="x265::Search::encodeResAnd\lCalcRdInterCU">
<polygon fill="white" stroke="black" points="352.5,-152 352.5,-182 499.5,-182 499.5,-152 352.5,-152"/>
<text text-anchor="start" x="360.5" y="-170" font-family="Helvetica,sans-Serif" font-size="10.00">x265::Search::encodeResAnd</text>
<text text-anchor="middle" x="426" y="-159" font-family="Helvetica,sans-Serif" font-size="10.00">CalcRdInterCU</text>
</a>
</g>
</g>
<!-- Node1&#45;&gt;Node20 -->
<g id="edge29" class="edge"><title>Node1&#45;&gt;Node20</title>
<path fill="none" stroke="midnightblue" d="M133.572,-113.338C194.503,-124.557 287.764,-141.73 352.302,-153.614"/>
<polygon fill="midnightblue" stroke="midnightblue" points="134.176,-109.89 123.707,-111.521 132.908,-116.774 134.176,-109.89"/>
</g>
<!-- Node3 -->
<g id="node3" class="node"><title>Node3</title>
<g id="a_node3"><a xlink:href="classx265_1_1Analysis.html#aa6122285d10bb1bd7584958b88b029d5" target="_top" xlink:title="x265::Analysis::parallel\lModeAnalysis">
<polygon fill="white" stroke="black" points="367,-366 367,-396 485,-396 485,-366 367,-366"/>
<text text-anchor="start" x="375" y="-384" font-family="Helvetica,sans-Serif" font-size="10.00">x265::Analysis::parallel</text>
<text text-anchor="middle" x="426" y="-373" font-family="Helvetica,sans-Serif" font-size="10.00">ModeAnalysis</text>
</a>
</g>
</g>
<!-- Node2&#45;&gt;Node3 -->
<g id="edge2" class="edge"><title>Node2&#45;&gt;Node3</title>
<path fill="none" stroke="midnightblue" d="M326.492,-368.756C340.088,-370.446 354.002,-372.175 366.931,-373.782"/>
<polygon fill="midnightblue" stroke="midnightblue" points="326.535,-365.235 316.18,-367.474 325.672,-372.181 326.535,-365.235"/>
</g>
<!-- Node5 -->
<g id="node5" class="node"><title>Node5</title>
<g id="a_node5"><a xlink:href="classx265_1_1Analysis.html#a87060ff27a37f56adc5f5b8a4c033ece" target="_top" xlink:title="x265::Analysis::compress\lInterCU_dist">
<polygon fill="white" stroke="black" points="718,-264 718,-294 848,-294 848,-264 718,-264"/>
<text text-anchor="start" x="726" y="-282" font-family="Helvetica,sans-Serif" font-size="10.00">x265::Analysis::compress</text>
<text text-anchor="middle" x="783" y="-271" font-family="Helvetica,sans-Serif" font-size="10.00">InterCU_dist</text>
</a>
</g>
</g>
<!-- Node2&#45;&gt;Node5 -->
<g id="edge11" class="edge"><title>Node2&#45;&gt;Node5</title>
<path fill="none" stroke="midnightblue" d="M282.777,-378.759C302.422,-388.78 327.82,-399.891 352,-405 495.541,-435.328 550.271,-461.586 682,-397 727.811,-374.539 760.705,-320.419 774.622,-294.007"/>
<polygon fill="midnightblue" stroke="midnightblue" points="284.386,-375.65 273.904,-374.107 281.136,-381.85 284.386,-375.65"/>
</g>
<!-- Node12 -->
<g id="node12" class="node"><title>Node12</title>
<g id="a_node12"><a xlink:href="classx265_1_1Analysis.html#a30d2ff7eca5addbb0a6b3dfe14f09650" target="_top" xlink:title="x265::Analysis::compress\lInterCU_rd0_4">
<polygon fill="white" stroke="black" points="718,-196 718,-226 848,-226 848,-196 718,-196"/>
<text text-anchor="start" x="726" y="-214" font-family="Helvetica,sans-Serif" font-size="10.00">x265::Analysis::compress</text>
<text text-anchor="middle" x="783" y="-203" font-family="Helvetica,sans-Serif" font-size="10.00">InterCU_rd0_4</text>
</a>
</g>
</g>
<!-- Node2&#45;&gt;Node12 -->
<g id="edge12" class="edge"><title>Node2&#45;&gt;Node12</title>
<path fill="none" stroke="midnightblue" d="M326.352,-354.529C415.502,-347.208 564.012,-328.14 682,-279 699.982,-271.511 701.915,-264.988 718,-254 731.706,-244.637 747.15,-234.256 759.433,-226.04"/>
<polygon fill="midnightblue" stroke="midnightblue" points="326.007,-351.045 316.315,-355.324 326.56,-358.024 326.007,-351.045"/>
</g>
<!-- Node4 -->
<g id="node4" class="node"><title>Node4</title>
<g id="a_node4"><a xlink:href="classx265_1_1Analysis.html#a29a58dad4cc1c07d2f5e5717c6be7c25" target="_top" xlink:title="x265::Analysis::findJob">
<polygon fill="white" stroke="black" points="549.5,-368.5 549.5,-387.5 668.5,-387.5 668.5,-368.5 549.5,-368.5"/>
<text text-anchor="middle" x="609" y="-375.5" font-family="Helvetica,sans-Serif" font-size="10.00">x265::Analysis::findJob</text>
</a>
</g>
</g>
<!-- Node3&#45;&gt;Node4 -->
<g id="edge3" class="edge"><title>Node3&#45;&gt;Node4</title>
<path fill="none" stroke="midnightblue" d="M495.519,-379.864C513.205,-379.571 532.083,-379.258 549.223,-378.974"/>
<polygon fill="midnightblue" stroke="midnightblue" points="495.206,-376.369 485.266,-380.034 495.323,-383.368 495.206,-376.369"/>
</g>
<!-- Node4&#45;&gt;Node5 -->
<g id="edge4" class="edge"><title>Node4&#45;&gt;Node5</title>
<path fill="none" stroke="midnightblue" d="M650.36,-365.01C660.904,-361.042 672.087,-356.305 682,-351 712.744,-334.546 744.879,-309.856 764.169,-294.088"/>
<polygon fill="midnightblue" stroke="midnightblue" points="649.121,-361.736 640.91,-368.432 651.504,-368.318 649.121,-361.736"/>
</g>
<!-- Node6 -->
<g id="node6" class="node"><title>Node6</title>
<g id="a_node6"><a xlink:href="classx265_1_1Analysis.html#aaebc9de2ff98834c650244f3b58942c2" target="_top" xlink:title="x265::Analysis::compressCTU">
<polygon fill="white" stroke="black" points="884.5,-108.5 884.5,-127.5 1035.5,-127.5 1035.5,-108.5 884.5,-108.5"/>
<text text-anchor="middle" x="960" y="-115.5" font-family="Helvetica,sans-Serif" font-size="10.00">x265::Analysis::compressCTU</text>
</a>
</g>
</g>
<!-- Node5&#45;&gt;Node6 -->
<g id="edge5" class="edge"><title>Node5&#45;&gt;Node6</title>
<path fill="none" stroke="midnightblue" d="M816.955,-258.275C827.234,-251.309 838.389,-243.211 848,-235 890.151,-198.99 933.5,-148.693 950.98,-127.75"/>
<polygon fill="midnightblue" stroke="midnightblue" points="814.973,-255.39 808.58,-263.839 818.846,-261.221 814.973,-255.39"/>
</g>
<!-- Node7 -->
<g id="node7" class="node"><title>Node7</title>
<g id="a_node7"><a xlink:href="classx265_1_1FrameEncoder.html#a0ae85001572afd28238476542523ac5f" target="_top" xlink:title="x265::FrameEncoder\l::processRowEncoder">
<polygon fill="white" stroke="black" points="1072.5,-49 1072.5,-79 1185.5,-79 1185.5,-49 1072.5,-49"/>
<text text-anchor="start" x="1080.5" y="-67" font-family="Helvetica,sans-Serif" font-size="10.00">x265::FrameEncoder</text>
<text text-anchor="middle" x="1129" y="-56" font-family="Helvetica,sans-Serif" font-size="10.00">::processRowEncoder</text>
</a>
</g>
</g>
<!-- Node6&#45;&gt;Node7 -->
<g id="edge6" class="edge"><title>Node6&#45;&gt;Node7</title>
<path fill="none" stroke="midnightblue" d="M1000.09,-105.359C1024.43,-97.4884 1055.87,-87.3224 1081.49,-79.0389"/>
<polygon fill="midnightblue" stroke="midnightblue" points="998.91,-102.063 990.472,-108.47 1001.06,-108.724 998.91,-102.063"/>
</g>
<!-- Node8 -->
<g id="node8" class="node"><title>Node8</title>
<g id="a_node8"><a xlink:href="classx265_1_1FrameEncoder.html#acad645a8ece97d884895f8f7366b7d70" target="_top" xlink:title="x265::FrameEncoder\l::processRow">
<polygon fill="white" stroke="black" points="1222.5,-49 1222.5,-79 1329.5,-79 1329.5,-49 1222.5,-49"/>
<text text-anchor="start" x="1230.5" y="-67" font-family="Helvetica,sans-Serif" font-size="10.00">x265::FrameEncoder</text>
<text text-anchor="middle" x="1276" y="-56" font-family="Helvetica,sans-Serif" font-size="10.00">::processRow</text>
</a>
</g>
</g>
<!-- Node7&#45;&gt;Node8 -->
<g id="edge7" class="edge"><title>Node7&#45;&gt;Node8</title>
<path fill="none" stroke="midnightblue" d="M1195.88,-64C1204.67,-64 1213.59,-64 1222.13,-64"/>
<polygon fill="midnightblue" stroke="midnightblue" points="1195.65,-60.5001 1185.65,-64 1195.65,-67.5001 1195.65,-60.5001"/>
</g>
<!-- Node9 -->
<g id="node9" class="node"><title>Node9</title>
<g id="a_node9"><a xlink:href="classx265_1_1FrameEncoder.html#ac4e9ce2e876c0cdb25c992c872fe4302" target="_top" xlink:title="x265::FrameEncoder\l::compressCTURows">
<polygon fill="white" stroke="black" points="1366,-47 1366,-77 1478,-77 1478,-47 1366,-47"/>
<text text-anchor="start" x="1374" y="-65" font-family="Helvetica,sans-Serif" font-size="10.00">x265::FrameEncoder</text>
<text text-anchor="middle" x="1422" y="-54" font-family="Helvetica,sans-Serif" font-size="10.00">::compressCTURows</text>
</a>
</g>
</g>
<!-- Node8&#45;&gt;Node9 -->
<g id="edge8" class="edge"><title>Node8&#45;&gt;Node9</title>
<path fill="none" stroke="midnightblue" d="M1339.83,-63.1273C1348.48,-63.0073 1357.3,-62.8848 1365.79,-62.7669"/>
<polygon fill="midnightblue" stroke="midnightblue" points="1339.75,-59.628 1329.8,-63.2666 1339.85,-66.6273 1339.75,-59.628"/>
</g>
<!-- Node10 -->
<g id="node10" class="node"><title>Node10</title>
<g id="a_node10"><a xlink:href="classx265_1_1FrameEncoder.html#a2f5c4c0f1a4e36fce4c9b87eb7ec4973" target="_top" xlink:title="x265::FrameEncoder\l::compressFrame">
<polygon fill="white" stroke="black" points="1514.5,-24 1514.5,-54 1621.5,-54 1621.5,-24 1514.5,-24"/>
<text text-anchor="start" x="1522.5" y="-42" font-family="Helvetica,sans-Serif" font-size="10.00">x265::FrameEncoder</text>
<text text-anchor="middle" x="1568" y="-31" font-family="Helvetica,sans-Serif" font-size="10.00">::compressFrame</text>
</a>
</g>
</g>
<!-- Node9&#45;&gt;Node10 -->
<g id="edge9" class="edge"><title>Node9&#45;&gt;Node10</title>
<path fill="none" stroke="midnightblue" d="M1488.14,-51.596C1496.96,-50.1866 1505.93,-48.755 1514.49,-47.3869"/>
<polygon fill="midnightblue" stroke="midnightblue" points="1487.59,-48.1399 1478.26,-53.1734 1488.69,-55.0523 1487.59,-48.1399"/>
</g>
<!-- Node11 -->
<g id="node11" class="node"><title>Node11</title>
<g id="a_node11"><a xlink:href="classx265_1_1FrameEncoder.html#aef61f29b9e93b3af9255d96236bc90a7" target="_top" xlink:title="x265::FrameEncoder\l::threadMain">
<polygon fill="white" stroke="black" points="1658.5,-24 1658.5,-54 1765.5,-54 1765.5,-24 1658.5,-24"/>
<text text-anchor="start" x="1666.5" y="-42" font-family="Helvetica,sans-Serif" font-size="10.00">x265::FrameEncoder</text>
<text text-anchor="middle" x="1712" y="-31" font-family="Helvetica,sans-Serif" font-size="10.00">::threadMain</text>
</a>
</g>
</g>
<!-- Node10&#45;&gt;Node11 -->
<g id="edge10" class="edge"><title>Node10&#45;&gt;Node11</title>
<path fill="none" stroke="midnightblue" d="M1631.99,-39C1640.7,-39 1649.58,-39 1658.08,-39"/>
<polygon fill="midnightblue" stroke="midnightblue" points="1631.88,-35.5001 1621.88,-39 1631.88,-42.5001 1631.88,-35.5001"/>
</g>
<!-- Node12&#45;&gt;Node6 -->
<g id="edge13" class="edge"><title>Node12&#45;&gt;Node6</title>
<path fill="none" stroke="midnightblue" d="M821.431,-191.108C858.145,-171.597 912.583,-142.668 940.704,-127.723"/>
<polygon fill="midnightblue" stroke="midnightblue" points="819.694,-188.067 812.506,-195.851 822.979,-194.249 819.694,-188.067"/>
</g>
<!-- Node14 -->
<g id="node14" class="node"><title>Node14</title>
<g id="a_node14"><a xlink:href="classx265_1_1Entropy.html#abb101b71f310e90eb504a8204babc180" target="_top" xlink:title="x265::Entropy::encodeCTU">
<polygon fill="white" stroke="black" points="892,-5.5 892,-24.5 1028,-24.5 1028,-5.5 892,-5.5"/>
<text text-anchor="middle" x="960" y="-12.5" font-family="Helvetica,sans-Serif" font-size="10.00">x265::Entropy::encodeCTU</text>
</a>
</g>
</g>
<!-- Node13&#45;&gt;Node14 -->
<g id="edge15" class="edge"><title>Node13&#45;&gt;Node14</title>
<path fill="none" stroke="midnightblue" d="M322.58,-13.2023C409.042,-12.383 555.837,-11.3168 682,-12 753.658,-12.388 835.738,-13.3406 891.834,-14.0692"/>
<polygon fill="midnightblue" stroke="midnightblue" points="322.306,-9.70472 312.34,-13.3009 322.374,-16.7044 322.306,-9.70472"/>
</g>
<!-- Node14&#45;&gt;Node7 -->
<g id="edge18" class="edge"><title>Node14&#45;&gt;Node7</title>
<path fill="none" stroke="midnightblue" d="M1003.45,-27.4541C1025.75,-33.9992 1053.26,-42.0713 1076.75,-48.963"/>
<polygon fill="midnightblue" stroke="midnightblue" points="1004.18,-24.0211 993.596,-24.564 1002.21,-30.7379 1004.18,-24.0211"/>
</g>
<!-- Node15 -->
<g id="node15" class="node"><title>Node15</title>
<g id="a_node15"><a xlink:href="classx265_1_1FrameEncoder.html#a6d4045d35bfe6b10c8d0dc39353be360" target="_top" xlink:title="x265::FrameEncoder\l::encodeSlice">
<polygon fill="white" stroke="black" points="1222.5,-0 1222.5,-30 1329.5,-30 1329.5,-0 1222.5,-0"/>
<text text-anchor="start" x="1230.5" y="-18" font-family="Helvetica,sans-Serif" font-size="10.00">x265::FrameEncoder</text>
<text text-anchor="middle" x="1276" y="-7" font-family="Helvetica,sans-Serif" font-size="10.00">::encodeSlice</text>
</a>
</g>
</g>
<!-- Node14&#45;&gt;Node15 -->
<g id="edge16" class="edge"><title>Node14&#45;&gt;Node15</title>
<path fill="none" stroke="midnightblue" d="M1038.45,-15C1095.65,-15 1172,-15 1222.29,-15"/>
<polygon fill="midnightblue" stroke="midnightblue" points="1038.36,-11.5001 1028.36,-15 1038.36,-18.5001 1038.36,-11.5001"/>
</g>
<!-- Node15&#45;&gt;Node10 -->
<g id="edge17" class="edge"><title>Node15&#45;&gt;Node10</title>
<path fill="none" stroke="midnightblue" d="M1339.65,-20.1849C1391.81,-24.5014 1465.23,-30.5779 1514.38,-34.6456"/>
<polygon fill="midnightblue" stroke="midnightblue" points="1339.77,-16.683 1329.52,-19.3462 1339.19,-23.6592 1339.77,-16.683"/>
</g>
<!-- Node17 -->
<g id="node17" class="node"><title>Node17</title>
<g id="a_node17"><a xlink:href="classx265_1_1Analysis.html#a10f0a8d9d143faf8dc671c6f0982693d" target="_top" xlink:title="x265::Analysis::tryLossless">
<polygon fill="white" stroke="black" points="540.5,-64.5 540.5,-83.5 677.5,-83.5 677.5,-64.5 540.5,-64.5"/>
<text text-anchor="middle" x="609" y="-71.5" font-family="Helvetica,sans-Serif" font-size="10.00">x265::Analysis::tryLossless</text>
</a>
</g>
</g>
<!-- Node16&#45;&gt;Node17 -->
<g id="edge20" class="edge"><title>Node16&#45;&gt;Node17</title>
<path fill="none" stroke="midnightblue" d="M499.14,-58.3627C513.194,-60.3815 527.864,-62.4888 541.717,-64.4787"/>
<polygon fill="midnightblue" stroke="midnightblue" points="499.433,-54.8689 489.037,-56.9113 498.437,-61.7977 499.433,-54.8689"/>
</g>
<!-- Node18 -->
<g id="node18" class="node"><title>Node18</title>
<g id="a_node18"><a xlink:href="classx265_1_1Analysis.html#aae2a6a2252270782b591d2bed7e99dae" target="_top" xlink:title="x265::Analysis::compress\lIntraCU">
<polygon fill="white" stroke="black" points="718,-54 718,-84 848,-84 848,-54 718,-54"/>
<text text-anchor="start" x="726" y="-72" font-family="Helvetica,sans-Serif" font-size="10.00">x265::Analysis::compress</text>
<text text-anchor="middle" x="783" y="-61" font-family="Helvetica,sans-Serif" font-size="10.00">IntraCU</text>
</a>
</g>
</g>
<!-- Node16&#45;&gt;Node18 -->
<g id="edge27" class="edge"><title>Node16&#45;&gt;Node18</title>
<path fill="none" stroke="midnightblue" d="M468.341,-35.7589C519.179,-22.5362 607.847,-5.44289 682,-22 709.334,-28.1033 738.016,-42.5321 757.618,-53.8049"/>
<polygon fill="midnightblue" stroke="midnightblue" points="467.143,-32.4562 458.389,-38.4244 468.954,-39.2179 467.143,-32.4562"/>
</g>
<!-- Node19 -->
<g id="node19" class="node"><title>Node19</title>
<g id="a_node19"><a xlink:href="classx265_1_1Analysis.html#a0b22b7765aa4a36b1ba6d07ba26901e6" target="_top" xlink:title="x265::Analysis::compress\lInterCU_rd5_6">
<polygon fill="white" stroke="black" points="718,-103 718,-133 848,-133 848,-103 718,-103"/>
<text text-anchor="start" x="726" y="-121" font-family="Helvetica,sans-Serif" font-size="10.00">x265::Analysis::compress</text>
<text text-anchor="middle" x="783" y="-110" font-family="Helvetica,sans-Serif" font-size="10.00">InterCU_rd5_6</text>
</a>
</g>
</g>
<!-- Node16&#45;&gt;Node19 -->
<g id="edge28" class="edge"><title>Node16&#45;&gt;Node19</title>
<path fill="none" stroke="midnightblue" d="M487.436,-37.089C540.992,-30.2747 620.074,-27.3508 682,-55 703.243,-64.4849 698.7,-80.01 718,-93 723.542,-96.7299 729.722,-100.024 735.995,-102.895"/>
<polygon fill="midnightblue" stroke="midnightblue" points="486.85,-33.6364 477.411,-38.4479 487.79,-40.5729 486.85,-33.6364"/>
</g>
<!-- Node17&#45;&gt;Node5 -->
<g id="edge23" class="edge"><title>Node17&#45;&gt;Node5</title>
<path fill="none" stroke="midnightblue" d="M677.43,-88.9705C679.038,-90.2126 680.567,-91.5532 682,-93 727.814,-139.261 680.787,-181.575 718,-235 726.323,-246.949 739.014,-256.647 750.907,-263.867"/>
<polygon fill="midnightblue" stroke="midnightblue" points="679.14,-85.9109 668.812,-83.5457 675.411,-91.835 679.14,-85.9109"/>
</g>
<!-- Node17&#45;&gt;Node12 -->
<g id="edge24" class="edge"><title>Node17&#45;&gt;Node12</title>
<path fill="none" stroke="midnightblue" d="M672.723,-87.6385C675.962,-89.2323 679.079,-91.0122 682,-93 704.34,-108.205 700.783,-121.171 718,-142 733.926,-161.268 753.676,-182.151 766.99,-195.836"/>
<polygon fill="midnightblue" stroke="midnightblue" points="673.905,-84.3376 663.334,-83.6217 671.151,-90.7733 673.905,-84.3376"/>
</g>
<!-- Node17&#45;&gt;Node18 -->
<g id="edge21" class="edge"><title>Node17&#45;&gt;Node18</title>
<path fill="none" stroke="midnightblue" d="M688.242,-71.7255C698.159,-71.4372 708.215,-71.1449 717.877,-70.864"/>
<polygon fill="midnightblue" stroke="midnightblue" points="687.873,-68.2347 677.979,-72.0239 688.076,-75.2317 687.873,-68.2347"/>
</g>
<!-- Node17&#45;&gt;Node19 -->
<g id="edge25" class="edge"><title>Node17&#45;&gt;Node19</title>
<path fill="none" stroke="midnightblue" d="M657.011,-86.0261C677.413,-91.2453 701.529,-97.4144 723.108,-102.935"/>
<polygon fill="midnightblue" stroke="midnightblue" points="657.877,-82.6349 647.321,-83.5473 656.142,-89.4166 657.877,-82.6349"/>
</g>
<!-- Node18&#45;&gt;Node6 -->
<g id="edge22" class="edge"><title>Node18&#45;&gt;Node6</title>
<path fill="none" stroke="midnightblue" d="M847.785,-86.8599C873.937,-94.1823 903.145,-102.361 925.065,-108.498"/>
<polygon fill="midnightblue" stroke="midnightblue" points="848.507,-83.4274 837.934,-84.1014 846.62,-90.1682 848.507,-83.4274"/>
</g>
<!-- Node19&#45;&gt;Node6 -->
<g id="edge26" class="edge"><title>Node19&#45;&gt;Node6</title>
<path fill="none" stroke="midnightblue" d="M858.253,-118C866.93,-118 875.784,-118 884.465,-118"/>
<polygon fill="midnightblue" stroke="midnightblue" points="858.17,-114.5 848.17,-118 858.17,-121.5 858.17,-114.5"/>
</g>
<!-- Node20&#45;&gt;Node5 -->
<g id="edge31" class="edge"><title>Node20&#45;&gt;Node5</title>
<path fill="none" stroke="midnightblue" d="M441.604,-190.88C459.822,-218.115 493.78,-261.175 536,-279 593.936,-303.46 666.612,-299.781 717.903,-292.242"/>
<polygon fill="midnightblue" stroke="midnightblue" points="444.42,-188.791 436.039,-182.309 438.549,-192.603 444.42,-188.791"/>
</g>
<!-- Node20&#45;&gt;Node12 -->
<g id="edge32" class="edge"><title>Node20&#45;&gt;Node12</title>
<path fill="none" stroke="midnightblue" d="M498.324,-184.155C510.826,-186.746 523.753,-189.162 536,-191 597.338,-200.203 667.96,-205.393 717.757,-208.166"/>
<polygon fill="midnightblue" stroke="midnightblue" points="498.918,-180.704 488.409,-182.048 497.462,-187.551 498.918,-180.704"/>
</g>
<!-- Node20&#45;&gt;Node17 -->
<g id="edge30" class="edge"><title>Node20&#45;&gt;Node17</title>
<path fill="none" stroke="midnightblue" d="M453.008,-145.602C474.195,-129.125 505.494,-106.888 536,-93 544.236,-89.2504 553.352,-86.1308 562.249,-83.577"/>
<polygon fill="midnightblue" stroke="midnightblue" points="450.807,-142.88 445.131,-151.826 455.147,-148.372 450.807,-142.88"/>
</g>
<!-- Node21 -->
<g id="node21" class="node"><title>Node21</title>
<g id="a_node21"><a xlink:href="classx265_1_1Analysis.html#addd72cb95590e2b2a6965d42d110eab3" target="_top" xlink:title="x265::Analysis::checkMerge2\lNx2N_rd0_4">
<polygon fill="white" stroke="black" points="536,-240 536,-270 682,-270 682,-240 536,-240"/>
<text text-anchor="start" x="544" y="-258" font-family="Helvetica,sans-Serif" font-size="10.00">x265::Analysis::checkMerge2</text>
<text text-anchor="middle" x="609" y="-247" font-family="Helvetica,sans-Serif" font-size="10.00">Nx2N_rd0_4</text>
</a>
</g>
</g>
<!-- Node20&#45;&gt;Node21 -->
<g id="edge33" class="edge"><title>Node20&#45;&gt;Node21</title>
<path fill="none" stroke="midnightblue" d="M462.444,-186.95C483.555,-198.557 511.019,-213.182 536,-225 546.894,-230.154 558.916,-235.35 569.964,-239.937"/>
<polygon fill="midnightblue" stroke="midnightblue" points="463.963,-183.791 453.519,-182.014 460.576,-189.916 463.963,-183.791"/>
</g>
<!-- Node22 -->
<g id="node22" class="node"><title>Node22</title>
<g id="a_node22"><a xlink:href="classx265_1_1Analysis.html#a0194a9da53aa95173fa1132ba3aea1c7" target="_top" xlink:title="x265::Analysis::checkMerge2\lNx2N_rd5_6">
<polygon fill="white" stroke="black" points="536,-152 536,-182 682,-182 682,-152 536,-152"/>
<text text-anchor="start" x="544" y="-170" font-family="Helvetica,sans-Serif" font-size="10.00">x265::Analysis::checkMerge2</text>
<text text-anchor="middle" x="609" y="-159" font-family="Helvetica,sans-Serif" font-size="10.00">Nx2N_rd5_6</text>
</a>
</g>
</g>
<!-- Node20&#45;&gt;Node22 -->
<g id="edge36" class="edge"><title>Node20&#45;&gt;Node22</title>
<path fill="none" stroke="midnightblue" d="M509.785,-167C518.535,-167 527.383,-167 535.997,-167"/>
<polygon fill="midnightblue" stroke="midnightblue" points="509.577,-163.5 499.577,-167 509.577,-170.5 509.577,-163.5"/>
</g>
<!-- Node23 -->
<g id="node23" class="node"><title>Node23</title>
<g id="a_node23"><a xlink:href="classx265_1_1Analysis.html#a828daa3e9f1ed40a1af9f99f7ff7bb33" target="_top" xlink:title="x265::Analysis::checkInter\l_rd5_6">
<polygon fill="white" stroke="black" points="542.5,-103 542.5,-133 675.5,-133 675.5,-103 542.5,-103"/>
<text text-anchor="start" x="550.5" y="-121" font-family="Helvetica,sans-Serif" font-size="10.00">x265::Analysis::checkInter</text>
<text text-anchor="middle" x="609" y="-110" font-family="Helvetica,sans-Serif" font-size="10.00">_rd5_6</text>
</a>
</g>
</g>
<!-- Node20&#45;&gt;Node23 -->
<g id="edge38" class="edge"><title>Node20&#45;&gt;Node23</title>
<path fill="none" stroke="midnightblue" d="M492.561,-149.252C512.177,-143.941 533.49,-138.171 552.401,-133.052"/>
<polygon fill="midnightblue" stroke="midnightblue" points="491.521,-145.907 482.783,-151.899 493.35,-152.664 491.521,-145.907"/>
</g>
<!-- Node21&#45;&gt;Node5 -->
<g id="edge34" class="edge"><title>Node21&#45;&gt;Node5</title>
<path fill="none" stroke="midnightblue" d="M692.422,-266.501C700.957,-267.692 709.539,-268.889 717.831,-270.046"/>
<polygon fill="midnightblue" stroke="midnightblue" points="692.833,-263.024 682.445,-265.109 691.865,-269.957 692.833,-263.024"/>
</g>
<!-- Node21&#45;&gt;Node12 -->
<g id="edge35" class="edge"><title>Node21&#45;&gt;Node12</title>
<path fill="none" stroke="midnightblue" d="M678.777,-237.406C693.511,-233.637 708.948,-229.688 723.261,-226.026"/>
<polygon fill="midnightblue" stroke="midnightblue" points="677.532,-234.112 668.712,-239.981 679.267,-240.893 677.532,-234.112"/>
</g>
<!-- Node22&#45;&gt;Node19 -->
<g id="edge37" class="edge"><title>Node22&#45;&gt;Node19</title>
<path fill="none" stroke="midnightblue" d="M672.812,-149.106C691.312,-143.836 711.359,-138.124 729.166,-133.052"/>
<polygon fill="midnightblue" stroke="midnightblue" points="671.668,-145.793 663.009,-151.899 673.585,-152.525 671.668,-145.793"/>
</g>
<!-- Node23&#45;&gt;Node19 -->
<g id="edge39" class="edge"><title>Node23&#45;&gt;Node19</title>
<path fill="none" stroke="midnightblue" d="M685.698,-118C696.409,-118 707.336,-118 717.803,-118"/>
<polygon fill="midnightblue" stroke="midnightblue" points="685.517,-114.5 675.516,-118 685.516,-121.5 685.517,-114.5"/>
</g>
</g>
</svg>
