<?xml version="1.0" encoding="UTF-8" standalone="no"?>
<!DOCTYPE svg PUBLIC "-//W3C//DTD SVG 1.1//EN"
 "http://www.w3.org/Graphics/SVG/1.1/DTD/svg11.dtd">
<!-- Generated by graphviz version 2.36.0 (20140111.2315)
 -->
<!-- Title: x265::CUData::calcCTUGeoms Pages: 1 -->
<svg width="838pt" height="38pt"
 viewBox="0.00 0.00 838.00 38.00" xmlns="http://www.w3.org/2000/svg" xmlns:xlink="http://www.w3.org/1999/xlink">
<g id="graph0" class="graph" transform="scale(1 1) rotate(0) translate(4 34)">
<title>x265::CUData::calcCTUGeoms</title>
<polygon fill="white" stroke="none" points="-4,4 -4,-34 834,-34 834,4 -4,4"/>
<!-- Node1 -->
<g id="node1" class="node"><title>Node1</title>
<polygon fill="#bfbfbf" stroke="black" points="0,-5.5 0,-24.5 156,-24.5 156,-5.5 0,-5.5"/>
<text text-anchor="middle" x="78" y="-12.5" font-family="Helvetica,sans-Serif" font-size="10.00">x265::CUData::calcCTUGeoms</text>
</g>
<!-- Node2 -->
<g id="node2" class="node"><title>Node2</title>
<g id="a_node2"><a xlink:href="classx265_1_1FrameEncoder.html#ae91c1fc19dd0871f19f2571d3a5fc46b" target="_top" xlink:title="x265::FrameEncoder\l::initializeGeoms">
<polygon fill="white" stroke="black" points="192.5,-0 192.5,-30 299.5,-30 299.5,-0 192.5,-0"/>
<text text-anchor="start" x="200.5" y="-18" font-family="Helvetica,sans-Serif" font-size="10.00">x265::FrameEncoder</text>
<text text-anchor="middle" x="246" y="-7" font-family="Helvetica,sans-Serif" font-size="10.00">::initializeGeoms</text>
</a>
</g>
</g>
<!-- Node1&#45;&gt;Node2 -->
<g id="edge1" class="edge"><title>Node1&#45;&gt;Node2</title>
<path fill="none" stroke="midnightblue" d="M166.186,-15C175.054,-15 183.858,-15 192.191,-15"/>
<polygon fill="midnightblue" stroke="midnightblue" points="166.168,-11.5001 156.168,-15 166.168,-18.5001 166.168,-11.5001"/>
</g>
<!-- Node3 -->
<g id="node3" class="node"><title>Node3</title>
<g id="a_node3"><a xlink:href="classx265_1_1FrameEncoder.html#adf59cc419bec02611a0638e5154c26b1" target="_top" xlink:title="x265::FrameEncoder\l::startCompressFrame">
<polygon fill="white" stroke="black" points="336.5,-0 336.5,-30 451.5,-30 451.5,-0 336.5,-0"/>
<text text-anchor="start" x="344.5" y="-18" font-family="Helvetica,sans-Serif" font-size="10.00">x265::FrameEncoder</text>
<text text-anchor="middle" x="394" y="-7" font-family="Helvetica,sans-Serif" font-size="10.00">::startCompressFrame</text>
</a>
</g>
</g>
<!-- Node2&#45;&gt;Node3 -->
<g id="edge2" class="edge"><title>Node2&#45;&gt;Node3</title>
<path fill="none" stroke="midnightblue" d="M309.926,-15C318.734,-15 327.741,-15 336.422,-15"/>
<polygon fill="midnightblue" stroke="midnightblue" points="309.709,-11.5001 299.709,-15 309.709,-18.5001 309.709,-11.5001"/>
</g>
<!-- Node4 -->
<g id="node4" class="node"><title>Node4</title>
<g id="a_node4"><a xlink:href="classx265_1_1Encoder.html#af5c80cef5fcafa00d1b3c105681bc784" target="_top" xlink:title="x265::Encoder::encode">
<polygon fill="white" stroke="black" points="488.5,-5.5 488.5,-24.5 605.5,-24.5 605.5,-5.5 488.5,-5.5"/>
<text text-anchor="middle" x="547" y="-12.5" font-family="Helvetica,sans-Serif" font-size="10.00">x265::Encoder::encode</text>
</a>
</g>
</g>
<!-- Node3&#45;&gt;Node4 -->
<g id="edge3" class="edge"><title>Node3&#45;&gt;Node4</title>
<path fill="none" stroke="midnightblue" d="M461.885,-15C470.684,-15 479.642,-15 488.271,-15"/>
<polygon fill="midnightblue" stroke="midnightblue" points="461.656,-11.5001 451.656,-15 461.656,-18.5001 461.656,-11.5001"/>
</g>
<!-- Node5 -->
<g id="node5" class="node"><title>Node5</title>
<g id="a_node5"><a xlink:href="x265_8h.html#a7a45a920b9d86ed3fb3cb3794b14f5ea" target="_top" xlink:title="x265_encoder_encode">
<polygon fill="white" stroke="black" points="642,-5.5 642,-24.5 756,-24.5 756,-5.5 642,-5.5"/>
<text text-anchor="middle" x="699" y="-12.5" font-family="Helvetica,sans-Serif" font-size="10.00">x265_encoder_encode</text>
</a>
</g>
</g>
<!-- Node4&#45;&gt;Node5 -->
<g id="edge4" class="edge"><title>Node4&#45;&gt;Node5</title>
<path fill="none" stroke="midnightblue" d="M615.721,-15C624.45,-15 633.311,-15 641.826,-15"/>
<polygon fill="midnightblue" stroke="midnightblue" points="615.565,-11.5001 605.565,-15 615.565,-18.5001 615.565,-11.5001"/>
</g>
<!-- Node6 -->
<g id="node6" class="node"><title>Node6</title>
<g id="a_node6"><a xlink:href="x265_8cpp.html#a3c04138a5bfe5d72780bb7e82a18e627" target="_top" xlink:title="main">
<polygon fill="white" stroke="black" points="792,-5.5 792,-24.5 830,-24.5 830,-5.5 792,-5.5"/>
<text text-anchor="middle" x="811" y="-12.5" font-family="Helvetica,sans-Serif" font-size="10.00">main</text>
</a>
</g>
</g>
<!-- Node5&#45;&gt;Node6 -->
<g id="edge5" class="edge"><title>Node5&#45;&gt;Node6</title>
<path fill="none" stroke="midnightblue" d="M766.493,-15C775.781,-15 784.611,-15 791.859,-15"/>
<polygon fill="midnightblue" stroke="midnightblue" points="766.289,-11.5001 756.289,-15 766.289,-18.5001 766.289,-11.5001"/>
</g>
</g>
</svg>
