<?xml version="1.0" encoding="UTF-8" standalone="no"?>
<!DOCTYPE svg PUBLIC "-//W3C//DTD SVG 1.1//EN"
 "http://www.w3.org/Graphics/SVG/1.1/DTD/svg11.dtd">
<!-- Generated by graphviz version 2.36.0 (20140111.2315)
 -->
<!-- Title: x265::SEI::write Pages: 1 -->
<svg width="580pt" height="164pt"
 viewBox="0.00 0.00 580.00 164.00" xmlns="http://www.w3.org/2000/svg" xmlns:xlink="http://www.w3.org/1999/xlink">
<g id="graph0" class="graph" transform="scale(1 1) rotate(0) translate(4 160)">
<title>x265::SEI::write</title>
<polygon fill="white" stroke="none" points="-4,4 -4,-160 576,-160 576,4 -4,4"/>
<!-- Node1 -->
<g id="node1" class="node"><title>Node1</title>
<polygon fill="#bfbfbf" stroke="black" points="0.5,-76.5 0.5,-95.5 87.5,-95.5 87.5,-76.5 0.5,-76.5"/>
<text text-anchor="middle" x="44" y="-83.5" font-family="Helvetica,sans-Serif" font-size="10.00">x265::SEI::write</text>
</g>
<!-- Node2 -->
<g id="node2" class="node"><title>Node2</title>
<g id="a_node2"><a xlink:href="classx265_1_1SEI.html#a31e62a9e4b6de18d6e2ce6d0ac2c6ff8" target="_top" xlink:title="x265::SEI::writeSEI">
<polygon fill="white" stroke="black" points="144,-136.5 144,-155.5 248,-155.5 248,-136.5 144,-136.5"/>
<text text-anchor="middle" x="196" y="-143.5" font-family="Helvetica,sans-Serif" font-size="10.00">x265::SEI::writeSEI</text>
</a>
</g>
</g>
<!-- Node1&#45;&gt;Node2 -->
<g id="edge1" class="edge"><title>Node1&#45;&gt;Node2</title>
<path fill="none" stroke="midnightblue" d="M60.8607,-95.5425C76.4804,-104.621 101.238,-118.169 124,-127 130.234,-129.419 136.892,-131.643 143.537,-133.652"/>
<polygon fill="midnightblue" stroke="midnightblue" points="142.637,-137.035 153.215,-136.438 144.574,-130.308 142.637,-137.035"/>
</g>
<!-- Node3 -->
<g id="node3" class="node"><title>Node3</title>
<g id="a_node3"><a xlink:href="classx265_1_1SEI.html#a4ebef3d964d63877a6dc6e90d017a446" target="_top" xlink:title="x265::SEI::payloadType">
<polygon fill="white" stroke="black" points="135,-98.5 135,-117.5 257,-117.5 257,-98.5 135,-98.5"/>
<text text-anchor="middle" x="196" y="-105.5" font-family="Helvetica,sans-Serif" font-size="10.00">x265::SEI::payloadType</text>
</a>
</g>
</g>
<!-- Node1&#45;&gt;Node3 -->
<g id="edge2" class="edge"><title>Node1&#45;&gt;Node3</title>
<path fill="none" stroke="midnightblue" d="M87.5828,-92.2455C99.2013,-93.9495 112.105,-95.8421 124.823,-97.7074"/>
<polygon fill="midnightblue" stroke="midnightblue" points="124.553,-101.205 134.955,-99.1934 125.569,-94.2792 124.553,-101.205"/>
</g>
<!-- Node4 -->
<g id="node4" class="node"><title>Node4</title>
<g id="a_node4"><a xlink:href="classx265_1_1SyntaxElementWriter.html#a0bb88c348aa279a7ff17909fbe9afcb7" target="_top" xlink:title="x265::SyntaxElementWriter\l::WRITE_CODE">
<polygon fill="white" stroke="black" points="127.5,-49 127.5,-79 264.5,-79 264.5,-49 127.5,-49"/>
<text text-anchor="start" x="135.5" y="-67" font-family="Helvetica,sans-Serif" font-size="10.00">x265::SyntaxElementWriter</text>
<text text-anchor="middle" x="196" y="-56" font-family="Helvetica,sans-Serif" font-size="10.00">::WRITE_CODE</text>
</a>
</g>
</g>
<!-- Node1&#45;&gt;Node4 -->
<g id="edge3" class="edge"><title>Node1&#45;&gt;Node4</title>
<path fill="none" stroke="midnightblue" d="M87.5828,-79.7545C96.8721,-78.3921 106.983,-76.9091 117.164,-75.416"/>
<polygon fill="midnightblue" stroke="midnightblue" points="117.954,-78.8376 127.34,-73.9235 116.938,-71.9117 117.954,-78.8376"/>
</g>
<!-- Node7 -->
<g id="node7" class="node"><title>Node7</title>
<g id="a_node7"><a xlink:href="classx265_1_1BitCounter.html#a07d88d2e830dbd82805a707cf6deddc1" target="_top" xlink:title="x265::BitCounter::getNumber\lOfWrittenBits">
<polygon fill="white" stroke="black" points="124,-0 124,-30 268,-30 268,-0 124,-0"/>
<text text-anchor="start" x="132" y="-18" font-family="Helvetica,sans-Serif" font-size="10.00">x265::BitCounter::getNumber</text>
<text text-anchor="middle" x="196" y="-7" font-family="Helvetica,sans-Serif" font-size="10.00">OfWrittenBits</text>
</a>
</g>
</g>
<!-- Node1&#45;&gt;Node7 -->
<g id="edge6" class="edge"><title>Node1&#45;&gt;Node7</title>
<path fill="none" stroke="midnightblue" d="M59.4052,-76.4954C74.9107,-66.5342 100.517,-50.8529 124,-40 128.699,-37.8284 133.643,-35.7304 138.645,-33.7351"/>
<polygon fill="midnightblue" stroke="midnightblue" points="140.204,-36.8855 148.284,-30.0323 137.694,-30.351 140.204,-36.8855"/>
</g>
<!-- Node5 -->
<g id="node5" class="node"><title>Node5</title>
<g id="a_node5"><a xlink:href="classx265_1_1SyntaxElementWriter.html#ae5a4f2eb12b9c33050cd47aafe5d281c" target="_top" xlink:title="x265::SyntaxElementWriter\l::writeCode">
<polygon fill="white" stroke="black" points="304.5,-49 304.5,-79 441.5,-79 441.5,-49 304.5,-49"/>
<text text-anchor="start" x="312.5" y="-67" font-family="Helvetica,sans-Serif" font-size="10.00">x265::SyntaxElementWriter</text>
<text text-anchor="middle" x="373" y="-56" font-family="Helvetica,sans-Serif" font-size="10.00">::writeCode</text>
</a>
</g>
</g>
<!-- Node4&#45;&gt;Node5 -->
<g id="edge4" class="edge"><title>Node4&#45;&gt;Node5</title>
<path fill="none" stroke="midnightblue" d="M264.66,-64C274.297,-64 284.272,-64 294.086,-64"/>
<polygon fill="midnightblue" stroke="midnightblue" points="294.232,-67.5001 304.232,-64 294.232,-60.5001 294.232,-67.5001"/>
</g>
<!-- Node6 -->
<g id="node6" class="node"><title>Node6</title>
<g id="a_node6"><a xlink:href="classx265_1_1BitInterface.html#a28a79d8b25645cdd59d6ff004d4851dc" target="_top" xlink:title="x265::BitInterface\l::write">
<polygon fill="white" stroke="black" points="478,-49 478,-79 572,-79 572,-49 478,-49"/>
<text text-anchor="start" x="486" y="-67" font-family="Helvetica,sans-Serif" font-size="10.00">x265::BitInterface</text>
<text text-anchor="middle" x="525" y="-56" font-family="Helvetica,sans-Serif" font-size="10.00">::write</text>
</a>
</g>
</g>
<!-- Node5&#45;&gt;Node6 -->
<g id="edge5" class="edge"><title>Node5&#45;&gt;Node6</title>
<path fill="none" stroke="midnightblue" d="M441.54,-64C450.275,-64 459.146,-64 467.673,-64"/>
<polygon fill="midnightblue" stroke="midnightblue" points="467.872,-67.5001 477.872,-64 467.872,-60.5001 467.872,-67.5001"/>
</g>
</g>
</svg>
