<?xml version="1.0" encoding="UTF-8" standalone="no"?>
<!DOCTYPE svg PUBLIC "-//W3C//DTD SVG 1.1//EN"
 "http://www.w3.org/Graphics/SVG/1.1/DTD/svg11.dtd">
<!-- Generated by graphviz version 2.36.0 (20140111.2315)
 -->
<!-- Title: x265::Predict::getAdiChromaBuf Pages: 1 -->
<svg width="1426pt" height="273pt"
 viewBox="0.00 0.00 1426.00 272.77" xmlns="http://www.w3.org/2000/svg" xmlns:xlink="http://www.w3.org/1999/xlink">
<g id="graph0" class="graph" transform="scale(1 1) rotate(0) translate(4 268.768)">
<title>x265::Predict::getAdiChromaBuf</title>
<polygon fill="white" stroke="none" points="-4,4 -4,-268.768 1422,-268.768 1422,4 -4,4"/>
<!-- Node1 -->
<g id="node1" class="node"><title>Node1</title>
<polygon fill="#bfbfbf" stroke="black" points="0,-92.2679 0,-111.268 158,-111.268 158,-92.2679 0,-92.2679"/>
<text text-anchor="middle" x="79" y="-99.2679" font-family="Helvetica,sans-Serif" font-size="10.00">x265::Predict::getAdiChromaBuf</text>
</g>
<!-- Node2 -->
<g id="node2" class="node"><title>Node2</title>
<g id="a_node2"><a xlink:href="classx265_1_1Predict.html#adaf25ea2af37db5f3222139d849447a4" target="_top" xlink:title="x265::Predict::initAdiPattern\lChroma">
<polygon fill="white" stroke="black" points="194.5,-108.768 194.5,-138.768 333.5,-138.768 333.5,-108.768 194.5,-108.768"/>
<text text-anchor="start" x="202.5" y="-126.768" font-family="Helvetica,sans-Serif" font-size="10.00">x265::Predict::initAdiPattern</text>
<text text-anchor="middle" x="264" y="-115.768" font-family="Helvetica,sans-Serif" font-size="10.00">Chroma</text>
</a>
</g>
</g>
<!-- Node1&#45;&gt;Node2 -->
<g id="edge1" class="edge"><title>Node1&#45;&gt;Node2</title>
<path fill="none" stroke="midnightblue" d="M168.074,-112.356C176.905,-113.418 185.779,-114.485 194.365,-115.517"/>
<polygon fill="midnightblue" stroke="midnightblue" points="168.486,-108.88 158.139,-111.162 167.65,-115.83 168.486,-108.88"/>
</g>
<!-- Node3 -->
<g id="node3" class="node"><title>Node3</title>
<g id="a_node3"><a xlink:href="classx265_1_1Search.html#a0ec5d297bb4eba4e9445ff67b35b95fa" target="_top" xlink:title="x265::Search::codeIntraChromaQt">
<polygon fill="white" stroke="black" points="370,-151.268 370,-170.268 536,-170.268 536,-151.268 370,-151.268"/>
<text text-anchor="middle" x="453" y="-158.268" font-family="Helvetica,sans-Serif" font-size="10.00">x265::Search::codeIntraChromaQt</text>
</a>
</g>
</g>
<!-- Node1&#45;&gt;Node3 -->
<g id="edge28" class="edge"><title>Node1&#45;&gt;Node3</title>
<path fill="none" stroke="midnightblue" d="M107.337,-115.819C129.928,-126.681 163.18,-140.975 194,-147.768 251.812,-160.51 318.6,-163.568 369.737,-163.541"/>
<polygon fill="midnightblue" stroke="midnightblue" points="108.865,-112.67 98.3458,-111.405 105.78,-118.954 108.865,-112.67"/>
</g>
<!-- Node14 -->
<g id="node14" class="node"><title>Node14</title>
<g id="a_node14"><a xlink:href="classx265_1_1Search.html#a42170100e328cf2504b615ecb2579094" target="_top" xlink:title="x265::Search::residualQTIntra\lChroma">
<polygon fill="white" stroke="black" points="379.5,-82.7679 379.5,-112.768 526.5,-112.768 526.5,-82.7679 379.5,-82.7679"/>
<text text-anchor="start" x="387.5" y="-100.768" font-family="Helvetica,sans-Serif" font-size="10.00">x265::Search::residualQTIntra</text>
<text text-anchor="middle" x="453" y="-89.7679" font-family="Helvetica,sans-Serif" font-size="10.00">Chroma</text>
</a>
</g>
</g>
<!-- Node1&#45;&gt;Node14 -->
<g id="edge29" class="edge"><title>Node1&#45;&gt;Node14</title>
<path fill="none" stroke="midnightblue" d="M168.342,-99.2474C177.012,-99.0589 185.676,-98.8936 194,-98.7679 256.59,-97.8232 327.729,-97.6119 379.432,-97.6149"/>
<polygon fill="midnightblue" stroke="midnightblue" points="168.101,-95.7519 158.183,-99.4784 168.26,-102.75 168.101,-95.7519"/>
</g>
<!-- Node17 -->
<g id="node17" class="node"><title>Node17</title>
<g id="a_node17"><a xlink:href="classx265_1_1Search.html#ad676dc0bcf94eea19260363b3b029755" target="_top" xlink:title="x265::Search::getBestIntra\lModeChroma">
<polygon fill="white" stroke="black" points="386,-33.7679 386,-63.7679 520,-63.7679 520,-33.7679 386,-33.7679"/>
<text text-anchor="start" x="394" y="-51.7679" font-family="Helvetica,sans-Serif" font-size="10.00">x265::Search::getBestIntra</text>
<text text-anchor="middle" x="453" y="-40.7679" font-family="Helvetica,sans-Serif" font-size="10.00">ModeChroma</text>
</a>
</g>
</g>
<!-- Node1&#45;&gt;Node17 -->
<g id="edge30" class="edge"><title>Node1&#45;&gt;Node17</title>
<path fill="none" stroke="midnightblue" d="M157.099,-90.7833C224.67,-81.1564 321.839,-67.3123 385.915,-58.1833"/>
<polygon fill="midnightblue" stroke="midnightblue" points="156.342,-87.3558 146.936,-92.2314 157.33,-94.2858 156.342,-87.3558"/>
</g>
<!-- Node2&#45;&gt;Node3 -->
<g id="edge2" class="edge"><title>Node2&#45;&gt;Node3</title>
<path fill="none" stroke="midnightblue" d="M343.535,-139.307C364.033,-143.363 385.515,-147.613 403.904,-151.252"/>
<polygon fill="midnightblue" stroke="midnightblue" points="344.059,-135.843 333.57,-137.335 342.701,-142.71 344.059,-135.843"/>
</g>
<!-- Node2&#45;&gt;Node14 -->
<g id="edge20" class="edge"><title>Node2&#45;&gt;Node14</title>
<path fill="none" stroke="midnightblue" d="M343.822,-112.809C355.605,-111.171 367.705,-109.488 379.352,-107.869"/>
<polygon fill="midnightblue" stroke="midnightblue" points="342.993,-109.39 333.57,-114.234 343.957,-116.324 342.993,-109.39"/>
</g>
<!-- Node2&#45;&gt;Node17 -->
<g id="edge25" class="edge"><title>Node2&#45;&gt;Node17</title>
<path fill="none" stroke="midnightblue" d="M301.946,-103.941C321.768,-93.7881 346.824,-81.7154 370,-72.7679 378.303,-69.5625 387.218,-66.5412 396.002,-63.7939"/>
<polygon fill="midnightblue" stroke="midnightblue" points="300.22,-100.894 292.95,-108.601 303.439,-107.109 300.22,-100.894"/>
</g>
<!-- Node4 -->
<g id="node4" class="node"><title>Node4</title>
<g id="a_node4"><a xlink:href="classx265_1_1Search.html#a70d466b561a7463b8ec5a213384ae667" target="_top" xlink:title="x265::Search::estIntraPred\lChromaQT">
<polygon fill="white" stroke="black" points="583,-145.768 583,-175.768 717,-175.768 717,-145.768 583,-145.768"/>
<text text-anchor="start" x="591" y="-163.768" font-family="Helvetica,sans-Serif" font-size="10.00">x265::Search::estIntraPred</text>
<text text-anchor="middle" x="650" y="-152.768" font-family="Helvetica,sans-Serif" font-size="10.00">ChromaQT</text>
</a>
</g>
</g>
<!-- Node3&#45;&gt;Node4 -->
<g id="edge3" class="edge"><title>Node3&#45;&gt;Node4</title>
<path fill="none" stroke="midnightblue" d="M546.438,-160.768C558.758,-160.768 571.187,-160.768 582.933,-160.768"/>
<polygon fill="midnightblue" stroke="midnightblue" points="546.132,-157.268 536.132,-160.768 546.132,-164.268 546.132,-157.268"/>
</g>
<!-- Node5 -->
<g id="node5" class="node"><title>Node5</title>
<g id="a_node5"><a xlink:href="classx265_1_1Analysis.html#ae4d61bcf4d2c22a054d68d6d77136428" target="_top" xlink:title="x265::Analysis::encodeIntra\lInInter">
<polygon fill="white" stroke="black" points="926,-190.768 926,-220.768 1064,-220.768 1064,-190.768 926,-190.768"/>
<text text-anchor="start" x="934" y="-208.768" font-family="Helvetica,sans-Serif" font-size="10.00">x265::Analysis::encodeIntra</text>
<text text-anchor="middle" x="995" y="-197.768" font-family="Helvetica,sans-Serif" font-size="10.00">InInter</text>
</a>
</g>
</g>
<!-- Node4&#45;&gt;Node5 -->
<g id="edge4" class="edge"><title>Node4&#45;&gt;Node5</title>
<path fill="none" stroke="midnightblue" d="M727.252,-170.914C739.539,-172.542 752.12,-174.205 764,-175.768 818.397,-182.926 880.042,-190.963 925.811,-196.915"/>
<polygon fill="midnightblue" stroke="midnightblue" points="727.396,-167.402 717.023,-169.558 726.476,-174.342 727.396,-167.402"/>
</g>
<!-- Node10 -->
<g id="node10" class="node"><title>Node10</title>
<g id="a_node10"><a xlink:href="classx265_1_1Search.html#ab02df91827cf67796d1605bde60c6aed" target="_top" xlink:title="x265::Search::checkIntra">
<polygon fill="white" stroke="black" points="764,-95.2679 764,-114.268 890,-114.268 890,-95.2679 764,-95.2679"/>
<text text-anchor="middle" x="827" y="-102.268" font-family="Helvetica,sans-Serif" font-size="10.00">x265::Search::checkIntra</text>
</a>
</g>
</g>
<!-- Node4&#45;&gt;Node10 -->
<g id="edge10" class="edge"><title>Node4&#45;&gt;Node10</title>
<path fill="none" stroke="midnightblue" d="M707.681,-142.63C737.207,-133.182 772.1,-122.016 796.309,-114.269"/>
<polygon fill="midnightblue" stroke="midnightblue" points="706.354,-139.38 697.897,-145.761 708.488,-146.047 706.354,-139.38"/>
</g>
<!-- Node6 -->
<g id="node6" class="node"><title>Node6</title>
<g id="a_node6"><a xlink:href="classx265_1_1Analysis.html#aa6122285d10bb1bd7584958b88b029d5" target="_top" xlink:title="x265::Analysis::parallel\lModeAnalysis">
<polygon fill="white" stroke="red" points="1106,-234.768 1106,-264.768 1224,-264.768 1224,-234.768 1106,-234.768"/>
<text text-anchor="start" x="1114" y="-252.768" font-family="Helvetica,sans-Serif" font-size="10.00">x265::Analysis::parallel</text>
<text text-anchor="middle" x="1165" y="-241.768" font-family="Helvetica,sans-Serif" font-size="10.00">ModeAnalysis</text>
</a>
</g>
</g>
<!-- Node5&#45;&gt;Node6 -->
<g id="edge5" class="edge"><title>Node5&#45;&gt;Node6</title>
<path fill="none" stroke="midnightblue" d="M1063.18,-223.362C1077.57,-227.131 1092.65,-231.08 1106.63,-234.742"/>
<polygon fill="midnightblue" stroke="midnightblue" points="1063.91,-219.935 1053.35,-220.787 1062.13,-226.707 1063.91,-219.935"/>
</g>
<!-- Node7 -->
<g id="node7" class="node"><title>Node7</title>
<g id="a_node7"><a xlink:href="classx265_1_1Analysis.html#a87060ff27a37f56adc5f5b8a4c033ece" target="_top" xlink:title="x265::Analysis::compress\lInterCU_dist">
<polygon fill="white" stroke="black" points="1100,-185.768 1100,-215.768 1230,-215.768 1230,-185.768 1100,-185.768"/>
<text text-anchor="start" x="1108" y="-203.768" font-family="Helvetica,sans-Serif" font-size="10.00">x265::Analysis::compress</text>
<text text-anchor="middle" x="1165" y="-192.768" font-family="Helvetica,sans-Serif" font-size="10.00">InterCU_dist</text>
</a>
</g>
</g>
<!-- Node5&#45;&gt;Node7 -->
<g id="edge6" class="edge"><title>Node5&#45;&gt;Node7</title>
<path fill="none" stroke="midnightblue" d="M1074.58,-203.429C1083.02,-203.178 1091.55,-202.924 1099.8,-202.679"/>
<polygon fill="midnightblue" stroke="midnightblue" points="1074.22,-199.938 1064.33,-203.734 1074.43,-206.935 1074.22,-199.938"/>
</g>
<!-- Node9 -->
<g id="node9" class="node"><title>Node9</title>
<g id="a_node9"><a xlink:href="classx265_1_1Analysis.html#a30d2ff7eca5addbb0a6b3dfe14f09650" target="_top" xlink:title="x265::Analysis::compress\lInterCU_rd0_4">
<polygon fill="white" stroke="black" points="1100,-136.768 1100,-166.768 1230,-166.768 1230,-136.768 1100,-136.768"/>
<text text-anchor="start" x="1108" y="-154.768" font-family="Helvetica,sans-Serif" font-size="10.00">x265::Analysis::compress</text>
<text text-anchor="middle" x="1165" y="-143.768" font-family="Helvetica,sans-Serif" font-size="10.00">InterCU_rd0_4</text>
</a>
</g>
</g>
<!-- Node5&#45;&gt;Node9 -->
<g id="edge8" class="edge"><title>Node5&#45;&gt;Node9</title>
<path fill="none" stroke="midnightblue" d="M1052.56,-187.589C1073.56,-180.839 1097.13,-173.263 1117.16,-166.823"/>
<polygon fill="midnightblue" stroke="midnightblue" points="1051.25,-184.334 1042.8,-190.726 1053.39,-190.998 1051.25,-184.334"/>
</g>
<!-- Node8 -->
<g id="node8" class="node"><title>Node8</title>
<g id="a_node8"><a xlink:href="classx265_1_1Analysis.html#aaebc9de2ff98834c650244f3b58942c2" target="_top" xlink:title="x265::Analysis::compressCTU">
<polygon fill="white" stroke="red" points="1266.5,-93.2679 1266.5,-112.268 1417.5,-112.268 1417.5,-93.2679 1266.5,-93.2679"/>
<text text-anchor="middle" x="1342" y="-100.268" font-family="Helvetica,sans-Serif" font-size="10.00">x265::Analysis::compressCTU</text>
</a>
</g>
</g>
<!-- Node7&#45;&gt;Node8 -->
<g id="edge7" class="edge"><title>Node7&#45;&gt;Node8</title>
<path fill="none" stroke="midnightblue" d="M1217.57,-181.721C1221.83,-179.819 1226.02,-177.826 1230,-175.768 1267.5,-156.387 1308.11,-127.411 1328.22,-112.462"/>
<polygon fill="midnightblue" stroke="midnightblue" points="1216.03,-178.574 1208.21,-185.73 1218.78,-185.009 1216.03,-178.574"/>
</g>
<!-- Node9&#45;&gt;Node8 -->
<g id="edge9" class="edge"><title>Node9&#45;&gt;Node8</title>
<path fill="none" stroke="midnightblue" d="M1229.79,-133.908C1255.94,-126.586 1285.15,-118.407 1307.06,-112.27"/>
<polygon fill="midnightblue" stroke="midnightblue" points="1228.62,-130.6 1219.93,-136.666 1230.51,-137.341 1228.62,-130.6"/>
</g>
<!-- Node11 -->
<g id="node11" class="node"><title>Node11</title>
<g id="a_node11"><a xlink:href="classx265_1_1Analysis.html#a10f0a8d9d143faf8dc671c6f0982693d" target="_top" xlink:title="x265::Analysis::tryLossless">
<polygon fill="white" stroke="black" points="926.5,-114.268 926.5,-133.268 1063.5,-133.268 1063.5,-114.268 926.5,-114.268"/>
<text text-anchor="middle" x="995" y="-121.268" font-family="Helvetica,sans-Serif" font-size="10.00">x265::Analysis::tryLossless</text>
</a>
</g>
</g>
<!-- Node10&#45;&gt;Node11 -->
<g id="edge11" class="edge"><title>Node10&#45;&gt;Node11</title>
<path fill="none" stroke="midnightblue" d="M900.338,-113.048C908.984,-114.037 917.786,-115.045 926.362,-116.026"/>
<polygon fill="midnightblue" stroke="midnightblue" points="900.618,-109.557 890.285,-111.897 899.822,-116.511 900.618,-109.557"/>
</g>
<!-- Node12 -->
<g id="node12" class="node"><title>Node12</title>
<g id="a_node12"><a xlink:href="classx265_1_1Analysis.html#aae2a6a2252270782b591d2bed7e99dae" target="_top" xlink:title="x265::Analysis::compress\lIntraCU">
<polygon fill="white" stroke="black" points="1100,-87.7679 1100,-117.768 1230,-117.768 1230,-87.7679 1100,-87.7679"/>
<text text-anchor="start" x="1108" y="-105.768" font-family="Helvetica,sans-Serif" font-size="10.00">x265::Analysis::compress</text>
<text text-anchor="middle" x="1165" y="-94.7679" font-family="Helvetica,sans-Serif" font-size="10.00">IntraCU</text>
</a>
</g>
</g>
<!-- Node10&#45;&gt;Node12 -->
<g id="edge18" class="edge"><title>Node10&#45;&gt;Node12</title>
<path fill="none" stroke="midnightblue" d="M900.064,-104.339C959.383,-103.986 1042.7,-103.49 1099.77,-103.15"/>
<polygon fill="midnightblue" stroke="midnightblue" points="899.998,-100.839 890.019,-104.399 900.04,-107.839 899.998,-100.839"/>
</g>
<!-- Node13 -->
<g id="node13" class="node"><title>Node13</title>
<g id="a_node13"><a xlink:href="classx265_1_1Analysis.html#a0b22b7765aa4a36b1ba6d07ba26901e6" target="_top" xlink:title="x265::Analysis::compress\lInterCU_rd5_6">
<polygon fill="white" stroke="black" points="1100,-38.7679 1100,-68.7679 1230,-68.7679 1230,-38.7679 1100,-38.7679"/>
<text text-anchor="start" x="1108" y="-56.7679" font-family="Helvetica,sans-Serif" font-size="10.00">x265::Analysis::compress</text>
<text text-anchor="middle" x="1165" y="-45.7679" font-family="Helvetica,sans-Serif" font-size="10.00">InterCU_rd5_6</text>
</a>
</g>
</g>
<!-- Node10&#45;&gt;Node13 -->
<g id="edge19" class="edge"><title>Node10&#45;&gt;Node13</title>
<path fill="none" stroke="midnightblue" d="M900.064,-93.8297C959.383,-84.8259 1042.7,-72.1788 1099.77,-63.5172"/>
<polygon fill="midnightblue" stroke="midnightblue" points="899.381,-90.3932 890.019,-95.3543 900.431,-97.3139 899.381,-90.3932"/>
</g>
<!-- Node11&#45;&gt;Node7 -->
<g id="edge14" class="edge"><title>Node11&#45;&gt;Node7</title>
<path fill="none" stroke="midnightblue" d="M1022.69,-137.957C1043.51,-148.818 1073.28,-163.9 1100,-175.768 1107.63,-179.158 1115.87,-182.563 1123.82,-185.722"/>
<polygon fill="midnightblue" stroke="midnightblue" points="1024.28,-134.838 1013.8,-133.291 1021.03,-141.036 1024.28,-134.838"/>
</g>
<!-- Node11&#45;&gt;Node9 -->
<g id="edge15" class="edge"><title>Node11&#45;&gt;Node9</title>
<path fill="none" stroke="midnightblue" d="M1063.36,-134.995C1075.45,-137.009 1088.01,-139.103 1099.99,-141.1"/>
<polygon fill="midnightblue" stroke="midnightblue" points="1063.79,-131.517 1053.35,-133.326 1062.63,-138.422 1063.79,-131.517"/>
</g>
<!-- Node11&#45;&gt;Node12 -->
<g id="edge12" class="edge"><title>Node11&#45;&gt;Node12</title>
<path fill="none" stroke="midnightblue" d="M1074,-114.018C1082.7,-112.931 1091.48,-111.832 1099.98,-110.77"/>
<polygon fill="midnightblue" stroke="midnightblue" points="1073.34,-110.574 1063.85,-115.287 1074.2,-117.52 1073.34,-110.574"/>
</g>
<!-- Node11&#45;&gt;Node13 -->
<g id="edge16" class="edge"><title>Node11&#45;&gt;Node13</title>
<path fill="none" stroke="midnightblue" d="M1025.78,-110.047C1046.47,-100.651 1074.75,-88.0752 1100,-77.7679 1107.36,-74.7628 1115.25,-71.6868 1122.89,-68.7827"/>
<polygon fill="midnightblue" stroke="midnightblue" points="1024.21,-106.916 1016.57,-114.25 1027.12,-113.285 1024.21,-106.916"/>
</g>
<!-- Node12&#45;&gt;Node8 -->
<g id="edge13" class="edge"><title>Node12&#45;&gt;Node8</title>
<path fill="none" stroke="midnightblue" d="M1240.25,-102.768C1248.93,-102.768 1257.78,-102.768 1266.47,-102.768"/>
<polygon fill="midnightblue" stroke="midnightblue" points="1240.17,-99.268 1230.17,-102.768 1240.17,-106.268 1240.17,-99.268"/>
</g>
<!-- Node13&#45;&gt;Node8 -->
<g id="edge17" class="edge"><title>Node13&#45;&gt;Node8</title>
<path fill="none" stroke="midnightblue" d="M1229.79,-71.6278C1255.94,-78.9502 1285.15,-87.1286 1307.06,-93.266"/>
<polygon fill="midnightblue" stroke="midnightblue" points="1230.51,-68.1954 1219.93,-68.8694 1228.62,-74.9361 1230.51,-68.1954"/>
</g>
<!-- Node15 -->
<g id="node15" class="node"><title>Node15</title>
<g id="a_node15"><a xlink:href="classx265_1_1Analysis.html#a88ad2880a5a8bcad5cfd5d6ea630b265" target="_top" xlink:title="x265::Analysis::encodeResidue">
<polygon fill="white" stroke="black" points="572.5,-39.2679 572.5,-58.2679 727.5,-58.2679 727.5,-39.2679 572.5,-39.2679"/>
<text text-anchor="middle" x="650" y="-46.2679" font-family="Helvetica,sans-Serif" font-size="10.00">x265::Analysis::encodeResidue</text>
</a>
</g>
</g>
<!-- Node14&#45;&gt;Node15 -->
<g id="edge21" class="edge"><title>Node14&#45;&gt;Node15</title>
<path fill="none" stroke="midnightblue" d="M523.662,-80.2632C553.118,-72.8614 586.274,-64.5299 611.083,-58.2959"/>
<polygon fill="midnightblue" stroke="midnightblue" points="522.677,-76.9017 513.832,-82.7333 524.383,-83.6907 522.677,-76.9017"/>
</g>
<!-- Node16 -->
<g id="node16" class="node"><title>Node16</title>
<g id="a_node16"><a xlink:href="classx265_1_1Search.html#a5284cffef18fe6884b268ea28f21f22f" target="_top" xlink:title="x265::Search::generateCoeff\lRecon">
<polygon fill="white" stroke="black" points="579,-82.7679 579,-112.768 721,-112.768 721,-82.7679 579,-82.7679"/>
<text text-anchor="start" x="587" y="-100.768" font-family="Helvetica,sans-Serif" font-size="10.00">x265::Search::generateCoeff</text>
<text text-anchor="middle" x="650" y="-89.7679" font-family="Helvetica,sans-Serif" font-size="10.00">Recon</text>
</a>
</g>
</g>
<!-- Node14&#45;&gt;Node16 -->
<g id="edge23" class="edge"><title>Node14&#45;&gt;Node16</title>
<path fill="none" stroke="midnightblue" d="M536.744,-97.7679C550.785,-97.7679 565.244,-97.7679 578.919,-97.7679"/>
<polygon fill="midnightblue" stroke="midnightblue" points="536.611,-94.268 526.611,-97.7679 536.611,-101.268 536.611,-94.268"/>
</g>
<!-- Node15&#45;&gt;Node8 -->
<g id="edge22" class="edge"><title>Node15&#45;&gt;Node8</title>
<path fill="none" stroke="midnightblue" d="M698.52,-36.9996C799.162,-14.2435 1040.14,28.7171 1230,-28.7679 1272.12,-41.52 1312.86,-76.1055 1331.07,-93.0911"/>
<polygon fill="midnightblue" stroke="midnightblue" points="697.617,-33.6159 688.655,-39.2678 699.185,-40.4379 697.617,-33.6159"/>
</g>
<!-- Node16&#45;&gt;Node9 -->
<g id="edge24" class="edge"><title>Node16&#45;&gt;Node9</title>
<path fill="none" stroke="midnightblue" d="M720.625,-115.044C734.914,-118.235 749.898,-121.326 764,-123.768 881.295,-144.078 1020.36,-149.748 1099.78,-151.274"/>
<polygon fill="midnightblue" stroke="midnightblue" points="721.39,-111.629 710.863,-112.826 719.839,-118.455 721.39,-111.629"/>
</g>
<!-- Node17&#45;&gt;Node15 -->
<g id="edge26" class="edge"><title>Node17&#45;&gt;Node15</title>
<path fill="none" stroke="midnightblue" d="M530.406,-48.7679C544.165,-48.7679 558.513,-48.7679 572.281,-48.7679"/>
<polygon fill="midnightblue" stroke="midnightblue" points="530.018,-45.268 520.018,-48.7679 530.018,-52.268 530.018,-45.268"/>
</g>
<!-- Node17&#45;&gt;Node16 -->
<g id="edge27" class="edge"><title>Node17&#45;&gt;Node16</title>
<path fill="none" stroke="midnightblue" d="M523.551,-66.2447C545.043,-71.6454 568.515,-77.5435 589.282,-82.7618"/>
<polygon fill="midnightblue" stroke="midnightblue" points="524.383,-62.8452 513.832,-63.8026 522.677,-69.6342 524.383,-62.8452"/>
</g>
</g>
</svg>
