<?xml version="1.0" encoding="UTF-8" standalone="no"?>
<!DOCTYPE svg PUBLIC "-//W3C//DTD SVG 1.1//EN"
 "http://www.w3.org/Graphics/SVG/1.1/DTD/svg11.dtd">
<!-- Generated by graphviz version 2.36.0 (20140111.2315)
 -->
<!-- Title: x265::Entropy::codeVUI Pages: 1 -->
<!--zoomable 136 -->
<svg id="main" version="1.1" xmlns="http://www.w3.org/2000/svg" xmlns:xlink="http://www.w3.org/1999/xlink" xml:space="preserve" onload="init(evt)">
<style type="text/css"><![CDATA[
.edge:hover path { stroke: red; }
.edge:hover polygon { stroke: red; fill: red; }
]]></style>
<script type="text/javascript"><![CDATA[
var edges = document.getElementsByTagName('g');
if (edges && edges.length) {
  for (var i=0;i<edges.length;i++) {
    if (edges[i].id.substr(0,4)=='edge') {
      edges[i].setAttribute('class','edge');
    }
  }
}
]]></script>
        <defs>
                <circle id="rim" cx="0" cy="0" r="7"/>
                <circle id="rim2" cx="0" cy="0" r="3.5"/>
                <g id="zoomPlus">
                        <use xlink:href="#rim" fill="#404040">
                                <set attributeName="fill" to="#808080" begin="zoomplus.mouseover" end="zoomplus.mouseout"/>
                        </use>
                        <path d="M-4,0h8M0,-4v8" fill="none" stroke="white" stroke-width="1.5" pointer-events="none"/>
                </g>
                <g id="zoomMin">
                        <use xlink:href="#rim" fill="#404040">
                                <set attributeName="fill" to="#808080" begin="zoomminus.mouseover" end="zoomminus.mouseout"/>
                        </use>
                        <path d="M-4,0h8" fill="none" stroke="white" stroke-width="1.5" pointer-events="none"/>
                </g>
                <g id="dirArrow">
                        <path fill="none" stroke="white" stroke-width="1.5" d="M0,-3.0v7 M-2.5,-0.5L0,-3.0L2.5,-0.5"/>
                </g>
               <g id="resetDef">
                       <use xlink:href="#rim2" fill="#404040">
                               <set attributeName="fill" to="#808080" begin="reset.mouseover" end="reset.mouseout"/>
                       </use>
               </g>
        </defs>

<script type="text/javascript">
var viewWidth = 814;
var viewHeight = 136;
var sectionId = 'dynsection-85';
</script>
<script xlink:href="svgpan.js"/>
<svg id="graph" class="graph">
<g id="viewport">
<title>x265::Entropy::codeVUI</title>
<polygon fill="white" stroke="none" points="-4,4 -4,-132 810,-132 810,4 -4,4"/>
<!-- Node1 -->
<g id="node1" class="node"><title>Node1</title>
<polygon fill="#bfbfbf" stroke="black" points="0,-54.5 0,-73.5 122,-73.5 122,-54.5 0,-54.5"/>
<text text-anchor="middle" x="61" y="-61.5" font-family="Helvetica,sans-Serif" font-size="10.00">x265::Entropy::codeVUI</text>
</g>
<!-- Node2 -->
<g id="node2" class="node"><title>Node2</title>
<g id="a_node2"><a xlink:href="classx265_1_1SyntaxElementWriter.html#a2d204a2fc0b37616f9a614bf037a3dd6" target="_top" xlink:title="x265::SyntaxElementWriter\l::WRITE_FLAG">
<polygon fill="white" stroke="black" points="364.5,-98 364.5,-128 501.5,-128 501.5,-98 364.5,-98"/>
<text text-anchor="start" x="372.5" y="-116" font-family="Helvetica,sans-Serif" font-size="10.00">x265::SyntaxElementWriter</text>
<text text-anchor="middle" x="433" y="-105" font-family="Helvetica,sans-Serif" font-size="10.00">::WRITE_FLAG</text>
</a>
</g>
</g>
<!-- Node1&#45;&gt;Node2 -->
<g id="edge1" class="edge"><title>Node1&#45;&gt;Node2</title>
<path fill="none" stroke="midnightblue" d="M80.5378,-73.5188C99.4561,-82.7035 129.941,-96.063 158,-102 223.113,-115.778 298.822,-117.788 354.136,-116.774"/>
<polygon fill="midnightblue" stroke="midnightblue" points="354.299,-120.272 364.22,-116.552 354.145,-113.273 354.299,-120.272"/>
</g>
<!-- Node5 -->
<g id="node5" class="node"><title>Node5</title>
<g id="a_node5"><a xlink:href="classx265_1_1SyntaxElementWriter.html#a0bb88c348aa279a7ff17909fbe9afcb7" target="_top" xlink:title="x265::SyntaxElementWriter\l::WRITE_CODE">
<polygon fill="white" stroke="black" points="364.5,-49 364.5,-79 501.5,-79 501.5,-49 364.5,-49"/>
<text text-anchor="start" x="372.5" y="-67" font-family="Helvetica,sans-Serif" font-size="10.00">x265::SyntaxElementWriter</text>
<text text-anchor="middle" x="433" y="-56" font-family="Helvetica,sans-Serif" font-size="10.00">::WRITE_CODE</text>
</a>
</g>
</g>
<!-- Node1&#45;&gt;Node5 -->
<g id="edge4" class="edge"><title>Node1&#45;&gt;Node5</title>
<path fill="none" stroke="midnightblue" d="M122.27,-64C185.377,-64 284.729,-64 353.83,-64"/>
<polygon fill="midnightblue" stroke="midnightblue" points="354.224,-67.5001 364.224,-64 354.224,-60.5001 354.224,-67.5001"/>
</g>
<!-- Node7 -->
<g id="node7" class="node"><title>Node7</title>
<g id="a_node7"><a xlink:href="classx265_1_1SyntaxElementWriter.html#a44c3a048bbeb0eb105c37cfc17b40864" target="_top" xlink:title="x265::SyntaxElementWriter\l::WRITE_UVLC">
<polygon fill="white" stroke="black" points="364.5,-0 364.5,-30 501.5,-30 501.5,-0 364.5,-0"/>
<text text-anchor="start" x="372.5" y="-18" font-family="Helvetica,sans-Serif" font-size="10.00">x265::SyntaxElementWriter</text>
<text text-anchor="middle" x="433" y="-7" font-family="Helvetica,sans-Serif" font-size="10.00">::WRITE_UVLC</text>
</a>
</g>
</g>
<!-- Node1&#45;&gt;Node7 -->
<g id="edge7" class="edge"><title>Node1&#45;&gt;Node7</title>
<path fill="none" stroke="midnightblue" d="M122.27,-56.0182C185.507,-47.6437 285.138,-34.4493 354.255,-25.2959"/>
<polygon fill="midnightblue" stroke="midnightblue" points="354.77,-28.7584 364.224,-23.9758 353.851,-21.819 354.77,-28.7584"/>
</g>
<!-- Node9 -->
<g id="node9" class="node"><title>Node9</title>
<g id="a_node9"><a xlink:href="classx265_1_1Entropy.html#af169c08900b0468bbbbc3117d2b47e04" target="_top" xlink:title="x265::Entropy::codeHrdParameters">
<polygon fill="white" stroke="black" points="158,-73.5 158,-92.5 328,-92.5 328,-73.5 158,-73.5"/>
<text text-anchor="middle" x="243" y="-80.5" font-family="Helvetica,sans-Serif" font-size="10.00">x265::Entropy::codeHrdParameters</text>
</a>
</g>
</g>
<!-- Node1&#45;&gt;Node9 -->
<g id="edge10" class="edge"><title>Node1&#45;&gt;Node9</title>
<path fill="none" stroke="midnightblue" d="M122.188,-70.3531C130.415,-71.2216 139.017,-72.1296 147.672,-73.0432"/>
<polygon fill="midnightblue" stroke="midnightblue" points="147.526,-76.5471 157.838,-74.1163 148.261,-69.5858 147.526,-76.5471"/>
</g>
<!-- Node3 -->
<g id="node3" class="node"><title>Node3</title>
<g id="a_node3"><a xlink:href="classx265_1_1SyntaxElementWriter.html#a3bfaf3088405d61eeba90f10c0a17afc" target="_top" xlink:title="x265::SyntaxElementWriter\l::writeFlag">
<polygon fill="white" stroke="black" points="538.5,-98 538.5,-128 675.5,-128 675.5,-98 538.5,-98"/>
<text text-anchor="start" x="546.5" y="-116" font-family="Helvetica,sans-Serif" font-size="10.00">x265::SyntaxElementWriter</text>
<text text-anchor="middle" x="607" y="-105" font-family="Helvetica,sans-Serif" font-size="10.00">::writeFlag</text>
</a>
</g>
</g>
<!-- Node2&#45;&gt;Node3 -->
<g id="edge2" class="edge"><title>Node2&#45;&gt;Node3</title>
<path fill="none" stroke="midnightblue" d="M501.979,-113C510.55,-113 519.372,-113 528.082,-113"/>
<polygon fill="midnightblue" stroke="midnightblue" points="528.233,-116.5 538.233,-113 528.233,-109.5 528.233,-116.5"/>
</g>
<!-- Node4 -->
<g id="node4" class="node"><title>Node4</title>
<g id="a_node4"><a xlink:href="classx265_1_1BitInterface.html#a28a79d8b25645cdd59d6ff004d4851dc" target="_top" xlink:title="x265::BitInterface\l::write">
<polygon fill="white" stroke="black" points="712,-49 712,-79 806,-79 806,-49 712,-49"/>
<text text-anchor="start" x="720" y="-67" font-family="Helvetica,sans-Serif" font-size="10.00">x265::BitInterface</text>
<text text-anchor="middle" x="759" y="-56" font-family="Helvetica,sans-Serif" font-size="10.00">::write</text>
</a>
</g>
</g>
<!-- Node3&#45;&gt;Node4 -->
<g id="edge3" class="edge"><title>Node3&#45;&gt;Node4</title>
<path fill="none" stroke="midnightblue" d="M654.229,-97.8986C669.413,-92.9385 686.451,-87.3726 702.264,-82.2071"/>
<polygon fill="midnightblue" stroke="midnightblue" points="703.505,-85.4838 711.924,-79.0516 701.331,-78.8298 703.505,-85.4838"/>
</g>
<!-- Node6 -->
<g id="node6" class="node"><title>Node6</title>
<g id="a_node6"><a xlink:href="classx265_1_1SyntaxElementWriter.html#ae5a4f2eb12b9c33050cd47aafe5d281c" target="_top" xlink:title="x265::SyntaxElementWriter\l::writeCode">
<polygon fill="white" stroke="black" points="538.5,-49 538.5,-79 675.5,-79 675.5,-49 538.5,-49"/>
<text text-anchor="start" x="546.5" y="-67" font-family="Helvetica,sans-Serif" font-size="10.00">x265::SyntaxElementWriter</text>
<text text-anchor="middle" x="607" y="-56" font-family="Helvetica,sans-Serif" font-size="10.00">::writeCode</text>
</a>
</g>
</g>
<!-- Node5&#45;&gt;Node6 -->
<g id="edge5" class="edge"><title>Node5&#45;&gt;Node6</title>
<path fill="none" stroke="midnightblue" d="M501.979,-64C510.55,-64 519.372,-64 528.082,-64"/>
<polygon fill="midnightblue" stroke="midnightblue" points="528.233,-67.5001 538.233,-64 528.233,-60.5001 528.233,-67.5001"/>
</g>
<!-- Node6&#45;&gt;Node4 -->
<g id="edge6" class="edge"><title>Node6&#45;&gt;Node4</title>
<path fill="none" stroke="midnightblue" d="M675.54,-64C684.275,-64 693.146,-64 701.673,-64"/>
<polygon fill="midnightblue" stroke="midnightblue" points="701.872,-67.5001 711.872,-64 701.872,-60.5001 701.872,-67.5001"/>
</g>
<!-- Node8 -->
<g id="node8" class="node"><title>Node8</title>
<g id="a_node8"><a xlink:href="classx265_1_1SyntaxElementWriter.html#af0151cc567598deee8f51decf2ab915d" target="_top" xlink:title="x265::SyntaxElementWriter\l::writeUvlc">
<polygon fill="white" stroke="black" points="538.5,-0 538.5,-30 675.5,-30 675.5,-0 538.5,-0"/>
<text text-anchor="start" x="546.5" y="-18" font-family="Helvetica,sans-Serif" font-size="10.00">x265::SyntaxElementWriter</text>
<text text-anchor="middle" x="607" y="-7" font-family="Helvetica,sans-Serif" font-size="10.00">::writeUvlc</text>
</a>
</g>
</g>
<!-- Node7&#45;&gt;Node8 -->
<g id="edge8" class="edge"><title>Node7&#45;&gt;Node8</title>
<path fill="none" stroke="midnightblue" d="M501.979,-15C510.55,-15 519.372,-15 528.082,-15"/>
<polygon fill="midnightblue" stroke="midnightblue" points="528.233,-18.5001 538.233,-15 528.233,-11.5001 528.233,-18.5001"/>
</g>
<!-- Node8&#45;&gt;Node4 -->
<g id="edge9" class="edge"><title>Node8&#45;&gt;Node4</title>
<path fill="none" stroke="midnightblue" d="M654.229,-30.1014C669.413,-35.0615 686.451,-40.6274 702.264,-45.7929"/>
<polygon fill="midnightblue" stroke="midnightblue" points="701.331,-49.1702 711.924,-48.9484 703.505,-42.5162 701.331,-49.1702"/>
</g>
<!-- Node9&#45;&gt;Node2 -->
<g id="edge11" class="edge"><title>Node9&#45;&gt;Node2</title>
<path fill="none" stroke="midnightblue" d="M303.743,-92.5334C319.681,-95.0767 337.14,-97.8628 353.905,-100.538"/>
<polygon fill="midnightblue" stroke="midnightblue" points="353.807,-104.067 364.234,-102.186 354.911,-97.1541 353.807,-104.067"/>
</g>
<!-- Node9&#45;&gt;Node5 -->
<g id="edge12" class="edge"><title>Node9&#45;&gt;Node5</title>
<path fill="none" stroke="midnightblue" d="M328.102,-74.5003C336.816,-73.6197 345.644,-72.7275 354.283,-71.8544"/>
<polygon fill="midnightblue" stroke="midnightblue" points="354.721,-75.328 364.319,-70.8401 354.017,-68.3635 354.721,-75.328"/>
</g>
<!-- Node9&#45;&gt;Node7 -->
<g id="edge13" class="edge"><title>Node9&#45;&gt;Node7</title>
<path fill="none" stroke="midnightblue" d="M270.537,-73.4015C299.032,-63.0947 345.009,-46.4648 380.627,-33.5817"/>
<polygon fill="midnightblue" stroke="midnightblue" points="382.162,-36.7486 390.375,-30.0558 379.781,-30.1659 382.162,-36.7486"/>
</g>
</g>
</svg>
        <g id="navigator" transform="translate(0 0)" fill="#404254">
                <rect fill="#f2f5e9" fill-opacity="0.5" stroke="#606060" stroke-width=".5" x="0" y="0" width="60" height="60"/>
                <use id="zoomplus" xlink:href="#zoomPlus" x="17" y="9" onmousedown="handleZoom(evt,'in')"/>
                <use id="zoomminus" xlink:href="#zoomMin" x="42" y="9" onmousedown="handleZoom(evt,'out')"/>
                <use id="reset" xlink:href="#resetDef" x="30" y="36" onmousedown="handleReset()"/>
                <g id="arrowUp" xlink:href="#dirArrow" transform="translate(30 24)" onmousedown="handlePan(0,-1)">
                  <use xlink:href="#rim" fill="#404040">
                        <set attributeName="fill" to="#808080" begin="arrowUp.mouseover" end="arrowUp.mouseout"/>
                  </use>
                  <path fill="none" stroke="white" stroke-width="1.5" d="M0,-3.0v7 M-2.5,-0.5L0,-3.0L2.5,-0.5"/>
                </g>
                <g id="arrowRight" xlink:href="#dirArrow" transform="rotate(90) translate(36 -43)" onmousedown="handlePan(1,0)">
                  <use xlink:href="#rim" fill="#404040">
                        <set attributeName="fill" to="#808080" begin="arrowRight.mouseover" end="arrowRight.mouseout"/>
                  </use>
                  <path fill="none" stroke="white" stroke-width="1.5" d="M0,-3.0v7 M-2.5,-0.5L0,-3.0L2.5,-0.5"/>
                </g>
                <g id="arrowDown" xlink:href="#dirArrow" transform="rotate(180) translate(-30 -48)" onmousedown="handlePan(0,1)">
                  <use xlink:href="#rim" fill="#404040">
                        <set attributeName="fill" to="#808080" begin="arrowDown.mouseover" end="arrowDown.mouseout"/>
                  </use>
                  <path fill="none" stroke="white" stroke-width="1.5" d="M0,-3.0v7 M-2.5,-0.5L0,-3.0L2.5,-0.5"/>
                </g>
                <g id="arrowLeft" xlink:href="#dirArrow" transform="rotate(270) translate(-36 17)" onmousedown="handlePan(-1,0)">
                  <use xlink:href="#rim" fill="#404040">
                        <set attributeName="fill" to="#808080" begin="arrowLeft.mouseover" end="arrowLeft.mouseout"/>
                  </use>
                  <path fill="none" stroke="white" stroke-width="1.5" d="M0,-3.0v7 M-2.5,-0.5L0,-3.0L2.5,-0.5"/>
                </g>
        </g>
        <svg viewBox="0 0 15 15" width="100%" height="30px" preserveAspectRatio="xMaxYMin meet">
         <g id="arrow_out" transform="scale(0.3 0.3)">
          <a xlink:href="classx265_1_1Entropy_aa0e5f1f35159ef51d0c231a231fa66b1_cgraph_org.svg" target="_base">
           <rect id="button" ry="5" rx="5" y="6" x="6" height="38" width="38"
                fill="#f2f5e9" fill-opacity="0.5" stroke="#606060" stroke-width="1.0"/>
           <path id="arrow"
             d="M 11.500037,31.436501 C 11.940474,20.09759 22.043105,11.32322 32.158766,21.979434 L 37.068811,17.246167 C 37.068811,17.246167 37.088388,32 37.088388,32 L 22.160133,31.978069 C 22.160133,31.978069 26.997745,27.140456 26.997745,27.140456 C 18.528582,18.264221 13.291696,25.230495 11.500037,31.436501 z"
             style="fill:#404040;"/>
          </a>
         </g>
        </svg>
</svg>
