<?xml version="1.0" encoding="UTF-8" standalone="no"?>
<!DOCTYPE svg PUBLIC "-//W3C//DTD SVG 1.1//EN"
 "http://www.w3.org/Graphics/SVG/1.1/DTD/svg11.dtd">
<!-- Generated by graphviz version 2.36.0 (20140111.2315)
 -->
<!-- Title: x265::Predict::isLeftAvailable Pages: 1 -->
<svg width="2198pt" height="388pt"
 viewBox="0.00 0.00 2198.00 388.15" xmlns="http://www.w3.org/2000/svg" xmlns:xlink="http://www.w3.org/1999/xlink">
<g id="graph0" class="graph" transform="scale(1 1) rotate(0) translate(4 384.15)">
<title>x265::Predict::isLeftAvailable</title>
<polygon fill="white" stroke="none" points="-4,4 -4,-384.15 2194,-384.15 2194,4 -4,4"/>
<!-- Node1 -->
<g id="node1" class="node"><title>Node1</title>
<polygon fill="#bfbfbf" stroke="black" points="0,-112.5 0,-131.5 144,-131.5 144,-112.5 0,-112.5"/>
<text text-anchor="middle" x="72" y="-119.5" font-family="Helvetica,sans-Serif" font-size="10.00">x265::Predict::isLeftAvailable</text>
</g>
<!-- Node2 -->
<g id="node2" class="node"><title>Node2</title>
<g id="a_node2"><a xlink:href="classx265_1_1Predict.html#a5cde667623af60ade240748e9818575d" target="_top" xlink:title="x265::Predict::initIntra\lNeighbors">
<polygon fill="white" stroke="black" points="180.5,-107 180.5,-137 293.5,-137 293.5,-107 180.5,-107"/>
<text text-anchor="start" x="188.5" y="-125" font-family="Helvetica,sans-Serif" font-size="10.00">x265::Predict::initIntra</text>
<text text-anchor="middle" x="237" y="-114" font-family="Helvetica,sans-Serif" font-size="10.00">Neighbors</text>
</a>
</g>
</g>
<!-- Node1&#45;&gt;Node2 -->
<g id="edge1" class="edge"><title>Node1&#45;&gt;Node2</title>
<path fill="none" stroke="midnightblue" d="M154.062,-122C162.979,-122 171.903,-122 180.407,-122"/>
<polygon fill="midnightblue" stroke="midnightblue" points="154.02,-118.5 144.02,-122 154.02,-125.5 154.02,-118.5"/>
</g>
<!-- Node3 -->
<g id="node3" class="node"><title>Node3</title>
<g id="a_node3"><a xlink:href="classx265_1_1Predict.html#abb05cb0b8bee26a733e556b3ba9be4e9" target="_top" xlink:title="x265::Predict::initAdiPattern">
<polygon fill="white" stroke="black" points="519.5,-147.5 519.5,-166.5 658.5,-166.5 658.5,-147.5 519.5,-147.5"/>
<text text-anchor="middle" x="589" y="-154.5" font-family="Helvetica,sans-Serif" font-size="10.00">x265::Predict::initAdiPattern</text>
</a>
</g>
</g>
<!-- Node2&#45;&gt;Node3 -->
<g id="edge2" class="edge"><title>Node2&#45;&gt;Node3</title>
<path fill="none" stroke="midnightblue" d="M303.839,-128.584C365.409,-134.741 456.993,-143.899 519.431,-150.143"/>
<polygon fill="midnightblue" stroke="midnightblue" points="304.144,-125.097 293.846,-127.585 303.448,-132.062 304.144,-125.097"/>
</g>
<!-- Node23 -->
<g id="node23" class="node"><title>Node23</title>
<g id="a_node23"><a xlink:href="classx265_1_1Predict.html#adaf25ea2af37db5f3222139d849447a4" target="_top" xlink:title="x265::Predict::initAdiPattern\lChroma">
<polygon fill="white" stroke="black" points="330.5,-79 330.5,-109 469.5,-109 469.5,-79 330.5,-79"/>
<text text-anchor="start" x="338.5" y="-97" font-family="Helvetica,sans-Serif" font-size="10.00">x265::Predict::initAdiPattern</text>
<text text-anchor="middle" x="400" y="-86" font-family="Helvetica,sans-Serif" font-size="10.00">Chroma</text>
</a>
</g>
</g>
<!-- Node2&#45;&gt;Node23 -->
<g id="edge36" class="edge"><title>Node2&#45;&gt;Node23</title>
<path fill="none" stroke="midnightblue" d="M303.98,-110.525C312.717,-109.006 321.689,-107.445 330.468,-105.919"/>
<polygon fill="midnightblue" stroke="midnightblue" points="303.111,-107.124 293.858,-112.286 304.31,-114.02 303.111,-107.124"/>
</g>
<!-- Node4 -->
<g id="node4" class="node"><title>Node4</title>
<g id="a_node4"><a xlink:href="classx265_1_1Analysis.html#a47fe19b013534639df70d2cccc551dca" target="_top" xlink:title="x265::Analysis::checkIntra\lInInter_rd0_4">
<polygon fill="white" stroke="black" points="913.5,-305 913.5,-335 1046.5,-335 1046.5,-305 913.5,-305"/>
<text text-anchor="start" x="921.5" y="-323" font-family="Helvetica,sans-Serif" font-size="10.00">x265::Analysis::checkIntra</text>
<text text-anchor="middle" x="980" y="-312" font-family="Helvetica,sans-Serif" font-size="10.00">InInter_rd0_4</text>
</a>
</g>
</g>
<!-- Node3&#45;&gt;Node4 -->
<g id="edge3" class="edge"><title>Node3&#45;&gt;Node4</title>
<path fill="none" stroke="midnightblue" d="M628.655,-170.588C643.474,-177.179 659.748,-186.254 672,-198 695.838,-220.854 681.436,-243.38 708,-263 767.847,-307.202 854.366,-318.793 913.443,-321.047"/>
<polygon fill="midnightblue" stroke="midnightblue" points="629.76,-167.256 619.184,-166.613 627.051,-173.711 629.76,-167.256"/>
</g>
<!-- Node13 -->
<g id="node13" class="node"><title>Node13</title>
<g id="a_node13"><a xlink:href="classx265_1_1Search.html#a59b84ac1e21c86af579b6e84e43c5b7a" target="_top" xlink:title="x265::Search::codeIntraLumaQT">
<polygon fill="white" stroke="black" points="708,-185.5 708,-204.5 866,-204.5 866,-185.5 708,-185.5"/>
<text text-anchor="middle" x="787" y="-192.5" font-family="Helvetica,sans-Serif" font-size="10.00">x265::Search::codeIntraLumaQT</text>
</a>
</g>
</g>
<!-- Node3&#45;&gt;Node13 -->
<g id="edge14" class="edge"><title>Node3&#45;&gt;Node13</title>
<path fill="none" stroke="midnightblue" d="M649.261,-168.489C677.227,-173.911 710.209,-180.306 736.774,-185.456"/>
<polygon fill="midnightblue" stroke="midnightblue" points="649.689,-165.007 639.206,-166.54 648.357,-171.879 649.689,-165.007"/>
</g>
<!-- Node15 -->
<g id="node15" class="node"><title>Node15</title>
<g id="a_node15"><a xlink:href="classx265_1_1Search.html#a1778d2ab96ac88c7f76d36818d6adbdd" target="_top" xlink:title="x265::Search::estIntraPredQT">
<polygon fill="white" stroke="black" points="906.5,-147.5 906.5,-166.5 1053.5,-166.5 1053.5,-147.5 906.5,-147.5"/>
<text text-anchor="middle" x="980" y="-154.5" font-family="Helvetica,sans-Serif" font-size="10.00">x265::Search::estIntraPredQT</text>
</a>
</g>
</g>
<!-- Node3&#45;&gt;Node15 -->
<g id="edge35" class="edge"><title>Node3&#45;&gt;Node15</title>
<path fill="none" stroke="midnightblue" d="M668.675,-157C738.202,-157 838.787,-157 906.418,-157"/>
<polygon fill="midnightblue" stroke="midnightblue" points="668.65,-153.5 658.65,-157 668.65,-160.5 668.65,-153.5"/>
</g>
<!-- Node20 -->
<g id="node20" class="node"><title>Node20</title>
<g id="a_node20"><a xlink:href="classx265_1_1Search.html#a8179474a0f2f2b7b84da90802f92b06e" target="_top" xlink:title="x265::Search::residualTransform\lQuantIntra">
<polygon fill="white" stroke="black" points="708,-98 708,-128 866,-128 866,-98 708,-98"/>
<text text-anchor="start" x="716" y="-116" font-family="Helvetica,sans-Serif" font-size="10.00">x265::Search::residualTransform</text>
<text text-anchor="middle" x="787" y="-105" font-family="Helvetica,sans-Serif" font-size="10.00">QuantIntra</text>
</a>
</g>
</g>
<!-- Node3&#45;&gt;Node20 -->
<g id="edge30" class="edge"><title>Node3&#45;&gt;Node20</title>
<path fill="none" stroke="midnightblue" d="M642.307,-145.258C665.82,-139.979 693.853,-133.686 718.891,-128.065"/>
<polygon fill="midnightblue" stroke="midnightblue" points="641.52,-141.847 632.529,-147.453 643.053,-148.677 641.52,-141.847"/>
</g>
<!-- Node5 -->
<g id="node5" class="node"><title>Node5</title>
<g id="a_node5"><a xlink:href="classx265_1_1Analysis.html#aa6122285d10bb1bd7584958b88b029d5" target="_top" xlink:title="x265::Analysis::parallel\lModeAnalysis">
<polygon fill="white" stroke="black" points="1098,-322 1098,-352 1216,-352 1216,-322 1098,-322"/>
<text text-anchor="start" x="1106" y="-340" font-family="Helvetica,sans-Serif" font-size="10.00">x265::Analysis::parallel</text>
<text text-anchor="middle" x="1157" y="-329" font-family="Helvetica,sans-Serif" font-size="10.00">ModeAnalysis</text>
</a>
</g>
</g>
<!-- Node4&#45;&gt;Node5 -->
<g id="edge4" class="edge"><title>Node4&#45;&gt;Node5</title>
<path fill="none" stroke="midnightblue" d="M1057.01,-327.383C1070.66,-328.71 1084.69,-330.073 1097.74,-331.341"/>
<polygon fill="midnightblue" stroke="midnightblue" points="1056.95,-323.862 1046.66,-326.379 1056.28,-330.829 1056.95,-323.862"/>
</g>
<!-- Node7 -->
<g id="node7" class="node"><title>Node7</title>
<g id="a_node7"><a xlink:href="classx265_1_1Analysis.html#a87060ff27a37f56adc5f5b8a4c033ece" target="_top" xlink:title="x265::Analysis::compress\lInterCU_dist">
<polygon fill="white" stroke="black" points="1430,-278 1430,-308 1560,-308 1560,-278 1430,-278"/>
<text text-anchor="start" x="1438" y="-296" font-family="Helvetica,sans-Serif" font-size="10.00">x265::Analysis::compress</text>
<text text-anchor="middle" x="1495" y="-285" font-family="Helvetica,sans-Serif" font-size="10.00">InterCU_dist</text>
</a>
</g>
</g>
<!-- Node4&#45;&gt;Node7 -->
<g id="edge11" class="edge"><title>Node4&#45;&gt;Node7</title>
<path fill="none" stroke="midnightblue" d="M1022.54,-339.006C1043.49,-347.568 1069.58,-356.707 1094,-361 1225.37,-384.095 1266.31,-391.547 1394,-353 1425.01,-343.638 1456.32,-322.541 1475.44,-308.035"/>
<polygon fill="midnightblue" stroke="midnightblue" points="1023.87,-335.771 1013.3,-335.132 1021.17,-342.226 1023.87,-335.771"/>
</g>
<!-- Node12 -->
<g id="node12" class="node"><title>Node12</title>
<g id="a_node12"><a xlink:href="classx265_1_1Analysis.html#a30d2ff7eca5addbb0a6b3dfe14f09650" target="_top" xlink:title="x265::Analysis::compress\lInterCU_rd0_4">
<polygon fill="white" stroke="black" points="1430,-169 1430,-199 1560,-199 1560,-169 1430,-169"/>
<text text-anchor="start" x="1438" y="-187" font-family="Helvetica,sans-Serif" font-size="10.00">x265::Analysis::compress</text>
<text text-anchor="middle" x="1495" y="-176" font-family="Helvetica,sans-Serif" font-size="10.00">InterCU_rd0_4</text>
</a>
</g>
</g>
<!-- Node4&#45;&gt;Node12 -->
<g id="edge12" class="edge"><title>Node4&#45;&gt;Node12</title>
<path fill="none" stroke="midnightblue" d="M1056.72,-302.898C1139.89,-283.7 1277.18,-250.791 1394,-217 1412.62,-211.615 1432.96,-205.032 1450.41,-199.166"/>
<polygon fill="midnightblue" stroke="midnightblue" points="1055.81,-299.516 1046.85,-305.171 1057.38,-306.337 1055.81,-299.516"/>
</g>
<!-- Node6 -->
<g id="node6" class="node"><title>Node6</title>
<g id="a_node6"><a xlink:href="classx265_1_1Analysis.html#a29a58dad4cc1c07d2f5e5717c6be7c25" target="_top" xlink:title="x265::Analysis::findJob">
<polygon fill="white" stroke="black" points="1265.5,-324.5 1265.5,-343.5 1384.5,-343.5 1384.5,-324.5 1265.5,-324.5"/>
<text text-anchor="middle" x="1325" y="-331.5" font-family="Helvetica,sans-Serif" font-size="10.00">x265::Analysis::findJob</text>
</a>
</g>
</g>
<!-- Node5&#45;&gt;Node6 -->
<g id="edge5" class="edge"><title>Node5&#45;&gt;Node6</title>
<path fill="none" stroke="midnightblue" d="M1226.33,-335.765C1239.31,-335.531 1252.77,-335.287 1265.41,-335.059"/>
<polygon fill="midnightblue" stroke="midnightblue" points="1225.99,-332.271 1216.06,-335.951 1226.12,-339.269 1225.99,-332.271"/>
</g>
<!-- Node6&#45;&gt;Node7 -->
<g id="edge6" class="edge"><title>Node6&#45;&gt;Node7</title>
<path fill="none" stroke="midnightblue" d="M1374.9,-322.066C1392.81,-317.694 1413.32,-312.689 1432.22,-308.078"/>
<polygon fill="midnightblue" stroke="midnightblue" points="1373.85,-318.72 1364.96,-324.491 1375.51,-325.52 1373.85,-318.72"/>
</g>
<!-- Node8 -->
<g id="node8" class="node"><title>Node8</title>
<g id="a_node8"><a xlink:href="classx265_1_1Analysis.html#aaebc9de2ff98834c650244f3b58942c2" target="_top" xlink:title="x265::Analysis::compressCTU">
<polygon fill="white" stroke="black" points="1596.5,-125.5 1596.5,-144.5 1747.5,-144.5 1747.5,-125.5 1596.5,-125.5"/>
<text text-anchor="middle" x="1672" y="-132.5" font-family="Helvetica,sans-Serif" font-size="10.00">x265::Analysis::compressCTU</text>
</a>
</g>
</g>
<!-- Node7&#45;&gt;Node8 -->
<g id="edge7" class="edge"><title>Node7&#45;&gt;Node8</title>
<path fill="none" stroke="midnightblue" d="M1520.46,-270.919C1559.05,-236.071 1632.54,-169.724 1660.15,-144.794"/>
<polygon fill="midnightblue" stroke="midnightblue" points="1517.86,-268.551 1512.78,-277.85 1522.55,-273.747 1517.86,-268.551"/>
</g>
<!-- Node9 -->
<g id="node9" class="node"><title>Node9</title>
<g id="a_node9"><a xlink:href="classx265_1_1FrameEncoder.html#a0ae85001572afd28238476542523ac5f" target="_top" xlink:title="x265::FrameEncoder\l::processRowEncoder">
<polygon fill="white" stroke="black" points="1784.5,-120 1784.5,-150 1897.5,-150 1897.5,-120 1784.5,-120"/>
<text text-anchor="start" x="1792.5" y="-138" font-family="Helvetica,sans-Serif" font-size="10.00">x265::FrameEncoder</text>
<text text-anchor="middle" x="1841" y="-127" font-family="Helvetica,sans-Serif" font-size="10.00">::processRowEncoder</text>
</a>
</g>
</g>
<!-- Node8&#45;&gt;Node9 -->
<g id="edge8" class="edge"><title>Node8&#45;&gt;Node9</title>
<path fill="none" stroke="midnightblue" d="M1757.86,-135C1766.86,-135 1775.85,-135 1784.39,-135"/>
<polygon fill="midnightblue" stroke="midnightblue" points="1757.71,-131.5 1747.71,-135 1757.71,-138.5 1757.71,-131.5"/>
</g>
<!-- Node10 -->
<g id="node10" class="node"><title>Node10</title>
<g id="a_node10"><a xlink:href="classx265_1_1FrameEncoder.html#acad645a8ece97d884895f8f7366b7d70" target="_top" xlink:title="x265::FrameEncoder\l::processRow">
<polygon fill="white" stroke="black" points="1934.5,-120 1934.5,-150 2041.5,-150 2041.5,-120 1934.5,-120"/>
<text text-anchor="start" x="1942.5" y="-138" font-family="Helvetica,sans-Serif" font-size="10.00">x265::FrameEncoder</text>
<text text-anchor="middle" x="1988" y="-127" font-family="Helvetica,sans-Serif" font-size="10.00">::processRow</text>
</a>
</g>
</g>
<!-- Node9&#45;&gt;Node10 -->
<g id="edge9" class="edge"><title>Node9&#45;&gt;Node10</title>
<path fill="none" stroke="midnightblue" d="M1907.88,-135C1916.67,-135 1925.59,-135 1934.13,-135"/>
<polygon fill="midnightblue" stroke="midnightblue" points="1907.65,-131.5 1897.65,-135 1907.65,-138.5 1907.65,-131.5"/>
</g>
<!-- Node11 -->
<g id="node11" class="node"><title>Node11</title>
<g id="a_node11"><a xlink:href="classx265_1_1FrameEncoder.html#ac4e9ce2e876c0cdb25c992c872fe4302" target="_top" xlink:title="x265::FrameEncoder\l::compressCTURows">
<polygon fill="white" stroke="red" points="2078,-120 2078,-150 2190,-150 2190,-120 2078,-120"/>
<text text-anchor="start" x="2086" y="-138" font-family="Helvetica,sans-Serif" font-size="10.00">x265::FrameEncoder</text>
<text text-anchor="middle" x="2134" y="-127" font-family="Helvetica,sans-Serif" font-size="10.00">::compressCTURows</text>
</a>
</g>
</g>
<!-- Node10&#45;&gt;Node11 -->
<g id="edge10" class="edge"><title>Node10&#45;&gt;Node11</title>
<path fill="none" stroke="midnightblue" d="M2051.83,-135C2060.48,-135 2069.3,-135 2077.79,-135"/>
<polygon fill="midnightblue" stroke="midnightblue" points="2051.8,-131.5 2041.8,-135 2051.8,-138.5 2051.8,-131.5"/>
</g>
<!-- Node12&#45;&gt;Node8 -->
<g id="edge13" class="edge"><title>Node12&#45;&gt;Node8</title>
<path fill="none" stroke="midnightblue" d="M1559.79,-166.14C1585.94,-158.818 1615.15,-150.639 1637.06,-144.502"/>
<polygon fill="midnightblue" stroke="midnightblue" points="1558.62,-162.832 1549.93,-168.899 1560.51,-169.573 1558.62,-162.832"/>
</g>
<!-- Node14 -->
<g id="node14" class="node"><title>Node14</title>
<g id="a_node14"><a xlink:href="classx265_1_1Analysis.html#ae4d61bcf4d2c22a054d68d6d77136428" target="_top" xlink:title="x265::Analysis::encodeIntra\lInInter">
<polygon fill="white" stroke="black" points="911,-224 911,-254 1049,-254 1049,-224 911,-224"/>
<text text-anchor="start" x="919" y="-242" font-family="Helvetica,sans-Serif" font-size="10.00">x265::Analysis::encodeIntra</text>
<text text-anchor="middle" x="980" y="-231" font-family="Helvetica,sans-Serif" font-size="10.00">InInter</text>
</a>
</g>
</g>
<!-- Node13&#45;&gt;Node14 -->
<g id="edge15" class="edge"><title>Node13&#45;&gt;Node14</title>
<path fill="none" stroke="midnightblue" d="M839.28,-206.813C862.129,-212.077 889.313,-218.339 913.603,-223.935"/>
<polygon fill="midnightblue" stroke="midnightblue" points="839.975,-203.382 829.444,-204.547 838.403,-210.203 839.975,-203.382"/>
</g>
<!-- Node13&#45;&gt;Node15 -->
<g id="edge19" class="edge"><title>Node13&#45;&gt;Node15</title>
<path fill="none" stroke="midnightblue" d="M846.353,-183.39C873.518,-177.986 905.432,-171.636 931.149,-166.52"/>
<polygon fill="midnightblue" stroke="midnightblue" points="845.322,-180.027 836.197,-185.411 846.688,-186.892 845.322,-180.027"/>
</g>
<!-- Node14&#45;&gt;Node5 -->
<g id="edge16" class="edge"><title>Node14&#45;&gt;Node5</title>
<path fill="none" stroke="midnightblue" d="M1013.62,-259.706C1035.94,-273.612 1066.39,-292.054 1094,-307 1103.46,-312.124 1113.94,-317.352 1123.54,-321.979"/>
<polygon fill="midnightblue" stroke="midnightblue" points="1015.21,-256.576 1004.88,-254.238 1011.5,-262.51 1015.21,-256.576"/>
</g>
<!-- Node14&#45;&gt;Node7 -->
<g id="edge17" class="edge"><title>Node14&#45;&gt;Node7</title>
<path fill="none" stroke="midnightblue" d="M1059.3,-247.243C1160.71,-257.917 1335.57,-276.323 1429.64,-286.226"/>
<polygon fill="midnightblue" stroke="midnightblue" points="1059.43,-243.737 1049.12,-246.171 1058.7,-250.698 1059.43,-243.737"/>
</g>
<!-- Node14&#45;&gt;Node12 -->
<g id="edge18" class="edge"><title>Node14&#45;&gt;Node12</title>
<path fill="none" stroke="midnightblue" d="M1059.3,-230.605C1160.71,-219.733 1335.57,-200.986 1429.64,-190.9"/>
<polygon fill="midnightblue" stroke="midnightblue" points="1058.69,-227.15 1049.12,-231.696 1059.44,-234.11 1058.69,-227.15"/>
</g>
<!-- Node16 -->
<g id="node16" class="node"><title>Node16</title>
<g id="a_node16"><a xlink:href="classx265_1_1Search.html#ab02df91827cf67796d1605bde60c6aed" target="_top" xlink:title="x265::Search::checkIntra">
<polygon fill="white" stroke="black" points="1094,-131.5 1094,-150.5 1220,-150.5 1220,-131.5 1094,-131.5"/>
<text text-anchor="middle" x="1157" y="-138.5" font-family="Helvetica,sans-Serif" font-size="10.00">x265::Search::checkIntra</text>
</a>
</g>
</g>
<!-- Node15&#45;&gt;Node16 -->
<g id="edge20" class="edge"><title>Node15&#45;&gt;Node16</title>
<path fill="none" stroke="midnightblue" d="M1063.77,-149.433C1073.88,-148.508 1084.09,-147.575 1093.83,-146.684"/>
<polygon fill="midnightblue" stroke="midnightblue" points="1063.34,-145.958 1053.7,-150.354 1063.97,-152.928 1063.34,-145.958"/>
</g>
<!-- Node17 -->
<g id="node17" class="node"><title>Node17</title>
<g id="a_node17"><a xlink:href="classx265_1_1Analysis.html#a10f0a8d9d143faf8dc671c6f0982693d" target="_top" xlink:title="x265::Analysis::tryLossless">
<polygon fill="white" stroke="black" points="1256.5,-131.5 1256.5,-150.5 1393.5,-150.5 1393.5,-131.5 1256.5,-131.5"/>
<text text-anchor="middle" x="1325" y="-138.5" font-family="Helvetica,sans-Serif" font-size="10.00">x265::Analysis::tryLossless</text>
</a>
</g>
</g>
<!-- Node16&#45;&gt;Node17 -->
<g id="edge21" class="edge"><title>Node16&#45;&gt;Node17</title>
<path fill="none" stroke="midnightblue" d="M1230.34,-141C1238.98,-141 1247.79,-141 1256.36,-141"/>
<polygon fill="midnightblue" stroke="midnightblue" points="1230.28,-137.5 1220.28,-141 1230.28,-144.5 1230.28,-137.5"/>
</g>
<!-- Node18 -->
<g id="node18" class="node"><title>Node18</title>
<g id="a_node18"><a xlink:href="classx265_1_1Analysis.html#aae2a6a2252270782b591d2bed7e99dae" target="_top" xlink:title="x265::Analysis::compress\lIntraCU">
<polygon fill="white" stroke="black" points="1430,-71 1430,-101 1560,-101 1560,-71 1430,-71"/>
<text text-anchor="start" x="1438" y="-89" font-family="Helvetica,sans-Serif" font-size="10.00">x265::Analysis::compress</text>
<text text-anchor="middle" x="1495" y="-78" font-family="Helvetica,sans-Serif" font-size="10.00">IntraCU</text>
</a>
</g>
</g>
<!-- Node16&#45;&gt;Node18 -->
<g id="edge28" class="edge"><title>Node16&#45;&gt;Node18</title>
<path fill="none" stroke="midnightblue" d="M1199.35,-128.673C1216.72,-123.85 1237.22,-118.618 1256,-115 1314.45,-103.741 1381.86,-96.012 1429.99,-91.382"/>
<polygon fill="midnightblue" stroke="midnightblue" points="1198.19,-125.363 1189.52,-131.45 1200.1,-132.099 1198.19,-125.363"/>
</g>
<!-- Node19 -->
<g id="node19" class="node"><title>Node19</title>
<g id="a_node19"><a xlink:href="classx265_1_1Analysis.html#a0b22b7765aa4a36b1ba6d07ba26901e6" target="_top" xlink:title="x265::Analysis::compress\lInterCU_rd5_6">
<polygon fill="white" stroke="black" points="1430,-120 1430,-150 1560,-150 1560,-120 1430,-120"/>
<text text-anchor="start" x="1438" y="-138" font-family="Helvetica,sans-Serif" font-size="10.00">x265::Analysis::compress</text>
<text text-anchor="middle" x="1495" y="-127" font-family="Helvetica,sans-Serif" font-size="10.00">InterCU_rd5_6</text>
</a>
</g>
</g>
<!-- Node16&#45;&gt;Node19 -->
<g id="edge29" class="edge"><title>Node16&#45;&gt;Node19</title>
<path fill="none" stroke="midnightblue" d="M1207.65,-129.462C1223.05,-126.399 1240.15,-123.522 1256,-122 1317.05,-116.136 1332.79,-118.038 1394,-122 1405.62,-122.752 1417.95,-123.991 1429.84,-125.412"/>
<polygon fill="midnightblue" stroke="midnightblue" points="1206.89,-126.045 1197.8,-131.49 1208.3,-132.902 1206.89,-126.045"/>
</g>
<!-- Node17&#45;&gt;Node7 -->
<g id="edge24" class="edge"><title>Node17&#45;&gt;Node7</title>
<path fill="none" stroke="midnightblue" d="M1344.01,-157.293C1376.73,-186.903 1445.51,-249.127 1477.27,-277.863"/>
<polygon fill="midnightblue" stroke="midnightblue" points="1346.27,-154.622 1336.51,-150.508 1341.58,-159.813 1346.27,-154.622"/>
</g>
<!-- Node17&#45;&gt;Node12 -->
<g id="edge25" class="edge"><title>Node17&#45;&gt;Node12</title>
<path fill="none" stroke="midnightblue" d="M1373.07,-153.047C1392.4,-157.994 1414.98,-163.776 1435.37,-168.994"/>
<polygon fill="midnightblue" stroke="midnightblue" points="1373.84,-149.632 1363.28,-150.543 1372.1,-156.413 1373.84,-149.632"/>
</g>
<!-- Node17&#45;&gt;Node18 -->
<g id="edge22" class="edge"><title>Node17&#45;&gt;Node18</title>
<path fill="none" stroke="midnightblue" d="M1365.04,-128.218C1389.81,-120.109 1421.97,-109.58 1447.98,-101.065"/>
<polygon fill="midnightblue" stroke="midnightblue" points="1363.68,-124.982 1355.26,-131.42 1365.86,-131.635 1363.68,-124.982"/>
</g>
<!-- Node17&#45;&gt;Node19 -->
<g id="edge26" class="edge"><title>Node17&#45;&gt;Node19</title>
<path fill="none" stroke="midnightblue" d="M1404,-138.214C1412.7,-137.904 1421.48,-137.59 1429.98,-137.286"/>
<polygon fill="midnightblue" stroke="midnightblue" points="1403.72,-134.722 1393.85,-138.577 1403.97,-141.718 1403.72,-134.722"/>
</g>
<!-- Node18&#45;&gt;Node8 -->
<g id="edge23" class="edge"><title>Node18&#45;&gt;Node8</title>
<path fill="none" stroke="midnightblue" d="M1559.79,-103.86C1585.94,-111.182 1615.15,-119.361 1637.06,-125.498"/>
<polygon fill="midnightblue" stroke="midnightblue" points="1560.51,-100.427 1549.93,-101.101 1558.62,-107.168 1560.51,-100.427"/>
</g>
<!-- Node19&#45;&gt;Node8 -->
<g id="edge27" class="edge"><title>Node19&#45;&gt;Node8</title>
<path fill="none" stroke="midnightblue" d="M1570.25,-135C1578.93,-135 1587.78,-135 1596.47,-135"/>
<polygon fill="midnightblue" stroke="midnightblue" points="1570.17,-131.5 1560.17,-135 1570.17,-138.5 1570.17,-131.5"/>
</g>
<!-- Node21 -->
<g id="node21" class="node"><title>Node21</title>
<g id="a_node21"><a xlink:href="classx265_1_1Analysis.html#a88ad2880a5a8bcad5cfd5d6ea630b265" target="_top" xlink:title="x265::Analysis::encodeResidue">
<polygon fill="white" stroke="black" points="902.5,-27.5 902.5,-46.5 1057.5,-46.5 1057.5,-27.5 902.5,-27.5"/>
<text text-anchor="middle" x="980" y="-34.5" font-family="Helvetica,sans-Serif" font-size="10.00">x265::Analysis::encodeResidue</text>
</a>
</g>
</g>
<!-- Node20&#45;&gt;Node21 -->
<g id="edge31" class="edge"><title>Node20&#45;&gt;Node21</title>
<path fill="none" stroke="midnightblue" d="M851.357,-94.3597C856.379,-92.3796 861.316,-90.2572 866,-88 883.323,-79.6516 884.792,-72.5822 902,-64 915.945,-57.0454 932.122,-51.0824 946.039,-46.5428"/>
<polygon fill="midnightblue" stroke="midnightblue" points="849.781,-91.2121 841.638,-97.9901 852.231,-97.7696 849.781,-91.2121"/>
</g>
<!-- Node22 -->
<g id="node22" class="node"><title>Node22</title>
<g id="a_node22"><a xlink:href="classx265_1_1Search.html#a5284cffef18fe6884b268ea28f21f22f" target="_top" xlink:title="x265::Search::generateCoeff\lRecon">
<polygon fill="white" stroke="black" points="909,-74 909,-104 1051,-104 1051,-74 909,-74"/>
<text text-anchor="start" x="917" y="-92" font-family="Helvetica,sans-Serif" font-size="10.00">x265::Search::generateCoeff</text>
<text text-anchor="middle" x="980" y="-81" font-family="Helvetica,sans-Serif" font-size="10.00">Recon</text>
</a>
</g>
</g>
<!-- Node20&#45;&gt;Node22 -->
<g id="edge33" class="edge"><title>Node20&#45;&gt;Node22</title>
<path fill="none" stroke="midnightblue" d="M876.231,-101.913C887.17,-100.539 898.236,-99.1483 908.852,-97.8144"/>
<polygon fill="midnightblue" stroke="midnightblue" points="875.724,-98.4495 866.238,-103.169 876.596,-105.395 875.724,-98.4495"/>
</g>
<!-- Node21&#45;&gt;Node8 -->
<g id="edge32" class="edge"><title>Node21&#45;&gt;Node8</title>
<path fill="none" stroke="midnightblue" d="M1066.56,-26.4513C1181.82,-15.368 1391.92,-6.28353 1560,-61 1601.84,-74.6216 1642.72,-108.786 1661.01,-125.497"/>
<polygon fill="midnightblue" stroke="midnightblue" points="1065.99,-22.9902 1056.38,-27.4585 1066.68,-29.9562 1065.99,-22.9902"/>
</g>
<!-- Node22&#45;&gt;Node12 -->
<g id="edge34" class="edge"><title>Node22&#45;&gt;Node12</title>
<path fill="none" stroke="midnightblue" d="M1013.37,-109.609C1045.96,-130.314 1091.74,-159.274 1094,-160 1207.94,-196.555 1349.34,-194.823 1429.87,-189.751"/>
<polygon fill="midnightblue" stroke="midnightblue" points="1014.9,-106.43 1004.58,-104.019 1011.14,-112.337 1014.9,-106.43"/>
</g>
<!-- Node24 -->
<g id="node24" class="node"><title>Node24</title>
<g id="a_node24"><a xlink:href="classx265_1_1Search.html#a0ec5d297bb4eba4e9445ff67b35b95fa" target="_top" xlink:title="x265::Search::codeIntraChromaQt">
<polygon fill="white" stroke="black" points="506,-207.5 506,-226.5 672,-226.5 672,-207.5 506,-207.5"/>
<text text-anchor="middle" x="589" y="-214.5" font-family="Helvetica,sans-Serif" font-size="10.00">x265::Search::codeIntraChromaQt</text>
</a>
</g>
</g>
<!-- Node23&#45;&gt;Node24 -->
<g id="edge37" class="edge"><title>Node23&#45;&gt;Node24</title>
<path fill="none" stroke="midnightblue" d="M425.712,-115.598C446.357,-133.066 476.997,-157.682 506,-176 525.378,-188.239 548.901,-199.682 565.775,-207.352"/>
<polygon fill="midnightblue" stroke="midnightblue" points="427.923,-112.884 418.046,-109.051 423.377,-118.207 427.923,-112.884"/>
</g>
<!-- Node26 -->
<g id="node26" class="node"><title>Node26</title>
<g id="a_node26"><a xlink:href="classx265_1_1Search.html#a42170100e328cf2504b615ecb2579094" target="_top" xlink:title="x265::Search::residualQTIntra\lChroma">
<polygon fill="white" stroke="black" points="713.5,-49 713.5,-79 860.5,-79 860.5,-49 713.5,-49"/>
<text text-anchor="start" x="721.5" y="-67" font-family="Helvetica,sans-Serif" font-size="10.00">x265::Search::residualQTIntra</text>
<text text-anchor="middle" x="787" y="-56" font-family="Helvetica,sans-Serif" font-size="10.00">Chroma</text>
</a>
</g>
</g>
<!-- Node23&#45;&gt;Node26 -->
<g id="edge41" class="edge"><title>Node23&#45;&gt;Node26</title>
<path fill="none" stroke="midnightblue" d="M480.125,-87.8344C548.551,-82.5025 646.67,-74.8569 713.185,-69.6739"/>
<polygon fill="midnightblue" stroke="midnightblue" points="479.528,-84.3702 469.83,-88.6366 480.072,-91.3491 479.528,-84.3702"/>
</g>
<!-- Node27 -->
<g id="node27" class="node"><title>Node27</title>
<g id="a_node27"><a xlink:href="classx265_1_1Search.html#ad676dc0bcf94eea19260363b3b029755" target="_top" xlink:title="x265::Search::getBestIntra\lModeChroma">
<polygon fill="white" stroke="black" points="720,-0 720,-30 854,-30 854,-0 720,-0"/>
<text text-anchor="start" x="728" y="-18" font-family="Helvetica,sans-Serif" font-size="10.00">x265::Search::getBestIntra</text>
<text text-anchor="middle" x="787" y="-7" font-family="Helvetica,sans-Serif" font-size="10.00">ModeChroma</text>
</a>
</g>
</g>
<!-- Node23&#45;&gt;Node27 -->
<g id="edge44" class="edge"><title>Node23&#45;&gt;Node27</title>
<path fill="none" stroke="midnightblue" d="M475.186,-76.7443C485.524,-74.4269 496.02,-72.1202 506,-70 579.051,-54.4804 663.162,-38.1667 719.975,-27.3758"/>
<polygon fill="midnightblue" stroke="midnightblue" points="474.33,-73.3494 465.345,-78.9636 475.87,-80.1779 474.33,-73.3494"/>
</g>
<!-- Node25 -->
<g id="node25" class="node"><title>Node25</title>
<g id="a_node25"><a xlink:href="classx265_1_1Search.html#a70d466b561a7463b8ec5a213384ae667" target="_top" xlink:title="x265::Search::estIntraPred\lChromaQT">
<polygon fill="white" stroke="black" points="720,-224 720,-254 854,-254 854,-224 720,-224"/>
<text text-anchor="start" x="728" y="-242" font-family="Helvetica,sans-Serif" font-size="10.00">x265::Search::estIntraPred</text>
<text text-anchor="middle" x="787" y="-231" font-family="Helvetica,sans-Serif" font-size="10.00">ChromaQT</text>
</a>
</g>
</g>
<!-- Node24&#45;&gt;Node25 -->
<g id="edge38" class="edge"><title>Node24&#45;&gt;Node25</title>
<path fill="none" stroke="midnightblue" d="M682.339,-227.365C694.948,-228.78 707.683,-230.209 719.704,-231.559"/>
<polygon fill="midnightblue" stroke="midnightblue" points="682.598,-223.872 672.27,-226.234 681.817,-230.828 682.598,-223.872"/>
</g>
<!-- Node25&#45;&gt;Node14 -->
<g id="edge39" class="edge"><title>Node25&#45;&gt;Node14</title>
<path fill="none" stroke="midnightblue" d="M864.276,-239C879.688,-239 895.797,-239 910.906,-239"/>
<polygon fill="midnightblue" stroke="midnightblue" points="864.267,-235.5 854.266,-239 864.266,-242.5 864.267,-235.5"/>
</g>
<!-- Node25&#45;&gt;Node16 -->
<g id="edge40" class="edge"><title>Node25&#45;&gt;Node16</title>
<path fill="none" stroke="midnightblue" d="M864.154,-222.247C930.733,-207.414 1022.2,-186.531 1058,-176 1083.48,-168.504 1112.01,-158.077 1131.69,-150.556"/>
<polygon fill="midnightblue" stroke="midnightblue" points="863.11,-218.894 854.109,-224.482 864.63,-225.727 863.11,-218.894"/>
</g>
<!-- Node26&#45;&gt;Node21 -->
<g id="edge42" class="edge"><title>Node26&#45;&gt;Node21</title>
<path fill="none" stroke="midnightblue" d="M870.672,-52.3133C884.404,-50.3722 898.496,-48.3801 911.785,-46.5015"/>
<polygon fill="midnightblue" stroke="midnightblue" points="870.165,-48.8501 860.754,-53.7154 871.145,-55.7812 870.165,-48.8501"/>
</g>
<!-- Node26&#45;&gt;Node22 -->
<g id="edge43" class="edge"><title>Node26&#45;&gt;Node22</title>
<path fill="none" stroke="midnightblue" d="M870.861,-74.8457C883.567,-76.5088 896.577,-78.2116 908.97,-79.8337"/>
<polygon fill="midnightblue" stroke="midnightblue" points="871.123,-71.3503 860.754,-73.5227 870.215,-78.2911 871.123,-71.3503"/>
</g>
<!-- Node27&#45;&gt;Node21 -->
<g id="edge45" class="edge"><title>Node27&#45;&gt;Node21</title>
<path fill="none" stroke="midnightblue" d="M864.219,-23.7792C876.775,-25.2254 889.796,-26.7252 902.362,-28.1726"/>
<polygon fill="midnightblue" stroke="midnightblue" points="864.601,-20.3001 854.266,-22.6328 863.8,-27.2542 864.601,-20.3001"/>
</g>
<!-- Node27&#45;&gt;Node22 -->
<g id="edge46" class="edge"><title>Node27&#45;&gt;Node22</title>
<path fill="none" stroke="midnightblue" d="M850.381,-33.3189C855.697,-35.1443 860.964,-37.0475 866,-39 882.498,-45.3959 885.866,-48.736 902,-56 915.395,-62.0305 930.205,-68.4391 943.23,-73.9889"/>
<polygon fill="midnightblue" stroke="midnightblue" points="851.392,-29.9664 840.798,-30.1236 849.177,-36.607 851.392,-29.9664"/>
</g>
</g>
</svg>
