<?xml version="1.0" encoding="UTF-8" standalone="no"?>
<!DOCTYPE svg PUBLIC "-//W3C//DTD SVG 1.1//EN"
 "http://www.w3.org/Graphics/SVG/1.1/DTD/svg11.dtd">
<!-- Generated by graphviz version 2.36.0 (20140111.2315)
 -->
<!-- Title: x265::FrameEncoder::destroy Pages: 1 -->
<svg width="486pt" height="38pt"
 viewBox="0.00 0.00 486.00 38.00" xmlns="http://www.w3.org/2000/svg" xmlns:xlink="http://www.w3.org/1999/xlink">
<g id="graph0" class="graph" transform="scale(1 1) rotate(0) translate(4 34)">
<title>x265::FrameEncoder::destroy</title>
<polygon fill="white" stroke="none" points="-4,4 -4,-34 482,-34 482,4 -4,4"/>
<!-- Node1 -->
<g id="node1" class="node"><title>Node1</title>
<polygon fill="#bfbfbf" stroke="black" points="0.5,-0 0.5,-30 107.5,-30 107.5,-0 0.5,-0"/>
<text text-anchor="start" x="8.5" y="-18" font-family="Helvetica,sans-Serif" font-size="10.00">x265::FrameEncoder</text>
<text text-anchor="middle" x="54" y="-7" font-family="Helvetica,sans-Serif" font-size="10.00">::destroy</text>
</g>
<!-- Node2 -->
<g id="node2" class="node"><title>Node2</title>
<g id="a_node2"><a xlink:href="classx265_1_1Encoder.html#ac689b087686eca38579aad7426e34fc6" target="_top" xlink:title="x265::Encoder::destroy">
<polygon fill="white" stroke="black" points="144,-5.5 144,-24.5 262,-24.5 262,-5.5 144,-5.5"/>
<text text-anchor="middle" x="203" y="-12.5" font-family="Helvetica,sans-Serif" font-size="10.00">x265::Encoder::destroy</text>
</a>
</g>
</g>
<!-- Node1&#45;&gt;Node2 -->
<g id="edge1" class="edge"><title>Node1&#45;&gt;Node2</title>
<path fill="none" stroke="midnightblue" d="M117.75,-15C126.455,-15 135.366,-15 143.98,-15"/>
<polygon fill="midnightblue" stroke="midnightblue" points="117.655,-11.5001 107.655,-15 117.655,-18.5001 117.655,-11.5001"/>
</g>
<!-- Node3 -->
<g id="node3" class="node"><title>Node3</title>
<g id="a_node3"><a xlink:href="x265_8h.html#ac370491d505086b2eb41e10d89f271ad" target="_top" xlink:title="x265_encoder_close">
<polygon fill="white" stroke="black" points="298,-5.5 298,-24.5 404,-24.5 404,-5.5 298,-5.5"/>
<text text-anchor="middle" x="351" y="-12.5" font-family="Helvetica,sans-Serif" font-size="10.00">x265_encoder_close</text>
</a>
</g>
</g>
<!-- Node2&#45;&gt;Node3 -->
<g id="edge2" class="edge"><title>Node2&#45;&gt;Node3</title>
<path fill="none" stroke="midnightblue" d="M272.152,-15C280.755,-15 289.448,-15 297.751,-15"/>
<polygon fill="midnightblue" stroke="midnightblue" points="272.123,-11.5001 262.123,-15 272.123,-18.5001 272.123,-11.5001"/>
</g>
<!-- Node4 -->
<g id="node4" class="node"><title>Node4</title>
<g id="a_node4"><a xlink:href="x265_8cpp.html#a3c04138a5bfe5d72780bb7e82a18e627" target="_top" xlink:title="main">
<polygon fill="white" stroke="black" points="440,-5.5 440,-24.5 478,-24.5 478,-5.5 440,-5.5"/>
<text text-anchor="middle" x="459" y="-12.5" font-family="Helvetica,sans-Serif" font-size="10.00">main</text>
</a>
</g>
</g>
<!-- Node3&#45;&gt;Node4 -->
<g id="edge3" class="edge"><title>Node3&#45;&gt;Node4</title>
<path fill="none" stroke="midnightblue" d="M414.208,-15C423.464,-15 432.334,-15 439.64,-15"/>
<polygon fill="midnightblue" stroke="midnightblue" points="414.068,-11.5001 404.068,-15 414.068,-18.5001 414.068,-11.5001"/>
</g>
</g>
</svg>
