<?xml version="1.0" encoding="UTF-8" standalone="no"?>
<!DOCTYPE svg PUBLIC "-//W3C//DTD SVG 1.1//EN"
 "http://www.w3.org/Graphics/SVG/1.1/DTD/svg11.dtd">
<!-- Generated by graphviz version 2.36.0 (20140111.2315)
 -->
<!-- Title: x265::MotionEstimate::motionEstimate Pages: 1 -->
<svg width="1582pt" height="392pt"
 viewBox="0.00 0.00 1582.00 391.56" xmlns="http://www.w3.org/2000/svg" xmlns:xlink="http://www.w3.org/1999/xlink">
<g id="graph0" class="graph" transform="scale(1 1) rotate(0) translate(4 387.556)">
<title>x265::MotionEstimate::motionEstimate</title>
<polygon fill="white" stroke="none" points="-4,4 -4,-387.556 1578,-387.556 1578,4 -4,4"/>
<!-- Node1 -->
<g id="node1" class="node"><title>Node1</title>
<polygon fill="#bfbfbf" stroke="black" points="0,-253.476 0,-283.476 112,-283.476 112,-253.476 0,-253.476"/>
<text text-anchor="start" x="8" y="-271.476" font-family="Helvetica,sans-Serif" font-size="10.00">x265::MotionEstimate</text>
<text text-anchor="middle" x="56" y="-260.476" font-family="Helvetica,sans-Serif" font-size="10.00">::motionEstimate</text>
</g>
<!-- Node2 -->
<g id="node2" class="node"><title>Node2</title>
<g id="a_node2"><a xlink:href="classx265_1_1Search.html#a47294b1b3d67ab31cb6be412407982d5" target="_top" xlink:title="x265::Search::singleMotion\lEstimation">
<polygon fill="white" stroke="black" points="148.5,-297.476 148.5,-327.476 283.5,-327.476 283.5,-297.476 148.5,-297.476"/>
<text text-anchor="start" x="156.5" y="-315.476" font-family="Helvetica,sans-Serif" font-size="10.00">x265::Search::singleMotion</text>
<text text-anchor="middle" x="216" y="-304.476" font-family="Helvetica,sans-Serif" font-size="10.00">Estimation</text>
</a>
</g>
</g>
<!-- Node1&#45;&gt;Node2 -->
<g id="edge1" class="edge"><title>Node1&#45;&gt;Node2</title>
<path fill="none" stroke="midnightblue" d="M120.57,-286.179C133.986,-289.916 148.02,-293.824 161.042,-297.45"/>
<polygon fill="midnightblue" stroke="midnightblue" points="121.505,-282.807 110.933,-283.496 119.627,-289.55 121.505,-282.807"/>
</g>
<!-- Node7 -->
<g id="node7" class="node"><title>Node7</title>
<g id="a_node7"><a xlink:href="classx265_1_1Search.html#a48101e3d900e93b97a83f461be390bd1" target="_top" xlink:title="x265::Search::predInterSearch">
<polygon fill="white" stroke="black" points="320.5,-281.976 320.5,-300.976 469.5,-300.976 469.5,-281.976 320.5,-281.976"/>
<text text-anchor="middle" x="395" y="-288.976" font-family="Helvetica,sans-Serif" font-size="10.00">x265::Search::predInterSearch</text>
</a>
</g>
</g>
<!-- Node1&#45;&gt;Node7 -->
<g id="edge15" class="edge"><title>Node1&#45;&gt;Node7</title>
<path fill="none" stroke="midnightblue" d="M122.567,-272.951C179.34,-276.826 261.387,-282.426 320.395,-286.453"/>
<polygon fill="midnightblue" stroke="midnightblue" points="122.486,-269.438 112.271,-272.249 122.01,-276.421 122.486,-269.438"/>
</g>
<!-- Node13 -->
<g id="node13" class="node"><title>Node13</title>
<g id="a_node13"><a xlink:href="classx265_1_1EstimateRow.html#ab4418a4e826e746d0b9cdce75a0736d9" target="_top" xlink:title="x265::EstimateRow::\lestimateCUCost">
<polygon fill="white" stroke="black" points="161.5,-171.476 161.5,-201.476 270.5,-201.476 270.5,-171.476 161.5,-171.476"/>
<text text-anchor="start" x="169.5" y="-189.476" font-family="Helvetica,sans-Serif" font-size="10.00">x265::EstimateRow::</text>
<text text-anchor="middle" x="216" y="-178.476" font-family="Helvetica,sans-Serif" font-size="10.00">estimateCUCost</text>
</a>
</g>
</g>
<!-- Node1&#45;&gt;Node13 -->
<g id="edge16" class="edge"><title>Node1&#45;&gt;Node13</title>
<path fill="none" stroke="midnightblue" d="M95.0619,-248.723C123.001,-234.223 160.378,-214.824 185.937,-201.56"/>
<polygon fill="midnightblue" stroke="midnightblue" points="93.2432,-245.723 85.9796,-253.436 96.4678,-251.936 93.2432,-245.723"/>
</g>
<!-- Node3 -->
<g id="node3" class="node"><title>Node3</title>
<g id="a_node3"><a xlink:href="classx265_1_1Analysis.html#abd49473ae6e5e1f7e555b447b04398e6" target="_top" xlink:title="x265::Analysis::parallelME">
<polygon fill="white" stroke="black" points="328.5,-322.976 328.5,-341.976 461.5,-341.976 461.5,-322.976 328.5,-322.976"/>
<text text-anchor="middle" x="395" y="-329.976" font-family="Helvetica,sans-Serif" font-size="10.00">x265::Analysis::parallelME</text>
</a>
</g>
</g>
<!-- Node2&#45;&gt;Node3 -->
<g id="edge2" class="edge"><title>Node2&#45;&gt;Node3</title>
<path fill="none" stroke="midnightblue" d="M293.698,-321.143C305.22,-322.445 317.012,-323.777 328.277,-325.05"/>
<polygon fill="midnightblue" stroke="midnightblue" points="293.994,-317.654 283.664,-320.009 293.208,-324.61 293.994,-317.654"/>
</g>
<!-- Node2&#45;&gt;Node7 -->
<g id="edge6" class="edge"><title>Node2&#45;&gt;Node7</title>
<path fill="none" stroke="midnightblue" d="M293.865,-303.357C302.633,-302.316 311.557,-301.258 320.283,-300.222"/>
<polygon fill="midnightblue" stroke="midnightblue" points="293.182,-299.913 283.664,-304.567 294.007,-306.864 293.182,-299.913"/>
</g>
<!-- Node4 -->
<g id="node4" class="node"><title>Node4</title>
<g id="a_node4"><a xlink:href="classx265_1_1Analysis.html#a29a58dad4cc1c07d2f5e5717c6be7c25" target="_top" xlink:title="x265::Analysis::findJob">
<polygon fill="white" stroke="black" points="894.5,-355.976 894.5,-374.976 1013.5,-374.976 1013.5,-355.976 894.5,-355.976"/>
<text text-anchor="middle" x="954" y="-362.976" font-family="Helvetica,sans-Serif" font-size="10.00">x265::Analysis::findJob</text>
</a>
</g>
</g>
<!-- Node3&#45;&gt;Node4 -->
<g id="edge3" class="edge"><title>Node3&#45;&gt;Node4</title>
<path fill="none" stroke="midnightblue" d="M449.425,-344.168C505.523,-355.801 596.463,-372.847 676,-379.476 747.751,-385.457 766.132,-383.835 838,-379.476 856.369,-378.362 876.299,-376.256 894.326,-374.009"/>
<polygon fill="midnightblue" stroke="midnightblue" points="449.871,-340.685 439.366,-342.062 448.437,-347.537 449.871,-340.685"/>
</g>
<!-- Node5 -->
<g id="node5" class="node"><title>Node5</title>
<g id="a_node5"><a xlink:href="classx265_1_1Analysis.html#a87060ff27a37f56adc5f5b8a4c033ece" target="_top" xlink:title="x265::Analysis::compress\lInterCU_dist">
<polygon fill="white" stroke="black" points="1073,-350.476 1073,-380.476 1203,-380.476 1203,-350.476 1073,-350.476"/>
<text text-anchor="start" x="1081" y="-368.476" font-family="Helvetica,sans-Serif" font-size="10.00">x265::Analysis::compress</text>
<text text-anchor="middle" x="1138" y="-357.476" font-family="Helvetica,sans-Serif" font-size="10.00">InterCU_dist</text>
</a>
</g>
</g>
<!-- Node4&#45;&gt;Node5 -->
<g id="edge4" class="edge"><title>Node4&#45;&gt;Node5</title>
<path fill="none" stroke="midnightblue" d="M1023.97,-365.476C1040.01,-365.476 1057.03,-365.476 1072.85,-365.476"/>
<polygon fill="midnightblue" stroke="midnightblue" points="1023.59,-361.976 1013.59,-365.476 1023.59,-368.976 1023.59,-361.976"/>
</g>
<!-- Node6 -->
<g id="node6" class="node"><title>Node6</title>
<g id="a_node6"><a xlink:href="classx265_1_1Analysis.html#aaebc9de2ff98834c650244f3b58942c2" target="_top" xlink:title="x265::Analysis::compressCTU">
<polygon fill="white" stroke="red" points="1242.5,-306.976 1242.5,-325.976 1393.5,-325.976 1393.5,-306.976 1242.5,-306.976"/>
<text text-anchor="middle" x="1318" y="-313.976" font-family="Helvetica,sans-Serif" font-size="10.00">x265::Analysis::compressCTU</text>
</a>
</g>
</g>
<!-- Node5&#45;&gt;Node6 -->
<g id="edge5" class="edge"><title>Node5&#45;&gt;Node6</title>
<path fill="none" stroke="midnightblue" d="M1203.53,-347.713C1230.22,-340.366 1260.09,-332.143 1282.48,-325.978"/>
<polygon fill="midnightblue" stroke="midnightblue" points="1202.57,-344.346 1193.86,-350.375 1204.43,-351.095 1202.57,-344.346"/>
</g>
<!-- Node8 -->
<g id="node8" class="node"><title>Node8</title>
<g id="a_node8"><a xlink:href="classx265_1_1Analysis.html#a2305f7985af66b49fdbc40ebb1b281d2" target="_top" xlink:title="x265::Analysis::checkInter\l_rd0_4">
<polygon fill="white" stroke="black" points="506.5,-301.476 506.5,-331.476 639.5,-331.476 639.5,-301.476 506.5,-301.476"/>
<text text-anchor="start" x="514.5" y="-319.476" font-family="Helvetica,sans-Serif" font-size="10.00">x265::Analysis::checkInter</text>
<text text-anchor="middle" x="573" y="-308.476" font-family="Helvetica,sans-Serif" font-size="10.00">_rd0_4</text>
</a>
</g>
</g>
<!-- Node7&#45;&gt;Node8 -->
<g id="edge7" class="edge"><title>Node7&#45;&gt;Node8</title>
<path fill="none" stroke="midnightblue" d="M473.119,-302.431C484.188,-304.003 495.49,-305.608 506.31,-307.145"/>
<polygon fill="midnightblue" stroke="midnightblue" points="473.433,-298.94 463.04,-300.999 472.448,-305.871 473.433,-298.94"/>
</g>
<!-- Node11 -->
<g id="node11" class="node"><title>Node11</title>
<g id="a_node11"><a xlink:href="classx265_1_1Analysis.html#a828daa3e9f1ed40a1af9f99f7ff7bb33" target="_top" xlink:title="x265::Analysis::checkInter\l_rd5_6">
<polygon fill="white" stroke="black" points="506.5,-252.476 506.5,-282.476 639.5,-282.476 639.5,-252.476 506.5,-252.476"/>
<text text-anchor="start" x="514.5" y="-270.476" font-family="Helvetica,sans-Serif" font-size="10.00">x265::Analysis::checkInter</text>
<text text-anchor="middle" x="573" y="-259.476" font-family="Helvetica,sans-Serif" font-size="10.00">_rd5_6</text>
</a>
</g>
</g>
<!-- Node7&#45;&gt;Node11 -->
<g id="edge12" class="edge"><title>Node7&#45;&gt;Node11</title>
<path fill="none" stroke="midnightblue" d="M475.907,-280.58C486.07,-279.194 496.378,-277.788 506.283,-276.438"/>
<polygon fill="midnightblue" stroke="midnightblue" points="475.248,-277.137 465.813,-281.956 476.194,-284.073 475.248,-277.137"/>
</g>
<!-- Node9 -->
<g id="node9" class="node"><title>Node9</title>
<g id="a_node9"><a xlink:href="classx265_1_1Analysis.html#aa6122285d10bb1bd7584958b88b029d5" target="_top" xlink:title="x265::Analysis::parallel\lModeAnalysis">
<polygon fill="white" stroke="black" points="698,-340.476 698,-370.476 816,-370.476 816,-340.476 698,-340.476"/>
<text text-anchor="start" x="706" y="-358.476" font-family="Helvetica,sans-Serif" font-size="10.00">x265::Analysis::parallel</text>
<text text-anchor="middle" x="757" y="-347.476" font-family="Helvetica,sans-Serif" font-size="10.00">ModeAnalysis</text>
</a>
</g>
</g>
<!-- Node8&#45;&gt;Node9 -->
<g id="edge8" class="edge"><title>Node8&#45;&gt;Node9</title>
<path fill="none" stroke="midnightblue" d="M649.647,-332.686C665.781,-336.144 682.578,-339.743 697.929,-343.033"/>
<polygon fill="midnightblue" stroke="midnightblue" points="650.218,-329.229 639.706,-330.556 648.751,-336.074 650.218,-329.229"/>
</g>
<!-- Node10 -->
<g id="node10" class="node"><title>Node10</title>
<g id="a_node10"><a xlink:href="classx265_1_1Analysis.html#a30d2ff7eca5addbb0a6b3dfe14f09650" target="_top" xlink:title="x265::Analysis::compress\lInterCU_rd0_4">
<polygon fill="white" stroke="black" points="1073,-301.476 1073,-331.476 1203,-331.476 1203,-301.476 1073,-301.476"/>
<text text-anchor="start" x="1081" y="-319.476" font-family="Helvetica,sans-Serif" font-size="10.00">x265::Analysis::compress</text>
<text text-anchor="middle" x="1138" y="-308.476" font-family="Helvetica,sans-Serif" font-size="10.00">InterCU_rd0_4</text>
</a>
</g>
</g>
<!-- Node8&#45;&gt;Node10 -->
<g id="edge10" class="edge"><title>Node8&#45;&gt;Node10</title>
<path fill="none" stroke="midnightblue" d="M649.853,-316.476C761.451,-316.476 967.944,-316.476 1072.6,-316.476"/>
<polygon fill="midnightblue" stroke="midnightblue" points="649.685,-312.976 639.685,-316.476 649.685,-319.976 649.685,-312.976"/>
</g>
<!-- Node9&#45;&gt;Node4 -->
<g id="edge9" class="edge"><title>Node9&#45;&gt;Node4</title>
<path fill="none" stroke="midnightblue" d="M826.274,-358.978C848.491,-360.117 872.938,-361.371 894.384,-362.47"/>
<polygon fill="midnightblue" stroke="midnightblue" points="826.408,-355.48 816.242,-358.463 826.05,-362.471 826.408,-355.48"/>
</g>
<!-- Node10&#45;&gt;Node6 -->
<g id="edge11" class="edge"><title>Node10&#45;&gt;Node6</title>
<path fill="none" stroke="midnightblue" d="M1213.31,-316.476C1222.91,-316.476 1232.75,-316.476 1242.35,-316.476"/>
<polygon fill="midnightblue" stroke="midnightblue" points="1213.01,-312.976 1203.01,-316.476 1213.01,-319.976 1213.01,-312.976"/>
</g>
<!-- Node12 -->
<g id="node12" class="node"><title>Node12</title>
<g id="a_node12"><a xlink:href="classx265_1_1Analysis.html#a0b22b7765aa4a36b1ba6d07ba26901e6" target="_top" xlink:title="x265::Analysis::compress\lInterCU_rd5_6">
<polygon fill="white" stroke="black" points="1073,-252.476 1073,-282.476 1203,-282.476 1203,-252.476 1073,-252.476"/>
<text text-anchor="start" x="1081" y="-270.476" font-family="Helvetica,sans-Serif" font-size="10.00">x265::Analysis::compress</text>
<text text-anchor="middle" x="1138" y="-259.476" font-family="Helvetica,sans-Serif" font-size="10.00">InterCU_rd5_6</text>
</a>
</g>
</g>
<!-- Node11&#45;&gt;Node12 -->
<g id="edge13" class="edge"><title>Node11&#45;&gt;Node12</title>
<path fill="none" stroke="midnightblue" d="M649.853,-267.476C761.451,-267.476 967.944,-267.476 1072.6,-267.476"/>
<polygon fill="midnightblue" stroke="midnightblue" points="649.685,-263.976 639.685,-267.476 649.685,-270.976 649.685,-263.976"/>
</g>
<!-- Node12&#45;&gt;Node6 -->
<g id="edge14" class="edge"><title>Node12&#45;&gt;Node6</title>
<path fill="none" stroke="midnightblue" d="M1203.53,-285.24C1230.22,-292.587 1260.09,-300.81 1282.48,-306.974"/>
<polygon fill="midnightblue" stroke="midnightblue" points="1204.43,-281.857 1193.86,-282.578 1202.57,-288.606 1204.43,-281.857"/>
</g>
<!-- Node14 -->
<g id="node14" class="node"><title>Node14</title>
<g id="a_node14"><a xlink:href="classx265_1_1CostEstimate.html#a239a71996364d7662e9c9c32b82d6c9f" target="_top" xlink:title="x265::CostEstimate\l::processRow">
<polygon fill="white" stroke="black" points="343,-152.476 343,-182.476 447,-182.476 447,-152.476 343,-152.476"/>
<text text-anchor="start" x="351" y="-170.476" font-family="Helvetica,sans-Serif" font-size="10.00">x265::CostEstimate</text>
<text text-anchor="middle" x="395" y="-159.476" font-family="Helvetica,sans-Serif" font-size="10.00">::processRow</text>
</a>
</g>
</g>
<!-- Node13&#45;&gt;Node14 -->
<g id="edge17" class="edge"><title>Node13&#45;&gt;Node14</title>
<path fill="none" stroke="midnightblue" d="M280.722,-179.636C301.088,-177.45 323.357,-175.06 342.72,-172.981"/>
<polygon fill="midnightblue" stroke="midnightblue" points="280.155,-176.177 270.586,-180.724 280.903,-183.137 280.155,-176.177"/>
</g>
<!-- Node15 -->
<g id="node15" class="node"><title>Node15</title>
<g id="a_node15"><a xlink:href="classx265_1_1CostEstimate.html#af33d06405527ebbb03d9c93d565e6e2a" target="_top" xlink:title="x265::CostEstimate\l::estimateFrameCost">
<polygon fill="white" stroke="black" points="518.5,-132.476 518.5,-162.476 627.5,-162.476 627.5,-132.476 518.5,-132.476"/>
<text text-anchor="start" x="526.5" y="-150.476" font-family="Helvetica,sans-Serif" font-size="10.00">x265::CostEstimate</text>
<text text-anchor="middle" x="573" y="-139.476" font-family="Helvetica,sans-Serif" font-size="10.00">::estimateFrameCost</text>
</a>
</g>
</g>
<!-- Node14&#45;&gt;Node15 -->
<g id="edge18" class="edge"><title>Node14&#45;&gt;Node15</title>
<path fill="none" stroke="midnightblue" d="M457.548,-160.482C477.385,-158.228 499.199,-155.749 518.414,-153.566"/>
<polygon fill="midnightblue" stroke="midnightblue" points="456.92,-157.031 447.38,-161.638 457.711,-163.986 456.92,-157.031"/>
</g>
<!-- Node16 -->
<g id="node16" class="node"><title>Node16</title>
<g id="a_node16"><a xlink:href="classx265_1_1Lookahead.html#ad15172de7a432e47e8514fb157fafedd" target="_top" xlink:title="x265::Lookahead::slicetype\lDecide">
<polygon fill="white" stroke="black" points="1250,-170.476 1250,-200.476 1386,-200.476 1386,-170.476 1250,-170.476"/>
<text text-anchor="start" x="1258" y="-188.476" font-family="Helvetica,sans-Serif" font-size="10.00">x265::Lookahead::slicetype</text>
<text text-anchor="middle" x="1318" y="-177.476" font-family="Helvetica,sans-Serif" font-size="10.00">Decide</text>
</a>
</g>
</g>
<!-- Node15&#45;&gt;Node16 -->
<g id="edge19" class="edge"><title>Node15&#45;&gt;Node16</title>
<path fill="none" stroke="midnightblue" d="M602.189,-168.43C621.779,-181.636 649.103,-197.471 676,-204.476 879.358,-257.442 1131.3,-221.975 1249.64,-199.686"/>
<polygon fill="midnightblue" stroke="midnightblue" points="603.975,-165.409 593.763,-162.589 599.987,-171.162 603.975,-165.409"/>
</g>
<!-- Node20 -->
<g id="node20" class="node"><title>Node20</title>
<g id="a_node20"><a xlink:href="classx265_1_1Lookahead.html#ad963fd74581c61eaf7713367906b3e96" target="_top" xlink:title="x265::Lookahead::vbvFrameCost">
<polygon fill="white" stroke="black" points="676.5,-175.976 676.5,-194.976 837.5,-194.976 837.5,-175.976 676.5,-175.976"/>
<text text-anchor="middle" x="757" y="-182.976" font-family="Helvetica,sans-Serif" font-size="10.00">x265::Lookahead::vbvFrameCost</text>
</a>
</g>
</g>
<!-- Node15&#45;&gt;Node20 -->
<g id="edge23" class="edge"><title>Node15&#45;&gt;Node20</title>
<path fill="none" stroke="midnightblue" d="M637.706,-160.778C661.685,-165.784 688.45,-171.372 710.448,-175.965"/>
<polygon fill="midnightblue" stroke="midnightblue" points="638.126,-157.29 627.622,-158.672 636.695,-164.142 638.126,-157.29"/>
</g>
<!-- Node22 -->
<g id="node22" class="node"><title>Node22</title>
<g id="a_node22"><a xlink:href="classx265_1_1Lookahead.html#a2f8c7057dd5c5086830b5f22b38105b0" target="_top" xlink:title="x265::Lookahead::slicetype\lAnalyse">
<polygon fill="white" stroke="black" points="1070,-112.476 1070,-142.476 1206,-142.476 1206,-112.476 1070,-112.476"/>
<text text-anchor="start" x="1078" y="-130.476" font-family="Helvetica,sans-Serif" font-size="10.00">x265::Lookahead::slicetype</text>
<text text-anchor="middle" x="1138" y="-119.476" font-family="Helvetica,sans-Serif" font-size="10.00">Analyse</text>
</a>
</g>
</g>
<!-- Node15&#45;&gt;Node22 -->
<g id="edge27" class="edge"><title>Node15&#45;&gt;Node22</title>
<path fill="none" stroke="midnightblue" d="M637.755,-145.212C744.934,-141.404 960.214,-133.756 1069.72,-129.867"/>
<polygon fill="midnightblue" stroke="midnightblue" points="637.597,-141.715 627.728,-145.568 637.846,-148.71 637.597,-141.715"/>
</g>
<!-- Node23 -->
<g id="node23" class="node"><title>Node23</title>
<g id="a_node23"><a xlink:href="classx265_1_1Lookahead.html#abe59d19601dc7f3cc76ba3dd315140ee" target="_top" xlink:title="x265::Lookahead::scenecut\lInternal">
<polygon fill="white" stroke="black" points="688.5,-88.4764 688.5,-118.476 825.5,-118.476 825.5,-88.4764 688.5,-88.4764"/>
<text text-anchor="start" x="696.5" y="-106.476" font-family="Helvetica,sans-Serif" font-size="10.00">x265::Lookahead::scenecut</text>
<text text-anchor="middle" x="757" y="-95.4764" font-family="Helvetica,sans-Serif" font-size="10.00">Internal</text>
</a>
</g>
</g>
<!-- Node15&#45;&gt;Node23 -->
<g id="edge28" class="edge"><title>Node15&#45;&gt;Node23</title>
<path fill="none" stroke="midnightblue" d="M637.562,-132.11C655.794,-127.702 675.647,-122.902 693.795,-118.515"/>
<polygon fill="midnightblue" stroke="midnightblue" points="636.519,-128.761 627.622,-134.513 638.164,-135.565 636.519,-128.761"/>
</g>
<!-- Node25 -->
<g id="node25" class="node"><title>Node25</title>
<g id="a_node25"><a xlink:href="classx265_1_1Lookahead.html#a23cd684acae2cb60daeb2f6df390e30e" target="_top" xlink:title="x265::Lookahead::slicetype\lPathCost">
<polygon fill="white" stroke="black" points="689,-39.4764 689,-69.4764 825,-69.4764 825,-39.4764 689,-39.4764"/>
<text text-anchor="start" x="697" y="-57.4764" font-family="Helvetica,sans-Serif" font-size="10.00">x265::Lookahead::slicetype</text>
<text text-anchor="middle" x="757" y="-46.4764" font-family="Helvetica,sans-Serif" font-size="10.00">PathCost</text>
</a>
</g>
</g>
<!-- Node15&#45;&gt;Node25 -->
<g id="edge31" class="edge"><title>Node15&#45;&gt;Node25</title>
<path fill="none" stroke="midnightblue" d="M600.454,-126.278C620.29,-111.229 648.621,-91.4698 676,-78.4764 682.943,-75.1813 690.44,-72.222 697.964,-69.6005"/>
<polygon fill="midnightblue" stroke="midnightblue" points="598.287,-123.53 592.501,-132.406 602.559,-129.075 598.287,-123.53"/>
</g>
<!-- Node27 -->
<g id="node27" class="node"><title>Node27</title>
<g id="a_node27"><a xlink:href="classx265_1_1Lookahead.html#a7de60f6bb080e48623088fb1ed9f034b" target="_top" xlink:title="x265::Lookahead::cuTree">
<polygon fill="white" stroke="black" points="890.5,-3.97637 890.5,-22.9764 1017.5,-22.9764 1017.5,-3.97637 890.5,-3.97637"/>
<text text-anchor="middle" x="954" y="-10.9764" font-family="Helvetica,sans-Serif" font-size="10.00">x265::Lookahead::cuTree</text>
</a>
</g>
</g>
<!-- Node15&#45;&gt;Node27 -->
<g id="edge34" class="edge"><title>Node15&#45;&gt;Node27</title>
<path fill="none" stroke="midnightblue" d="M586.876,-123.265C603.349,-95.079 634.755,-49.8009 676,-29.4764 744.379,4.21857 834.068,2.36954 892.592,-3.95519"/>
<polygon fill="midnightblue" stroke="midnightblue" points="583.751,-121.681 581.869,-132.108 589.842,-125.13 583.751,-121.681"/>
</g>
<!-- Node17 -->
<g id="node17" class="node"><title>Node17</title>
<g id="a_node17"><a xlink:href="classx265_1_1Lookahead.html#a878bca13580997ab9c01e72a8f8e81c3" target="_top" xlink:title="x265::Lookahead::addPicture">
<polygon fill="white" stroke="red" points="1430.5,-213.976 1430.5,-232.976 1573.5,-232.976 1573.5,-213.976 1430.5,-213.976"/>
<text text-anchor="middle" x="1502" y="-220.976" font-family="Helvetica,sans-Serif" font-size="10.00">x265::Lookahead::addPicture</text>
</a>
</g>
</g>
<!-- Node16&#45;&gt;Node17 -->
<g id="edge20" class="edge"><title>Node16&#45;&gt;Node17</title>
<path fill="none" stroke="midnightblue" d="M1396.06,-201.566C1416.23,-205.777 1437.34,-210.184 1455.29,-213.932"/>
<polygon fill="midnightblue" stroke="midnightblue" points="1396.76,-198.136 1386.25,-199.518 1395.33,-204.988 1396.76,-198.136"/>
</g>
<!-- Node18 -->
<g id="node18" class="node"><title>Node18</title>
<g id="a_node18"><a xlink:href="classx265_1_1Lookahead.html#a0294c952379ca6f328014f92aa51259c" target="_top" xlink:title="x265::Lookahead::flush">
<polygon fill="white" stroke="red" points="1443,-175.976 1443,-194.976 1561,-194.976 1561,-175.976 1443,-175.976"/>
<text text-anchor="middle" x="1502" y="-182.976" font-family="Helvetica,sans-Serif" font-size="10.00">x265::Lookahead::flush</text>
</a>
</g>
</g>
<!-- Node16&#45;&gt;Node18 -->
<g id="edge21" class="edge"><title>Node16&#45;&gt;Node18</title>
<path fill="none" stroke="midnightblue" d="M1396.42,-185.476C1412.03,-185.476 1428.19,-185.476 1443,-185.476"/>
<polygon fill="midnightblue" stroke="midnightblue" points="1396.25,-181.976 1386.25,-185.476 1396.25,-188.976 1396.25,-181.976"/>
</g>
<!-- Node19 -->
<g id="node19" class="node"><title>Node19</title>
<g id="a_node19"><a xlink:href="classx265_1_1Lookahead.html#a341d8c6a3a971583aa911cf8dedbe6a1" target="_top" xlink:title="x265::Lookahead::findJob">
<polygon fill="white" stroke="black" points="1438,-137.976 1438,-156.976 1566,-156.976 1566,-137.976 1438,-137.976"/>
<text text-anchor="middle" x="1502" y="-144.976" font-family="Helvetica,sans-Serif" font-size="10.00">x265::Lookahead::findJob</text>
</a>
</g>
</g>
<!-- Node16&#45;&gt;Node19 -->
<g id="edge22" class="edge"><title>Node16&#45;&gt;Node19</title>
<path fill="none" stroke="midnightblue" d="M1396.06,-169.387C1416.23,-165.175 1437.34,-160.769 1455.29,-157.021"/>
<polygon fill="midnightblue" stroke="midnightblue" points="1395.33,-165.964 1386.25,-171.435 1396.76,-172.817 1395.33,-165.964"/>
</g>
<!-- Node21 -->
<g id="node21" class="node"><title>Node21</title>
<g id="a_node21"><a xlink:href="classx265_1_1Lookahead.html#ad80879ec65df8318fbb5109388dcfa39" target="_top" xlink:title="x265::Lookahead::vbvLookahead">
<polygon fill="white" stroke="black" points="874,-175.976 874,-194.976 1034,-194.976 1034,-175.976 874,-175.976"/>
<text text-anchor="middle" x="954" y="-182.976" font-family="Helvetica,sans-Serif" font-size="10.00">x265::Lookahead::vbvLookahead</text>
</a>
</g>
</g>
<!-- Node20&#45;&gt;Node21 -->
<g id="edge24" class="edge"><title>Node20&#45;&gt;Node21</title>
<path fill="none" stroke="midnightblue" d="M847.797,-185.476C856.534,-185.476 865.355,-185.476 873.975,-185.476"/>
<polygon fill="midnightblue" stroke="midnightblue" points="847.595,-181.976 837.595,-185.476 847.595,-188.976 847.595,-181.976"/>
</g>
<!-- Node21&#45;&gt;Node22 -->
<g id="edge25" class="edge"><title>Node21&#45;&gt;Node22</title>
<path fill="none" stroke="midnightblue" d="M996.762,-172.993C1008.8,-169.339 1021.94,-165.299 1034,-161.476 1053.12,-155.418 1074.16,-148.516 1092.21,-142.521"/>
<polygon fill="midnightblue" stroke="midnightblue" points="995.517,-169.713 986.958,-175.957 997.543,-176.413 995.517,-169.713"/>
</g>
<!-- Node22&#45;&gt;Node16 -->
<g id="edge26" class="edge"><title>Node22&#45;&gt;Node16</title>
<path fill="none" stroke="midnightblue" d="M1194.82,-145.666C1219.3,-153.641 1247.68,-162.89 1270.93,-170.464"/>
<polygon fill="midnightblue" stroke="midnightblue" points="1195.9,-142.334 1185.3,-142.564 1193.73,-148.99 1195.9,-142.334"/>
</g>
<!-- Node24 -->
<g id="node24" class="node"><title>Node24</title>
<g id="a_node24"><a xlink:href="classx265_1_1Lookahead.html#aa8614a28660df5604b8f7a2319d1c43a" target="_top" xlink:title="x265::Lookahead::scenecut">
<polygon fill="white" stroke="black" points="885.5,-96.9764 885.5,-115.976 1022.5,-115.976 1022.5,-96.9764 885.5,-96.9764"/>
<text text-anchor="middle" x="954" y="-103.976" font-family="Helvetica,sans-Serif" font-size="10.00">x265::Lookahead::scenecut</text>
</a>
</g>
</g>
<!-- Node23&#45;&gt;Node24 -->
<g id="edge29" class="edge"><title>Node23&#45;&gt;Node24</title>
<path fill="none" stroke="midnightblue" d="M835.773,-104.673C852.215,-104.926 869.439,-105.191 885.465,-105.437"/>
<polygon fill="midnightblue" stroke="midnightblue" points="835.707,-101.172 825.654,-104.517 835.599,-108.171 835.707,-101.172"/>
</g>
<!-- Node24&#45;&gt;Node22 -->
<g id="edge30" class="edge"><title>Node24&#45;&gt;Node22</title>
<path fill="none" stroke="midnightblue" d="M1032.79,-115.452C1045.14,-116.877 1057.82,-118.34 1069.9,-119.734"/>
<polygon fill="midnightblue" stroke="midnightblue" points="1032.85,-111.936 1022.51,-114.266 1032.04,-118.889 1032.85,-111.936"/>
</g>
<!-- Node26 -->
<g id="node26" class="node"><title>Node26</title>
<g id="a_node26"><a xlink:href="classx265_1_1Lookahead.html#a694b3e0d0fb30e4e5b149cd3d79a839d" target="_top" xlink:title="x265::Lookahead::slicetypePath">
<polygon fill="white" stroke="black" points="876,-52.9764 876,-71.9764 1032,-71.9764 1032,-52.9764 876,-52.9764"/>
<text text-anchor="middle" x="954" y="-59.9764" font-family="Helvetica,sans-Serif" font-size="10.00">x265::Lookahead::slicetypePath</text>
</a>
</g>
</g>
<!-- Node25&#45;&gt;Node26 -->
<g id="edge32" class="edge"><title>Node25&#45;&gt;Node26</title>
<path fill="none" stroke="midnightblue" d="M835.182,-57.6428C848.514,-58.1898 862.377,-58.7585 875.712,-59.3056"/>
<polygon fill="midnightblue" stroke="midnightblue" points="835.243,-54.1425 825.108,-57.2295 834.956,-61.1366 835.243,-54.1425"/>
</g>
<!-- Node26&#45;&gt;Node22 -->
<g id="edge33" class="edge"><title>Node26&#45;&gt;Node22</title>
<path fill="none" stroke="midnightblue" d="M996.551,-75.0773C1008.68,-78.9024 1021.91,-83.2223 1034,-87.4764 1056.08,-95.2469 1080.5,-104.696 1100.03,-112.458"/>
<polygon fill="midnightblue" stroke="midnightblue" points="997.265,-71.6337 986.676,-71.9929 995.178,-78.3153 997.265,-71.6337"/>
</g>
<!-- Node27&#45;&gt;Node22 -->
<g id="edge35" class="edge"><title>Node27&#45;&gt;Node22</title>
<path fill="none" stroke="midnightblue" d="M996.845,-26.5201C1009.19,-31.1142 1022.47,-36.8208 1034,-43.4764 1068.17,-63.2029 1102.65,-94.0553 1121.78,-112.369"/>
<polygon fill="midnightblue" stroke="midnightblue" points="997.794,-23.1423 987.199,-23.0773 995.441,-29.735 997.794,-23.1423"/>
</g>
</g>
</svg>
