<?xml version="1.0" encoding="UTF-8" standalone="no"?>
<!DOCTYPE svg PUBLIC "-//W3C//DTD SVG 1.1//EN"
 "http://www.w3.org/Graphics/SVG/1.1/DTD/svg11.dtd">
<!-- Generated by graphviz version 2.36.0 (20140111.2315)
 -->
<!-- Title: x265::ThreadPool::release Pages: 1 -->
<svg width="510pt" height="66pt"
 viewBox="0.00 0.00 510.00 66.00" xmlns="http://www.w3.org/2000/svg" xmlns:xlink="http://www.w3.org/1999/xlink">
<g id="graph0" class="graph" transform="scale(1 1) rotate(0) translate(4 62)">
<title>x265::ThreadPool::release</title>
<polygon fill="white" stroke="none" points="-4,4 -4,-62 506,-62 506,4 -4,4"/>
<!-- Node1 -->
<g id="node1" class="node"><title>Node1</title>
<polygon fill="#bfbfbf" stroke="black" points="0.5,-19.5 0.5,-38.5 131.5,-38.5 131.5,-19.5 0.5,-19.5"/>
<text text-anchor="middle" x="66" y="-26.5" font-family="Helvetica,sans-Serif" font-size="10.00">x265::ThreadPool::release</text>
</g>
<!-- Node2 -->
<g id="node2" class="node"><title>Node2</title>
<g id="a_node2"><a xlink:href="classx265_1_1Encoder.html#ac689b087686eca38579aad7426e34fc6" target="_top" xlink:title="x265::Encoder::destroy">
<polygon fill="white" stroke="black" points="168,-38.5 168,-57.5 286,-57.5 286,-38.5 168,-38.5"/>
<text text-anchor="middle" x="227" y="-45.5" font-family="Helvetica,sans-Serif" font-size="10.00">x265::Encoder::destroy</text>
</a>
</g>
</g>
<!-- Node1&#45;&gt;Node2 -->
<g id="edge1" class="edge"><title>Node1&#45;&gt;Node2</title>
<path fill="none" stroke="midnightblue" d="M141.84,-37.9431C150.552,-38.9842 159.34,-40.0343 167.782,-41.0431"/>
<polygon fill="midnightblue" stroke="midnightblue" points="142.016,-34.4394 131.671,-36.728 141.185,-41.3899 142.016,-34.4394"/>
</g>
<!-- Node5 -->
<g id="node5" class="node"><title>Node5</title>
<g id="a_node5"><a xlink:href="testpool_8cpp.html#a2c3f6775325c30275d11c6abee2db6a0" target="_top" xlink:title="main">
<polygon fill="white" stroke="black" points="208,-0.5 208,-19.5 246,-19.5 246,-0.5 208,-0.5"/>
<text text-anchor="middle" x="227" y="-7.5" font-family="Helvetica,sans-Serif" font-size="10.00">main</text>
</a>
</g>
</g>
<!-- Node1&#45;&gt;Node5 -->
<g id="edge4" class="edge"><title>Node1&#45;&gt;Node5</title>
<path fill="none" stroke="midnightblue" d="M141.75,-20.0676C166.275,-17.1369 191.406,-14.1339 207.761,-12.1795"/>
<polygon fill="midnightblue" stroke="midnightblue" points="141.185,-16.6101 131.671,-21.272 142.016,-23.5606 141.185,-16.6101"/>
</g>
<!-- Node3 -->
<g id="node3" class="node"><title>Node3</title>
<g id="a_node3"><a xlink:href="x265_8h.html#ac370491d505086b2eb41e10d89f271ad" target="_top" xlink:title="x265_encoder_close">
<polygon fill="white" stroke="black" points="322,-38.5 322,-57.5 428,-57.5 428,-38.5 322,-38.5"/>
<text text-anchor="middle" x="375" y="-45.5" font-family="Helvetica,sans-Serif" font-size="10.00">x265_encoder_close</text>
</a>
</g>
</g>
<!-- Node2&#45;&gt;Node3 -->
<g id="edge2" class="edge"><title>Node2&#45;&gt;Node3</title>
<path fill="none" stroke="midnightblue" d="M296.152,-48C304.755,-48 313.448,-48 321.751,-48"/>
<polygon fill="midnightblue" stroke="midnightblue" points="296.123,-44.5001 286.123,-48 296.123,-51.5001 296.123,-44.5001"/>
</g>
<!-- Node4 -->
<g id="node4" class="node"><title>Node4</title>
<g id="a_node4"><a xlink:href="x265_8cpp.html#a3c04138a5bfe5d72780bb7e82a18e627" target="_top" xlink:title="main">
<polygon fill="white" stroke="black" points="464,-38.5 464,-57.5 502,-57.5 502,-38.5 464,-38.5"/>
<text text-anchor="middle" x="483" y="-45.5" font-family="Helvetica,sans-Serif" font-size="10.00">main</text>
</a>
</g>
</g>
<!-- Node3&#45;&gt;Node4 -->
<g id="edge3" class="edge"><title>Node3&#45;&gt;Node4</title>
<path fill="none" stroke="midnightblue" d="M438.208,-48C447.464,-48 456.334,-48 463.64,-48"/>
<polygon fill="midnightblue" stroke="midnightblue" points="438.068,-44.5001 428.068,-48 438.068,-51.5001 438.068,-44.5001"/>
</g>
</g>
</svg>
