<?xml version="1.0" encoding="UTF-8" standalone="no"?>
<!DOCTYPE svg PUBLIC "-//W3C//DTD SVG 1.1//EN"
 "http://www.w3.org/Graphics/SVG/1.1/DTD/svg11.dtd">
<!-- Generated by graphviz version 2.36.0 (20140111.2315)
 -->
<!-- Title: x265::Entropy::codePartSize Pages: 1 -->
<!--zoomable 512 -->
<svg id="main" version="1.1" xmlns="http://www.w3.org/2000/svg" xmlns:xlink="http://www.w3.org/1999/xlink" xml:space="preserve" onload="init(evt)">
<style type="text/css"><![CDATA[
.edge:hover path { stroke: red; }
.edge:hover polygon { stroke: red; fill: red; }
]]></style>
<script type="text/javascript"><![CDATA[
var edges = document.getElementsByTagName('g');
if (edges && edges.length) {
  for (var i=0;i<edges.length;i++) {
    if (edges[i].id.substr(0,4)=='edge') {
      edges[i].setAttribute('class','edge');
    }
  }
}
]]></script>
        <defs>
                <circle id="rim" cx="0" cy="0" r="7"/>
                <circle id="rim2" cx="0" cy="0" r="3.5"/>
                <g id="zoomPlus">
                        <use xlink:href="#rim" fill="#404040">
                                <set attributeName="fill" to="#808080" begin="zoomplus.mouseover" end="zoomplus.mouseout"/>
                        </use>
                        <path d="M-4,0h8M0,-4v8" fill="none" stroke="white" stroke-width="1.5" pointer-events="none"/>
                </g>
                <g id="zoomMin">
                        <use xlink:href="#rim" fill="#404040">
                                <set attributeName="fill" to="#808080" begin="zoomminus.mouseover" end="zoomminus.mouseout"/>
                        </use>
                        <path d="M-4,0h8" fill="none" stroke="white" stroke-width="1.5" pointer-events="none"/>
                </g>
                <g id="dirArrow">
                        <path fill="none" stroke="white" stroke-width="1.5" d="M0,-3.0v7 M-2.5,-0.5L0,-3.0L2.5,-0.5"/>
                </g>
               <g id="resetDef">
                       <use xlink:href="#rim2" fill="#404040">
                               <set attributeName="fill" to="#808080" begin="reset.mouseover" end="reset.mouseout"/>
                       </use>
               </g>
        </defs>

<script type="text/javascript">
var viewWidth = 1398;
var viewHeight = 512;
var sectionId = 'dynsection-32';
</script>
<script xlink:href="svgpan.js"/>
<svg id="graph" class="graph">
<g id="viewport">
<title>x265::Entropy::codePartSize</title>
<polygon fill="white" stroke="none" points="-4,4 -4,-508.46 1394,-508.46 1394,4 -4,4"/>
<!-- Node1 -->
<g id="node1" class="node"><title>Node1</title>
<polygon fill="#bfbfbf" stroke="black" points="0,-243.5 0,-262.5 142,-262.5 142,-243.5 0,-243.5"/>
<text text-anchor="middle" x="71" y="-250.5" font-family="Helvetica,sans-Serif" font-size="10.00">x265::Entropy::codePartSize</text>
</g>
<!-- Node2 -->
<g id="node2" class="node"><title>Node2</title>
<g id="a_node2"><a xlink:href="classx265_1_1Analysis.html#ae4d61bcf4d2c22a054d68d6d77136428" target="_top" xlink:title="x265::Analysis::encodeIntra\lInInter">
<polygon fill="white" stroke="black" points="377,-333 377,-363 515,-363 515,-333 377,-333"/>
<text text-anchor="start" x="385" y="-351" font-family="Helvetica,sans-Serif" font-size="10.00">x265::Analysis::encodeIntra</text>
<text text-anchor="middle" x="446" y="-340" font-family="Helvetica,sans-Serif" font-size="10.00">InInter</text>
</a>
</g>
</g>
<!-- Node1&#45;&gt;Node2 -->
<g id="edge1" class="edge"><title>Node1&#45;&gt;Node2</title>
<path fill="none" stroke="midnightblue" d="M94.4398,-268.106C115.203,-281.327 147.393,-299.946 178,-310 243.501,-331.516 321.987,-340.852 376.849,-344.902"/>
<polygon fill="midnightblue" stroke="midnightblue" points="96.3083,-265.146 86.0148,-262.637 92.4967,-271.018 96.3083,-265.146"/>
</g>
<!-- Node9 -->
<g id="node9" class="node"><title>Node9</title>
<g id="a_node9"><a xlink:href="classx265_1_1Entropy.html#adeb50a7c9a5df6643407d01158d93799" target="_top" xlink:title="x265::Entropy::encodeCU">
<polygon fill="white" stroke="black" points="192,-111.5 192,-130.5 322,-130.5 322,-111.5 192,-111.5"/>
<text text-anchor="middle" x="257" y="-118.5" font-family="Helvetica,sans-Serif" font-size="10.00">x265::Entropy::encodeCU</text>
</a>
</g>
</g>
<!-- Node1&#45;&gt;Node9 -->
<g id="edge10" class="edge"><title>Node1&#45;&gt;Node9</title>
<path fill="none" stroke="midnightblue" d="M93.9674,-237.241C132.443,-209.639 210.929,-153.334 242.45,-130.721"/>
<polygon fill="midnightblue" stroke="midnightblue" points="91.6152,-234.621 85.53,-243.294 95.6956,-240.308 91.6152,-234.621"/>
</g>
<!-- Node13 -->
<g id="node13" class="node"><title>Node13</title>
<g id="a_node13"><a xlink:href="classx265_1_1Search.html#a59b84ac1e21c86af579b6e84e43c5b7a" target="_top" xlink:title="x265::Search::codeIntraLumaQT">
<polygon fill="white" stroke="black" points="178,-281.5 178,-300.5 336,-300.5 336,-281.5 178,-281.5"/>
<text text-anchor="middle" x="257" y="-288.5" font-family="Helvetica,sans-Serif" font-size="10.00">x265::Search::codeIntraLumaQT</text>
</a>
</g>
</g>
<!-- Node1&#45;&gt;Node13 -->
<g id="edge15" class="edge"><title>Node1&#45;&gt;Node13</title>
<path fill="none" stroke="midnightblue" d="M128.561,-264.681C154.654,-270.07 185.238,-276.386 209.903,-281.48"/>
<polygon fill="midnightblue" stroke="midnightblue" points="128.932,-261.184 118.431,-262.589 127.516,-268.039 128.932,-261.184"/>
</g>
<!-- Node15 -->
<g id="node15" class="node"><title>Node15</title>
<g id="a_node15"><a xlink:href="classx265_1_1Search.html#ab02df91827cf67796d1605bde60c6aed" target="_top" xlink:title="x265::Search::checkIntra">
<polygon fill="white" stroke="black" points="567,-237.5 567,-256.5 693,-256.5 693,-237.5 567,-237.5"/>
<text text-anchor="middle" x="630" y="-244.5" font-family="Helvetica,sans-Serif" font-size="10.00">x265::Search::checkIntra</text>
</a>
</g>
</g>
<!-- Node1&#45;&gt;Node15 -->
<g id="edge28" class="edge"><title>Node1&#45;&gt;Node15</title>
<path fill="none" stroke="midnightblue" d="M152.493,-252.133C264.561,-250.926 465.227,-248.764 566.659,-247.672"/>
<polygon fill="midnightblue" stroke="midnightblue" points="152.224,-248.636 142.262,-252.243 152.299,-255.635 152.224,-248.636"/>
</g>
<!-- Node19 -->
<g id="node19" class="node"><title>Node19</title>
<g id="a_node19"><a xlink:href="classx265_1_1Search.html#aba5e04ce529f41accd43c540ba1dc7ad" target="_top" xlink:title="x265::Search::encodeResAnd\lCalcRdInterCU">
<polygon fill="white" stroke="black" points="556.5,-276 556.5,-306 703.5,-306 703.5,-276 556.5,-276"/>
<text text-anchor="start" x="564.5" y="-294" font-family="Helvetica,sans-Serif" font-size="10.00">x265::Search::encodeResAnd</text>
<text text-anchor="middle" x="630" y="-283" font-family="Helvetica,sans-Serif" font-size="10.00">CalcRdInterCU</text>
</a>
</g>
</g>
<!-- Node1&#45;&gt;Node19 -->
<g id="edge29" class="edge"><title>Node1&#45;&gt;Node19</title>
<path fill="none" stroke="midnightblue" d="M152.163,-253.261C241.983,-254.282 391.815,-258.169 520,-272 531.841,-273.278 544.34,-275.051 556.483,-277.005"/>
<polygon fill="midnightblue" stroke="midnightblue" points="152.086,-249.76 142.05,-253.155 152.013,-256.759 152.086,-249.76"/>
</g>
<!-- Node3 -->
<g id="node3" class="node"><title>Node3</title>
<g id="a_node3"><a xlink:href="classx265_1_1Analysis.html#aa6122285d10bb1bd7584958b88b029d5" target="_top" xlink:title="x265::Analysis::parallel\lModeAnalysis">
<polygon fill="white" stroke="black" points="571,-415 571,-445 689,-445 689,-415 571,-415"/>
<text text-anchor="start" x="579" y="-433" font-family="Helvetica,sans-Serif" font-size="10.00">x265::Analysis::parallel</text>
<text text-anchor="middle" x="630" y="-422" font-family="Helvetica,sans-Serif" font-size="10.00">ModeAnalysis</text>
</a>
</g>
</g>
<!-- Node2&#45;&gt;Node3 -->
<g id="edge2" class="edge"><title>Node2&#45;&gt;Node3</title>
<path fill="none" stroke="midnightblue" d="M489.59,-367.189C521.9,-381.746 565.697,-401.479 595.522,-414.917"/>
<polygon fill="midnightblue" stroke="midnightblue" points="490.937,-363.957 480.382,-363.04 488.061,-370.339 490.937,-363.957"/>
</g>
<!-- Node5 -->
<g id="node5" class="node"><title>Node5</title>
<g id="a_node5"><a xlink:href="classx265_1_1Analysis.html#a87060ff27a37f56adc5f5b8a4c033ece" target="_top" xlink:title="x265::Analysis::compress\lInterCU_dist">
<polygon fill="white" stroke="black" points="922,-399 922,-429 1052,-429 1052,-399 922,-399"/>
<text text-anchor="start" x="930" y="-417" font-family="Helvetica,sans-Serif" font-size="10.00">x265::Analysis::compress</text>
<text text-anchor="middle" x="987" y="-406" font-family="Helvetica,sans-Serif" font-size="10.00">InterCU_dist</text>
</a>
</g>
</g>
<!-- Node2&#45;&gt;Node5 -->
<g id="edge7" class="edge"><title>Node2&#45;&gt;Node5</title>
<path fill="none" stroke="midnightblue" d="M464.105,-371.068C483.569,-395.576 517.669,-433.547 556,-454 629.752,-493.353 656.861,-484.286 740,-493 804.535,-499.764 824.703,-514.291 886,-493 922.366,-480.368 955.495,-448.412 972.986,-429.236"/>
<polygon fill="midnightblue" stroke="midnightblue" points="466.746,-368.763 457.848,-363.012 461.217,-373.057 466.746,-368.763"/>
</g>
<!-- Node8 -->
<g id="node8" class="node"><title>Node8</title>
<g id="a_node8"><a xlink:href="classx265_1_1Analysis.html#a30d2ff7eca5addbb0a6b3dfe14f09650" target="_top" xlink:title="x265::Analysis::compress\lInterCU_rd0_4">
<polygon fill="white" stroke="black" points="922,-295 922,-325 1052,-325 1052,-295 922,-295"/>
<text text-anchor="start" x="930" y="-313" font-family="Helvetica,sans-Serif" font-size="10.00">x265::Analysis::compress</text>
<text text-anchor="middle" x="987" y="-302" font-family="Helvetica,sans-Serif" font-size="10.00">InterCU_rd0_4</text>
</a>
</g>
</g>
<!-- Node2&#45;&gt;Node8 -->
<g id="edge8" class="edge"><title>Node2&#45;&gt;Node8</title>
<path fill="none" stroke="midnightblue" d="M525.361,-342.475C632.43,-334.927 822.436,-321.531 921.645,-314.537"/>
<polygon fill="midnightblue" stroke="midnightblue" points="524.994,-338.993 515.265,-343.187 525.486,-345.975 524.994,-338.993"/>
</g>
<!-- Node4 -->
<g id="node4" class="node"><title>Node4</title>
<g id="a_node4"><a xlink:href="classx265_1_1Analysis.html#a29a58dad4cc1c07d2f5e5717c6be7c25" target="_top" xlink:title="x265::Analysis::findJob">
<polygon fill="white" stroke="black" points="753.5,-464.5 753.5,-483.5 872.5,-483.5 872.5,-464.5 753.5,-464.5"/>
<text text-anchor="middle" x="813" y="-471.5" font-family="Helvetica,sans-Serif" font-size="10.00">x265::Analysis::findJob</text>
</a>
</g>
</g>
<!-- Node3&#45;&gt;Node4 -->
<g id="edge3" class="edge"><title>Node3&#45;&gt;Node4</title>
<path fill="none" stroke="midnightblue" d="M699.024,-446.536C723.895,-452.582 751.185,-459.216 772.712,-464.449"/>
<polygon fill="midnightblue" stroke="midnightblue" points="699.81,-443.125 689.266,-444.164 698.156,-449.927 699.81,-443.125"/>
</g>
<!-- Node4&#45;&gt;Node5 -->
<g id="edge4" class="edge"><title>Node4&#45;&gt;Node5</title>
<path fill="none" stroke="midnightblue" d="M852.726,-461.279C863.515,-457.684 875.229,-453.733 886,-450 905.352,-443.292 926.723,-435.633 944.723,-429.109"/>
<polygon fill="midnightblue" stroke="midnightblue" points="851.518,-457.992 843.13,-464.465 853.724,-464.636 851.518,-457.992"/>
</g>
<!-- Node6 -->
<g id="node6" class="node"><title>Node6</title>
<g id="a_node6"><a xlink:href="classx265_1_1Analysis.html#aaebc9de2ff98834c650244f3b58942c2" target="_top" xlink:title="x265::Analysis::compressCTU">
<polygon fill="white" stroke="black" points="1088.5,-240.5 1088.5,-259.5 1239.5,-259.5 1239.5,-240.5 1088.5,-240.5"/>
<text text-anchor="middle" x="1164" y="-247.5" font-family="Helvetica,sans-Serif" font-size="10.00">x265::Analysis::compressCTU</text>
</a>
</g>
</g>
<!-- Node5&#45;&gt;Node6 -->
<g id="edge5" class="edge"><title>Node5&#45;&gt;Node6</title>
<path fill="none" stroke="midnightblue" d="M1011.8,-391.693C1050.37,-355.551 1124.97,-285.639 1152.48,-259.859"/>
<polygon fill="midnightblue" stroke="midnightblue" points="1009.05,-389.473 1004.15,-398.865 1013.84,-394.581 1009.05,-389.473"/>
</g>
<!-- Node7 -->
<g id="node7" class="node"><title>Node7</title>
<g id="a_node7"><a xlink:href="classx265_1_1FrameEncoder.html#a0ae85001572afd28238476542523ac5f" target="_top" xlink:title="x265::FrameEncoder\l::processRowEncoder">
<polygon fill="white" stroke="red" points="1276.5,-139 1276.5,-169 1389.5,-169 1389.5,-139 1276.5,-139"/>
<text text-anchor="start" x="1284.5" y="-157" font-family="Helvetica,sans-Serif" font-size="10.00">x265::FrameEncoder</text>
<text text-anchor="middle" x="1333" y="-146" font-family="Helvetica,sans-Serif" font-size="10.00">::processRowEncoder</text>
</a>
</g>
</g>
<!-- Node6&#45;&gt;Node7 -->
<g id="edge6" class="edge"><title>Node6&#45;&gt;Node7</title>
<path fill="none" stroke="midnightblue" d="M1190.57,-235.304C1221.73,-217.391 1274.11,-187.278 1305.63,-169.159"/>
<polygon fill="midnightblue" stroke="midnightblue" points="1188.55,-232.426 1181.62,-240.444 1192.04,-238.495 1188.55,-232.426"/>
</g>
<!-- Node8&#45;&gt;Node6 -->
<g id="edge9" class="edge"><title>Node8&#45;&gt;Node6</title>
<path fill="none" stroke="midnightblue" d="M1041.93,-291.509C1072.82,-280.92 1110.28,-268.077 1135.27,-259.507"/>
<polygon fill="midnightblue" stroke="midnightblue" points="1040.48,-288.305 1032.16,-294.859 1042.75,-294.927 1040.48,-288.305"/>
</g>
<!-- Node10 -->
<g id="node10" class="node"><title>Node10</title>
<g id="a_node10"><a xlink:href="classx265_1_1Entropy.html#abb101b71f310e90eb504a8204babc180" target="_top" xlink:title="x265::Entropy::encodeCTU">
<polygon fill="white" stroke="black" points="378,-49.5 378,-68.5 514,-68.5 514,-49.5 378,-49.5"/>
<text text-anchor="middle" x="446" y="-56.5" font-family="Helvetica,sans-Serif" font-size="10.00">x265::Entropy::encodeCTU</text>
</a>
</g>
</g>
<!-- Node9&#45;&gt;Node10 -->
<g id="edge11" class="edge"><title>Node9&#45;&gt;Node10</title>
<path fill="none" stroke="midnightblue" d="M296.368,-108.279C331.923,-96.4908 384.024,-79.2167 416.158,-68.5625"/>
<polygon fill="midnightblue" stroke="midnightblue" points="295.199,-104.979 286.809,-111.448 297.402,-111.623 295.199,-104.979"/>
</g>
<!-- Node10&#45;&gt;Node7 -->
<g id="edge14" class="edge"><title>Node10&#45;&gt;Node7</title>
<path fill="none" stroke="midnightblue" d="M524.423,-59C598.307,-59 712.745,-59 812,-59 812,-59 812,-59 988,-59 1106.65,-59 1240.28,-112.16 1300.09,-138.947"/>
<polygon fill="midnightblue" stroke="midnightblue" points="524.273,-55.5001 514.273,-59 524.273,-62.5001 524.273,-55.5001"/>
</g>
<!-- Node11 -->
<g id="node11" class="node"><title>Node11</title>
<g id="a_node11"><a xlink:href="classx265_1_1FrameEncoder.html#a6d4045d35bfe6b10c8d0dc39353be360" target="_top" xlink:title="x265::FrameEncoder\l::encodeSlice">
<polygon fill="white" stroke="black" points="576.5,-0 576.5,-30 683.5,-30 683.5,-0 576.5,-0"/>
<text text-anchor="start" x="584.5" y="-18" font-family="Helvetica,sans-Serif" font-size="10.00">x265::FrameEncoder</text>
<text text-anchor="middle" x="630" y="-7" font-family="Helvetica,sans-Serif" font-size="10.00">::encodeSlice</text>
</a>
</g>
</g>
<!-- Node10&#45;&gt;Node11 -->
<g id="edge12" class="edge"><title>Node10&#45;&gt;Node11</title>
<path fill="none" stroke="midnightblue" d="M496.414,-47.0538C521.206,-41.0601 551.245,-33.798 576.457,-27.7026"/>
<polygon fill="midnightblue" stroke="midnightblue" points="495.389,-43.7007 486.491,-49.4527 497.034,-50.5047 495.389,-43.7007"/>
</g>
<!-- Node12 -->
<g id="node12" class="node"><title>Node12</title>
<g id="a_node12"><a xlink:href="classx265_1_1FrameEncoder.html#a2f5c4c0f1a4e36fce4c9b87eb7ec4973" target="_top" xlink:title="x265::FrameEncoder\l::compressFrame">
<polygon fill="white" stroke="red" points="759.5,-0 759.5,-30 866.5,-30 866.5,-0 759.5,-0"/>
<text text-anchor="start" x="767.5" y="-18" font-family="Helvetica,sans-Serif" font-size="10.00">x265::FrameEncoder</text>
<text text-anchor="middle" x="813" y="-7" font-family="Helvetica,sans-Serif" font-size="10.00">::compressFrame</text>
</a>
</g>
</g>
<!-- Node11&#45;&gt;Node12 -->
<g id="edge13" class="edge"><title>Node11&#45;&gt;Node12</title>
<path fill="none" stroke="midnightblue" d="M694.103,-15C715.425,-15 738.988,-15 759.408,-15"/>
<polygon fill="midnightblue" stroke="midnightblue" points="693.839,-11.5001 683.839,-15 693.839,-18.5001 693.839,-11.5001"/>
</g>
<!-- Node13&#45;&gt;Node2 -->
<g id="edge16" class="edge"><title>Node13&#45;&gt;Node2</title>
<path fill="none" stroke="midnightblue" d="M298.937,-303.478C327.4,-312.154 365.49,-323.764 395.636,-332.953"/>
<polygon fill="midnightblue" stroke="midnightblue" points="299.886,-300.108 289.3,-300.541 297.845,-306.804 299.886,-300.108"/>
</g>
<!-- Node14 -->
<g id="node14" class="node"><title>Node14</title>
<g id="a_node14"><a xlink:href="classx265_1_1Search.html#a1778d2ab96ac88c7f76d36818d6adbdd" target="_top" xlink:title="x265::Search::estIntraPredQT">
<polygon fill="white" stroke="black" points="372.5,-281.5 372.5,-300.5 519.5,-300.5 519.5,-281.5 372.5,-281.5"/>
<text text-anchor="middle" x="446" y="-288.5" font-family="Helvetica,sans-Serif" font-size="10.00">x265::Search::estIntraPredQT</text>
</a>
</g>
</g>
<!-- Node13&#45;&gt;Node14 -->
<g id="edge17" class="edge"><title>Node13&#45;&gt;Node14</title>
<path fill="none" stroke="midnightblue" d="M346.419,-291C355.144,-291 363.928,-291 372.467,-291"/>
<polygon fill="midnightblue" stroke="midnightblue" points="346.221,-287.5 336.221,-291 346.221,-294.5 346.221,-287.5"/>
</g>
<!-- Node14&#45;&gt;Node15 -->
<g id="edge18" class="edge"><title>Node14&#45;&gt;Node15</title>
<path fill="none" stroke="midnightblue" d="M496.508,-279.031C525.762,-271.959 562.295,-263.126 589.586,-256.529"/>
<polygon fill="midnightblue" stroke="midnightblue" points="495.389,-275.701 486.491,-281.453 497.034,-282.505 495.389,-275.701"/>
</g>
<!-- Node16 -->
<g id="node16" class="node"><title>Node16</title>
<g id="a_node16"><a xlink:href="classx265_1_1Analysis.html#a10f0a8d9d143faf8dc671c6f0982693d" target="_top" xlink:title="x265::Analysis::tryLossless">
<polygon fill="white" stroke="black" points="744.5,-262.5 744.5,-281.5 881.5,-281.5 881.5,-262.5 744.5,-262.5"/>
<text text-anchor="middle" x="813" y="-269.5" font-family="Helvetica,sans-Serif" font-size="10.00">x265::Analysis::tryLossless</text>
</a>
</g>
</g>
<!-- Node15&#45;&gt;Node16 -->
<g id="edge19" class="edge"><title>Node15&#45;&gt;Node16</title>
<path fill="none" stroke="midnightblue" d="M703.293,-256.985C716.879,-258.862 731.037,-260.817 744.471,-262.673"/>
<polygon fill="midnightblue" stroke="midnightblue" points="703.422,-253.47 693.037,-255.569 702.464,-260.404 703.422,-253.47"/>
</g>
<!-- Node17 -->
<g id="node17" class="node"><title>Node17</title>
<g id="a_node17"><a xlink:href="classx265_1_1Analysis.html#aae2a6a2252270782b591d2bed7e99dae" target="_top" xlink:title="x265::Analysis::compress\lIntraCU">
<polygon fill="white" stroke="black" points="922,-235 922,-265 1052,-265 1052,-235 922,-235"/>
<text text-anchor="start" x="930" y="-253" font-family="Helvetica,sans-Serif" font-size="10.00">x265::Analysis::compress</text>
<text text-anchor="middle" x="987" y="-242" font-family="Helvetica,sans-Serif" font-size="10.00">IntraCU</text>
</a>
</g>
</g>
<!-- Node15&#45;&gt;Node17 -->
<g id="edge26" class="edge"><title>Node15&#45;&gt;Node17</title>
<path fill="none" stroke="midnightblue" d="M703.277,-247.611C767.388,-248.153 860.16,-248.937 921.729,-249.457"/>
<polygon fill="midnightblue" stroke="midnightblue" points="703.272,-244.111 693.243,-247.526 703.213,-251.11 703.272,-244.111"/>
</g>
<!-- Node18 -->
<g id="node18" class="node"><title>Node18</title>
<g id="a_node18"><a xlink:href="classx265_1_1Analysis.html#a0b22b7765aa4a36b1ba6d07ba26901e6" target="_top" xlink:title="x265::Analysis::compress\lInterCU_rd5_6">
<polygon fill="white" stroke="black" points="922,-175 922,-205 1052,-205 1052,-175 922,-175"/>
<text text-anchor="start" x="930" y="-193" font-family="Helvetica,sans-Serif" font-size="10.00">x265::Analysis::compress</text>
<text text-anchor="middle" x="987" y="-182" font-family="Helvetica,sans-Serif" font-size="10.00">InterCU_rd5_6</text>
</a>
</g>
</g>
<!-- Node15&#45;&gt;Node18 -->
<g id="edge27" class="edge"><title>Node15&#45;&gt;Node18</title>
<path fill="none" stroke="midnightblue" d="M639.822,-228.201C655.22,-197.914 690.18,-139.357 740,-116 798.752,-88.455 824.375,-95.6784 886,-116 921.074,-127.566 953.91,-156.698 971.848,-174.769"/>
<polygon fill="midnightblue" stroke="midnightblue" points="636.622,-226.777 635.357,-237.297 642.905,-229.862 636.622,-226.777"/>
</g>
<!-- Node16&#45;&gt;Node5 -->
<g id="edge22" class="edge"><title>Node16&#45;&gt;Node5</title>
<path fill="none" stroke="midnightblue" d="M833.684,-288.251C867.268,-315.977 935.159,-372.027 967.742,-398.927"/>
<polygon fill="midnightblue" stroke="midnightblue" points="835.492,-285.205 825.552,-281.538 831.036,-290.603 835.492,-285.205"/>
</g>
<!-- Node16&#45;&gt;Node8 -->
<g id="edge23" class="edge"><title>Node16&#45;&gt;Node8</title>
<path fill="none" stroke="midnightblue" d="M867.293,-283.774C884.54,-287.584 903.849,-291.85 921.801,-295.816"/>
<polygon fill="midnightblue" stroke="midnightblue" points="867.922,-280.329 857.403,-281.589 866.412,-287.164 867.922,-280.329"/>
</g>
<!-- Node16&#45;&gt;Node17 -->
<g id="edge20" class="edge"><title>Node16&#45;&gt;Node17</title>
<path fill="none" stroke="midnightblue" d="M891.928,-262.032C901.947,-260.751 912.114,-259.451 921.877,-258.202"/>
<polygon fill="midnightblue" stroke="midnightblue" points="891.454,-258.564 881.979,-263.305 892.342,-265.508 891.454,-258.564"/>
</g>
<!-- Node16&#45;&gt;Node18 -->
<g id="edge24" class="edge"><title>Node16&#45;&gt;Node18</title>
<path fill="none" stroke="midnightblue" d="M843.44,-257.965C874.336,-243.235 922.731,-220.163 954.41,-205.06"/>
<polygon fill="midnightblue" stroke="midnightblue" points="841.588,-254.97 834.067,-262.433 844.6,-261.289 841.588,-254.97"/>
</g>
<!-- Node17&#45;&gt;Node6 -->
<g id="edge21" class="edge"><title>Node17&#45;&gt;Node6</title>
<path fill="none" stroke="midnightblue" d="M1062.25,-250C1070.93,-250 1079.78,-250 1088.47,-250"/>
<polygon fill="midnightblue" stroke="midnightblue" points="1062.17,-246.5 1052.17,-250 1062.17,-253.5 1062.17,-246.5"/>
</g>
<!-- Node18&#45;&gt;Node6 -->
<g id="edge25" class="edge"><title>Node18&#45;&gt;Node6</title>
<path fill="none" stroke="midnightblue" d="M1041.93,-208.491C1072.82,-219.08 1110.28,-231.923 1135.27,-240.493"/>
<polygon fill="midnightblue" stroke="midnightblue" points="1042.75,-205.073 1032.16,-205.141 1040.48,-211.695 1042.75,-205.073"/>
</g>
<!-- Node19&#45;&gt;Node5 -->
<g id="edge31" class="edge"><title>Node19&#45;&gt;Node5</title>
<path fill="none" stroke="midnightblue" d="M643.57,-315.265C660.722,-345.399 694.591,-395.348 740,-416 797.345,-442.08 870.274,-437.443 921.793,-428.828"/>
<polygon fill="midnightblue" stroke="midnightblue" points="646.488,-313.308 638.596,-306.24 640.358,-316.687 646.488,-313.308"/>
</g>
<!-- Node19&#45;&gt;Node8 -->
<g id="edge32" class="edge"><title>Node19&#45;&gt;Node8</title>
<path fill="none" stroke="midnightblue" d="M714.065,-295.446C777.468,-298.839 863.549,-303.446 921.744,-306.561"/>
<polygon fill="midnightblue" stroke="midnightblue" points="713.869,-291.93 703.696,-294.891 713.495,-298.92 713.869,-291.93"/>
</g>
<!-- Node19&#45;&gt;Node16 -->
<g id="edge30" class="edge"><title>Node19&#45;&gt;Node16</title>
<path fill="none" stroke="midnightblue" d="M713.766,-282.312C724.02,-281.236 734.407,-280.145 744.395,-279.097"/>
<polygon fill="midnightblue" stroke="midnightblue" points="713.157,-278.857 703.577,-283.381 713.887,-285.818 713.157,-278.857"/>
</g>
<!-- Node20 -->
<g id="node20" class="node"><title>Node20</title>
<g id="a_node20"><a xlink:href="classx265_1_1Analysis.html#addd72cb95590e2b2a6965d42d110eab3" target="_top" xlink:title="x265::Analysis::checkMerge2\lNx2N_rd0_4">
<polygon fill="white" stroke="black" points="740,-377 740,-407 886,-407 886,-377 740,-377"/>
<text text-anchor="start" x="748" y="-395" font-family="Helvetica,sans-Serif" font-size="10.00">x265::Analysis::checkMerge2</text>
<text text-anchor="middle" x="813" y="-384" font-family="Helvetica,sans-Serif" font-size="10.00">Nx2N_rd0_4</text>
</a>
</g>
</g>
<!-- Node19&#45;&gt;Node20 -->
<g id="edge33" class="edge"><title>Node19&#45;&gt;Node20</title>
<path fill="none" stroke="midnightblue" d="M666.983,-311.079C701.756,-330.483 753.648,-359.439 785.013,-376.941"/>
<polygon fill="midnightblue" stroke="midnightblue" points="668.535,-307.937 658.098,-306.121 665.124,-314.05 668.535,-307.937"/>
</g>
<!-- Node21 -->
<g id="node21" class="node"><title>Node21</title>
<g id="a_node21"><a xlink:href="classx265_1_1Analysis.html#a0194a9da53aa95173fa1132ba3aea1c7" target="_top" xlink:title="x265::Analysis::checkMerge2\lNx2N_rd5_6">
<polygon fill="white" stroke="black" points="740,-175 740,-205 886,-205 886,-175 740,-175"/>
<text text-anchor="start" x="748" y="-193" font-family="Helvetica,sans-Serif" font-size="10.00">x265::Analysis::checkMerge2</text>
<text text-anchor="middle" x="813" y="-182" font-family="Helvetica,sans-Serif" font-size="10.00">Nx2N_rd5_6</text>
</a>
</g>
</g>
<!-- Node19&#45;&gt;Node21 -->
<g id="edge36" class="edge"><title>Node19&#45;&gt;Node21</title>
<path fill="none" stroke="midnightblue" d="M690.701,-272.138C695.267,-270.217 699.748,-268.168 704,-266 737.905,-248.71 773.25,-221.887 793.912,-205.164"/>
<polygon fill="midnightblue" stroke="midnightblue" points="689.254,-268.946 681.258,-275.897 691.843,-275.45 689.254,-268.946"/>
</g>
<!-- Node22 -->
<g id="node22" class="node"><title>Node22</title>
<g id="a_node22"><a xlink:href="classx265_1_1Analysis.html#a828daa3e9f1ed40a1af9f99f7ff7bb33" target="_top" xlink:title="x265::Analysis::checkInter\l_rd5_6">
<polygon fill="white" stroke="black" points="746.5,-126 746.5,-156 879.5,-156 879.5,-126 746.5,-126"/>
<text text-anchor="start" x="754.5" y="-144" font-family="Helvetica,sans-Serif" font-size="10.00">x265::Analysis::checkInter</text>
<text text-anchor="middle" x="813" y="-133" font-family="Helvetica,sans-Serif" font-size="10.00">_rd5_6</text>
</a>
</g>
</g>
<!-- Node19&#45;&gt;Node22 -->
<g id="edge38" class="edge"><title>Node19&#45;&gt;Node22</title>
<path fill="none" stroke="midnightblue" d="M699.358,-270.096C700.982,-268.811 702.535,-267.447 704,-266 737.906,-232.513 705.957,-198.348 740,-165 743.483,-161.588 747.463,-158.662 751.723,-156.151"/>
<polygon fill="midnightblue" stroke="midnightblue" points="697.074,-267.412 690.713,-275.885 700.97,-273.228 697.074,-267.412"/>
</g>
<!-- Node20&#45;&gt;Node5 -->
<g id="edge34" class="edge"><title>Node20&#45;&gt;Node5</title>
<path fill="none" stroke="midnightblue" d="M896.422,-402.542C904.957,-403.634 913.539,-404.732 921.831,-405.792"/>
<polygon fill="midnightblue" stroke="midnightblue" points="896.808,-399.063 886.445,-401.266 895.92,-406.007 896.808,-399.063"/>
</g>
<!-- Node20&#45;&gt;Node8 -->
<g id="edge35" class="edge"><title>Node20&#45;&gt;Node8</title>
<path fill="none" stroke="midnightblue" d="M861.244,-372.988C869.548,-369.456 878.067,-365.707 886,-362 910.819,-350.402 938.399,-335.937 958.298,-325.21"/>
<polygon fill="midnightblue" stroke="midnightblue" points="859.868,-369.77 852.005,-376.871 862.58,-376.223 859.868,-369.77"/>
</g>
<!-- Node21&#45;&gt;Node18 -->
<g id="edge37" class="edge"><title>Node21&#45;&gt;Node18</title>
<path fill="none" stroke="midnightblue" d="M896.701,-190C905.144,-190 913.629,-190 921.831,-190"/>
<polygon fill="midnightblue" stroke="midnightblue" points="896.445,-186.5 886.445,-190 896.445,-193.5 896.445,-186.5"/>
</g>
<!-- Node22&#45;&gt;Node18 -->
<g id="edge39" class="edge"><title>Node22&#45;&gt;Node18</title>
<path fill="none" stroke="midnightblue" d="M876.812,-158.894C895.312,-164.164 915.359,-169.876 933.166,-174.948"/>
<polygon fill="midnightblue" stroke="midnightblue" points="877.585,-155.475 867.009,-156.101 875.668,-162.207 877.585,-155.475"/>
</g>
</g>
</svg>
        <g id="navigator" transform="translate(0 0)" fill="#404254">
                <rect fill="#f2f5e9" fill-opacity="0.5" stroke="#606060" stroke-width=".5" x="0" y="0" width="60" height="60"/>
                <use id="zoomplus" xlink:href="#zoomPlus" x="17" y="9" onmousedown="handleZoom(evt,'in')"/>
                <use id="zoomminus" xlink:href="#zoomMin" x="42" y="9" onmousedown="handleZoom(evt,'out')"/>
                <use id="reset" xlink:href="#resetDef" x="30" y="36" onmousedown="handleReset()"/>
                <g id="arrowUp" xlink:href="#dirArrow" transform="translate(30 24)" onmousedown="handlePan(0,-1)">
                  <use xlink:href="#rim" fill="#404040">
                        <set attributeName="fill" to="#808080" begin="arrowUp.mouseover" end="arrowUp.mouseout"/>
                  </use>
                  <path fill="none" stroke="white" stroke-width="1.5" d="M0,-3.0v7 M-2.5,-0.5L0,-3.0L2.5,-0.5"/>
                </g>
                <g id="arrowRight" xlink:href="#dirArrow" transform="rotate(90) translate(36 -43)" onmousedown="handlePan(1,0)">
                  <use xlink:href="#rim" fill="#404040">
                        <set attributeName="fill" to="#808080" begin="arrowRight.mouseover" end="arrowRight.mouseout"/>
                  </use>
                  <path fill="none" stroke="white" stroke-width="1.5" d="M0,-3.0v7 M-2.5,-0.5L0,-3.0L2.5,-0.5"/>
                </g>
                <g id="arrowDown" xlink:href="#dirArrow" transform="rotate(180) translate(-30 -48)" onmousedown="handlePan(0,1)">
                  <use xlink:href="#rim" fill="#404040">
                        <set attributeName="fill" to="#808080" begin="arrowDown.mouseover" end="arrowDown.mouseout"/>
                  </use>
                  <path fill="none" stroke="white" stroke-width="1.5" d="M0,-3.0v7 M-2.5,-0.5L0,-3.0L2.5,-0.5"/>
                </g>
                <g id="arrowLeft" xlink:href="#dirArrow" transform="rotate(270) translate(-36 17)" onmousedown="handlePan(-1,0)">
                  <use xlink:href="#rim" fill="#404040">
                        <set attributeName="fill" to="#808080" begin="arrowLeft.mouseover" end="arrowLeft.mouseout"/>
                  </use>
                  <path fill="none" stroke="white" stroke-width="1.5" d="M0,-3.0v7 M-2.5,-0.5L0,-3.0L2.5,-0.5"/>
                </g>
        </g>
        <svg viewBox="0 0 15 15" width="100%" height="30px" preserveAspectRatio="xMaxYMin meet">
         <g id="arrow_out" transform="scale(0.3 0.3)">
          <a xlink:href="classx265_1_1Entropy_a8f9e9a25bfc30ae5dd32ecc364b1512a_icgraph_org.svg" target="_base">
           <rect id="button" ry="5" rx="5" y="6" x="6" height="38" width="38"
                fill="#f2f5e9" fill-opacity="0.5" stroke="#606060" stroke-width="1.0"/>
           <path id="arrow"
             d="M 11.500037,31.436501 C 11.940474,20.09759 22.043105,11.32322 32.158766,21.979434 L 37.068811,17.246167 C 37.068811,17.246167 37.088388,32 37.088388,32 L 22.160133,31.978069 C 22.160133,31.978069 26.997745,27.140456 26.997745,27.140456 C 18.528582,18.264221 13.291696,25.230495 11.500037,31.436501 z"
             style="fill:#404040;"/>
          </a>
         </g>
        </svg>
</svg>
