<?xml version="1.0" encoding="UTF-8" standalone="no"?>
<!DOCTYPE svg PUBLIC "-//W3C//DTD SVG 1.1//EN"
 "http://www.w3.org/Graphics/SVG/1.1/DTD/svg11.dtd">
<!-- Generated by graphviz version 2.36.0 (20140111.2315)
 -->
<!-- Title: x265::Quant::getSigCoeffGroupCtxInc Pages: 1 -->
<svg width="1800pt" height="494pt"
 viewBox="0.00 0.00 1800.00 494.04" xmlns="http://www.w3.org/2000/svg" xmlns:xlink="http://www.w3.org/1999/xlink">
<g id="graph0" class="graph" transform="scale(1 1) rotate(0) translate(4 490.042)">
<title>x265::Quant::getSigCoeffGroupCtxInc</title>
<polygon fill="white" stroke="none" points="-4,4 -4,-490.042 1796,-490.042 1796,4 -4,4"/>
<!-- Node1 -->
<g id="node1" class="node"><title>Node1</title>
<polygon fill="#bfbfbf" stroke="black" points="0,-264.042 0,-294.042 128,-294.042 128,-264.042 0,-264.042"/>
<text text-anchor="start" x="8" y="-282.042" font-family="Helvetica,sans-Serif" font-size="10.00">x265::Quant::getSigCoeff</text>
<text text-anchor="middle" x="64" y="-271.042" font-family="Helvetica,sans-Serif" font-size="10.00">GroupCtxInc</text>
</g>
<!-- Node2 -->
<g id="node2" class="node"><title>Node2</title>
<g id="a_node2"><a xlink:href="classx265_1_1Quant.html#ab353c26be0707486eecf784d618fc385" target="_top" xlink:title="x265::Quant::rdoQuant">
<polygon fill="white" stroke="black" points="164,-294.542 164,-313.542 280,-313.542 280,-294.542 164,-294.542"/>
<text text-anchor="middle" x="222" y="-301.542" font-family="Helvetica,sans-Serif" font-size="10.00">x265::Quant::rdoQuant</text>
</a>
</g>
</g>
<!-- Node1&#45;&gt;Node2 -->
<g id="edge1" class="edge"><title>Node1&#45;&gt;Node2</title>
<path fill="none" stroke="midnightblue" d="M138.079,-290.754C146.716,-292.138 155.434,-293.535 163.808,-294.877"/>
<polygon fill="midnightblue" stroke="midnightblue" points="138.429,-287.265 128.002,-289.139 137.322,-294.177 138.429,-287.265"/>
</g>
<!-- Node25 -->
<g id="node25" class="node"><title>Node25</title>
<g id="a_node25"><a xlink:href="classx265_1_1Entropy.html#a955a0c3b2662c4af07b55b071370136b" target="_top" xlink:title="x265::Entropy::codeCoeffNxN">
<polygon fill="white" stroke="black" points="494.5,-231.542 494.5,-250.542 643.5,-250.542 643.5,-231.542 494.5,-231.542"/>
<text text-anchor="middle" x="569" y="-238.542" font-family="Helvetica,sans-Serif" font-size="10.00">x265::Entropy::codeCoeffNxN</text>
</a>
</g>
</g>
<!-- Node1&#45;&gt;Node25 -->
<g id="edge40" class="edge"><title>Node1&#45;&gt;Node25</title>
<path fill="none" stroke="midnightblue" d="M138.326,-273.503C233.62,-266.304 399.073,-253.804 494.468,-246.597"/>
<polygon fill="midnightblue" stroke="midnightblue" points="137.904,-270.025 128.196,-274.268 138.431,-277.005 137.904,-270.025"/>
</g>
<!-- Node3 -->
<g id="node3" class="node"><title>Node3</title>
<g id="a_node3"><a xlink:href="classx265_1_1Quant.html#a2d9fecd5e50c8f9ba36dd799a1f07d5c" target="_top" xlink:title="x265::Quant::transformNxN">
<polygon fill="white" stroke="black" points="316.5,-319.542 316.5,-338.542 453.5,-338.542 453.5,-319.542 316.5,-319.542"/>
<text text-anchor="middle" x="385" y="-326.542" font-family="Helvetica,sans-Serif" font-size="10.00">x265::Quant::transformNxN</text>
</a>
</g>
</g>
<!-- Node2&#45;&gt;Node3 -->
<g id="edge2" class="edge"><title>Node2&#45;&gt;Node3</title>
<path fill="none" stroke="midnightblue" d="M290.346,-314.5C301.041,-316.16 312.053,-317.87 322.602,-319.508"/>
<polygon fill="midnightblue" stroke="midnightblue" points="290.635,-311.003 280.216,-312.927 289.56,-317.92 290.635,-311.003"/>
</g>
<!-- Node4 -->
<g id="node4" class="node"><title>Node4</title>
<g id="a_node4"><a xlink:href="classx265_1_1Search.html#a9d5a7faa13067f95fe76558afc63c31b" target="_top" xlink:title="x265::Search::calcIntraChroma\lRecon">
<polygon fill="white" stroke="black" points="493,-270.042 493,-300.042 645,-300.042 645,-270.042 493,-270.042"/>
<text text-anchor="start" x="501" y="-288.042" font-family="Helvetica,sans-Serif" font-size="10.00">x265::Search::calcIntraChroma</text>
<text text-anchor="middle" x="569" y="-277.042" font-family="Helvetica,sans-Serif" font-size="10.00">Recon</text>
</a>
</g>
</g>
<!-- Node3&#45;&gt;Node4 -->
<g id="edge3" class="edge"><title>Node3&#45;&gt;Node4</title>
<path fill="none" stroke="midnightblue" d="M435.45,-317.087C457.101,-311.853 482.747,-305.653 505.684,-300.108"/>
<polygon fill="midnightblue" stroke="midnightblue" points="434.389,-313.743 425.491,-319.495 436.034,-320.547 434.389,-313.743"/>
</g>
<!-- Node13 -->
<g id="node13" class="node"><title>Node13</title>
<g id="a_node13"><a xlink:href="classx265_1_1Search.html#a59b84ac1e21c86af579b6e84e43c5b7a" target="_top" xlink:title="x265::Search::codeIntraLumaQT">
<polygon fill="white" stroke="black" points="693,-319.542 693,-338.542 851,-338.542 851,-319.542 693,-319.542"/>
<text text-anchor="middle" x="772" y="-326.542" font-family="Helvetica,sans-Serif" font-size="10.00">x265::Search::codeIntraLumaQT</text>
</a>
</g>
</g>
<!-- Node3&#45;&gt;Node13 -->
<g id="edge15" class="edge"><title>Node3&#45;&gt;Node13</title>
<path fill="none" stroke="midnightblue" d="M463.541,-329.042C530.269,-329.042 626.079,-329.042 692.954,-329.042"/>
<polygon fill="midnightblue" stroke="midnightblue" points="463.502,-325.542 453.502,-329.042 463.502,-332.542 463.502,-325.542"/>
</g>
<!-- Node15 -->
<g id="node15" class="node"><title>Node15</title>
<g id="a_node15"><a xlink:href="classx265_1_1Search.html#a8179474a0f2f2b7b84da90802f92b06e" target="_top" xlink:title="x265::Search::residualTransform\lQuantIntra">
<polygon fill="white" stroke="black" points="490,-407.042 490,-437.042 648,-437.042 648,-407.042 490,-407.042"/>
<text text-anchor="start" x="498" y="-425.042" font-family="Helvetica,sans-Serif" font-size="10.00">x265::Search::residualTransform</text>
<text text-anchor="middle" x="569" y="-414.042" font-family="Helvetica,sans-Serif" font-size="10.00">QuantIntra</text>
</a>
</g>
</g>
<!-- Node3&#45;&gt;Node15 -->
<g id="edge19" class="edge"><title>Node3&#45;&gt;Node15</title>
<path fill="none" stroke="midnightblue" d="M406.318,-344.709C426.604,-359.762 459.124,-382.332 490,-397.042 497.703,-400.712 506.079,-404.035 514.391,-406.972"/>
<polygon fill="midnightblue" stroke="midnightblue" points="408.256,-341.787 398.161,-338.57 404.046,-347.38 408.256,-341.787"/>
</g>
<!-- Node18 -->
<g id="node18" class="node"><title>Node18</title>
<g id="a_node18"><a xlink:href="classx265_1_1Search.html#a42170100e328cf2504b615ecb2579094" target="_top" xlink:title="x265::Search::residualQTIntra\lChroma">
<polygon fill="white" stroke="black" points="495.5,-358.042 495.5,-388.042 642.5,-388.042 642.5,-358.042 495.5,-358.042"/>
<text text-anchor="start" x="503.5" y="-376.042" font-family="Helvetica,sans-Serif" font-size="10.00">x265::Search::residualQTIntra</text>
<text text-anchor="middle" x="569" y="-365.042" font-family="Helvetica,sans-Serif" font-size="10.00">Chroma</text>
</a>
</g>
</g>
<!-- Node3&#45;&gt;Node18 -->
<g id="edge24" class="edge"><title>Node3&#45;&gt;Node18</title>
<path fill="none" stroke="midnightblue" d="M435.45,-340.997C457.101,-346.231 482.747,-352.432 505.684,-357.977"/>
<polygon fill="midnightblue" stroke="midnightblue" points="436.034,-337.538 425.491,-338.59 434.389,-344.342 436.034,-337.538"/>
</g>
<!-- Node19 -->
<g id="node19" class="node"><title>Node19</title>
<g id="a_node19"><a xlink:href="classx265_1_1Search.html#a11ea3fb9c65e98f50e348de22593748c" target="_top" xlink:title="x265::Search::residualTransform\lQuantInter">
<polygon fill="white" stroke="black" points="490,-456.042 490,-486.042 648,-486.042 648,-456.042 490,-456.042"/>
<text text-anchor="start" x="498" y="-474.042" font-family="Helvetica,sans-Serif" font-size="10.00">x265::Search::residualTransform</text>
<text text-anchor="middle" x="569" y="-463.042" font-family="Helvetica,sans-Serif" font-size="10.00">QuantInter</text>
</a>
</g>
</g>
<!-- Node3&#45;&gt;Node19 -->
<g id="edge27" class="edge"><title>Node3&#45;&gt;Node19</title>
<path fill="none" stroke="midnightblue" d="M397.497,-347.219C414.624,-372.864 449.229,-419.496 490,-446.042 495.839,-449.844 502.301,-453.107 508.932,-455.897"/>
<polygon fill="midnightblue" stroke="midnightblue" points="400.397,-345.257 392,-338.796 394.535,-349.083 400.397,-345.257"/>
</g>
<!-- Node20 -->
<g id="node20" class="node"><title>Node20</title>
<g id="a_node20"><a xlink:href="classx265_1_1Search.html#a9f01b6f04dca31dca9f16e60d1c029b3" target="_top" xlink:title="x265::Search::xEstimateResidualQT">
<polygon fill="white" stroke="black" points="896,-130.542 896,-149.542 1072,-149.542 1072,-130.542 896,-130.542"/>
<text text-anchor="middle" x="984" y="-137.542" font-family="Helvetica,sans-Serif" font-size="10.00">x265::Search::xEstimateResidualQT</text>
</a>
</g>
</g>
<!-- Node3&#45;&gt;Node20 -->
<g id="edge30" class="edge"><title>Node3&#45;&gt;Node20</title>
<path fill="none" stroke="midnightblue" d="M399.842,-311.713C418.549,-289.073 453.753,-249.133 490,-222.042 568.028,-163.724 589.426,-143.389 684,-120.042 776.432,-97.224 889.505,-117.249 946.475,-130.525"/>
<polygon fill="midnightblue" stroke="midnightblue" points="397.116,-309.517 393.512,-319.48 402.543,-313.939 397.116,-309.517"/>
</g>
<!-- Node5 -->
<g id="node5" class="node"><title>Node5</title>
<g id="a_node5"><a xlink:href="classx265_1_1Search.html#a0ec5d297bb4eba4e9445ff67b35b95fa" target="_top" xlink:title="x265::Search::codeIntraChromaQt">
<polygon fill="white" stroke="black" points="689,-281.542 689,-300.542 855,-300.542 855,-281.542 689,-281.542"/>
<text text-anchor="middle" x="772" y="-288.542" font-family="Helvetica,sans-Serif" font-size="10.00">x265::Search::codeIntraChromaQt</text>
</a>
</g>
</g>
<!-- Node4&#45;&gt;Node5 -->
<g id="edge4" class="edge"><title>Node4&#45;&gt;Node5</title>
<path fill="none" stroke="midnightblue" d="M655.271,-287.588C666.407,-287.92 677.8,-288.26 688.883,-288.591"/>
<polygon fill="midnightblue" stroke="midnightblue" points="655.231,-284.085 645.131,-287.285 655.022,-291.082 655.231,-284.085"/>
</g>
<!-- Node6 -->
<g id="node6" class="node"><title>Node6</title>
<g id="a_node6"><a xlink:href="classx265_1_1Search.html#a70d466b561a7463b8ec5a213384ae667" target="_top" xlink:title="x265::Search::estIntraPred\lChromaQT">
<polygon fill="white" stroke="black" points="917,-244.042 917,-274.042 1051,-274.042 1051,-244.042 917,-244.042"/>
<text text-anchor="start" x="925" y="-262.042" font-family="Helvetica,sans-Serif" font-size="10.00">x265::Search::estIntraPred</text>
<text text-anchor="middle" x="984" y="-251.042" font-family="Helvetica,sans-Serif" font-size="10.00">ChromaQT</text>
</a>
</g>
</g>
<!-- Node5&#45;&gt;Node6 -->
<g id="edge5" class="edge"><title>Node5&#45;&gt;Node6</title>
<path fill="none" stroke="midnightblue" d="M845.537,-279.989C868.667,-276.465 894.127,-272.585 916.784,-269.132"/>
<polygon fill="midnightblue" stroke="midnightblue" points="844.797,-276.561 835.438,-281.528 845.852,-283.481 844.797,-276.561"/>
</g>
<!-- Node7 -->
<g id="node7" class="node"><title>Node7</title>
<g id="a_node7"><a xlink:href="classx265_1_1Analysis.html#ae4d61bcf4d2c22a054d68d6d77136428" target="_top" xlink:title="x265::Analysis::encodeIntra\lInInter">
<polygon fill="white" stroke="red" points="1113,-288.042 1113,-318.042 1251,-318.042 1251,-288.042 1113,-288.042"/>
<text text-anchor="start" x="1121" y="-306.042" font-family="Helvetica,sans-Serif" font-size="10.00">x265::Analysis::encodeIntra</text>
<text text-anchor="middle" x="1182" y="-295.042" font-family="Helvetica,sans-Serif" font-size="10.00">InInter</text>
</a>
</g>
</g>
<!-- Node6&#45;&gt;Node7 -->
<g id="edge6" class="edge"><title>Node6&#45;&gt;Node7</title>
<path fill="none" stroke="midnightblue" d="M1061.19,-276.145C1078.56,-280.046 1096.9,-284.163 1113.87,-287.972"/>
<polygon fill="midnightblue" stroke="midnightblue" points="1061.61,-272.653 1051.08,-273.877 1060.07,-279.483 1061.61,-272.653"/>
</g>
<!-- Node11 -->
<g id="node11" class="node"><title>Node11</title>
<g id="a_node11"><a xlink:href="classx265_1_1Search.html#ab02df91827cf67796d1605bde60c6aed" target="_top" xlink:title="x265::Search::checkIntra">
<polygon fill="white" stroke="red" points="1119,-247.542 1119,-266.542 1245,-266.542 1245,-247.542 1119,-247.542"/>
<text text-anchor="middle" x="1182" y="-254.542" font-family="Helvetica,sans-Serif" font-size="10.00">x265::Search::checkIntra</text>
</a>
</g>
</g>
<!-- Node6&#45;&gt;Node11 -->
<g id="edge11" class="edge"><title>Node6&#45;&gt;Node11</title>
<path fill="none" stroke="midnightblue" d="M1061.24,-258.264C1080.31,-258.07 1100.54,-257.863 1118.84,-257.677"/>
<polygon fill="midnightblue" stroke="midnightblue" points="1061.05,-254.766 1051.08,-258.368 1061.12,-261.766 1061.05,-254.766"/>
</g>
<!-- Node8 -->
<g id="node8" class="node"><title>Node8</title>
<g id="a_node8"><a xlink:href="classx265_1_1Analysis.html#a87060ff27a37f56adc5f5b8a4c033ece" target="_top" xlink:title="x265::Analysis::compress\lInterCU_dist">
<polygon fill="white" stroke="black" points="1474,-168.042 1474,-198.042 1604,-198.042 1604,-168.042 1474,-168.042"/>
<text text-anchor="start" x="1482" y="-186.042" font-family="Helvetica,sans-Serif" font-size="10.00">x265::Analysis::compress</text>
<text text-anchor="middle" x="1539" y="-175.042" font-family="Helvetica,sans-Serif" font-size="10.00">InterCU_dist</text>
</a>
</g>
</g>
<!-- Node7&#45;&gt;Node8 -->
<g id="edge7" class="edge"><title>Node7&#45;&gt;Node8</title>
<path fill="none" stroke="midnightblue" d="M1261.17,-305.668C1325.41,-306.312 1410.21,-303.216 1438,-284.042 1469.1,-262.589 1446.26,-232.686 1474,-207.042 1477.75,-203.579 1482.04,-200.601 1486.59,-198.045"/>
<polygon fill="midnightblue" stroke="midnightblue" points="1261.09,-302.166 1251.05,-305.534 1261,-309.166 1261.09,-302.166"/>
</g>
<!-- Node10 -->
<g id="node10" class="node"><title>Node10</title>
<g id="a_node10"><a xlink:href="classx265_1_1Analysis.html#a30d2ff7eca5addbb0a6b3dfe14f09650" target="_top" xlink:title="x265::Analysis::compress\lInterCU_rd0_4">
<polygon fill="white" stroke="black" points="1474,-217.042 1474,-247.042 1604,-247.042 1604,-217.042 1474,-217.042"/>
<text text-anchor="start" x="1482" y="-235.042" font-family="Helvetica,sans-Serif" font-size="10.00">x265::Analysis::compress</text>
<text text-anchor="middle" x="1539" y="-224.042" font-family="Helvetica,sans-Serif" font-size="10.00">InterCU_rd0_4</text>
</a>
</g>
</g>
<!-- Node7&#45;&gt;Node10 -->
<g id="edge9" class="edge"><title>Node7&#45;&gt;Node10</title>
<path fill="none" stroke="midnightblue" d="M1247.01,-320.302C1299.88,-331.364 1376.03,-339.82 1438,-317.042 1475.85,-303.128 1509.17,-267.821 1526.12,-247.355"/>
<polygon fill="midnightblue" stroke="midnightblue" points="1247.6,-316.849 1237.09,-318.138 1246.11,-323.689 1247.6,-316.849"/>
</g>
<!-- Node9 -->
<g id="node9" class="node"><title>Node9</title>
<g id="a_node9"><a xlink:href="classx265_1_1Analysis.html#aaebc9de2ff98834c650244f3b58942c2" target="_top" xlink:title="x265::Analysis::compressCTU">
<polygon fill="white" stroke="red" points="1640.5,-222.542 1640.5,-241.542 1791.5,-241.542 1791.5,-222.542 1640.5,-222.542"/>
<text text-anchor="middle" x="1716" y="-229.542" font-family="Helvetica,sans-Serif" font-size="10.00">x265::Analysis::compressCTU</text>
</a>
</g>
</g>
<!-- Node8&#45;&gt;Node9 -->
<g id="edge8" class="edge"><title>Node8&#45;&gt;Node9</title>
<path fill="none" stroke="midnightblue" d="M1603.79,-200.902C1629.94,-208.225 1659.15,-216.403 1681.06,-222.54"/>
<polygon fill="midnightblue" stroke="midnightblue" points="1604.51,-197.47 1593.93,-198.144 1602.62,-204.21 1604.51,-197.47"/>
</g>
<!-- Node10&#45;&gt;Node9 -->
<g id="edge10" class="edge"><title>Node10&#45;&gt;Node9</title>
<path fill="none" stroke="midnightblue" d="M1614.25,-232.042C1622.93,-232.042 1631.78,-232.042 1640.47,-232.042"/>
<polygon fill="midnightblue" stroke="midnightblue" points="1614.17,-228.542 1604.17,-232.042 1614.17,-235.542 1614.17,-228.542"/>
</g>
<!-- Node12 -->
<g id="node12" class="node"><title>Node12</title>
<g id="a_node12"><a xlink:href="classx265_1_1Analysis.html#a10f0a8d9d143faf8dc671c6f0982693d" target="_top" xlink:title="x265::Analysis::tryLossless">
<polygon fill="white" stroke="red" points="1296.5,-179.542 1296.5,-198.542 1433.5,-198.542 1433.5,-179.542 1296.5,-179.542"/>
<text text-anchor="middle" x="1365" y="-186.542" font-family="Helvetica,sans-Serif" font-size="10.00">x265::Analysis::tryLossless</text>
</a>
</g>
</g>
<!-- Node11&#45;&gt;Node12 -->
<g id="edge12" class="edge"><title>Node11&#45;&gt;Node12</title>
<path fill="none" stroke="midnightblue" d="M1231.79,-244.775C1239.94,-242.413 1248.26,-239.806 1256,-237.042 1287.89,-225.662 1323.53,-209.011 1344.85,-198.612"/>
<polygon fill="midnightblue" stroke="midnightblue" points="1230.66,-241.456 1221.98,-247.529 1232.56,-248.196 1230.66,-241.456"/>
</g>
<!-- Node12&#45;&gt;Node8 -->
<g id="edge13" class="edge"><title>Node12&#45;&gt;Node8</title>
<path fill="none" stroke="midnightblue" d="M1444.24,-186.313C1454.16,-185.967 1464.22,-185.616 1473.88,-185.279"/>
<polygon fill="midnightblue" stroke="midnightblue" points="1443.85,-182.824 1433.98,-186.671 1444.09,-189.82 1443.85,-182.824"/>
</g>
<!-- Node12&#45;&gt;Node10 -->
<g id="edge14" class="edge"><title>Node12&#45;&gt;Node10</title>
<path fill="none" stroke="midnightblue" d="M1413.92,-201.021C1433.77,-205.984 1457.01,-211.794 1477.97,-217.036"/>
<polygon fill="midnightblue" stroke="midnightblue" points="1414.72,-197.615 1404.17,-198.585 1413.02,-204.406 1414.72,-197.615"/>
</g>
<!-- Node13&#45;&gt;Node7 -->
<g id="edge16" class="edge"><title>Node13&#45;&gt;Node7</title>
<path fill="none" stroke="midnightblue" d="M861.393,-330.423C921.026,-330.508 1001.41,-328.981 1072,-322.042 1085.29,-320.736 1099.39,-318.739 1112.89,-316.522"/>
<polygon fill="midnightblue" stroke="midnightblue" points="861.268,-326.923 851.258,-330.393 861.247,-333.923 861.268,-326.923"/>
</g>
<!-- Node14 -->
<g id="node14" class="node"><title>Node14</title>
<g id="a_node14"><a xlink:href="classx265_1_1Search.html#a1778d2ab96ac88c7f76d36818d6adbdd" target="_top" xlink:title="x265::Search::estIntraPredQT">
<polygon fill="white" stroke="black" points="910.5,-293.542 910.5,-312.542 1057.5,-312.542 1057.5,-293.542 910.5,-293.542"/>
<text text-anchor="middle" x="984" y="-300.542" font-family="Helvetica,sans-Serif" font-size="10.00">x265::Search::estIntraPredQT</text>
</a>
</g>
</g>
<!-- Node13&#45;&gt;Node14 -->
<g id="edge17" class="edge"><title>Node13&#45;&gt;Node14</title>
<path fill="none" stroke="midnightblue" d="M860.254,-318.239C876.867,-316.183 894.092,-314.05 910.197,-312.056"/>
<polygon fill="midnightblue" stroke="midnightblue" points="859.498,-314.806 850.004,-319.508 860.358,-321.753 859.498,-314.806"/>
</g>
<!-- Node14&#45;&gt;Node11 -->
<g id="edge18" class="edge"><title>Node14&#45;&gt;Node11</title>
<path fill="none" stroke="midnightblue" d="M1036.99,-291.164C1048.52,-288.509 1060.68,-285.694 1072,-283.042 1095.01,-277.652 1120.74,-271.522 1141.41,-266.568"/>
<polygon fill="midnightblue" stroke="midnightblue" points="1036.02,-287.796 1027.05,-293.448 1037.58,-294.618 1036.02,-287.796"/>
</g>
<!-- Node16 -->
<g id="node16" class="node"><title>Node16</title>
<g id="a_node16"><a xlink:href="classx265_1_1Analysis.html#a88ad2880a5a8bcad5cfd5d6ea630b265" target="_top" xlink:title="x265::Analysis::encodeResidue">
<polygon fill="white" stroke="black" points="694.5,-413.542 694.5,-432.542 849.5,-432.542 849.5,-413.542 694.5,-413.542"/>
<text text-anchor="middle" x="772" y="-420.542" font-family="Helvetica,sans-Serif" font-size="10.00">x265::Analysis::encodeResidue</text>
</a>
</g>
</g>
<!-- Node15&#45;&gt;Node16 -->
<g id="edge20" class="edge"><title>Node15&#45;&gt;Node16</title>
<path fill="none" stroke="midnightblue" d="M658.643,-422.483C670.512,-422.542 682.605,-422.603 694.247,-422.66"/>
<polygon fill="midnightblue" stroke="midnightblue" points="658.305,-418.982 648.287,-422.432 658.27,-425.982 658.305,-418.982"/>
</g>
<!-- Node17 -->
<g id="node17" class="node"><title>Node17</title>
<g id="a_node17"><a xlink:href="classx265_1_1Search.html#a5284cffef18fe6884b268ea28f21f22f" target="_top" xlink:title="x265::Search::generateCoeff\lRecon">
<polygon fill="white" stroke="black" points="701,-364.042 701,-394.042 843,-394.042 843,-364.042 701,-364.042"/>
<text text-anchor="start" x="709" y="-382.042" font-family="Helvetica,sans-Serif" font-size="10.00">x265::Search::generateCoeff</text>
<text text-anchor="middle" x="772" y="-371.042" font-family="Helvetica,sans-Serif" font-size="10.00">Recon</text>
</a>
</g>
</g>
<!-- Node15&#45;&gt;Node17 -->
<g id="edge22" class="edge"><title>Node15&#45;&gt;Node17</title>
<path fill="none" stroke="midnightblue" d="M650.531,-404.814C667.147,-401.26 684.523,-397.542 700.74,-394.073"/>
<polygon fill="midnightblue" stroke="midnightblue" points="649.347,-401.488 640.3,-407.003 650.811,-408.334 649.347,-401.488"/>
</g>
<!-- Node16&#45;&gt;Node9 -->
<g id="edge21" class="edge"><title>Node16&#45;&gt;Node9</title>
<path fill="none" stroke="midnightblue" d="M859.795,-422.035C942.39,-421.163 1070.16,-420.042 1181,-420.042 1181,-420.042 1181,-420.042 1366,-420.042 1518.1,-420.042 1667.68,-279.934 1705.74,-241.624"/>
<polygon fill="midnightblue" stroke="midnightblue" points="859.662,-418.536 849.7,-422.142 859.737,-425.535 859.662,-418.536"/>
</g>
<!-- Node17&#45;&gt;Node10 -->
<g id="edge23" class="edge"><title>Node17&#45;&gt;Node10</title>
<path fill="none" stroke="midnightblue" d="M853.451,-381.547C1007.2,-385.144 1336.52,-386.772 1438,-339.042 1480.8,-318.914 1514.19,-271.55 1529.26,-247.153"/>
<polygon fill="midnightblue" stroke="midnightblue" points="853.217,-378.04 843.135,-381.296 853.047,-385.038 853.217,-378.04"/>
</g>
<!-- Node18&#45;&gt;Node16 -->
<g id="edge25" class="edge"><title>Node18&#45;&gt;Node16</title>
<path fill="none" stroke="midnightblue" d="M635.567,-390.673C651.4,-394.826 668.285,-399.169 684,-403.042 698.295,-406.566 713.962,-410.228 728.013,-413.441"/>
<polygon fill="midnightblue" stroke="midnightblue" points="636.427,-387.28 625.865,-388.117 634.644,-394.049 636.427,-387.28"/>
</g>
<!-- Node18&#45;&gt;Node17 -->
<g id="edge26" class="edge"><title>Node18&#45;&gt;Node17</title>
<path fill="none" stroke="midnightblue" d="M652.933,-375.518C668.868,-375.994 685.412,-376.487 700.894,-376.95"/>
<polygon fill="midnightblue" stroke="midnightblue" points="652.666,-372.008 642.566,-375.208 652.457,-379.005 652.666,-372.008"/>
</g>
<!-- Node19&#45;&gt;Node16 -->
<g id="edge28" class="edge"><title>Node19&#45;&gt;Node16</title>
<path fill="none" stroke="midnightblue" d="M642.964,-453.618C672.652,-446.528 705.814,-438.609 730.949,-432.607"/>
<polygon fill="midnightblue" stroke="midnightblue" points="641.96,-450.259 633.046,-455.986 643.586,-457.068 641.96,-450.259"/>
</g>
<!-- Node19&#45;&gt;Node17 -->
<g id="edge29" class="edge"><title>Node19&#45;&gt;Node17</title>
<path fill="none" stroke="midnightblue" d="M638.279,-451.722C641.653,-449.98 644.916,-448.09 648,-446.042 668.481,-432.442 663.315,-417.33 684,-404.042 689.95,-400.22 696.497,-396.969 703.246,-394.207"/>
<polygon fill="midnightblue" stroke="midnightblue" points="636.71,-448.592 629.135,-456 639.676,-454.933 636.71,-448.592"/>
</g>
<!-- Node21 -->
<g id="node21" class="node"><title>Node21</title>
<g id="a_node21"><a xlink:href="classx265_1_1Search.html#aba5e04ce529f41accd43c540ba1dc7ad" target="_top" xlink:title="x265::Search::encodeResAnd\lCalcRdInterCU">
<polygon fill="white" stroke="black" points="1108.5,-128.042 1108.5,-158.042 1255.5,-158.042 1255.5,-128.042 1108.5,-128.042"/>
<text text-anchor="start" x="1116.5" y="-146.042" font-family="Helvetica,sans-Serif" font-size="10.00">x265::Search::encodeResAnd</text>
<text text-anchor="middle" x="1182" y="-135.042" font-family="Helvetica,sans-Serif" font-size="10.00">CalcRdInterCU</text>
</a>
</g>
</g>
<!-- Node20&#45;&gt;Node21 -->
<g id="edge31" class="edge"><title>Node20&#45;&gt;Node21</title>
<path fill="none" stroke="midnightblue" d="M1082.33,-141.532C1091.04,-141.665 1099.77,-141.799 1108.23,-141.928"/>
<polygon fill="midnightblue" stroke="midnightblue" points="1082.16,-138.029 1072.11,-141.376 1082.06,-145.028 1082.16,-138.029"/>
</g>
<!-- Node21&#45;&gt;Node8 -->
<g id="edge33" class="edge"><title>Node21&#45;&gt;Node8</title>
<path fill="none" stroke="midnightblue" d="M1196.05,-119.073C1213.5,-89.8342 1247.48,-41.8569 1292,-22.0423 1351.28,4.34348 1381.29,9.49312 1438,-22.0423 1495.51,-54.0246 1524.2,-134.301 1533.99,-167.892"/>
<polygon fill="midnightblue" stroke="midnightblue" points="1192.95,-117.44 1190.97,-127.849 1199.01,-120.946 1192.95,-117.44"/>
</g>
<!-- Node21&#45;&gt;Node10 -->
<g id="edge34" class="edge"><title>Node21&#45;&gt;Node10</title>
<path fill="none" stroke="midnightblue" d="M1210.35,-164.024C1231.45,-179.007 1262.01,-198.188 1292,-208.042 1351.52,-227.6 1423.16,-232.656 1473.74,-233.39"/>
<polygon fill="midnightblue" stroke="midnightblue" points="1212.34,-161.146 1202.2,-158.106 1208.23,-166.811 1212.34,-161.146"/>
</g>
<!-- Node21&#45;&gt;Node12 -->
<g id="edge32" class="edge"><title>Node21&#45;&gt;Node12</title>
<path fill="none" stroke="midnightblue" d="M1252.18,-160.624C1277.44,-167.043 1305.04,-174.059 1326.51,-179.514"/>
<polygon fill="midnightblue" stroke="midnightblue" points="1252.82,-157.175 1242.27,-158.104 1251.1,-163.96 1252.82,-157.175"/>
</g>
<!-- Node22 -->
<g id="node22" class="node"><title>Node22</title>
<g id="a_node22"><a xlink:href="classx265_1_1Analysis.html#addd72cb95590e2b2a6965d42d110eab3" target="_top" xlink:title="x265::Analysis::checkMerge2\lNx2N_rd0_4">
<polygon fill="white" stroke="black" points="1292,-81.0423 1292,-111.042 1438,-111.042 1438,-81.0423 1292,-81.0423"/>
<text text-anchor="start" x="1300" y="-99.0423" font-family="Helvetica,sans-Serif" font-size="10.00">x265::Analysis::checkMerge2</text>
<text text-anchor="middle" x="1365" y="-88.0423" font-family="Helvetica,sans-Serif" font-size="10.00">Nx2N_rd0_4</text>
</a>
</g>
</g>
<!-- Node21&#45;&gt;Node22 -->
<g id="edge35" class="edge"><title>Node21&#45;&gt;Node22</title>
<path fill="none" stroke="midnightblue" d="M1250.49,-125.518C1268.79,-120.765 1288.44,-115.663 1306.16,-111.061"/>
<polygon fill="midnightblue" stroke="midnightblue" points="1249.57,-122.141 1240.77,-128.042 1251.33,-128.916 1249.57,-122.141"/>
</g>
<!-- Node23 -->
<g id="node23" class="node"><title>Node23</title>
<g id="a_node23"><a xlink:href="classx265_1_1Analysis.html#a0194a9da53aa95173fa1132ba3aea1c7" target="_top" xlink:title="x265::Analysis::checkMerge2\lNx2N_rd5_6">
<polygon fill="white" stroke="red" points="1292,-130.042 1292,-160.042 1438,-160.042 1438,-130.042 1292,-130.042"/>
<text text-anchor="start" x="1300" y="-148.042" font-family="Helvetica,sans-Serif" font-size="10.00">x265::Analysis::checkMerge2</text>
<text text-anchor="middle" x="1365" y="-137.042" font-family="Helvetica,sans-Serif" font-size="10.00">Nx2N_rd5_6</text>
</a>
</g>
</g>
<!-- Node21&#45;&gt;Node23 -->
<g id="edge38" class="edge"><title>Node21&#45;&gt;Node23</title>
<path fill="none" stroke="midnightblue" d="M1265.78,-143.957C1274.54,-144.054 1283.38,-144.152 1292,-144.247"/>
<polygon fill="midnightblue" stroke="midnightblue" points="1265.61,-140.455 1255.58,-143.844 1265.54,-147.455 1265.61,-140.455"/>
</g>
<!-- Node24 -->
<g id="node24" class="node"><title>Node24</title>
<g id="a_node24"><a xlink:href="classx265_1_1Analysis.html#a828daa3e9f1ed40a1af9f99f7ff7bb33" target="_top" xlink:title="x265::Analysis::checkInter\l_rd5_6">
<polygon fill="white" stroke="red" points="1298.5,-32.0423 1298.5,-62.0423 1431.5,-62.0423 1431.5,-32.0423 1298.5,-32.0423"/>
<text text-anchor="start" x="1306.5" y="-50.0423" font-family="Helvetica,sans-Serif" font-size="10.00">x265::Analysis::checkInter</text>
<text text-anchor="middle" x="1365" y="-39.0423" font-family="Helvetica,sans-Serif" font-size="10.00">_rd5_6</text>
</a>
</g>
</g>
<!-- Node21&#45;&gt;Node24 -->
<g id="edge39" class="edge"><title>Node21&#45;&gt;Node24</title>
<path fill="none" stroke="midnightblue" d="M1210.8,-121.72C1232.13,-106.109 1262.78,-85.2552 1292,-71.0423 1298.75,-67.7569 1306.07,-64.7447 1313.36,-62.047"/>
<polygon fill="midnightblue" stroke="midnightblue" points="1208.49,-119.075 1202.54,-127.842 1212.66,-124.698 1208.49,-119.075"/>
</g>
<!-- Node22&#45;&gt;Node8 -->
<g id="edge36" class="edge"><title>Node22&#45;&gt;Node8</title>
<path fill="none" stroke="midnightblue" d="M1426.13,-114.859C1430.19,-116.505 1434.18,-118.235 1438,-120.042 1466.93,-133.734 1497.74,-154.133 1517.39,-167.981"/>
<polygon fill="midnightblue" stroke="midnightblue" points="1427.16,-111.508 1416.57,-111.179 1424.65,-118.04 1427.16,-111.508"/>
</g>
<!-- Node22&#45;&gt;Node10 -->
<g id="edge37" class="edge"><title>Node22&#45;&gt;Node10</title>
<path fill="none" stroke="midnightblue" d="M1434.43,-116.982C1435.66,-117.956 1436.86,-118.976 1438,-120.042 1468.62,-148.57 1444.12,-177.749 1474,-207.042 1477.92,-210.883 1482.5,-214.151 1487.37,-216.928"/>
<polygon fill="midnightblue" stroke="midnightblue" points="1436,-113.827 1425.74,-111.187 1432.12,-119.649 1436,-113.827"/>
</g>
<!-- Node25&#45;&gt;Node5 -->
<g id="edge51" class="edge"><title>Node25&#45;&gt;Node5</title>
<path fill="none" stroke="midnightblue" d="M621.678,-252.992C630.493,-255.212 639.534,-257.605 648,-260.042 664.207,-264.709 667.738,-267.57 684,-272.042 696.522,-275.486 710.193,-278.715 722.911,-281.5"/>
<polygon fill="midnightblue" stroke="midnightblue" points="622.411,-249.568 611.863,-250.564 620.73,-256.363 622.411,-249.568"/>
</g>
<!-- Node25&#45;&gt;Node13 -->
<g id="edge50" class="edge"><title>Node25&#45;&gt;Node13</title>
<path fill="none" stroke="midnightblue" d="M638.256,-254.486C641.657,-256.13 644.93,-257.974 648,-260.042 670.71,-275.342 661.109,-295.015 684,-310.042 689.945,-313.945 696.563,-317.059 703.419,-319.541"/>
<polygon fill="midnightblue" stroke="midnightblue" points="639.583,-251.248 629.009,-250.587 636.863,-257.698 639.583,-251.248"/>
</g>
<!-- Node25&#45;&gt;Node20 -->
<g id="edge52" class="edge"><title>Node25&#45;&gt;Node20</title>
<path fill="none" stroke="midnightblue" d="M600.003,-227.375C622.681,-217.495 654.791,-204.459 684,-196.042 728.277,-183.284 851.118,-161.899 924.845,-149.576"/>
<polygon fill="midnightblue" stroke="midnightblue" points="598.33,-224.287 590.595,-231.528 601.157,-230.691 598.33,-224.287"/>
</g>
<!-- Node26 -->
<g id="node26" class="node"><title>Node26</title>
<g id="a_node26"><a xlink:href="classx265_1_1Entropy.html#af0793a415273d86dc38b396dae9f9db3" target="_top" xlink:title="x265::Entropy::encodeTransform">
<polygon fill="white" stroke="black" points="692.5,-205.542 692.5,-224.542 851.5,-224.542 851.5,-205.542 692.5,-205.542"/>
<text text-anchor="middle" x="772" y="-212.542" font-family="Helvetica,sans-Serif" font-size="10.00">x265::Entropy::encodeTransform</text>
</a>
</g>
</g>
<!-- Node25&#45;&gt;Node26 -->
<g id="edge41" class="edge"><title>Node25&#45;&gt;Node26</title>
<path fill="none" stroke="midnightblue" d="M653.643,-230.223C668.133,-228.348 683.104,-226.412 697.305,-224.575"/>
<polygon fill="midnightblue" stroke="midnightblue" points="653.172,-226.754 643.704,-231.508 654.07,-233.697 653.172,-226.754"/>
</g>
<!-- Node30 -->
<g id="node30" class="node"><title>Node30</title>
<g id="a_node30"><a xlink:href="classx265_1_1Search.html#a825a262c7ffde63152ad2dca236251eb" target="_top" xlink:title="x265::Search::xEncCoeffQTChroma">
<polygon fill="white" stroke="black" points="684.5,-243.542 684.5,-262.542 859.5,-262.542 859.5,-243.542 684.5,-243.542"/>
<text text-anchor="middle" x="772" y="-250.542" font-family="Helvetica,sans-Serif" font-size="10.00">x265::Search::xEncCoeffQTChroma</text>
</a>
</g>
</g>
<!-- Node25&#45;&gt;Node30 -->
<g id="edge48" class="edge"><title>Node25&#45;&gt;Node30</title>
<path fill="none" stroke="midnightblue" d="M653.729,-246.041C663.847,-246.645 674.199,-247.263 684.359,-247.87"/>
<polygon fill="midnightblue" stroke="midnightblue" points="653.894,-242.545 643.704,-245.443 653.477,-249.532 653.894,-242.545"/>
</g>
<!-- Node31 -->
<g id="node31" class="node"><title>Node31</title>
<g id="a_node31"><a xlink:href="classx265_1_1Search.html#a52f183b79fbb6d1aa3255084d89e01c6" target="_top" xlink:title="x265::Search::xEncodeResidualQT">
<polygon fill="white" stroke="black" points="687,-129.542 687,-148.542 857,-148.542 857,-129.542 687,-129.542"/>
<text text-anchor="middle" x="772" y="-136.542" font-family="Helvetica,sans-Serif" font-size="10.00">x265::Search::xEncodeResidualQT</text>
</a>
</g>
</g>
<!-- Node25&#45;&gt;Node31 -->
<g id="edge53" class="edge"><title>Node25&#45;&gt;Node31</title>
<path fill="none" stroke="midnightblue" d="M588.987,-225.104C610.692,-207.614 647.899,-179.801 684,-163.042 696.933,-157.039 711.664,-152.271 725.282,-148.619"/>
<polygon fill="midnightblue" stroke="midnightblue" points="586.725,-222.433 581.201,-231.474 591.158,-227.851 586.725,-222.433"/>
</g>
<!-- Node27 -->
<g id="node27" class="node"><title>Node27</title>
<g id="a_node27"><a xlink:href="classx265_1_1Entropy.html#a220326e32d9be80554bf11194ef2c642" target="_top" xlink:title="x265::Entropy::codeCoeff">
<polygon fill="white" stroke="black" points="920,-205.542 920,-224.542 1048,-224.542 1048,-205.542 920,-205.542"/>
<text text-anchor="middle" x="984" y="-212.542" font-family="Helvetica,sans-Serif" font-size="10.00">x265::Entropy::codeCoeff</text>
</a>
</g>
</g>
<!-- Node26&#45;&gt;Node27 -->
<g id="edge42" class="edge"><title>Node26&#45;&gt;Node27</title>
<path fill="none" stroke="midnightblue" d="M861.895,-215.042C881.371,-215.042 901.604,-215.042 919.827,-215.042"/>
<polygon fill="midnightblue" stroke="midnightblue" points="861.794,-211.542 851.794,-215.042 861.794,-218.542 861.794,-211.542"/>
</g>
<!-- Node27&#45;&gt;Node7 -->
<g id="edge43" class="edge"><title>Node27&#45;&gt;Node7</title>
<path fill="none" stroke="midnightblue" d="M1057.84,-227.128C1062.78,-229.097 1067.55,-231.385 1072,-234.042 1093.1,-246.653 1087.82,-261.994 1108,-276.042 1114.65,-280.675 1122.2,-284.619 1129.85,-287.943"/>
<polygon fill="midnightblue" stroke="midnightblue" points="1058.77,-223.747 1048.18,-223.722 1056.45,-230.349 1058.77,-223.747"/>
</g>
<!-- Node27&#45;&gt;Node11 -->
<g id="edge46" class="edge"><title>Node27&#45;&gt;Node11</title>
<path fill="none" stroke="midnightblue" d="M1039.53,-226.727C1070.04,-233.266 1107.61,-241.316 1136.36,-247.477"/>
<polygon fill="midnightblue" stroke="midnightblue" points="1039.99,-223.246 1029.48,-224.573 1038.52,-230.09 1039.99,-223.246"/>
</g>
<!-- Node27&#45;&gt;Node21 -->
<g id="edge47" class="edge"><title>Node27&#45;&gt;Node21</title>
<path fill="none" stroke="midnightblue" d="M1020.45,-202.02C1054.03,-189.683 1104.46,-171.16 1139.81,-158.173"/>
<polygon fill="midnightblue" stroke="midnightblue" points="1019.21,-198.748 1011.03,-205.481 1021.62,-205.318 1019.21,-198.748"/>
</g>
<!-- Node28 -->
<g id="node28" class="node"><title>Node28</title>
<g id="a_node28"><a xlink:href="classx265_1_1Entropy.html#adeb50a7c9a5df6643407d01158d93799" target="_top" xlink:title="x265::Entropy::encodeCU">
<polygon fill="white" stroke="black" points="1117,-208.542 1117,-227.542 1247,-227.542 1247,-208.542 1117,-208.542"/>
<text text-anchor="middle" x="1182" y="-215.542" font-family="Helvetica,sans-Serif" font-size="10.00">x265::Entropy::encodeCU</text>
</a>
</g>
</g>
<!-- Node27&#45;&gt;Node28 -->
<g id="edge44" class="edge"><title>Node27&#45;&gt;Node28</title>
<path fill="none" stroke="midnightblue" d="M1058.29,-216.164C1077.47,-216.458 1098,-216.772 1116.68,-217.058"/>
<polygon fill="midnightblue" stroke="midnightblue" points="1058.15,-212.662 1048.09,-216.008 1058.04,-219.661 1058.15,-212.662"/>
</g>
<!-- Node29 -->
<g id="node29" class="node"><title>Node29</title>
<g id="a_node29"><a xlink:href="classx265_1_1Entropy.html#abb101b71f310e90eb504a8204babc180" target="_top" xlink:title="x265::Entropy::encodeCTU">
<polygon fill="white" stroke="red" points="1297,-255.542 1297,-274.542 1433,-274.542 1433,-255.542 1297,-255.542"/>
<text text-anchor="middle" x="1365" y="-262.542" font-family="Helvetica,sans-Serif" font-size="10.00">x265::Entropy::encodeCTU</text>
</a>
</g>
</g>
<!-- Node28&#45;&gt;Node29 -->
<g id="edge45" class="edge"><title>Node28&#45;&gt;Node29</title>
<path fill="none" stroke="midnightblue" d="M1229.55,-230.131C1259.89,-238.009 1298.93,-248.146 1327.12,-255.465"/>
<polygon fill="midnightblue" stroke="midnightblue" points="1230.19,-226.679 1219.63,-227.553 1228.43,-233.455 1230.19,-226.679"/>
</g>
<!-- Node30&#45;&gt;Node6 -->
<g id="edge49" class="edge"><title>Node30&#45;&gt;Node6</title>
<path fill="none" stroke="midnightblue" d="M869.986,-255.813C885.826,-256.266 901.911,-256.725 916.787,-257.15"/>
<polygon fill="midnightblue" stroke="midnightblue" points="869.723,-252.304 859.627,-255.517 869.523,-259.302 869.723,-252.304"/>
</g>
<!-- Node31&#45;&gt;Node20 -->
<g id="edge54" class="edge"><title>Node31&#45;&gt;Node20</title>
<path fill="none" stroke="midnightblue" d="M867.373,-139.492C876.798,-139.537 886.339,-139.582 895.687,-139.627"/>
<polygon fill="midnightblue" stroke="midnightblue" points="867.222,-135.991 857.205,-139.443 867.188,-142.991 867.222,-135.991"/>
</g>
</g>
</svg>
