<?xml version="1.0" encoding="UTF-8" standalone="no"?>
<!DOCTYPE svg PUBLIC "-//W3C//DTD SVG 1.1//EN"
 "http://www.w3.org/Graphics/SVG/1.1/DTD/svg11.dtd">
<!-- Generated by graphviz version 2.36.0 (20140111.2315)
 -->
<!-- Title: x265::SEI::writeSEI Pages: 1 -->
<svg width="702pt" height="82pt"
 viewBox="0.00 0.00 702.00 82.00" xmlns="http://www.w3.org/2000/svg" xmlns:xlink="http://www.w3.org/1999/xlink">
<g id="graph0" class="graph" transform="scale(1 1) rotate(0) translate(4 78)">
<title>x265::SEI::writeSEI</title>
<polygon fill="white" stroke="none" points="-4,4 -4,-78 698,-78 698,4 -4,4"/>
<!-- Node1 -->
<g id="node1" class="node"><title>Node1</title>
<polygon fill="#bfbfbf" stroke="black" points="0,-27.5 0,-46.5 104,-46.5 104,-27.5 0,-27.5"/>
<text text-anchor="middle" x="52" y="-34.5" font-family="Helvetica,sans-Serif" font-size="10.00">x265::SEI::writeSEI</text>
</g>
<!-- Node2 -->
<g id="node2" class="node"><title>Node2</title>
<g id="a_node2"><a xlink:href="classx265_1_1SEI.html#aa47f55241ed2dc840019467d5b3e888e" target="_top" xlink:title="x265::SEI::write">
<polygon fill="white" stroke="black" points="140.5,-27.5 140.5,-46.5 227.5,-46.5 227.5,-27.5 140.5,-27.5"/>
<text text-anchor="middle" x="184" y="-34.5" font-family="Helvetica,sans-Serif" font-size="10.00">x265::SEI::write</text>
</a>
</g>
</g>
<!-- Node1&#45;&gt;Node2 -->
<g id="edge1" class="edge"><title>Node1&#45;&gt;Node2</title>
<path fill="none" stroke="midnightblue" d="M114.208,-37C122.968,-37 131.819,-37 140.124,-37"/>
<polygon fill="midnightblue" stroke="midnightblue" points="114.006,-33.5001 104.006,-37 114.006,-40.5001 114.006,-33.5001"/>
</g>
<!-- Node3 -->
<g id="node3" class="node"><title>Node3</title>
<g id="a_node3"><a xlink:href="classx265_1_1Encoder.html#a5095039a4d1af32049c30052ef3e6588" target="_top" xlink:title="x265::Encoder::getStream\lHeaders">
<polygon fill="white" stroke="black" points="264.5,-44 264.5,-74 395.5,-74 395.5,-44 264.5,-44"/>
<text text-anchor="start" x="272.5" y="-62" font-family="Helvetica,sans-Serif" font-size="10.00">x265::Encoder::getStream</text>
<text text-anchor="middle" x="330" y="-51" font-family="Helvetica,sans-Serif" font-size="10.00">Headers</text>
</a>
</g>
</g>
<!-- Node2&#45;&gt;Node3 -->
<g id="edge2" class="edge"><title>Node2&#45;&gt;Node3</title>
<path fill="none" stroke="midnightblue" d="M237.79,-45.0651C246.472,-46.3916 255.557,-47.7796 264.487,-49.1438"/>
<polygon fill="midnightblue" stroke="midnightblue" points="238.229,-41.5916 227.815,-43.5412 237.172,-48.5114 238.229,-41.5916"/>
</g>
<!-- Node6 -->
<g id="node6" class="node"><title>Node6</title>
<g id="a_node6"><a xlink:href="classx265_1_1FrameEncoder.html#a2f5c4c0f1a4e36fce4c9b87eb7ec4973" target="_top" xlink:title="x265::FrameEncoder\l::compressFrame">
<polygon fill="white" stroke="black" points="437.5,-0 437.5,-30 544.5,-30 544.5,-0 437.5,-0"/>
<text text-anchor="start" x="445.5" y="-18" font-family="Helvetica,sans-Serif" font-size="10.00">x265::FrameEncoder</text>
<text text-anchor="middle" x="491" y="-7" font-family="Helvetica,sans-Serif" font-size="10.00">::compressFrame</text>
</a>
</g>
</g>
<!-- Node2&#45;&gt;Node6 -->
<g id="edge7" class="edge"><title>Node2&#45;&gt;Node6</title>
<path fill="none" stroke="midnightblue" d="M237.785,-33.1925C293.7,-29.1593 381.46,-22.8291 437.331,-18.7991"/>
<polygon fill="midnightblue" stroke="midnightblue" points="237.452,-29.7074 227.73,-33.9178 237.956,-36.6892 237.452,-29.7074"/>
</g>
<!-- Node4 -->
<g id="node4" class="node"><title>Node4</title>
<g id="a_node4"><a xlink:href="x265_8h.html#a575071c7bc7374ffd708d93f016211b5" target="_top" xlink:title="x265_encoder_headers">
<polygon fill="white" stroke="black" points="432.5,-49.5 432.5,-68.5 549.5,-68.5 549.5,-49.5 432.5,-49.5"/>
<text text-anchor="middle" x="491" y="-56.5" font-family="Helvetica,sans-Serif" font-size="10.00">x265_encoder_headers</text>
</a>
</g>
</g>
<!-- Node3&#45;&gt;Node4 -->
<g id="edge3" class="edge"><title>Node3&#45;&gt;Node4</title>
<path fill="none" stroke="midnightblue" d="M405.699,-59C414.632,-59 423.646,-59 432.288,-59"/>
<polygon fill="midnightblue" stroke="midnightblue" points="405.671,-55.5001 395.671,-59 405.671,-62.5001 405.671,-55.5001"/>
</g>
<!-- Node3&#45;&gt;Node6 -->
<g id="edge5" class="edge"><title>Node3&#45;&gt;Node6</title>
<path fill="none" stroke="midnightblue" d="M395.298,-41.2069C409.257,-37.3439 423.866,-33.3013 437.315,-29.5795"/>
<polygon fill="midnightblue" stroke="midnightblue" points="393.978,-37.9404 385.274,-43.9808 395.845,-44.6869 393.978,-37.9404"/>
</g>
<!-- Node5 -->
<g id="node5" class="node"><title>Node5</title>
<g id="a_node5"><a xlink:href="x265_8cpp.html#a3c04138a5bfe5d72780bb7e82a18e627" target="_top" xlink:title="main">
<polygon fill="white" stroke="black" points="621,-49.5 621,-68.5 659,-68.5 659,-49.5 621,-49.5"/>
<text text-anchor="middle" x="640" y="-56.5" font-family="Helvetica,sans-Serif" font-size="10.00">main</text>
</a>
</g>
</g>
<!-- Node4&#45;&gt;Node5 -->
<g id="edge4" class="edge"><title>Node4&#45;&gt;Node5</title>
<path fill="none" stroke="midnightblue" d="M559.914,-59C582.368,-59 605.521,-59 620.927,-59"/>
<polygon fill="midnightblue" stroke="midnightblue" points="559.676,-55.5001 549.676,-59 559.676,-62.5001 559.676,-55.5001"/>
</g>
<!-- Node7 -->
<g id="node7" class="node"><title>Node7</title>
<g id="a_node7"><a xlink:href="classx265_1_1FrameEncoder.html#aef61f29b9e93b3af9255d96236bc90a7" target="_top" xlink:title="x265::FrameEncoder\l::threadMain">
<polygon fill="white" stroke="black" points="586.5,-0 586.5,-30 693.5,-30 693.5,-0 586.5,-0"/>
<text text-anchor="start" x="594.5" y="-18" font-family="Helvetica,sans-Serif" font-size="10.00">x265::FrameEncoder</text>
<text text-anchor="middle" x="640" y="-7" font-family="Helvetica,sans-Serif" font-size="10.00">::threadMain</text>
</a>
</g>
</g>
<!-- Node6&#45;&gt;Node7 -->
<g id="edge6" class="edge"><title>Node6&#45;&gt;Node7</title>
<path fill="none" stroke="midnightblue" d="M554.948,-15C565.37,-15 576.081,-15 586.218,-15"/>
<polygon fill="midnightblue" stroke="midnightblue" points="554.655,-11.5001 544.655,-15 554.655,-18.5001 554.655,-11.5001"/>
</g>
</g>
</svg>
