<?xml version="1.0" encoding="UTF-8" standalone="no"?>
<!DOCTYPE svg PUBLIC "-//W3C//DTD SVG 1.1//EN"
 "http://www.w3.org/Graphics/SVG/1.1/DTD/svg11.dtd">
<!-- Generated by graphviz version 2.36.0 (20140111.2315)
 -->
<!-- Title: x265::Entropy::writeUnaryMaxSymbol Pages: 1 -->
<svg width="1866pt" height="531pt"
 viewBox="0.00 0.00 1866.00 531.24" xmlns="http://www.w3.org/2000/svg" xmlns:xlink="http://www.w3.org/1999/xlink">
<g id="graph0" class="graph" transform="scale(1 1) rotate(0) translate(4 527.239)">
<title>x265::Entropy::writeUnaryMaxSymbol</title>
<polygon fill="white" stroke="none" points="-4,4 -4,-527.239 1862,-527.239 1862,4 -4,4"/>
<!-- Node1 -->
<g id="node1" class="node"><title>Node1</title>
<polygon fill="#bfbfbf" stroke="black" points="0.5,-182.076 0.5,-212.076 131.5,-212.076 131.5,-182.076 0.5,-182.076"/>
<text text-anchor="start" x="8.5" y="-200.076" font-family="Helvetica,sans-Serif" font-size="10.00">x265::Entropy::writeUnary</text>
<text text-anchor="middle" x="66" y="-189.076" font-family="Helvetica,sans-Serif" font-size="10.00">MaxSymbol</text>
</g>
<!-- Node2 -->
<g id="node2" class="node"><title>Node2</title>
<g id="a_node2"><a xlink:href="classx265_1_1Entropy.html#af4ab096830911ac48684ea5258cea013" target="_top" xlink:title="x265::Entropy::codeDeltaQP">
<polygon fill="white" stroke="black" points="168,-187.576 168,-206.576 310,-206.576 310,-187.576 168,-187.576"/>
<text text-anchor="middle" x="239" y="-194.576" font-family="Helvetica,sans-Serif" font-size="10.00">x265::Entropy::codeDeltaQP</text>
</a>
</g>
</g>
<!-- Node1&#45;&gt;Node2 -->
<g id="edge1" class="edge"><title>Node1&#45;&gt;Node2</title>
<path fill="none" stroke="midnightblue" d="M141.735,-197.076C150.406,-197.076 159.227,-197.076 167.833,-197.076"/>
<polygon fill="midnightblue" stroke="midnightblue" points="141.648,-193.576 131.648,-197.076 141.648,-200.576 141.648,-193.576"/>
</g>
<!-- Node3 -->
<g id="node3" class="node"><title>Node3</title>
<g id="a_node3"><a xlink:href="classx265_1_1Entropy.html#af0793a415273d86dc38b396dae9f9db3" target="_top" xlink:title="x265::Entropy::encodeTransform">
<polygon fill="white" stroke="black" points="346.5,-187.576 346.5,-206.576 505.5,-206.576 505.5,-187.576 346.5,-187.576"/>
<text text-anchor="middle" x="426" y="-194.576" font-family="Helvetica,sans-Serif" font-size="10.00">x265::Entropy::encodeTransform</text>
</a>
</g>
</g>
<!-- Node2&#45;&gt;Node3 -->
<g id="edge2" class="edge"><title>Node2&#45;&gt;Node3</title>
<path fill="none" stroke="midnightblue" d="M320.313,-197.076C328.998,-197.076 337.828,-197.076 346.491,-197.076"/>
<polygon fill="midnightblue" stroke="midnightblue" points="320.204,-193.576 310.204,-197.076 320.204,-200.576 320.204,-193.576"/>
</g>
<!-- Node4 -->
<g id="node4" class="node"><title>Node4</title>
<g id="a_node4"><a xlink:href="classx265_1_1Entropy.html#a220326e32d9be80554bf11194ef2c642" target="_top" xlink:title="x265::Entropy::codeCoeff">
<polygon fill="white" stroke="black" points="542,-187.576 542,-206.576 670,-206.576 670,-187.576 542,-187.576"/>
<text text-anchor="middle" x="606" y="-194.576" font-family="Helvetica,sans-Serif" font-size="10.00">x265::Entropy::codeCoeff</text>
</a>
</g>
</g>
<!-- Node3&#45;&gt;Node4 -->
<g id="edge3" class="edge"><title>Node3&#45;&gt;Node4</title>
<path fill="none" stroke="midnightblue" d="M515.848,-197.076C524.604,-197.076 533.361,-197.076 541.782,-197.076"/>
<polygon fill="midnightblue" stroke="midnightblue" points="515.592,-193.576 505.592,-197.076 515.591,-200.576 515.592,-193.576"/>
</g>
<!-- Node5 -->
<g id="node5" class="node"><title>Node5</title>
<g id="a_node5"><a xlink:href="classx265_1_1Analysis.html#ae4d61bcf4d2c22a054d68d6d77136428" target="_top" xlink:title="x265::Analysis::encodeIntra\lInInter">
<polygon fill="white" stroke="black" points="706,-430.076 706,-460.076 844,-460.076 844,-430.076 706,-430.076"/>
<text text-anchor="start" x="714" y="-448.076" font-family="Helvetica,sans-Serif" font-size="10.00">x265::Analysis::encodeIntra</text>
<text text-anchor="middle" x="775" y="-437.076" font-family="Helvetica,sans-Serif" font-size="10.00">InInter</text>
</a>
</g>
</g>
<!-- Node4&#45;&gt;Node5 -->
<g id="edge4" class="edge"><title>Node4&#45;&gt;Node5</title>
<path fill="none" stroke="midnightblue" d="M619.315,-215.364C650.987,-262.397 734.817,-386.888 763.896,-430.071"/>
<polygon fill="midnightblue" stroke="midnightblue" points="622.035,-213.137 613.547,-206.798 616.229,-217.047 622.035,-213.137"/>
</g>
<!-- Node13 -->
<g id="node13" class="node"><title>Node13</title>
<g id="a_node13"><a xlink:href="classx265_1_1Entropy.html#adeb50a7c9a5df6643407d01158d93799" target="_top" xlink:title="x265::Entropy::encodeCU">
<polygon fill="white" stroke="black" points="710,-63.5758 710,-82.5758 840,-82.5758 840,-63.5758 710,-63.5758"/>
<text text-anchor="middle" x="775" y="-70.5758" font-family="Helvetica,sans-Serif" font-size="10.00">x265::Entropy::encodeCU</text>
</a>
</g>
</g>
<!-- Node4&#45;&gt;Node13 -->
<g id="edge14" class="edge"><title>Node4&#45;&gt;Node13</title>
<path fill="none" stroke="midnightblue" d="M627.924,-181.539C662.855,-155.603 732.055,-104.221 760.899,-82.8034"/>
<polygon fill="midnightblue" stroke="midnightblue" points="625.769,-178.78 619.827,-187.552 629.942,-184.4 625.769,-178.78"/>
</g>
<!-- Node17 -->
<g id="node17" class="node"><title>Node17</title>
<g id="a_node17"><a xlink:href="classx265_1_1Search.html#ab02df91827cf67796d1605bde60c6aed" target="_top" xlink:title="x265::Search::checkIntra">
<polygon fill="white" stroke="black" points="891,-166.576 891,-185.576 1017,-185.576 1017,-166.576 891,-166.576"/>
<text text-anchor="middle" x="954" y="-173.576" font-family="Helvetica,sans-Serif" font-size="10.00">x265::Search::checkIntra</text>
</a>
</g>
</g>
<!-- Node4&#45;&gt;Node17 -->
<g id="edge19" class="edge"><title>Node4&#45;&gt;Node17</title>
<path fill="none" stroke="midnightblue" d="M680.254,-192.63C742.827,-188.832 831.842,-183.429 890.956,-179.841"/>
<polygon fill="midnightblue" stroke="midnightblue" points="679.829,-189.149 670.059,-193.248 680.253,-196.136 679.829,-189.149"/>
</g>
<!-- Node21 -->
<g id="node21" class="node"><title>Node21</title>
<g id="a_node21"><a xlink:href="classx265_1_1Search.html#aba5e04ce529f41accd43c540ba1dc7ad" target="_top" xlink:title="x265::Search::encodeResAnd\lCalcRdInterCU">
<polygon fill="white" stroke="black" points="880.5,-238.076 880.5,-268.076 1027.5,-268.076 1027.5,-238.076 880.5,-238.076"/>
<text text-anchor="start" x="888.5" y="-256.076" font-family="Helvetica,sans-Serif" font-size="10.00">x265::Search::encodeResAnd</text>
<text text-anchor="middle" x="954" y="-245.076" font-family="Helvetica,sans-Serif" font-size="10.00">CalcRdInterCU</text>
</a>
</g>
</g>
<!-- Node4&#45;&gt;Node21 -->
<g id="edge29" class="edge"><title>Node4&#45;&gt;Node21</title>
<path fill="none" stroke="midnightblue" d="M676.086,-208.257C735.249,-217.833 820.172,-231.578 880.343,-241.316"/>
<polygon fill="midnightblue" stroke="midnightblue" points="676.517,-204.782 666.086,-206.639 675.399,-211.692 676.517,-204.782"/>
</g>
<!-- Node6 -->
<g id="node6" class="node"><title>Node6</title>
<g id="a_node6"><a xlink:href="classx265_1_1Analysis.html#aa6122285d10bb1bd7584958b88b029d5" target="_top" xlink:title="x265::Analysis::parallel\lModeAnalysis">
<polygon fill="white" stroke="black" points="895,-452.076 895,-482.076 1013,-482.076 1013,-452.076 895,-452.076"/>
<text text-anchor="start" x="903" y="-470.076" font-family="Helvetica,sans-Serif" font-size="10.00">x265::Analysis::parallel</text>
<text text-anchor="middle" x="954" y="-459.076" font-family="Helvetica,sans-Serif" font-size="10.00">ModeAnalysis</text>
</a>
</g>
</g>
<!-- Node5&#45;&gt;Node6 -->
<g id="edge5" class="edge"><title>Node5&#45;&gt;Node6</title>
<path fill="none" stroke="midnightblue" d="M854.492,-454.832C868.088,-456.522 882.002,-458.251 894.931,-459.858"/>
<polygon fill="midnightblue" stroke="midnightblue" points="854.535,-451.31 844.18,-453.55 853.672,-458.257 854.535,-451.31"/>
</g>
<!-- Node8 -->
<g id="node8" class="node"><title>Node8</title>
<g id="a_node8"><a xlink:href="classx265_1_1Analysis.html#a87060ff27a37f56adc5f5b8a4c033ece" target="_top" xlink:title="x265::Analysis::compress\lInterCU_dist">
<polygon fill="white" stroke="black" points="1246,-350.076 1246,-380.076 1376,-380.076 1376,-350.076 1246,-350.076"/>
<text text-anchor="start" x="1254" y="-368.076" font-family="Helvetica,sans-Serif" font-size="10.00">x265::Analysis::compress</text>
<text text-anchor="middle" x="1311" y="-357.076" font-family="Helvetica,sans-Serif" font-size="10.00">InterCU_dist</text>
</a>
</g>
</g>
<!-- Node5&#45;&gt;Node8 -->
<g id="edge11" class="edge"><title>Node5&#45;&gt;Node8</title>
<path fill="none" stroke="midnightblue" d="M810.777,-464.834C830.422,-474.856 855.82,-485.967 880,-491.076 1023.54,-521.403 1078.27,-547.662 1210,-483.076 1255.81,-460.615 1288.71,-406.495 1302.62,-380.082"/>
<polygon fill="midnightblue" stroke="midnightblue" points="812.386,-461.726 801.904,-460.183 809.136,-467.926 812.386,-461.726"/>
</g>
<!-- Node12 -->
<g id="node12" class="node"><title>Node12</title>
<g id="a_node12"><a xlink:href="classx265_1_1Analysis.html#a30d2ff7eca5addbb0a6b3dfe14f09650" target="_top" xlink:title="x265::Analysis::compress\lInterCU_rd0_4">
<polygon fill="white" stroke="black" points="1246,-282.076 1246,-312.076 1376,-312.076 1376,-282.076 1246,-282.076"/>
<text text-anchor="start" x="1254" y="-300.076" font-family="Helvetica,sans-Serif" font-size="10.00">x265::Analysis::compress</text>
<text text-anchor="middle" x="1311" y="-289.076" font-family="Helvetica,sans-Serif" font-size="10.00">InterCU_rd0_4</text>
</a>
</g>
</g>
<!-- Node5&#45;&gt;Node12 -->
<g id="edge12" class="edge"><title>Node5&#45;&gt;Node12</title>
<path fill="none" stroke="midnightblue" d="M854.352,-440.605C943.502,-433.284 1092.01,-414.216 1210,-365.076 1227.98,-357.586 1229.91,-351.063 1246,-340.076 1259.71,-330.713 1275.15,-320.332 1287.43,-312.116"/>
<polygon fill="midnightblue" stroke="midnightblue" points="854.007,-437.121 844.315,-441.4 854.56,-444.099 854.007,-437.121"/>
</g>
<!-- Node7 -->
<g id="node7" class="node"><title>Node7</title>
<g id="a_node7"><a xlink:href="classx265_1_1Analysis.html#a29a58dad4cc1c07d2f5e5717c6be7c25" target="_top" xlink:title="x265::Analysis::findJob">
<polygon fill="white" stroke="black" points="1077.5,-454.576 1077.5,-473.576 1196.5,-473.576 1196.5,-454.576 1077.5,-454.576"/>
<text text-anchor="middle" x="1137" y="-461.576" font-family="Helvetica,sans-Serif" font-size="10.00">x265::Analysis::findJob</text>
</a>
</g>
</g>
<!-- Node6&#45;&gt;Node7 -->
<g id="edge6" class="edge"><title>Node6&#45;&gt;Node7</title>
<path fill="none" stroke="midnightblue" d="M1023.52,-465.94C1041.2,-465.647 1060.08,-465.334 1077.22,-465.05"/>
<polygon fill="midnightblue" stroke="midnightblue" points="1023.21,-462.445 1013.27,-466.11 1023.32,-469.444 1023.21,-462.445"/>
</g>
<!-- Node7&#45;&gt;Node8 -->
<g id="edge7" class="edge"><title>Node7&#45;&gt;Node8</title>
<path fill="none" stroke="midnightblue" d="M1178.36,-451.086C1188.9,-447.118 1200.09,-442.381 1210,-437.076 1240.74,-420.622 1272.88,-395.931 1292.17,-380.164"/>
<polygon fill="midnightblue" stroke="midnightblue" points="1177.12,-447.812 1168.91,-454.508 1179.5,-454.394 1177.12,-447.812"/>
</g>
<!-- Node9 -->
<g id="node9" class="node"><title>Node9</title>
<g id="a_node9"><a xlink:href="classx265_1_1Analysis.html#aaebc9de2ff98834c650244f3b58942c2" target="_top" xlink:title="x265::Analysis::compressCTU">
<polygon fill="white" stroke="black" points="1412.5,-199.576 1412.5,-218.576 1563.5,-218.576 1563.5,-199.576 1412.5,-199.576"/>
<text text-anchor="middle" x="1488" y="-206.576" font-family="Helvetica,sans-Serif" font-size="10.00">x265::Analysis::compressCTU</text>
</a>
</g>
</g>
<!-- Node8&#45;&gt;Node9 -->
<g id="edge8" class="edge"><title>Node8&#45;&gt;Node9</title>
<path fill="none" stroke="midnightblue" d="M1344.59,-344.398C1354.93,-337.386 1366.22,-329.249 1376,-321.076 1417.38,-286.494 1460.81,-238.812 1478.62,-218.67"/>
<polygon fill="midnightblue" stroke="midnightblue" points="1342.56,-341.545 1336.18,-350.001 1346.44,-347.372 1342.56,-341.545"/>
</g>
<!-- Node10 -->
<g id="node10" class="node"><title>Node10</title>
<g id="a_node10"><a xlink:href="classx265_1_1FrameEncoder.html#a0ae85001572afd28238476542523ac5f" target="_top" xlink:title="x265::FrameEncoder\l::processRowEncoder">
<polygon fill="white" stroke="black" points="1600.5,-87.0758 1600.5,-117.076 1713.5,-117.076 1713.5,-87.0758 1600.5,-87.0758"/>
<text text-anchor="start" x="1608.5" y="-105.076" font-family="Helvetica,sans-Serif" font-size="10.00">x265::FrameEncoder</text>
<text text-anchor="middle" x="1657" y="-94.0758" font-family="Helvetica,sans-Serif" font-size="10.00">::processRowEncoder</text>
</a>
</g>
</g>
<!-- Node9&#45;&gt;Node10 -->
<g id="edge9" class="edge"><title>Node9&#45;&gt;Node10</title>
<path fill="none" stroke="midnightblue" d="M1512.77,-193.845C1544.55,-173.482 1600.56,-137.598 1632.3,-117.259"/>
<polygon fill="midnightblue" stroke="midnightblue" points="1510.65,-191.05 1504.11,-199.392 1514.42,-196.944 1510.65,-191.05"/>
</g>
<!-- Node11 -->
<g id="node11" class="node"><title>Node11</title>
<g id="a_node11"><a xlink:href="classx265_1_1FrameEncoder.html#acad645a8ece97d884895f8f7366b7d70" target="_top" xlink:title="x265::FrameEncoder\l::processRow">
<polygon fill="white" stroke="red" points="1750.5,-87.0758 1750.5,-117.076 1857.5,-117.076 1857.5,-87.0758 1750.5,-87.0758"/>
<text text-anchor="start" x="1758.5" y="-105.076" font-family="Helvetica,sans-Serif" font-size="10.00">x265::FrameEncoder</text>
<text text-anchor="middle" x="1804" y="-94.0758" font-family="Helvetica,sans-Serif" font-size="10.00">::processRow</text>
</a>
</g>
</g>
<!-- Node10&#45;&gt;Node11 -->
<g id="edge10" class="edge"><title>Node10&#45;&gt;Node11</title>
<path fill="none" stroke="midnightblue" d="M1723.88,-102.076C1732.67,-102.076 1741.59,-102.076 1750.13,-102.076"/>
<polygon fill="midnightblue" stroke="midnightblue" points="1723.65,-98.5759 1713.65,-102.076 1723.65,-105.576 1723.65,-98.5759"/>
</g>
<!-- Node12&#45;&gt;Node9 -->
<g id="edge13" class="edge"><title>Node12&#45;&gt;Node9</title>
<path fill="none" stroke="midnightblue" d="M1351.43,-277.25C1387.82,-258.95 1440.3,-232.558 1468.09,-218.587"/>
<polygon fill="midnightblue" stroke="midnightblue" points="1349.45,-274.329 1342.08,-281.948 1352.59,-280.582 1349.45,-274.329"/>
</g>
<!-- Node14 -->
<g id="node14" class="node"><title>Node14</title>
<g id="a_node14"><a xlink:href="classx265_1_1Entropy.html#abb101b71f310e90eb504a8204babc180" target="_top" xlink:title="x265::Entropy::encodeCTU">
<polygon fill="white" stroke="black" points="886,-29.5758 886,-48.5758 1022,-48.5758 1022,-29.5758 886,-29.5758"/>
<text text-anchor="middle" x="954" y="-36.5758" font-family="Helvetica,sans-Serif" font-size="10.00">x265::Entropy::encodeCTU</text>
</a>
</g>
</g>
<!-- Node13&#45;&gt;Node14 -->
<g id="edge15" class="edge"><title>Node13&#45;&gt;Node14</title>
<path fill="none" stroke="midnightblue" d="M835.664,-61.615C857.642,-57.3931 882.285,-52.6595 903.292,-48.6242"/>
<polygon fill="midnightblue" stroke="midnightblue" points="834.936,-58.1907 825.775,-63.5144 836.256,-65.0651 834.936,-58.1907"/>
</g>
<!-- Node14&#45;&gt;Node10 -->
<g id="edge18" class="edge"><title>Node14&#45;&gt;Node10</title>
<path fill="none" stroke="midnightblue" d="M997.775,-26.9152C1017.72,-21.8536 1041.89,-16.5794 1064,-14.0758 1201.79,1.52292 1238.94,6.9555 1376,-14.0758 1466.41,-27.9481 1567.69,-65.6311 1620.15,-86.9139"/>
<polygon fill="midnightblue" stroke="midnightblue" points="996.852,-23.5389 988.058,-29.448 998.617,-30.3126 996.852,-23.5389"/>
</g>
<!-- Node15 -->
<g id="node15" class="node"><title>Node15</title>
<g id="a_node15"><a xlink:href="classx265_1_1FrameEncoder.html#a6d4045d35bfe6b10c8d0dc39353be360" target="_top" xlink:title="x265::FrameEncoder\l::encodeSlice">
<polygon fill="white" stroke="black" points="1083.5,-24.0758 1083.5,-54.0758 1190.5,-54.0758 1190.5,-24.0758 1083.5,-24.0758"/>
<text text-anchor="start" x="1091.5" y="-42.0758" font-family="Helvetica,sans-Serif" font-size="10.00">x265::FrameEncoder</text>
<text text-anchor="middle" x="1137" y="-31.0758" font-family="Helvetica,sans-Serif" font-size="10.00">::encodeSlice</text>
</a>
</g>
</g>
<!-- Node14&#45;&gt;Node15 -->
<g id="edge16" class="edge"><title>Node14&#45;&gt;Node15</title>
<path fill="none" stroke="midnightblue" d="M1032.21,-39.0758C1049.47,-39.0758 1067.39,-39.0758 1083.39,-39.0758"/>
<polygon fill="midnightblue" stroke="midnightblue" points="1032.14,-35.5759 1022.14,-39.0758 1032.14,-42.5759 1032.14,-35.5759"/>
</g>
<!-- Node16 -->
<g id="node16" class="node"><title>Node16</title>
<g id="a_node16"><a xlink:href="classx265_1_1FrameEncoder.html#a2f5c4c0f1a4e36fce4c9b87eb7ec4973" target="_top" xlink:title="x265::FrameEncoder\l::compressFrame">
<polygon fill="white" stroke="red" points="1257.5,-24.0758 1257.5,-54.0758 1364.5,-54.0758 1364.5,-24.0758 1257.5,-24.0758"/>
<text text-anchor="start" x="1265.5" y="-42.0758" font-family="Helvetica,sans-Serif" font-size="10.00">x265::FrameEncoder</text>
<text text-anchor="middle" x="1311" y="-31.0758" font-family="Helvetica,sans-Serif" font-size="10.00">::compressFrame</text>
</a>
</g>
</g>
<!-- Node15&#45;&gt;Node16 -->
<g id="edge17" class="edge"><title>Node15&#45;&gt;Node16</title>
<path fill="none" stroke="midnightblue" d="M1200.71,-39.0758C1219.35,-39.0758 1239.57,-39.0758 1257.49,-39.0758"/>
<polygon fill="midnightblue" stroke="midnightblue" points="1200.54,-35.5759 1190.54,-39.0758 1200.54,-42.5759 1200.54,-35.5759"/>
</g>
<!-- Node18 -->
<g id="node18" class="node"><title>Node18</title>
<g id="a_node18"><a xlink:href="classx265_1_1Analysis.html#a10f0a8d9d143faf8dc671c6f0982693d" target="_top" xlink:title="x265::Analysis::tryLossless">
<polygon fill="white" stroke="black" points="1068.5,-199.576 1068.5,-218.576 1205.5,-218.576 1205.5,-199.576 1068.5,-199.576"/>
<text text-anchor="middle" x="1137" y="-206.576" font-family="Helvetica,sans-Serif" font-size="10.00">x265::Analysis::tryLossless</text>
</a>
</g>
</g>
<!-- Node17&#45;&gt;Node18 -->
<g id="edge20" class="edge"><title>Node17&#45;&gt;Node18</title>
<path fill="none" stroke="midnightblue" d="M1017.43,-187.457C1039.05,-191.4 1063.05,-195.775 1083.76,-199.552"/>
<polygon fill="midnightblue" stroke="midnightblue" points="1017.82,-183.971 1007.35,-185.621 1016.56,-190.858 1017.82,-183.971"/>
</g>
<!-- Node19 -->
<g id="node19" class="node"><title>Node19</title>
<g id="a_node19"><a xlink:href="classx265_1_1Analysis.html#aae2a6a2252270782b591d2bed7e99dae" target="_top" xlink:title="x265::Analysis::compress\lIntraCU">
<polygon fill="white" stroke="black" points="1246,-145.076 1246,-175.076 1376,-175.076 1376,-145.076 1246,-145.076"/>
<text text-anchor="start" x="1254" y="-163.076" font-family="Helvetica,sans-Serif" font-size="10.00">x265::Analysis::compress</text>
<text text-anchor="middle" x="1311" y="-152.076" font-family="Helvetica,sans-Serif" font-size="10.00">IntraCU</text>
</a>
</g>
</g>
<!-- Node17&#45;&gt;Node19 -->
<g id="edge27" class="edge"><title>Node17&#45;&gt;Node19</title>
<path fill="none" stroke="midnightblue" d="M973.259,-159.864C993.698,-142.9 1028.61,-117.334 1064,-107.076 1126.32,-89.0077 1147.03,-91.4197 1210,-107.076 1239.37,-114.377 1269.59,-132.073 1289.01,-145.016"/>
<polygon fill="midnightblue" stroke="midnightblue" points="970.768,-157.389 965.426,-166.539 975.308,-162.717 970.768,-157.389"/>
</g>
<!-- Node20 -->
<g id="node20" class="node"><title>Node20</title>
<g id="a_node20"><a xlink:href="classx265_1_1Analysis.html#a0b22b7765aa4a36b1ba6d07ba26901e6" target="_top" xlink:title="x265::Analysis::compress\lInterCU_rd5_6">
<polygon fill="white" stroke="black" points="1246,-194.076 1246,-224.076 1376,-224.076 1376,-194.076 1246,-194.076"/>
<text text-anchor="start" x="1254" y="-212.076" font-family="Helvetica,sans-Serif" font-size="10.00">x265::Analysis::compress</text>
<text text-anchor="middle" x="1311" y="-201.076" font-family="Helvetica,sans-Serif" font-size="10.00">InterCU_rd5_6</text>
</a>
</g>
</g>
<!-- Node17&#45;&gt;Node20 -->
<g id="edge28" class="edge"><title>Node17&#45;&gt;Node20</title>
<path fill="none" stroke="midnightblue" d="M983.305,-162.202C1032.08,-140.386 1134.02,-104.073 1210,-140.076 1232.83,-150.896 1225.56,-169.216 1246,-184.076 1251.21,-187.864 1257.07,-191.167 1263.07,-194.02"/>
<polygon fill="midnightblue" stroke="midnightblue" points="981.632,-159.119 974.008,-166.476 984.556,-165.479 981.632,-159.119"/>
</g>
<!-- Node18&#45;&gt;Node8 -->
<g id="edge23" class="edge"><title>Node18&#45;&gt;Node8</title>
<path fill="none" stroke="midnightblue" d="M1204.39,-223.723C1206.36,-225.053 1208.24,-226.5 1210,-228.076 1243.04,-257.624 1218.51,-286.306 1246,-321.076 1255.28,-332.817 1268.55,-342.649 1280.6,-350.019"/>
<polygon fill="midnightblue" stroke="midnightblue" points="1205.71,-220.447 1195.27,-218.617 1202.29,-226.555 1205.71,-220.447"/>
</g>
<!-- Node18&#45;&gt;Node12 -->
<g id="edge24" class="edge"><title>Node18&#45;&gt;Node12</title>
<path fill="none" stroke="midnightblue" d="M1193.4,-221.588C1199.1,-223.497 1204.73,-225.654 1210,-228.076 1241.24,-242.439 1273.24,-266.485 1292.36,-282.06"/>
<polygon fill="midnightblue" stroke="midnightblue" points="1194.36,-218.223 1183.77,-218.604 1192.29,-224.909 1194.36,-218.223"/>
</g>
<!-- Node18&#45;&gt;Node19 -->
<g id="edge21" class="edge"><title>Node18&#45;&gt;Node19</title>
<path fill="none" stroke="midnightblue" d="M1182.49,-196.804C1191.59,-194.267 1201.11,-191.6 1210,-189.076 1225.82,-184.584 1243.03,-179.621 1258.65,-175.089"/>
<polygon fill="midnightblue" stroke="midnightblue" points="1181.51,-193.442 1172.81,-199.491 1183.38,-200.186 1181.51,-193.442"/>
</g>
<!-- Node18&#45;&gt;Node20 -->
<g id="edge25" class="edge"><title>Node18&#45;&gt;Node20</title>
<path fill="none" stroke="midnightblue" d="M1216.24,-209.076C1226.16,-209.076 1236.22,-209.076 1245.88,-209.076"/>
<polygon fill="midnightblue" stroke="midnightblue" points="1215.98,-205.576 1205.98,-209.076 1215.98,-212.576 1215.98,-205.576"/>
</g>
<!-- Node19&#45;&gt;Node9 -->
<g id="edge22" class="edge"><title>Node19&#45;&gt;Node9</title>
<path fill="none" stroke="midnightblue" d="M1375.79,-177.936C1401.94,-185.258 1431.15,-193.436 1453.06,-199.574"/>
<polygon fill="midnightblue" stroke="midnightblue" points="1376.51,-174.503 1365.93,-175.177 1374.62,-181.244 1376.51,-174.503"/>
</g>
<!-- Node20&#45;&gt;Node9 -->
<g id="edge26" class="edge"><title>Node20&#45;&gt;Node9</title>
<path fill="none" stroke="midnightblue" d="M1386.25,-209.076C1394.93,-209.076 1403.78,-209.076 1412.47,-209.076"/>
<polygon fill="midnightblue" stroke="midnightblue" points="1386.17,-205.576 1376.17,-209.076 1386.17,-212.576 1386.17,-205.576"/>
</g>
<!-- Node21&#45;&gt;Node8 -->
<g id="edge31" class="edge"><title>Node21&#45;&gt;Node8</title>
<path fill="none" stroke="midnightblue" d="M969.604,-276.956C987.822,-304.191 1021.78,-347.251 1064,-365.076 1121.94,-389.536 1194.61,-385.857 1245.9,-378.318"/>
<polygon fill="midnightblue" stroke="midnightblue" points="972.42,-274.867 964.039,-268.385 966.549,-278.678 972.42,-274.867"/>
</g>
<!-- Node21&#45;&gt;Node12 -->
<g id="edge32" class="edge"><title>Node21&#45;&gt;Node12</title>
<path fill="none" stroke="midnightblue" d="M1026.32,-270.231C1038.83,-272.822 1051.75,-275.238 1064,-277.076 1125.34,-286.279 1195.96,-291.469 1245.76,-294.241"/>
<polygon fill="midnightblue" stroke="midnightblue" points="1026.92,-266.779 1016.41,-268.123 1025.46,-273.626 1026.92,-266.779"/>
</g>
<!-- Node21&#45;&gt;Node18 -->
<g id="edge30" class="edge"><title>Node21&#45;&gt;Node18</title>
<path fill="none" stroke="midnightblue" d="M1026.56,-235.679C1050.52,-229.855 1076.33,-223.58 1096.87,-218.588"/>
<polygon fill="midnightblue" stroke="midnightblue" points="1025.67,-232.293 1016.78,-238.057 1027.33,-239.095 1025.67,-232.293"/>
</g>
<!-- Node22 -->
<g id="node22" class="node"><title>Node22</title>
<g id="a_node22"><a xlink:href="classx265_1_1Analysis.html#addd72cb95590e2b2a6965d42d110eab3" target="_top" xlink:title="x265::Analysis::checkMerge2\lNx2N_rd0_4">
<polygon fill="white" stroke="black" points="1064,-326.076 1064,-356.076 1210,-356.076 1210,-326.076 1064,-326.076"/>
<text text-anchor="start" x="1072" y="-344.076" font-family="Helvetica,sans-Serif" font-size="10.00">x265::Analysis::checkMerge2</text>
<text text-anchor="middle" x="1137" y="-333.076" font-family="Helvetica,sans-Serif" font-size="10.00">Nx2N_rd0_4</text>
</a>
</g>
</g>
<!-- Node21&#45;&gt;Node22 -->
<g id="edge33" class="edge"><title>Node21&#45;&gt;Node22</title>
<path fill="none" stroke="midnightblue" d="M990.444,-273.026C1011.56,-284.633 1039.02,-299.257 1064,-311.076 1074.89,-316.23 1086.92,-321.426 1097.96,-326.013"/>
<polygon fill="midnightblue" stroke="midnightblue" points="991.963,-269.866 981.519,-268.09 988.576,-275.992 991.963,-269.866"/>
</g>
<!-- Node23 -->
<g id="node23" class="node"><title>Node23</title>
<g id="a_node23"><a xlink:href="classx265_1_1Analysis.html#a0194a9da53aa95173fa1132ba3aea1c7" target="_top" xlink:title="x265::Analysis::checkMerge2\lNx2N_rd5_6">
<polygon fill="white" stroke="black" points="1064,-150.076 1064,-180.076 1210,-180.076 1210,-150.076 1064,-150.076"/>
<text text-anchor="start" x="1072" y="-168.076" font-family="Helvetica,sans-Serif" font-size="10.00">x265::Analysis::checkMerge2</text>
<text text-anchor="middle" x="1137" y="-157.076" font-family="Helvetica,sans-Serif" font-size="10.00">Nx2N_rd5_6</text>
</a>
</g>
</g>
<!-- Node21&#45;&gt;Node23 -->
<g id="edge36" class="edge"><title>Node21&#45;&gt;Node23</title>
<path fill="none" stroke="midnightblue" d="M986.756,-232.569C1008.06,-219.358 1037.04,-202.41 1064,-190.076 1071.82,-186.497 1080.31,-183.124 1088.63,-180.083"/>
<polygon fill="midnightblue" stroke="midnightblue" points="984.741,-229.701 978.126,-237.977 988.458,-235.632 984.741,-229.701"/>
</g>
<!-- Node24 -->
<g id="node24" class="node"><title>Node24</title>
<g id="a_node24"><a xlink:href="classx265_1_1Analysis.html#a828daa3e9f1ed40a1af9f99f7ff7bb33" target="_top" xlink:title="x265::Analysis::checkInter\l_rd5_6">
<polygon fill="white" stroke="black" points="1070.5,-238.076 1070.5,-268.076 1203.5,-268.076 1203.5,-238.076 1070.5,-238.076"/>
<text text-anchor="start" x="1078.5" y="-256.076" font-family="Helvetica,sans-Serif" font-size="10.00">x265::Analysis::checkInter</text>
<text text-anchor="middle" x="1137" y="-245.076" font-family="Helvetica,sans-Serif" font-size="10.00">_rd5_6</text>
</a>
</g>
</g>
<!-- Node21&#45;&gt;Node24 -->
<g id="edge38" class="edge"><title>Node21&#45;&gt;Node24</title>
<path fill="none" stroke="midnightblue" d="M1037.62,-253.076C1048.62,-253.076 1059.77,-253.076 1070.43,-253.076"/>
<polygon fill="midnightblue" stroke="midnightblue" points="1037.58,-249.576 1027.58,-253.076 1037.58,-256.576 1037.58,-249.576"/>
</g>
<!-- Node22&#45;&gt;Node8 -->
<g id="edge34" class="edge"><title>Node22&#45;&gt;Node8</title>
<path fill="none" stroke="midnightblue" d="M1220.42,-352.577C1228.96,-353.767 1237.54,-354.965 1245.83,-356.122"/>
<polygon fill="midnightblue" stroke="midnightblue" points="1220.83,-349.1 1210.44,-351.184 1219.87,-356.033 1220.83,-349.1"/>
</g>
<!-- Node22&#45;&gt;Node12 -->
<g id="edge35" class="edge"><title>Node22&#45;&gt;Node12</title>
<path fill="none" stroke="midnightblue" d="M1206.78,-323.482C1221.51,-319.713 1236.95,-315.764 1251.26,-312.102"/>
<polygon fill="midnightblue" stroke="midnightblue" points="1205.53,-320.187 1196.71,-326.057 1207.27,-326.969 1205.53,-320.187"/>
</g>
<!-- Node23&#45;&gt;Node20 -->
<g id="edge37" class="edge"><title>Node23&#45;&gt;Node20</title>
<path fill="none" stroke="midnightblue" d="M1206.78,-182.67C1221.51,-186.439 1236.95,-190.388 1251.26,-194.05"/>
<polygon fill="midnightblue" stroke="midnightblue" points="1207.27,-179.183 1196.71,-180.095 1205.53,-185.964 1207.27,-179.183"/>
</g>
<!-- Node24&#45;&gt;Node20 -->
<g id="edge39" class="edge"><title>Node24&#45;&gt;Node20</title>
<path fill="none" stroke="midnightblue" d="M1206.78,-235.482C1221.51,-231.713 1236.95,-227.764 1251.26,-224.102"/>
<polygon fill="midnightblue" stroke="midnightblue" points="1205.53,-232.187 1196.71,-238.057 1207.27,-238.969 1205.53,-232.187"/>
</g>
</g>
</svg>
