<?xml version="1.0" encoding="UTF-8" standalone="no"?>
<!DOCTYPE svg PUBLIC "-//W3C//DTD SVG 1.1//EN"
 "http://www.w3.org/Graphics/SVG/1.1/DTD/svg11.dtd">
<!-- Generated by graphviz version 2.36.0 (20140111.2315)
 -->
<!-- Title: x265::FrameFilter::init Pages: 1 -->
<svg width="254pt" height="66pt"
 viewBox="0.00 0.00 254.00 66.00" xmlns="http://www.w3.org/2000/svg" xmlns:xlink="http://www.w3.org/1999/xlink">
<g id="graph0" class="graph" transform="scale(1 1) rotate(0) translate(4 62)">
<title>x265::FrameFilter::init</title>
<polygon fill="white" stroke="none" points="-4,4 -4,-62 250,-62 250,4 -4,4"/>
<!-- Node1 -->
<g id="node1" class="node"><title>Node1</title>
<polygon fill="#bfbfbf" stroke="black" points="0,-19.5 0,-38.5 112,-38.5 112,-19.5 0,-19.5"/>
<text text-anchor="middle" x="56" y="-26.5" font-family="Helvetica,sans-Serif" font-size="10.00">x265::FrameFilter::init</text>
</g>
<!-- Node2 -->
<g id="node2" class="node"><title>Node2</title>
<g id="a_node2"><a xlink:href="classx265_1_1Deblock.html#aee748035df83098d0a8cfb4e211f31db" target="_top" xlink:title="x265::Deblock::init">
<polygon fill="white" stroke="black" points="148,-38.5 148,-57.5 246,-57.5 246,-38.5 148,-38.5"/>
<text text-anchor="middle" x="197" y="-45.5" font-family="Helvetica,sans-Serif" font-size="10.00">x265::Deblock::init</text>
</a>
</g>
</g>
<!-- Node1&#45;&gt;Node2 -->
<g id="edge1" class="edge"><title>Node1&#45;&gt;Node2</title>
<path fill="none" stroke="midnightblue" d="M112.336,-36.5639C120.625,-37.6969 129.194,-38.8683 137.546,-40.0098"/>
<polygon fill="midnightblue" stroke="midnightblue" points="137.208,-43.4962 147.59,-41.3829 138.157,-36.5607 137.208,-43.4962"/>
</g>
<!-- Node3 -->
<g id="node3" class="node"><title>Node3</title>
<g id="a_node3"><a xlink:href="classx265_1_1SAO.html#a0df11d7e34287d5228d3c4319fa5b905" target="_top" xlink:title="x265::SAO::create">
<polygon fill="white" stroke="black" points="148,-0.5 148,-19.5 246,-19.5 246,-0.5 148,-0.5"/>
<text text-anchor="middle" x="197" y="-7.5" font-family="Helvetica,sans-Serif" font-size="10.00">x265::SAO::create</text>
</a>
</g>
</g>
<!-- Node1&#45;&gt;Node3 -->
<g id="edge2" class="edge"><title>Node1&#45;&gt;Node3</title>
<path fill="none" stroke="midnightblue" d="M112.336,-21.4361C120.625,-20.3031 129.194,-19.1317 137.546,-17.9902"/>
<polygon fill="midnightblue" stroke="midnightblue" points="138.157,-21.4393 147.59,-16.6171 137.208,-14.5038 138.157,-21.4393"/>
</g>
</g>
</svg>
