<?xml version="1.0" encoding="UTF-8" standalone="no"?>
<!DOCTYPE svg PUBLIC "-//W3C//DTD SVG 1.1//EN"
 "http://www.w3.org/Graphics/SVG/1.1/DTD/svg11.dtd">
<!-- Generated by graphviz version 2.36.0 (20140111.2315)
 -->
<!-- Title: x265::Predict::predInterChromaShort Pages: 1 -->
<svg width="1532pt" height="248pt"
 viewBox="0.00 0.00 1532.00 248.00" xmlns="http://www.w3.org/2000/svg" xmlns:xlink="http://www.w3.org/1999/xlink">
<g id="graph0" class="graph" transform="scale(1 1) rotate(0) translate(4 244)">
<title>x265::Predict::predInterChromaShort</title>
<polygon fill="white" stroke="none" points="-4,4 -4,-244 1528,-244 1528,4 -4,4"/>
<!-- Node1 -->
<g id="node1" class="node"><title>Node1</title>
<polygon fill="#bfbfbf" stroke="black" points="0.5,-109 0.5,-139 119.5,-139 119.5,-109 0.5,-109"/>
<text text-anchor="start" x="8.5" y="-127" font-family="Helvetica,sans-Serif" font-size="10.00">x265::Predict::predInter</text>
<text text-anchor="middle" x="60" y="-116" font-family="Helvetica,sans-Serif" font-size="10.00">ChromaShort</text>
</g>
<!-- Node2 -->
<g id="node2" class="node"><title>Node2</title>
<g id="a_node2"><a xlink:href="classx265_1_1Predict.html#ab23a30d88a19749b5ddd7892d19e202f" target="_top" xlink:title="x265::Predict::motionCompensation">
<polygon fill="white" stroke="black" points="156.5,-114.5 156.5,-133.5 329.5,-133.5 329.5,-114.5 156.5,-114.5"/>
<text text-anchor="middle" x="243" y="-121.5" font-family="Helvetica,sans-Serif" font-size="10.00">x265::Predict::motionCompensation</text>
</a>
</g>
</g>
<!-- Node1&#45;&gt;Node2 -->
<g id="edge1" class="edge"><title>Node1&#45;&gt;Node2</title>
<path fill="none" stroke="midnightblue" d="M129.778,-124C138.435,-124 147.373,-124 156.251,-124"/>
<polygon fill="midnightblue" stroke="midnightblue" points="129.766,-120.5 119.766,-124 129.765,-127.5 129.766,-120.5"/>
</g>
<!-- Node3 -->
<g id="node3" class="node"><title>Node3</title>
<g id="a_node3"><a xlink:href="classx265_1_1Analysis.html#a87060ff27a37f56adc5f5b8a4c033ece" target="_top" xlink:title="x265::Analysis::compress\lInterCU_dist">
<polygon fill="white" stroke="black" points="566,-210 566,-240 696,-240 696,-210 566,-210"/>
<text text-anchor="start" x="574" y="-228" font-family="Helvetica,sans-Serif" font-size="10.00">x265::Analysis::compress</text>
<text text-anchor="middle" x="631" y="-217" font-family="Helvetica,sans-Serif" font-size="10.00">InterCU_dist</text>
</a>
</g>
</g>
<!-- Node2&#45;&gt;Node3 -->
<g id="edge2" class="edge"><title>Node2&#45;&gt;Node3</title>
<path fill="none" stroke="midnightblue" d="M260.504,-140.581C282.419,-161.372 323.35,-196.094 366,-211 431.317,-233.828 511.253,-234.625 565.942,-231.422"/>
<polygon fill="midnightblue" stroke="midnightblue" points="262.937,-138.065 253.323,-133.614 258.063,-143.089 262.937,-138.065"/>
</g>
<!-- Node7 -->
<g id="node7" class="node"><title>Node7</title>
<g id="a_node7"><a xlink:href="classx265_1_1Analysis.html#a30d2ff7eca5addbb0a6b3dfe14f09650" target="_top" xlink:title="x265::Analysis::compress\lInterCU_rd0_4">
<polygon fill="white" stroke="black" points="912,-133 912,-163 1042,-163 1042,-133 912,-133"/>
<text text-anchor="start" x="920" y="-151" font-family="Helvetica,sans-Serif" font-size="10.00">x265::Analysis::compress</text>
<text text-anchor="middle" x="977" y="-140" font-family="Helvetica,sans-Serif" font-size="10.00">InterCU_rd0_4</text>
</a>
</g>
</g>
<!-- Node2&#45;&gt;Node7 -->
<g id="edge6" class="edge"><title>Node2&#45;&gt;Node7</title>
<path fill="none" stroke="midnightblue" d="M339.994,-127.147C491.691,-132.121 782.826,-141.666 911.795,-145.895"/>
<polygon fill="midnightblue" stroke="midnightblue" points="339.871,-123.642 329.762,-126.812 339.642,-130.638 339.871,-123.642"/>
</g>
<!-- Node8 -->
<g id="node8" class="node"><title>Node8</title>
<g id="a_node8"><a xlink:href="classx265_1_1Analysis.html#addd72cb95590e2b2a6965d42d110eab3" target="_top" xlink:title="x265::Analysis::checkMerge2\lNx2N_rd0_4">
<polygon fill="white" stroke="black" points="370,-172 370,-202 516,-202 516,-172 370,-172"/>
<text text-anchor="start" x="378" y="-190" font-family="Helvetica,sans-Serif" font-size="10.00">x265::Analysis::checkMerge2</text>
<text text-anchor="middle" x="443" y="-179" font-family="Helvetica,sans-Serif" font-size="10.00">Nx2N_rd0_4</text>
</a>
</g>
</g>
<!-- Node2&#45;&gt;Node8 -->
<g id="edge8" class="edge"><title>Node2&#45;&gt;Node8</title>
<path fill="none" stroke="midnightblue" d="M283.969,-136.718C315.949,-146.893 360.873,-161.187 394.653,-171.935"/>
<polygon fill="midnightblue" stroke="midnightblue" points="284.662,-133.265 274.072,-133.568 282.54,-139.936 284.662,-133.265"/>
</g>
<!-- Node9 -->
<g id="node9" class="node"><title>Node9</title>
<g id="a_node9"><a xlink:href="classx265_1_1Analysis.html#a0194a9da53aa95173fa1132ba3aea1c7" target="_top" xlink:title="x265::Analysis::checkMerge2\lNx2N_rd5_6">
<polygon fill="white" stroke="black" points="558,-0 558,-30 704,-30 704,-0 558,-0"/>
<text text-anchor="start" x="566" y="-18" font-family="Helvetica,sans-Serif" font-size="10.00">x265::Analysis::checkMerge2</text>
<text text-anchor="middle" x="631" y="-7" font-family="Helvetica,sans-Serif" font-size="10.00">Nx2N_rd5_6</text>
</a>
</g>
</g>
<!-- Node2&#45;&gt;Node9 -->
<g id="edge11" class="edge"><title>Node2&#45;&gt;Node9</title>
<path fill="none" stroke="midnightblue" d="M263.499,-108.068C286.49,-90.224 326.584,-61.9758 366,-48 428.363,-25.888 503.597,-18.1895 557.769,-15.6975"/>
<polygon fill="midnightblue" stroke="midnightblue" points="261.233,-105.398 255.561,-114.346 265.576,-110.888 261.233,-105.398"/>
</g>
<!-- Node11 -->
<g id="node11" class="node"><title>Node11</title>
<g id="a_node11"><a xlink:href="classx265_1_1Search.html#a761560ef5d3ff0beb48567c88c771d55" target="_top" xlink:title="x265::Search::mergeEstimation">
<polygon fill="white" stroke="black" points="366,-57.5 366,-76.5 520,-76.5 520,-57.5 366,-57.5"/>
<text text-anchor="middle" x="443" y="-64.5" font-family="Helvetica,sans-Serif" font-size="10.00">x265::Search::mergeEstimation</text>
</a>
</g>
</g>
<!-- Node2&#45;&gt;Node11 -->
<g id="edge14" class="edge"><title>Node2&#45;&gt;Node11</title>
<path fill="none" stroke="midnightblue" d="M287.022,-111.615C323.578,-101.091 375.303,-86.2007 408.751,-76.5716"/>
<polygon fill="midnightblue" stroke="midnightblue" points="285.782,-108.33 277.141,-114.459 287.719,-115.056 285.782,-108.33"/>
</g>
<!-- Node12 -->
<g id="node12" class="node"><title>Node12</title>
<g id="a_node12"><a xlink:href="classx265_1_1Search.html#a48101e3d900e93b97a83f461be390bd1" target="_top" xlink:title="x265::Search::predInterSearch">
<polygon fill="white" stroke="black" points="556.5,-58.5 556.5,-77.5 705.5,-77.5 705.5,-58.5 556.5,-58.5"/>
<text text-anchor="middle" x="631" y="-65.5" font-family="Helvetica,sans-Serif" font-size="10.00">x265::Search::predInterSearch</text>
</a>
</g>
</g>
<!-- Node2&#45;&gt;Node12 -->
<g id="edge21" class="edge"><title>Node2&#45;&gt;Node12</title>
<path fill="none" stroke="midnightblue" d="M327.018,-113.129C381.854,-105.811 455.274,-95.7499 520,-86 537.413,-83.377 556.346,-80.3443 573.518,-77.5247"/>
<polygon fill="midnightblue" stroke="midnightblue" points="326.452,-109.673 317.001,-114.463 327.376,-116.612 326.452,-109.673"/>
</g>
<!-- Node4 -->
<g id="node4" class="node"><title>Node4</title>
<g id="a_node4"><a xlink:href="classx265_1_1Analysis.html#aaebc9de2ff98834c650244f3b58942c2" target="_top" xlink:title="x265::Analysis::compressCTU">
<polygon fill="white" stroke="black" points="1078.5,-138.5 1078.5,-157.5 1229.5,-157.5 1229.5,-138.5 1078.5,-138.5"/>
<text text-anchor="middle" x="1154" y="-145.5" font-family="Helvetica,sans-Serif" font-size="10.00">x265::Analysis::compressCTU</text>
</a>
</g>
</g>
<!-- Node3&#45;&gt;Node4 -->
<g id="edge3" class="edge"><title>Node3&#45;&gt;Node4</title>
<path fill="none" stroke="midnightblue" d="M706.18,-217.317C788.521,-208.345 925.217,-192.136 1042,-172 1065.61,-167.93 1091.81,-162.317 1112.82,-157.543"/>
<polygon fill="midnightblue" stroke="midnightblue" points="705.731,-213.845 696.166,-218.401 706.485,-220.804 705.731,-213.845"/>
</g>
<!-- Node5 -->
<g id="node5" class="node"><title>Node5</title>
<g id="a_node5"><a xlink:href="classx265_1_1FrameEncoder.html#a0ae85001572afd28238476542523ac5f" target="_top" xlink:title="x265::FrameEncoder\l::processRowEncoder">
<polygon fill="white" stroke="black" points="1266.5,-133 1266.5,-163 1379.5,-163 1379.5,-133 1266.5,-133"/>
<text text-anchor="start" x="1274.5" y="-151" font-family="Helvetica,sans-Serif" font-size="10.00">x265::FrameEncoder</text>
<text text-anchor="middle" x="1323" y="-140" font-family="Helvetica,sans-Serif" font-size="10.00">::processRowEncoder</text>
</a>
</g>
</g>
<!-- Node4&#45;&gt;Node5 -->
<g id="edge4" class="edge"><title>Node4&#45;&gt;Node5</title>
<path fill="none" stroke="midnightblue" d="M1239.86,-148C1248.86,-148 1257.85,-148 1266.39,-148"/>
<polygon fill="midnightblue" stroke="midnightblue" points="1239.71,-144.5 1229.71,-148 1239.71,-151.5 1239.71,-144.5"/>
</g>
<!-- Node6 -->
<g id="node6" class="node"><title>Node6</title>
<g id="a_node6"><a xlink:href="classx265_1_1FrameEncoder.html#acad645a8ece97d884895f8f7366b7d70" target="_top" xlink:title="x265::FrameEncoder\l::processRow">
<polygon fill="white" stroke="red" points="1416.5,-133 1416.5,-163 1523.5,-163 1523.5,-133 1416.5,-133"/>
<text text-anchor="start" x="1424.5" y="-151" font-family="Helvetica,sans-Serif" font-size="10.00">x265::FrameEncoder</text>
<text text-anchor="middle" x="1470" y="-140" font-family="Helvetica,sans-Serif" font-size="10.00">::processRow</text>
</a>
</g>
</g>
<!-- Node5&#45;&gt;Node6 -->
<g id="edge5" class="edge"><title>Node5&#45;&gt;Node6</title>
<path fill="none" stroke="midnightblue" d="M1389.88,-148C1398.67,-148 1407.59,-148 1416.13,-148"/>
<polygon fill="midnightblue" stroke="midnightblue" points="1389.65,-144.5 1379.65,-148 1389.65,-151.5 1389.65,-144.5"/>
</g>
<!-- Node7&#45;&gt;Node4 -->
<g id="edge7" class="edge"><title>Node7&#45;&gt;Node4</title>
<path fill="none" stroke="midnightblue" d="M1052.25,-148C1060.93,-148 1069.78,-148 1078.47,-148"/>
<polygon fill="midnightblue" stroke="midnightblue" points="1052.17,-144.5 1042.17,-148 1052.17,-151.5 1052.17,-144.5"/>
</g>
<!-- Node8&#45;&gt;Node3 -->
<g id="edge9" class="edge"><title>Node8&#45;&gt;Node3</title>
<path fill="none" stroke="midnightblue" d="M526.229,-203.799C539.47,-206.505 553.007,-209.27 565.745,-211.873"/>
<polygon fill="midnightblue" stroke="midnightblue" points="526.677,-200.319 516.179,-201.746 525.276,-207.177 526.677,-200.319"/>
</g>
<!-- Node8&#45;&gt;Node7 -->
<g id="edge10" class="edge"><title>Node8&#45;&gt;Node7</title>
<path fill="none" stroke="midnightblue" d="M526.335,-181.784C613.285,-176.158 754.35,-166.697 876,-157 887.555,-156.079 899.855,-155.029 911.733,-153.979"/>
<polygon fill="midnightblue" stroke="midnightblue" points="526.02,-178.297 516.266,-182.434 526.471,-185.283 526.02,-178.297"/>
</g>
<!-- Node10 -->
<g id="node10" class="node"><title>Node10</title>
<g id="a_node10"><a xlink:href="classx265_1_1Analysis.html#a0b22b7765aa4a36b1ba6d07ba26901e6" target="_top" xlink:title="x265::Analysis::compress\lInterCU_rd5_6">
<polygon fill="white" stroke="black" points="912,-35 912,-65 1042,-65 1042,-35 912,-35"/>
<text text-anchor="start" x="920" y="-53" font-family="Helvetica,sans-Serif" font-size="10.00">x265::Analysis::compress</text>
<text text-anchor="middle" x="977" y="-42" font-family="Helvetica,sans-Serif" font-size="10.00">InterCU_rd5_6</text>
</a>
</g>
</g>
<!-- Node9&#45;&gt;Node10 -->
<g id="edge12" class="edge"><title>Node9&#45;&gt;Node10</title>
<path fill="none" stroke="midnightblue" d="M714.382,-14.2089C761.856,-14.7912 822.537,-17.3039 876,-25 891.942,-27.2948 909.034,-31.066 924.497,-34.9918"/>
<polygon fill="midnightblue" stroke="midnightblue" points="714.187,-10.707 704.153,-14.1106 714.119,-17.7066 714.187,-10.707"/>
</g>
<!-- Node10&#45;&gt;Node4 -->
<g id="edge13" class="edge"><title>Node10&#45;&gt;Node4</title>
<path fill="none" stroke="midnightblue" d="M1031.71,-69.0911C1035.23,-70.664 1038.69,-72.3043 1042,-74 1079.93,-93.4286 1120.68,-123.157 1140.6,-138.343"/>
<polygon fill="midnightblue" stroke="midnightblue" points="1032.87,-65.7821 1022.3,-65.0927 1030.13,-72.2247 1032.87,-65.7821"/>
</g>
<!-- Node11&#45;&gt;Node12 -->
<g id="edge15" class="edge"><title>Node11&#45;&gt;Node12</title>
<path fill="none" stroke="midnightblue" d="M530.336,-67.4642C539.024,-67.5109 547.791,-67.558 556.33,-67.6039"/>
<polygon fill="midnightblue" stroke="midnightblue" points="530.209,-63.9635 520.19,-67.4096 530.171,-70.9634 530.209,-63.9635"/>
</g>
<!-- Node13 -->
<g id="node13" class="node"><title>Node13</title>
<g id="a_node13"><a xlink:href="classx265_1_1Analysis.html#a2305f7985af66b49fdbc40ebb1b281d2" target="_top" xlink:title="x265::Analysis::checkInter\l_rd0_4">
<polygon fill="white" stroke="black" points="742.5,-84 742.5,-114 875.5,-114 875.5,-84 742.5,-84"/>
<text text-anchor="start" x="750.5" y="-102" font-family="Helvetica,sans-Serif" font-size="10.00">x265::Analysis::checkInter</text>
<text text-anchor="middle" x="809" y="-91" font-family="Helvetica,sans-Serif" font-size="10.00">_rd0_4</text>
</a>
</g>
</g>
<!-- Node12&#45;&gt;Node13 -->
<g id="edge16" class="edge"><title>Node12&#45;&gt;Node13</title>
<path fill="none" stroke="midnightblue" d="M696.446,-79.3513C711.447,-81.9934 727.433,-84.8092 742.48,-87.4595"/>
<polygon fill="midnightblue" stroke="midnightblue" points="696.697,-75.8418 686.242,-77.554 695.483,-82.7357 696.697,-75.8418"/>
</g>
<!-- Node15 -->
<g id="node15" class="node"><title>Node15</title>
<g id="a_node15"><a xlink:href="classx265_1_1Analysis.html#a828daa3e9f1ed40a1af9f99f7ff7bb33" target="_top" xlink:title="x265::Analysis::checkInter\l_rd5_6">
<polygon fill="white" stroke="black" points="742.5,-35 742.5,-65 875.5,-65 875.5,-35 742.5,-35"/>
<text text-anchor="start" x="750.5" y="-53" font-family="Helvetica,sans-Serif" font-size="10.00">x265::Analysis::checkInter</text>
<text text-anchor="middle" x="809" y="-42" font-family="Helvetica,sans-Serif" font-size="10.00">_rd5_6</text>
</a>
</g>
</g>
<!-- Node12&#45;&gt;Node15 -->
<g id="edge19" class="edge"><title>Node12&#45;&gt;Node15</title>
<path fill="none" stroke="midnightblue" d="M715.653,-59.4446C724.579,-58.5317 733.564,-57.6127 742.241,-56.7253"/>
<polygon fill="midnightblue" stroke="midnightblue" points="715.212,-55.9713 705.62,-60.4707 715.924,-62.935 715.212,-55.9713"/>
</g>
<!-- Node13&#45;&gt;Node7 -->
<g id="edge18" class="edge"><title>Node13&#45;&gt;Node7</title>
<path fill="none" stroke="midnightblue" d="M870.868,-116.967C888.654,-122.217 907.902,-127.899 925.009,-132.948"/>
<polygon fill="midnightblue" stroke="midnightblue" points="871.742,-113.576 861.16,-114.101 869.76,-120.289 871.742,-113.576"/>
</g>
<!-- Node14 -->
<g id="node14" class="node"><title>Node14</title>
<g id="a_node14"><a xlink:href="classx265_1_1Analysis.html#aa6122285d10bb1bd7584958b88b029d5" target="_top" xlink:title="x265::Analysis::parallel\lModeAnalysis">
<polygon fill="white" stroke="red" points="918,-84 918,-114 1036,-114 1036,-84 918,-84"/>
<text text-anchor="start" x="926" y="-102" font-family="Helvetica,sans-Serif" font-size="10.00">x265::Analysis::parallel</text>
<text text-anchor="middle" x="977" y="-91" font-family="Helvetica,sans-Serif" font-size="10.00">ModeAnalysis</text>
</a>
</g>
</g>
<!-- Node13&#45;&gt;Node14 -->
<g id="edge17" class="edge"><title>Node13&#45;&gt;Node14</title>
<path fill="none" stroke="midnightblue" d="M885.845,-99C896.599,-99 907.514,-99 917.861,-99"/>
<polygon fill="midnightblue" stroke="midnightblue" points="885.608,-95.5001 875.608,-99 885.608,-102.5 885.608,-95.5001"/>
</g>
<!-- Node15&#45;&gt;Node10 -->
<g id="edge20" class="edge"><title>Node15&#45;&gt;Node10</title>
<path fill="none" stroke="midnightblue" d="M885.797,-50C894.539,-50 903.389,-50 911.954,-50"/>
<polygon fill="midnightblue" stroke="midnightblue" points="885.608,-46.5001 875.608,-50 885.608,-53.5001 885.608,-46.5001"/>
</g>
</g>
</svg>
