<?xml version="1.0" encoding="UTF-8" standalone="no"?>
<!DOCTYPE svg PUBLIC "-//W3C//DTD SVG 1.1//EN"
 "http://www.w3.org/Graphics/SVG/1.1/DTD/svg11.dtd">
<!-- Generated by graphviz version 2.36.0 (20140111.2315)
 -->
<!-- Title: x265::Entropy::codeSPS Pages: 1 -->
<svg width="984pt" height="324pt"
 viewBox="0.00 0.00 984.00 324.14" xmlns="http://www.w3.org/2000/svg" xmlns:xlink="http://www.w3.org/1999/xlink">
<g id="graph0" class="graph" transform="scale(1 1) rotate(0) translate(4 320.142)">
<title>x265::Entropy::codeSPS</title>
<polygon fill="white" stroke="none" points="-4,4 -4,-320.142 980,-320.142 980,4 -4,4"/>
<!-- Node1 -->
<g id="node1" class="node"><title>Node1</title>
<polygon fill="#bfbfbf" stroke="black" points="0.5,-122.194 0.5,-141.194 125.5,-141.194 125.5,-122.194 0.5,-122.194"/>
<text text-anchor="middle" x="63" y="-129.194" font-family="Helvetica,sans-Serif" font-size="10.00">x265::Entropy::codeSPS</text>
</g>
<!-- Node2 -->
<g id="node2" class="node"><title>Node2</title>
<g id="a_node2"><a xlink:href="classx265_1_1SyntaxElementWriter.html#a0bb88c348aa279a7ff17909fbe9afcb7" target="_top" xlink:title="x265::SyntaxElementWriter\l::WRITE_CODE">
<polygon fill="white" stroke="black" points="526.5,-230.694 526.5,-260.694 663.5,-260.694 663.5,-230.694 526.5,-230.694"/>
<text text-anchor="start" x="534.5" y="-248.694" font-family="Helvetica,sans-Serif" font-size="10.00">x265::SyntaxElementWriter</text>
<text text-anchor="middle" x="595" y="-237.694" font-family="Helvetica,sans-Serif" font-size="10.00">::WRITE_CODE</text>
</a>
</g>
</g>
<!-- Node1&#45;&gt;Node2 -->
<g id="edge1" class="edge"><title>Node1&#45;&gt;Node2</title>
<path fill="none" stroke="midnightblue" d="M72.0693,-141.368C87.838,-159.82 124.491,-200.528 162,-226.694 225.91,-271.276 244.026,-285.371 320,-302.694 393.665,-319.489 416.806,-321.436 490,-302.694 517.452,-295.664 545.447,-279.717 565.466,-266.474"/>
<polygon fill="midnightblue" stroke="midnightblue" points="567.497,-269.325 573.802,-260.81 563.563,-263.535 567.497,-269.325"/>
</g>
<!-- Node5 -->
<g id="node5" class="node"><title>Node5</title>
<g id="a_node5"><a xlink:href="classx265_1_1SyntaxElementWriter.html#a2d204a2fc0b37616f9a614bf037a3dd6" target="_top" xlink:title="x265::SyntaxElementWriter\l::WRITE_FLAG">
<polygon fill="white" stroke="black" points="526.5,-159.694 526.5,-189.694 663.5,-189.694 663.5,-159.694 526.5,-159.694"/>
<text text-anchor="start" x="534.5" y="-177.694" font-family="Helvetica,sans-Serif" font-size="10.00">x265::SyntaxElementWriter</text>
<text text-anchor="middle" x="595" y="-166.694" font-family="Helvetica,sans-Serif" font-size="10.00">::WRITE_FLAG</text>
</a>
</g>
</g>
<!-- Node1&#45;&gt;Node5 -->
<g id="edge4" class="edge"><title>Node1&#45;&gt;Node5</title>
<path fill="none" stroke="midnightblue" d="M125.575,-136.689C222.423,-144.547 410.206,-159.782 516.234,-168.384"/>
<polygon fill="midnightblue" stroke="midnightblue" points="515.984,-171.875 526.234,-169.196 516.55,-164.898 515.984,-171.875"/>
</g>
<!-- Node7 -->
<g id="node7" class="node"><title>Node7</title>
<g id="a_node7"><a xlink:href="classx265_1_1Entropy.html#a45108a2c64fe3de5c6d49e510481fe5b" target="_top" xlink:title="x265::Entropy::codeProfileTier">
<polygon fill="white" stroke="black" points="330.5,-274.194 330.5,-293.194 479.5,-293.194 479.5,-274.194 330.5,-274.194"/>
<text text-anchor="middle" x="405" y="-281.194" font-family="Helvetica,sans-Serif" font-size="10.00">x265::Entropy::codeProfileTier</text>
</a>
</g>
</g>
<!-- Node1&#45;&gt;Node7 -->
<g id="edge7" class="edge"><title>Node1&#45;&gt;Node7</title>
<path fill="none" stroke="midnightblue" d="M78.8982,-141.29C97.7865,-153.237 131.562,-173.874 162,-188.694 229.97,-221.788 249.564,-224.236 320,-251.694 336.102,-257.97 353.992,-264.805 369.11,-270.54"/>
<polygon fill="midnightblue" stroke="midnightblue" points="368.006,-273.864 378.597,-274.133 370.485,-267.318 368.006,-273.864"/>
</g>
<!-- Node8 -->
<g id="node8" class="node"><title>Node8</title>
<g id="a_node8"><a xlink:href="classx265_1_1SyntaxElementWriter.html#a44c3a048bbeb0eb105c37cfc17b40864" target="_top" xlink:title="x265::SyntaxElementWriter\l::WRITE_UVLC">
<polygon fill="white" stroke="black" points="526.5,-110.694 526.5,-140.694 663.5,-140.694 663.5,-110.694 526.5,-110.694"/>
<text text-anchor="start" x="534.5" y="-128.694" font-family="Helvetica,sans-Serif" font-size="10.00">x265::SyntaxElementWriter</text>
<text text-anchor="middle" x="595" y="-117.694" font-family="Helvetica,sans-Serif" font-size="10.00">::WRITE_UVLC</text>
</a>
</g>
</g>
<!-- Node1&#45;&gt;Node8 -->
<g id="edge10" class="edge"><title>Node1&#45;&gt;Node8</title>
<path fill="none" stroke="midnightblue" d="M72.5997,-122.093C88.4089,-105.162 123.971,-70.3122 162,-54.6936 297.051,0.772604 357.716,25.0809 490,-36.6936 512.583,-47.2397 507.498,-62.993 526,-79.6936 536.185,-88.8871 548.326,-97.671 559.511,-105.053"/>
<polygon fill="midnightblue" stroke="midnightblue" points="557.917,-108.189 568.221,-110.654 561.703,-102.302 557.917,-108.189"/>
</g>
<!-- Node10 -->
<g id="node10" class="node"><title>Node10</title>
<g id="a_node10"><a xlink:href="classx265_1_1Entropy.html#a18500d347f1915698fc3c3545a22aa1f" target="_top" xlink:title="x265::Entropy::codeScalingList">
<polygon fill="white" stroke="black" points="329,-46.1936 329,-65.1936 481,-65.1936 481,-46.1936 329,-46.1936"/>
<text text-anchor="middle" x="405" y="-53.1936" font-family="Helvetica,sans-Serif" font-size="10.00">x265::Entropy::codeScalingList</text>
</a>
</g>
</g>
<!-- Node1&#45;&gt;Node10 -->
<g id="edge13" class="edge"><title>Node1&#45;&gt;Node10</title>
<path fill="none" stroke="midnightblue" d="M77.8482,-122.089C96.1739,-109.924 129.918,-89.3842 162,-79.6936 212.644,-64.3961 271.69,-58.3241 318.779,-56.1113"/>
<polygon fill="midnightblue" stroke="midnightblue" points="319.099,-59.601 328.943,-55.6844 318.805,-52.6072 319.099,-59.601"/>
</g>
<!-- Node13 -->
<g id="node13" class="node"><title>Node13</title>
<g id="a_node13"><a xlink:href="classx265_1_1Entropy.html#aa0e5f1f35159ef51d0c231a231fa66b1" target="_top" xlink:title="x265::Entropy::codeVUI">
<polygon fill="white" stroke="black" points="162,-160.194 162,-179.194 284,-179.194 284,-160.194 162,-160.194"/>
<text text-anchor="middle" x="223" y="-167.194" font-family="Helvetica,sans-Serif" font-size="10.00">x265::Entropy::codeVUI</text>
</a>
</g>
</g>
<!-- Node1&#45;&gt;Node13 -->
<g id="edge18" class="edge"><title>Node1&#45;&gt;Node13</title>
<path fill="none" stroke="midnightblue" d="M103.87,-141.283C124.72,-146.297 150.435,-152.482 172.543,-157.799"/>
<polygon fill="midnightblue" stroke="midnightblue" points="171.875,-161.238 182.417,-160.174 173.512,-154.432 171.875,-161.238"/>
</g>
<!-- Node3 -->
<g id="node3" class="node"><title>Node3</title>
<g id="a_node3"><a xlink:href="classx265_1_1SyntaxElementWriter.html#ae5a4f2eb12b9c33050cd47aafe5d281c" target="_top" xlink:title="x265::SyntaxElementWriter\l::writeCode">
<polygon fill="white" stroke="black" points="704.5,-221.694 704.5,-251.694 841.5,-251.694 841.5,-221.694 704.5,-221.694"/>
<text text-anchor="start" x="712.5" y="-239.694" font-family="Helvetica,sans-Serif" font-size="10.00">x265::SyntaxElementWriter</text>
<text text-anchor="middle" x="773" y="-228.694" font-family="Helvetica,sans-Serif" font-size="10.00">::writeCode</text>
</a>
</g>
</g>
<!-- Node2&#45;&gt;Node3 -->
<g id="edge2" class="edge"><title>Node2&#45;&gt;Node3</title>
<path fill="none" stroke="midnightblue" d="M663.543,-242.24C673.576,-241.727 683.985,-241.194 694.207,-240.672"/>
<polygon fill="midnightblue" stroke="midnightblue" points="694.539,-244.159 704.347,-240.153 694.181,-237.168 694.539,-244.159"/>
</g>
<!-- Node4 -->
<g id="node4" class="node"><title>Node4</title>
<g id="a_node4"><a xlink:href="classx265_1_1BitInterface.html#a28a79d8b25645cdd59d6ff004d4851dc" target="_top" xlink:title="x265::BitInterface\l::write">
<polygon fill="white" stroke="black" points="882,-159.694 882,-189.694 976,-189.694 976,-159.694 882,-159.694"/>
<text text-anchor="start" x="890" y="-177.694" font-family="Helvetica,sans-Serif" font-size="10.00">x265::BitInterface</text>
<text text-anchor="middle" x="929" y="-166.694" font-family="Helvetica,sans-Serif" font-size="10.00">::write</text>
</a>
</g>
</g>
<!-- Node3&#45;&gt;Node4 -->
<g id="edge3" class="edge"><title>Node3&#45;&gt;Node4</title>
<path fill="none" stroke="midnightblue" d="M811.279,-221.685C832.309,-213.218 858.783,-202.56 881.2,-193.535"/>
<polygon fill="midnightblue" stroke="midnightblue" points="882.561,-196.76 890.53,-189.779 879.947,-190.267 882.561,-196.76"/>
</g>
<!-- Node6 -->
<g id="node6" class="node"><title>Node6</title>
<g id="a_node6"><a xlink:href="classx265_1_1SyntaxElementWriter.html#a3bfaf3088405d61eeba90f10c0a17afc" target="_top" xlink:title="x265::SyntaxElementWriter\l::writeFlag">
<polygon fill="white" stroke="black" points="704.5,-159.694 704.5,-189.694 841.5,-189.694 841.5,-159.694 704.5,-159.694"/>
<text text-anchor="start" x="712.5" y="-177.694" font-family="Helvetica,sans-Serif" font-size="10.00">x265::SyntaxElementWriter</text>
<text text-anchor="middle" x="773" y="-166.694" font-family="Helvetica,sans-Serif" font-size="10.00">::writeFlag</text>
</a>
</g>
</g>
<!-- Node5&#45;&gt;Node6 -->
<g id="edge5" class="edge"><title>Node5&#45;&gt;Node6</title>
<path fill="none" stroke="midnightblue" d="M663.543,-174.694C673.576,-174.694 683.985,-174.694 694.207,-174.694"/>
<polygon fill="midnightblue" stroke="midnightblue" points="694.347,-178.194 704.347,-174.694 694.347,-171.194 694.347,-178.194"/>
</g>
<!-- Node6&#45;&gt;Node4 -->
<g id="edge6" class="edge"><title>Node6&#45;&gt;Node4</title>
<path fill="none" stroke="midnightblue" d="M841.547,-174.694C851.623,-174.694 861.919,-174.694 871.73,-174.694"/>
<polygon fill="midnightblue" stroke="midnightblue" points="871.749,-178.194 881.749,-174.694 871.749,-171.194 871.749,-178.194"/>
</g>
<!-- Node7&#45;&gt;Node2 -->
<g id="edge8" class="edge"><title>Node7&#45;&gt;Node2</title>
<path fill="none" stroke="midnightblue" d="M453.44,-274.105C472.503,-270.251 494.983,-265.708 516.308,-261.397"/>
<polygon fill="midnightblue" stroke="midnightblue" points="517.227,-264.782 526.335,-259.371 515.84,-257.921 517.227,-264.782"/>
</g>
<!-- Node7&#45;&gt;Node5 -->
<g id="edge9" class="edge"><title>Node7&#45;&gt;Node5</title>
<path fill="none" stroke="midnightblue" d="M422.684,-274.021C453.178,-256.34 518.503,-218.466 559.095,-194.931"/>
<polygon fill="midnightblue" stroke="midnightblue" points="560.959,-197.896 567.855,-189.852 557.448,-191.84 560.959,-197.896"/>
</g>
<!-- Node9 -->
<g id="node9" class="node"><title>Node9</title>
<g id="a_node9"><a xlink:href="classx265_1_1SyntaxElementWriter.html#af0151cc567598deee8f51decf2ab915d" target="_top" xlink:title="x265::SyntaxElementWriter\l::writeUvlc">
<polygon fill="white" stroke="black" points="704.5,-110.694 704.5,-140.694 841.5,-140.694 841.5,-110.694 704.5,-110.694"/>
<text text-anchor="start" x="712.5" y="-128.694" font-family="Helvetica,sans-Serif" font-size="10.00">x265::SyntaxElementWriter</text>
<text text-anchor="middle" x="773" y="-117.694" font-family="Helvetica,sans-Serif" font-size="10.00">::writeUvlc</text>
</a>
</g>
</g>
<!-- Node8&#45;&gt;Node9 -->
<g id="edge11" class="edge"><title>Node8&#45;&gt;Node9</title>
<path fill="none" stroke="midnightblue" d="M663.543,-125.694C673.576,-125.694 683.985,-125.694 694.207,-125.694"/>
<polygon fill="midnightblue" stroke="midnightblue" points="694.347,-129.194 704.347,-125.694 694.347,-122.194 694.347,-129.194"/>
</g>
<!-- Node9&#45;&gt;Node4 -->
<g id="edge12" class="edge"><title>Node9&#45;&gt;Node4</title>
<path fill="none" stroke="midnightblue" d="M821.462,-140.795C837.493,-145.896 855.538,-151.637 872.157,-156.925"/>
<polygon fill="midnightblue" stroke="midnightblue" points="871.161,-160.281 881.752,-159.978 873.284,-153.611 871.161,-160.281"/>
</g>
<!-- Node10&#45;&gt;Node5 -->
<g id="edge16" class="edge"><title>Node10&#45;&gt;Node5</title>
<path fill="none" stroke="midnightblue" d="M463.34,-65.2386C472.929,-68.6741 482.261,-73.3446 490,-79.6936 517.047,-101.883 499.792,-126.519 526,-149.694 527.761,-151.251 529.627,-152.714 531.574,-154.088"/>
<polygon fill="midnightblue" stroke="midnightblue" points="530.188,-157.342 540.548,-159.562 533.834,-151.367 530.188,-157.342"/>
</g>
<!-- Node10&#45;&gt;Node8 -->
<g id="edge17" class="edge"><title>Node10&#45;&gt;Node8</title>
<path fill="none" stroke="midnightblue" d="M443.569,-65.2346C458.204,-69.2606 475.026,-74.2722 490,-79.6936 511.439,-87.4555 534.7,-97.5759 553.776,-106.347"/>
<polygon fill="midnightblue" stroke="midnightblue" points="552.514,-109.62 563.058,-110.659 555.463,-103.272 552.514,-109.62"/>
</g>
<!-- Node11 -->
<g id="node11" class="node"><title>Node11</title>
<g id="a_node11"><a xlink:href="classx265_1_1ScalingList.html#a74b20954ff1e4a0f285bb0459b565cd3" target="_top" xlink:title="x265::ScalingList::\lcheckPredMode">
<polygon fill="white" stroke="black" points="546,-40.6936 546,-70.6936 644,-70.6936 644,-40.6936 546,-40.6936"/>
<text text-anchor="start" x="554" y="-58.6936" font-family="Helvetica,sans-Serif" font-size="10.00">x265::ScalingList::</text>
<text text-anchor="middle" x="595" y="-47.6936" font-family="Helvetica,sans-Serif" font-size="10.00">checkPredMode</text>
</a>
</g>
</g>
<!-- Node10&#45;&gt;Node11 -->
<g id="edge14" class="edge"><title>Node10&#45;&gt;Node11</title>
<path fill="none" stroke="midnightblue" d="M481.113,-55.6936C499.154,-55.6936 518.162,-55.6936 535.331,-55.6936"/>
<polygon fill="midnightblue" stroke="midnightblue" points="535.758,-59.1937 545.757,-55.6936 535.757,-52.1937 535.758,-59.1937"/>
</g>
<!-- Node12 -->
<g id="node12" class="node"><title>Node12</title>
<g id="a_node12"><a xlink:href="classx265_1_1ScalingList.html#adc51f78336caaee1c0905a564c9d4f89" target="_top" xlink:title="x265::ScalingList::\lgetScalingListDefaultAddress">
<polygon fill="white" stroke="black" points="700,-40.6936 700,-70.6936 846,-70.6936 846,-40.6936 700,-40.6936"/>
<text text-anchor="start" x="708" y="-58.6936" font-family="Helvetica,sans-Serif" font-size="10.00">x265::ScalingList::</text>
<text text-anchor="middle" x="773" y="-47.6936" font-family="Helvetica,sans-Serif" font-size="10.00">getScalingListDefaultAddress</text>
</a>
</g>
</g>
<!-- Node11&#45;&gt;Node12 -->
<g id="edge15" class="edge"><title>Node11&#45;&gt;Node12</title>
<path fill="none" stroke="midnightblue" d="M644.093,-55.6936C658.203,-55.6936 674.049,-55.6936 689.657,-55.6936"/>
<polygon fill="midnightblue" stroke="midnightblue" points="689.859,-59.1937 699.859,-55.6936 689.859,-52.1937 689.859,-59.1937"/>
</g>
<!-- Node13&#45;&gt;Node2 -->
<g id="edge20" class="edge"><title>Node13&#45;&gt;Node2</title>
<path fill="none" stroke="midnightblue" d="M235.841,-179.256C253.141,-192.608 286.88,-216.357 320,-226.694 383.955,-246.654 460.245,-250.428 516.065,-249.77"/>
<polygon fill="midnightblue" stroke="midnightblue" points="516.302,-253.266 526.241,-249.598 516.184,-246.267 516.302,-253.266"/>
</g>
<!-- Node13&#45;&gt;Node5 -->
<g id="edge19" class="edge"><title>Node13&#45;&gt;Node5</title>
<path fill="none" stroke="midnightblue" d="M284.27,-170.508C347.377,-171.361 446.729,-172.703 515.83,-173.637"/>
<polygon fill="midnightblue" stroke="midnightblue" points="516.177,-177.142 526.224,-173.778 516.272,-170.143 516.177,-177.142"/>
</g>
<!-- Node13&#45;&gt;Node8 -->
<g id="edge21" class="edge"><title>Node13&#45;&gt;Node8</title>
<path fill="none" stroke="midnightblue" d="M284.27,-162.526C347.507,-155.006 447.138,-143.158 516.255,-134.939"/>
<polygon fill="midnightblue" stroke="midnightblue" points="516.707,-138.41 526.224,-133.753 515.88,-131.459 516.707,-138.41"/>
</g>
<!-- Node14 -->
<g id="node14" class="node"><title>Node14</title>
<g id="a_node14"><a xlink:href="classx265_1_1Entropy.html#af169c08900b0468bbbbc3117d2b47e04" target="_top" xlink:title="x265::Entropy::codeHrdParameters">
<polygon fill="white" stroke="black" points="320,-198.194 320,-217.194 490,-217.194 490,-198.194 320,-198.194"/>
<text text-anchor="middle" x="405" y="-205.194" font-family="Helvetica,sans-Serif" font-size="10.00">x265::Entropy::codeHrdParameters</text>
</a>
</g>
</g>
<!-- Node13&#45;&gt;Node14 -->
<g id="edge22" class="edge"><title>Node13&#45;&gt;Node14</title>
<path fill="none" stroke="midnightblue" d="M269.422,-179.283C293.603,-184.387 323.527,-190.705 349.014,-196.085"/>
<polygon fill="midnightblue" stroke="midnightblue" points="348.398,-199.532 358.905,-198.174 349.844,-192.683 348.398,-199.532"/>
</g>
<!-- Node14&#45;&gt;Node2 -->
<g id="edge24" class="edge"><title>Node14&#45;&gt;Node2</title>
<path fill="none" stroke="midnightblue" d="M453.44,-217.283C472.503,-221.136 494.983,-225.68 516.308,-229.99"/>
<polygon fill="midnightblue" stroke="midnightblue" points="515.84,-233.466 526.335,-232.017 517.227,-226.605 515.84,-233.466"/>
</g>
<!-- Node14&#45;&gt;Node5 -->
<g id="edge23" class="edge"><title>Node14&#45;&gt;Node5</title>
<path fill="none" stroke="midnightblue" d="M460.125,-198.193C477.595,-195.126 497.322,-191.664 516.156,-188.358"/>
<polygon fill="midnightblue" stroke="midnightblue" points="516.961,-191.77 526.206,-186.594 515.751,-184.875 516.961,-191.77"/>
</g>
<!-- Node14&#45;&gt;Node8 -->
<g id="edge25" class="edge"><title>Node14&#45;&gt;Node8</title>
<path fill="none" stroke="midnightblue" d="M424.878,-198.069C448.314,-186.274 489.641,-165.975 526,-150.694 531.073,-148.561 536.398,-146.428 541.741,-144.356"/>
<polygon fill="midnightblue" stroke="midnightblue" points="543.227,-147.535 551.327,-140.705 540.736,-140.993 543.227,-147.535"/>
</g>
</g>
</svg>
