<?xml version="1.0" encoding="UTF-8" standalone="no"?>
<!DOCTYPE svg PUBLIC "-//W3C//DTD SVG 1.1//EN"
 "http://www.w3.org/Graphics/SVG/1.1/DTD/svg11.dtd">
<!-- Generated by graphviz version 2.36.0 (20140111.2315)
 -->
<!-- Title: x265::Entropy::writeEpExGolomb Pages: 1 -->
<svg width="1220pt" height="493pt"
 viewBox="0.00 0.00 1220.00 493.00" xmlns="http://www.w3.org/2000/svg" xmlns:xlink="http://www.w3.org/1999/xlink">
<g id="graph0" class="graph" transform="scale(1 1) rotate(0) translate(4 489)">
<title>x265::Entropy::writeEpExGolomb</title>
<polygon fill="white" stroke="none" points="-4,4 -4,-489 1216,-489 1216,4 -4,4"/>
<!-- Node1 -->
<g id="node1" class="node"><title>Node1</title>
<polygon fill="#bfbfbf" stroke="black" points="0,-181 0,-211 128,-211 128,-181 0,-181"/>
<text text-anchor="start" x="8" y="-199" font-family="Helvetica,sans-Serif" font-size="10.00">x265::Entropy::writeEpEx</text>
<text text-anchor="middle" x="64" y="-188" font-family="Helvetica,sans-Serif" font-size="10.00">Golomb</text>
</g>
<!-- Node2 -->
<g id="node2" class="node"><title>Node2</title>
<g id="a_node2"><a xlink:href="classx265_1_1Entropy.html#aa2c9d4c34e53a1e84c4138e09d064763" target="_top" xlink:title="x265::Entropy::codeMvd">
<polygon fill="white" stroke="black" points="173.5,-205.5 173.5,-224.5 296.5,-224.5 296.5,-205.5 173.5,-205.5"/>
<text text-anchor="middle" x="235" y="-212.5" font-family="Helvetica,sans-Serif" font-size="10.00">x265::Entropy::codeMvd</text>
</a>
</g>
</g>
<!-- Node1&#45;&gt;Node2 -->
<g id="edge1" class="edge"><title>Node1&#45;&gt;Node2</title>
<path fill="none" stroke="midnightblue" d="M138.522,-204.266C150.138,-205.572 162.034,-206.909 173.314,-208.177"/>
<polygon fill="midnightblue" stroke="midnightblue" points="138.739,-200.768 128.41,-203.129 137.957,-207.724 138.739,-200.768"/>
</g>
<!-- Node19 -->
<g id="node19" class="node"><title>Node19</title>
<g id="a_node19"><a xlink:href="classx265_1_1Entropy.html#af4ab096830911ac48684ea5258cea013" target="_top" xlink:title="x265::Entropy::codeDeltaQP">
<polygon fill="white" stroke="black" points="164,-167.5 164,-186.5 306,-186.5 306,-167.5 164,-167.5"/>
<text text-anchor="middle" x="235" y="-174.5" font-family="Helvetica,sans-Serif" font-size="10.00">x265::Entropy::codeDeltaQP</text>
</a>
</g>
</g>
<!-- Node1&#45;&gt;Node19 -->
<g id="edge29" class="edge"><title>Node1&#45;&gt;Node19</title>
<path fill="none" stroke="midnightblue" d="M138.601,-187.725C147.034,-186.777 155.615,-185.813 163.999,-184.87"/>
<polygon fill="midnightblue" stroke="midnightblue" points="137.957,-184.276 128.41,-188.871 138.739,-191.232 137.957,-184.276"/>
</g>
<!-- Node3 -->
<g id="node3" class="node"><title>Node3</title>
<g id="a_node3"><a xlink:href="classx265_1_1Entropy.html#af4c256cca3be50b1f7e6695f7447ffd8" target="_top" xlink:title="x265::Entropy::codePUWise">
<polygon fill="white" stroke="black" points="351.5,-205.5 351.5,-224.5 492.5,-224.5 492.5,-205.5 351.5,-205.5"/>
<text text-anchor="middle" x="422" y="-212.5" font-family="Helvetica,sans-Serif" font-size="10.00">x265::Entropy::codePUWise</text>
</a>
</g>
</g>
<!-- Node2&#45;&gt;Node3 -->
<g id="edge2" class="edge"><title>Node2&#45;&gt;Node3</title>
<path fill="none" stroke="midnightblue" d="M306.579,-215C321.236,-215 336.673,-215 351.298,-215"/>
<polygon fill="midnightblue" stroke="midnightblue" points="306.576,-211.5 296.576,-215 306.576,-218.5 306.576,-211.5"/>
</g>
<!-- Node4 -->
<g id="node4" class="node"><title>Node4</title>
<g id="a_node4"><a xlink:href="classx265_1_1Entropy.html#a2a627c1c7ab4aee68a3b6c3b572e649a" target="_top" xlink:title="x265::Entropy::codePredInfo">
<polygon fill="white" stroke="black" points="538.5,-205.5 538.5,-224.5 679.5,-224.5 679.5,-205.5 538.5,-205.5"/>
<text text-anchor="middle" x="609" y="-212.5" font-family="Helvetica,sans-Serif" font-size="10.00">x265::Entropy::codePredInfo</text>
</a>
</g>
</g>
<!-- Node3&#45;&gt;Node4 -->
<g id="edge3" class="edge"><title>Node3&#45;&gt;Node4</title>
<path fill="none" stroke="midnightblue" d="M502.952,-215C514.748,-215 526.822,-215 538.386,-215"/>
<polygon fill="midnightblue" stroke="midnightblue" points="502.677,-211.5 492.677,-215 502.677,-218.5 502.677,-211.5"/>
</g>
<!-- Node5 -->
<g id="node5" class="node"><title>Node5</title>
<g id="a_node5"><a xlink:href="classx265_1_1Analysis.html#ae4d61bcf4d2c22a054d68d6d77136428" target="_top" xlink:title="x265::Analysis::encodeIntra\lInInter">
<polygon fill="white" stroke="black" points="721,-373 721,-403 859,-403 859,-373 721,-373"/>
<text text-anchor="start" x="729" y="-391" font-family="Helvetica,sans-Serif" font-size="10.00">x265::Analysis::encodeIntra</text>
<text text-anchor="middle" x="790" y="-380" font-family="Helvetica,sans-Serif" font-size="10.00">InInter</text>
</a>
</g>
</g>
<!-- Node4&#45;&gt;Node5 -->
<g id="edge4" class="edge"><title>Node4&#45;&gt;Node5</title>
<path fill="none" stroke="midnightblue" d="M627.373,-231.791C662.166,-265.417 739.908,-340.554 773.285,-372.811"/>
<polygon fill="midnightblue" stroke="midnightblue" points="629.502,-228.981 619.879,-224.548 624.637,-234.014 629.502,-228.981"/>
</g>
<!-- Node9 -->
<g id="node9" class="node"><title>Node9</title>
<g id="a_node9"><a xlink:href="classx265_1_1Entropy.html#adeb50a7c9a5df6643407d01158d93799" target="_top" xlink:title="x265::Entropy::encodeCU">
<polygon fill="white" stroke="black" points="725,-126.5 725,-145.5 855,-145.5 855,-126.5 725,-126.5"/>
<text text-anchor="middle" x="790" y="-133.5" font-family="Helvetica,sans-Serif" font-size="10.00">x265::Entropy::encodeCU</text>
</a>
</g>
</g>
<!-- Node4&#45;&gt;Node9 -->
<g id="edge8" class="edge"><title>Node4&#45;&gt;Node9</title>
<path fill="none" stroke="midnightblue" d="M669.239,-201.67C672.987,-199.995 676.611,-198.114 680,-196 700.576,-183.167 695.357,-167.725 716,-155 722.243,-151.152 729.248,-148.078 736.382,-145.624"/>
<polygon fill="midnightblue" stroke="midnightblue" points="667.746,-198.496 659.727,-205.42 670.314,-205.008 667.746,-198.496"/>
</g>
<!-- Node11 -->
<g id="node11" class="node"><title>Node11</title>
<g id="a_node11"><a xlink:href="classx265_1_1Search.html#ab02df91827cf67796d1605bde60c6aed" target="_top" xlink:title="x265::Search::checkIntra">
<polygon fill="white" stroke="black" points="727,-164.5 727,-183.5 853,-183.5 853,-164.5 727,-164.5"/>
<text text-anchor="middle" x="790" y="-171.5" font-family="Helvetica,sans-Serif" font-size="10.00">x265::Search::checkIntra</text>
</a>
</g>
</g>
<!-- Node4&#45;&gt;Node11 -->
<g id="edge10" class="edge"><title>Node4&#45;&gt;Node11</title>
<path fill="none" stroke="midnightblue" d="M661.284,-203.253C688.582,-197.001 721.72,-189.411 747.399,-183.529"/>
<polygon fill="midnightblue" stroke="midnightblue" points="660.482,-199.846 651.516,-205.491 662.045,-206.67 660.482,-199.846"/>
</g>
<!-- Node15 -->
<g id="node15" class="node"><title>Node15</title>
<g id="a_node15"><a xlink:href="classx265_1_1Search.html#aba5e04ce529f41accd43c540ba1dc7ad" target="_top" xlink:title="x265::Search::encodeResAnd\lCalcRdInterCU">
<polygon fill="white" stroke="black" points="716.5,-203 716.5,-233 863.5,-233 863.5,-203 716.5,-203"/>
<text text-anchor="start" x="724.5" y="-221" font-family="Helvetica,sans-Serif" font-size="10.00">x265::Search::encodeResAnd</text>
<text text-anchor="middle" x="790" y="-210" font-family="Helvetica,sans-Serif" font-size="10.00">CalcRdInterCU</text>
</a>
</g>
</g>
<!-- Node4&#45;&gt;Node15 -->
<g id="edge18" class="edge"><title>Node4&#45;&gt;Node15</title>
<path fill="none" stroke="midnightblue" d="M689.921,-216.339C698.678,-216.486 707.558,-216.635 716.222,-216.78"/>
<polygon fill="midnightblue" stroke="midnightblue" points="689.776,-212.837 679.719,-216.168 689.659,-219.836 689.776,-212.837"/>
</g>
<!-- Node6 -->
<g id="node6" class="node"><title>Node6</title>
<g id="a_node6"><a xlink:href="classx265_1_1Analysis.html#aa6122285d10bb1bd7584958b88b029d5" target="_top" xlink:title="x265::Analysis::parallel\lModeAnalysis">
<polygon fill="white" stroke="red" points="914,-455 914,-485 1032,-485 1032,-455 914,-455"/>
<text text-anchor="start" x="922" y="-473" font-family="Helvetica,sans-Serif" font-size="10.00">x265::Analysis::parallel</text>
<text text-anchor="middle" x="973" y="-462" font-family="Helvetica,sans-Serif" font-size="10.00">ModeAnalysis</text>
</a>
</g>
</g>
<!-- Node5&#45;&gt;Node6 -->
<g id="edge5" class="edge"><title>Node5&#45;&gt;Node6</title>
<path fill="none" stroke="midnightblue" d="M830.875,-407.615C851.412,-417.566 876.923,-429.696 900,-440 911.252,-445.024 923.602,-450.267 934.848,-454.939"/>
<polygon fill="midnightblue" stroke="midnightblue" points="832.34,-404.436 821.816,-403.211 829.279,-410.731 832.34,-404.436"/>
</g>
<!-- Node7 -->
<g id="node7" class="node"><title>Node7</title>
<g id="a_node7"><a xlink:href="classx265_1_1Analysis.html#a87060ff27a37f56adc5f5b8a4c033ece" target="_top" xlink:title="x265::Analysis::compress\lInterCU_dist">
<polygon fill="white" stroke="red" points="1082,-325 1082,-355 1212,-355 1212,-325 1082,-325"/>
<text text-anchor="start" x="1090" y="-343" font-family="Helvetica,sans-Serif" font-size="10.00">x265::Analysis::compress</text>
<text text-anchor="middle" x="1147" y="-332" font-family="Helvetica,sans-Serif" font-size="10.00">InterCU_dist</text>
</a>
</g>
</g>
<!-- Node5&#45;&gt;Node7 -->
<g id="edge6" class="edge"><title>Node5&#45;&gt;Node7</title>
<path fill="none" stroke="midnightblue" d="M865.504,-404.77C917.133,-413.344 986.935,-418.824 1046,-402 1077.83,-392.934 1109.42,-370.514 1128.33,-355.272"/>
<polygon fill="midnightblue" stroke="midnightblue" points="865.881,-401.283 855.43,-403.019 864.683,-408.179 865.881,-401.283"/>
</g>
<!-- Node8 -->
<g id="node8" class="node"><title>Node8</title>
<g id="a_node8"><a xlink:href="classx265_1_1Analysis.html#a30d2ff7eca5addbb0a6b3dfe14f09650" target="_top" xlink:title="x265::Analysis::compress\lInterCU_rd0_4">
<polygon fill="white" stroke="red" points="1082,-257 1082,-287 1212,-287 1212,-257 1082,-257"/>
<text text-anchor="start" x="1090" y="-275" font-family="Helvetica,sans-Serif" font-size="10.00">x265::Analysis::compress</text>
<text text-anchor="middle" x="1147" y="-264" font-family="Helvetica,sans-Serif" font-size="10.00">InterCU_rd0_4</text>
</a>
</g>
</g>
<!-- Node5&#45;&gt;Node8 -->
<g id="edge7" class="edge"><title>Node5&#45;&gt;Node8</title>
<path fill="none" stroke="midnightblue" d="M869.287,-376.502C920.694,-367.434 988.761,-352.506 1046,-330 1074.58,-318.764 1104.72,-300.241 1124.34,-287.155"/>
<polygon fill="midnightblue" stroke="midnightblue" points="868.495,-373.087 859.236,-378.238 869.686,-379.985 868.495,-373.087"/>
</g>
<!-- Node10 -->
<g id="node10" class="node"><title>Node10</title>
<g id="a_node10"><a xlink:href="classx265_1_1Entropy.html#abb101b71f310e90eb504a8204babc180" target="_top" xlink:title="x265::Entropy::encodeCTU">
<polygon fill="white" stroke="red" points="905,-0.5 905,-19.5 1041,-19.5 1041,-0.5 905,-0.5"/>
<text text-anchor="middle" x="973" y="-7.5" font-family="Helvetica,sans-Serif" font-size="10.00">x265::Entropy::encodeCTU</text>
</a>
</g>
</g>
<!-- Node9&#45;&gt;Node10 -->
<g id="edge9" class="edge"><title>Node9&#45;&gt;Node10</title>
<path fill="none" stroke="midnightblue" d="M805.232,-118.674C824.535,-96.2053 861.099,-57.1594 900,-34 910.189,-27.9337 922.113,-23.1665 933.293,-19.5347"/>
<polygon fill="midnightblue" stroke="midnightblue" points="802.482,-116.505 798.71,-126.406 807.833,-121.019 802.482,-116.505"/>
</g>
<!-- Node12 -->
<g id="node12" class="node"><title>Node12</title>
<g id="a_node12"><a xlink:href="classx265_1_1Analysis.html#a10f0a8d9d143faf8dc671c6f0982693d" target="_top" xlink:title="x265::Analysis::tryLossless">
<polygon fill="white" stroke="black" points="904.5,-164.5 904.5,-183.5 1041.5,-183.5 1041.5,-164.5 904.5,-164.5"/>
<text text-anchor="middle" x="973" y="-171.5" font-family="Helvetica,sans-Serif" font-size="10.00">x265::Analysis::tryLossless</text>
</a>
</g>
</g>
<!-- Node11&#45;&gt;Node12 -->
<g id="edge11" class="edge"><title>Node11&#45;&gt;Node12</title>
<path fill="none" stroke="midnightblue" d="M863.293,-174C876.879,-174 891.037,-174 904.471,-174"/>
<polygon fill="midnightblue" stroke="midnightblue" points="863.037,-170.5 853.037,-174 863.037,-177.5 863.037,-170.5"/>
</g>
<!-- Node13 -->
<g id="node13" class="node"><title>Node13</title>
<g id="a_node13"><a xlink:href="classx265_1_1Analysis.html#aae2a6a2252270782b591d2bed7e99dae" target="_top" xlink:title="x265::Analysis::compress\lIntraCU">
<polygon fill="white" stroke="red" points="1082,-49 1082,-79 1212,-79 1212,-49 1082,-49"/>
<text text-anchor="start" x="1090" y="-67" font-family="Helvetica,sans-Serif" font-size="10.00">x265::Analysis::compress</text>
<text text-anchor="middle" x="1147" y="-56" font-family="Helvetica,sans-Serif" font-size="10.00">IntraCU</text>
</a>
</g>
</g>
<!-- Node11&#45;&gt;Node13 -->
<g id="edge16" class="edge"><title>Node11&#45;&gt;Node13</title>
<path fill="none" stroke="midnightblue" d="M856.64,-159.977C859.22,-158.482 861.689,-156.828 864,-155 890.819,-133.784 871.558,-105.985 900,-87 953.516,-51.2797 1028.78,-49.5227 1081.92,-54.1918"/>
<polygon fill="midnightblue" stroke="midnightblue" points="854.925,-156.92 847.499,-164.477 858.017,-163.2 854.925,-156.92"/>
</g>
<!-- Node14 -->
<g id="node14" class="node"><title>Node14</title>
<g id="a_node14"><a xlink:href="classx265_1_1Analysis.html#a0b22b7765aa4a36b1ba6d07ba26901e6" target="_top" xlink:title="x265::Analysis::compress\lInterCU_rd5_6">
<polygon fill="white" stroke="red" points="1082,-137 1082,-167 1212,-167 1212,-137 1082,-137"/>
<text text-anchor="start" x="1090" y="-155" font-family="Helvetica,sans-Serif" font-size="10.00">x265::Analysis::compress</text>
<text text-anchor="middle" x="1147" y="-144" font-family="Helvetica,sans-Serif" font-size="10.00">InterCU_rd5_6</text>
</a>
</g>
</g>
<!-- Node11&#45;&gt;Node14 -->
<g id="edge17" class="edge"><title>Node11&#45;&gt;Node14</title>
<path fill="none" stroke="midnightblue" d="M854.8,-160.354C858.013,-158.762 861.103,-156.985 864,-155 886.589,-139.523 875.628,-117.484 900,-105 973.722,-67.2371 1073.95,-111.702 1120.41,-136.928"/>
<polygon fill="midnightblue" stroke="midnightblue" points="853.285,-157.195 845.486,-164.366 856.055,-163.624 853.285,-157.195"/>
</g>
<!-- Node12&#45;&gt;Node7 -->
<g id="edge13" class="edge"><title>Node12&#45;&gt;Node7</title>
<path fill="none" stroke="midnightblue" d="M1040.59,-188.663C1042.49,-189.989 1044.3,-191.431 1046,-193 1081.6,-225.923 1052.56,-257.465 1082,-296 1091,-307.786 1104.09,-317.567 1116.08,-324.891"/>
<polygon fill="midnightblue" stroke="midnightblue" points="1042.17,-185.531 1031.76,-183.564 1038.67,-191.594 1042.17,-185.531"/>
</g>
<!-- Node12&#45;&gt;Node8 -->
<g id="edge14" class="edge"><title>Node12&#45;&gt;Node8</title>
<path fill="none" stroke="midnightblue" d="M1031.31,-186.788C1036.38,-188.614 1041.35,-190.676 1046,-193 1079.65,-209.81 1112.7,-239.131 1131.12,-256.935"/>
<polygon fill="midnightblue" stroke="midnightblue" points="1032.09,-183.359 1021.5,-183.561 1029.9,-190.009 1032.09,-183.359"/>
</g>
<!-- Node12&#45;&gt;Node13 -->
<g id="edge12" class="edge"><title>Node12&#45;&gt;Node13</title>
<path fill="none" stroke="midnightblue" d="M1030.38,-161.095C1035.8,-159.044 1041.1,-156.691 1046,-154 1064.74,-143.719 1107.79,-102.146 1130.81,-79.273"/>
<polygon fill="midnightblue" stroke="midnightblue" points="1028.89,-157.909 1020.57,-164.469 1031.16,-164.529 1028.89,-157.909"/>
</g>
<!-- Node12&#45;&gt;Node14 -->
<g id="edge15" class="edge"><title>Node12&#45;&gt;Node14</title>
<path fill="none" stroke="midnightblue" d="M1051.93,-164.032C1061.95,-162.751 1072.11,-161.451 1081.88,-160.202"/>
<polygon fill="midnightblue" stroke="midnightblue" points="1051.45,-160.564 1041.98,-165.305 1052.34,-167.508 1051.45,-160.564"/>
</g>
<!-- Node15&#45;&gt;Node7 -->
<g id="edge20" class="edge"><title>Node15&#45;&gt;Node7</title>
<path fill="none" stroke="midnightblue" d="M805.732,-241.583C824.074,-268.534 858.15,-311.321 900,-330 957.572,-355.696 1030.47,-355.102 1081.92,-349.981"/>
<polygon fill="midnightblue" stroke="midnightblue" points="808.563,-239.518 800.127,-233.108 802.724,-243.38 808.563,-239.518"/>
</g>
<!-- Node15&#45;&gt;Node8 -->
<g id="edge21" class="edge"><title>Node15&#45;&gt;Node8</title>
<path fill="none" stroke="midnightblue" d="M864.368,-235.156C876.243,-237.644 888.435,-240.026 900,-242 961.391,-252.477 1032.01,-260.698 1081.79,-265.864"/>
<polygon fill="midnightblue" stroke="midnightblue" points="864.999,-231.712 854.489,-233.048 863.538,-238.558 864.999,-231.712"/>
</g>
<!-- Node15&#45;&gt;Node12 -->
<g id="edge19" class="edge"><title>Node15&#45;&gt;Node12</title>
<path fill="none" stroke="midnightblue" d="M862.562,-200.604C886.521,-194.779 912.333,-188.505 932.869,-183.512"/>
<polygon fill="midnightblue" stroke="midnightblue" points="861.674,-197.218 852.784,-202.981 863.327,-204.019 861.674,-197.218"/>
</g>
<!-- Node16 -->
<g id="node16" class="node"><title>Node16</title>
<g id="a_node16"><a xlink:href="classx265_1_1Analysis.html#addd72cb95590e2b2a6965d42d110eab3" target="_top" xlink:title="x265::Analysis::checkMerge2\lNx2N_rd0_4">
<polygon fill="white" stroke="black" points="900,-291 900,-321 1046,-321 1046,-291 900,-291"/>
<text text-anchor="start" x="908" y="-309" font-family="Helvetica,sans-Serif" font-size="10.00">x265::Analysis::checkMerge2</text>
<text text-anchor="middle" x="973" y="-298" font-family="Helvetica,sans-Serif" font-size="10.00">Nx2N_rd0_4</text>
</a>
</g>
</g>
<!-- Node15&#45;&gt;Node16 -->
<g id="edge22" class="edge"><title>Node15&#45;&gt;Node16</title>
<path fill="none" stroke="midnightblue" d="M826.444,-237.95C847.555,-249.557 875.019,-264.182 900,-276 910.894,-281.154 922.916,-286.35 933.964,-290.937"/>
<polygon fill="midnightblue" stroke="midnightblue" points="827.963,-234.791 817.519,-233.014 824.576,-240.916 827.963,-234.791"/>
</g>
<!-- Node17 -->
<g id="node17" class="node"><title>Node17</title>
<g id="a_node17"><a xlink:href="classx265_1_1Analysis.html#a0194a9da53aa95173fa1132ba3aea1c7" target="_top" xlink:title="x265::Analysis::checkMerge2\lNx2N_rd5_6">
<polygon fill="white" stroke="black" points="900,-115 900,-145 1046,-145 1046,-115 900,-115"/>
<text text-anchor="start" x="908" y="-133" font-family="Helvetica,sans-Serif" font-size="10.00">x265::Analysis::checkMerge2</text>
<text text-anchor="middle" x="973" y="-122" font-family="Helvetica,sans-Serif" font-size="10.00">Nx2N_rd5_6</text>
</a>
</g>
</g>
<!-- Node15&#45;&gt;Node17 -->
<g id="edge25" class="edge"><title>Node15&#45;&gt;Node17</title>
<path fill="none" stroke="midnightblue" d="M854.2,-198.587C857.595,-196.861 860.887,-195.001 864,-193 883.571,-180.423 880.455,-167.619 900,-155 905.892,-151.196 912.43,-147.896 919.094,-145.053"/>
<polygon fill="midnightblue" stroke="midnightblue" points="852.619,-195.463 845.024,-202.85 855.568,-201.811 852.619,-195.463"/>
</g>
<!-- Node18 -->
<g id="node18" class="node"><title>Node18</title>
<g id="a_node18"><a xlink:href="classx265_1_1Analysis.html#a828daa3e9f1ed40a1af9f99f7ff7bb33" target="_top" xlink:title="x265::Analysis::checkInter\l_rd5_6">
<polygon fill="white" stroke="black" points="906.5,-203 906.5,-233 1039.5,-233 1039.5,-203 906.5,-203"/>
<text text-anchor="start" x="914.5" y="-221" font-family="Helvetica,sans-Serif" font-size="10.00">x265::Analysis::checkInter</text>
<text text-anchor="middle" x="973" y="-210" font-family="Helvetica,sans-Serif" font-size="10.00">_rd5_6</text>
</a>
</g>
</g>
<!-- Node15&#45;&gt;Node18 -->
<g id="edge27" class="edge"><title>Node15&#45;&gt;Node18</title>
<path fill="none" stroke="midnightblue" d="M873.616,-218C884.617,-218 895.774,-218 906.431,-218"/>
<polygon fill="midnightblue" stroke="midnightblue" points="873.577,-214.5 863.577,-218 873.577,-221.5 873.577,-214.5"/>
</g>
<!-- Node16&#45;&gt;Node7 -->
<g id="edge23" class="edge"><title>Node16&#45;&gt;Node7</title>
<path fill="none" stroke="midnightblue" d="M1056.42,-322.293C1064.96,-323.98 1073.54,-325.676 1081.83,-327.315"/>
<polygon fill="midnightblue" stroke="midnightblue" points="1056.93,-318.826 1046.44,-320.321 1055.58,-325.693 1056.93,-318.826"/>
</g>
<!-- Node16&#45;&gt;Node8 -->
<g id="edge24" class="edge"><title>Node16&#45;&gt;Node8</title>
<path fill="none" stroke="midnightblue" d="M1056.42,-289.707C1064.96,-288.02 1073.54,-286.324 1081.83,-284.685"/>
<polygon fill="midnightblue" stroke="midnightblue" points="1055.58,-286.307 1046.44,-291.679 1056.93,-293.174 1055.58,-286.307"/>
</g>
<!-- Node17&#45;&gt;Node14 -->
<g id="edge26" class="edge"><title>Node17&#45;&gt;Node14</title>
<path fill="none" stroke="midnightblue" d="M1056.42,-140.542C1064.96,-141.634 1073.54,-142.732 1081.83,-143.792"/>
<polygon fill="midnightblue" stroke="midnightblue" points="1056.81,-137.063 1046.44,-139.266 1055.92,-144.007 1056.81,-137.063"/>
</g>
<!-- Node18&#45;&gt;Node14 -->
<g id="edge28" class="edge"><title>Node18&#45;&gt;Node14</title>
<path fill="none" stroke="midnightblue" d="M1028.14,-199.562C1034.18,-197.397 1040.23,-195.181 1046,-193 1067.59,-184.834 1091.51,-175.05 1110.55,-167.088"/>
<polygon fill="midnightblue" stroke="midnightblue" points="1026.95,-196.27 1018.69,-202.91 1029.29,-202.868 1026.95,-196.27"/>
</g>
<!-- Node20 -->
<g id="node20" class="node"><title>Node20</title>
<g id="a_node20"><a xlink:href="classx265_1_1Entropy.html#af0793a415273d86dc38b396dae9f9db3" target="_top" xlink:title="x265::Entropy::encodeTransform">
<polygon fill="white" stroke="black" points="342.5,-167.5 342.5,-186.5 501.5,-186.5 501.5,-167.5 342.5,-167.5"/>
<text text-anchor="middle" x="422" y="-174.5" font-family="Helvetica,sans-Serif" font-size="10.00">x265::Entropy::encodeTransform</text>
</a>
</g>
</g>
<!-- Node19&#45;&gt;Node20 -->
<g id="edge30" class="edge"><title>Node19&#45;&gt;Node20</title>
<path fill="none" stroke="midnightblue" d="M316.313,-177C324.998,-177 333.828,-177 342.491,-177"/>
<polygon fill="midnightblue" stroke="midnightblue" points="316.204,-173.5 306.204,-177 316.204,-180.5 316.204,-173.5"/>
</g>
<!-- Node21 -->
<g id="node21" class="node"><title>Node21</title>
<g id="a_node21"><a xlink:href="classx265_1_1Entropy.html#a220326e32d9be80554bf11194ef2c642" target="_top" xlink:title="x265::Entropy::codeCoeff">
<polygon fill="white" stroke="black" points="545,-167.5 545,-186.5 673,-186.5 673,-167.5 545,-167.5"/>
<text text-anchor="middle" x="609" y="-174.5" font-family="Helvetica,sans-Serif" font-size="10.00">x265::Entropy::codeCoeff</text>
</a>
</g>
</g>
<!-- Node20&#45;&gt;Node21 -->
<g id="edge31" class="edge"><title>Node20&#45;&gt;Node21</title>
<path fill="none" stroke="midnightblue" d="M511.877,-177C522.973,-177 534.138,-177 544.733,-177"/>
<polygon fill="midnightblue" stroke="midnightblue" points="511.725,-173.5 501.725,-177 511.725,-180.5 511.725,-173.5"/>
</g>
<!-- Node21&#45;&gt;Node5 -->
<g id="edge32" class="edge"><title>Node21&#45;&gt;Node5</title>
<path fill="none" stroke="midnightblue" d="M672.574,-191.073C675.176,-192.554 677.668,-194.191 680,-196 711.498,-220.433 763.769,-331.912 782.263,-372.858"/>
<polygon fill="midnightblue" stroke="midnightblue" points="673.893,-187.823 663.368,-186.612 670.841,-194.123 673.893,-187.823"/>
</g>
<!-- Node21&#45;&gt;Node9 -->
<g id="edge33" class="edge"><title>Node21&#45;&gt;Node9</title>
<path fill="none" stroke="midnightblue" d="M661.284,-165.253C688.582,-159.001 721.72,-151.411 747.399,-145.529"/>
<polygon fill="midnightblue" stroke="midnightblue" points="660.482,-161.846 651.516,-167.491 662.045,-168.67 660.482,-161.846"/>
</g>
<!-- Node21&#45;&gt;Node11 -->
<g id="edge34" class="edge"><title>Node21&#45;&gt;Node11</title>
<path fill="none" stroke="midnightblue" d="M683.457,-175.769C697.838,-175.528 712.79,-175.277 726.763,-175.043"/>
<polygon fill="midnightblue" stroke="midnightblue" points="683.049,-172.275 673.109,-175.942 683.166,-179.274 683.049,-172.275"/>
</g>
<!-- Node21&#45;&gt;Node15 -->
<g id="edge35" class="edge"><title>Node21&#45;&gt;Node15</title>
<path fill="none" stroke="midnightblue" d="M661.305,-188.751C680.578,-193.166 702.761,-198.247 723.173,-202.922"/>
<polygon fill="midnightblue" stroke="midnightblue" points="662.045,-185.33 651.516,-186.509 660.482,-192.154 662.045,-185.33"/>
</g>
</g>
</svg>
