<?xml version="1.0" encoding="UTF-8" standalone="no"?>
<!DOCTYPE svg PUBLIC "-//W3C//DTD SVG 1.1//EN"
 "http://www.w3.org/Graphics/SVG/1.1/DTD/svg11.dtd">
<!-- Generated by graphviz version 2.36.0 (20140111.2315)
 -->
<!-- Title: x265::ThreadPool::dequeueJobProvider Pages: 1 -->
<svg width="2134pt" height="587pt"
 viewBox="0.00 0.00 2134.00 587.00" xmlns="http://www.w3.org/2000/svg" xmlns:xlink="http://www.w3.org/1999/xlink">
<g id="graph0" class="graph" transform="scale(1 1) rotate(0) translate(4 583)">
<title>x265::ThreadPool::dequeueJobProvider</title>
<polygon fill="white" stroke="none" points="-4,4 -4,-583 2130,-583 2130,4 -4,4"/>
<!-- Node1 -->
<g id="node1" class="node"><title>Node1</title>
<polygon fill="#bfbfbf" stroke="black" points="0,-93 0,-123 136,-123 136,-93 0,-93"/>
<text text-anchor="start" x="8" y="-111" font-family="Helvetica,sans-Serif" font-size="10.00">x265::ThreadPool::dequeue</text>
<text text-anchor="middle" x="68" y="-100" font-family="Helvetica,sans-Serif" font-size="10.00">JobProvider</text>
</g>
<!-- Node2 -->
<g id="node2" class="node"><title>Node2</title>
<g id="a_node2"><a xlink:href="classx265_1_1JobProvider.html#aad43fe7bf62d5d3656046fcf0888e7b8" target="_top" xlink:title="x265::JobProvider::\ldequeue">
<polygon fill="white" stroke="black" points="172.5,-93 172.5,-123 273.5,-123 273.5,-93 172.5,-93"/>
<text text-anchor="start" x="180.5" y="-111" font-family="Helvetica,sans-Serif" font-size="10.00">x265::JobProvider::</text>
<text text-anchor="middle" x="223" y="-100" font-family="Helvetica,sans-Serif" font-size="10.00">dequeue</text>
</a>
</g>
</g>
<!-- Node1&#45;&gt;Node2 -->
<g id="edge1" class="edge"><title>Node1&#45;&gt;Node2</title>
<path fill="none" stroke="midnightblue" d="M146.166,-108C155.093,-108 164.008,-108 172.424,-108"/>
<polygon fill="midnightblue" stroke="midnightblue" points="146.108,-104.5 136.108,-108 146.108,-111.5 146.108,-104.5"/>
</g>
<!-- Node3 -->
<g id="node3" class="node"><title>Node3</title>
<g id="a_node3"><a xlink:href="classx265_1_1JobProvider.html#ad004107327dde958624d0db7a55c57f7" target="_top" xlink:title="x265::JobProvider::\lflush">
<polygon fill="white" stroke="black" points="334.5,-494 334.5,-524 435.5,-524 435.5,-494 334.5,-494"/>
<text text-anchor="start" x="342.5" y="-512" font-family="Helvetica,sans-Serif" font-size="10.00">x265::JobProvider::</text>
<text text-anchor="middle" x="385" y="-501" font-family="Helvetica,sans-Serif" font-size="10.00">flush</text>
</a>
</g>
</g>
<!-- Node2&#45;&gt;Node3 -->
<g id="edge2" class="edge"><title>Node2&#45;&gt;Node3</title>
<path fill="none" stroke="midnightblue" d="M232.548,-132.679C247.477,-175.418 279.613,-265.848 310,-341 333.058,-398.025 363.409,-464.554 376.95,-493.845"/>
<polygon fill="midnightblue" stroke="midnightblue" points="235.812,-131.407 229.217,-123.115 229.201,-133.71 235.812,-131.407"/>
</g>
<!-- Node10 -->
<g id="node10" class="node"><title>Node10</title>
<g id="a_node10"><a xlink:href="classx265_1_1Analysis.html#a87060ff27a37f56adc5f5b8a4c033ece" target="_top" xlink:title="x265::Analysis::compress\lInterCU_dist">
<polygon fill="white" stroke="black" points="1065,-109 1065,-139 1195,-139 1195,-109 1065,-109"/>
<text text-anchor="start" x="1073" y="-127" font-family="Helvetica,sans-Serif" font-size="10.00">x265::Analysis::compress</text>
<text text-anchor="middle" x="1130" y="-116" font-family="Helvetica,sans-Serif" font-size="10.00">InterCU_dist</text>
</a>
</g>
</g>
<!-- Node2&#45;&gt;Node10 -->
<g id="edge10" class="edge"><title>Node2&#45;&gt;Node10</title>
<path fill="none" stroke="midnightblue" d="M283.735,-101.987C353.702,-95.4733 473.14,-86 576,-86 576,-86 576,-86 775,-86 886.875,-86 915.055,-90.6099 1026,-105 1038.62,-106.637 1052.04,-108.8 1064.88,-111.078"/>
<polygon fill="midnightblue" stroke="midnightblue" points="283.406,-98.5024 273.778,-102.925 284.063,-105.472 283.406,-98.5024"/>
</g>
<!-- Node14 -->
<g id="node14" class="node"><title>Node14</title>
<g id="a_node14"><a xlink:href="classx265_1_1FrameEncoder.html#ac4e9ce2e876c0cdb25c992c872fe4302" target="_top" xlink:title="x265::FrameEncoder\l::compressCTURows">
<polygon fill="white" stroke="black" points="1726,-56 1726,-86 1838,-86 1838,-56 1726,-56"/>
<text text-anchor="start" x="1734" y="-74" font-family="Helvetica,sans-Serif" font-size="10.00">x265::FrameEncoder</text>
<text text-anchor="middle" x="1782" y="-63" font-family="Helvetica,sans-Serif" font-size="10.00">::compressCTURows</text>
</a>
</g>
</g>
<!-- Node2&#45;&gt;Node14 -->
<g id="edge17" class="edge"><title>Node2&#45;&gt;Node14</title>
<path fill="none" stroke="midnightblue" d="M283.577,-91.5254C353.159,-73.763 472.008,-48 576,-48 576,-48 576,-48 1482,-48 1567.38,-48 1666.08,-57.4392 1725.99,-64.2236"/>
<polygon fill="midnightblue" stroke="midnightblue" points="282.482,-88.1933 273.676,-94.084 284.233,-94.9706 282.482,-88.1933"/>
</g>
<!-- Node17 -->
<g id="node17" class="node"><title>Node17</title>
<g id="a_node17"><a xlink:href="classx265_1_1Search.html#a48101e3d900e93b97a83f461be390bd1" target="_top" xlink:title="x265::Search::predInterSearch">
<polygon fill="white" stroke="black" points="310.5,-121.5 310.5,-140.5 459.5,-140.5 459.5,-121.5 310.5,-121.5"/>
<text text-anchor="middle" x="385" y="-128.5" font-family="Helvetica,sans-Serif" font-size="10.00">x265::Search::predInterSearch</text>
</a>
</g>
</g>
<!-- Node2&#45;&gt;Node17 -->
<g id="edge18" class="edge"><title>Node2&#45;&gt;Node17</title>
<path fill="none" stroke="midnightblue" d="M283.762,-116.591C294.866,-118.187 306.527,-119.863 317.81,-121.485"/>
<polygon fill="midnightblue" stroke="midnightblue" points="284.144,-113.11 273.748,-115.151 283.148,-120.039 284.144,-113.11"/>
</g>
<!-- Node24 -->
<g id="node24" class="node"><title>Node24</title>
<g id="a_node24"><a xlink:href="classx265_1_1CostEstimate.html#af33d06405527ebbb03d9c93d565e6e2a" target="_top" xlink:title="x265::CostEstimate\l::estimateFrameCost">
<polygon fill="white" stroke="black" points="330.5,-302 330.5,-332 439.5,-332 439.5,-302 330.5,-302"/>
<text text-anchor="start" x="338.5" y="-320" font-family="Helvetica,sans-Serif" font-size="10.00">x265::CostEstimate</text>
<text text-anchor="middle" x="385" y="-309" font-family="Helvetica,sans-Serif" font-size="10.00">::estimateFrameCost</text>
</a>
</g>
</g>
<!-- Node2&#45;&gt;Node24 -->
<g id="edge28" class="edge"><title>Node2&#45;&gt;Node24</title>
<path fill="none" stroke="midnightblue" d="M241.779,-131.223C274.792,-174.347 344.718,-265.688 372.382,-301.825"/>
<polygon fill="midnightblue" stroke="midnightblue" points="244.365,-128.844 235.507,-123.031 238.806,-133.099 244.365,-128.844"/>
</g>
<!-- Node39 -->
<g id="node39" class="node"><title>Node39</title>
<g id="a_node39"><a xlink:href="classMD5Frame.html#a54826606d5067ffe9ff99a21aea15ff8" target="_top" xlink:title="MD5Frame::encode">
<polygon fill="white" stroke="black" points="333.5,-0.5 333.5,-19.5 436.5,-19.5 436.5,-0.5 333.5,-0.5"/>
<text text-anchor="middle" x="385" y="-7.5" font-family="Helvetica,sans-Serif" font-size="10.00">MD5Frame::encode</text>
</a>
</g>
</g>
<!-- Node2&#45;&gt;Node39 -->
<g id="edge50" class="edge"><title>Node2&#45;&gt;Node39</title>
<path fill="none" stroke="midnightblue" d="M245.242,-85.4239C261.605,-69.1709 285.505,-47.7683 310,-34 320.714,-27.9778 333.161,-23.2044 344.756,-19.5529"/>
<polygon fill="midnightblue" stroke="midnightblue" points="242.37,-83.3526 237.846,-92.933 247.357,-88.2648 242.37,-83.3526"/>
</g>
<!-- Node4 -->
<g id="node4" class="node"><title>Node4</title>
<g id="a_node4"><a xlink:href="classx265_1_1FrameEncoder.html#a8a04405cf881d4ff9fa7bb6dd103f707" target="_top" xlink:title="x265::FrameEncoder\l::destroy">
<polygon fill="white" stroke="black" points="523.5,-472 523.5,-502 630.5,-502 630.5,-472 523.5,-472"/>
<text text-anchor="start" x="531.5" y="-490" font-family="Helvetica,sans-Serif" font-size="10.00">x265::FrameEncoder</text>
<text text-anchor="middle" x="577" y="-479" font-family="Helvetica,sans-Serif" font-size="10.00">::destroy</text>
</a>
</g>
</g>
<!-- Node3&#45;&gt;Node4 -->
<g id="edge3" class="edge"><title>Node3&#45;&gt;Node4</title>
<path fill="none" stroke="midnightblue" d="M445.961,-502.057C470.82,-499.179 499.4,-495.869 523.425,-493.088"/>
<polygon fill="midnightblue" stroke="midnightblue" points="445.451,-498.593 435.92,-503.22 446.256,-505.546 445.451,-498.593"/>
</g>
<!-- Node8 -->
<g id="node8" class="node"><title>Node8</title>
<g id="a_node8"><a xlink:href="classx265_1_1Lookahead.html#ab9a7aba780092c796bb7b2a2e0d41f4d" target="_top" xlink:title="x265::Lookahead::destroy">
<polygon fill="white" stroke="black" points="512.5,-559.5 512.5,-578.5 641.5,-578.5 641.5,-559.5 512.5,-559.5"/>
<text text-anchor="middle" x="577" y="-566.5" font-family="Helvetica,sans-Serif" font-size="10.00">x265::Lookahead::destroy</text>
</a>
</g>
</g>
<!-- Node3&#45;&gt;Node8 -->
<g id="edge7" class="edge"><title>Node3&#45;&gt;Node8</title>
<path fill="none" stroke="midnightblue" d="M432.322,-527.716C451.798,-535.205 474.814,-543.563 496,-550 507.337,-553.445 519.732,-556.653 531.307,-559.416"/>
<polygon fill="midnightblue" stroke="midnightblue" points="433.368,-524.368 422.779,-524.008 430.833,-530.892 433.368,-524.368"/>
</g>
<!-- Node9 -->
<g id="node9" class="node"><title>Node9</title>
<g id="a_node9"><a xlink:href="classMD5Frame.html#a8443b99914fb3ebd12367368532a5ec0" target="_top" xlink:title="MD5Frame::~MD5Frame">
<polygon fill="white" stroke="black" points="514,-521.5 514,-540.5 640,-540.5 640,-521.5 514,-521.5"/>
<text text-anchor="middle" x="577" y="-528.5" font-family="Helvetica,sans-Serif" font-size="10.00">MD5Frame::~MD5Frame</text>
</a>
</g>
</g>
<!-- Node3&#45;&gt;Node9 -->
<g id="edge9" class="edge"><title>Node3&#45;&gt;Node9</title>
<path fill="none" stroke="midnightblue" d="M445.961,-515.943C467.587,-518.447 492.03,-521.277 513.84,-523.803"/>
<polygon fill="midnightblue" stroke="midnightblue" points="446.256,-512.454 435.92,-514.78 445.451,-519.407 446.256,-512.454"/>
</g>
<!-- Node5 -->
<g id="node5" class="node"><title>Node5</title>
<g id="a_node5"><a xlink:href="classx265_1_1Encoder.html#ac689b087686eca38579aad7426e34fc6" target="_top" xlink:title="x265::Encoder::destroy">
<polygon fill="white" stroke="black" points="715,-493.5 715,-512.5 833,-512.5 833,-493.5 715,-493.5"/>
<text text-anchor="middle" x="774" y="-500.5" font-family="Helvetica,sans-Serif" font-size="10.00">x265::Encoder::destroy</text>
</a>
</g>
</g>
<!-- Node4&#45;&gt;Node5 -->
<g id="edge4" class="edge"><title>Node4&#45;&gt;Node5</title>
<path fill="none" stroke="midnightblue" d="M640.522,-492.13C664.384,-494.088 691.467,-496.31 714.9,-498.233"/>
<polygon fill="midnightblue" stroke="midnightblue" points="640.766,-488.638 630.513,-491.309 640.193,-495.615 640.766,-488.638"/>
</g>
<!-- Node6 -->
<g id="node6" class="node"><title>Node6</title>
<g id="a_node6"><a xlink:href="x265_8h.html#ac370491d505086b2eb41e10d89f271ad" target="_top" xlink:title="x265_encoder_close">
<polygon fill="white" stroke="black" points="1077,-493.5 1077,-512.5 1183,-512.5 1183,-493.5 1077,-493.5"/>
<text text-anchor="middle" x="1130" y="-500.5" font-family="Helvetica,sans-Serif" font-size="10.00">x265_encoder_close</text>
</a>
</g>
</g>
<!-- Node5&#45;&gt;Node6 -->
<g id="edge5" class="edge"><title>Node5&#45;&gt;Node6</title>
<path fill="none" stroke="midnightblue" d="M843.286,-503C911.566,-503 1015.07,-503 1076.97,-503"/>
<polygon fill="midnightblue" stroke="midnightblue" points="843.06,-499.5 833.059,-503 843.059,-506.5 843.06,-499.5"/>
</g>
<!-- Node7 -->
<g id="node7" class="node"><title>Node7</title>
<g id="a_node7"><a xlink:href="x265_8cpp.html#a3c04138a5bfe5d72780bb7e82a18e627" target="_top" xlink:title="main">
<polygon fill="white" stroke="black" points="1763,-474.5 1763,-493.5 1801,-493.5 1801,-474.5 1763,-474.5"/>
<text text-anchor="middle" x="1782" y="-481.5" font-family="Helvetica,sans-Serif" font-size="10.00">main</text>
</a>
</g>
</g>
<!-- Node6&#45;&gt;Node7 -->
<g id="edge6" class="edge"><title>Node6&#45;&gt;Node7</title>
<path fill="none" stroke="midnightblue" d="M1193.42,-501.176C1336.03,-497.007 1679.87,-486.956 1762.78,-484.532"/>
<polygon fill="midnightblue" stroke="midnightblue" points="1192.99,-497.686 1183.09,-501.477 1193.19,-504.683 1192.99,-497.686"/>
</g>
<!-- Node8&#45;&gt;Node5 -->
<g id="edge8" class="edge"><title>Node8&#45;&gt;Node5</title>
<path fill="none" stroke="midnightblue" d="M633.571,-556.979C641.819,-554.856 650.173,-552.512 658,-550 691.68,-539.19 729.403,-522.941 752.167,-512.659"/>
<polygon fill="midnightblue" stroke="midnightblue" points="632.467,-553.647 623.607,-559.457 634.156,-560.44 632.467,-553.647"/>
</g>
<!-- Node11 -->
<g id="node11" class="node"><title>Node11</title>
<g id="a_node11"><a xlink:href="classx265_1_1Analysis.html#aaebc9de2ff98834c650244f3b58942c2" target="_top" xlink:title="x265::Analysis::compressCTU">
<polygon fill="white" stroke="black" points="1234.5,-136.5 1234.5,-155.5 1385.5,-155.5 1385.5,-136.5 1234.5,-136.5"/>
<text text-anchor="middle" x="1310" y="-143.5" font-family="Helvetica,sans-Serif" font-size="10.00">x265::Analysis::compressCTU</text>
</a>
</g>
</g>
<!-- Node10&#45;&gt;Node11 -->
<g id="edge11" class="edge"><title>Node10&#45;&gt;Node11</title>
<path fill="none" stroke="midnightblue" d="M1205.01,-133.147C1214.7,-134.345 1224.64,-135.574 1234.35,-136.774"/>
<polygon fill="midnightblue" stroke="midnightblue" points="1205.36,-129.665 1195.01,-131.911 1204.51,-136.612 1205.36,-129.665"/>
</g>
<!-- Node12 -->
<g id="node12" class="node"><title>Node12</title>
<g id="a_node12"><a xlink:href="classx265_1_1FrameEncoder.html#a0ae85001572afd28238476542523ac5f" target="_top" xlink:title="x265::FrameEncoder\l::processRowEncoder">
<polygon fill="white" stroke="black" points="1424.5,-104 1424.5,-134 1537.5,-134 1537.5,-104 1424.5,-104"/>
<text text-anchor="start" x="1432.5" y="-122" font-family="Helvetica,sans-Serif" font-size="10.00">x265::FrameEncoder</text>
<text text-anchor="middle" x="1481" y="-111" font-family="Helvetica,sans-Serif" font-size="10.00">::processRowEncoder</text>
</a>
</g>
</g>
<!-- Node11&#45;&gt;Node12 -->
<g id="edge12" class="edge"><title>Node11&#45;&gt;Node12</title>
<path fill="none" stroke="midnightblue" d="M1380.56,-134.887C1395.15,-132.556 1410.35,-130.128 1424.35,-127.891"/>
<polygon fill="midnightblue" stroke="midnightblue" points="1379.91,-131.447 1370.58,-136.481 1381.01,-138.359 1379.91,-131.447"/>
</g>
<!-- Node13 -->
<g id="node13" class="node"><title>Node13</title>
<g id="a_node13"><a xlink:href="classx265_1_1FrameEncoder.html#acad645a8ece97d884895f8f7366b7d70" target="_top" xlink:title="x265::FrameEncoder\l::processRow">
<polygon fill="white" stroke="black" points="1579.5,-91 1579.5,-121 1686.5,-121 1686.5,-91 1579.5,-91"/>
<text text-anchor="start" x="1587.5" y="-109" font-family="Helvetica,sans-Serif" font-size="10.00">x265::FrameEncoder</text>
<text text-anchor="middle" x="1633" y="-98" font-family="Helvetica,sans-Serif" font-size="10.00">::processRow</text>
</a>
</g>
</g>
<!-- Node12&#45;&gt;Node13 -->
<g id="edge13" class="edge"><title>Node12&#45;&gt;Node13</title>
<path fill="none" stroke="midnightblue" d="M1548.11,-113.27C1558.47,-112.372 1569.07,-111.454 1579.08,-110.586"/>
<polygon fill="midnightblue" stroke="midnightblue" points="1547.51,-109.809 1537.85,-114.159 1548.12,-116.783 1547.51,-109.809"/>
</g>
<!-- Node13&#45;&gt;Node14 -->
<g id="edge14" class="edge"><title>Node13&#45;&gt;Node14</title>
<path fill="none" stroke="midnightblue" d="M1696.62,-91.0907C1706.3,-88.7864 1716.23,-86.4207 1725.73,-84.1584"/>
<polygon fill="midnightblue" stroke="midnightblue" points="1695.57,-87.742 1686.66,-93.4631 1697.19,-94.5516 1695.57,-87.742"/>
</g>
<!-- Node15 -->
<g id="node15" class="node"><title>Node15</title>
<g id="a_node15"><a xlink:href="classx265_1_1FrameEncoder.html#a2f5c4c0f1a4e36fce4c9b87eb7ec4973" target="_top" xlink:title="x265::FrameEncoder\l::compressFrame">
<polygon fill="white" stroke="black" points="1874.5,-56 1874.5,-86 1981.5,-86 1981.5,-56 1874.5,-56"/>
<text text-anchor="start" x="1882.5" y="-74" font-family="Helvetica,sans-Serif" font-size="10.00">x265::FrameEncoder</text>
<text text-anchor="middle" x="1928" y="-63" font-family="Helvetica,sans-Serif" font-size="10.00">::compressFrame</text>
</a>
</g>
</g>
<!-- Node14&#45;&gt;Node15 -->
<g id="edge15" class="edge"><title>Node14&#45;&gt;Node15</title>
<path fill="none" stroke="midnightblue" d="M1848.42,-71C1857.15,-71 1866.02,-71 1874.49,-71"/>
<polygon fill="midnightblue" stroke="midnightblue" points="1848.26,-67.5001 1838.26,-71 1848.26,-74.5001 1848.26,-67.5001"/>
</g>
<!-- Node16 -->
<g id="node16" class="node"><title>Node16</title>
<g id="a_node16"><a xlink:href="classx265_1_1FrameEncoder.html#aef61f29b9e93b3af9255d96236bc90a7" target="_top" xlink:title="x265::FrameEncoder\l::threadMain">
<polygon fill="white" stroke="black" points="2018.5,-56 2018.5,-86 2125.5,-86 2125.5,-56 2018.5,-56"/>
<text text-anchor="start" x="2026.5" y="-74" font-family="Helvetica,sans-Serif" font-size="10.00">x265::FrameEncoder</text>
<text text-anchor="middle" x="2072" y="-63" font-family="Helvetica,sans-Serif" font-size="10.00">::threadMain</text>
</a>
</g>
</g>
<!-- Node15&#45;&gt;Node16 -->
<g id="edge16" class="edge"><title>Node15&#45;&gt;Node16</title>
<path fill="none" stroke="midnightblue" d="M1991.99,-71C2000.7,-71 2009.58,-71 2018.08,-71"/>
<polygon fill="midnightblue" stroke="midnightblue" points="1991.88,-67.5001 1981.88,-71 1991.88,-74.5001 1991.88,-67.5001"/>
</g>
<!-- Node18 -->
<g id="node18" class="node"><title>Node18</title>
<g id="a_node18"><a xlink:href="classx265_1_1Analysis.html#a2305f7985af66b49fdbc40ebb1b281d2" target="_top" xlink:title="x265::Analysis::checkInter\l_rd0_4">
<polygon fill="white" stroke="black" points="510.5,-116 510.5,-146 643.5,-146 643.5,-116 510.5,-116"/>
<text text-anchor="start" x="518.5" y="-134" font-family="Helvetica,sans-Serif" font-size="10.00">x265::Analysis::checkInter</text>
<text text-anchor="middle" x="577" y="-123" font-family="Helvetica,sans-Serif" font-size="10.00">_rd0_4</text>
</a>
</g>
</g>
<!-- Node17&#45;&gt;Node18 -->
<g id="edge19" class="edge"><title>Node17&#45;&gt;Node18</title>
<path fill="none" stroke="midnightblue" d="M469.997,-131C483.523,-131 497.351,-131 510.363,-131"/>
<polygon fill="midnightblue" stroke="midnightblue" points="469.731,-127.5 459.731,-131 469.731,-134.5 469.731,-127.5"/>
</g>
<!-- Node22 -->
<g id="node22" class="node"><title>Node22</title>
<g id="a_node22"><a xlink:href="classx265_1_1Analysis.html#a828daa3e9f1ed40a1af9f99f7ff7bb33" target="_top" xlink:title="x265::Analysis::checkInter\l_rd5_6">
<polygon fill="white" stroke="black" points="510.5,-169 510.5,-199 643.5,-199 643.5,-169 510.5,-169"/>
<text text-anchor="start" x="518.5" y="-187" font-family="Helvetica,sans-Serif" font-size="10.00">x265::Analysis::checkInter</text>
<text text-anchor="middle" x="577" y="-176" font-family="Helvetica,sans-Serif" font-size="10.00">_rd5_6</text>
</a>
</g>
</g>
<!-- Node17&#45;&gt;Node22 -->
<g id="edge25" class="edge"><title>Node17&#45;&gt;Node22</title>
<path fill="none" stroke="midnightblue" d="M430.123,-143.308C457.55,-150.959 493.003,-160.848 522.091,-168.962"/>
<polygon fill="midnightblue" stroke="midnightblue" points="430.98,-139.914 420.408,-140.598 429.099,-146.656 430.98,-139.914"/>
</g>
<!-- Node19 -->
<g id="node19" class="node"><title>Node19</title>
<g id="a_node19"><a xlink:href="classx265_1_1Analysis.html#aa6122285d10bb1bd7584958b88b029d5" target="_top" xlink:title="x265::Analysis::parallel\lModeAnalysis">
<polygon fill="white" stroke="black" points="715,-115 715,-145 833,-145 833,-115 715,-115"/>
<text text-anchor="start" x="723" y="-133" font-family="Helvetica,sans-Serif" font-size="10.00">x265::Analysis::parallel</text>
<text text-anchor="middle" x="774" y="-122" font-family="Helvetica,sans-Serif" font-size="10.00">ModeAnalysis</text>
</a>
</g>
</g>
<!-- Node18&#45;&gt;Node19 -->
<g id="edge20" class="edge"><title>Node18&#45;&gt;Node19</title>
<path fill="none" stroke="midnightblue" d="M653.866,-130.611C674.088,-130.507 695.618,-130.397 714.733,-130.299"/>
<polygon fill="midnightblue" stroke="midnightblue" points="653.728,-127.112 643.746,-130.663 653.764,-134.111 653.728,-127.112"/>
</g>
<!-- Node21 -->
<g id="node21" class="node"><title>Node21</title>
<g id="a_node21"><a xlink:href="classx265_1_1Analysis.html#a30d2ff7eca5addbb0a6b3dfe14f09650" target="_top" xlink:title="x265::Analysis::compress\lInterCU_rd0_4">
<polygon fill="white" stroke="black" points="893,-153 893,-183 1023,-183 1023,-153 893,-153"/>
<text text-anchor="start" x="901" y="-171" font-family="Helvetica,sans-Serif" font-size="10.00">x265::Analysis::compress</text>
<text text-anchor="middle" x="958" y="-160" font-family="Helvetica,sans-Serif" font-size="10.00">InterCU_rd0_4</text>
</a>
</g>
</g>
<!-- Node18&#45;&gt;Node21 -->
<g id="edge23" class="edge"><title>Node18&#45;&gt;Node21</title>
<path fill="none" stroke="midnightblue" d="M653.78,-147.637C667.129,-150.105 680.932,-152.365 694,-154 761.489,-162.443 839.344,-165.801 892.732,-167.133"/>
<polygon fill="midnightblue" stroke="midnightblue" points="654.159,-144.146 643.681,-145.715 652.85,-151.022 654.159,-144.146"/>
</g>
<!-- Node20 -->
<g id="node20" class="node"><title>Node20</title>
<g id="a_node20"><a xlink:href="classx265_1_1Analysis.html#a29a58dad4cc1c07d2f5e5717c6be7c25" target="_top" xlink:title="x265::Analysis::findJob">
<polygon fill="white" stroke="black" points="898.5,-114.5 898.5,-133.5 1017.5,-133.5 1017.5,-114.5 898.5,-114.5"/>
<text text-anchor="middle" x="958" y="-121.5" font-family="Helvetica,sans-Serif" font-size="10.00">x265::Analysis::findJob</text>
</a>
</g>
</g>
<!-- Node19&#45;&gt;Node20 -->
<g id="edge21" class="edge"><title>Node19&#45;&gt;Node20</title>
<path fill="none" stroke="midnightblue" d="M843.266,-127.749C861.34,-127.154 880.693,-126.516 898.216,-125.938"/>
<polygon fill="midnightblue" stroke="midnightblue" points="842.966,-124.257 833.086,-128.085 843.196,-131.254 842.966,-124.257"/>
</g>
<!-- Node20&#45;&gt;Node10 -->
<g id="edge22" class="edge"><title>Node20&#45;&gt;Node10</title>
<path fill="none" stroke="midnightblue" d="M1027.68,-124C1039.96,-124 1052.72,-124 1064.86,-124"/>
<polygon fill="midnightblue" stroke="midnightblue" points="1027.5,-120.5 1017.5,-124 1027.5,-127.5 1027.5,-120.5"/>
</g>
<!-- Node21&#45;&gt;Node11 -->
<g id="edge24" class="edge"><title>Node21&#45;&gt;Node11</title>
<path fill="none" stroke="midnightblue" d="M1033.23,-163.334C1092.42,-159.614 1174.95,-154.426 1234.28,-150.697"/>
<polygon fill="midnightblue" stroke="midnightblue" points="1032.96,-159.844 1023.2,-163.965 1033.4,-166.831 1032.96,-159.844"/>
</g>
<!-- Node23 -->
<g id="node23" class="node"><title>Node23</title>
<g id="a_node23"><a xlink:href="classx265_1_1Analysis.html#a0b22b7765aa4a36b1ba6d07ba26901e6" target="_top" xlink:title="x265::Analysis::compress\lInterCU_rd5_6">
<polygon fill="white" stroke="black" points="893,-202 893,-232 1023,-232 1023,-202 893,-202"/>
<text text-anchor="start" x="901" y="-220" font-family="Helvetica,sans-Serif" font-size="10.00">x265::Analysis::compress</text>
<text text-anchor="middle" x="958" y="-209" font-family="Helvetica,sans-Serif" font-size="10.00">InterCU_rd5_6</text>
</a>
</g>
</g>
<!-- Node22&#45;&gt;Node23 -->
<g id="edge26" class="edge"><title>Node22&#45;&gt;Node23</title>
<path fill="none" stroke="midnightblue" d="M653.672,-190.589C723.722,-196.688 826.74,-205.658 892.85,-211.414"/>
<polygon fill="midnightblue" stroke="midnightblue" points="653.85,-187.091 643.584,-189.71 653.243,-194.065 653.85,-187.091"/>
</g>
<!-- Node23&#45;&gt;Node11 -->
<g id="edge27" class="edge"><title>Node23&#45;&gt;Node11</title>
<path fill="none" stroke="midnightblue" d="M1032.91,-203.949C1080.22,-195.383 1142.85,-183.646 1198,-172 1222.11,-166.909 1249.02,-160.621 1270.31,-155.503"/>
<polygon fill="midnightblue" stroke="midnightblue" points="1032.28,-200.507 1023.06,-205.728 1033.52,-207.396 1032.28,-200.507"/>
</g>
<!-- Node25 -->
<g id="node25" class="node"><title>Node25</title>
<g id="a_node25"><a xlink:href="classx265_1_1Lookahead.html#ad15172de7a432e47e8514fb157fafedd" target="_top" xlink:title="x265::Lookahead::slicetype\lDecide">
<polygon fill="white" stroke="black" points="1062,-412 1062,-442 1198,-442 1198,-412 1062,-412"/>
<text text-anchor="start" x="1070" y="-430" font-family="Helvetica,sans-Serif" font-size="10.00">x265::Lookahead::slicetype</text>
<text text-anchor="middle" x="1130" y="-419" font-family="Helvetica,sans-Serif" font-size="10.00">Decide</text>
</a>
</g>
</g>
<!-- Node24&#45;&gt;Node25 -->
<g id="edge29" class="edge"><title>Node24&#45;&gt;Node25</title>
<path fill="none" stroke="midnightblue" d="M407.078,-339.585C427.583,-359.836 460.73,-388.261 496,-401 691.516,-471.619 943.363,-452.136 1061.8,-437.101"/>
<polygon fill="midnightblue" stroke="midnightblue" points="409.376,-336.931 399.86,-332.273 404.394,-341.849 409.376,-336.931"/>
</g>
<!-- Node31 -->
<g id="node31" class="node"><title>Node31</title>
<g id="a_node31"><a xlink:href="classx265_1_1Lookahead.html#ad963fd74581c61eaf7713367906b3e96" target="_top" xlink:title="x265::Lookahead::vbvFrameCost">
<polygon fill="white" stroke="black" points="496.5,-219.5 496.5,-238.5 657.5,-238.5 657.5,-219.5 496.5,-219.5"/>
<text text-anchor="middle" x="577" y="-226.5" font-family="Helvetica,sans-Serif" font-size="10.00">x265::Lookahead::vbvFrameCost</text>
</a>
</g>
</g>
<!-- Node24&#45;&gt;Node31 -->
<g id="edge37" class="edge"><title>Node24&#45;&gt;Node31</title>
<path fill="none" stroke="midnightblue" d="M413.879,-295.901C435.315,-280.6 466.212,-260.479 496,-248 505.085,-244.194 515.084,-241.06 524.845,-238.511"/>
<polygon fill="midnightblue" stroke="midnightblue" points="411.624,-293.213 405.585,-301.919 415.735,-298.879 411.624,-293.213"/>
</g>
<!-- Node33 -->
<g id="node33" class="node"><title>Node33</title>
<g id="a_node33"><a xlink:href="classx265_1_1Lookahead.html#a2f8c7057dd5c5086830b5f22b38105b0" target="_top" xlink:title="x265::Lookahead::slicetype\lAnalyse">
<polygon fill="white" stroke="black" points="890,-330 890,-360 1026,-360 1026,-330 890,-330"/>
<text text-anchor="start" x="898" y="-348" font-family="Helvetica,sans-Serif" font-size="10.00">x265::Lookahead::slicetype</text>
<text text-anchor="middle" x="958" y="-337" font-family="Helvetica,sans-Serif" font-size="10.00">Analyse</text>
</a>
</g>
</g>
<!-- Node24&#45;&gt;Node33 -->
<g id="edge41" class="edge"><title>Node24&#45;&gt;Node33</title>
<path fill="none" stroke="midnightblue" d="M411.674,-338.653C432.791,-354.961 464.301,-375.993 496,-385 512.859,-389.79 840.976,-385.394 854,-383 878.557,-378.485 904.953,-368.64 924.875,-360.103"/>
<polygon fill="midnightblue" stroke="midnightblue" points="413.575,-335.694 403.564,-332.226 409.227,-341.18 413.575,-335.694"/>
</g>
<!-- Node34 -->
<g id="node34" class="node"><title>Node34</title>
<g id="a_node34"><a xlink:href="classx265_1_1Lookahead.html#abe59d19601dc7f3cc76ba3dd315140ee" target="_top" xlink:title="x265::Lookahead::scenecut\lInternal">
<polygon fill="white" stroke="black" points="508.5,-258 508.5,-288 645.5,-288 645.5,-258 508.5,-258"/>
<text text-anchor="start" x="516.5" y="-276" font-family="Helvetica,sans-Serif" font-size="10.00">x265::Lookahead::scenecut</text>
<text text-anchor="middle" x="577" y="-265" font-family="Helvetica,sans-Serif" font-size="10.00">Internal</text>
</a>
</g>
</g>
<!-- Node24&#45;&gt;Node34 -->
<g id="edge42" class="edge"><title>Node24&#45;&gt;Node34</title>
<path fill="none" stroke="midnightblue" d="M449.51,-302.292C469.281,-297.714 491.103,-292.66 510.975,-288.058"/>
<polygon fill="midnightblue" stroke="midnightblue" points="448.637,-298.902 439.685,-304.568 450.216,-305.721 448.637,-298.902"/>
</g>
<!-- Node36 -->
<g id="node36" class="node"><title>Node36</title>
<g id="a_node36"><a xlink:href="classx265_1_1Lookahead.html#a23cd684acae2cb60daeb2f6df390e30e" target="_top" xlink:title="x265::Lookahead::slicetype\lPathCost">
<polygon fill="white" stroke="black" points="509,-346 509,-376 645,-376 645,-346 509,-346"/>
<text text-anchor="start" x="517" y="-364" font-family="Helvetica,sans-Serif" font-size="10.00">x265::Lookahead::slicetype</text>
<text text-anchor="middle" x="577" y="-353" font-family="Helvetica,sans-Serif" font-size="10.00">PathCost</text>
</a>
</g>
</g>
<!-- Node24&#45;&gt;Node36 -->
<g id="edge45" class="edge"><title>Node24&#45;&gt;Node36</title>
<path fill="none" stroke="midnightblue" d="M449.51,-331.708C469.281,-336.286 491.103,-341.34 510.975,-345.942"/>
<polygon fill="midnightblue" stroke="midnightblue" points="450.216,-328.279 439.685,-329.432 448.637,-335.098 450.216,-328.279"/>
</g>
<!-- Node38 -->
<g id="node38" class="node"><title>Node38</title>
<g id="a_node38"><a xlink:href="classx265_1_1Lookahead.html#a7de60f6bb080e48623088fb1ed9f034b" target="_top" xlink:title="x265::Lookahead::cuTree">
<polygon fill="white" stroke="black" points="710.5,-316.5 710.5,-335.5 837.5,-335.5 837.5,-316.5 710.5,-316.5"/>
<text text-anchor="middle" x="774" y="-323.5" font-family="Helvetica,sans-Serif" font-size="10.00">x265::Lookahead::cuTree</text>
</a>
</g>
</g>
<!-- Node24&#45;&gt;Node38 -->
<g id="edge48" class="edge"><title>Node24&#45;&gt;Node38</title>
<path fill="none" stroke="midnightblue" d="M450.127,-318.491C522.304,-320.17 638.797,-322.879 710.358,-324.543"/>
<polygon fill="midnightblue" stroke="midnightblue" points="449.889,-314.985 439.811,-318.251 449.727,-321.983 449.889,-314.985"/>
</g>
<!-- Node26 -->
<g id="node26" class="node"><title>Node26</title>
<g id="a_node26"><a xlink:href="classx265_1_1Lookahead.html#a878bca13580997ab9c01e72a8f8e81c3" target="_top" xlink:title="x265::Lookahead::addPicture">
<polygon fill="white" stroke="black" points="1238.5,-455.5 1238.5,-474.5 1381.5,-474.5 1381.5,-455.5 1238.5,-455.5"/>
<text text-anchor="middle" x="1310" y="-462.5" font-family="Helvetica,sans-Serif" font-size="10.00">x265::Lookahead::addPicture</text>
</a>
</g>
</g>
<!-- Node25&#45;&gt;Node26 -->
<g id="edge30" class="edge"><title>Node25&#45;&gt;Node26</title>
<path fill="none" stroke="midnightblue" d="M1208.02,-443.443C1227.28,-447.555 1247.31,-451.829 1264.39,-455.477"/>
<polygon fill="midnightblue" stroke="midnightblue" points="1208.55,-439.977 1198.04,-441.312 1207.09,-446.823 1208.55,-439.977"/>
</g>
<!-- Node29 -->
<g id="node29" class="node"><title>Node29</title>
<g id="a_node29"><a xlink:href="classx265_1_1Lookahead.html#a0294c952379ca6f328014f92aa51259c" target="_top" xlink:title="x265::Lookahead::flush">
<polygon fill="white" stroke="black" points="1251,-417.5 1251,-436.5 1369,-436.5 1369,-417.5 1251,-417.5"/>
<text text-anchor="middle" x="1310" y="-424.5" font-family="Helvetica,sans-Serif" font-size="10.00">x265::Lookahead::flush</text>
</a>
</g>
</g>
<!-- Node25&#45;&gt;Node29 -->
<g id="edge34" class="edge"><title>Node25&#45;&gt;Node29</title>
<path fill="none" stroke="midnightblue" d="M1208.32,-427C1222.56,-427 1237.21,-427 1250.77,-427"/>
<polygon fill="midnightblue" stroke="midnightblue" points="1208.04,-423.5 1198.04,-427 1208.04,-430.5 1208.04,-423.5"/>
</g>
<!-- Node30 -->
<g id="node30" class="node"><title>Node30</title>
<g id="a_node30"><a xlink:href="classx265_1_1Lookahead.html#a341d8c6a3a971583aa911cf8dedbe6a1" target="_top" xlink:title="x265::Lookahead::findJob">
<polygon fill="white" stroke="black" points="1246,-379.5 1246,-398.5 1374,-398.5 1374,-379.5 1246,-379.5"/>
<text text-anchor="middle" x="1310" y="-386.5" font-family="Helvetica,sans-Serif" font-size="10.00">x265::Lookahead::findJob</text>
</a>
</g>
</g>
<!-- Node25&#45;&gt;Node30 -->
<g id="edge36" class="edge"><title>Node25&#45;&gt;Node30</title>
<path fill="none" stroke="midnightblue" d="M1208.02,-410.557C1227.28,-406.445 1247.31,-402.171 1264.39,-398.523"/>
<polygon fill="midnightblue" stroke="midnightblue" points="1207.09,-407.177 1198.04,-412.688 1208.55,-414.023 1207.09,-407.177"/>
</g>
<!-- Node27 -->
<g id="node27" class="node"><title>Node27</title>
<g id="a_node27"><a xlink:href="classx265_1_1Encoder.html#af5c80cef5fcafa00d1b3c105681bc784" target="_top" xlink:title="x265::Encoder::encode">
<polygon fill="white" stroke="black" points="1422.5,-455.5 1422.5,-474.5 1539.5,-474.5 1539.5,-455.5 1422.5,-455.5"/>
<text text-anchor="middle" x="1481" y="-462.5" font-family="Helvetica,sans-Serif" font-size="10.00">x265::Encoder::encode</text>
</a>
</g>
</g>
<!-- Node26&#45;&gt;Node27 -->
<g id="edge31" class="edge"><title>Node26&#45;&gt;Node27</title>
<path fill="none" stroke="midnightblue" d="M1391.94,-465C1402.23,-465 1412.59,-465 1422.41,-465"/>
<polygon fill="midnightblue" stroke="midnightblue" points="1391.69,-461.5 1381.69,-465 1391.69,-468.5 1391.69,-461.5"/>
</g>
<!-- Node28 -->
<g id="node28" class="node"><title>Node28</title>
<g id="a_node28"><a xlink:href="x265_8h.html#a7a45a920b9d86ed3fb3cb3794b14f5ea" target="_top" xlink:title="x265_encoder_encode">
<polygon fill="white" stroke="black" points="1576,-455.5 1576,-474.5 1690,-474.5 1690,-455.5 1576,-455.5"/>
<text text-anchor="middle" x="1633" y="-462.5" font-family="Helvetica,sans-Serif" font-size="10.00">x265_encoder_encode</text>
</a>
</g>
</g>
<!-- Node27&#45;&gt;Node28 -->
<g id="edge32" class="edge"><title>Node27&#45;&gt;Node28</title>
<path fill="none" stroke="midnightblue" d="M1549.72,-465C1558.45,-465 1567.31,-465 1575.83,-465"/>
<polygon fill="midnightblue" stroke="midnightblue" points="1549.56,-461.5 1539.56,-465 1549.56,-468.5 1549.56,-461.5"/>
</g>
<!-- Node28&#45;&gt;Node7 -->
<g id="edge33" class="edge"><title>Node28&#45;&gt;Node7</title>
<path fill="none" stroke="midnightblue" d="M1700.49,-473.594C1723.39,-476.553 1747.2,-479.631 1762.93,-481.664"/>
<polygon fill="midnightblue" stroke="midnightblue" points="1700.78,-470.102 1690.41,-472.292 1699.88,-477.045 1700.78,-470.102"/>
</g>
<!-- Node29&#45;&gt;Node27 -->
<g id="edge35" class="edge"><title>Node29&#45;&gt;Node27</title>
<path fill="none" stroke="midnightblue" d="M1363.59,-438.824C1387.41,-444.182 1415.21,-450.431 1437.66,-455.48"/>
<polygon fill="midnightblue" stroke="midnightblue" points="1364.17,-435.368 1353.65,-436.589 1362.63,-442.198 1364.17,-435.368"/>
</g>
<!-- Node32 -->
<g id="node32" class="node"><title>Node32</title>
<g id="a_node32"><a xlink:href="classx265_1_1Lookahead.html#ad80879ec65df8318fbb5109388dcfa39" target="_top" xlink:title="x265::Lookahead::vbvLookahead">
<polygon fill="white" stroke="black" points="694,-240.5 694,-259.5 854,-259.5 854,-240.5 694,-240.5"/>
<text text-anchor="middle" x="774" y="-247.5" font-family="Helvetica,sans-Serif" font-size="10.00">x265::Lookahead::vbvLookahead</text>
</a>
</g>
</g>
<!-- Node31&#45;&gt;Node32 -->
<g id="edge38" class="edge"><title>Node31&#45;&gt;Node32</title>
<path fill="none" stroke="midnightblue" d="M667.797,-238.67C676.534,-239.611 685.355,-240.561 693.975,-241.49"/>
<polygon fill="midnightblue" stroke="midnightblue" points="667.913,-235.163 657.595,-237.572 667.163,-242.122 667.913,-235.163"/>
</g>
<!-- Node32&#45;&gt;Node33 -->
<g id="edge39" class="edge"><title>Node32&#45;&gt;Node33</title>
<path fill="none" stroke="midnightblue" d="M837.476,-262.527C843.167,-264.411 848.757,-266.558 854,-269 887.844,-284.762 921.626,-312.567 940.852,-329.82"/>
<polygon fill="midnightblue" stroke="midnightblue" points="838.431,-259.16 827.846,-259.599 836.395,-265.857 838.431,-259.16"/>
</g>
<!-- Node33&#45;&gt;Node25 -->
<g id="edge40" class="edge"><title>Node33&#45;&gt;Node25</title>
<path fill="none" stroke="midnightblue" d="M999.561,-364.565C1029.66,-379.085 1070.11,-398.594 1097.73,-411.917"/>
<polygon fill="midnightblue" stroke="midnightblue" points="1000.71,-361.232 990.181,-360.04 997.667,-367.537 1000.71,-361.232"/>
</g>
<!-- Node35 -->
<g id="node35" class="node"><title>Node35</title>
<g id="a_node35"><a xlink:href="classx265_1_1Lookahead.html#aa8614a28660df5604b8f7a2319d1c43a" target="_top" xlink:title="x265::Lookahead::scenecut">
<polygon fill="white" stroke="black" points="705.5,-278.5 705.5,-297.5 842.5,-297.5 842.5,-278.5 705.5,-278.5"/>
<text text-anchor="middle" x="774" y="-285.5" font-family="Helvetica,sans-Serif" font-size="10.00">x265::Lookahead::scenecut</text>
</a>
</g>
</g>
<!-- Node34&#45;&gt;Node35 -->
<g id="edge43" class="edge"><title>Node34&#45;&gt;Node35</title>
<path fill="none" stroke="midnightblue" d="M655.773,-278.983C672.215,-280.247 689.439,-281.572 705.465,-282.805"/>
<polygon fill="midnightblue" stroke="midnightblue" points="655.893,-275.482 645.654,-278.204 655.356,-282.461 655.893,-275.482"/>
</g>
<!-- Node35&#45;&gt;Node33 -->
<g id="edge44" class="edge"><title>Node35&#45;&gt;Node33</title>
<path fill="none" stroke="midnightblue" d="M828.614,-299.994C837.151,-302.162 845.851,-304.526 854,-307 875.886,-313.644 899.886,-322.409 919.208,-329.846"/>
<polygon fill="midnightblue" stroke="midnightblue" points="829.258,-296.548 818.71,-297.544 827.577,-303.343 829.258,-296.548"/>
</g>
<!-- Node37 -->
<g id="node37" class="node"><title>Node37</title>
<g id="a_node37"><a xlink:href="classx265_1_1Lookahead.html#a694b3e0d0fb30e4e5b149cd3d79a839d" target="_top" xlink:title="x265::Lookahead::slicetypePath">
<polygon fill="white" stroke="black" points="696,-354.5 696,-373.5 852,-373.5 852,-354.5 696,-354.5"/>
<text text-anchor="middle" x="774" y="-361.5" font-family="Helvetica,sans-Serif" font-size="10.00">x265::Lookahead::slicetypePath</text>
</a>
</g>
</g>
<!-- Node36&#45;&gt;Node37 -->
<g id="edge46" class="edge"><title>Node36&#45;&gt;Node37</title>
<path fill="none" stroke="midnightblue" d="M655.182,-362.187C668.514,-362.393 682.377,-362.606 695.712,-362.811"/>
<polygon fill="midnightblue" stroke="midnightblue" points="655.161,-358.687 645.108,-362.032 655.053,-365.686 655.161,-358.687"/>
</g>
<!-- Node37&#45;&gt;Node33 -->
<g id="edge47" class="edge"><title>Node37&#45;&gt;Node33</title>
<path fill="none" stroke="midnightblue" d="M862.201,-354.897C871.467,-353.929 880.787,-352.956 889.773,-352.018"/>
<polygon fill="midnightblue" stroke="midnightblue" points="861.767,-351.423 852.184,-355.942 862.494,-358.385 861.767,-351.423"/>
</g>
<!-- Node38&#45;&gt;Node33 -->
<g id="edge49" class="edge"><title>Node38&#45;&gt;Node33</title>
<path fill="none" stroke="midnightblue" d="M847.66,-333.585C861.602,-335.041 876.144,-336.559 889.9,-337.995"/>
<polygon fill="midnightblue" stroke="midnightblue" points="847.943,-330.096 837.634,-332.539 847.217,-337.058 847.943,-330.096"/>
</g>
<!-- Node40 -->
<g id="node40" class="node"><title>Node40</title>
<g id="a_node40"><a xlink:href="testpool_8cpp.html#a2c3f6775325c30275d11c6abee2db6a0" target="_top" xlink:title="main">
<polygon fill="white" stroke="black" points="558,-0.5 558,-19.5 596,-19.5 596,-0.5 558,-0.5"/>
<text text-anchor="middle" x="577" y="-7.5" font-family="Helvetica,sans-Serif" font-size="10.00">main</text>
</a>
</g>
</g>
<!-- Node39&#45;&gt;Node40 -->
<g id="edge51" class="edge"><title>Node39&#45;&gt;Node40</title>
<path fill="none" stroke="midnightblue" d="M447.012,-10C485.518,-10 532.605,-10 557.884,-10"/>
<polygon fill="midnightblue" stroke="midnightblue" points="446.917,-6.5001 436.917,-10 446.916,-13.5001 446.917,-6.5001"/>
</g>
</g>
</svg>
