<?xml version="1.0" encoding="UTF-8" standalone="no"?>
<!DOCTYPE svg PUBLIC "-//W3C//DTD SVG 1.1//EN"
 "http://www.w3.org/Graphics/SVG/1.1/DTD/svg11.dtd">
<!-- Generated by graphviz version 2.36.0 (20140111.2315)
 -->
<!-- Title: x265::CUData::isSkipped Pages: 1 -->
<!--zoomable 671 -->
<svg id="main" version="1.1" xmlns="http://www.w3.org/2000/svg" xmlns:xlink="http://www.w3.org/1999/xlink" xml:space="preserve" onload="init(evt)">
<style type="text/css"><![CDATA[
.edge:hover path { stroke: red; }
.edge:hover polygon { stroke: red; fill: red; }
]]></style>
<script type="text/javascript"><![CDATA[
var edges = document.getElementsByTagName('g');
if (edges && edges.length) {
  for (var i=0;i<edges.length;i++) {
    if (edges[i].id.substr(0,4)=='edge') {
      edges[i].setAttribute('class','edge');
    }
  }
}
]]></script>
        <defs>
                <circle id="rim" cx="0" cy="0" r="7"/>
                <circle id="rim2" cx="0" cy="0" r="3.5"/>
                <g id="zoomPlus">
                        <use xlink:href="#rim" fill="#404040">
                                <set attributeName="fill" to="#808080" begin="zoomplus.mouseover" end="zoomplus.mouseout"/>
                        </use>
                        <path d="M-4,0h8M0,-4v8" fill="none" stroke="white" stroke-width="1.5" pointer-events="none"/>
                </g>
                <g id="zoomMin">
                        <use xlink:href="#rim" fill="#404040">
                                <set attributeName="fill" to="#808080" begin="zoomminus.mouseover" end="zoomminus.mouseout"/>
                        </use>
                        <path d="M-4,0h8" fill="none" stroke="white" stroke-width="1.5" pointer-events="none"/>
                </g>
                <g id="dirArrow">
                        <path fill="none" stroke="white" stroke-width="1.5" d="M0,-3.0v7 M-2.5,-0.5L0,-3.0L2.5,-0.5"/>
                </g>
               <g id="resetDef">
                       <use xlink:href="#rim2" fill="#404040">
                               <set attributeName="fill" to="#808080" begin="reset.mouseover" end="reset.mouseout"/>
                       </use>
               </g>
        </defs>

<script type="text/javascript">
var viewWidth = 2190;
var viewHeight = 671;
var sectionId = 'dynsection-75';
</script>
<script xlink:href="svgpan.js"/>
<svg id="graph" class="graph">
<g id="viewport">
<title>x265::CUData::isSkipped</title>
<polygon fill="white" stroke="none" points="-4,4 -4,-667.147 2186,-667.147 2186,4 -4,4"/>
<!-- Node1 -->
<g id="node1" class="node"><title>Node1</title>
<polygon fill="#bfbfbf" stroke="black" points="0,-289.5 0,-308.5 128,-308.5 128,-289.5 0,-289.5"/>
<text text-anchor="middle" x="64" y="-296.5" font-family="Helvetica,sans-Serif" font-size="10.00">x265::CUData::isSkipped</text>
</g>
<!-- Node2 -->
<g id="node2" class="node"><title>Node2</title>
<g id="a_node2"><a xlink:href="classx265_1_1CUData.html#a06ba8696cbc814cb610d05d29e23b8d2" target="_top" xlink:title="x265::CUData::getCtxSkipFlag">
<polygon fill="white" stroke="black" points="164.5,-289.5 164.5,-308.5 317.5,-308.5 317.5,-289.5 164.5,-289.5"/>
<text text-anchor="middle" x="241" y="-296.5" font-family="Helvetica,sans-Serif" font-size="10.00">x265::CUData::getCtxSkipFlag</text>
</a>
</g>
</g>
<!-- Node1&#45;&gt;Node2 -->
<g id="edge1" class="edge"><title>Node1&#45;&gt;Node2</title>
<path fill="none" stroke="midnightblue" d="M138.222,-299C146.869,-299 155.708,-299 164.387,-299"/>
<polygon fill="midnightblue" stroke="midnightblue" points="138.179,-295.5 128.179,-299 138.179,-302.5 138.179,-295.5"/>
</g>
<!-- Node3 -->
<g id="node3" class="node"><title>Node3</title>
<g id="a_node3"><a xlink:href="classx265_1_1Entropy.html#aff17c7e9410ef418e67043a7e7dc304e" target="_top" xlink:title="x265::Entropy::codeSkipFlag">
<polygon fill="white" stroke="black" points="354.5,-327.5 354.5,-346.5 497.5,-346.5 497.5,-327.5 354.5,-327.5"/>
<text text-anchor="middle" x="426" y="-334.5" font-family="Helvetica,sans-Serif" font-size="10.00">x265::Entropy::codeSkipFlag</text>
</a>
</g>
</g>
<!-- Node1&#45;&gt;Node3 -->
<g id="edge52" class="edge"><title>Node1&#45;&gt;Node3</title>
<path fill="none" stroke="midnightblue" d="M118.603,-310.472C133.266,-313.286 149.198,-316.048 164,-318 228.185,-326.466 301.785,-331.394 354.43,-334.1"/>
<polygon fill="midnightblue" stroke="midnightblue" points="119.17,-307.017 108.683,-308.525 117.821,-313.886 119.17,-307.017"/>
</g>
<!-- Node7 -->
<g id="node7" class="node"><title>Node7</title>
<g id="a_node7"><a xlink:href="classx265_1_1Analysis.html#a87060ff27a37f56adc5f5b8a4c033ece" target="_top" xlink:title="x265::Analysis::compress\lInterCU_dist">
<polygon fill="white" stroke="black" points="1278,-234 1278,-264 1408,-264 1408,-234 1278,-234"/>
<text text-anchor="start" x="1286" y="-252" font-family="Helvetica,sans-Serif" font-size="10.00">x265::Analysis::compress</text>
<text text-anchor="middle" x="1343" y="-241" font-family="Helvetica,sans-Serif" font-size="10.00">InterCU_dist</text>
</a>
</g>
</g>
<!-- Node1&#45;&gt;Node7 -->
<g id="edge48" class="edge"><title>Node1&#45;&gt;Node7</title>
<path fill="none" stroke="midnightblue" d="M69.7285,-279.207C79.9317,-241.022 107.774,-157.237 164,-115 258.857,-43.7433 306.36,-59 425,-59 425,-59 425,-59 987,-59 1100.65,-59 1145.59,-17.8245 1242,-78 1300.64,-114.602 1328.84,-199.144 1338.26,-233.781"/>
<polygon fill="midnightblue" stroke="midnightblue" points="66.2858,-278.544 67.2123,-289.098 73.0698,-280.27 66.2858,-278.544"/>
</g>
<!-- Node13 -->
<g id="node13" class="node"><title>Node13</title>
<g id="a_node13"><a xlink:href="classx265_1_1Analysis.html#a30d2ff7eca5addbb0a6b3dfe14f09650" target="_top" xlink:title="x265::Analysis::compress\lInterCU_rd0_4">
<polygon fill="white" stroke="black" points="1278,-297 1278,-327 1408,-327 1408,-297 1278,-297"/>
<text text-anchor="start" x="1286" y="-315" font-family="Helvetica,sans-Serif" font-size="10.00">x265::Analysis::compress</text>
<text text-anchor="middle" x="1343" y="-304" font-family="Helvetica,sans-Serif" font-size="10.00">InterCU_rd0_4</text>
</a>
</g>
</g>
<!-- Node1&#45;&gt;Node13 -->
<g id="edge49" class="edge"><title>Node1&#45;&gt;Node13</title>
<path fill="none" stroke="midnightblue" d="M80.9171,-281.982C128.259,-233.308 274.29,-97 425,-97 425,-97 425,-97 803,-97 917.534,-97 951.656,-78.8574 1060,-116 1151.88,-147.5 1166.84,-175.466 1242,-237 1259.51,-251.334 1260.21,-259.014 1278,-273 1289.15,-281.766 1302.41,-290.138 1313.96,-296.862"/>
<polygon fill="midnightblue" stroke="midnightblue" points="78.3367,-279.616 73.9444,-289.257 83.3905,-284.459 78.3367,-279.616"/>
</g>
<!-- Node14 -->
<g id="node14" class="node"><title>Node14</title>
<g id="a_node14"><a xlink:href="classx265_1_1Entropy.html#adeb50a7c9a5df6643407d01158d93799" target="_top" xlink:title="x265::Entropy::encodeCU">
<polygon fill="white" stroke="black" points="548,-616.5 548,-635.5 678,-635.5 678,-616.5 548,-616.5"/>
<text text-anchor="middle" x="613" y="-623.5" font-family="Helvetica,sans-Serif" font-size="10.00">x265::Entropy::encodeCU</text>
</a>
</g>
</g>
<!-- Node1&#45;&gt;Node14 -->
<g id="edge51" class="edge"><title>Node1&#45;&gt;Node14</title>
<path fill="none" stroke="midnightblue" d="M64.5041,-319.044C64.341,-374.713 72.3721,-531.726 164,-602 289.773,-698.461 498.678,-656.73 579.072,-635.557"/>
<polygon fill="midnightblue" stroke="midnightblue" points="68.0073,-318.815 64.6362,-308.771 61.0079,-318.725 68.0073,-318.815"/>
</g>
<!-- Node22 -->
<g id="node22" class="node"><title>Node22</title>
<g id="a_node22"><a xlink:href="classx265_1_1Analysis.html#a0b22b7765aa4a36b1ba6d07ba26901e6" target="_top" xlink:title="x265::Analysis::compress\lInterCU_rd5_6">
<polygon fill="white" stroke="black" points="1278,-431 1278,-461 1408,-461 1408,-431 1278,-431"/>
<text text-anchor="start" x="1286" y="-449" font-family="Helvetica,sans-Serif" font-size="10.00">x265::Analysis::compress</text>
<text text-anchor="middle" x="1343" y="-438" font-family="Helvetica,sans-Serif" font-size="10.00">InterCU_rd5_6</text>
</a>
</g>
</g>
<!-- Node1&#45;&gt;Node22 -->
<g id="edge50" class="edge"><title>Node1&#45;&gt;Node22</title>
<path fill="none" stroke="midnightblue" d="M75.7155,-317.587C114.075,-381.452 251.543,-588 425,-588 425,-588 425,-588 987,-588 1101.72,-588 1140,-600.511 1242,-548 1247.29,-545.276 1300.9,-489.263 1327.37,-461.427"/>
<polygon fill="midnightblue" stroke="midnightblue" points="78.5172,-315.448 70.4197,-308.616 72.4891,-319.006 78.5172,-315.448"/>
</g>
<!-- Node28 -->
<g id="node28" class="node"><title>Node28</title>
<g id="a_node28"><a xlink:href="classx265_1_1FrameEncoder.html#a7e3b7a7029719b9dd24781e0483a56e2" target="_top" xlink:title="x265::FrameEncoder\l::collectCTUStatistics">
<polygon fill="white" stroke="black" points="369.5,-0 369.5,-30 482.5,-30 482.5,-0 369.5,-0"/>
<text text-anchor="start" x="377.5" y="-18" font-family="Helvetica,sans-Serif" font-size="10.00">x265::FrameEncoder</text>
<text text-anchor="middle" x="426" y="-7" font-family="Helvetica,sans-Serif" font-size="10.00">::collectCTUStatistics</text>
</a>
</g>
</g>
<!-- Node1&#45;&gt;Node28 -->
<g id="edge53" class="edge"><title>Node1&#45;&gt;Node28</title>
<path fill="none" stroke="midnightblue" d="M66.1224,-279.211C70.0478,-230.408 87.4864,-103.99 164,-45 222.698,0.254744 312.041,0.144998 369.473,-5.97198"/>
<polygon fill="midnightblue" stroke="midnightblue" points="62.6177,-279.159 65.4154,-289.377 69.6008,-279.644 62.6177,-279.159"/>
</g>
<!-- Node2&#45;&gt;Node3 -->
<g id="edge2" class="edge"><title>Node2&#45;&gt;Node3</title>
<path fill="none" stroke="midnightblue" d="M298.253,-310.681C324.205,-316.07 354.622,-322.386 379.153,-327.48"/>
<polygon fill="midnightblue" stroke="midnightblue" points="298.681,-307.195 288.179,-308.589 297.258,-314.049 298.681,-307.195"/>
</g>
<!-- Node4 -->
<g id="node4" class="node"><title>Node4</title>
<g id="a_node4"><a xlink:href="classx265_1_1Analysis.html#ae4d61bcf4d2c22a054d68d6d77136428" target="_top" xlink:title="x265::Analysis::encodeIntra\lInInter">
<polygon fill="white" stroke="black" points="733,-208 733,-238 871,-238 871,-208 733,-208"/>
<text text-anchor="start" x="741" y="-226" font-family="Helvetica,sans-Serif" font-size="10.00">x265::Analysis::encodeIntra</text>
<text text-anchor="middle" x="802" y="-215" font-family="Helvetica,sans-Serif" font-size="10.00">InInter</text>
</a>
</g>
</g>
<!-- Node3&#45;&gt;Node4 -->
<g id="edge3" class="edge"><title>Node3&#45;&gt;Node4</title>
<path fill="none" stroke="midnightblue" d="M452.927,-322.356C474.169,-310.864 505.297,-295.162 534,-285 599.943,-261.654 678.192,-244.676 732.871,-234.451"/>
<polygon fill="midnightblue" stroke="midnightblue" points="450.991,-319.426 443.907,-327.305 454.358,-325.563 450.991,-319.426"/>
</g>
<!-- Node3&#45;&gt;Node14 -->
<g id="edge15" class="edge"><title>Node3&#45;&gt;Node14</title>
<path fill="none" stroke="midnightblue" d="M438.755,-355.364C474.2,-410.733 579.22,-574.792 605.822,-616.348"/>
<polygon fill="midnightblue" stroke="midnightblue" points="441.494,-353.151 433.155,-346.616 435.599,-356.925 441.494,-353.151"/>
</g>
<!-- Node17 -->
<g id="node17" class="node"><title>Node17</title>
<g id="a_node17"><a xlink:href="classx265_1_1Search.html#a59b84ac1e21c86af579b6e84e43c5b7a" target="_top" xlink:title="x265::Search::codeIntraLumaQT">
<polygon fill="white" stroke="black" points="534,-327.5 534,-346.5 692,-346.5 692,-327.5 534,-327.5"/>
<text text-anchor="middle" x="613" y="-334.5" font-family="Helvetica,sans-Serif" font-size="10.00">x265::Search::codeIntraLumaQT</text>
</a>
</g>
</g>
<!-- Node3&#45;&gt;Node17 -->
<g id="edge20" class="edge"><title>Node3&#45;&gt;Node17</title>
<path fill="none" stroke="midnightblue" d="M507.817,-337C516.478,-337 525.278,-337 533.906,-337"/>
<polygon fill="midnightblue" stroke="midnightblue" points="507.732,-333.5 497.732,-337 507.732,-340.5 507.732,-333.5"/>
</g>
<!-- Node19 -->
<g id="node19" class="node"><title>Node19</title>
<g id="a_node19"><a xlink:href="classx265_1_1Search.html#ab02df91827cf67796d1605bde60c6aed" target="_top" xlink:title="x265::Search::checkIntra">
<polygon fill="white" stroke="black" points="923,-441.5 923,-460.5 1049,-460.5 1049,-441.5 923,-441.5"/>
<text text-anchor="middle" x="986" y="-448.5" font-family="Helvetica,sans-Serif" font-size="10.00">x265::Search::checkIntra</text>
</a>
</g>
</g>
<!-- Node3&#45;&gt;Node19 -->
<g id="edge33" class="edge"><title>Node3&#45;&gt;Node19</title>
<path fill="none" stroke="midnightblue" d="M464.244,-349.829C484.773,-356.825 510.74,-365.552 534,-373 619.829,-400.483 639.408,-415.465 728,-432 793.861,-444.292 870.61,-448.705 922.972,-450.25"/>
<polygon fill="midnightblue" stroke="midnightblue" points="465.234,-346.469 454.639,-346.547 462.97,-353.093 465.234,-346.469"/>
</g>
<!-- Node23 -->
<g id="node23" class="node"><title>Node23</title>
<g id="a_node23"><a xlink:href="classx265_1_1Search.html#a4e3f1622d206a6883cb41567c63e106f" target="_top" xlink:title="x265::Search::encodeResAnd\lCalcRdSkipCU">
<polygon fill="white" stroke="black" points="912.5,-371 912.5,-401 1059.5,-401 1059.5,-371 912.5,-371"/>
<text text-anchor="start" x="920.5" y="-389" font-family="Helvetica,sans-Serif" font-size="10.00">x265::Search::encodeResAnd</text>
<text text-anchor="middle" x="986" y="-378" font-family="Helvetica,sans-Serif" font-size="10.00">CalcRdSkipCU</text>
</a>
</g>
</g>
<!-- Node3&#45;&gt;Node23 -->
<g id="edge34" class="edge"><title>Node3&#45;&gt;Node23</title>
<path fill="none" stroke="midnightblue" d="M480.775,-325.548C497.723,-322.453 516.568,-319.536 534,-318 603.951,-311.838 622.234,-310.01 692,-318 779.16,-327.981 878.107,-354.147 935.834,-370.957"/>
<polygon fill="midnightblue" stroke="midnightblue" points="479.676,-322.194 470.498,-327.488 480.974,-329.073 479.676,-322.194"/>
</g>
<!-- Node26 -->
<g id="node26" class="node"><title>Node26</title>
<g id="a_node26"><a xlink:href="classx265_1_1Search.html#aba5e04ce529f41accd43c540ba1dc7ad" target="_top" xlink:title="x265::Search::encodeResAnd\lCalcRdInterCU">
<polygon fill="white" stroke="black" points="912.5,-322 912.5,-352 1059.5,-352 1059.5,-322 912.5,-322"/>
<text text-anchor="start" x="920.5" y="-340" font-family="Helvetica,sans-Serif" font-size="10.00">x265::Search::encodeResAnd</text>
<text text-anchor="middle" x="986" y="-329" font-family="Helvetica,sans-Serif" font-size="10.00">CalcRdInterCU</text>
</a>
</g>
</g>
<!-- Node3&#45;&gt;Node26 -->
<g id="edge40" class="edge"><title>Node3&#45;&gt;Node26</title>
<path fill="none" stroke="midnightblue" d="M480.775,-348.452C497.723,-351.547 516.568,-354.464 534,-356 667.102,-367.726 822.961,-355.404 912.223,-345.866"/>
<polygon fill="midnightblue" stroke="midnightblue" points="480.974,-344.927 470.498,-346.512 479.676,-351.806 480.974,-344.927"/>
</g>
<!-- Node5 -->
<g id="node5" class="node"><title>Node5</title>
<g id="a_node5"><a xlink:href="classx265_1_1Analysis.html#aa6122285d10bb1bd7584958b88b029d5" target="_top" xlink:title="x265::Analysis::parallel\lModeAnalysis">
<polygon fill="white" stroke="black" points="927,-126 927,-156 1045,-156 1045,-126 927,-126"/>
<text text-anchor="start" x="935" y="-144" font-family="Helvetica,sans-Serif" font-size="10.00">x265::Analysis::parallel</text>
<text text-anchor="middle" x="986" y="-133" font-family="Helvetica,sans-Serif" font-size="10.00">ModeAnalysis</text>
</a>
</g>
</g>
<!-- Node4&#45;&gt;Node5 -->
<g id="edge4" class="edge"><title>Node4&#45;&gt;Node5</title>
<path fill="none" stroke="midnightblue" d="M842.412,-203.552C863.018,-193.549 888.732,-181.322 912,-171 923.398,-165.944 935.917,-160.692 947.319,-156.022"/>
<polygon fill="midnightblue" stroke="midnightblue" points="840.787,-200.451 833.331,-207.977 843.854,-206.743 840.787,-200.451"/>
</g>
<!-- Node4&#45;&gt;Node7 -->
<g id="edge12" class="edge"><title>Node4&#45;&gt;Node7</title>
<path fill="none" stroke="midnightblue" d="M874.987,-205.871C962.927,-187.867 1115.6,-166.1 1242,-197 1271.08,-204.11 1301.12,-221.295 1320.59,-233.973"/>
<polygon fill="midnightblue" stroke="midnightblue" points="874.186,-202.462 865.113,-207.932 875.617,-209.314 874.186,-202.462"/>
</g>
<!-- Node4&#45;&gt;Node13 -->
<g id="edge13" class="edge"><title>Node4&#45;&gt;Node13</title>
<path fill="none" stroke="midnightblue" d="M881.103,-223.702C969.921,-226.17 1118.61,-235.396 1242,-268 1267.31,-274.687 1294.39,-286.95 1313.98,-296.835"/>
<polygon fill="midnightblue" stroke="midnightblue" points="881.192,-220.203 871.106,-223.446 881.013,-227.201 881.192,-220.203"/>
</g>
<!-- Node6 -->
<g id="node6" class="node"><title>Node6</title>
<g id="a_node6"><a xlink:href="classx265_1_1Analysis.html#a29a58dad4cc1c07d2f5e5717c6be7c25" target="_top" xlink:title="x265::Analysis::findJob">
<polygon fill="white" stroke="black" points="1109.5,-87.5 1109.5,-106.5 1228.5,-106.5 1228.5,-87.5 1109.5,-87.5"/>
<text text-anchor="middle" x="1169" y="-94.5" font-family="Helvetica,sans-Serif" font-size="10.00">x265::Analysis::findJob</text>
</a>
</g>
</g>
<!-- Node5&#45;&gt;Node6 -->
<g id="edge5" class="edge"><title>Node5&#45;&gt;Node6</title>
<path fill="none" stroke="midnightblue" d="M1055.02,-124.464C1079.9,-118.418 1107.18,-111.784 1128.71,-106.551"/>
<polygon fill="midnightblue" stroke="midnightblue" points="1054.16,-121.073 1045.27,-126.836 1055.81,-127.875 1054.16,-121.073"/>
</g>
<!-- Node6&#45;&gt;Node7 -->
<g id="edge6" class="edge"><title>Node6&#45;&gt;Node7</title>
<path fill="none" stroke="midnightblue" d="M1221.99,-110.207C1229.04,-113.155 1235.93,-116.716 1242,-121 1285.54,-151.736 1319.3,-206.856 1333.98,-233.603"/>
<polygon fill="midnightblue" stroke="midnightblue" points="1222.93,-106.819 1212.34,-106.555 1220.45,-113.366 1222.93,-106.819"/>
</g>
<!-- Node8 -->
<g id="node8" class="node"><title>Node8</title>
<g id="a_node8"><a xlink:href="classx265_1_1Analysis.html#aaebc9de2ff98834c650244f3b58942c2" target="_top" xlink:title="x265::Analysis::compressCTU">
<polygon fill="white" stroke="black" points="1444.5,-333.5 1444.5,-352.5 1595.5,-352.5 1595.5,-333.5 1444.5,-333.5"/>
<text text-anchor="middle" x="1520" y="-340.5" font-family="Helvetica,sans-Serif" font-size="10.00">x265::Analysis::compressCTU</text>
</a>
</g>
</g>
<!-- Node7&#45;&gt;Node8 -->
<g id="edge7" class="edge"><title>Node7&#45;&gt;Node8</title>
<path fill="none" stroke="midnightblue" d="M1381.08,-268.916C1417.97,-288.731 1473.01,-318.298 1501.1,-333.388"/>
<polygon fill="midnightblue" stroke="midnightblue" points="1382.58,-265.751 1372.12,-264.103 1379.27,-271.918 1382.58,-265.751"/>
</g>
<!-- Node9 -->
<g id="node9" class="node"><title>Node9</title>
<g id="a_node9"><a xlink:href="classx265_1_1FrameEncoder.html#a0ae85001572afd28238476542523ac5f" target="_top" xlink:title="x265::FrameEncoder\l::processRowEncoder">
<polygon fill="white" stroke="black" points="1632.5,-328 1632.5,-358 1745.5,-358 1745.5,-328 1632.5,-328"/>
<text text-anchor="start" x="1640.5" y="-346" font-family="Helvetica,sans-Serif" font-size="10.00">x265::FrameEncoder</text>
<text text-anchor="middle" x="1689" y="-335" font-family="Helvetica,sans-Serif" font-size="10.00">::processRowEncoder</text>
</a>
</g>
</g>
<!-- Node8&#45;&gt;Node9 -->
<g id="edge8" class="edge"><title>Node8&#45;&gt;Node9</title>
<path fill="none" stroke="midnightblue" d="M1605.86,-343C1614.86,-343 1623.85,-343 1632.39,-343"/>
<polygon fill="midnightblue" stroke="midnightblue" points="1605.71,-339.5 1595.71,-343 1605.71,-346.5 1605.71,-339.5"/>
</g>
<!-- Node10 -->
<g id="node10" class="node"><title>Node10</title>
<g id="a_node10"><a xlink:href="classx265_1_1FrameEncoder.html#acad645a8ece97d884895f8f7366b7d70" target="_top" xlink:title="x265::FrameEncoder\l::processRow">
<polygon fill="white" stroke="black" points="1782.5,-328 1782.5,-358 1889.5,-358 1889.5,-328 1782.5,-328"/>
<text text-anchor="start" x="1790.5" y="-346" font-family="Helvetica,sans-Serif" font-size="10.00">x265::FrameEncoder</text>
<text text-anchor="middle" x="1836" y="-335" font-family="Helvetica,sans-Serif" font-size="10.00">::processRow</text>
</a>
</g>
</g>
<!-- Node9&#45;&gt;Node10 -->
<g id="edge9" class="edge"><title>Node9&#45;&gt;Node10</title>
<path fill="none" stroke="midnightblue" d="M1755.88,-343C1764.67,-343 1773.59,-343 1782.13,-343"/>
<polygon fill="midnightblue" stroke="midnightblue" points="1755.65,-339.5 1745.65,-343 1755.65,-346.5 1755.65,-339.5"/>
</g>
<!-- Node11 -->
<g id="node11" class="node"><title>Node11</title>
<g id="a_node11"><a xlink:href="classx265_1_1FrameEncoder.html#ac4e9ce2e876c0cdb25c992c872fe4302" target="_top" xlink:title="x265::FrameEncoder\l::compressCTURows">
<polygon fill="white" stroke="black" points="1926,-330 1926,-360 2038,-360 2038,-330 1926,-330"/>
<text text-anchor="start" x="1934" y="-348" font-family="Helvetica,sans-Serif" font-size="10.00">x265::FrameEncoder</text>
<text text-anchor="middle" x="1982" y="-337" font-family="Helvetica,sans-Serif" font-size="10.00">::compressCTURows</text>
</a>
</g>
</g>
<!-- Node10&#45;&gt;Node11 -->
<g id="edge10" class="edge"><title>Node10&#45;&gt;Node11</title>
<path fill="none" stroke="midnightblue" d="M1899.83,-343.873C1908.48,-343.993 1917.3,-344.115 1925.79,-344.233"/>
<polygon fill="midnightblue" stroke="midnightblue" points="1899.85,-340.373 1889.8,-343.733 1899.75,-347.372 1899.85,-340.373"/>
</g>
<!-- Node12 -->
<g id="node12" class="node"><title>Node12</title>
<g id="a_node12"><a xlink:href="classx265_1_1FrameEncoder.html#a2f5c4c0f1a4e36fce4c9b87eb7ec4973" target="_top" xlink:title="x265::FrameEncoder\l::compressFrame">
<polygon fill="white" stroke="red" points="2074.5,-352 2074.5,-382 2181.5,-382 2181.5,-352 2074.5,-352"/>
<text text-anchor="start" x="2082.5" y="-370" font-family="Helvetica,sans-Serif" font-size="10.00">x265::FrameEncoder</text>
<text text-anchor="middle" x="2128" y="-359" font-family="Helvetica,sans-Serif" font-size="10.00">::compressFrame</text>
</a>
</g>
</g>
<!-- Node11&#45;&gt;Node12 -->
<g id="edge11" class="edge"><title>Node11&#45;&gt;Node12</title>
<path fill="none" stroke="midnightblue" d="M2048.42,-354.995C2057.15,-356.329 2066.02,-357.683 2074.49,-358.978"/>
<polygon fill="midnightblue" stroke="midnightblue" points="2048.68,-351.493 2038.26,-353.443 2047.62,-358.413 2048.68,-351.493"/>
</g>
<!-- Node13&#45;&gt;Node8 -->
<g id="edge14" class="edge"><title>Node13&#45;&gt;Node8</title>
<path fill="none" stroke="midnightblue" d="M1418.39,-325.178C1434.11,-327.962 1450.4,-330.849 1465.19,-333.467"/>
<polygon fill="midnightblue" stroke="midnightblue" points="1418.63,-321.665 1408.17,-323.367 1417.41,-328.558 1418.63,-321.665"/>
</g>
<!-- Node15 -->
<g id="node15" class="node"><title>Node15</title>
<g id="a_node15"><a xlink:href="classx265_1_1Entropy.html#abb101b71f310e90eb504a8204babc180" target="_top" xlink:title="x265::Entropy::encodeCTU">
<polygon fill="white" stroke="black" points="1452,-382.5 1452,-401.5 1588,-401.5 1588,-382.5 1452,-382.5"/>
<text text-anchor="middle" x="1520" y="-389.5" font-family="Helvetica,sans-Serif" font-size="10.00">x265::Entropy::encodeCTU</text>
</a>
</g>
</g>
<!-- Node14&#45;&gt;Node15 -->
<g id="edge16" class="edge"><title>Node14&#45;&gt;Node15</title>
<path fill="none" stroke="midnightblue" d="M688.28,-626C763.178,-626 882.114,-626 985,-626 985,-626 985,-626 1170,-626 1333.77,-626 1478.7,-446.043 1511.89,-401.757"/>
<polygon fill="midnightblue" stroke="midnightblue" points="688.01,-622.5 678.01,-626 688.01,-629.5 688.01,-622.5"/>
</g>
<!-- Node15&#45;&gt;Node9 -->
<g id="edge19" class="edge"><title>Node15&#45;&gt;Node9</title>
<path fill="none" stroke="midnightblue" d="M1563.45,-379.546C1585.75,-373.001 1613.26,-364.929 1636.75,-358.037"/>
<polygon fill="midnightblue" stroke="midnightblue" points="1562.21,-376.262 1553.6,-382.436 1564.18,-382.979 1562.21,-376.262"/>
</g>
<!-- Node16 -->
<g id="node16" class="node"><title>Node16</title>
<g id="a_node16"><a xlink:href="classx265_1_1FrameEncoder.html#a6d4045d35bfe6b10c8d0dc39353be360" target="_top" xlink:title="x265::FrameEncoder\l::encodeSlice">
<polygon fill="white" stroke="black" points="1782.5,-377 1782.5,-407 1889.5,-407 1889.5,-377 1782.5,-377"/>
<text text-anchor="start" x="1790.5" y="-395" font-family="Helvetica,sans-Serif" font-size="10.00">x265::FrameEncoder</text>
<text text-anchor="middle" x="1836" y="-384" font-family="Helvetica,sans-Serif" font-size="10.00">::encodeSlice</text>
</a>
</g>
</g>
<!-- Node15&#45;&gt;Node16 -->
<g id="edge17" class="edge"><title>Node15&#45;&gt;Node16</title>
<path fill="none" stroke="midnightblue" d="M1598.45,-392C1655.65,-392 1732,-392 1782.29,-392"/>
<polygon fill="midnightblue" stroke="midnightblue" points="1598.36,-388.5 1588.36,-392 1598.36,-395.5 1598.36,-388.5"/>
</g>
<!-- Node16&#45;&gt;Node12 -->
<g id="edge18" class="edge"><title>Node16&#45;&gt;Node12</title>
<path fill="none" stroke="midnightblue" d="M1899.65,-386.599C1951.81,-382.103 2025.23,-375.773 2074.38,-371.536"/>
<polygon fill="midnightblue" stroke="midnightblue" points="1899.18,-383.127 1889.52,-387.473 1899.78,-390.101 1899.18,-383.127"/>
</g>
<!-- Node17&#45;&gt;Node4 -->
<g id="edge21" class="edge"><title>Node17&#45;&gt;Node4</title>
<path fill="none" stroke="midnightblue" d="M638.43,-322.107C674.17,-300.319 740.346,-259.976 776.26,-238.082"/>
<polygon fill="midnightblue" stroke="midnightblue" points="636.338,-319.283 629.622,-327.477 639.982,-325.26 636.338,-319.283"/>
</g>
<!-- Node18 -->
<g id="node18" class="node"><title>Node18</title>
<g id="a_node18"><a xlink:href="classx265_1_1Search.html#a1778d2ab96ac88c7f76d36818d6adbdd" target="_top" xlink:title="x265::Search::estIntraPredQT">
<polygon fill="white" stroke="black" points="728.5,-403.5 728.5,-422.5 875.5,-422.5 875.5,-403.5 728.5,-403.5"/>
<text text-anchor="middle" x="802" y="-410.5" font-family="Helvetica,sans-Serif" font-size="10.00">x265::Search::estIntraPredQT</text>
</a>
</g>
</g>
<!-- Node17&#45;&gt;Node18 -->
<g id="edge22" class="edge"><title>Node17&#45;&gt;Node18</title>
<path fill="none" stroke="midnightblue" d="M642.614,-351.116C665.445,-362.12 698.396,-377.423 728,-389 741.419,-394.248 756.508,-399.339 769.47,-403.472"/>
<polygon fill="midnightblue" stroke="midnightblue" points="644.012,-347.905 633.488,-346.687 640.956,-354.202 644.012,-347.905"/>
</g>
<!-- Node18&#45;&gt;Node19 -->
<g id="edge23" class="edge"><title>Node18&#45;&gt;Node19</title>
<path fill="none" stroke="midnightblue" d="M858.946,-424.681C884.756,-430.07 915.007,-436.386 939.404,-441.48"/>
<polygon fill="midnightblue" stroke="midnightblue" points="859.431,-421.207 848.926,-422.589 858,-428.059 859.431,-421.207"/>
</g>
<!-- Node20 -->
<g id="node20" class="node"><title>Node20</title>
<g id="a_node20"><a xlink:href="classx265_1_1Analysis.html#a10f0a8d9d143faf8dc671c6f0982693d" target="_top" xlink:title="x265::Analysis::tryLossless">
<polygon fill="white" stroke="black" points="1100.5,-365.5 1100.5,-384.5 1237.5,-384.5 1237.5,-365.5 1100.5,-365.5"/>
<text text-anchor="middle" x="1169" y="-372.5" font-family="Helvetica,sans-Serif" font-size="10.00">x265::Analysis::tryLossless</text>
</a>
</g>
</g>
<!-- Node19&#45;&gt;Node20 -->
<g id="edge24" class="edge"><title>Node19&#45;&gt;Node20</title>
<path fill="none" stroke="midnightblue" d="M1011.55,-436.125C1033.17,-423.529 1065.82,-405.702 1096,-394 1105.28,-390.401 1115.49,-387.248 1125.24,-384.599"/>
<polygon fill="midnightblue" stroke="midnightblue" points="1009.55,-433.239 1002.72,-441.337 1013.11,-439.267 1009.55,-433.239"/>
</g>
<!-- Node21 -->
<g id="node21" class="node"><title>Node21</title>
<g id="a_node21"><a xlink:href="classx265_1_1Analysis.html#aae2a6a2252270782b591d2bed7e99dae" target="_top" xlink:title="x265::Analysis::compress\lIntraCU">
<polygon fill="white" stroke="black" points="1278,-360 1278,-390 1408,-390 1408,-360 1278,-360"/>
<text text-anchor="start" x="1286" y="-378" font-family="Helvetica,sans-Serif" font-size="10.00">x265::Analysis::compress</text>
<text text-anchor="middle" x="1343" y="-367" font-family="Helvetica,sans-Serif" font-size="10.00">IntraCU</text>
</a>
</g>
</g>
<!-- Node19&#45;&gt;Node21 -->
<g id="edge31" class="edge"><title>Node19&#45;&gt;Node21</title>
<path fill="none" stroke="midnightblue" d="M1012.24,-465.406C1060.63,-490.928 1168.21,-537.319 1242,-492 1272.15,-473.484 1254.98,-447.867 1278,-421 1288.51,-408.739 1302.92,-398.007 1315.42,-390.001"/>
<polygon fill="midnightblue" stroke="midnightblue" points="1013.84,-462.292 1003.37,-460.613 1010.51,-468.449 1013.84,-462.292"/>
</g>
<!-- Node19&#45;&gt;Node22 -->
<g id="edge32" class="edge"><title>Node19&#45;&gt;Node22</title>
<path fill="none" stroke="midnightblue" d="M1003.77,-467.476C1023.78,-485.87 1059.18,-514.555 1096,-526 1157.97,-545.259 1180.77,-547.479 1242,-526 1278.71,-513.121 1311.96,-480.466 1329.33,-461.091"/>
<polygon fill="midnightblue" stroke="midnightblue" points="1006.08,-464.85 996.41,-460.532 1001.28,-469.941 1006.08,-464.85"/>
</g>
<!-- Node20&#45;&gt;Node7 -->
<g id="edge27" class="edge"><title>Node20&#45;&gt;Node7</title>
<path fill="none" stroke="midnightblue" d="M1189.85,-359.154C1204.35,-347.545 1224.46,-331.372 1242,-317 1258.11,-303.8 1260.99,-299.021 1278,-287 1289.5,-278.87 1302.81,-270.775 1314.3,-264.158"/>
<polygon fill="midnightblue" stroke="midnightblue" points="1187.65,-356.435 1182.02,-365.414 1192.02,-361.902 1187.65,-356.435"/>
</g>
<!-- Node20&#45;&gt;Node13 -->
<g id="edge28" class="edge"><title>Node20&#45;&gt;Node13</title>
<path fill="none" stroke="midnightblue" d="M1209.69,-362.165C1220.23,-358.65 1231.58,-354.767 1242,-351 1262.86,-343.463 1285.93,-334.506 1304.65,-327.077"/>
<polygon fill="midnightblue" stroke="midnightblue" points="1208.29,-358.944 1199.89,-365.408 1210.48,-365.589 1208.29,-358.944"/>
</g>
<!-- Node20&#45;&gt;Node21 -->
<g id="edge25" class="edge"><title>Node20&#45;&gt;Node21</title>
<path fill="none" stroke="midnightblue" d="M1248.24,-375C1258.16,-375 1268.22,-375 1277.88,-375"/>
<polygon fill="midnightblue" stroke="midnightblue" points="1247.98,-371.5 1237.98,-375 1247.98,-378.5 1247.98,-371.5"/>
</g>
<!-- Node20&#45;&gt;Node22 -->
<g id="edge29" class="edge"><title>Node20&#45;&gt;Node22</title>
<path fill="none" stroke="midnightblue" d="M1222.19,-387.303C1228.93,-389.319 1235.68,-391.558 1242,-394 1268.47,-404.228 1297.03,-419.552 1316.83,-430.918"/>
<polygon fill="midnightblue" stroke="midnightblue" points="1222.95,-383.882 1212.38,-384.511 1221.04,-390.614 1222.95,-383.882"/>
</g>
<!-- Node21&#45;&gt;Node8 -->
<g id="edge26" class="edge"><title>Node21&#45;&gt;Node8</title>
<path fill="none" stroke="midnightblue" d="M1418.25,-361.422C1434.61,-358.431 1451.6,-355.324 1466.87,-352.533"/>
<polygon fill="midnightblue" stroke="midnightblue" points="1417.38,-358.024 1408.17,-363.266 1418.64,-364.91 1417.38,-358.024"/>
</g>
<!-- Node22&#45;&gt;Node8 -->
<g id="edge30" class="edge"><title>Node22&#45;&gt;Node8</title>
<path fill="none" stroke="midnightblue" d="M1372.81,-424.839C1401.66,-403.664 1442.07,-374.066 1444,-373 1458.72,-364.85 1476.12,-357.749 1490.46,-352.504"/>
<polygon fill="midnightblue" stroke="midnightblue" points="1370.64,-422.089 1364.65,-430.828 1374.78,-427.732 1370.64,-422.089"/>
</g>
<!-- Node24 -->
<g id="node24" class="node"><title>Node24</title>
<g id="a_node24"><a xlink:href="classx265_1_1Analysis.html#addd72cb95590e2b2a6965d42d110eab3" target="_top" xlink:title="x265::Analysis::checkMerge2\lNx2N_rd0_4">
<polygon fill="white" stroke="black" points="1096,-278 1096,-308 1242,-308 1242,-278 1096,-278"/>
<text text-anchor="start" x="1104" y="-296" font-family="Helvetica,sans-Serif" font-size="10.00">x265::Analysis::checkMerge2</text>
<text text-anchor="middle" x="1169" y="-285" font-family="Helvetica,sans-Serif" font-size="10.00">Nx2N_rd0_4</text>
</a>
</g>
</g>
<!-- Node23&#45;&gt;Node24 -->
<g id="edge35" class="edge"><title>Node23&#45;&gt;Node24</title>
<path fill="none" stroke="midnightblue" d="M1045.75,-367.231C1050.63,-365.266 1055.43,-363.183 1060,-361 1091.98,-345.71 1126.18,-322.97 1147.32,-308.065"/>
<polygon fill="midnightblue" stroke="midnightblue" points="1044.39,-364.001 1036.32,-370.86 1046.91,-370.534 1044.39,-364.001"/>
</g>
<!-- Node25 -->
<g id="node25" class="node"><title>Node25</title>
<g id="a_node25"><a xlink:href="classx265_1_1Analysis.html#a0194a9da53aa95173fa1132ba3aea1c7" target="_top" xlink:title="x265::Analysis::checkMerge2\lNx2N_rd5_6">
<polygon fill="white" stroke="black" points="1096,-453 1096,-483 1242,-483 1242,-453 1096,-453"/>
<text text-anchor="start" x="1104" y="-471" font-family="Helvetica,sans-Serif" font-size="10.00">x265::Analysis::checkMerge2</text>
<text text-anchor="middle" x="1169" y="-460" font-family="Helvetica,sans-Serif" font-size="10.00">Nx2N_rd5_6</text>
</a>
</g>
</g>
<!-- Node23&#45;&gt;Node25 -->
<g id="edge38" class="edge"><title>Node23&#45;&gt;Node25</title>
<path fill="none" stroke="midnightblue" d="M1022.23,-406.117C1043.27,-417.699 1070.73,-432.076 1096,-443 1104.14,-446.518 1112.95,-449.907 1121.52,-452.993"/>
<polygon fill="midnightblue" stroke="midnightblue" points="1023.78,-402.975 1013.34,-401.179 1020.38,-409.095 1023.78,-402.975"/>
</g>
<!-- Node24&#45;&gt;Node7 -->
<g id="edge36" class="edge"><title>Node24&#45;&gt;Node7</title>
<path fill="none" stroke="midnightblue" d="M1238.78,-275.406C1253.51,-271.637 1268.95,-267.688 1283.26,-264.026"/>
<polygon fill="midnightblue" stroke="midnightblue" points="1237.53,-272.112 1228.71,-277.981 1239.27,-278.893 1237.53,-272.112"/>
</g>
<!-- Node24&#45;&gt;Node13 -->
<g id="edge37" class="edge"><title>Node24&#45;&gt;Node13</title>
<path fill="none" stroke="midnightblue" d="M1252.42,-302.105C1260.96,-303.048 1269.54,-303.996 1277.83,-304.912"/>
<polygon fill="midnightblue" stroke="midnightblue" points="1252.77,-298.622 1242.44,-301.003 1252,-305.58 1252.77,-298.622"/>
</g>
<!-- Node25&#45;&gt;Node22 -->
<g id="edge39" class="edge"><title>Node25&#45;&gt;Node22</title>
<path fill="none" stroke="midnightblue" d="M1252.42,-457.458C1260.96,-456.366 1269.54,-455.268 1277.83,-454.208"/>
<polygon fill="midnightblue" stroke="midnightblue" points="1251.92,-453.993 1242.44,-458.734 1252.81,-460.937 1251.92,-453.993"/>
</g>
<!-- Node26&#45;&gt;Node7 -->
<g id="edge42" class="edge"><title>Node26&#45;&gt;Node7</title>
<path fill="none" stroke="midnightblue" d="M1012.94,-315.405C1033.92,-299.272 1064.99,-278.301 1096,-268 1155.45,-248.251 1227.26,-244.865 1277.91,-245.593"/>
<polygon fill="midnightblue" stroke="midnightblue" points="1010.56,-312.824 1004.86,-321.758 1014.88,-318.325 1010.56,-312.824"/>
</g>
<!-- Node26&#45;&gt;Node13 -->
<g id="edge43" class="edge"><title>Node26&#45;&gt;Node13</title>
<path fill="none" stroke="midnightblue" d="M1069.67,-331.178C1133.11,-326.71 1219.43,-320.632 1277.74,-316.525"/>
<polygon fill="midnightblue" stroke="midnightblue" points="1069.43,-327.687 1059.7,-331.881 1069.92,-334.669 1069.43,-327.687"/>
</g>
<!-- Node26&#45;&gt;Node20 -->
<g id="edge41" class="edge"><title>Node26&#45;&gt;Node20</title>
<path fill="none" stroke="midnightblue" d="M1068.51,-354.113C1087.14,-358.025 1106.29,-362.044 1122.75,-365.499"/>
<polygon fill="midnightblue" stroke="midnightblue" points="1069.04,-350.648 1058.54,-352.019 1067.6,-357.499 1069.04,-350.648"/>
</g>
<!-- Node26&#45;&gt;Node24 -->
<g id="edge44" class="edge"><title>Node26&#45;&gt;Node24</title>
<path fill="none" stroke="midnightblue" d="M1058.93,-319.515C1074.57,-315.713 1090.98,-311.723 1106.19,-308.026"/>
<polygon fill="midnightblue" stroke="midnightblue" points="1057.67,-316.218 1048.78,-321.981 1059.33,-323.019 1057.67,-316.218"/>
</g>
<!-- Node26&#45;&gt;Node25 -->
<g id="edge45" class="edge"><title>Node26&#45;&gt;Node25</title>
<path fill="none" stroke="midnightblue" d="M1055.96,-357.653C1057.36,-358.714 1058.71,-359.828 1060,-361 1089.46,-387.761 1066.76,-415.996 1096,-443 1100.18,-446.86 1104.99,-450.129 1110.09,-452.896"/>
<polygon fill="midnightblue" stroke="midnightblue" points="1057.78,-354.661 1047.49,-352.155 1053.97,-360.534 1057.78,-354.661"/>
</g>
<!-- Node27 -->
<g id="node27" class="node"><title>Node27</title>
<g id="a_node27"><a xlink:href="classx265_1_1Analysis.html#a828daa3e9f1ed40a1af9f99f7ff7bb33" target="_top" xlink:title="x265::Analysis::checkInter\l_rd5_6">
<polygon fill="white" stroke="black" points="1102.5,-404 1102.5,-434 1235.5,-434 1235.5,-404 1102.5,-404"/>
<text text-anchor="start" x="1110.5" y="-422" font-family="Helvetica,sans-Serif" font-size="10.00">x265::Analysis::checkInter</text>
<text text-anchor="middle" x="1169" y="-411" font-family="Helvetica,sans-Serif" font-size="10.00">_rd5_6</text>
</a>
</g>
</g>
<!-- Node26&#45;&gt;Node27 -->
<g id="edge46" class="edge"><title>Node26&#45;&gt;Node27</title>
<path fill="none" stroke="midnightblue" d="M1050.73,-356.102C1053.92,-357.63 1057.03,-359.262 1060,-361 1078.73,-371.969 1077.36,-382.877 1096,-394 1102.25,-397.73 1109.14,-401.011 1116.1,-403.864"/>
<polygon fill="midnightblue" stroke="midnightblue" points="1052.11,-352.888 1041.55,-352.063 1049.29,-359.295 1052.11,-352.888"/>
</g>
<!-- Node27&#45;&gt;Node22 -->
<g id="edge47" class="edge"><title>Node27&#45;&gt;Node22</title>
<path fill="none" stroke="midnightblue" d="M1245.7,-430.883C1256.41,-432.564 1267.34,-434.28 1277.8,-435.923"/>
<polygon fill="midnightblue" stroke="midnightblue" points="1245.94,-427.378 1235.52,-429.285 1244.85,-434.293 1245.94,-427.378"/>
</g>
<!-- Node28&#45;&gt;Node9 -->
<g id="edge54" class="edge"><title>Node28&#45;&gt;Node9</title>
<path fill="none" stroke="midnightblue" d="M492.959,-15.8487C567.678,-16.7358 693.093,-18 801,-18 801,-18 801,-18 1344,-18 1526.81,-18 1651.7,-263.507 1681.26,-327.76"/>
<polygon fill="midnightblue" stroke="midnightblue" points="492.8,-12.3467 482.759,-15.7262 492.716,-19.3462 492.8,-12.3467"/>
</g>
</g>
</svg>
        <g id="navigator" transform="translate(0 0)" fill="#404254">
                <rect fill="#f2f5e9" fill-opacity="0.5" stroke="#606060" stroke-width=".5" x="0" y="0" width="60" height="60"/>
                <use id="zoomplus" xlink:href="#zoomPlus" x="17" y="9" onmousedown="handleZoom(evt,'in')"/>
                <use id="zoomminus" xlink:href="#zoomMin" x="42" y="9" onmousedown="handleZoom(evt,'out')"/>
                <use id="reset" xlink:href="#resetDef" x="30" y="36" onmousedown="handleReset()"/>
                <g id="arrowUp" xlink:href="#dirArrow" transform="translate(30 24)" onmousedown="handlePan(0,-1)">
                  <use xlink:href="#rim" fill="#404040">
                        <set attributeName="fill" to="#808080" begin="arrowUp.mouseover" end="arrowUp.mouseout"/>
                  </use>
                  <path fill="none" stroke="white" stroke-width="1.5" d="M0,-3.0v7 M-2.5,-0.5L0,-3.0L2.5,-0.5"/>
                </g>
                <g id="arrowRight" xlink:href="#dirArrow" transform="rotate(90) translate(36 -43)" onmousedown="handlePan(1,0)">
                  <use xlink:href="#rim" fill="#404040">
                        <set attributeName="fill" to="#808080" begin="arrowRight.mouseover" end="arrowRight.mouseout"/>
                  </use>
                  <path fill="none" stroke="white" stroke-width="1.5" d="M0,-3.0v7 M-2.5,-0.5L0,-3.0L2.5,-0.5"/>
                </g>
                <g id="arrowDown" xlink:href="#dirArrow" transform="rotate(180) translate(-30 -48)" onmousedown="handlePan(0,1)">
                  <use xlink:href="#rim" fill="#404040">
                        <set attributeName="fill" to="#808080" begin="arrowDown.mouseover" end="arrowDown.mouseout"/>
                  </use>
                  <path fill="none" stroke="white" stroke-width="1.5" d="M0,-3.0v7 M-2.5,-0.5L0,-3.0L2.5,-0.5"/>
                </g>
                <g id="arrowLeft" xlink:href="#dirArrow" transform="rotate(270) translate(-36 17)" onmousedown="handlePan(-1,0)">
                  <use xlink:href="#rim" fill="#404040">
                        <set attributeName="fill" to="#808080" begin="arrowLeft.mouseover" end="arrowLeft.mouseout"/>
                  </use>
                  <path fill="none" stroke="white" stroke-width="1.5" d="M0,-3.0v7 M-2.5,-0.5L0,-3.0L2.5,-0.5"/>
                </g>
        </g>
        <svg viewBox="0 0 15 15" width="100%" height="30px" preserveAspectRatio="xMaxYMin meet">
         <g id="arrow_out" transform="scale(0.3 0.3)">
          <a xlink:href="classx265_1_1CUData_a1a5e3f932b4a967ba6940acdea7604a4_icgraph_org.svg" target="_base">
           <rect id="button" ry="5" rx="5" y="6" x="6" height="38" width="38"
                fill="#f2f5e9" fill-opacity="0.5" stroke="#606060" stroke-width="1.0"/>
           <path id="arrow"
             d="M 11.500037,31.436501 C 11.940474,20.09759 22.043105,11.32322 32.158766,21.979434 L 37.068811,17.246167 C 37.068811,17.246167 37.088388,32 37.088388,32 L 22.160133,31.978069 C 22.160133,31.978069 26.997745,27.140456 26.997745,27.140456 C 18.528582,18.264221 13.291696,25.230495 11.500037,31.436501 z"
             style="fill:#404040;"/>
          </a>
         </g>
        </svg>
</svg>
