<?xml version="1.0" encoding="UTF-8" standalone="no"?>
<!DOCTYPE svg PUBLIC "-//W3C//DTD SVG 1.1//EN"
 "http://www.w3.org/Graphics/SVG/1.1/DTD/svg11.dtd">
<!-- Generated by graphviz version 2.36.0 (20140111.2315)
 -->
<!-- Title: x265::Quant::invtransformNxN Pages: 1 -->
<!--zoomable 496 -->
<svg id="main" version="1.1" xmlns="http://www.w3.org/2000/svg" xmlns:xlink="http://www.w3.org/1999/xlink" xml:space="preserve" onload="init(evt)">
<style type="text/css"><![CDATA[
.edge:hover path { stroke: red; }
.edge:hover polygon { stroke: red; fill: red; }
]]></style>
<script type="text/javascript"><![CDATA[
var edges = document.getElementsByTagName('g');
if (edges && edges.length) {
  for (var i=0;i<edges.length;i++) {
    if (edges[i].id.substr(0,4)=='edge') {
      edges[i].setAttribute('class','edge');
    }
  }
}
]]></script>
        <defs>
                <circle id="rim" cx="0" cy="0" r="7"/>
                <circle id="rim2" cx="0" cy="0" r="3.5"/>
                <g id="zoomPlus">
                        <use xlink:href="#rim" fill="#404040">
                                <set attributeName="fill" to="#808080" begin="zoomplus.mouseover" end="zoomplus.mouseout"/>
                        </use>
                        <path d="M-4,0h8M0,-4v8" fill="none" stroke="white" stroke-width="1.5" pointer-events="none"/>
                </g>
                <g id="zoomMin">
                        <use xlink:href="#rim" fill="#404040">
                                <set attributeName="fill" to="#808080" begin="zoomminus.mouseover" end="zoomminus.mouseout"/>
                        </use>
                        <path d="M-4,0h8" fill="none" stroke="white" stroke-width="1.5" pointer-events="none"/>
                </g>
                <g id="dirArrow">
                        <path fill="none" stroke="white" stroke-width="1.5" d="M0,-3.0v7 M-2.5,-0.5L0,-3.0L2.5,-0.5"/>
                </g>
               <g id="resetDef">
                       <use xlink:href="#rim2" fill="#404040">
                               <set attributeName="fill" to="#808080" begin="reset.mouseover" end="reset.mouseout"/>
                       </use>
               </g>
        </defs>

<script type="text/javascript">
var viewWidth = 1486;
var viewHeight = 496;
var sectionId = 'dynsection-7';
</script>
<script xlink:href="svgpan.js"/>
<svg id="graph" class="graph">
<g id="viewport">
<title>x265::Quant::invtransformNxN</title>
<polygon fill="white" stroke="none" points="-4,4 -4,-492.447 1482,-492.447 1482,4 -4,4"/>
<!-- Node1 -->
<g id="node1" class="node"><title>Node1</title>
<polygon fill="#bfbfbf" stroke="black" points="0,-136.5 0,-155.5 150,-155.5 150,-136.5 0,-136.5"/>
<text text-anchor="middle" x="75" y="-143.5" font-family="Helvetica,sans-Serif" font-size="10.00">x265::Quant::invtransformNxN</text>
</g>
<!-- Node2 -->
<g id="node2" class="node"><title>Node2</title>
<g id="a_node2"><a xlink:href="classx265_1_1Search.html#a9d5a7faa13067f95fe76558afc63c31b" target="_top" xlink:title="x265::Search::calcIntraChroma\lRecon">
<polygon fill="white" stroke="black" points="189,-156 189,-186 341,-186 341,-156 189,-156"/>
<text text-anchor="start" x="197" y="-174" font-family="Helvetica,sans-Serif" font-size="10.00">x265::Search::calcIntraChroma</text>
<text text-anchor="middle" x="265" y="-163" font-family="Helvetica,sans-Serif" font-size="10.00">Recon</text>
</a>
</g>
</g>
<!-- Node1&#45;&gt;Node2 -->
<g id="edge1" class="edge"><title>Node1&#45;&gt;Node2</title>
<path fill="none" stroke="midnightblue" d="M157.832,-156.882C168.138,-158.252 178.642,-159.649 188.838,-161.005"/>
<polygon fill="midnightblue" stroke="midnightblue" points="157.985,-153.372 147.611,-155.523 157.062,-160.31 157.985,-153.372"/>
</g>
<!-- Node14 -->
<g id="node14" class="node"><title>Node14</title>
<g id="a_node14"><a xlink:href="classx265_1_1Search.html#a59b84ac1e21c86af579b6e84e43c5b7a" target="_top" xlink:title="x265::Search::codeIntraLumaQT">
<polygon fill="white" stroke="black" points="384,-205.5 384,-224.5 542,-224.5 542,-205.5 384,-205.5"/>
<text text-anchor="middle" x="463" y="-212.5" font-family="Helvetica,sans-Serif" font-size="10.00">x265::Search::codeIntraLumaQT</text>
</a>
</g>
</g>
<!-- Node1&#45;&gt;Node14 -->
<g id="edge20" class="edge"><title>Node1&#45;&gt;Node14</title>
<path fill="none" stroke="midnightblue" d="M101.39,-160.362C123.12,-171.896 155.617,-187.381 186,-195 251.356,-211.389 327.94,-215.824 383.834,-216.483"/>
<polygon fill="midnightblue" stroke="midnightblue" points="102.951,-157.228 92.4919,-155.54 99.6158,-163.382 102.951,-157.228"/>
</g>
<!-- Node16 -->
<g id="node16" class="node"><title>Node16</title>
<g id="a_node16"><a xlink:href="classx265_1_1Search.html#a8179474a0f2f2b7b84da90802f92b06e" target="_top" xlink:title="x265::Search::residualTransform\lQuantIntra">
<polygon fill="white" stroke="black" points="186,-58 186,-88 344,-88 344,-58 186,-58"/>
<text text-anchor="start" x="194" y="-76" font-family="Helvetica,sans-Serif" font-size="10.00">x265::Search::residualTransform</text>
<text text-anchor="middle" x="265" y="-65" font-family="Helvetica,sans-Serif" font-size="10.00">QuantIntra</text>
</a>
</g>
</g>
<!-- Node1&#45;&gt;Node16 -->
<g id="edge24" class="edge"><title>Node1&#45;&gt;Node16</title>
<path fill="none" stroke="midnightblue" d="M104.679,-132.081C126.648,-121.7 157.865,-107.551 186,-97 194.358,-93.8658 203.326,-90.8207 212.097,-88.0107"/>
<polygon fill="midnightblue" stroke="midnightblue" points="103.096,-128.959 95.5729,-136.419 106.106,-135.278 103.096,-128.959"/>
</g>
<!-- Node19 -->
<g id="node19" class="node"><title>Node19</title>
<g id="a_node19"><a xlink:href="classx265_1_1Search.html#a42170100e328cf2504b615ecb2579094" target="_top" xlink:title="x265::Search::residualQTIntra\lChroma">
<polygon fill="white" stroke="black" points="191.5,-107 191.5,-137 338.5,-137 338.5,-107 191.5,-107"/>
<text text-anchor="start" x="199.5" y="-125" font-family="Helvetica,sans-Serif" font-size="10.00">x265::Search::residualQTIntra</text>
<text text-anchor="middle" x="265" y="-114" font-family="Helvetica,sans-Serif" font-size="10.00">Chroma</text>
</a>
</g>
</g>
<!-- Node1&#45;&gt;Node19 -->
<g id="edge29" class="edge"><title>Node1&#45;&gt;Node19</title>
<path fill="none" stroke="midnightblue" d="M159.973,-135.28C170.411,-133.948 181.017,-132.594 191.266,-131.285"/>
<polygon fill="midnightblue" stroke="midnightblue" points="159.509,-131.811 150.033,-136.549 160.395,-138.754 159.509,-131.811"/>
</g>
<!-- Node20 -->
<g id="node20" class="node"><title>Node20</title>
<g id="a_node20"><a xlink:href="classx265_1_1Search.html#a11ea3fb9c65e98f50e348de22593748c" target="_top" xlink:title="x265::Search::residualTransform\lQuantInter">
<polygon fill="white" stroke="black" points="186,-9 186,-39 344,-39 344,-9 186,-9"/>
<text text-anchor="start" x="194" y="-27" font-family="Helvetica,sans-Serif" font-size="10.00">x265::Search::residualTransform</text>
<text text-anchor="middle" x="265" y="-16" font-family="Helvetica,sans-Serif" font-size="10.00">QuantInter</text>
</a>
</g>
</g>
<!-- Node1&#45;&gt;Node20 -->
<g id="edge32" class="edge"><title>Node1&#45;&gt;Node20</title>
<path fill="none" stroke="midnightblue" d="M90.7628,-128.925C110.43,-107.182 147.273,-69.8218 186,-48 192.048,-44.5919 198.639,-41.6092 205.343,-39.0139"/>
<polygon fill="midnightblue" stroke="midnightblue" points="88.1219,-126.628 84.0977,-136.429 93.3554,-131.277 88.1219,-126.628"/>
</g>
<!-- Node21 -->
<g id="node21" class="node"><title>Node21</title>
<g id="a_node21"><a xlink:href="classx265_1_1Search.html#a9f01b6f04dca31dca9f16e60d1c029b3" target="_top" xlink:title="x265::Search::xEstimateResidualQT">
<polygon fill="white" stroke="black" points="582,-280.5 582,-299.5 758,-299.5 758,-280.5 582,-280.5"/>
<text text-anchor="middle" x="670" y="-287.5" font-family="Helvetica,sans-Serif" font-size="10.00">x265::Search::xEstimateResidualQT</text>
</a>
</g>
</g>
<!-- Node1&#45;&gt;Node21 -->
<g id="edge35" class="edge"><title>Node1&#45;&gt;Node21</title>
<path fill="none" stroke="midnightblue" d="M94.2963,-162.15C115.012,-179.468 150.516,-206.316 186,-220 317.825,-270.836 482.844,-285.145 581.883,-288.944"/>
<polygon fill="midnightblue" stroke="midnightblue" points="96.4933,-159.424 86.6148,-155.594 91.949,-164.748 96.4933,-159.424"/>
</g>
<!-- Node3 -->
<g id="node3" class="node"><title>Node3</title>
<g id="a_node3"><a xlink:href="classx265_1_1Search.html#a0ec5d297bb4eba4e9445ff67b35b95fa" target="_top" xlink:title="x265::Search::codeIntraChromaQt">
<polygon fill="white" stroke="black" points="380,-164.5 380,-183.5 546,-183.5 546,-164.5 380,-164.5"/>
<text text-anchor="middle" x="463" y="-171.5" font-family="Helvetica,sans-Serif" font-size="10.00">x265::Search::codeIntraChromaQt</text>
</a>
</g>
</g>
<!-- Node2&#45;&gt;Node3 -->
<g id="edge2" class="edge"><title>Node2&#45;&gt;Node3</title>
<path fill="none" stroke="midnightblue" d="M351.38,-172.307C360.817,-172.451 370.413,-172.598 379.81,-172.742"/>
<polygon fill="midnightblue" stroke="midnightblue" points="351.271,-168.805 341.218,-172.151 351.163,-175.804 351.271,-168.805"/>
</g>
<!-- Node4 -->
<g id="node4" class="node"><title>Node4</title>
<g id="a_node4"><a xlink:href="classx265_1_1Search.html#a70d466b561a7463b8ec5a213384ae667" target="_top" xlink:title="x265::Search::estIntraPred\lChromaQT">
<polygon fill="white" stroke="black" points="603,-231 603,-261 737,-261 737,-231 603,-231"/>
<text text-anchor="start" x="611" y="-249" font-family="Helvetica,sans-Serif" font-size="10.00">x265::Search::estIntraPred</text>
<text text-anchor="middle" x="670" y="-238" font-family="Helvetica,sans-Serif" font-size="10.00">ChromaQT</text>
</a>
</g>
</g>
<!-- Node3&#45;&gt;Node4 -->
<g id="edge3" class="edge"><title>Node3&#45;&gt;Node4</title>
<path fill="none" stroke="midnightblue" d="M513.281,-186.158C524.134,-189.131 535.517,-192.478 546,-196 576.701,-206.314 610.752,-220.367 635.228,-230.949"/>
<polygon fill="midnightblue" stroke="midnightblue" points="514.068,-182.746 503.503,-183.539 512.257,-189.507 514.068,-182.746"/>
</g>
<!-- Node5 -->
<g id="node5" class="node"><title>Node5</title>
<g id="a_node5"><a xlink:href="classx265_1_1Analysis.html#ae4d61bcf4d2c22a054d68d6d77136428" target="_top" xlink:title="x265::Analysis::encodeIntra\lInInter">
<polygon fill="white" stroke="black" points="799,-187 799,-217 937,-217 937,-187 799,-187"/>
<text text-anchor="start" x="807" y="-205" font-family="Helvetica,sans-Serif" font-size="10.00">x265::Analysis::encodeIntra</text>
<text text-anchor="middle" x="868" y="-194" font-family="Helvetica,sans-Serif" font-size="10.00">InInter</text>
</a>
</g>
</g>
<!-- Node4&#45;&gt;Node5 -->
<g id="edge4" class="edge"><title>Node4&#45;&gt;Node5</title>
<path fill="none" stroke="midnightblue" d="M747.185,-228.897C764.562,-224.996 782.902,-220.879 799.868,-217.07"/>
<polygon fill="midnightblue" stroke="midnightblue" points="746.074,-225.559 737.083,-231.165 747.607,-232.389 746.074,-225.559"/>
</g>
<!-- Node10 -->
<g id="node10" class="node"><title>Node10</title>
<g id="a_node10"><a xlink:href="classx265_1_1Search.html#ab02df91827cf67796d1605bde60c6aed" target="_top" xlink:title="x265::Search::checkIntra">
<polygon fill="white" stroke="black" points="805,-324.5 805,-343.5 931,-343.5 931,-324.5 805,-324.5"/>
<text text-anchor="middle" x="868" y="-331.5" font-family="Helvetica,sans-Serif" font-size="10.00">x265::Search::checkIntra</text>
</a>
</g>
</g>
<!-- Node4&#45;&gt;Node10 -->
<g id="edge10" class="edge"><title>Node4&#45;&gt;Node10</title>
<path fill="none" stroke="midnightblue" d="M746.763,-264.67C750.669,-266.582 754.443,-268.686 758,-271 778.892,-284.592 773.024,-300.537 794,-314 800.746,-318.33 808.422,-321.731 816.201,-324.402"/>
<polygon fill="midnightblue" stroke="midnightblue" points="748.01,-261.394 737.449,-260.546 745.176,-267.795 748.01,-261.394"/>
</g>
<!-- Node6 -->
<g id="node6" class="node"><title>Node6</title>
<g id="a_node6"><a xlink:href="classx265_1_1Analysis.html#aa6122285d10bb1bd7584958b88b029d5" target="_top" xlink:title="x265::Analysis::parallel\lModeAnalysis">
<polygon fill="white" stroke="red" points="992,-231 992,-261 1110,-261 1110,-231 992,-231"/>
<text text-anchor="start" x="1000" y="-249" font-family="Helvetica,sans-Serif" font-size="10.00">x265::Analysis::parallel</text>
<text text-anchor="middle" x="1051" y="-238" font-family="Helvetica,sans-Serif" font-size="10.00">ModeAnalysis</text>
</a>
</g>
</g>
<!-- Node5&#45;&gt;Node6 -->
<g id="edge5" class="edge"><title>Node5&#45;&gt;Node6</title>
<path fill="none" stroke="midnightblue" d="M940.657,-219.419C957.641,-223.548 975.552,-227.902 991.85,-231.864"/>
<polygon fill="midnightblue" stroke="midnightblue" points="941.327,-215.981 930.784,-217.019 939.674,-222.782 941.327,-215.981"/>
</g>
<!-- Node7 -->
<g id="node7" class="node"><title>Node7</title>
<g id="a_node7"><a xlink:href="classx265_1_1Analysis.html#a87060ff27a37f56adc5f5b8a4c033ece" target="_top" xlink:title="x265::Analysis::compress\lInterCU_dist">
<polygon fill="white" stroke="black" points="1160,-189 1160,-219 1290,-219 1290,-189 1160,-189"/>
<text text-anchor="start" x="1168" y="-207" font-family="Helvetica,sans-Serif" font-size="10.00">x265::Analysis::compress</text>
<text text-anchor="middle" x="1225" y="-196" font-family="Helvetica,sans-Serif" font-size="10.00">InterCU_dist</text>
</a>
</g>
</g>
<!-- Node5&#45;&gt;Node7 -->
<g id="edge6" class="edge"><title>Node5&#45;&gt;Node7</title>
<path fill="none" stroke="midnightblue" d="M947.046,-202.44C1010.88,-202.799 1100.04,-203.302 1159.79,-203.638"/>
<polygon fill="midnightblue" stroke="midnightblue" points="947.047,-198.94 937.028,-202.383 947.008,-205.94 947.047,-198.94"/>
</g>
<!-- Node9 -->
<g id="node9" class="node"><title>Node9</title>
<g id="a_node9"><a xlink:href="classx265_1_1Analysis.html#a30d2ff7eca5addbb0a6b3dfe14f09650" target="_top" xlink:title="x265::Analysis::compress\lInterCU_rd0_4">
<polygon fill="white" stroke="black" points="1160,-120 1160,-150 1290,-150 1290,-120 1160,-120"/>
<text text-anchor="start" x="1168" y="-138" font-family="Helvetica,sans-Serif" font-size="10.00">x265::Analysis::compress</text>
<text text-anchor="middle" x="1225" y="-127" font-family="Helvetica,sans-Serif" font-size="10.00">InterCU_rd0_4</text>
</a>
</g>
</g>
<!-- Node5&#45;&gt;Node9 -->
<g id="edge8" class="edge"><title>Node5&#45;&gt;Node9</title>
<path fill="none" stroke="midnightblue" d="M885.282,-178.672C904.243,-153.764 938.109,-115.754 978,-100 1050.02,-71.5577 1141.99,-100.209 1190.52,-119.872"/>
<polygon fill="midnightblue" stroke="midnightblue" points="882.345,-176.758 879.211,-186.879 887.972,-180.921 882.345,-176.758"/>
</g>
<!-- Node8 -->
<g id="node8" class="node"><title>Node8</title>
<g id="a_node8"><a xlink:href="classx265_1_1Analysis.html#aaebc9de2ff98834c650244f3b58942c2" target="_top" xlink:title="x265::Analysis::compressCTU">
<polygon fill="white" stroke="red" points="1326.5,-194.5 1326.5,-213.5 1477.5,-213.5 1477.5,-194.5 1326.5,-194.5"/>
<text text-anchor="middle" x="1402" y="-201.5" font-family="Helvetica,sans-Serif" font-size="10.00">x265::Analysis::compressCTU</text>
</a>
</g>
</g>
<!-- Node7&#45;&gt;Node8 -->
<g id="edge7" class="edge"><title>Node7&#45;&gt;Node8</title>
<path fill="none" stroke="midnightblue" d="M1300.25,-204C1308.93,-204 1317.78,-204 1326.47,-204"/>
<polygon fill="midnightblue" stroke="midnightblue" points="1300.17,-200.5 1290.17,-204 1300.17,-207.5 1300.17,-200.5"/>
</g>
<!-- Node9&#45;&gt;Node8 -->
<g id="edge9" class="edge"><title>Node9&#45;&gt;Node8</title>
<path fill="none" stroke="midnightblue" d="M1273.96,-153.909C1307.26,-167.039 1350.24,-183.984 1376.69,-194.416"/>
<polygon fill="midnightblue" stroke="midnightblue" points="1274.99,-150.554 1264.4,-150.142 1272.42,-157.066 1274.99,-150.554"/>
</g>
<!-- Node11 -->
<g id="node11" class="node"><title>Node11</title>
<g id="a_node11"><a xlink:href="classx265_1_1Analysis.html#a10f0a8d9d143faf8dc671c6f0982693d" target="_top" xlink:title="x265::Analysis::tryLossless">
<polygon fill="white" stroke="black" points="982.5,-318.5 982.5,-337.5 1119.5,-337.5 1119.5,-318.5 982.5,-318.5"/>
<text text-anchor="middle" x="1051" y="-325.5" font-family="Helvetica,sans-Serif" font-size="10.00">x265::Analysis::tryLossless</text>
</a>
</g>
</g>
<!-- Node10&#45;&gt;Node11 -->
<g id="edge11" class="edge"><title>Node10&#45;&gt;Node11</title>
<path fill="none" stroke="midnightblue" d="M941.293,-331.604C954.879,-331.153 969.037,-330.684 982.471,-330.239"/>
<polygon fill="midnightblue" stroke="midnightblue" points="940.915,-328.114 931.037,-331.944 941.147,-335.11 940.915,-328.114"/>
</g>
<!-- Node12 -->
<g id="node12" class="node"><title>Node12</title>
<g id="a_node12"><a xlink:href="classx265_1_1Analysis.html#aae2a6a2252270782b591d2bed7e99dae" target="_top" xlink:title="x265::Analysis::compress\lIntraCU">
<polygon fill="white" stroke="black" points="1160,-384 1160,-414 1290,-414 1290,-384 1160,-384"/>
<text text-anchor="start" x="1168" y="-402" font-family="Helvetica,sans-Serif" font-size="10.00">x265::Analysis::compress</text>
<text text-anchor="middle" x="1225" y="-391" font-family="Helvetica,sans-Serif" font-size="10.00">IntraCU</text>
</a>
</g>
</g>
<!-- Node10&#45;&gt;Node12 -->
<g id="edge18" class="edge"><title>Node10&#45;&gt;Node12</title>
<path fill="none" stroke="midnightblue" d="M877.4,-353.04C892.388,-384.314 927.024,-445.528 978,-470 1036.5,-498.083 1062.18,-489.715 1124,-470 1158.28,-459.067 1190.88,-431.627 1209.08,-414.239"/>
<polygon fill="midnightblue" stroke="midnightblue" points="880.446,-351.288 873.075,-343.678 874.092,-354.224 880.446,-351.288"/>
</g>
<!-- Node13 -->
<g id="node13" class="node"><title>Node13</title>
<g id="a_node13"><a xlink:href="classx265_1_1Analysis.html#a0b22b7765aa4a36b1ba6d07ba26901e6" target="_top" xlink:title="x265::Analysis::compress\lInterCU_rd5_6">
<polygon fill="white" stroke="black" points="1160,-335 1160,-365 1290,-365 1290,-335 1160,-335"/>
<text text-anchor="start" x="1168" y="-353" font-family="Helvetica,sans-Serif" font-size="10.00">x265::Analysis::compress</text>
<text text-anchor="middle" x="1225" y="-342" font-family="Helvetica,sans-Serif" font-size="10.00">InterCU_rd5_6</text>
</a>
</g>
</g>
<!-- Node10&#45;&gt;Node13 -->
<g id="edge19" class="edge"><title>Node10&#45;&gt;Node13</title>
<path fill="none" stroke="midnightblue" d="M880.035,-352.218C897.179,-378.537 932.972,-426.108 978,-445 1037.84,-470.104 1068.61,-478.8 1124,-445 1153.86,-426.777 1134.03,-398.436 1160,-375 1164.25,-371.164 1169.16,-367.888 1174.33,-365.096"/>
<polygon fill="midnightblue" stroke="midnightblue" points="882.878,-350.164 874.58,-343.576 876.958,-353.9 882.878,-350.164"/>
</g>
<!-- Node11&#45;&gt;Node7 -->
<g id="edge14" class="edge"><title>Node11&#45;&gt;Node7</title>
<path fill="none" stroke="midnightblue" d="M1101.19,-315.023C1109.1,-311.983 1116.99,-308.334 1124,-304 1161.59,-280.766 1195.76,-240.766 1212.73,-219.064"/>
<polygon fill="midnightblue" stroke="midnightblue" points="1099.84,-311.79 1091.58,-318.434 1102.18,-318.386 1099.84,-311.79"/>
</g>
<!-- Node11&#45;&gt;Node9 -->
<g id="edge15" class="edge"><title>Node11&#45;&gt;Node9</title>
<path fill="none" stroke="midnightblue" d="M1076.87,-312.78C1092.19,-302.343 1111.27,-287.288 1124,-270 1149.79,-234.976 1132.9,-213.021 1160,-179 1169.32,-167.293 1182.6,-157.466 1194.64,-150.09"/>
<polygon fill="midnightblue" stroke="midnightblue" points="1074.79,-309.956 1068.36,-318.373 1078.64,-315.806 1074.79,-309.956"/>
</g>
<!-- Node11&#45;&gt;Node12 -->
<g id="edge12" class="edge"><title>Node11&#45;&gt;Node12</title>
<path fill="none" stroke="midnightblue" d="M1105.78,-340.65C1112.04,-342.79 1118.25,-345.233 1124,-348 1141.79,-356.553 1142.67,-364.556 1160,-374 1166.6,-377.596 1173.83,-380.936 1180.97,-383.929"/>
<polygon fill="midnightblue" stroke="midnightblue" points="1106.52,-337.215 1095.93,-337.532 1104.41,-343.888 1106.52,-337.215"/>
</g>
<!-- Node11&#45;&gt;Node13 -->
<g id="edge16" class="edge"><title>Node11&#45;&gt;Node13</title>
<path fill="none" stroke="midnightblue" d="M1129.93,-337.968C1139.95,-339.249 1150.11,-340.549 1159.88,-341.798"/>
<polygon fill="midnightblue" stroke="midnightblue" points="1130.34,-334.492 1119.98,-336.695 1129.45,-341.436 1130.34,-334.492"/>
</g>
<!-- Node12&#45;&gt;Node8 -->
<g id="edge13" class="edge"><title>Node12&#45;&gt;Node8</title>
<path fill="none" stroke="midnightblue" d="M1283.46,-378.733C1285.74,-377.254 1287.93,-375.679 1290,-374 1347.72,-327.097 1385.7,-242.023 1397.27,-213.564"/>
<polygon fill="midnightblue" stroke="midnightblue" points="1281.26,-375.962 1274.31,-383.962 1284.73,-382.04 1281.26,-375.962"/>
</g>
<!-- Node13&#45;&gt;Node8 -->
<g id="edge17" class="edge"><title>Node13&#45;&gt;Node8</title>
<path fill="none" stroke="midnightblue" d="M1251.79,-328.486C1290.41,-296.262 1361.72,-236.774 1389.5,-213.597"/>
<polygon fill="midnightblue" stroke="midnightblue" points="1249.51,-325.832 1244.07,-334.925 1253.99,-331.207 1249.51,-325.832"/>
</g>
<!-- Node14&#45;&gt;Node5 -->
<g id="edge21" class="edge"><title>Node14&#45;&gt;Node5</title>
<path fill="none" stroke="midnightblue" d="M552.435,-212.147C626.583,-209.755 730.931,-206.389 798.76,-204.201"/>
<polygon fill="midnightblue" stroke="midnightblue" points="552.062,-208.657 542.18,-212.478 552.288,-215.654 552.062,-208.657"/>
</g>
<!-- Node15 -->
<g id="node15" class="node"><title>Node15</title>
<g id="a_node15"><a xlink:href="classx265_1_1Search.html#a1778d2ab96ac88c7f76d36818d6adbdd" target="_top" xlink:title="x265::Search::estIntraPredQT">
<polygon fill="white" stroke="black" points="596.5,-321.5 596.5,-340.5 743.5,-340.5 743.5,-321.5 596.5,-321.5"/>
<text text-anchor="middle" x="670" y="-328.5" font-family="Helvetica,sans-Serif" font-size="10.00">x265::Search::estIntraPredQT</text>
</a>
</g>
</g>
<!-- Node14&#45;&gt;Node15 -->
<g id="edge22" class="edge"><title>Node14&#45;&gt;Node15</title>
<path fill="none" stroke="midnightblue" d="M480.399,-231.923C501.828,-253.061 541.423,-288.887 582,-309 592.609,-314.258 604.586,-318.334 616.185,-321.465"/>
<polygon fill="midnightblue" stroke="midnightblue" points="482.648,-229.221 473.112,-224.604 477.688,-234.16 482.648,-229.221"/>
</g>
<!-- Node15&#45;&gt;Node10 -->
<g id="edge23" class="edge"><title>Node15&#45;&gt;Node10</title>
<path fill="none" stroke="midnightblue" d="M754.156,-332.273C771.098,-332.532 788.646,-332.801 804.711,-333.047"/>
<polygon fill="midnightblue" stroke="midnightblue" points="753.757,-328.766 743.705,-332.113 753.65,-335.766 753.757,-328.766"/>
</g>
<!-- Node17 -->
<g id="node17" class="node"><title>Node17</title>
<g id="a_node17"><a xlink:href="classx265_1_1Analysis.html#a88ad2880a5a8bcad5cfd5d6ea630b265" target="_top" xlink:title="x265::Analysis::encodeResidue">
<polygon fill="white" stroke="black" points="385.5,-16.5 385.5,-35.5 540.5,-35.5 540.5,-16.5 385.5,-16.5"/>
<text text-anchor="middle" x="463" y="-23.5" font-family="Helvetica,sans-Serif" font-size="10.00">x265::Analysis::encodeResidue</text>
</a>
</g>
</g>
<!-- Node16&#45;&gt;Node17 -->
<g id="edge25" class="edge"><title>Node16&#45;&gt;Node17</title>
<path fill="none" stroke="midnightblue" d="M338.429,-55.6318C366.756,-48.8392 398.147,-41.3117 422.202,-35.5434"/>
<polygon fill="midnightblue" stroke="midnightblue" points="337.463,-52.2642 328.555,-57.9997 339.095,-59.0713 337.463,-52.2642"/>
</g>
<!-- Node18 -->
<g id="node18" class="node"><title>Node18</title>
<g id="a_node18"><a xlink:href="classx265_1_1Search.html#a5284cffef18fe6884b268ea28f21f22f" target="_top" xlink:title="x265::Search::generateCoeff\lRecon">
<polygon fill="white" stroke="black" points="392,-56 392,-86 534,-86 534,-56 392,-56"/>
<text text-anchor="start" x="400" y="-74" font-family="Helvetica,sans-Serif" font-size="10.00">x265::Search::generateCoeff</text>
<text text-anchor="middle" x="463" y="-63" font-family="Helvetica,sans-Serif" font-size="10.00">Recon</text>
</a>
</g>
</g>
<!-- Node16&#45;&gt;Node18 -->
<g id="edge27" class="edge"><title>Node16&#45;&gt;Node18</title>
<path fill="none" stroke="midnightblue" d="M354.106,-72.101C366.753,-71.9719 379.621,-71.8406 391.858,-71.7157"/>
<polygon fill="midnightblue" stroke="midnightblue" points="353.991,-68.6018 344.028,-72.2038 354.063,-75.6015 353.991,-68.6018"/>
</g>
<!-- Node17&#45;&gt;Node8 -->
<g id="edge26" class="edge"><title>Node17&#45;&gt;Node8</title>
<path fill="none" stroke="midnightblue" d="M551.006,-17.1388C632.556,-9.60475 757.911,-0 867,-0 867,-0 867,-0 1052,-0 1208.16,-0 1356.51,-154.103 1392.66,-194.434"/>
<polygon fill="midnightblue" stroke="midnightblue" points="550.419,-13.6784 540.788,-18.0932 551.07,-20.648 550.419,-13.6784"/>
</g>
<!-- Node18&#45;&gt;Node9 -->
<g id="edge28" class="edge"><title>Node18&#45;&gt;Node9</title>
<path fill="none" stroke="midnightblue" d="M544.516,-61.5045C670.342,-49.1475 920.284,-34.6228 1124,-85 1152.26,-91.9895 1181.74,-107.954 1201.3,-119.977"/>
<polygon fill="midnightblue" stroke="midnightblue" points="543.803,-58.0584 534.202,-62.54 544.502,-65.0234 543.803,-58.0584"/>
</g>
<!-- Node19&#45;&gt;Node17 -->
<g id="edge30" class="edge"><title>Node19&#45;&gt;Node17</title>
<path fill="none" stroke="midnightblue" d="M335.672,-102.378C338.571,-100.724 341.363,-98.9352 344,-97 366.367,-80.5837 357.065,-61.6128 380,-46 386.42,-41.6297 393.696,-38.2117 401.199,-35.5391"/>
<polygon fill="midnightblue" stroke="midnightblue" points="334.027,-99.2881 326.704,-106.945 337.204,-105.526 334.027,-99.2881"/>
</g>
<!-- Node19&#45;&gt;Node18 -->
<g id="edge31" class="edge"><title>Node19&#45;&gt;Node18</title>
<path fill="none" stroke="midnightblue" d="M333.462,-104.446C356.529,-98.444 382.104,-91.7892 404.328,-86.0065"/>
<polygon fill="midnightblue" stroke="midnightblue" points="332.543,-101.069 323.746,-106.974 334.306,-107.843 332.543,-101.069"/>
</g>
<!-- Node20&#45;&gt;Node17 -->
<g id="edge33" class="edge"><title>Node20&#45;&gt;Node17</title>
<path fill="none" stroke="midnightblue" d="M354.279,-24.9008C364.595,-25.0061 375.057,-25.1128 385.2,-25.2163"/>
<polygon fill="midnightblue" stroke="midnightblue" points="354.063,-21.3985 344.028,-24.7962 353.991,-28.3981 354.063,-21.3985"/>
</g>
<!-- Node20&#45;&gt;Node18 -->
<g id="edge34" class="edge"><title>Node20&#45;&gt;Node18</title>
<path fill="none" stroke="midnightblue" d="M338.532,-41.3929C358.509,-46.1832 380.002,-51.3372 399.368,-55.981"/>
<polygon fill="midnightblue" stroke="midnightblue" points="339.095,-37.9287 328.555,-39.0003 337.463,-44.7358 339.095,-37.9287"/>
</g>
<!-- Node22 -->
<g id="node22" class="node"><title>Node22</title>
<g id="a_node22"><a xlink:href="classx265_1_1Search.html#aba5e04ce529f41accd43c540ba1dc7ad" target="_top" xlink:title="x265::Search::encodeResAnd\lCalcRdInterCU">
<polygon fill="white" stroke="black" points="794.5,-275 794.5,-305 941.5,-305 941.5,-275 794.5,-275"/>
<text text-anchor="start" x="802.5" y="-293" font-family="Helvetica,sans-Serif" font-size="10.00">x265::Search::encodeResAnd</text>
<text text-anchor="middle" x="868" y="-282" font-family="Helvetica,sans-Serif" font-size="10.00">CalcRdInterCU</text>
</a>
</g>
</g>
<!-- Node21&#45;&gt;Node22 -->
<g id="edge36" class="edge"><title>Node21&#45;&gt;Node22</title>
<path fill="none" stroke="midnightblue" d="M768.325,-290C777.045,-290 785.771,-290 794.228,-290"/>
<polygon fill="midnightblue" stroke="midnightblue" points="768.11,-286.5 758.11,-290 768.11,-293.5 768.11,-286.5"/>
</g>
<!-- Node22&#45;&gt;Node7 -->
<g id="edge38" class="edge"><title>Node22&#45;&gt;Node7</title>
<path fill="none" stroke="midnightblue" d="M951.878,-293.869C1002.82,-293.739 1068.7,-288.994 1124,-270 1156.26,-258.919 1188.23,-234.949 1207.04,-219.152"/>
<polygon fill="midnightblue" stroke="midnightblue" points="951.582,-290.368 941.57,-293.833 951.558,-297.368 951.582,-290.368"/>
</g>
<!-- Node22&#45;&gt;Node9 -->
<g id="edge39" class="edge"><title>Node22&#45;&gt;Node9</title>
<path fill="none" stroke="midnightblue" d="M899.577,-268.669C914.008,-257.348 930.536,-242.397 942,-226 967.397,-189.676 941.438,-158.053 978,-133 1037.01,-92.563 1124.12,-105.898 1177.29,-119.95"/>
<polygon fill="midnightblue" stroke="midnightblue" points="897.223,-266.062 891.377,-274.898 901.457,-271.636 897.223,-266.062"/>
</g>
<!-- Node22&#45;&gt;Node11 -->
<g id="edge37" class="edge"><title>Node22&#45;&gt;Node11</title>
<path fill="none" stroke="midnightblue" d="M950.513,-307.113C969.144,-311.025 988.289,-315.044 1004.75,-318.499"/>
<polygon fill="midnightblue" stroke="midnightblue" points="951.042,-303.648 940.536,-305.019 949.603,-310.499 951.042,-303.648"/>
</g>
<!-- Node23 -->
<g id="node23" class="node"><title>Node23</title>
<g id="a_node23"><a xlink:href="classx265_1_1Analysis.html#addd72cb95590e2b2a6965d42d110eab3" target="_top" xlink:title="x265::Analysis::checkMerge2\lNx2N_rd0_4">
<polygon fill="white" stroke="black" points="978,-143 978,-173 1124,-173 1124,-143 978,-143"/>
<text text-anchor="start" x="986" y="-161" font-family="Helvetica,sans-Serif" font-size="10.00">x265::Analysis::checkMerge2</text>
<text text-anchor="middle" x="1051" y="-150" font-family="Helvetica,sans-Serif" font-size="10.00">Nx2N_rd0_4</text>
</a>
</g>
</g>
<!-- Node22&#45;&gt;Node23 -->
<g id="edge40" class="edge"><title>Node22&#45;&gt;Node23</title>
<path fill="none" stroke="midnightblue" d="M898.065,-268.803C934.749,-242.051 996.942,-196.694 1029.2,-173.168"/>
<polygon fill="midnightblue" stroke="midnightblue" points="895.78,-266.138 889.763,-274.858 899.905,-271.793 895.78,-266.138"/>
</g>
<!-- Node24 -->
<g id="node24" class="node"><title>Node24</title>
<g id="a_node24"><a xlink:href="classx265_1_1Analysis.html#a0194a9da53aa95173fa1132ba3aea1c7" target="_top" xlink:title="x265::Analysis::checkMerge2\lNx2N_rd5_6">
<polygon fill="white" stroke="black" points="978,-357 978,-387 1124,-387 1124,-357 978,-357"/>
<text text-anchor="start" x="986" y="-375" font-family="Helvetica,sans-Serif" font-size="10.00">x265::Analysis::checkMerge2</text>
<text text-anchor="middle" x="1051" y="-364" font-family="Helvetica,sans-Serif" font-size="10.00">Nx2N_rd5_6</text>
</a>
</g>
</g>
<!-- Node22&#45;&gt;Node24 -->
<g id="edge43" class="edge"><title>Node22&#45;&gt;Node24</title>
<path fill="none" stroke="midnightblue" d="M930.548,-309.05C934.503,-310.891 938.355,-312.873 942,-315 960.489,-325.791 959.534,-336.17 978,-347 984.392,-350.749 991.432,-354.054 998.532,-356.93"/>
<polygon fill="midnightblue" stroke="midnightblue" points="931.754,-305.759 921.185,-305.011 928.98,-312.186 931.754,-305.759"/>
</g>
<!-- Node25 -->
<g id="node25" class="node"><title>Node25</title>
<g id="a_node25"><a xlink:href="classx265_1_1Analysis.html#a828daa3e9f1ed40a1af9f99f7ff7bb33" target="_top" xlink:title="x265::Analysis::checkInter\l_rd5_6">
<polygon fill="white" stroke="black" points="984.5,-406 984.5,-436 1117.5,-436 1117.5,-406 984.5,-406"/>
<text text-anchor="start" x="992.5" y="-424" font-family="Helvetica,sans-Serif" font-size="10.00">x265::Analysis::checkInter</text>
<text text-anchor="middle" x="1051" y="-413" font-family="Helvetica,sans-Serif" font-size="10.00">_rd5_6</text>
</a>
</g>
</g>
<!-- Node22&#45;&gt;Node25 -->
<g id="edge45" class="edge"><title>Node22&#45;&gt;Node25</title>
<path fill="none" stroke="midnightblue" d="M936.531,-310.551C938.443,-311.939 940.274,-313.42 942,-315 971.059,-341.6 948.998,-369.338 978,-396 982.189,-399.851 987.002,-403.113 992.111,-405.876"/>
<polygon fill="midnightblue" stroke="midnightblue" points="938.027,-307.36 927.689,-305.043 934.326,-313.301 938.027,-307.36"/>
</g>
<!-- Node23&#45;&gt;Node7 -->
<g id="edge41" class="edge"><title>Node23&#45;&gt;Node7</title>
<path fill="none" stroke="midnightblue" d="M1118.34,-175.743C1134.69,-180.115 1152.04,-184.754 1167.85,-188.983"/>
<polygon fill="midnightblue" stroke="midnightblue" points="1118.88,-172.265 1108.32,-173.062 1117.08,-179.027 1118.88,-172.265"/>
</g>
<!-- Node23&#45;&gt;Node9 -->
<g id="edge42" class="edge"><title>Node23&#45;&gt;Node9</title>
<path fill="none" stroke="midnightblue" d="M1134.42,-146.978C1142.96,-145.837 1151.54,-144.69 1159.83,-143.581"/>
<polygon fill="midnightblue" stroke="midnightblue" points="1133.89,-143.518 1124.44,-148.313 1134.82,-150.456 1133.89,-143.518"/>
</g>
<!-- Node24&#45;&gt;Node13 -->
<g id="edge44" class="edge"><title>Node24&#45;&gt;Node13</title>
<path fill="none" stroke="midnightblue" d="M1134.42,-361.458C1142.96,-360.366 1151.54,-359.268 1159.83,-358.208"/>
<polygon fill="midnightblue" stroke="midnightblue" points="1133.92,-357.993 1124.44,-362.734 1134.81,-364.937 1133.92,-357.993"/>
</g>
<!-- Node25&#45;&gt;Node13 -->
<g id="edge46" class="edge"><title>Node25&#45;&gt;Node13</title>
<path fill="none" stroke="midnightblue" d="M1109.39,-402.213C1114.38,-400.236 1119.31,-398.157 1124,-396 1140.83,-388.259 1143.32,-383.061 1160,-375 1167.2,-371.522 1175.01,-368.152 1182.62,-365.072"/>
<polygon fill="midnightblue" stroke="midnightblue" points="1107.87,-399.048 1099.77,-405.878 1110.36,-405.589 1107.87,-399.048"/>
</g>
</g>
</svg>
        <g id="navigator" transform="translate(0 0)" fill="#404254">
                <rect fill="#f2f5e9" fill-opacity="0.5" stroke="#606060" stroke-width=".5" x="0" y="0" width="60" height="60"/>
                <use id="zoomplus" xlink:href="#zoomPlus" x="17" y="9" onmousedown="handleZoom(evt,'in')"/>
                <use id="zoomminus" xlink:href="#zoomMin" x="42" y="9" onmousedown="handleZoom(evt,'out')"/>
                <use id="reset" xlink:href="#resetDef" x="30" y="36" onmousedown="handleReset()"/>
                <g id="arrowUp" xlink:href="#dirArrow" transform="translate(30 24)" onmousedown="handlePan(0,-1)">
                  <use xlink:href="#rim" fill="#404040">
                        <set attributeName="fill" to="#808080" begin="arrowUp.mouseover" end="arrowUp.mouseout"/>
                  </use>
                  <path fill="none" stroke="white" stroke-width="1.5" d="M0,-3.0v7 M-2.5,-0.5L0,-3.0L2.5,-0.5"/>
                </g>
                <g id="arrowRight" xlink:href="#dirArrow" transform="rotate(90) translate(36 -43)" onmousedown="handlePan(1,0)">
                  <use xlink:href="#rim" fill="#404040">
                        <set attributeName="fill" to="#808080" begin="arrowRight.mouseover" end="arrowRight.mouseout"/>
                  </use>
                  <path fill="none" stroke="white" stroke-width="1.5" d="M0,-3.0v7 M-2.5,-0.5L0,-3.0L2.5,-0.5"/>
                </g>
                <g id="arrowDown" xlink:href="#dirArrow" transform="rotate(180) translate(-30 -48)" onmousedown="handlePan(0,1)">
                  <use xlink:href="#rim" fill="#404040">
                        <set attributeName="fill" to="#808080" begin="arrowDown.mouseover" end="arrowDown.mouseout"/>
                  </use>
                  <path fill="none" stroke="white" stroke-width="1.5" d="M0,-3.0v7 M-2.5,-0.5L0,-3.0L2.5,-0.5"/>
                </g>
                <g id="arrowLeft" xlink:href="#dirArrow" transform="rotate(270) translate(-36 17)" onmousedown="handlePan(-1,0)">
                  <use xlink:href="#rim" fill="#404040">
                        <set attributeName="fill" to="#808080" begin="arrowLeft.mouseover" end="arrowLeft.mouseout"/>
                  </use>
                  <path fill="none" stroke="white" stroke-width="1.5" d="M0,-3.0v7 M-2.5,-0.5L0,-3.0L2.5,-0.5"/>
                </g>
        </g>
        <svg viewBox="0 0 15 15" width="100%" height="30px" preserveAspectRatio="xMaxYMin meet">
         <g id="arrow_out" transform="scale(0.3 0.3)">
          <a xlink:href="classx265_1_1Quant_afeb2e80ae9009ff3320ebda1226fd999_icgraph_org.svg" target="_base">
           <rect id="button" ry="5" rx="5" y="6" x="6" height="38" width="38"
                fill="#f2f5e9" fill-opacity="0.5" stroke="#606060" stroke-width="1.0"/>
           <path id="arrow"
             d="M 11.500037,31.436501 C 11.940474,20.09759 22.043105,11.32322 32.158766,21.979434 L 37.068811,17.246167 C 37.068811,17.246167 37.088388,32 37.088388,32 L 22.160133,31.978069 C 22.160133,31.978069 26.997745,27.140456 26.997745,27.140456 C 18.528582,18.264221 13.291696,25.230495 11.500037,31.436501 z"
             style="fill:#404040;"/>
          </a>
         </g>
        </svg>
</svg>
