<?xml version="1.0" encoding="UTF-8" standalone="no"?>
<!DOCTYPE svg PUBLIC "-//W3C//DTD SVG 1.1//EN"
 "http://www.w3.org/Graphics/SVG/1.1/DTD/svg11.dtd">
<!-- Generated by graphviz version 2.36.0 (20140111.2315)
 -->
<!-- Title: x265::Search::getBestIntraModeChroma Pages: 1 -->
<svg width="1142pt" height="77pt"
 viewBox="0.00 0.00 1142.00 77.00" xmlns="http://www.w3.org/2000/svg" xmlns:xlink="http://www.w3.org/1999/xlink">
<g id="graph0" class="graph" transform="scale(1 1) rotate(0) translate(4 73)">
<title>x265::Search::getBestIntraModeChroma</title>
<polygon fill="white" stroke="none" points="-4,4 -4,-73 1138,-73 1138,4 -4,4"/>
<!-- Node1 -->
<g id="node1" class="node"><title>Node1</title>
<polygon fill="#bfbfbf" stroke="black" points="0,-22 0,-52 134,-52 134,-22 0,-22"/>
<text text-anchor="start" x="8" y="-40" font-family="Helvetica,sans-Serif" font-size="10.00">x265::Search::getBestIntra</text>
<text text-anchor="middle" x="67" y="-29" font-family="Helvetica,sans-Serif" font-size="10.00">ModeChroma</text>
</g>
<!-- Node2 -->
<g id="node2" class="node"><title>Node2</title>
<g id="a_node2"><a xlink:href="classx265_1_1Analysis.html#a88ad2880a5a8bcad5cfd5d6ea630b265" target="_top" xlink:title="x265::Analysis::encodeResidue">
<polygon fill="white" stroke="black" points="348.5,-49.5 348.5,-68.5 503.5,-68.5 503.5,-49.5 348.5,-49.5"/>
<text text-anchor="middle" x="426" y="-56.5" font-family="Helvetica,sans-Serif" font-size="10.00">x265::Analysis::encodeResidue</text>
</a>
</g>
</g>
<!-- Node1&#45;&gt;Node2 -->
<g id="edge1" class="edge"><title>Node1&#45;&gt;Node2</title>
<path fill="none" stroke="midnightblue" d="M144.505,-41.7146C204.629,-45.4197 287.989,-50.5567 348.191,-54.2667"/>
<polygon fill="midnightblue" stroke="midnightblue" points="144.509,-38.2083 134.312,-41.0865 144.078,-45.195 144.509,-38.2083"/>
</g>
<!-- Node7 -->
<g id="node7" class="node"><title>Node7</title>
<g id="a_node7"><a xlink:href="classx265_1_1Search.html#a5284cffef18fe6884b268ea28f21f22f" target="_top" xlink:title="x265::Search::generateCoeff\lRecon">
<polygon fill="white" stroke="black" points="170,-0 170,-30 312,-30 312,-0 170,-0"/>
<text text-anchor="start" x="178" y="-18" font-family="Helvetica,sans-Serif" font-size="10.00">x265::Search::generateCoeff</text>
<text text-anchor="middle" x="241" y="-7" font-family="Helvetica,sans-Serif" font-size="10.00">Recon</text>
</a>
</g>
</g>
<!-- Node1&#45;&gt;Node7 -->
<g id="edge6" class="edge"><title>Node1&#45;&gt;Node7</title>
<path fill="none" stroke="midnightblue" d="M144.024,-27.2761C152.626,-26.1757 161.364,-25.0581 169.886,-23.9681"/>
<polygon fill="midnightblue" stroke="midnightblue" points="143.483,-23.8166 134.008,-28.5571 144.371,-30.76 143.483,-23.8166"/>
</g>
<!-- Node3 -->
<g id="node3" class="node"><title>Node3</title>
<g id="a_node3"><a xlink:href="classx265_1_1Analysis.html#aaebc9de2ff98834c650244f3b58942c2" target="_top" xlink:title="x265::Analysis::compressCTU">
<polygon fill="white" stroke="black" points="540.5,-27.5 540.5,-46.5 691.5,-46.5 691.5,-27.5 540.5,-27.5"/>
<text text-anchor="middle" x="616" y="-34.5" font-family="Helvetica,sans-Serif" font-size="10.00">x265::Analysis::compressCTU</text>
</a>
</g>
</g>
<!-- Node2&#45;&gt;Node3 -->
<g id="edge2" class="edge"><title>Node2&#45;&gt;Node3</title>
<path fill="none" stroke="midnightblue" d="M513.72,-48.8519C522.61,-47.8116 531.587,-46.7611 540.331,-45.7379"/>
<polygon fill="midnightblue" stroke="midnightblue" points="513.263,-45.3814 503.738,-50.02 514.077,-52.3339 513.263,-45.3814"/>
</g>
<!-- Node4 -->
<g id="node4" class="node"><title>Node4</title>
<g id="a_node4"><a xlink:href="classx265_1_1FrameEncoder.html#a0ae85001572afd28238476542523ac5f" target="_top" xlink:title="x265::FrameEncoder\l::processRowEncoder">
<polygon fill="white" stroke="black" points="728.5,-22 728.5,-52 841.5,-52 841.5,-22 728.5,-22"/>
<text text-anchor="start" x="736.5" y="-40" font-family="Helvetica,sans-Serif" font-size="10.00">x265::FrameEncoder</text>
<text text-anchor="middle" x="785" y="-29" font-family="Helvetica,sans-Serif" font-size="10.00">::processRowEncoder</text>
</a>
</g>
</g>
<!-- Node3&#45;&gt;Node4 -->
<g id="edge3" class="edge"><title>Node3&#45;&gt;Node4</title>
<path fill="none" stroke="midnightblue" d="M701.86,-37C710.863,-37 719.845,-37 728.388,-37"/>
<polygon fill="midnightblue" stroke="midnightblue" points="701.708,-33.5001 691.708,-37 701.708,-40.5001 701.708,-33.5001"/>
</g>
<!-- Node5 -->
<g id="node5" class="node"><title>Node5</title>
<g id="a_node5"><a xlink:href="classx265_1_1FrameEncoder.html#acad645a8ece97d884895f8f7366b7d70" target="_top" xlink:title="x265::FrameEncoder\l::processRow">
<polygon fill="white" stroke="black" points="878.5,-22 878.5,-52 985.5,-52 985.5,-22 878.5,-22"/>
<text text-anchor="start" x="886.5" y="-40" font-family="Helvetica,sans-Serif" font-size="10.00">x265::FrameEncoder</text>
<text text-anchor="middle" x="932" y="-29" font-family="Helvetica,sans-Serif" font-size="10.00">::processRow</text>
</a>
</g>
</g>
<!-- Node4&#45;&gt;Node5 -->
<g id="edge4" class="edge"><title>Node4&#45;&gt;Node5</title>
<path fill="none" stroke="midnightblue" d="M851.877,-37C860.67,-37 869.594,-37 878.126,-37"/>
<polygon fill="midnightblue" stroke="midnightblue" points="851.646,-33.5001 841.646,-37 851.646,-40.5001 851.646,-33.5001"/>
</g>
<!-- Node6 -->
<g id="node6" class="node"><title>Node6</title>
<g id="a_node6"><a xlink:href="classx265_1_1FrameEncoder.html#ac4e9ce2e876c0cdb25c992c872fe4302" target="_top" xlink:title="x265::FrameEncoder\l::compressCTURows">
<polygon fill="white" stroke="red" points="1022,-22 1022,-52 1134,-52 1134,-22 1022,-22"/>
<text text-anchor="start" x="1030" y="-40" font-family="Helvetica,sans-Serif" font-size="10.00">x265::FrameEncoder</text>
<text text-anchor="middle" x="1078" y="-29" font-family="Helvetica,sans-Serif" font-size="10.00">::compressCTURows</text>
</a>
</g>
</g>
<!-- Node5&#45;&gt;Node6 -->
<g id="edge5" class="edge"><title>Node5&#45;&gt;Node6</title>
<path fill="none" stroke="midnightblue" d="M995.834,-37C1004.48,-37 1013.3,-37 1021.79,-37"/>
<polygon fill="midnightblue" stroke="midnightblue" points="995.803,-33.5001 985.803,-37 995.803,-40.5001 995.803,-33.5001"/>
</g>
<!-- Node8 -->
<g id="node8" class="node"><title>Node8</title>
<g id="a_node8"><a xlink:href="classx265_1_1Analysis.html#a30d2ff7eca5addbb0a6b3dfe14f09650" target="_top" xlink:title="x265::Analysis::compress\lInterCU_rd0_4">
<polygon fill="white" stroke="black" points="361,-0 361,-30 491,-30 491,-0 361,-0"/>
<text text-anchor="start" x="369" y="-18" font-family="Helvetica,sans-Serif" font-size="10.00">x265::Analysis::compress</text>
<text text-anchor="middle" x="426" y="-7" font-family="Helvetica,sans-Serif" font-size="10.00">InterCU_rd0_4</text>
</a>
</g>
</g>
<!-- Node7&#45;&gt;Node8 -->
<g id="edge7" class="edge"><title>Node7&#45;&gt;Node8</title>
<path fill="none" stroke="midnightblue" d="M322.474,-15C335.352,-15 348.526,-15 360.955,-15"/>
<polygon fill="midnightblue" stroke="midnightblue" points="322.229,-11.5001 312.229,-15 322.229,-18.5001 322.229,-11.5001"/>
</g>
<!-- Node8&#45;&gt;Node3 -->
<g id="edge8" class="edge"><title>Node8&#45;&gt;Node3</title>
<path fill="none" stroke="midnightblue" d="M501.352,-23.7007C514.205,-25.2049 527.571,-26.769 540.431,-28.2738"/>
<polygon fill="midnightblue" stroke="midnightblue" points="501.512,-20.1957 491.173,-22.5096 500.699,-27.1483 501.512,-20.1957"/>
</g>
</g>
</svg>
