<?xml version="1.0" encoding="UTF-8" standalone="no"?>
<!DOCTYPE svg PUBLIC "-//W3C//DTD SVG 1.1//EN"
 "http://www.w3.org/Graphics/SVG/1.1/DTD/svg11.dtd">
<!-- Generated by graphviz version 2.36.0 (20140111.2315)
 -->
<!-- Title: x265::Lookahead::slicetypeAnalyse Pages: 1 -->
<svg width="874pt" height="104pt"
 viewBox="0.00 0.00 874.00 104.00" xmlns="http://www.w3.org/2000/svg" xmlns:xlink="http://www.w3.org/1999/xlink">
<g id="graph0" class="graph" transform="scale(1 1) rotate(0) translate(4 100)">
<title>x265::Lookahead::slicetypeAnalyse</title>
<polygon fill="white" stroke="none" points="-4,4 -4,-100 870,-100 870,4 -4,4"/>
<!-- Node1 -->
<g id="node1" class="node"><title>Node1</title>
<polygon fill="#bfbfbf" stroke="black" points="0,-33 0,-63 136,-63 136,-33 0,-33"/>
<text text-anchor="start" x="8" y="-51" font-family="Helvetica,sans-Serif" font-size="10.00">x265::Lookahead::slicetype</text>
<text text-anchor="middle" x="68" y="-40" font-family="Helvetica,sans-Serif" font-size="10.00">Analyse</text>
</g>
<!-- Node2 -->
<g id="node2" class="node"><title>Node2</title>
<g id="a_node2"><a xlink:href="classx265_1_1Lookahead.html#ad15172de7a432e47e8514fb157fafedd" target="_top" xlink:title="x265::Lookahead::slicetype\lDecide">
<polygon fill="white" stroke="black" points="172,-33 172,-63 308,-63 308,-33 172,-33"/>
<text text-anchor="start" x="180" y="-51" font-family="Helvetica,sans-Serif" font-size="10.00">x265::Lookahead::slicetype</text>
<text text-anchor="middle" x="240" y="-40" font-family="Helvetica,sans-Serif" font-size="10.00">Decide</text>
</a>
</g>
</g>
<!-- Node1&#45;&gt;Node2 -->
<g id="edge1" class="edge"><title>Node1&#45;&gt;Node2</title>
<path fill="none" stroke="midnightblue" d="M146.425,-48C154.876,-48 163.428,-48 171.743,-48"/>
<polygon fill="midnightblue" stroke="midnightblue" points="146.189,-44.5001 136.189,-48 146.188,-51.5001 146.189,-44.5001"/>
</g>
<!-- Node3 -->
<g id="node3" class="node"><title>Node3</title>
<g id="a_node3"><a xlink:href="classx265_1_1Lookahead.html#a878bca13580997ab9c01e72a8f8e81c3" target="_top" xlink:title="x265::Lookahead::addPicture">
<polygon fill="white" stroke="black" points="344.5,-76.5 344.5,-95.5 487.5,-95.5 487.5,-76.5 344.5,-76.5"/>
<text text-anchor="middle" x="416" y="-83.5" font-family="Helvetica,sans-Serif" font-size="10.00">x265::Lookahead::addPicture</text>
</a>
</g>
</g>
<!-- Node2&#45;&gt;Node3 -->
<g id="edge2" class="edge"><title>Node2&#45;&gt;Node3</title>
<path fill="none" stroke="midnightblue" d="M318.279,-64.8771C336.434,-68.8419 355.16,-72.9315 371.243,-76.4438"/>
<polygon fill="midnightblue" stroke="midnightblue" points="318.789,-61.4061 308.273,-62.6918 317.296,-68.2449 318.789,-61.4061"/>
</g>
<!-- Node7 -->
<g id="node7" class="node"><title>Node7</title>
<g id="a_node7"><a xlink:href="classx265_1_1Lookahead.html#a0294c952379ca6f328014f92aa51259c" target="_top" xlink:title="x265::Lookahead::flush">
<polygon fill="white" stroke="black" points="357,-38.5 357,-57.5 475,-57.5 475,-38.5 357,-38.5"/>
<text text-anchor="middle" x="416" y="-45.5" font-family="Helvetica,sans-Serif" font-size="10.00">x265::Lookahead::flush</text>
</a>
</g>
</g>
<!-- Node2&#45;&gt;Node7 -->
<g id="edge6" class="edge"><title>Node2&#45;&gt;Node7</title>
<path fill="none" stroke="midnightblue" d="M318.544,-48C331.454,-48 344.645,-48 356.962,-48"/>
<polygon fill="midnightblue" stroke="midnightblue" points="318.273,-44.5001 308.273,-48 318.273,-51.5001 318.273,-44.5001"/>
</g>
<!-- Node8 -->
<g id="node8" class="node"><title>Node8</title>
<g id="a_node8"><a xlink:href="classx265_1_1Lookahead.html#a341d8c6a3a971583aa911cf8dedbe6a1" target="_top" xlink:title="x265::Lookahead::findJob">
<polygon fill="white" stroke="black" points="352,-0.5 352,-19.5 480,-19.5 480,-0.5 352,-0.5"/>
<text text-anchor="middle" x="416" y="-7.5" font-family="Helvetica,sans-Serif" font-size="10.00">x265::Lookahead::findJob</text>
</a>
</g>
</g>
<!-- Node2&#45;&gt;Node8 -->
<g id="edge8" class="edge"><title>Node2&#45;&gt;Node8</title>
<path fill="none" stroke="midnightblue" d="M318.279,-31.1229C336.434,-27.1581 355.16,-23.0685 371.243,-19.5562"/>
<polygon fill="midnightblue" stroke="midnightblue" points="317.296,-27.7551 308.273,-33.3082 318.789,-34.5939 317.296,-27.7551"/>
</g>
<!-- Node4 -->
<g id="node4" class="node"><title>Node4</title>
<g id="a_node4"><a xlink:href="classx265_1_1Encoder.html#af5c80cef5fcafa00d1b3c105681bc784" target="_top" xlink:title="x265::Encoder::encode">
<polygon fill="white" stroke="black" points="524.5,-57.5 524.5,-76.5 641.5,-76.5 641.5,-57.5 524.5,-57.5"/>
<text text-anchor="middle" x="583" y="-64.5" font-family="Helvetica,sans-Serif" font-size="10.00">x265::Encoder::encode</text>
</a>
</g>
</g>
<!-- Node3&#45;&gt;Node4 -->
<g id="edge3" class="edge"><title>Node3&#45;&gt;Node4</title>
<path fill="none" stroke="midnightblue" d="M497.946,-76.6789C506.844,-75.6543 515.766,-74.6269 524.298,-73.6444"/>
<polygon fill="midnightblue" stroke="midnightblue" points="497.466,-73.211 487.932,-77.832 498.267,-80.165 497.466,-73.211"/>
</g>
<!-- Node5 -->
<g id="node5" class="node"><title>Node5</title>
<g id="a_node5"><a xlink:href="x265_8h.html#a7a45a920b9d86ed3fb3cb3794b14f5ea" target="_top" xlink:title="x265_encoder_encode">
<polygon fill="white" stroke="black" points="678,-57.5 678,-76.5 792,-76.5 792,-57.5 678,-57.5"/>
<text text-anchor="middle" x="735" y="-64.5" font-family="Helvetica,sans-Serif" font-size="10.00">x265_encoder_encode</text>
</a>
</g>
</g>
<!-- Node4&#45;&gt;Node5 -->
<g id="edge4" class="edge"><title>Node4&#45;&gt;Node5</title>
<path fill="none" stroke="midnightblue" d="M651.721,-67C660.45,-67 669.311,-67 677.826,-67"/>
<polygon fill="midnightblue" stroke="midnightblue" points="651.565,-63.5001 641.565,-67 651.565,-70.5001 651.565,-63.5001"/>
</g>
<!-- Node6 -->
<g id="node6" class="node"><title>Node6</title>
<g id="a_node6"><a xlink:href="x265_8cpp.html#a3c04138a5bfe5d72780bb7e82a18e627" target="_top" xlink:title="main">
<polygon fill="white" stroke="black" points="828,-57.5 828,-76.5 866,-76.5 866,-57.5 828,-57.5"/>
<text text-anchor="middle" x="847" y="-64.5" font-family="Helvetica,sans-Serif" font-size="10.00">main</text>
</a>
</g>
</g>
<!-- Node5&#45;&gt;Node6 -->
<g id="edge5" class="edge"><title>Node5&#45;&gt;Node6</title>
<path fill="none" stroke="midnightblue" d="M802.493,-67C811.781,-67 820.611,-67 827.859,-67"/>
<polygon fill="midnightblue" stroke="midnightblue" points="802.289,-63.5001 792.289,-67 802.289,-70.5001 802.289,-63.5001"/>
</g>
<!-- Node7&#45;&gt;Node4 -->
<g id="edge7" class="edge"><title>Node7&#45;&gt;Node4</title>
<path fill="none" stroke="midnightblue" d="M485.424,-55.8792C498.366,-57.3694 511.784,-58.9145 524.353,-60.3618"/>
<polygon fill="midnightblue" stroke="midnightblue" points="485.508,-52.3657 475.173,-54.6987 484.707,-59.3198 485.508,-52.3657"/>
</g>
</g>
</svg>
