<?xml version="1.0" encoding="UTF-8" standalone="no"?>
<!DOCTYPE svg PUBLIC "-//W3C//DTD SVG 1.1//EN"
 "http://www.w3.org/Graphics/SVG/1.1/DTD/svg11.dtd">
<!-- Generated by graphviz version 2.36.0 (20140111.2315)
 -->
<!-- Title: x265::PoolThread Pages: 1 -->
<svg width="736pt" height="367pt"
 viewBox="0.00 0.00 736.00 367.00" xmlns="http://www.w3.org/2000/svg" xmlns:xlink="http://www.w3.org/1999/xlink">
<g id="graph0" class="graph" transform="scale(1 1) rotate(0) translate(4 363)">
<title>x265::PoolThread</title>
<polygon fill="white" stroke="none" points="-4,4 -4,-363 732,-363 732,4 -4,4"/>
<!-- Node1 -->
<g id="node1" class="node"><title>Node1</title>
<polygon fill="#bfbfbf" stroke="black" points="415.5,-218.5 415.5,-237.5 508.5,-237.5 508.5,-218.5 415.5,-218.5"/>
<text text-anchor="middle" x="462" y="-225.5" font-family="Helvetica,sans-Serif" font-size="10.00">x265::PoolThread</text>
</g>
<!-- Node6 -->
<g id="node6" class="node"><title>Node6</title>
<g id="a_node6"><a xlink:href="classx265_1_1ThreadPoolImpl.html" target="_top" xlink:title="x265::ThreadPoolImpl">
<polygon fill="white" stroke="black" points="616,-178.5 616,-197.5 728,-197.5 728,-178.5 616,-178.5"/>
<text text-anchor="middle" x="672" y="-185.5" font-family="Helvetica,sans-Serif" font-size="10.00">x265::ThreadPoolImpl</text>
</a>
</g>
</g>
<!-- Node1&#45;&gt;Node6 -->
<g id="edge9" class="edge"><title>Node1&#45;&gt;Node6</title>
<path fill="none" stroke="#9a32cd" stroke-dasharray="5,2" d="M518.748,-227.167C543.309,-225.852 572.355,-222.997 598,-217 616.856,-212.591 637.254,-204.15 651.682,-197.507"/>
<polygon fill="#9a32cd" stroke="#9a32cd" points="518.346,-223.681 508.518,-227.64 518.67,-230.674 518.346,-223.681"/>
<text text-anchor="middle" x="563" y="-229" font-family="Helvetica,sans-Serif" font-size="10.00"> m_threads</text>
</g>
<!-- Node2 -->
<g id="node2" class="node"><title>Node2</title>
<g id="a_node2"><a xlink:href="classx265_1_1Thread.html" target="_top" xlink:title="x265::Thread">
<polygon fill="white" stroke="black" points="186,-157.5 186,-176.5 260,-176.5 260,-157.5 186,-157.5"/>
<text text-anchor="middle" x="223" y="-164.5" font-family="Helvetica,sans-Serif" font-size="10.00">x265::Thread</text>
</a>
</g>
</g>
<!-- Node2&#45;&gt;Node1 -->
<g id="edge1" class="edge"><title>Node2&#45;&gt;Node1</title>
<path fill="none" stroke="midnightblue" d="M270.122,-172.571C305.171,-177.523 354.296,-186.017 396,-199 412.282,-204.069 429.898,-212.1 442.679,-218.426"/>
<polygon fill="midnightblue" stroke="midnightblue" points="270.557,-169.098 260.175,-171.207 269.606,-176.033 270.557,-169.098"/>
</g>
<!-- Node3 -->
<g id="node3" class="node"><title>Node3</title>
<polygon fill="white" stroke="#bfbfbf" points="16.5,-150.5 16.5,-169.5 73.5,-169.5 73.5,-150.5 16.5,-150.5"/>
<text text-anchor="middle" x="45" y="-157.5" font-family="Helvetica,sans-Serif" font-size="10.00">pthread_t</text>
</g>
<!-- Node3&#45;&gt;Node2 -->
<g id="edge2" class="edge"><title>Node3&#45;&gt;Node2</title>
<path fill="none" stroke="#9a32cd" stroke-dasharray="5,2" d="M83.7607,-160.676C105.482,-161.149 133.285,-161.897 158,-163 167.009,-163.402 176.724,-163.95 185.796,-164.512"/>
<polygon fill="#9a32cd" stroke="#9a32cd" points="83.6967,-157.175 73.6261,-160.466 83.5512,-164.173 83.6967,-157.175"/>
<text text-anchor="middle" x="133" y="-166" font-family="Helvetica,sans-Serif" font-size="10.00"> thread</text>
</g>
<!-- Node4 -->
<g id="node4" class="node"><title>Node4</title>
<polygon fill="white" stroke="#bfbfbf" points="30.5,-246.5 30.5,-265.5 59.5,-265.5 59.5,-246.5 30.5,-246.5"/>
<text text-anchor="middle" x="45" y="-253.5" font-family="Helvetica,sans-Serif" font-size="10.00">int</text>
</g>
<!-- Node4&#45;&gt;Node1 -->
<g id="edge3" class="edge"><title>Node4&#45;&gt;Node1</title>
<path fill="none" stroke="#9a32cd" stroke-dasharray="5,2" d="M69.7915,-254.395C136.691,-249.881 327.303,-237.021 415.37,-231.079"/>
<polygon fill="#9a32cd" stroke="#9a32cd" points="69.5495,-250.903 59.8078,-255.068 70.0208,-257.887 69.5495,-250.903"/>
<text text-anchor="middle" x="223" y="-250" font-family="Helvetica,sans-Serif" font-size="10.00"> m_id</text>
</g>
<!-- Node4&#45;&gt;Node6 -->
<g id="edge10" class="edge"><title>Node4&#45;&gt;Node6</title>
<path fill="none" stroke="#9a32cd" stroke-dasharray="5,2" d="M68.3086,-270.964C93.2906,-286.742 135.591,-310.592 176,-320 240.76,-335.077 443.334,-320.963 510,-305 551.431,-295.079 563.235,-291.623 598,-267 626.497,-246.817 652.314,-213.967 664.16,-197.725"/>
<polygon fill="#9a32cd" stroke="#9a32cd" points="69.9223,-267.84 59.622,-265.359 66.127,-273.722 69.9223,-267.84"/>
<text text-anchor="middle" x="342" y="-351" font-family="Helvetica,sans-Serif" font-size="10.00"> m_numSleepMapWords</text>
<text text-anchor="middle" x="342" y="-340" font-family="Helvetica,sans-Serif" font-size="10.00">m_referenceCount</text>
<text text-anchor="middle" x="342" y="-329" font-family="Helvetica,sans-Serif" font-size="10.00">m_numThreads</text>
</g>
<!-- Node12 -->
<g id="node12" class="node"><title>Node12</title>
<g id="a_node12"><a xlink:href="classx265_1_1Event.html" target="_top" xlink:title="x265::Event">
<polygon fill="white" stroke="black" points="188.5,-196.5 188.5,-215.5 257.5,-215.5 257.5,-196.5 188.5,-196.5"/>
<text text-anchor="middle" x="223" y="-203.5" font-family="Helvetica,sans-Serif" font-size="10.00">x265::Event</text>
</a>
</g>
</g>
<!-- Node4&#45;&gt;Node12 -->
<g id="edge19" class="edge"><title>Node4&#45;&gt;Node12</title>
<path fill="none" stroke="#9a32cd" stroke-dasharray="5,2" d="M68.8946,-245.699C80.4529,-240.775 94.7919,-235.08 108,-231 134.523,-222.808 165.306,-216.224 188.195,-211.873"/>
<polygon fill="#9a32cd" stroke="#9a32cd" points="67.3222,-242.567 59.5515,-249.768 70.1173,-248.984 67.3222,-242.567"/>
<text text-anchor="middle" x="133" y="-234" font-family="Helvetica,sans-Serif" font-size="10.00"> m_counter</text>
</g>
<!-- Node5 -->
<g id="node5" class="node"><title>Node5</title>
<polygon fill="white" stroke="#bfbfbf" points="205.5,-291.5 205.5,-310.5 240.5,-310.5 240.5,-291.5 205.5,-291.5"/>
<text text-anchor="middle" x="223" y="-298.5" font-family="Helvetica,sans-Serif" font-size="10.00">bool</text>
</g>
<!-- Node5&#45;&gt;Node1 -->
<g id="edge4" class="edge"><title>Node5&#45;&gt;Node1</title>
<path fill="none" stroke="#9a32cd" stroke-dasharray="5,2" d="M249.35,-286.461C260.853,-280.357 274.809,-273.618 288,-269 334.32,-252.785 348.33,-257.665 396,-246 406.464,-243.439 417.802,-240.395 428.034,-237.544"/>
<polygon fill="#9a32cd" stroke="#9a32cd" points="247.439,-283.517 240.336,-291.378 250.791,-289.662 247.439,-283.517"/>
<text text-anchor="middle" x="342" y="-283" font-family="Helvetica,sans-Serif" font-size="10.00"> m_exited</text>
<text text-anchor="middle" x="342" y="-272" font-family="Helvetica,sans-Serif" font-size="10.00">m_dirty</text>
</g>
<!-- Node5&#45;&gt;Node6 -->
<g id="edge11" class="edge"><title>Node5&#45;&gt;Node6</title>
<path fill="none" stroke="#9a32cd" stroke-dasharray="5,2" d="M250.939,-301.595C314.522,-301.983 477.624,-296.983 598,-241 622.426,-229.64 646.983,-209.62 660.468,-197.705"/>
<polygon fill="#9a32cd" stroke="#9a32cd" points="250.633,-298.092 240.593,-301.477 250.553,-305.091 250.633,-298.092"/>
<text text-anchor="middle" x="462" y="-293" font-family="Helvetica,sans-Serif" font-size="10.00"> m_ok</text>
</g>
<!-- Node6&#45;&gt;Node1 -->
<g id="edge5" class="edge"><title>Node6&#45;&gt;Node1</title>
<path fill="none" stroke="#9a32cd" stroke-dasharray="5,2" d="M605.93,-193.398C581.322,-196.168 553.185,-200.215 528,-206 514.299,-209.147 499.418,-214.067 487.357,-218.457"/>
<polygon fill="#9a32cd" stroke="#9a32cd" points="606.316,-196.877 615.884,-192.325 605.566,-189.917 606.316,-196.877"/>
<text text-anchor="middle" x="563" y="-209" font-family="Helvetica,sans-Serif" font-size="10.00"> m_pool</text>
</g>
<!-- Node6&#45;&gt;Node6 -->
<g id="edge12" class="edge"><title>Node6&#45;&gt;Node6</title>
<path fill="none" stroke="#9a32cd" stroke-dasharray="5,2" d="M652.001,-207.4C653.337,-212.315 660.003,-216 672,-216 691.195,-216 696.744,-206.565 688.646,-197.757"/>
<polygon fill="#9a32cd" stroke="#9a32cd" points="655.376,-208.352 655.354,-197.757 648.764,-206.053 655.376,-208.352"/>
<text text-anchor="middle" x="672" y="-219" font-family="Helvetica,sans-Serif" font-size="10.00"> s_instance</text>
</g>
<!-- Node7 -->
<g id="node7" class="node"><title>Node7</title>
<g id="a_node7"><a xlink:href="classx265_1_1ThreadPool.html" target="_top" xlink:title="x265::ThreadPool">
<polygon fill="white" stroke="black" points="176.5,-44.5 176.5,-63.5 269.5,-63.5 269.5,-44.5 176.5,-44.5"/>
<text text-anchor="middle" x="223" y="-51.5" font-family="Helvetica,sans-Serif" font-size="10.00">x265::ThreadPool</text>
</a>
</g>
</g>
<!-- Node7&#45;&gt;Node6 -->
<g id="edge6" class="edge"><title>Node7&#45;&gt;Node6</title>
<path fill="none" stroke="midnightblue" d="M265.488,-66.437C354.014,-92.9752 559.802,-154.666 639.074,-178.429"/>
<polygon fill="midnightblue" stroke="midnightblue" points="266.373,-63.0485 255.789,-63.5295 264.363,-69.7537 266.373,-63.0485"/>
</g>
<!-- Node10 -->
<g id="node10" class="node"><title>Node10</title>
<g id="a_node10"><a xlink:href="classx265_1_1JobProvider.html" target="_top" xlink:title="x265::JobProvider">
<polygon fill="white" stroke="black" points="414.5,-38.5 414.5,-57.5 509.5,-57.5 509.5,-38.5 414.5,-38.5"/>
<text text-anchor="middle" x="462" y="-45.5" font-family="Helvetica,sans-Serif" font-size="10.00">x265::JobProvider</text>
</a>
</g>
</g>
<!-- Node7&#45;&gt;Node10 -->
<g id="edge14" class="edge"><title>Node7&#45;&gt;Node10</title>
<path fill="none" stroke="#9a32cd" stroke-dasharray="5,2" d="M279.776,-52.5879C320.686,-51.5523 375.607,-50.1619 414.229,-49.1841"/>
<polygon fill="#9a32cd" stroke="#9a32cd" points="279.604,-49.0911 269.696,-52.8431 279.781,-56.0888 279.604,-49.0911"/>
<text text-anchor="middle" x="342" y="-56" font-family="Helvetica,sans-Serif" font-size="10.00"> m_pool</text>
</g>
<!-- Node8 -->
<g id="node8" class="node"><title>Node8</title>
<g id="a_node8"><a xlink:href="classx265_1_1Lock.html" target="_top" xlink:title="x265::Lock">
<polygon fill="white" stroke="black" points="309.5,-141.5 309.5,-160.5 374.5,-160.5 374.5,-141.5 309.5,-141.5"/>
<text text-anchor="middle" x="342" y="-148.5" font-family="Helvetica,sans-Serif" font-size="10.00">x265::Lock</text>
</a>
</g>
</g>
<!-- Node8&#45;&gt;Node6 -->
<g id="edge7" class="edge"><title>Node8&#45;&gt;Node6</title>
<path fill="none" stroke="#9a32cd" stroke-dasharray="5,2" d="M384.79,-155.714C443.553,-162.343 550.696,-174.429 615.91,-181.786"/>
<polygon fill="#9a32cd" stroke="#9a32cd" points="385.077,-152.224 374.748,-154.581 384.293,-159.18 385.077,-152.224"/>
<text text-anchor="middle" x="462" y="-183" font-family="Helvetica,sans-Serif" font-size="10.00"> s_createLock</text>
<text text-anchor="middle" x="462" y="-172" font-family="Helvetica,sans-Serif" font-size="10.00">m_writeLock</text>
</g>
<!-- Node9 -->
<g id="node9" class="node"><title>Node9</title>
<polygon fill="white" stroke="#bfbfbf" points="0.5,-98.5 0.5,-117.5 89.5,-117.5 89.5,-98.5 0.5,-98.5"/>
<text text-anchor="middle" x="45" y="-105.5" font-family="Helvetica,sans-Serif" font-size="10.00">pthread_mutex_t</text>
</g>
<!-- Node9&#45;&gt;Node8 -->
<g id="edge8" class="edge"><title>Node9&#45;&gt;Node8</title>
<path fill="none" stroke="#9a32cd" stroke-dasharray="5,2" d="M99.7888,-105.238C102.565,-105.146 105.315,-105.065 108,-105 130.216,-104.463 135.946,-102.271 158,-105 165.559,-105.935 258.738,-129.795 309.13,-142.773"/>
<polygon fill="#9a32cd" stroke="#9a32cd" points="99.5464,-101.745 89.6859,-105.621 99.8112,-108.74 99.5464,-101.745"/>
<text text-anchor="middle" x="133" y="-108" font-family="Helvetica,sans-Serif" font-size="10.00"> handle</text>
</g>
<!-- Node9&#45;&gt;Node12 -->
<g id="edge18" class="edge"><title>Node9&#45;&gt;Node12</title>
<path fill="none" stroke="#9a32cd" stroke-dasharray="5,2" d="M99.3817,-116.687C119.687,-122.238 141.805,-131.286 158,-146 172.429,-159.109 162.128,-172.303 176,-186 180.338,-190.283 185.743,-193.719 191.307,-196.451"/>
<polygon fill="#9a32cd" stroke="#9a32cd" points="100.144,-113.27 89.5934,-114.234 98.4425,-120.06 100.144,-113.27"/>
<text text-anchor="middle" x="133" y="-149" font-family="Helvetica,sans-Serif" font-size="10.00"> m_mutex</text>
</g>
<!-- Node10&#45;&gt;Node6 -->
<g id="edge13" class="edge"><title>Node10&#45;&gt;Node6</title>
<path fill="none" stroke="#9a32cd" stroke-dasharray="5,2" d="M519.644,-57.3102C545.273,-63.5202 574.921,-73.6594 598,-90 631.937,-114.028 656.699,-158.709 666.442,-178.333"/>
<polygon fill="#9a32cd" stroke="#9a32cd" points="520.202,-53.8477 509.674,-55.0395 518.647,-60.6729 520.202,-53.8477"/>
<text text-anchor="middle" x="563" y="-104" font-family="Helvetica,sans-Serif" font-size="10.00"> m_lastProvider</text>
<text text-anchor="middle" x="563" y="-93" font-family="Helvetica,sans-Serif" font-size="10.00">m_firstProvider</text>
</g>
<!-- Node10&#45;&gt;Node10 -->
<g id="edge15" class="edge"><title>Node10&#45;&gt;Node10</title>
<path fill="none" stroke="#9a32cd" stroke-dasharray="5,2" d="M443.482,-67.4C444.719,-72.3146 450.892,-76 462,-76 479.773,-76 484.911,-66.5653 477.413,-57.7571"/>
<polygon fill="#9a32cd" stroke="#9a32cd" points="446.854,-68.3485 446.587,-57.7571 440.191,-66.2032 446.854,-68.3485"/>
<text text-anchor="middle" x="462" y="-90" font-family="Helvetica,sans-Serif" font-size="10.00"> m_nextProvider</text>
<text text-anchor="middle" x="462" y="-79" font-family="Helvetica,sans-Serif" font-size="10.00">m_prevProvider</text>
</g>
<!-- Node11 -->
<g id="node11" class="node"><title>Node11</title>
<polygon fill="white" stroke="#bfbfbf" points="417,-0.5 417,-19.5 507,-19.5 507,-0.5 417,-0.5"/>
<text text-anchor="middle" x="462" y="-7.5" font-family="Helvetica,sans-Serif" font-size="10.00">unsigned __int64</text>
</g>
<!-- Node11&#45;&gt;Node6 -->
<g id="edge16" class="edge"><title>Node11&#45;&gt;Node6</title>
<path fill="none" stroke="#9a32cd" stroke-dasharray="5,2" d="M517.238,-13.6796C543.952,-17.9017 575.227,-26.7258 598,-45 643.002,-81.1118 662.956,-152.321 668.947,-178.258"/>
<polygon fill="#9a32cd" stroke="#9a32cd" points="517.64,-10.2017 507.251,-12.2766 516.667,-17.1337 517.64,-10.2017"/>
<text text-anchor="middle" x="563" y="-48" font-family="Helvetica,sans-Serif" font-size="10.00"> m_sleepMap</text>
</g>
<!-- Node12&#45;&gt;Node1 -->
<g id="edge17" class="edge"><title>Node12&#45;&gt;Node1</title>
<path fill="none" stroke="#9a32cd" stroke-dasharray="5,2" d="M267.826,-204.056C302.736,-203.219 352.753,-203.61 396,-210 408.163,-211.797 421.283,-215.148 432.529,-218.476"/>
<polygon fill="#9a32cd" stroke="#9a32cd" points="267.398,-200.567 257.501,-204.35 267.597,-207.564 267.398,-200.567"/>
<text text-anchor="middle" x="342" y="-213" font-family="Helvetica,sans-Serif" font-size="10.00"> m_wakeEvent</text>
</g>
<!-- Node13 -->
<g id="node13" class="node"><title>Node13</title>
<polygon fill="white" stroke="#bfbfbf" points="3.5,-188.5 3.5,-207.5 86.5,-207.5 86.5,-188.5 3.5,-188.5"/>
<text text-anchor="middle" x="45" y="-195.5" font-family="Helvetica,sans-Serif" font-size="10.00">pthread_cond_t</text>
</g>
<!-- Node13&#45;&gt;Node12 -->
<g id="edge20" class="edge"><title>Node13&#45;&gt;Node12</title>
<path fill="none" stroke="#9a32cd" stroke-dasharray="5,2" d="M96.7523,-197.115C100.558,-197.069 104.34,-197.03 108,-197 130.221,-196.821 135.832,-195.449 158,-197 167.85,-197.689 178.49,-198.968 188.214,-200.35"/>
<polygon fill="#9a32cd" stroke="#9a32cd" points="96.6384,-193.616 86.6864,-197.25 96.7325,-200.615 96.6384,-193.616"/>
<text text-anchor="middle" x="133" y="-200" font-family="Helvetica,sans-Serif" font-size="10.00"> m_cond</text>
</g>
</g>
</svg>
