<?xml version="1.0" encoding="UTF-8" standalone="no"?>
<!DOCTYPE svg PUBLIC "-//W3C//DTD SVG 1.1//EN"
 "http://www.w3.org/Graphics/SVG/1.1/DTD/svg11.dtd">
<!-- Generated by graphviz version 2.36.0 (20140111.2315)
 -->
<!-- Title: x265::Predict::addWeightUni Pages: 1 -->
<svg width="1554pt" height="248pt"
 viewBox="0.00 0.00 1554.00 248.00" xmlns="http://www.w3.org/2000/svg" xmlns:xlink="http://www.w3.org/1999/xlink">
<g id="graph0" class="graph" transform="scale(1 1) rotate(0) translate(4 244)">
<title>x265::Predict::addWeightUni</title>
<polygon fill="white" stroke="none" points="-4,4 -4,-244 1550,-244 1550,4 -4,4"/>
<!-- Node1 -->
<g id="node1" class="node"><title>Node1</title>
<polygon fill="#bfbfbf" stroke="black" points="0,-114.5 0,-133.5 142,-133.5 142,-114.5 0,-114.5"/>
<text text-anchor="middle" x="71" y="-121.5" font-family="Helvetica,sans-Serif" font-size="10.00">x265::Predict::addWeightUni</text>
</g>
<!-- Node2 -->
<g id="node2" class="node"><title>Node2</title>
<g id="a_node2"><a xlink:href="classx265_1_1Predict.html#ab23a30d88a19749b5ddd7892d19e202f" target="_top" xlink:title="x265::Predict::motionCompensation">
<polygon fill="white" stroke="black" points="178.5,-114.5 178.5,-133.5 351.5,-133.5 351.5,-114.5 178.5,-114.5"/>
<text text-anchor="middle" x="265" y="-121.5" font-family="Helvetica,sans-Serif" font-size="10.00">x265::Predict::motionCompensation</text>
</a>
</g>
</g>
<!-- Node1&#45;&gt;Node2 -->
<g id="edge1" class="edge"><title>Node1&#45;&gt;Node2</title>
<path fill="none" stroke="midnightblue" d="M152.19,-124C160.842,-124 169.67,-124 178.383,-124"/>
<polygon fill="midnightblue" stroke="midnightblue" points="152.131,-120.5 142.131,-124 152.131,-127.5 152.131,-120.5"/>
</g>
<!-- Node3 -->
<g id="node3" class="node"><title>Node3</title>
<g id="a_node3"><a xlink:href="classx265_1_1Analysis.html#a87060ff27a37f56adc5f5b8a4c033ece" target="_top" xlink:title="x265::Analysis::compress\lInterCU_dist">
<polygon fill="white" stroke="black" points="588,-210 588,-240 718,-240 718,-210 588,-210"/>
<text text-anchor="start" x="596" y="-228" font-family="Helvetica,sans-Serif" font-size="10.00">x265::Analysis::compress</text>
<text text-anchor="middle" x="653" y="-217" font-family="Helvetica,sans-Serif" font-size="10.00">InterCU_dist</text>
</a>
</g>
</g>
<!-- Node2&#45;&gt;Node3 -->
<g id="edge2" class="edge"><title>Node2&#45;&gt;Node3</title>
<path fill="none" stroke="midnightblue" d="M282.504,-140.581C304.419,-161.372 345.35,-196.094 388,-211 453.317,-233.828 533.253,-234.625 587.942,-231.422"/>
<polygon fill="midnightblue" stroke="midnightblue" points="284.937,-138.065 275.323,-133.614 280.063,-143.089 284.937,-138.065"/>
</g>
<!-- Node7 -->
<g id="node7" class="node"><title>Node7</title>
<g id="a_node7"><a xlink:href="classx265_1_1Analysis.html#a30d2ff7eca5addbb0a6b3dfe14f09650" target="_top" xlink:title="x265::Analysis::compress\lInterCU_rd0_4">
<polygon fill="white" stroke="black" points="934,-133 934,-163 1064,-163 1064,-133 934,-133"/>
<text text-anchor="start" x="942" y="-151" font-family="Helvetica,sans-Serif" font-size="10.00">x265::Analysis::compress</text>
<text text-anchor="middle" x="999" y="-140" font-family="Helvetica,sans-Serif" font-size="10.00">InterCU_rd0_4</text>
</a>
</g>
</g>
<!-- Node2&#45;&gt;Node7 -->
<g id="edge6" class="edge"><title>Node2&#45;&gt;Node7</title>
<path fill="none" stroke="midnightblue" d="M361.994,-127.147C513.691,-132.121 804.826,-141.666 933.795,-145.895"/>
<polygon fill="midnightblue" stroke="midnightblue" points="361.871,-123.642 351.762,-126.812 361.642,-130.638 361.871,-123.642"/>
</g>
<!-- Node8 -->
<g id="node8" class="node"><title>Node8</title>
<g id="a_node8"><a xlink:href="classx265_1_1Analysis.html#addd72cb95590e2b2a6965d42d110eab3" target="_top" xlink:title="x265::Analysis::checkMerge2\lNx2N_rd0_4">
<polygon fill="white" stroke="black" points="392,-172 392,-202 538,-202 538,-172 392,-172"/>
<text text-anchor="start" x="400" y="-190" font-family="Helvetica,sans-Serif" font-size="10.00">x265::Analysis::checkMerge2</text>
<text text-anchor="middle" x="465" y="-179" font-family="Helvetica,sans-Serif" font-size="10.00">Nx2N_rd0_4</text>
</a>
</g>
</g>
<!-- Node2&#45;&gt;Node8 -->
<g id="edge8" class="edge"><title>Node2&#45;&gt;Node8</title>
<path fill="none" stroke="midnightblue" d="M305.969,-136.718C337.949,-146.893 382.873,-161.187 416.653,-171.935"/>
<polygon fill="midnightblue" stroke="midnightblue" points="306.662,-133.265 296.072,-133.568 304.54,-139.936 306.662,-133.265"/>
</g>
<!-- Node9 -->
<g id="node9" class="node"><title>Node9</title>
<g id="a_node9"><a xlink:href="classx265_1_1Analysis.html#a0194a9da53aa95173fa1132ba3aea1c7" target="_top" xlink:title="x265::Analysis::checkMerge2\lNx2N_rd5_6">
<polygon fill="white" stroke="black" points="580,-0 580,-30 726,-30 726,-0 580,-0"/>
<text text-anchor="start" x="588" y="-18" font-family="Helvetica,sans-Serif" font-size="10.00">x265::Analysis::checkMerge2</text>
<text text-anchor="middle" x="653" y="-7" font-family="Helvetica,sans-Serif" font-size="10.00">Nx2N_rd5_6</text>
</a>
</g>
</g>
<!-- Node2&#45;&gt;Node9 -->
<g id="edge11" class="edge"><title>Node2&#45;&gt;Node9</title>
<path fill="none" stroke="midnightblue" d="M285.499,-108.068C308.49,-90.224 348.584,-61.9758 388,-48 450.363,-25.888 525.597,-18.1895 579.769,-15.6975"/>
<polygon fill="midnightblue" stroke="midnightblue" points="283.233,-105.398 277.561,-114.346 287.576,-110.888 283.233,-105.398"/>
</g>
<!-- Node11 -->
<g id="node11" class="node"><title>Node11</title>
<g id="a_node11"><a xlink:href="classx265_1_1Search.html#a761560ef5d3ff0beb48567c88c771d55" target="_top" xlink:title="x265::Search::mergeEstimation">
<polygon fill="white" stroke="black" points="388,-57.5 388,-76.5 542,-76.5 542,-57.5 388,-57.5"/>
<text text-anchor="middle" x="465" y="-64.5" font-family="Helvetica,sans-Serif" font-size="10.00">x265::Search::mergeEstimation</text>
</a>
</g>
</g>
<!-- Node2&#45;&gt;Node11 -->
<g id="edge14" class="edge"><title>Node2&#45;&gt;Node11</title>
<path fill="none" stroke="midnightblue" d="M309.022,-111.615C345.578,-101.091 397.303,-86.2007 430.751,-76.5716"/>
<polygon fill="midnightblue" stroke="midnightblue" points="307.782,-108.33 299.141,-114.459 309.719,-115.056 307.782,-108.33"/>
</g>
<!-- Node12 -->
<g id="node12" class="node"><title>Node12</title>
<g id="a_node12"><a xlink:href="classx265_1_1Search.html#a48101e3d900e93b97a83f461be390bd1" target="_top" xlink:title="x265::Search::predInterSearch">
<polygon fill="white" stroke="black" points="578.5,-58.5 578.5,-77.5 727.5,-77.5 727.5,-58.5 578.5,-58.5"/>
<text text-anchor="middle" x="653" y="-65.5" font-family="Helvetica,sans-Serif" font-size="10.00">x265::Search::predInterSearch</text>
</a>
</g>
</g>
<!-- Node2&#45;&gt;Node12 -->
<g id="edge21" class="edge"><title>Node2&#45;&gt;Node12</title>
<path fill="none" stroke="midnightblue" d="M349.018,-113.129C403.854,-105.811 477.274,-95.7499 542,-86 559.413,-83.377 578.346,-80.3443 595.518,-77.5247"/>
<polygon fill="midnightblue" stroke="midnightblue" points="348.452,-109.673 339.001,-114.463 349.376,-116.612 348.452,-109.673"/>
</g>
<!-- Node4 -->
<g id="node4" class="node"><title>Node4</title>
<g id="a_node4"><a xlink:href="classx265_1_1Analysis.html#aaebc9de2ff98834c650244f3b58942c2" target="_top" xlink:title="x265::Analysis::compressCTU">
<polygon fill="white" stroke="black" points="1100.5,-138.5 1100.5,-157.5 1251.5,-157.5 1251.5,-138.5 1100.5,-138.5"/>
<text text-anchor="middle" x="1176" y="-145.5" font-family="Helvetica,sans-Serif" font-size="10.00">x265::Analysis::compressCTU</text>
</a>
</g>
</g>
<!-- Node3&#45;&gt;Node4 -->
<g id="edge3" class="edge"><title>Node3&#45;&gt;Node4</title>
<path fill="none" stroke="midnightblue" d="M728.18,-217.317C810.521,-208.345 947.217,-192.136 1064,-172 1087.61,-167.93 1113.81,-162.317 1134.82,-157.543"/>
<polygon fill="midnightblue" stroke="midnightblue" points="727.731,-213.845 718.166,-218.401 728.485,-220.804 727.731,-213.845"/>
</g>
<!-- Node5 -->
<g id="node5" class="node"><title>Node5</title>
<g id="a_node5"><a xlink:href="classx265_1_1FrameEncoder.html#a0ae85001572afd28238476542523ac5f" target="_top" xlink:title="x265::FrameEncoder\l::processRowEncoder">
<polygon fill="white" stroke="black" points="1288.5,-133 1288.5,-163 1401.5,-163 1401.5,-133 1288.5,-133"/>
<text text-anchor="start" x="1296.5" y="-151" font-family="Helvetica,sans-Serif" font-size="10.00">x265::FrameEncoder</text>
<text text-anchor="middle" x="1345" y="-140" font-family="Helvetica,sans-Serif" font-size="10.00">::processRowEncoder</text>
</a>
</g>
</g>
<!-- Node4&#45;&gt;Node5 -->
<g id="edge4" class="edge"><title>Node4&#45;&gt;Node5</title>
<path fill="none" stroke="midnightblue" d="M1261.86,-148C1270.86,-148 1279.85,-148 1288.39,-148"/>
<polygon fill="midnightblue" stroke="midnightblue" points="1261.71,-144.5 1251.71,-148 1261.71,-151.5 1261.71,-144.5"/>
</g>
<!-- Node6 -->
<g id="node6" class="node"><title>Node6</title>
<g id="a_node6"><a xlink:href="classx265_1_1FrameEncoder.html#acad645a8ece97d884895f8f7366b7d70" target="_top" xlink:title="x265::FrameEncoder\l::processRow">
<polygon fill="white" stroke="red" points="1438.5,-133 1438.5,-163 1545.5,-163 1545.5,-133 1438.5,-133"/>
<text text-anchor="start" x="1446.5" y="-151" font-family="Helvetica,sans-Serif" font-size="10.00">x265::FrameEncoder</text>
<text text-anchor="middle" x="1492" y="-140" font-family="Helvetica,sans-Serif" font-size="10.00">::processRow</text>
</a>
</g>
</g>
<!-- Node5&#45;&gt;Node6 -->
<g id="edge5" class="edge"><title>Node5&#45;&gt;Node6</title>
<path fill="none" stroke="midnightblue" d="M1411.88,-148C1420.67,-148 1429.59,-148 1438.13,-148"/>
<polygon fill="midnightblue" stroke="midnightblue" points="1411.65,-144.5 1401.65,-148 1411.65,-151.5 1411.65,-144.5"/>
</g>
<!-- Node7&#45;&gt;Node4 -->
<g id="edge7" class="edge"><title>Node7&#45;&gt;Node4</title>
<path fill="none" stroke="midnightblue" d="M1074.25,-148C1082.93,-148 1091.78,-148 1100.47,-148"/>
<polygon fill="midnightblue" stroke="midnightblue" points="1074.17,-144.5 1064.17,-148 1074.17,-151.5 1074.17,-144.5"/>
</g>
<!-- Node8&#45;&gt;Node3 -->
<g id="edge9" class="edge"><title>Node8&#45;&gt;Node3</title>
<path fill="none" stroke="midnightblue" d="M548.229,-203.799C561.47,-206.505 575.007,-209.27 587.745,-211.873"/>
<polygon fill="midnightblue" stroke="midnightblue" points="548.677,-200.319 538.179,-201.746 547.276,-207.177 548.677,-200.319"/>
</g>
<!-- Node8&#45;&gt;Node7 -->
<g id="edge10" class="edge"><title>Node8&#45;&gt;Node7</title>
<path fill="none" stroke="midnightblue" d="M548.335,-181.784C635.285,-176.158 776.35,-166.697 898,-157 909.555,-156.079 921.855,-155.029 933.733,-153.979"/>
<polygon fill="midnightblue" stroke="midnightblue" points="548.02,-178.297 538.266,-182.434 548.471,-185.283 548.02,-178.297"/>
</g>
<!-- Node10 -->
<g id="node10" class="node"><title>Node10</title>
<g id="a_node10"><a xlink:href="classx265_1_1Analysis.html#a0b22b7765aa4a36b1ba6d07ba26901e6" target="_top" xlink:title="x265::Analysis::compress\lInterCU_rd5_6">
<polygon fill="white" stroke="black" points="934,-35 934,-65 1064,-65 1064,-35 934,-35"/>
<text text-anchor="start" x="942" y="-53" font-family="Helvetica,sans-Serif" font-size="10.00">x265::Analysis::compress</text>
<text text-anchor="middle" x="999" y="-42" font-family="Helvetica,sans-Serif" font-size="10.00">InterCU_rd5_6</text>
</a>
</g>
</g>
<!-- Node9&#45;&gt;Node10 -->
<g id="edge12" class="edge"><title>Node9&#45;&gt;Node10</title>
<path fill="none" stroke="midnightblue" d="M736.382,-14.2089C783.856,-14.7912 844.537,-17.3039 898,-25 913.942,-27.2948 931.034,-31.066 946.497,-34.9918"/>
<polygon fill="midnightblue" stroke="midnightblue" points="736.187,-10.707 726.153,-14.1106 736.119,-17.7066 736.187,-10.707"/>
</g>
<!-- Node10&#45;&gt;Node4 -->
<g id="edge13" class="edge"><title>Node10&#45;&gt;Node4</title>
<path fill="none" stroke="midnightblue" d="M1053.71,-69.0911C1057.23,-70.664 1060.69,-72.3043 1064,-74 1101.93,-93.4286 1142.68,-123.157 1162.6,-138.343"/>
<polygon fill="midnightblue" stroke="midnightblue" points="1054.87,-65.7821 1044.3,-65.0927 1052.13,-72.2247 1054.87,-65.7821"/>
</g>
<!-- Node11&#45;&gt;Node12 -->
<g id="edge15" class="edge"><title>Node11&#45;&gt;Node12</title>
<path fill="none" stroke="midnightblue" d="M552.336,-67.4642C561.024,-67.5109 569.791,-67.558 578.33,-67.6039"/>
<polygon fill="midnightblue" stroke="midnightblue" points="552.209,-63.9635 542.19,-67.4096 552.171,-70.9634 552.209,-63.9635"/>
</g>
<!-- Node13 -->
<g id="node13" class="node"><title>Node13</title>
<g id="a_node13"><a xlink:href="classx265_1_1Analysis.html#a2305f7985af66b49fdbc40ebb1b281d2" target="_top" xlink:title="x265::Analysis::checkInter\l_rd0_4">
<polygon fill="white" stroke="black" points="764.5,-84 764.5,-114 897.5,-114 897.5,-84 764.5,-84"/>
<text text-anchor="start" x="772.5" y="-102" font-family="Helvetica,sans-Serif" font-size="10.00">x265::Analysis::checkInter</text>
<text text-anchor="middle" x="831" y="-91" font-family="Helvetica,sans-Serif" font-size="10.00">_rd0_4</text>
</a>
</g>
</g>
<!-- Node12&#45;&gt;Node13 -->
<g id="edge16" class="edge"><title>Node12&#45;&gt;Node13</title>
<path fill="none" stroke="midnightblue" d="M718.446,-79.3513C733.447,-81.9934 749.433,-84.8092 764.48,-87.4595"/>
<polygon fill="midnightblue" stroke="midnightblue" points="718.697,-75.8418 708.242,-77.554 717.483,-82.7357 718.697,-75.8418"/>
</g>
<!-- Node15 -->
<g id="node15" class="node"><title>Node15</title>
<g id="a_node15"><a xlink:href="classx265_1_1Analysis.html#a828daa3e9f1ed40a1af9f99f7ff7bb33" target="_top" xlink:title="x265::Analysis::checkInter\l_rd5_6">
<polygon fill="white" stroke="black" points="764.5,-35 764.5,-65 897.5,-65 897.5,-35 764.5,-35"/>
<text text-anchor="start" x="772.5" y="-53" font-family="Helvetica,sans-Serif" font-size="10.00">x265::Analysis::checkInter</text>
<text text-anchor="middle" x="831" y="-42" font-family="Helvetica,sans-Serif" font-size="10.00">_rd5_6</text>
</a>
</g>
</g>
<!-- Node12&#45;&gt;Node15 -->
<g id="edge19" class="edge"><title>Node12&#45;&gt;Node15</title>
<path fill="none" stroke="midnightblue" d="M737.653,-59.4446C746.579,-58.5317 755.564,-57.6127 764.241,-56.7253"/>
<polygon fill="midnightblue" stroke="midnightblue" points="737.212,-55.9713 727.62,-60.4707 737.924,-62.935 737.212,-55.9713"/>
</g>
<!-- Node13&#45;&gt;Node7 -->
<g id="edge18" class="edge"><title>Node13&#45;&gt;Node7</title>
<path fill="none" stroke="midnightblue" d="M892.868,-116.967C910.654,-122.217 929.902,-127.899 947.009,-132.948"/>
<polygon fill="midnightblue" stroke="midnightblue" points="893.742,-113.576 883.16,-114.101 891.76,-120.289 893.742,-113.576"/>
</g>
<!-- Node14 -->
<g id="node14" class="node"><title>Node14</title>
<g id="a_node14"><a xlink:href="classx265_1_1Analysis.html#aa6122285d10bb1bd7584958b88b029d5" target="_top" xlink:title="x265::Analysis::parallel\lModeAnalysis">
<polygon fill="white" stroke="red" points="940,-84 940,-114 1058,-114 1058,-84 940,-84"/>
<text text-anchor="start" x="948" y="-102" font-family="Helvetica,sans-Serif" font-size="10.00">x265::Analysis::parallel</text>
<text text-anchor="middle" x="999" y="-91" font-family="Helvetica,sans-Serif" font-size="10.00">ModeAnalysis</text>
</a>
</g>
</g>
<!-- Node13&#45;&gt;Node14 -->
<g id="edge17" class="edge"><title>Node13&#45;&gt;Node14</title>
<path fill="none" stroke="midnightblue" d="M907.845,-99C918.599,-99 929.514,-99 939.861,-99"/>
<polygon fill="midnightblue" stroke="midnightblue" points="907.608,-95.5001 897.608,-99 907.608,-102.5 907.608,-95.5001"/>
</g>
<!-- Node15&#45;&gt;Node10 -->
<g id="edge20" class="edge"><title>Node15&#45;&gt;Node10</title>
<path fill="none" stroke="midnightblue" d="M907.797,-50C916.539,-50 925.389,-50 933.954,-50"/>
<polygon fill="midnightblue" stroke="midnightblue" points="907.608,-46.5001 897.608,-50 907.608,-53.5001 907.608,-46.5001"/>
</g>
</g>
</svg>
