<?xml version="1.0" encoding="UTF-8" standalone="no"?>
<!DOCTYPE svg PUBLIC "-//W3C//DTD SVG 1.1//EN"
 "http://www.w3.org/Graphics/SVG/1.1/DTD/svg11.dtd">
<!-- Generated by graphviz version 2.36.0 (20140111.2315)
 -->
<!-- Title: x265::Lookahead::vbvLookahead Pages: 1 -->
<svg width="996pt" height="104pt"
 viewBox="0.00 0.00 996.00 104.00" xmlns="http://www.w3.org/2000/svg" xmlns:xlink="http://www.w3.org/1999/xlink">
<g id="graph0" class="graph" transform="scale(1 1) rotate(0) translate(4 100)">
<title>x265::Lookahead::vbvLookahead</title>
<polygon fill="white" stroke="none" points="-4,4 -4,-100 992,-100 992,4 -4,4"/>
<!-- Node1 -->
<g id="node1" class="node"><title>Node1</title>
<polygon fill="#bfbfbf" stroke="black" points="0,-38.5 0,-57.5 160,-57.5 160,-38.5 0,-38.5"/>
<text text-anchor="middle" x="80" y="-45.5" font-family="Helvetica,sans-Serif" font-size="10.00">x265::Lookahead::vbvLookahead</text>
</g>
<!-- Node2 -->
<g id="node2" class="node"><title>Node2</title>
<g id="a_node2"><a xlink:href="classx265_1_1Lookahead.html#a2f8c7057dd5c5086830b5f22b38105b0" target="_top" xlink:title="x265::Lookahead::slicetype\lAnalyse">
<polygon fill="white" stroke="black" points="196,-33 196,-63 332,-63 332,-33 196,-33"/>
<text text-anchor="start" x="204" y="-51" font-family="Helvetica,sans-Serif" font-size="10.00">x265::Lookahead::slicetype</text>
<text text-anchor="middle" x="264" y="-40" font-family="Helvetica,sans-Serif" font-size="10.00">Analyse</text>
</a>
</g>
</g>
<!-- Node1&#45;&gt;Node2 -->
<g id="edge1" class="edge"><title>Node1&#45;&gt;Node2</title>
<path fill="none" stroke="midnightblue" d="M170.118,-48C178.733,-48 187.37,-48 195.721,-48"/>
<polygon fill="midnightblue" stroke="midnightblue" points="170.034,-44.5001 160.034,-48 170.034,-51.5001 170.034,-44.5001"/>
</g>
<!-- Node3 -->
<g id="node3" class="node"><title>Node3</title>
<g id="a_node3"><a xlink:href="classx265_1_1Lookahead.html#ad15172de7a432e47e8514fb157fafedd" target="_top" xlink:title="x265::Lookahead::slicetype\lDecide">
<polygon fill="white" stroke="black" points="368,-33 368,-63 504,-63 504,-33 368,-33"/>
<text text-anchor="start" x="376" y="-51" font-family="Helvetica,sans-Serif" font-size="10.00">x265::Lookahead::slicetype</text>
<text text-anchor="middle" x="436" y="-40" font-family="Helvetica,sans-Serif" font-size="10.00">Decide</text>
</a>
</g>
</g>
<!-- Node2&#45;&gt;Node3 -->
<g id="edge2" class="edge"><title>Node2&#45;&gt;Node3</title>
<path fill="none" stroke="midnightblue" d="M342.425,-48C350.876,-48 359.428,-48 367.743,-48"/>
<polygon fill="midnightblue" stroke="midnightblue" points="342.189,-44.5001 332.189,-48 342.188,-51.5001 342.189,-44.5001"/>
</g>
<!-- Node4 -->
<g id="node4" class="node"><title>Node4</title>
<g id="a_node4"><a xlink:href="classx265_1_1Lookahead.html#a878bca13580997ab9c01e72a8f8e81c3" target="_top" xlink:title="x265::Lookahead::addPicture">
<polygon fill="white" stroke="black" points="540.5,-76.5 540.5,-95.5 683.5,-95.5 683.5,-76.5 540.5,-76.5"/>
<text text-anchor="middle" x="612" y="-83.5" font-family="Helvetica,sans-Serif" font-size="10.00">x265::Lookahead::addPicture</text>
</a>
</g>
</g>
<!-- Node3&#45;&gt;Node4 -->
<g id="edge3" class="edge"><title>Node3&#45;&gt;Node4</title>
<path fill="none" stroke="midnightblue" d="M514.279,-64.8771C532.434,-68.8419 551.16,-72.9315 567.243,-76.4438"/>
<polygon fill="midnightblue" stroke="midnightblue" points="514.789,-61.4061 504.273,-62.6918 513.296,-68.2449 514.789,-61.4061"/>
</g>
<!-- Node7 -->
<g id="node7" class="node"><title>Node7</title>
<g id="a_node7"><a xlink:href="classx265_1_1Lookahead.html#a0294c952379ca6f328014f92aa51259c" target="_top" xlink:title="x265::Lookahead::flush">
<polygon fill="white" stroke="black" points="553,-38.5 553,-57.5 671,-57.5 671,-38.5 553,-38.5"/>
<text text-anchor="middle" x="612" y="-45.5" font-family="Helvetica,sans-Serif" font-size="10.00">x265::Lookahead::flush</text>
</a>
</g>
</g>
<!-- Node3&#45;&gt;Node7 -->
<g id="edge6" class="edge"><title>Node3&#45;&gt;Node7</title>
<path fill="none" stroke="midnightblue" d="M514.544,-48C527.454,-48 540.645,-48 552.962,-48"/>
<polygon fill="midnightblue" stroke="midnightblue" points="514.273,-44.5001 504.273,-48 514.273,-51.5001 514.273,-44.5001"/>
</g>
<!-- Node8 -->
<g id="node8" class="node"><title>Node8</title>
<g id="a_node8"><a xlink:href="classx265_1_1Lookahead.html#a341d8c6a3a971583aa911cf8dedbe6a1" target="_top" xlink:title="x265::Lookahead::findJob">
<polygon fill="white" stroke="black" points="548,-0.5 548,-19.5 676,-19.5 676,-0.5 548,-0.5"/>
<text text-anchor="middle" x="612" y="-7.5" font-family="Helvetica,sans-Serif" font-size="10.00">x265::Lookahead::findJob</text>
</a>
</g>
</g>
<!-- Node3&#45;&gt;Node8 -->
<g id="edge8" class="edge"><title>Node3&#45;&gt;Node8</title>
<path fill="none" stroke="midnightblue" d="M514.279,-31.1229C532.434,-27.1581 551.16,-23.0685 567.243,-19.5562"/>
<polygon fill="midnightblue" stroke="midnightblue" points="513.296,-27.7551 504.273,-33.3082 514.789,-34.5939 513.296,-27.7551"/>
</g>
<!-- Node5 -->
<g id="node5" class="node"><title>Node5</title>
<g id="a_node5"><a xlink:href="classx265_1_1Encoder.html#af5c80cef5fcafa00d1b3c105681bc784" target="_top" xlink:title="x265::Encoder::encode">
<polygon fill="white" stroke="black" points="720.5,-57.5 720.5,-76.5 837.5,-76.5 837.5,-57.5 720.5,-57.5"/>
<text text-anchor="middle" x="779" y="-64.5" font-family="Helvetica,sans-Serif" font-size="10.00">x265::Encoder::encode</text>
</a>
</g>
</g>
<!-- Node4&#45;&gt;Node5 -->
<g id="edge4" class="edge"><title>Node4&#45;&gt;Node5</title>
<path fill="none" stroke="midnightblue" d="M693.946,-76.6789C702.844,-75.6543 711.766,-74.6269 720.298,-73.6444"/>
<polygon fill="midnightblue" stroke="midnightblue" points="693.466,-73.211 683.932,-77.832 694.267,-80.165 693.466,-73.211"/>
</g>
<!-- Node6 -->
<g id="node6" class="node"><title>Node6</title>
<g id="a_node6"><a xlink:href="x265_8h.html#a7a45a920b9d86ed3fb3cb3794b14f5ea" target="_top" xlink:title="x265_encoder_encode">
<polygon fill="white" stroke="red" points="874,-57.5 874,-76.5 988,-76.5 988,-57.5 874,-57.5"/>
<text text-anchor="middle" x="931" y="-64.5" font-family="Helvetica,sans-Serif" font-size="10.00">x265_encoder_encode</text>
</a>
</g>
</g>
<!-- Node5&#45;&gt;Node6 -->
<g id="edge5" class="edge"><title>Node5&#45;&gt;Node6</title>
<path fill="none" stroke="midnightblue" d="M847.721,-67C856.45,-67 865.311,-67 873.826,-67"/>
<polygon fill="midnightblue" stroke="midnightblue" points="847.565,-63.5001 837.565,-67 847.565,-70.5001 847.565,-63.5001"/>
</g>
<!-- Node7&#45;&gt;Node5 -->
<g id="edge7" class="edge"><title>Node7&#45;&gt;Node5</title>
<path fill="none" stroke="midnightblue" d="M681.424,-55.8792C694.366,-57.3694 707.784,-58.9145 720.353,-60.3618"/>
<polygon fill="midnightblue" stroke="midnightblue" points="681.508,-52.3657 671.173,-54.6987 680.707,-59.3198 681.508,-52.3657"/>
</g>
</g>
</svg>
