<?xml version="1.0" encoding="UTF-8" standalone="no"?>
<!DOCTYPE svg PUBLIC "-//W3C//DTD SVG 1.1//EN"
 "http://www.w3.org/Graphics/SVG/1.1/DTD/svg11.dtd">
<!-- Generated by graphviz version 2.36.0 (20140111.2315)
 -->
<!-- Title: x265::Quant::transformNxN Pages: 1 -->
<!--zoomable 504 -->
<svg id="main" version="1.1" xmlns="http://www.w3.org/2000/svg" xmlns:xlink="http://www.w3.org/1999/xlink" xml:space="preserve" onload="init(evt)">
<style type="text/css"><![CDATA[
.edge:hover path { stroke: red; }
.edge:hover polygon { stroke: red; fill: red; }
]]></style>
<script type="text/javascript"><![CDATA[
var edges = document.getElementsByTagName('g');
if (edges && edges.length) {
  for (var i=0;i<edges.length;i++) {
    if (edges[i].id.substr(0,4)=='edge') {
      edges[i].setAttribute('class','edge');
    }
  }
}
]]></script>
        <defs>
                <circle id="rim" cx="0" cy="0" r="7"/>
                <circle id="rim2" cx="0" cy="0" r="3.5"/>
                <g id="zoomPlus">
                        <use xlink:href="#rim" fill="#404040">
                                <set attributeName="fill" to="#808080" begin="zoomplus.mouseover" end="zoomplus.mouseout"/>
                        </use>
                        <path d="M-4,0h8M0,-4v8" fill="none" stroke="white" stroke-width="1.5" pointer-events="none"/>
                </g>
                <g id="zoomMin">
                        <use xlink:href="#rim" fill="#404040">
                                <set attributeName="fill" to="#808080" begin="zoomminus.mouseover" end="zoomminus.mouseout"/>
                        </use>
                        <path d="M-4,0h8" fill="none" stroke="white" stroke-width="1.5" pointer-events="none"/>
                </g>
                <g id="dirArrow">
                        <path fill="none" stroke="white" stroke-width="1.5" d="M0,-3.0v7 M-2.5,-0.5L0,-3.0L2.5,-0.5"/>
                </g>
               <g id="resetDef">
                       <use xlink:href="#rim2" fill="#404040">
                               <set attributeName="fill" to="#808080" begin="reset.mouseover" end="reset.mouseout"/>
                       </use>
               </g>
        </defs>

<script type="text/javascript">
var viewWidth = 1952;
var viewHeight = 504;
var sectionId = 'dynsection-16';
</script>
<script xlink:href="svgpan.js"/>
<svg id="graph" class="graph">
<g id="viewport">
<title>x265::Quant::transformNxN</title>
<polygon fill="white" stroke="none" points="-4,4 -4,-499.564 1948,-499.564 1948,4 -4,4"/>
<!-- Node1 -->
<g id="node1" class="node"><title>Node1</title>
<polygon fill="#bfbfbf" stroke="black" points="0.5,-225.5 0.5,-244.5 137.5,-244.5 137.5,-225.5 0.5,-225.5"/>
<text text-anchor="middle" x="69" y="-232.5" font-family="Helvetica,sans-Serif" font-size="10.00">x265::Quant::transformNxN</text>
</g>
<!-- Node2 -->
<g id="node2" class="node"><title>Node2</title>
<g id="a_node2"><a xlink:href="classx265_1_1Search.html#a9d5a7faa13067f95fe76558afc63c31b" target="_top" xlink:title="x265::Search::calcIntraChroma\lRecon">
<polygon fill="white" stroke="black" points="177,-324 177,-354 329,-354 329,-324 177,-324"/>
<text text-anchor="start" x="185" y="-342" font-family="Helvetica,sans-Serif" font-size="10.00">x265::Search::calcIntraChroma</text>
<text text-anchor="middle" x="253" y="-331" font-family="Helvetica,sans-Serif" font-size="10.00">Recon</text>
</a>
</g>
</g>
<!-- Node1&#45;&gt;Node2 -->
<g id="edge1" class="edge"><title>Node1&#45;&gt;Node2</title>
<path fill="none" stroke="midnightblue" d="M89.3506,-251.035C109.537,-267.204 142.568,-292.121 174,-309 184.354,-314.56 195.964,-319.605 207,-323.904"/>
<polygon fill="midnightblue" stroke="midnightblue" points="91.499,-248.271 81.5277,-244.69 87.0895,-253.708 91.499,-248.271"/>
</g>
<!-- Node17 -->
<g id="node17" class="node"><title>Node17</title>
<g id="a_node17"><a xlink:href="classx265_1_1Search.html#a59b84ac1e21c86af579b6e84e43c5b7a" target="_top" xlink:title="x265::Search::codeIntraLumaQT">
<polygon fill="white" stroke="black" points="579,-285.5 579,-304.5 737,-304.5 737,-285.5 579,-285.5"/>
<text text-anchor="middle" x="658" y="-292.5" font-family="Helvetica,sans-Serif" font-size="10.00">x265::Search::codeIntraLumaQT</text>
</a>
</g>
</g>
<!-- Node1&#45;&gt;Node17 -->
<g id="edge24" class="edge"><title>Node1&#45;&gt;Node17</title>
<path fill="none" stroke="midnightblue" d="M121.418,-246.64C138.118,-250.083 156.78,-253.575 174,-256 316.035,-276.002 483.123,-286.66 578.888,-291.549"/>
<polygon fill="midnightblue" stroke="midnightblue" points="121.81,-243.146 111.304,-244.513 120.37,-249.996 121.81,-243.146"/>
</g>
<!-- Node19 -->
<g id="node19" class="node"><title>Node19</title>
<g id="a_node19"><a xlink:href="classx265_1_1Search.html#a8179474a0f2f2b7b84da90802f92b06e" target="_top" xlink:title="x265::Search::residualTransform\lQuantIntra">
<polygon fill="white" stroke="black" points="174,-198 174,-228 332,-228 332,-198 174,-198"/>
<text text-anchor="start" x="182" y="-216" font-family="Helvetica,sans-Serif" font-size="10.00">x265::Search::residualTransform</text>
<text text-anchor="middle" x="253" y="-205" font-family="Helvetica,sans-Serif" font-size="10.00">QuantIntra</text>
</a>
</g>
</g>
<!-- Node1&#45;&gt;Node19 -->
<g id="edge28" class="edge"><title>Node1&#45;&gt;Node19</title>
<path fill="none" stroke="midnightblue" d="M147.614,-225.618C156.301,-224.568 165.155,-223.498 173.849,-222.447"/>
<polygon fill="midnightblue" stroke="midnightblue" points="147.019,-222.164 137.511,-226.839 147.859,-229.114 147.019,-222.164"/>
</g>
<!-- Node22 -->
<g id="node22" class="node"><title>Node22</title>
<g id="a_node22"><a xlink:href="classx265_1_1Search.html#a42170100e328cf2504b615ecb2579094" target="_top" xlink:title="x265::Search::residualQTIntra\lChroma">
<polygon fill="white" stroke="black" points="179.5,-149 179.5,-179 326.5,-179 326.5,-149 179.5,-149"/>
<text text-anchor="start" x="187.5" y="-167" font-family="Helvetica,sans-Serif" font-size="10.00">x265::Search::residualQTIntra</text>
<text text-anchor="middle" x="253" y="-156" font-family="Helvetica,sans-Serif" font-size="10.00">Chroma</text>
</a>
</g>
</g>
<!-- Node1&#45;&gt;Node22 -->
<g id="edge33" class="edge"><title>Node1&#45;&gt;Node22</title>
<path fill="none" stroke="midnightblue" d="M98.4109,-220.989C119.09,-211.081 147.921,-197.86 174,-188 182.217,-184.893 191.028,-181.884 199.665,-179.107"/>
<polygon fill="midnightblue" stroke="midnightblue" points="96.7231,-217.917 89.243,-225.421 99.7695,-224.22 96.7231,-217.917"/>
</g>
<!-- Node23 -->
<g id="node23" class="node"><title>Node23</title>
<g id="a_node23"><a xlink:href="classx265_1_1Search.html#a11ea3fb9c65e98f50e348de22593748c" target="_top" xlink:title="x265::Search::residualTransform\lQuantInter">
<polygon fill="white" stroke="black" points="174,-100 174,-130 332,-130 332,-100 174,-100"/>
<text text-anchor="start" x="182" y="-118" font-family="Helvetica,sans-Serif" font-size="10.00">x265::Search::residualTransform</text>
<text text-anchor="middle" x="253" y="-107" font-family="Helvetica,sans-Serif" font-size="10.00">QuantInter</text>
</a>
</g>
</g>
<!-- Node1&#45;&gt;Node23 -->
<g id="edge36" class="edge"><title>Node1&#45;&gt;Node23</title>
<path fill="none" stroke="midnightblue" d="M84.3621,-217.637C102.951,-196.227 137.332,-160.09 174,-139 179.895,-135.609 186.322,-132.646 192.873,-130.07"/>
<polygon fill="midnightblue" stroke="midnightblue" points="81.643,-215.431 77.8258,-225.315 86.9732,-219.969 81.643,-215.431"/>
</g>
<!-- Node24 -->
<g id="node24" class="node"><title>Node24</title>
<g id="a_node24"><a xlink:href="classx265_1_1Search.html#a9f01b6f04dca31dca9f16e60d1c029b3" target="_top" xlink:title="x265::Search::xEstimateResidualQT">
<polygon fill="white" stroke="black" points="570,-247.5 570,-266.5 746,-266.5 746,-247.5 570,-247.5"/>
<text text-anchor="middle" x="658" y="-254.5" font-family="Helvetica,sans-Serif" font-size="10.00">x265::Search::xEstimateResidualQT</text>
</a>
</g>
</g>
<!-- Node1&#45;&gt;Node24 -->
<g id="edge39" class="edge"><title>Node1&#45;&gt;Node24</title>
<path fill="none" stroke="midnightblue" d="M147.917,-237.92C257.219,-242.017 455.456,-249.446 569.634,-253.726"/>
<polygon fill="midnightblue" stroke="midnightblue" points="147.747,-234.411 137.623,-237.534 147.485,-241.407 147.747,-234.411"/>
</g>
<!-- Node3 -->
<g id="node3" class="node"><title>Node3</title>
<g id="a_node3"><a xlink:href="classx265_1_1Search.html#a0ec5d297bb4eba4e9445ff67b35b95fa" target="_top" xlink:title="x265::Search::codeIntraChromaQt">
<polygon fill="white" stroke="black" points="368,-329.5 368,-348.5 534,-348.5 534,-329.5 368,-329.5"/>
<text text-anchor="middle" x="451" y="-336.5" font-family="Helvetica,sans-Serif" font-size="10.00">x265::Search::codeIntraChromaQt</text>
</a>
</g>
</g>
<!-- Node2&#45;&gt;Node3 -->
<g id="edge2" class="edge"><title>Node2&#45;&gt;Node3</title>
<path fill="none" stroke="midnightblue" d="M339.38,-339C348.817,-339 358.413,-339 367.81,-339"/>
<polygon fill="midnightblue" stroke="midnightblue" points="339.218,-335.5 329.218,-339 339.218,-342.5 339.218,-335.5"/>
</g>
<!-- Node4 -->
<g id="node4" class="node"><title>Node4</title>
<g id="a_node4"><a xlink:href="classx265_1_1Search.html#a70d466b561a7463b8ec5a213384ae667" target="_top" xlink:title="x265::Search::estIntraPred\lChromaQT">
<polygon fill="white" stroke="black" points="591,-324 591,-354 725,-354 725,-324 591,-324"/>
<text text-anchor="start" x="599" y="-342" font-family="Helvetica,sans-Serif" font-size="10.00">x265::Search::estIntraPred</text>
<text text-anchor="middle" x="658" y="-331" font-family="Helvetica,sans-Serif" font-size="10.00">ChromaQT</text>
</a>
</g>
</g>
<!-- Node3&#45;&gt;Node4 -->
<g id="edge3" class="edge"><title>Node3&#45;&gt;Node4</title>
<path fill="none" stroke="midnightblue" d="M544.425,-339C560.077,-339 576.045,-339 590.851,-339"/>
<polygon fill="midnightblue" stroke="midnightblue" points="544.2,-335.5 534.2,-339 544.2,-342.5 544.2,-335.5"/>
</g>
<!-- Node5 -->
<g id="node5" class="node"><title>Node5</title>
<g id="a_node5"><a xlink:href="classx265_1_1Analysis.html#ae4d61bcf4d2c22a054d68d6d77136428" target="_top" xlink:title="x265::Analysis::encodeIntra\lInInter">
<polygon fill="white" stroke="black" points="787,-362 787,-392 925,-392 925,-362 787,-362"/>
<text text-anchor="start" x="795" y="-380" font-family="Helvetica,sans-Serif" font-size="10.00">x265::Analysis::encodeIntra</text>
<text text-anchor="middle" x="856" y="-369" font-family="Helvetica,sans-Serif" font-size="10.00">InInter</text>
</a>
</g>
</g>
<!-- Node4&#45;&gt;Node5 -->
<g id="edge4" class="edge"><title>Node4&#45;&gt;Node5</title>
<path fill="none" stroke="midnightblue" d="M735.017,-353.738C752.101,-357.05 770.124,-360.545 786.863,-363.79"/>
<polygon fill="midnightblue" stroke="midnightblue" points="735.567,-350.279 725.083,-351.812 734.234,-357.152 735.567,-350.279"/>
</g>
<!-- Node13 -->
<g id="node13" class="node"><title>Node13</title>
<g id="a_node13"><a xlink:href="classx265_1_1Search.html#ab02df91827cf67796d1605bde60c6aed" target="_top" xlink:title="x265::Search::checkIntra">
<polygon fill="white" stroke="black" points="977,-232.5 977,-251.5 1103,-251.5 1103,-232.5 977,-232.5"/>
<text text-anchor="middle" x="1040" y="-239.5" font-family="Helvetica,sans-Serif" font-size="10.00">x265::Search::checkIntra</text>
</a>
</g>
</g>
<!-- Node4&#45;&gt;Node13 -->
<g id="edge14" class="edge"><title>Node4&#45;&gt;Node13</title>
<path fill="none" stroke="midnightblue" d="M735.179,-348.661C792.617,-352.18 871.266,-348.655 930,-314 954.525,-299.529 942.732,-277.415 966,-261 971.458,-257.15 977.638,-254.08 984.036,-251.632"/>
<polygon fill="midnightblue" stroke="midnightblue" points="735.291,-345.16 725.071,-347.956 734.804,-352.143 735.291,-345.16"/>
</g>
<!-- Node6 -->
<g id="node6" class="node"><title>Node6</title>
<g id="a_node6"><a xlink:href="classx265_1_1Analysis.html#aa6122285d10bb1bd7584958b88b029d5" target="_top" xlink:title="x265::Analysis::parallel\lModeAnalysis">
<polygon fill="white" stroke="black" points="981,-397 981,-427 1099,-427 1099,-397 981,-397"/>
<text text-anchor="start" x="989" y="-415" font-family="Helvetica,sans-Serif" font-size="10.00">x265::Analysis::parallel</text>
<text text-anchor="middle" x="1040" y="-404" font-family="Helvetica,sans-Serif" font-size="10.00">ModeAnalysis</text>
</a>
</g>
</g>
<!-- Node5&#45;&gt;Node6 -->
<g id="edge5" class="edge"><title>Node5&#45;&gt;Node6</title>
<path fill="none" stroke="midnightblue" d="M935.045,-392.009C950.427,-394.967 966.312,-398.022 980.895,-400.826"/>
<polygon fill="midnightblue" stroke="midnightblue" points="935.51,-388.534 925.029,-390.082 934.188,-395.408 935.51,-388.534"/>
</g>
<!-- Node8 -->
<g id="node8" class="node"><title>Node8</title>
<g id="a_node8"><a xlink:href="classx265_1_1Analysis.html#a87060ff27a37f56adc5f5b8a4c033ece" target="_top" xlink:title="x265::Analysis::compress\lInterCU_dist">
<polygon fill="white" stroke="black" points="1332,-378 1332,-408 1462,-408 1462,-378 1332,-378"/>
<text text-anchor="start" x="1340" y="-396" font-family="Helvetica,sans-Serif" font-size="10.00">x265::Analysis::compress</text>
<text text-anchor="middle" x="1397" y="-385" font-family="Helvetica,sans-Serif" font-size="10.00">InterCU_dist</text>
</a>
</g>
</g>
<!-- Node5&#45;&gt;Node8 -->
<g id="edge11" class="edge"><title>Node5&#45;&gt;Node8</title>
<path fill="none" stroke="midnightblue" d="M888.417,-397.326C909.576,-410.167 938.533,-426.139 966,-436 1104.86,-485.851 1156.63,-520.409 1296,-472 1332.37,-459.368 1365.49,-427.412 1382.99,-408.236"/>
<polygon fill="midnightblue" stroke="midnightblue" points="890.201,-394.315 879.853,-392.042 886.525,-400.272 890.201,-394.315"/>
</g>
<!-- Node12 -->
<g id="node12" class="node"><title>Node12</title>
<g id="a_node12"><a xlink:href="classx265_1_1Analysis.html#a30d2ff7eca5addbb0a6b3dfe14f09650" target="_top" xlink:title="x265::Analysis::compress\lInterCU_rd0_4">
<polygon fill="white" stroke="black" points="1332,-255 1332,-285 1462,-285 1462,-255 1332,-255"/>
<text text-anchor="start" x="1340" y="-273" font-family="Helvetica,sans-Serif" font-size="10.00">x265::Analysis::compress</text>
<text text-anchor="middle" x="1397" y="-262" font-family="Helvetica,sans-Serif" font-size="10.00">InterCU_rd0_4</text>
</a>
</g>
</g>
<!-- Node5&#45;&gt;Node12 -->
<g id="edge12" class="edge"><title>Node5&#45;&gt;Node12</title>
<path fill="none" stroke="midnightblue" d="M935.059,-362.503C1022.93,-346.04 1169.91,-318.072 1296,-292 1307.58,-289.606 1319.89,-286.972 1331.77,-284.383"/>
<polygon fill="midnightblue" stroke="midnightblue" points="934.352,-359.074 925.167,-364.355 935.64,-365.955 934.352,-359.074"/>
</g>
<!-- Node7 -->
<g id="node7" class="node"><title>Node7</title>
<g id="a_node7"><a xlink:href="classx265_1_1Analysis.html#a29a58dad4cc1c07d2f5e5717c6be7c25" target="_top" xlink:title="x265::Analysis::findJob">
<polygon fill="white" stroke="black" points="1163.5,-443.5 1163.5,-462.5 1282.5,-462.5 1282.5,-443.5 1163.5,-443.5"/>
<text text-anchor="middle" x="1223" y="-450.5" font-family="Helvetica,sans-Serif" font-size="10.00">x265::Analysis::findJob</text>
</a>
</g>
</g>
<!-- Node6&#45;&gt;Node7 -->
<g id="edge6" class="edge"><title>Node6&#45;&gt;Node7</title>
<path fill="none" stroke="midnightblue" d="M1109.28,-427.468C1133.02,-432.844 1158.92,-438.712 1179.91,-443.466"/>
<polygon fill="midnightblue" stroke="midnightblue" points="1109.79,-423.994 1099.27,-425.198 1108.25,-430.821 1109.79,-423.994"/>
</g>
<!-- Node7&#45;&gt;Node8 -->
<g id="edge7" class="edge"><title>Node7&#45;&gt;Node8</title>
<path fill="none" stroke="midnightblue" d="M1262.73,-440.279C1273.52,-436.684 1285.23,-432.733 1296,-429 1315.35,-422.292 1336.72,-414.633 1354.72,-408.109"/>
<polygon fill="midnightblue" stroke="midnightblue" points="1261.52,-436.992 1253.13,-443.465 1263.72,-443.636 1261.52,-436.992"/>
</g>
<!-- Node9 -->
<g id="node9" class="node"><title>Node9</title>
<g id="a_node9"><a xlink:href="classx265_1_1Analysis.html#aaebc9de2ff98834c650244f3b58942c2" target="_top" xlink:title="x265::Analysis::compressCTU">
<polygon fill="white" stroke="black" points="1498.5,-190.5 1498.5,-209.5 1649.5,-209.5 1649.5,-190.5 1498.5,-190.5"/>
<text text-anchor="middle" x="1574" y="-197.5" font-family="Helvetica,sans-Serif" font-size="10.00">x265::Analysis::compressCTU</text>
</a>
</g>
</g>
<!-- Node8&#45;&gt;Node9 -->
<g id="edge8" class="edge"><title>Node8&#45;&gt;Node9</title>
<path fill="none" stroke="midnightblue" d="M1418.58,-370.308C1456.83,-328.113 1537.46,-239.192 1564.19,-209.72"/>
<polygon fill="midnightblue" stroke="midnightblue" points="1415.86,-368.096 1411.73,-377.856 1421.04,-372.799 1415.86,-368.096"/>
</g>
<!-- Node10 -->
<g id="node10" class="node"><title>Node10</title>
<g id="a_node10"><a xlink:href="classx265_1_1FrameEncoder.html#a0ae85001572afd28238476542523ac5f" target="_top" xlink:title="x265::FrameEncoder\l::processRowEncoder">
<polygon fill="white" stroke="black" points="1686.5,-185 1686.5,-215 1799.5,-215 1799.5,-185 1686.5,-185"/>
<text text-anchor="start" x="1694.5" y="-203" font-family="Helvetica,sans-Serif" font-size="10.00">x265::FrameEncoder</text>
<text text-anchor="middle" x="1743" y="-192" font-family="Helvetica,sans-Serif" font-size="10.00">::processRowEncoder</text>
</a>
</g>
</g>
<!-- Node9&#45;&gt;Node10 -->
<g id="edge9" class="edge"><title>Node9&#45;&gt;Node10</title>
<path fill="none" stroke="midnightblue" d="M1659.86,-200C1668.86,-200 1677.85,-200 1686.39,-200"/>
<polygon fill="midnightblue" stroke="midnightblue" points="1659.71,-196.5 1649.71,-200 1659.71,-203.5 1659.71,-196.5"/>
</g>
<!-- Node11 -->
<g id="node11" class="node"><title>Node11</title>
<g id="a_node11"><a xlink:href="classx265_1_1FrameEncoder.html#acad645a8ece97d884895f8f7366b7d70" target="_top" xlink:title="x265::FrameEncoder\l::processRow">
<polygon fill="white" stroke="red" points="1836.5,-185 1836.5,-215 1943.5,-215 1943.5,-185 1836.5,-185"/>
<text text-anchor="start" x="1844.5" y="-203" font-family="Helvetica,sans-Serif" font-size="10.00">x265::FrameEncoder</text>
<text text-anchor="middle" x="1890" y="-192" font-family="Helvetica,sans-Serif" font-size="10.00">::processRow</text>
</a>
</g>
</g>
<!-- Node10&#45;&gt;Node11 -->
<g id="edge10" class="edge"><title>Node10&#45;&gt;Node11</title>
<path fill="none" stroke="midnightblue" d="M1809.88,-200C1818.67,-200 1827.59,-200 1836.13,-200"/>
<polygon fill="midnightblue" stroke="midnightblue" points="1809.65,-196.5 1799.65,-200 1809.65,-203.5 1809.65,-196.5"/>
</g>
<!-- Node12&#45;&gt;Node9 -->
<g id="edge13" class="edge"><title>Node12&#45;&gt;Node9</title>
<path fill="none" stroke="midnightblue" d="M1445.18,-251.129C1478.8,-237.678 1522.6,-220.16 1549.22,-209.513"/>
<polygon fill="midnightblue" stroke="midnightblue" points="1443.53,-248.02 1435.54,-254.983 1446.13,-254.519 1443.53,-248.02"/>
</g>
<!-- Node14 -->
<g id="node14" class="node"><title>Node14</title>
<g id="a_node14"><a xlink:href="classx265_1_1Analysis.html#a10f0a8d9d143faf8dc671c6f0982693d" target="_top" xlink:title="x265::Analysis::tryLossless">
<polygon fill="white" stroke="black" points="1154.5,-241.5 1154.5,-260.5 1291.5,-260.5 1291.5,-241.5 1154.5,-241.5"/>
<text text-anchor="middle" x="1223" y="-248.5" font-family="Helvetica,sans-Serif" font-size="10.00">x265::Analysis::tryLossless</text>
</a>
</g>
</g>
<!-- Node13&#45;&gt;Node14 -->
<g id="edge15" class="edge"><title>Node13&#45;&gt;Node14</title>
<path fill="none" stroke="midnightblue" d="M1113.29,-245.595C1126.88,-246.27 1141.04,-246.974 1154.47,-247.642"/>
<polygon fill="midnightblue" stroke="midnightblue" points="1113.2,-242.086 1103.04,-245.085 1112.85,-249.077 1113.2,-242.086"/>
</g>
<!-- Node15 -->
<g id="node15" class="node"><title>Node15</title>
<g id="a_node15"><a xlink:href="classx265_1_1Analysis.html#aae2a6a2252270782b591d2bed7e99dae" target="_top" xlink:title="x265::Analysis::compress\lIntraCU">
<polygon fill="white" stroke="black" points="1332,-185 1332,-215 1462,-215 1462,-185 1332,-185"/>
<text text-anchor="start" x="1340" y="-203" font-family="Helvetica,sans-Serif" font-size="10.00">x265::Analysis::compress</text>
<text text-anchor="middle" x="1397" y="-192" font-family="Helvetica,sans-Serif" font-size="10.00">IntraCU</text>
</a>
</g>
</g>
<!-- Node13&#45;&gt;Node15 -->
<g id="edge22" class="edge"><title>Node13&#45;&gt;Node15</title>
<path fill="none" stroke="midnightblue" d="M1113.28,-233.449C1177.39,-225.864 1270.16,-214.888 1331.73,-207.604"/>
<polygon fill="midnightblue" stroke="midnightblue" points="1112.76,-229.985 1103.24,-234.636 1113.58,-236.937 1112.76,-229.985"/>
</g>
<!-- Node16 -->
<g id="node16" class="node"><title>Node16</title>
<g id="a_node16"><a xlink:href="classx265_1_1Analysis.html#a0b22b7765aa4a36b1ba6d07ba26901e6" target="_top" xlink:title="x265::Analysis::compress\lInterCU_rd5_6">
<polygon fill="white" stroke="black" points="1332,-116 1332,-146 1462,-146 1462,-116 1332,-116"/>
<text text-anchor="start" x="1340" y="-134" font-family="Helvetica,sans-Serif" font-size="10.00">x265::Analysis::compress</text>
<text text-anchor="middle" x="1397" y="-123" font-family="Helvetica,sans-Serif" font-size="10.00">InterCU_rd5_6</text>
</a>
</g>
</g>
<!-- Node13&#45;&gt;Node16 -->
<g id="edge23" class="edge"><title>Node13&#45;&gt;Node16</title>
<path fill="none" stroke="midnightblue" d="M1045.62,-222.569C1056.21,-182.914 1086.39,-93.3497 1150,-57 1206.34,-24.8041 1234.38,-36.6784 1296,-57 1331.07,-68.5662 1363.91,-97.6982 1381.85,-115.769"/>
<polygon fill="midnightblue" stroke="midnightblue" points="1042.2,-221.791 1043.14,-232.344 1048.99,-223.512 1042.2,-221.791"/>
</g>
<!-- Node14&#45;&gt;Node8 -->
<g id="edge18" class="edge"><title>Node14&#45;&gt;Node8</title>
<path fill="none" stroke="midnightblue" d="M1243.68,-267.251C1277.27,-294.977 1345.16,-351.027 1377.74,-377.927"/>
<polygon fill="midnightblue" stroke="midnightblue" points="1245.49,-264.205 1235.55,-260.538 1241.04,-269.603 1245.49,-264.205"/>
</g>
<!-- Node14&#45;&gt;Node12 -->
<g id="edge19" class="edge"><title>Node14&#45;&gt;Node12</title>
<path fill="none" stroke="midnightblue" d="M1301.93,-259.608C1311.95,-260.715 1322.11,-261.838 1331.88,-262.917"/>
<polygon fill="midnightblue" stroke="midnightblue" points="1302.3,-256.129 1291.98,-258.509 1301.53,-263.086 1302.3,-256.129"/>
</g>
<!-- Node14&#45;&gt;Node15 -->
<g id="edge16" class="edge"><title>Node14&#45;&gt;Node15</title>
<path fill="none" stroke="midnightblue" d="M1266.17,-238.496C1290.03,-231.42 1320.04,-222.522 1345.2,-215.064"/>
<polygon fill="midnightblue" stroke="midnightblue" points="1264.94,-235.209 1256.35,-241.407 1266.93,-241.92 1264.94,-235.209"/>
</g>
<!-- Node14&#45;&gt;Node16 -->
<g id="edge20" class="edge"><title>Node14&#45;&gt;Node16</title>
<path fill="none" stroke="midnightblue" d="M1245.84,-235.524C1267.62,-220.117 1302.06,-195.827 1332,-175 1345.95,-165.299 1361.67,-154.488 1374.04,-146.01"/>
<polygon fill="midnightblue" stroke="midnightblue" points="1243.75,-232.72 1237.61,-241.354 1247.79,-238.434 1243.75,-232.72"/>
</g>
<!-- Node15&#45;&gt;Node9 -->
<g id="edge17" class="edge"><title>Node15&#45;&gt;Node9</title>
<path fill="none" stroke="midnightblue" d="M1472.25,-200C1480.93,-200 1489.78,-200 1498.47,-200"/>
<polygon fill="midnightblue" stroke="midnightblue" points="1472.17,-196.5 1462.17,-200 1472.17,-203.5 1472.17,-196.5"/>
</g>
<!-- Node16&#45;&gt;Node9 -->
<g id="edge21" class="edge"><title>Node16&#45;&gt;Node9</title>
<path fill="none" stroke="midnightblue" d="M1445.96,-149.909C1479.26,-163.039 1522.24,-179.984 1548.69,-190.416"/>
<polygon fill="midnightblue" stroke="midnightblue" points="1446.99,-146.554 1436.4,-146.142 1444.42,-153.066 1446.99,-146.554"/>
</g>
<!-- Node17&#45;&gt;Node5 -->
<g id="edge25" class="edge"><title>Node17&#45;&gt;Node5</title>
<path fill="none" stroke="midnightblue" d="M724.847,-307.098C732.081,-309.099 739.26,-311.389 746,-314 778.203,-326.473 812.176,-347.548 833.467,-361.855"/>
<polygon fill="midnightblue" stroke="midnightblue" points="725.543,-303.663 714.985,-304.547 723.79,-310.44 725.543,-303.663"/>
</g>
<!-- Node18 -->
<g id="node18" class="node"><title>Node18</title>
<g id="a_node18"><a xlink:href="classx265_1_1Search.html#a1778d2ab96ac88c7f76d36818d6adbdd" target="_top" xlink:title="x265::Search::estIntraPredQT">
<polygon fill="white" stroke="black" points="782.5,-285.5 782.5,-304.5 929.5,-304.5 929.5,-285.5 782.5,-285.5"/>
<text text-anchor="middle" x="856" y="-292.5" font-family="Helvetica,sans-Serif" font-size="10.00">x265::Search::estIntraPredQT</text>
</a>
</g>
</g>
<!-- Node17&#45;&gt;Node18 -->
<g id="edge26" class="edge"><title>Node17&#45;&gt;Node18</title>
<path fill="none" stroke="midnightblue" d="M747.268,-295C758.996,-295 770.912,-295 782.335,-295"/>
<polygon fill="midnightblue" stroke="midnightblue" points="747.028,-291.5 737.028,-295 747.028,-298.5 747.028,-291.5"/>
</g>
<!-- Node18&#45;&gt;Node13 -->
<g id="edge27" class="edge"><title>Node18&#45;&gt;Node13</title>
<path fill="none" stroke="midnightblue" d="M896.201,-282.275C916.89,-275.686 942.742,-267.65 966,-261 977.332,-257.76 989.719,-254.45 1001.02,-251.519"/>
<polygon fill="midnightblue" stroke="midnightblue" points="894.951,-279 886.494,-285.381 897.085,-285.667 894.951,-279"/>
</g>
<!-- Node20 -->
<g id="node20" class="node"><title>Node20</title>
<g id="a_node20"><a xlink:href="classx265_1_1Analysis.html#a88ad2880a5a8bcad5cfd5d6ea630b265" target="_top" xlink:title="x265::Analysis::encodeResidue">
<polygon fill="white" stroke="black" points="373.5,-120.5 373.5,-139.5 528.5,-139.5 528.5,-120.5 373.5,-120.5"/>
<text text-anchor="middle" x="451" y="-127.5" font-family="Helvetica,sans-Serif" font-size="10.00">x265::Analysis::encodeResidue</text>
</a>
</g>
</g>
<!-- Node19&#45;&gt;Node20 -->
<g id="edge29" class="edge"><title>Node19&#45;&gt;Node20</title>
<path fill="none" stroke="midnightblue" d="M317.357,-194.36C322.379,-192.38 327.316,-190.257 332,-188 349.323,-179.652 351.038,-173.059 368,-164 385.808,-154.489 406.863,-145.809 423.179,-139.6"/>
<polygon fill="midnightblue" stroke="midnightblue" points="315.781,-191.212 307.638,-197.99 318.231,-197.77 315.781,-191.212"/>
</g>
<!-- Node21 -->
<g id="node21" class="node"><title>Node21</title>
<g id="a_node21"><a xlink:href="classx265_1_1Search.html#a5284cffef18fe6884b268ea28f21f22f" target="_top" xlink:title="x265::Search::generateCoeff\lRecon">
<polygon fill="white" stroke="black" points="380,-174 380,-204 522,-204 522,-174 380,-174"/>
<text text-anchor="start" x="388" y="-192" font-family="Helvetica,sans-Serif" font-size="10.00">x265::Search::generateCoeff</text>
<text text-anchor="middle" x="451" y="-181" font-family="Helvetica,sans-Serif" font-size="10.00">Recon</text>
</a>
</g>
</g>
<!-- Node19&#45;&gt;Node21 -->
<g id="edge31" class="edge"><title>Node19&#45;&gt;Node21</title>
<path fill="none" stroke="midnightblue" d="M342.106,-202.212C354.753,-200.663 367.621,-199.087 379.858,-197.589"/>
<polygon fill="midnightblue" stroke="midnightblue" points="341.528,-198.756 332.028,-203.446 342.379,-205.704 341.528,-198.756"/>
</g>
<!-- Node20&#45;&gt;Node9 -->
<g id="edge30" class="edge"><title>Node20&#45;&gt;Node9</title>
<path fill="none" stroke="midnightblue" d="M477.794,-115.42C540.359,-81.4689 706.015,-0 855,-0 855,-0 855,-0 1224,-0 1379.03,-0 1527.63,-150.403 1564.37,-190.354"/>
<polygon fill="midnightblue" stroke="midnightblue" points="475.734,-112.558 468.656,-120.441 479.106,-118.692 475.734,-112.558"/>
</g>
<!-- Node21&#45;&gt;Node12 -->
<g id="edge32" class="edge"><title>Node21&#45;&gt;Node12</title>
<path fill="none" stroke="midnightblue" d="M532.269,-184.859C683.534,-178.859 1020.37,-174.108 1296,-232 1319.45,-236.925 1344.66,-246.535 1363.9,-254.859"/>
<polygon fill="midnightblue" stroke="midnightblue" points="531.987,-181.367 522.139,-185.273 532.274,-188.361 531.987,-181.367"/>
</g>
<!-- Node22&#45;&gt;Node20 -->
<g id="edge34" class="edge"><title>Node22&#45;&gt;Node20</title>
<path fill="none" stroke="midnightblue" d="M336.635,-149.665C356.405,-146.236 377.03,-142.658 395.183,-139.509"/>
<polygon fill="midnightblue" stroke="midnightblue" points="335.959,-146.23 326.705,-151.388 337.156,-153.127 335.959,-146.23"/>
</g>
<!-- Node22&#45;&gt;Node21 -->
<g id="edge35" class="edge"><title>Node22&#45;&gt;Node21</title>
<path fill="none" stroke="midnightblue" d="M336.966,-174.582C351.188,-176.396 365.843,-178.266 379.693,-180.032"/>
<polygon fill="midnightblue" stroke="midnightblue" points="337.067,-171.067 326.705,-173.274 336.181,-178.011 337.067,-171.067"/>
</g>
<!-- Node23&#45;&gt;Node20 -->
<g id="edge37" class="edge"><title>Node23&#45;&gt;Node20</title>
<path fill="none" stroke="midnightblue" d="M342.279,-121.756C352.595,-122.546 363.057,-123.346 373.2,-124.122"/>
<polygon fill="midnightblue" stroke="midnightblue" points="342.266,-118.245 332.028,-120.971 341.731,-125.224 342.266,-118.245"/>
</g>
<!-- Node23&#45;&gt;Node21 -->
<g id="edge38" class="edge"><title>Node23&#45;&gt;Node21</title>
<path fill="none" stroke="midnightblue" d="M315.091,-133.14C320.832,-135.042 326.543,-137.01 332,-139 361.16,-149.632 393.579,-163.524 417.046,-173.966"/>
<polygon fill="midnightblue" stroke="midnightblue" points="316.029,-129.764 305.437,-130.008 313.869,-136.423 316.029,-129.764"/>
</g>
<!-- Node25 -->
<g id="node25" class="node"><title>Node25</title>
<g id="a_node25"><a xlink:href="classx265_1_1Search.html#aba5e04ce529f41accd43c540ba1dc7ad" target="_top" xlink:title="x265::Search::encodeResAnd\lCalcRdInterCU">
<polygon fill="white" stroke="black" points="966.5,-271 966.5,-301 1113.5,-301 1113.5,-271 966.5,-271"/>
<text text-anchor="start" x="974.5" y="-289" font-family="Helvetica,sans-Serif" font-size="10.00">x265::Search::encodeResAnd</text>
<text text-anchor="middle" x="1040" y="-278" font-family="Helvetica,sans-Serif" font-size="10.00">CalcRdInterCU</text>
</a>
</g>
</g>
<!-- Node24&#45;&gt;Node25 -->
<g id="edge40" class="edge"><title>Node24&#45;&gt;Node25</title>
<path fill="none" stroke="midnightblue" d="M756.443,-263.324C808.049,-266.801 872.486,-271.346 930,-276 941.744,-276.95 954.192,-278.027 966.316,-279.113"/>
<polygon fill="midnightblue" stroke="midnightblue" points="756.511,-259.82 746.299,-262.643 756.042,-266.805 756.511,-259.82"/>
</g>
<!-- Node25&#45;&gt;Node8 -->
<g id="edge42" class="edge"><title>Node25&#45;&gt;Node8</title>
<path fill="none" stroke="midnightblue" d="M1056.06,-309.682C1074.5,-336.225 1108.46,-377.794 1150,-395 1208.1,-419.067 1280.75,-414.786 1331.99,-406.805"/>
<polygon fill="midnightblue" stroke="midnightblue" points="1058.91,-307.645 1050.41,-301.313 1053.1,-311.56 1058.91,-307.645"/>
</g>
<!-- Node25&#45;&gt;Node12 -->
<g id="edge43" class="edge"><title>Node25&#45;&gt;Node12</title>
<path fill="none" stroke="midnightblue" d="M1124.07,-282.256C1187.47,-279.399 1273.55,-275.519 1331.74,-272.896"/>
<polygon fill="midnightblue" stroke="midnightblue" points="1123.53,-278.777 1113.7,-282.724 1123.84,-285.77 1123.53,-278.777"/>
</g>
<!-- Node25&#45;&gt;Node14 -->
<g id="edge41" class="edge"><title>Node25&#45;&gt;Node14</title>
<path fill="none" stroke="midnightblue" d="M1123.43,-270.06C1140.28,-266.802 1157.5,-263.472 1172.74,-260.526"/>
<polygon fill="midnightblue" stroke="midnightblue" points="1122.73,-266.631 1113.58,-271.966 1124.06,-273.504 1122.73,-266.631"/>
</g>
<!-- Node26 -->
<g id="node26" class="node"><title>Node26</title>
<g id="a_node26"><a xlink:href="classx265_1_1Analysis.html#addd72cb95590e2b2a6965d42d110eab3" target="_top" xlink:title="x265::Analysis::checkMerge2\lNx2N_rd0_4">
<polygon fill="white" stroke="black" points="1150,-356 1150,-386 1296,-386 1296,-356 1150,-356"/>
<text text-anchor="start" x="1158" y="-374" font-family="Helvetica,sans-Serif" font-size="10.00">x265::Analysis::checkMerge2</text>
<text text-anchor="middle" x="1223" y="-363" font-family="Helvetica,sans-Serif" font-size="10.00">Nx2N_rd0_4</text>
</a>
</g>
</g>
<!-- Node25&#45;&gt;Node26 -->
<g id="edge44" class="edge"><title>Node25&#45;&gt;Node26</title>
<path fill="none" stroke="midnightblue" d="M1082.22,-305.356C1114.84,-320.674 1159.74,-341.764 1189.77,-355.863"/>
<polygon fill="midnightblue" stroke="midnightblue" points="1083.48,-302.083 1072.94,-301.001 1080.51,-308.419 1083.48,-302.083"/>
</g>
<!-- Node27 -->
<g id="node27" class="node"><title>Node27</title>
<g id="a_node27"><a xlink:href="classx265_1_1Analysis.html#a0194a9da53aa95173fa1132ba3aea1c7" target="_top" xlink:title="x265::Analysis::checkMerge2\lNx2N_rd5_6">
<polygon fill="white" stroke="black" points="1150,-116 1150,-146 1296,-146 1296,-116 1150,-116"/>
<text text-anchor="start" x="1158" y="-134" font-family="Helvetica,sans-Serif" font-size="10.00">x265::Analysis::checkMerge2</text>
<text text-anchor="middle" x="1223" y="-123" font-family="Helvetica,sans-Serif" font-size="10.00">Nx2N_rd5_6</text>
</a>
</g>
</g>
<!-- Node25&#45;&gt;Node27 -->
<g id="edge47" class="edge"><title>Node25&#45;&gt;Node27</title>
<path fill="none" stroke="midnightblue" d="M1105.03,-266.467C1108.15,-264.78 1111.16,-262.961 1114,-261 1159.89,-229.349 1197.15,-173.07 1213.32,-146.156"/>
<polygon fill="midnightblue" stroke="midnightblue" points="1103.47,-263.336 1096.02,-270.876 1106.54,-269.623 1103.47,-263.336"/>
</g>
<!-- Node28 -->
<g id="node28" class="node"><title>Node28</title>
<g id="a_node28"><a xlink:href="classx265_1_1Analysis.html#a828daa3e9f1ed40a1af9f99f7ff7bb33" target="_top" xlink:title="x265::Analysis::checkInter\l_rd5_6">
<polygon fill="white" stroke="black" points="1156.5,-67 1156.5,-97 1289.5,-97 1289.5,-67 1156.5,-67"/>
<text text-anchor="start" x="1164.5" y="-85" font-family="Helvetica,sans-Serif" font-size="10.00">x265::Analysis::checkInter</text>
<text text-anchor="middle" x="1223" y="-74" font-family="Helvetica,sans-Serif" font-size="10.00">_rd5_6</text>
</a>
</g>
</g>
<!-- Node25&#45;&gt;Node28 -->
<g id="edge49" class="edge"><title>Node25&#45;&gt;Node28</title>
<path fill="none" stroke="midnightblue" d="M1110.18,-264.789C1111.52,-263.595 1112.8,-262.333 1114,-261 1161.4,-208.514 1102.38,-158.292 1150,-106 1153.1,-102.59 1156.71,-99.6641 1160.61,-97.1533"/>
<polygon fill="midnightblue" stroke="midnightblue" points="1107.84,-262.162 1101.89,-270.922 1112.01,-267.79 1107.84,-262.162"/>
</g>
<!-- Node26&#45;&gt;Node8 -->
<g id="edge45" class="edge"><title>Node26&#45;&gt;Node8</title>
<path fill="none" stroke="midnightblue" d="M1306.42,-381.542C1314.96,-382.634 1323.54,-383.732 1331.83,-384.792"/>
<polygon fill="midnightblue" stroke="midnightblue" points="1306.81,-378.063 1296.44,-380.266 1305.92,-385.007 1306.81,-378.063"/>
</g>
<!-- Node26&#45;&gt;Node12 -->
<g id="edge46" class="edge"><title>Node26&#45;&gt;Node12</title>
<path fill="none" stroke="midnightblue" d="M1274.12,-351.817C1281.59,-348.474 1289.09,-344.831 1296,-341 1325.98,-324.382 1357.81,-300.584 1377.29,-285.21"/>
<polygon fill="midnightblue" stroke="midnightblue" points="1272.52,-348.696 1264.73,-355.881 1275.3,-355.12 1272.52,-348.696"/>
</g>
<!-- Node27&#45;&gt;Node16 -->
<g id="edge48" class="edge"><title>Node27&#45;&gt;Node16</title>
<path fill="none" stroke="midnightblue" d="M1306.7,-131C1315.14,-131 1323.63,-131 1331.83,-131"/>
<polygon fill="midnightblue" stroke="midnightblue" points="1306.45,-127.5 1296.44,-131 1306.44,-134.5 1306.45,-127.5"/>
</g>
<!-- Node28&#45;&gt;Node16 -->
<g id="edge50" class="edge"><title>Node28&#45;&gt;Node16</title>
<path fill="none" stroke="midnightblue" d="M1286.81,-99.8941C1305.31,-105.164 1325.36,-110.876 1343.17,-115.948"/>
<polygon fill="midnightblue" stroke="midnightblue" points="1287.59,-96.4753 1277.01,-97.1014 1285.67,-103.207 1287.59,-96.4753"/>
</g>
</g>
</svg>
        <g id="navigator" transform="translate(0 0)" fill="#404254">
                <rect fill="#f2f5e9" fill-opacity="0.5" stroke="#606060" stroke-width=".5" x="0" y="0" width="60" height="60"/>
                <use id="zoomplus" xlink:href="#zoomPlus" x="17" y="9" onmousedown="handleZoom(evt,'in')"/>
                <use id="zoomminus" xlink:href="#zoomMin" x="42" y="9" onmousedown="handleZoom(evt,'out')"/>
                <use id="reset" xlink:href="#resetDef" x="30" y="36" onmousedown="handleReset()"/>
                <g id="arrowUp" xlink:href="#dirArrow" transform="translate(30 24)" onmousedown="handlePan(0,-1)">
                  <use xlink:href="#rim" fill="#404040">
                        <set attributeName="fill" to="#808080" begin="arrowUp.mouseover" end="arrowUp.mouseout"/>
                  </use>
                  <path fill="none" stroke="white" stroke-width="1.5" d="M0,-3.0v7 M-2.5,-0.5L0,-3.0L2.5,-0.5"/>
                </g>
                <g id="arrowRight" xlink:href="#dirArrow" transform="rotate(90) translate(36 -43)" onmousedown="handlePan(1,0)">
                  <use xlink:href="#rim" fill="#404040">
                        <set attributeName="fill" to="#808080" begin="arrowRight.mouseover" end="arrowRight.mouseout"/>
                  </use>
                  <path fill="none" stroke="white" stroke-width="1.5" d="M0,-3.0v7 M-2.5,-0.5L0,-3.0L2.5,-0.5"/>
                </g>
                <g id="arrowDown" xlink:href="#dirArrow" transform="rotate(180) translate(-30 -48)" onmousedown="handlePan(0,1)">
                  <use xlink:href="#rim" fill="#404040">
                        <set attributeName="fill" to="#808080" begin="arrowDown.mouseover" end="arrowDown.mouseout"/>
                  </use>
                  <path fill="none" stroke="white" stroke-width="1.5" d="M0,-3.0v7 M-2.5,-0.5L0,-3.0L2.5,-0.5"/>
                </g>
                <g id="arrowLeft" xlink:href="#dirArrow" transform="rotate(270) translate(-36 17)" onmousedown="handlePan(-1,0)">
                  <use xlink:href="#rim" fill="#404040">
                        <set attributeName="fill" to="#808080" begin="arrowLeft.mouseover" end="arrowLeft.mouseout"/>
                  </use>
                  <path fill="none" stroke="white" stroke-width="1.5" d="M0,-3.0v7 M-2.5,-0.5L0,-3.0L2.5,-0.5"/>
                </g>
        </g>
        <svg viewBox="0 0 15 15" width="100%" height="30px" preserveAspectRatio="xMaxYMin meet">
         <g id="arrow_out" transform="scale(0.3 0.3)">
          <a xlink:href="classx265_1_1Quant_a2d9fecd5e50c8f9ba36dd799a1f07d5c_icgraph_org.svg" target="_base">
           <rect id="button" ry="5" rx="5" y="6" x="6" height="38" width="38"
                fill="#f2f5e9" fill-opacity="0.5" stroke="#606060" stroke-width="1.0"/>
           <path id="arrow"
             d="M 11.500037,31.436501 C 11.940474,20.09759 22.043105,11.32322 32.158766,21.979434 L 37.068811,17.246167 C 37.068811,17.246167 37.088388,32 37.088388,32 L 22.160133,31.978069 C 22.160133,31.978069 26.997745,27.140456 26.997745,27.140456 C 18.528582,18.264221 13.291696,25.230495 11.500037,31.436501 z"
             style="fill:#404040;"/>
          </a>
         </g>
        </svg>
</svg>
