<?xml version="1.0" encoding="UTF-8" standalone="no"?>
<!DOCTYPE svg PUBLIC "-//W3C//DTD SVG 1.1//EN"
 "http://www.w3.org/Graphics/SVG/1.1/DTD/svg11.dtd">
<!-- Generated by graphviz version 2.36.0 (20140111.2315)
 -->
<!-- Title: x265::Yuv::addClip Pages: 1 -->
<!--zoomable 263 -->
<svg id="main" version="1.1" xmlns="http://www.w3.org/2000/svg" xmlns:xlink="http://www.w3.org/1999/xlink" xml:space="preserve" onload="init(evt)">
<style type="text/css"><![CDATA[
.edge:hover path { stroke: red; }
.edge:hover polygon { stroke: red; fill: red; }
]]></style>
<script type="text/javascript"><![CDATA[
var edges = document.getElementsByTagName('g');
if (edges && edges.length) {
  for (var i=0;i<edges.length;i++) {
    if (edges[i].id.substr(0,4)=='edge') {
      edges[i].setAttribute('class','edge');
    }
  }
}
]]></script>
        <defs>
                <circle id="rim" cx="0" cy="0" r="7"/>
                <circle id="rim2" cx="0" cy="0" r="3.5"/>
                <g id="zoomPlus">
                        <use xlink:href="#rim" fill="#404040">
                                <set attributeName="fill" to="#808080" begin="zoomplus.mouseover" end="zoomplus.mouseout"/>
                        </use>
                        <path d="M-4,0h8M0,-4v8" fill="none" stroke="white" stroke-width="1.5" pointer-events="none"/>
                </g>
                <g id="zoomMin">
                        <use xlink:href="#rim" fill="#404040">
                                <set attributeName="fill" to="#808080" begin="zoomminus.mouseover" end="zoomminus.mouseout"/>
                        </use>
                        <path d="M-4,0h8" fill="none" stroke="white" stroke-width="1.5" pointer-events="none"/>
                </g>
                <g id="dirArrow">
                        <path fill="none" stroke="white" stroke-width="1.5" d="M0,-3.0v7 M-2.5,-0.5L0,-3.0L2.5,-0.5"/>
                </g>
               <g id="resetDef">
                       <use xlink:href="#rim2" fill="#404040">
                               <set attributeName="fill" to="#808080" begin="reset.mouseover" end="reset.mouseout"/>
                       </use>
               </g>
        </defs>

<script type="text/javascript">
var viewWidth = 1558;
var viewHeight = 263;
var sectionId = 'dynsection-3';
</script>
<script xlink:href="svgpan.js"/>
<svg id="graph" class="graph">
<g id="viewport">
<title>x265::Yuv::addClip</title>
<polygon fill="white" stroke="none" points="-4,4 -4,-259.337 1554,-259.337 1554,4 -4,4"/>
<!-- Node1 -->
<g id="node1" class="node"><title>Node1</title>
<polygon fill="#bfbfbf" stroke="black" points="0,-55.8368 0,-74.8368 100,-74.8368 100,-55.8368 0,-55.8368"/>
<text text-anchor="middle" x="50" y="-62.8368" font-family="Helvetica,sans-Serif" font-size="10.00">x265::Yuv::addClip</text>
</g>
<!-- Node2 -->
<g id="node2" class="node"><title>Node2</title>
<g id="a_node2"><a xlink:href="classx265_1_1Search.html#aba5e04ce529f41accd43c540ba1dc7ad" target="_top" xlink:title="x265::Search::encodeResAnd\lCalcRdInterCU">
<polygon fill="white" stroke="black" points="136.5,-94.3368 136.5,-124.337 283.5,-124.337 283.5,-94.3368 136.5,-94.3368"/>
<text text-anchor="start" x="144.5" y="-112.337" font-family="Helvetica,sans-Serif" font-size="10.00">x265::Search::encodeResAnd</text>
<text text-anchor="middle" x="210" y="-101.337" font-family="Helvetica,sans-Serif" font-size="10.00">CalcRdInterCU</text>
</a>
</g>
</g>
<!-- Node1&#45;&gt;Node2 -->
<g id="edge1" class="edge"><title>Node1&#45;&gt;Node2</title>
<path fill="none" stroke="midnightblue" d="M94.9534,-77.577C113.53,-82.7502 135.349,-88.8265 154.902,-94.2715"/>
<polygon fill="midnightblue" stroke="midnightblue" points="95.8561,-74.1953 85.2836,-74.8842 93.9781,-80.9387 95.8561,-74.1953"/>
</g>
<!-- Node17 -->
<g id="node17" class="node"><title>Node17</title>
<g id="a_node17"><a xlink:href="classx265_1_1Search.html#a5284cffef18fe6884b268ea28f21f22f" target="_top" xlink:title="x265::Search::generateCoeff\lRecon">
<polygon fill="white" stroke="black" points="139,-7.33682 139,-37.3368 281,-37.3368 281,-7.33682 139,-7.33682"/>
<text text-anchor="start" x="147" y="-25.3368" font-family="Helvetica,sans-Serif" font-size="10.00">x265::Search::generateCoeff</text>
<text text-anchor="middle" x="210" y="-14.3368" font-family="Helvetica,sans-Serif" font-size="10.00">Recon</text>
</a>
</g>
</g>
<!-- Node1&#45;&gt;Node17 -->
<g id="edge25" class="edge"><title>Node1&#45;&gt;Node17</title>
<path fill="none" stroke="midnightblue" d="M95.7664,-53.1536C113.834,-48.2365 134.863,-42.5134 153.861,-37.3431"/>
<polygon fill="midnightblue" stroke="midnightblue" points="94.7952,-49.7905 86.0653,-55.7937 96.6335,-56.5448 94.7952,-49.7905"/>
</g>
<!-- Node3 -->
<g id="node3" class="node"><title>Node3</title>
<g id="a_node3"><a xlink:href="classx265_1_1Analysis.html#a10f0a8d9d143faf8dc671c6f0982693d" target="_top" xlink:title="x265::Analysis::tryLossless">
<polygon fill="white" stroke="black" points="324.5,-137.837 324.5,-156.837 461.5,-156.837 461.5,-137.837 324.5,-137.837"/>
<text text-anchor="middle" x="393" y="-144.837" font-family="Helvetica,sans-Serif" font-size="10.00">x265::Analysis::tryLossless</text>
</a>
</g>
</g>
<!-- Node2&#45;&gt;Node3 -->
<g id="edge2" class="edge"><title>Node2&#45;&gt;Node3</title>
<path fill="none" stroke="midnightblue" d="M292.513,-126.45C311.144,-130.362 330.289,-134.381 346.746,-137.836"/>
<polygon fill="midnightblue" stroke="midnightblue" points="293.042,-122.985 282.536,-124.355 291.603,-129.835 293.042,-122.985"/>
</g>
<!-- Node11 -->
<g id="node11" class="node"><title>Node11</title>
<g id="a_node11"><a xlink:href="classx265_1_1Analysis.html#a87060ff27a37f56adc5f5b8a4c033ece" target="_top" xlink:title="x265::Analysis::compress\lInterCU_dist">
<polygon fill="white" stroke="black" points="502,-83.3368 502,-113.337 632,-113.337 632,-83.3368 502,-83.3368"/>
<text text-anchor="start" x="510" y="-101.337" font-family="Helvetica,sans-Serif" font-size="10.00">x265::Analysis::compress</text>
<text text-anchor="middle" x="567" y="-90.3368" font-family="Helvetica,sans-Serif" font-size="10.00">InterCU_dist</text>
</a>
</g>
</g>
<!-- Node2&#45;&gt;Node11 -->
<g id="edge16" class="edge"><title>Node2&#45;&gt;Node11</title>
<path fill="none" stroke="midnightblue" d="M294.065,-106.763C357.468,-104.798 443.549,-102.131 501.744,-100.328"/>
<polygon fill="midnightblue" stroke="midnightblue" points="293.583,-103.276 283.696,-107.084 293.8,-110.273 293.583,-103.276"/>
</g>
<!-- Node12 -->
<g id="node12" class="node"><title>Node12</title>
<g id="a_node12"><a xlink:href="classx265_1_1Analysis.html#a30d2ff7eca5addbb0a6b3dfe14f09650" target="_top" xlink:title="x265::Analysis::compress\lInterCU_rd0_4">
<polygon fill="white" stroke="black" points="502,-34.3368 502,-64.3368 632,-64.3368 632,-34.3368 502,-34.3368"/>
<text text-anchor="start" x="510" y="-52.3368" font-family="Helvetica,sans-Serif" font-size="10.00">x265::Analysis::compress</text>
<text text-anchor="middle" x="567" y="-41.3368" font-family="Helvetica,sans-Serif" font-size="10.00">InterCU_rd0_4</text>
</a>
</g>
</g>
<!-- Node2&#45;&gt;Node12 -->
<g id="edge17" class="edge"><title>Node2&#45;&gt;Node12</title>
<path fill="none" stroke="midnightblue" d="M235.978,-87.6692C256.854,-71.0857 288.238,-49.545 320,-40.3368 379.928,-22.963 451.514,-28.3335 501.968,-36.1565"/>
<polygon fill="midnightblue" stroke="midnightblue" points="233.512,-85.1639 227.974,-94.1962 237.936,-90.5887 233.512,-85.1639"/>
</g>
<!-- Node14 -->
<g id="node14" class="node"><title>Node14</title>
<g id="a_node14"><a xlink:href="classx265_1_1Analysis.html#addd72cb95590e2b2a6965d42d110eab3" target="_top" xlink:title="x265::Analysis::checkMerge2\lNx2N_rd0_4">
<polygon fill="white" stroke="black" points="320,-50.3368 320,-80.3368 466,-80.3368 466,-50.3368 320,-50.3368"/>
<text text-anchor="start" x="328" y="-68.3368" font-family="Helvetica,sans-Serif" font-size="10.00">x265::Analysis::checkMerge2</text>
<text text-anchor="middle" x="393" y="-57.3368" font-family="Helvetica,sans-Serif" font-size="10.00">Nx2N_rd0_4</text>
</a>
</g>
</g>
<!-- Node2&#45;&gt;Node14 -->
<g id="edge18" class="edge"><title>Node2&#45;&gt;Node14</title>
<path fill="none" stroke="midnightblue" d="M282.929,-91.8514C298.568,-88.0496 314.981,-84.0598 330.188,-80.363"/>
<polygon fill="midnightblue" stroke="midnightblue" points="281.674,-88.5544 272.784,-94.3176 283.327,-95.3563 281.674,-88.5544"/>
</g>
<!-- Node15 -->
<g id="node15" class="node"><title>Node15</title>
<g id="a_node15"><a xlink:href="classx265_1_1Analysis.html#a0194a9da53aa95173fa1132ba3aea1c7" target="_top" xlink:title="x265::Analysis::checkMerge2\lNx2N_rd5_6">
<polygon fill="white" stroke="black" points="320,-225.337 320,-255.337 466,-255.337 466,-225.337 320,-225.337"/>
<text text-anchor="start" x="328" y="-243.337" font-family="Helvetica,sans-Serif" font-size="10.00">x265::Analysis::checkMerge2</text>
<text text-anchor="middle" x="393" y="-232.337" font-family="Helvetica,sans-Serif" font-size="10.00">Nx2N_rd5_6</text>
</a>
</g>
</g>
<!-- Node2&#45;&gt;Node15 -->
<g id="edge21" class="edge"><title>Node2&#45;&gt;Node15</title>
<path fill="none" stroke="midnightblue" d="M229.278,-132.281C249.288,-156.037 283.427,-192.771 320,-215.337 326.081,-219.089 332.8,-222.37 339.618,-225.213"/>
<polygon fill="midnightblue" stroke="midnightblue" points="231.881,-129.937 222.809,-124.464 226.488,-134.4 231.881,-129.937"/>
</g>
<!-- Node16 -->
<g id="node16" class="node"><title>Node16</title>
<g id="a_node16"><a xlink:href="classx265_1_1Analysis.html#a828daa3e9f1ed40a1af9f99f7ff7bb33" target="_top" xlink:title="x265::Analysis::checkInter\l_rd5_6">
<polygon fill="white" stroke="black" points="326.5,-176.337 326.5,-206.337 459.5,-206.337 459.5,-176.337 326.5,-176.337"/>
<text text-anchor="start" x="334.5" y="-194.337" font-family="Helvetica,sans-Serif" font-size="10.00">x265::Analysis::checkInter</text>
<text text-anchor="middle" x="393" y="-183.337" font-family="Helvetica,sans-Serif" font-size="10.00">_rd5_6</text>
</a>
</g>
</g>
<!-- Node2&#45;&gt;Node16 -->
<g id="edge23" class="edge"><title>Node2&#45;&gt;Node16</title>
<path fill="none" stroke="midnightblue" d="M246.23,-129.454C267.267,-141.036 294.729,-155.413 320,-166.337 328.138,-169.855 336.948,-173.243 345.52,-176.33"/>
<polygon fill="midnightblue" stroke="midnightblue" points="247.782,-126.312 237.341,-124.516 244.383,-132.431 247.782,-126.312"/>
</g>
<!-- Node4 -->
<g id="node4" class="node"><title>Node4</title>
<g id="a_node4"><a xlink:href="classx265_1_1Analysis.html#aae2a6a2252270782b591d2bed7e99dae" target="_top" xlink:title="x265::Analysis::compress\lIntraCU">
<polygon fill="white" stroke="black" points="502,-132.337 502,-162.337 632,-162.337 632,-132.337 502,-132.337"/>
<text text-anchor="start" x="510" y="-150.337" font-family="Helvetica,sans-Serif" font-size="10.00">x265::Analysis::compress</text>
<text text-anchor="middle" x="567" y="-139.337" font-family="Helvetica,sans-Serif" font-size="10.00">IntraCU</text>
</a>
</g>
</g>
<!-- Node3&#45;&gt;Node4 -->
<g id="edge3" class="edge"><title>Node3&#45;&gt;Node4</title>
<path fill="none" stroke="midnightblue" d="M472.242,-147.337C482.159,-147.337 492.215,-147.337 501.877,-147.337"/>
<polygon fill="midnightblue" stroke="midnightblue" points="471.979,-143.837 461.979,-147.337 471.979,-150.837 471.979,-143.837"/>
</g>
<!-- Node3&#45;&gt;Node11 -->
<g id="edge10" class="edge"><title>Node3&#45;&gt;Node11</title>
<path fill="none" stroke="midnightblue" d="M437.406,-134.971C460.436,-128.41 488.917,-120.297 513.217,-113.374"/>
<polygon fill="midnightblue" stroke="midnightblue" points="436.23,-131.667 427.572,-137.773 438.148,-138.399 436.23,-131.667"/>
</g>
<!-- Node3&#45;&gt;Node12 -->
<g id="edge12" class="edge"><title>Node3&#45;&gt;Node12</title>
<path fill="none" stroke="midnightblue" d="M414.168,-131.306C435.19,-115.141 469.537,-90.2268 502,-73.3368 508.211,-70.1054 514.959,-67.0886 521.665,-64.3593"/>
<polygon fill="midnightblue" stroke="midnightblue" points="411.761,-128.745 406.019,-137.65 416.06,-134.269 411.761,-128.745"/>
</g>
<!-- Node13 -->
<g id="node13" class="node"><title>Node13</title>
<g id="a_node13"><a xlink:href="classx265_1_1Analysis.html#a0b22b7765aa4a36b1ba6d07ba26901e6" target="_top" xlink:title="x265::Analysis::compress\lInterCU_rd5_6">
<polygon fill="white" stroke="black" points="502,-181.337 502,-211.337 632,-211.337 632,-181.337 502,-181.337"/>
<text text-anchor="start" x="510" y="-199.337" font-family="Helvetica,sans-Serif" font-size="10.00">x265::Analysis::compress</text>
<text text-anchor="middle" x="567" y="-188.337" font-family="Helvetica,sans-Serif" font-size="10.00">InterCU_rd5_6</text>
</a>
</g>
</g>
<!-- Node3&#45;&gt;Node13 -->
<g id="edge14" class="edge"><title>Node3&#45;&gt;Node13</title>
<path fill="none" stroke="midnightblue" d="M440.768,-159.435C449.182,-161.681 457.861,-164.043 466,-166.337 482.661,-171.033 500.807,-176.4 517.013,-181.284"/>
<polygon fill="midnightblue" stroke="midnightblue" points="441.626,-156.042 431.063,-156.864 439.833,-162.808 441.626,-156.042"/>
</g>
<!-- Node5 -->
<g id="node5" class="node"><title>Node5</title>
<g id="a_node5"><a xlink:href="classx265_1_1Analysis.html#aaebc9de2ff98834c650244f3b58942c2" target="_top" xlink:title="x265::Analysis::compressCTU">
<polygon fill="white" stroke="black" points="668.5,-112.837 668.5,-131.837 819.5,-131.837 819.5,-112.837 668.5,-112.837"/>
<text text-anchor="middle" x="744" y="-119.837" font-family="Helvetica,sans-Serif" font-size="10.00">x265::Analysis::compressCTU</text>
</a>
</g>
</g>
<!-- Node4&#45;&gt;Node5 -->
<g id="edge4" class="edge"><title>Node4&#45;&gt;Node5</title>
<path fill="none" stroke="midnightblue" d="M642.103,-136.751C653.521,-135.12 665.25,-133.444 676.489,-131.838"/>
<polygon fill="midnightblue" stroke="midnightblue" points="641.574,-133.291 632.17,-138.17 642.564,-140.22 641.574,-133.291"/>
</g>
<!-- Node6 -->
<g id="node6" class="node"><title>Node6</title>
<g id="a_node6"><a xlink:href="classx265_1_1FrameEncoder.html#a0ae85001572afd28238476542523ac5f" target="_top" xlink:title="x265::FrameEncoder\l::processRowEncoder">
<polygon fill="white" stroke="black" points="856.5,-107.337 856.5,-137.337 969.5,-137.337 969.5,-107.337 856.5,-107.337"/>
<text text-anchor="start" x="864.5" y="-125.337" font-family="Helvetica,sans-Serif" font-size="10.00">x265::FrameEncoder</text>
<text text-anchor="middle" x="913" y="-114.337" font-family="Helvetica,sans-Serif" font-size="10.00">::processRowEncoder</text>
</a>
</g>
</g>
<!-- Node5&#45;&gt;Node6 -->
<g id="edge5" class="edge"><title>Node5&#45;&gt;Node6</title>
<path fill="none" stroke="midnightblue" d="M829.86,-122.337C838.863,-122.337 847.845,-122.337 856.388,-122.337"/>
<polygon fill="midnightblue" stroke="midnightblue" points="829.708,-118.837 819.708,-122.337 829.708,-125.837 829.708,-118.837"/>
</g>
<!-- Node7 -->
<g id="node7" class="node"><title>Node7</title>
<g id="a_node7"><a xlink:href="classx265_1_1FrameEncoder.html#acad645a8ece97d884895f8f7366b7d70" target="_top" xlink:title="x265::FrameEncoder\l::processRow">
<polygon fill="white" stroke="black" points="1006.5,-107.337 1006.5,-137.337 1113.5,-137.337 1113.5,-107.337 1006.5,-107.337"/>
<text text-anchor="start" x="1014.5" y="-125.337" font-family="Helvetica,sans-Serif" font-size="10.00">x265::FrameEncoder</text>
<text text-anchor="middle" x="1060" y="-114.337" font-family="Helvetica,sans-Serif" font-size="10.00">::processRow</text>
</a>
</g>
</g>
<!-- Node6&#45;&gt;Node7 -->
<g id="edge6" class="edge"><title>Node6&#45;&gt;Node7</title>
<path fill="none" stroke="midnightblue" d="M979.877,-122.337C988.67,-122.337 997.594,-122.337 1006.13,-122.337"/>
<polygon fill="midnightblue" stroke="midnightblue" points="979.646,-118.837 969.646,-122.337 979.646,-125.837 979.646,-118.837"/>
</g>
<!-- Node8 -->
<g id="node8" class="node"><title>Node8</title>
<g id="a_node8"><a xlink:href="classx265_1_1FrameEncoder.html#ac4e9ce2e876c0cdb25c992c872fe4302" target="_top" xlink:title="x265::FrameEncoder\l::compressCTURows">
<polygon fill="white" stroke="black" points="1150,-107.337 1150,-137.337 1262,-137.337 1262,-107.337 1150,-107.337"/>
<text text-anchor="start" x="1158" y="-125.337" font-family="Helvetica,sans-Serif" font-size="10.00">x265::FrameEncoder</text>
<text text-anchor="middle" x="1206" y="-114.337" font-family="Helvetica,sans-Serif" font-size="10.00">::compressCTURows</text>
</a>
</g>
</g>
<!-- Node7&#45;&gt;Node8 -->
<g id="edge7" class="edge"><title>Node7&#45;&gt;Node8</title>
<path fill="none" stroke="midnightblue" d="M1123.83,-122.337C1132.48,-122.337 1141.3,-122.337 1149.79,-122.337"/>
<polygon fill="midnightblue" stroke="midnightblue" points="1123.8,-118.837 1113.8,-122.337 1123.8,-125.837 1123.8,-118.837"/>
</g>
<!-- Node9 -->
<g id="node9" class="node"><title>Node9</title>
<g id="a_node9"><a xlink:href="classx265_1_1FrameEncoder.html#a2f5c4c0f1a4e36fce4c9b87eb7ec4973" target="_top" xlink:title="x265::FrameEncoder\l::compressFrame">
<polygon fill="white" stroke="black" points="1298.5,-107.337 1298.5,-137.337 1405.5,-137.337 1405.5,-107.337 1298.5,-107.337"/>
<text text-anchor="start" x="1306.5" y="-125.337" font-family="Helvetica,sans-Serif" font-size="10.00">x265::FrameEncoder</text>
<text text-anchor="middle" x="1352" y="-114.337" font-family="Helvetica,sans-Serif" font-size="10.00">::compressFrame</text>
</a>
</g>
</g>
<!-- Node8&#45;&gt;Node9 -->
<g id="edge8" class="edge"><title>Node8&#45;&gt;Node9</title>
<path fill="none" stroke="midnightblue" d="M1272.42,-122.337C1281.15,-122.337 1290.02,-122.337 1298.49,-122.337"/>
<polygon fill="midnightblue" stroke="midnightblue" points="1272.26,-118.837 1262.26,-122.337 1272.26,-125.837 1272.26,-118.837"/>
</g>
<!-- Node10 -->
<g id="node10" class="node"><title>Node10</title>
<g id="a_node10"><a xlink:href="classx265_1_1FrameEncoder.html#aef61f29b9e93b3af9255d96236bc90a7" target="_top" xlink:title="x265::FrameEncoder\l::threadMain">
<polygon fill="white" stroke="black" points="1442.5,-107.337 1442.5,-137.337 1549.5,-137.337 1549.5,-107.337 1442.5,-107.337"/>
<text text-anchor="start" x="1450.5" y="-125.337" font-family="Helvetica,sans-Serif" font-size="10.00">x265::FrameEncoder</text>
<text text-anchor="middle" x="1496" y="-114.337" font-family="Helvetica,sans-Serif" font-size="10.00">::threadMain</text>
</a>
</g>
</g>
<!-- Node9&#45;&gt;Node10 -->
<g id="edge9" class="edge"><title>Node9&#45;&gt;Node10</title>
<path fill="none" stroke="midnightblue" d="M1415.99,-122.337C1424.7,-122.337 1433.58,-122.337 1442.08,-122.337"/>
<polygon fill="midnightblue" stroke="midnightblue" points="1415.88,-118.837 1405.88,-122.337 1415.88,-125.837 1415.88,-118.837"/>
</g>
<!-- Node11&#45;&gt;Node5 -->
<g id="edge11" class="edge"><title>Node11&#45;&gt;Node5</title>
<path fill="none" stroke="midnightblue" d="M642.393,-108.539C652.722,-109.956 663.299,-111.406 673.533,-112.81"/>
<polygon fill="midnightblue" stroke="midnightblue" points="642.553,-105.029 632.17,-107.137 641.602,-111.964 642.553,-105.029"/>
</g>
<!-- Node12&#45;&gt;Node5 -->
<g id="edge13" class="edge"><title>Node12&#45;&gt;Node5</title>
<path fill="none" stroke="midnightblue" d="M618.489,-67.9632C623.071,-69.7459 627.629,-71.5541 632,-73.3368 663.793,-86.3033 700.101,-102.623 722.284,-112.769"/>
<polygon fill="midnightblue" stroke="midnightblue" points="619.695,-64.6771 609.105,-64.356 617.184,-71.211 619.695,-64.6771"/>
</g>
<!-- Node13&#45;&gt;Node5 -->
<g id="edge15" class="edge"><title>Node13&#45;&gt;Node5</title>
<path fill="none" stroke="midnightblue" d="M617.05,-177.427C622.111,-175.401 627.167,-173.346 632,-171.337 663.51,-158.235 699.59,-142.093 721.838,-132.005"/>
<polygon fill="midnightblue" stroke="midnightblue" points="615.374,-174.327 607.37,-181.268 617.955,-180.833 615.374,-174.327"/>
</g>
<!-- Node14&#45;&gt;Node11 -->
<g id="edge19" class="edge"><title>Node14&#45;&gt;Node11</title>
<path fill="none" stroke="midnightblue" d="M476.422,-81.1504C484.957,-82.7879 493.539,-84.4345 501.831,-86.0254"/>
<polygon fill="midnightblue" stroke="midnightblue" points="476.925,-77.6832 466.445,-79.2362 475.606,-84.5578 476.925,-77.6832"/>
</g>
<!-- Node14&#45;&gt;Node12 -->
<g id="edge20" class="edge"><title>Node14&#45;&gt;Node12</title>
<path fill="none" stroke="midnightblue" d="M476.422,-57.6696C484.957,-56.8757 493.539,-56.0774 501.831,-55.306"/>
<polygon fill="midnightblue" stroke="midnightblue" points="476.078,-54.1865 466.445,-58.5978 476.726,-61.1564 476.078,-54.1865"/>
</g>
<!-- Node15&#45;&gt;Node13 -->
<g id="edge22" class="edge"><title>Node15&#45;&gt;Node13</title>
<path fill="none" stroke="midnightblue" d="M462.777,-222.743C477.511,-218.974 492.948,-215.025 507.261,-211.363"/>
<polygon fill="midnightblue" stroke="midnightblue" points="461.532,-219.448 452.712,-225.318 463.267,-226.23 461.532,-219.448"/>
</g>
<!-- Node16&#45;&gt;Node13 -->
<g id="edge24" class="edge"><title>Node16&#45;&gt;Node13</title>
<path fill="none" stroke="midnightblue" d="M469.698,-193.537C480.409,-193.849 491.336,-194.166 501.803,-194.471"/>
<polygon fill="midnightblue" stroke="midnightblue" points="469.614,-190.034 459.516,-193.241 469.411,-197.031 469.614,-190.034"/>
</g>
<!-- Node17&#45;&gt;Node12 -->
<g id="edge26" class="edge"><title>Node17&#45;&gt;Node12</title>
<path fill="none" stroke="midnightblue" d="M291.115,-7.19099C341.72,-0.183826 408.227,4.30294 466,-7.33682 491.658,-12.5064 518.935,-24.4443 538.508,-34.2766"/>
<polygon fill="midnightblue" stroke="midnightblue" points="290.609,-3.72755 281.213,-8.62199 291.611,-10.6556 290.609,-3.72755"/>
</g>
</g>
</svg>
        <g id="navigator" transform="translate(0 0)" fill="#404254">
                <rect fill="#f2f5e9" fill-opacity="0.5" stroke="#606060" stroke-width=".5" x="0" y="0" width="60" height="60"/>
                <use id="zoomplus" xlink:href="#zoomPlus" x="17" y="9" onmousedown="handleZoom(evt,'in')"/>
                <use id="zoomminus" xlink:href="#zoomMin" x="42" y="9" onmousedown="handleZoom(evt,'out')"/>
                <use id="reset" xlink:href="#resetDef" x="30" y="36" onmousedown="handleReset()"/>
                <g id="arrowUp" xlink:href="#dirArrow" transform="translate(30 24)" onmousedown="handlePan(0,-1)">
                  <use xlink:href="#rim" fill="#404040">
                        <set attributeName="fill" to="#808080" begin="arrowUp.mouseover" end="arrowUp.mouseout"/>
                  </use>
                  <path fill="none" stroke="white" stroke-width="1.5" d="M0,-3.0v7 M-2.5,-0.5L0,-3.0L2.5,-0.5"/>
                </g>
                <g id="arrowRight" xlink:href="#dirArrow" transform="rotate(90) translate(36 -43)" onmousedown="handlePan(1,0)">
                  <use xlink:href="#rim" fill="#404040">
                        <set attributeName="fill" to="#808080" begin="arrowRight.mouseover" end="arrowRight.mouseout"/>
                  </use>
                  <path fill="none" stroke="white" stroke-width="1.5" d="M0,-3.0v7 M-2.5,-0.5L0,-3.0L2.5,-0.5"/>
                </g>
                <g id="arrowDown" xlink:href="#dirArrow" transform="rotate(180) translate(-30 -48)" onmousedown="handlePan(0,1)">
                  <use xlink:href="#rim" fill="#404040">
                        <set attributeName="fill" to="#808080" begin="arrowDown.mouseover" end="arrowDown.mouseout"/>
                  </use>
                  <path fill="none" stroke="white" stroke-width="1.5" d="M0,-3.0v7 M-2.5,-0.5L0,-3.0L2.5,-0.5"/>
                </g>
                <g id="arrowLeft" xlink:href="#dirArrow" transform="rotate(270) translate(-36 17)" onmousedown="handlePan(-1,0)">
                  <use xlink:href="#rim" fill="#404040">
                        <set attributeName="fill" to="#808080" begin="arrowLeft.mouseover" end="arrowLeft.mouseout"/>
                  </use>
                  <path fill="none" stroke="white" stroke-width="1.5" d="M0,-3.0v7 M-2.5,-0.5L0,-3.0L2.5,-0.5"/>
                </g>
        </g>
        <svg viewBox="0 0 15 15" width="100%" height="30px" preserveAspectRatio="xMaxYMin meet">
         <g id="arrow_out" transform="scale(0.3 0.3)">
          <a xlink:href="classx265_1_1Yuv_a60de53e681de9797715bcd76c2d71dea_icgraph_org.svg" target="_base">
           <rect id="button" ry="5" rx="5" y="6" x="6" height="38" width="38"
                fill="#f2f5e9" fill-opacity="0.5" stroke="#606060" stroke-width="1.0"/>
           <path id="arrow"
             d="M 11.500037,31.436501 C 11.940474,20.09759 22.043105,11.32322 32.158766,21.979434 L 37.068811,17.246167 C 37.068811,17.246167 37.088388,32 37.088388,32 L 22.160133,31.978069 C 22.160133,31.978069 26.997745,27.140456 26.997745,27.140456 C 18.528582,18.264221 13.291696,25.230495 11.500037,31.436501 z"
             style="fill:#404040;"/>
          </a>
         </g>
        </svg>
</svg>
