<?xml version="1.0" encoding="UTF-8" standalone="no"?>
<!DOCTYPE svg PUBLIC "-//W3C//DTD SVG 1.1//EN"
 "http://www.w3.org/Graphics/SVG/1.1/DTD/svg11.dtd">
<!-- Generated by graphviz version 2.36.0 (20140111.2315)
 -->
<!-- Title: x265::Entropy::codePredWeightTable Pages: 1 -->
<svg width="816pt" height="134pt"
 viewBox="0.00 0.00 816.00 134.00" xmlns="http://www.w3.org/2000/svg" xmlns:xlink="http://www.w3.org/1999/xlink">
<g id="graph0" class="graph" transform="scale(1 1) rotate(0) translate(4 130)">
<title>x265::Entropy::codePredWeightTable</title>
<polygon fill="white" stroke="none" points="-4,4 -4,-130 812,-130 812,4 -4,4"/>
<!-- Node1 -->
<g id="node1" class="node"><title>Node1</title>
<polygon fill="#bfbfbf" stroke="black" points="0.5,-49 0.5,-79 155.5,-79 155.5,-49 0.5,-49"/>
<text text-anchor="start" x="8.5" y="-67" font-family="Helvetica,sans-Serif" font-size="10.00">x265::Entropy::codePredWeight</text>
<text text-anchor="middle" x="78" y="-56" font-family="Helvetica,sans-Serif" font-size="10.00">Table</text>
</g>
<!-- Node2 -->
<g id="node2" class="node"><title>Node2</title>
<g id="a_node2"><a xlink:href="classx265_1_1SyntaxElementWriter.html#a44c3a048bbeb0eb105c37cfc17b40864" target="_top" xlink:title="x265::SyntaxElementWriter\l::WRITE_UVLC">
<polygon fill="white" stroke="black" points="366.5,-96 366.5,-126 503.5,-126 503.5,-96 366.5,-96"/>
<text text-anchor="start" x="374.5" y="-114" font-family="Helvetica,sans-Serif" font-size="10.00">x265::SyntaxElementWriter</text>
<text text-anchor="middle" x="435" y="-103" font-family="Helvetica,sans-Serif" font-size="10.00">::WRITE_UVLC</text>
</a>
</g>
</g>
<!-- Node1&#45;&gt;Node2 -->
<g id="edge1" class="edge"><title>Node1&#45;&gt;Node2</title>
<path fill="none" stroke="midnightblue" d="M143.601,-79.0508C159.37,-82.3561 176.24,-85.5855 192,-88 246.605,-96.3655 308.638,-102.189 356.227,-105.884"/>
<polygon fill="midnightblue" stroke="midnightblue" points="356.224,-109.393 366.461,-106.663 356.755,-102.414 356.224,-109.393"/>
</g>
<!-- Node5 -->
<g id="node5" class="node"><title>Node5</title>
<g id="a_node5"><a xlink:href="classx265_1_1SyntaxElementWriter.html#abd043bffe2e86e34473d57508388ebce" target="_top" xlink:title="x265::SyntaxElementWriter\l::WRITE_SVLC">
<polygon fill="white" stroke="black" points="192.5,-49 192.5,-79 329.5,-79 329.5,-49 192.5,-49"/>
<text text-anchor="start" x="200.5" y="-67" font-family="Helvetica,sans-Serif" font-size="10.00">x265::SyntaxElementWriter</text>
<text text-anchor="middle" x="261" y="-56" font-family="Helvetica,sans-Serif" font-size="10.00">::WRITE_SVLC</text>
</a>
</g>
</g>
<!-- Node1&#45;&gt;Node5 -->
<g id="edge4" class="edge"><title>Node1&#45;&gt;Node5</title>
<path fill="none" stroke="midnightblue" d="M155.76,-64C164.486,-64 173.386,-64 182.126,-64"/>
<polygon fill="midnightblue" stroke="midnightblue" points="182.293,-67.5001 192.293,-64 182.293,-60.5001 182.293,-67.5001"/>
</g>
<!-- Node7 -->
<g id="node7" class="node"><title>Node7</title>
<g id="a_node7"><a xlink:href="classx265_1_1SyntaxElementWriter.html#a2d204a2fc0b37616f9a614bf037a3dd6" target="_top" xlink:title="x265::SyntaxElementWriter\l::WRITE_FLAG">
<polygon fill="white" stroke="black" points="192.5,-0 192.5,-30 329.5,-30 329.5,-0 192.5,-0"/>
<text text-anchor="start" x="200.5" y="-18" font-family="Helvetica,sans-Serif" font-size="10.00">x265::SyntaxElementWriter</text>
<text text-anchor="middle" x="261" y="-7" font-family="Helvetica,sans-Serif" font-size="10.00">::WRITE_FLAG</text>
</a>
</g>
</g>
<!-- Node1&#45;&gt;Node7 -->
<g id="edge7" class="edge"><title>Node1&#45;&gt;Node7</title>
<path fill="none" stroke="midnightblue" d="M134.783,-48.8986C153.71,-43.7747 175.025,-38.0044 194.63,-32.6968"/>
<polygon fill="midnightblue" stroke="midnightblue" points="195.663,-36.0432 204.401,-30.0516 193.834,-29.2864 195.663,-36.0432"/>
</g>
<!-- Node3 -->
<g id="node3" class="node"><title>Node3</title>
<g id="a_node3"><a xlink:href="classx265_1_1SyntaxElementWriter.html#af0151cc567598deee8f51decf2ab915d" target="_top" xlink:title="x265::SyntaxElementWriter\l::writeUvlc">
<polygon fill="white" stroke="black" points="540.5,-49 540.5,-79 677.5,-79 677.5,-49 540.5,-49"/>
<text text-anchor="start" x="548.5" y="-67" font-family="Helvetica,sans-Serif" font-size="10.00">x265::SyntaxElementWriter</text>
<text text-anchor="middle" x="609" y="-56" font-family="Helvetica,sans-Serif" font-size="10.00">::writeUvlc</text>
</a>
</g>
</g>
<!-- Node2&#45;&gt;Node3 -->
<g id="edge2" class="edge"><title>Node2&#45;&gt;Node3</title>
<path fill="none" stroke="midnightblue" d="M490.895,-95.9997C507.496,-91.4633 525.885,-86.4385 543.076,-81.7409"/>
<polygon fill="midnightblue" stroke="midnightblue" points="544.313,-85.0312 553.037,-79.019 542.468,-78.2788 544.313,-85.0312"/>
</g>
<!-- Node4 -->
<g id="node4" class="node"><title>Node4</title>
<g id="a_node4"><a xlink:href="classx265_1_1BitInterface.html#a28a79d8b25645cdd59d6ff004d4851dc" target="_top" xlink:title="x265::BitInterface\l::write">
<polygon fill="white" stroke="black" points="714,-24 714,-54 808,-54 808,-24 714,-24"/>
<text text-anchor="start" x="722" y="-42" font-family="Helvetica,sans-Serif" font-size="10.00">x265::BitInterface</text>
<text text-anchor="middle" x="761" y="-31" font-family="Helvetica,sans-Serif" font-size="10.00">::write</text>
</a>
</g>
</g>
<!-- Node3&#45;&gt;Node4 -->
<g id="edge3" class="edge"><title>Node3&#45;&gt;Node4</title>
<path fill="none" stroke="midnightblue" d="M677.54,-52.7433C686.371,-51.2715 695.341,-49.7765 703.954,-48.3409"/>
<polygon fill="midnightblue" stroke="midnightblue" points="704.583,-51.7845 713.872,-46.688 703.432,-44.8797 704.583,-51.7845"/>
</g>
<!-- Node6 -->
<g id="node6" class="node"><title>Node6</title>
<g id="a_node6"><a xlink:href="classx265_1_1SyntaxElementWriter.html#aaa4cbfe0fa90daf355de0c7d7f4f5788" target="_top" xlink:title="x265::SyntaxElementWriter\l::writeSvlc">
<polygon fill="white" stroke="black" points="366.5,-47 366.5,-77 503.5,-77 503.5,-47 366.5,-47"/>
<text text-anchor="start" x="374.5" y="-65" font-family="Helvetica,sans-Serif" font-size="10.00">x265::SyntaxElementWriter</text>
<text text-anchor="middle" x="435" y="-54" font-family="Helvetica,sans-Serif" font-size="10.00">::writeSvlc</text>
</a>
</g>
</g>
<!-- Node5&#45;&gt;Node6 -->
<g id="edge5" class="edge"><title>Node5&#45;&gt;Node6</title>
<path fill="none" stroke="midnightblue" d="M329.979,-63.2095C338.55,-63.1099 347.372,-63.0073 356.082,-62.906"/>
<polygon fill="midnightblue" stroke="midnightblue" points="356.275,-66.4041 366.233,-62.788 356.193,-59.4046 356.275,-66.4041"/>
</g>
<!-- Node6&#45;&gt;Node3 -->
<g id="edge6" class="edge"><title>Node6&#45;&gt;Node3</title>
<path fill="none" stroke="midnightblue" d="M503.979,-62.7905C512.55,-62.8901 521.372,-62.9927 530.082,-63.094"/>
<polygon fill="midnightblue" stroke="midnightblue" points="530.193,-66.5954 540.233,-63.212 530.275,-59.5959 530.193,-66.5954"/>
</g>
<!-- Node8 -->
<g id="node8" class="node"><title>Node8</title>
<g id="a_node8"><a xlink:href="classx265_1_1SyntaxElementWriter.html#a3bfaf3088405d61eeba90f10c0a17afc" target="_top" xlink:title="x265::SyntaxElementWriter\l::writeFlag">
<polygon fill="white" stroke="black" points="540.5,-0 540.5,-30 677.5,-30 677.5,-0 540.5,-0"/>
<text text-anchor="start" x="548.5" y="-18" font-family="Helvetica,sans-Serif" font-size="10.00">x265::SyntaxElementWriter</text>
<text text-anchor="middle" x="609" y="-7" font-family="Helvetica,sans-Serif" font-size="10.00">::writeFlag</text>
</a>
</g>
</g>
<!-- Node7&#45;&gt;Node8 -->
<g id="edge8" class="edge"><title>Node7&#45;&gt;Node8</title>
<path fill="none" stroke="midnightblue" d="M329.534,-15C387.073,-15 469.782,-15 530.106,-15"/>
<polygon fill="midnightblue" stroke="midnightblue" points="530.342,-18.5001 540.342,-15 530.342,-11.5001 530.342,-18.5001"/>
</g>
<!-- Node8&#45;&gt;Node4 -->
<g id="edge9" class="edge"><title>Node8&#45;&gt;Node4</title>
<path fill="none" stroke="midnightblue" d="M677.54,-25.8064C686.371,-27.2194 695.341,-28.6546 703.954,-30.0327"/>
<polygon fill="midnightblue" stroke="midnightblue" points="703.444,-33.4955 713.872,-31.6195 704.55,-26.5835 703.444,-33.4955"/>
</g>
</g>
</svg>
