<?xml version="1.0" encoding="UTF-8" standalone="no"?>
<!DOCTYPE svg PUBLIC "-//W3C//DTD SVG 1.1//EN"
 "http://www.w3.org/Graphics/SVG/1.1/DTD/svg11.dtd">
<!-- Generated by graphviz version 2.36.0 (20140111.2315)
 -->
<!-- Title: x265::Entropy::getNumberOfWrittenBits Pages: 1 -->
<!--zoomable 631 -->
<svg id="main" version="1.1" xmlns="http://www.w3.org/2000/svg" xmlns:xlink="http://www.w3.org/1999/xlink" xml:space="preserve" onload="init(evt)">
<style type="text/css"><![CDATA[
.edge:hover path { stroke: red; }
.edge:hover polygon { stroke: red; fill: red; }
]]></style>
<script type="text/javascript"><![CDATA[
var edges = document.getElementsByTagName('g');
if (edges && edges.length) {
  for (var i=0;i<edges.length;i++) {
    if (edges[i].id.substr(0,4)=='edge') {
      edges[i].setAttribute('class','edge');
    }
  }
}
]]></script>
        <defs>
                <circle id="rim" cx="0" cy="0" r="7"/>
                <circle id="rim2" cx="0" cy="0" r="3.5"/>
                <g id="zoomPlus">
                        <use xlink:href="#rim" fill="#404040">
                                <set attributeName="fill" to="#808080" begin="zoomplus.mouseover" end="zoomplus.mouseout"/>
                        </use>
                        <path d="M-4,0h8M0,-4v8" fill="none" stroke="white" stroke-width="1.5" pointer-events="none"/>
                </g>
                <g id="zoomMin">
                        <use xlink:href="#rim" fill="#404040">
                                <set attributeName="fill" to="#808080" begin="zoomminus.mouseover" end="zoomminus.mouseout"/>
                        </use>
                        <path d="M-4,0h8" fill="none" stroke="white" stroke-width="1.5" pointer-events="none"/>
                </g>
                <g id="dirArrow">
                        <path fill="none" stroke="white" stroke-width="1.5" d="M0,-3.0v7 M-2.5,-0.5L0,-3.0L2.5,-0.5"/>
                </g>
               <g id="resetDef">
                       <use xlink:href="#rim2" fill="#404040">
                               <set attributeName="fill" to="#808080" begin="reset.mouseover" end="reset.mouseout"/>
                       </use>
               </g>
        </defs>

<script type="text/javascript">
var viewWidth = 1458;
var viewHeight = 631;
var sectionId = 'dynsection-118';
</script>
<script xlink:href="svgpan.js"/>
<svg id="graph" class="graph">
<g id="viewport">
<title>x265::Entropy::getNumberOfWrittenBits</title>
<polygon fill="white" stroke="none" points="-4,4 -4,-627.085 1454,-627.085 1454,4 -4,4"/>
<!-- Node1 -->
<g id="node1" class="node"><title>Node1</title>
<polygon fill="#bfbfbf" stroke="black" points="0.5,-269 0.5,-299 131.5,-299 131.5,-269 0.5,-269"/>
<text text-anchor="start" x="8.5" y="-287" font-family="Helvetica,sans-Serif" font-size="10.00">x265::Entropy::getNumber</text>
<text text-anchor="middle" x="66" y="-276" font-family="Helvetica,sans-Serif" font-size="10.00">OfWrittenBits</text>
</g>
<!-- Node2 -->
<g id="node2" class="node"><title>Node2</title>
<g id="a_node2"><a xlink:href="classx265_1_1Analysis.html#ae4d61bcf4d2c22a054d68d6d77136428" target="_top" xlink:title="x265::Analysis::encodeIntra\lInInter">
<polygon fill="white" stroke="black" points="587,-444 587,-474 725,-474 725,-444 587,-444"/>
<text text-anchor="start" x="595" y="-462" font-family="Helvetica,sans-Serif" font-size="10.00">x265::Analysis::encodeIntra</text>
<text text-anchor="middle" x="656" y="-451" font-family="Helvetica,sans-Serif" font-size="10.00">InInter</text>
</a>
</g>
</g>
<!-- Node1&#45;&gt;Node2 -->
<g id="edge1" class="edge"><title>Node1&#45;&gt;Node2</title>
<path fill="none" stroke="midnightblue" d="M78.3423,-308.113C93.9104,-338.19 124.949,-388.51 168,-412 203.884,-431.58 461.168,-448.289 586.597,-455.373"/>
<polygon fill="midnightblue" stroke="midnightblue" points="81.4446,-306.492 73.8357,-299.119 75.1862,-309.627 81.4446,-306.492"/>
</g>
<!-- Node8 -->
<g id="node8" class="node"><title>Node8</title>
<g id="a_node8"><a xlink:href="classx265_1_1Analysis.html#a0796e917a2fe8334eba82a1062d7f48b" target="_top" xlink:title="x265::Analysis::addSplit\lFlagCost">
<polygon fill="white" stroke="black" points="962,-273 962,-303 1084,-303 1084,-273 962,-273"/>
<text text-anchor="start" x="970" y="-291" font-family="Helvetica,sans-Serif" font-size="10.00">x265::Analysis::addSplit</text>
<text text-anchor="middle" x="1023" y="-280" font-family="Helvetica,sans-Serif" font-size="10.00">FlagCost</text>
</a>
</g>
</g>
<!-- Node1&#45;&gt;Node8 -->
<g id="edge9" class="edge"><title>Node1&#45;&gt;Node8</title>
<path fill="none" stroke="midnightblue" d="M141.615,-284C221.775,-284 352.904,-284 466,-284 466,-284 466,-284 657,-284 764.415,-284 889.601,-285.754 961.936,-286.939"/>
<polygon fill="midnightblue" stroke="midnightblue" points="141.615,-280.5 131.615,-284 141.615,-287.5 141.615,-280.5"/>
</g>
<!-- Node11 -->
<g id="node11" class="node"><title>Node11</title>
<g id="a_node11"><a xlink:href="classx265_1_1SAO.html#a06d0839d18ce2c3fad5438d917467130" target="_top" xlink:title="x265::SAO::rdoSaoUnitRow">
<polygon fill="white" stroke="black" points="397,-65.5 397,-84.5 537,-84.5 537,-65.5 397,-65.5"/>
<text text-anchor="middle" x="467" y="-72.5" font-family="Helvetica,sans-Serif" font-size="10.00">x265::SAO::rdoSaoUnitRow</text>
</a>
</g>
</g>
<!-- Node1&#45;&gt;Node11 -->
<g id="edge16" class="edge"><title>Node1&#45;&gt;Node11</title>
<path fill="none" stroke="midnightblue" d="M73.952,-259.135C86.0998,-220.74 115.084,-147.825 168,-113 204.487,-88.9872 320.803,-80.1295 396.863,-76.8749"/>
<polygon fill="midnightblue" stroke="midnightblue" points="70.5166,-258.403 70.9662,-268.988 77.2158,-260.433 70.5166,-258.403"/>
</g>
<!-- Node15 -->
<g id="node15" class="node"><title>Node15</title>
<g id="a_node15"><a xlink:href="classx265_1_1SAO.html#a53c829d9f4083d4fec9df488222a8d9e" target="_top" xlink:title="x265::SAO::saoComponentParamDist">
<polygon fill="white" stroke="black" points="168.5,-46.5 168.5,-65.5 351.5,-65.5 351.5,-46.5 168.5,-46.5"/>
<text text-anchor="middle" x="260" y="-53.5" font-family="Helvetica,sans-Serif" font-size="10.00">x265::SAO::saoComponentParamDist</text>
</a>
</g>
</g>
<!-- Node1&#45;&gt;Node15 -->
<g id="edge20" class="edge"><title>Node1&#45;&gt;Node15</title>
<path fill="none" stroke="midnightblue" d="M72.3211,-258.771C82.7974,-215.465 110.278,-127.106 168,-80 175.722,-73.6984 184.93,-69.0373 194.479,-65.5926"/>
<polygon fill="midnightblue" stroke="midnightblue" points="68.8547,-258.227 70.0159,-268.758 75.6754,-259.801 68.8547,-258.227"/>
</g>
<!-- Node16 -->
<g id="node16" class="node"><title>Node16</title>
<g id="a_node16"><a xlink:href="classx265_1_1SAO.html#a78639ed647d95ab7582ae39abe3e0524" target="_top" xlink:title="x265::SAO::sao2ChromaParamDist">
<polygon fill="white" stroke="black" points="173.5,-122.5 173.5,-141.5 346.5,-141.5 346.5,-122.5 173.5,-122.5"/>
<text text-anchor="middle" x="260" y="-129.5" font-family="Helvetica,sans-Serif" font-size="10.00">x265::SAO::sao2ChromaParamDist</text>
</a>
</g>
</g>
<!-- Node1&#45;&gt;Node16 -->
<g id="edge22" class="edge"><title>Node1&#45;&gt;Node16</title>
<path fill="none" stroke="midnightblue" d="M79.7073,-259.663C96.1631,-230.568 127.589,-182.494 168,-156 177.701,-149.64 189.021,-144.961 200.316,-141.521"/>
<polygon fill="midnightblue" stroke="midnightblue" points="76.465,-258.295 74.7093,-268.744 82.5975,-261.671 76.465,-258.295"/>
</g>
<!-- Node17 -->
<g id="node17" class="node"><title>Node17</title>
<g id="a_node17"><a xlink:href="classx265_1_1Search.html#a59b84ac1e21c86af579b6e84e43c5b7a" target="_top" xlink:title="x265::Search::codeIntraLumaQT">
<polygon fill="white" stroke="black" points="388,-464.5 388,-483.5 546,-483.5 546,-464.5 388,-464.5"/>
<text text-anchor="middle" x="467" y="-471.5" font-family="Helvetica,sans-Serif" font-size="10.00">x265::Search::codeIntraLumaQT</text>
</a>
</g>
</g>
<!-- Node1&#45;&gt;Node17 -->
<g id="edge24" class="edge"><title>Node1&#45;&gt;Node17</title>
<path fill="none" stroke="midnightblue" d="M74.1714,-309.012C86.4748,-346.848 115.497,-417.645 168,-450 242.676,-496.019 348.627,-491.738 412.015,-483.513"/>
<polygon fill="midnightblue" stroke="midnightblue" points="77.4539,-307.781 71.139,-299.274 70.7705,-309.862 77.4539,-307.781"/>
</g>
<!-- Node19 -->
<g id="node19" class="node"><title>Node19</title>
<g id="a_node19"><a xlink:href="classx265_1_1Search.html#ab02df91827cf67796d1605bde60c6aed" target="_top" xlink:title="x265::Search::checkIntra">
<polygon fill="white" stroke="black" points="777,-353.5 777,-372.5 903,-372.5 903,-353.5 777,-353.5"/>
<text text-anchor="middle" x="840" y="-360.5" font-family="Helvetica,sans-Serif" font-size="10.00">x265::Search::checkIntra</text>
</a>
</g>
</g>
<!-- Node1&#45;&gt;Node19 -->
<g id="edge39" class="edge"><title>Node1&#45;&gt;Node19</title>
<path fill="none" stroke="midnightblue" d="M83.3918,-307.472C101.166,-330.664 131.885,-364.684 168,-379 277.477,-422.396 632.374,-387.291 776.901,-370.594"/>
<polygon fill="midnightblue" stroke="midnightblue" points="86.0025,-305.117 77.2293,-299.178 80.3836,-309.292 86.0025,-305.117"/>
</g>
<!-- Node21 -->
<g id="node21" class="node"><title>Node21</title>
<g id="a_node21"><a xlink:href="classx265_1_1Search.html#a0ec5d297bb4eba4e9445ff67b35b95fa" target="_top" xlink:title="x265::Search::codeIntraChromaQt">
<polygon fill="white" stroke="black" points="177,-350.5 177,-369.5 343,-369.5 343,-350.5 177,-350.5"/>
<text text-anchor="middle" x="260" y="-357.5" font-family="Helvetica,sans-Serif" font-size="10.00">x265::Search::codeIntraChromaQt</text>
</a>
</g>
</g>
<!-- Node1&#45;&gt;Node21 -->
<g id="edge35" class="edge"><title>Node1&#45;&gt;Node21</title>
<path fill="none" stroke="midnightblue" d="M101.376,-304.07C120.52,-314.636 145.058,-327.19 168,-336 182.948,-341.74 199.787,-346.603 214.878,-350.418"/>
<polygon fill="midnightblue" stroke="midnightblue" points="102.877,-300.9 92.4416,-299.068 99.4574,-307.008 102.877,-300.9"/>
</g>
<!-- Node22 -->
<g id="node22" class="node"><title>Node22</title>
<g id="a_node22"><a xlink:href="classx265_1_1Search.html#a70d466b561a7463b8ec5a213384ae667" target="_top" xlink:title="x265::Search::estIntraPred\lChromaQT">
<polygon fill="white" stroke="black" points="400,-339 400,-369 534,-369 534,-339 400,-339"/>
<text text-anchor="start" x="408" y="-357" font-family="Helvetica,sans-Serif" font-size="10.00">x265::Search::estIntraPred</text>
<text text-anchor="middle" x="467" y="-346" font-family="Helvetica,sans-Serif" font-size="10.00">ChromaQT</text>
</a>
</g>
</g>
<!-- Node1&#45;&gt;Node22 -->
<g id="edge40" class="edge"><title>Node1&#45;&gt;Node22</title>
<path fill="none" stroke="midnightblue" d="M141.765,-297.117C216.027,-310.145 328.799,-329.93 399.882,-342.4"/>
<polygon fill="midnightblue" stroke="midnightblue" points="142.004,-293.605 131.55,-295.325 140.794,-300.5 142.004,-293.605"/>
</g>
<!-- Node23 -->
<g id="node23" class="node"><title>Node23</title>
<g id="a_node23"><a xlink:href="classx265_1_1Search.html#a4e3f1622d206a6883cb41567c63e106f" target="_top" xlink:title="x265::Search::encodeResAnd\lCalcRdSkipCU">
<polygon fill="white" stroke="black" points="766.5,-155 766.5,-185 913.5,-185 913.5,-155 766.5,-155"/>
<text text-anchor="start" x="774.5" y="-173" font-family="Helvetica,sans-Serif" font-size="10.00">x265::Search::encodeResAnd</text>
<text text-anchor="middle" x="840" y="-162" font-family="Helvetica,sans-Serif" font-size="10.00">CalcRdSkipCU</text>
</a>
</g>
</g>
<!-- Node1&#45;&gt;Node23 -->
<g id="edge41" class="edge"><title>Node1&#45;&gt;Node23</title>
<path fill="none" stroke="midnightblue" d="M83.4763,-260.737C101.318,-237.713 132.091,-203.826 168,-189 274.306,-145.109 615.555,-157.604 766.274,-165.628"/>
<polygon fill="midnightblue" stroke="midnightblue" points="80.5004,-258.871 77.2876,-268.966 86.0951,-263.078 80.5004,-258.871"/>
</g>
<!-- Node26 -->
<g id="node26" class="node"><title>Node26</title>
<g id="a_node26"><a xlink:href="classx265_1_1Search.html#aba5e04ce529f41accd43c540ba1dc7ad" target="_top" xlink:title="x265::Search::encodeResAnd\lCalcRdInterCU">
<polygon fill="white" stroke="black" points="766.5,-214 766.5,-244 913.5,-244 913.5,-214 766.5,-214"/>
<text text-anchor="start" x="774.5" y="-232" font-family="Helvetica,sans-Serif" font-size="10.00">x265::Search::encodeResAnd</text>
<text text-anchor="middle" x="840" y="-221" font-family="Helvetica,sans-Serif" font-size="10.00">CalcRdInterCU</text>
</a>
</g>
</g>
<!-- Node1&#45;&gt;Node26 -->
<g id="edge47" class="edge"><title>Node1&#45;&gt;Node26</title>
<path fill="none" stroke="midnightblue" d="M141.561,-273.008C150.459,-271.891 159.425,-270.855 168,-270 385.171,-248.346 643.104,-236.45 766.369,-231.611"/>
<polygon fill="midnightblue" stroke="midnightblue" points="141.037,-269.547 131.568,-274.299 141.934,-276.489 141.037,-269.547"/>
</g>
<!-- Node28 -->
<g id="node28" class="node"><title>Node28</title>
<g id="a_node28"><a xlink:href="classx265_1_1Search.html#a9f01b6f04dca31dca9f16e60d1c029b3" target="_top" xlink:title="x265::Search::xEstimateResidualQT">
<polygon fill="white" stroke="black" points="172,-198.5 172,-217.5 348,-217.5 348,-198.5 172,-198.5"/>
<text text-anchor="middle" x="260" y="-205.5" font-family="Helvetica,sans-Serif" font-size="10.00">x265::Search::xEstimateResidualQT</text>
</a>
</g>
</g>
<!-- Node1&#45;&gt;Node28 -->
<g id="edge55" class="edge"><title>Node1&#45;&gt;Node28</title>
<path fill="none" stroke="midnightblue" d="M101.376,-263.93C120.52,-253.364 145.058,-240.81 168,-232 182.948,-226.26 199.787,-221.397 214.878,-217.582"/>
<polygon fill="midnightblue" stroke="midnightblue" points="99.4574,-260.992 92.4416,-268.932 102.877,-267.1 99.4574,-260.992"/>
</g>
<!-- Node29 -->
<g id="node29" class="node"><title>Node29</title>
<g id="a_node29"><a xlink:href="classx265_1_1Search.html#a74bb6c5a121190c14d380a7d26cf9271" target="_top" xlink:title="x265::Search::getIntraModeBits">
<polygon fill="white" stroke="black" points="182.5,-524.5 182.5,-543.5 337.5,-543.5 337.5,-524.5 182.5,-524.5"/>
<text text-anchor="middle" x="260" y="-531.5" font-family="Helvetica,sans-Serif" font-size="10.00">x265::Search::getIntraModeBits</text>
</a>
</g>
</g>
<!-- Node1&#45;&gt;Node29 -->
<g id="edge57" class="edge"><title>Node1&#45;&gt;Node29</title>
<path fill="none" stroke="midnightblue" d="M73.5968,-308.633C85.8636,-350.317 115.794,-435.358 168,-488 184.953,-505.094 209.576,-517.008 228.935,-524.422"/>
<polygon fill="midnightblue" stroke="midnightblue" points="76.9627,-307.673 70.8559,-299.015 70.2308,-309.592 76.9627,-307.673"/>
</g>
<!-- Node3 -->
<g id="node3" class="node"><title>Node3</title>
<g id="a_node3"><a xlink:href="classx265_1_1Analysis.html#aa6122285d10bb1bd7584958b88b029d5" target="_top" xlink:title="x265::Analysis::parallel\lModeAnalysis">
<polygon fill="white" stroke="black" points="781,-513 781,-543 899,-543 899,-513 781,-513"/>
<text text-anchor="start" x="789" y="-531" font-family="Helvetica,sans-Serif" font-size="10.00">x265::Analysis::parallel</text>
<text text-anchor="middle" x="840" y="-520" font-family="Helvetica,sans-Serif" font-size="10.00">ModeAnalysis</text>
</a>
</g>
</g>
<!-- Node2&#45;&gt;Node3 -->
<g id="edge2" class="edge"><title>Node2&#45;&gt;Node3</title>
<path fill="none" stroke="midnightblue" d="M706.51,-477.77C735.609,-488.802 771.91,-502.565 799.152,-512.893"/>
<polygon fill="midnightblue" stroke="midnightblue" points="707.532,-474.415 696.941,-474.142 705.05,-480.96 707.532,-474.415"/>
</g>
<!-- Node5 -->
<g id="node5" class="node"><title>Node5</title>
<g id="a_node5"><a xlink:href="classx265_1_1Analysis.html#a87060ff27a37f56adc5f5b8a4c033ece" target="_top" xlink:title="x265::Analysis::compress\lInterCU_dist">
<polygon fill="white" stroke="black" points="1132,-382 1132,-412 1262,-412 1262,-382 1132,-382"/>
<text text-anchor="start" x="1140" y="-400" font-family="Helvetica,sans-Serif" font-size="10.00">x265::Analysis::compress</text>
<text text-anchor="middle" x="1197" y="-389" font-family="Helvetica,sans-Serif" font-size="10.00">InterCU_dist</text>
</a>
</g>
</g>
<!-- Node2&#45;&gt;Node5 -->
<g id="edge6" class="edge"><title>Node2&#45;&gt;Node5</title>
<path fill="none" stroke="midnightblue" d="M735.234,-472.12C824.478,-484.149 973.847,-495.27 1096,-460 1128.13,-450.722 1159.89,-427.718 1178.72,-412.229"/>
<polygon fill="midnightblue" stroke="midnightblue" points="735.574,-468.634 725.188,-470.728 734.613,-475.567 735.574,-468.634"/>
</g>
<!-- Node7 -->
<g id="node7" class="node"><title>Node7</title>
<g id="a_node7"><a xlink:href="classx265_1_1Analysis.html#a30d2ff7eca5addbb0a6b3dfe14f09650" target="_top" xlink:title="x265::Analysis::compress\lInterCU_rd0_4">
<polygon fill="white" stroke="black" points="1132,-273 1132,-303 1262,-303 1262,-273 1132,-273"/>
<text text-anchor="start" x="1140" y="-291" font-family="Helvetica,sans-Serif" font-size="10.00">x265::Analysis::compress</text>
<text text-anchor="middle" x="1197" y="-280" font-family="Helvetica,sans-Serif" font-size="10.00">InterCU_rd0_4</text>
</a>
</g>
</g>
<!-- Node2&#45;&gt;Node7 -->
<g id="edge7" class="edge"><title>Node2&#45;&gt;Node7</title>
<path fill="none" stroke="midnightblue" d="M735.202,-453.408C827.195,-443.876 981.831,-418.401 1096,-351 1116.31,-339.008 1112.43,-325.165 1132,-312 1137.02,-308.622 1142.58,-305.638 1148.27,-303.024"/>
<polygon fill="midnightblue" stroke="midnightblue" points="734.728,-449.938 725.125,-454.415 735.424,-456.904 734.728,-449.938"/>
</g>
<!-- Node4 -->
<g id="node4" class="node"><title>Node4</title>
<g id="a_node4"><a xlink:href="classx265_1_1Analysis.html#a29a58dad4cc1c07d2f5e5717c6be7c25" target="_top" xlink:title="x265::Analysis::findJob">
<polygon fill="white" stroke="black" points="963.5,-550.5 963.5,-569.5 1082.5,-569.5 1082.5,-550.5 963.5,-550.5"/>
<text text-anchor="middle" x="1023" y="-557.5" font-family="Helvetica,sans-Serif" font-size="10.00">x265::Analysis::findJob</text>
</a>
</g>
</g>
<!-- Node3&#45;&gt;Node4 -->
<g id="edge3" class="edge"><title>Node3&#45;&gt;Node4</title>
<path fill="none" stroke="midnightblue" d="M909.289,-540.073C928.75,-543.514 949.671,-547.213 968.142,-550.478"/>
<polygon fill="midnightblue" stroke="midnightblue" points="909.722,-536.596 899.266,-538.301 908.504,-543.489 909.722,-536.596"/>
</g>
<!-- Node4&#45;&gt;Node5 -->
<g id="edge4" class="edge"><title>Node4&#45;&gt;Node5</title>
<path fill="none" stroke="midnightblue" d="M1076.66,-546.791C1083.51,-543.853 1090.16,-540.295 1096,-536 1141.97,-502.168 1175.24,-440.896 1188.99,-412.375"/>
<polygon fill="midnightblue" stroke="midnightblue" points="1075.33,-543.555 1067.26,-550.426 1077.85,-550.084 1075.33,-543.555"/>
</g>
<!-- Node6 -->
<g id="node6" class="node"><title>Node6</title>
<g id="a_node6"><a xlink:href="classx265_1_1Analysis.html#aaebc9de2ff98834c650244f3b58942c2" target="_top" xlink:title="x265::Analysis::compressCTU">
<polygon fill="white" stroke="red" points="1298.5,-302.5 1298.5,-321.5 1449.5,-321.5 1449.5,-302.5 1298.5,-302.5"/>
<text text-anchor="middle" x="1374" y="-309.5" font-family="Helvetica,sans-Serif" font-size="10.00">x265::Analysis::compressCTU</text>
</a>
</g>
</g>
<!-- Node5&#45;&gt;Node6 -->
<g id="edge5" class="edge"><title>Node5&#45;&gt;Node6</title>
<path fill="none" stroke="midnightblue" d="M1238.14,-377.501C1274.16,-360.008 1325.49,-335.075 1353.29,-321.574"/>
<polygon fill="midnightblue" stroke="midnightblue" points="1236.35,-374.482 1228.88,-381.999 1239.41,-380.779 1236.35,-374.482"/>
</g>
<!-- Node7&#45;&gt;Node6 -->
<g id="edge8" class="edge"><title>Node7&#45;&gt;Node6</title>
<path fill="none" stroke="midnightblue" d="M1272.39,-298.202C1282.72,-299.619 1293.3,-301.07 1303.53,-302.473"/>
<polygon fill="midnightblue" stroke="midnightblue" points="1272.55,-294.692 1262.17,-296.8 1271.6,-301.627 1272.55,-294.692"/>
</g>
<!-- Node8&#45;&gt;Node5 -->
<g id="edge12" class="edge"><title>Node8&#45;&gt;Node5</title>
<path fill="none" stroke="midnightblue" d="M1087.73,-307.667C1090.61,-309.313 1093.38,-311.088 1096,-313 1117.54,-328.727 1111.95,-343.42 1132,-361 1141.2,-369.068 1152.5,-376.148 1163.03,-381.846"/>
<polygon fill="midnightblue" stroke="midnightblue" points="1089.32,-304.552 1078.83,-303.103 1086.13,-310.78 1089.32,-304.552"/>
</g>
<!-- Node8&#45;&gt;Node7 -->
<g id="edge13" class="edge"><title>Node8&#45;&gt;Node7</title>
<path fill="none" stroke="midnightblue" d="M1094.42,-288C1106.78,-288 1119.59,-288 1131.78,-288"/>
<polygon fill="midnightblue" stroke="midnightblue" points="1094.16,-284.5 1084.16,-288 1094.16,-291.5 1094.16,-284.5"/>
</g>
<!-- Node9 -->
<g id="node9" class="node"><title>Node9</title>
<g id="a_node9"><a xlink:href="classx265_1_1Analysis.html#aae2a6a2252270782b591d2bed7e99dae" target="_top" xlink:title="x265::Analysis::compress\lIntraCU">
<polygon fill="white" stroke="black" points="1132,-322 1132,-352 1262,-352 1262,-322 1132,-322"/>
<text text-anchor="start" x="1140" y="-340" font-family="Helvetica,sans-Serif" font-size="10.00">x265::Analysis::compress</text>
<text text-anchor="middle" x="1197" y="-329" font-family="Helvetica,sans-Serif" font-size="10.00">IntraCU</text>
</a>
</g>
</g>
<!-- Node8&#45;&gt;Node9 -->
<g id="edge10" class="edge"><title>Node8&#45;&gt;Node9</title>
<path fill="none" stroke="midnightblue" d="M1086.81,-305.894C1105.31,-311.164 1125.36,-316.876 1143.17,-321.948"/>
<polygon fill="midnightblue" stroke="midnightblue" points="1087.59,-302.475 1077.01,-303.101 1085.67,-309.207 1087.59,-302.475"/>
</g>
<!-- Node10 -->
<g id="node10" class="node"><title>Node10</title>
<g id="a_node10"><a xlink:href="classx265_1_1Analysis.html#a0b22b7765aa4a36b1ba6d07ba26901e6" target="_top" xlink:title="x265::Analysis::compress\lInterCU_rd5_6">
<polygon fill="white" stroke="black" points="1132,-183 1132,-213 1262,-213 1262,-183 1132,-183"/>
<text text-anchor="start" x="1140" y="-201" font-family="Helvetica,sans-Serif" font-size="10.00">x265::Analysis::compress</text>
<text text-anchor="middle" x="1197" y="-190" font-family="Helvetica,sans-Serif" font-size="10.00">InterCU_rd5_6</text>
</a>
</g>
</g>
<!-- Node8&#45;&gt;Node10 -->
<g id="edge14" class="edge"><title>Node8&#45;&gt;Node10</title>
<path fill="none" stroke="midnightblue" d="M1082.34,-269.113C1087.02,-267.185 1091.63,-265.142 1096,-263 1125.2,-248.705 1156.19,-227.496 1175.8,-213.231"/>
<polygon fill="midnightblue" stroke="midnightblue" points="1080.71,-265.992 1072.68,-272.904 1083.27,-272.508 1080.71,-265.992"/>
</g>
<!-- Node9&#45;&gt;Node6 -->
<g id="edge11" class="edge"><title>Node9&#45;&gt;Node6</title>
<path fill="none" stroke="midnightblue" d="M1272.1,-326.414C1283.52,-324.783 1295.25,-323.107 1306.49,-321.502"/>
<polygon fill="midnightblue" stroke="midnightblue" points="1271.57,-322.954 1262.17,-327.833 1272.56,-329.883 1271.57,-322.954"/>
</g>
<!-- Node10&#45;&gt;Node6 -->
<g id="edge15" class="edge"><title>Node10&#45;&gt;Node6</title>
<path fill="none" stroke="midnightblue" d="M1229.92,-218.793C1268.06,-243.64 1330.25,-284.15 1358.37,-302.47"/>
<polygon fill="midnightblue" stroke="midnightblue" points="1231.53,-215.664 1221.24,-213.138 1227.71,-221.529 1231.53,-215.664"/>
</g>
<!-- Node12 -->
<g id="node12" class="node"><title>Node12</title>
<g id="a_node12"><a xlink:href="classx265_1_1FrameFilter.html#a75d13efc3b8c164f9c1615bffda89891" target="_top" xlink:title="x265::FrameFilter::\lprocessRow">
<polygon fill="white" stroke="black" points="606.5,-51 606.5,-81 705.5,-81 705.5,-51 606.5,-51"/>
<text text-anchor="start" x="614.5" y="-69" font-family="Helvetica,sans-Serif" font-size="10.00">x265::FrameFilter::</text>
<text text-anchor="middle" x="656" y="-58" font-family="Helvetica,sans-Serif" font-size="10.00">processRow</text>
</a>
</g>
</g>
<!-- Node11&#45;&gt;Node12 -->
<g id="edge17" class="edge"><title>Node11&#45;&gt;Node12</title>
<path fill="none" stroke="midnightblue" d="M547.185,-71.189C567.269,-70.2224 588.255,-69.2123 606.319,-68.3429"/>
<polygon fill="midnightblue" stroke="midnightblue" points="546.921,-67.6975 537.101,-71.6743 547.257,-74.6894 546.921,-67.6975"/>
</g>
<!-- Node13 -->
<g id="node13" class="node"><title>Node13</title>
<g id="a_node13"><a xlink:href="classx265_1_1FrameEncoder.html#a764697a109059858166d1c017b81d233" target="_top" xlink:title="x265::FrameEncoder\l::processRowFilter">
<polygon fill="white" stroke="black" points="786.5,-35 786.5,-65 893.5,-65 893.5,-35 786.5,-35"/>
<text text-anchor="start" x="794.5" y="-53" font-family="Helvetica,sans-Serif" font-size="10.00">x265::FrameEncoder</text>
<text text-anchor="middle" x="840" y="-42" font-family="Helvetica,sans-Serif" font-size="10.00">::processRowFilter</text>
</a>
</g>
</g>
<!-- Node12&#45;&gt;Node13 -->
<g id="edge18" class="edge"><title>Node12&#45;&gt;Node13</title>
<path fill="none" stroke="midnightblue" d="M715.935,-60.8189C738.571,-58.8289 764.241,-56.5722 786.259,-54.6366"/>
<polygon fill="midnightblue" stroke="midnightblue" points="715.428,-57.3499 705.773,-61.7123 716.041,-64.323 715.428,-57.3499"/>
</g>
<!-- Node14 -->
<g id="node14" class="node"><title>Node14</title>
<g id="a_node14"><a xlink:href="classx265_1_1FrameEncoder.html#acad645a8ece97d884895f8f7366b7d70" target="_top" xlink:title="x265::FrameEncoder\l::processRow">
<polygon fill="white" stroke="red" points="969.5,-0 969.5,-30 1076.5,-30 1076.5,-0 969.5,-0"/>
<text text-anchor="start" x="977.5" y="-18" font-family="Helvetica,sans-Serif" font-size="10.00">x265::FrameEncoder</text>
<text text-anchor="middle" x="1023" y="-7" font-family="Helvetica,sans-Serif" font-size="10.00">::processRow</text>
</a>
</g>
</g>
<!-- Node13&#45;&gt;Node14 -->
<g id="edge19" class="edge"><title>Node13&#45;&gt;Node14</title>
<path fill="none" stroke="midnightblue" d="M903.812,-37.8539C925.211,-33.7161 948.895,-29.1363 969.408,-25.1697"/>
<polygon fill="midnightblue" stroke="midnightblue" points="902.993,-34.4475 893.839,-39.7825 904.322,-41.3202 902.993,-34.4475"/>
</g>
<!-- Node15&#45;&gt;Node11 -->
<g id="edge21" class="edge"><title>Node15&#45;&gt;Node11</title>
<path fill="none" stroke="midnightblue" d="M361.545,-65.3188C373.515,-66.4282 385.521,-67.541 396.909,-68.5964"/>
<polygon fill="midnightblue" stroke="midnightblue" points="361.793,-61.8269 351.513,-64.389 361.147,-68.797 361.793,-61.8269"/>
</g>
<!-- Node16&#45;&gt;Node11 -->
<g id="edge23" class="edge"><title>Node16&#45;&gt;Node11</title>
<path fill="none" stroke="midnightblue" d="M308.23,-119.773C322.329,-116.061 337.807,-111.925 352,-108 379.604,-100.366 410.84,-91.293 433.627,-84.5945"/>
<polygon fill="midnightblue" stroke="midnightblue" points="307.03,-116.469 298.245,-122.392 308.806,-123.24 307.03,-116.469"/>
</g>
<!-- Node17&#45;&gt;Node2 -->
<g id="edge25" class="edge"><title>Node17&#45;&gt;Node2</title>
<path fill="none" stroke="midnightblue" d="M556.419,-466.908C566.661,-466.086 576.985,-465.258 586.898,-464.463"/>
<polygon fill="midnightblue" stroke="midnightblue" points="555.909,-463.437 546.221,-467.726 556.469,-470.415 555.909,-463.437"/>
</g>
<!-- Node18 -->
<g id="node18" class="node"><title>Node18</title>
<g id="a_node18"><a xlink:href="classx265_1_1Search.html#a1778d2ab96ac88c7f76d36818d6adbdd" target="_top" xlink:title="x265::Search::estIntraPredQT">
<polygon fill="white" stroke="black" points="582.5,-499.5 582.5,-518.5 729.5,-518.5 729.5,-499.5 582.5,-499.5"/>
<text text-anchor="middle" x="656" y="-506.5" font-family="Helvetica,sans-Serif" font-size="10.00">x265::Search::estIntraPredQT</text>
</a>
</g>
</g>
<!-- Node17&#45;&gt;Node18 -->
<g id="edge26" class="edge"><title>Node17&#45;&gt;Node18</title>
<path fill="none" stroke="midnightblue" d="M529.239,-485.462C553.42,-489.988 580.883,-495.128 603.963,-499.448"/>
<polygon fill="midnightblue" stroke="midnightblue" points="529.572,-481.963 519.099,-483.564 528.284,-488.844 529.572,-481.963"/>
</g>
<!-- Node18&#45;&gt;Node19 -->
<g id="edge27" class="edge"><title>Node18&#45;&gt;Node19</title>
<path fill="none" stroke="midnightblue" d="M704.289,-496.004C713.214,-492.503 722.189,-488.205 730,-483 777.311,-451.475 817.825,-394.986 832.812,-372.557"/>
<polygon fill="midnightblue" stroke="midnightblue" points="702.886,-492.789 694.682,-499.493 705.276,-499.369 702.886,-492.789"/>
</g>
<!-- Node19&#45;&gt;Node9 -->
<g id="edge33" class="edge"><title>Node19&#45;&gt;Node9</title>
<path fill="none" stroke="midnightblue" d="M913.489,-361.364C964.592,-359.778 1034.59,-356.731 1096,-351 1107.61,-349.917 1119.93,-348.452 1131.82,-346.876"/>
<polygon fill="midnightblue" stroke="midnightblue" points="913.096,-357.874 903.205,-361.672 913.306,-364.871 913.096,-357.874"/>
</g>
<!-- Node19&#45;&gt;Node10 -->
<g id="edge34" class="edge"><title>Node19&#45;&gt;Node10</title>
<path fill="none" stroke="midnightblue" d="M853.03,-344.814C878.376,-306.767 936.079,-221.643 950,-214 1005.71,-183.414 1079.57,-182.928 1131.77,-187.914"/>
<polygon fill="midnightblue" stroke="midnightblue" points="849.947,-343.13 847.33,-353.397 855.778,-347.003 849.947,-343.13"/>
</g>
<!-- Node20 -->
<g id="node20" class="node"><title>Node20</title>
<g id="a_node20"><a xlink:href="classx265_1_1Analysis.html#a10f0a8d9d143faf8dc671c6f0982693d" target="_top" xlink:title="x265::Analysis::tryLossless">
<polygon fill="white" stroke="black" points="954.5,-322.5 954.5,-341.5 1091.5,-341.5 1091.5,-322.5 954.5,-322.5"/>
<text text-anchor="middle" x="1023" y="-329.5" font-family="Helvetica,sans-Serif" font-size="10.00">x265::Analysis::tryLossless</text>
</a>
</g>
</g>
<!-- Node19&#45;&gt;Node20 -->
<g id="edge28" class="edge"><title>Node19&#45;&gt;Node20</title>
<path fill="none" stroke="midnightblue" d="M906.83,-351.725C926.372,-348.378 947.576,-344.747 966.401,-341.522"/>
<polygon fill="midnightblue" stroke="midnightblue" points="906.048,-348.308 896.783,-353.446 907.23,-355.208 906.048,-348.308"/>
</g>
<!-- Node20&#45;&gt;Node5 -->
<g id="edge30" class="edge"><title>Node20&#45;&gt;Node5</title>
<path fill="none" stroke="midnightblue" d="M1058.83,-345.163C1087.01,-355.812 1126.71,-370.814 1156.15,-381.941"/>
<polygon fill="midnightblue" stroke="midnightblue" points="1059.97,-341.852 1049.38,-341.591 1057.5,-348.4 1059.97,-341.852"/>
</g>
<!-- Node20&#45;&gt;Node7 -->
<g id="edge31" class="edge"><title>Node20&#45;&gt;Node7</title>
<path fill="none" stroke="midnightblue" d="M1071.01,-319.974C1091.41,-314.755 1115.53,-308.586 1137.11,-303.065"/>
<polygon fill="midnightblue" stroke="midnightblue" points="1070.14,-316.583 1061.32,-322.453 1071.88,-323.365 1070.14,-316.583"/>
</g>
<!-- Node20&#45;&gt;Node9 -->
<g id="edge29" class="edge"><title>Node20&#45;&gt;Node9</title>
<path fill="none" stroke="midnightblue" d="M1102.24,-334.274C1112.16,-334.563 1122.22,-334.855 1131.88,-335.136"/>
<polygon fill="midnightblue" stroke="midnightblue" points="1102.08,-330.768 1091.98,-333.976 1101.87,-337.765 1102.08,-330.768"/>
</g>
<!-- Node20&#45;&gt;Node10 -->
<g id="edge32" class="edge"><title>Node20&#45;&gt;Node10</title>
<path fill="none" stroke="midnightblue" d="M1084.63,-318.479C1088.62,-316.593 1092.46,-314.445 1096,-312 1118.24,-296.651 1114.47,-283.57 1132,-263 1147.3,-245.038 1166.47,-225.966 1179.82,-213.16"/>
<polygon fill="midnightblue" stroke="midnightblue" points="1083,-315.365 1075.1,-322.421 1085.68,-321.834 1083,-315.365"/>
</g>
<!-- Node21&#45;&gt;Node22 -->
<g id="edge36" class="edge"><title>Node21&#45;&gt;Node22</title>
<path fill="none" stroke="midnightblue" d="M353.425,-357.295C369.077,-356.837 385.045,-356.369 399.851,-355.936"/>
<polygon fill="midnightblue" stroke="midnightblue" points="353.093,-353.803 343.2,-357.594 353.298,-360.8 353.093,-353.803"/>
</g>
<!-- Node22&#45;&gt;Node2 -->
<g id="edge37" class="edge"><title>Node22&#45;&gt;Node2</title>
<path fill="none" stroke="midnightblue" d="M503.59,-373.984C539.926,-394.386 595.509,-425.596 628.257,-443.984"/>
<polygon fill="midnightblue" stroke="midnightblue" points="505.226,-370.888 494.793,-369.044 501.798,-376.992 505.226,-370.888"/>
</g>
<!-- Node22&#45;&gt;Node19 -->
<g id="edge38" class="edge"><title>Node22&#45;&gt;Node19</title>
<path fill="none" stroke="midnightblue" d="M544.665,-355.86C613.431,-357.528 713.072,-359.945 776.949,-361.495"/>
<polygon fill="midnightblue" stroke="midnightblue" points="544.409,-352.353 534.327,-355.609 544.24,-359.351 544.409,-352.353"/>
</g>
<!-- Node24 -->
<g id="node24" class="node"><title>Node24</title>
<g id="a_node24"><a xlink:href="classx265_1_1Analysis.html#addd72cb95590e2b2a6965d42d110eab3" target="_top" xlink:title="x265::Analysis::checkMerge2\lNx2N_rd0_4">
<polygon fill="white" stroke="black" points="950,-224 950,-254 1096,-254 1096,-224 950,-224"/>
<text text-anchor="start" x="958" y="-242" font-family="Helvetica,sans-Serif" font-size="10.00">x265::Analysis::checkMerge2</text>
<text text-anchor="middle" x="1023" y="-231" font-family="Helvetica,sans-Serif" font-size="10.00">Nx2N_rd0_4</text>
</a>
</g>
</g>
<!-- Node23&#45;&gt;Node24 -->
<g id="edge42" class="edge"><title>Node23&#45;&gt;Node24</title>
<path fill="none" stroke="midnightblue" d="M890.237,-188.77C919.177,-199.802 955.279,-213.565 982.371,-223.893"/>
<polygon fill="midnightblue" stroke="midnightblue" points="891.312,-185.434 880.721,-185.142 888.819,-191.975 891.312,-185.434"/>
</g>
<!-- Node25 -->
<g id="node25" class="node"><title>Node25</title>
<g id="a_node25"><a xlink:href="classx265_1_1Analysis.html#a0194a9da53aa95173fa1132ba3aea1c7" target="_top" xlink:title="x265::Analysis::checkMerge2\lNx2N_rd5_6">
<polygon fill="white" stroke="black" points="950,-49 950,-79 1096,-79 1096,-49 950,-49"/>
<text text-anchor="start" x="958" y="-67" font-family="Helvetica,sans-Serif" font-size="10.00">x265::Analysis::checkMerge2</text>
<text text-anchor="middle" x="1023" y="-56" font-family="Helvetica,sans-Serif" font-size="10.00">Nx2N_rd5_6</text>
</a>
</g>
</g>
<!-- Node23&#45;&gt;Node25 -->
<g id="edge45" class="edge"><title>Node23&#45;&gt;Node25</title>
<path fill="none" stroke="midnightblue" d="M865.378,-147.986C886.499,-129.85 918.532,-104.517 950,-88 956.3,-84.6932 963.146,-81.7136 970.027,-79.0703"/>
<polygon fill="midnightblue" stroke="midnightblue" points="862.81,-145.581 857.57,-154.79 867.409,-150.858 862.81,-145.581"/>
</g>
<!-- Node24&#45;&gt;Node5 -->
<g id="edge43" class="edge"><title>Node24&#45;&gt;Node5</title>
<path fill="none" stroke="midnightblue" d="M1092.58,-259.956C1093.76,-260.925 1094.91,-261.939 1096,-263 1129.3,-295.31 1101.92,-325.667 1132,-361 1139.27,-369.543 1149.11,-376.466 1158.88,-381.874"/>
<polygon fill="midnightblue" stroke="midnightblue" points="1094.46,-256.997 1084.24,-254.188 1090.47,-262.754 1094.46,-256.997"/>
</g>
<!-- Node24&#45;&gt;Node7 -->
<g id="edge44" class="edge"><title>Node24&#45;&gt;Node7</title>
<path fill="none" stroke="midnightblue" d="M1086.81,-256.894C1105.31,-262.164 1125.36,-267.876 1143.17,-272.948"/>
<polygon fill="midnightblue" stroke="midnightblue" points="1087.59,-253.475 1077.01,-254.101 1085.67,-260.207 1087.59,-253.475"/>
</g>
<!-- Node25&#45;&gt;Node10 -->
<g id="edge46" class="edge"><title>Node25&#45;&gt;Node10</title>
<path fill="none" stroke="midnightblue" d="M1088.4,-83.527C1091.02,-84.9261 1093.57,-86.4156 1096,-88 1135.79,-113.92 1170.04,-159.406 1186.16,-182.942"/>
<polygon fill="midnightblue" stroke="midnightblue" points="1089.76,-80.3 1079.23,-79.1114 1086.72,-86.6059 1089.76,-80.3"/>
</g>
<!-- Node26&#45;&gt;Node5 -->
<g id="edge49" class="edge"><title>Node26&#45;&gt;Node5</title>
<path fill="none" stroke="midnightblue" d="M855.223,-252.757C873.453,-280.978 907.802,-327.216 950,-351 1006.11,-382.627 1079.73,-393.05 1131.77,-396.221"/>
<polygon fill="midnightblue" stroke="midnightblue" points="858.173,-250.874 849.881,-244.279 852.251,-254.606 858.173,-250.874"/>
</g>
<!-- Node26&#45;&gt;Node7 -->
<g id="edge50" class="edge"><title>Node26&#45;&gt;Node7</title>
<path fill="none" stroke="midnightblue" d="M907.379,-211.908C959.891,-201.487 1034.38,-193.678 1096,-214 1131.07,-225.566 1163.91,-254.698 1181.85,-272.769"/>
<polygon fill="midnightblue" stroke="midnightblue" points="906.593,-208.497 897.509,-213.949 908.011,-215.352 906.593,-208.497"/>
</g>
<!-- Node26&#45;&gt;Node20 -->
<g id="edge48" class="edge"><title>Node26&#45;&gt;Node20</title>
<path fill="none" stroke="midnightblue" d="M864.106,-250.814C885.044,-269.497 917.509,-295.867 950,-312 958.482,-316.212 967.982,-319.648 977.228,-322.408"/>
<polygon fill="midnightblue" stroke="midnightblue" points="866.428,-248.195 856.67,-244.068 861.724,-253.379 866.428,-248.195"/>
</g>
<!-- Node26&#45;&gt;Node24 -->
<g id="edge51" class="edge"><title>Node26&#45;&gt;Node24</title>
<path fill="none" stroke="midnightblue" d="M923.785,-233.574C932.535,-234.057 941.383,-234.546 949.997,-235.022"/>
<polygon fill="midnightblue" stroke="midnightblue" points="923.755,-230.067 913.577,-233.01 923.368,-237.056 923.755,-230.067"/>
</g>
<!-- Node26&#45;&gt;Node25 -->
<g id="edge52" class="edge"><title>Node26&#45;&gt;Node25</title>
<path fill="none" stroke="midnightblue" d="M895.652,-208.972C902.45,-204.795 908.82,-199.841 914,-194 947.015,-156.778 914.719,-123.082 950,-88 953.457,-84.5625 957.419,-81.6173 961.667,-79.0939"/>
<polygon fill="midnightblue" stroke="midnightblue" points="893.908,-205.937 886.869,-213.855 897.31,-212.055 893.908,-205.937"/>
</g>
<!-- Node27 -->
<g id="node27" class="node"><title>Node27</title>
<g id="a_node27"><a xlink:href="classx265_1_1Analysis.html#a828daa3e9f1ed40a1af9f99f7ff7bb33" target="_top" xlink:title="x265::Analysis::checkInter\l_rd5_6">
<polygon fill="white" stroke="black" points="956.5,-98 956.5,-128 1089.5,-128 1089.5,-98 956.5,-98"/>
<text text-anchor="start" x="964.5" y="-116" font-family="Helvetica,sans-Serif" font-size="10.00">x265::Analysis::checkInter</text>
<text text-anchor="middle" x="1023" y="-105" font-family="Helvetica,sans-Serif" font-size="10.00">_rd5_6</text>
</a>
</g>
</g>
<!-- Node26&#45;&gt;Node27 -->
<g id="edge53" class="edge"><title>Node26&#45;&gt;Node27</title>
<path fill="none" stroke="midnightblue" d="M891.023,-209.253C899.147,-204.886 907.136,-199.8 914,-194 935.192,-176.092 928.347,-160.348 950,-143 957.398,-137.073 966.133,-132.144 974.922,-128.111"/>
<polygon fill="midnightblue" stroke="midnightblue" points="889.202,-206.252 881.847,-213.878 892.352,-212.503 889.202,-206.252"/>
</g>
<!-- Node27&#45;&gt;Node10 -->
<g id="edge54" class="edge"><title>Node27&#45;&gt;Node10</title>
<path fill="none" stroke="midnightblue" d="M1071.86,-132.09C1079.98,-135.572 1088.28,-139.284 1096,-143 1121.88,-155.466 1150.53,-171.455 1170.5,-182.977"/>
<polygon fill="midnightblue" stroke="midnightblue" points="1073.03,-128.784 1062.45,-128.122 1070.31,-135.233 1073.03,-128.784"/>
</g>
<!-- Node28&#45;&gt;Node26 -->
<g id="edge56" class="edge"><title>Node28&#45;&gt;Node26</title>
<path fill="none" stroke="midnightblue" d="M358.389,-211.538C473.671,-215.727 662.989,-222.605 766.253,-226.357"/>
<polygon fill="midnightblue" stroke="midnightblue" points="358.279,-208.032 348.158,-211.167 358.025,-215.028 358.279,-208.032"/>
</g>
<!-- Node29&#45;&gt;Node18 -->
<g id="edge62" class="edge"><title>Node29&#45;&gt;Node18</title>
<path fill="none" stroke="midnightblue" d="M348.068,-528.475C418.363,-524.015 516.126,-517.812 582.282,-513.614"/>
<polygon fill="midnightblue" stroke="midnightblue" points="347.661,-524.994 337.902,-529.12 348.104,-531.98 347.661,-524.994"/>
</g>
<!-- Node30 -->
<g id="node30" class="node"><title>Node30</title>
<g id="a_node30"><a xlink:href="classx265_1_1Analysis.html#a47fe19b013534639df70d2cccc551dca" target="_top" xlink:title="x265::Analysis::checkIntra\lInInter_rd0_4">
<polygon fill="white" stroke="black" points="589.5,-557 589.5,-587 722.5,-587 722.5,-557 589.5,-557"/>
<text text-anchor="start" x="597.5" y="-575" font-family="Helvetica,sans-Serif" font-size="10.00">x265::Analysis::checkIntra</text>
<text text-anchor="middle" x="656" y="-564" font-family="Helvetica,sans-Serif" font-size="10.00">InInter_rd0_4</text>
</a>
</g>
</g>
<!-- Node29&#45;&gt;Node30 -->
<g id="edge58" class="edge"><title>Node29&#45;&gt;Node30</title>
<path fill="none" stroke="midnightblue" d="M289.987,-547.787C315.224,-558.982 353.132,-573.88 388,-580 455.944,-591.926 535.075,-587.291 589.454,-581.315"/>
<polygon fill="midnightblue" stroke="midnightblue" points="291.196,-544.492 280.643,-543.553 288.307,-550.868 291.196,-544.492"/>
</g>
<!-- Node31 -->
<g id="node31" class="node"><title>Node31</title>
<g id="a_node31"><a xlink:href="classx265_1_1Search.html#ad327d1f90617a0d272692bb98c660172" target="_top" xlink:title="x265::Search::getIntraRem\lModeBits">
<polygon fill="white" stroke="black" points="400,-541 400,-571 534,-571 534,-541 400,-541"/>
<text text-anchor="start" x="408" y="-559" font-family="Helvetica,sans-Serif" font-size="10.00">x265::Search::getIntraRem</text>
<text text-anchor="middle" x="467" y="-548" font-family="Helvetica,sans-Serif" font-size="10.00">ModeBits</text>
</a>
</g>
</g>
<!-- Node29&#45;&gt;Node31 -->
<g id="edge63" class="edge"><title>Node29&#45;&gt;Node31</title>
<path fill="none" stroke="midnightblue" d="M347.805,-543.316C365.24,-545.187 383.297,-547.125 399.891,-548.905"/>
<polygon fill="midnightblue" stroke="midnightblue" points="347.942,-539.81 337.626,-542.223 347.195,-546.77 347.942,-539.81"/>
</g>
<!-- Node30&#45;&gt;Node3 -->
<g id="edge59" class="edge"><title>Node30&#45;&gt;Node3</title>
<path fill="none" stroke="midnightblue" d="M729.105,-554.568C746.274,-550.417 764.38,-546.04 780.833,-542.062"/>
<polygon fill="midnightblue" stroke="midnightblue" points="728.023,-551.229 719.125,-556.981 729.668,-558.033 728.023,-551.229"/>
</g>
<!-- Node30&#45;&gt;Node5 -->
<g id="edge60" class="edge"><title>Node30&#45;&gt;Node5</title>
<path fill="none" stroke="midnightblue" d="M710.353,-589.965C798.143,-616.025 975.333,-653.549 1096,-579 1158.26,-540.534 1184.66,-448.631 1192.92,-412.226"/>
<polygon fill="midnightblue" stroke="midnightblue" points="711.195,-586.563 700.61,-587.011 709.164,-593.262 711.195,-586.563"/>
</g>
<!-- Node30&#45;&gt;Node7 -->
<g id="edge61" class="edge"><title>Node30&#45;&gt;Node7</title>
<path fill="none" stroke="midnightblue" d="M732.987,-578.22C785.726,-579.679 856.546,-575.828 914,-552 1012.41,-511.186 1032.93,-481.863 1096,-396 1120.05,-363.265 1102.62,-340.051 1132,-312 1135.6,-308.558 1139.75,-305.599 1144.16,-303.058"/>
<polygon fill="midnightblue" stroke="midnightblue" points="732.806,-574.711 722.69,-577.862 732.562,-581.707 732.806,-574.711"/>
</g>
<!-- Node31&#45;&gt;Node18 -->
<g id="edge65" class="edge"><title>Node31&#45;&gt;Node18</title>
<path fill="none" stroke="midnightblue" d="M537.458,-538.543C564.391,-531.773 594.179,-524.286 617.029,-518.543"/>
<polygon fill="midnightblue" stroke="midnightblue" points="536.527,-535.168 527.682,-541 538.234,-541.956 536.527,-535.168"/>
</g>
<!-- Node31&#45;&gt;Node30 -->
<g id="edge64" class="edge"><title>Node31&#45;&gt;Node30</title>
<path fill="none" stroke="midnightblue" d="M544.374,-562.535C559.246,-563.807 574.717,-565.131 589.212,-566.371"/>
<polygon fill="midnightblue" stroke="midnightblue" points="544.454,-559.029 534.192,-561.664 543.858,-566.003 544.454,-559.029"/>
</g>
</g>
</svg>
        <g id="navigator" transform="translate(0 0)" fill="#404254">
                <rect fill="#f2f5e9" fill-opacity="0.5" stroke="#606060" stroke-width=".5" x="0" y="0" width="60" height="60"/>
                <use id="zoomplus" xlink:href="#zoomPlus" x="17" y="9" onmousedown="handleZoom(evt,'in')"/>
                <use id="zoomminus" xlink:href="#zoomMin" x="42" y="9" onmousedown="handleZoom(evt,'out')"/>
                <use id="reset" xlink:href="#resetDef" x="30" y="36" onmousedown="handleReset()"/>
                <g id="arrowUp" xlink:href="#dirArrow" transform="translate(30 24)" onmousedown="handlePan(0,-1)">
                  <use xlink:href="#rim" fill="#404040">
                        <set attributeName="fill" to="#808080" begin="arrowUp.mouseover" end="arrowUp.mouseout"/>
                  </use>
                  <path fill="none" stroke="white" stroke-width="1.5" d="M0,-3.0v7 M-2.5,-0.5L0,-3.0L2.5,-0.5"/>
                </g>
                <g id="arrowRight" xlink:href="#dirArrow" transform="rotate(90) translate(36 -43)" onmousedown="handlePan(1,0)">
                  <use xlink:href="#rim" fill="#404040">
                        <set attributeName="fill" to="#808080" begin="arrowRight.mouseover" end="arrowRight.mouseout"/>
                  </use>
                  <path fill="none" stroke="white" stroke-width="1.5" d="M0,-3.0v7 M-2.5,-0.5L0,-3.0L2.5,-0.5"/>
                </g>
                <g id="arrowDown" xlink:href="#dirArrow" transform="rotate(180) translate(-30 -48)" onmousedown="handlePan(0,1)">
                  <use xlink:href="#rim" fill="#404040">
                        <set attributeName="fill" to="#808080" begin="arrowDown.mouseover" end="arrowDown.mouseout"/>
                  </use>
                  <path fill="none" stroke="white" stroke-width="1.5" d="M0,-3.0v7 M-2.5,-0.5L0,-3.0L2.5,-0.5"/>
                </g>
                <g id="arrowLeft" xlink:href="#dirArrow" transform="rotate(270) translate(-36 17)" onmousedown="handlePan(-1,0)">
                  <use xlink:href="#rim" fill="#404040">
                        <set attributeName="fill" to="#808080" begin="arrowLeft.mouseover" end="arrowLeft.mouseout"/>
                  </use>
                  <path fill="none" stroke="white" stroke-width="1.5" d="M0,-3.0v7 M-2.5,-0.5L0,-3.0L2.5,-0.5"/>
                </g>
        </g>
        <svg viewBox="0 0 15 15" width="100%" height="30px" preserveAspectRatio="xMaxYMin meet">
         <g id="arrow_out" transform="scale(0.3 0.3)">
          <a xlink:href="classx265_1_1Entropy_a9078f8e04c0b7a1a2840299c30458e97_icgraph_org.svg" target="_base">
           <rect id="button" ry="5" rx="5" y="6" x="6" height="38" width="38"
                fill="#f2f5e9" fill-opacity="0.5" stroke="#606060" stroke-width="1.0"/>
           <path id="arrow"
             d="M 11.500037,31.436501 C 11.940474,20.09759 22.043105,11.32322 32.158766,21.979434 L 37.068811,17.246167 C 37.068811,17.246167 37.088388,32 37.088388,32 L 22.160133,31.978069 C 22.160133,31.978069 26.997745,27.140456 26.997745,27.140456 C 18.528582,18.264221 13.291696,25.230495 11.500037,31.436501 z"
             style="fill:#404040;"/>
          </a>
         </g>
        </svg>
</svg>
