<?xml version="1.0" encoding="UTF-8" standalone="no"?>
<!DOCTYPE svg PUBLIC "-//W3C//DTD SVG 1.1//EN"
 "http://www.w3.org/Graphics/SVG/1.1/DTD/svg11.dtd">
<!-- Generated by graphviz version 2.36.0 (20140111.2315)
 -->
<!-- Title: IPFilterHarness Pages: 1 -->
<svg width="309pt" height="210pt"
 viewBox="0.00 0.00 309.00 210.00" xmlns="http://www.w3.org/2000/svg" xmlns:xlink="http://www.w3.org/1999/xlink">
<g id="graph0" class="graph" transform="scale(1 1) rotate(0) translate(4 206)">
<title>IPFilterHarness</title>
<polygon fill="white" stroke="none" points="-4,4 -4,-206 305,-206 305,4 -4,4"/>
<!-- Node1 -->
<g id="node1" class="node"><title>Node1</title>
<polygon fill="#bfbfbf" stroke="black" points="83.5,-0.5 83.5,-19.5 168.5,-19.5 168.5,-0.5 83.5,-0.5"/>
<text text-anchor="middle" x="126" y="-7.5" font-family="Helvetica,sans-Serif" font-size="10.00">IPFilterHarness</text>
</g>
<!-- Node2 -->
<g id="node2" class="node"><title>Node2</title>
<g id="a_node2"><a xlink:href="classTestHarness.html" target="_top" xlink:title="TestHarness">
<polygon fill="white" stroke="black" points="16.5,-102.5 16.5,-121.5 89.5,-121.5 89.5,-102.5 16.5,-102.5"/>
<text text-anchor="middle" x="53" y="-109.5" font-family="Helvetica,sans-Serif" font-size="10.00">TestHarness</text>
</a>
</g>
</g>
<!-- Node2&#45;&gt;Node1 -->
<g id="edge1" class="edge"><title>Node2&#45;&gt;Node1</title>
<path fill="none" stroke="midnightblue" d="M65.2211,-94.2587C80.9651,-72.6916 107.737,-36.018 119.792,-19.5044"/>
<polygon fill="midnightblue" stroke="midnightblue" points="62.2932,-92.3335 59.2239,-102.474 67.947,-96.4608 62.2932,-92.3335"/>
</g>
<!-- Node3 -->
<g id="node3" class="node"><title>Node3</title>
<polygon fill="white" stroke="#bfbfbf" points="0,-182.5 0,-201.5 48,-201.5 48,-182.5 0,-182.5"/>
<text text-anchor="middle" x="24" y="-189.5" font-family="Helvetica,sans-Serif" font-size="10.00">__int64</text>
</g>
<!-- Node3&#45;&gt;Node2 -->
<g id="edge2" class="edge"><title>Node3&#45;&gt;Node2</title>
<path fill="none" stroke="#9a32cd" stroke-dasharray="5,2" d="M22.2582,-172.344C22.219,-165.767 22.8441,-158.416 25,-152 28.9291,-140.306 37.6736,-129.099 44.3524,-121.723"/>
<polygon fill="#9a32cd" stroke="#9a32cd" points="18.7659,-172.584 22.798,-182.381 25.7558,-172.208 18.7659,-172.584"/>
<text text-anchor="middle" x="43" y="-155.5" font-family="Helvetica,sans-Serif" font-size="10.00"> m_rand</text>
</g>
<!-- Node4 -->
<g id="node4" class="node"><title>Node4</title>
<polygon fill="white" stroke="#bfbfbf" points="89.5,-182.5 89.5,-201.5 118.5,-201.5 118.5,-182.5 89.5,-182.5"/>
<text text-anchor="middle" x="104" y="-189.5" font-family="Helvetica,sans-Serif" font-size="10.00">int</text>
</g>
<!-- Node4&#45;&gt;Node1 -->
<g id="edge5" class="edge"><title>Node4&#45;&gt;Node1</title>
<path fill="none" stroke="#9a32cd" stroke-dasharray="5,2" d="M109.995,-172.527C110.762,-169.694 111.465,-166.785 112,-164 122.409,-109.776 125.138,-43.2073 125.802,-19.7106"/>
<polygon fill="#9a32cd" stroke="#9a32cd" points="106.641,-171.525 107.115,-182.109 113.345,-173.54 106.641,-171.525"/>
<text text-anchor="middle" x="162" y="-126" font-family="Helvetica,sans-Serif" font-size="10.00"> short_test_buff</text>
<text text-anchor="middle" x="162" y="-115" font-family="Helvetica,sans-Serif" font-size="10.00">IPF_C_output_s</text>
<text text-anchor="middle" x="162" y="-104" font-family="Helvetica,sans-Serif" font-size="10.00">short_buff</text>
<text text-anchor="middle" x="162" y="-93" font-family="Helvetica,sans-Serif" font-size="10.00">IPF_vec_output_s</text>
</g>
<!-- Node4&#45;&gt;Node2 -->
<g id="edge3" class="edge"><title>Node4&#45;&gt;Node2</title>
<path fill="none" stroke="#9a32cd" stroke-dasharray="5,2" d="M91.0643,-174.029C88.6616,-170.74 86.2131,-167.292 84,-164 74.2884,-149.554 63.9727,-132.104 58.0282,-121.815"/>
<polygon fill="#9a32cd" stroke="#9a32cd" points="88.3377,-176.228 97.1243,-182.148 93.9472,-172.04 88.3377,-176.228"/>
<text text-anchor="middle" x="98" y="-155.5" font-family="Helvetica,sans-Serif" font-size="10.00"> m_ok</text>
</g>
<!-- Node5 -->
<g id="node5" class="node"><title>Node5</title>
<polygon fill="white" stroke="#bfbfbf" points="224.5,-102.5 224.5,-121.5 301.5,-121.5 301.5,-102.5 224.5,-102.5"/>
<text text-anchor="middle" x="263" y="-109.5" font-family="Helvetica,sans-Serif" font-size="10.00">unsigned char</text>
</g>
<!-- Node5&#45;&gt;Node1 -->
<g id="edge4" class="edge"><title>Node5&#45;&gt;Node1</title>
<path fill="none" stroke="#9a32cd" stroke-dasharray="5,2" d="M243.149,-96.5101C214.142,-75.3369 161.083,-36.6078 137.651,-19.5044"/>
<polygon fill="#9a32cd" stroke="#9a32cd" points="241.179,-99.4053 251.319,-102.474 245.306,-93.7513 241.179,-99.4053"/>
<text text-anchor="middle" x="248.5" y="-63.5" font-family="Helvetica,sans-Serif" font-size="10.00"> IPF_vec_output_p</text>
<text text-anchor="middle" x="248.5" y="-52.5" font-family="Helvetica,sans-Serif" font-size="10.00">pixel_test_buff</text>
<text text-anchor="middle" x="248.5" y="-41.5" font-family="Helvetica,sans-Serif" font-size="10.00">IPF_C_output_p</text>
</g>
</g>
</svg>
