<?xml version="1.0" encoding="UTF-8" standalone="no"?>
<!DOCTYPE svg PUBLIC "-//W3C//DTD SVG 1.1//EN"
 "http://www.w3.org/Graphics/SVG/1.1/DTD/svg11.dtd">
<!-- Generated by graphviz version 2.36.0 (20140111.2315)
 -->
<!-- Title: x265::JobProvider Pages: 1 -->
<svg width="192pt" height="98pt"
 viewBox="0.00 0.00 192.00 98.00" xmlns="http://www.w3.org/2000/svg" xmlns:xlink="http://www.w3.org/1999/xlink">
<g id="graph0" class="graph" transform="scale(1 1) rotate(0) translate(4 94)">
<title>x265::JobProvider</title>
<polygon fill="white" stroke="none" points="-4,4 -4,-94 188,-94 188,4 -4,4"/>
<!-- Node1 -->
<g id="node1" class="node"><title>Node1</title>
<polygon fill="#bfbfbf" stroke="black" points="-0.5,-1.5 -0.5,-20.5 94.5,-20.5 94.5,-1.5 -0.5,-1.5"/>
<text text-anchor="middle" x="47" y="-8.5" font-family="Helvetica,sans-Serif" font-size="10.00">x265::JobProvider</text>
</g>
<!-- Node1&#45;&gt;Node1 -->
<g id="edge2" class="edge"><title>Node1&#45;&gt;Node1</title>
<path fill="none" stroke="#9a32cd" stroke-dasharray="5,2" d="M104.552,-15.8612C109.152,-14.7993 112,-13.179 112,-11 112,-7.51367 104.71,-5.45728 94.6153,-4.83083"/>
<polygon fill="#9a32cd" stroke="#9a32cd" points="104.073,-12.3939 94.6153,-17.1692 104.987,-19.3341 104.073,-12.3939"/>
<text text-anchor="middle" x="148" y="-14" font-family="Helvetica,sans-Serif" font-size="10.00"> m_nextProvider</text>
<text text-anchor="middle" x="148" y="-3" font-family="Helvetica,sans-Serif" font-size="10.00">m_prevProvider</text>
</g>
<!-- Node2 -->
<g id="node2" class="node"><title>Node2</title>
<g id="a_node2"><a xlink:href="classx265_1_1ThreadPool.html" target="_top" xlink:title="x265::ThreadPool">
<polygon fill="white" stroke="black" points="0.5,-70.5 0.5,-89.5 93.5,-89.5 93.5,-70.5 0.5,-70.5"/>
<text text-anchor="middle" x="47" y="-77.5" font-family="Helvetica,sans-Serif" font-size="10.00">x265::ThreadPool</text>
</a>
</g>
</g>
<!-- Node2&#45;&gt;Node1 -->
<g id="edge1" class="edge"><title>Node2&#45;&gt;Node1</title>
<path fill="none" stroke="#9a32cd" stroke-dasharray="5,2" d="M47,-60.0183C47,-47.034 47,-30.4419 47,-20.5494"/>
<polygon fill="#9a32cd" stroke="#9a32cd" points="43.5001,-60.2409 47,-70.2409 50.5001,-60.241 43.5001,-60.2409"/>
<text text-anchor="middle" x="64.5" y="-43.5" font-family="Helvetica,sans-Serif" font-size="10.00"> m_pool</text>
</g>
</g>
</svg>
