<?xml version="1.0" encoding="UTF-8" standalone="no"?>
<!DOCTYPE svg PUBLIC "-//W3C//DTD SVG 1.1//EN"
 "http://www.w3.org/Graphics/SVG/1.1/DTD/svg11.dtd">
<!-- Generated by graphviz version 2.36.0 (20140111.2315)
 -->
<!-- Title: x265::RateControl::rateControlStart Pages: 1 -->
<svg width="1076pt" height="834pt"
 viewBox="0.00 0.00 1076.00 834.00" xmlns="http://www.w3.org/2000/svg" xmlns:xlink="http://www.w3.org/1999/xlink">
<g id="graph0" class="graph" transform="scale(1 1) rotate(0) translate(4 830)">
<title>x265::RateControl::rateControlStart</title>
<polygon fill="white" stroke="none" points="-4,4 -4,-830 1072,-830 1072,4 -4,4"/>
<!-- Node1 -->
<g id="node1" class="node"><title>Node1</title>
<polygon fill="#bfbfbf" stroke="black" points="0,-637 0,-667 102,-667 102,-637 0,-637"/>
<text text-anchor="start" x="8" y="-655" font-family="Helvetica,sans-Serif" font-size="10.00">x265::RateControl::</text>
<text text-anchor="middle" x="51" y="-644" font-family="Helvetica,sans-Serif" font-size="10.00">rateControlStart</text>
</g>
<!-- Node2 -->
<g id="node2" class="node"><title>Node2</title>
<g id="a_node2"><a xlink:href="classx265_1_1ThreadSafeInteger.html#af48adc2cfb1c6b566a3480dc8fb16585" target="_top" xlink:title="x265::ThreadSafeInteger::get">
<polygon fill="white" stroke="black" points="138.5,-806.5 138.5,-825.5 281.5,-825.5 281.5,-806.5 138.5,-806.5"/>
<text text-anchor="middle" x="210" y="-813.5" font-family="Helvetica,sans-Serif" font-size="10.00">x265::ThreadSafeInteger::get</text>
</a>
</g>
</g>
<!-- Node1&#45;&gt;Node2 -->
<g id="edge1" class="edge"><title>Node1&#45;&gt;Node2</title>
<path fill="none" stroke="midnightblue" d="M56.7973,-667.204C66.8869,-696.668 93.1483,-761.655 138,-796 141.025,-798.316 144.306,-800.364 147.742,-802.175"/>
<polygon fill="midnightblue" stroke="midnightblue" points="146.579,-805.491 157.132,-806.436 149.472,-799.116 146.579,-805.491"/>
</g>
<!-- Node3 -->
<g id="node3" class="node"><title>Node3</title>
<g id="a_node3"><a xlink:href="classx265_1_1ThreadSafeInteger.html#a8e92deff7e19a201fc92a8e67101a9f7" target="_top" xlink:title="x265::ThreadSafeInteger\l::waitForChange">
<polygon fill="white" stroke="black" points="148,-757 148,-787 272,-787 272,-757 148,-757"/>
<text text-anchor="start" x="156" y="-775" font-family="Helvetica,sans-Serif" font-size="10.00">x265::ThreadSafeInteger</text>
<text text-anchor="middle" x="210" y="-764" font-family="Helvetica,sans-Serif" font-size="10.00">::waitForChange</text>
</a>
</g>
</g>
<!-- Node1&#45;&gt;Node3 -->
<g id="edge2" class="edge"><title>Node1&#45;&gt;Node3</title>
<path fill="none" stroke="midnightblue" d="M62.1469,-667.328C76.6507,-688.129 105.21,-725.196 138,-747 140.918,-748.94 144.003,-750.748 147.189,-752.43"/>
<polygon fill="midnightblue" stroke="midnightblue" points="145.849,-755.669 156.378,-756.844 148.879,-749.359 145.849,-755.669"/>
</g>
<!-- Node4 -->
<g id="node4" class="node"><title>Node4</title>
<g id="a_node4"><a xlink:href="classx265_1_1ThreadSafeInteger.html#a442f026ad88169ce46171765512a139f" target="_top" xlink:title="x265::ThreadSafeInteger\l::incr">
<polygon fill="white" stroke="black" points="148,-708 148,-738 272,-738 272,-708 148,-708"/>
<text text-anchor="start" x="156" y="-726" font-family="Helvetica,sans-Serif" font-size="10.00">x265::ThreadSafeInteger</text>
<text text-anchor="middle" x="210" y="-715" font-family="Helvetica,sans-Serif" font-size="10.00">::incr</text>
</a>
</g>
</g>
<!-- Node1&#45;&gt;Node4 -->
<g id="edge3" class="edge"><title>Node1&#45;&gt;Node4</title>
<path fill="none" stroke="midnightblue" d="M77.8312,-667.153C94.646,-676.68 117.236,-688.855 138,-698 142.933,-700.173 148.12,-702.294 153.351,-704.325"/>
<polygon fill="midnightblue" stroke="midnightblue" points="152.176,-707.623 162.768,-707.873 154.644,-701.072 152.176,-707.623"/>
</g>
<!-- Node5 -->
<g id="node5" class="node"><title>Node5</title>
<g id="a_node5"><a xlink:href="classx265_1_1RateControl.html#a4013526dc27a276abbd1b92325bc25e2" target="_top" xlink:title="x265::RateControl::\lupdateVbvPlan">
<polygon fill="white" stroke="black" points="159,-659 159,-689 261,-689 261,-659 159,-659"/>
<text text-anchor="start" x="167" y="-677" font-family="Helvetica,sans-Serif" font-size="10.00">x265::RateControl::</text>
<text text-anchor="middle" x="210" y="-666" font-family="Helvetica,sans-Serif" font-size="10.00">updateVbvPlan</text>
</a>
</g>
</g>
<!-- Node1&#45;&gt;Node5 -->
<g id="edge4" class="edge"><title>Node1&#45;&gt;Node5</title>
<path fill="none" stroke="midnightblue" d="M102.107,-659.021C116.978,-661.105 133.419,-663.409 148.857,-665.572"/>
<polygon fill="midnightblue" stroke="midnightblue" points="148.441,-669.048 158.83,-666.97 149.413,-662.116 148.441,-669.048"/>
</g>
<!-- Node7 -->
<g id="node7" class="node"><title>Node7</title>
<g id="a_node7"><a xlink:href="common_8cpp.html#a554f90f0dbbe8f4af1b542ff48c2ec2b" target="_top" xlink:title="x265_qScale2qp">
<polygon fill="white" stroke="black" points="972.5,-377.5 972.5,-396.5 1061.5,-396.5 1061.5,-377.5 972.5,-377.5"/>
<text text-anchor="middle" x="1017" y="-384.5" font-family="Helvetica,sans-Serif" font-size="10.00">x265_qScale2qp</text>
</a>
</g>
</g>
<!-- Node1&#45;&gt;Node7 -->
<g id="edge6" class="edge"><title>Node1&#45;&gt;Node7</title>
<path fill="none" stroke="midnightblue" d="M102.202,-646.73C168.646,-640.222 289.479,-630 393,-630 393,-630 393,-630 565,-630 661.363,-630 917.725,-455.896 994.181,-402.428"/>
<polygon fill="midnightblue" stroke="midnightblue" points="996.416,-405.136 1002.59,-396.526 992.395,-399.406 996.416,-405.136"/>
</g>
<!-- Node8 -->
<g id="node8" class="node"><title>Node8</title>
<g id="a_node8"><a xlink:href="classx265_1_1RateControl.html#a20bb1fccf54857b75ef70fcc61406bb7" target="_top" xlink:title="x265::RateControl::\lrateEstimateQscale">
<polygon fill="white" stroke="black" points="158.5,-372 158.5,-402 261.5,-402 261.5,-372 158.5,-372"/>
<text text-anchor="start" x="166.5" y="-390" font-family="Helvetica,sans-Serif" font-size="10.00">x265::RateControl::</text>
<text text-anchor="middle" x="210" y="-379" font-family="Helvetica,sans-Serif" font-size="10.00">rateEstimateQscale</text>
</a>
</g>
</g>
<!-- Node1&#45;&gt;Node8 -->
<g id="edge7" class="edge"><title>Node1&#45;&gt;Node8</title>
<path fill="none" stroke="midnightblue" d="M60.8908,-636.993C86.8982,-593.095 162.993,-464.655 194.785,-410.993"/>
<polygon fill="midnightblue" stroke="midnightblue" points="197.926,-412.558 200.012,-402.171 191.904,-408.99 197.926,-412.558"/>
</g>
<!-- Node13 -->
<g id="node13" class="node"><title>Node13</title>
<g id="a_node13"><a xlink:href="common_8h.html#a0bc45c2b4097068046b78520c8c09a94" target="_top" xlink:title="Clip3">
<polygon fill="white" stroke="black" points="997.5,-163.5 997.5,-182.5 1036.5,-182.5 1036.5,-163.5 997.5,-163.5"/>
<text text-anchor="middle" x="1017" y="-170.5" font-family="Helvetica,sans-Serif" font-size="10.00">Clip3</text>
</a>
</g>
</g>
<!-- Node1&#45;&gt;Node13 -->
<g id="edge40" class="edge"><title>Node1&#45;&gt;Node13</title>
<path fill="none" stroke="midnightblue" d="M53.2177,-636.746C61.5233,-543.927 118.072,-59 393,-59 393,-59 393,-59 565,-59 729.343,-59 917.382,-131.031 987.605,-160.58"/>
<polygon fill="midnightblue" stroke="midnightblue" points="986.522,-163.922 997.094,-164.617 989.262,-157.481 986.522,-163.922"/>
</g>
<!-- Node23 -->
<g id="node23" class="node"><title>Node23</title>
<g id="a_node23"><a xlink:href="classx265_1_1RateControl.html#a0e31407ce7ab6c769a4639e7a7a2b1b6" target="_top" xlink:title="x265::RateControl::\laccumPQpUpdate">
<polygon fill="white" stroke="black" points="159,-0 159,-30 261,-30 261,-0 159,-0"/>
<text text-anchor="start" x="167" y="-18" font-family="Helvetica,sans-Serif" font-size="10.00">x265::RateControl::</text>
<text text-anchor="middle" x="210" y="-7" font-family="Helvetica,sans-Serif" font-size="10.00">accumPQpUpdate</text>
</a>
</g>
</g>
<!-- Node1&#45;&gt;Node23 -->
<g id="edge41" class="edge"><title>Node1&#45;&gt;Node23</title>
<path fill="none" stroke="midnightblue" d="M52.1794,-636.945C53.4627,-552.875 63.5161,-141.792 138,-45 141.417,-40.5591 145.616,-36.7684 150.25,-33.5339"/>
<polygon fill="midnightblue" stroke="midnightblue" points="152.211,-36.4389 158.985,-28.2923 148.609,-30.4367 152.211,-36.4389"/>
</g>
<!-- Node6 -->
<g id="node6" class="node"><title>Node6</title>
<g id="a_node6"><a xlink:href="classx265_1_1Encoder.html#a8431589118153878163c829fe7e44d94" target="_top" xlink:title="x265::Encoder::updateVbvPlan">
<polygon fill="white" stroke="black" points="318,-664.5 318,-683.5 470,-683.5 470,-664.5 318,-664.5"/>
<text text-anchor="middle" x="394" y="-671.5" font-family="Helvetica,sans-Serif" font-size="10.00">x265::Encoder::updateVbvPlan</text>
</a>
</g>
</g>
<!-- Node5&#45;&gt;Node6 -->
<g id="edge5" class="edge"><title>Node5&#45;&gt;Node6</title>
<path fill="none" stroke="midnightblue" d="M261.214,-674C275.542,-674 291.57,-674 307.381,-674"/>
<polygon fill="midnightblue" stroke="midnightblue" points="307.719,-677.5 317.719,-674 307.719,-670.5 307.719,-677.5"/>
</g>
<!-- Node8&#45;&gt;Node7 -->
<g id="edge17" class="edge"><title>Node8&#45;&gt;Node7</title>
<path fill="none" stroke="midnightblue" d="M261.713,-387C330.119,-387 455.75,-387 563,-387 563,-387 563,-387 722,-387 805.782,-387 902.994,-387 961.969,-387"/>
<polygon fill="midnightblue" stroke="midnightblue" points="962.167,-390.5 972.167,-387 962.167,-383.5 962.167,-390.5"/>
</g>
<!-- Node9 -->
<g id="node9" class="node"><title>Node9</title>
<g id="a_node9"><a xlink:href="common_8cpp.html#a746489f014374f963df715ddf9bd3986" target="_top" xlink:title="x265_log">
<polygon fill="white" stroke="black" points="989,-617.5 989,-636.5 1045,-636.5 1045,-617.5 989,-617.5"/>
<text text-anchor="middle" x="1017" y="-624.5" font-family="Helvetica,sans-Serif" font-size="10.00">x265_log</text>
</a>
</g>
</g>
<!-- Node8&#45;&gt;Node9 -->
<g id="edge8" class="edge"><title>Node8&#45;&gt;Node9</title>
<path fill="none" stroke="midnightblue" d="M222.019,-402.046C239.94,-425.67 277.496,-471.778 318,-501 517.325,-644.806 579.95,-680.213 820,-733 867.748,-743.5 885.864,-754.027 930,-733 967.795,-714.994 994.381,-671.361 1007.23,-646.045"/>
<polygon fill="midnightblue" stroke="midnightblue" points="1010.53,-647.263 1011.75,-636.739 1004.23,-644.204 1010.53,-647.263"/>
</g>
<!-- Node10 -->
<g id="node10" class="node"><title>Node10</title>
<g id="a_node10"><a xlink:href="common_8cpp.html#a4f4c9b86a7de778b323e810d58f82881" target="_top" xlink:title="x265_qp2qScale">
<polygon fill="white" stroke="black" points="972.5,-270.5 972.5,-289.5 1061.5,-289.5 1061.5,-270.5 972.5,-270.5"/>
<text text-anchor="middle" x="1017" y="-277.5" font-family="Helvetica,sans-Serif" font-size="10.00">x265_qp2qScale</text>
</a>
</g>
</g>
<!-- Node8&#45;&gt;Node10 -->
<g id="edge9" class="edge"><title>Node8&#45;&gt;Node10</title>
<path fill="none" stroke="midnightblue" d="M235.109,-371.801C290.652,-338.289 432.859,-261 563,-261 563,-261 563,-261 722,-261 805.957,-261 903.12,-268.811 962.037,-274.417"/>
<polygon fill="midnightblue" stroke="midnightblue" points="961.934,-277.923 972.224,-275.401 962.607,-270.956 961.934,-277.923"/>
</g>
<!-- Node11 -->
<g id="node11" class="node"><title>Node11</title>
<g id="a_node11"><a xlink:href="classx265_1_1RateControl.html#a9e8c75424270fc93216b1f0a1cbcef6d" target="_top" xlink:title="x265::RateControl::\lclipQscale">
<polygon fill="white" stroke="black" points="824,-202 824,-232 926,-232 926,-202 824,-202"/>
<text text-anchor="start" x="832" y="-220" font-family="Helvetica,sans-Serif" font-size="10.00">x265::RateControl::</text>
<text text-anchor="middle" x="875" y="-209" font-family="Helvetica,sans-Serif" font-size="10.00">clipQscale</text>
</a>
</g>
</g>
<!-- Node8&#45;&gt;Node11 -->
<g id="edge10" class="edge"><title>Node8&#45;&gt;Node11</title>
<path fill="none" stroke="midnightblue" d="M217.346,-371.688C230.781,-341.51 265.256,-274.867 318,-247 480.083,-161.365 707.125,-186.138 813.951,-204.737"/>
<polygon fill="midnightblue" stroke="midnightblue" points="813.448,-208.203 823.908,-206.514 814.678,-201.311 813.448,-208.203"/>
</g>
<!-- Node12 -->
<g id="node12" class="node"><title>Node12</title>
<g id="a_node12"><a xlink:href="classx265_1_1RateControl.html#a47722986970e185b7770688f20e45cc1" target="_top" xlink:title="x265::RateControl::\lpredictSize">
<polygon fill="white" stroke="black" points="966,-79 966,-109 1068,-109 1068,-79 966,-79"/>
<text text-anchor="start" x="974" y="-97" font-family="Helvetica,sans-Serif" font-size="10.00">x265::RateControl::</text>
<text text-anchor="middle" x="1017" y="-86" font-family="Helvetica,sans-Serif" font-size="10.00">predictSize</text>
</a>
</g>
</g>
<!-- Node8&#45;&gt;Node12 -->
<g id="edge15" class="edge"><title>Node8&#45;&gt;Node12</title>
<path fill="none" stroke="midnightblue" d="M212.052,-371.866C216.111,-326.39 235.002,-190.498 318,-132 419.535,-60.4378 805.019,-79.0268 955.403,-89.3475"/>
<polygon fill="midnightblue" stroke="midnightblue" points="955.598,-92.8696 965.818,-90.075 956.086,-85.8866 955.598,-92.8696"/>
</g>
<!-- Node8&#45;&gt;Node13 -->
<g id="edge16" class="edge"><title>Node8&#45;&gt;Node13</title>
<path fill="none" stroke="midnightblue" d="M214.826,-371.935C224.938,-335.321 255.955,-241.211 318,-194 407.132,-126.178 450.998,-135 563,-135 563,-135 563,-135 722,-135 819.983,-135 934.831,-156.017 987.268,-166.79"/>
<polygon fill="midnightblue" stroke="midnightblue" points="986.687,-170.244 997.192,-168.861 988.117,-163.392 986.687,-170.244"/>
</g>
<!-- Node14 -->
<g id="node14" class="node"><title>Node14</title>
<g id="a_node14"><a xlink:href="classx265_1_1RateControl.html#a3ceb36fd188ea7802089f5e3223327fe" target="_top" xlink:title="x265::RateControl::\lgetQScale">
<polygon fill="white" stroke="black" points="824,-694 824,-724 926,-724 926,-694 824,-694"/>
<text text-anchor="start" x="832" y="-712" font-family="Helvetica,sans-Serif" font-size="10.00">x265::RateControl::</text>
<text text-anchor="middle" x="875" y="-701" font-family="Helvetica,sans-Serif" font-size="10.00">getQScale</text>
</a>
</g>
</g>
<!-- Node8&#45;&gt;Node14 -->
<g id="edge18" class="edge"><title>Node8&#45;&gt;Node14</title>
<path fill="none" stroke="midnightblue" d="M232.442,-402.269C253.567,-416.913 287.078,-439.086 318,-455 447.596,-521.696 489.635,-516.985 622,-578 700.668,-614.263 790.039,-662.447 838.377,-689.114"/>
<polygon fill="midnightblue" stroke="midnightblue" points="836.753,-692.215 847.197,-693.992 840.141,-686.09 836.753,-692.215"/>
</g>
<!-- Node15 -->
<g id="node15" class="node"><title>Node15</title>
<g id="a_node15"><a xlink:href="classx265_1_1RateControl.html#a707ab4308990444a40f1fb4c2d2f4f48" target="_top" xlink:title="x265::RateControl::\lcheckAndResetABR">
<polygon fill="white" stroke="black" points="340.5,-416 340.5,-446 447.5,-446 447.5,-416 340.5,-416"/>
<text text-anchor="start" x="348.5" y="-434" font-family="Helvetica,sans-Serif" font-size="10.00">x265::RateControl::</text>
<text text-anchor="middle" x="394" y="-423" font-family="Helvetica,sans-Serif" font-size="10.00">checkAndResetABR</text>
</a>
</g>
</g>
<!-- Node8&#45;&gt;Node15 -->
<g id="edge19" class="edge"><title>Node8&#45;&gt;Node15</title>
<path fill="none" stroke="midnightblue" d="M261.697,-399.256C283.045,-404.417 308.101,-410.475 330.571,-415.907"/>
<polygon fill="midnightblue" stroke="midnightblue" points="329.814,-419.325 340.356,-418.273 331.459,-412.521 329.814,-419.325"/>
</g>
<!-- Node11&#45;&gt;Node7 -->
<g id="edge13" class="edge"><title>Node11&#45;&gt;Node7</title>
<path fill="none" stroke="midnightblue" d="M888.424,-232.086C914.225,-263.416 973.509,-335.404 1001.22,-369.052"/>
<polygon fill="midnightblue" stroke="midnightblue" points="998.787,-371.604 1007.85,-377.098 1004.19,-367.154 998.787,-371.604"/>
</g>
<!-- Node11&#45;&gt;Node10 -->
<g id="edge14" class="edge"><title>Node11&#45;&gt;Node10</title>
<path fill="none" stroke="midnightblue" d="M909.533,-232.09C932.506,-242.427 962.747,-256.036 985.127,-266.107"/>
<polygon fill="midnightblue" stroke="midnightblue" points="983.942,-269.412 994.498,-270.324 986.815,-263.028 983.942,-269.412"/>
</g>
<!-- Node11&#45;&gt;Node12 -->
<g id="edge11" class="edge"><title>Node11&#45;&gt;Node12</title>
<path fill="none" stroke="midnightblue" d="M893.167,-201.918C917.622,-180.432 962.647,-140.874 990.864,-116.084"/>
<polygon fill="midnightblue" stroke="midnightblue" points="993.49,-118.435 998.693,-109.206 988.87,-113.176 993.49,-118.435"/>
</g>
<!-- Node11&#45;&gt;Node13 -->
<g id="edge12" class="edge"><title>Node11&#45;&gt;Node13</title>
<path fill="none" stroke="midnightblue" d="M923.788,-201.981C944.944,-195.332 969.119,-187.734 987.407,-181.986"/>
<polygon fill="midnightblue" stroke="midnightblue" points="988.675,-185.257 997.166,-178.919 986.576,-178.579 988.675,-185.257"/>
</g>
<!-- Node16 -->
<g id="node16" class="node"><title>Node16</title>
<g id="a_node16"><a xlink:href="classx265_1_1RateControl.html#a876ac228bb24724125ce1caadbff73ec" target="_top" xlink:title="x265::RateControl::init">
<polygon fill="white" stroke="black" points="506.5,-421.5 506.5,-440.5 621.5,-440.5 621.5,-421.5 506.5,-421.5"/>
<text text-anchor="middle" x="564" y="-428.5" font-family="Helvetica,sans-Serif" font-size="10.00">x265::RateControl::init</text>
</a>
</g>
</g>
<!-- Node15&#45;&gt;Node16 -->
<g id="edge20" class="edge"><title>Node15&#45;&gt;Node16</title>
<path fill="none" stroke="midnightblue" d="M447.695,-431C463.009,-431 479.943,-431 496.01,-431"/>
<polygon fill="midnightblue" stroke="midnightblue" points="496.417,-434.5 506.417,-431 496.417,-427.5 496.417,-434.5"/>
</g>
<!-- Node16&#45;&gt;Node9 -->
<g id="edge21" class="edge"><title>Node16&#45;&gt;Node9</title>
<path fill="none" stroke="midnightblue" d="M571.001,-440.518C584.249,-460.786 618.017,-508.516 658,-535 707.331,-567.676 737.104,-541.916 784,-578 806.86,-595.59 794.569,-618.39 820,-632 869.8,-658.652 937.39,-648.652 978.784,-638.317"/>
<polygon fill="midnightblue" stroke="midnightblue" points="979.936,-641.633 988.717,-635.704 978.155,-634.863 979.936,-641.633"/>
</g>
<!-- Node16&#45;&gt;Node10 -->
<g id="edge25" class="edge"><title>Node16&#45;&gt;Node10</title>
<path fill="none" stroke="midnightblue" d="M582.698,-421.472C623.419,-399.929 727.373,-347.092 820,-318 867.152,-303.191 922.584,-293.09 962.443,-287.046"/>
<polygon fill="midnightblue" stroke="midnightblue" points="963.103,-290.487 972.483,-285.56 962.078,-283.562 963.103,-290.487"/>
</g>
<!-- Node16&#45;&gt;Node13 -->
<g id="edge22" class="edge"><title>Node16&#45;&gt;Node13</title>
<path fill="none" stroke="midnightblue" d="M571.24,-421.488C596.632,-383.737 696.735,-244.015 820,-192 875.567,-168.552 947.626,-168.398 987.06,-170.569"/>
<polygon fill="midnightblue" stroke="midnightblue" points="987.073,-174.077 997.277,-171.225 987.522,-167.091 987.073,-174.077"/>
</g>
<!-- Node17 -->
<g id="node17" class="node"><title>Node17</title>
<g id="a_node17"><a xlink:href="common_8cpp.html#ac8bbdf4be09a3e4236e27a9cbec3f0ca" target="_top" xlink:title="x265_slurp_file">
<polygon fill="white" stroke="black" points="680,-506.5 680,-525.5 762,-525.5 762,-506.5 680,-506.5"/>
<text text-anchor="middle" x="721" y="-513.5" font-family="Helvetica,sans-Serif" font-size="10.00">x265_slurp_file</text>
</a>
</g>
</g>
<!-- Node16&#45;&gt;Node17 -->
<g id="edge23" class="edge"><title>Node16&#45;&gt;Node17</title>
<path fill="none" stroke="midnightblue" d="M576.327,-440.614C593.167,-454.499 626.244,-480.226 658,-496 663.256,-498.611 668.929,-500.985 674.633,-503.111"/>
<polygon fill="midnightblue" stroke="midnightblue" points="673.6,-506.458 684.195,-506.453 675.91,-499.85 673.6,-506.458"/>
</g>
<!-- Node18 -->
<g id="node18" class="node"><title>Node18</title>
<g id="a_node18"><a xlink:href="classx265_1_1RateControl.html#ab62a87de35962cdad349f03adc82a7ee" target="_top" xlink:title="x265::RateControl::\linitPass2">
<polygon fill="white" stroke="black" points="670,-457 670,-487 772,-487 772,-457 670,-457"/>
<text text-anchor="start" x="678" y="-475" font-family="Helvetica,sans-Serif" font-size="10.00">x265::RateControl::</text>
<text text-anchor="middle" x="721" y="-464" font-family="Helvetica,sans-Serif" font-size="10.00">initPass2</text>
</a>
</g>
</g>
<!-- Node16&#45;&gt;Node18 -->
<g id="edge26" class="edge"><title>Node16&#45;&gt;Node18</title>
<path fill="none" stroke="midnightblue" d="M600.95,-440.509C618.469,-445.144 640.011,-450.842 659.932,-456.111"/>
<polygon fill="midnightblue" stroke="midnightblue" points="659.301,-459.564 669.863,-458.738 661.091,-452.797 659.301,-459.564"/>
</g>
<!-- Node22 -->
<g id="node22" class="node"><title>Node22</title>
<g id="a_node22"><a xlink:href="namespacex265.html#a4819045d47ad5d930e467bf61716fdcd" target="_top" xlink:title="x265::x265_param2string">
<polygon fill="white" stroke="black" points="658,-418.5 658,-437.5 784,-437.5 784,-418.5 658,-418.5"/>
<text text-anchor="middle" x="721" y="-425.5" font-family="Helvetica,sans-Serif" font-size="10.00">x265::x265_param2string</text>
</a>
</g>
</g>
<!-- Node16&#45;&gt;Node22 -->
<g id="edge39" class="edge"><title>Node16&#45;&gt;Node22</title>
<path fill="none" stroke="midnightblue" d="M621.836,-429.9C630.282,-429.736 639.081,-429.566 647.79,-429.398"/>
<polygon fill="midnightblue" stroke="midnightblue" points="648.016,-432.894 657.946,-429.201 647.88,-425.895 648.016,-432.894"/>
</g>
<!-- Node17&#45;&gt;Node9 -->
<g id="edge24" class="edge"><title>Node17&#45;&gt;Node9</title>
<path fill="none" stroke="midnightblue" d="M758.725,-525.507C767.668,-529.032 776.738,-533.752 784,-540 808.446,-561.033 793.145,-585.145 820,-603 867.635,-634.67 936.442,-635.252 978.583,-631.817"/>
<polygon fill="midnightblue" stroke="midnightblue" points="979.062,-635.287 988.694,-630.873 978.412,-628.317 979.062,-635.287"/>
</g>
<!-- Node18&#45;&gt;Node7 -->
<g id="edge38" class="edge"><title>Node18&#45;&gt;Node7</title>
<path fill="none" stroke="midnightblue" d="M772.206,-457.485C828.751,-441.136 919.693,-414.844 973.066,-399.413"/>
<polygon fill="midnightblue" stroke="midnightblue" points="974.263,-402.71 982.898,-396.57 972.319,-395.986 974.263,-402.71"/>
</g>
<!-- Node18&#45;&gt;Node9 -->
<g id="edge27" class="edge"><title>Node18&#45;&gt;Node9</title>
<path fill="none" stroke="midnightblue" d="M769.857,-487.038C774.969,-489.847 779.82,-493.144 784,-497 810.294,-521.262 792.577,-546.022 820,-569 823.129,-571.622 923.062,-600.451 978.992,-616.451"/>
<polygon fill="midnightblue" stroke="midnightblue" points="978.314,-619.897 988.891,-619.28 980.237,-613.166 978.314,-619.897"/>
</g>
<!-- Node18&#45;&gt;Node11 -->
<g id="edge33" class="edge"><title>Node18&#45;&gt;Node11</title>
<path fill="none" stroke="midnightblue" d="M771.83,-456.979C776.344,-454.189 780.518,-450.892 784,-447 823.687,-402.637 797.835,-373.243 820,-318 830.994,-290.599 847.401,-261.006 859.244,-240.982"/>
<polygon fill="midnightblue" stroke="midnightblue" points="862.347,-242.611 864.487,-232.235 856.343,-239.012 862.347,-242.611"/>
</g>
<!-- Node18&#45;&gt;Node14 -->
<g id="edge28" class="edge"><title>Node18&#45;&gt;Node14</title>
<path fill="none" stroke="midnightblue" d="M771.309,-487.038C775.98,-489.829 780.332,-493.121 784,-497 818.185,-533.151 800.658,-557.16 820,-603 832.185,-631.877 848.9,-663.768 860.492,-684.951"/>
<polygon fill="midnightblue" stroke="midnightblue" points="857.525,-686.819 865.423,-693.881 863.653,-683.435 857.525,-686.819"/>
</g>
<!-- Node19 -->
<g id="node19" class="node"><title>Node19</title>
<g id="a_node19"><a xlink:href="classx265_1_1RateControl.html#add904797841a6b6c624e925968d0260a" target="_top" xlink:title="x265::RateControl::\lgetDiffLimitedQScale">
<polygon fill="white" stroke="black" points="820,-328 820,-358 930,-358 930,-328 820,-328"/>
<text text-anchor="start" x="828" y="-346" font-family="Helvetica,sans-Serif" font-size="10.00">x265::RateControl::</text>
<text text-anchor="middle" x="875" y="-335" font-family="Helvetica,sans-Serif" font-size="10.00">getDiffLimitedQScale</text>
</a>
</g>
</g>
<!-- Node18&#45;&gt;Node19 -->
<g id="edge29" class="edge"><title>Node18&#45;&gt;Node19</title>
<path fill="none" stroke="midnightblue" d="M766.714,-456.984C772.77,-454.1 778.712,-450.778 784,-447 800.479,-435.226 834.639,-393.388 855.81,-366.501"/>
<polygon fill="midnightblue" stroke="midnightblue" points="858.78,-368.385 862.189,-358.354 853.268,-364.07 858.78,-368.385"/>
</g>
<!-- Node20 -->
<g id="node20" class="node"><title>Node20</title>
<g id="a_node20"><a xlink:href="classx265_1_1RateControl.html#a416aa4151a029ba291d7b44df687dc5e" target="_top" xlink:title="x265::RateControl::\lvbv2Pass">
<polygon fill="white" stroke="red" points="824,-530 824,-560 926,-560 926,-530 824,-530"/>
<text text-anchor="start" x="832" y="-548" font-family="Helvetica,sans-Serif" font-size="10.00">x265::RateControl::</text>
<text text-anchor="middle" x="875" y="-537" font-family="Helvetica,sans-Serif" font-size="10.00">vbv2Pass</text>
</a>
</g>
</g>
<!-- Node18&#45;&gt;Node20 -->
<g id="edge34" class="edge"><title>Node18&#45;&gt;Node20</title>
<path fill="none" stroke="midnightblue" d="M761.299,-487.11C768.894,-490.236 776.743,-493.614 784,-497 802.243,-505.513 822.033,-515.932 838.397,-524.884"/>
<polygon fill="midnightblue" stroke="midnightblue" points="837.152,-528.195 847.599,-529.96 840.534,-522.065 837.152,-528.195"/>
</g>
<!-- Node21 -->
<g id="node21" class="node"><title>Node21</title>
<g id="a_node21"><a xlink:href="classx265_1_1RateControl.html#aa1a80e5a87ce7cc73c4f922933e90ed3" target="_top" xlink:title="x265::RateControl::\lcountExpectedBits">
<polygon fill="white" stroke="black" points="966,-508 966,-538 1068,-538 1068,-508 966,-508"/>
<text text-anchor="start" x="974" y="-526" font-family="Helvetica,sans-Serif" font-size="10.00">x265::RateControl::</text>
<text text-anchor="middle" x="1017" y="-515" font-family="Helvetica,sans-Serif" font-size="10.00">countExpectedBits</text>
</a>
</g>
</g>
<!-- Node18&#45;&gt;Node21 -->
<g id="edge37" class="edge"><title>Node18&#45;&gt;Node21</title>
<path fill="none" stroke="midnightblue" d="M772.206,-480.709C822.897,-489.502 901.23,-503.091 955.358,-512.481"/>
<polygon fill="midnightblue" stroke="midnightblue" points="955.057,-515.981 965.509,-514.241 956.254,-509.084 955.057,-515.981"/>
</g>
<!-- Node19&#45;&gt;Node7 -->
<g id="edge32" class="edge"><title>Node19&#45;&gt;Node7</title>
<path fill="none" stroke="midnightblue" d="M923.788,-358.019C940.713,-363.338 959.57,-369.265 975.799,-374.365"/>
<polygon fill="midnightblue" stroke="midnightblue" points="974.934,-377.762 985.524,-377.422 977.033,-371.084 974.934,-377.762"/>
</g>
<!-- Node19&#45;&gt;Node10 -->
<g id="edge30" class="edge"><title>Node19&#45;&gt;Node10</title>
<path fill="none" stroke="midnightblue" d="M909.533,-327.91C932.506,-317.573 962.747,-303.964 985.127,-293.893"/>
<polygon fill="midnightblue" stroke="midnightblue" points="986.815,-296.972 994.498,-289.676 983.942,-290.588 986.815,-296.972"/>
</g>
<!-- Node19&#45;&gt;Node13 -->
<g id="edge31" class="edge"><title>Node19&#45;&gt;Node13</title>
<path fill="none" stroke="midnightblue" d="M888.424,-327.914C914.225,-296.584 973.509,-224.596 1001.22,-190.948"/>
<polygon fill="midnightblue" stroke="midnightblue" points="1004.19,-192.846 1007.85,-182.902 998.787,-188.396 1004.19,-192.846"/>
</g>
<!-- Node20&#45;&gt;Node9 -->
<g id="edge36" class="edge"><title>Node20&#45;&gt;Node9</title>
<path fill="none" stroke="midnightblue" d="M903.581,-560.068C912.09,-564.784 921.464,-570.051 930,-575 951.013,-587.184 974.606,-601.495 991.757,-612.016"/>
<polygon fill="midnightblue" stroke="midnightblue" points="990.214,-615.176 1000.57,-617.434 993.882,-609.214 990.214,-615.176"/>
</g>
<!-- Node20&#45;&gt;Node21 -->
<g id="edge35" class="edge"><title>Node20&#45;&gt;Node21</title>
<path fill="none" stroke="midnightblue" d="M926.148,-537.12C935.698,-535.619 945.785,-534.034 955.615,-532.489"/>
<polygon fill="midnightblue" stroke="midnightblue" points="956.396,-535.909 965.732,-530.899 955.31,-528.994 956.396,-535.909"/>
</g>
</g>
</svg>
