<?xml version="1.0" encoding="UTF-8" standalone="no"?>
<!DOCTYPE svg PUBLIC "-//W3C//DTD SVG 1.1//EN"
 "http://www.w3.org/Graphics/SVG/1.1/DTD/svg11.dtd">
<!-- Generated by graphviz version 2.36.0 (20140111.2315)
 -->
<!-- Title: x265::Lookahead::cuTree Pages: 1 -->
<svg width="1154pt" height="724pt"
 viewBox="0.00 0.00 1154.00 724.00" xmlns="http://www.w3.org/2000/svg" xmlns:xlink="http://www.w3.org/1999/xlink">
<g id="graph0" class="graph" transform="scale(1 1) rotate(0) translate(4 720)">
<title>x265::Lookahead::cuTree</title>
<polygon fill="white" stroke="none" points="-4,4 -4,-720 1150,-720 1150,4 -4,4"/>
<!-- Node1 -->
<g id="node1" class="node"><title>Node1</title>
<polygon fill="#bfbfbf" stroke="black" points="0.5,-49.5 0.5,-68.5 127.5,-68.5 127.5,-49.5 0.5,-49.5"/>
<text text-anchor="middle" x="64" y="-56.5" font-family="Helvetica,sans-Serif" font-size="10.00">x265::Lookahead::cuTree</text>
</g>
<!-- Node2 -->
<g id="node2" class="node"><title>Node2</title>
<g id="a_node2"><a xlink:href="classx265_1_1CostEstimate.html#af33d06405527ebbb03d9c93d565e6e2a" target="_top" xlink:title="x265::CostEstimate\l::estimateFrameCost">
<polygon fill="white" stroke="black" points="176.5,-175 176.5,-205 285.5,-205 285.5,-175 176.5,-175"/>
<text text-anchor="start" x="184.5" y="-193" font-family="Helvetica,sans-Serif" font-size="10.00">x265::CostEstimate</text>
<text text-anchor="middle" x="231" y="-182" font-family="Helvetica,sans-Serif" font-size="10.00">::estimateFrameCost</text>
</a>
</g>
</g>
<!-- Node1&#45;&gt;Node2 -->
<g id="edge1" class="edge"><title>Node1&#45;&gt;Node2</title>
<path fill="none" stroke="midnightblue" d="M77.1328,-68.6327C103.453,-89.529 166.345,-139.462 202.73,-168.35"/>
<polygon fill="midnightblue" stroke="midnightblue" points="200.93,-171.389 210.938,-174.866 205.282,-165.907 200.93,-171.389"/>
</g>
<!-- Node36 -->
<g id="node36" class="node"><title>Node36</title>
<g id="a_node36"><a xlink:href="classx265_1_1Lookahead.html#ab9797d1bdb6f5d879c95945d96b04465" target="_top" xlink:title="x265::Lookahead::estimate\lCUPropagate">
<polygon fill="white" stroke="black" points="164,-0 164,-30 298,-30 298,-0 164,-0"/>
<text text-anchor="start" x="172" y="-18" font-family="Helvetica,sans-Serif" font-size="10.00">x265::Lookahead::estimate</text>
<text text-anchor="middle" x="231" y="-7" font-family="Helvetica,sans-Serif" font-size="10.00">CUPropagate</text>
</a>
</g>
</g>
<!-- Node1&#45;&gt;Node36 -->
<g id="edge39" class="edge"><title>Node1&#45;&gt;Node36</title>
<path fill="none" stroke="midnightblue" d="M100.803,-49.4527C119.214,-44.543 142.251,-38.3996 163.755,-32.6653"/>
<polygon fill="midnightblue" stroke="midnightblue" points="164.744,-36.0239 173.505,-30.0654 162.941,-29.2602 164.744,-36.0239"/>
</g>
<!-- Node37 -->
<g id="node37" class="node"><title>Node37</title>
<g id="a_node37"><a xlink:href="classx265_1_1Lookahead.html#af2d1422f3e2483911cb873c8d5ff27ec" target="_top" xlink:title="x265::Lookahead::cuTreeFinish">
<polygon fill="white" stroke="black" points="334.5,-5.5 334.5,-24.5 487.5,-24.5 487.5,-5.5 334.5,-5.5"/>
<text text-anchor="middle" x="411" y="-12.5" font-family="Helvetica,sans-Serif" font-size="10.00">x265::Lookahead::cuTreeFinish</text>
</a>
</g>
</g>
<!-- Node1&#45;&gt;Node37 -->
<g id="edge41" class="edge"><title>Node1&#45;&gt;Node37</title>
<path fill="none" stroke="midnightblue" d="M127.552,-55.7661C174.606,-52.8168 240.58,-47.582 298,-39 318.935,-35.8711 341.824,-31.1948 361.423,-26.7989"/>
<polygon fill="midnightblue" stroke="midnightblue" points="362.373,-30.1721 371.344,-24.5354 360.816,-23.3475 362.373,-30.1721"/>
</g>
<!-- Node3 -->
<g id="node3" class="node"><title>Node3</title>
<g id="a_node3"><a xlink:href="classx265_1_1CostEstimate.html#a97a70c43a6dc0ede9d048a1dc8af59ed" target="_top" xlink:title="x265::CostEstimate\l::weightsAnalyse">
<polygon fill="white" stroke="black" points="359,-375 359,-405 463,-405 463,-375 359,-375"/>
<text text-anchor="start" x="367" y="-393" font-family="Helvetica,sans-Serif" font-size="10.00">x265::CostEstimate</text>
<text text-anchor="middle" x="411" y="-382" font-family="Helvetica,sans-Serif" font-size="10.00">::weightsAnalyse</text>
</a>
</g>
</g>
<!-- Node2&#45;&gt;Node3 -->
<g id="edge2" class="edge"><title>Node2&#45;&gt;Node3</title>
<path fill="none" stroke="midnightblue" d="M239.03,-205.422C253.347,-235.503 288.422,-302.832 334,-346 343.695,-355.183 355.652,-363.232 367.189,-369.849"/>
<polygon fill="midnightblue" stroke="midnightblue" points="365.848,-373.106 376.3,-374.843 369.213,-366.968 365.848,-373.106"/>
</g>
<!-- Node7 -->
<g id="node7" class="node"><title>Node7</title>
<g id="a_node7"><a xlink:href="classx265_1_1EstimateRow.html#abbf6cfd575ceb20105ae92c0ad2711e2" target="_top" xlink:title="x265::EstimateRow::init">
<polygon fill="white" stroke="black" points="350,-268.5 350,-287.5 472,-287.5 472,-268.5 350,-268.5"/>
<text text-anchor="middle" x="411" y="-275.5" font-family="Helvetica,sans-Serif" font-size="10.00">x265::EstimateRow::init</text>
</a>
</g>
</g>
<!-- Node2&#45;&gt;Node7 -->
<g id="edge6" class="edge"><title>Node2&#45;&gt;Node7</title>
<path fill="none" stroke="midnightblue" d="M250.439,-205.051C270.062,-220.383 302.556,-243.857 334,-258 340.27,-260.82 347.016,-263.305 353.809,-265.477"/>
<polygon fill="midnightblue" stroke="midnightblue" points="353.159,-268.936 363.743,-268.439 355.159,-262.228 353.159,-268.936"/>
</g>
<!-- Node8 -->
<g id="node8" class="node"><title>Node8</title>
<g id="a_node8"><a xlink:href="classx265_1_1MotionEstimate.html#ac697505bf39a6a42796f76bcc971eba3" target="_top" xlink:title="x265::MotionEstimate\l::setSourcePlane">
<polygon fill="white" stroke="black" points="355,-219 355,-249 467,-249 467,-219 355,-219"/>
<text text-anchor="start" x="363" y="-237" font-family="Helvetica,sans-Serif" font-size="10.00">x265::MotionEstimate</text>
<text text-anchor="middle" x="411" y="-226" font-family="Helvetica,sans-Serif" font-size="10.00">::setSourcePlane</text>
</a>
</g>
</g>
<!-- Node2&#45;&gt;Node8 -->
<g id="edge7" class="edge"><title>Node2&#45;&gt;Node8</title>
<path fill="none" stroke="midnightblue" d="M285.889,-203.321C304.449,-207.909 325.435,-213.096 344.799,-217.883"/>
<polygon fill="midnightblue" stroke="midnightblue" points="344.208,-221.342 354.755,-220.344 345.887,-214.546 344.208,-221.342"/>
</g>
<!-- Node9 -->
<g id="node9" class="node"><title>Node9</title>
<g id="a_node9"><a xlink:href="classx265_1_1JobProvider.html#a18b4ca907c73a70fd1a3d19951e715f5" target="_top" xlink:title="x265::JobProvider::\lenqueue">
<polygon fill="white" stroke="black" points="360.5,-82 360.5,-112 461.5,-112 461.5,-82 360.5,-82"/>
<text text-anchor="start" x="368.5" y="-100" font-family="Helvetica,sans-Serif" font-size="10.00">x265::JobProvider::</text>
<text text-anchor="middle" x="411" y="-89" font-family="Helvetica,sans-Serif" font-size="10.00">enqueue</text>
</a>
</g>
</g>
<!-- Node2&#45;&gt;Node9 -->
<g id="edge8" class="edge"><title>Node2&#45;&gt;Node9</title>
<path fill="none" stroke="midnightblue" d="M250.912,-174.736C270.657,-159.41 303.01,-135.982 334,-121 339.267,-118.454 344.868,-116.094 350.547,-113.928"/>
<polygon fill="midnightblue" stroke="midnightblue" points="351.918,-117.155 360.137,-110.468 349.542,-110.57 351.918,-117.155"/>
</g>
<!-- Node12 -->
<g id="node12" class="node"><title>Node12</title>
<g id="a_node12"><a xlink:href="classx265_1_1WaveFront.html#a7e9bb7c12ce745c308ada7e889a8227e" target="_top" xlink:title="x265::WaveFront::enqueueRow">
<polygon fill="white" stroke="black" points="524.5,-218.5 524.5,-237.5 679.5,-237.5 679.5,-218.5 524.5,-218.5"/>
<text text-anchor="middle" x="602" y="-225.5" font-family="Helvetica,sans-Serif" font-size="10.00">x265::WaveFront::enqueueRow</text>
</a>
</g>
</g>
<!-- Node2&#45;&gt;Node12 -->
<g id="edge11" class="edge"><title>Node2&#45;&gt;Node12</title>
<path fill="none" stroke="midnightblue" d="M285.584,-192.532C337.476,-195.324 418.315,-200.574 488,-209 505.009,-211.057 523.364,-213.88 540.232,-216.721"/>
<polygon fill="midnightblue" stroke="midnightblue" points="540.071,-220.245 550.519,-218.486 541.254,-213.345 540.071,-220.245"/>
</g>
<!-- Node13 -->
<g id="node13" class="node"><title>Node13</title>
<g id="a_node13"><a xlink:href="classx265_1_1WaveFront.html#a2d24a9c2629a6c16c96ecdc85993d77c" target="_top" xlink:title="x265::WaveFront::findJob">
<polygon fill="white" stroke="black" points="346.5,-43.5 346.5,-62.5 475.5,-62.5 475.5,-43.5 346.5,-43.5"/>
<text text-anchor="middle" x="411" y="-50.5" font-family="Helvetica,sans-Serif" font-size="10.00">x265::WaveFront::findJob</text>
</a>
</g>
</g>
<!-- Node2&#45;&gt;Node13 -->
<g id="edge13" class="edge"><title>Node2&#45;&gt;Node13</title>
<path fill="none" stroke="midnightblue" d="M240.836,-174.686C256.324,-149.265 290.87,-98.5318 334,-72 337.421,-69.8956 341.064,-68.0238 344.832,-66.3591"/>
<polygon fill="midnightblue" stroke="midnightblue" points="346.354,-69.5227 354.402,-62.6328 343.814,-62.9997 346.354,-69.5227"/>
</g>
<!-- Node15 -->
<g id="node15" class="node"><title>Node15</title>
<g id="a_node15"><a xlink:href="classx265_1_1JobProvider.html#aad43fe7bf62d5d3656046fcf0888e7b8" target="_top" xlink:title="x265::JobProvider::\ldequeue">
<polygon fill="white" stroke="black" points="360.5,-131 360.5,-161 461.5,-161 461.5,-131 360.5,-131"/>
<text text-anchor="start" x="368.5" y="-149" font-family="Helvetica,sans-Serif" font-size="10.00">x265::JobProvider::</text>
<text text-anchor="middle" x="411" y="-138" font-family="Helvetica,sans-Serif" font-size="10.00">dequeue</text>
</a>
</g>
</g>
<!-- Node2&#45;&gt;Node15 -->
<g id="edge15" class="edge"><title>Node2&#45;&gt;Node15</title>
<path fill="none" stroke="midnightblue" d="M285.889,-176.679C306.294,-171.635 329.632,-165.866 350.523,-160.702"/>
<polygon fill="midnightblue" stroke="midnightblue" points="351.374,-164.097 360.242,-158.3 349.695,-157.302 351.374,-164.097"/>
</g>
<!-- Node17 -->
<g id="node17" class="node"><title>Node17</title>
<g id="a_node17"><a xlink:href="classx265_1_1CostEstimate.html#a239a71996364d7662e9c9c32b82d6c9f" target="_top" xlink:title="x265::CostEstimate\l::processRow">
<polygon fill="white" stroke="black" points="359,-307 359,-337 463,-337 463,-307 359,-307"/>
<text text-anchor="start" x="367" y="-325" font-family="Helvetica,sans-Serif" font-size="10.00">x265::CostEstimate</text>
<text text-anchor="middle" x="411" y="-314" font-family="Helvetica,sans-Serif" font-size="10.00">::processRow</text>
</a>
</g>
</g>
<!-- Node2&#45;&gt;Node17 -->
<g id="edge18" class="edge"><title>Node2&#45;&gt;Node17</title>
<path fill="none" stroke="midnightblue" d="M242.467,-205.019C259.235,-228.014 294.297,-271.911 334,-297 338.889,-300.09 344.199,-302.836 349.663,-305.268"/>
<polygon fill="midnightblue" stroke="midnightblue" points="348.376,-308.523 358.956,-309.071 351.027,-302.045 348.376,-308.523"/>
</g>
<!-- Node4 -->
<g id="node4" class="node"><title>Node4</title>
<g id="a_node4"><a xlink:href="structx265_1_1WeightParam.html#ade2d5601abcbd58f276e3a1699bebd77" target="_top" xlink:title="x265::WeightParam::\lsetFromWeightAndOffset">
<polygon fill="white" stroke="black" points="538,-444 538,-474 666,-474 666,-444 538,-444"/>
<text text-anchor="start" x="546" y="-462" font-family="Helvetica,sans-Serif" font-size="10.00">x265::WeightParam::</text>
<text text-anchor="middle" x="602" y="-451" font-family="Helvetica,sans-Serif" font-size="10.00">setFromWeightAndOffset</text>
</a>
</g>
</g>
<!-- Node3&#45;&gt;Node4 -->
<g id="edge3" class="edge"><title>Node3&#45;&gt;Node4</title>
<path fill="none" stroke="midnightblue" d="M448.613,-405.029C470.39,-413.806 498.631,-424.908 524,-434 530.312,-436.262 536.945,-438.549 543.56,-440.773"/>
<polygon fill="midnightblue" stroke="midnightblue" points="542.607,-444.145 553.201,-443.977 544.815,-437.502 542.607,-444.145"/>
</g>
<!-- Node5 -->
<g id="node5" class="node"><title>Node5</title>
<g id="a_node5"><a xlink:href="classx265_1_1CostEstimate.html#a0cbdff1f1c55dcec0820ddef993eafee" target="_top" xlink:title="x265::CostEstimate\l::weightCostLuma">
<polygon fill="white" stroke="black" points="550,-395 550,-425 654,-425 654,-395 550,-395"/>
<text text-anchor="start" x="558" y="-413" font-family="Helvetica,sans-Serif" font-size="10.00">x265::CostEstimate</text>
<text text-anchor="middle" x="602" y="-402" font-family="Helvetica,sans-Serif" font-size="10.00">::weightCostLuma</text>
</a>
</g>
</g>
<!-- Node3&#45;&gt;Node5 -->
<g id="edge4" class="edge"><title>Node3&#45;&gt;Node5</title>
<path fill="none" stroke="midnightblue" d="M463.146,-395.412C486.783,-397.914 515.04,-400.904 539.799,-403.524"/>
<polygon fill="midnightblue" stroke="midnightblue" points="539.5,-407.012 549.813,-404.583 540.237,-400.05 539.5,-407.012"/>
</g>
<!-- Node6 -->
<g id="node6" class="node"><title>Node6</title>
<g id="a_node6"><a xlink:href="common_8h.html#a0bc45c2b4097068046b78520c8c09a94" target="_top" xlink:title="Clip3">
<polygon fill="white" stroke="black" points="582.5,-356.5 582.5,-375.5 621.5,-375.5 621.5,-356.5 582.5,-356.5"/>
<text text-anchor="middle" x="602" y="-363.5" font-family="Helvetica,sans-Serif" font-size="10.00">Clip3</text>
</a>
</g>
</g>
<!-- Node3&#45;&gt;Node6 -->
<g id="edge5" class="edge"><title>Node3&#45;&gt;Node6</title>
<path fill="none" stroke="midnightblue" d="M463.146,-383.505C498.044,-379.074 543.013,-373.363 571.929,-369.692"/>
<polygon fill="midnightblue" stroke="midnightblue" points="572.691,-373.123 582.171,-368.391 571.809,-366.179 572.691,-373.123"/>
</g>
<!-- Node10 -->
<g id="node10" class="node"><title>Node10</title>
<g id="a_node10"><a xlink:href="classx265_1_1ThreadPool.html#aded625482b82128d9ff1a3f3058129c1" target="_top" xlink:title="x265::ThreadPool::enqueue\lJobProvider">
<polygon fill="white" stroke="black" points="534,-82 534,-112 670,-112 670,-82 534,-82"/>
<text text-anchor="start" x="542" y="-100" font-family="Helvetica,sans-Serif" font-size="10.00">x265::ThreadPool::enqueue</text>
<text text-anchor="middle" x="602" y="-89" font-family="Helvetica,sans-Serif" font-size="10.00">JobProvider</text>
</a>
</g>
</g>
<!-- Node9&#45;&gt;Node10 -->
<g id="edge9" class="edge"><title>Node9&#45;&gt;Node10</title>
<path fill="none" stroke="midnightblue" d="M461.658,-97C480.643,-97 502.773,-97 523.732,-97"/>
<polygon fill="midnightblue" stroke="midnightblue" points="523.908,-100.5 533.908,-97 523.908,-93.5001 523.908,-100.5"/>
</g>
<!-- Node11 -->
<g id="node11" class="node"><title>Node11</title>
<g id="a_node11"><a xlink:href="classx265_1_1ThreadPool.html#a47277b980acec1c3114d1374ba304b85" target="_top" xlink:title="x265::ThreadPool::pokeIdle\lThread">
<polygon fill="white" stroke="black" points="719,-106 719,-136 855,-136 855,-106 719,-106"/>
<text text-anchor="start" x="727" y="-124" font-family="Helvetica,sans-Serif" font-size="10.00">x265::ThreadPool::pokeIdle</text>
<text text-anchor="middle" x="787" y="-113" font-family="Helvetica,sans-Serif" font-size="10.00">Thread</text>
</a>
</g>
</g>
<!-- Node9&#45;&gt;Node11 -->
<g id="edge10" class="edge"><title>Node9&#45;&gt;Node11</title>
<path fill="none" stroke="midnightblue" d="M461.959,-83.2559C516.216,-70.4274 605.152,-55.5372 680,-72 705.585,-77.6273 732.346,-90.057 752.579,-100.989"/>
<polygon fill="midnightblue" stroke="midnightblue" points="750.946,-104.085 761.388,-105.876 754.342,-97.9641 750.946,-104.085"/>
</g>
<!-- Node12&#45;&gt;Node11 -->
<g id="edge12" class="edge"><title>Node12&#45;&gt;Node11</title>
<path fill="none" stroke="midnightblue" d="M652.433,-218.381C662.217,-214.941 671.941,-210.288 680,-204 704.219,-185.105 692.049,-164.234 716,-145 717.75,-143.595 719.587,-142.27 721.491,-141.02"/>
<polygon fill="midnightblue" stroke="midnightblue" points="723.28,-144.029 730.207,-136.012 719.792,-137.959 723.28,-144.029"/>
</g>
<!-- Node14 -->
<g id="node14" class="node"><title>Node14</title>
<g id="a_node14"><a xlink:href="classx265_1_1WaveFront.html#aa44b94082205421580868d288487dd0c" target="_top" xlink:title="x265::WaveFront::processRow">
<polygon fill="white" stroke="black" points="526,-5.5 526,-24.5 678,-24.5 678,-5.5 526,-5.5"/>
<text text-anchor="middle" x="602" y="-12.5" font-family="Helvetica,sans-Serif" font-size="10.00">x265::WaveFront::processRow</text>
</a>
</g>
</g>
<!-- Node13&#45;&gt;Node14 -->
<g id="edge14" class="edge"><title>Node13&#45;&gt;Node14</title>
<path fill="none" stroke="midnightblue" d="M459.693,-43.411C485.195,-38.2835 516.782,-31.9328 543.62,-26.5368"/>
<polygon fill="midnightblue" stroke="midnightblue" points="544.536,-29.9226 553.65,-24.5201 543.157,-23.0599 544.536,-29.9226"/>
</g>
<!-- Node15&#45;&gt;Node11 -->
<g id="edge17" class="edge"><title>Node15&#45;&gt;Node11</title>
<path fill="none" stroke="midnightblue" d="M459.17,-161.006C513.641,-175.894 605.33,-193.384 680,-170 698.589,-164.178 698.621,-153.798 716,-145 719.51,-143.223 723.182,-141.528 726.928,-139.92"/>
<polygon fill="midnightblue" stroke="midnightblue" points="728.383,-143.106 736.336,-136.107 725.754,-136.619 728.383,-143.106"/>
</g>
<!-- Node16 -->
<g id="node16" class="node"><title>Node16</title>
<g id="a_node16"><a xlink:href="classx265_1_1ThreadPool.html#a360b412a2c2a49143e4611ff790d9462" target="_top" xlink:title="x265::ThreadPool::dequeue\lJobProvider">
<polygon fill="white" stroke="black" points="534,-131 534,-161 670,-161 670,-131 534,-131"/>
<text text-anchor="start" x="542" y="-149" font-family="Helvetica,sans-Serif" font-size="10.00">x265::ThreadPool::dequeue</text>
<text text-anchor="middle" x="602" y="-138" font-family="Helvetica,sans-Serif" font-size="10.00">JobProvider</text>
</a>
</g>
</g>
<!-- Node15&#45;&gt;Node16 -->
<g id="edge16" class="edge"><title>Node15&#45;&gt;Node16</title>
<path fill="none" stroke="midnightblue" d="M461.658,-146C480.643,-146 502.773,-146 523.732,-146"/>
<polygon fill="midnightblue" stroke="midnightblue" points="523.908,-149.5 533.908,-146 523.908,-142.5 523.908,-149.5"/>
</g>
<!-- Node17&#45;&gt;Node12 -->
<g id="edge38" class="edge"><title>Node17&#45;&gt;Node12</title>
<path fill="none" stroke="midnightblue" d="M463.318,-306.914C471.695,-303.943 480.183,-300.613 488,-297 521.376,-281.572 557.161,-258.484 579.314,-243.333"/>
<polygon fill="midnightblue" stroke="midnightblue" points="581.42,-246.131 587.652,-237.563 577.437,-240.375 581.42,-246.131"/>
</g>
<!-- Node18 -->
<g id="node18" class="node"><title>Node18</title>
<g id="a_node18"><a xlink:href="classx265_1_1EstimateRow.html#ab4418a4e826e746d0b9cdce75a0736d9" target="_top" xlink:title="x265::EstimateRow::\lestimateCUCost">
<polygon fill="white" stroke="black" points="547.5,-307 547.5,-337 656.5,-337 656.5,-307 547.5,-307"/>
<text text-anchor="start" x="555.5" y="-325" font-family="Helvetica,sans-Serif" font-size="10.00">x265::EstimateRow::</text>
<text text-anchor="middle" x="602" y="-314" font-family="Helvetica,sans-Serif" font-size="10.00">estimateCUCost</text>
</a>
</g>
</g>
<!-- Node17&#45;&gt;Node18 -->
<g id="edge19" class="edge"><title>Node17&#45;&gt;Node18</title>
<path fill="none" stroke="midnightblue" d="M463.146,-322C485.913,-322 512.965,-322 537.051,-322"/>
<polygon fill="midnightblue" stroke="midnightblue" points="537.17,-325.5 547.17,-322 537.17,-318.5 537.17,-325.5"/>
</g>
<!-- Node19 -->
<g id="node19" class="node"><title>Node19</title>
<g id="a_node19"><a xlink:href="classx265_1_1MotionEstimate.html#adb6e30a132d2c6216fbc68061f1ca488" target="_top" xlink:title="x265::MotionEstimate\l::setSourcePU">
<polygon fill="white" stroke="black" points="731,-450 731,-480 843,-480 843,-450 731,-450"/>
<text text-anchor="start" x="739" y="-468" font-family="Helvetica,sans-Serif" font-size="10.00">x265::MotionEstimate</text>
<text text-anchor="middle" x="787" y="-457" font-family="Helvetica,sans-Serif" font-size="10.00">::setSourcePU</text>
</a>
</g>
</g>
<!-- Node18&#45;&gt;Node19 -->
<g id="edge20" class="edge"><title>Node18&#45;&gt;Node19</title>
<path fill="none" stroke="midnightblue" d="M656.546,-332.498C665.133,-336.019 673.364,-340.721 680,-347 712.196,-377.46 684.25,-409.075 716,-440 717.901,-441.851 719.948,-443.567 722.106,-445.156"/>
<polygon fill="midnightblue" stroke="midnightblue" points="720.57,-448.325 730.9,-450.681 724.294,-442.397 720.57,-448.325"/>
</g>
<!-- Node21 -->
<g id="node21" class="node"><title>Node21</title>
<g id="a_node21"><a xlink:href="classx265_1_1MotionEstimate.html#a2fa2c8bf4129cf3352a828a0795bd139" target="_top" xlink:title="x265::MotionEstimate\l::motionEstimate">
<polygon fill="white" stroke="black" points="731,-401 731,-431 843,-431 843,-401 731,-401"/>
<text text-anchor="start" x="739" y="-419" font-family="Helvetica,sans-Serif" font-size="10.00">x265::MotionEstimate</text>
<text text-anchor="middle" x="787" y="-408" font-family="Helvetica,sans-Serif" font-size="10.00">::motionEstimate</text>
</a>
</g>
</g>
<!-- Node18&#45;&gt;Node21 -->
<g id="edge22" class="edge"><title>Node18&#45;&gt;Node21</title>
<path fill="none" stroke="midnightblue" d="M655.911,-337.134C664.118,-340.063 672.39,-343.366 680,-347 707.915,-360.329 737.206,-379.883 757.906,-394.775"/>
<polygon fill="midnightblue" stroke="midnightblue" points="756.08,-397.775 766.222,-400.84 760.205,-392.119 756.08,-397.775"/>
</g>
<!-- Node27 -->
<g id="node27" class="node"><title>Node27</title>
<g id="a_node27"><a xlink:href="search_8cpp.html#ae9b663e71d46be40d428dde255388fc0" target="_top" xlink:title="ALIGN_VAR_32">
<polygon fill="white" stroke="black" points="1056.5,-226.5 1056.5,-245.5 1145.5,-245.5 1145.5,-226.5 1056.5,-226.5"/>
<text text-anchor="middle" x="1101" y="-233.5" font-family="Helvetica,sans-Serif" font-size="10.00">ALIGN_VAR_32</text>
</a>
</g>
</g>
<!-- Node18&#45;&gt;Node27 -->
<g id="edge37" class="edge"><title>Node18&#45;&gt;Node27</title>
<path fill="none" stroke="midnightblue" d="M639.846,-306.843C694.292,-285.349 799.95,-247.061 894,-233 949.384,-224.72 964.01,-231.951 1020,-233 1028.49,-233.159 1037.48,-233.413 1046.26,-233.708"/>
<polygon fill="midnightblue" stroke="midnightblue" points="1046.29,-237.211 1056.41,-234.069 1046.54,-230.216 1046.29,-237.211"/>
</g>
<!-- Node34 -->
<g id="node34" class="node"><title>Node34</title>
<g id="a_node34"><a xlink:href="structx265_1_1ReferencePlanes.html#a194ef69a517d17a6f7b0741b084164ae" target="_top" xlink:title="x265::ReferencePlanes\l::lowresMC">
<polygon fill="white" stroke="black" points="727.5,-155 727.5,-185 846.5,-185 846.5,-155 727.5,-155"/>
<text text-anchor="start" x="735.5" y="-173" font-family="Helvetica,sans-Serif" font-size="10.00">x265::ReferencePlanes</text>
<text text-anchor="middle" x="787" y="-162" font-family="Helvetica,sans-Serif" font-size="10.00">::lowresMC</text>
</a>
</g>
</g>
<!-- Node18&#45;&gt;Node34 -->
<g id="edge35" class="edge"><title>Node18&#45;&gt;Node34</title>
<path fill="none" stroke="midnightblue" d="M619.912,-306.855C635.994,-292.153 660.547,-268.909 680,-247 697.47,-227.324 695.23,-216.154 716,-200 720.931,-196.165 726.427,-192.723 732.111,-189.661"/>
<polygon fill="midnightblue" stroke="midnightblue" points="733.755,-192.752 741.143,-185.158 730.632,-186.487 733.755,-192.752"/>
</g>
<!-- Node35 -->
<g id="node35" class="node"><title>Node35</title>
<g id="a_node35"><a xlink:href="namespacex265.html#ac6c8410818c1795fa1005c95bcba83a6" target="_top" xlink:title="x265::partitionFromLog2Size">
<polygon fill="white" stroke="black" points="716.5,-499.5 716.5,-518.5 857.5,-518.5 857.5,-499.5 716.5,-499.5"/>
<text text-anchor="middle" x="787" y="-506.5" font-family="Helvetica,sans-Serif" font-size="10.00">x265::partitionFromLog2Size</text>
</a>
</g>
</g>
<!-- Node18&#45;&gt;Node35 -->
<g id="edge36" class="edge"><title>Node18&#45;&gt;Node35</title>
<path fill="none" stroke="midnightblue" d="M656.807,-331.682C665.47,-335.288 673.659,-340.229 680,-347 724.502,-394.524 670.658,-442.276 716,-489 717.848,-490.905 719.865,-492.632 722.009,-494.197"/>
<polygon fill="midnightblue" stroke="midnightblue" points="720.448,-497.342 730.827,-499.468 724.04,-491.333 720.448,-497.342"/>
</g>
<!-- Node20 -->
<g id="node20" class="node"><title>Node20</title>
<g id="a_node20"><a xlink:href="namespacex265.html#a93e053711da89baf3e987bf83cbd55a3" target="_top" xlink:title="x265::partitionFromSizes">
<polygon fill="white" stroke="black" points="894.5,-696.5 894.5,-715.5 1019.5,-715.5 1019.5,-696.5 894.5,-696.5"/>
<text text-anchor="middle" x="957" y="-703.5" font-family="Helvetica,sans-Serif" font-size="10.00">x265::partitionFromSizes</text>
</a>
</g>
</g>
<!-- Node19&#45;&gt;Node20 -->
<g id="edge21" class="edge"><title>Node19&#45;&gt;Node20</title>
<path fill="none" stroke="midnightblue" d="M843.258,-478.151C848.815,-481.291 853.906,-485.181 858,-490 915.628,-557.83 834.838,-620.503 894,-687 895.183,-688.33 896.457,-689.568 897.805,-690.721"/>
<polygon fill="midnightblue" stroke="midnightblue" points="895.993,-693.72 906.235,-696.431 899.918,-687.925 895.993,-693.72"/>
</g>
<!-- Node22 -->
<g id="node22" class="node"><title>Node22</title>
<g id="a_node22"><a xlink:href="classx265_1_1BitCost.html#af9e3546cdb4725839b70c8bc7d0f769f" target="_top" xlink:title="x265::BitCost::setMVP">
<polygon fill="white" stroke="black" points="898,-570.5 898,-589.5 1016,-589.5 1016,-570.5 898,-570.5"/>
<text text-anchor="middle" x="957" y="-577.5" font-family="Helvetica,sans-Serif" font-size="10.00">x265::BitCost::setMVP</text>
</a>
</g>
</g>
<!-- Node21&#45;&gt;Node22 -->
<g id="edge23" class="edge"><title>Node21&#45;&gt;Node22</title>
<path fill="none" stroke="midnightblue" d="M843.092,-429.798C848.607,-432.823 853.734,-436.509 858,-441 896.345,-481.375 854.744,-521.511 894,-561 895.458,-562.467 897.027,-563.821 898.682,-565.072"/>
<polygon fill="midnightblue" stroke="midnightblue" points="897.214,-568.276 907.573,-570.495 900.859,-562.3 897.214,-568.276"/>
</g>
<!-- Node23 -->
<g id="node23" class="node"><title>Node23</title>
<g id="a_node23"><a xlink:href="structx265_1_1MV.html#a75cda809db25c298d3814d018ae48556" target="_top" xlink:title="x265::MV::toQPel">
<polygon fill="white" stroke="black" points="909.5,-532.5 909.5,-551.5 1004.5,-551.5 1004.5,-532.5 909.5,-532.5"/>
<text text-anchor="middle" x="957" y="-539.5" font-family="Helvetica,sans-Serif" font-size="10.00">x265::MV::toQPel</text>
</a>
</g>
</g>
<!-- Node21&#45;&gt;Node23 -->
<g id="edge24" class="edge"><title>Node21&#45;&gt;Node23</title>
<path fill="none" stroke="midnightblue" d="M843.264,-430.7C848.614,-433.554 853.657,-436.953 858,-441 887.121,-468.132 864.267,-496.539 894,-523 895.95,-524.735 898.055,-526.312 900.272,-527.745"/>
<polygon fill="midnightblue" stroke="midnightblue" points="898.815,-530.936 909.28,-532.589 902.13,-524.77 898.815,-530.936"/>
</g>
<!-- Node24 -->
<g id="node24" class="node"><title>Node24</title>
<g id="a_node24"><a xlink:href="structx265_1_1MV.html#aab942064e803bea5dc44bd93c5049044" target="_top" xlink:title="x265::MV::clipped">
<polygon fill="white" stroke="red" points="909.5,-494.5 909.5,-513.5 1004.5,-513.5 1004.5,-494.5 909.5,-494.5"/>
<text text-anchor="middle" x="957" y="-501.5" font-family="Helvetica,sans-Serif" font-size="10.00">x265::MV::clipped</text>
</a>
</g>
</g>
<!-- Node21&#45;&gt;Node24 -->
<g id="edge25" class="edge"><title>Node21&#45;&gt;Node24</title>
<path fill="none" stroke="midnightblue" d="M840.019,-431.018C846.336,-433.856 852.494,-437.165 858,-441 878.452,-455.246 873.33,-470.073 894,-484 897.687,-486.484 901.704,-488.678 905.863,-490.61"/>
<polygon fill="midnightblue" stroke="midnightblue" points="904.54,-493.851 915.119,-494.437 907.215,-487.382 904.54,-493.851"/>
</g>
<!-- Node25 -->
<g id="node25" class="node"><title>Node25</title>
<g id="a_node25"><a xlink:href="structx265_1_1ReferencePlanes.html#ae68e9da3e5057a6525f319a01fd424dd" target="_top" xlink:title="x265::ReferencePlanes\l::lowresQPelCost">
<polygon fill="white" stroke="black" points="897.5,-445 897.5,-475 1016.5,-475 1016.5,-445 897.5,-445"/>
<text text-anchor="start" x="905.5" y="-463" font-family="Helvetica,sans-Serif" font-size="10.00">x265::ReferencePlanes</text>
<text text-anchor="middle" x="957" y="-452" font-family="Helvetica,sans-Serif" font-size="10.00">::lowresQPelCost</text>
</a>
</g>
</g>
<!-- Node21&#45;&gt;Node25 -->
<g id="edge26" class="edge"><title>Node21&#45;&gt;Node25</title>
<path fill="none" stroke="midnightblue" d="M843.009,-430.407C857.61,-434.231 873.543,-438.404 888.718,-442.378"/>
<polygon fill="midnightblue" stroke="midnightblue" points="887.998,-445.808 898.558,-444.956 889.771,-439.036 887.998,-445.808"/>
</g>
<!-- Node26 -->
<g id="node26" class="node"><title>Node26</title>
<g id="a_node26"><a xlink:href="classx265_1_1MotionEstimate.html#a567395e03ad3eaf176bc2be0176b00de" target="_top" xlink:title="x265::MotionEstimate\l::subpelCompare">
<polygon fill="white" stroke="black" points="901,-243 901,-273 1013,-273 1013,-243 901,-243"/>
<text text-anchor="start" x="909" y="-261" font-family="Helvetica,sans-Serif" font-size="10.00">x265::MotionEstimate</text>
<text text-anchor="middle" x="957" y="-250" font-family="Helvetica,sans-Serif" font-size="10.00">::subpelCompare</text>
</a>
</g>
</g>
<!-- Node21&#45;&gt;Node26 -->
<g id="edge27" class="edge"><title>Node21&#45;&gt;Node26</title>
<path fill="none" stroke="midnightblue" d="M796.535,-400.724C812.419,-373.551 849.022,-316.53 894,-283 896.434,-281.186 899.018,-279.481 901.695,-277.883"/>
<polygon fill="midnightblue" stroke="midnightblue" points="903.357,-280.963 910.498,-273.136 900.035,-274.802 903.357,-280.963"/>
</g>
<!-- Node28 -->
<g id="node28" class="node"><title>Node28</title>
<g id="a_node28"><a xlink:href="structx265_1_1MV.html#a86c0423fcfa253386479878911ba85df" target="_top" xlink:title="x265::MV::roundToFPel">
<polygon fill="white" stroke="red" points="897,-406.5 897,-425.5 1017,-425.5 1017,-406.5 897,-406.5"/>
<text text-anchor="middle" x="957" y="-413.5" font-family="Helvetica,sans-Serif" font-size="10.00">x265::MV::roundToFPel</text>
</a>
</g>
</g>
<!-- Node21&#45;&gt;Node28 -->
<g id="edge29" class="edge"><title>Node21&#45;&gt;Node28</title>
<path fill="none" stroke="midnightblue" d="M843.009,-416C856.87,-416 871.932,-416 886.405,-416"/>
<polygon fill="midnightblue" stroke="midnightblue" points="886.814,-419.5 896.814,-416 886.814,-412.5 886.814,-419.5"/>
</g>
<!-- Node29 -->
<g id="node29" class="node"><title>Node29</title>
<g id="a_node29"><a xlink:href="structx265_1_1MV.html#af727b7e8ec45f84fb033435441cca8e2" target="_top" xlink:title="x265::MV::isSubpel">
<polygon fill="white" stroke="black" points="906,-368.5 906,-387.5 1008,-387.5 1008,-368.5 906,-368.5"/>
<text text-anchor="middle" x="957" y="-375.5" font-family="Helvetica,sans-Serif" font-size="10.00">x265::MV::isSubpel</text>
</a>
</g>
</g>
<!-- Node21&#45;&gt;Node29 -->
<g id="edge30" class="edge"><title>Node21&#45;&gt;Node29</title>
<path fill="none" stroke="midnightblue" d="M843.009,-403.557C862.649,-399.115 884.698,-394.128 904.069,-389.746"/>
<polygon fill="midnightblue" stroke="midnightblue" points="904.947,-393.136 913.928,-387.516 903.402,-386.309 904.947,-393.136"/>
</g>
<!-- Node30 -->
<g id="node30" class="node"><title>Node30</title>
<g id="a_node30"><a xlink:href="classx265_1_1BitCost.html#a1f6ec166b475924ab9879f671718fd18" target="_top" xlink:title="x265::BitCost::mvcost">
<polygon fill="white" stroke="black" points="899.5,-330.5 899.5,-349.5 1014.5,-349.5 1014.5,-330.5 899.5,-330.5"/>
<text text-anchor="middle" x="957" y="-337.5" font-family="Helvetica,sans-Serif" font-size="10.00">x265::BitCost::mvcost</text>
</a>
</g>
</g>
<!-- Node21&#45;&gt;Node30 -->
<g id="edge31" class="edge"><title>Node21&#45;&gt;Node30</title>
<path fill="none" stroke="midnightblue" d="M812.594,-400.984C833.655,-388.566 865.076,-371.071 894,-359 899.391,-356.75 905.144,-354.632 910.891,-352.684"/>
<polygon fill="midnightblue" stroke="midnightblue" points="912.056,-355.985 920.491,-349.574 909.899,-349.326 912.056,-355.985"/>
</g>
<!-- Node31 -->
<g id="node31" class="node"><title>Node31</title>
<g id="a_node31"><a xlink:href="structx265_1_1MV.html#ab8c700f2d598d52daeabba8950a4f100" target="_top" xlink:title="x265::MV::notZero">
<polygon fill="white" stroke="black" points="908,-292.5 908,-311.5 1006,-311.5 1006,-292.5 908,-292.5"/>
<text text-anchor="middle" x="957" y="-299.5" font-family="Helvetica,sans-Serif" font-size="10.00">x265::MV::notZero</text>
</a>
</g>
</g>
<!-- Node21&#45;&gt;Node31 -->
<g id="edge32" class="edge"><title>Node21&#45;&gt;Node31</title>
<path fill="none" stroke="midnightblue" d="M800.857,-400.94C819.413,-380.109 855.697,-342.629 894,-321 897.854,-318.824 901.986,-316.868 906.22,-315.116"/>
<polygon fill="midnightblue" stroke="midnightblue" points="907.453,-318.392 915.585,-311.6 904.993,-311.839 907.453,-318.392"/>
</g>
<!-- Node32 -->
<g id="node32" class="node"><title>Node32</title>
<g id="a_node32"><a xlink:href="structx265_1_1MV.html#a01d2ebe3995b2b90306138965e342be0" target="_top" xlink:title="x265::MV::checkRange">
<polygon fill="white" stroke="black" points="897.5,-658.5 897.5,-677.5 1016.5,-677.5 1016.5,-658.5 897.5,-658.5"/>
<text text-anchor="middle" x="957" y="-665.5" font-family="Helvetica,sans-Serif" font-size="10.00">x265::MV::checkRange</text>
</a>
</g>
</g>
<!-- Node21&#45;&gt;Node32 -->
<g id="edge33" class="edge"><title>Node21&#45;&gt;Node32</title>
<path fill="none" stroke="midnightblue" d="M843.298,-429.117C848.848,-432.263 853.927,-436.164 858,-441 918.156,-512.423 832.745,-577.518 894,-648 895.537,-649.769 897.232,-651.382 899.048,-652.854"/>
<polygon fill="midnightblue" stroke="midnightblue" points="897.384,-655.946 907.681,-658.44 901.187,-650.069 897.384,-655.946"/>
</g>
<!-- Node33 -->
<g id="node33" class="node"><title>Node33</title>
<g id="a_node33"><a xlink:href="classx265_1_1MotionEstimate.html#aa22e36e9370319fe452f886c94a68ba3" target="_top" xlink:title="x265::MotionEstimate\l::StarPatternSearch">
<polygon fill="white" stroke="black" points="901,-609 901,-639 1013,-639 1013,-609 901,-609"/>
<text text-anchor="start" x="909" y="-627" font-family="Helvetica,sans-Serif" font-size="10.00">x265::MotionEstimate</text>
<text text-anchor="middle" x="957" y="-616" font-family="Helvetica,sans-Serif" font-size="10.00">::StarPatternSearch</text>
</a>
</g>
</g>
<!-- Node21&#45;&gt;Node33 -->
<g id="edge34" class="edge"><title>Node21&#45;&gt;Node33</title>
<path fill="none" stroke="midnightblue" d="M843.055,-429.327C848.647,-432.436 853.803,-436.271 858,-441 905.809,-494.865 847.285,-544.183 894,-599 895.139,-600.336 896.359,-601.602 897.648,-602.8"/>
<polygon fill="midnightblue" stroke="midnightblue" points="895.614,-605.651 905.68,-608.958 899.873,-600.096 895.614,-605.651"/>
</g>
<!-- Node26&#45;&gt;Node27 -->
<g id="edge28" class="edge"><title>Node26&#45;&gt;Node27</title>
<path fill="none" stroke="midnightblue" d="M1013.31,-249.431C1024.17,-247.749 1035.54,-245.987 1046.34,-244.313"/>
<polygon fill="midnightblue" stroke="midnightblue" points="1047.14,-247.731 1056.49,-242.741 1046.07,-240.813 1047.14,-247.731"/>
</g>
<!-- Node36&#45;&gt;Node37 -->
<g id="edge40" class="edge"><title>Node36&#45;&gt;Node37</title>
<path fill="none" stroke="midnightblue" d="M298.028,-15C306.561,-15 315.397,-15 324.192,-15"/>
<polygon fill="midnightblue" stroke="midnightblue" points="324.476,-18.5001 334.476,-15 324.476,-11.5001 324.476,-18.5001"/>
</g>
</g>
</svg>
