<?xml version="1.0" encoding="UTF-8" standalone="no"?>
<!DOCTYPE svg PUBLIC "-//W3C//DTD SVG 1.1//EN"
 "http://www.w3.org/Graphics/SVG/1.1/DTD/svg11.dtd">
<!-- Generated by graphviz version 2.36.0 (20140111.2315)
 -->
<!-- Title: x265::CUData::getPUAboveRight Pages: 1 -->
<svg width="1898pt" height="220pt"
 viewBox="0.00 0.00 1898.00 220.00" xmlns="http://www.w3.org/2000/svg" xmlns:xlink="http://www.w3.org/1999/xlink">
<g id="graph0" class="graph" transform="scale(1 1) rotate(0) translate(4 216)">
<title>x265::CUData::getPUAboveRight</title>
<polygon fill="white" stroke="none" points="-4,4 -4,-216 1894,-216 1894,4 -4,4"/>
<!-- Node1 -->
<g id="node1" class="node"><title>Node1</title>
<polygon fill="#bfbfbf" stroke="black" points="0.5,-76 0.5,-106 141.5,-106 141.5,-76 0.5,-76"/>
<text text-anchor="start" x="8.5" y="-94" font-family="Helvetica,sans-Serif" font-size="10.00">x265::CUData::getPUAbove</text>
<text text-anchor="middle" x="71" y="-83" font-family="Helvetica,sans-Serif" font-size="10.00">Right</text>
</g>
<!-- Node2 -->
<g id="node2" class="node"><title>Node2</title>
<g id="a_node2"><a xlink:href="classx265_1_1CUData.html#a0a0813a6acf261b95304a250aec73c3b" target="_top" xlink:title="x265::CUData::getInterMerge\lCandidates">
<polygon fill="white" stroke="black" points="360,-120 360,-150 506,-150 506,-120 360,-120"/>
<text text-anchor="start" x="368" y="-138" font-family="Helvetica,sans-Serif" font-size="10.00">x265::CUData::getInterMerge</text>
<text text-anchor="middle" x="433" y="-127" font-family="Helvetica,sans-Serif" font-size="10.00">Candidates</text>
</a>
</g>
</g>
<!-- Node1&#45;&gt;Node2 -->
<g id="edge1" class="edge"><title>Node1&#45;&gt;Node2</title>
<path fill="none" stroke="midnightblue" d="M141.477,-108.232C153.595,-110.807 166.122,-113.197 178,-115 239.007,-124.259 308.949,-129.366 359.972,-132.097"/>
<polygon fill="midnightblue" stroke="midnightblue" points="141.934,-104.749 131.418,-106.035 140.441,-111.588 141.934,-104.749"/>
</g>
<!-- Node16 -->
<g id="node16" class="node"><title>Node16</title>
<g id="a_node16"><a xlink:href="classx265_1_1CUData.html#abe3e0dd714313c4b9d0e981646c51649" target="_top" xlink:title="x265::CUData::addMVPCand">
<polygon fill="white" stroke="black" points="178,-37.5 178,-56.5 324,-56.5 324,-37.5 178,-37.5"/>
<text text-anchor="middle" x="251" y="-44.5" font-family="Helvetica,sans-Serif" font-size="10.00">x265::CUData::addMVPCand</text>
</a>
</g>
</g>
<!-- Node1&#45;&gt;Node16 -->
<g id="edge20" class="edge"><title>Node1&#45;&gt;Node16</title>
<path fill="none" stroke="midnightblue" d="M142.691,-73.5259C166.163,-67.7237 191.412,-61.4824 211.518,-56.5124"/>
<polygon fill="midnightblue" stroke="midnightblue" points="141.628,-70.1833 132.76,-75.9808 143.307,-76.9787 141.628,-70.1833"/>
</g>
<!-- Node20 -->
<g id="node20" class="node"><title>Node20</title>
<g id="a_node20"><a xlink:href="classx265_1_1CUData.html#a5575a29995af7c83719955b0c48a7def" target="_top" xlink:title="x265::CUData::addMVPCand\lOrder">
<polygon fill="white" stroke="black" points="178,-76 178,-106 324,-106 324,-76 178,-76"/>
<text text-anchor="start" x="186" y="-94" font-family="Helvetica,sans-Serif" font-size="10.00">x265::CUData::addMVPCand</text>
<text text-anchor="middle" x="251" y="-83" font-family="Helvetica,sans-Serif" font-size="10.00">Order</text>
</a>
</g>
</g>
<!-- Node1&#45;&gt;Node20 -->
<g id="edge27" class="edge"><title>Node1&#45;&gt;Node20</title>
<path fill="none" stroke="midnightblue" d="M151.717,-91C160.412,-91 169.227,-91 177.824,-91"/>
<polygon fill="midnightblue" stroke="midnightblue" points="151.584,-87.5001 141.584,-91 151.584,-94.5001 151.584,-87.5001"/>
</g>
<!-- Node3 -->
<g id="node3" class="node"><title>Node3</title>
<g id="a_node3"><a xlink:href="classx265_1_1Analysis.html#addd72cb95590e2b2a6965d42d110eab3" target="_top" xlink:title="x265::Analysis::checkMerge2\lNx2N_rd0_4">
<polygon fill="white" stroke="black" points="918,-93 918,-123 1064,-123 1064,-93 918,-93"/>
<text text-anchor="start" x="926" y="-111" font-family="Helvetica,sans-Serif" font-size="10.00">x265::Analysis::checkMerge2</text>
<text text-anchor="middle" x="991" y="-100" font-family="Helvetica,sans-Serif" font-size="10.00">Nx2N_rd0_4</text>
</a>
</g>
</g>
<!-- Node2&#45;&gt;Node3 -->
<g id="edge2" class="edge"><title>Node2&#45;&gt;Node3</title>
<path fill="none" stroke="midnightblue" d="M516.366,-131C624.931,-125.728 814.211,-116.536 917.57,-111.517"/>
<polygon fill="midnightblue" stroke="midnightblue" points="515.936,-127.517 506.117,-131.498 516.275,-134.509 515.936,-127.517"/>
</g>
<!-- Node8 -->
<g id="node8" class="node"><title>Node8</title>
<g id="a_node8"><a xlink:href="classx265_1_1Analysis.html#a0194a9da53aa95173fa1132ba3aea1c7" target="_top" xlink:title="x265::Analysis::checkMerge2\lNx2N_rd5_6">
<polygon fill="white" stroke="black" points="734,-175 734,-205 880,-205 880,-175 734,-175"/>
<text text-anchor="start" x="742" y="-193" font-family="Helvetica,sans-Serif" font-size="10.00">x265::Analysis::checkMerge2</text>
<text text-anchor="middle" x="807" y="-182" font-family="Helvetica,sans-Serif" font-size="10.00">Nx2N_rd5_6</text>
</a>
</g>
</g>
<!-- Node2&#45;&gt;Node8 -->
<g id="edge8" class="edge"><title>Node2&#45;&gt;Node8</title>
<path fill="none" stroke="midnightblue" d="M516.39,-147.181C581.473,-156.804 671.41,-170.101 733.718,-179.313"/>
<polygon fill="midnightblue" stroke="midnightblue" points="516.571,-143.67 506.166,-145.67 515.547,-150.595 516.571,-143.67"/>
</g>
<!-- Node10 -->
<g id="node10" class="node"><title>Node10</title>
<g id="a_node10"><a xlink:href="classx265_1_1Search.html#a761560ef5d3ff0beb48567c88c771d55" target="_top" xlink:title="x265::Search::mergeEstimation">
<polygon fill="white" stroke="black" points="542,-87.5 542,-106.5 696,-106.5 696,-87.5 542,-87.5"/>
<text text-anchor="middle" x="619" y="-94.5" font-family="Helvetica,sans-Serif" font-size="10.00">x265::Search::mergeEstimation</text>
</a>
</g>
</g>
<!-- Node2&#45;&gt;Node10 -->
<g id="edge11" class="edge"><title>Node2&#45;&gt;Node10</title>
<path fill="none" stroke="midnightblue" d="M516.146,-118.035C535.311,-114.077 555.054,-110 571.996,-106.501"/>
<polygon fill="midnightblue" stroke="midnightblue" points="515.279,-114.64 506.194,-120.09 516.695,-121.496 515.279,-114.64"/>
</g>
<!-- Node4 -->
<g id="node4" class="node"><title>Node4</title>
<g id="a_node4"><a xlink:href="classx265_1_1Analysis.html#a87060ff27a37f56adc5f5b8a4c033ece" target="_top" xlink:title="x265::Analysis::compress\lInterCU_dist">
<polygon fill="white" stroke="black" points="1422,-137 1422,-167 1552,-167 1552,-137 1422,-137"/>
<text text-anchor="start" x="1430" y="-155" font-family="Helvetica,sans-Serif" font-size="10.00">x265::Analysis::compress</text>
<text text-anchor="middle" x="1487" y="-144" font-family="Helvetica,sans-Serif" font-size="10.00">InterCU_dist</text>
</a>
</g>
</g>
<!-- Node3&#45;&gt;Node4 -->
<g id="edge3" class="edge"><title>Node3&#45;&gt;Node4</title>
<path fill="none" stroke="midnightblue" d="M1061.47,-125.227C1074.22,-127.876 1087.46,-130.294 1100,-132 1212.54,-147.31 1344.99,-151.118 1421.83,-151.941"/>
<polygon fill="midnightblue" stroke="midnightblue" points="1061.89,-121.736 1051.38,-123.061 1060.42,-128.581 1061.89,-121.736"/>
</g>
<!-- Node7 -->
<g id="node7" class="node"><title>Node7</title>
<g id="a_node7"><a xlink:href="classx265_1_1Analysis.html#a30d2ff7eca5addbb0a6b3dfe14f09650" target="_top" xlink:title="x265::Analysis::compress\lInterCU_rd0_4">
<polygon fill="white" stroke="black" points="1100,-93 1100,-123 1230,-123 1230,-93 1100,-93"/>
<text text-anchor="start" x="1108" y="-111" font-family="Helvetica,sans-Serif" font-size="10.00">x265::Analysis::compress</text>
<text text-anchor="middle" x="1165" y="-100" font-family="Helvetica,sans-Serif" font-size="10.00">InterCU_rd0_4</text>
</a>
</g>
</g>
<!-- Node3&#45;&gt;Node7 -->
<g id="edge6" class="edge"><title>Node3&#45;&gt;Node7</title>
<path fill="none" stroke="midnightblue" d="M1074.7,-108C1083.14,-108 1091.63,-108 1099.83,-108"/>
<polygon fill="midnightblue" stroke="midnightblue" points="1074.45,-104.5 1064.44,-108 1074.44,-111.5 1074.45,-104.5"/>
</g>
<!-- Node5 -->
<g id="node5" class="node"><title>Node5</title>
<g id="a_node5"><a xlink:href="classx265_1_1Analysis.html#aaebc9de2ff98834c650244f3b58942c2" target="_top" xlink:title="x265::Analysis::compressCTU">
<polygon fill="white" stroke="black" points="1588.5,-142.5 1588.5,-161.5 1739.5,-161.5 1739.5,-142.5 1588.5,-142.5"/>
<text text-anchor="middle" x="1664" y="-149.5" font-family="Helvetica,sans-Serif" font-size="10.00">x265::Analysis::compressCTU</text>
</a>
</g>
</g>
<!-- Node4&#45;&gt;Node5 -->
<g id="edge4" class="edge"><title>Node4&#45;&gt;Node5</title>
<path fill="none" stroke="midnightblue" d="M1562.25,-152C1570.93,-152 1579.78,-152 1588.47,-152"/>
<polygon fill="midnightblue" stroke="midnightblue" points="1562.17,-148.5 1552.17,-152 1562.17,-155.5 1562.17,-148.5"/>
</g>
<!-- Node6 -->
<g id="node6" class="node"><title>Node6</title>
<g id="a_node6"><a xlink:href="classx265_1_1FrameEncoder.html#a0ae85001572afd28238476542523ac5f" target="_top" xlink:title="x265::FrameEncoder\l::processRowEncoder">
<polygon fill="white" stroke="red" points="1776.5,-137 1776.5,-167 1889.5,-167 1889.5,-137 1776.5,-137"/>
<text text-anchor="start" x="1784.5" y="-155" font-family="Helvetica,sans-Serif" font-size="10.00">x265::FrameEncoder</text>
<text text-anchor="middle" x="1833" y="-144" font-family="Helvetica,sans-Serif" font-size="10.00">::processRowEncoder</text>
</a>
</g>
</g>
<!-- Node5&#45;&gt;Node6 -->
<g id="edge5" class="edge"><title>Node5&#45;&gt;Node6</title>
<path fill="none" stroke="midnightblue" d="M1749.86,-152C1758.86,-152 1767.85,-152 1776.39,-152"/>
<polygon fill="midnightblue" stroke="midnightblue" points="1749.71,-148.5 1739.71,-152 1749.71,-155.5 1749.71,-148.5"/>
</g>
<!-- Node7&#45;&gt;Node5 -->
<g id="edge7" class="edge"><title>Node7&#45;&gt;Node5</title>
<path fill="none" stroke="midnightblue" d="M1240.38,-107.871C1318.37,-108.621 1444.32,-112.335 1552,-127 1577.64,-130.492 1606.11,-136.957 1627.79,-142.437"/>
<polygon fill="midnightblue" stroke="midnightblue" points="1240.2,-104.37 1230.17,-107.788 1240.14,-111.37 1240.2,-104.37"/>
</g>
<!-- Node9 -->
<g id="node9" class="node"><title>Node9</title>
<g id="a_node9"><a xlink:href="classx265_1_1Analysis.html#a0b22b7765aa4a36b1ba6d07ba26901e6" target="_top" xlink:title="x265::Analysis::compress\lInterCU_rd5_6">
<polygon fill="white" stroke="black" points="1100,-181 1100,-211 1230,-211 1230,-181 1100,-181"/>
<text text-anchor="start" x="1108" y="-199" font-family="Helvetica,sans-Serif" font-size="10.00">x265::Analysis::compress</text>
<text text-anchor="middle" x="1165" y="-188" font-family="Helvetica,sans-Serif" font-size="10.00">InterCU_rd5_6</text>
</a>
</g>
</g>
<!-- Node8&#45;&gt;Node9 -->
<g id="edge9" class="edge"><title>Node8&#45;&gt;Node9</title>
<path fill="none" stroke="midnightblue" d="M890.071,-191.383C953.863,-192.458 1041.09,-193.929 1099.83,-194.919"/>
<polygon fill="midnightblue" stroke="midnightblue" points="890.1,-187.883 880.042,-191.214 889.981,-194.882 890.1,-187.883"/>
</g>
<!-- Node9&#45;&gt;Node5 -->
<g id="edge10" class="edge"><title>Node9&#45;&gt;Node5</title>
<path fill="none" stroke="midnightblue" d="M1240.36,-195.693C1318.33,-194.543 1444.26,-190.344 1552,-176 1577.02,-172.67 1604.77,-166.67 1626.26,-161.502"/>
<polygon fill="midnightblue" stroke="midnightblue" points="1240.1,-192.196 1230.15,-195.83 1240.2,-199.195 1240.1,-192.196"/>
</g>
<!-- Node11 -->
<g id="node11" class="node"><title>Node11</title>
<g id="a_node11"><a xlink:href="classx265_1_1Search.html#a48101e3d900e93b97a83f461be390bd1" target="_top" xlink:title="x265::Search::predInterSearch">
<polygon fill="white" stroke="black" points="732.5,-49.5 732.5,-68.5 881.5,-68.5 881.5,-49.5 732.5,-49.5"/>
<text text-anchor="middle" x="807" y="-56.5" font-family="Helvetica,sans-Serif" font-size="10.00">x265::Search::predInterSearch</text>
</a>
</g>
</g>
<!-- Node10&#45;&gt;Node11 -->
<g id="edge12" class="edge"><title>Node10&#45;&gt;Node11</title>
<path fill="none" stroke="midnightblue" d="M676.825,-85.3905C703.279,-79.986 734.358,-73.6365 759.402,-68.5201"/>
<polygon fill="midnightblue" stroke="midnightblue" points="676.033,-81.9801 666.936,-87.411 677.434,-88.8384 676.033,-81.9801"/>
</g>
<!-- Node12 -->
<g id="node12" class="node"><title>Node12</title>
<g id="a_node12"><a xlink:href="classx265_1_1Analysis.html#a2305f7985af66b49fdbc40ebb1b281d2" target="_top" xlink:title="x265::Analysis::checkInter\l_rd0_4">
<polygon fill="white" stroke="black" points="924.5,-44 924.5,-74 1057.5,-74 1057.5,-44 924.5,-44"/>
<text text-anchor="start" x="932.5" y="-62" font-family="Helvetica,sans-Serif" font-size="10.00">x265::Analysis::checkInter</text>
<text text-anchor="middle" x="991" y="-51" font-family="Helvetica,sans-Serif" font-size="10.00">_rd0_4</text>
</a>
</g>
</g>
<!-- Node11&#45;&gt;Node12 -->
<g id="edge13" class="edge"><title>Node11&#45;&gt;Node12</title>
<path fill="none" stroke="midnightblue" d="M891.569,-59C902.597,-59 913.771,-59 924.438,-59"/>
<polygon fill="midnightblue" stroke="midnightblue" points="891.502,-55.5001 881.502,-59 891.502,-62.5001 891.502,-55.5001"/>
</g>
<!-- Node15 -->
<g id="node15" class="node"><title>Node15</title>
<g id="a_node15"><a xlink:href="classx265_1_1Analysis.html#a828daa3e9f1ed40a1af9f99f7ff7bb33" target="_top" xlink:title="x265::Analysis::checkInter\l_rd5_6">
<polygon fill="white" stroke="black" points="924.5,-142 924.5,-172 1057.5,-172 1057.5,-142 924.5,-142"/>
<text text-anchor="start" x="932.5" y="-160" font-family="Helvetica,sans-Serif" font-size="10.00">x265::Analysis::checkInter</text>
<text text-anchor="middle" x="991" y="-149" font-family="Helvetica,sans-Serif" font-size="10.00">_rd5_6</text>
</a>
</g>
</g>
<!-- Node11&#45;&gt;Node15 -->
<g id="edge18" class="edge"><title>Node11&#45;&gt;Node15</title>
<path fill="none" stroke="midnightblue" d="M828.256,-74.7145C849.64,-90.7467 884.788,-115.543 918,-132 925.351,-135.642 933.364,-138.987 941.288,-141.964"/>
<polygon fill="midnightblue" stroke="midnightblue" points="830.323,-71.8898 820.242,-68.6318 826.091,-77.4656 830.323,-71.8898"/>
</g>
<!-- Node12&#45;&gt;Node7 -->
<g id="edge17" class="edge"><title>Node12&#45;&gt;Node7</title>
<path fill="none" stroke="midnightblue" d="M1054.81,-76.8941C1073.31,-82.1644 1093.36,-87.8755 1111.17,-92.9484"/>
<polygon fill="midnightblue" stroke="midnightblue" points="1055.59,-73.4753 1045.01,-74.1014 1053.67,-80.2074 1055.59,-73.4753"/>
</g>
<!-- Node13 -->
<g id="node13" class="node"><title>Node13</title>
<g id="a_node13"><a xlink:href="classx265_1_1Analysis.html#aa6122285d10bb1bd7584958b88b029d5" target="_top" xlink:title="x265::Analysis::parallel\lModeAnalysis">
<polygon fill="white" stroke="black" points="1106,-44 1106,-74 1224,-74 1224,-44 1106,-44"/>
<text text-anchor="start" x="1114" y="-62" font-family="Helvetica,sans-Serif" font-size="10.00">x265::Analysis::parallel</text>
<text text-anchor="middle" x="1165" y="-51" font-family="Helvetica,sans-Serif" font-size="10.00">ModeAnalysis</text>
</a>
</g>
</g>
<!-- Node12&#45;&gt;Node13 -->
<g id="edge14" class="edge"><title>Node12&#45;&gt;Node13</title>
<path fill="none" stroke="midnightblue" d="M1067.72,-59C1080.55,-59 1093.7,-59 1105.99,-59"/>
<polygon fill="midnightblue" stroke="midnightblue" points="1067.52,-55.5001 1057.52,-59 1067.52,-62.5001 1067.52,-55.5001"/>
</g>
<!-- Node14 -->
<g id="node14" class="node"><title>Node14</title>
<g id="a_node14"><a xlink:href="classx265_1_1Analysis.html#a29a58dad4cc1c07d2f5e5717c6be7c25" target="_top" xlink:title="x265::Analysis::findJob">
<polygon fill="white" stroke="black" points="1266.5,-49.5 1266.5,-68.5 1385.5,-68.5 1385.5,-49.5 1266.5,-49.5"/>
<text text-anchor="middle" x="1326" y="-56.5" font-family="Helvetica,sans-Serif" font-size="10.00">x265::Analysis::findJob</text>
</a>
</g>
</g>
<!-- Node13&#45;&gt;Node14 -->
<g id="edge15" class="edge"><title>Node13&#45;&gt;Node14</title>
<path fill="none" stroke="midnightblue" d="M1234.42,-59C1245.08,-59 1256.02,-59 1266.44,-59"/>
<polygon fill="midnightblue" stroke="midnightblue" points="1234.3,-55.5001 1224.3,-59 1234.3,-62.5001 1234.3,-55.5001"/>
</g>
<!-- Node14&#45;&gt;Node4 -->
<g id="edge16" class="edge"><title>Node14&#45;&gt;Node4</title>
<path fill="none" stroke="midnightblue" d="M1352.3,-73.7962C1381.86,-91.0886 1430.52,-119.548 1460.27,-136.949"/>
<polygon fill="midnightblue" stroke="midnightblue" points="1353.82,-70.6301 1343.42,-68.6024 1350.28,-76.6724 1353.82,-70.6301"/>
</g>
<!-- Node15&#45;&gt;Node9 -->
<g id="edge19" class="edge"><title>Node15&#45;&gt;Node9</title>
<path fill="none" stroke="midnightblue" d="M1067.37,-174.089C1078.18,-176.542 1089.23,-179.046 1099.8,-181.444"/>
<polygon fill="midnightblue" stroke="midnightblue" points="1068.04,-170.654 1057.52,-171.855 1066.49,-177.48 1068.04,-170.654"/>
</g>
<!-- Node17 -->
<g id="node17" class="node"><title>Node17</title>
<g id="a_node17"><a xlink:href="classx265_1_1CUData.html#ae34dd24258f1cfa1cf930a9dee773bce" target="_top" xlink:title="x265::CUData::fillMvpCand">
<polygon fill="white" stroke="black" points="364.5,-43.5 364.5,-62.5 501.5,-62.5 501.5,-43.5 364.5,-43.5"/>
<text text-anchor="middle" x="433" y="-50.5" font-family="Helvetica,sans-Serif" font-size="10.00">x265::CUData::fillMvpCand</text>
</a>
</g>
</g>
<!-- Node16&#45;&gt;Node17 -->
<g id="edge21" class="edge"><title>Node16&#45;&gt;Node17</title>
<path fill="none" stroke="midnightblue" d="M334.234,-49.7411C344.356,-50.0785 354.61,-50.4203 364.479,-50.7493"/>
<polygon fill="midnightblue" stroke="midnightblue" points="334.287,-46.241 324.176,-49.4059 334.054,-53.2372 334.287,-46.241"/>
</g>
<!-- Node17&#45;&gt;Node11 -->
<g id="edge26" class="edge"><title>Node17&#45;&gt;Node11</title>
<path fill="none" stroke="midnightblue" d="M511.974,-54.2577C576.87,-55.3043 668.616,-56.7841 732.296,-57.8112"/>
<polygon fill="midnightblue" stroke="midnightblue" points="511.853,-50.7553 501.798,-54.0935 511.74,-57.7544 511.853,-50.7553"/>
</g>
<!-- Node18 -->
<g id="node18" class="node"><title>Node18</title>
<g id="a_node18"><a xlink:href="classx265_1_1Search.html#a47294b1b3d67ab31cb6be412407982d5" target="_top" xlink:title="x265::Search::singleMotion\lEstimation">
<polygon fill="white" stroke="black" points="551.5,-0 551.5,-30 686.5,-30 686.5,-0 551.5,-0"/>
<text text-anchor="start" x="559.5" y="-18" font-family="Helvetica,sans-Serif" font-size="10.00">x265::Search::singleMotion</text>
<text text-anchor="middle" x="619" y="-7" font-family="Helvetica,sans-Serif" font-size="10.00">Estimation</text>
</a>
</g>
</g>
<!-- Node17&#45;&gt;Node18 -->
<g id="edge22" class="edge"><title>Node17&#45;&gt;Node18</title>
<path fill="none" stroke="midnightblue" d="M490.279,-41.3772C509.587,-37.3897 531.38,-32.8889 551.425,-28.7491"/>
<polygon fill="midnightblue" stroke="midnightblue" points="489.516,-37.9607 480.431,-43.411 490.932,-44.816 489.516,-37.9607"/>
</g>
<!-- Node18&#45;&gt;Node11 -->
<g id="edge25" class="edge"><title>Node18&#45;&gt;Node11</title>
<path fill="none" stroke="midnightblue" d="M693.539,-32.3964C718.16,-38.2206 744.685,-44.4954 765.788,-49.4876"/>
<polygon fill="midnightblue" stroke="midnightblue" points="694.028,-28.9154 683.49,-30.0192 692.416,-35.7274 694.028,-28.9154"/>
</g>
<!-- Node19 -->
<g id="node19" class="node"><title>Node19</title>
<g id="a_node19"><a xlink:href="classx265_1_1Analysis.html#abd49473ae6e5e1f7e555b447b04398e6" target="_top" xlink:title="x265::Analysis::parallelME">
<polygon fill="white" stroke="black" points="740.5,-5.5 740.5,-24.5 873.5,-24.5 873.5,-5.5 740.5,-5.5"/>
<text text-anchor="middle" x="807" y="-12.5" font-family="Helvetica,sans-Serif" font-size="10.00">x265::Analysis::parallelME</text>
</a>
</g>
</g>
<!-- Node18&#45;&gt;Node19 -->
<g id="edge23" class="edge"><title>Node18&#45;&gt;Node19</title>
<path fill="none" stroke="midnightblue" d="M697.021,-15C711.455,-15 726.419,-15 740.464,-15"/>
<polygon fill="midnightblue" stroke="midnightblue" points="696.625,-11.5001 686.625,-15 696.625,-18.5001 696.625,-11.5001"/>
</g>
<!-- Node19&#45;&gt;Node14 -->
<g id="edge24" class="edge"><title>Node19&#45;&gt;Node14</title>
<path fill="none" stroke="midnightblue" d="M883.908,-13.5924C968.755,-13.136 1109.99,-15.7206 1230,-34 1252.26,-37.3899 1276.82,-43.9307 1295.39,-49.4718"/>
<polygon fill="midnightblue" stroke="midnightblue" points="883.821,-10.0928 873.846,-13.6623 883.87,-17.0927 883.821,-10.0928"/>
</g>
<!-- Node20&#45;&gt;Node17 -->
<g id="edge28" class="edge"><title>Node20&#45;&gt;Node17</title>
<path fill="none" stroke="midnightblue" d="M333.063,-73.8867C351.591,-69.9752 370.63,-65.956 386.996,-62.5009"/>
<polygon fill="midnightblue" stroke="midnightblue" points="332.202,-70.4912 323.141,-75.9814 333.648,-77.3403 332.202,-70.4912"/>
</g>
</g>
</svg>
