<?xml version="1.0" encoding="UTF-8" standalone="no"?>
<!DOCTYPE svg PUBLIC "-//W3C//DTD SVG 1.1//EN"
 "http://www.w3.org/Graphics/SVG/1.1/DTD/svg11.dtd">
<!-- Generated by graphviz version 2.36.0 (20140111.2315)
 -->
<!-- Title: x265::RateControl::clipQscale Pages: 1 -->
<!--zoomable 122 -->
<svg id="main" version="1.1" xmlns="http://www.w3.org/2000/svg" xmlns:xlink="http://www.w3.org/1999/xlink" xml:space="preserve" onload="init(evt)">
<style type="text/css"><![CDATA[
.edge:hover path { stroke: red; }
.edge:hover polygon { stroke: red; fill: red; }
]]></style>
<script type="text/javascript"><![CDATA[
var edges = document.getElementsByTagName('g');
if (edges && edges.length) {
  for (var i=0;i<edges.length;i++) {
    if (edges[i].id.substr(0,4)=='edge') {
      edges[i].setAttribute('class','edge');
    }
  }
}
]]></script>
        <defs>
                <circle id="rim" cx="0" cy="0" r="7"/>
                <circle id="rim2" cx="0" cy="0" r="3.5"/>
                <g id="zoomPlus">
                        <use xlink:href="#rim" fill="#404040">
                                <set attributeName="fill" to="#808080" begin="zoomplus.mouseover" end="zoomplus.mouseout"/>
                        </use>
                        <path d="M-4,0h8M0,-4v8" fill="none" stroke="white" stroke-width="1.5" pointer-events="none"/>
                </g>
                <g id="zoomMin">
                        <use xlink:href="#rim" fill="#404040">
                                <set attributeName="fill" to="#808080" begin="zoomminus.mouseover" end="zoomminus.mouseout"/>
                        </use>
                        <path d="M-4,0h8" fill="none" stroke="white" stroke-width="1.5" pointer-events="none"/>
                </g>
                <g id="dirArrow">
                        <path fill="none" stroke="white" stroke-width="1.5" d="M0,-3.0v7 M-2.5,-0.5L0,-3.0L2.5,-0.5"/>
                </g>
               <g id="resetDef">
                       <use xlink:href="#rim2" fill="#404040">
                               <set attributeName="fill" to="#808080" begin="reset.mouseover" end="reset.mouseout"/>
                       </use>
               </g>
        </defs>

<script type="text/javascript">
var viewWidth = 966;
var viewHeight = 122;
var sectionId = 'dynsection-9';
</script>
<script xlink:href="svgpan.js"/>
<svg id="graph" class="graph">
<g id="viewport">
<title>x265::RateControl::clipQscale</title>
<polygon fill="white" stroke="none" points="-4,4 -4,-118 962,-118 962,4 -4,4"/>
<!-- Node1 -->
<g id="node1" class="node"><title>Node1</title>
<polygon fill="#bfbfbf" stroke="black" points="0,-23 0,-53 102,-53 102,-23 0,-23"/>
<text text-anchor="start" x="8" y="-41" font-family="Helvetica,sans-Serif" font-size="10.00">x265::RateControl::</text>
<text text-anchor="middle" x="51" y="-30" font-family="Helvetica,sans-Serif" font-size="10.00">clipQscale</text>
</g>
<!-- Node2 -->
<g id="node2" class="node"><title>Node2</title>
<g id="a_node2"><a xlink:href="classx265_1_1RateControl.html#ab62a87de35962cdad349f03adc82a7ee" target="_top" xlink:title="x265::RateControl::\linitPass2">
<polygon fill="white" stroke="black" points="138,-45 138,-75 240,-75 240,-45 138,-45"/>
<text text-anchor="start" x="146" y="-63" font-family="Helvetica,sans-Serif" font-size="10.00">x265::RateControl::</text>
<text text-anchor="middle" x="189" y="-52" font-family="Helvetica,sans-Serif" font-size="10.00">initPass2</text>
</a>
</g>
</g>
<!-- Node1&#45;&gt;Node2 -->
<g id="edge1" class="edge"><title>Node1&#45;&gt;Node2</title>
<path fill="none" stroke="midnightblue" d="M112.231,-47.7432C120.823,-49.1331 129.583,-50.5501 137.952,-51.9039"/>
<polygon fill="midnightblue" stroke="midnightblue" points="112.686,-44.2714 102.255,-46.1295 111.568,-51.1815 112.686,-44.2714"/>
</g>
<!-- Node7 -->
<g id="node7" class="node"><title>Node7</title>
<g id="a_node7"><a xlink:href="classx265_1_1RateControl.html#a20bb1fccf54857b75ef70fcc61406bb7" target="_top" xlink:title="x265::RateControl::\lrateEstimateQscale">
<polygon fill="white" stroke="black" points="572.5,-1 572.5,-31 675.5,-31 675.5,-1 572.5,-1"/>
<text text-anchor="start" x="580.5" y="-19" font-family="Helvetica,sans-Serif" font-size="10.00">x265::RateControl::</text>
<text text-anchor="middle" x="624" y="-8" font-family="Helvetica,sans-Serif" font-size="10.00">rateEstimateQscale</text>
</a>
</g>
</g>
<!-- Node1&#45;&gt;Node7 -->
<g id="edge11" class="edge"><title>Node1&#45;&gt;Node7</title>
<path fill="none" stroke="midnightblue" d="M112.376,-35.6738C225.434,-31.3178 467.127,-22.0056 572.329,-17.9523"/>
<polygon fill="midnightblue" stroke="midnightblue" points="112.03,-32.1844 102.172,-36.0669 112.299,-39.1792 112.03,-32.1844"/>
</g>
<!-- Node3 -->
<g id="node3" class="node"><title>Node3</title>
<g id="a_node3"><a xlink:href="classx265_1_1RateControl.html#a876ac228bb24724125ce1caadbff73ec" target="_top" xlink:title="x265::RateControl::init">
<polygon fill="white" stroke="black" points="276.5,-50.5 276.5,-69.5 391.5,-69.5 391.5,-50.5 276.5,-50.5"/>
<text text-anchor="middle" x="334" y="-57.5" font-family="Helvetica,sans-Serif" font-size="10.00">x265::RateControl::init</text>
</a>
</g>
</g>
<!-- Node2&#45;&gt;Node3 -->
<g id="edge2" class="edge"><title>Node2&#45;&gt;Node3</title>
<path fill="none" stroke="midnightblue" d="M250.107,-60C258.822,-60 267.769,-60 276.412,-60"/>
<polygon fill="midnightblue" stroke="midnightblue" points="250.014,-56.5001 240.014,-60 250.014,-63.5001 250.014,-56.5001"/>
</g>
<!-- Node4 -->
<g id="node4" class="node"><title>Node4</title>
<g id="a_node4"><a xlink:href="classx265_1_1Encoder.html#a01e97423efe4bdd957c53f8d59fe2b74" target="_top" xlink:title="x265::Encoder::init">
<polygon fill="white" stroke="black" points="433,-94.5 433,-113.5 531,-113.5 531,-94.5 433,-94.5"/>
<text text-anchor="middle" x="482" y="-101.5" font-family="Helvetica,sans-Serif" font-size="10.00">x265::Encoder::init</text>
</a>
</g>
</g>
<!-- Node3&#45;&gt;Node4 -->
<g id="edge3" class="edge"><title>Node3&#45;&gt;Node4</title>
<path fill="none" stroke="midnightblue" d="M376.261,-72.4347C399.459,-79.426 427.968,-88.0177 449.382,-94.4713"/>
<polygon fill="midnightblue" stroke="midnightblue" points="377.264,-69.0818 366.68,-69.5473 375.245,-75.7841 377.264,-69.0818"/>
</g>
<!-- Node6 -->
<g id="node6" class="node"><title>Node6</title>
<g id="a_node6"><a xlink:href="classx265_1_1RateControl.html#a707ab4308990444a40f1fb4c2d2f4f48" target="_top" xlink:title="x265::RateControl::\lcheckAndResetABR">
<polygon fill="white" stroke="black" points="428.5,-45 428.5,-75 535.5,-75 535.5,-45 428.5,-45"/>
<text text-anchor="start" x="436.5" y="-63" font-family="Helvetica,sans-Serif" font-size="10.00">x265::RateControl::</text>
<text text-anchor="middle" x="482" y="-52" font-family="Helvetica,sans-Serif" font-size="10.00">checkAndResetABR</text>
</a>
</g>
</g>
<!-- Node3&#45;&gt;Node6 -->
<g id="edge5" class="edge"><title>Node3&#45;&gt;Node6</title>
<path fill="none" stroke="midnightblue" d="M402.114,-60C410.915,-60 419.831,-60 428.345,-60"/>
<polygon fill="midnightblue" stroke="midnightblue" points="401.866,-56.5001 391.865,-60 401.865,-63.5001 401.866,-56.5001"/>
</g>
<!-- Node5 -->
<g id="node5" class="node"><title>Node5</title>
<g id="a_node5"><a xlink:href="x265_8h.html#add639f6af182534d265ef22d4bf91f90" target="_top" xlink:title="x265_encoder_open">
<polygon fill="white" stroke="black" points="572,-94.5 572,-113.5 676,-113.5 676,-94.5 572,-94.5"/>
<text text-anchor="middle" x="624" y="-101.5" font-family="Helvetica,sans-Serif" font-size="10.00">x265_encoder_open</text>
</a>
</g>
</g>
<!-- Node4&#45;&gt;Node5 -->
<g id="edge4" class="edge"><title>Node4&#45;&gt;Node5</title>
<path fill="none" stroke="midnightblue" d="M541.208,-104C551.383,-104 561.9,-104 571.866,-104"/>
<polygon fill="midnightblue" stroke="midnightblue" points="541.18,-100.5 531.18,-104 541.18,-107.5 541.18,-100.5"/>
</g>
<!-- Node6&#45;&gt;Node7 -->
<g id="edge6" class="edge"><title>Node6&#45;&gt;Node7</title>
<path fill="none" stroke="midnightblue" d="M540.659,-41.8785C552.06,-38.2956 563.911,-34.5709 574.952,-31.1009"/>
<polygon fill="midnightblue" stroke="midnightblue" points="539.279,-38.6434 530.788,-44.9808 541.378,-45.3214 539.279,-38.6434"/>
</g>
<!-- Node10 -->
<g id="node10" class="node"><title>Node10</title>
<g id="a_node10"><a xlink:href="classx265_1_1RateControl.html#a26331c267938f5e6e49ad5b07e4ff013" target="_top" xlink:title="x265::RateControl::\lrateControlEnd">
<polygon fill="white" stroke="black" points="712,-49 712,-79 814,-79 814,-49 712,-49"/>
<text text-anchor="start" x="720" y="-67" font-family="Helvetica,sans-Serif" font-size="10.00">x265::RateControl::</text>
<text text-anchor="middle" x="763" y="-56" font-family="Helvetica,sans-Serif" font-size="10.00">rateControlEnd</text>
</a>
</g>
</g>
<!-- Node6&#45;&gt;Node10 -->
<g id="edge9" class="edge"><title>Node6&#45;&gt;Node10</title>
<path fill="none" stroke="midnightblue" d="M545.881,-60.9015C596.011,-61.6202 665.28,-62.6133 711.758,-63.2797"/>
<polygon fill="midnightblue" stroke="midnightblue" points="545.855,-57.4009 535.806,-60.7571 545.755,-64.4002 545.855,-57.4009"/>
</g>
<!-- Node8 -->
<g id="node8" class="node"><title>Node8</title>
<g id="a_node8"><a xlink:href="classx265_1_1RateControl.html#a6453a04a36d66b87ed8a23df88e75326" target="_top" xlink:title="x265::RateControl::\lrateControlStart">
<polygon fill="white" stroke="black" points="712,-0 712,-30 814,-30 814,-0 712,-0"/>
<text text-anchor="start" x="720" y="-18" font-family="Helvetica,sans-Serif" font-size="10.00">x265::RateControl::</text>
<text text-anchor="middle" x="763" y="-7" font-family="Helvetica,sans-Serif" font-size="10.00">rateControlStart</text>
</a>
</g>
</g>
<!-- Node7&#45;&gt;Node8 -->
<g id="edge7" class="edge"><title>Node7&#45;&gt;Node8</title>
<path fill="none" stroke="midnightblue" d="M685.674,-15.5571C694.329,-15.4939 703.153,-15.4295 711.584,-15.368"/>
<polygon fill="midnightblue" stroke="midnightblue" points="685.599,-12.0575 675.625,-15.6305 685.65,-19.0573 685.599,-12.0575"/>
</g>
<!-- Node9 -->
<g id="node9" class="node"><title>Node9</title>
<g id="a_node9"><a xlink:href="classx265_1_1FrameEncoder.html#a2f5c4c0f1a4e36fce4c9b87eb7ec4973" target="_top" xlink:title="x265::FrameEncoder\l::compressFrame">
<polygon fill="white" stroke="red" points="850.5,-24 850.5,-54 957.5,-54 957.5,-24 850.5,-24"/>
<text text-anchor="start" x="858.5" y="-42" font-family="Helvetica,sans-Serif" font-size="10.00">x265::FrameEncoder</text>
<text text-anchor="middle" x="904" y="-31" font-family="Helvetica,sans-Serif" font-size="10.00">::compressFrame</text>
</a>
</g>
</g>
<!-- Node8&#45;&gt;Node9 -->
<g id="edge8" class="edge"><title>Node8&#45;&gt;Node9</title>
<path fill="none" stroke="midnightblue" d="M824.179,-25.3906C832.798,-26.8788 841.613,-28.4007 850.078,-29.8624"/>
<polygon fill="midnightblue" stroke="midnightblue" points="824.632,-21.9171 814.182,-23.6646 823.441,-28.815 824.632,-21.9171"/>
</g>
<!-- Node10&#45;&gt;Node9 -->
<g id="edge10" class="edge"><title>Node10&#45;&gt;Node9</title>
<path fill="none" stroke="midnightblue" d="M824.179,-53.1765C832.798,-51.6262 841.613,-50.0409 850.078,-48.5183"/>
<polygon fill="midnightblue" stroke="midnightblue" points="823.405,-49.7595 814.182,-54.9744 824.644,-56.6489 823.405,-49.7595"/>
</g>
</g>
</svg>
        <g id="navigator" transform="translate(0 0)" fill="#404254">
                <rect fill="#f2f5e9" fill-opacity="0.5" stroke="#606060" stroke-width=".5" x="0" y="0" width="60" height="60"/>
                <use id="zoomplus" xlink:href="#zoomPlus" x="17" y="9" onmousedown="handleZoom(evt,'in')"/>
                <use id="zoomminus" xlink:href="#zoomMin" x="42" y="9" onmousedown="handleZoom(evt,'out')"/>
                <use id="reset" xlink:href="#resetDef" x="30" y="36" onmousedown="handleReset()"/>
                <g id="arrowUp" xlink:href="#dirArrow" transform="translate(30 24)" onmousedown="handlePan(0,-1)">
                  <use xlink:href="#rim" fill="#404040">
                        <set attributeName="fill" to="#808080" begin="arrowUp.mouseover" end="arrowUp.mouseout"/>
                  </use>
                  <path fill="none" stroke="white" stroke-width="1.5" d="M0,-3.0v7 M-2.5,-0.5L0,-3.0L2.5,-0.5"/>
                </g>
                <g id="arrowRight" xlink:href="#dirArrow" transform="rotate(90) translate(36 -43)" onmousedown="handlePan(1,0)">
                  <use xlink:href="#rim" fill="#404040">
                        <set attributeName="fill" to="#808080" begin="arrowRight.mouseover" end="arrowRight.mouseout"/>
                  </use>
                  <path fill="none" stroke="white" stroke-width="1.5" d="M0,-3.0v7 M-2.5,-0.5L0,-3.0L2.5,-0.5"/>
                </g>
                <g id="arrowDown" xlink:href="#dirArrow" transform="rotate(180) translate(-30 -48)" onmousedown="handlePan(0,1)">
                  <use xlink:href="#rim" fill="#404040">
                        <set attributeName="fill" to="#808080" begin="arrowDown.mouseover" end="arrowDown.mouseout"/>
                  </use>
                  <path fill="none" stroke="white" stroke-width="1.5" d="M0,-3.0v7 M-2.5,-0.5L0,-3.0L2.5,-0.5"/>
                </g>
                <g id="arrowLeft" xlink:href="#dirArrow" transform="rotate(270) translate(-36 17)" onmousedown="handlePan(-1,0)">
                  <use xlink:href="#rim" fill="#404040">
                        <set attributeName="fill" to="#808080" begin="arrowLeft.mouseover" end="arrowLeft.mouseout"/>
                  </use>
                  <path fill="none" stroke="white" stroke-width="1.5" d="M0,-3.0v7 M-2.5,-0.5L0,-3.0L2.5,-0.5"/>
                </g>
        </g>
        <svg viewBox="0 0 15 15" width="100%" height="30px" preserveAspectRatio="xMaxYMin meet">
         <g id="arrow_out" transform="scale(0.3 0.3)">
          <a xlink:href="classx265_1_1RateControl_a9e8c75424270fc93216b1f0a1cbcef6d_icgraph_org.svg" target="_base">
           <rect id="button" ry="5" rx="5" y="6" x="6" height="38" width="38"
                fill="#f2f5e9" fill-opacity="0.5" stroke="#606060" stroke-width="1.0"/>
           <path id="arrow"
             d="M 11.500037,31.436501 C 11.940474,20.09759 22.043105,11.32322 32.158766,21.979434 L 37.068811,17.246167 C 37.068811,17.246167 37.088388,32 37.088388,32 L 22.160133,31.978069 C 22.160133,31.978069 26.997745,27.140456 26.997745,27.140456 C 18.528582,18.264221 13.291696,25.230495 11.500037,31.436501 z"
             style="fill:#404040;"/>
          </a>
         </g>
        </svg>
</svg>
