<?xml version="1.0" encoding="UTF-8" standalone="no"?>
<!DOCTYPE svg PUBLIC "-//W3C//DTD SVG 1.1//EN"
 "http://www.w3.org/Graphics/SVG/1.1/DTD/svg11.dtd">
<!-- Generated by graphviz version 2.36.0 (20140111.2315)
 -->
<!-- Title: x265::CUData::isBipredRestriction Pages: 1 -->
<svg width="1076pt" height="136pt"
 viewBox="0.00 0.00 1076.00 136.00" xmlns="http://www.w3.org/2000/svg" xmlns:xlink="http://www.w3.org/1999/xlink">
<g id="graph0" class="graph" transform="scale(1 1) rotate(0) translate(4 132)">
<title>x265::CUData::isBipredRestriction</title>
<polygon fill="white" stroke="none" points="-4,4 -4,-132 1072,-132 1072,4 -4,4"/>
<!-- Node1 -->
<g id="node1" class="node"><title>Node1</title>
<polygon fill="#bfbfbf" stroke="black" points="0,-29.5 0,-48.5 168,-48.5 168,-29.5 0,-29.5"/>
<text text-anchor="middle" x="84" y="-36.5" font-family="Helvetica,sans-Serif" font-size="10.00">x265::CUData::isBipredRestriction</text>
</g>
<!-- Node2 -->
<g id="node2" class="node"><title>Node2</title>
<g id="a_node2"><a xlink:href="classx265_1_1Search.html#a761560ef5d3ff0beb48567c88c771d55" target="_top" xlink:title="x265::Search::mergeEstimation">
<polygon fill="white" stroke="black" points="204,-48.5 204,-67.5 358,-67.5 358,-48.5 204,-48.5"/>
<text text-anchor="middle" x="281" y="-55.5" font-family="Helvetica,sans-Serif" font-size="10.00">x265::Search::mergeEstimation</text>
</a>
</g>
</g>
<!-- Node1&#45;&gt;Node2 -->
<g id="edge1" class="edge"><title>Node1&#45;&gt;Node2</title>
<path fill="none" stroke="midnightblue" d="M178.272,-48.088C186.828,-48.9217 195.428,-49.7597 203.807,-50.5761"/>
<polygon fill="midnightblue" stroke="midnightblue" points="178.555,-44.5992 168.263,-47.1128 177.877,-51.5662 178.555,-44.5992"/>
</g>
<!-- Node3 -->
<g id="node3" class="node"><title>Node3</title>
<g id="a_node3"><a xlink:href="classx265_1_1Search.html#a48101e3d900e93b97a83f461be390bd1" target="_top" xlink:title="x265::Search::predInterSearch">
<polygon fill="white" stroke="black" points="394.5,-29.5 394.5,-48.5 543.5,-48.5 543.5,-29.5 394.5,-29.5"/>
<text text-anchor="middle" x="469" y="-36.5" font-family="Helvetica,sans-Serif" font-size="10.00">x265::Search::predInterSearch</text>
</a>
</g>
</g>
<!-- Node1&#45;&gt;Node3 -->
<g id="edge11" class="edge"><title>Node1&#45;&gt;Node3</title>
<path fill="none" stroke="midnightblue" d="M178.168,-39C244.663,-39 332.867,-39 394.435,-39"/>
<polygon fill="midnightblue" stroke="midnightblue" points="178.105,-35.5001 168.105,-39 178.105,-42.5001 178.105,-35.5001"/>
</g>
<!-- Node2&#45;&gt;Node3 -->
<g id="edge2" class="edge"><title>Node2&#45;&gt;Node3</title>
<path fill="none" stroke="midnightblue" d="M368.336,-49.1808C377.024,-48.2932 385.791,-47.3977 394.33,-46.5254"/>
<polygon fill="midnightblue" stroke="midnightblue" points="367.783,-45.719 358.19,-50.2172 368.494,-52.6827 367.783,-45.719"/>
</g>
<!-- Node4 -->
<g id="node4" class="node"><title>Node4</title>
<g id="a_node4"><a xlink:href="classx265_1_1Analysis.html#a2305f7985af66b49fdbc40ebb1b281d2" target="_top" xlink:title="x265::Analysis::checkInter\l_rd0_4">
<polygon fill="white" stroke="black" points="580.5,-49 580.5,-79 713.5,-79 713.5,-49 580.5,-49"/>
<text text-anchor="start" x="588.5" y="-67" font-family="Helvetica,sans-Serif" font-size="10.00">x265::Analysis::checkInter</text>
<text text-anchor="middle" x="647" y="-56" font-family="Helvetica,sans-Serif" font-size="10.00">_rd0_4</text>
</a>
</g>
</g>
<!-- Node3&#45;&gt;Node4 -->
<g id="edge3" class="edge"><title>Node3&#45;&gt;Node4</title>
<path fill="none" stroke="midnightblue" d="M547.119,-49.9544C558.188,-51.5267 569.49,-53.132 580.31,-54.669"/>
<polygon fill="midnightblue" stroke="midnightblue" points="547.433,-46.464 537.04,-48.5227 546.448,-53.3944 547.433,-46.464"/>
</g>
<!-- Node9 -->
<g id="node9" class="node"><title>Node9</title>
<g id="a_node9"><a xlink:href="classx265_1_1Analysis.html#a828daa3e9f1ed40a1af9f99f7ff7bb33" target="_top" xlink:title="x265::Analysis::checkInter\l_rd5_6">
<polygon fill="white" stroke="black" points="580.5,-0 580.5,-30 713.5,-30 713.5,-0 580.5,-0"/>
<text text-anchor="start" x="588.5" y="-18" font-family="Helvetica,sans-Serif" font-size="10.00">x265::Analysis::checkInter</text>
<text text-anchor="middle" x="647" y="-7" font-family="Helvetica,sans-Serif" font-size="10.00">_rd5_6</text>
</a>
</g>
</g>
<!-- Node3&#45;&gt;Node9 -->
<g id="edge8" class="edge"><title>Node3&#45;&gt;Node9</title>
<path fill="none" stroke="midnightblue" d="M549.907,-28.1036C560.07,-26.7178 570.378,-25.3121 580.283,-23.9614"/>
<polygon fill="midnightblue" stroke="midnightblue" points="549.248,-24.661 539.813,-29.4801 550.194,-31.5968 549.248,-24.661"/>
</g>
<!-- Node5 -->
<g id="node5" class="node"><title>Node5</title>
<g id="a_node5"><a xlink:href="classx265_1_1Analysis.html#aa6122285d10bb1bd7584958b88b029d5" target="_top" xlink:title="x265::Analysis::parallel\lModeAnalysis">
<polygon fill="white" stroke="black" points="756,-98 756,-128 874,-128 874,-98 756,-98"/>
<text text-anchor="start" x="764" y="-116" font-family="Helvetica,sans-Serif" font-size="10.00">x265::Analysis::parallel</text>
<text text-anchor="middle" x="815" y="-105" font-family="Helvetica,sans-Serif" font-size="10.00">ModeAnalysis</text>
</a>
</g>
</g>
<!-- Node4&#45;&gt;Node5 -->
<g id="edge4" class="edge"><title>Node4&#45;&gt;Node5</title>
<path fill="none" stroke="midnightblue" d="M708.868,-81.967C726.654,-87.217 745.902,-92.8989 763.009,-97.9484"/>
<polygon fill="midnightblue" stroke="midnightblue" points="709.742,-78.5757 699.16,-79.1014 707.76,-85.2894 709.742,-78.5757"/>
</g>
<!-- Node7 -->
<g id="node7" class="node"><title>Node7</title>
<g id="a_node7"><a xlink:href="classx265_1_1Analysis.html#a30d2ff7eca5addbb0a6b3dfe14f09650" target="_top" xlink:title="x265::Analysis::compress\lInterCU_rd0_4">
<polygon fill="white" stroke="black" points="750,-49 750,-79 880,-79 880,-49 750,-49"/>
<text text-anchor="start" x="758" y="-67" font-family="Helvetica,sans-Serif" font-size="10.00">x265::Analysis::compress</text>
<text text-anchor="middle" x="815" y="-56" font-family="Helvetica,sans-Serif" font-size="10.00">InterCU_rd0_4</text>
</a>
</g>
</g>
<!-- Node4&#45;&gt;Node7 -->
<g id="edge6" class="edge"><title>Node4&#45;&gt;Node7</title>
<path fill="none" stroke="midnightblue" d="M723.797,-64C732.539,-64 741.389,-64 749.954,-64"/>
<polygon fill="midnightblue" stroke="midnightblue" points="723.608,-60.5001 713.608,-64 723.608,-67.5001 723.608,-60.5001"/>
</g>
<!-- Node6 -->
<g id="node6" class="node"><title>Node6</title>
<g id="a_node6"><a xlink:href="classx265_1_1Analysis.html#a29a58dad4cc1c07d2f5e5717c6be7c25" target="_top" xlink:title="x265::Analysis::findJob">
<polygon fill="white" stroke="red" points="932.5,-103.5 932.5,-122.5 1051.5,-122.5 1051.5,-103.5 932.5,-103.5"/>
<text text-anchor="middle" x="992" y="-110.5" font-family="Helvetica,sans-Serif" font-size="10.00">x265::Analysis::findJob</text>
</a>
</g>
</g>
<!-- Node5&#45;&gt;Node6 -->
<g id="edge5" class="edge"><title>Node5&#45;&gt;Node6</title>
<path fill="none" stroke="midnightblue" d="M884.521,-113C900.341,-113 917.032,-113 932.385,-113"/>
<polygon fill="midnightblue" stroke="midnightblue" points="884.273,-109.5 874.272,-113 884.272,-116.5 884.273,-109.5"/>
</g>
<!-- Node8 -->
<g id="node8" class="node"><title>Node8</title>
<g id="a_node8"><a xlink:href="classx265_1_1Analysis.html#aaebc9de2ff98834c650244f3b58942c2" target="_top" xlink:title="x265::Analysis::compressCTU">
<polygon fill="white" stroke="red" points="916.5,-30.5 916.5,-49.5 1067.5,-49.5 1067.5,-30.5 916.5,-30.5"/>
<text text-anchor="middle" x="992" y="-37.5" font-family="Helvetica,sans-Serif" font-size="10.00">x265::Analysis::compressCTU</text>
</a>
</g>
</g>
<!-- Node7&#45;&gt;Node8 -->
<g id="edge7" class="edge"><title>Node7&#45;&gt;Node8</title>
<path fill="none" stroke="midnightblue" d="M890.393,-53.7975C900.722,-52.381 911.299,-50.9304 921.533,-49.5269"/>
<polygon fill="midnightblue" stroke="midnightblue" points="889.602,-50.3732 880.17,-55.1996 890.553,-57.3083 889.602,-50.3732"/>
</g>
<!-- Node10 -->
<g id="node10" class="node"><title>Node10</title>
<g id="a_node10"><a xlink:href="classx265_1_1Analysis.html#a0b22b7765aa4a36b1ba6d07ba26901e6" target="_top" xlink:title="x265::Analysis::compress\lInterCU_rd5_6">
<polygon fill="white" stroke="black" points="750,-0 750,-30 880,-30 880,-0 750,-0"/>
<text text-anchor="start" x="758" y="-18" font-family="Helvetica,sans-Serif" font-size="10.00">x265::Analysis::compress</text>
<text text-anchor="middle" x="815" y="-7" font-family="Helvetica,sans-Serif" font-size="10.00">InterCU_rd5_6</text>
</a>
</g>
</g>
<!-- Node9&#45;&gt;Node10 -->
<g id="edge9" class="edge"><title>Node9&#45;&gt;Node10</title>
<path fill="none" stroke="midnightblue" d="M723.797,-15C732.539,-15 741.389,-15 749.954,-15"/>
<polygon fill="midnightblue" stroke="midnightblue" points="723.608,-11.5001 713.608,-15 723.608,-18.5001 723.608,-11.5001"/>
</g>
<!-- Node10&#45;&gt;Node8 -->
<g id="edge10" class="edge"><title>Node10&#45;&gt;Node8</title>
<path fill="none" stroke="midnightblue" d="M890.103,-25.5862C901.521,-27.2173 913.25,-28.8929 924.489,-30.4984"/>
<polygon fill="midnightblue" stroke="midnightblue" points="890.564,-22.1166 880.17,-24.1671 889.574,-29.0462 890.564,-22.1166"/>
</g>
</g>
</svg>
