<?xml version="1.0" encoding="UTF-8" standalone="no"?>
<!DOCTYPE svg PUBLIC "-//W3C//DTD SVG 1.1//EN"
 "http://www.w3.org/Graphics/SVG/1.1/DTD/svg11.dtd">
<!-- Generated by graphviz version 2.36.0 (20140111.2315)
 -->
<!-- Title: x265::Entropy::codeCUTransquantBypassFlag Pages: 1 -->
<!--zoomable 507 -->
<svg id="main" version="1.1" xmlns="http://www.w3.org/2000/svg" xmlns:xlink="http://www.w3.org/1999/xlink" xml:space="preserve" onload="init(evt)">
<style type="text/css"><![CDATA[
.edge:hover path { stroke: red; }
.edge:hover polygon { stroke: red; fill: red; }
]]></style>
<script type="text/javascript"><![CDATA[
var edges = document.getElementsByTagName('g');
if (edges && edges.length) {
  for (var i=0;i<edges.length;i++) {
    if (edges[i].id.substr(0,4)=='edge') {
      edges[i].setAttribute('class','edge');
    }
  }
}
]]></script>
        <defs>
                <circle id="rim" cx="0" cy="0" r="7"/>
                <circle id="rim2" cx="0" cy="0" r="3.5"/>
                <g id="zoomPlus">
                        <use xlink:href="#rim" fill="#404040">
                                <set attributeName="fill" to="#808080" begin="zoomplus.mouseover" end="zoomplus.mouseout"/>
                        </use>
                        <path d="M-4,0h8M0,-4v8" fill="none" stroke="white" stroke-width="1.5" pointer-events="none"/>
                </g>
                <g id="zoomMin">
                        <use xlink:href="#rim" fill="#404040">
                                <set attributeName="fill" to="#808080" begin="zoomminus.mouseover" end="zoomminus.mouseout"/>
                        </use>
                        <path d="M-4,0h8" fill="none" stroke="white" stroke-width="1.5" pointer-events="none"/>
                </g>
                <g id="dirArrow">
                        <path fill="none" stroke="white" stroke-width="1.5" d="M0,-3.0v7 M-2.5,-0.5L0,-3.0L2.5,-0.5"/>
                </g>
               <g id="resetDef">
                       <use xlink:href="#rim2" fill="#404040">
                               <set attributeName="fill" to="#808080" begin="reset.mouseover" end="reset.mouseout"/>
                       </use>
               </g>
        </defs>

<script type="text/javascript">
var viewWidth = 1424;
var viewHeight = 507;
var sectionId = 'dynsection-10';
</script>
<script xlink:href="svgpan.js"/>
<svg id="graph" class="graph">
<g id="viewport">
<title>x265::Entropy::codeCUTransquantBypassFlag</title>
<polygon fill="white" stroke="none" points="-4,4 -4,-502.998 1420,-502.998 1420,4 -4,4"/>
<!-- Node1 -->
<g id="node1" class="node"><title>Node1</title>
<polygon fill="#bfbfbf" stroke="black" points="0,-303 0,-333 168,-333 168,-303 0,-303"/>
<text text-anchor="start" x="8" y="-321" font-family="Helvetica,sans-Serif" font-size="10.00">x265::Entropy::codeCUTransquant</text>
<text text-anchor="middle" x="84" y="-310" font-family="Helvetica,sans-Serif" font-size="10.00">BypassFlag</text>
</g>
<!-- Node2 -->
<g id="node2" class="node"><title>Node2</title>
<g id="a_node2"><a xlink:href="classx265_1_1Analysis.html#ae4d61bcf4d2c22a054d68d6d77136428" target="_top" xlink:title="x265::Analysis::encodeIntra\lInInter">
<polygon fill="white" stroke="black" points="403,-196 403,-226 541,-226 541,-196 403,-196"/>
<text text-anchor="start" x="411" y="-214" font-family="Helvetica,sans-Serif" font-size="10.00">x265::Analysis::encodeIntra</text>
<text text-anchor="middle" x="472" y="-203" font-family="Helvetica,sans-Serif" font-size="10.00">InInter</text>
</a>
</g>
</g>
<!-- Node1&#45;&gt;Node2 -->
<g id="edge1" class="edge"><title>Node1&#45;&gt;Node2</title>
<path fill="none" stroke="midnightblue" d="M148.929,-300.27C166.756,-295.326 186.132,-289.954 204,-285 277.702,-264.568 362.849,-240.97 416.794,-226.021"/>
<polygon fill="midnightblue" stroke="midnightblue" points="147.905,-296.922 139.204,-302.967 149.776,-303.667 147.905,-296.922"/>
</g>
<!-- Node9 -->
<g id="node9" class="node"><title>Node9</title>
<g id="a_node9"><a xlink:href="classx265_1_1Entropy.html#adeb50a7c9a5df6643407d01158d93799" target="_top" xlink:title="x265::Entropy::encodeCU">
<polygon fill="white" stroke="black" points="218,-106.5 218,-125.5 348,-125.5 348,-106.5 218,-106.5"/>
<text text-anchor="middle" x="283" y="-113.5" font-family="Helvetica,sans-Serif" font-size="10.00">x265::Entropy::encodeCU</text>
</a>
</g>
</g>
<!-- Node1&#45;&gt;Node9 -->
<g id="edge10" class="edge"><title>Node1&#45;&gt;Node9</title>
<path fill="none" stroke="midnightblue" d="M106.935,-295.508C149.653,-251.706 242.44,-156.564 272.438,-125.805"/>
<polygon fill="midnightblue" stroke="midnightblue" points="104.283,-293.214 99.807,-302.817 109.295,-298.102 104.283,-293.214"/>
</g>
<!-- Node13 -->
<g id="node13" class="node"><title>Node13</title>
<g id="a_node13"><a xlink:href="classx265_1_1Search.html#a59b84ac1e21c86af579b6e84e43c5b7a" target="_top" xlink:title="x265::Search::codeIntraLumaQT">
<polygon fill="white" stroke="black" points="204,-365.5 204,-384.5 362,-384.5 362,-365.5 204,-365.5"/>
<text text-anchor="middle" x="283" y="-372.5" font-family="Helvetica,sans-Serif" font-size="10.00">x265::Search::codeIntraLumaQT</text>
</a>
</g>
</g>
<!-- Node1&#45;&gt;Node13 -->
<g id="edge15" class="edge"><title>Node1&#45;&gt;Node13</title>
<path fill="none" stroke="midnightblue" d="M146.806,-335.883C180.589,-345.658 221.091,-357.377 248.902,-365.423"/>
<polygon fill="midnightblue" stroke="midnightblue" points="147.596,-332.468 137.017,-333.051 145.65,-339.192 147.596,-332.468"/>
</g>
<!-- Node15 -->
<g id="node15" class="node"><title>Node15</title>
<g id="a_node15"><a xlink:href="classx265_1_1Search.html#ab02df91827cf67796d1605bde60c6aed" target="_top" xlink:title="x265::Search::checkIntra">
<polygon fill="white" stroke="black" points="593,-426.5 593,-445.5 719,-445.5 719,-426.5 593,-426.5"/>
<text text-anchor="middle" x="656" y="-433.5" font-family="Helvetica,sans-Serif" font-size="10.00">x265::Search::checkIntra</text>
</a>
</g>
</g>
<!-- Node1&#45;&gt;Node15 -->
<g id="edge28" class="edge"><title>Node1&#45;&gt;Node15</title>
<path fill="none" stroke="midnightblue" d="M110.378,-339.344C133.275,-357.284 168.688,-381.881 204,-394 336.952,-439.63 504.12,-442.015 592.902,-439.3"/>
<polygon fill="midnightblue" stroke="midnightblue" points="112.529,-336.582 102.532,-333.071 108.158,-342.05 112.529,-336.582"/>
</g>
<!-- Node19 -->
<g id="node19" class="node"><title>Node19</title>
<g id="a_node19"><a xlink:href="classx265_1_1Search.html#a4e3f1622d206a6883cb41567c63e106f" target="_top" xlink:title="x265::Search::encodeResAnd\lCalcRdSkipCU">
<polygon fill="white" stroke="black" points="582.5,-333 582.5,-363 729.5,-363 729.5,-333 582.5,-333"/>
<text text-anchor="start" x="590.5" y="-351" font-family="Helvetica,sans-Serif" font-size="10.00">x265::Search::encodeResAnd</text>
<text text-anchor="middle" x="656" y="-340" font-family="Helvetica,sans-Serif" font-size="10.00">CalcRdSkipCU</text>
</a>
</g>
</g>
<!-- Node1&#45;&gt;Node19 -->
<g id="edge29" class="edge"><title>Node1&#45;&gt;Node19</title>
<path fill="none" stroke="midnightblue" d="M178.22,-322.906C291.334,-328.86 479.643,-338.771 582.495,-344.184"/>
<polygon fill="midnightblue" stroke="midnightblue" points="178.358,-319.409 168.188,-322.378 177.99,-326.399 178.358,-319.409"/>
</g>
<!-- Node22 -->
<g id="node22" class="node"><title>Node22</title>
<g id="a_node22"><a xlink:href="classx265_1_1Search.html#aba5e04ce529f41accd43c540ba1dc7ad" target="_top" xlink:title="x265::Search::encodeResAnd\lCalcRdInterCU">
<polygon fill="white" stroke="black" points="582.5,-284 582.5,-314 729.5,-314 729.5,-284 582.5,-284"/>
<text text-anchor="start" x="590.5" y="-302" font-family="Helvetica,sans-Serif" font-size="10.00">x265::Search::encodeResAnd</text>
<text text-anchor="middle" x="656" y="-291" font-family="Helvetica,sans-Serif" font-size="10.00">CalcRdInterCU</text>
</a>
</g>
</g>
<!-- Node1&#45;&gt;Node22 -->
<g id="edge35" class="edge"><title>Node1&#45;&gt;Node22</title>
<path fill="none" stroke="midnightblue" d="M178.22,-314.893C291.334,-311.122 479.643,-304.845 582.495,-301.417"/>
<polygon fill="midnightblue" stroke="midnightblue" points="178.066,-311.396 168.188,-315.227 178.299,-318.392 178.066,-311.396"/>
</g>
<!-- Node3 -->
<g id="node3" class="node"><title>Node3</title>
<g id="a_node3"><a xlink:href="classx265_1_1Analysis.html#aa6122285d10bb1bd7584958b88b029d5" target="_top" xlink:title="x265::Analysis::parallel\lModeAnalysis">
<polygon fill="white" stroke="black" points="597,-139 597,-169 715,-169 715,-139 597,-139"/>
<text text-anchor="start" x="605" y="-157" font-family="Helvetica,sans-Serif" font-size="10.00">x265::Analysis::parallel</text>
<text text-anchor="middle" x="656" y="-146" font-family="Helvetica,sans-Serif" font-size="10.00">ModeAnalysis</text>
</a>
</g>
</g>
<!-- Node2&#45;&gt;Node3 -->
<g id="edge2" class="edge"><title>Node2&#45;&gt;Node3</title>
<path fill="none" stroke="midnightblue" d="M531.149,-192.789C555.543,-185.148 583.576,-176.369 606.796,-169.097"/>
<polygon fill="midnightblue" stroke="midnightblue" points="529.792,-189.546 521.295,-195.875 531.884,-196.226 529.792,-189.546"/>
</g>
<!-- Node5 -->
<g id="node5" class="node"><title>Node5</title>
<g id="a_node5"><a xlink:href="classx265_1_1Analysis.html#a87060ff27a37f56adc5f5b8a4c033ece" target="_top" xlink:title="x265::Analysis::compress\lInterCU_dist">
<polygon fill="white" stroke="black" points="948,-186 948,-216 1078,-216 1078,-186 948,-186"/>
<text text-anchor="start" x="956" y="-204" font-family="Helvetica,sans-Serif" font-size="10.00">x265::Analysis::compress</text>
<text text-anchor="middle" x="1013" y="-193" font-family="Helvetica,sans-Serif" font-size="10.00">InterCU_dist</text>
</a>
</g>
</g>
<!-- Node2&#45;&gt;Node5 -->
<g id="edge7" class="edge"><title>Node2&#45;&gt;Node5</title>
<path fill="none" stroke="midnightblue" d="M494.387,-188.849C514.838,-169.264 547.58,-141.867 582,-129 719.487,-77.6021 774.232,-65.3596 912,-116 949.854,-129.914 983.167,-165.221 1000.12,-185.687"/>
<polygon fill="midnightblue" stroke="midnightblue" points="491.861,-186.424 487.173,-195.925 496.763,-191.421 491.861,-186.424"/>
</g>
<!-- Node8 -->
<g id="node8" class="node"><title>Node8</title>
<g id="a_node8"><a xlink:href="classx265_1_1Analysis.html#a30d2ff7eca5addbb0a6b3dfe14f09650" target="_top" xlink:title="x265::Analysis::compress\lInterCU_rd0_4">
<polygon fill="white" stroke="black" points="948,-262 948,-292 1078,-292 1078,-262 948,-262"/>
<text text-anchor="start" x="956" y="-280" font-family="Helvetica,sans-Serif" font-size="10.00">x265::Analysis::compress</text>
<text text-anchor="middle" x="1013" y="-269" font-family="Helvetica,sans-Serif" font-size="10.00">InterCU_rd0_4</text>
</a>
</g>
</g>
<!-- Node2&#45;&gt;Node8 -->
<g id="edge8" class="edge"><title>Node2&#45;&gt;Node8</title>
<path fill="none" stroke="midnightblue" d="M551.101,-205.22C639.917,-200.74 788.604,-199.632 912,-230 939.01,-236.647 967.504,-250.843 987.136,-261.903"/>
<polygon fill="midnightblue" stroke="midnightblue" points="550.904,-201.725 541.104,-205.751 551.275,-208.715 550.904,-201.725"/>
</g>
<!-- Node4 -->
<g id="node4" class="node"><title>Node4</title>
<g id="a_node4"><a xlink:href="classx265_1_1Analysis.html#a29a58dad4cc1c07d2f5e5717c6be7c25" target="_top" xlink:title="x265::Analysis::findJob">
<polygon fill="white" stroke="black" points="779.5,-125.5 779.5,-144.5 898.5,-144.5 898.5,-125.5 779.5,-125.5"/>
<text text-anchor="middle" x="839" y="-132.5" font-family="Helvetica,sans-Serif" font-size="10.00">x265::Analysis::findJob</text>
</a>
</g>
</g>
<!-- Node3&#45;&gt;Node4 -->
<g id="edge3" class="edge"><title>Node3&#45;&gt;Node4</title>
<path fill="none" stroke="midnightblue" d="M725.519,-146.807C743.205,-144.951 762.083,-142.969 779.223,-141.17"/>
<polygon fill="midnightblue" stroke="midnightblue" points="724.846,-143.359 715.266,-147.884 725.577,-150.32 724.846,-143.359"/>
</g>
<!-- Node4&#45;&gt;Node5 -->
<g id="edge4" class="edge"><title>Node4&#45;&gt;Node5</title>
<path fill="none" stroke="midnightblue" d="M880.043,-147.748C890.5,-151.241 901.719,-155.134 912,-159 934.208,-167.351 958.78,-177.656 978.009,-185.968"/>
<polygon fill="midnightblue" stroke="midnightblue" points="880.899,-144.346 870.306,-144.537 878.706,-150.993 880.899,-144.346"/>
</g>
<!-- Node6 -->
<g id="node6" class="node"><title>Node6</title>
<g id="a_node6"><a xlink:href="classx265_1_1Analysis.html#aaebc9de2ff98834c650244f3b58942c2" target="_top" xlink:title="x265::Analysis::compressCTU">
<polygon fill="white" stroke="black" points="1114.5,-267.5 1114.5,-286.5 1265.5,-286.5 1265.5,-267.5 1114.5,-267.5"/>
<text text-anchor="middle" x="1190" y="-274.5" font-family="Helvetica,sans-Serif" font-size="10.00">x265::Analysis::compressCTU</text>
</a>
</g>
</g>
<!-- Node5&#45;&gt;Node6 -->
<g id="edge5" class="edge"><title>Node5&#45;&gt;Node6</title>
<path fill="none" stroke="midnightblue" d="M1058.02,-220.116C1092.75,-235.198 1139.72,-255.6 1166.96,-267.427"/>
<polygon fill="midnightblue" stroke="midnightblue" points="1059.14,-216.788 1048.57,-216.015 1056.35,-223.209 1059.14,-216.788"/>
</g>
<!-- Node7 -->
<g id="node7" class="node"><title>Node7</title>
<g id="a_node7"><a xlink:href="classx265_1_1FrameEncoder.html#a0ae85001572afd28238476542523ac5f" target="_top" xlink:title="x265::FrameEncoder\l::processRowEncoder">
<polygon fill="white" stroke="red" points="1302.5,-153 1302.5,-183 1415.5,-183 1415.5,-153 1302.5,-153"/>
<text text-anchor="start" x="1310.5" y="-171" font-family="Helvetica,sans-Serif" font-size="10.00">x265::FrameEncoder</text>
<text text-anchor="middle" x="1359" y="-160" font-family="Helvetica,sans-Serif" font-size="10.00">::processRowEncoder</text>
</a>
</g>
</g>
<!-- Node6&#45;&gt;Node7 -->
<g id="edge6" class="edge"><title>Node6&#45;&gt;Node7</title>
<path fill="none" stroke="midnightblue" d="M1214.49,-261.667C1246.38,-240.852 1303.02,-203.882 1334.78,-183.159"/>
<polygon fill="midnightblue" stroke="midnightblue" points="1212.28,-258.93 1205.82,-267.327 1216.11,-264.792 1212.28,-258.93"/>
</g>
<!-- Node8&#45;&gt;Node6 -->
<g id="edge9" class="edge"><title>Node8&#45;&gt;Node6</title>
<path fill="none" stroke="midnightblue" d="M1088.25,-277C1096.93,-277 1105.78,-277 1114.47,-277"/>
<polygon fill="midnightblue" stroke="midnightblue" points="1088.17,-273.5 1078.17,-277 1088.17,-280.5 1088.17,-273.5"/>
</g>
<!-- Node10 -->
<g id="node10" class="node"><title>Node10</title>
<g id="a_node10"><a xlink:href="classx265_1_1Entropy.html#abb101b71f310e90eb504a8204babc180" target="_top" xlink:title="x265::Entropy::encodeCTU">
<polygon fill="white" stroke="black" points="404,-49.5 404,-68.5 540,-68.5 540,-49.5 404,-49.5"/>
<text text-anchor="middle" x="472" y="-56.5" font-family="Helvetica,sans-Serif" font-size="10.00">x265::Entropy::encodeCTU</text>
</a>
</g>
</g>
<!-- Node9&#45;&gt;Node10 -->
<g id="edge11" class="edge"><title>Node9&#45;&gt;Node10</title>
<path fill="none" stroke="midnightblue" d="M325.075,-103.48C359.574,-92.964 408.143,-78.1595 439.598,-68.5716"/>
<polygon fill="midnightblue" stroke="midnightblue" points="323.845,-100.196 315.3,-106.459 325.886,-106.892 323.845,-100.196"/>
</g>
<!-- Node10&#45;&gt;Node7 -->
<g id="edge14" class="edge"><title>Node10&#45;&gt;Node7</title>
<path fill="none" stroke="midnightblue" d="M550.423,-59C624.307,-59 738.745,-59 838,-59 838,-59 838,-59 1014,-59 1136.79,-59 1273.2,-122.894 1330.4,-152.844"/>
<polygon fill="midnightblue" stroke="midnightblue" points="550.273,-55.5001 540.273,-59 550.273,-62.5001 550.273,-55.5001"/>
</g>
<!-- Node11 -->
<g id="node11" class="node"><title>Node11</title>
<g id="a_node11"><a xlink:href="classx265_1_1FrameEncoder.html#a6d4045d35bfe6b10c8d0dc39353be360" target="_top" xlink:title="x265::FrameEncoder\l::encodeSlice">
<polygon fill="white" stroke="black" points="602.5,-0 602.5,-30 709.5,-30 709.5,-0 602.5,-0"/>
<text text-anchor="start" x="610.5" y="-18" font-family="Helvetica,sans-Serif" font-size="10.00">x265::FrameEncoder</text>
<text text-anchor="middle" x="656" y="-7" font-family="Helvetica,sans-Serif" font-size="10.00">::encodeSlice</text>
</a>
</g>
</g>
<!-- Node10&#45;&gt;Node11 -->
<g id="edge12" class="edge"><title>Node10&#45;&gt;Node11</title>
<path fill="none" stroke="midnightblue" d="M522.414,-47.0538C547.206,-41.0601 577.245,-33.798 602.457,-27.7026"/>
<polygon fill="midnightblue" stroke="midnightblue" points="521.389,-43.7007 512.491,-49.4527 523.034,-50.5047 521.389,-43.7007"/>
</g>
<!-- Node12 -->
<g id="node12" class="node"><title>Node12</title>
<g id="a_node12"><a xlink:href="classx265_1_1FrameEncoder.html#a2f5c4c0f1a4e36fce4c9b87eb7ec4973" target="_top" xlink:title="x265::FrameEncoder\l::compressFrame">
<polygon fill="white" stroke="red" points="785.5,-0 785.5,-30 892.5,-30 892.5,-0 785.5,-0"/>
<text text-anchor="start" x="793.5" y="-18" font-family="Helvetica,sans-Serif" font-size="10.00">x265::FrameEncoder</text>
<text text-anchor="middle" x="839" y="-7" font-family="Helvetica,sans-Serif" font-size="10.00">::compressFrame</text>
</a>
</g>
</g>
<!-- Node11&#45;&gt;Node12 -->
<g id="edge13" class="edge"><title>Node11&#45;&gt;Node12</title>
<path fill="none" stroke="midnightblue" d="M720.103,-15C741.425,-15 764.988,-15 785.408,-15"/>
<polygon fill="midnightblue" stroke="midnightblue" points="719.839,-11.5001 709.839,-15 719.839,-18.5001 719.839,-11.5001"/>
</g>
<!-- Node13&#45;&gt;Node2 -->
<g id="edge16" class="edge"><title>Node13&#45;&gt;Node2</title>
<path fill="none" stroke="midnightblue" d="M302.731,-358.573C339.11,-326.668 418.82,-256.762 453.878,-226.016"/>
<polygon fill="midnightblue" stroke="midnightblue" points="300.073,-356.249 294.862,-365.474 304.688,-361.512 300.073,-356.249"/>
</g>
<!-- Node14 -->
<g id="node14" class="node"><title>Node14</title>
<g id="a_node14"><a xlink:href="classx265_1_1Search.html#a1778d2ab96ac88c7f76d36818d6adbdd" target="_top" xlink:title="x265::Search::estIntraPredQT">
<polygon fill="white" stroke="black" points="398.5,-376.5 398.5,-395.5 545.5,-395.5 545.5,-376.5 398.5,-376.5"/>
<text text-anchor="middle" x="472" y="-383.5" font-family="Helvetica,sans-Serif" font-size="10.00">x265::Search::estIntraPredQT</text>
</a>
</g>
</g>
<!-- Node13&#45;&gt;Node14 -->
<g id="edge17" class="edge"><title>Node13&#45;&gt;Node14</title>
<path fill="none" stroke="midnightblue" d="M372.419,-380.201C381.144,-380.714 389.928,-381.231 398.467,-381.733"/>
<polygon fill="midnightblue" stroke="midnightblue" points="372.41,-376.695 362.221,-379.601 371.999,-383.683 372.41,-376.695"/>
</g>
<!-- Node14&#45;&gt;Node15 -->
<g id="edge18" class="edge"><title>Node14&#45;&gt;Node15</title>
<path fill="none" stroke="midnightblue" d="M517.536,-398.235C549.145,-406.919 590.977,-418.411 620.158,-426.428"/>
<polygon fill="midnightblue" stroke="midnightblue" points="518.231,-394.797 507.661,-395.522 516.377,-401.546 518.231,-394.797"/>
</g>
<!-- Node16 -->
<g id="node16" class="node"><title>Node16</title>
<g id="a_node16"><a xlink:href="classx265_1_1Analysis.html#a10f0a8d9d143faf8dc671c6f0982693d" target="_top" xlink:title="x265::Analysis::tryLossless">
<polygon fill="white" stroke="black" points="770.5,-426.5 770.5,-445.5 907.5,-445.5 907.5,-426.5 770.5,-426.5"/>
<text text-anchor="middle" x="839" y="-433.5" font-family="Helvetica,sans-Serif" font-size="10.00">x265::Analysis::tryLossless</text>
</a>
</g>
</g>
<!-- Node15&#45;&gt;Node16 -->
<g id="edge19" class="edge"><title>Node15&#45;&gt;Node16</title>
<path fill="none" stroke="midnightblue" d="M729.293,-436C742.879,-436 757.037,-436 770.471,-436"/>
<polygon fill="midnightblue" stroke="midnightblue" points="729.037,-432.5 719.037,-436 729.037,-439.5 729.037,-432.5"/>
</g>
<!-- Node17 -->
<g id="node17" class="node"><title>Node17</title>
<g id="a_node17"><a xlink:href="classx265_1_1Analysis.html#aae2a6a2252270782b591d2bed7e99dae" target="_top" xlink:title="x265::Analysis::compress\lIntraCU">
<polygon fill="white" stroke="black" points="948,-423 948,-453 1078,-453 1078,-423 948,-423"/>
<text text-anchor="start" x="956" y="-441" font-family="Helvetica,sans-Serif" font-size="10.00">x265::Analysis::compress</text>
<text text-anchor="middle" x="1013" y="-430" font-family="Helvetica,sans-Serif" font-size="10.00">IntraCU</text>
</a>
</g>
</g>
<!-- Node15&#45;&gt;Node17 -->
<g id="edge26" class="edge"><title>Node15&#45;&gt;Node17</title>
<path fill="none" stroke="midnightblue" d="M680.411,-450.963C701.755,-463.658 734.648,-480.905 766,-488 829.288,-502.323 848.847,-502.908 912,-488 940.337,-481.311 969.799,-465.294 989.338,-453.178"/>
<polygon fill="midnightblue" stroke="midnightblue" points="682.097,-447.892 671.736,-445.674 678.452,-453.868 682.097,-447.892"/>
</g>
<!-- Node18 -->
<g id="node18" class="node"><title>Node18</title>
<g id="a_node18"><a xlink:href="classx265_1_1Analysis.html#a0b22b7765aa4a36b1ba6d07ba26901e6" target="_top" xlink:title="x265::Analysis::compress\lInterCU_rd5_6">
<polygon fill="white" stroke="black" points="948,-374 948,-404 1078,-404 1078,-374 948,-374"/>
<text text-anchor="start" x="956" y="-392" font-family="Helvetica,sans-Serif" font-size="10.00">x265::Analysis::compress</text>
<text text-anchor="middle" x="1013" y="-381" font-family="Helvetica,sans-Serif" font-size="10.00">InterCU_rd5_6</text>
</a>
</g>
</g>
<!-- Node15&#45;&gt;Node18 -->
<g id="edge27" class="edge"><title>Node15&#45;&gt;Node18</title>
<path fill="none" stroke="midnightblue" d="M691.831,-448.743C742.709,-465.175 839.204,-487.957 912,-455 934.091,-444.999 928.142,-427.918 948,-414 953.373,-410.234 959.391,-406.933 965.529,-404.07"/>
<polygon fill="midnightblue" stroke="midnightblue" points="692.878,-445.403 682.285,-445.56 690.664,-452.044 692.878,-445.403"/>
</g>
<!-- Node16&#45;&gt;Node5 -->
<g id="edge22" class="edge"><title>Node16&#45;&gt;Node5</title>
<path fill="none" stroke="midnightblue" d="M906.164,-421.18C908.248,-419.618 910.205,-417.896 912,-416 963.3,-361.805 908.549,-315.344 948,-252 957.163,-237.287 972.128,-225.015 985.284,-216.198"/>
<polygon fill="midnightblue" stroke="midnightblue" points="904.268,-418.238 897.579,-426.454 907.932,-424.202 904.268,-418.238"/>
</g>
<!-- Node16&#45;&gt;Node8 -->
<g id="edge23" class="edge"><title>Node16&#45;&gt;Node8</title>
<path fill="none" stroke="midnightblue" d="M900.886,-422.458C904.791,-420.578 908.539,-418.437 912,-416 934.685,-400.025 931.84,-387.553 948,-365 966.375,-339.356 988.012,-309.721 1000.84,-292.214"/>
<polygon fill="midnightblue" stroke="midnightblue" points="899.405,-419.284 891.547,-426.39 902.121,-425.735 899.405,-419.284"/>
</g>
<!-- Node16&#45;&gt;Node17 -->
<g id="edge20" class="edge"><title>Node16&#45;&gt;Node17</title>
<path fill="none" stroke="midnightblue" d="M918.242,-436.91C928.159,-437.025 938.215,-437.142 947.877,-437.254"/>
<polygon fill="midnightblue" stroke="midnightblue" points="918.019,-433.407 907.979,-436.79 917.938,-440.407 918.019,-433.407"/>
</g>
<!-- Node16&#45;&gt;Node18 -->
<g id="edge24" class="edge"><title>Node16&#45;&gt;Node18</title>
<path fill="none" stroke="midnightblue" d="M884.59,-423.815C906.682,-417.779 933.562,-410.434 956.928,-404.049"/>
<polygon fill="midnightblue" stroke="midnightblue" points="883.531,-420.477 874.807,-426.489 885.376,-427.229 883.531,-420.477"/>
</g>
<!-- Node17&#45;&gt;Node6 -->
<g id="edge21" class="edge"><title>Node17&#45;&gt;Node6</title>
<path fill="none" stroke="midnightblue" d="M1070.03,-418.171C1072.8,-416.559 1075.48,-414.837 1078,-413 1128.51,-376.225 1169.3,-311.137 1183.55,-286.664"/>
<polygon fill="midnightblue" stroke="midnightblue" points="1068.16,-415.202 1060.93,-422.95 1071.41,-421.399 1068.16,-415.202"/>
</g>
<!-- Node18&#45;&gt;Node6 -->
<g id="edge25" class="edge"><title>Node18&#45;&gt;Node6</title>
<path fill="none" stroke="midnightblue" d="M1046.26,-368.356C1084.25,-344.041 1145.75,-304.677 1173.98,-286.616"/>
<polygon fill="midnightblue" stroke="midnightblue" points="1044.14,-365.557 1037.6,-373.895 1047.91,-371.453 1044.14,-365.557"/>
</g>
<!-- Node20 -->
<g id="node20" class="node"><title>Node20</title>
<g id="a_node20"><a xlink:href="classx265_1_1Analysis.html#addd72cb95590e2b2a6965d42d110eab3" target="_top" xlink:title="x265::Analysis::checkMerge2\lNx2N_rd0_4">
<polygon fill="white" stroke="black" points="766,-240 766,-270 912,-270 912,-240 766,-240"/>
<text text-anchor="start" x="774" y="-258" font-family="Helvetica,sans-Serif" font-size="10.00">x265::Analysis::checkMerge2</text>
<text text-anchor="middle" x="839" y="-247" font-family="Helvetica,sans-Serif" font-size="10.00">Nx2N_rd0_4</text>
</a>
</g>
</g>
<!-- Node19&#45;&gt;Node20 -->
<g id="edge30" class="edge"><title>Node19&#45;&gt;Node20</title>
<path fill="none" stroke="midnightblue" d="M715.745,-329.231C720.625,-327.266 725.434,-325.183 730,-323 761.984,-307.71 796.176,-284.97 817.322,-270.065"/>
<polygon fill="midnightblue" stroke="midnightblue" points="714.393,-326.001 706.319,-332.86 716.908,-332.534 714.393,-326.001"/>
</g>
<!-- Node21 -->
<g id="node21" class="node"><title>Node21</title>
<g id="a_node21"><a xlink:href="classx265_1_1Analysis.html#a0194a9da53aa95173fa1132ba3aea1c7" target="_top" xlink:title="x265::Analysis::checkMerge2\lNx2N_rd5_6">
<polygon fill="white" stroke="black" points="766,-377 766,-407 912,-407 912,-377 766,-377"/>
<text text-anchor="start" x="774" y="-395" font-family="Helvetica,sans-Serif" font-size="10.00">x265::Analysis::checkMerge2</text>
<text text-anchor="middle" x="839" y="-384" font-family="Helvetica,sans-Serif" font-size="10.00">Nx2N_rd5_6</text>
</a>
</g>
</g>
<!-- Node19&#45;&gt;Node21 -->
<g id="edge33" class="edge"><title>Node19&#45;&gt;Node21</title>
<path fill="none" stroke="midnightblue" d="M728.929,-365.485C744.568,-369.287 760.981,-373.277 776.188,-376.974"/>
<polygon fill="midnightblue" stroke="midnightblue" points="729.327,-361.981 718.784,-363.019 727.674,-368.782 729.327,-361.981"/>
</g>
<!-- Node20&#45;&gt;Node5 -->
<g id="edge31" class="edge"><title>Node20&#45;&gt;Node5</title>
<path fill="none" stroke="midnightblue" d="M897.612,-236.913C919.184,-230.14 943.441,-222.524 964.047,-216.055"/>
<polygon fill="midnightblue" stroke="midnightblue" points="896.404,-233.623 887.912,-239.958 898.501,-240.302 896.404,-233.623"/>
</g>
<!-- Node20&#45;&gt;Node8 -->
<g id="edge32" class="edge"><title>Node20&#45;&gt;Node8</title>
<path fill="none" stroke="midnightblue" d="M922.422,-265.542C930.957,-266.634 939.539,-267.732 947.831,-268.792"/>
<polygon fill="midnightblue" stroke="midnightblue" points="922.808,-262.063 912.445,-264.266 921.92,-269.007 922.808,-262.063"/>
</g>
<!-- Node21&#45;&gt;Node18 -->
<g id="edge34" class="edge"><title>Node21&#45;&gt;Node18</title>
<path fill="none" stroke="midnightblue" d="M922.701,-390.558C931.144,-390.41 939.629,-390.262 947.831,-390.119"/>
<polygon fill="midnightblue" stroke="midnightblue" points="922.382,-387.062 912.445,-390.736 922.505,-394.061 922.382,-387.062"/>
</g>
<!-- Node22&#45;&gt;Node5 -->
<g id="edge37" class="edge"><title>Node22&#45;&gt;Node5</title>
<path fill="none" stroke="midnightblue" d="M683.435,-277.462C704.481,-261.556 735.389,-240.857 766,-230 825.275,-208.976 897.111,-202.508 947.811,-200.828"/>
<polygon fill="midnightblue" stroke="midnightblue" points="681.1,-274.843 675.325,-283.725 685.379,-280.383 681.1,-274.843"/>
</g>
<!-- Node22&#45;&gt;Node8 -->
<g id="edge38" class="edge"><title>Node22&#45;&gt;Node8</title>
<path fill="none" stroke="midnightblue" d="M740.065,-293.852C803.468,-289.923 889.549,-284.589 947.744,-280.982"/>
<polygon fill="midnightblue" stroke="midnightblue" points="739.461,-290.383 729.696,-294.495 739.894,-297.37 739.461,-290.383"/>
</g>
<!-- Node22&#45;&gt;Node16 -->
<g id="edge36" class="edge"><title>Node22&#45;&gt;Node16</title>
<path fill="none" stroke="midnightblue" d="M724.756,-319.55C726.594,-320.938 728.349,-322.419 730,-324 761.708,-354.372 733.409,-386.576 766,-416 770.815,-420.347 776.495,-423.759 782.52,-426.435"/>
<polygon fill="midnightblue" stroke="midnightblue" points="726.531,-316.529 716.232,-314.043 722.733,-322.409 726.531,-316.529"/>
</g>
<!-- Node22&#45;&gt;Node20 -->
<g id="edge39" class="edge"><title>Node22&#45;&gt;Node20</title>
<path fill="none" stroke="midnightblue" d="M728.929,-281.515C744.568,-277.713 760.981,-273.723 776.188,-270.026"/>
<polygon fill="midnightblue" stroke="midnightblue" points="727.674,-278.218 718.784,-283.981 729.327,-285.019 727.674,-278.218"/>
</g>
<!-- Node22&#45;&gt;Node21 -->
<g id="edge40" class="edge"><title>Node22&#45;&gt;Node21</title>
<path fill="none" stroke="midnightblue" d="M721.021,-318.546C724.139,-320.229 727.153,-322.045 730,-324 750.545,-338.112 745.485,-352.845 766,-367 771.554,-370.833 777.753,-374.13 784.119,-376.954"/>
<polygon fill="midnightblue" stroke="midnightblue" points="722.53,-315.388 712.008,-314.145 719.458,-321.678 722.53,-315.388"/>
</g>
<!-- Node23 -->
<g id="node23" class="node"><title>Node23</title>
<g id="a_node23"><a xlink:href="classx265_1_1Analysis.html#a828daa3e9f1ed40a1af9f99f7ff7bb33" target="_top" xlink:title="x265::Analysis::checkInter\l_rd5_6">
<polygon fill="white" stroke="black" points="772.5,-328 772.5,-358 905.5,-358 905.5,-328 772.5,-328"/>
<text text-anchor="start" x="780.5" y="-346" font-family="Helvetica,sans-Serif" font-size="10.00">x265::Analysis::checkInter</text>
<text text-anchor="middle" x="839" y="-335" font-family="Helvetica,sans-Serif" font-size="10.00">_rd5_6</text>
</a>
</g>
</g>
<!-- Node22&#45;&gt;Node23 -->
<g id="edge41" class="edge"><title>Node22&#45;&gt;Node23</title>
<path fill="none" stroke="midnightblue" d="M728.929,-316.485C744.568,-320.287 760.981,-324.277 776.188,-327.974"/>
<polygon fill="midnightblue" stroke="midnightblue" points="729.327,-312.981 718.784,-314.019 727.674,-319.782 729.327,-312.981"/>
</g>
<!-- Node23&#45;&gt;Node18 -->
<g id="edge42" class="edge"><title>Node23&#45;&gt;Node18</title>
<path fill="none" stroke="midnightblue" d="M906.345,-360.743C922.691,-365.115 940.038,-369.754 955.848,-373.983"/>
<polygon fill="midnightblue" stroke="midnightblue" points="906.884,-357.265 896.319,-358.062 905.075,-364.027 906.884,-357.265"/>
</g>
</g>
</svg>
        <g id="navigator" transform="translate(0 0)" fill="#404254">
                <rect fill="#f2f5e9" fill-opacity="0.5" stroke="#606060" stroke-width=".5" x="0" y="0" width="60" height="60"/>
                <use id="zoomplus" xlink:href="#zoomPlus" x="17" y="9" onmousedown="handleZoom(evt,'in')"/>
                <use id="zoomminus" xlink:href="#zoomMin" x="42" y="9" onmousedown="handleZoom(evt,'out')"/>
                <use id="reset" xlink:href="#resetDef" x="30" y="36" onmousedown="handleReset()"/>
                <g id="arrowUp" xlink:href="#dirArrow" transform="translate(30 24)" onmousedown="handlePan(0,-1)">
                  <use xlink:href="#rim" fill="#404040">
                        <set attributeName="fill" to="#808080" begin="arrowUp.mouseover" end="arrowUp.mouseout"/>
                  </use>
                  <path fill="none" stroke="white" stroke-width="1.5" d="M0,-3.0v7 M-2.5,-0.5L0,-3.0L2.5,-0.5"/>
                </g>
                <g id="arrowRight" xlink:href="#dirArrow" transform="rotate(90) translate(36 -43)" onmousedown="handlePan(1,0)">
                  <use xlink:href="#rim" fill="#404040">
                        <set attributeName="fill" to="#808080" begin="arrowRight.mouseover" end="arrowRight.mouseout"/>
                  </use>
                  <path fill="none" stroke="white" stroke-width="1.5" d="M0,-3.0v7 M-2.5,-0.5L0,-3.0L2.5,-0.5"/>
                </g>
                <g id="arrowDown" xlink:href="#dirArrow" transform="rotate(180) translate(-30 -48)" onmousedown="handlePan(0,1)">
                  <use xlink:href="#rim" fill="#404040">
                        <set attributeName="fill" to="#808080" begin="arrowDown.mouseover" end="arrowDown.mouseout"/>
                  </use>
                  <path fill="none" stroke="white" stroke-width="1.5" d="M0,-3.0v7 M-2.5,-0.5L0,-3.0L2.5,-0.5"/>
                </g>
                <g id="arrowLeft" xlink:href="#dirArrow" transform="rotate(270) translate(-36 17)" onmousedown="handlePan(-1,0)">
                  <use xlink:href="#rim" fill="#404040">
                        <set attributeName="fill" to="#808080" begin="arrowLeft.mouseover" end="arrowLeft.mouseout"/>
                  </use>
                  <path fill="none" stroke="white" stroke-width="1.5" d="M0,-3.0v7 M-2.5,-0.5L0,-3.0L2.5,-0.5"/>
                </g>
        </g>
        <svg viewBox="0 0 15 15" width="100%" height="30px" preserveAspectRatio="xMaxYMin meet">
         <g id="arrow_out" transform="scale(0.3 0.3)">
          <a xlink:href="classx265_1_1Entropy_afaebfc61d8a10d06782a0933e928ef8b_icgraph_org.svg" target="_base">
           <rect id="button" ry="5" rx="5" y="6" x="6" height="38" width="38"
                fill="#f2f5e9" fill-opacity="0.5" stroke="#606060" stroke-width="1.0"/>
           <path id="arrow"
             d="M 11.500037,31.436501 C 11.940474,20.09759 22.043105,11.32322 32.158766,21.979434 L 37.068811,17.246167 C 37.068811,17.246167 37.088388,32 37.088388,32 L 22.160133,31.978069 C 22.160133,31.978069 26.997745,27.140456 26.997745,27.140456 C 18.528582,18.264221 13.291696,25.230495 11.500037,31.436501 z"
             style="fill:#404040;"/>
          </a>
         </g>
        </svg>
</svg>
