<?xml version="1.0" encoding="UTF-8" standalone="no"?>
<!DOCTYPE svg PUBLIC "-//W3C//DTD SVG 1.1//EN"
 "http://www.w3.org/Graphics/SVG/1.1/DTD/svg11.dtd">
<!-- Generated by graphviz version 2.36.0 (20140111.2315)
 -->
<!-- Title: x265::CostEstimate::init Pages: 1 -->
<svg width="312pt" height="104pt"
 viewBox="0.00 0.00 312.00 104.00" xmlns="http://www.w3.org/2000/svg" xmlns:xlink="http://www.w3.org/1999/xlink">
<g id="graph0" class="graph" transform="scale(1 1) rotate(0) translate(4 100)">
<title>x265::CostEstimate::init</title>
<polygon fill="white" stroke="none" points="-4,4 -4,-100 308,-100 308,4 -4,4"/>
<!-- Node1 -->
<g id="node1" class="node"><title>Node1</title>
<polygon fill="#bfbfbf" stroke="black" points="0,-33 0,-63 104,-63 104,-33 0,-33"/>
<text text-anchor="start" x="8" y="-51" font-family="Helvetica,sans-Serif" font-size="10.00">x265::CostEstimate</text>
<text text-anchor="middle" x="52" y="-40" font-family="Helvetica,sans-Serif" font-size="10.00">::init</text>
</g>
<!-- Node2 -->
<g id="node2" class="node"><title>Node2</title>
<g id="a_node2"><a xlink:href="classx265_1_1WaveFront.html#a24e51ce94e57786042db2bfa10fd7d7a" target="_top" xlink:title="x265::WaveFront::init">
<polygon fill="white" stroke="black" points="167,-76.5 167,-95.5 277,-95.5 277,-76.5 167,-76.5"/>
<text text-anchor="middle" x="222" y="-83.5" font-family="Helvetica,sans-Serif" font-size="10.00">x265::WaveFront::init</text>
</a>
</g>
</g>
<!-- Node1&#45;&gt;Node2 -->
<g id="edge1" class="edge"><title>Node1&#45;&gt;Node2</title>
<path fill="none" stroke="midnightblue" d="M104.318,-59.6077C124.801,-64.2407 148.355,-69.5685 168.914,-74.2186"/>
<polygon fill="midnightblue" stroke="midnightblue" points="168.213,-77.6484 178.739,-76.4409 169.757,-70.8209 168.213,-77.6484"/>
</g>
<!-- Node3 -->
<g id="node3" class="node"><title>Node3</title>
<g id="a_node3"><a xlink:href="classx265_1_1WaveFront.html#a604f8ca2090194c07d33eaf32783e1b9" target="_top" xlink:title="x265::WaveFront::enableAllRows">
<polygon fill="white" stroke="black" points="140.5,-38.5 140.5,-57.5 303.5,-57.5 303.5,-38.5 140.5,-38.5"/>
<text text-anchor="middle" x="222" y="-45.5" font-family="Helvetica,sans-Serif" font-size="10.00">x265::WaveFront::enableAllRows</text>
</a>
</g>
</g>
<!-- Node1&#45;&gt;Node3 -->
<g id="edge2" class="edge"><title>Node1&#45;&gt;Node3</title>
<path fill="none" stroke="midnightblue" d="M104.318,-48C112.591,-48 121.365,-48 130.241,-48"/>
<polygon fill="midnightblue" stroke="midnightblue" points="130.283,-51.5001 140.283,-48 130.283,-44.5001 130.283,-51.5001"/>
</g>
<!-- Node4 -->
<g id="node4" class="node"><title>Node4</title>
<g id="a_node4"><a xlink:href="common_8cpp.html#a38ca1a52840936693f8520bb89701406" target="_top" xlink:title="x265_malloc">
<polygon fill="white" stroke="black" points="186.5,-0.5 186.5,-19.5 257.5,-19.5 257.5,-0.5 186.5,-0.5"/>
<text text-anchor="middle" x="222" y="-7.5" font-family="Helvetica,sans-Serif" font-size="10.00">x265_malloc</text>
</a>
</g>
</g>
<!-- Node1&#45;&gt;Node4 -->
<g id="edge3" class="edge"><title>Node1&#45;&gt;Node4</title>
<path fill="none" stroke="midnightblue" d="M104.318,-36.3923C127.414,-31.1683 154.415,-25.061 176.623,-20.0378"/>
<polygon fill="midnightblue" stroke="midnightblue" points="177.476,-23.4332 186.458,-17.8132 175.932,-16.6057 177.476,-23.4332"/>
</g>
</g>
</svg>
