<?xml version="1.0" encoding="UTF-8" standalone="no"?>
<!DOCTYPE svg PUBLIC "-//W3C//DTD SVG 1.1//EN"
 "http://www.w3.org/Graphics/SVG/1.1/DTD/svg11.dtd">
<!-- Generated by graphviz version 2.36.0 (20140111.2315)
 -->
<!-- Title: x265::CUData::deriveLeftRightTopIdxAdi Pages: 1 -->
<svg width="2182pt" height="388pt"
 viewBox="0.00 0.00 2182.00 388.15" xmlns="http://www.w3.org/2000/svg" xmlns:xlink="http://www.w3.org/1999/xlink">
<g id="graph0" class="graph" transform="scale(1 1) rotate(0) translate(4 384.15)">
<title>x265::CUData::deriveLeftRightTopIdxAdi</title>
<polygon fill="white" stroke="none" points="-4,4 -4,-384.15 2178,-384.15 2178,4 -4,4"/>
<!-- Node1 -->
<g id="node1" class="node"><title>Node1</title>
<polygon fill="#bfbfbf" stroke="black" points="0,-107 0,-137 128,-137 128,-107 0,-107"/>
<text text-anchor="start" x="8" y="-125" font-family="Helvetica,sans-Serif" font-size="10.00">x265::CUData::deriveLeft</text>
<text text-anchor="middle" x="64" y="-114" font-family="Helvetica,sans-Serif" font-size="10.00">RightTopIdxAdi</text>
</g>
<!-- Node2 -->
<g id="node2" class="node"><title>Node2</title>
<g id="a_node2"><a xlink:href="classx265_1_1Predict.html#a5cde667623af60ade240748e9818575d" target="_top" xlink:title="x265::Predict::initIntra\lNeighbors">
<polygon fill="white" stroke="black" points="164.5,-107 164.5,-137 277.5,-137 277.5,-107 164.5,-107"/>
<text text-anchor="start" x="172.5" y="-125" font-family="Helvetica,sans-Serif" font-size="10.00">x265::Predict::initIntra</text>
<text text-anchor="middle" x="221" y="-114" font-family="Helvetica,sans-Serif" font-size="10.00">Neighbors</text>
</a>
</g>
</g>
<!-- Node1&#45;&gt;Node2 -->
<g id="edge1" class="edge"><title>Node1&#45;&gt;Node2</title>
<path fill="none" stroke="midnightblue" d="M138.316,-122C147.117,-122 155.99,-122 164.479,-122"/>
<polygon fill="midnightblue" stroke="midnightblue" points="138.044,-118.5 128.044,-122 138.044,-125.5 138.044,-118.5"/>
</g>
<!-- Node3 -->
<g id="node3" class="node"><title>Node3</title>
<g id="a_node3"><a xlink:href="classx265_1_1Predict.html#abb05cb0b8bee26a733e556b3ba9be4e9" target="_top" xlink:title="x265::Predict::initAdiPattern">
<polygon fill="white" stroke="black" points="503.5,-147.5 503.5,-166.5 642.5,-166.5 642.5,-147.5 503.5,-147.5"/>
<text text-anchor="middle" x="573" y="-154.5" font-family="Helvetica,sans-Serif" font-size="10.00">x265::Predict::initAdiPattern</text>
</a>
</g>
</g>
<!-- Node2&#45;&gt;Node3 -->
<g id="edge2" class="edge"><title>Node2&#45;&gt;Node3</title>
<path fill="none" stroke="midnightblue" d="M287.839,-128.584C349.409,-134.741 440.993,-143.899 503.431,-150.143"/>
<polygon fill="midnightblue" stroke="midnightblue" points="288.144,-125.097 277.846,-127.585 287.448,-132.062 288.144,-125.097"/>
</g>
<!-- Node23 -->
<g id="node23" class="node"><title>Node23</title>
<g id="a_node23"><a xlink:href="classx265_1_1Predict.html#adaf25ea2af37db5f3222139d849447a4" target="_top" xlink:title="x265::Predict::initAdiPattern\lChroma">
<polygon fill="white" stroke="black" points="314.5,-79 314.5,-109 453.5,-109 453.5,-79 314.5,-79"/>
<text text-anchor="start" x="322.5" y="-97" font-family="Helvetica,sans-Serif" font-size="10.00">x265::Predict::initAdiPattern</text>
<text text-anchor="middle" x="384" y="-86" font-family="Helvetica,sans-Serif" font-size="10.00">Chroma</text>
</a>
</g>
</g>
<!-- Node2&#45;&gt;Node23 -->
<g id="edge36" class="edge"><title>Node2&#45;&gt;Node23</title>
<path fill="none" stroke="midnightblue" d="M287.98,-110.525C296.717,-109.006 305.689,-107.445 314.468,-105.919"/>
<polygon fill="midnightblue" stroke="midnightblue" points="287.111,-107.124 277.858,-112.286 288.31,-114.02 287.111,-107.124"/>
</g>
<!-- Node4 -->
<g id="node4" class="node"><title>Node4</title>
<g id="a_node4"><a xlink:href="classx265_1_1Analysis.html#a47fe19b013534639df70d2cccc551dca" target="_top" xlink:title="x265::Analysis::checkIntra\lInInter_rd0_4">
<polygon fill="white" stroke="black" points="897.5,-305 897.5,-335 1030.5,-335 1030.5,-305 897.5,-305"/>
<text text-anchor="start" x="905.5" y="-323" font-family="Helvetica,sans-Serif" font-size="10.00">x265::Analysis::checkIntra</text>
<text text-anchor="middle" x="964" y="-312" font-family="Helvetica,sans-Serif" font-size="10.00">InInter_rd0_4</text>
</a>
</g>
</g>
<!-- Node3&#45;&gt;Node4 -->
<g id="edge3" class="edge"><title>Node3&#45;&gt;Node4</title>
<path fill="none" stroke="midnightblue" d="M612.655,-170.588C627.474,-177.179 643.748,-186.254 656,-198 679.838,-220.854 665.436,-243.38 692,-263 751.847,-307.202 838.366,-318.793 897.443,-321.047"/>
<polygon fill="midnightblue" stroke="midnightblue" points="613.76,-167.256 603.184,-166.613 611.051,-173.711 613.76,-167.256"/>
</g>
<!-- Node13 -->
<g id="node13" class="node"><title>Node13</title>
<g id="a_node13"><a xlink:href="classx265_1_1Search.html#a59b84ac1e21c86af579b6e84e43c5b7a" target="_top" xlink:title="x265::Search::codeIntraLumaQT">
<polygon fill="white" stroke="black" points="692,-185.5 692,-204.5 850,-204.5 850,-185.5 692,-185.5"/>
<text text-anchor="middle" x="771" y="-192.5" font-family="Helvetica,sans-Serif" font-size="10.00">x265::Search::codeIntraLumaQT</text>
</a>
</g>
</g>
<!-- Node3&#45;&gt;Node13 -->
<g id="edge14" class="edge"><title>Node3&#45;&gt;Node13</title>
<path fill="none" stroke="midnightblue" d="M633.261,-168.489C661.227,-173.911 694.209,-180.306 720.774,-185.456"/>
<polygon fill="midnightblue" stroke="midnightblue" points="633.689,-165.007 623.206,-166.54 632.357,-171.879 633.689,-165.007"/>
</g>
<!-- Node15 -->
<g id="node15" class="node"><title>Node15</title>
<g id="a_node15"><a xlink:href="classx265_1_1Search.html#a1778d2ab96ac88c7f76d36818d6adbdd" target="_top" xlink:title="x265::Search::estIntraPredQT">
<polygon fill="white" stroke="black" points="890.5,-147.5 890.5,-166.5 1037.5,-166.5 1037.5,-147.5 890.5,-147.5"/>
<text text-anchor="middle" x="964" y="-154.5" font-family="Helvetica,sans-Serif" font-size="10.00">x265::Search::estIntraPredQT</text>
</a>
</g>
</g>
<!-- Node3&#45;&gt;Node15 -->
<g id="edge35" class="edge"><title>Node3&#45;&gt;Node15</title>
<path fill="none" stroke="midnightblue" d="M652.675,-157C722.202,-157 822.787,-157 890.418,-157"/>
<polygon fill="midnightblue" stroke="midnightblue" points="652.65,-153.5 642.65,-157 652.65,-160.5 652.65,-153.5"/>
</g>
<!-- Node20 -->
<g id="node20" class="node"><title>Node20</title>
<g id="a_node20"><a xlink:href="classx265_1_1Search.html#a8179474a0f2f2b7b84da90802f92b06e" target="_top" xlink:title="x265::Search::residualTransform\lQuantIntra">
<polygon fill="white" stroke="black" points="692,-98 692,-128 850,-128 850,-98 692,-98"/>
<text text-anchor="start" x="700" y="-116" font-family="Helvetica,sans-Serif" font-size="10.00">x265::Search::residualTransform</text>
<text text-anchor="middle" x="771" y="-105" font-family="Helvetica,sans-Serif" font-size="10.00">QuantIntra</text>
</a>
</g>
</g>
<!-- Node3&#45;&gt;Node20 -->
<g id="edge30" class="edge"><title>Node3&#45;&gt;Node20</title>
<path fill="none" stroke="midnightblue" d="M626.307,-145.258C649.82,-139.979 677.853,-133.686 702.891,-128.065"/>
<polygon fill="midnightblue" stroke="midnightblue" points="625.52,-141.847 616.529,-147.453 627.053,-148.677 625.52,-141.847"/>
</g>
<!-- Node5 -->
<g id="node5" class="node"><title>Node5</title>
<g id="a_node5"><a xlink:href="classx265_1_1Analysis.html#aa6122285d10bb1bd7584958b88b029d5" target="_top" xlink:title="x265::Analysis::parallel\lModeAnalysis">
<polygon fill="white" stroke="black" points="1082,-322 1082,-352 1200,-352 1200,-322 1082,-322"/>
<text text-anchor="start" x="1090" y="-340" font-family="Helvetica,sans-Serif" font-size="10.00">x265::Analysis::parallel</text>
<text text-anchor="middle" x="1141" y="-329" font-family="Helvetica,sans-Serif" font-size="10.00">ModeAnalysis</text>
</a>
</g>
</g>
<!-- Node4&#45;&gt;Node5 -->
<g id="edge4" class="edge"><title>Node4&#45;&gt;Node5</title>
<path fill="none" stroke="midnightblue" d="M1041.01,-327.383C1054.66,-328.71 1068.69,-330.073 1081.74,-331.341"/>
<polygon fill="midnightblue" stroke="midnightblue" points="1040.95,-323.862 1030.66,-326.379 1040.28,-330.829 1040.95,-323.862"/>
</g>
<!-- Node7 -->
<g id="node7" class="node"><title>Node7</title>
<g id="a_node7"><a xlink:href="classx265_1_1Analysis.html#a87060ff27a37f56adc5f5b8a4c033ece" target="_top" xlink:title="x265::Analysis::compress\lInterCU_dist">
<polygon fill="white" stroke="black" points="1414,-278 1414,-308 1544,-308 1544,-278 1414,-278"/>
<text text-anchor="start" x="1422" y="-296" font-family="Helvetica,sans-Serif" font-size="10.00">x265::Analysis::compress</text>
<text text-anchor="middle" x="1479" y="-285" font-family="Helvetica,sans-Serif" font-size="10.00">InterCU_dist</text>
</a>
</g>
</g>
<!-- Node4&#45;&gt;Node7 -->
<g id="edge11" class="edge"><title>Node4&#45;&gt;Node7</title>
<path fill="none" stroke="midnightblue" d="M1006.54,-339.006C1027.49,-347.568 1053.58,-356.707 1078,-361 1209.37,-384.095 1250.31,-391.547 1378,-353 1409.01,-343.638 1440.32,-322.541 1459.44,-308.035"/>
<polygon fill="midnightblue" stroke="midnightblue" points="1007.87,-335.771 997.297,-335.132 1005.17,-342.226 1007.87,-335.771"/>
</g>
<!-- Node12 -->
<g id="node12" class="node"><title>Node12</title>
<g id="a_node12"><a xlink:href="classx265_1_1Analysis.html#a30d2ff7eca5addbb0a6b3dfe14f09650" target="_top" xlink:title="x265::Analysis::compress\lInterCU_rd0_4">
<polygon fill="white" stroke="black" points="1414,-169 1414,-199 1544,-199 1544,-169 1414,-169"/>
<text text-anchor="start" x="1422" y="-187" font-family="Helvetica,sans-Serif" font-size="10.00">x265::Analysis::compress</text>
<text text-anchor="middle" x="1479" y="-176" font-family="Helvetica,sans-Serif" font-size="10.00">InterCU_rd0_4</text>
</a>
</g>
</g>
<!-- Node4&#45;&gt;Node12 -->
<g id="edge12" class="edge"><title>Node4&#45;&gt;Node12</title>
<path fill="none" stroke="midnightblue" d="M1040.72,-302.898C1123.89,-283.7 1261.18,-250.791 1378,-217 1396.62,-211.615 1416.96,-205.032 1434.41,-199.166"/>
<polygon fill="midnightblue" stroke="midnightblue" points="1039.81,-299.516 1030.85,-305.171 1041.38,-306.337 1039.81,-299.516"/>
</g>
<!-- Node6 -->
<g id="node6" class="node"><title>Node6</title>
<g id="a_node6"><a xlink:href="classx265_1_1Analysis.html#a29a58dad4cc1c07d2f5e5717c6be7c25" target="_top" xlink:title="x265::Analysis::findJob">
<polygon fill="white" stroke="black" points="1249.5,-324.5 1249.5,-343.5 1368.5,-343.5 1368.5,-324.5 1249.5,-324.5"/>
<text text-anchor="middle" x="1309" y="-331.5" font-family="Helvetica,sans-Serif" font-size="10.00">x265::Analysis::findJob</text>
</a>
</g>
</g>
<!-- Node5&#45;&gt;Node6 -->
<g id="edge5" class="edge"><title>Node5&#45;&gt;Node6</title>
<path fill="none" stroke="midnightblue" d="M1210.33,-335.765C1223.31,-335.531 1236.77,-335.287 1249.41,-335.059"/>
<polygon fill="midnightblue" stroke="midnightblue" points="1209.99,-332.271 1200.06,-335.951 1210.12,-339.269 1209.99,-332.271"/>
</g>
<!-- Node6&#45;&gt;Node7 -->
<g id="edge6" class="edge"><title>Node6&#45;&gt;Node7</title>
<path fill="none" stroke="midnightblue" d="M1358.9,-322.066C1376.81,-317.694 1397.32,-312.689 1416.22,-308.078"/>
<polygon fill="midnightblue" stroke="midnightblue" points="1357.85,-318.72 1348.96,-324.491 1359.51,-325.52 1357.85,-318.72"/>
</g>
<!-- Node8 -->
<g id="node8" class="node"><title>Node8</title>
<g id="a_node8"><a xlink:href="classx265_1_1Analysis.html#aaebc9de2ff98834c650244f3b58942c2" target="_top" xlink:title="x265::Analysis::compressCTU">
<polygon fill="white" stroke="black" points="1580.5,-125.5 1580.5,-144.5 1731.5,-144.5 1731.5,-125.5 1580.5,-125.5"/>
<text text-anchor="middle" x="1656" y="-132.5" font-family="Helvetica,sans-Serif" font-size="10.00">x265::Analysis::compressCTU</text>
</a>
</g>
</g>
<!-- Node7&#45;&gt;Node8 -->
<g id="edge7" class="edge"><title>Node7&#45;&gt;Node8</title>
<path fill="none" stroke="midnightblue" d="M1504.46,-270.919C1543.05,-236.071 1616.54,-169.724 1644.15,-144.794"/>
<polygon fill="midnightblue" stroke="midnightblue" points="1501.86,-268.551 1496.78,-277.85 1506.55,-273.747 1501.86,-268.551"/>
</g>
<!-- Node9 -->
<g id="node9" class="node"><title>Node9</title>
<g id="a_node9"><a xlink:href="classx265_1_1FrameEncoder.html#a0ae85001572afd28238476542523ac5f" target="_top" xlink:title="x265::FrameEncoder\l::processRowEncoder">
<polygon fill="white" stroke="black" points="1768.5,-120 1768.5,-150 1881.5,-150 1881.5,-120 1768.5,-120"/>
<text text-anchor="start" x="1776.5" y="-138" font-family="Helvetica,sans-Serif" font-size="10.00">x265::FrameEncoder</text>
<text text-anchor="middle" x="1825" y="-127" font-family="Helvetica,sans-Serif" font-size="10.00">::processRowEncoder</text>
</a>
</g>
</g>
<!-- Node8&#45;&gt;Node9 -->
<g id="edge8" class="edge"><title>Node8&#45;&gt;Node9</title>
<path fill="none" stroke="midnightblue" d="M1741.86,-135C1750.86,-135 1759.85,-135 1768.39,-135"/>
<polygon fill="midnightblue" stroke="midnightblue" points="1741.71,-131.5 1731.71,-135 1741.71,-138.5 1741.71,-131.5"/>
</g>
<!-- Node10 -->
<g id="node10" class="node"><title>Node10</title>
<g id="a_node10"><a xlink:href="classx265_1_1FrameEncoder.html#acad645a8ece97d884895f8f7366b7d70" target="_top" xlink:title="x265::FrameEncoder\l::processRow">
<polygon fill="white" stroke="black" points="1918.5,-120 1918.5,-150 2025.5,-150 2025.5,-120 1918.5,-120"/>
<text text-anchor="start" x="1926.5" y="-138" font-family="Helvetica,sans-Serif" font-size="10.00">x265::FrameEncoder</text>
<text text-anchor="middle" x="1972" y="-127" font-family="Helvetica,sans-Serif" font-size="10.00">::processRow</text>
</a>
</g>
</g>
<!-- Node9&#45;&gt;Node10 -->
<g id="edge9" class="edge"><title>Node9&#45;&gt;Node10</title>
<path fill="none" stroke="midnightblue" d="M1891.88,-135C1900.67,-135 1909.59,-135 1918.13,-135"/>
<polygon fill="midnightblue" stroke="midnightblue" points="1891.65,-131.5 1881.65,-135 1891.65,-138.5 1891.65,-131.5"/>
</g>
<!-- Node11 -->
<g id="node11" class="node"><title>Node11</title>
<g id="a_node11"><a xlink:href="classx265_1_1FrameEncoder.html#ac4e9ce2e876c0cdb25c992c872fe4302" target="_top" xlink:title="x265::FrameEncoder\l::compressCTURows">
<polygon fill="white" stroke="red" points="2062,-120 2062,-150 2174,-150 2174,-120 2062,-120"/>
<text text-anchor="start" x="2070" y="-138" font-family="Helvetica,sans-Serif" font-size="10.00">x265::FrameEncoder</text>
<text text-anchor="middle" x="2118" y="-127" font-family="Helvetica,sans-Serif" font-size="10.00">::compressCTURows</text>
</a>
</g>
</g>
<!-- Node10&#45;&gt;Node11 -->
<g id="edge10" class="edge"><title>Node10&#45;&gt;Node11</title>
<path fill="none" stroke="midnightblue" d="M2035.83,-135C2044.48,-135 2053.3,-135 2061.79,-135"/>
<polygon fill="midnightblue" stroke="midnightblue" points="2035.8,-131.5 2025.8,-135 2035.8,-138.5 2035.8,-131.5"/>
</g>
<!-- Node12&#45;&gt;Node8 -->
<g id="edge13" class="edge"><title>Node12&#45;&gt;Node8</title>
<path fill="none" stroke="midnightblue" d="M1543.79,-166.14C1569.94,-158.818 1599.15,-150.639 1621.06,-144.502"/>
<polygon fill="midnightblue" stroke="midnightblue" points="1542.62,-162.832 1533.93,-168.899 1544.51,-169.573 1542.62,-162.832"/>
</g>
<!-- Node14 -->
<g id="node14" class="node"><title>Node14</title>
<g id="a_node14"><a xlink:href="classx265_1_1Analysis.html#ae4d61bcf4d2c22a054d68d6d77136428" target="_top" xlink:title="x265::Analysis::encodeIntra\lInInter">
<polygon fill="white" stroke="black" points="895,-224 895,-254 1033,-254 1033,-224 895,-224"/>
<text text-anchor="start" x="903" y="-242" font-family="Helvetica,sans-Serif" font-size="10.00">x265::Analysis::encodeIntra</text>
<text text-anchor="middle" x="964" y="-231" font-family="Helvetica,sans-Serif" font-size="10.00">InInter</text>
</a>
</g>
</g>
<!-- Node13&#45;&gt;Node14 -->
<g id="edge15" class="edge"><title>Node13&#45;&gt;Node14</title>
<path fill="none" stroke="midnightblue" d="M823.28,-206.813C846.129,-212.077 873.313,-218.339 897.603,-223.935"/>
<polygon fill="midnightblue" stroke="midnightblue" points="823.975,-203.382 813.444,-204.547 822.403,-210.203 823.975,-203.382"/>
</g>
<!-- Node13&#45;&gt;Node15 -->
<g id="edge19" class="edge"><title>Node13&#45;&gt;Node15</title>
<path fill="none" stroke="midnightblue" d="M830.353,-183.39C857.518,-177.986 889.432,-171.636 915.149,-166.52"/>
<polygon fill="midnightblue" stroke="midnightblue" points="829.322,-180.027 820.197,-185.411 830.688,-186.892 829.322,-180.027"/>
</g>
<!-- Node14&#45;&gt;Node5 -->
<g id="edge16" class="edge"><title>Node14&#45;&gt;Node5</title>
<path fill="none" stroke="midnightblue" d="M997.616,-259.706C1019.94,-273.612 1050.39,-292.054 1078,-307 1087.46,-312.124 1097.94,-317.352 1107.54,-321.979"/>
<polygon fill="midnightblue" stroke="midnightblue" points="999.212,-256.576 988.878,-254.238 995.498,-262.51 999.212,-256.576"/>
</g>
<!-- Node14&#45;&gt;Node7 -->
<g id="edge17" class="edge"><title>Node14&#45;&gt;Node7</title>
<path fill="none" stroke="midnightblue" d="M1043.3,-247.243C1144.71,-257.917 1319.57,-276.323 1413.64,-286.226"/>
<polygon fill="midnightblue" stroke="midnightblue" points="1043.43,-243.737 1033.12,-246.171 1042.7,-250.698 1043.43,-243.737"/>
</g>
<!-- Node14&#45;&gt;Node12 -->
<g id="edge18" class="edge"><title>Node14&#45;&gt;Node12</title>
<path fill="none" stroke="midnightblue" d="M1043.3,-230.605C1144.71,-219.733 1319.57,-200.986 1413.64,-190.9"/>
<polygon fill="midnightblue" stroke="midnightblue" points="1042.69,-227.15 1033.12,-231.696 1043.44,-234.11 1042.69,-227.15"/>
</g>
<!-- Node16 -->
<g id="node16" class="node"><title>Node16</title>
<g id="a_node16"><a xlink:href="classx265_1_1Search.html#ab02df91827cf67796d1605bde60c6aed" target="_top" xlink:title="x265::Search::checkIntra">
<polygon fill="white" stroke="black" points="1078,-131.5 1078,-150.5 1204,-150.5 1204,-131.5 1078,-131.5"/>
<text text-anchor="middle" x="1141" y="-138.5" font-family="Helvetica,sans-Serif" font-size="10.00">x265::Search::checkIntra</text>
</a>
</g>
</g>
<!-- Node15&#45;&gt;Node16 -->
<g id="edge20" class="edge"><title>Node15&#45;&gt;Node16</title>
<path fill="none" stroke="midnightblue" d="M1047.77,-149.433C1057.88,-148.508 1068.09,-147.575 1077.83,-146.684"/>
<polygon fill="midnightblue" stroke="midnightblue" points="1047.34,-145.958 1037.7,-150.354 1047.97,-152.928 1047.34,-145.958"/>
</g>
<!-- Node17 -->
<g id="node17" class="node"><title>Node17</title>
<g id="a_node17"><a xlink:href="classx265_1_1Analysis.html#a10f0a8d9d143faf8dc671c6f0982693d" target="_top" xlink:title="x265::Analysis::tryLossless">
<polygon fill="white" stroke="black" points="1240.5,-131.5 1240.5,-150.5 1377.5,-150.5 1377.5,-131.5 1240.5,-131.5"/>
<text text-anchor="middle" x="1309" y="-138.5" font-family="Helvetica,sans-Serif" font-size="10.00">x265::Analysis::tryLossless</text>
</a>
</g>
</g>
<!-- Node16&#45;&gt;Node17 -->
<g id="edge21" class="edge"><title>Node16&#45;&gt;Node17</title>
<path fill="none" stroke="midnightblue" d="M1214.34,-141C1222.98,-141 1231.79,-141 1240.36,-141"/>
<polygon fill="midnightblue" stroke="midnightblue" points="1214.28,-137.5 1204.28,-141 1214.28,-144.5 1214.28,-137.5"/>
</g>
<!-- Node18 -->
<g id="node18" class="node"><title>Node18</title>
<g id="a_node18"><a xlink:href="classx265_1_1Analysis.html#aae2a6a2252270782b591d2bed7e99dae" target="_top" xlink:title="x265::Analysis::compress\lIntraCU">
<polygon fill="white" stroke="black" points="1414,-71 1414,-101 1544,-101 1544,-71 1414,-71"/>
<text text-anchor="start" x="1422" y="-89" font-family="Helvetica,sans-Serif" font-size="10.00">x265::Analysis::compress</text>
<text text-anchor="middle" x="1479" y="-78" font-family="Helvetica,sans-Serif" font-size="10.00">IntraCU</text>
</a>
</g>
</g>
<!-- Node16&#45;&gt;Node18 -->
<g id="edge28" class="edge"><title>Node16&#45;&gt;Node18</title>
<path fill="none" stroke="midnightblue" d="M1183.35,-128.673C1200.72,-123.85 1221.22,-118.618 1240,-115 1298.45,-103.741 1365.86,-96.012 1413.99,-91.382"/>
<polygon fill="midnightblue" stroke="midnightblue" points="1182.19,-125.363 1173.52,-131.45 1184.1,-132.099 1182.19,-125.363"/>
</g>
<!-- Node19 -->
<g id="node19" class="node"><title>Node19</title>
<g id="a_node19"><a xlink:href="classx265_1_1Analysis.html#a0b22b7765aa4a36b1ba6d07ba26901e6" target="_top" xlink:title="x265::Analysis::compress\lInterCU_rd5_6">
<polygon fill="white" stroke="black" points="1414,-120 1414,-150 1544,-150 1544,-120 1414,-120"/>
<text text-anchor="start" x="1422" y="-138" font-family="Helvetica,sans-Serif" font-size="10.00">x265::Analysis::compress</text>
<text text-anchor="middle" x="1479" y="-127" font-family="Helvetica,sans-Serif" font-size="10.00">InterCU_rd5_6</text>
</a>
</g>
</g>
<!-- Node16&#45;&gt;Node19 -->
<g id="edge29" class="edge"><title>Node16&#45;&gt;Node19</title>
<path fill="none" stroke="midnightblue" d="M1191.65,-129.462C1207.05,-126.399 1224.15,-123.522 1240,-122 1301.05,-116.136 1316.79,-118.038 1378,-122 1389.62,-122.752 1401.95,-123.991 1413.84,-125.412"/>
<polygon fill="midnightblue" stroke="midnightblue" points="1190.89,-126.045 1181.8,-131.49 1192.3,-132.902 1190.89,-126.045"/>
</g>
<!-- Node17&#45;&gt;Node7 -->
<g id="edge24" class="edge"><title>Node17&#45;&gt;Node7</title>
<path fill="none" stroke="midnightblue" d="M1328.01,-157.293C1360.73,-186.903 1429.51,-249.127 1461.27,-277.863"/>
<polygon fill="midnightblue" stroke="midnightblue" points="1330.27,-154.622 1320.51,-150.508 1325.58,-159.813 1330.27,-154.622"/>
</g>
<!-- Node17&#45;&gt;Node12 -->
<g id="edge25" class="edge"><title>Node17&#45;&gt;Node12</title>
<path fill="none" stroke="midnightblue" d="M1357.07,-153.047C1376.4,-157.994 1398.98,-163.776 1419.37,-168.994"/>
<polygon fill="midnightblue" stroke="midnightblue" points="1357.84,-149.632 1347.28,-150.543 1356.1,-156.413 1357.84,-149.632"/>
</g>
<!-- Node17&#45;&gt;Node18 -->
<g id="edge22" class="edge"><title>Node17&#45;&gt;Node18</title>
<path fill="none" stroke="midnightblue" d="M1349.04,-128.218C1373.81,-120.109 1405.97,-109.58 1431.98,-101.065"/>
<polygon fill="midnightblue" stroke="midnightblue" points="1347.68,-124.982 1339.26,-131.42 1349.86,-131.635 1347.68,-124.982"/>
</g>
<!-- Node17&#45;&gt;Node19 -->
<g id="edge26" class="edge"><title>Node17&#45;&gt;Node19</title>
<path fill="none" stroke="midnightblue" d="M1388,-138.214C1396.7,-137.904 1405.48,-137.59 1413.98,-137.286"/>
<polygon fill="midnightblue" stroke="midnightblue" points="1387.72,-134.722 1377.85,-138.577 1387.97,-141.718 1387.72,-134.722"/>
</g>
<!-- Node18&#45;&gt;Node8 -->
<g id="edge23" class="edge"><title>Node18&#45;&gt;Node8</title>
<path fill="none" stroke="midnightblue" d="M1543.79,-103.86C1569.94,-111.182 1599.15,-119.361 1621.06,-125.498"/>
<polygon fill="midnightblue" stroke="midnightblue" points="1544.51,-100.427 1533.93,-101.101 1542.62,-107.168 1544.51,-100.427"/>
</g>
<!-- Node19&#45;&gt;Node8 -->
<g id="edge27" class="edge"><title>Node19&#45;&gt;Node8</title>
<path fill="none" stroke="midnightblue" d="M1554.25,-135C1562.93,-135 1571.78,-135 1580.47,-135"/>
<polygon fill="midnightblue" stroke="midnightblue" points="1554.17,-131.5 1544.17,-135 1554.17,-138.5 1554.17,-131.5"/>
</g>
<!-- Node21 -->
<g id="node21" class="node"><title>Node21</title>
<g id="a_node21"><a xlink:href="classx265_1_1Analysis.html#a88ad2880a5a8bcad5cfd5d6ea630b265" target="_top" xlink:title="x265::Analysis::encodeResidue">
<polygon fill="white" stroke="black" points="886.5,-27.5 886.5,-46.5 1041.5,-46.5 1041.5,-27.5 886.5,-27.5"/>
<text text-anchor="middle" x="964" y="-34.5" font-family="Helvetica,sans-Serif" font-size="10.00">x265::Analysis::encodeResidue</text>
</a>
</g>
</g>
<!-- Node20&#45;&gt;Node21 -->
<g id="edge31" class="edge"><title>Node20&#45;&gt;Node21</title>
<path fill="none" stroke="midnightblue" d="M835.357,-94.3597C840.379,-92.3796 845.316,-90.2572 850,-88 867.323,-79.6516 868.792,-72.5822 886,-64 899.945,-57.0454 916.122,-51.0824 930.039,-46.5428"/>
<polygon fill="midnightblue" stroke="midnightblue" points="833.781,-91.2121 825.638,-97.9901 836.231,-97.7696 833.781,-91.2121"/>
</g>
<!-- Node22 -->
<g id="node22" class="node"><title>Node22</title>
<g id="a_node22"><a xlink:href="classx265_1_1Search.html#a5284cffef18fe6884b268ea28f21f22f" target="_top" xlink:title="x265::Search::generateCoeff\lRecon">
<polygon fill="white" stroke="black" points="893,-74 893,-104 1035,-104 1035,-74 893,-74"/>
<text text-anchor="start" x="901" y="-92" font-family="Helvetica,sans-Serif" font-size="10.00">x265::Search::generateCoeff</text>
<text text-anchor="middle" x="964" y="-81" font-family="Helvetica,sans-Serif" font-size="10.00">Recon</text>
</a>
</g>
</g>
<!-- Node20&#45;&gt;Node22 -->
<g id="edge33" class="edge"><title>Node20&#45;&gt;Node22</title>
<path fill="none" stroke="midnightblue" d="M860.231,-101.913C871.17,-100.539 882.236,-99.1483 892.852,-97.8144"/>
<polygon fill="midnightblue" stroke="midnightblue" points="859.724,-98.4495 850.238,-103.169 860.596,-105.395 859.724,-98.4495"/>
</g>
<!-- Node21&#45;&gt;Node8 -->
<g id="edge32" class="edge"><title>Node21&#45;&gt;Node8</title>
<path fill="none" stroke="midnightblue" d="M1050.56,-26.4513C1165.82,-15.368 1375.92,-6.28353 1544,-61 1585.84,-74.6216 1626.72,-108.786 1645.01,-125.497"/>
<polygon fill="midnightblue" stroke="midnightblue" points="1049.99,-22.9902 1040.38,-27.4585 1050.68,-29.9562 1049.99,-22.9902"/>
</g>
<!-- Node22&#45;&gt;Node12 -->
<g id="edge34" class="edge"><title>Node22&#45;&gt;Node12</title>
<path fill="none" stroke="midnightblue" d="M997.372,-109.609C1029.96,-130.314 1075.74,-159.274 1078,-160 1191.94,-196.555 1333.34,-194.823 1413.87,-189.751"/>
<polygon fill="midnightblue" stroke="midnightblue" points="998.895,-106.43 988.578,-104.019 995.14,-112.337 998.895,-106.43"/>
</g>
<!-- Node24 -->
<g id="node24" class="node"><title>Node24</title>
<g id="a_node24"><a xlink:href="classx265_1_1Search.html#a0ec5d297bb4eba4e9445ff67b35b95fa" target="_top" xlink:title="x265::Search::codeIntraChromaQt">
<polygon fill="white" stroke="black" points="490,-207.5 490,-226.5 656,-226.5 656,-207.5 490,-207.5"/>
<text text-anchor="middle" x="573" y="-214.5" font-family="Helvetica,sans-Serif" font-size="10.00">x265::Search::codeIntraChromaQt</text>
</a>
</g>
</g>
<!-- Node23&#45;&gt;Node24 -->
<g id="edge37" class="edge"><title>Node23&#45;&gt;Node24</title>
<path fill="none" stroke="midnightblue" d="M409.712,-115.598C430.357,-133.066 460.997,-157.682 490,-176 509.378,-188.239 532.901,-199.682 549.775,-207.352"/>
<polygon fill="midnightblue" stroke="midnightblue" points="411.923,-112.884 402.046,-109.051 407.377,-118.207 411.923,-112.884"/>
</g>
<!-- Node26 -->
<g id="node26" class="node"><title>Node26</title>
<g id="a_node26"><a xlink:href="classx265_1_1Search.html#a42170100e328cf2504b615ecb2579094" target="_top" xlink:title="x265::Search::residualQTIntra\lChroma">
<polygon fill="white" stroke="black" points="697.5,-49 697.5,-79 844.5,-79 844.5,-49 697.5,-49"/>
<text text-anchor="start" x="705.5" y="-67" font-family="Helvetica,sans-Serif" font-size="10.00">x265::Search::residualQTIntra</text>
<text text-anchor="middle" x="771" y="-56" font-family="Helvetica,sans-Serif" font-size="10.00">Chroma</text>
</a>
</g>
</g>
<!-- Node23&#45;&gt;Node26 -->
<g id="edge41" class="edge"><title>Node23&#45;&gt;Node26</title>
<path fill="none" stroke="midnightblue" d="M464.125,-87.8344C532.551,-82.5025 630.67,-74.8569 697.185,-69.6739"/>
<polygon fill="midnightblue" stroke="midnightblue" points="463.528,-84.3702 453.83,-88.6366 464.072,-91.3491 463.528,-84.3702"/>
</g>
<!-- Node27 -->
<g id="node27" class="node"><title>Node27</title>
<g id="a_node27"><a xlink:href="classx265_1_1Search.html#ad676dc0bcf94eea19260363b3b029755" target="_top" xlink:title="x265::Search::getBestIntra\lModeChroma">
<polygon fill="white" stroke="black" points="704,-0 704,-30 838,-30 838,-0 704,-0"/>
<text text-anchor="start" x="712" y="-18" font-family="Helvetica,sans-Serif" font-size="10.00">x265::Search::getBestIntra</text>
<text text-anchor="middle" x="771" y="-7" font-family="Helvetica,sans-Serif" font-size="10.00">ModeChroma</text>
</a>
</g>
</g>
<!-- Node23&#45;&gt;Node27 -->
<g id="edge44" class="edge"><title>Node23&#45;&gt;Node27</title>
<path fill="none" stroke="midnightblue" d="M459.186,-76.7443C469.524,-74.4269 480.02,-72.1202 490,-70 563.051,-54.4804 647.162,-38.1667 703.975,-27.3758"/>
<polygon fill="midnightblue" stroke="midnightblue" points="458.33,-73.3494 449.345,-78.9636 459.87,-80.1779 458.33,-73.3494"/>
</g>
<!-- Node25 -->
<g id="node25" class="node"><title>Node25</title>
<g id="a_node25"><a xlink:href="classx265_1_1Search.html#a70d466b561a7463b8ec5a213384ae667" target="_top" xlink:title="x265::Search::estIntraPred\lChromaQT">
<polygon fill="white" stroke="black" points="704,-224 704,-254 838,-254 838,-224 704,-224"/>
<text text-anchor="start" x="712" y="-242" font-family="Helvetica,sans-Serif" font-size="10.00">x265::Search::estIntraPred</text>
<text text-anchor="middle" x="771" y="-231" font-family="Helvetica,sans-Serif" font-size="10.00">ChromaQT</text>
</a>
</g>
</g>
<!-- Node24&#45;&gt;Node25 -->
<g id="edge38" class="edge"><title>Node24&#45;&gt;Node25</title>
<path fill="none" stroke="midnightblue" d="M666.339,-227.365C678.948,-228.78 691.683,-230.209 703.704,-231.559"/>
<polygon fill="midnightblue" stroke="midnightblue" points="666.598,-223.872 656.27,-226.234 665.817,-230.828 666.598,-223.872"/>
</g>
<!-- Node25&#45;&gt;Node14 -->
<g id="edge39" class="edge"><title>Node25&#45;&gt;Node14</title>
<path fill="none" stroke="midnightblue" d="M848.276,-239C863.688,-239 879.797,-239 894.906,-239"/>
<polygon fill="midnightblue" stroke="midnightblue" points="848.267,-235.5 838.266,-239 848.266,-242.5 848.267,-235.5"/>
</g>
<!-- Node25&#45;&gt;Node16 -->
<g id="edge40" class="edge"><title>Node25&#45;&gt;Node16</title>
<path fill="none" stroke="midnightblue" d="M848.154,-222.247C914.733,-207.414 1006.2,-186.531 1042,-176 1067.48,-168.504 1096.01,-158.077 1115.69,-150.556"/>
<polygon fill="midnightblue" stroke="midnightblue" points="847.11,-218.894 838.109,-224.482 848.63,-225.727 847.11,-218.894"/>
</g>
<!-- Node26&#45;&gt;Node21 -->
<g id="edge42" class="edge"><title>Node26&#45;&gt;Node21</title>
<path fill="none" stroke="midnightblue" d="M854.672,-52.3133C868.404,-50.3722 882.496,-48.3801 895.785,-46.5015"/>
<polygon fill="midnightblue" stroke="midnightblue" points="854.165,-48.8501 844.754,-53.7154 855.145,-55.7812 854.165,-48.8501"/>
</g>
<!-- Node26&#45;&gt;Node22 -->
<g id="edge43" class="edge"><title>Node26&#45;&gt;Node22</title>
<path fill="none" stroke="midnightblue" d="M854.861,-74.8457C867.567,-76.5088 880.577,-78.2116 892.97,-79.8337"/>
<polygon fill="midnightblue" stroke="midnightblue" points="855.123,-71.3503 844.754,-73.5227 854.215,-78.2911 855.123,-71.3503"/>
</g>
<!-- Node27&#45;&gt;Node21 -->
<g id="edge45" class="edge"><title>Node27&#45;&gt;Node21</title>
<path fill="none" stroke="midnightblue" d="M848.219,-23.7792C860.775,-25.2254 873.796,-26.7252 886.362,-28.1726"/>
<polygon fill="midnightblue" stroke="midnightblue" points="848.601,-20.3001 838.266,-22.6328 847.8,-27.2542 848.601,-20.3001"/>
</g>
<!-- Node27&#45;&gt;Node22 -->
<g id="edge46" class="edge"><title>Node27&#45;&gt;Node22</title>
<path fill="none" stroke="midnightblue" d="M834.381,-33.3189C839.697,-35.1443 844.964,-37.0475 850,-39 866.498,-45.3959 869.866,-48.736 886,-56 899.395,-62.0305 914.205,-68.4391 927.23,-73.9889"/>
<polygon fill="midnightblue" stroke="midnightblue" points="835.392,-29.9664 824.798,-30.1236 833.177,-36.607 835.392,-29.9664"/>
</g>
</g>
</svg>
