<?xml version="1.0" encoding="UTF-8" standalone="no"?>
<!DOCTYPE svg PUBLIC "-//W3C//DTD SVG 1.1//EN"
 "http://www.w3.org/Graphics/SVG/1.1/DTD/svg11.dtd">
<!-- Generated by graphviz version 2.36.0 (20140111.2315)
 -->
<!-- Title: x265::JobProvider::flush Pages: 1 -->
<svg width="420pt" height="87pt"
 viewBox="0.00 0.00 420.00 87.00" xmlns="http://www.w3.org/2000/svg" xmlns:xlink="http://www.w3.org/1999/xlink">
<g id="graph0" class="graph" transform="scale(1 1) rotate(0) translate(4 83)">
<title>x265::JobProvider::flush</title>
<polygon fill="white" stroke="none" points="-4,4 -4,-83 416,-83 416,4 -4,4"/>
<!-- Node1 -->
<g id="node1" class="node"><title>Node1</title>
<polygon fill="#bfbfbf" stroke="black" points="0.5,-24 0.5,-54 101.5,-54 101.5,-24 0.5,-24"/>
<text text-anchor="start" x="8.5" y="-42" font-family="Helvetica,sans-Serif" font-size="10.00">x265::JobProvider::</text>
<text text-anchor="middle" x="51" y="-31" font-family="Helvetica,sans-Serif" font-size="10.00">flush</text>
</g>
<!-- Node2 -->
<g id="node2" class="node"><title>Node2</title>
<g id="a_node2"><a xlink:href="classx265_1_1JobProvider.html#aad43fe7bf62d5d3656046fcf0888e7b8" target="_top" xlink:title="x265::JobProvider::\ldequeue">
<polygon fill="white" stroke="black" points="138.5,-24 138.5,-54 239.5,-54 239.5,-24 138.5,-24"/>
<text text-anchor="start" x="146.5" y="-42" font-family="Helvetica,sans-Serif" font-size="10.00">x265::JobProvider::</text>
<text text-anchor="middle" x="189" y="-31" font-family="Helvetica,sans-Serif" font-size="10.00">dequeue</text>
</a>
</g>
</g>
<!-- Node1&#45;&gt;Node2 -->
<g id="edge1" class="edge"><title>Node1&#45;&gt;Node2</title>
<path fill="none" stroke="midnightblue" d="M101.869,-39C110.369,-39 119.277,-39 128.006,-39"/>
<polygon fill="midnightblue" stroke="midnightblue" points="128.137,-42.5001 138.137,-39 128.137,-35.5001 128.137,-42.5001"/>
</g>
<!-- Node3 -->
<g id="node3" class="node"><title>Node3</title>
<g id="a_node3"><a xlink:href="classx265_1_1ThreadPool.html#a360b412a2c2a49143e4611ff790d9462" target="_top" xlink:title="x265::ThreadPool::dequeue\lJobProvider">
<polygon fill="white" stroke="black" points="276,-49 276,-79 412,-79 412,-49 276,-49"/>
<text text-anchor="start" x="284" y="-67" font-family="Helvetica,sans-Serif" font-size="10.00">x265::ThreadPool::dequeue</text>
<text text-anchor="middle" x="344" y="-56" font-family="Helvetica,sans-Serif" font-size="10.00">JobProvider</text>
</a>
</g>
</g>
<!-- Node2&#45;&gt;Node3 -->
<g id="edge2" class="edge"><title>Node2&#45;&gt;Node3</title>
<path fill="none" stroke="midnightblue" d="M239.675,-47.1168C248.043,-48.4842 256.902,-49.9317 265.774,-51.3813"/>
<polygon fill="midnightblue" stroke="midnightblue" points="265.337,-54.8563 275.77,-53.0147 266.466,-47.9479 265.337,-54.8563"/>
</g>
<!-- Node4 -->
<g id="node4" class="node"><title>Node4</title>
<g id="a_node4"><a xlink:href="classx265_1_1ThreadPool.html#a47277b980acec1c3114d1374ba304b85" target="_top" xlink:title="x265::ThreadPool::pokeIdle\lThread">
<polygon fill="white" stroke="black" points="276,-0 276,-30 412,-30 412,-0 276,-0"/>
<text text-anchor="start" x="284" y="-18" font-family="Helvetica,sans-Serif" font-size="10.00">x265::ThreadPool::pokeIdle</text>
<text text-anchor="middle" x="344" y="-7" font-family="Helvetica,sans-Serif" font-size="10.00">Thread</text>
</a>
</g>
</g>
<!-- Node2&#45;&gt;Node4 -->
<g id="edge3" class="edge"><title>Node2&#45;&gt;Node4</title>
<path fill="none" stroke="midnightblue" d="M239.675,-31.2079C248.043,-29.8952 256.902,-28.5056 265.774,-27.1139"/>
<polygon fill="midnightblue" stroke="midnightblue" points="266.433,-30.5533 275.77,-25.5458 265.349,-23.6379 266.433,-30.5533"/>
</g>
</g>
</svg>
