<?xml version="1.0" encoding="UTF-8" standalone="no"?>
<!DOCTYPE svg PUBLIC "-//W3C//DTD SVG 1.1//EN"
 "http://www.w3.org/Graphics/SVG/1.1/DTD/svg11.dtd">
<!-- Generated by graphviz version 2.36.0 (20140111.2315)
 -->
<!-- Title: x265::ScalingList::setDefaultScalingList Pages: 1 -->
<svg width="444pt" height="38pt"
 viewBox="0.00 0.00 444.00 38.00" xmlns="http://www.w3.org/2000/svg" xmlns:xlink="http://www.w3.org/1999/xlink">
<g id="graph0" class="graph" transform="scale(1 1) rotate(0) translate(4 34)">
<title>x265::ScalingList::setDefaultScalingList</title>
<polygon fill="white" stroke="none" points="-4,4 -4,-34 440,-34 440,4 -4,4"/>
<!-- Node1 -->
<g id="node1" class="node"><title>Node1</title>
<polygon fill="#bfbfbf" stroke="black" points="0,-0 0,-30 110,-30 110,-0 0,-0"/>
<text text-anchor="start" x="8" y="-18" font-family="Helvetica,sans-Serif" font-size="10.00">x265::ScalingList::</text>
<text text-anchor="middle" x="55" y="-7" font-family="Helvetica,sans-Serif" font-size="10.00">setDefaultScalingList</text>
</g>
<!-- Node2 -->
<g id="node2" class="node"><title>Node2</title>
<g id="a_node2"><a xlink:href="classx265_1_1ScalingList.html#adee7b88855e273c4fbc3563804a64944" target="_top" xlink:title="x265::ScalingList::\lprocessDefaultMarix">
<polygon fill="white" stroke="black" points="146.5,-0 146.5,-30 253.5,-30 253.5,-0 146.5,-0"/>
<text text-anchor="start" x="154.5" y="-18" font-family="Helvetica,sans-Serif" font-size="10.00">x265::ScalingList::</text>
<text text-anchor="middle" x="200" y="-7" font-family="Helvetica,sans-Serif" font-size="10.00">processDefaultMarix</text>
</a>
</g>
</g>
<!-- Node1&#45;&gt;Node2 -->
<g id="edge1" class="edge"><title>Node1&#45;&gt;Node2</title>
<path fill="none" stroke="midnightblue" d="M110.062,-15C118.589,-15 127.469,-15 136.174,-15"/>
<polygon fill="midnightblue" stroke="midnightblue" points="136.282,-18.5001 146.282,-15 136.282,-11.5001 136.282,-18.5001"/>
</g>
<!-- Node3 -->
<g id="node3" class="node"><title>Node3</title>
<g id="a_node3"><a xlink:href="classx265_1_1ScalingList.html#adc51f78336caaee1c0905a564c9d4f89" target="_top" xlink:title="x265::ScalingList::\lgetScalingListDefaultAddress">
<polygon fill="white" stroke="black" points="290,-0 290,-30 436,-30 436,-0 290,-0"/>
<text text-anchor="start" x="298" y="-18" font-family="Helvetica,sans-Serif" font-size="10.00">x265::ScalingList::</text>
<text text-anchor="middle" x="363" y="-7" font-family="Helvetica,sans-Serif" font-size="10.00">getScalingListDefaultAddress</text>
</a>
</g>
</g>
<!-- Node2&#45;&gt;Node3 -->
<g id="edge2" class="edge"><title>Node2&#45;&gt;Node3</title>
<path fill="none" stroke="midnightblue" d="M253.717,-15C262.113,-15 270.968,-15 279.85,-15"/>
<polygon fill="midnightblue" stroke="midnightblue" points="279.866,-18.5001 289.866,-15 279.866,-11.5001 279.866,-18.5001"/>
</g>
</g>
</svg>
