<?xml version="1.0" encoding="UTF-8" standalone="no"?>
<!DOCTYPE svg PUBLIC "-//W3C//DTD SVG 1.1//EN"
 "http://www.w3.org/Graphics/SVG/1.1/DTD/svg11.dtd">
<!-- Generated by graphviz version 2.36.0 (20140111.2315)
 -->
<!-- Title: x265::CUData::fillMvpCand Pages: 1 -->
<svg width="2078pt" height="154pt"
 viewBox="0.00 0.00 2078.00 154.00" xmlns="http://www.w3.org/2000/svg" xmlns:xlink="http://www.w3.org/1999/xlink">
<g id="graph0" class="graph" transform="scale(1 1) rotate(0) translate(4 150)">
<title>x265::CUData::fillMvpCand</title>
<polygon fill="white" stroke="none" points="-4,4 -4,-150 2074,-150 2074,4 -4,4"/>
<!-- Node1 -->
<g id="node1" class="node"><title>Node1</title>
<polygon fill="#bfbfbf" stroke="black" points="0.5,-88.5 0.5,-107.5 137.5,-107.5 137.5,-88.5 0.5,-88.5"/>
<text text-anchor="middle" x="69" y="-95.5" font-family="Helvetica,sans-Serif" font-size="10.00">x265::CUData::fillMvpCand</text>
</g>
<!-- Node2 -->
<g id="node2" class="node"><title>Node2</title>
<g id="a_node2"><a xlink:href="classx265_1_1Search.html#a47294b1b3d67ab31cb6be412407982d5" target="_top" xlink:title="x265::Search::singleMotion\lEstimation">
<polygon fill="white" stroke="black" points="174.5,-105 174.5,-135 309.5,-135 309.5,-105 174.5,-105"/>
<text text-anchor="start" x="182.5" y="-123" font-family="Helvetica,sans-Serif" font-size="10.00">x265::Search::singleMotion</text>
<text text-anchor="middle" x="242" y="-112" font-family="Helvetica,sans-Serif" font-size="10.00">Estimation</text>
</a>
</g>
</g>
<!-- Node1&#45;&gt;Node2 -->
<g id="edge1" class="edge"><title>Node1&#45;&gt;Node2</title>
<path fill="none" stroke="midnightblue" d="M147.631,-107.988C156.593,-109.141 165.67,-110.308 174.466,-111.44"/>
<polygon fill="midnightblue" stroke="midnightblue" points="147.949,-104.5 137.584,-106.695 147.055,-111.442 147.949,-104.5"/>
</g>
<!-- Node12 -->
<g id="node12" class="node"><title>Node12</title>
<g id="a_node12"><a xlink:href="classx265_1_1Search.html#a48101e3d900e93b97a83f461be390bd1" target="_top" xlink:title="x265::Search::predInterSearch">
<polygon fill="white" stroke="black" points="346.5,-66.5 346.5,-85.5 495.5,-85.5 495.5,-66.5 346.5,-66.5"/>
<text text-anchor="middle" x="421" y="-73.5" font-family="Helvetica,sans-Serif" font-size="10.00">x265::Search::predInterSearch</text>
</a>
</g>
</g>
<!-- Node1&#45;&gt;Node12 -->
<g id="edge20" class="edge"><title>Node1&#45;&gt;Node12</title>
<path fill="none" stroke="midnightblue" d="M147.95,-93.1003C207.173,-89.3777 288.08,-84.2921 346.244,-80.6361"/>
<polygon fill="midnightblue" stroke="midnightblue" points="147.659,-89.6116 137.899,-93.7321 148.098,-96.5978 147.659,-89.6116"/>
</g>
<!-- Node3 -->
<g id="node3" class="node"><title>Node3</title>
<g id="a_node3"><a xlink:href="classx265_1_1Analysis.html#abd49473ae6e5e1f7e555b447b04398e6" target="_top" xlink:title="x265::Analysis::parallelME">
<polygon fill="white" stroke="black" points="354.5,-126.5 354.5,-145.5 487.5,-145.5 487.5,-126.5 354.5,-126.5"/>
<text text-anchor="middle" x="421" y="-133.5" font-family="Helvetica,sans-Serif" font-size="10.00">x265::Analysis::parallelME</text>
</a>
</g>
</g>
<!-- Node2&#45;&gt;Node3 -->
<g id="edge2" class="edge"><title>Node2&#45;&gt;Node3</title>
<path fill="none" stroke="midnightblue" d="M319.698,-126.933C331.22,-127.975 343.012,-129.041 354.277,-130.059"/>
<polygon fill="midnightblue" stroke="midnightblue" points="319.938,-123.441 309.664,-126.026 319.308,-130.412 319.938,-123.441"/>
</g>
<!-- Node2&#45;&gt;Node12 -->
<g id="edge11" class="edge"><title>Node2&#45;&gt;Node12</title>
<path fill="none" stroke="midnightblue" d="M313.293,-102.526C336.634,-96.7237 361.741,-90.4824 381.734,-85.5124"/>
<polygon fill="midnightblue" stroke="midnightblue" points="312.279,-99.1716 303.418,-104.981 313.967,-105.965 312.279,-99.1716"/>
</g>
<!-- Node4 -->
<g id="node4" class="node"><title>Node4</title>
<g id="a_node4"><a xlink:href="classx265_1_1Analysis.html#a29a58dad4cc1c07d2f5e5717c6be7c25" target="_top" xlink:title="x265::Analysis::findJob">
<polygon fill="white" stroke="black" points="861.5,-93.5 861.5,-112.5 980.5,-112.5 980.5,-93.5 861.5,-93.5"/>
<text text-anchor="middle" x="921" y="-100.5" font-family="Helvetica,sans-Serif" font-size="10.00">x265::Analysis::findJob</text>
</a>
</g>
</g>
<!-- Node3&#45;&gt;Node4 -->
<g id="edge3" class="edge"><title>Node3&#45;&gt;Node4</title>
<path fill="none" stroke="midnightblue" d="M497.783,-137.684C578.078,-138.542 708.422,-137.292 820,-124 840.786,-121.524 863.656,-116.869 882.273,-112.569"/>
<polygon fill="midnightblue" stroke="midnightblue" points="497.802,-134.184 487.761,-137.563 497.718,-141.184 497.802,-134.184"/>
</g>
<!-- Node5 -->
<g id="node5" class="node"><title>Node5</title>
<g id="a_node5"><a xlink:href="classx265_1_1Analysis.html#a87060ff27a37f56adc5f5b8a4c033ece" target="_top" xlink:title="x265::Analysis::compress\lInterCU_dist">
<polygon fill="white" stroke="black" points="1022,-88 1022,-118 1152,-118 1152,-88 1022,-88"/>
<text text-anchor="start" x="1030" y="-106" font-family="Helvetica,sans-Serif" font-size="10.00">x265::Analysis::compress</text>
<text text-anchor="middle" x="1087" y="-95" font-family="Helvetica,sans-Serif" font-size="10.00">InterCU_dist</text>
</a>
</g>
</g>
<!-- Node4&#45;&gt;Node5 -->
<g id="edge4" class="edge"><title>Node4&#45;&gt;Node5</title>
<path fill="none" stroke="midnightblue" d="M990.883,-103C1001.14,-103 1011.68,-103 1021.83,-103"/>
<polygon fill="midnightblue" stroke="midnightblue" points="990.745,-99.5001 980.745,-103 990.745,-106.5 990.745,-99.5001"/>
</g>
<!-- Node6 -->
<g id="node6" class="node"><title>Node6</title>
<g id="a_node6"><a xlink:href="classx265_1_1Analysis.html#aaebc9de2ff98834c650244f3b58942c2" target="_top" xlink:title="x265::Analysis::compressCTU">
<polygon fill="white" stroke="black" points="1188.5,-49.5 1188.5,-68.5 1339.5,-68.5 1339.5,-49.5 1188.5,-49.5"/>
<text text-anchor="middle" x="1264" y="-56.5" font-family="Helvetica,sans-Serif" font-size="10.00">x265::Analysis::compressCTU</text>
</a>
</g>
</g>
<!-- Node5&#45;&gt;Node6 -->
<g id="edge5" class="edge"><title>Node5&#45;&gt;Node6</title>
<path fill="none" stroke="midnightblue" d="M1157.5,-85.5259C1180.58,-79.7237 1205.4,-73.4824 1225.17,-68.5124"/>
<polygon fill="midnightblue" stroke="midnightblue" points="1156.58,-82.1479 1147.74,-87.9808 1158.29,-88.9366 1156.58,-82.1479"/>
</g>
<!-- Node7 -->
<g id="node7" class="node"><title>Node7</title>
<g id="a_node7"><a xlink:href="classx265_1_1FrameEncoder.html#a0ae85001572afd28238476542523ac5f" target="_top" xlink:title="x265::FrameEncoder\l::processRowEncoder">
<polygon fill="white" stroke="black" points="1376.5,-44 1376.5,-74 1489.5,-74 1489.5,-44 1376.5,-44"/>
<text text-anchor="start" x="1384.5" y="-62" font-family="Helvetica,sans-Serif" font-size="10.00">x265::FrameEncoder</text>
<text text-anchor="middle" x="1433" y="-51" font-family="Helvetica,sans-Serif" font-size="10.00">::processRowEncoder</text>
</a>
</g>
</g>
<!-- Node6&#45;&gt;Node7 -->
<g id="edge6" class="edge"><title>Node6&#45;&gt;Node7</title>
<path fill="none" stroke="midnightblue" d="M1349.86,-59C1358.86,-59 1367.85,-59 1376.39,-59"/>
<polygon fill="midnightblue" stroke="midnightblue" points="1349.71,-55.5001 1339.71,-59 1349.71,-62.5001 1349.71,-55.5001"/>
</g>
<!-- Node8 -->
<g id="node8" class="node"><title>Node8</title>
<g id="a_node8"><a xlink:href="classx265_1_1FrameEncoder.html#acad645a8ece97d884895f8f7366b7d70" target="_top" xlink:title="x265::FrameEncoder\l::processRow">
<polygon fill="white" stroke="black" points="1526.5,-44 1526.5,-74 1633.5,-74 1633.5,-44 1526.5,-44"/>
<text text-anchor="start" x="1534.5" y="-62" font-family="Helvetica,sans-Serif" font-size="10.00">x265::FrameEncoder</text>
<text text-anchor="middle" x="1580" y="-51" font-family="Helvetica,sans-Serif" font-size="10.00">::processRow</text>
</a>
</g>
</g>
<!-- Node7&#45;&gt;Node8 -->
<g id="edge7" class="edge"><title>Node7&#45;&gt;Node8</title>
<path fill="none" stroke="midnightblue" d="M1499.88,-59C1508.67,-59 1517.59,-59 1526.13,-59"/>
<polygon fill="midnightblue" stroke="midnightblue" points="1499.65,-55.5001 1489.65,-59 1499.65,-62.5001 1499.65,-55.5001"/>
</g>
<!-- Node9 -->
<g id="node9" class="node"><title>Node9</title>
<g id="a_node9"><a xlink:href="classx265_1_1FrameEncoder.html#ac4e9ce2e876c0cdb25c992c872fe4302" target="_top" xlink:title="x265::FrameEncoder\l::compressCTURows">
<polygon fill="white" stroke="black" points="1670,-44 1670,-74 1782,-74 1782,-44 1670,-44"/>
<text text-anchor="start" x="1678" y="-62" font-family="Helvetica,sans-Serif" font-size="10.00">x265::FrameEncoder</text>
<text text-anchor="middle" x="1726" y="-51" font-family="Helvetica,sans-Serif" font-size="10.00">::compressCTURows</text>
</a>
</g>
</g>
<!-- Node8&#45;&gt;Node9 -->
<g id="edge8" class="edge"><title>Node8&#45;&gt;Node9</title>
<path fill="none" stroke="midnightblue" d="M1643.83,-59C1652.48,-59 1661.3,-59 1669.79,-59"/>
<polygon fill="midnightblue" stroke="midnightblue" points="1643.8,-55.5001 1633.8,-59 1643.8,-62.5001 1643.8,-55.5001"/>
</g>
<!-- Node10 -->
<g id="node10" class="node"><title>Node10</title>
<g id="a_node10"><a xlink:href="classx265_1_1FrameEncoder.html#a2f5c4c0f1a4e36fce4c9b87eb7ec4973" target="_top" xlink:title="x265::FrameEncoder\l::compressFrame">
<polygon fill="white" stroke="black" points="1818.5,-44 1818.5,-74 1925.5,-74 1925.5,-44 1818.5,-44"/>
<text text-anchor="start" x="1826.5" y="-62" font-family="Helvetica,sans-Serif" font-size="10.00">x265::FrameEncoder</text>
<text text-anchor="middle" x="1872" y="-51" font-family="Helvetica,sans-Serif" font-size="10.00">::compressFrame</text>
</a>
</g>
</g>
<!-- Node9&#45;&gt;Node10 -->
<g id="edge9" class="edge"><title>Node9&#45;&gt;Node10</title>
<path fill="none" stroke="midnightblue" d="M1792.42,-59C1801.15,-59 1810.02,-59 1818.49,-59"/>
<polygon fill="midnightblue" stroke="midnightblue" points="1792.26,-55.5001 1782.26,-59 1792.26,-62.5001 1792.26,-55.5001"/>
</g>
<!-- Node11 -->
<g id="node11" class="node"><title>Node11</title>
<g id="a_node11"><a xlink:href="classx265_1_1FrameEncoder.html#aef61f29b9e93b3af9255d96236bc90a7" target="_top" xlink:title="x265::FrameEncoder\l::threadMain">
<polygon fill="white" stroke="black" points="1962.5,-44 1962.5,-74 2069.5,-74 2069.5,-44 1962.5,-44"/>
<text text-anchor="start" x="1970.5" y="-62" font-family="Helvetica,sans-Serif" font-size="10.00">x265::FrameEncoder</text>
<text text-anchor="middle" x="2016" y="-51" font-family="Helvetica,sans-Serif" font-size="10.00">::threadMain</text>
</a>
</g>
</g>
<!-- Node10&#45;&gt;Node11 -->
<g id="edge10" class="edge"><title>Node10&#45;&gt;Node11</title>
<path fill="none" stroke="midnightblue" d="M1935.99,-59C1944.7,-59 1953.58,-59 1962.08,-59"/>
<polygon fill="midnightblue" stroke="midnightblue" points="1935.88,-55.5001 1925.88,-59 1935.88,-62.5001 1935.88,-55.5001"/>
</g>
<!-- Node13 -->
<g id="node13" class="node"><title>Node13</title>
<g id="a_node13"><a xlink:href="classx265_1_1Analysis.html#a2305f7985af66b49fdbc40ebb1b281d2" target="_top" xlink:title="x265::Analysis::checkInter\l_rd0_4">
<polygon fill="white" stroke="black" points="532.5,-61 532.5,-91 665.5,-91 665.5,-61 532.5,-61"/>
<text text-anchor="start" x="540.5" y="-79" font-family="Helvetica,sans-Serif" font-size="10.00">x265::Analysis::checkInter</text>
<text text-anchor="middle" x="599" y="-68" font-family="Helvetica,sans-Serif" font-size="10.00">_rd0_4</text>
</a>
</g>
</g>
<!-- Node12&#45;&gt;Node13 -->
<g id="edge12" class="edge"><title>Node12&#45;&gt;Node13</title>
<path fill="none" stroke="midnightblue" d="M505.653,-76C514.579,-76 523.564,-76 532.241,-76"/>
<polygon fill="midnightblue" stroke="midnightblue" points="505.62,-72.5001 495.62,-76 505.62,-79.5001 505.62,-72.5001"/>
</g>
<!-- Node16 -->
<g id="node16" class="node"><title>Node16</title>
<g id="a_node16"><a xlink:href="classx265_1_1Analysis.html#a828daa3e9f1ed40a1af9f99f7ff7bb33" target="_top" xlink:title="x265::Analysis::checkInter\l_rd5_6">
<polygon fill="white" stroke="black" points="532.5,-4 532.5,-34 665.5,-34 665.5,-4 532.5,-4"/>
<text text-anchor="start" x="540.5" y="-22" font-family="Helvetica,sans-Serif" font-size="10.00">x265::Analysis::checkInter</text>
<text text-anchor="middle" x="599" y="-11" font-family="Helvetica,sans-Serif" font-size="10.00">_rd5_6</text>
</a>
</g>
</g>
<!-- Node12&#45;&gt;Node16 -->
<g id="edge17" class="edge"><title>Node12&#45;&gt;Node16</title>
<path fill="none" stroke="midnightblue" d="M461.233,-63.2939C487.944,-54.6433 523.415,-43.1555 551.54,-34.0468"/>
<polygon fill="midnightblue" stroke="midnightblue" points="459.894,-60.0486 451.458,-66.4595 462.05,-66.7081 459.894,-60.0486"/>
</g>
<!-- Node14 -->
<g id="node14" class="node"><title>Node14</title>
<g id="a_node14"><a xlink:href="classx265_1_1Analysis.html#aa6122285d10bb1bd7584958b88b029d5" target="_top" xlink:title="x265::Analysis::parallel\lModeAnalysis">
<polygon fill="white" stroke="black" points="702,-85 702,-115 820,-115 820,-85 702,-85"/>
<text text-anchor="start" x="710" y="-103" font-family="Helvetica,sans-Serif" font-size="10.00">x265::Analysis::parallel</text>
<text text-anchor="middle" x="761" y="-92" font-family="Helvetica,sans-Serif" font-size="10.00">ModeAnalysis</text>
</a>
</g>
</g>
<!-- Node13&#45;&gt;Node14 -->
<g id="edge13" class="edge"><title>Node13&#45;&gt;Node14</title>
<path fill="none" stroke="midnightblue" d="M675.529,-87.3294C684.426,-88.6639 693.397,-90.0095 701.999,-91.2999"/>
<polygon fill="midnightblue" stroke="midnightblue" points="675.948,-83.8532 665.54,-85.831 674.91,-90.7757 675.948,-83.8532"/>
</g>
<!-- Node15 -->
<g id="node15" class="node"><title>Node15</title>
<g id="a_node15"><a xlink:href="classx265_1_1Analysis.html#a30d2ff7eca5addbb0a6b3dfe14f09650" target="_top" xlink:title="x265::Analysis::compress\lInterCU_rd0_4">
<polygon fill="white" stroke="black" points="856,-44 856,-74 986,-74 986,-44 856,-44"/>
<text text-anchor="start" x="864" y="-62" font-family="Helvetica,sans-Serif" font-size="10.00">x265::Analysis::compress</text>
<text text-anchor="middle" x="921" y="-51" font-family="Helvetica,sans-Serif" font-size="10.00">InterCU_rd0_4</text>
</a>
</g>
</g>
<!-- Node13&#45;&gt;Node15 -->
<g id="edge15" class="edge"><title>Node13&#45;&gt;Node15</title>
<path fill="none" stroke="midnightblue" d="M675.551,-71.9863C730.436,-69.0706 803.903,-65.1676 855.925,-62.404"/>
<polygon fill="midnightblue" stroke="midnightblue" points="675.329,-68.4931 665.529,-72.5188 675.701,-75.4832 675.329,-68.4931"/>
</g>
<!-- Node14&#45;&gt;Node4 -->
<g id="edge14" class="edge"><title>Node14&#45;&gt;Node4</title>
<path fill="none" stroke="midnightblue" d="M830.538,-101.301C840.798,-101.496 851.298,-101.696 861.328,-101.886"/>
<polygon fill="midnightblue" stroke="midnightblue" points="830.449,-97.7991 820.384,-101.109 830.316,-104.798 830.449,-97.7991"/>
</g>
<!-- Node15&#45;&gt;Node6 -->
<g id="edge16" class="edge"><title>Node15&#45;&gt;Node6</title>
<path fill="none" stroke="midnightblue" d="M996.158,-59C1053.11,-59 1131.41,-59 1188.46,-59"/>
<polygon fill="midnightblue" stroke="midnightblue" points="996.14,-55.5001 986.139,-59 996.139,-62.5001 996.14,-55.5001"/>
</g>
<!-- Node17 -->
<g id="node17" class="node"><title>Node17</title>
<g id="a_node17"><a xlink:href="classx265_1_1Analysis.html#a0b22b7765aa4a36b1ba6d07ba26901e6" target="_top" xlink:title="x265::Analysis::compress\lInterCU_rd5_6">
<polygon fill="white" stroke="black" points="1022,-0 1022,-30 1152,-30 1152,-0 1022,-0"/>
<text text-anchor="start" x="1030" y="-18" font-family="Helvetica,sans-Serif" font-size="10.00">x265::Analysis::compress</text>
<text text-anchor="middle" x="1087" y="-7" font-family="Helvetica,sans-Serif" font-size="10.00">InterCU_rd5_6</text>
</a>
</g>
</g>
<!-- Node16&#45;&gt;Node17 -->
<g id="edge18" class="edge"><title>Node16&#45;&gt;Node17</title>
<path fill="none" stroke="midnightblue" d="M675.674,-18.3772C770.828,-17.594 932.521,-16.2632 1021.88,-15.5277"/>
<polygon fill="midnightblue" stroke="midnightblue" points="675.515,-14.8783 665.544,-18.4605 675.573,-21.878 675.515,-14.8783"/>
</g>
<!-- Node17&#45;&gt;Node6 -->
<g id="edge19" class="edge"><title>Node17&#45;&gt;Node6</title>
<path fill="none" stroke="midnightblue" d="M1157.5,-32.4741C1180.58,-38.2763 1205.4,-44.5176 1225.17,-49.4876"/>
<polygon fill="midnightblue" stroke="midnightblue" points="1158.29,-29.0634 1147.74,-30.0192 1156.58,-35.8521 1158.29,-29.0634"/>
</g>
</g>
</svg>
