<?xml version="1.0" encoding="UTF-8" standalone="no"?>
<!DOCTYPE svg PUBLIC "-//W3C//DTD SVG 1.1//EN"
 "http://www.w3.org/Graphics/SVG/1.1/DTD/svg11.dtd">
<!-- Generated by graphviz version 2.36.0 (20140111.2315)
 -->
<!-- Title: x265::MotionEstimate::bufSATD Pages: 1 -->
<svg width="1798pt" height="126pt"
 viewBox="0.00 0.00 1798.00 126.00" xmlns="http://www.w3.org/2000/svg" xmlns:xlink="http://www.w3.org/1999/xlink">
<g id="graph0" class="graph" transform="scale(1 1) rotate(0) translate(4 122)">
<title>x265::MotionEstimate::bufSATD</title>
<polygon fill="white" stroke="none" points="-4,4 -4,-122 1794,-122 1794,4 -4,4"/>
<!-- Node1 -->
<g id="node1" class="node"><title>Node1</title>
<polygon fill="#bfbfbf" stroke="black" points="0,-22 0,-52 112,-52 112,-22 0,-22"/>
<text text-anchor="start" x="8" y="-40" font-family="Helvetica,sans-Serif" font-size="10.00">x265::MotionEstimate</text>
<text text-anchor="middle" x="56" y="-29" font-family="Helvetica,sans-Serif" font-size="10.00">::bufSATD</text>
</g>
<!-- Node2 -->
<g id="node2" class="node"><title>Node2</title>
<g id="a_node2"><a xlink:href="classx265_1_1Search.html#a761560ef5d3ff0beb48567c88c771d55" target="_top" xlink:title="x265::Search::mergeEstimation">
<polygon fill="white" stroke="black" points="148,-46.5 148,-65.5 302,-65.5 302,-46.5 148,-46.5"/>
<text text-anchor="middle" x="225" y="-53.5" font-family="Helvetica,sans-Serif" font-size="10.00">x265::Search::mergeEstimation</text>
</a>
</g>
</g>
<!-- Node1&#45;&gt;Node2 -->
<g id="edge1" class="edge"><title>Node1&#45;&gt;Node2</title>
<path fill="none" stroke="midnightblue" d="M122.208,-44.4189C130.583,-45.3717 139.215,-46.3539 147.747,-47.3245"/>
<polygon fill="midnightblue" stroke="midnightblue" points="122.476,-40.9269 112.145,-43.274 121.685,-47.8821 122.476,-40.9269"/>
</g>
<!-- Node3 -->
<g id="node3" class="node"><title>Node3</title>
<g id="a_node3"><a xlink:href="classx265_1_1Search.html#a48101e3d900e93b97a83f461be390bd1" target="_top" xlink:title="x265::Search::predInterSearch">
<polygon fill="white" stroke="black" points="338.5,-27.5 338.5,-46.5 487.5,-46.5 487.5,-27.5 338.5,-27.5"/>
<text text-anchor="middle" x="413" y="-34.5" font-family="Helvetica,sans-Serif" font-size="10.00">x265::Search::predInterSearch</text>
</a>
</g>
</g>
<!-- Node1&#45;&gt;Node3 -->
<g id="edge16" class="edge"><title>Node1&#45;&gt;Node3</title>
<path fill="none" stroke="midnightblue" d="M122.372,-37C183.477,-37 274.605,-37 338.275,-37"/>
<polygon fill="midnightblue" stroke="midnightblue" points="122.079,-33.5001 112.079,-37 122.079,-40.5001 122.079,-33.5001"/>
</g>
<!-- Node2&#45;&gt;Node3 -->
<g id="edge2" class="edge"><title>Node2&#45;&gt;Node3</title>
<path fill="none" stroke="midnightblue" d="M312.336,-47.1808C321.024,-46.2932 329.791,-45.3977 338.33,-44.5254"/>
<polygon fill="midnightblue" stroke="midnightblue" points="311.783,-43.719 302.19,-48.2172 312.494,-50.6827 311.783,-43.719"/>
</g>
<!-- Node4 -->
<g id="node4" class="node"><title>Node4</title>
<g id="a_node4"><a xlink:href="classx265_1_1Analysis.html#a2305f7985af66b49fdbc40ebb1b281d2" target="_top" xlink:title="x265::Analysis::checkInter\l_rd0_4">
<polygon fill="white" stroke="black" points="524.5,-44 524.5,-74 657.5,-74 657.5,-44 524.5,-44"/>
<text text-anchor="start" x="532.5" y="-62" font-family="Helvetica,sans-Serif" font-size="10.00">x265::Analysis::checkInter</text>
<text text-anchor="middle" x="591" y="-51" font-family="Helvetica,sans-Serif" font-size="10.00">_rd0_4</text>
</a>
</g>
</g>
<!-- Node3&#45;&gt;Node4 -->
<g id="edge3" class="edge"><title>Node3&#45;&gt;Node4</title>
<path fill="none" stroke="midnightblue" d="M497.653,-47.4566C506.579,-48.5723 515.564,-49.6955 524.241,-50.7801"/>
<polygon fill="midnightblue" stroke="midnightblue" points="497.977,-43.97 487.62,-46.2025 497.109,-50.9159 497.977,-43.97"/>
</g>
<!-- Node13 -->
<g id="node13" class="node"><title>Node13</title>
<g id="a_node13"><a xlink:href="classx265_1_1Analysis.html#a828daa3e9f1ed40a1af9f99f7ff7bb33" target="_top" xlink:title="x265::Analysis::checkInter\l_rd5_6">
<polygon fill="white" stroke="black" points="694.5,-0 694.5,-30 827.5,-30 827.5,-0 694.5,-0"/>
<text text-anchor="start" x="702.5" y="-18" font-family="Helvetica,sans-Serif" font-size="10.00">x265::Analysis::checkInter</text>
<text text-anchor="middle" x="761" y="-7" font-family="Helvetica,sans-Serif" font-size="10.00">_rd5_6</text>
</a>
</g>
</g>
<!-- Node3&#45;&gt;Node13 -->
<g id="edge13" class="edge"><title>Node3&#45;&gt;Node13</title>
<path fill="none" stroke="midnightblue" d="M498.08,-31.6539C558.501,-27.8121 638.797,-22.7066 694.484,-19.1658"/>
<polygon fill="midnightblue" stroke="midnightblue" points="497.559,-28.1798 487.801,-32.3074 498.003,-35.1657 497.559,-28.1798"/>
</g>
<!-- Node5 -->
<g id="node5" class="node"><title>Node5</title>
<g id="a_node5"><a xlink:href="classx265_1_1Analysis.html#aa6122285d10bb1bd7584958b88b029d5" target="_top" xlink:title="x265::Analysis::parallel\lModeAnalysis">
<polygon fill="white" stroke="black" points="702,-88 702,-118 820,-118 820,-88 702,-88"/>
<text text-anchor="start" x="710" y="-106" font-family="Helvetica,sans-Serif" font-size="10.00">x265::Analysis::parallel</text>
<text text-anchor="middle" x="761" y="-95" font-family="Helvetica,sans-Serif" font-size="10.00">ModeAnalysis</text>
</a>
</g>
</g>
<!-- Node4&#45;&gt;Node5 -->
<g id="edge4" class="edge"><title>Node4&#45;&gt;Node5</title>
<path fill="none" stroke="midnightblue" d="M659.178,-76.5941C673.569,-80.3632 688.647,-84.3122 702.627,-87.9738"/>
<polygon fill="midnightblue" stroke="midnightblue" points="659.907,-73.1671 649.346,-74.0192 658.133,-79.9387 659.907,-73.1671"/>
</g>
<!-- Node12 -->
<g id="node12" class="node"><title>Node12</title>
<g id="a_node12"><a xlink:href="classx265_1_1Analysis.html#a30d2ff7eca5addbb0a6b3dfe14f09650" target="_top" xlink:title="x265::Analysis::compress\lInterCU_rd0_4">
<polygon fill="white" stroke="black" points="864,-44 864,-74 994,-74 994,-44 864,-44"/>
<text text-anchor="start" x="872" y="-62" font-family="Helvetica,sans-Serif" font-size="10.00">x265::Analysis::compress</text>
<text text-anchor="middle" x="929" y="-51" font-family="Helvetica,sans-Serif" font-size="10.00">InterCU_rd0_4</text>
</a>
</g>
</g>
<!-- Node4&#45;&gt;Node12 -->
<g id="edge11" class="edge"><title>Node4&#45;&gt;Node12</title>
<path fill="none" stroke="midnightblue" d="M667.598,-59C726.641,-59 807.786,-59 863.725,-59"/>
<polygon fill="midnightblue" stroke="midnightblue" points="667.582,-55.5001 657.582,-59 667.582,-62.5001 667.582,-55.5001"/>
</g>
<!-- Node6 -->
<g id="node6" class="node"><title>Node6</title>
<g id="a_node6"><a xlink:href="classx265_1_1Analysis.html#a29a58dad4cc1c07d2f5e5717c6be7c25" target="_top" xlink:title="x265::Analysis::findJob">
<polygon fill="white" stroke="black" points="869.5,-93.5 869.5,-112.5 988.5,-112.5 988.5,-93.5 869.5,-93.5"/>
<text text-anchor="middle" x="929" y="-100.5" font-family="Helvetica,sans-Serif" font-size="10.00">x265::Analysis::findJob</text>
</a>
</g>
</g>
<!-- Node5&#45;&gt;Node6 -->
<g id="edge5" class="edge"><title>Node5&#45;&gt;Node6</title>
<path fill="none" stroke="midnightblue" d="M830.332,-103C843.306,-103 856.774,-103 869.413,-103"/>
<polygon fill="midnightblue" stroke="midnightblue" points="830.059,-99.5001 820.059,-103 830.059,-106.5 830.059,-99.5001"/>
</g>
<!-- Node7 -->
<g id="node7" class="node"><title>Node7</title>
<g id="a_node7"><a xlink:href="classx265_1_1Analysis.html#a87060ff27a37f56adc5f5b8a4c033ece" target="_top" xlink:title="x265::Analysis::compress\lInterCU_dist">
<polygon fill="white" stroke="black" points="1030,-88 1030,-118 1160,-118 1160,-88 1030,-88"/>
<text text-anchor="start" x="1038" y="-106" font-family="Helvetica,sans-Serif" font-size="10.00">x265::Analysis::compress</text>
<text text-anchor="middle" x="1095" y="-95" font-family="Helvetica,sans-Serif" font-size="10.00">InterCU_dist</text>
</a>
</g>
</g>
<!-- Node6&#45;&gt;Node7 -->
<g id="edge6" class="edge"><title>Node6&#45;&gt;Node7</title>
<path fill="none" stroke="midnightblue" d="M998.883,-103C1009.14,-103 1019.68,-103 1029.83,-103"/>
<polygon fill="midnightblue" stroke="midnightblue" points="998.745,-99.5001 988.745,-103 998.745,-106.5 998.745,-99.5001"/>
</g>
<!-- Node8 -->
<g id="node8" class="node"><title>Node8</title>
<g id="a_node8"><a xlink:href="classx265_1_1Analysis.html#aaebc9de2ff98834c650244f3b58942c2" target="_top" xlink:title="x265::Analysis::compressCTU">
<polygon fill="white" stroke="black" points="1196.5,-49.5 1196.5,-68.5 1347.5,-68.5 1347.5,-49.5 1196.5,-49.5"/>
<text text-anchor="middle" x="1272" y="-56.5" font-family="Helvetica,sans-Serif" font-size="10.00">x265::Analysis::compressCTU</text>
</a>
</g>
</g>
<!-- Node7&#45;&gt;Node8 -->
<g id="edge7" class="edge"><title>Node7&#45;&gt;Node8</title>
<path fill="none" stroke="midnightblue" d="M1165.5,-85.5259C1188.58,-79.7237 1213.4,-73.4824 1233.17,-68.5124"/>
<polygon fill="midnightblue" stroke="midnightblue" points="1164.58,-82.1479 1155.74,-87.9808 1166.29,-88.9366 1164.58,-82.1479"/>
</g>
<!-- Node9 -->
<g id="node9" class="node"><title>Node9</title>
<g id="a_node9"><a xlink:href="classx265_1_1FrameEncoder.html#a0ae85001572afd28238476542523ac5f" target="_top" xlink:title="x265::FrameEncoder\l::processRowEncoder">
<polygon fill="white" stroke="black" points="1384.5,-44 1384.5,-74 1497.5,-74 1497.5,-44 1384.5,-44"/>
<text text-anchor="start" x="1392.5" y="-62" font-family="Helvetica,sans-Serif" font-size="10.00">x265::FrameEncoder</text>
<text text-anchor="middle" x="1441" y="-51" font-family="Helvetica,sans-Serif" font-size="10.00">::processRowEncoder</text>
</a>
</g>
</g>
<!-- Node8&#45;&gt;Node9 -->
<g id="edge8" class="edge"><title>Node8&#45;&gt;Node9</title>
<path fill="none" stroke="midnightblue" d="M1357.86,-59C1366.86,-59 1375.85,-59 1384.39,-59"/>
<polygon fill="midnightblue" stroke="midnightblue" points="1357.71,-55.5001 1347.71,-59 1357.71,-62.5001 1357.71,-55.5001"/>
</g>
<!-- Node10 -->
<g id="node10" class="node"><title>Node10</title>
<g id="a_node10"><a xlink:href="classx265_1_1FrameEncoder.html#acad645a8ece97d884895f8f7366b7d70" target="_top" xlink:title="x265::FrameEncoder\l::processRow">
<polygon fill="white" stroke="black" points="1534.5,-44 1534.5,-74 1641.5,-74 1641.5,-44 1534.5,-44"/>
<text text-anchor="start" x="1542.5" y="-62" font-family="Helvetica,sans-Serif" font-size="10.00">x265::FrameEncoder</text>
<text text-anchor="middle" x="1588" y="-51" font-family="Helvetica,sans-Serif" font-size="10.00">::processRow</text>
</a>
</g>
</g>
<!-- Node9&#45;&gt;Node10 -->
<g id="edge9" class="edge"><title>Node9&#45;&gt;Node10</title>
<path fill="none" stroke="midnightblue" d="M1507.88,-59C1516.67,-59 1525.59,-59 1534.13,-59"/>
<polygon fill="midnightblue" stroke="midnightblue" points="1507.65,-55.5001 1497.65,-59 1507.65,-62.5001 1507.65,-55.5001"/>
</g>
<!-- Node11 -->
<g id="node11" class="node"><title>Node11</title>
<g id="a_node11"><a xlink:href="classx265_1_1FrameEncoder.html#ac4e9ce2e876c0cdb25c992c872fe4302" target="_top" xlink:title="x265::FrameEncoder\l::compressCTURows">
<polygon fill="white" stroke="red" points="1678,-44 1678,-74 1790,-74 1790,-44 1678,-44"/>
<text text-anchor="start" x="1686" y="-62" font-family="Helvetica,sans-Serif" font-size="10.00">x265::FrameEncoder</text>
<text text-anchor="middle" x="1734" y="-51" font-family="Helvetica,sans-Serif" font-size="10.00">::compressCTURows</text>
</a>
</g>
</g>
<!-- Node10&#45;&gt;Node11 -->
<g id="edge10" class="edge"><title>Node10&#45;&gt;Node11</title>
<path fill="none" stroke="midnightblue" d="M1651.83,-59C1660.48,-59 1669.3,-59 1677.79,-59"/>
<polygon fill="midnightblue" stroke="midnightblue" points="1651.8,-55.5001 1641.8,-59 1651.8,-62.5001 1651.8,-55.5001"/>
</g>
<!-- Node12&#45;&gt;Node8 -->
<g id="edge12" class="edge"><title>Node12&#45;&gt;Node8</title>
<path fill="none" stroke="midnightblue" d="M1004.16,-59C1061.11,-59 1139.41,-59 1196.46,-59"/>
<polygon fill="midnightblue" stroke="midnightblue" points="1004.14,-55.5001 994.139,-59 1004.14,-62.5001 1004.14,-55.5001"/>
</g>
<!-- Node14 -->
<g id="node14" class="node"><title>Node14</title>
<g id="a_node14"><a xlink:href="classx265_1_1Analysis.html#a0b22b7765aa4a36b1ba6d07ba26901e6" target="_top" xlink:title="x265::Analysis::compress\lInterCU_rd5_6">
<polygon fill="white" stroke="black" points="1030,-0 1030,-30 1160,-30 1160,-0 1030,-0"/>
<text text-anchor="start" x="1038" y="-18" font-family="Helvetica,sans-Serif" font-size="10.00">x265::Analysis::compress</text>
<text text-anchor="middle" x="1095" y="-7" font-family="Helvetica,sans-Serif" font-size="10.00">InterCU_rd5_6</text>
</a>
</g>
</g>
<!-- Node13&#45;&gt;Node14 -->
<g id="edge14" class="edge"><title>Node13&#45;&gt;Node14</title>
<path fill="none" stroke="midnightblue" d="M837.811,-15C895.866,-15 975.052,-15 1029.95,-15"/>
<polygon fill="midnightblue" stroke="midnightblue" points="837.593,-11.5001 827.593,-15 837.592,-18.5001 837.593,-11.5001"/>
</g>
<!-- Node14&#45;&gt;Node8 -->
<g id="edge15" class="edge"><title>Node14&#45;&gt;Node8</title>
<path fill="none" stroke="midnightblue" d="M1165.5,-32.4741C1188.58,-38.2763 1213.4,-44.5176 1233.17,-49.4876"/>
<polygon fill="midnightblue" stroke="midnightblue" points="1166.29,-29.0634 1155.74,-30.0192 1164.58,-35.8521 1166.29,-29.0634"/>
</g>
</g>
</svg>
