<?xml version="1.0" encoding="UTF-8" standalone="no"?>
<!DOCTYPE svg PUBLIC "-//W3C//DTD SVG 1.1//EN"
 "http://www.w3.org/Graphics/SVG/1.1/DTD/svg11.dtd">
<!-- Generated by graphviz version 2.36.0 (20140111.2315)
 -->
<!-- Title: x265::CUData::getQpMinCuLeft Pages: 1 -->
<svg width="1584pt" height="264pt"
 viewBox="0.00 0.00 1584.00 264.00" xmlns="http://www.w3.org/2000/svg" xmlns:xlink="http://www.w3.org/1999/xlink">
<g id="graph0" class="graph" transform="scale(1 1) rotate(0) translate(4 260)">
<title>x265::CUData::getQpMinCuLeft</title>
<polygon fill="white" stroke="none" points="-4,4 -4,-260 1580,-260 1580,4 -4,4"/>
<!-- Node1 -->
<g id="node1" class="node"><title>Node1</title>
<polygon fill="#bfbfbf" stroke="black" points="0.5,-115.5 0.5,-134.5 157.5,-134.5 157.5,-115.5 0.5,-115.5"/>
<text text-anchor="middle" x="79" y="-122.5" font-family="Helvetica,sans-Serif" font-size="10.00">x265::CUData::getQpMinCuLeft</text>
</g>
<!-- Node2 -->
<g id="node2" class="node"><title>Node2</title>
<g id="a_node2"><a xlink:href="classx265_1_1CUData.html#a83aa8547b59c61d599373675ddb0ace4" target="_top" xlink:title="x265::CUData::getRefQP">
<polygon fill="white" stroke="black" points="194.5,-115.5 194.5,-134.5 323.5,-134.5 323.5,-115.5 194.5,-115.5"/>
<text text-anchor="middle" x="259" y="-122.5" font-family="Helvetica,sans-Serif" font-size="10.00">x265::CUData::getRefQP</text>
</a>
</g>
</g>
<!-- Node1&#45;&gt;Node2 -->
<g id="edge1" class="edge"><title>Node1&#45;&gt;Node2</title>
<path fill="none" stroke="midnightblue" d="M167.67,-125C176.652,-125 185.653,-125 194.305,-125"/>
<polygon fill="midnightblue" stroke="midnightblue" points="167.556,-121.5 157.556,-125 167.556,-128.5 167.556,-121.5"/>
</g>
<!-- Node3 -->
<g id="node3" class="node"><title>Node3</title>
<g id="a_node3"><a xlink:href="classx265_1_1Analysis.html#a359278813e4f26bd2b5270d07253fe6c" target="_top" xlink:title="x265::Analysis::checkDQP">
<polygon fill="white" stroke="black" points="904.5,-137.5 904.5,-156.5 1039.5,-156.5 1039.5,-137.5 904.5,-137.5"/>
<text text-anchor="middle" x="972" y="-144.5" font-family="Helvetica,sans-Serif" font-size="10.00">x265::Analysis::checkDQP</text>
</a>
</g>
</g>
<!-- Node2&#45;&gt;Node3 -->
<g id="edge2" class="edge"><title>Node2&#45;&gt;Node3</title>
<path fill="none" stroke="midnightblue" d="M333.849,-127.285C472.794,-131.584 771.079,-140.814 904.325,-144.937"/>
<polygon fill="midnightblue" stroke="midnightblue" points="333.826,-123.783 323.722,-126.972 333.609,-130.779 333.826,-123.783"/>
</g>
<!-- Node11 -->
<g id="node11" class="node"><title>Node11</title>
<g id="a_node11"><a xlink:href="classx265_1_1Entropy.html#af4ab096830911ac48684ea5258cea013" target="_top" xlink:title="x265::Entropy::codeDeltaQP">
<polygon fill="white" stroke="black" points="360,-96.5 360,-115.5 502,-115.5 502,-96.5 360,-96.5"/>
<text text-anchor="middle" x="431" y="-103.5" font-family="Helvetica,sans-Serif" font-size="10.00">x265::Entropy::codeDeltaQP</text>
</a>
</g>
</g>
<!-- Node2&#45;&gt;Node11 -->
<g id="edge14" class="edge"><title>Node2&#45;&gt;Node11</title>
<path fill="none" stroke="midnightblue" d="M333.838,-116.748C342.481,-115.782 351.281,-114.798 359.872,-113.838"/>
<polygon fill="midnightblue" stroke="midnightblue" points="333.335,-113.282 323.785,-117.871 334.112,-120.239 333.335,-113.282"/>
</g>
<!-- Node4 -->
<g id="node4" class="node"><title>Node4</title>
<g id="a_node4"><a xlink:href="classx265_1_1Analysis.html#aae2a6a2252270782b591d2bed7e99dae" target="_top" xlink:title="x265::Analysis::compress\lIntraCU">
<polygon fill="white" stroke="black" points="1095,-225 1095,-255 1225,-255 1225,-225 1095,-225"/>
<text text-anchor="start" x="1103" y="-243" font-family="Helvetica,sans-Serif" font-size="10.00">x265::Analysis::compress</text>
<text text-anchor="middle" x="1160" y="-232" font-family="Helvetica,sans-Serif" font-size="10.00">IntraCU</text>
</a>
</g>
</g>
<!-- Node3&#45;&gt;Node4 -->
<g id="edge3" class="edge"><title>Node3&#45;&gt;Node4</title>
<path fill="none" stroke="midnightblue" d="M1022.96,-160.017C1031.03,-163.25 1039.02,-167.203 1046,-172 1066.54,-186.112 1061.34,-201.053 1082,-215 1087.71,-218.854 1094.05,-222.148 1100.58,-224.956"/>
<polygon fill="midnightblue" stroke="midnightblue" points="1024.09,-156.706 1013.5,-156.545 1021.68,-163.277 1024.09,-156.706"/>
</g>
<!-- Node7 -->
<g id="node7" class="node"><title>Node7</title>
<g id="a_node7"><a xlink:href="classx265_1_1Analysis.html#a87060ff27a37f56adc5f5b8a4c033ece" target="_top" xlink:title="x265::Analysis::compress\lInterCU_dist">
<polygon fill="white" stroke="black" points="1095,-39 1095,-69 1225,-69 1225,-39 1095,-39"/>
<text text-anchor="start" x="1103" y="-57" font-family="Helvetica,sans-Serif" font-size="10.00">x265::Analysis::compress</text>
<text text-anchor="middle" x="1160" y="-46" font-family="Helvetica,sans-Serif" font-size="10.00">InterCU_dist</text>
</a>
</g>
</g>
<!-- Node3&#45;&gt;Node7 -->
<g id="edge6" class="edge"><title>Node3&#45;&gt;Node7</title>
<path fill="none" stroke="midnightblue" d="M1034.68,-133.439C1038.65,-131.563 1042.47,-129.429 1046,-127 1068.27,-111.69 1060,-93.694 1082,-78 1086.79,-74.5846 1092.08,-71.6439 1097.57,-69.114"/>
<polygon fill="midnightblue" stroke="midnightblue" points="1033.09,-130.308 1025.19,-137.364 1035.76,-136.777 1033.09,-130.308"/>
</g>
<!-- Node8 -->
<g id="node8" class="node"><title>Node8</title>
<g id="a_node8"><a xlink:href="classx265_1_1Analysis.html#a30d2ff7eca5addbb0a6b3dfe14f09650" target="_top" xlink:title="x265::Analysis::compress\lInterCU_rd0_4">
<polygon fill="white" stroke="black" points="1095,-88 1095,-118 1225,-118 1225,-88 1095,-88"/>
<text text-anchor="start" x="1103" y="-106" font-family="Helvetica,sans-Serif" font-size="10.00">x265::Analysis::compress</text>
<text text-anchor="middle" x="1160" y="-95" font-family="Helvetica,sans-Serif" font-size="10.00">InterCU_rd0_4</text>
</a>
</g>
</g>
<!-- Node3&#45;&gt;Node8 -->
<g id="edge8" class="edge"><title>Node3&#45;&gt;Node8</title>
<path fill="none" stroke="midnightblue" d="M1023.24,-135.116C1045.43,-129.867 1071.77,-123.636 1095.31,-118.065"/>
<polygon fill="midnightblue" stroke="midnightblue" points="1022.28,-131.745 1013.36,-137.453 1023.9,-138.557 1022.28,-131.745"/>
</g>
<!-- Node9 -->
<g id="node9" class="node"><title>Node9</title>
<g id="a_node9"><a xlink:href="classx265_1_1Analysis.html#a0b22b7765aa4a36b1ba6d07ba26901e6" target="_top" xlink:title="x265::Analysis::compress\lInterCU_rd5_6">
<polygon fill="white" stroke="black" points="1095,-176 1095,-206 1225,-206 1225,-176 1095,-176"/>
<text text-anchor="start" x="1103" y="-194" font-family="Helvetica,sans-Serif" font-size="10.00">x265::Analysis::compress</text>
<text text-anchor="middle" x="1160" y="-183" font-family="Helvetica,sans-Serif" font-size="10.00">InterCU_rd5_6</text>
</a>
</g>
</g>
<!-- Node3&#45;&gt;Node9 -->
<g id="edge10" class="edge"><title>Node3&#45;&gt;Node9</title>
<path fill="none" stroke="midnightblue" d="M1023.24,-158.884C1045.43,-164.133 1071.77,-170.364 1095.31,-175.935"/>
<polygon fill="midnightblue" stroke="midnightblue" points="1023.9,-155.443 1013.36,-156.547 1022.28,-162.255 1023.9,-155.443"/>
</g>
<!-- Node10 -->
<g id="node10" class="node"><title>Node10</title>
<g id="a_node10"><a xlink:href="classx265_1_1Analysis.html#a88ad2880a5a8bcad5cfd5d6ea630b265" target="_top" xlink:title="x265::Analysis::encodeResidue">
<polygon fill="white" stroke="black" points="1082.5,-137.5 1082.5,-156.5 1237.5,-156.5 1237.5,-137.5 1082.5,-137.5"/>
<text text-anchor="middle" x="1160" y="-144.5" font-family="Helvetica,sans-Serif" font-size="10.00">x265::Analysis::encodeResidue</text>
</a>
</g>
</g>
<!-- Node3&#45;&gt;Node10 -->
<g id="edge12" class="edge"><title>Node3&#45;&gt;Node10</title>
<path fill="none" stroke="midnightblue" d="M1049.83,-147C1060.59,-147 1071.64,-147 1082.4,-147"/>
<polygon fill="midnightblue" stroke="midnightblue" points="1049.62,-143.5 1039.62,-147 1049.62,-150.5 1049.62,-143.5"/>
</g>
<!-- Node5 -->
<g id="node5" class="node"><title>Node5</title>
<g id="a_node5"><a xlink:href="classx265_1_1Analysis.html#aaebc9de2ff98834c650244f3b58942c2" target="_top" xlink:title="x265::Analysis::compressCTU">
<polygon fill="white" stroke="black" points="1274.5,-137.5 1274.5,-156.5 1425.5,-156.5 1425.5,-137.5 1274.5,-137.5"/>
<text text-anchor="middle" x="1350" y="-144.5" font-family="Helvetica,sans-Serif" font-size="10.00">x265::Analysis::compressCTU</text>
</a>
</g>
</g>
<!-- Node4&#45;&gt;Node5 -->
<g id="edge4" class="edge"><title>Node4&#45;&gt;Node5</title>
<path fill="none" stroke="midnightblue" d="M1222.55,-221.469C1227.84,-219.441 1233.05,-217.279 1238,-215 1275.15,-197.881 1315.26,-170.977 1335.57,-156.682"/>
<polygon fill="midnightblue" stroke="midnightblue" points="1221.19,-218.243 1213,-224.972 1223.6,-224.815 1221.19,-218.243"/>
</g>
<!-- Node6 -->
<g id="node6" class="node"><title>Node6</title>
<g id="a_node6"><a xlink:href="classx265_1_1FrameEncoder.html#a0ae85001572afd28238476542523ac5f" target="_top" xlink:title="x265::FrameEncoder\l::processRowEncoder">
<polygon fill="white" stroke="red" points="1462.5,-132 1462.5,-162 1575.5,-162 1575.5,-132 1462.5,-132"/>
<text text-anchor="start" x="1470.5" y="-150" font-family="Helvetica,sans-Serif" font-size="10.00">x265::FrameEncoder</text>
<text text-anchor="middle" x="1519" y="-139" font-family="Helvetica,sans-Serif" font-size="10.00">::processRowEncoder</text>
</a>
</g>
</g>
<!-- Node5&#45;&gt;Node6 -->
<g id="edge5" class="edge"><title>Node5&#45;&gt;Node6</title>
<path fill="none" stroke="midnightblue" d="M1435.86,-147C1444.86,-147 1453.85,-147 1462.39,-147"/>
<polygon fill="midnightblue" stroke="midnightblue" points="1435.71,-143.5 1425.71,-147 1435.71,-150.5 1435.71,-143.5"/>
</g>
<!-- Node7&#45;&gt;Node5 -->
<g id="edge7" class="edge"><title>Node7&#45;&gt;Node5</title>
<path fill="none" stroke="midnightblue" d="M1225.18,-72.6274C1229.57,-74.3207 1233.88,-76.1137 1238,-78 1275.55,-95.1838 1315.81,-122.809 1335.95,-137.344"/>
<polygon fill="midnightblue" stroke="midnightblue" points="1226.1,-69.2355 1215.5,-69.0828 1223.69,-75.8085 1226.1,-69.2355"/>
</g>
<!-- Node8&#45;&gt;Node5 -->
<g id="edge9" class="edge"><title>Node8&#45;&gt;Node5</title>
<path fill="none" stroke="midnightblue" d="M1235,-120.319C1259.98,-126.165 1286.93,-132.473 1308.36,-137.488"/>
<polygon fill="midnightblue" stroke="midnightblue" points="1235.71,-116.89 1225.17,-118.019 1234.11,-123.706 1235.71,-116.89"/>
</g>
<!-- Node9&#45;&gt;Node5 -->
<g id="edge11" class="edge"><title>Node9&#45;&gt;Node5</title>
<path fill="none" stroke="midnightblue" d="M1235,-173.681C1259.98,-167.835 1286.93,-161.527 1308.36,-156.512"/>
<polygon fill="midnightblue" stroke="midnightblue" points="1234.11,-170.294 1225.17,-175.981 1235.71,-177.11 1234.11,-170.294"/>
</g>
<!-- Node10&#45;&gt;Node5 -->
<g id="edge13" class="edge"><title>Node10&#45;&gt;Node5</title>
<path fill="none" stroke="midnightblue" d="M1248.01,-147C1256.8,-147 1265.68,-147 1274.33,-147"/>
<polygon fill="midnightblue" stroke="midnightblue" points="1247.74,-143.5 1237.74,-147 1247.74,-150.5 1247.74,-143.5"/>
</g>
<!-- Node12 -->
<g id="node12" class="node"><title>Node12</title>
<g id="a_node12"><a xlink:href="classx265_1_1Entropy.html#af0793a415273d86dc38b396dae9f9db3" target="_top" xlink:title="x265::Entropy::encodeTransform">
<polygon fill="white" stroke="black" points="538.5,-94.5 538.5,-113.5 697.5,-113.5 697.5,-94.5 538.5,-94.5"/>
<text text-anchor="middle" x="618" y="-101.5" font-family="Helvetica,sans-Serif" font-size="10.00">x265::Entropy::encodeTransform</text>
</a>
</g>
</g>
<!-- Node11&#45;&gt;Node12 -->
<g id="edge15" class="edge"><title>Node11&#45;&gt;Node12</title>
<path fill="none" stroke="midnightblue" d="M512.313,-105.132C520.998,-105.038 529.828,-104.942 538.491,-104.849"/>
<polygon fill="midnightblue" stroke="midnightblue" points="512.166,-101.633 502.204,-105.241 512.242,-108.633 512.166,-101.633"/>
</g>
<!-- Node13 -->
<g id="node13" class="node"><title>Node13</title>
<g id="a_node13"><a xlink:href="classx265_1_1Entropy.html#a220326e32d9be80554bf11194ef2c642" target="_top" xlink:title="x265::Entropy::codeCoeff">
<polygon fill="white" stroke="black" points="734,-93.5 734,-112.5 862,-112.5 862,-93.5 734,-93.5"/>
<text text-anchor="middle" x="798" y="-100.5" font-family="Helvetica,sans-Serif" font-size="10.00">x265::Entropy::codeCoeff</text>
</a>
</g>
</g>
<!-- Node12&#45;&gt;Node13 -->
<g id="edge16" class="edge"><title>Node12&#45;&gt;Node13</title>
<path fill="none" stroke="midnightblue" d="M707.848,-103.501C716.604,-103.452 725.361,-103.402 733.782,-103.355"/>
<polygon fill="midnightblue" stroke="midnightblue" points="707.572,-100.002 697.592,-103.558 707.611,-107.002 707.572,-100.002"/>
</g>
<!-- Node14 -->
<g id="node14" class="node"><title>Node14</title>
<g id="a_node14"><a xlink:href="classx265_1_1Analysis.html#ae4d61bcf4d2c22a054d68d6d77136428" target="_top" xlink:title="x265::Analysis::encodeIntra\lInInter">
<polygon fill="white" stroke="red" points="903,-39 903,-69 1041,-69 1041,-39 903,-39"/>
<text text-anchor="start" x="911" y="-57" font-family="Helvetica,sans-Serif" font-size="10.00">x265::Analysis::encodeIntra</text>
<text text-anchor="middle" x="972" y="-46" font-family="Helvetica,sans-Serif" font-size="10.00">InInter</text>
</a>
</g>
</g>
<!-- Node13&#45;&gt;Node14 -->
<g id="edge17" class="edge"><title>Node13&#45;&gt;Node14</title>
<path fill="none" stroke="midnightblue" d="M842.406,-90.6343C865.436,-84.0735 893.917,-75.9597 918.217,-69.037"/>
<polygon fill="midnightblue" stroke="midnightblue" points="841.23,-87.33 832.572,-93.436 843.148,-94.0622 841.23,-87.33"/>
</g>
<!-- Node15 -->
<g id="node15" class="node"><title>Node15</title>
<g id="a_node15"><a xlink:href="classx265_1_1Entropy.html#adeb50a7c9a5df6643407d01158d93799" target="_top" xlink:title="x265::Entropy::encodeCU">
<polygon fill="white" stroke="red" points="907,-0.5 907,-19.5 1037,-19.5 1037,-0.5 907,-0.5"/>
<text text-anchor="middle" x="972" y="-7.5" font-family="Helvetica,sans-Serif" font-size="10.00">x265::Entropy::encodeCU</text>
</a>
</g>
</g>
<!-- Node13&#45;&gt;Node15 -->
<g id="edge20" class="edge"><title>Node13&#45;&gt;Node15</title>
<path fill="none" stroke="midnightblue" d="M816.561,-86.4966C835.34,-69.7048 866.667,-44.068 898,-29 905.907,-25.1973 914.676,-22.0837 923.313,-19.5589"/>
<polygon fill="midnightblue" stroke="midnightblue" points="814.122,-83.9839 809.09,-93.3072 818.838,-89.1571 814.122,-83.9839"/>
</g>
<!-- Node16 -->
<g id="node16" class="node"><title>Node16</title>
<g id="a_node16"><a xlink:href="classx265_1_1Search.html#ab02df91827cf67796d1605bde60c6aed" target="_top" xlink:title="x265::Search::checkIntra">
<polygon fill="white" stroke="red" points="909,-181.5 909,-200.5 1035,-200.5 1035,-181.5 909,-181.5"/>
<text text-anchor="middle" x="972" y="-188.5" font-family="Helvetica,sans-Serif" font-size="10.00">x265::Search::checkIntra</text>
</a>
</g>
</g>
<!-- Node13&#45;&gt;Node16 -->
<g id="edge21" class="edge"><title>Node13&#45;&gt;Node16</title>
<path fill="none" stroke="midnightblue" d="M820.024,-118.461C839.504,-132.271 869.661,-152.369 898,-166 910.555,-172.039 924.957,-177.297 937.633,-181.413"/>
<polygon fill="midnightblue" stroke="midnightblue" points="822.034,-115.595 811.87,-112.604 817.95,-121.281 822.034,-115.595"/>
</g>
<!-- Node17 -->
<g id="node17" class="node"><title>Node17</title>
<g id="a_node17"><a xlink:href="classx265_1_1Search.html#aba5e04ce529f41accd43c540ba1dc7ad" target="_top" xlink:title="x265::Search::encodeResAnd\lCalcRdInterCU">
<polygon fill="white" stroke="red" points="898.5,-88 898.5,-118 1045.5,-118 1045.5,-88 898.5,-88"/>
<text text-anchor="start" x="906.5" y="-106" font-family="Helvetica,sans-Serif" font-size="10.00">x265::Search::encodeResAnd</text>
<text text-anchor="middle" x="972" y="-95" font-family="Helvetica,sans-Serif" font-size="10.00">CalcRdInterCU</text>
</a>
</g>
</g>
<!-- Node13&#45;&gt;Node17 -->
<g id="edge24" class="edge"><title>Node13&#45;&gt;Node17</title>
<path fill="none" stroke="midnightblue" d="M872.145,-103C880.817,-103 889.666,-103 898.331,-103"/>
<polygon fill="midnightblue" stroke="midnightblue" points="872.07,-99.5001 862.07,-103 872.07,-106.5 872.07,-99.5001"/>
</g>
<!-- Node14&#45;&gt;Node7 -->
<g id="edge18" class="edge"><title>Node14&#45;&gt;Node7</title>
<path fill="none" stroke="midnightblue" d="M1051.59,-54C1066.01,-54 1080.9,-54 1094.82,-54"/>
<polygon fill="midnightblue" stroke="midnightblue" points="1051.2,-50.5001 1041.2,-54 1051.2,-57.5001 1051.2,-50.5001"/>
</g>
<!-- Node14&#45;&gt;Node8 -->
<g id="edge19" class="edge"><title>Node14&#45;&gt;Node8</title>
<path fill="none" stroke="midnightblue" d="M1039.9,-71.6229C1060.24,-76.9837 1082.41,-82.8225 1102.04,-87.9938"/>
<polygon fill="midnightblue" stroke="midnightblue" points="1040.63,-68.1977 1030.07,-69.0346 1038.85,-74.9667 1040.63,-68.1977"/>
</g>
<!-- Node16&#45;&gt;Node4 -->
<g id="edge22" class="edge"><title>Node16&#45;&gt;Node4</title>
<path fill="none" stroke="midnightblue" d="M1019.27,-203.19C1044.29,-209.781 1075.41,-217.978 1101.92,-224.963"/>
<polygon fill="midnightblue" stroke="midnightblue" points="1019.87,-199.727 1009.3,-200.564 1018.08,-206.496 1019.87,-199.727"/>
</g>
<!-- Node16&#45;&gt;Node9 -->
<g id="edge23" class="edge"><title>Node16&#45;&gt;Node9</title>
<path fill="none" stroke="midnightblue" d="M1045.26,-191C1061.65,-191 1078.94,-191 1094.96,-191"/>
<polygon fill="midnightblue" stroke="midnightblue" points="1045.19,-187.5 1035.19,-191 1045.19,-194.5 1045.19,-187.5"/>
</g>
<!-- Node17&#45;&gt;Node7 -->
<g id="edge25" class="edge"><title>Node17&#45;&gt;Node7</title>
<path fill="none" stroke="midnightblue" d="M1039.9,-85.3771C1060.24,-80.0163 1082.41,-74.1775 1102.04,-69.0062"/>
<polygon fill="midnightblue" stroke="midnightblue" points="1038.85,-82.0333 1030.07,-87.9654 1040.63,-88.8023 1038.85,-82.0333"/>
</g>
<!-- Node17&#45;&gt;Node8 -->
<g id="edge26" class="edge"><title>Node17&#45;&gt;Node8</title>
<path fill="none" stroke="midnightblue" d="M1056.06,-103C1069.06,-103 1082.31,-103 1094.8,-103"/>
<polygon fill="midnightblue" stroke="midnightblue" points="1055.71,-99.5001 1045.71,-103 1055.71,-106.5 1055.71,-99.5001"/>
</g>
</g>
</svg>
