<?xml version="1.0" encoding="UTF-8" standalone="no"?>
<!DOCTYPE svg PUBLIC "-//W3C//DTD SVG 1.1//EN"
 "http://www.w3.org/Graphics/SVG/1.1/DTD/svg11.dtd">
<!-- Generated by graphviz version 2.36.0 (20140111.2315)
 -->
<!-- Title: x265::Entropy::codeShortTermRefPicSet Pages: 1 -->
<svg width="614pt" height="87pt"
 viewBox="0.00 0.00 614.00 87.00" xmlns="http://www.w3.org/2000/svg" xmlns:xlink="http://www.w3.org/1999/xlink">
<g id="graph0" class="graph" transform="scale(1 1) rotate(0) translate(4 83)">
<title>x265::Entropy::codeShortTermRefPicSet</title>
<polygon fill="white" stroke="none" points="-4,4 -4,-83 610,-83 610,4 -4,4"/>
<!-- Node1 -->
<g id="node1" class="node"><title>Node1</title>
<polygon fill="#bfbfbf" stroke="black" points="0,-24 0,-54 128,-54 128,-24 0,-24"/>
<text text-anchor="start" x="8" y="-42" font-family="Helvetica,sans-Serif" font-size="10.00">x265::Entropy::codeShort</text>
<text text-anchor="middle" x="64" y="-31" font-family="Helvetica,sans-Serif" font-size="10.00">TermRefPicSet</text>
</g>
<!-- Node2 -->
<g id="node2" class="node"><title>Node2</title>
<g id="a_node2"><a xlink:href="classx265_1_1SyntaxElementWriter.html#a44c3a048bbeb0eb105c37cfc17b40864" target="_top" xlink:title="x265::SyntaxElementWriter\l::WRITE_UVLC">
<polygon fill="white" stroke="black" points="164.5,-49 164.5,-79 301.5,-79 301.5,-49 164.5,-49"/>
<text text-anchor="start" x="172.5" y="-67" font-family="Helvetica,sans-Serif" font-size="10.00">x265::SyntaxElementWriter</text>
<text text-anchor="middle" x="233" y="-56" font-family="Helvetica,sans-Serif" font-size="10.00">::WRITE_UVLC</text>
</a>
</g>
</g>
<!-- Node1&#45;&gt;Node2 -->
<g id="edge1" class="edge"><title>Node1&#45;&gt;Node2</title>
<path fill="none" stroke="midnightblue" d="M128.136,-48.4514C136.633,-49.7235 145.431,-51.0405 154.146,-52.3451"/>
<polygon fill="midnightblue" stroke="midnightblue" points="153.907,-55.8484 164.315,-53.8676 154.944,-48.9256 153.907,-55.8484"/>
</g>
<!-- Node5 -->
<g id="node5" class="node"><title>Node5</title>
<g id="a_node5"><a xlink:href="classx265_1_1SyntaxElementWriter.html#a2d204a2fc0b37616f9a614bf037a3dd6" target="_top" xlink:title="x265::SyntaxElementWriter\l::WRITE_FLAG">
<polygon fill="white" stroke="black" points="164.5,-0 164.5,-30 301.5,-30 301.5,-0 164.5,-0"/>
<text text-anchor="start" x="172.5" y="-18" font-family="Helvetica,sans-Serif" font-size="10.00">x265::SyntaxElementWriter</text>
<text text-anchor="middle" x="233" y="-7" font-family="Helvetica,sans-Serif" font-size="10.00">::WRITE_FLAG</text>
</a>
</g>
</g>
<!-- Node1&#45;&gt;Node5 -->
<g id="edge4" class="edge"><title>Node1&#45;&gt;Node5</title>
<path fill="none" stroke="midnightblue" d="M128.136,-29.9266C136.633,-28.7054 145.431,-27.4411 154.146,-26.1887"/>
<polygon fill="midnightblue" stroke="midnightblue" points="154.915,-29.6141 164.315,-24.7271 153.919,-22.6853 154.915,-29.6141"/>
</g>
<!-- Node3 -->
<g id="node3" class="node"><title>Node3</title>
<g id="a_node3"><a xlink:href="classx265_1_1SyntaxElementWriter.html#af0151cc567598deee8f51decf2ab915d" target="_top" xlink:title="x265::SyntaxElementWriter\l::writeUvlc">
<polygon fill="white" stroke="black" points="338.5,-49 338.5,-79 475.5,-79 475.5,-49 338.5,-49"/>
<text text-anchor="start" x="346.5" y="-67" font-family="Helvetica,sans-Serif" font-size="10.00">x265::SyntaxElementWriter</text>
<text text-anchor="middle" x="407" y="-56" font-family="Helvetica,sans-Serif" font-size="10.00">::writeUvlc</text>
</a>
</g>
</g>
<!-- Node2&#45;&gt;Node3 -->
<g id="edge2" class="edge"><title>Node2&#45;&gt;Node3</title>
<path fill="none" stroke="midnightblue" d="M301.979,-64C310.55,-64 319.372,-64 328.082,-64"/>
<polygon fill="midnightblue" stroke="midnightblue" points="328.233,-67.5001 338.233,-64 328.233,-60.5001 328.233,-67.5001"/>
</g>
<!-- Node4 -->
<g id="node4" class="node"><title>Node4</title>
<g id="a_node4"><a xlink:href="classx265_1_1BitInterface.html#a28a79d8b25645cdd59d6ff004d4851dc" target="_top" xlink:title="x265::BitInterface\l::write">
<polygon fill="white" stroke="black" points="512,-24 512,-54 606,-54 606,-24 512,-24"/>
<text text-anchor="start" x="520" y="-42" font-family="Helvetica,sans-Serif" font-size="10.00">x265::BitInterface</text>
<text text-anchor="middle" x="559" y="-31" font-family="Helvetica,sans-Serif" font-size="10.00">::write</text>
</a>
</g>
</g>
<!-- Node3&#45;&gt;Node4 -->
<g id="edge3" class="edge"><title>Node3&#45;&gt;Node4</title>
<path fill="none" stroke="midnightblue" d="M475.54,-52.7433C484.371,-51.2715 493.341,-49.7765 501.954,-48.3409"/>
<polygon fill="midnightblue" stroke="midnightblue" points="502.583,-51.7845 511.872,-46.688 501.432,-44.8797 502.583,-51.7845"/>
</g>
<!-- Node6 -->
<g id="node6" class="node"><title>Node6</title>
<g id="a_node6"><a xlink:href="classx265_1_1SyntaxElementWriter.html#a3bfaf3088405d61eeba90f10c0a17afc" target="_top" xlink:title="x265::SyntaxElementWriter\l::writeFlag">
<polygon fill="white" stroke="black" points="338.5,-0 338.5,-30 475.5,-30 475.5,-0 338.5,-0"/>
<text text-anchor="start" x="346.5" y="-18" font-family="Helvetica,sans-Serif" font-size="10.00">x265::SyntaxElementWriter</text>
<text text-anchor="middle" x="407" y="-7" font-family="Helvetica,sans-Serif" font-size="10.00">::writeFlag</text>
</a>
</g>
</g>
<!-- Node5&#45;&gt;Node6 -->
<g id="edge5" class="edge"><title>Node5&#45;&gt;Node6</title>
<path fill="none" stroke="midnightblue" d="M301.979,-15C310.55,-15 319.372,-15 328.082,-15"/>
<polygon fill="midnightblue" stroke="midnightblue" points="328.233,-18.5001 338.233,-15 328.233,-11.5001 328.233,-18.5001"/>
</g>
<!-- Node6&#45;&gt;Node4 -->
<g id="edge6" class="edge"><title>Node6&#45;&gt;Node4</title>
<path fill="none" stroke="midnightblue" d="M475.54,-25.8064C484.371,-27.2194 493.341,-28.6546 501.954,-30.0327"/>
<polygon fill="midnightblue" stroke="midnightblue" points="501.444,-33.4955 511.872,-31.6195 502.55,-26.5835 501.444,-33.4955"/>
</g>
</g>
</svg>
