<?xml version="1.0" encoding="UTF-8" standalone="no"?>
<!DOCTYPE svg PUBLIC "-//W3C//DTD SVG 1.1//EN"
 "http://www.w3.org/Graphics/SVG/1.1/DTD/svg11.dtd">
<!-- Generated by graphviz version 2.36.0 (20140111.2315)
 -->
<!-- Title: x265::Yuv::addAvg Pages: 1 -->
<!--zoomable 239 -->
<svg id="main" version="1.1" xmlns="http://www.w3.org/2000/svg" xmlns:xlink="http://www.w3.org/1999/xlink" xml:space="preserve" onload="init(evt)">
<style type="text/css"><![CDATA[
.edge:hover path { stroke: red; }
.edge:hover polygon { stroke: red; fill: red; }
]]></style>
<script type="text/javascript"><![CDATA[
var edges = document.getElementsByTagName('g');
if (edges && edges.length) {
  for (var i=0;i<edges.length;i++) {
    if (edges[i].id.substr(0,4)=='edge') {
      edges[i].setAttribute('class','edge');
    }
  }
}
]]></script>
        <defs>
                <circle id="rim" cx="0" cy="0" r="7"/>
                <circle id="rim2" cx="0" cy="0" r="3.5"/>
                <g id="zoomPlus">
                        <use xlink:href="#rim" fill="#404040">
                                <set attributeName="fill" to="#808080" begin="zoomplus.mouseover" end="zoomplus.mouseout"/>
                        </use>
                        <path d="M-4,0h8M0,-4v8" fill="none" stroke="white" stroke-width="1.5" pointer-events="none"/>
                </g>
                <g id="zoomMin">
                        <use xlink:href="#rim" fill="#404040">
                                <set attributeName="fill" to="#808080" begin="zoomminus.mouseover" end="zoomminus.mouseout"/>
                        </use>
                        <path d="M-4,0h8" fill="none" stroke="white" stroke-width="1.5" pointer-events="none"/>
                </g>
                <g id="dirArrow">
                        <path fill="none" stroke="white" stroke-width="1.5" d="M0,-3.0v7 M-2.5,-0.5L0,-3.0L2.5,-0.5"/>
                </g>
               <g id="resetDef">
                       <use xlink:href="#rim2" fill="#404040">
                               <set attributeName="fill" to="#808080" begin="reset.mouseover" end="reset.mouseout"/>
                       </use>
               </g>
        </defs>

<script type="text/javascript">
var viewWidth = 2282;
var viewHeight = 239;
var sectionId = 'dynsection-2';
</script>
<script xlink:href="svgpan.js"/>
<svg id="graph" class="graph">
<g id="viewport">
<title>x265::Yuv::addAvg</title>
<polygon fill="white" stroke="none" points="-4,4 -4,-235 2278,-235 2278,4 -4,4"/>
<!-- Node1 -->
<g id="node1" class="node"><title>Node1</title>
<polygon fill="#bfbfbf" stroke="black" points="0,-114.5 0,-133.5 100,-133.5 100,-114.5 0,-114.5"/>
<text text-anchor="middle" x="50" y="-121.5" font-family="Helvetica,sans-Serif" font-size="10.00">x265::Yuv::addAvg</text>
</g>
<!-- Node2 -->
<g id="node2" class="node"><title>Node2</title>
<g id="a_node2"><a xlink:href="classx265_1_1Predict.html#ab23a30d88a19749b5ddd7892d19e202f" target="_top" xlink:title="x265::Predict::motionCompensation">
<polygon fill="white" stroke="black" points="136.5,-114.5 136.5,-133.5 309.5,-133.5 309.5,-114.5 136.5,-114.5"/>
<text text-anchor="middle" x="223" y="-121.5" font-family="Helvetica,sans-Serif" font-size="10.00">x265::Predict::motionCompensation</text>
</a>
</g>
</g>
<!-- Node1&#45;&gt;Node2 -->
<g id="edge1" class="edge"><title>Node1&#45;&gt;Node2</title>
<path fill="none" stroke="midnightblue" d="M110.173,-124C118.69,-124 127.593,-124 136.496,-124"/>
<polygon fill="midnightblue" stroke="midnightblue" points="110.002,-120.5 100.002,-124 110.002,-127.5 110.002,-120.5"/>
</g>
<!-- Node3 -->
<g id="node3" class="node"><title>Node3</title>
<g id="a_node3"><a xlink:href="classx265_1_1Analysis.html#a87060ff27a37f56adc5f5b8a4c033ece" target="_top" xlink:title="x265::Analysis::compress\lInterCU_dist">
<polygon fill="white" stroke="black" points="1226,-159 1226,-189 1356,-189 1356,-159 1226,-159"/>
<text text-anchor="start" x="1234" y="-177" font-family="Helvetica,sans-Serif" font-size="10.00">x265::Analysis::compress</text>
<text text-anchor="middle" x="1291" y="-166" font-family="Helvetica,sans-Serif" font-size="10.00">InterCU_dist</text>
</a>
</g>
</g>
<!-- Node2&#45;&gt;Node3 -->
<g id="edge2" class="edge"><title>Node2&#45;&gt;Node3</title>
<path fill="none" stroke="midnightblue" d="M249.707,-138.326C273.883,-151.234 311.431,-169.846 346,-181 459.649,-217.672 490.581,-231 610,-231 610,-231 610,-231 970,-231 1065.79,-231 1175.24,-205.938 1238.12,-189.051"/>
<polygon fill="midnightblue" stroke="midnightblue" points="251.284,-135.201 240.824,-133.519 247.952,-141.357 251.284,-135.201"/>
</g>
<!-- Node10 -->
<g id="node10" class="node"><title>Node10</title>
<g id="a_node10"><a xlink:href="classx265_1_1Analysis.html#a30d2ff7eca5addbb0a6b3dfe14f09650" target="_top" xlink:title="x265::Analysis::compress\lInterCU_rd0_4">
<polygon fill="white" stroke="black" points="904,-131 904,-161 1034,-161 1034,-131 904,-131"/>
<text text-anchor="start" x="912" y="-149" font-family="Helvetica,sans-Serif" font-size="10.00">x265::Analysis::compress</text>
<text text-anchor="middle" x="969" y="-138" font-family="Helvetica,sans-Serif" font-size="10.00">InterCU_rd0_4</text>
</a>
</g>
</g>
<!-- Node2&#45;&gt;Node10 -->
<g id="edge9" class="edge"><title>Node2&#45;&gt;Node10</title>
<path fill="none" stroke="midnightblue" d="M320.109,-126.842C474.36,-131.403 773.11,-140.237 903.974,-144.107"/>
<polygon fill="midnightblue" stroke="midnightblue" points="319.808,-123.332 309.709,-126.534 319.602,-130.329 319.808,-123.332"/>
</g>
<!-- Node11 -->
<g id="node11" class="node"><title>Node11</title>
<g id="a_node11"><a xlink:href="classx265_1_1Analysis.html#addd72cb95590e2b2a6965d42d110eab3" target="_top" xlink:title="x265::Analysis::checkMerge2\lNx2N_rd0_4">
<polygon fill="white" stroke="black" points="722,-172 722,-202 868,-202 868,-172 722,-172"/>
<text text-anchor="start" x="730" y="-190" font-family="Helvetica,sans-Serif" font-size="10.00">x265::Analysis::checkMerge2</text>
<text text-anchor="middle" x="795" y="-179" font-family="Helvetica,sans-Serif" font-size="10.00">Nx2N_rd0_4</text>
</a>
</g>
</g>
<!-- Node2&#45;&gt;Node11 -->
<g id="edge11" class="edge"><title>Node2&#45;&gt;Node11</title>
<path fill="none" stroke="midnightblue" d="M262.919,-136.636C286.666,-143.815 317.784,-152.287 346,-157 477.284,-178.93 632.743,-184.952 721.722,-186.531"/>
<polygon fill="midnightblue" stroke="midnightblue" points="263.81,-133.248 253.223,-133.653 261.752,-139.939 263.81,-133.248"/>
</g>
<!-- Node12 -->
<g id="node12" class="node"><title>Node12</title>
<g id="a_node12"><a xlink:href="classx265_1_1Analysis.html#a0194a9da53aa95173fa1132ba3aea1c7" target="_top" xlink:title="x265::Analysis::checkMerge2\lNx2N_rd5_6">
<polygon fill="white" stroke="black" points="538,-0 538,-30 684,-30 684,-0 538,-0"/>
<text text-anchor="start" x="546" y="-18" font-family="Helvetica,sans-Serif" font-size="10.00">x265::Analysis::checkMerge2</text>
<text text-anchor="middle" x="611" y="-7" font-family="Helvetica,sans-Serif" font-size="10.00">Nx2N_rd5_6</text>
</a>
</g>
</g>
<!-- Node2&#45;&gt;Node12 -->
<g id="edge14" class="edge"><title>Node2&#45;&gt;Node12</title>
<path fill="none" stroke="midnightblue" d="M243.499,-108.068C266.49,-90.224 306.584,-61.9758 346,-48 408.363,-25.888 483.597,-18.1895 537.769,-15.6975"/>
<polygon fill="midnightblue" stroke="midnightblue" points="241.233,-105.398 235.561,-114.346 245.576,-110.888 241.233,-105.398"/>
</g>
<!-- Node14 -->
<g id="node14" class="node"><title>Node14</title>
<g id="a_node14"><a xlink:href="classx265_1_1Search.html#a761560ef5d3ff0beb48567c88c771d55" target="_top" xlink:title="x265::Search::mergeEstimation">
<polygon fill="white" stroke="black" points="346,-57.5 346,-76.5 500,-76.5 500,-57.5 346,-57.5"/>
<text text-anchor="middle" x="423" y="-64.5" font-family="Helvetica,sans-Serif" font-size="10.00">x265::Search::mergeEstimation</text>
</a>
</g>
</g>
<!-- Node2&#45;&gt;Node14 -->
<g id="edge17" class="edge"><title>Node2&#45;&gt;Node14</title>
<path fill="none" stroke="midnightblue" d="M267.022,-111.615C303.578,-101.091 355.303,-86.2007 388.751,-76.5716"/>
<polygon fill="midnightblue" stroke="midnightblue" points="265.782,-108.33 257.141,-114.459 267.719,-115.056 265.782,-108.33"/>
</g>
<!-- Node15 -->
<g id="node15" class="node"><title>Node15</title>
<g id="a_node15"><a xlink:href="classx265_1_1Search.html#a48101e3d900e93b97a83f461be390bd1" target="_top" xlink:title="x265::Search::predInterSearch">
<polygon fill="white" stroke="black" points="536.5,-58.5 536.5,-77.5 685.5,-77.5 685.5,-58.5 536.5,-58.5"/>
<text text-anchor="middle" x="611" y="-65.5" font-family="Helvetica,sans-Serif" font-size="10.00">x265::Search::predInterSearch</text>
</a>
</g>
</g>
<!-- Node2&#45;&gt;Node15 -->
<g id="edge26" class="edge"><title>Node2&#45;&gt;Node15</title>
<path fill="none" stroke="midnightblue" d="M307.018,-113.129C361.854,-105.811 435.274,-95.7499 500,-86 517.413,-83.377 536.346,-80.3443 553.518,-77.5247"/>
<polygon fill="midnightblue" stroke="midnightblue" points="306.452,-109.673 297.001,-114.463 307.376,-116.612 306.452,-109.673"/>
</g>
<!-- Node4 -->
<g id="node4" class="node"><title>Node4</title>
<g id="a_node4"><a xlink:href="classx265_1_1Analysis.html#aaebc9de2ff98834c650244f3b58942c2" target="_top" xlink:title="x265::Analysis::compressCTU">
<polygon fill="white" stroke="black" points="1392.5,-104.5 1392.5,-123.5 1543.5,-123.5 1543.5,-104.5 1392.5,-104.5"/>
<text text-anchor="middle" x="1468" y="-111.5" font-family="Helvetica,sans-Serif" font-size="10.00">x265::Analysis::compressCTU</text>
</a>
</g>
</g>
<!-- Node3&#45;&gt;Node4 -->
<g id="edge3" class="edge"><title>Node3&#45;&gt;Node4</title>
<path fill="none" stroke="midnightblue" d="M1345.93,-155.509C1376.82,-144.92 1414.28,-132.077 1439.27,-123.507"/>
<polygon fill="midnightblue" stroke="midnightblue" points="1344.48,-152.305 1336.16,-158.859 1346.75,-158.927 1344.48,-152.305"/>
</g>
<!-- Node5 -->
<g id="node5" class="node"><title>Node5</title>
<g id="a_node5"><a xlink:href="classx265_1_1FrameEncoder.html#a0ae85001572afd28238476542523ac5f" target="_top" xlink:title="x265::FrameEncoder\l::processRowEncoder">
<polygon fill="white" stroke="black" points="1580.5,-99 1580.5,-129 1693.5,-129 1693.5,-99 1580.5,-99"/>
<text text-anchor="start" x="1588.5" y="-117" font-family="Helvetica,sans-Serif" font-size="10.00">x265::FrameEncoder</text>
<text text-anchor="middle" x="1637" y="-106" font-family="Helvetica,sans-Serif" font-size="10.00">::processRowEncoder</text>
</a>
</g>
</g>
<!-- Node4&#45;&gt;Node5 -->
<g id="edge4" class="edge"><title>Node4&#45;&gt;Node5</title>
<path fill="none" stroke="midnightblue" d="M1553.86,-114C1562.86,-114 1571.85,-114 1580.39,-114"/>
<polygon fill="midnightblue" stroke="midnightblue" points="1553.71,-110.5 1543.71,-114 1553.71,-117.5 1553.71,-110.5"/>
</g>
<!-- Node6 -->
<g id="node6" class="node"><title>Node6</title>
<g id="a_node6"><a xlink:href="classx265_1_1FrameEncoder.html#acad645a8ece97d884895f8f7366b7d70" target="_top" xlink:title="x265::FrameEncoder\l::processRow">
<polygon fill="white" stroke="black" points="1730.5,-99 1730.5,-129 1837.5,-129 1837.5,-99 1730.5,-99"/>
<text text-anchor="start" x="1738.5" y="-117" font-family="Helvetica,sans-Serif" font-size="10.00">x265::FrameEncoder</text>
<text text-anchor="middle" x="1784" y="-106" font-family="Helvetica,sans-Serif" font-size="10.00">::processRow</text>
</a>
</g>
</g>
<!-- Node5&#45;&gt;Node6 -->
<g id="edge5" class="edge"><title>Node5&#45;&gt;Node6</title>
<path fill="none" stroke="midnightblue" d="M1703.88,-114C1712.67,-114 1721.59,-114 1730.13,-114"/>
<polygon fill="midnightblue" stroke="midnightblue" points="1703.65,-110.5 1693.65,-114 1703.65,-117.5 1703.65,-110.5"/>
</g>
<!-- Node7 -->
<g id="node7" class="node"><title>Node7</title>
<g id="a_node7"><a xlink:href="classx265_1_1FrameEncoder.html#ac4e9ce2e876c0cdb25c992c872fe4302" target="_top" xlink:title="x265::FrameEncoder\l::compressCTURows">
<polygon fill="white" stroke="black" points="1874,-99 1874,-129 1986,-129 1986,-99 1874,-99"/>
<text text-anchor="start" x="1882" y="-117" font-family="Helvetica,sans-Serif" font-size="10.00">x265::FrameEncoder</text>
<text text-anchor="middle" x="1930" y="-106" font-family="Helvetica,sans-Serif" font-size="10.00">::compressCTURows</text>
</a>
</g>
</g>
<!-- Node6&#45;&gt;Node7 -->
<g id="edge6" class="edge"><title>Node6&#45;&gt;Node7</title>
<path fill="none" stroke="midnightblue" d="M1847.83,-114C1856.48,-114 1865.3,-114 1873.79,-114"/>
<polygon fill="midnightblue" stroke="midnightblue" points="1847.8,-110.5 1837.8,-114 1847.8,-117.5 1847.8,-110.5"/>
</g>
<!-- Node8 -->
<g id="node8" class="node"><title>Node8</title>
<g id="a_node8"><a xlink:href="classx265_1_1FrameEncoder.html#a2f5c4c0f1a4e36fce4c9b87eb7ec4973" target="_top" xlink:title="x265::FrameEncoder\l::compressFrame">
<polygon fill="white" stroke="black" points="2022.5,-99 2022.5,-129 2129.5,-129 2129.5,-99 2022.5,-99"/>
<text text-anchor="start" x="2030.5" y="-117" font-family="Helvetica,sans-Serif" font-size="10.00">x265::FrameEncoder</text>
<text text-anchor="middle" x="2076" y="-106" font-family="Helvetica,sans-Serif" font-size="10.00">::compressFrame</text>
</a>
</g>
</g>
<!-- Node7&#45;&gt;Node8 -->
<g id="edge7" class="edge"><title>Node7&#45;&gt;Node8</title>
<path fill="none" stroke="midnightblue" d="M1996.42,-114C2005.15,-114 2014.02,-114 2022.49,-114"/>
<polygon fill="midnightblue" stroke="midnightblue" points="1996.26,-110.5 1986.26,-114 1996.26,-117.5 1996.26,-110.5"/>
</g>
<!-- Node9 -->
<g id="node9" class="node"><title>Node9</title>
<g id="a_node9"><a xlink:href="classx265_1_1FrameEncoder.html#aef61f29b9e93b3af9255d96236bc90a7" target="_top" xlink:title="x265::FrameEncoder\l::threadMain">
<polygon fill="white" stroke="black" points="2166.5,-99 2166.5,-129 2273.5,-129 2273.5,-99 2166.5,-99"/>
<text text-anchor="start" x="2174.5" y="-117" font-family="Helvetica,sans-Serif" font-size="10.00">x265::FrameEncoder</text>
<text text-anchor="middle" x="2220" y="-106" font-family="Helvetica,sans-Serif" font-size="10.00">::threadMain</text>
</a>
</g>
</g>
<!-- Node8&#45;&gt;Node9 -->
<g id="edge8" class="edge"><title>Node8&#45;&gt;Node9</title>
<path fill="none" stroke="midnightblue" d="M2139.99,-114C2148.7,-114 2157.58,-114 2166.08,-114"/>
<polygon fill="midnightblue" stroke="midnightblue" points="2139.88,-110.5 2129.88,-114 2139.88,-117.5 2139.88,-110.5"/>
</g>
<!-- Node10&#45;&gt;Node4 -->
<g id="edge10" class="edge"><title>Node10&#45;&gt;Node4</title>
<path fill="none" stroke="midnightblue" d="M1044.3,-135.659C1052.96,-134.657 1061.66,-133.74 1070,-133 1182.03,-123.054 1312.35,-118.07 1392.24,-115.763"/>
<polygon fill="midnightblue" stroke="midnightblue" points="1043.71,-132.204 1034.2,-136.868 1044.54,-139.155 1043.71,-132.204"/>
</g>
<!-- Node11&#45;&gt;Node3 -->
<g id="edge12" class="edge"><title>Node11&#45;&gt;Node3</title>
<path fill="none" stroke="midnightblue" d="M878.217,-184.836C975.837,-182.267 1136.6,-178.037 1225.63,-175.694"/>
<polygon fill="midnightblue" stroke="midnightblue" points="878.001,-181.341 868.096,-185.103 878.185,-188.338 878.001,-181.341"/>
</g>
<!-- Node11&#45;&gt;Node10 -->
<g id="edge13" class="edge"><title>Node11&#45;&gt;Node10</title>
<path fill="none" stroke="midnightblue" d="M869.008,-169.597C880.959,-166.748 893.253,-163.818 904.938,-161.032"/>
<polygon fill="midnightblue" stroke="midnightblue" points="867.986,-166.242 859.07,-171.966 869.609,-173.052 867.986,-166.242"/>
</g>
<!-- Node13 -->
<g id="node13" class="node"><title>Node13</title>
<g id="a_node13"><a xlink:href="classx265_1_1Analysis.html#a0b22b7765aa4a36b1ba6d07ba26901e6" target="_top" xlink:title="x265::Analysis::compress\lInterCU_rd5_6">
<polygon fill="white" stroke="black" points="904,-33 904,-63 1034,-63 1034,-33 904,-33"/>
<text text-anchor="start" x="912" y="-51" font-family="Helvetica,sans-Serif" font-size="10.00">x265::Analysis::compress</text>
<text text-anchor="middle" x="969" y="-40" font-family="Helvetica,sans-Serif" font-size="10.00">InterCU_rd5_6</text>
</a>
</g>
</g>
<!-- Node12&#45;&gt;Node13 -->
<g id="edge15" class="edge"><title>Node12&#45;&gt;Node13</title>
<path fill="none" stroke="midnightblue" d="M694.218,-14.3164C744.587,-14.8618 810.255,-17.3004 868,-25 882.038,-26.8718 897.001,-29.7992 910.961,-32.9459"/>
<polygon fill="midnightblue" stroke="midnightblue" points="694.063,-10.815 684.033,-14.2295 694.003,-17.8148 694.063,-10.815"/>
</g>
<!-- Node13&#45;&gt;Node4 -->
<g id="edge16" class="edge"><title>Node13&#45;&gt;Node4</title>
<path fill="none" stroke="midnightblue" d="M1044.29,-57.8657C1139.06,-70.4504 1301.84,-92.0675 1395.33,-104.483"/>
<polygon fill="midnightblue" stroke="midnightblue" points="1044.58,-54.3739 1034.21,-56.5269 1043.66,-61.313 1044.58,-54.3739"/>
</g>
<!-- Node14&#45;&gt;Node15 -->
<g id="edge18" class="edge"><title>Node14&#45;&gt;Node15</title>
<path fill="none" stroke="midnightblue" d="M510.336,-67.4642C519.024,-67.5109 527.791,-67.558 536.33,-67.6039"/>
<polygon fill="midnightblue" stroke="midnightblue" points="510.209,-63.9635 500.19,-67.4096 510.171,-70.9634 510.209,-63.9635"/>
</g>
<!-- Node16 -->
<g id="node16" class="node"><title>Node16</title>
<g id="a_node16"><a xlink:href="classx265_1_1Analysis.html#a2305f7985af66b49fdbc40ebb1b281d2" target="_top" xlink:title="x265::Analysis::checkInter\l_rd0_4">
<polygon fill="white" stroke="black" points="728.5,-84 728.5,-114 861.5,-114 861.5,-84 728.5,-84"/>
<text text-anchor="start" x="736.5" y="-102" font-family="Helvetica,sans-Serif" font-size="10.00">x265::Analysis::checkInter</text>
<text text-anchor="middle" x="795" y="-91" font-family="Helvetica,sans-Serif" font-size="10.00">_rd0_4</text>
</a>
</g>
</g>
<!-- Node15&#45;&gt;Node16 -->
<g id="edge19" class="edge"><title>Node15&#45;&gt;Node16</title>
<path fill="none" stroke="midnightblue" d="M678.084,-79.2561C694.407,-82.0364 711.89,-85.0142 728.199,-87.7922"/>
<polygon fill="midnightblue" stroke="midnightblue" points="678.537,-75.7829 668.091,-77.554 677.361,-82.6835 678.537,-75.7829"/>
</g>
<!-- Node19 -->
<g id="node19" class="node"><title>Node19</title>
<g id="a_node19"><a xlink:href="classx265_1_1Analysis.html#a828daa3e9f1ed40a1af9f99f7ff7bb33" target="_top" xlink:title="x265::Analysis::checkInter\l_rd5_6">
<polygon fill="white" stroke="black" points="728.5,-35 728.5,-65 861.5,-65 861.5,-35 728.5,-35"/>
<text text-anchor="start" x="736.5" y="-53" font-family="Helvetica,sans-Serif" font-size="10.00">x265::Analysis::checkInter</text>
<text text-anchor="middle" x="795" y="-42" font-family="Helvetica,sans-Serif" font-size="10.00">_rd5_6</text>
</a>
</g>
</g>
<!-- Node15&#45;&gt;Node19 -->
<g id="edge24" class="edge"><title>Node15&#45;&gt;Node19</title>
<path fill="none" stroke="midnightblue" d="M695.569,-59.7349C706.597,-58.6442 717.771,-57.5391 728.438,-56.4841"/>
<polygon fill="midnightblue" stroke="midnightblue" points="695.109,-56.2633 685.502,-60.7306 695.798,-63.2293 695.109,-56.2633"/>
</g>
<!-- Node16&#45;&gt;Node10 -->
<g id="edge23" class="edge"><title>Node16&#45;&gt;Node10</title>
<path fill="none" stroke="midnightblue" d="M860.853,-116.722C878.041,-121.418 896.431,-126.443 913.037,-130.981"/>
<polygon fill="midnightblue" stroke="midnightblue" points="861.464,-113.26 850.895,-114 859.619,-120.013 861.464,-113.26"/>
</g>
<!-- Node17 -->
<g id="node17" class="node"><title>Node17</title>
<g id="a_node17"><a xlink:href="classx265_1_1Analysis.html#aa6122285d10bb1bd7584958b88b029d5" target="_top" xlink:title="x265::Analysis::parallel\lModeAnalysis">
<polygon fill="white" stroke="black" points="910,-82 910,-112 1028,-112 1028,-82 910,-82"/>
<text text-anchor="start" x="918" y="-100" font-family="Helvetica,sans-Serif" font-size="10.00">x265::Analysis::parallel</text>
<text text-anchor="middle" x="969" y="-89" font-family="Helvetica,sans-Serif" font-size="10.00">ModeAnalysis</text>
</a>
</g>
</g>
<!-- Node16&#45;&gt;Node17 -->
<g id="edge20" class="edge"><title>Node16&#45;&gt;Node17</title>
<path fill="none" stroke="midnightblue" d="M871.72,-98.1195C884.554,-97.9703 897.698,-97.8175 909.986,-97.6746"/>
<polygon fill="midnightblue" stroke="midnightblue" points="871.475,-94.622 861.516,-98.2382 871.557,-101.622 871.475,-94.622"/>
</g>
<!-- Node18 -->
<g id="node18" class="node"><title>Node18</title>
<g id="a_node18"><a xlink:href="classx265_1_1Analysis.html#a29a58dad4cc1c07d2f5e5717c6be7c25" target="_top" xlink:title="x265::Analysis::findJob">
<polygon fill="white" stroke="black" points="1070.5,-142.5 1070.5,-161.5 1189.5,-161.5 1189.5,-142.5 1070.5,-142.5"/>
<text text-anchor="middle" x="1130" y="-149.5" font-family="Helvetica,sans-Serif" font-size="10.00">x265::Analysis::findJob</text>
</a>
</g>
</g>
<!-- Node17&#45;&gt;Node18 -->
<g id="edge21" class="edge"><title>Node17&#45;&gt;Node18</title>
<path fill="none" stroke="midnightblue" d="M1023.21,-115.406C1049.3,-124.43 1079.64,-134.926 1101.12,-142.357"/>
<polygon fill="midnightblue" stroke="midnightblue" points="1024.04,-111.99 1013.45,-112.029 1021.75,-118.606 1024.04,-111.99"/>
</g>
<!-- Node18&#45;&gt;Node3 -->
<g id="edge22" class="edge"><title>Node18&#45;&gt;Node3</title>
<path fill="none" stroke="midnightblue" d="M1199.81,-161.521C1208.47,-162.719 1217.29,-163.94 1225.87,-165.127"/>
<polygon fill="midnightblue" stroke="midnightblue" points="1200.14,-158.033 1189.75,-160.129 1199.18,-164.967 1200.14,-158.033"/>
</g>
<!-- Node19&#45;&gt;Node13 -->
<g id="edge25" class="edge"><title>Node19&#45;&gt;Node13</title>
<path fill="none" stroke="midnightblue" d="M871.698,-49.1198C882.409,-48.9952 893.336,-48.8682 903.803,-48.7465"/>
<polygon fill="midnightblue" stroke="midnightblue" points="871.475,-45.622 861.516,-49.2382 871.557,-52.6216 871.475,-45.622"/>
</g>
</g>
</svg>
        <g id="navigator" transform="translate(0 0)" fill="#404254">
                <rect fill="#f2f5e9" fill-opacity="0.5" stroke="#606060" stroke-width=".5" x="0" y="0" width="60" height="60"/>
                <use id="zoomplus" xlink:href="#zoomPlus" x="17" y="9" onmousedown="handleZoom(evt,'in')"/>
                <use id="zoomminus" xlink:href="#zoomMin" x="42" y="9" onmousedown="handleZoom(evt,'out')"/>
                <use id="reset" xlink:href="#resetDef" x="30" y="36" onmousedown="handleReset()"/>
                <g id="arrowUp" xlink:href="#dirArrow" transform="translate(30 24)" onmousedown="handlePan(0,-1)">
                  <use xlink:href="#rim" fill="#404040">
                        <set attributeName="fill" to="#808080" begin="arrowUp.mouseover" end="arrowUp.mouseout"/>
                  </use>
                  <path fill="none" stroke="white" stroke-width="1.5" d="M0,-3.0v7 M-2.5,-0.5L0,-3.0L2.5,-0.5"/>
                </g>
                <g id="arrowRight" xlink:href="#dirArrow" transform="rotate(90) translate(36 -43)" onmousedown="handlePan(1,0)">
                  <use xlink:href="#rim" fill="#404040">
                        <set attributeName="fill" to="#808080" begin="arrowRight.mouseover" end="arrowRight.mouseout"/>
                  </use>
                  <path fill="none" stroke="white" stroke-width="1.5" d="M0,-3.0v7 M-2.5,-0.5L0,-3.0L2.5,-0.5"/>
                </g>
                <g id="arrowDown" xlink:href="#dirArrow" transform="rotate(180) translate(-30 -48)" onmousedown="handlePan(0,1)">
                  <use xlink:href="#rim" fill="#404040">
                        <set attributeName="fill" to="#808080" begin="arrowDown.mouseover" end="arrowDown.mouseout"/>
                  </use>
                  <path fill="none" stroke="white" stroke-width="1.5" d="M0,-3.0v7 M-2.5,-0.5L0,-3.0L2.5,-0.5"/>
                </g>
                <g id="arrowLeft" xlink:href="#dirArrow" transform="rotate(270) translate(-36 17)" onmousedown="handlePan(-1,0)">
                  <use xlink:href="#rim" fill="#404040">
                        <set attributeName="fill" to="#808080" begin="arrowLeft.mouseover" end="arrowLeft.mouseout"/>
                  </use>
                  <path fill="none" stroke="white" stroke-width="1.5" d="M0,-3.0v7 M-2.5,-0.5L0,-3.0L2.5,-0.5"/>
                </g>
        </g>
        <svg viewBox="0 0 15 15" width="100%" height="30px" preserveAspectRatio="xMaxYMin meet">
         <g id="arrow_out" transform="scale(0.3 0.3)">
          <a xlink:href="classx265_1_1Yuv_a8be8f50ae94d1a894220550fc04da412_icgraph_org.svg" target="_base">
           <rect id="button" ry="5" rx="5" y="6" x="6" height="38" width="38"
                fill="#f2f5e9" fill-opacity="0.5" stroke="#606060" stroke-width="1.0"/>
           <path id="arrow"
             d="M 11.500037,31.436501 C 11.940474,20.09759 22.043105,11.32322 32.158766,21.979434 L 37.068811,17.246167 C 37.068811,17.246167 37.088388,32 37.088388,32 L 22.160133,31.978069 C 22.160133,31.978069 26.997745,27.140456 26.997745,27.140456 C 18.528582,18.264221 13.291696,25.230495 11.500037,31.436501 z"
             style="fill:#404040;"/>
          </a>
         </g>
        </svg>
</svg>
