<?xml version="1.0" encoding="UTF-8" standalone="no"?>
<!DOCTYPE svg PUBLIC "-//W3C//DTD SVG 1.1//EN"
 "http://www.w3.org/Graphics/SVG/1.1/DTD/svg11.dtd">
<!-- Generated by graphviz version 2.36.0 (20140111.2315)
 -->
<!-- Title: x265::Predict::addWeightUni Pages: 1 -->
<!--zoomable 239 -->
<svg id="main" version="1.1" xmlns="http://www.w3.org/2000/svg" xmlns:xlink="http://www.w3.org/1999/xlink" xml:space="preserve" onload="init(evt)">
<style type="text/css"><![CDATA[
.edge:hover path { stroke: red; }
.edge:hover polygon { stroke: red; fill: red; }
]]></style>
<script type="text/javascript"><![CDATA[
var edges = document.getElementsByTagName('g');
if (edges && edges.length) {
  for (var i=0;i<edges.length;i++) {
    if (edges[i].id.substr(0,4)=='edge') {
      edges[i].setAttribute('class','edge');
    }
  }
}
]]></script>
        <defs>
                <circle id="rim" cx="0" cy="0" r="7"/>
                <circle id="rim2" cx="0" cy="0" r="3.5"/>
                <g id="zoomPlus">
                        <use xlink:href="#rim" fill="#404040">
                                <set attributeName="fill" to="#808080" begin="zoomplus.mouseover" end="zoomplus.mouseout"/>
                        </use>
                        <path d="M-4,0h8M0,-4v8" fill="none" stroke="white" stroke-width="1.5" pointer-events="none"/>
                </g>
                <g id="zoomMin">
                        <use xlink:href="#rim" fill="#404040">
                                <set attributeName="fill" to="#808080" begin="zoomminus.mouseover" end="zoomminus.mouseout"/>
                        </use>
                        <path d="M-4,0h8" fill="none" stroke="white" stroke-width="1.5" pointer-events="none"/>
                </g>
                <g id="dirArrow">
                        <path fill="none" stroke="white" stroke-width="1.5" d="M0,-3.0v7 M-2.5,-0.5L0,-3.0L2.5,-0.5"/>
                </g>
               <g id="resetDef">
                       <use xlink:href="#rim2" fill="#404040">
                               <set attributeName="fill" to="#808080" begin="reset.mouseover" end="reset.mouseout"/>
                       </use>
               </g>
        </defs>

<script type="text/javascript">
var viewWidth = 2324;
var viewHeight = 239;
var sectionId = 'dynsection-6';
</script>
<script xlink:href="svgpan.js"/>
<svg id="graph" class="graph">
<g id="viewport">
<title>x265::Predict::addWeightUni</title>
<polygon fill="white" stroke="none" points="-4,4 -4,-235 2320,-235 2320,4 -4,4"/>
<!-- Node1 -->
<g id="node1" class="node"><title>Node1</title>
<polygon fill="#bfbfbf" stroke="black" points="0,-114.5 0,-133.5 142,-133.5 142,-114.5 0,-114.5"/>
<text text-anchor="middle" x="71" y="-121.5" font-family="Helvetica,sans-Serif" font-size="10.00">x265::Predict::addWeightUni</text>
</g>
<!-- Node2 -->
<g id="node2" class="node"><title>Node2</title>
<g id="a_node2"><a xlink:href="classx265_1_1Predict.html#ab23a30d88a19749b5ddd7892d19e202f" target="_top" xlink:title="x265::Predict::motionCompensation">
<polygon fill="white" stroke="black" points="178.5,-114.5 178.5,-133.5 351.5,-133.5 351.5,-114.5 178.5,-114.5"/>
<text text-anchor="middle" x="265" y="-121.5" font-family="Helvetica,sans-Serif" font-size="10.00">x265::Predict::motionCompensation</text>
</a>
</g>
</g>
<!-- Node1&#45;&gt;Node2 -->
<g id="edge1" class="edge"><title>Node1&#45;&gt;Node2</title>
<path fill="none" stroke="midnightblue" d="M152.19,-124C160.842,-124 169.67,-124 178.383,-124"/>
<polygon fill="midnightblue" stroke="midnightblue" points="152.131,-120.5 142.131,-124 152.131,-127.5 152.131,-120.5"/>
</g>
<!-- Node3 -->
<g id="node3" class="node"><title>Node3</title>
<g id="a_node3"><a xlink:href="classx265_1_1Analysis.html#a87060ff27a37f56adc5f5b8a4c033ece" target="_top" xlink:title="x265::Analysis::compress\lInterCU_dist">
<polygon fill="white" stroke="black" points="1268,-159 1268,-189 1398,-189 1398,-159 1268,-159"/>
<text text-anchor="start" x="1276" y="-177" font-family="Helvetica,sans-Serif" font-size="10.00">x265::Analysis::compress</text>
<text text-anchor="middle" x="1333" y="-166" font-family="Helvetica,sans-Serif" font-size="10.00">InterCU_dist</text>
</a>
</g>
</g>
<!-- Node2&#45;&gt;Node3 -->
<g id="edge2" class="edge"><title>Node2&#45;&gt;Node3</title>
<path fill="none" stroke="midnightblue" d="M291.707,-138.326C315.883,-151.234 353.431,-169.846 388,-181 501.649,-217.672 532.581,-231 652,-231 652,-231 652,-231 1012,-231 1107.79,-231 1217.24,-205.938 1280.12,-189.051"/>
<polygon fill="midnightblue" stroke="midnightblue" points="293.284,-135.201 282.824,-133.519 289.952,-141.357 293.284,-135.201"/>
</g>
<!-- Node10 -->
<g id="node10" class="node"><title>Node10</title>
<g id="a_node10"><a xlink:href="classx265_1_1Analysis.html#a30d2ff7eca5addbb0a6b3dfe14f09650" target="_top" xlink:title="x265::Analysis::compress\lInterCU_rd0_4">
<polygon fill="white" stroke="black" points="946,-131 946,-161 1076,-161 1076,-131 946,-131"/>
<text text-anchor="start" x="954" y="-149" font-family="Helvetica,sans-Serif" font-size="10.00">x265::Analysis::compress</text>
<text text-anchor="middle" x="1011" y="-138" font-family="Helvetica,sans-Serif" font-size="10.00">InterCU_rd0_4</text>
</a>
</g>
</g>
<!-- Node2&#45;&gt;Node10 -->
<g id="edge9" class="edge"><title>Node2&#45;&gt;Node10</title>
<path fill="none" stroke="midnightblue" d="M362.109,-126.842C516.36,-131.403 815.11,-140.237 945.974,-144.107"/>
<polygon fill="midnightblue" stroke="midnightblue" points="361.808,-123.332 351.709,-126.534 361.602,-130.329 361.808,-123.332"/>
</g>
<!-- Node11 -->
<g id="node11" class="node"><title>Node11</title>
<g id="a_node11"><a xlink:href="classx265_1_1Analysis.html#addd72cb95590e2b2a6965d42d110eab3" target="_top" xlink:title="x265::Analysis::checkMerge2\lNx2N_rd0_4">
<polygon fill="white" stroke="black" points="764,-172 764,-202 910,-202 910,-172 764,-172"/>
<text text-anchor="start" x="772" y="-190" font-family="Helvetica,sans-Serif" font-size="10.00">x265::Analysis::checkMerge2</text>
<text text-anchor="middle" x="837" y="-179" font-family="Helvetica,sans-Serif" font-size="10.00">Nx2N_rd0_4</text>
</a>
</g>
</g>
<!-- Node2&#45;&gt;Node11 -->
<g id="edge11" class="edge"><title>Node2&#45;&gt;Node11</title>
<path fill="none" stroke="midnightblue" d="M304.919,-136.636C328.666,-143.815 359.784,-152.287 388,-157 519.284,-178.93 674.743,-184.952 763.722,-186.531"/>
<polygon fill="midnightblue" stroke="midnightblue" points="305.81,-133.248 295.223,-133.653 303.752,-139.939 305.81,-133.248"/>
</g>
<!-- Node12 -->
<g id="node12" class="node"><title>Node12</title>
<g id="a_node12"><a xlink:href="classx265_1_1Analysis.html#a0194a9da53aa95173fa1132ba3aea1c7" target="_top" xlink:title="x265::Analysis::checkMerge2\lNx2N_rd5_6">
<polygon fill="white" stroke="black" points="580,-0 580,-30 726,-30 726,-0 580,-0"/>
<text text-anchor="start" x="588" y="-18" font-family="Helvetica,sans-Serif" font-size="10.00">x265::Analysis::checkMerge2</text>
<text text-anchor="middle" x="653" y="-7" font-family="Helvetica,sans-Serif" font-size="10.00">Nx2N_rd5_6</text>
</a>
</g>
</g>
<!-- Node2&#45;&gt;Node12 -->
<g id="edge14" class="edge"><title>Node2&#45;&gt;Node12</title>
<path fill="none" stroke="midnightblue" d="M285.499,-108.068C308.49,-90.224 348.584,-61.9758 388,-48 450.363,-25.888 525.597,-18.1895 579.769,-15.6975"/>
<polygon fill="midnightblue" stroke="midnightblue" points="283.233,-105.398 277.561,-114.346 287.576,-110.888 283.233,-105.398"/>
</g>
<!-- Node14 -->
<g id="node14" class="node"><title>Node14</title>
<g id="a_node14"><a xlink:href="classx265_1_1Search.html#a761560ef5d3ff0beb48567c88c771d55" target="_top" xlink:title="x265::Search::mergeEstimation">
<polygon fill="white" stroke="black" points="388,-57.5 388,-76.5 542,-76.5 542,-57.5 388,-57.5"/>
<text text-anchor="middle" x="465" y="-64.5" font-family="Helvetica,sans-Serif" font-size="10.00">x265::Search::mergeEstimation</text>
</a>
</g>
</g>
<!-- Node2&#45;&gt;Node14 -->
<g id="edge17" class="edge"><title>Node2&#45;&gt;Node14</title>
<path fill="none" stroke="midnightblue" d="M309.022,-111.615C345.578,-101.091 397.303,-86.2007 430.751,-76.5716"/>
<polygon fill="midnightblue" stroke="midnightblue" points="307.782,-108.33 299.141,-114.459 309.719,-115.056 307.782,-108.33"/>
</g>
<!-- Node15 -->
<g id="node15" class="node"><title>Node15</title>
<g id="a_node15"><a xlink:href="classx265_1_1Search.html#a48101e3d900e93b97a83f461be390bd1" target="_top" xlink:title="x265::Search::predInterSearch">
<polygon fill="white" stroke="black" points="578.5,-58.5 578.5,-77.5 727.5,-77.5 727.5,-58.5 578.5,-58.5"/>
<text text-anchor="middle" x="653" y="-65.5" font-family="Helvetica,sans-Serif" font-size="10.00">x265::Search::predInterSearch</text>
</a>
</g>
</g>
<!-- Node2&#45;&gt;Node15 -->
<g id="edge26" class="edge"><title>Node2&#45;&gt;Node15</title>
<path fill="none" stroke="midnightblue" d="M349.018,-113.129C403.854,-105.811 477.274,-95.7499 542,-86 559.413,-83.377 578.346,-80.3443 595.518,-77.5247"/>
<polygon fill="midnightblue" stroke="midnightblue" points="348.452,-109.673 339.001,-114.463 349.376,-116.612 348.452,-109.673"/>
</g>
<!-- Node4 -->
<g id="node4" class="node"><title>Node4</title>
<g id="a_node4"><a xlink:href="classx265_1_1Analysis.html#aaebc9de2ff98834c650244f3b58942c2" target="_top" xlink:title="x265::Analysis::compressCTU">
<polygon fill="white" stroke="black" points="1434.5,-104.5 1434.5,-123.5 1585.5,-123.5 1585.5,-104.5 1434.5,-104.5"/>
<text text-anchor="middle" x="1510" y="-111.5" font-family="Helvetica,sans-Serif" font-size="10.00">x265::Analysis::compressCTU</text>
</a>
</g>
</g>
<!-- Node3&#45;&gt;Node4 -->
<g id="edge3" class="edge"><title>Node3&#45;&gt;Node4</title>
<path fill="none" stroke="midnightblue" d="M1387.93,-155.509C1418.82,-144.92 1456.28,-132.077 1481.27,-123.507"/>
<polygon fill="midnightblue" stroke="midnightblue" points="1386.48,-152.305 1378.16,-158.859 1388.75,-158.927 1386.48,-152.305"/>
</g>
<!-- Node5 -->
<g id="node5" class="node"><title>Node5</title>
<g id="a_node5"><a xlink:href="classx265_1_1FrameEncoder.html#a0ae85001572afd28238476542523ac5f" target="_top" xlink:title="x265::FrameEncoder\l::processRowEncoder">
<polygon fill="white" stroke="black" points="1622.5,-99 1622.5,-129 1735.5,-129 1735.5,-99 1622.5,-99"/>
<text text-anchor="start" x="1630.5" y="-117" font-family="Helvetica,sans-Serif" font-size="10.00">x265::FrameEncoder</text>
<text text-anchor="middle" x="1679" y="-106" font-family="Helvetica,sans-Serif" font-size="10.00">::processRowEncoder</text>
</a>
</g>
</g>
<!-- Node4&#45;&gt;Node5 -->
<g id="edge4" class="edge"><title>Node4&#45;&gt;Node5</title>
<path fill="none" stroke="midnightblue" d="M1595.86,-114C1604.86,-114 1613.85,-114 1622.39,-114"/>
<polygon fill="midnightblue" stroke="midnightblue" points="1595.71,-110.5 1585.71,-114 1595.71,-117.5 1595.71,-110.5"/>
</g>
<!-- Node6 -->
<g id="node6" class="node"><title>Node6</title>
<g id="a_node6"><a xlink:href="classx265_1_1FrameEncoder.html#acad645a8ece97d884895f8f7366b7d70" target="_top" xlink:title="x265::FrameEncoder\l::processRow">
<polygon fill="white" stroke="black" points="1772.5,-99 1772.5,-129 1879.5,-129 1879.5,-99 1772.5,-99"/>
<text text-anchor="start" x="1780.5" y="-117" font-family="Helvetica,sans-Serif" font-size="10.00">x265::FrameEncoder</text>
<text text-anchor="middle" x="1826" y="-106" font-family="Helvetica,sans-Serif" font-size="10.00">::processRow</text>
</a>
</g>
</g>
<!-- Node5&#45;&gt;Node6 -->
<g id="edge5" class="edge"><title>Node5&#45;&gt;Node6</title>
<path fill="none" stroke="midnightblue" d="M1745.88,-114C1754.67,-114 1763.59,-114 1772.13,-114"/>
<polygon fill="midnightblue" stroke="midnightblue" points="1745.65,-110.5 1735.65,-114 1745.65,-117.5 1745.65,-110.5"/>
</g>
<!-- Node7 -->
<g id="node7" class="node"><title>Node7</title>
<g id="a_node7"><a xlink:href="classx265_1_1FrameEncoder.html#ac4e9ce2e876c0cdb25c992c872fe4302" target="_top" xlink:title="x265::FrameEncoder\l::compressCTURows">
<polygon fill="white" stroke="black" points="1916,-99 1916,-129 2028,-129 2028,-99 1916,-99"/>
<text text-anchor="start" x="1924" y="-117" font-family="Helvetica,sans-Serif" font-size="10.00">x265::FrameEncoder</text>
<text text-anchor="middle" x="1972" y="-106" font-family="Helvetica,sans-Serif" font-size="10.00">::compressCTURows</text>
</a>
</g>
</g>
<!-- Node6&#45;&gt;Node7 -->
<g id="edge6" class="edge"><title>Node6&#45;&gt;Node7</title>
<path fill="none" stroke="midnightblue" d="M1889.83,-114C1898.48,-114 1907.3,-114 1915.79,-114"/>
<polygon fill="midnightblue" stroke="midnightblue" points="1889.8,-110.5 1879.8,-114 1889.8,-117.5 1889.8,-110.5"/>
</g>
<!-- Node8 -->
<g id="node8" class="node"><title>Node8</title>
<g id="a_node8"><a xlink:href="classx265_1_1FrameEncoder.html#a2f5c4c0f1a4e36fce4c9b87eb7ec4973" target="_top" xlink:title="x265::FrameEncoder\l::compressFrame">
<polygon fill="white" stroke="black" points="2064.5,-99 2064.5,-129 2171.5,-129 2171.5,-99 2064.5,-99"/>
<text text-anchor="start" x="2072.5" y="-117" font-family="Helvetica,sans-Serif" font-size="10.00">x265::FrameEncoder</text>
<text text-anchor="middle" x="2118" y="-106" font-family="Helvetica,sans-Serif" font-size="10.00">::compressFrame</text>
</a>
</g>
</g>
<!-- Node7&#45;&gt;Node8 -->
<g id="edge7" class="edge"><title>Node7&#45;&gt;Node8</title>
<path fill="none" stroke="midnightblue" d="M2038.42,-114C2047.15,-114 2056.02,-114 2064.49,-114"/>
<polygon fill="midnightblue" stroke="midnightblue" points="2038.26,-110.5 2028.26,-114 2038.26,-117.5 2038.26,-110.5"/>
</g>
<!-- Node9 -->
<g id="node9" class="node"><title>Node9</title>
<g id="a_node9"><a xlink:href="classx265_1_1FrameEncoder.html#aef61f29b9e93b3af9255d96236bc90a7" target="_top" xlink:title="x265::FrameEncoder\l::threadMain">
<polygon fill="white" stroke="black" points="2208.5,-99 2208.5,-129 2315.5,-129 2315.5,-99 2208.5,-99"/>
<text text-anchor="start" x="2216.5" y="-117" font-family="Helvetica,sans-Serif" font-size="10.00">x265::FrameEncoder</text>
<text text-anchor="middle" x="2262" y="-106" font-family="Helvetica,sans-Serif" font-size="10.00">::threadMain</text>
</a>
</g>
</g>
<!-- Node8&#45;&gt;Node9 -->
<g id="edge8" class="edge"><title>Node8&#45;&gt;Node9</title>
<path fill="none" stroke="midnightblue" d="M2181.99,-114C2190.7,-114 2199.58,-114 2208.08,-114"/>
<polygon fill="midnightblue" stroke="midnightblue" points="2181.88,-110.5 2171.88,-114 2181.88,-117.5 2181.88,-110.5"/>
</g>
<!-- Node10&#45;&gt;Node4 -->
<g id="edge10" class="edge"><title>Node10&#45;&gt;Node4</title>
<path fill="none" stroke="midnightblue" d="M1086.3,-135.659C1094.96,-134.657 1103.66,-133.74 1112,-133 1224.03,-123.054 1354.35,-118.07 1434.24,-115.763"/>
<polygon fill="midnightblue" stroke="midnightblue" points="1085.71,-132.204 1076.2,-136.868 1086.54,-139.155 1085.71,-132.204"/>
</g>
<!-- Node11&#45;&gt;Node3 -->
<g id="edge12" class="edge"><title>Node11&#45;&gt;Node3</title>
<path fill="none" stroke="midnightblue" d="M920.217,-184.836C1017.84,-182.267 1178.6,-178.037 1267.63,-175.694"/>
<polygon fill="midnightblue" stroke="midnightblue" points="920.001,-181.341 910.096,-185.103 920.185,-188.338 920.001,-181.341"/>
</g>
<!-- Node11&#45;&gt;Node10 -->
<g id="edge13" class="edge"><title>Node11&#45;&gt;Node10</title>
<path fill="none" stroke="midnightblue" d="M911.008,-169.597C922.959,-166.748 935.253,-163.818 946.938,-161.032"/>
<polygon fill="midnightblue" stroke="midnightblue" points="909.986,-166.242 901.07,-171.966 911.609,-173.052 909.986,-166.242"/>
</g>
<!-- Node13 -->
<g id="node13" class="node"><title>Node13</title>
<g id="a_node13"><a xlink:href="classx265_1_1Analysis.html#a0b22b7765aa4a36b1ba6d07ba26901e6" target="_top" xlink:title="x265::Analysis::compress\lInterCU_rd5_6">
<polygon fill="white" stroke="black" points="946,-33 946,-63 1076,-63 1076,-33 946,-33"/>
<text text-anchor="start" x="954" y="-51" font-family="Helvetica,sans-Serif" font-size="10.00">x265::Analysis::compress</text>
<text text-anchor="middle" x="1011" y="-40" font-family="Helvetica,sans-Serif" font-size="10.00">InterCU_rd5_6</text>
</a>
</g>
</g>
<!-- Node12&#45;&gt;Node13 -->
<g id="edge15" class="edge"><title>Node12&#45;&gt;Node13</title>
<path fill="none" stroke="midnightblue" d="M736.218,-14.3164C786.587,-14.8618 852.255,-17.3004 910,-25 924.038,-26.8718 939.001,-29.7992 952.961,-32.9459"/>
<polygon fill="midnightblue" stroke="midnightblue" points="736.063,-10.815 726.033,-14.2295 736.003,-17.8148 736.063,-10.815"/>
</g>
<!-- Node13&#45;&gt;Node4 -->
<g id="edge16" class="edge"><title>Node13&#45;&gt;Node4</title>
<path fill="none" stroke="midnightblue" d="M1086.29,-57.8657C1181.06,-70.4504 1343.84,-92.0675 1437.33,-104.483"/>
<polygon fill="midnightblue" stroke="midnightblue" points="1086.58,-54.3739 1076.21,-56.5269 1085.66,-61.313 1086.58,-54.3739"/>
</g>
<!-- Node14&#45;&gt;Node15 -->
<g id="edge18" class="edge"><title>Node14&#45;&gt;Node15</title>
<path fill="none" stroke="midnightblue" d="M552.336,-67.4642C561.024,-67.5109 569.791,-67.558 578.33,-67.6039"/>
<polygon fill="midnightblue" stroke="midnightblue" points="552.209,-63.9635 542.19,-67.4096 552.171,-70.9634 552.209,-63.9635"/>
</g>
<!-- Node16 -->
<g id="node16" class="node"><title>Node16</title>
<g id="a_node16"><a xlink:href="classx265_1_1Analysis.html#a2305f7985af66b49fdbc40ebb1b281d2" target="_top" xlink:title="x265::Analysis::checkInter\l_rd0_4">
<polygon fill="white" stroke="black" points="770.5,-84 770.5,-114 903.5,-114 903.5,-84 770.5,-84"/>
<text text-anchor="start" x="778.5" y="-102" font-family="Helvetica,sans-Serif" font-size="10.00">x265::Analysis::checkInter</text>
<text text-anchor="middle" x="837" y="-91" font-family="Helvetica,sans-Serif" font-size="10.00">_rd0_4</text>
</a>
</g>
</g>
<!-- Node15&#45;&gt;Node16 -->
<g id="edge19" class="edge"><title>Node15&#45;&gt;Node16</title>
<path fill="none" stroke="midnightblue" d="M720.084,-79.2561C736.407,-82.0364 753.89,-85.0142 770.199,-87.7922"/>
<polygon fill="midnightblue" stroke="midnightblue" points="720.537,-75.7829 710.091,-77.554 719.361,-82.6835 720.537,-75.7829"/>
</g>
<!-- Node19 -->
<g id="node19" class="node"><title>Node19</title>
<g id="a_node19"><a xlink:href="classx265_1_1Analysis.html#a828daa3e9f1ed40a1af9f99f7ff7bb33" target="_top" xlink:title="x265::Analysis::checkInter\l_rd5_6">
<polygon fill="white" stroke="black" points="770.5,-35 770.5,-65 903.5,-65 903.5,-35 770.5,-35"/>
<text text-anchor="start" x="778.5" y="-53" font-family="Helvetica,sans-Serif" font-size="10.00">x265::Analysis::checkInter</text>
<text text-anchor="middle" x="837" y="-42" font-family="Helvetica,sans-Serif" font-size="10.00">_rd5_6</text>
</a>
</g>
</g>
<!-- Node15&#45;&gt;Node19 -->
<g id="edge24" class="edge"><title>Node15&#45;&gt;Node19</title>
<path fill="none" stroke="midnightblue" d="M737.569,-59.7349C748.597,-58.6442 759.771,-57.5391 770.438,-56.4841"/>
<polygon fill="midnightblue" stroke="midnightblue" points="737.109,-56.2633 727.502,-60.7306 737.798,-63.2293 737.109,-56.2633"/>
</g>
<!-- Node16&#45;&gt;Node10 -->
<g id="edge23" class="edge"><title>Node16&#45;&gt;Node10</title>
<path fill="none" stroke="midnightblue" d="M902.853,-116.722C920.041,-121.418 938.431,-126.443 955.037,-130.981"/>
<polygon fill="midnightblue" stroke="midnightblue" points="903.464,-113.26 892.895,-114 901.619,-120.013 903.464,-113.26"/>
</g>
<!-- Node17 -->
<g id="node17" class="node"><title>Node17</title>
<g id="a_node17"><a xlink:href="classx265_1_1Analysis.html#aa6122285d10bb1bd7584958b88b029d5" target="_top" xlink:title="x265::Analysis::parallel\lModeAnalysis">
<polygon fill="white" stroke="black" points="952,-82 952,-112 1070,-112 1070,-82 952,-82"/>
<text text-anchor="start" x="960" y="-100" font-family="Helvetica,sans-Serif" font-size="10.00">x265::Analysis::parallel</text>
<text text-anchor="middle" x="1011" y="-89" font-family="Helvetica,sans-Serif" font-size="10.00">ModeAnalysis</text>
</a>
</g>
</g>
<!-- Node16&#45;&gt;Node17 -->
<g id="edge20" class="edge"><title>Node16&#45;&gt;Node17</title>
<path fill="none" stroke="midnightblue" d="M913.72,-98.1195C926.554,-97.9703 939.698,-97.8175 951.986,-97.6746"/>
<polygon fill="midnightblue" stroke="midnightblue" points="913.475,-94.622 903.516,-98.2382 913.557,-101.622 913.475,-94.622"/>
</g>
<!-- Node18 -->
<g id="node18" class="node"><title>Node18</title>
<g id="a_node18"><a xlink:href="classx265_1_1Analysis.html#a29a58dad4cc1c07d2f5e5717c6be7c25" target="_top" xlink:title="x265::Analysis::findJob">
<polygon fill="white" stroke="black" points="1112.5,-142.5 1112.5,-161.5 1231.5,-161.5 1231.5,-142.5 1112.5,-142.5"/>
<text text-anchor="middle" x="1172" y="-149.5" font-family="Helvetica,sans-Serif" font-size="10.00">x265::Analysis::findJob</text>
</a>
</g>
</g>
<!-- Node17&#45;&gt;Node18 -->
<g id="edge21" class="edge"><title>Node17&#45;&gt;Node18</title>
<path fill="none" stroke="midnightblue" d="M1065.21,-115.406C1091.3,-124.43 1121.64,-134.926 1143.12,-142.357"/>
<polygon fill="midnightblue" stroke="midnightblue" points="1066.04,-111.99 1055.45,-112.029 1063.75,-118.606 1066.04,-111.99"/>
</g>
<!-- Node18&#45;&gt;Node3 -->
<g id="edge22" class="edge"><title>Node18&#45;&gt;Node3</title>
<path fill="none" stroke="midnightblue" d="M1241.81,-161.521C1250.47,-162.719 1259.29,-163.94 1267.87,-165.127"/>
<polygon fill="midnightblue" stroke="midnightblue" points="1242.14,-158.033 1231.75,-160.129 1241.18,-164.967 1242.14,-158.033"/>
</g>
<!-- Node19&#45;&gt;Node13 -->
<g id="edge25" class="edge"><title>Node19&#45;&gt;Node13</title>
<path fill="none" stroke="midnightblue" d="M913.698,-49.1198C924.409,-48.9952 935.336,-48.8682 945.803,-48.7465"/>
<polygon fill="midnightblue" stroke="midnightblue" points="913.475,-45.622 903.516,-49.2382 913.557,-52.6216 913.475,-45.622"/>
</g>
</g>
</svg>
        <g id="navigator" transform="translate(0 0)" fill="#404254">
                <rect fill="#f2f5e9" fill-opacity="0.5" stroke="#606060" stroke-width=".5" x="0" y="0" width="60" height="60"/>
                <use id="zoomplus" xlink:href="#zoomPlus" x="17" y="9" onmousedown="handleZoom(evt,'in')"/>
                <use id="zoomminus" xlink:href="#zoomMin" x="42" y="9" onmousedown="handleZoom(evt,'out')"/>
                <use id="reset" xlink:href="#resetDef" x="30" y="36" onmousedown="handleReset()"/>
                <g id="arrowUp" xlink:href="#dirArrow" transform="translate(30 24)" onmousedown="handlePan(0,-1)">
                  <use xlink:href="#rim" fill="#404040">
                        <set attributeName="fill" to="#808080" begin="arrowUp.mouseover" end="arrowUp.mouseout"/>
                  </use>
                  <path fill="none" stroke="white" stroke-width="1.5" d="M0,-3.0v7 M-2.5,-0.5L0,-3.0L2.5,-0.5"/>
                </g>
                <g id="arrowRight" xlink:href="#dirArrow" transform="rotate(90) translate(36 -43)" onmousedown="handlePan(1,0)">
                  <use xlink:href="#rim" fill="#404040">
                        <set attributeName="fill" to="#808080" begin="arrowRight.mouseover" end="arrowRight.mouseout"/>
                  </use>
                  <path fill="none" stroke="white" stroke-width="1.5" d="M0,-3.0v7 M-2.5,-0.5L0,-3.0L2.5,-0.5"/>
                </g>
                <g id="arrowDown" xlink:href="#dirArrow" transform="rotate(180) translate(-30 -48)" onmousedown="handlePan(0,1)">
                  <use xlink:href="#rim" fill="#404040">
                        <set attributeName="fill" to="#808080" begin="arrowDown.mouseover" end="arrowDown.mouseout"/>
                  </use>
                  <path fill="none" stroke="white" stroke-width="1.5" d="M0,-3.0v7 M-2.5,-0.5L0,-3.0L2.5,-0.5"/>
                </g>
                <g id="arrowLeft" xlink:href="#dirArrow" transform="rotate(270) translate(-36 17)" onmousedown="handlePan(-1,0)">
                  <use xlink:href="#rim" fill="#404040">
                        <set attributeName="fill" to="#808080" begin="arrowLeft.mouseover" end="arrowLeft.mouseout"/>
                  </use>
                  <path fill="none" stroke="white" stroke-width="1.5" d="M0,-3.0v7 M-2.5,-0.5L0,-3.0L2.5,-0.5"/>
                </g>
        </g>
        <svg viewBox="0 0 15 15" width="100%" height="30px" preserveAspectRatio="xMaxYMin meet">
         <g id="arrow_out" transform="scale(0.3 0.3)">
          <a xlink:href="classx265_1_1Predict_ab6d43dbcad99d42321aa05dc0eab87e9_icgraph_org.svg" target="_base">
           <rect id="button" ry="5" rx="5" y="6" x="6" height="38" width="38"
                fill="#f2f5e9" fill-opacity="0.5" stroke="#606060" stroke-width="1.0"/>
           <path id="arrow"
             d="M 11.500037,31.436501 C 11.940474,20.09759 22.043105,11.32322 32.158766,21.979434 L 37.068811,17.246167 C 37.068811,17.246167 37.088388,32 37.088388,32 L 22.160133,31.978069 C 22.160133,31.978069 26.997745,27.140456 26.997745,27.140456 C 18.528582,18.264221 13.291696,25.230495 11.500037,31.436501 z"
             style="fill:#404040;"/>
          </a>
         </g>
        </svg>
</svg>
