<?xml version="1.0" encoding="UTF-8" standalone="no"?>
<!DOCTYPE svg PUBLIC "-//W3C//DTD SVG 1.1//EN"
 "http://www.w3.org/Graphics/SVG/1.1/DTD/svg11.dtd">
<!-- Generated by graphviz version 2.36.0 (20140111.2315)
 -->
<!-- Title: x265::BitInterface::resetBits Pages: 1 -->
<svg width="1872pt" height="671pt"
 viewBox="0.00 0.00 1872.00 671.00" xmlns="http://www.w3.org/2000/svg" xmlns:xlink="http://www.w3.org/1999/xlink">
<g id="graph0" class="graph" transform="scale(1 1) rotate(0) translate(4 667)">
<title>x265::BitInterface::resetBits</title>
<polygon fill="white" stroke="none" points="-4,4 -4,-667 1868,-667 1868,4 -4,4"/>
<!-- Node1 -->
<g id="node1" class="node"><title>Node1</title>
<polygon fill="#bfbfbf" stroke="black" points="0,-242 0,-272 94,-272 94,-242 0,-242"/>
<text text-anchor="start" x="8" y="-260" font-family="Helvetica,sans-Serif" font-size="10.00">x265::BitInterface</text>
<text text-anchor="middle" x="47" y="-249" font-family="Helvetica,sans-Serif" font-size="10.00">::resetBits</text>
</g>
<!-- Node2 -->
<g id="node2" class="node"><title>Node2</title>
<g id="a_node2"><a xlink:href="classx265_1_1Entropy.html#abfcde0e06b9eacfac4bfe0784eb7c967" target="_top" xlink:title="x265::Entropy::resetBits">
<polygon fill="white" stroke="black" points="130,-247.5 130,-266.5 252,-266.5 252,-247.5 130,-247.5"/>
<text text-anchor="middle" x="191" y="-254.5" font-family="Helvetica,sans-Serif" font-size="10.00">x265::Entropy::resetBits</text>
</a>
</g>
</g>
<!-- Node1&#45;&gt;Node2 -->
<g id="edge1" class="edge"><title>Node1&#45;&gt;Node2</title>
<path fill="none" stroke="midnightblue" d="M104.218,-257C112.656,-257 121.387,-257 129.902,-257"/>
<polygon fill="midnightblue" stroke="midnightblue" points="104.103,-253.5 94.1033,-257 104.103,-260.5 104.103,-253.5"/>
</g>
<!-- Node3 -->
<g id="node3" class="node"><title>Node3</title>
<g id="a_node3"><a xlink:href="classx265_1_1Analysis.html#ae4d61bcf4d2c22a054d68d6d77136428" target="_top" xlink:title="x265::Analysis::encodeIntra\lInInter">
<polygon fill="white" stroke="black" points="707,-502 707,-532 845,-532 845,-502 707,-502"/>
<text text-anchor="start" x="715" y="-520" font-family="Helvetica,sans-Serif" font-size="10.00">x265::Analysis::encodeIntra</text>
<text text-anchor="middle" x="776" y="-509" font-family="Helvetica,sans-Serif" font-size="10.00">InInter</text>
</a>
</g>
</g>
<!-- Node2&#45;&gt;Node3 -->
<g id="edge2" class="edge"><title>Node2&#45;&gt;Node3</title>
<path fill="none" stroke="midnightblue" d="M193.126,-276.901C196.994,-324.261 213.991,-443.613 288,-496 419.24,-588.898 623.931,-555.468 720.751,-532.056"/>
<polygon fill="midnightblue" stroke="midnightblue" points="196.604,-276.462 192.412,-266.732 189.621,-276.952 196.604,-276.462"/>
</g>
<!-- Node11 -->
<g id="node11" class="node"><title>Node11</title>
<g id="a_node11"><a xlink:href="classx265_1_1Analysis.html#a0796e917a2fe8334eba82a1062d7f48b" target="_top" xlink:title="x265::Analysis::addSplit\lFlagCost">
<polygon fill="white" stroke="black" points="1082,-189 1082,-219 1204,-219 1204,-189 1082,-189"/>
<text text-anchor="start" x="1090" y="-207" font-family="Helvetica,sans-Serif" font-size="10.00">x265::Analysis::addSplit</text>
<text text-anchor="middle" x="1143" y="-196" font-family="Helvetica,sans-Serif" font-size="10.00">FlagCost</text>
</a>
</g>
</g>
<!-- Node2&#45;&gt;Node11 -->
<g id="edge12" class="edge"><title>Node2&#45;&gt;Node11</title>
<path fill="none" stroke="midnightblue" d="M202.825,-238.942C218.339,-214.897 249.335,-173.178 288,-154 407.251,-94.8511 452.886,-124 586,-124 586,-124 586,-124 777,-124 891.534,-124 929.873,-95.2961 1034,-143 1054.57,-152.424 1050.83,-166.984 1070,-179 1076.05,-182.794 1082.76,-186.1 1089.57,-188.955"/>
<polygon fill="midnightblue" stroke="midnightblue" points="199.816,-237.154 197.484,-247.489 205.752,-240.863 199.816,-237.154"/>
</g>
<!-- Node14 -->
<g id="node14" class="node"><title>Node14</title>
<g id="a_node14"><a xlink:href="classx265_1_1Entropy.html#ada027e64bb3fcdc48c94cefda1bbaba9" target="_top" xlink:title="x265::Entropy::finishCU">
<polygon fill="white" stroke="black" points="319,-565.5 319,-584.5 441,-584.5 441,-565.5 319,-565.5"/>
<text text-anchor="middle" x="380" y="-572.5" font-family="Helvetica,sans-Serif" font-size="10.00">x265::Entropy::finishCU</text>
</a>
</g>
</g>
<!-- Node2&#45;&gt;Node14 -->
<g id="edge19" class="edge"><title>Node2&#45;&gt;Node14</title>
<path fill="none" stroke="midnightblue" d="M192.957,-276.621C196.485,-327.508 212.854,-465.106 288,-542 298.924,-553.178 313.92,-560.589 328.589,-565.496"/>
<polygon fill="midnightblue" stroke="midnightblue" points="196.45,-276.399 192.357,-266.627 189.462,-276.819 196.45,-276.399"/>
</g>
<!-- Node18 -->
<g id="node18" class="node"><title>Node18</title>
<g id="a_node18"><a xlink:href="classx265_1_1SAO.html#a06d0839d18ce2c3fad5438d917467130" target="_top" xlink:title="x265::SAO::rdoSaoUnitRow">
<polygon fill="white" stroke="black" points="517,-19.5 517,-38.5 657,-38.5 657,-19.5 517,-19.5"/>
<text text-anchor="middle" x="587" y="-26.5" font-family="Helvetica,sans-Serif" font-size="10.00">x265::SAO::rdoSaoUnitRow</text>
</a>
</g>
</g>
<!-- Node2&#45;&gt;Node18 -->
<g id="edge24" class="edge"><title>Node2&#45;&gt;Node18</title>
<path fill="none" stroke="midnightblue" d="M199.013,-237.781C211.647,-205.978 241.342,-142.674 288,-110 356.791,-61.8263 391.19,-89.8584 472,-67 502.313,-58.4256 536.528,-46.7455 559.496,-38.6067"/>
<polygon fill="midnightblue" stroke="midnightblue" points="195.687,-236.679 195.382,-247.27 202.225,-239.181 195.687,-236.679"/>
</g>
<!-- Node21 -->
<g id="node21" class="node"><title>Node21</title>
<g id="a_node21"><a xlink:href="classx265_1_1SAO.html#a53c829d9f4083d4fec9df488222a8d9e" target="_top" xlink:title="x265::SAO::saoComponentParamDist">
<polygon fill="white" stroke="black" points="288.5,-38.5 288.5,-57.5 471.5,-57.5 471.5,-38.5 288.5,-38.5"/>
<text text-anchor="middle" x="380" y="-45.5" font-family="Helvetica,sans-Serif" font-size="10.00">x265::SAO::saoComponentParamDist</text>
</a>
</g>
</g>
<!-- Node2&#45;&gt;Node21 -->
<g id="edge28" class="edge"><title>Node2&#45;&gt;Node21</title>
<path fill="none" stroke="midnightblue" d="M196.542,-237.341C206.361,-199.372 233.234,-115.836 288,-72 295.909,-65.6698 305.324,-60.998 315.053,-57.5528"/>
<polygon fill="midnightblue" stroke="midnightblue" points="193.114,-236.625 194.123,-247.171 199.911,-238.298 193.114,-236.625"/>
</g>
<!-- Node22 -->
<g id="node22" class="node"><title>Node22</title>
<g id="a_node22"><a xlink:href="classx265_1_1SAO.html#a78639ed647d95ab7582ae39abe3e0524" target="_top" xlink:title="x265::SAO::sao2ChromaParamDist">
<polygon fill="white" stroke="black" points="293.5,-0.5 293.5,-19.5 466.5,-19.5 466.5,-0.5 293.5,-0.5"/>
<text text-anchor="middle" x="380" y="-7.5" font-family="Helvetica,sans-Serif" font-size="10.00">x265::SAO::sao2ChromaParamDist</text>
</a>
</g>
</g>
<!-- Node2&#45;&gt;Node22 -->
<g id="edge30" class="edge"><title>Node2&#45;&gt;Node22</title>
<path fill="none" stroke="midnightblue" d="M194.204,-237.247C200.285,-192.643 221.52,-83.7629 288,-29 292.609,-25.2033 297.787,-22.1071 303.273,-19.5884"/>
<polygon fill="midnightblue" stroke="midnightblue" points="190.708,-236.998 192.941,-247.355 197.654,-237.867 190.708,-236.998"/>
</g>
<!-- Node23 -->
<g id="node23" class="node"><title>Node23</title>
<g id="a_node23"><a xlink:href="classx265_1_1Search.html#a59b84ac1e21c86af579b6e84e43c5b7a" target="_top" xlink:title="x265::Search::codeIntraLumaQT">
<polygon fill="white" stroke="black" points="508,-442.5 508,-461.5 666,-461.5 666,-442.5 508,-442.5"/>
<text text-anchor="middle" x="587" y="-449.5" font-family="Helvetica,sans-Serif" font-size="10.00">x265::Search::codeIntraLumaQT</text>
</a>
</g>
</g>
<!-- Node2&#45;&gt;Node23 -->
<g id="edge32" class="edge"><title>Node2&#45;&gt;Node23</title>
<path fill="none" stroke="midnightblue" d="M201.329,-275.738C215.933,-303.062 246.836,-353.466 288,-380 354.545,-422.895 444.37,-440.25 507.953,-447.263"/>
<polygon fill="midnightblue" stroke="midnightblue" points="204.407,-274.07 196.697,-266.802 198.192,-277.291 204.407,-274.07"/>
</g>
<!-- Node25 -->
<g id="node25" class="node"><title>Node25</title>
<g id="a_node25"><a xlink:href="classx265_1_1Search.html#ab02df91827cf67796d1605bde60c6aed" target="_top" xlink:title="x265::Search::checkIntra">
<polygon fill="white" stroke="black" points="897,-218.5 897,-237.5 1023,-237.5 1023,-218.5 897,-218.5"/>
<text text-anchor="middle" x="960" y="-225.5" font-family="Helvetica,sans-Serif" font-size="10.00">x265::Search::checkIntra</text>
</a>
</g>
</g>
<!-- Node2&#45;&gt;Node25 -->
<g id="edge47" class="edge"><title>Node2&#45;&gt;Node25</title>
<path fill="none" stroke="midnightblue" d="M219.267,-243.002C238.042,-234.176 263.86,-223.604 288,-219 508.585,-176.931 777.392,-203.314 896.755,-218.919"/>
<polygon fill="midnightblue" stroke="midnightblue" points="217.616,-239.913 210.137,-247.418 220.664,-246.215 217.616,-239.913"/>
</g>
<!-- Node27 -->
<g id="node27" class="node"><title>Node27</title>
<g id="a_node27"><a xlink:href="classx265_1_1Search.html#a0ec5d297bb4eba4e9445ff67b35b95fa" target="_top" xlink:title="x265::Search::codeIntraChromaQt">
<polygon fill="white" stroke="black" points="297,-228.5 297,-247.5 463,-247.5 463,-228.5 297,-228.5"/>
<text text-anchor="middle" x="380" y="-235.5" font-family="Helvetica,sans-Serif" font-size="10.00">x265::Search::codeIntraChromaQt</text>
</a>
</g>
</g>
<!-- Node2&#45;&gt;Node27 -->
<g id="edge43" class="edge"><title>Node2&#45;&gt;Node27</title>
<path fill="none" stroke="midnightblue" d="M262.356,-249.852C273.585,-248.711 285.29,-247.521 296.764,-246.355"/>
<polygon fill="midnightblue" stroke="midnightblue" points="261.792,-246.391 252.197,-250.884 262.5,-253.355 261.792,-246.391"/>
</g>
<!-- Node28 -->
<g id="node28" class="node"><title>Node28</title>
<g id="a_node28"><a xlink:href="classx265_1_1Search.html#a70d466b561a7463b8ec5a213384ae667" target="_top" xlink:title="x265::Search::estIntraPred\lChromaQT">
<polygon fill="white" stroke="black" points="520,-229 520,-259 654,-259 654,-229 520,-229"/>
<text text-anchor="start" x="528" y="-247" font-family="Helvetica,sans-Serif" font-size="10.00">x265::Search::estIntraPred</text>
<text text-anchor="middle" x="587" y="-236" font-family="Helvetica,sans-Serif" font-size="10.00">ChromaQT</text>
</a>
</g>
</g>
<!-- Node2&#45;&gt;Node28 -->
<g id="edge48" class="edge"><title>Node2&#45;&gt;Node28</title>
<path fill="none" stroke="midnightblue" d="M262.418,-259.209C319.08,-260.454 400.725,-261.051 472,-257 487.513,-256.118 504.155,-254.567 519.799,-252.836"/>
<polygon fill="midnightblue" stroke="midnightblue" points="262.216,-255.703 252.137,-258.97 262.053,-262.701 262.216,-255.703"/>
</g>
<!-- Node29 -->
<g id="node29" class="node"><title>Node29</title>
<g id="a_node29"><a xlink:href="classx265_1_1Search.html#a4e3f1622d206a6883cb41567c63e106f" target="_top" xlink:title="x265::Search::encodeResAnd\lCalcRdSkipCU">
<polygon fill="white" stroke="black" points="886.5,-153 886.5,-183 1033.5,-183 1033.5,-153 886.5,-153"/>
<text text-anchor="start" x="894.5" y="-171" font-family="Helvetica,sans-Serif" font-size="10.00">x265::Search::encodeResAnd</text>
<text text-anchor="middle" x="960" y="-160" font-family="Helvetica,sans-Serif" font-size="10.00">CalcRdSkipCU</text>
</a>
</g>
</g>
<!-- Node2&#45;&gt;Node29 -->
<g id="edge49" class="edge"><title>Node2&#45;&gt;Node29</title>
<path fill="none" stroke="midnightblue" d="M210.551,-240.652C228.827,-225.667 258.255,-204.424 288,-195 496.947,-128.798 760.878,-145.269 886.349,-158.69"/>
<polygon fill="midnightblue" stroke="midnightblue" points="207.909,-238.302 202.523,-247.426 212.423,-243.652 207.909,-238.302"/>
</g>
<!-- Node32 -->
<g id="node32" class="node"><title>Node32</title>
<g id="a_node32"><a xlink:href="classx265_1_1Search.html#aba5e04ce529f41accd43c540ba1dc7ad" target="_top" xlink:title="x265::Search::encodeResAnd\lCalcRdInterCU">
<polygon fill="white" stroke="black" points="886.5,-276 886.5,-306 1033.5,-306 1033.5,-276 886.5,-276"/>
<text text-anchor="start" x="894.5" y="-294" font-family="Helvetica,sans-Serif" font-size="10.00">x265::Search::encodeResAnd</text>
<text text-anchor="middle" x="960" y="-283" font-family="Helvetica,sans-Serif" font-size="10.00">CalcRdInterCU</text>
</a>
</g>
</g>
<!-- Node2&#45;&gt;Node32 -->
<g id="edge55" class="edge"><title>Node2&#45;&gt;Node32</title>
<path fill="none" stroke="midnightblue" d="M251.187,-268.182C263.323,-270.103 276.043,-271.849 288,-273 504.917,-293.885 762.967,-293.863 886.314,-292.334"/>
<polygon fill="midnightblue" stroke="midnightblue" points="251.594,-264.702 241.159,-266.536 250.46,-271.609 251.594,-264.702"/>
</g>
<!-- Node34 -->
<g id="node34" class="node"><title>Node34</title>
<g id="a_node34"><a xlink:href="classx265_1_1Search.html#a9f01b6f04dca31dca9f16e60d1c029b3" target="_top" xlink:title="x265::Search::xEstimateResidualQT">
<polygon fill="white" stroke="black" points="292,-467.5 292,-486.5 468,-486.5 468,-467.5 292,-467.5"/>
<text text-anchor="middle" x="380" y="-474.5" font-family="Helvetica,sans-Serif" font-size="10.00">x265::Search::xEstimateResidualQT</text>
</a>
</g>
</g>
<!-- Node2&#45;&gt;Node34 -->
<g id="edge63" class="edge"><title>Node2&#45;&gt;Node34</title>
<path fill="none" stroke="midnightblue" d="M198.822,-276.318C211.667,-310.397 242.321,-381.849 288,-427 306.718,-445.501 333.684,-459.162 353.402,-467.486"/>
<polygon fill="midnightblue" stroke="midnightblue" points="202.006,-274.834 195.281,-266.647 195.433,-277.241 202.006,-274.834"/>
</g>
<!-- Node35 -->
<g id="node35" class="node"><title>Node35</title>
<g id="a_node35"><a xlink:href="classx265_1_1Search.html#a74bb6c5a121190c14d380a7d26cf9271" target="_top" xlink:title="x265::Search::getIntraModeBits">
<polygon fill="white" stroke="black" points="302.5,-351.5 302.5,-370.5 457.5,-370.5 457.5,-351.5 302.5,-351.5"/>
<text text-anchor="middle" x="380" y="-358.5" font-family="Helvetica,sans-Serif" font-size="10.00">x265::Search::getIntraModeBits</text>
</a>
</g>
</g>
<!-- Node2&#45;&gt;Node35 -->
<g id="edge65" class="edge"><title>Node2&#45;&gt;Node35</title>
<path fill="none" stroke="midnightblue" d="M210.5,-273.235C229.071,-288.895 259.01,-312.45 288,-328 306.215,-337.771 327.934,-345.771 345.585,-351.446"/>
<polygon fill="midnightblue" stroke="midnightblue" points="212.684,-270.498 202.812,-266.653 208.132,-275.815 212.684,-270.498"/>
</g>
<!-- Node4 -->
<g id="node4" class="node"><title>Node4</title>
<g id="a_node4"><a xlink:href="classx265_1_1Analysis.html#aa6122285d10bb1bd7584958b88b029d5" target="_top" xlink:title="x265::Analysis::parallel\lModeAnalysis">
<polygon fill="white" stroke="black" points="901,-468 901,-498 1019,-498 1019,-468 901,-468"/>
<text text-anchor="start" x="909" y="-486" font-family="Helvetica,sans-Serif" font-size="10.00">x265::Analysis::parallel</text>
<text text-anchor="middle" x="960" y="-475" font-family="Helvetica,sans-Serif" font-size="10.00">ModeAnalysis</text>
</a>
</g>
</g>
<!-- Node3&#45;&gt;Node4 -->
<g id="edge3" class="edge"><title>Node3&#45;&gt;Node4</title>
<path fill="none" stroke="midnightblue" d="M855.045,-502.42C870.427,-499.547 886.312,-496.579 900.895,-493.855"/>
<polygon fill="midnightblue" stroke="midnightblue" points="854.216,-499.014 845.029,-504.291 855.502,-505.895 854.216,-499.014"/>
</g>
<!-- Node6 -->
<g id="node6" class="node"><title>Node6</title>
<g id="a_node6"><a xlink:href="classx265_1_1Analysis.html#a87060ff27a37f56adc5f5b8a4c033ece" target="_top" xlink:title="x265::Analysis::compress\lInterCU_dist">
<polygon fill="white" stroke="black" points="1252,-362 1252,-392 1382,-392 1382,-362 1252,-362"/>
<text text-anchor="start" x="1260" y="-380" font-family="Helvetica,sans-Serif" font-size="10.00">x265::Analysis::compress</text>
<text text-anchor="middle" x="1317" y="-369" font-family="Helvetica,sans-Serif" font-size="10.00">InterCU_dist</text>
</a>
</g>
</g>
<!-- Node3&#45;&gt;Node6 -->
<g id="edge9" class="edge"><title>Node3&#45;&gt;Node6</title>
<path fill="none" stroke="midnightblue" d="M825.275,-535.466C910.389,-564.761 1090.04,-611.725 1216,-541 1274.3,-508.265 1302.62,-426.208 1312.16,-392.167"/>
<polygon fill="midnightblue" stroke="midnightblue" points="826.214,-532.086 815.619,-532.077 823.896,-538.691 826.214,-532.086"/>
</g>
<!-- Node10 -->
<g id="node10" class="node"><title>Node10</title>
<g id="a_node10"><a xlink:href="classx265_1_1Analysis.html#a30d2ff7eca5addbb0a6b3dfe14f09650" target="_top" xlink:title="x265::Analysis::compress\lInterCU_rd0_4">
<polygon fill="white" stroke="black" points="1252,-277 1252,-307 1382,-307 1382,-277 1252,-277"/>
<text text-anchor="start" x="1260" y="-295" font-family="Helvetica,sans-Serif" font-size="10.00">x265::Analysis::compress</text>
<text text-anchor="middle" x="1317" y="-284" font-family="Helvetica,sans-Serif" font-size="10.00">InterCU_rd0_4</text>
</a>
</g>
</g>
<!-- Node3&#45;&gt;Node10 -->
<g id="edge10" class="edge"><title>Node3&#45;&gt;Node10</title>
<path fill="none" stroke="midnightblue" d="M855.341,-526.254C966.555,-537.592 1162.66,-550.374 1216,-507 1270.87,-462.383 1216.68,-413.271 1252,-352 1262.42,-333.923 1280.02,-318.01 1294.12,-307.123"/>
<polygon fill="midnightblue" stroke="midnightblue" points="855.489,-522.751 845.181,-525.199 854.765,-529.714 855.489,-522.751"/>
</g>
<!-- Node5 -->
<g id="node5" class="node"><title>Node5</title>
<g id="a_node5"><a xlink:href="classx265_1_1Analysis.html#a29a58dad4cc1c07d2f5e5717c6be7c25" target="_top" xlink:title="x265::Analysis::findJob">
<polygon fill="white" stroke="black" points="1083.5,-478.5 1083.5,-497.5 1202.5,-497.5 1202.5,-478.5 1083.5,-478.5"/>
<text text-anchor="middle" x="1143" y="-485.5" font-family="Helvetica,sans-Serif" font-size="10.00">x265::Analysis::findJob</text>
</a>
</g>
</g>
<!-- Node4&#45;&gt;Node5 -->
<g id="edge4" class="edge"><title>Node4&#45;&gt;Node5</title>
<path fill="none" stroke="midnightblue" d="M1029.52,-484.893C1047.2,-485.381 1066.08,-485.903 1083.22,-486.376"/>
<polygon fill="midnightblue" stroke="midnightblue" points="1029.36,-481.387 1019.27,-484.61 1029.17,-488.384 1029.36,-481.387"/>
</g>
<!-- Node5&#45;&gt;Node6 -->
<g id="edge5" class="edge"><title>Node5&#45;&gt;Node6</title>
<path fill="none" stroke="midnightblue" d="M1191.31,-475.208C1199.79,-472.091 1208.35,-468.368 1216,-464 1250.57,-444.258 1284.08,-411.467 1302.18,-392.28"/>
<polygon fill="midnightblue" stroke="midnightblue" points="1190.14,-471.908 1181.83,-478.472 1192.42,-478.527 1190.14,-471.908"/>
</g>
<!-- Node7 -->
<g id="node7" class="node"><title>Node7</title>
<g id="a_node7"><a xlink:href="classx265_1_1Analysis.html#aaebc9de2ff98834c650244f3b58942c2" target="_top" xlink:title="x265::Analysis::compressCTU">
<polygon fill="white" stroke="black" points="1418.5,-252.5 1418.5,-271.5 1569.5,-271.5 1569.5,-252.5 1418.5,-252.5"/>
<text text-anchor="middle" x="1494" y="-259.5" font-family="Helvetica,sans-Serif" font-size="10.00">x265::Analysis::compressCTU</text>
</a>
</g>
</g>
<!-- Node6&#45;&gt;Node7 -->
<g id="edge6" class="edge"><title>Node6&#45;&gt;Node7</title>
<path fill="none" stroke="midnightblue" d="M1349.54,-356.276C1387.61,-331.255 1450.05,-290.223 1478.3,-271.659"/>
<polygon fill="midnightblue" stroke="midnightblue" points="1347.31,-353.549 1340.88,-361.966 1351.16,-359.399 1347.31,-353.549"/>
</g>
<!-- Node8 -->
<g id="node8" class="node"><title>Node8</title>
<g id="a_node8"><a xlink:href="classx265_1_1FrameEncoder.html#a0ae85001572afd28238476542523ac5f" target="_top" xlink:title="x265::FrameEncoder\l::processRowEncoder">
<polygon fill="white" stroke="black" points="1606.5,-247 1606.5,-277 1719.5,-277 1719.5,-247 1606.5,-247"/>
<text text-anchor="start" x="1614.5" y="-265" font-family="Helvetica,sans-Serif" font-size="10.00">x265::FrameEncoder</text>
<text text-anchor="middle" x="1663" y="-254" font-family="Helvetica,sans-Serif" font-size="10.00">::processRowEncoder</text>
</a>
</g>
</g>
<!-- Node7&#45;&gt;Node8 -->
<g id="edge7" class="edge"><title>Node7&#45;&gt;Node8</title>
<path fill="none" stroke="midnightblue" d="M1579.86,-262C1588.86,-262 1597.85,-262 1606.39,-262"/>
<polygon fill="midnightblue" stroke="midnightblue" points="1579.71,-258.5 1569.71,-262 1579.71,-265.5 1579.71,-258.5"/>
</g>
<!-- Node9 -->
<g id="node9" class="node"><title>Node9</title>
<g id="a_node9"><a xlink:href="classx265_1_1FrameEncoder.html#acad645a8ece97d884895f8f7366b7d70" target="_top" xlink:title="x265::FrameEncoder\l::processRow">
<polygon fill="white" stroke="red" points="1756.5,-187 1756.5,-217 1863.5,-217 1863.5,-187 1756.5,-187"/>
<text text-anchor="start" x="1764.5" y="-205" font-family="Helvetica,sans-Serif" font-size="10.00">x265::FrameEncoder</text>
<text text-anchor="middle" x="1810" y="-194" font-family="Helvetica,sans-Serif" font-size="10.00">::processRow</text>
</a>
</g>
</g>
<!-- Node8&#45;&gt;Node9 -->
<g id="edge8" class="edge"><title>Node8&#45;&gt;Node9</title>
<path fill="none" stroke="midnightblue" d="M1709.94,-242.989C1730.2,-234.607 1753.67,-224.897 1772.67,-217.032"/>
<polygon fill="midnightblue" stroke="midnightblue" points="1708.49,-239.802 1700.59,-246.859 1711.17,-246.27 1708.49,-239.802"/>
</g>
<!-- Node10&#45;&gt;Node7 -->
<g id="edge11" class="edge"><title>Node10&#45;&gt;Node7</title>
<path fill="none" stroke="midnightblue" d="M1392.07,-279.302C1407.29,-276.693 1423.06,-273.989 1437.49,-271.516"/>
<polygon fill="midnightblue" stroke="midnightblue" points="1391.43,-275.86 1382.17,-280.999 1392.62,-282.759 1391.43,-275.86"/>
</g>
<!-- Node11&#45;&gt;Node6 -->
<g id="edge15" class="edge"><title>Node11&#45;&gt;Node6</title>
<path fill="none" stroke="midnightblue" d="M1210.66,-224.535C1212.53,-225.928 1214.32,-227.414 1216,-229 1246.44,-257.717 1228.34,-281.483 1252,-316 1264.24,-333.852 1282.41,-350.544 1296.27,-361.938"/>
<polygon fill="midnightblue" stroke="midnightblue" points="1212.31,-221.434 1201.99,-219.012 1208.55,-227.337 1212.31,-221.434"/>
</g>
<!-- Node11&#45;&gt;Node10 -->
<g id="edge16" class="edge"><title>Node11&#45;&gt;Node10</title>
<path fill="none" stroke="midnightblue" d="M1203.57,-222.931C1207.85,-224.821 1212.03,-226.846 1216,-229 1233.81,-238.675 1235.05,-245.879 1252,-257 1262.8,-264.087 1275.15,-271.083 1286.11,-276.935"/>
<polygon fill="midnightblue" stroke="midnightblue" points="1204.68,-219.604 1194.1,-219.008 1202,-226.07 1204.68,-219.604"/>
</g>
<!-- Node12 -->
<g id="node12" class="node"><title>Node12</title>
<g id="a_node12"><a xlink:href="classx265_1_1Analysis.html#aae2a6a2252270782b591d2bed7e99dae" target="_top" xlink:title="x265::Analysis::compress\lIntraCU">
<polygon fill="white" stroke="black" points="1252,-218 1252,-248 1382,-248 1382,-218 1252,-218"/>
<text text-anchor="start" x="1260" y="-236" font-family="Helvetica,sans-Serif" font-size="10.00">x265::Analysis::compress</text>
<text text-anchor="middle" x="1317" y="-225" font-family="Helvetica,sans-Serif" font-size="10.00">IntraCU</text>
</a>
</g>
</g>
<!-- Node11&#45;&gt;Node12 -->
<g id="edge13" class="edge"><title>Node11&#45;&gt;Node12</title>
<path fill="none" stroke="midnightblue" d="M1214.05,-215.81C1226.53,-217.914 1239.47,-220.097 1251.78,-222.172"/>
<polygon fill="midnightblue" stroke="midnightblue" points="1214.6,-212.354 1204.16,-214.143 1213.44,-219.257 1214.6,-212.354"/>
</g>
<!-- Node13 -->
<g id="node13" class="node"><title>Node13</title>
<g id="a_node13"><a xlink:href="classx265_1_1Analysis.html#a0b22b7765aa4a36b1ba6d07ba26901e6" target="_top" xlink:title="x265::Analysis::compress\lInterCU_rd5_6">
<polygon fill="white" stroke="black" points="1252,-150 1252,-180 1382,-180 1382,-150 1252,-150"/>
<text text-anchor="start" x="1260" y="-168" font-family="Helvetica,sans-Serif" font-size="10.00">x265::Analysis::compress</text>
<text text-anchor="middle" x="1317" y="-157" font-family="Helvetica,sans-Serif" font-size="10.00">InterCU_rd5_6</text>
</a>
</g>
</g>
<!-- Node11&#45;&gt;Node13 -->
<g id="edge17" class="edge"><title>Node11&#45;&gt;Node13</title>
<path fill="none" stroke="midnightblue" d="M1214.05,-188.117C1226.53,-185.287 1239.47,-182.352 1251.78,-179.561"/>
<polygon fill="midnightblue" stroke="midnightblue" points="1213.14,-184.735 1204.16,-190.36 1214.68,-191.562 1213.14,-184.735"/>
</g>
<!-- Node12&#45;&gt;Node7 -->
<g id="edge14" class="edge"><title>Node12&#45;&gt;Node7</title>
<path fill="none" stroke="midnightblue" d="M1392.11,-245.282C1406.62,-247.686 1421.63,-250.173 1435.5,-252.471"/>
<polygon fill="midnightblue" stroke="midnightblue" points="1392.61,-241.816 1382.17,-243.634 1391.46,-248.722 1392.61,-241.816"/>
</g>
<!-- Node13&#45;&gt;Node7 -->
<g id="edge18" class="edge"><title>Node13&#45;&gt;Node7</title>
<path fill="none" stroke="midnightblue" d="M1354.32,-185.133C1391.35,-205.658 1447.23,-236.633 1475.42,-252.255"/>
<polygon fill="midnightblue" stroke="midnightblue" points="1355.79,-181.943 1345.34,-180.156 1352.39,-188.065 1355.79,-181.943"/>
</g>
<!-- Node15 -->
<g id="node15" class="node"><title>Node15</title>
<g id="a_node15"><a xlink:href="classx265_1_1Entropy.html#adeb50a7c9a5df6643407d01158d93799" target="_top" xlink:title="x265::Entropy::encodeCU">
<polygon fill="white" stroke="black" points="522,-583.5 522,-602.5 652,-602.5 652,-583.5 522,-583.5"/>
<text text-anchor="middle" x="587" y="-590.5" font-family="Helvetica,sans-Serif" font-size="10.00">x265::Entropy::encodeCU</text>
</a>
</g>
</g>
<!-- Node14&#45;&gt;Node15 -->
<g id="edge20" class="edge"><title>Node14&#45;&gt;Node15</title>
<path fill="none" stroke="midnightblue" d="M451.138,-581.158C474.094,-583.174 499.465,-585.402 521.949,-587.376"/>
<polygon fill="midnightblue" stroke="midnightblue" points="451.389,-577.667 441.122,-580.279 450.777,-584.64 451.389,-577.667"/>
</g>
<!-- Node16 -->
<g id="node16" class="node"><title>Node16</title>
<g id="a_node16"><a xlink:href="classx265_1_1Entropy.html#abb101b71f310e90eb504a8204babc180" target="_top" xlink:title="x265::Entropy::encodeCTU">
<polygon fill="white" stroke="black" points="708,-593.5 708,-612.5 844,-612.5 844,-593.5 708,-593.5"/>
<text text-anchor="middle" x="776" y="-600.5" font-family="Helvetica,sans-Serif" font-size="10.00">x265::Entropy::encodeCTU</text>
</a>
</g>
</g>
<!-- Node15&#45;&gt;Node16 -->
<g id="edge21" class="edge"><title>Node15&#45;&gt;Node16</title>
<path fill="none" stroke="midnightblue" d="M662.354,-596.976C677.362,-597.779 693.058,-598.618 707.803,-599.407"/>
<polygon fill="midnightblue" stroke="midnightblue" points="662.266,-593.467 652.093,-596.427 661.892,-600.457 662.266,-593.467"/>
</g>
<!-- Node16&#45;&gt;Node8 -->
<g id="edge23" class="edge"><title>Node16&#45;&gt;Node8</title>
<path fill="none" stroke="midnightblue" d="M854.423,-603C928.307,-603 1042.74,-603 1142,-603 1142,-603 1142,-603 1318,-603 1505.95,-603 1627.92,-343.086 1655.86,-277.092"/>
<polygon fill="midnightblue" stroke="midnightblue" points="854.273,-599.5 844.273,-603 854.273,-606.5 854.273,-599.5"/>
</g>
<!-- Node17 -->
<g id="node17" class="node"><title>Node17</title>
<g id="a_node17"><a xlink:href="classx265_1_1FrameEncoder.html#a6d4045d35bfe6b10c8d0dc39353be360" target="_top" xlink:title="x265::FrameEncoder\l::encodeSlice">
<polygon fill="white" stroke="red" points="906.5,-632 906.5,-662 1013.5,-662 1013.5,-632 906.5,-632"/>
<text text-anchor="start" x="914.5" y="-650" font-family="Helvetica,sans-Serif" font-size="10.00">x265::FrameEncoder</text>
<text text-anchor="middle" x="960" y="-639" font-family="Helvetica,sans-Serif" font-size="10.00">::encodeSlice</text>
</a>
</g>
</g>
<!-- Node16&#45;&gt;Node17 -->
<g id="edge22" class="edge"><title>Node16&#45;&gt;Node17</title>
<path fill="none" stroke="midnightblue" d="M826.414,-614.946C851.206,-620.94 881.245,-628.202 906.457,-634.297"/>
<polygon fill="midnightblue" stroke="midnightblue" points="827.034,-611.495 816.491,-612.547 825.389,-618.299 827.034,-611.495"/>
</g>
<!-- Node19 -->
<g id="node19" class="node"><title>Node19</title>
<g id="a_node19"><a xlink:href="classx265_1_1FrameFilter.html#a75d13efc3b8c164f9c1615bffda89891" target="_top" xlink:title="x265::FrameFilter::\lprocessRow">
<polygon fill="white" stroke="black" points="1267.5,-21 1267.5,-51 1366.5,-51 1366.5,-21 1267.5,-21"/>
<text text-anchor="start" x="1275.5" y="-39" font-family="Helvetica,sans-Serif" font-size="10.00">x265::FrameFilter::</text>
<text text-anchor="middle" x="1317" y="-28" font-family="Helvetica,sans-Serif" font-size="10.00">processRow</text>
</a>
</g>
</g>
<!-- Node18&#45;&gt;Node19 -->
<g id="edge25" class="edge"><title>Node18&#45;&gt;Node19</title>
<path fill="none" stroke="midnightblue" d="M667.184,-19.9949C786.577,-7.99342 1019.62,9.2928 1216,-13 1232.9,-14.9189 1251.11,-18.6069 1267.3,-22.4771"/>
<polygon fill="midnightblue" stroke="midnightblue" points="666.632,-16.533 657.038,-21.0297 667.342,-23.4969 666.632,-16.533"/>
</g>
<!-- Node20 -->
<g id="node20" class="node"><title>Node20</title>
<g id="a_node20"><a xlink:href="classx265_1_1FrameEncoder.html#a764697a109059858166d1c017b81d233" target="_top" xlink:title="x265::FrameEncoder\l::processRowFilter">
<polygon fill="white" stroke="black" points="1440.5,-89 1440.5,-119 1547.5,-119 1547.5,-89 1440.5,-89"/>
<text text-anchor="start" x="1448.5" y="-107" font-family="Helvetica,sans-Serif" font-size="10.00">x265::FrameEncoder</text>
<text text-anchor="middle" x="1494" y="-96" font-family="Helvetica,sans-Serif" font-size="10.00">::processRowFilter</text>
</a>
</g>
</g>
<!-- Node19&#45;&gt;Node20 -->
<g id="edge26" class="edge"><title>Node19&#45;&gt;Node20</title>
<path fill="none" stroke="midnightblue" d="M1366.34,-54.783C1394.05,-65.549 1428.35,-78.8796 1454.27,-88.9508"/>
<polygon fill="midnightblue" stroke="midnightblue" points="1367.43,-51.451 1356.84,-51.0914 1364.89,-57.9757 1367.43,-51.451"/>
</g>
<!-- Node20&#45;&gt;Node9 -->
<g id="edge27" class="edge"><title>Node20&#45;&gt;Node9</title>
<path fill="none" stroke="midnightblue" d="M1553.05,-122.117C1612.83,-140.776 1704.94,-169.523 1760.83,-186.966"/>
<polygon fill="midnightblue" stroke="midnightblue" points="1553.96,-118.736 1543.37,-119.098 1551.88,-125.418 1553.96,-118.736"/>
</g>
<!-- Node21&#45;&gt;Node18 -->
<g id="edge29" class="edge"><title>Node21&#45;&gt;Node18</title>
<path fill="none" stroke="midnightblue" d="M481.545,-38.6812C493.515,-37.5718 505.521,-36.459 516.909,-35.4036"/>
<polygon fill="midnightblue" stroke="midnightblue" points="481.147,-35.203 471.513,-39.611 481.793,-42.1731 481.147,-35.203"/>
</g>
<!-- Node22&#45;&gt;Node18 -->
<g id="edge31" class="edge"><title>Node22&#45;&gt;Node18</title>
<path fill="none" stroke="midnightblue" d="M476.973,-18.8951C490.399,-20.1394 503.975,-21.3977 516.775,-22.584"/>
<polygon fill="midnightblue" stroke="midnightblue" points="477.031,-15.3855 466.751,-17.9476 476.385,-22.3556 477.031,-15.3855"/>
</g>
<!-- Node23&#45;&gt;Node3 -->
<g id="edge33" class="edge"><title>Node23&#45;&gt;Node3</title>
<path fill="none" stroke="midnightblue" d="M625.068,-464.885C655.751,-475.55 699.386,-490.717 731.676,-501.941"/>
<polygon fill="midnightblue" stroke="midnightblue" points="626.187,-461.568 615.592,-461.591 623.889,-468.18 626.187,-461.568"/>
</g>
<!-- Node24 -->
<g id="node24" class="node"><title>Node24</title>
<g id="a_node24"><a xlink:href="classx265_1_1Search.html#a1778d2ab96ac88c7f76d36818d6adbdd" target="_top" xlink:title="x265::Search::estIntraPredQT">
<polygon fill="white" stroke="black" points="702.5,-338.5 702.5,-357.5 849.5,-357.5 849.5,-338.5 702.5,-338.5"/>
<text text-anchor="middle" x="776" y="-345.5" font-family="Helvetica,sans-Serif" font-size="10.00">x265::Search::estIntraPredQT</text>
</a>
</g>
</g>
<!-- Node23&#45;&gt;Node24 -->
<g id="edge34" class="edge"><title>Node23&#45;&gt;Node24</title>
<path fill="none" stroke="midnightblue" d="M614.4,-437.318C653.308,-415.679 724.976,-375.821 757.784,-357.574"/>
<polygon fill="midnightblue" stroke="midnightblue" points="612.296,-434.483 605.257,-442.402 615.698,-440.601 612.296,-434.483"/>
</g>
<!-- Node24&#45;&gt;Node25 -->
<g id="edge35" class="edge"><title>Node24&#45;&gt;Node25</title>
<path fill="none" stroke="midnightblue" d="M796.247,-331.977C817.499,-314.659 853.075,-286.755 886,-266 903.042,-255.257 923.457,-244.82 938.359,-237.612"/>
<polygon fill="midnightblue" stroke="midnightblue" points="793.828,-329.435 788.323,-338.487 798.272,-334.844 793.828,-329.435"/>
</g>
<!-- Node25&#45;&gt;Node12 -->
<g id="edge41" class="edge"><title>Node25&#45;&gt;Node12</title>
<path fill="none" stroke="midnightblue" d="M999.186,-214.29C1011.27,-208.68 1024.06,-201.287 1034,-192 1057.28,-170.247 1042.39,-145.898 1070,-130 1126.24,-97.6249 1159.42,-98.2397 1216,-130 1242.79,-145.035 1230.88,-166.696 1252,-189 1262.66,-200.259 1276.66,-210.281 1288.85,-217.906"/>
<polygon fill="midnightblue" stroke="midnightblue" points="997.486,-211.213 989.71,-218.409 1000.28,-217.632 997.486,-211.213"/>
</g>
<!-- Node25&#45;&gt;Node13 -->
<g id="edge42" class="edge"><title>Node25&#45;&gt;Node13</title>
<path fill="none" stroke="midnightblue" d="M1004.21,-214.297C1015.31,-208.922 1026.28,-201.66 1034,-192 1076.79,-138.436 1016.16,-84.447 1070,-42 1120.96,-1.82578 1157.41,-14.1216 1216,-42 1263.47,-64.5838 1295.77,-121.937 1309.11,-149.606"/>
<polygon fill="midnightblue" stroke="midnightblue" points="1002.68,-211.15 994.931,-218.38 1005.49,-217.558 1002.68,-211.15"/>
</g>
<!-- Node26 -->
<g id="node26" class="node"><title>Node26</title>
<g id="a_node26"><a xlink:href="classx265_1_1Analysis.html#a10f0a8d9d143faf8dc671c6f0982693d" target="_top" xlink:title="x265::Analysis::tryLossless">
<polygon fill="white" stroke="black" points="1074.5,-238.5 1074.5,-257.5 1211.5,-257.5 1211.5,-238.5 1074.5,-238.5"/>
<text text-anchor="middle" x="1143" y="-245.5" font-family="Helvetica,sans-Serif" font-size="10.00">x265::Analysis::tryLossless</text>
</a>
</g>
</g>
<!-- Node25&#45;&gt;Node26 -->
<g id="edge36" class="edge"><title>Node25&#45;&gt;Node26</title>
<path fill="none" stroke="midnightblue" d="M1033.29,-235.988C1046.88,-237.489 1061.04,-239.054 1074.47,-240.538"/>
<polygon fill="midnightblue" stroke="midnightblue" points="1033.36,-232.474 1023.04,-234.855 1032.59,-239.432 1033.36,-232.474"/>
</g>
<!-- Node26&#45;&gt;Node6 -->
<g id="edge38" class="edge"><title>Node26&#45;&gt;Node6</title>
<path fill="none" stroke="midnightblue" d="M1206.72,-261.638C1209.96,-263.232 1213.08,-265.012 1216,-267 1238.34,-282.205 1234.15,-295.711 1252,-316 1266.7,-332.711 1285.28,-350.061 1298.63,-361.965"/>
<polygon fill="midnightblue" stroke="midnightblue" points="1207.91,-258.338 1197.33,-257.622 1205.15,-264.773 1207.91,-258.338"/>
</g>
<!-- Node26&#45;&gt;Node10 -->
<g id="edge39" class="edge"><title>Node26&#45;&gt;Node10</title>
<path fill="none" stroke="midnightblue" d="M1191.01,-260.026C1211.41,-265.245 1235.53,-271.414 1257.11,-276.935"/>
<polygon fill="midnightblue" stroke="midnightblue" points="1191.88,-256.635 1181.32,-257.547 1190.14,-263.417 1191.88,-256.635"/>
</g>
<!-- Node26&#45;&gt;Node12 -->
<g id="edge37" class="edge"><title>Node26&#45;&gt;Node12</title>
<path fill="none" stroke="midnightblue" d="M1222.24,-241.177C1232.16,-240.312 1242.22,-239.435 1251.88,-238.592"/>
<polygon fill="midnightblue" stroke="midnightblue" points="1221.64,-237.716 1211.98,-242.072 1222.25,-244.689 1221.64,-237.716"/>
</g>
<!-- Node26&#45;&gt;Node13 -->
<g id="edge40" class="edge"><title>Node26&#45;&gt;Node13</title>
<path fill="none" stroke="midnightblue" d="M1196.13,-235.475C1202.92,-233.277 1209.7,-230.786 1216,-228 1231.67,-221.067 1269.45,-196.37 1293.83,-180.035"/>
<polygon fill="midnightblue" stroke="midnightblue" points="1194.77,-232.229 1186.22,-238.486 1196.81,-238.927 1194.77,-232.229"/>
</g>
<!-- Node27&#45;&gt;Node28 -->
<g id="edge44" class="edge"><title>Node27&#45;&gt;Node28</title>
<path fill="none" stroke="midnightblue" d="M473.425,-240.705C489.077,-241.163 505.045,-241.631 519.851,-242.064"/>
<polygon fill="midnightblue" stroke="midnightblue" points="473.298,-237.2 463.2,-240.406 473.093,-244.197 473.298,-237.2"/>
</g>
<!-- Node28&#45;&gt;Node3 -->
<g id="edge45" class="edge"><title>Node28&#45;&gt;Node3</title>
<path fill="none" stroke="midnightblue" d="M609.571,-266.565C627.047,-285.968 651.13,-315.425 666,-345 692.547,-397.798 666.176,-426 702,-473 711.329,-485.24 725.126,-494.796 738.221,-501.83"/>
<polygon fill="midnightblue" stroke="midnightblue" points="612.104,-264.149 602.765,-259.144 606.945,-268.88 612.104,-264.149"/>
</g>
<!-- Node28&#45;&gt;Node25 -->
<g id="edge46" class="edge"><title>Node28&#45;&gt;Node25</title>
<path fill="none" stroke="midnightblue" d="M664.665,-240.694C733.431,-237.728 833.072,-233.431 896.949,-230.676"/>
<polygon fill="midnightblue" stroke="midnightblue" points="664.167,-237.212 654.327,-241.14 664.469,-244.205 664.167,-237.212"/>
</g>
<!-- Node30 -->
<g id="node30" class="node"><title>Node30</title>
<g id="a_node30"><a xlink:href="classx265_1_1Analysis.html#addd72cb95590e2b2a6965d42d110eab3" target="_top" xlink:title="x265::Analysis::checkMerge2\lNx2N_rd0_4">
<polygon fill="white" stroke="black" points="1070,-277 1070,-307 1216,-307 1216,-277 1070,-277"/>
<text text-anchor="start" x="1078" y="-295" font-family="Helvetica,sans-Serif" font-size="10.00">x265::Analysis::checkMerge2</text>
<text text-anchor="middle" x="1143" y="-284" font-family="Helvetica,sans-Serif" font-size="10.00">Nx2N_rd0_4</text>
</a>
</g>
</g>
<!-- Node29&#45;&gt;Node30 -->
<g id="edge50" class="edge"><title>Node29&#45;&gt;Node30</title>
<path fill="none" stroke="midnightblue" d="M1004.99,-187.993C1015.21,-193.863 1025.55,-200.915 1034,-209 1055.92,-229.979 1046.31,-248.047 1070,-267 1074.86,-270.885 1080.36,-274.186 1086.1,-276.987"/>
<polygon fill="midnightblue" stroke="midnightblue" points="1006.55,-184.857 996.095,-183.143 1003.2,-191.003 1006.55,-184.857"/>
</g>
<!-- Node31 -->
<g id="node31" class="node"><title>Node31</title>
<g id="a_node31"><a xlink:href="classx265_1_1Analysis.html#a0194a9da53aa95173fa1132ba3aea1c7" target="_top" xlink:title="x265::Analysis::checkMerge2\lNx2N_rd5_6">
<polygon fill="white" stroke="black" points="1070,-52 1070,-82 1216,-82 1216,-52 1070,-52"/>
<text text-anchor="start" x="1078" y="-70" font-family="Helvetica,sans-Serif" font-size="10.00">x265::Analysis::checkMerge2</text>
<text text-anchor="middle" x="1143" y="-59" font-family="Helvetica,sans-Serif" font-size="10.00">Nx2N_rd5_6</text>
</a>
</g>
</g>
<!-- Node29&#45;&gt;Node31 -->
<g id="edge53" class="edge"><title>Node29&#45;&gt;Node31</title>
<path fill="none" stroke="midnightblue" d="M989.951,-147.056C1011.42,-132.047 1041.74,-111.929 1070,-97 1080.18,-91.6229 1091.53,-86.5092 1102.16,-82.0767"/>
<polygon fill="midnightblue" stroke="midnightblue" points="987.762,-144.317 981.609,-152.942 991.798,-150.036 987.762,-144.317"/>
</g>
<!-- Node30&#45;&gt;Node6 -->
<g id="edge51" class="edge"><title>Node30&#45;&gt;Node6</title>
<path fill="none" stroke="midnightblue" d="M1183.57,-311.553C1214.53,-326.855 1256.96,-347.824 1285.37,-361.863"/>
<polygon fill="midnightblue" stroke="midnightblue" points="1184.87,-308.293 1174.35,-307.001 1181.77,-314.569 1184.87,-308.293"/>
</g>
<!-- Node30&#45;&gt;Node10 -->
<g id="edge52" class="edge"><title>Node30&#45;&gt;Node10</title>
<path fill="none" stroke="midnightblue" d="M1226.7,-292C1235.14,-292 1243.63,-292 1251.83,-292"/>
<polygon fill="midnightblue" stroke="midnightblue" points="1226.45,-288.5 1216.44,-292 1226.44,-295.5 1226.45,-288.5"/>
</g>
<!-- Node31&#45;&gt;Node13 -->
<g id="edge54" class="edge"><title>Node31&#45;&gt;Node13</title>
<path fill="none" stroke="midnightblue" d="M1193.53,-86.0768C1201.18,-89.4659 1208.89,-93.1515 1216,-97 1245.36,-112.886 1276.82,-135.27 1296.45,-149.952"/>
<polygon fill="midnightblue" stroke="midnightblue" points="1194.85,-82.8354 1184.28,-82.0987 1192.09,-89.2657 1194.85,-82.8354"/>
</g>
<!-- Node32&#45;&gt;Node6 -->
<g id="edge57" class="edge"><title>Node32&#45;&gt;Node6</title>
<path fill="none" stroke="midnightblue" d="M1004.6,-309.993C1024.28,-317.995 1048.01,-326.858 1070,-333 1130.69,-349.954 1201.71,-361.834 1251.79,-368.94"/>
<polygon fill="midnightblue" stroke="midnightblue" points="1005.86,-306.729 995.283,-306.15 1003.19,-313.2 1005.86,-306.729"/>
</g>
<!-- Node32&#45;&gt;Node10 -->
<g id="edge58" class="edge"><title>Node32&#45;&gt;Node10</title>
<path fill="none" stroke="midnightblue" d="M1025.39,-308.292C1039.95,-311.496 1055.42,-314.35 1070,-316 1134.48,-323.299 1151.56,-323.624 1216,-316 1231.6,-314.154 1248.3,-310.741 1263.48,-307.057"/>
<polygon fill="midnightblue" stroke="midnightblue" points="1026,-304.842 1015.48,-306.029 1024.45,-311.666 1026,-304.842"/>
</g>
<!-- Node32&#45;&gt;Node26 -->
<g id="edge56" class="edge"><title>Node32&#45;&gt;Node26</title>
<path fill="none" stroke="midnightblue" d="M1034.11,-273.631C1057.26,-268.132 1081.98,-262.258 1101.92,-257.522"/>
<polygon fill="midnightblue" stroke="midnightblue" points="1033.23,-270.244 1024.31,-275.961 1034.84,-277.054 1033.23,-270.244"/>
</g>
<!-- Node32&#45;&gt;Node30 -->
<g id="edge59" class="edge"><title>Node32&#45;&gt;Node30</title>
<path fill="none" stroke="midnightblue" d="M1043.78,-291.457C1052.54,-291.506 1061.38,-291.555 1070,-291.602"/>
<polygon fill="midnightblue" stroke="midnightblue" points="1043.6,-287.956 1033.58,-291.401 1043.56,-294.956 1043.6,-287.956"/>
</g>
<!-- Node32&#45;&gt;Node31 -->
<g id="edge60" class="edge"><title>Node32&#45;&gt;Node31</title>
<path fill="none" stroke="midnightblue" d="M1005.96,-270.908C1016.34,-264.516 1026.52,-256.564 1034,-247 1067.5,-204.135 1040.4,-175.65 1070,-130 1082.65,-110.489 1103,-93.4765 1118.84,-82.0651"/>
<polygon fill="midnightblue" stroke="midnightblue" points="1004.18,-267.898 997.245,-275.912 1007.66,-273.968 1004.18,-267.898"/>
</g>
<!-- Node33 -->
<g id="node33" class="node"><title>Node33</title>
<g id="a_node33"><a xlink:href="classx265_1_1Analysis.html#a828daa3e9f1ed40a1af9f99f7ff7bb33" target="_top" xlink:title="x265::Analysis::checkInter\l_rd5_6">
<polygon fill="white" stroke="black" points="1076.5,-140 1076.5,-170 1209.5,-170 1209.5,-140 1076.5,-140"/>
<text text-anchor="start" x="1084.5" y="-158" font-family="Helvetica,sans-Serif" font-size="10.00">x265::Analysis::checkInter</text>
<text text-anchor="middle" x="1143" y="-147" font-family="Helvetica,sans-Serif" font-size="10.00">_rd5_6</text>
</a>
</g>
</g>
<!-- Node32&#45;&gt;Node33 -->
<g id="edge61" class="edge"><title>Node32&#45;&gt;Node33</title>
<path fill="none" stroke="midnightblue" d="M1002.95,-270.973C1013.94,-264.392 1025.17,-256.331 1034,-247 1057.5,-222.158 1043.91,-201.104 1070,-179 1074.02,-175.593 1078.54,-172.665 1083.31,-170.149"/>
<polygon fill="midnightblue" stroke="midnightblue" points="1001.2,-267.942 994.234,-275.928 1004.66,-274.027 1001.2,-267.942"/>
</g>
<!-- Node33&#45;&gt;Node13 -->
<g id="edge62" class="edge"><title>Node33&#45;&gt;Node13</title>
<path fill="none" stroke="midnightblue" d="M1219.7,-159.401C1230.41,-160.024 1241.34,-160.659 1251.8,-161.268"/>
<polygon fill="midnightblue" stroke="midnightblue" points="1219.7,-155.896 1209.52,-158.809 1219.3,-162.884 1219.7,-155.896"/>
</g>
<!-- Node34&#45;&gt;Node32 -->
<g id="edge64" class="edge"><title>Node34&#45;&gt;Node32</title>
<path fill="none" stroke="midnightblue" d="M431.303,-488.453C490.838,-499.291 591.304,-508.859 666,-471 689.47,-459.104 680.933,-439.764 702,-424 758.437,-381.77 787.749,-400.064 850,-367 883.617,-349.145 919.18,-322.734 940.216,-306.214"/>
<polygon fill="midnightblue" stroke="midnightblue" points="431.873,-484.998 421.395,-486.568 430.564,-491.875 431.873,-484.998"/>
</g>
<!-- Node35&#45;&gt;Node24 -->
<g id="edge70" class="edge"><title>Node35&#45;&gt;Node24</title>
<path fill="none" stroke="midnightblue" d="M454.336,-350.173C471.877,-348.023 490.572,-346.094 508,-345 578.084,-340.603 595.784,-344.034 666,-345 677.736,-345.161 690.181,-345.421 702.303,-345.721"/>
<polygon fill="midnightblue" stroke="midnightblue" points="453.641,-346.733 444.159,-351.459 454.519,-353.677 453.641,-346.733"/>
</g>
<!-- Node36 -->
<g id="node36" class="node"><title>Node36</title>
<g id="a_node36"><a xlink:href="classx265_1_1Analysis.html#a47fe19b013534639df70d2cccc551dca" target="_top" xlink:title="x265::Analysis::checkIntra\lInInter_rd0_4">
<polygon fill="white" stroke="black" points="709.5,-434 709.5,-464 842.5,-464 842.5,-434 709.5,-434"/>
<text text-anchor="start" x="717.5" y="-452" font-family="Helvetica,sans-Serif" font-size="10.00">x265::Analysis::checkIntra</text>
<text text-anchor="middle" x="776" y="-441" font-family="Helvetica,sans-Serif" font-size="10.00">InInter_rd0_4</text>
</a>
</g>
</g>
<!-- Node35&#45;&gt;Node36 -->
<g id="edge66" class="edge"><title>Node35&#45;&gt;Node36</title>
<path fill="none" stroke="midnightblue" d="M425.317,-373.108C449.65,-379.607 480.406,-387.577 508,-394 576.336,-409.906 655.066,-425.834 709.234,-436.425"/>
<polygon fill="midnightblue" stroke="midnightblue" points="426.215,-369.725 415.65,-370.514 424.401,-376.486 426.215,-369.725"/>
</g>
<!-- Node37 -->
<g id="node37" class="node"><title>Node37</title>
<g id="a_node37"><a xlink:href="classx265_1_1Search.html#ad327d1f90617a0d272692bb98c660172" target="_top" xlink:title="x265::Search::getIntraRem\lModeBits">
<polygon fill="white" stroke="black" points="520,-355 520,-385 654,-385 654,-355 520,-355"/>
<text text-anchor="start" x="528" y="-373" font-family="Helvetica,sans-Serif" font-size="10.00">x265::Search::getIntraRem</text>
<text text-anchor="middle" x="587" y="-362" font-family="Helvetica,sans-Serif" font-size="10.00">ModeBits</text>
</a>
</g>
</g>
<!-- Node35&#45;&gt;Node37 -->
<g id="edge71" class="edge"><title>Node35&#45;&gt;Node37</title>
<path fill="none" stroke="midnightblue" d="M467.805,-364.811C485.24,-365.576 503.297,-366.369 519.891,-367.098"/>
<polygon fill="midnightblue" stroke="midnightblue" points="467.77,-361.306 457.626,-364.364 467.463,-368.299 467.77,-361.306"/>
</g>
<!-- Node36&#45;&gt;Node4 -->
<g id="edge67" class="edge"><title>Node36&#45;&gt;Node4</title>
<path fill="none" stroke="midnightblue" d="M852.647,-463.132C868.781,-466.146 885.578,-469.284 900.929,-472.152"/>
<polygon fill="midnightblue" stroke="midnightblue" points="853.179,-459.671 842.706,-461.275 851.893,-466.552 853.179,-459.671"/>
</g>
<!-- Node36&#45;&gt;Node6 -->
<g id="edge68" class="edge"><title>Node36&#45;&gt;Node6</title>
<path fill="none" stroke="midnightblue" d="M852.592,-438.902C959.157,-424.667 1151.7,-398.948 1251.74,-385.584"/>
<polygon fill="midnightblue" stroke="midnightblue" points="852.002,-435.45 842.553,-440.243 852.929,-442.388 852.002,-435.45"/>
</g>
<!-- Node36&#45;&gt;Node10 -->
<g id="edge69" class="edge"><title>Node36&#45;&gt;Node10</title>
<path fill="none" stroke="midnightblue" d="M829.385,-430.743C847.25,-424.772 867.407,-418.315 886,-413 1031.1,-371.524 1072.44,-379.536 1216,-333 1238.67,-325.652 1263.46,-315.504 1282.68,-307.143"/>
<polygon fill="midnightblue" stroke="midnightblue" points="828.079,-427.49 819.72,-434 830.314,-434.123 828.079,-427.49"/>
</g>
<!-- Node37&#45;&gt;Node24 -->
<g id="edge73" class="edge"><title>Node37&#45;&gt;Node24</title>
<path fill="none" stroke="midnightblue" d="M664.162,-361.04C676.731,-359.561 689.734,-358.031 702.218,-356.563"/>
<polygon fill="midnightblue" stroke="midnightblue" points="663.715,-357.568 654.192,-362.213 664.533,-364.52 663.715,-357.568"/>
</g>
<!-- Node37&#45;&gt;Node36 -->
<g id="edge72" class="edge"><title>Node37&#45;&gt;Node36</title>
<path fill="none" stroke="midnightblue" d="M638.181,-388.83C647.466,-392.447 657.054,-396.272 666,-400 692.046,-410.854 721.181,-424.004 742.772,-433.948"/>
<polygon fill="midnightblue" stroke="midnightblue" points="639.242,-385.488 628.653,-385.148 636.719,-392.017 639.242,-385.488"/>
</g>
</g>
</svg>
