<?xml version="1.0" encoding="UTF-8" standalone="no"?>
<!DOCTYPE svg PUBLIC "-//W3C//DTD SVG 1.1//EN"
 "http://www.w3.org/Graphics/SVG/1.1/DTD/svg11.dtd">
<!-- Generated by graphviz version 2.36.0 (20140111.2315)
 -->
<!-- Title: x265::Entropy::codeTransformSubdivFlag Pages: 1 -->
<!--zoomable 494 -->
<svg id="main" version="1.1" xmlns="http://www.w3.org/2000/svg" xmlns:xlink="http://www.w3.org/1999/xlink" xml:space="preserve" onload="init(evt)">
<style type="text/css"><![CDATA[
.edge:hover path { stroke: red; }
.edge:hover polygon { stroke: red; fill: red; }
]]></style>
<script type="text/javascript"><![CDATA[
var edges = document.getElementsByTagName('g');
if (edges && edges.length) {
  for (var i=0;i<edges.length;i++) {
    if (edges[i].id.substr(0,4)=='edge') {
      edges[i].setAttribute('class','edge');
    }
  }
}
]]></script>
        <defs>
                <circle id="rim" cx="0" cy="0" r="7"/>
                <circle id="rim2" cx="0" cy="0" r="3.5"/>
                <g id="zoomPlus">
                        <use xlink:href="#rim" fill="#404040">
                                <set attributeName="fill" to="#808080" begin="zoomplus.mouseover" end="zoomplus.mouseout"/>
                        </use>
                        <path d="M-4,0h8M0,-4v8" fill="none" stroke="white" stroke-width="1.5" pointer-events="none"/>
                </g>
                <g id="zoomMin">
                        <use xlink:href="#rim" fill="#404040">
                                <set attributeName="fill" to="#808080" begin="zoomminus.mouseover" end="zoomminus.mouseout"/>
                        </use>
                        <path d="M-4,0h8" fill="none" stroke="white" stroke-width="1.5" pointer-events="none"/>
                </g>
                <g id="dirArrow">
                        <path fill="none" stroke="white" stroke-width="1.5" d="M0,-3.0v7 M-2.5,-0.5L0,-3.0L2.5,-0.5"/>
                </g>
               <g id="resetDef">
                       <use xlink:href="#rim2" fill="#404040">
                               <set attributeName="fill" to="#808080" begin="reset.mouseover" end="reset.mouseout"/>
                       </use>
               </g>
        </defs>

<script type="text/javascript">
var viewWidth = 1630;
var viewHeight = 494;
var sectionId = 'dynsection-82';
</script>
<script xlink:href="svgpan.js"/>
<svg id="graph" class="graph">
<g id="viewport">
<title>x265::Entropy::codeTransformSubdivFlag</title>
<polygon fill="white" stroke="none" points="-4,4 -4,-489.931 1626,-489.931 1626,4 -4,4"/>
<!-- Node1 -->
<g id="node1" class="node"><title>Node1</title>
<polygon fill="#bfbfbf" stroke="black" points="0.5,-263.317 0.5,-293.317 149.5,-293.317 149.5,-263.317 0.5,-263.317"/>
<text text-anchor="start" x="8.5" y="-281.317" font-family="Helvetica,sans-Serif" font-size="10.00">x265::Entropy::codeTransform</text>
<text text-anchor="middle" x="75" y="-270.317" font-family="Helvetica,sans-Serif" font-size="10.00">SubdivFlag</text>
</g>
<!-- Node2 -->
<g id="node2" class="node"><title>Node2</title>
<g id="a_node2"><a xlink:href="classx265_1_1Entropy.html#af0793a415273d86dc38b396dae9f9db3" target="_top" xlink:title="x265::Entropy::encodeTransform">
<polygon fill="white" stroke="black" points="191.5,-211.817 191.5,-230.817 350.5,-230.817 350.5,-211.817 191.5,-211.817"/>
<text text-anchor="middle" x="271" y="-218.817" font-family="Helvetica,sans-Serif" font-size="10.00">x265::Entropy::encodeTransform</text>
</a>
</g>
</g>
<!-- Node1&#45;&gt;Node2 -->
<g id="edge1" class="edge"><title>Node1&#45;&gt;Node2</title>
<path fill="none" stroke="midnightblue" d="M125.673,-259.856C144.433,-253.229 166.061,-245.997 186,-240.317 198.079,-236.876 211.275,-233.647 223.555,-230.862"/>
<polygon fill="midnightblue" stroke="midnightblue" points="124.391,-256.598 116.149,-263.255 126.744,-263.191 124.391,-256.598"/>
</g>
<!-- Node22 -->
<g id="node22" class="node"><title>Node22</title>
<g id="a_node22"><a xlink:href="classx265_1_1Search.html#a59b84ac1e21c86af579b6e84e43c5b7a" target="_top" xlink:title="x265::Search::codeIntraLumaQT">
<polygon fill="white" stroke="black" points="401,-325.817 401,-344.817 559,-344.817 559,-325.817 401,-325.817"/>
<text text-anchor="middle" x="480" y="-332.817" font-family="Helvetica,sans-Serif" font-size="10.00">x265::Search::codeIntraLumaQT</text>
</a>
</g>
</g>
<!-- Node1&#45;&gt;Node22 -->
<g id="edge37" class="edge"><title>Node1&#45;&gt;Node22</title>
<path fill="none" stroke="midnightblue" d="M160.225,-290.23C234.883,-300.789 342.488,-316.009 411.582,-325.781"/>
<polygon fill="midnightblue" stroke="midnightblue" points="160.308,-286.707 149.916,-288.772 159.328,-293.638 160.308,-286.707"/>
</g>
<!-- Node24 -->
<g id="node24" class="node"><title>Node24</title>
<g id="a_node24"><a xlink:href="classx265_1_1Search.html#a9f01b6f04dca31dca9f16e60d1c029b3" target="_top" xlink:title="x265::Search::xEstimateResidualQT">
<polygon fill="white" stroke="black" points="392,-268.817 392,-287.817 568,-287.817 568,-268.817 392,-268.817"/>
<text text-anchor="middle" x="480" y="-275.817" font-family="Helvetica,sans-Serif" font-size="10.00">x265::Search::xEstimateResidualQT</text>
</a>
</g>
</g>
<!-- Node1&#45;&gt;Node24 -->
<g id="edge41" class="edge"><title>Node1&#45;&gt;Node24</title>
<path fill="none" stroke="midnightblue" d="M160.149,-278.317C228.041,-278.317 323.214,-278.317 391.885,-278.317"/>
<polygon fill="midnightblue" stroke="midnightblue" points="159.916,-274.817 149.916,-278.317 159.916,-281.817 159.916,-274.817"/>
</g>
<!-- Node25 -->
<g id="node25" class="node"><title>Node25</title>
<g id="a_node25"><a xlink:href="classx265_1_1Search.html#a52f183b79fbb6d1aa3255084d89e01c6" target="_top" xlink:title="x265::Search::xEncodeResidualQT">
<polygon fill="white" stroke="black" points="186,-249.817 186,-268.817 356,-268.817 356,-249.817 186,-249.817"/>
<text text-anchor="middle" x="271" y="-256.817" font-family="Helvetica,sans-Serif" font-size="10.00">x265::Search::xEncodeResidualQT</text>
</a>
</g>
</g>
<!-- Node1&#45;&gt;Node25 -->
<g id="edge43" class="edge"><title>Node1&#45;&gt;Node25</title>
<path fill="none" stroke="midnightblue" d="M159.668,-270.123C168.298,-269.277 177.071,-268.418 185.708,-267.572"/>
<polygon fill="midnightblue" stroke="midnightblue" points="159.231,-266.649 149.62,-271.107 159.913,-273.615 159.231,-266.649"/>
</g>
<!-- Node3 -->
<g id="node3" class="node"><title>Node3</title>
<g id="a_node3"><a xlink:href="classx265_1_1Entropy.html#a220326e32d9be80554bf11194ef2c642" target="_top" xlink:title="x265::Entropy::codeCoeff">
<polygon fill="white" stroke="black" points="416,-211.817 416,-230.817 544,-230.817 544,-211.817 416,-211.817"/>
<text text-anchor="middle" x="480" y="-218.817" font-family="Helvetica,sans-Serif" font-size="10.00">x265::Entropy::codeCoeff</text>
</a>
</g>
</g>
<!-- Node2&#45;&gt;Node3 -->
<g id="edge2" class="edge"><title>Node2&#45;&gt;Node3</title>
<path fill="none" stroke="midnightblue" d="M360.783,-221.317C379.345,-221.317 398.551,-221.317 415.948,-221.317"/>
<polygon fill="midnightblue" stroke="midnightblue" points="360.553,-217.817 350.553,-221.317 360.553,-224.817 360.553,-217.817"/>
</g>
<!-- Node4 -->
<g id="node4" class="node"><title>Node4</title>
<g id="a_node4"><a xlink:href="classx265_1_1Analysis.html#ae4d61bcf4d2c22a054d68d6d77136428" target="_top" xlink:title="x265::Analysis::encodeIntra\lInInter">
<polygon fill="white" stroke="black" points="609,-181.317 609,-211.317 747,-211.317 747,-181.317 609,-181.317"/>
<text text-anchor="start" x="617" y="-199.317" font-family="Helvetica,sans-Serif" font-size="10.00">x265::Analysis::encodeIntra</text>
<text text-anchor="middle" x="678" y="-188.317" font-family="Helvetica,sans-Serif" font-size="10.00">InInter</text>
</a>
</g>
</g>
<!-- Node3&#45;&gt;Node4 -->
<g id="edge3" class="edge"><title>Node3&#45;&gt;Node4</title>
<path fill="none" stroke="midnightblue" d="M554.207,-211.979C572.142,-209.692 591.263,-207.253 608.945,-204.997"/>
<polygon fill="midnightblue" stroke="midnightblue" points="553.571,-208.532 544.095,-213.269 554.457,-215.476 553.571,-208.532"/>
</g>
<!-- Node11 -->
<g id="node11" class="node"><title>Node11</title>
<g id="a_node11"><a xlink:href="classx265_1_1Entropy.html#adeb50a7c9a5df6643407d01158d93799" target="_top" xlink:title="x265::Entropy::encodeCU">
<polygon fill="white" stroke="black" points="613,-82.817 613,-101.817 743,-101.817 743,-82.817 613,-82.817"/>
<text text-anchor="middle" x="678" y="-89.817" font-family="Helvetica,sans-Serif" font-size="10.00">x265::Entropy::encodeCU</text>
</a>
</g>
</g>
<!-- Node3&#45;&gt;Node11 -->
<g id="edge12" class="edge"><title>Node3&#45;&gt;Node11</title>
<path fill="none" stroke="midnightblue" d="M504.225,-206.031C545.065,-179.151 628.607,-124.167 662.365,-101.949"/>
<polygon fill="midnightblue" stroke="midnightblue" points="502.161,-203.2 495.732,-211.621 506.009,-209.047 502.161,-203.2"/>
</g>
<!-- Node14 -->
<g id="node14" class="node"><title>Node14</title>
<g id="a_node14"><a xlink:href="classx265_1_1Search.html#ab02df91827cf67796d1605bde60c6aed" target="_top" xlink:title="x265::Search::checkIntra">
<polygon fill="white" stroke="black" points="799,-341.817 799,-360.817 925,-360.817 925,-341.817 799,-341.817"/>
<text text-anchor="middle" x="862" y="-348.817" font-family="Helvetica,sans-Serif" font-size="10.00">x265::Search::checkIntra</text>
</a>
</g>
</g>
<!-- Node3&#45;&gt;Node14 -->
<g id="edge16" class="edge"><title>Node3&#45;&gt;Node14</title>
<path fill="none" stroke="midnightblue" d="M515.455,-234.644C540.038,-244.044 573.931,-256.785 604,-267.317 685.294,-295.79 782.092,-326.603 830.398,-341.772"/>
<polygon fill="midnightblue" stroke="midnightblue" points="516.45,-231.277 505.86,-230.964 513.943,-237.813 516.45,-231.277"/>
</g>
<!-- Node18 -->
<g id="node18" class="node"><title>Node18</title>
<g id="a_node18"><a xlink:href="classx265_1_1Search.html#aba5e04ce529f41accd43c540ba1dc7ad" target="_top" xlink:title="x265::Search::encodeResAnd\lCalcRdInterCU">
<polygon fill="white" stroke="black" points="788.5,-266.317 788.5,-296.317 935.5,-296.317 935.5,-266.317 788.5,-266.317"/>
<text text-anchor="start" x="796.5" y="-284.317" font-family="Helvetica,sans-Serif" font-size="10.00">x265::Search::encodeResAnd</text>
<text text-anchor="middle" x="862" y="-273.317" font-family="Helvetica,sans-Serif" font-size="10.00">CalcRdInterCU</text>
</a>
</g>
</g>
<!-- Node3&#45;&gt;Node18 -->
<g id="edge26" class="edge"><title>Node3&#45;&gt;Node18</title>
<path fill="none" stroke="midnightblue" d="M551.324,-232.421C618.785,-243.072 720.195,-259.085 788.405,-269.855"/>
<polygon fill="midnightblue" stroke="midnightblue" points="551.636,-228.927 541.212,-230.824 550.544,-235.841 551.636,-228.927"/>
</g>
<!-- Node5 -->
<g id="node5" class="node"><title>Node5</title>
<g id="a_node5"><a xlink:href="classx265_1_1Analysis.html#aa6122285d10bb1bd7584958b88b029d5" target="_top" xlink:title="x265::Analysis::parallel\lModeAnalysis">
<polygon fill="white" stroke="black" points="803,-178.317 803,-208.317 921,-208.317 921,-178.317 803,-178.317"/>
<text text-anchor="start" x="811" y="-196.317" font-family="Helvetica,sans-Serif" font-size="10.00">x265::Analysis::parallel</text>
<text text-anchor="middle" x="862" y="-185.317" font-family="Helvetica,sans-Serif" font-size="10.00">ModeAnalysis</text>
</a>
</g>
</g>
<!-- Node4&#45;&gt;Node5 -->
<g id="edge4" class="edge"><title>Node4&#45;&gt;Node5</title>
<path fill="none" stroke="midnightblue" d="M757.045,-195.031C772.427,-194.777 788.312,-194.515 802.895,-194.275"/>
<polygon fill="midnightblue" stroke="midnightblue" points="756.97,-191.531 747.029,-195.196 757.085,-198.53 756.97,-191.531"/>
</g>
<!-- Node7 -->
<g id="node7" class="node"><title>Node7</title>
<g id="a_node7"><a xlink:href="classx265_1_1Analysis.html#a87060ff27a37f56adc5f5b8a4c033ece" target="_top" xlink:title="x265::Analysis::compress\lInterCU_dist">
<polygon fill="white" stroke="black" points="1154,-222.317 1154,-252.317 1284,-252.317 1284,-222.317 1154,-222.317"/>
<text text-anchor="start" x="1162" y="-240.317" font-family="Helvetica,sans-Serif" font-size="10.00">x265::Analysis::compress</text>
<text text-anchor="middle" x="1219" y="-229.317" font-family="Helvetica,sans-Serif" font-size="10.00">InterCU_dist</text>
</a>
</g>
</g>
<!-- Node4&#45;&gt;Node7 -->
<g id="edge9" class="edge"><title>Node4&#45;&gt;Node7</title>
<path fill="none" stroke="midnightblue" d="M756.982,-212.747C767.376,-214.523 777.921,-216.118 788,-217.317 917.126,-232.678 1069.37,-236.397 1153.65,-237.204"/>
<polygon fill="midnightblue" stroke="midnightblue" points="757.542,-209.292 747.085,-210.995 756.321,-216.184 757.542,-209.292"/>
</g>
<!-- Node10 -->
<g id="node10" class="node"><title>Node10</title>
<g id="a_node10"><a xlink:href="classx265_1_1Analysis.html#a30d2ff7eca5addbb0a6b3dfe14f09650" target="_top" xlink:title="x265::Analysis::compress\lInterCU_rd0_4">
<polygon fill="white" stroke="black" points="1154,-140.317 1154,-170.317 1284,-170.317 1284,-140.317 1154,-140.317"/>
<text text-anchor="start" x="1162" y="-158.317" font-family="Helvetica,sans-Serif" font-size="10.00">x265::Analysis::compress</text>
<text text-anchor="middle" x="1219" y="-147.317" font-family="Helvetica,sans-Serif" font-size="10.00">InterCU_rd0_4</text>
</a>
</g>
</g>
<!-- Node4&#45;&gt;Node10 -->
<g id="edge10" class="edge"><title>Node4&#45;&gt;Node10</title>
<path fill="none" stroke="midnightblue" d="M717.686,-176.893C794.353,-140.913 970.891,-70.5893 1118,-105.317 1146.34,-112.006 1175.8,-128.023 1195.34,-140.139"/>
<polygon fill="midnightblue" stroke="midnightblue" points="715.931,-173.852 708.406,-181.31 718.94,-180.172 715.931,-173.852"/>
</g>
<!-- Node6 -->
<g id="node6" class="node"><title>Node6</title>
<g id="a_node6"><a xlink:href="classx265_1_1Analysis.html#a29a58dad4cc1c07d2f5e5717c6be7c25" target="_top" xlink:title="x265::Analysis::findJob">
<polygon fill="white" stroke="black" points="985.5,-189.817 985.5,-208.817 1104.5,-208.817 1104.5,-189.817 985.5,-189.817"/>
<text text-anchor="middle" x="1045" y="-196.817" font-family="Helvetica,sans-Serif" font-size="10.00">x265::Analysis::findJob</text>
</a>
</g>
</g>
<!-- Node5&#45;&gt;Node6 -->
<g id="edge5" class="edge"><title>Node5&#45;&gt;Node6</title>
<path fill="none" stroke="midnightblue" d="M931.519,-195.588C949.205,-196.175 968.083,-196.8 985.223,-197.369"/>
<polygon fill="midnightblue" stroke="midnightblue" points="931.376,-192.082 921.266,-195.248 931.144,-199.078 931.376,-192.082"/>
</g>
<!-- Node6&#45;&gt;Node7 -->
<g id="edge6" class="edge"><title>Node6&#45;&gt;Node7</title>
<path fill="none" stroke="midnightblue" d="M1099.29,-211.091C1116.54,-214.901 1135.85,-219.167 1153.8,-223.133"/>
<polygon fill="midnightblue" stroke="midnightblue" points="1099.92,-207.646 1089.4,-208.906 1098.41,-214.481 1099.92,-207.646"/>
</g>
<!-- Node8 -->
<g id="node8" class="node"><title>Node8</title>
<g id="a_node8"><a xlink:href="classx265_1_1Analysis.html#aaebc9de2ff98834c650244f3b58942c2" target="_top" xlink:title="x265::Analysis::compressCTU">
<polygon fill="white" stroke="black" points="1320.5,-227.817 1320.5,-246.817 1471.5,-246.817 1471.5,-227.817 1320.5,-227.817"/>
<text text-anchor="middle" x="1396" y="-234.817" font-family="Helvetica,sans-Serif" font-size="10.00">x265::Analysis::compressCTU</text>
</a>
</g>
</g>
<!-- Node7&#45;&gt;Node8 -->
<g id="edge7" class="edge"><title>Node7&#45;&gt;Node8</title>
<path fill="none" stroke="midnightblue" d="M1294.25,-237.317C1302.93,-237.317 1311.78,-237.317 1320.47,-237.317"/>
<polygon fill="midnightblue" stroke="midnightblue" points="1294.17,-233.817 1284.17,-237.317 1294.17,-240.817 1294.17,-233.817"/>
</g>
<!-- Node9 -->
<g id="node9" class="node"><title>Node9</title>
<g id="a_node9"><a xlink:href="classx265_1_1FrameEncoder.html#a0ae85001572afd28238476542523ac5f" target="_top" xlink:title="x265::FrameEncoder\l::processRowEncoder">
<polygon fill="white" stroke="red" points="1508.5,-96.317 1508.5,-126.317 1621.5,-126.317 1621.5,-96.317 1508.5,-96.317"/>
<text text-anchor="start" x="1516.5" y="-114.317" font-family="Helvetica,sans-Serif" font-size="10.00">x265::FrameEncoder</text>
<text text-anchor="middle" x="1565" y="-103.317" font-family="Helvetica,sans-Serif" font-size="10.00">::processRowEncoder</text>
</a>
</g>
</g>
<!-- Node8&#45;&gt;Node9 -->
<g id="edge8" class="edge"><title>Node8&#45;&gt;Node9</title>
<path fill="none" stroke="midnightblue" d="M1418.16,-221.35C1450.64,-196.847 1512.33,-150.304 1544.05,-126.365"/>
<polygon fill="midnightblue" stroke="midnightblue" points="1415.7,-218.822 1409.83,-227.639 1419.92,-224.41 1415.7,-218.822"/>
</g>
<!-- Node10&#45;&gt;Node8 -->
<g id="edge11" class="edge"><title>Node10&#45;&gt;Node8</title>
<path fill="none" stroke="midnightblue" d="M1261.28,-174.662C1296.93,-191.365 1346.93,-214.795 1374.59,-227.753"/>
<polygon fill="midnightblue" stroke="midnightblue" points="1262.64,-171.431 1252.1,-170.357 1259.67,-177.769 1262.64,-171.431"/>
</g>
<!-- Node12 -->
<g id="node12" class="node"><title>Node12</title>
<g id="a_node12"><a xlink:href="classx265_1_1Entropy.html#abb101b71f310e90eb504a8204babc180" target="_top" xlink:title="x265::Entropy::encodeCTU">
<polygon fill="white" stroke="black" points="794,-19.817 794,-38.817 930,-38.817 930,-19.817 794,-19.817"/>
<text text-anchor="middle" x="862" y="-26.817" font-family="Helvetica,sans-Serif" font-size="10.00">x265::Entropy::encodeCTU</text>
</a>
</g>
</g>
<!-- Node11&#45;&gt;Node12 -->
<g id="edge13" class="edge"><title>Node11&#45;&gt;Node12</title>
<path fill="none" stroke="midnightblue" d="M716.432,-79.3598C751.207,-67.3223 802.188,-49.6749 833.397,-38.8719"/>
<polygon fill="midnightblue" stroke="midnightblue" points="714.947,-76.17 706.642,-82.7486 717.237,-82.7849 714.947,-76.17"/>
</g>
<!-- Node12&#45;&gt;Node9 -->
<g id="edge15" class="edge"><title>Node12&#45;&gt;Node9</title>
<path fill="none" stroke="midnightblue" d="M905.775,-17.1563C925.72,-12.0948 949.885,-6.82054 972,-4.31696 1182.41,19.5039 1430.87,-61.5231 1525.13,-96.2622"/>
<polygon fill="midnightblue" stroke="midnightblue" points="904.852,-13.7801 896.058,-19.6892 906.617,-20.5537 904.852,-13.7801"/>
</g>
<!-- Node13 -->
<g id="node13" class="node"><title>Node13</title>
<g id="a_node13"><a xlink:href="classx265_1_1FrameEncoder.html#a6d4045d35bfe6b10c8d0dc39353be360" target="_top" xlink:title="x265::FrameEncoder\l::encodeSlice">
<polygon fill="white" stroke="red" points="991.5,-14.317 991.5,-44.317 1098.5,-44.317 1098.5,-14.317 991.5,-14.317"/>
<text text-anchor="start" x="999.5" y="-32.317" font-family="Helvetica,sans-Serif" font-size="10.00">x265::FrameEncoder</text>
<text text-anchor="middle" x="1045" y="-21.317" font-family="Helvetica,sans-Serif" font-size="10.00">::encodeSlice</text>
</a>
</g>
</g>
<!-- Node12&#45;&gt;Node13 -->
<g id="edge14" class="edge"><title>Node12&#45;&gt;Node13</title>
<path fill="none" stroke="midnightblue" d="M940.209,-29.317C957.472,-29.317 975.394,-29.317 991.389,-29.317"/>
<polygon fill="midnightblue" stroke="midnightblue" points="940.141,-25.8171 930.141,-29.317 940.14,-32.8171 940.141,-25.8171"/>
</g>
<!-- Node15 -->
<g id="node15" class="node"><title>Node15</title>
<g id="a_node15"><a xlink:href="classx265_1_1Analysis.html#a10f0a8d9d143faf8dc671c6f0982693d" target="_top" xlink:title="x265::Analysis::tryLossless">
<polygon fill="white" stroke="black" points="976.5,-303.817 976.5,-322.817 1113.5,-322.817 1113.5,-303.817 976.5,-303.817"/>
<text text-anchor="middle" x="1045" y="-310.817" font-family="Helvetica,sans-Serif" font-size="10.00">x265::Analysis::tryLossless</text>
</a>
</g>
</g>
<!-- Node14&#45;&gt;Node15 -->
<g id="edge17" class="edge"><title>Node14&#45;&gt;Node15</title>
<path fill="none" stroke="midnightblue" d="M918.638,-339.636C944.307,-334.247 974.391,-327.931 998.654,-322.837"/>
<polygon fill="midnightblue" stroke="midnightblue" points="917.741,-336.248 908.674,-341.728 919.18,-343.099 917.741,-336.248"/>
</g>
<!-- Node16 -->
<g id="node16" class="node"><title>Node16</title>
<g id="a_node16"><a xlink:href="classx265_1_1Analysis.html#aae2a6a2252270782b591d2bed7e99dae" target="_top" xlink:title="x265::Analysis::compress\lIntraCU">
<polygon fill="white" stroke="black" points="1154,-298.317 1154,-328.317 1284,-328.317 1284,-298.317 1154,-298.317"/>
<text text-anchor="start" x="1162" y="-316.317" font-family="Helvetica,sans-Serif" font-size="10.00">x265::Analysis::compress</text>
<text text-anchor="middle" x="1219" y="-305.317" font-family="Helvetica,sans-Serif" font-size="10.00">IntraCU</text>
</a>
</g>
</g>
<!-- Node14&#45;&gt;Node16 -->
<g id="edge24" class="edge"><title>Node14&#45;&gt;Node16</title>
<path fill="none" stroke="midnightblue" d="M935.332,-348.116C986.503,-345.318 1056.65,-340.405 1118,-332.317 1129.65,-330.781 1142,-328.761 1153.89,-326.612"/>
<polygon fill="midnightblue" stroke="midnightblue" points="934.835,-344.637 925.035,-348.665 935.207,-351.628 934.835,-344.637"/>
</g>
<!-- Node17 -->
<g id="node17" class="node"><title>Node17</title>
<g id="a_node17"><a xlink:href="classx265_1_1Analysis.html#a0b22b7765aa4a36b1ba6d07ba26901e6" target="_top" xlink:title="x265::Analysis::compress\lInterCU_rd5_6">
<polygon fill="white" stroke="black" points="1154,-380.317 1154,-410.317 1284,-410.317 1284,-380.317 1154,-380.317"/>
<text text-anchor="start" x="1162" y="-398.317" font-family="Helvetica,sans-Serif" font-size="10.00">x265::Analysis::compress</text>
<text text-anchor="middle" x="1219" y="-387.317" font-family="Helvetica,sans-Serif" font-size="10.00">InterCU_rd5_6</text>
</a>
</g>
</g>
<!-- Node14&#45;&gt;Node17 -->
<g id="edge25" class="edge"><title>Node14&#45;&gt;Node17</title>
<path fill="none" stroke="midnightblue" d="M873.311,-369.721C889.934,-397.258 925.546,-448.105 972,-468.317 1031.5,-494.206 1056.31,-488.438 1118,-468.317 1152.94,-456.919 1185.82,-428.177 1203.8,-410.347"/>
<polygon fill="midnightblue" stroke="midnightblue" points="876.306,-367.908 868.237,-361.041 870.263,-371.441 876.306,-367.908"/>
</g>
<!-- Node15&#45;&gt;Node7 -->
<g id="edge20" class="edge"><title>Node15&#45;&gt;Node7</title>
<path fill="none" stroke="midnightblue" d="M1088.01,-300.553C1097.96,-297.192 1108.45,-293.364 1118,-289.317 1143.77,-278.404 1171.95,-263.457 1191.81,-252.389"/>
<polygon fill="midnightblue" stroke="midnightblue" points="1086.71,-297.298 1078.3,-303.749 1088.89,-303.947 1086.71,-297.298"/>
</g>
<!-- Node15&#45;&gt;Node10 -->
<g id="edge21" class="edge"><title>Node15&#45;&gt;Node10</title>
<path fill="none" stroke="midnightblue" d="M1063.37,-296.829C1084.61,-276.725 1121.72,-241.78 1154,-212.317 1169.72,-197.974 1187.84,-181.869 1200.79,-170.446"/>
<polygon fill="midnightblue" stroke="midnightblue" points="1060.9,-294.347 1056.05,-303.766 1065.71,-299.428 1060.9,-294.347"/>
</g>
<!-- Node15&#45;&gt;Node16 -->
<g id="edge18" class="edge"><title>Node15&#45;&gt;Node16</title>
<path fill="none" stroke="midnightblue" d="M1124.24,-313.317C1134.16,-313.317 1144.22,-313.317 1153.88,-313.317"/>
<polygon fill="midnightblue" stroke="midnightblue" points="1123.98,-309.817 1113.98,-313.317 1123.98,-316.817 1123.98,-309.817"/>
</g>
<!-- Node15&#45;&gt;Node17 -->
<g id="edge22" class="edge"><title>Node15&#45;&gt;Node17</title>
<path fill="none" stroke="midnightblue" d="M1075.44,-327.352C1106.34,-342.082 1154.73,-365.154 1186.41,-380.257"/>
<polygon fill="midnightblue" stroke="midnightblue" points="1076.6,-324.028 1066.07,-322.884 1073.59,-330.347 1076.6,-324.028"/>
</g>
<!-- Node16&#45;&gt;Node8 -->
<g id="edge19" class="edge"><title>Node16&#45;&gt;Node8</title>
<path fill="none" stroke="midnightblue" d="M1264.02,-294.201C1298.75,-279.119 1345.72,-258.717 1372.96,-246.89"/>
<polygon fill="midnightblue" stroke="midnightblue" points="1262.35,-291.108 1254.57,-298.302 1265.14,-297.529 1262.35,-291.108"/>
</g>
<!-- Node17&#45;&gt;Node8 -->
<g id="edge23" class="edge"><title>Node17&#45;&gt;Node8</title>
<path fill="none" stroke="midnightblue" d="M1244.46,-373.236C1283.05,-338.388 1356.54,-272.041 1384.15,-247.111"/>
<polygon fill="midnightblue" stroke="midnightblue" points="1241.86,-370.868 1236.78,-380.167 1246.55,-376.064 1241.86,-370.868"/>
</g>
<!-- Node18&#45;&gt;Node7 -->
<g id="edge28" class="edge"><title>Node18&#45;&gt;Node7</title>
<path fill="none" stroke="midnightblue" d="M945.696,-272.054C995.625,-266.345 1060.51,-258.722 1118,-251.317 1129.56,-249.828 1141.87,-248.167 1153.74,-246.525"/>
<polygon fill="midnightblue" stroke="midnightblue" points="945.135,-268.595 935.596,-273.206 945.929,-275.55 945.135,-268.595"/>
</g>
<!-- Node18&#45;&gt;Node10 -->
<g id="edge29" class="edge"><title>Node18&#45;&gt;Node10</title>
<path fill="none" stroke="midnightblue" d="M893.415,-259.871C907.807,-248.522 924.348,-233.581 936,-217.317 960.371,-183.3 937.21,-153.572 972,-130.317 1037.85,-86.3025 1136.56,-118.716 1186.56,-140.256"/>
<polygon fill="midnightblue" stroke="midnightblue" points="891.06,-257.265 885.243,-266.12 895.313,-262.826 891.06,-257.265"/>
</g>
<!-- Node18&#45;&gt;Node15 -->
<g id="edge27" class="edge"><title>Node18&#45;&gt;Node15</title>
<path fill="none" stroke="midnightblue" d="M945.464,-295.896C960.605,-298.573 976.047,-301.303 990.079,-303.784"/>
<polygon fill="midnightblue" stroke="midnightblue" points="946.033,-292.443 935.577,-294.148 944.815,-299.336 946.033,-292.443"/>
</g>
<!-- Node19 -->
<g id="node19" class="node"><title>Node19</title>
<g id="a_node19"><a xlink:href="classx265_1_1Analysis.html#addd72cb95590e2b2a6965d42d110eab3" target="_top" xlink:title="x265::Analysis::checkMerge2\lNx2N_rd0_4">
<polygon fill="white" stroke="black" points="972,-140.317 972,-170.317 1118,-170.317 1118,-140.317 972,-140.317"/>
<text text-anchor="start" x="980" y="-158.317" font-family="Helvetica,sans-Serif" font-size="10.00">x265::Analysis::checkMerge2</text>
<text text-anchor="middle" x="1045" y="-147.317" font-family="Helvetica,sans-Serif" font-size="10.00">Nx2N_rd0_4</text>
</a>
</g>
</g>
<!-- Node18&#45;&gt;Node19 -->
<g id="edge30" class="edge"><title>Node18&#45;&gt;Node19</title>
<path fill="none" stroke="midnightblue" d="M888.932,-259.457C903.085,-247.311 920.775,-231.771 936,-217.317 952.639,-201.52 952.642,-192.633 972,-180.317 977.917,-176.552 984.47,-173.275 991.142,-170.444"/>
<polygon fill="midnightblue" stroke="midnightblue" points="886.386,-257.029 881.053,-266.183 890.931,-262.353 886.386,-257.029"/>
</g>
<!-- Node20 -->
<g id="node20" class="node"><title>Node20</title>
<g id="a_node20"><a xlink:href="classx265_1_1Analysis.html#a0194a9da53aa95173fa1132ba3aea1c7" target="_top" xlink:title="x265::Analysis::checkMerge2\lNx2N_rd5_6">
<polygon fill="white" stroke="black" points="972,-380.317 972,-410.317 1118,-410.317 1118,-380.317 972,-380.317"/>
<text text-anchor="start" x="980" y="-398.317" font-family="Helvetica,sans-Serif" font-size="10.00">x265::Analysis::checkMerge2</text>
<text text-anchor="middle" x="1045" y="-387.317" font-family="Helvetica,sans-Serif" font-size="10.00">Nx2N_rd5_6</text>
</a>
</g>
</g>
<!-- Node18&#45;&gt;Node20 -->
<g id="edge33" class="edge"><title>Node18&#45;&gt;Node20</title>
<path fill="none" stroke="midnightblue" d="M895.676,-301.898C931.54,-324.486 988.248,-360.203 1020.15,-380.298"/>
<polygon fill="midnightblue" stroke="midnightblue" points="897.362,-298.823 887.035,-296.455 893.632,-304.746 897.362,-298.823"/>
</g>
<!-- Node21 -->
<g id="node21" class="node"><title>Node21</title>
<g id="a_node21"><a xlink:href="classx265_1_1Analysis.html#a828daa3e9f1ed40a1af9f99f7ff7bb33" target="_top" xlink:title="x265::Analysis::checkInter\l_rd5_6">
<polygon fill="white" stroke="black" points="978.5,-429.317 978.5,-459.317 1111.5,-459.317 1111.5,-429.317 978.5,-429.317"/>
<text text-anchor="start" x="986.5" y="-447.317" font-family="Helvetica,sans-Serif" font-size="10.00">x265::Analysis::checkInter</text>
<text text-anchor="middle" x="1045" y="-436.317" font-family="Helvetica,sans-Serif" font-size="10.00">_rd5_6</text>
</a>
</g>
</g>
<!-- Node18&#45;&gt;Node21 -->
<g id="edge35" class="edge"><title>Node18&#45;&gt;Node21</title>
<path fill="none" stroke="midnightblue" d="M900.831,-301.839C913.294,-310.027 926.404,-320.369 936,-332.317 962.204,-364.943 941.563,-390.6 972,-419.317 976.139,-423.222 980.918,-426.52 986.007,-429.305"/>
<polygon fill="midnightblue" stroke="midnightblue" points="902.687,-298.872 892.356,-296.521 898.966,-304.801 902.687,-298.872"/>
</g>
<!-- Node19&#45;&gt;Node7 -->
<g id="edge31" class="edge"><title>Node19&#45;&gt;Node7</title>
<path fill="none" stroke="midnightblue" d="M1102.74,-173.91C1107.95,-175.949 1113.11,-178.095 1118,-180.317 1145.11,-192.625 1174.54,-209.915 1194.4,-222.218"/>
<polygon fill="midnightblue" stroke="midnightblue" points="1103.94,-170.623 1093.35,-170.363 1101.47,-177.171 1103.94,-170.623"/>
</g>
<!-- Node19&#45;&gt;Node10 -->
<g id="edge32" class="edge"><title>Node19&#45;&gt;Node10</title>
<path fill="none" stroke="midnightblue" d="M1128.7,-155.317C1137.14,-155.317 1145.63,-155.317 1153.83,-155.317"/>
<polygon fill="midnightblue" stroke="midnightblue" points="1128.45,-151.817 1118.44,-155.317 1128.44,-158.817 1128.45,-151.817"/>
</g>
<!-- Node20&#45;&gt;Node17 -->
<g id="edge34" class="edge"><title>Node20&#45;&gt;Node17</title>
<path fill="none" stroke="midnightblue" d="M1128.7,-395.317C1137.14,-395.317 1145.63,-395.317 1153.83,-395.317"/>
<polygon fill="midnightblue" stroke="midnightblue" points="1128.45,-391.817 1118.44,-395.317 1128.44,-398.817 1128.45,-391.817"/>
</g>
<!-- Node21&#45;&gt;Node17 -->
<g id="edge36" class="edge"><title>Node21&#45;&gt;Node17</title>
<path fill="none" stroke="midnightblue" d="M1108.81,-426.423C1127.31,-421.153 1147.36,-415.441 1165.17,-410.369"/>
<polygon fill="midnightblue" stroke="midnightblue" points="1107.67,-423.11 1099.01,-429.216 1109.59,-429.842 1107.67,-423.11"/>
</g>
<!-- Node22&#45;&gt;Node4 -->
<g id="edge38" class="edge"><title>Node22&#45;&gt;Node4</title>
<path fill="none" stroke="midnightblue" d="M518.753,-322.049C534.588,-315.68 552.811,-307.259 568,-297.317 606.638,-272.026 644.534,-232.723 663.835,-211.368"/>
<polygon fill="midnightblue" stroke="midnightblue" points="517.302,-318.857 509.25,-325.744 519.839,-325.382 517.302,-318.857"/>
</g>
<!-- Node23 -->
<g id="node23" class="node"><title>Node23</title>
<g id="a_node23"><a xlink:href="classx265_1_1Search.html#a1778d2ab96ac88c7f76d36818d6adbdd" target="_top" xlink:title="x265::Search::estIntraPredQT">
<polygon fill="white" stroke="black" points="604.5,-344.817 604.5,-363.817 751.5,-363.817 751.5,-344.817 604.5,-344.817"/>
<text text-anchor="middle" x="678" y="-351.817" font-family="Helvetica,sans-Serif" font-size="10.00">x265::Search::estIntraPredQT</text>
</a>
</g>
</g>
<!-- Node22&#45;&gt;Node23 -->
<g id="edge39" class="edge"><title>Node22&#45;&gt;Node23</title>
<path fill="none" stroke="midnightblue" d="M569.268,-343.874C580.996,-345.01 592.912,-346.166 604.335,-347.273"/>
<polygon fill="midnightblue" stroke="midnightblue" points="569.319,-340.362 559.028,-342.881 568.643,-347.329 569.319,-340.362"/>
</g>
<!-- Node23&#45;&gt;Node14 -->
<g id="edge40" class="edge"><title>Node23&#45;&gt;Node14</title>
<path fill="none" stroke="midnightblue" d="M762.07,-352.948C774.475,-352.743 787.079,-352.535 798.949,-352.34"/>
<polygon fill="midnightblue" stroke="midnightblue" points="761.657,-349.454 751.716,-353.118 761.772,-356.453 761.657,-349.454"/>
</g>
<!-- Node24&#45;&gt;Node18 -->
<g id="edge42" class="edge"><title>Node24&#45;&gt;Node18</title>
<path fill="none" stroke="midnightblue" d="M578.507,-279.087C643.936,-279.603 728.718,-280.273 788.266,-280.743"/>
<polygon fill="midnightblue" stroke="midnightblue" points="578.207,-275.584 568.18,-279.005 578.152,-282.584 578.207,-275.584"/>
</g>
<!-- Node25&#45;&gt;Node24 -->
<g id="edge44" class="edge"><title>Node25&#45;&gt;Node24</title>
<path fill="none" stroke="midnightblue" d="M366.179,-267.961C374.729,-268.746 383.365,-269.539 391.851,-270.318"/>
<polygon fill="midnightblue" stroke="midnightblue" points="366.473,-264.474 356.195,-267.045 365.833,-271.444 366.473,-264.474"/>
</g>
</g>
</svg>
        <g id="navigator" transform="translate(0 0)" fill="#404254">
                <rect fill="#f2f5e9" fill-opacity="0.5" stroke="#606060" stroke-width=".5" x="0" y="0" width="60" height="60"/>
                <use id="zoomplus" xlink:href="#zoomPlus" x="17" y="9" onmousedown="handleZoom(evt,'in')"/>
                <use id="zoomminus" xlink:href="#zoomMin" x="42" y="9" onmousedown="handleZoom(evt,'out')"/>
                <use id="reset" xlink:href="#resetDef" x="30" y="36" onmousedown="handleReset()"/>
                <g id="arrowUp" xlink:href="#dirArrow" transform="translate(30 24)" onmousedown="handlePan(0,-1)">
                  <use xlink:href="#rim" fill="#404040">
                        <set attributeName="fill" to="#808080" begin="arrowUp.mouseover" end="arrowUp.mouseout"/>
                  </use>
                  <path fill="none" stroke="white" stroke-width="1.5" d="M0,-3.0v7 M-2.5,-0.5L0,-3.0L2.5,-0.5"/>
                </g>
                <g id="arrowRight" xlink:href="#dirArrow" transform="rotate(90) translate(36 -43)" onmousedown="handlePan(1,0)">
                  <use xlink:href="#rim" fill="#404040">
                        <set attributeName="fill" to="#808080" begin="arrowRight.mouseover" end="arrowRight.mouseout"/>
                  </use>
                  <path fill="none" stroke="white" stroke-width="1.5" d="M0,-3.0v7 M-2.5,-0.5L0,-3.0L2.5,-0.5"/>
                </g>
                <g id="arrowDown" xlink:href="#dirArrow" transform="rotate(180) translate(-30 -48)" onmousedown="handlePan(0,1)">
                  <use xlink:href="#rim" fill="#404040">
                        <set attributeName="fill" to="#808080" begin="arrowDown.mouseover" end="arrowDown.mouseout"/>
                  </use>
                  <path fill="none" stroke="white" stroke-width="1.5" d="M0,-3.0v7 M-2.5,-0.5L0,-3.0L2.5,-0.5"/>
                </g>
                <g id="arrowLeft" xlink:href="#dirArrow" transform="rotate(270) translate(-36 17)" onmousedown="handlePan(-1,0)">
                  <use xlink:href="#rim" fill="#404040">
                        <set attributeName="fill" to="#808080" begin="arrowLeft.mouseover" end="arrowLeft.mouseout"/>
                  </use>
                  <path fill="none" stroke="white" stroke-width="1.5" d="M0,-3.0v7 M-2.5,-0.5L0,-3.0L2.5,-0.5"/>
                </g>
        </g>
        <svg viewBox="0 0 15 15" width="100%" height="30px" preserveAspectRatio="xMaxYMin meet">
         <g id="arrow_out" transform="scale(0.3 0.3)">
          <a xlink:href="classx265_1_1Entropy_a0052cf59b3cef0daf2f76cb510dd5846_icgraph_org.svg" target="_base">
           <rect id="button" ry="5" rx="5" y="6" x="6" height="38" width="38"
                fill="#f2f5e9" fill-opacity="0.5" stroke="#606060" stroke-width="1.0"/>
           <path id="arrow"
             d="M 11.500037,31.436501 C 11.940474,20.09759 22.043105,11.32322 32.158766,21.979434 L 37.068811,17.246167 C 37.068811,17.246167 37.088388,32 37.088388,32 L 22.160133,31.978069 C 22.160133,31.978069 26.997745,27.140456 26.997745,27.140456 C 18.528582,18.264221 13.291696,25.230495 11.500037,31.436501 z"
             style="fill:#404040;"/>
          </a>
         </g>
        </svg>
</svg>
