<?xml version="1.0" encoding="UTF-8" standalone="no"?>
<!DOCTYPE svg PUBLIC "-//W3C//DTD SVG 1.1//EN"
 "http://www.w3.org/Graphics/SVG/1.1/DTD/svg11.dtd">
<!-- Generated by graphviz version 2.36.0 (20140111.2315)
 -->
<!-- Title: x265::CUData::setTransformSkipPartRange Pages: 1 -->
<!--zoomable 497 -->
<svg id="main" version="1.1" xmlns="http://www.w3.org/2000/svg" xmlns:xlink="http://www.w3.org/1999/xlink" xml:space="preserve" onload="init(evt)">
<style type="text/css"><![CDATA[
.edge:hover path { stroke: red; }
.edge:hover polygon { stroke: red; fill: red; }
]]></style>
<script type="text/javascript"><![CDATA[
var edges = document.getElementsByTagName('g');
if (edges && edges.length) {
  for (var i=0;i<edges.length;i++) {
    if (edges[i].id.substr(0,4)=='edge') {
      edges[i].setAttribute('class','edge');
    }
  }
}
]]></script>
        <defs>
                <circle id="rim" cx="0" cy="0" r="7"/>
                <circle id="rim2" cx="0" cy="0" r="3.5"/>
                <g id="zoomPlus">
                        <use xlink:href="#rim" fill="#404040">
                                <set attributeName="fill" to="#808080" begin="zoomplus.mouseover" end="zoomplus.mouseout"/>
                        </use>
                        <path d="M-4,0h8M0,-4v8" fill="none" stroke="white" stroke-width="1.5" pointer-events="none"/>
                </g>
                <g id="zoomMin">
                        <use xlink:href="#rim" fill="#404040">
                                <set attributeName="fill" to="#808080" begin="zoomminus.mouseover" end="zoomminus.mouseout"/>
                        </use>
                        <path d="M-4,0h8" fill="none" stroke="white" stroke-width="1.5" pointer-events="none"/>
                </g>
                <g id="dirArrow">
                        <path fill="none" stroke="white" stroke-width="1.5" d="M0,-3.0v7 M-2.5,-0.5L0,-3.0L2.5,-0.5"/>
                </g>
               <g id="resetDef">
                       <use xlink:href="#rim2" fill="#404040">
                               <set attributeName="fill" to="#808080" begin="reset.mouseover" end="reset.mouseout"/>
                       </use>
               </g>
        </defs>

<script type="text/javascript">
var viewWidth = 1478;
var viewHeight = 497;
var sectionId = 'dynsection-93';
</script>
<script xlink:href="svgpan.js"/>
<svg id="graph" class="graph">
<g id="viewport">
<title>x265::CUData::setTransformSkipPartRange</title>
<polygon fill="white" stroke="none" points="-4,4 -4,-492.75 1474,-492.75 1474,4 -4,4"/>
<!-- Node1 -->
<g id="node1" class="node"><title>Node1</title>
<polygon fill="#bfbfbf" stroke="black" points="0.5,-213 0.5,-243 143.5,-243 143.5,-213 0.5,-213"/>
<text text-anchor="start" x="8.5" y="-231" font-family="Helvetica,sans-Serif" font-size="10.00">x265::CUData::setTransform</text>
<text text-anchor="middle" x="72" y="-220" font-family="Helvetica,sans-Serif" font-size="10.00">SkipPartRange</text>
</g>
<!-- Node2 -->
<g id="node2" class="node"><title>Node2</title>
<g id="a_node2"><a xlink:href="classx265_1_1Search.html#a0ec5d297bb4eba4e9445ff67b35b95fa" target="_top" xlink:title="x265::Search::codeIntraChromaQt">
<polygon fill="white" stroke="black" points="180,-281.5 180,-300.5 346,-300.5 346,-281.5 180,-281.5"/>
<text text-anchor="middle" x="263" y="-288.5" font-family="Helvetica,sans-Serif" font-size="10.00">x265::Search::codeIntraChromaQt</text>
</a>
</g>
</g>
<!-- Node1&#45;&gt;Node2 -->
<g id="edge1" class="edge"><title>Node1&#45;&gt;Node2</title>
<path fill="none" stroke="midnightblue" d="M127.207,-246.314C144.11,-252.004 162.822,-258.282 180,-264 197.492,-269.822 217.105,-276.283 232.763,-281.424"/>
<polygon fill="midnightblue" stroke="midnightblue" points="128.083,-242.916 117.489,-243.04 125.849,-249.549 128.083,-242.916"/>
</g>
<!-- Node14 -->
<g id="node14" class="node"><title>Node14</title>
<g id="a_node14"><a xlink:href="classx265_1_1Search.html#a42170100e328cf2504b615ecb2579094" target="_top" xlink:title="x265::Search::residualQTIntra\lChroma">
<polygon fill="white" stroke="black" points="189.5,-191 189.5,-221 336.5,-221 336.5,-191 189.5,-191"/>
<text text-anchor="start" x="197.5" y="-209" font-family="Helvetica,sans-Serif" font-size="10.00">x265::Search::residualQTIntra</text>
<text text-anchor="middle" x="263" y="-198" font-family="Helvetica,sans-Serif" font-size="10.00">Chroma</text>
</a>
</g>
</g>
<!-- Node1&#45;&gt;Node14 -->
<g id="edge21" class="edge"><title>Node1&#45;&gt;Node14</title>
<path fill="none" stroke="midnightblue" d="M153.876,-218.586C165.624,-217.218 177.658,-215.818 189.233,-214.47"/>
<polygon fill="midnightblue" stroke="midnightblue" points="153.174,-215.144 143.645,-219.777 153.983,-222.097 153.174,-215.144"/>
</g>
<!-- Node17 -->
<g id="node17" class="node"><title>Node17</title>
<g id="a_node17"><a xlink:href="classx265_1_1Search.html#a11ea3fb9c65e98f50e348de22593748c" target="_top" xlink:title="x265::Search::residualTransform\lQuantInter">
<polygon fill="white" stroke="black" points="184,-142 184,-172 342,-172 342,-142 184,-142"/>
<text text-anchor="start" x="192" y="-160" font-family="Helvetica,sans-Serif" font-size="10.00">x265::Search::residualTransform</text>
<text text-anchor="middle" x="263" y="-149" font-family="Helvetica,sans-Serif" font-size="10.00">QuantInter</text>
</a>
</g>
</g>
<!-- Node1&#45;&gt;Node17 -->
<g id="edge26" class="edge"><title>Node1&#45;&gt;Node17</title>
<path fill="none" stroke="midnightblue" d="M113.715,-208.635C133.48,-199.617 157.719,-189.116 180,-181 188.641,-177.852 197.907,-174.822 206.987,-172.036"/>
<polygon fill="midnightblue" stroke="midnightblue" points="112.019,-205.563 104.4,-212.925 114.947,-211.921 112.019,-205.563"/>
</g>
<!-- Node18 -->
<g id="node18" class="node"><title>Node18</title>
<g id="a_node18"><a xlink:href="classx265_1_1Search.html#a9f01b6f04dca31dca9f16e60d1c029b3" target="_top" xlink:title="x265::Search::xEstimateResidualQT">
<polygon fill="white" stroke="black" points="574,-241.5 574,-260.5 750,-260.5 750,-241.5 574,-241.5"/>
<text text-anchor="middle" x="662" y="-248.5" font-family="Helvetica,sans-Serif" font-size="10.00">x265::Search::xEstimateResidualQT</text>
</a>
</g>
</g>
<!-- Node1&#45;&gt;Node18 -->
<g id="edge29" class="edge"><title>Node1&#45;&gt;Node18</title>
<path fill="none" stroke="midnightblue" d="M153.694,-231.156C263.866,-235.466 460.584,-243.161 573.966,-247.596"/>
<polygon fill="midnightblue" stroke="midnightblue" points="153.763,-227.657 143.634,-230.763 153.49,-234.651 153.763,-227.657"/>
</g>
<!-- Node3 -->
<g id="node3" class="node"><title>Node3</title>
<g id="a_node3"><a xlink:href="classx265_1_1Search.html#a70d466b561a7463b8ec5a213384ae667" target="_top" xlink:title="x265::Search::estIntraPred\lChromaQT">
<polygon fill="white" stroke="black" points="393,-279 393,-309 527,-309 527,-279 393,-279"/>
<text text-anchor="start" x="401" y="-297" font-family="Helvetica,sans-Serif" font-size="10.00">x265::Search::estIntraPred</text>
<text text-anchor="middle" x="460" y="-286" font-family="Helvetica,sans-Serif" font-size="10.00">ChromaQT</text>
</a>
</g>
</g>
<!-- Node2&#45;&gt;Node3 -->
<g id="edge2" class="edge"><title>Node2&#45;&gt;Node3</title>
<path fill="none" stroke="midnightblue" d="M356.438,-292.422C368.758,-292.612 381.187,-292.803 392.933,-292.984"/>
<polygon fill="midnightblue" stroke="midnightblue" points="356.185,-288.918 346.132,-292.264 356.077,-295.917 356.185,-288.918"/>
</g>
<!-- Node4 -->
<g id="node4" class="node"><title>Node4</title>
<g id="a_node4"><a xlink:href="classx265_1_1Analysis.html#ae4d61bcf4d2c22a054d68d6d77136428" target="_top" xlink:title="x265::Analysis::encodeIntra\lInInter">
<polygon fill="white" stroke="black" points="593,-360 593,-390 731,-390 731,-360 593,-360"/>
<text text-anchor="start" x="601" y="-378" font-family="Helvetica,sans-Serif" font-size="10.00">x265::Analysis::encodeIntra</text>
<text text-anchor="middle" x="662" y="-367" font-family="Helvetica,sans-Serif" font-size="10.00">InInter</text>
</a>
</g>
</g>
<!-- Node3&#45;&gt;Node4 -->
<g id="edge3" class="edge"><title>Node3&#45;&gt;Node4</title>
<path fill="none" stroke="midnightblue" d="M507.76,-312.938C543.09,-327.246 590.935,-346.624 623.71,-359.898"/>
<polygon fill="midnightblue" stroke="midnightblue" points="508.732,-309.555 498.15,-309.046 506.105,-316.044 508.732,-309.555"/>
</g>
<!-- Node10 -->
<g id="node10" class="node"><title>Node10</title>
<g id="a_node10"><a xlink:href="classx265_1_1Search.html#ab02df91827cf67796d1605bde60c6aed" target="_top" xlink:title="x265::Search::checkIntra">
<polygon fill="white" stroke="black" points="797,-232.5 797,-251.5 923,-251.5 923,-232.5 797,-232.5"/>
<text text-anchor="middle" x="860" y="-239.5" font-family="Helvetica,sans-Serif" font-size="10.00">x265::Search::checkIntra</text>
</a>
</g>
</g>
<!-- Node3&#45;&gt;Node10 -->
<g id="edge11" class="edge"><title>Node3&#45;&gt;Node10</title>
<path fill="none" stroke="midnightblue" d="M537.378,-291.171C595.894,-288.156 678.463,-282.07 750,-270 753.697,-269.376 792.149,-259.434 822.349,-251.572"/>
<polygon fill="midnightblue" stroke="midnightblue" points="536.919,-287.689 527.105,-291.681 537.267,-294.68 536.919,-287.689"/>
</g>
<!-- Node5 -->
<g id="node5" class="node"><title>Node5</title>
<g id="a_node5"><a xlink:href="classx265_1_1Analysis.html#aa6122285d10bb1bd7584958b88b029d5" target="_top" xlink:title="x265::Analysis::parallel\lModeAnalysis">
<polygon fill="white" stroke="black" points="801,-397 801,-427 919,-427 919,-397 801,-397"/>
<text text-anchor="start" x="809" y="-415" font-family="Helvetica,sans-Serif" font-size="10.00">x265::Analysis::parallel</text>
<text text-anchor="middle" x="860" y="-404" font-family="Helvetica,sans-Serif" font-size="10.00">ModeAnalysis</text>
</a>
</g>
</g>
<!-- Node4&#45;&gt;Node5 -->
<g id="edge4" class="edge"><title>Node4&#45;&gt;Node5</title>
<path fill="none" stroke="midnightblue" d="M741.01,-389.726C760.986,-393.497 782.119,-397.487 800.896,-401.031"/>
<polygon fill="midnightblue" stroke="midnightblue" points="741.477,-386.253 731.001,-387.837 740.178,-393.131 741.477,-386.253"/>
</g>
<!-- Node7 -->
<g id="node7" class="node"><title>Node7</title>
<g id="a_node7"><a xlink:href="classx265_1_1Analysis.html#a87060ff27a37f56adc5f5b8a4c033ece" target="_top" xlink:title="x265::Analysis::compress\lInterCU_dist">
<polygon fill="white" stroke="black" points="1152,-378 1152,-408 1282,-408 1282,-378 1152,-378"/>
<text text-anchor="start" x="1160" y="-396" font-family="Helvetica,sans-Serif" font-size="10.00">x265::Analysis::compress</text>
<text text-anchor="middle" x="1217" y="-385" font-family="Helvetica,sans-Serif" font-size="10.00">InterCU_dist</text>
</a>
</g>
</g>
<!-- Node4&#45;&gt;Node7 -->
<g id="edge8" class="edge"><title>Node4&#45;&gt;Node7</title>
<path fill="none" stroke="midnightblue" d="M697.429,-394.848C774.188,-436.424 964.508,-524.62 1116,-472 1152.37,-459.368 1185.49,-427.412 1202.99,-408.236"/>
<polygon fill="midnightblue" stroke="midnightblue" points="699.092,-391.768 688.642,-390.022 695.722,-397.904 699.092,-391.768"/>
</g>
<!-- Node9 -->
<g id="node9" class="node"><title>Node9</title>
<g id="a_node9"><a xlink:href="classx265_1_1Analysis.html#a30d2ff7eca5addbb0a6b3dfe14f09650" target="_top" xlink:title="x265::Analysis::compress\lInterCU_rd0_4">
<polygon fill="white" stroke="black" points="1152,-255 1152,-285 1282,-285 1282,-255 1152,-255"/>
<text text-anchor="start" x="1160" y="-273" font-family="Helvetica,sans-Serif" font-size="10.00">x265::Analysis::compress</text>
<text text-anchor="middle" x="1217" y="-262" font-family="Helvetica,sans-Serif" font-size="10.00">InterCU_rd0_4</text>
</a>
</g>
</g>
<!-- Node4&#45;&gt;Node9 -->
<g id="edge9" class="edge"><title>Node4&#45;&gt;Node9</title>
<path fill="none" stroke="midnightblue" d="M740.959,-361.579C831.349,-345.818 984.737,-318.455 1116,-292 1127.59,-289.664 1139.9,-287.058 1151.79,-284.478"/>
<polygon fill="midnightblue" stroke="midnightblue" points="740.315,-358.138 731.064,-363.302 741.516,-365.035 740.315,-358.138"/>
</g>
<!-- Node6 -->
<g id="node6" class="node"><title>Node6</title>
<g id="a_node6"><a xlink:href="classx265_1_1Analysis.html#a29a58dad4cc1c07d2f5e5717c6be7c25" target="_top" xlink:title="x265::Analysis::findJob">
<polygon fill="white" stroke="black" points="983.5,-443.5 983.5,-462.5 1102.5,-462.5 1102.5,-443.5 983.5,-443.5"/>
<text text-anchor="middle" x="1043" y="-450.5" font-family="Helvetica,sans-Serif" font-size="10.00">x265::Analysis::findJob</text>
</a>
</g>
</g>
<!-- Node5&#45;&gt;Node6 -->
<g id="edge5" class="edge"><title>Node5&#45;&gt;Node6</title>
<path fill="none" stroke="midnightblue" d="M929.284,-427.468C953.018,-432.844 978.924,-438.712 999.91,-443.466"/>
<polygon fill="midnightblue" stroke="midnightblue" points="929.792,-423.994 919.266,-425.198 928.246,-430.821 929.792,-423.994"/>
</g>
<!-- Node6&#45;&gt;Node7 -->
<g id="edge6" class="edge"><title>Node6&#45;&gt;Node7</title>
<path fill="none" stroke="midnightblue" d="M1082.73,-440.279C1093.52,-436.684 1105.23,-432.733 1116,-429 1135.35,-422.292 1156.72,-414.633 1174.72,-408.109"/>
<polygon fill="midnightblue" stroke="midnightblue" points="1081.52,-436.992 1073.13,-443.465 1083.72,-443.636 1081.52,-436.992"/>
</g>
<!-- Node8 -->
<g id="node8" class="node"><title>Node8</title>
<g id="a_node8"><a xlink:href="classx265_1_1Analysis.html#aaebc9de2ff98834c650244f3b58942c2" target="_top" xlink:title="x265::Analysis::compressCTU">
<polygon fill="white" stroke="red" points="1318.5,-190.5 1318.5,-209.5 1469.5,-209.5 1469.5,-190.5 1318.5,-190.5"/>
<text text-anchor="middle" x="1394" y="-197.5" font-family="Helvetica,sans-Serif" font-size="10.00">x265::Analysis::compressCTU</text>
</a>
</g>
</g>
<!-- Node7&#45;&gt;Node8 -->
<g id="edge7" class="edge"><title>Node7&#45;&gt;Node8</title>
<path fill="none" stroke="midnightblue" d="M1238.58,-370.308C1276.83,-328.113 1357.46,-239.192 1384.19,-209.72"/>
<polygon fill="midnightblue" stroke="midnightblue" points="1235.86,-368.096 1231.73,-377.856 1241.04,-372.799 1235.86,-368.096"/>
</g>
<!-- Node9&#45;&gt;Node8 -->
<g id="edge10" class="edge"><title>Node9&#45;&gt;Node8</title>
<path fill="none" stroke="midnightblue" d="M1265.18,-251.129C1298.8,-237.678 1342.6,-220.16 1369.22,-209.513"/>
<polygon fill="midnightblue" stroke="midnightblue" points="1263.53,-248.02 1255.54,-254.983 1266.13,-254.519 1263.53,-248.02"/>
</g>
<!-- Node11 -->
<g id="node11" class="node"><title>Node11</title>
<g id="a_node11"><a xlink:href="classx265_1_1Analysis.html#a10f0a8d9d143faf8dc671c6f0982693d" target="_top" xlink:title="x265::Analysis::tryLossless">
<polygon fill="white" stroke="black" points="974.5,-241.5 974.5,-260.5 1111.5,-260.5 1111.5,-241.5 974.5,-241.5"/>
<text text-anchor="middle" x="1043" y="-248.5" font-family="Helvetica,sans-Serif" font-size="10.00">x265::Analysis::tryLossless</text>
</a>
</g>
</g>
<!-- Node10&#45;&gt;Node11 -->
<g id="edge12" class="edge"><title>Node10&#45;&gt;Node11</title>
<path fill="none" stroke="midnightblue" d="M933.293,-245.595C946.879,-246.27 961.037,-246.974 974.471,-247.642"/>
<polygon fill="midnightblue" stroke="midnightblue" points="933.198,-242.086 923.037,-245.085 932.851,-249.077 933.198,-242.086"/>
</g>
<!-- Node12 -->
<g id="node12" class="node"><title>Node12</title>
<g id="a_node12"><a xlink:href="classx265_1_1Analysis.html#aae2a6a2252270782b591d2bed7e99dae" target="_top" xlink:title="x265::Analysis::compress\lIntraCU">
<polygon fill="white" stroke="black" points="1152,-185 1152,-215 1282,-215 1282,-185 1152,-185"/>
<text text-anchor="start" x="1160" y="-203" font-family="Helvetica,sans-Serif" font-size="10.00">x265::Analysis::compress</text>
<text text-anchor="middle" x="1217" y="-192" font-family="Helvetica,sans-Serif" font-size="10.00">IntraCU</text>
</a>
</g>
</g>
<!-- Node10&#45;&gt;Node12 -->
<g id="edge19" class="edge"><title>Node10&#45;&gt;Node12</title>
<path fill="none" stroke="midnightblue" d="M933.277,-233.449C997.388,-225.864 1090.16,-214.888 1151.73,-207.604"/>
<polygon fill="midnightblue" stroke="midnightblue" points="932.762,-229.985 923.243,-234.636 933.585,-236.937 932.762,-229.985"/>
</g>
<!-- Node13 -->
<g id="node13" class="node"><title>Node13</title>
<g id="a_node13"><a xlink:href="classx265_1_1Analysis.html#a0b22b7765aa4a36b1ba6d07ba26901e6" target="_top" xlink:title="x265::Analysis::compress\lInterCU_rd5_6">
<polygon fill="white" stroke="black" points="1152,-116 1152,-146 1282,-146 1282,-116 1152,-116"/>
<text text-anchor="start" x="1160" y="-134" font-family="Helvetica,sans-Serif" font-size="10.00">x265::Analysis::compress</text>
<text text-anchor="middle" x="1217" y="-123" font-family="Helvetica,sans-Serif" font-size="10.00">InterCU_rd5_6</text>
</a>
</g>
</g>
<!-- Node10&#45;&gt;Node13 -->
<g id="edge20" class="edge"><title>Node10&#45;&gt;Node13</title>
<path fill="none" stroke="midnightblue" d="M865.617,-222.569C876.209,-182.914 906.393,-93.3497 970,-57 1026.34,-24.8041 1054.38,-36.6784 1116,-57 1151.07,-68.5662 1183.91,-97.6982 1201.85,-115.769"/>
<polygon fill="midnightblue" stroke="midnightblue" points="862.203,-221.791 863.137,-232.344 868.989,-223.512 862.203,-221.791"/>
</g>
<!-- Node11&#45;&gt;Node7 -->
<g id="edge15" class="edge"><title>Node11&#45;&gt;Node7</title>
<path fill="none" stroke="midnightblue" d="M1063.68,-267.251C1097.27,-294.977 1165.16,-351.027 1197.74,-377.927"/>
<polygon fill="midnightblue" stroke="midnightblue" points="1065.49,-264.205 1055.55,-260.538 1061.04,-269.603 1065.49,-264.205"/>
</g>
<!-- Node11&#45;&gt;Node9 -->
<g id="edge16" class="edge"><title>Node11&#45;&gt;Node9</title>
<path fill="none" stroke="midnightblue" d="M1121.93,-259.608C1131.95,-260.715 1142.11,-261.838 1151.88,-262.917"/>
<polygon fill="midnightblue" stroke="midnightblue" points="1122.3,-256.129 1111.98,-258.509 1121.53,-263.086 1122.3,-256.129"/>
</g>
<!-- Node11&#45;&gt;Node12 -->
<g id="edge13" class="edge"><title>Node11&#45;&gt;Node12</title>
<path fill="none" stroke="midnightblue" d="M1086.17,-238.496C1110.03,-231.42 1140.04,-222.522 1165.2,-215.064"/>
<polygon fill="midnightblue" stroke="midnightblue" points="1084.94,-235.209 1076.35,-241.407 1086.93,-241.92 1084.94,-235.209"/>
</g>
<!-- Node11&#45;&gt;Node13 -->
<g id="edge17" class="edge"><title>Node11&#45;&gt;Node13</title>
<path fill="none" stroke="midnightblue" d="M1065.84,-235.524C1087.62,-220.117 1122.06,-195.827 1152,-175 1165.95,-165.299 1181.67,-154.488 1194.04,-146.01"/>
<polygon fill="midnightblue" stroke="midnightblue" points="1063.75,-232.72 1057.61,-241.354 1067.79,-238.434 1063.75,-232.72"/>
</g>
<!-- Node12&#45;&gt;Node8 -->
<g id="edge14" class="edge"><title>Node12&#45;&gt;Node8</title>
<path fill="none" stroke="midnightblue" d="M1292.25,-200C1300.93,-200 1309.78,-200 1318.47,-200"/>
<polygon fill="midnightblue" stroke="midnightblue" points="1292.17,-196.5 1282.17,-200 1292.17,-203.5 1292.17,-196.5"/>
</g>
<!-- Node13&#45;&gt;Node8 -->
<g id="edge18" class="edge"><title>Node13&#45;&gt;Node8</title>
<path fill="none" stroke="midnightblue" d="M1265.96,-149.909C1299.26,-163.039 1342.24,-179.984 1368.69,-190.416"/>
<polygon fill="midnightblue" stroke="midnightblue" points="1266.99,-146.554 1256.4,-146.142 1264.42,-153.066 1266.99,-146.554"/>
</g>
<!-- Node15 -->
<g id="node15" class="node"><title>Node15</title>
<g id="a_node15"><a xlink:href="classx265_1_1Analysis.html#a88ad2880a5a8bcad5cfd5d6ea630b265" target="_top" xlink:title="x265::Analysis::encodeResidue">
<polygon fill="white" stroke="black" points="382.5,-147.5 382.5,-166.5 537.5,-166.5 537.5,-147.5 382.5,-147.5"/>
<text text-anchor="middle" x="460" y="-154.5" font-family="Helvetica,sans-Serif" font-size="10.00">x265::Analysis::encodeResidue</text>
</a>
</g>
</g>
<!-- Node14&#45;&gt;Node15 -->
<g id="edge22" class="edge"><title>Node14&#45;&gt;Node15</title>
<path fill="none" stroke="midnightblue" d="M333.662,-188.495C363.118,-181.093 396.274,-172.762 421.083,-166.528"/>
<polygon fill="midnightblue" stroke="midnightblue" points="332.677,-185.134 323.832,-190.965 334.383,-191.923 332.677,-185.134"/>
</g>
<!-- Node16 -->
<g id="node16" class="node"><title>Node16</title>
<g id="a_node16"><a xlink:href="classx265_1_1Search.html#a5284cffef18fe6884b268ea28f21f22f" target="_top" xlink:title="x265::Search::generateCoeff\lRecon">
<polygon fill="white" stroke="black" points="389,-189 389,-219 531,-219 531,-189 389,-189"/>
<text text-anchor="start" x="397" y="-207" font-family="Helvetica,sans-Serif" font-size="10.00">x265::Search::generateCoeff</text>
<text text-anchor="middle" x="460" y="-196" font-family="Helvetica,sans-Serif" font-size="10.00">Recon</text>
</a>
</g>
</g>
<!-- Node14&#45;&gt;Node16 -->
<g id="edge24" class="edge"><title>Node14&#45;&gt;Node16</title>
<path fill="none" stroke="midnightblue" d="M346.744,-205.151C360.785,-205.007 375.244,-204.859 388.919,-204.719"/>
<polygon fill="midnightblue" stroke="midnightblue" points="346.574,-201.653 336.611,-205.255 346.646,-208.652 346.574,-201.653"/>
</g>
<!-- Node15&#45;&gt;Node8 -->
<g id="edge23" class="edge"><title>Node15&#45;&gt;Node8</title>
<path fill="none" stroke="midnightblue" d="M482.72,-141.635C540.788,-102.111 705.647,-0 859,-0 859,-0 859,-0 1044,-0 1199.03,-0 1347.63,-150.403 1384.37,-190.354"/>
<polygon fill="midnightblue" stroke="midnightblue" points="480.582,-138.858 474.336,-147.415 484.555,-144.621 480.582,-138.858"/>
</g>
<!-- Node16&#45;&gt;Node9 -->
<g id="edge25" class="edge"><title>Node16&#45;&gt;Node9</title>
<path fill="none" stroke="midnightblue" d="M541.458,-199.089C666.059,-193.345 912.554,-189.428 1116,-232 1139.45,-236.907 1164.66,-246.518 1183.9,-254.846"/>
<polygon fill="midnightblue" stroke="midnightblue" points="541.063,-195.603 531.242,-199.576 541.397,-202.595 541.063,-195.603"/>
</g>
<!-- Node17&#45;&gt;Node15 -->
<g id="edge27" class="edge"><title>Node17&#45;&gt;Node15</title>
<path fill="none" stroke="midnightblue" d="M352.201,-157C362.272,-157 372.476,-157 382.379,-157"/>
<polygon fill="midnightblue" stroke="midnightblue" points="352.19,-153.5 342.19,-157 352.19,-160.5 352.19,-153.5"/>
</g>
<!-- Node17&#45;&gt;Node16 -->
<g id="edge28" class="edge"><title>Node17&#45;&gt;Node16</title>
<path fill="none" stroke="midnightblue" d="M336.162,-174.393C356.037,-179.183 377.42,-184.337 396.687,-188.981"/>
<polygon fill="midnightblue" stroke="midnightblue" points="336.777,-170.941 326.235,-172 335.137,-177.746 336.777,-170.941"/>
</g>
<!-- Node19 -->
<g id="node19" class="node"><title>Node19</title>
<g id="a_node19"><a xlink:href="classx265_1_1Search.html#aba5e04ce529f41accd43c540ba1dc7ad" target="_top" xlink:title="x265::Search::encodeResAnd\lCalcRdInterCU">
<polygon fill="white" stroke="black" points="786.5,-271 786.5,-301 933.5,-301 933.5,-271 786.5,-271"/>
<text text-anchor="start" x="794.5" y="-289" font-family="Helvetica,sans-Serif" font-size="10.00">x265::Search::encodeResAnd</text>
<text text-anchor="middle" x="860" y="-278" font-family="Helvetica,sans-Serif" font-size="10.00">CalcRdInterCU</text>
</a>
</g>
</g>
<!-- Node18&#45;&gt;Node19 -->
<g id="edge30" class="edge"><title>Node18&#45;&gt;Node19</title>
<path fill="none" stroke="midnightblue" d="M726.378,-262.317C745.47,-265.727 766.573,-269.495 786.225,-273.004"/>
<polygon fill="midnightblue" stroke="midnightblue" points="726.759,-258.83 716.299,-260.518 725.528,-265.721 726.759,-258.83"/>
</g>
<!-- Node19&#45;&gt;Node7 -->
<g id="edge32" class="edge"><title>Node19&#45;&gt;Node7</title>
<path fill="none" stroke="midnightblue" d="M876.057,-309.682C894.497,-336.225 928.46,-377.794 970,-395 1028.1,-419.067 1100.75,-414.786 1151.99,-406.805"/>
<polygon fill="midnightblue" stroke="midnightblue" points="878.905,-307.645 870.41,-301.313 873.103,-311.56 878.905,-307.645"/>
</g>
<!-- Node19&#45;&gt;Node9 -->
<g id="edge33" class="edge"><title>Node19&#45;&gt;Node9</title>
<path fill="none" stroke="midnightblue" d="M944.065,-282.256C1007.47,-279.399 1093.55,-275.519 1151.74,-272.896"/>
<polygon fill="midnightblue" stroke="midnightblue" points="943.528,-278.777 933.696,-282.724 943.844,-285.77 943.528,-278.777"/>
</g>
<!-- Node19&#45;&gt;Node11 -->
<g id="edge31" class="edge"><title>Node19&#45;&gt;Node11</title>
<path fill="none" stroke="midnightblue" d="M943.434,-270.06C960.28,-266.802 977.501,-263.472 992.739,-260.526"/>
<polygon fill="midnightblue" stroke="midnightblue" points="942.73,-266.631 933.577,-271.966 944.059,-273.504 942.73,-266.631"/>
</g>
<!-- Node20 -->
<g id="node20" class="node"><title>Node20</title>
<g id="a_node20"><a xlink:href="classx265_1_1Analysis.html#addd72cb95590e2b2a6965d42d110eab3" target="_top" xlink:title="x265::Analysis::checkMerge2\lNx2N_rd0_4">
<polygon fill="white" stroke="black" points="970,-356 970,-386 1116,-386 1116,-356 970,-356"/>
<text text-anchor="start" x="978" y="-374" font-family="Helvetica,sans-Serif" font-size="10.00">x265::Analysis::checkMerge2</text>
<text text-anchor="middle" x="1043" y="-363" font-family="Helvetica,sans-Serif" font-size="10.00">Nx2N_rd0_4</text>
</a>
</g>
</g>
<!-- Node19&#45;&gt;Node20 -->
<g id="edge34" class="edge"><title>Node19&#45;&gt;Node20</title>
<path fill="none" stroke="midnightblue" d="M902.217,-305.356C934.836,-320.674 979.744,-341.764 1009.77,-355.863"/>
<polygon fill="midnightblue" stroke="midnightblue" points="903.482,-302.083 892.943,-301.001 900.506,-308.419 903.482,-302.083"/>
</g>
<!-- Node21 -->
<g id="node21" class="node"><title>Node21</title>
<g id="a_node21"><a xlink:href="classx265_1_1Analysis.html#a0194a9da53aa95173fa1132ba3aea1c7" target="_top" xlink:title="x265::Analysis::checkMerge2\lNx2N_rd5_6">
<polygon fill="white" stroke="black" points="970,-116 970,-146 1116,-146 1116,-116 970,-116"/>
<text text-anchor="start" x="978" y="-134" font-family="Helvetica,sans-Serif" font-size="10.00">x265::Analysis::checkMerge2</text>
<text text-anchor="middle" x="1043" y="-123" font-family="Helvetica,sans-Serif" font-size="10.00">Nx2N_rd5_6</text>
</a>
</g>
</g>
<!-- Node19&#45;&gt;Node21 -->
<g id="edge37" class="edge"><title>Node19&#45;&gt;Node21</title>
<path fill="none" stroke="midnightblue" d="M925.03,-266.467C928.146,-264.78 931.157,-262.961 934,-261 979.893,-229.349 1017.15,-173.07 1033.32,-146.156"/>
<polygon fill="midnightblue" stroke="midnightblue" points="923.466,-263.336 916.022,-270.876 926.543,-269.623 923.466,-263.336"/>
</g>
<!-- Node22 -->
<g id="node22" class="node"><title>Node22</title>
<g id="a_node22"><a xlink:href="classx265_1_1Analysis.html#a828daa3e9f1ed40a1af9f99f7ff7bb33" target="_top" xlink:title="x265::Analysis::checkInter\l_rd5_6">
<polygon fill="white" stroke="black" points="976.5,-67 976.5,-97 1109.5,-97 1109.5,-67 976.5,-67"/>
<text text-anchor="start" x="984.5" y="-85" font-family="Helvetica,sans-Serif" font-size="10.00">x265::Analysis::checkInter</text>
<text text-anchor="middle" x="1043" y="-74" font-family="Helvetica,sans-Serif" font-size="10.00">_rd5_6</text>
</a>
</g>
</g>
<!-- Node19&#45;&gt;Node22 -->
<g id="edge39" class="edge"><title>Node19&#45;&gt;Node22</title>
<path fill="none" stroke="midnightblue" d="M930.178,-264.789C931.518,-263.595 932.796,-262.333 934,-261 981.401,-208.514 922.384,-158.292 970,-106 973.105,-102.59 976.707,-99.6641 980.611,-97.1533"/>
<polygon fill="midnightblue" stroke="midnightblue" points="927.844,-262.162 921.885,-270.922 932.007,-267.79 927.844,-262.162"/>
</g>
<!-- Node20&#45;&gt;Node7 -->
<g id="edge35" class="edge"><title>Node20&#45;&gt;Node7</title>
<path fill="none" stroke="midnightblue" d="M1126.42,-381.542C1134.96,-382.634 1143.54,-383.732 1151.83,-384.792"/>
<polygon fill="midnightblue" stroke="midnightblue" points="1126.81,-378.063 1116.44,-380.266 1125.92,-385.007 1126.81,-378.063"/>
</g>
<!-- Node20&#45;&gt;Node9 -->
<g id="edge36" class="edge"><title>Node20&#45;&gt;Node9</title>
<path fill="none" stroke="midnightblue" d="M1094.12,-351.817C1101.59,-348.474 1109.09,-344.831 1116,-341 1145.98,-324.382 1177.81,-300.584 1197.29,-285.21"/>
<polygon fill="midnightblue" stroke="midnightblue" points="1092.52,-348.696 1084.73,-355.881 1095.3,-355.12 1092.52,-348.696"/>
</g>
<!-- Node21&#45;&gt;Node13 -->
<g id="edge38" class="edge"><title>Node21&#45;&gt;Node13</title>
<path fill="none" stroke="midnightblue" d="M1126.7,-131C1135.14,-131 1143.63,-131 1151.83,-131"/>
<polygon fill="midnightblue" stroke="midnightblue" points="1126.45,-127.5 1116.44,-131 1126.44,-134.5 1126.45,-127.5"/>
</g>
<!-- Node22&#45;&gt;Node13 -->
<g id="edge40" class="edge"><title>Node22&#45;&gt;Node13</title>
<path fill="none" stroke="midnightblue" d="M1106.81,-99.8941C1125.31,-105.164 1145.36,-110.876 1163.17,-115.948"/>
<polygon fill="midnightblue" stroke="midnightblue" points="1107.59,-96.4753 1097.01,-97.1014 1105.67,-103.207 1107.59,-96.4753"/>
</g>
</g>
</svg>
        <g id="navigator" transform="translate(0 0)" fill="#404254">
                <rect fill="#f2f5e9" fill-opacity="0.5" stroke="#606060" stroke-width=".5" x="0" y="0" width="60" height="60"/>
                <use id="zoomplus" xlink:href="#zoomPlus" x="17" y="9" onmousedown="handleZoom(evt,'in')"/>
                <use id="zoomminus" xlink:href="#zoomMin" x="42" y="9" onmousedown="handleZoom(evt,'out')"/>
                <use id="reset" xlink:href="#resetDef" x="30" y="36" onmousedown="handleReset()"/>
                <g id="arrowUp" xlink:href="#dirArrow" transform="translate(30 24)" onmousedown="handlePan(0,-1)">
                  <use xlink:href="#rim" fill="#404040">
                        <set attributeName="fill" to="#808080" begin="arrowUp.mouseover" end="arrowUp.mouseout"/>
                  </use>
                  <path fill="none" stroke="white" stroke-width="1.5" d="M0,-3.0v7 M-2.5,-0.5L0,-3.0L2.5,-0.5"/>
                </g>
                <g id="arrowRight" xlink:href="#dirArrow" transform="rotate(90) translate(36 -43)" onmousedown="handlePan(1,0)">
                  <use xlink:href="#rim" fill="#404040">
                        <set attributeName="fill" to="#808080" begin="arrowRight.mouseover" end="arrowRight.mouseout"/>
                  </use>
                  <path fill="none" stroke="white" stroke-width="1.5" d="M0,-3.0v7 M-2.5,-0.5L0,-3.0L2.5,-0.5"/>
                </g>
                <g id="arrowDown" xlink:href="#dirArrow" transform="rotate(180) translate(-30 -48)" onmousedown="handlePan(0,1)">
                  <use xlink:href="#rim" fill="#404040">
                        <set attributeName="fill" to="#808080" begin="arrowDown.mouseover" end="arrowDown.mouseout"/>
                  </use>
                  <path fill="none" stroke="white" stroke-width="1.5" d="M0,-3.0v7 M-2.5,-0.5L0,-3.0L2.5,-0.5"/>
                </g>
                <g id="arrowLeft" xlink:href="#dirArrow" transform="rotate(270) translate(-36 17)" onmousedown="handlePan(-1,0)">
                  <use xlink:href="#rim" fill="#404040">
                        <set attributeName="fill" to="#808080" begin="arrowLeft.mouseover" end="arrowLeft.mouseout"/>
                  </use>
                  <path fill="none" stroke="white" stroke-width="1.5" d="M0,-3.0v7 M-2.5,-0.5L0,-3.0L2.5,-0.5"/>
                </g>
        </g>
        <svg viewBox="0 0 15 15" width="100%" height="30px" preserveAspectRatio="xMaxYMin meet">
         <g id="arrow_out" transform="scale(0.3 0.3)">
          <a xlink:href="classx265_1_1CUData_ad37ca4bc35a537d31b6f2e911e445724_icgraph_org.svg" target="_base">
           <rect id="button" ry="5" rx="5" y="6" x="6" height="38" width="38"
                fill="#f2f5e9" fill-opacity="0.5" stroke="#606060" stroke-width="1.0"/>
           <path id="arrow"
             d="M 11.500037,31.436501 C 11.940474,20.09759 22.043105,11.32322 32.158766,21.979434 L 37.068811,17.246167 C 37.068811,17.246167 37.088388,32 37.088388,32 L 22.160133,31.978069 C 22.160133,31.978069 26.997745,27.140456 26.997745,27.140456 C 18.528582,18.264221 13.291696,25.230495 11.500037,31.436501 z"
             style="fill:#404040;"/>
          </a>
         </g>
        </svg>
</svg>
