<?xml version="1.0" encoding="UTF-8" standalone="no"?>
<!DOCTYPE svg PUBLIC "-//W3C//DTD SVG 1.1//EN"
 "http://www.w3.org/Graphics/SVG/1.1/DTD/svg11.dtd">
<!-- Generated by graphviz version 2.36.0 (20140111.2315)
 -->
<!-- Title: x265::CUData::getAllowedChromaDir Pages: 1 -->
<!--zoomable 598 -->
<svg id="main" version="1.1" xmlns="http://www.w3.org/2000/svg" xmlns:xlink="http://www.w3.org/1999/xlink" xml:space="preserve" onload="init(evt)">
<style type="text/css"><![CDATA[
.edge:hover path { stroke: red; }
.edge:hover polygon { stroke: red; fill: red; }
]]></style>
<script type="text/javascript"><![CDATA[
var edges = document.getElementsByTagName('g');
if (edges && edges.length) {
  for (var i=0;i<edges.length;i++) {
    if (edges[i].id.substr(0,4)=='edge') {
      edges[i].setAttribute('class','edge');
    }
  }
}
]]></script>
        <defs>
                <circle id="rim" cx="0" cy="0" r="7"/>
                <circle id="rim2" cx="0" cy="0" r="3.5"/>
                <g id="zoomPlus">
                        <use xlink:href="#rim" fill="#404040">
                                <set attributeName="fill" to="#808080" begin="zoomplus.mouseover" end="zoomplus.mouseout"/>
                        </use>
                        <path d="M-4,0h8M0,-4v8" fill="none" stroke="white" stroke-width="1.5" pointer-events="none"/>
                </g>
                <g id="zoomMin">
                        <use xlink:href="#rim" fill="#404040">
                                <set attributeName="fill" to="#808080" begin="zoomminus.mouseover" end="zoomminus.mouseout"/>
                        </use>
                        <path d="M-4,0h8" fill="none" stroke="white" stroke-width="1.5" pointer-events="none"/>
                </g>
                <g id="dirArrow">
                        <path fill="none" stroke="white" stroke-width="1.5" d="M0,-3.0v7 M-2.5,-0.5L0,-3.0L2.5,-0.5"/>
                </g>
               <g id="resetDef">
                       <use xlink:href="#rim2" fill="#404040">
                               <set attributeName="fill" to="#808080" begin="reset.mouseover" end="reset.mouseout"/>
                       </use>
               </g>
        </defs>

<script type="text/javascript">
var viewWidth = 1390;
var viewHeight = 598;
var sectionId = 'dynsection-20';
</script>
<script xlink:href="svgpan.js"/>
<svg id="graph" class="graph">
<g id="viewport">
<title>x265::CUData::getAllowedChromaDir</title>
<polygon fill="white" stroke="none" points="-4,4 -4,-593.83 1386,-593.83 1386,4 -4,4"/>
<!-- Node1 -->
<g id="node1" class="node"><title>Node1</title>
<polygon fill="#bfbfbf" stroke="black" points="0,-177.83 0,-207.83 134,-207.83 134,-177.83 0,-177.83"/>
<text text-anchor="start" x="8" y="-195.83" font-family="Helvetica,sans-Serif" font-size="10.00">x265::CUData::getAllowed</text>
<text text-anchor="middle" x="67" y="-184.83" font-family="Helvetica,sans-Serif" font-size="10.00">ChromaDir</text>
</g>
<!-- Node2 -->
<g id="node2" class="node"><title>Node2</title>
<g id="a_node2"><a xlink:href="classx265_1_1Entropy.html#a2a627c1c7ab4aee68a3b6c3b572e649a" target="_top" xlink:title="x265::Entropy::codePredInfo">
<polygon fill="white" stroke="black" points="170.5,-254.33 170.5,-273.33 311.5,-273.33 311.5,-254.33 170.5,-254.33"/>
<text text-anchor="middle" x="241" y="-261.33" font-family="Helvetica,sans-Serif" font-size="10.00">x265::Entropy::codePredInfo</text>
</a>
</g>
</g>
<!-- Node1&#45;&gt;Node2 -->
<g id="edge1" class="edge"><title>Node1&#45;&gt;Node2</title>
<path fill="none" stroke="midnightblue" d="M113.971,-211.806C147.13,-225.494 190.507,-243.399 216.759,-254.236"/>
<polygon fill="midnightblue" stroke="midnightblue" points="115.056,-208.467 104.477,-207.887 112.385,-214.938 115.056,-208.467"/>
</g>
<!-- Node22 -->
<g id="node22" class="node"><title>Node22</title>
<g id="a_node22"><a xlink:href="classx265_1_1Search.html#ad676dc0bcf94eea19260363b3b029755" target="_top" xlink:title="x265::Search::getBestIntra\lModeChroma">
<polygon fill="white" stroke="black" points="529,-18.8296 529,-48.8296 663,-48.8296 663,-18.8296 529,-18.8296"/>
<text text-anchor="start" x="537" y="-36.8296" font-family="Helvetica,sans-Serif" font-size="10.00">x265::Search::getBestIntra</text>
<text text-anchor="middle" x="596" y="-25.8296" font-family="Helvetica,sans-Serif" font-size="10.00">ModeChroma</text>
</a>
</g>
</g>
<!-- Node1&#45;&gt;Node22 -->
<g id="edge37" class="edge"><title>Node1&#45;&gt;Node22</title>
<path fill="none" stroke="midnightblue" d="M127.856,-174.771C232.777,-143.115 447.981,-78.1865 545.28,-48.8304"/>
<polygon fill="midnightblue" stroke="midnightblue" points="126.617,-171.489 118.054,-177.728 128.639,-178.19 126.617,-171.489"/>
</g>
<!-- Node25 -->
<g id="node25" class="node"><title>Node25</title>
<g id="a_node25"><a xlink:href="classx265_1_1Search.html#a70d466b561a7463b8ec5a213384ae667" target="_top" xlink:title="x265::Search::estIntraPred\lChromaQT">
<polygon fill="white" stroke="black" points="174,-177.83 174,-207.83 308,-207.83 308,-177.83 174,-177.83"/>
<text text-anchor="start" x="182" y="-195.83" font-family="Helvetica,sans-Serif" font-size="10.00">x265::Search::estIntraPred</text>
<text text-anchor="middle" x="241" y="-184.83" font-family="Helvetica,sans-Serif" font-size="10.00">ChromaQT</text>
</a>
</g>
</g>
<!-- Node1&#45;&gt;Node25 -->
<g id="edge42" class="edge"><title>Node1&#45;&gt;Node25</title>
<path fill="none" stroke="midnightblue" d="M144.227,-192.83C154.116,-192.83 164.179,-192.83 173.885,-192.83"/>
<polygon fill="midnightblue" stroke="midnightblue" points="144.008,-189.33 134.008,-192.83 144.008,-196.33 144.008,-189.33"/>
</g>
<!-- Node3 -->
<g id="node3" class="node"><title>Node3</title>
<g id="a_node3"><a xlink:href="classx265_1_1Analysis.html#ae4d61bcf4d2c22a054d68d6d77136428" target="_top" xlink:title="x265::Analysis::encodeIntra\lInInter">
<polygon fill="white" stroke="black" points="348,-150.83 348,-180.83 486,-180.83 486,-150.83 348,-150.83"/>
<text text-anchor="start" x="356" y="-168.83" font-family="Helvetica,sans-Serif" font-size="10.00">x265::Analysis::encodeIntra</text>
<text text-anchor="middle" x="417" y="-157.83" font-family="Helvetica,sans-Serif" font-size="10.00">InInter</text>
</a>
</g>
</g>
<!-- Node2&#45;&gt;Node3 -->
<g id="edge2" class="edge"><title>Node2&#45;&gt;Node3</title>
<path fill="none" stroke="midnightblue" d="M267.947,-249.216C300.589,-230.831 356.351,-199.425 389.33,-180.851"/>
<polygon fill="midnightblue" stroke="midnightblue" points="265.996,-246.298 259.001,-254.255 269.431,-252.397 265.996,-246.298"/>
</g>
<!-- Node10 -->
<g id="node10" class="node"><title>Node10</title>
<g id="a_node10"><a xlink:href="classx265_1_1Entropy.html#adeb50a7c9a5df6643407d01158d93799" target="_top" xlink:title="x265::Entropy::encodeCU">
<polygon fill="white" stroke="black" points="352,-444.33 352,-463.33 482,-463.33 482,-444.33 352,-444.33"/>
<text text-anchor="middle" x="417" y="-451.33" font-family="Helvetica,sans-Serif" font-size="10.00">x265::Entropy::encodeCU</text>
</a>
</g>
</g>
<!-- Node2&#45;&gt;Node10 -->
<g id="edge11" class="edge"><title>Node2&#45;&gt;Node10</title>
<path fill="none" stroke="midnightblue" d="M257.641,-280.909C293.136,-319.668 378.877,-413.293 406.941,-443.938"/>
<polygon fill="midnightblue" stroke="midnightblue" points="260.203,-278.524 250.868,-273.513 255.04,-283.252 260.203,-278.524"/>
</g>
<!-- Node14 -->
<g id="node14" class="node"><title>Node14</title>
<g id="a_node14"><a xlink:href="classx265_1_1Search.html#ab02df91827cf67796d1605bde60c6aed" target="_top" xlink:title="x265::Search::checkIntra">
<polygon fill="white" stroke="black" points="533,-330.33 533,-349.33 659,-349.33 659,-330.33 533,-330.33"/>
<text text-anchor="middle" x="596" y="-337.33" font-family="Helvetica,sans-Serif" font-size="10.00">x265::Search::checkIntra</text>
</a>
</g>
</g>
<!-- Node2&#45;&gt;Node14 -->
<g id="edge16" class="edge"><title>Node2&#45;&gt;Node14</title>
<path fill="none" stroke="midnightblue" d="M265.886,-278.66C286.741,-290.832 318.245,-307.387 348,-315.83 409.343,-333.235 482.312,-338.537 532.963,-339.912"/>
<polygon fill="midnightblue" stroke="midnightblue" points="267.48,-275.535 257.098,-273.421 263.896,-281.548 267.48,-275.535"/>
</g>
<!-- Node18 -->
<g id="node18" class="node"><title>Node18</title>
<g id="a_node18"><a xlink:href="classx265_1_1Search.html#aba5e04ce529f41accd43c540ba1dc7ad" target="_top" xlink:title="x265::Search::encodeResAnd\lCalcRdInterCU">
<polygon fill="white" stroke="black" points="522.5,-264.83 522.5,-294.83 669.5,-294.83 669.5,-264.83 522.5,-264.83"/>
<text text-anchor="start" x="530.5" y="-282.83" font-family="Helvetica,sans-Serif" font-size="10.00">x265::Search::encodeResAnd</text>
<text text-anchor="middle" x="596" y="-271.83" font-family="Helvetica,sans-Serif" font-size="10.00">CalcRdInterCU</text>
</a>
</g>
</g>
<!-- Node2&#45;&gt;Node18 -->
<g id="edge26" class="edge"><title>Node2&#45;&gt;Node18</title>
<path fill="none" stroke="midnightblue" d="M321.965,-267.454C382.172,-270.183 464.024,-273.893 522.37,-276.538"/>
<polygon fill="midnightblue" stroke="midnightblue" points="321.89,-263.947 311.741,-266.991 321.573,-270.94 321.89,-263.947"/>
</g>
<!-- Node4 -->
<g id="node4" class="node"><title>Node4</title>
<g id="a_node4"><a xlink:href="classx265_1_1Analysis.html#aa6122285d10bb1bd7584958b88b029d5" target="_top" xlink:title="x265::Analysis::parallel\lModeAnalysis">
<polygon fill="white" stroke="black" points="537,-106.83 537,-136.83 655,-136.83 655,-106.83 537,-106.83"/>
<text text-anchor="start" x="545" y="-124.83" font-family="Helvetica,sans-Serif" font-size="10.00">x265::Analysis::parallel</text>
<text text-anchor="middle" x="596" y="-113.83" font-family="Helvetica,sans-Serif" font-size="10.00">ModeAnalysis</text>
</a>
</g>
</g>
<!-- Node3&#45;&gt;Node4 -->
<g id="edge3" class="edge"><title>Node3&#45;&gt;Node4</title>
<path fill="none" stroke="midnightblue" d="M488.327,-148.347C504.448,-144.34 521.41,-140.123 536.947,-136.261"/>
<polygon fill="midnightblue" stroke="midnightblue" points="487.279,-145.001 478.418,-150.81 488.967,-151.794 487.279,-145.001"/>
</g>
<!-- Node6 -->
<g id="node6" class="node"><title>Node6</title>
<g id="a_node6"><a xlink:href="classx265_1_1Analysis.html#a87060ff27a37f56adc5f5b8a4c033ece" target="_top" xlink:title="x265::Analysis::compress\lInterCU_dist">
<polygon fill="white" stroke="black" points="901,-244.83 901,-274.83 1031,-274.83 1031,-244.83 901,-244.83"/>
<text text-anchor="start" x="909" y="-262.83" font-family="Helvetica,sans-Serif" font-size="10.00">x265::Analysis::compress</text>
<text text-anchor="middle" x="966" y="-251.83" font-family="Helvetica,sans-Serif" font-size="10.00">InterCU_dist</text>
</a>
</g>
</g>
<!-- Node3&#45;&gt;Node6 -->
<g id="edge8" class="edge"><title>Node3&#45;&gt;Node6</title>
<path fill="none" stroke="midnightblue" d="M496.214,-166.791C584.11,-169.508 730.41,-178.973 852,-210.83 881.993,-218.688 914.262,-233.364 936.606,-244.614"/>
<polygon fill="midnightblue" stroke="midnightblue" points="496.15,-163.288 486.053,-166.499 495.949,-170.285 496.15,-163.288"/>
</g>
<!-- Node9 -->
<g id="node9" class="node"><title>Node9</title>
<g id="a_node9"><a xlink:href="classx265_1_1Analysis.html#a30d2ff7eca5addbb0a6b3dfe14f09650" target="_top" xlink:title="x265::Analysis::compress\lInterCU_rd0_4">
<polygon fill="white" stroke="black" points="901,-181.83 901,-211.83 1031,-211.83 1031,-181.83 901,-181.83"/>
<text text-anchor="start" x="909" y="-199.83" font-family="Helvetica,sans-Serif" font-size="10.00">x265::Analysis::compress</text>
<text text-anchor="middle" x="966" y="-188.83" font-family="Helvetica,sans-Serif" font-size="10.00">InterCU_rd0_4</text>
</a>
</g>
</g>
<!-- Node3&#45;&gt;Node9 -->
<g id="edge9" class="edge"><title>Node3&#45;&gt;Node9</title>
<path fill="none" stroke="midnightblue" d="M441.657,-144.178C461.474,-127.603 491.368,-106.067 522,-96.8296 662.421,-54.4839 714.85,-44.8581 852,-96.8296 897.075,-113.91 935.73,-158.098 953.909,-181.602"/>
<polygon fill="midnightblue" stroke="midnightblue" points="439.368,-141.529 434.064,-150.701 443.93,-146.839 439.368,-141.529"/>
</g>
<!-- Node5 -->
<g id="node5" class="node"><title>Node5</title>
<g id="a_node5"><a xlink:href="classx265_1_1Analysis.html#a29a58dad4cc1c07d2f5e5717c6be7c25" target="_top" xlink:title="x265::Analysis::findJob">
<polygon fill="white" stroke="black" points="719.5,-106.33 719.5,-125.33 838.5,-125.33 838.5,-106.33 719.5,-106.33"/>
<text text-anchor="middle" x="779" y="-113.33" font-family="Helvetica,sans-Serif" font-size="10.00">x265::Analysis::findJob</text>
</a>
</g>
</g>
<!-- Node4&#45;&gt;Node5 -->
<g id="edge4" class="edge"><title>Node4&#45;&gt;Node5</title>
<path fill="none" stroke="midnightblue" d="M665.519,-119.558C683.205,-118.972 702.083,-118.346 719.223,-117.778"/>
<polygon fill="midnightblue" stroke="midnightblue" points="665.144,-116.069 655.266,-119.898 665.376,-123.065 665.144,-116.069"/>
</g>
<!-- Node5&#45;&gt;Node6 -->
<g id="edge5" class="edge"><title>Node5&#45;&gt;Node6</title>
<path fill="none" stroke="midnightblue" d="M836.988,-129.654C842.43,-132.447 847.563,-135.801 852,-139.83 881.168,-166.311 860.857,-192.277 888,-220.83 897.602,-230.93 910.389,-238.839 922.781,-244.815"/>
<polygon fill="midnightblue" stroke="midnightblue" points="838.164,-126.346 827.606,-125.463 835.309,-132.737 838.164,-126.346"/>
</g>
<!-- Node7 -->
<g id="node7" class="node"><title>Node7</title>
<g id="a_node7"><a xlink:href="classx265_1_1Analysis.html#aaebc9de2ff98834c650244f3b58942c2" target="_top" xlink:title="x265::Analysis::compressCTU">
<polygon fill="white" stroke="black" points="1080.5,-278.33 1080.5,-297.33 1231.5,-297.33 1231.5,-278.33 1080.5,-278.33"/>
<text text-anchor="middle" x="1156" y="-285.33" font-family="Helvetica,sans-Serif" font-size="10.00">x265::Analysis::compressCTU</text>
</a>
</g>
</g>
<!-- Node6&#45;&gt;Node7 -->
<g id="edge6" class="edge"><title>Node6&#45;&gt;Node7</title>
<path fill="none" stroke="midnightblue" d="M1041.3,-270.896C1057.78,-273.35 1075.1,-275.93 1091.12,-278.315"/>
<polygon fill="midnightblue" stroke="midnightblue" points="1041.58,-267.399 1031.17,-269.387 1040.55,-274.322 1041.58,-267.399"/>
</g>
<!-- Node8 -->
<g id="node8" class="node"><title>Node8</title>
<g id="a_node8"><a xlink:href="classx265_1_1FrameEncoder.html#a0ae85001572afd28238476542523ac5f" target="_top" xlink:title="x265::FrameEncoder\l::processRowEncoder">
<polygon fill="white" stroke="red" points="1268.5,-393.83 1268.5,-423.83 1381.5,-423.83 1381.5,-393.83 1268.5,-393.83"/>
<text text-anchor="start" x="1276.5" y="-411.83" font-family="Helvetica,sans-Serif" font-size="10.00">x265::FrameEncoder</text>
<text text-anchor="middle" x="1325" y="-400.83" font-family="Helvetica,sans-Serif" font-size="10.00">::processRowEncoder</text>
</a>
</g>
</g>
<!-- Node7&#45;&gt;Node8 -->
<g id="edge7" class="edge"><title>Node7&#45;&gt;Node8</title>
<path fill="none" stroke="midnightblue" d="M1178.7,-303.555C1211,-326.956 1271.31,-370.656 1303.12,-393.704"/>
<polygon fill="midnightblue" stroke="midnightblue" points="1180.54,-300.56 1170.38,-297.527 1176.43,-306.229 1180.54,-300.56"/>
</g>
<!-- Node9&#45;&gt;Node7 -->
<g id="edge10" class="edge"><title>Node9&#45;&gt;Node7</title>
<path fill="none" stroke="midnightblue" d="M1007.12,-216.25C1046.49,-235.306 1104.9,-263.577 1135.18,-278.235"/>
<polygon fill="midnightblue" stroke="midnightblue" points="1008.57,-213.063 998.044,-211.856 1005.52,-219.364 1008.57,-213.063"/>
</g>
<!-- Node11 -->
<g id="node11" class="node"><title>Node11</title>
<g id="a_node11"><a xlink:href="classx265_1_1Entropy.html#abb101b71f310e90eb504a8204babc180" target="_top" xlink:title="x265::Entropy::encodeCTU">
<polygon fill="white" stroke="black" points="528,-521.33 528,-540.33 664,-540.33 664,-521.33 528,-521.33"/>
<text text-anchor="middle" x="596" y="-528.33" font-family="Helvetica,sans-Serif" font-size="10.00">x265::Entropy::encodeCTU</text>
</a>
</g>
</g>
<!-- Node10&#45;&gt;Node11 -->
<g id="edge12" class="edge"><title>Node10&#45;&gt;Node11</title>
<path fill="none" stroke="midnightblue" d="M449.472,-467.521C484.99,-482.972 541.854,-507.71 572.941,-521.234"/>
<polygon fill="midnightblue" stroke="midnightblue" points="450.625,-464.206 440.059,-463.426 447.833,-470.625 450.625,-464.206"/>
</g>
<!-- Node11&#45;&gt;Node8 -->
<g id="edge15" class="edge"><title>Node11&#45;&gt;Node8</title>
<path fill="none" stroke="midnightblue" d="M663.643,-519.646C805.732,-495.802 1136.23,-440.34 1268.16,-418.201"/>
<polygon fill="midnightblue" stroke="midnightblue" points="663.026,-516.2 653.744,-521.307 664.185,-523.104 663.026,-516.2"/>
</g>
<!-- Node12 -->
<g id="node12" class="node"><title>Node12</title>
<g id="a_node12"><a xlink:href="classx265_1_1FrameEncoder.html#a6d4045d35bfe6b10c8d0dc39353be360" target="_top" xlink:title="x265::FrameEncoder\l::encodeSlice">
<polygon fill="white" stroke="black" points="725.5,-559.83 725.5,-589.83 832.5,-589.83 832.5,-559.83 725.5,-559.83"/>
<text text-anchor="start" x="733.5" y="-577.83" font-family="Helvetica,sans-Serif" font-size="10.00">x265::FrameEncoder</text>
<text text-anchor="middle" x="779" y="-566.83" font-family="Helvetica,sans-Serif" font-size="10.00">::encodeSlice</text>
</a>
</g>
</g>
<!-- Node11&#45;&gt;Node12 -->
<g id="edge13" class="edge"><title>Node11&#45;&gt;Node12</title>
<path fill="none" stroke="midnightblue" d="M646.102,-542.766C670.654,-548.735 700.389,-555.963 725.406,-562.044"/>
<polygon fill="midnightblue" stroke="midnightblue" points="646.818,-539.338 636.274,-540.377 645.165,-546.14 646.818,-539.338"/>
</g>
<!-- Node13 -->
<g id="node13" class="node"><title>Node13</title>
<g id="a_node13"><a xlink:href="classx265_1_1FrameEncoder.html#a2f5c4c0f1a4e36fce4c9b87eb7ec4973" target="_top" xlink:title="x265::FrameEncoder\l::compressFrame">
<polygon fill="white" stroke="red" points="912.5,-559.83 912.5,-589.83 1019.5,-589.83 1019.5,-559.83 912.5,-559.83"/>
<text text-anchor="start" x="920.5" y="-577.83" font-family="Helvetica,sans-Serif" font-size="10.00">x265::FrameEncoder</text>
<text text-anchor="middle" x="966" y="-566.83" font-family="Helvetica,sans-Serif" font-size="10.00">::compressFrame</text>
</a>
</g>
</g>
<!-- Node12&#45;&gt;Node13 -->
<g id="edge14" class="edge"><title>Node12&#45;&gt;Node13</title>
<path fill="none" stroke="midnightblue" d="M842.711,-574.83C865.352,-574.83 890.658,-574.83 912.35,-574.83"/>
<polygon fill="midnightblue" stroke="midnightblue" points="842.519,-571.33 832.519,-574.83 842.519,-578.33 842.519,-571.33"/>
</g>
<!-- Node15 -->
<g id="node15" class="node"><title>Node15</title>
<g id="a_node15"><a xlink:href="classx265_1_1Analysis.html#a10f0a8d9d143faf8dc671c6f0982693d" target="_top" xlink:title="x265::Analysis::tryLossless">
<polygon fill="white" stroke="black" points="710.5,-308.33 710.5,-327.33 847.5,-327.33 847.5,-308.33 710.5,-308.33"/>
<text text-anchor="middle" x="779" y="-315.33" font-family="Helvetica,sans-Serif" font-size="10.00">x265::Analysis::tryLossless</text>
</a>
</g>
</g>
<!-- Node14&#45;&gt;Node15 -->
<g id="edge17" class="edge"><title>Node14&#45;&gt;Node15</title>
<path fill="none" stroke="midnightblue" d="M669.293,-331.043C682.879,-329.391 697.037,-327.67 710.471,-326.038"/>
<polygon fill="midnightblue" stroke="midnightblue" points="668.541,-327.608 659.037,-332.289 669.386,-334.557 668.541,-327.608"/>
</g>
<!-- Node16 -->
<g id="node16" class="node"><title>Node16</title>
<g id="a_node16"><a xlink:href="classx265_1_1Analysis.html#aae2a6a2252270782b591d2bed7e99dae" target="_top" xlink:title="x265::Analysis::compress\lIntraCU">
<polygon fill="white" stroke="black" points="901,-300.83 901,-330.83 1031,-330.83 1031,-300.83 901,-300.83"/>
<text text-anchor="start" x="909" y="-318.83" font-family="Helvetica,sans-Serif" font-size="10.00">x265::Analysis::compress</text>
<text text-anchor="middle" x="966" y="-307.83" font-family="Helvetica,sans-Serif" font-size="10.00">IntraCU</text>
</a>
</g>
</g>
<!-- Node14&#45;&gt;Node16 -->
<g id="edge24" class="edge"><title>Node14&#45;&gt;Node16</title>
<path fill="none" stroke="midnightblue" d="M610.296,-357.491C628.799,-380.431 664.729,-419.369 706,-434.83 766.765,-457.593 798.538,-471.604 852,-434.83 888.859,-409.476 855.558,-371.633 888,-340.83 892.077,-336.959 896.76,-333.687 901.76,-330.922"/>
<polygon fill="midnightblue" stroke="midnightblue" points="613.006,-355.275 604.083,-349.564 607.497,-359.594 613.006,-355.275"/>
</g>
<!-- Node17 -->
<g id="node17" class="node"><title>Node17</title>
<g id="a_node17"><a xlink:href="classx265_1_1Analysis.html#a0b22b7765aa4a36b1ba6d07ba26901e6" target="_top" xlink:title="x265::Analysis::compress\lInterCU_rd5_6">
<polygon fill="white" stroke="black" points="901,-349.83 901,-379.83 1031,-379.83 1031,-349.83 901,-349.83"/>
<text text-anchor="start" x="909" y="-367.83" font-family="Helvetica,sans-Serif" font-size="10.00">x265::Analysis::compress</text>
<text text-anchor="middle" x="966" y="-356.83" font-family="Helvetica,sans-Serif" font-size="10.00">InterCU_rd5_6</text>
</a>
</g>
</g>
<!-- Node14&#45;&gt;Node17 -->
<g id="edge25" class="edge"><title>Node14&#45;&gt;Node17</title>
<path fill="none" stroke="midnightblue" d="M606.944,-358.278C623.294,-386.404 658.805,-438.94 706,-459.83 765.336,-486.093 791.035,-482.052 852,-459.83 895.826,-443.855 934.451,-402.578 953.119,-380.05"/>
<polygon fill="midnightblue" stroke="midnightblue" points="609.926,-356.439 601.973,-349.439 603.825,-359.871 609.926,-356.439"/>
</g>
<!-- Node15&#45;&gt;Node6 -->
<g id="edge20" class="edge"><title>Node15&#45;&gt;Node6</title>
<path fill="none" stroke="midnightblue" d="M820.176,-305.234C848.639,-296.31 886.95,-284.299 917.019,-274.872"/>
<polygon fill="midnightblue" stroke="midnightblue" points="819.044,-301.921 810.549,-308.252 821.138,-308.6 819.044,-301.921"/>
</g>
<!-- Node15&#45;&gt;Node9 -->
<g id="edge21" class="edge"><title>Node15&#45;&gt;Node9</title>
<path fill="none" stroke="midnightblue" d="M799.832,-301.835C825.865,-280.971 870.325,-245.834 888,-234.83 901.541,-226.399 917.214,-218.378 930.872,-211.896"/>
<polygon fill="midnightblue" stroke="midnightblue" points="797.379,-299.316 791.775,-308.307 801.763,-304.773 797.379,-299.316"/>
</g>
<!-- Node15&#45;&gt;Node16 -->
<g id="edge18" class="edge"><title>Node15&#45;&gt;Node16</title>
<path fill="none" stroke="midnightblue" d="M857.921,-316.987C872.276,-316.832 887.111,-316.672 900.996,-316.522"/>
<polygon fill="midnightblue" stroke="midnightblue" points="857.536,-313.491 847.575,-317.099 857.612,-320.491 857.536,-313.491"/>
</g>
<!-- Node15&#45;&gt;Node17 -->
<g id="edge22" class="edge"><title>Node15&#45;&gt;Node17</title>
<path fill="none" stroke="midnightblue" d="M827.319,-329.851C851.2,-335.918 880.407,-343.338 905.765,-349.781"/>
<polygon fill="midnightblue" stroke="midnightblue" points="827.991,-326.411 817.438,-327.341 826.268,-333.195 827.991,-326.411"/>
</g>
<!-- Node16&#45;&gt;Node7 -->
<g id="edge19" class="edge"><title>Node16&#45;&gt;Node7</title>
<path fill="none" stroke="midnightblue" d="M1041.3,-304.763C1057.78,-302.309 1075.1,-299.73 1091.12,-297.344"/>
<polygon fill="midnightblue" stroke="midnightblue" points="1040.55,-301.337 1031.17,-306.272 1041.58,-308.261 1040.55,-301.337"/>
</g>
<!-- Node17&#45;&gt;Node7 -->
<g id="edge23" class="edge"><title>Node17&#45;&gt;Node7</title>
<path fill="none" stroke="midnightblue" d="M1026.14,-346.459C1032.21,-344.326 1038.25,-342.099 1044,-339.83 1077.25,-326.701 1114.67,-308.409 1136.46,-297.385"/>
<polygon fill="midnightblue" stroke="midnightblue" points="1024.94,-343.17 1016.62,-349.725 1027.21,-349.791 1024.94,-343.17"/>
</g>
<!-- Node18&#45;&gt;Node6 -->
<g id="edge28" class="edge"><title>Node18&#45;&gt;Node6</title>
<path fill="none" stroke="midnightblue" d="M679.79,-275.33C746.653,-271.696 839.401,-266.656 900.75,-263.321"/>
<polygon fill="midnightblue" stroke="midnightblue" points="679.5,-271.841 669.705,-275.878 679.88,-278.83 679.5,-271.841"/>
</g>
<!-- Node18&#45;&gt;Node9 -->
<g id="edge29" class="edge"><title>Node18&#45;&gt;Node9</title>
<path fill="none" stroke="midnightblue" d="M622.493,-258.329C643.448,-242.047 674.686,-220.832 706,-210.83 770.022,-190.38 847.427,-189.016 900.849,-191.435"/>
<polygon fill="midnightblue" stroke="midnightblue" points="620.088,-255.77 614.444,-264.736 624.448,-261.247 620.088,-255.77"/>
</g>
<!-- Node18&#45;&gt;Node15 -->
<g id="edge27" class="edge"><title>Node18&#45;&gt;Node15</title>
<path fill="none" stroke="midnightblue" d="M678.513,-296.943C697.144,-300.854 716.289,-304.874 732.746,-308.329"/>
<polygon fill="midnightblue" stroke="midnightblue" points="679.042,-293.478 668.536,-294.848 677.603,-300.328 679.042,-293.478"/>
</g>
<!-- Node19 -->
<g id="node19" class="node"><title>Node19</title>
<g id="a_node19"><a xlink:href="classx265_1_1Analysis.html#addd72cb95590e2b2a6965d42d110eab3" target="_top" xlink:title="x265::Analysis::checkMerge2\lNx2N_rd0_4">
<polygon fill="white" stroke="black" points="706,-220.83 706,-250.83 852,-250.83 852,-220.83 706,-220.83"/>
<text text-anchor="start" x="714" y="-238.83" font-family="Helvetica,sans-Serif" font-size="10.00">x265::Analysis::checkMerge2</text>
<text text-anchor="middle" x="779" y="-227.83" font-family="Helvetica,sans-Serif" font-size="10.00">Nx2N_rd0_4</text>
</a>
</g>
</g>
<!-- Node18&#45;&gt;Node19 -->
<g id="edge30" class="edge"><title>Node18&#45;&gt;Node19</title>
<path fill="none" stroke="midnightblue" d="M668.929,-262.344C684.568,-258.542 700.981,-254.553 716.188,-250.856"/>
<polygon fill="midnightblue" stroke="midnightblue" points="667.674,-259.047 658.784,-264.81 669.327,-265.849 667.674,-259.047"/>
</g>
<!-- Node20 -->
<g id="node20" class="node"><title>Node20</title>
<g id="a_node20"><a xlink:href="classx265_1_1Analysis.html#a0194a9da53aa95173fa1132ba3aea1c7" target="_top" xlink:title="x265::Analysis::checkMerge2\lNx2N_rd5_6">
<polygon fill="white" stroke="black" points="706,-395.83 706,-425.83 852,-425.83 852,-395.83 706,-395.83"/>
<text text-anchor="start" x="714" y="-413.83" font-family="Helvetica,sans-Serif" font-size="10.00">x265::Analysis::checkMerge2</text>
<text text-anchor="middle" x="779" y="-402.83" font-family="Helvetica,sans-Serif" font-size="10.00">Nx2N_rd5_6</text>
</a>
</g>
</g>
<!-- Node18&#45;&gt;Node20 -->
<g id="edge33" class="edge"><title>Node18&#45;&gt;Node20</title>
<path fill="none" stroke="midnightblue" d="M641.572,-299.7C651.684,-305.546 661.836,-312.617 670,-320.83 693.282,-344.25 680.734,-364.565 706,-385.83 710.556,-389.664 715.735,-392.922 721.177,-395.689"/>
<polygon fill="midnightblue" stroke="midnightblue" points="643.201,-296.602 632.747,-294.881 639.846,-302.746 643.201,-296.602"/>
</g>
<!-- Node21 -->
<g id="node21" class="node"><title>Node21</title>
<g id="a_node21"><a xlink:href="classx265_1_1Analysis.html#a828daa3e9f1ed40a1af9f99f7ff7bb33" target="_top" xlink:title="x265::Analysis::checkInter\l_rd5_6">
<polygon fill="white" stroke="black" points="712.5,-346.83 712.5,-376.83 845.5,-376.83 845.5,-346.83 712.5,-346.83"/>
<text text-anchor="start" x="720.5" y="-364.83" font-family="Helvetica,sans-Serif" font-size="10.00">x265::Analysis::checkInter</text>
<text text-anchor="middle" x="779" y="-353.83" font-family="Helvetica,sans-Serif" font-size="10.00">_rd5_6</text>
</a>
</g>
</g>
<!-- Node18&#45;&gt;Node21 -->
<g id="edge35" class="edge"><title>Node18&#45;&gt;Node21</title>
<path fill="none" stroke="midnightblue" d="M632.23,-299.946C653.267,-311.528 680.729,-325.906 706,-336.83 714.138,-340.347 722.948,-343.736 731.52,-346.823"/>
<polygon fill="midnightblue" stroke="midnightblue" points="633.782,-296.805 623.341,-295.008 630.383,-302.924 633.782,-296.805"/>
</g>
<!-- Node19&#45;&gt;Node6 -->
<g id="edge31" class="edge"><title>Node19&#45;&gt;Node6</title>
<path fill="none" stroke="midnightblue" d="M861.976,-246.464C875.044,-248.16 888.397,-249.892 900.971,-251.523"/>
<polygon fill="midnightblue" stroke="midnightblue" points="862.423,-242.993 852.056,-245.177 861.522,-249.935 862.423,-242.993"/>
</g>
<!-- Node19&#45;&gt;Node9 -->
<g id="edge32" class="edge"><title>Node19&#45;&gt;Node9</title>
<path fill="none" stroke="midnightblue" d="M861.282,-218.694C874.489,-215.91 888.006,-213.061 900.734,-210.378"/>
<polygon fill="midnightblue" stroke="midnightblue" points="860.324,-215.319 851.261,-220.807 861.768,-222.169 860.324,-215.319"/>
</g>
<!-- Node20&#45;&gt;Node17 -->
<g id="edge34" class="edge"><title>Node20&#45;&gt;Node17</title>
<path fill="none" stroke="midnightblue" d="M850.365,-393.333C868.236,-388.89 887.278,-384.155 904.604,-379.847"/>
<polygon fill="midnightblue" stroke="midnightblue" points="849.436,-389.958 840.576,-395.767 851.125,-396.751 849.436,-389.958"/>
</g>
<!-- Node21&#45;&gt;Node17 -->
<g id="edge36" class="edge"><title>Node21&#45;&gt;Node17</title>
<path fill="none" stroke="midnightblue" d="M855.927,-363.061C870.799,-363.302 886.262,-363.553 900.71,-363.787"/>
<polygon fill="midnightblue" stroke="midnightblue" points="855.8,-359.558 845.745,-362.896 855.687,-366.558 855.8,-359.558"/>
</g>
<!-- Node23 -->
<g id="node23" class="node"><title>Node23</title>
<g id="a_node23"><a xlink:href="classx265_1_1Analysis.html#a88ad2880a5a8bcad5cfd5d6ea630b265" target="_top" xlink:title="x265::Analysis::encodeResidue">
<polygon fill="white" stroke="black" points="888.5,-62.3296 888.5,-81.3296 1043.5,-81.3296 1043.5,-62.3296 888.5,-62.3296"/>
<text text-anchor="middle" x="966" y="-69.3296" font-family="Helvetica,sans-Serif" font-size="10.00">x265::Analysis::encodeResidue</text>
</a>
</g>
</g>
<!-- Node22&#45;&gt;Node23 -->
<g id="edge38" class="edge"><title>Node22&#45;&gt;Node23</title>
<path fill="none" stroke="midnightblue" d="M656.948,-16.3133C709.217,-3.77894 786.68,8.14883 852,-8.82961 891.999,-19.2265 932.875,-47.2238 952.704,-62.1498"/>
<polygon fill="midnightblue" stroke="midnightblue" points="656.031,-12.9347 647.166,-18.7368 657.714,-19.7293 656.031,-12.9347"/>
</g>
<!-- Node24 -->
<g id="node24" class="node"><title>Node24</title>
<g id="a_node24"><a xlink:href="classx265_1_1Search.html#a5284cffef18fe6884b268ea28f21f22f" target="_top" xlink:title="x265::Search::generateCoeff\lRecon">
<polygon fill="white" stroke="black" points="708,-18.8296 708,-48.8296 850,-48.8296 850,-18.8296 708,-18.8296"/>
<text text-anchor="start" x="716" y="-36.8296" font-family="Helvetica,sans-Serif" font-size="10.00">x265::Search::generateCoeff</text>
<text text-anchor="middle" x="779" y="-25.8296" font-family="Helvetica,sans-Serif" font-size="10.00">Recon</text>
</a>
</g>
</g>
<!-- Node22&#45;&gt;Node24 -->
<g id="edge40" class="edge"><title>Node22&#45;&gt;Node24</title>
<path fill="none" stroke="midnightblue" d="M673.118,-33.8296C684.618,-33.8296 696.435,-33.8296 707.802,-33.8296"/>
<polygon fill="midnightblue" stroke="midnightblue" points="673.114,-30.3297 663.113,-33.8296 673.113,-37.3297 673.114,-30.3297"/>
</g>
<!-- Node23&#45;&gt;Node7 -->
<g id="edge39" class="edge"><title>Node23&#45;&gt;Node7</title>
<path fill="none" stroke="midnightblue" d="M982.001,-89.0646C1019.57,-132.226 1116.79,-243.924 1146.35,-277.887"/>
<polygon fill="midnightblue" stroke="midnightblue" points="984.526,-86.6348 975.321,-81.3896 979.246,-91.2305 984.526,-86.6348"/>
</g>
<!-- Node24&#45;&gt;Node9 -->
<g id="edge41" class="edge"><title>Node24&#45;&gt;Node9</title>
<path fill="none" stroke="midnightblue" d="M834.567,-53.2694C840.684,-56.3962 846.636,-59.9131 852,-63.8296 898.494,-97.7761 938.219,-154.595 955.611,-181.636"/>
<polygon fill="midnightblue" stroke="midnightblue" points="836.069,-50.108 825.536,-48.9664 833.058,-56.4274 836.069,-50.108"/>
</g>
<!-- Node25&#45;&gt;Node3 -->
<g id="edge43" class="edge"><title>Node25&#45;&gt;Node3</title>
<path fill="none" stroke="midnightblue" d="M318.415,-180.972C328.226,-179.45 338.219,-177.899 347.885,-176.399"/>
<polygon fill="midnightblue" stroke="midnightblue" points="317.623,-177.553 308.278,-182.545 318.697,-184.47 317.623,-177.553"/>
</g>
<!-- Node25&#45;&gt;Node14 -->
<g id="edge44" class="edge"><title>Node25&#45;&gt;Node14</title>
<path fill="none" stroke="midnightblue" d="M287.485,-211.771C363.781,-243.543 514.821,-306.441 572.179,-330.326"/>
<polygon fill="midnightblue" stroke="midnightblue" points="288.695,-208.484 278.118,-207.87 286.004,-214.946 288.695,-208.484"/>
</g>
</g>
</svg>
        <g id="navigator" transform="translate(0 0)" fill="#404254">
                <rect fill="#f2f5e9" fill-opacity="0.5" stroke="#606060" stroke-width=".5" x="0" y="0" width="60" height="60"/>
                <use id="zoomplus" xlink:href="#zoomPlus" x="17" y="9" onmousedown="handleZoom(evt,'in')"/>
                <use id="zoomminus" xlink:href="#zoomMin" x="42" y="9" onmousedown="handleZoom(evt,'out')"/>
                <use id="reset" xlink:href="#resetDef" x="30" y="36" onmousedown="handleReset()"/>
                <g id="arrowUp" xlink:href="#dirArrow" transform="translate(30 24)" onmousedown="handlePan(0,-1)">
                  <use xlink:href="#rim" fill="#404040">
                        <set attributeName="fill" to="#808080" begin="arrowUp.mouseover" end="arrowUp.mouseout"/>
                  </use>
                  <path fill="none" stroke="white" stroke-width="1.5" d="M0,-3.0v7 M-2.5,-0.5L0,-3.0L2.5,-0.5"/>
                </g>
                <g id="arrowRight" xlink:href="#dirArrow" transform="rotate(90) translate(36 -43)" onmousedown="handlePan(1,0)">
                  <use xlink:href="#rim" fill="#404040">
                        <set attributeName="fill" to="#808080" begin="arrowRight.mouseover" end="arrowRight.mouseout"/>
                  </use>
                  <path fill="none" stroke="white" stroke-width="1.5" d="M0,-3.0v7 M-2.5,-0.5L0,-3.0L2.5,-0.5"/>
                </g>
                <g id="arrowDown" xlink:href="#dirArrow" transform="rotate(180) translate(-30 -48)" onmousedown="handlePan(0,1)">
                  <use xlink:href="#rim" fill="#404040">
                        <set attributeName="fill" to="#808080" begin="arrowDown.mouseover" end="arrowDown.mouseout"/>
                  </use>
                  <path fill="none" stroke="white" stroke-width="1.5" d="M0,-3.0v7 M-2.5,-0.5L0,-3.0L2.5,-0.5"/>
                </g>
                <g id="arrowLeft" xlink:href="#dirArrow" transform="rotate(270) translate(-36 17)" onmousedown="handlePan(-1,0)">
                  <use xlink:href="#rim" fill="#404040">
                        <set attributeName="fill" to="#808080" begin="arrowLeft.mouseover" end="arrowLeft.mouseout"/>
                  </use>
                  <path fill="none" stroke="white" stroke-width="1.5" d="M0,-3.0v7 M-2.5,-0.5L0,-3.0L2.5,-0.5"/>
                </g>
        </g>
        <svg viewBox="0 0 15 15" width="100%" height="30px" preserveAspectRatio="xMaxYMin meet">
         <g id="arrow_out" transform="scale(0.3 0.3)">
          <a xlink:href="classx265_1_1CUData_a7219af41e7e8f46f885d4d40108930d9_icgraph_org.svg" target="_base">
           <rect id="button" ry="5" rx="5" y="6" x="6" height="38" width="38"
                fill="#f2f5e9" fill-opacity="0.5" stroke="#606060" stroke-width="1.0"/>
           <path id="arrow"
             d="M 11.500037,31.436501 C 11.940474,20.09759 22.043105,11.32322 32.158766,21.979434 L 37.068811,17.246167 C 37.068811,17.246167 37.088388,32 37.088388,32 L 22.160133,31.978069 C 22.160133,31.978069 26.997745,27.140456 26.997745,27.140456 C 18.528582,18.264221 13.291696,25.230495 11.500037,31.436501 z"
             style="fill:#404040;"/>
          </a>
         </g>
        </svg>
</svg>
