<?xml version="1.0" encoding="UTF-8" standalone="no"?>
<!DOCTYPE svg PUBLIC "-//W3C//DTD SVG 1.1//EN"
 "http://www.w3.org/Graphics/SVG/1.1/DTD/svg11.dtd">
<!-- Generated by graphviz version 2.36.0 (20140111.2315)
 -->
<!-- Title: x265::MD5::update Pages: 1 -->
<svg width="386pt" height="28pt"
 viewBox="0.00 0.00 386.00 28.00" xmlns="http://www.w3.org/2000/svg" xmlns:xlink="http://www.w3.org/1999/xlink">
<g id="graph0" class="graph" transform="scale(1 1) rotate(0) translate(4 24)">
<title>x265::MD5::update</title>
<polygon fill="white" stroke="none" points="-4,4 -4,-24 382,-24 382,4 -4,4"/>
<!-- Node1 -->
<g id="node1" class="node"><title>Node1</title>
<polygon fill="#bfbfbf" stroke="black" points="0,-0.5 0,-19.5 100,-19.5 100,-0.5 0,-0.5"/>
<text text-anchor="middle" x="50" y="-7.5" font-family="Helvetica,sans-Serif" font-size="10.00">x265::MD5::update</text>
</g>
<!-- Node2 -->
<g id="node2" class="node"><title>Node2</title>
<g id="a_node2"><a xlink:href="namespacex265.html#a6f598b085b6ad0e79306a43b6d61d4ad" target="_top" xlink:title="x265::MD5Update">
<polygon fill="white" stroke="black" points="136,-0.5 136,-19.5 232,-19.5 232,-0.5 136,-0.5"/>
<text text-anchor="middle" x="184" y="-7.5" font-family="Helvetica,sans-Serif" font-size="10.00">x265::MD5Update</text>
</a>
</g>
</g>
<!-- Node1&#45;&gt;Node2 -->
<g id="edge1" class="edge"><title>Node1&#45;&gt;Node2</title>
<path fill="none" stroke="midnightblue" d="M100.152,-10C108.49,-10 117.212,-10 125.736,-10"/>
<polygon fill="midnightblue" stroke="midnightblue" points="125.997,-13.5001 135.997,-10 125.997,-6.5001 125.997,-13.5001"/>
</g>
<!-- Node3 -->
<g id="node3" class="node"><title>Node3</title>
<g id="a_node3"><a xlink:href="namespacex265.html#a6e4a0fadde713a59af66944a25d751aa" target="_top" xlink:title="x265::MD5Transform">
<polygon fill="white" stroke="black" points="268.5,-0.5 268.5,-19.5 377.5,-19.5 377.5,-0.5 268.5,-0.5"/>
<text text-anchor="middle" x="323" y="-7.5" font-family="Helvetica,sans-Serif" font-size="10.00">x265::MD5Transform</text>
</a>
</g>
</g>
<!-- Node2&#45;&gt;Node3 -->
<g id="edge2" class="edge"><title>Node2&#45;&gt;Node3</title>
<path fill="none" stroke="midnightblue" d="M232.148,-10C240.492,-10 249.307,-10 258.023,-10"/>
<polygon fill="midnightblue" stroke="midnightblue" points="258.177,-13.5001 268.177,-10 258.177,-6.5001 258.177,-13.5001"/>
</g>
</g>
</svg>
