<?xml version="1.0" encoding="UTF-8" standalone="no"?>
<!DOCTYPE svg PUBLIC "-//W3C//DTD SVG 1.1//EN"
 "http://www.w3.org/Graphics/SVG/1.1/DTD/svg11.dtd">
<!-- Generated by graphviz version 2.36.0 (20140111.2315)
 -->
<!-- Title: x265::SAO::calcSaoStatsCu_BeforeDblk Pages: 1 -->
<svg width="334pt" height="104pt"
 viewBox="0.00 0.00 334.00 104.00" xmlns="http://www.w3.org/2000/svg" xmlns:xlink="http://www.w3.org/1999/xlink">
<g id="graph0" class="graph" transform="scale(1 1) rotate(0) translate(4 100)">
<title>x265::SAO::calcSaoStatsCu_BeforeDblk</title>
<polygon fill="white" stroke="none" points="-4,4 -4,-100 330,-100 330,4 -4,4"/>
<!-- Node1 -->
<g id="node1" class="node"><title>Node1</title>
<polygon fill="#bfbfbf" stroke="black" points="0,-33 0,-63 142,-63 142,-33 0,-33"/>
<text text-anchor="start" x="8" y="-51" font-family="Helvetica,sans-Serif" font-size="10.00">x265::SAO::calcSaoStatsCu</text>
<text text-anchor="middle" x="71" y="-40" font-family="Helvetica,sans-Serif" font-size="10.00">_BeforeDblk</text>
</g>
<!-- Node2 -->
<g id="node2" class="node"><title>Node2</title>
<g id="a_node2"><a xlink:href="classx265_1_1FrameData.html#a83d98df913873a07c3ce59bd5c16b2e4" target="_top" xlink:title="x265::FrameData::getPicCTU">
<polygon fill="white" stroke="black" points="178.5,-76.5 178.5,-95.5 325.5,-95.5 325.5,-76.5 178.5,-76.5"/>
<text text-anchor="middle" x="252" y="-83.5" font-family="Helvetica,sans-Serif" font-size="10.00">x265::FrameData::getPicCTU</text>
</a>
</g>
</g>
<!-- Node1&#45;&gt;Node2 -->
<g id="edge1" class="edge"><title>Node1&#45;&gt;Node2</title>
<path fill="none" stroke="midnightblue" d="M142.232,-62.9095C160.244,-66.7335 179.35,-70.7895 196.44,-74.4174"/>
<polygon fill="midnightblue" stroke="midnightblue" points="195.737,-77.8461 206.246,-76.4991 197.19,-70.9987 195.737,-77.8461"/>
</g>
<!-- Node3 -->
<g id="node3" class="node"><title>Node3</title>
<g id="a_node3"><a xlink:href="common_8h.html#a0cd31af5bfbe1669e9a0d02225e6efba" target="_top" xlink:title="x265_min">
<polygon fill="white" stroke="black" points="222.5,-38.5 222.5,-57.5 281.5,-57.5 281.5,-38.5 222.5,-38.5"/>
<text text-anchor="middle" x="252" y="-45.5" font-family="Helvetica,sans-Serif" font-size="10.00">x265_min</text>
</a>
</g>
</g>
<!-- Node1&#45;&gt;Node3 -->
<g id="edge2" class="edge"><title>Node1&#45;&gt;Node3</title>
<path fill="none" stroke="midnightblue" d="M142.232,-48C165.919,-48 191.497,-48 211.894,-48"/>
<polygon fill="midnightblue" stroke="midnightblue" points="212.051,-51.5001 222.051,-48 212.051,-44.5001 212.051,-51.5001"/>
</g>
<!-- Node4 -->
<g id="node4" class="node"><title>Node4</title>
<g id="a_node4"><a xlink:href="classx265_1_1PicYuv.html#aeee8556da4cb35b12357140c8f009586" target="_top" xlink:title="x265::PicYuv::getPlaneAddr">
<polygon fill="white" stroke="black" points="182,-0.5 182,-19.5 322,-19.5 322,-0.5 182,-0.5"/>
<text text-anchor="middle" x="252" y="-7.5" font-family="Helvetica,sans-Serif" font-size="10.00">x265::PicYuv::getPlaneAddr</text>
</a>
</g>
</g>
<!-- Node1&#45;&gt;Node4 -->
<g id="edge3" class="edge"><title>Node1&#45;&gt;Node4</title>
<path fill="none" stroke="midnightblue" d="M142.232,-33.0905C160.244,-29.2665 179.35,-25.2105 196.44,-21.5826"/>
<polygon fill="midnightblue" stroke="midnightblue" points="197.19,-25.0013 206.246,-19.5009 195.737,-18.1539 197.19,-25.0013"/>
</g>
</g>
</svg>
