<?xml version="1.0" encoding="UTF-8" standalone="no"?>
<!DOCTYPE svg PUBLIC "-//W3C//DTD SVG 1.1//EN"
 "http://www.w3.org/Graphics/SVG/1.1/DTD/svg11.dtd">
<!-- Generated by graphviz version 2.36.0 (20140111.2315)
 -->
<!-- Title: x265::ThreadPool::allocThreadPool Pages: 1 -->
<svg width="468pt" height="66pt"
 viewBox="0.00 0.00 468.00 66.00" xmlns="http://www.w3.org/2000/svg" xmlns:xlink="http://www.w3.org/1999/xlink">
<g id="graph0" class="graph" transform="scale(1 1) rotate(0) translate(4 62)">
<title>x265::ThreadPool::allocThreadPool</title>
<polygon fill="white" stroke="none" points="-4,4 -4,-62 464,-62 464,4 -4,4"/>
<!-- Node1 -->
<g id="node1" class="node"><title>Node1</title>
<polygon fill="#bfbfbf" stroke="black" points="0.5,-19.5 0.5,-38.5 169.5,-38.5 169.5,-19.5 0.5,-19.5"/>
<text text-anchor="middle" x="85" y="-26.5" font-family="Helvetica,sans-Serif" font-size="10.00">x265::ThreadPool::allocThreadPool</text>
</g>
<!-- Node2 -->
<g id="node2" class="node"><title>Node2</title>
<g id="a_node2"><a xlink:href="classx265_1_1Encoder.html#aa45d4a8835e915c1e980ad8aaad7cc51" target="_top" xlink:title="x265::Encoder::create">
<polygon fill="white" stroke="black" points="206.5,-38.5 206.5,-57.5 319.5,-57.5 319.5,-38.5 206.5,-38.5"/>
<text text-anchor="middle" x="263" y="-45.5" font-family="Helvetica,sans-Serif" font-size="10.00">x265::Encoder::create</text>
</a>
</g>
</g>
<!-- Node1&#45;&gt;Node2 -->
<g id="edge1" class="edge"><title>Node1&#45;&gt;Node2</title>
<path fill="none" stroke="midnightblue" d="M179.811,-39.1273C188.825,-40.1004 197.757,-41.0647 206.228,-41.9791"/>
<polygon fill="midnightblue" stroke="midnightblue" points="179.937,-35.6206 169.619,-38.027 179.185,-42.5802 179.937,-35.6206"/>
</g>
<!-- Node4 -->
<g id="node4" class="node"><title>Node4</title>
<g id="a_node4"><a xlink:href="testpool_8cpp.html#a2c3f6775325c30275d11c6abee2db6a0" target="_top" xlink:title="main">
<polygon fill="white" stroke="black" points="244,-0.5 244,-19.5 282,-19.5 282,-0.5 244,-0.5"/>
<text text-anchor="middle" x="263" y="-7.5" font-family="Helvetica,sans-Serif" font-size="10.00">main</text>
</a>
</g>
</g>
<!-- Node1&#45;&gt;Node4 -->
<g id="edge3" class="edge"><title>Node1&#45;&gt;Node4</title>
<path fill="none" stroke="midnightblue" d="M179.742,-18.8801C204.2,-16.2398 228.064,-13.6636 243.733,-11.972"/>
<polygon fill="midnightblue" stroke="midnightblue" points="179.185,-15.4198 169.619,-19.973 179.937,-22.3794 179.185,-15.4198"/>
</g>
<!-- Node3 -->
<g id="node3" class="node"><title>Node3</title>
<g id="a_node3"><a xlink:href="x265_8h.html#add639f6af182534d265ef22d4bf91f90" target="_top" xlink:title="x265_encoder_open">
<polygon fill="white" stroke="black" points="356,-38.5 356,-57.5 460,-57.5 460,-38.5 356,-38.5"/>
<text text-anchor="middle" x="408" y="-45.5" font-family="Helvetica,sans-Serif" font-size="10.00">x265_encoder_open</text>
</a>
</g>
</g>
<!-- Node2&#45;&gt;Node3 -->
<g id="edge2" class="edge"><title>Node2&#45;&gt;Node3</title>
<path fill="none" stroke="midnightblue" d="M329.869,-48C338.606,-48 347.455,-48 355.891,-48"/>
<polygon fill="midnightblue" stroke="midnightblue" points="329.697,-44.5001 319.697,-48 329.697,-51.5001 329.697,-44.5001"/>
</g>
</g>
</svg>
