<?xml version="1.0" encoding="UTF-8" standalone="no"?>
<!DOCTYPE svg PUBLIC "-//W3C//DTD SVG 1.1//EN"
 "http://www.w3.org/Graphics/SVG/1.1/DTD/svg11.dtd">
<!-- Generated by graphviz version 2.36.0 (20140111.2315)
 -->
<!-- Title: x265::Frame::destroy Pages: 1 -->
<!--zoomable 104 -->
<svg id="main" version="1.1" xmlns="http://www.w3.org/2000/svg" xmlns:xlink="http://www.w3.org/1999/xlink" xml:space="preserve" onload="init(evt)">
<style type="text/css"><![CDATA[
.edge:hover path { stroke: red; }
.edge:hover polygon { stroke: red; fill: red; }
]]></style>
<script type="text/javascript"><![CDATA[
var edges = document.getElementsByTagName('g');
if (edges && edges.length) {
  for (var i=0;i<edges.length;i++) {
    if (edges[i].id.substr(0,4)=='edge') {
      edges[i].setAttribute('class','edge');
    }
  }
}
]]></script>
        <defs>
                <circle id="rim" cx="0" cy="0" r="7"/>
                <circle id="rim2" cx="0" cy="0" r="3.5"/>
                <g id="zoomPlus">
                        <use xlink:href="#rim" fill="#404040">
                                <set attributeName="fill" to="#808080" begin="zoomplus.mouseover" end="zoomplus.mouseout"/>
                        </use>
                        <path d="M-4,0h8M0,-4v8" fill="none" stroke="white" stroke-width="1.5" pointer-events="none"/>
                </g>
                <g id="zoomMin">
                        <use xlink:href="#rim" fill="#404040">
                                <set attributeName="fill" to="#808080" begin="zoomminus.mouseover" end="zoomminus.mouseout"/>
                        </use>
                        <path d="M-4,0h8" fill="none" stroke="white" stroke-width="1.5" pointer-events="none"/>
                </g>
                <g id="dirArrow">
                        <path fill="none" stroke="white" stroke-width="1.5" d="M0,-3.0v7 M-2.5,-0.5L0,-3.0L2.5,-0.5"/>
                </g>
               <g id="resetDef">
                       <use xlink:href="#rim2" fill="#404040">
                               <set attributeName="fill" to="#808080" begin="reset.mouseover" end="reset.mouseout"/>
                       </use>
               </g>
        </defs>

<script type="text/javascript">
var viewWidth = 662;
var viewHeight = 104;
var sectionId = 'dynsection-7';
</script>
<script xlink:href="svgpan.js"/>
<svg id="graph" class="graph">
<g id="viewport">
<title>x265::Frame::destroy</title>
<polygon fill="white" stroke="none" points="-4,4 -4,-100 658,-100 658,4 -4,4"/>
<!-- Node1 -->
<g id="node1" class="node"><title>Node1</title>
<polygon fill="#bfbfbf" stroke="black" points="0,-38.5 0,-57.5 110,-57.5 110,-38.5 0,-38.5"/>
<text text-anchor="middle" x="55" y="-45.5" font-family="Helvetica,sans-Serif" font-size="10.00">x265::Frame::destroy</text>
</g>
<!-- Node2 -->
<g id="node2" class="node"><title>Node2</title>
<g id="a_node2"><a xlink:href="classx265_1_1DPB.html#ab413f4582b68ea3e7ca50918ff4c4da3" target="_top" xlink:title="x265::DPB::~DPB">
<polygon fill="white" stroke="black" points="162,-76.5 162,-95.5 260,-95.5 260,-76.5 162,-76.5"/>
<text text-anchor="middle" x="211" y="-83.5" font-family="Helvetica,sans-Serif" font-size="10.00">x265::DPB::~DPB</text>
</a>
</g>
</g>
<!-- Node1&#45;&gt;Node2 -->
<g id="edge1" class="edge"><title>Node1&#45;&gt;Node2</title>
<path fill="none" stroke="midnightblue" d="M104.794,-60.04C126.308,-65.3488 151.232,-71.4988 171.419,-76.4799"/>
<polygon fill="midnightblue" stroke="midnightblue" points="105.408,-56.5867 94.8607,-57.589 103.731,-63.3828 105.408,-56.5867"/>
</g>
<!-- Node3 -->
<g id="node3" class="node"><title>Node3</title>
<g id="a_node3"><a xlink:href="classx265_1_1Encoder.html#af5c80cef5fcafa00d1b3c105681bc784" target="_top" xlink:title="x265::Encoder::encode">
<polygon fill="white" stroke="black" points="152.5,-38.5 152.5,-57.5 269.5,-57.5 269.5,-38.5 152.5,-38.5"/>
<text text-anchor="middle" x="211" y="-45.5" font-family="Helvetica,sans-Serif" font-size="10.00">x265::Encoder::encode</text>
</a>
</g>
</g>
<!-- Node1&#45;&gt;Node3 -->
<g id="edge2" class="edge"><title>Node1&#45;&gt;Node3</title>
<path fill="none" stroke="midnightblue" d="M120.328,-48C130.927,-48 141.855,-48 152.279,-48"/>
<polygon fill="midnightblue" stroke="midnightblue" points="120.295,-44.5001 110.295,-48 120.295,-51.5001 120.295,-44.5001"/>
</g>
<!-- Node6 -->
<g id="node6" class="node"><title>Node6</title>
<g id="a_node6"><a xlink:href="classx265_1_1Lookahead.html#ab9a7aba780092c796bb7b2a2e0d41f4d" target="_top" xlink:title="x265::Lookahead::destroy">
<polygon fill="white" stroke="black" points="146.5,-0.5 146.5,-19.5 275.5,-19.5 275.5,-0.5 146.5,-0.5"/>
<text text-anchor="middle" x="211" y="-7.5" font-family="Helvetica,sans-Serif" font-size="10.00">x265::Lookahead::destroy</text>
</a>
</g>
</g>
<!-- Node1&#45;&gt;Node6 -->
<g id="edge5" class="edge"><title>Node1&#45;&gt;Node6</title>
<path fill="none" stroke="midnightblue" d="M104.794,-35.96C126.308,-30.6512 151.232,-24.5012 171.419,-19.5201"/>
<polygon fill="midnightblue" stroke="midnightblue" points="103.731,-32.6172 94.8607,-38.411 105.408,-39.4133 103.731,-32.6172"/>
</g>
<!-- Node4 -->
<g id="node4" class="node"><title>Node4</title>
<g id="a_node4"><a xlink:href="x265_8h.html#a7a45a920b9d86ed3fb3cb3794b14f5ea" target="_top" xlink:title="x265_encoder_encode">
<polygon fill="white" stroke="black" points="466,-38.5 466,-57.5 580,-57.5 580,-38.5 466,-38.5"/>
<text text-anchor="middle" x="523" y="-45.5" font-family="Helvetica,sans-Serif" font-size="10.00">x265_encoder_encode</text>
</a>
</g>
</g>
<!-- Node3&#45;&gt;Node4 -->
<g id="edge3" class="edge"><title>Node3&#45;&gt;Node4</title>
<path fill="none" stroke="midnightblue" d="M279.714,-48C335.427,-48 413.462,-48 465.772,-48"/>
<polygon fill="midnightblue" stroke="midnightblue" points="279.582,-44.5001 269.582,-48 279.582,-51.5001 279.582,-44.5001"/>
</g>
<!-- Node5 -->
<g id="node5" class="node"><title>Node5</title>
<g id="a_node5"><a xlink:href="x265_8cpp.html#a3c04138a5bfe5d72780bb7e82a18e627" target="_top" xlink:title="main">
<polygon fill="white" stroke="black" points="616,-19.5 616,-38.5 654,-38.5 654,-19.5 616,-19.5"/>
<text text-anchor="middle" x="635" y="-26.5" font-family="Helvetica,sans-Serif" font-size="10.00">main</text>
</a>
</g>
</g>
<!-- Node4&#45;&gt;Node5 -->
<g id="edge4" class="edge"><title>Node4&#45;&gt;Node5</title>
<path fill="none" stroke="midnightblue" d="M589.22,-36.7347C599.017,-35.0425 608.366,-33.4277 615.963,-32.1155"/>
<polygon fill="midnightblue" stroke="midnightblue" points="588.581,-33.2933 579.322,-38.4443 589.772,-40.1911 588.581,-33.2933"/>
</g>
<!-- Node7 -->
<g id="node7" class="node"><title>Node7</title>
<g id="a_node7"><a xlink:href="classx265_1_1Encoder.html#ac689b087686eca38579aad7426e34fc6" target="_top" xlink:title="x265::Encoder::destroy">
<polygon fill="white" stroke="black" points="312,-0.5 312,-19.5 430,-19.5 430,-0.5 312,-0.5"/>
<text text-anchor="middle" x="371" y="-7.5" font-family="Helvetica,sans-Serif" font-size="10.00">x265::Encoder::destroy</text>
</a>
</g>
</g>
<!-- Node6&#45;&gt;Node7 -->
<g id="edge6" class="edge"><title>Node6&#45;&gt;Node7</title>
<path fill="none" stroke="midnightblue" d="M285.942,-10C294.627,-10 303.395,-10 311.821,-10"/>
<polygon fill="midnightblue" stroke="midnightblue" points="285.809,-6.5001 275.809,-10 285.809,-13.5001 285.809,-6.5001"/>
</g>
<!-- Node8 -->
<g id="node8" class="node"><title>Node8</title>
<g id="a_node8"><a xlink:href="x265_8h.html#ac370491d505086b2eb41e10d89f271ad" target="_top" xlink:title="x265_encoder_close">
<polygon fill="white" stroke="black" points="470,-0.5 470,-19.5 576,-19.5 576,-0.5 470,-0.5"/>
<text text-anchor="middle" x="523" y="-7.5" font-family="Helvetica,sans-Serif" font-size="10.00">x265_encoder_close</text>
</a>
</g>
</g>
<!-- Node7&#45;&gt;Node8 -->
<g id="edge7" class="edge"><title>Node7&#45;&gt;Node8</title>
<path fill="none" stroke="midnightblue" d="M440.587,-10C450.418,-10 460.398,-10 469.843,-10"/>
<polygon fill="midnightblue" stroke="midnightblue" points="440.423,-6.5001 430.423,-10 440.423,-13.5001 440.423,-6.5001"/>
</g>
<!-- Node8&#45;&gt;Node5 -->
<g id="edge8" class="edge"><title>Node8&#45;&gt;Node5</title>
<path fill="none" stroke="midnightblue" d="M586.167,-20.738C597.067,-22.6206 607.584,-24.4372 615.968,-25.8853"/>
<polygon fill="midnightblue" stroke="midnightblue" points="586.551,-17.2525 576.101,-18.9992 585.359,-24.1503 586.551,-17.2525"/>
</g>
</g>
</svg>
        <g id="navigator" transform="translate(0 0)" fill="#404254">
                <rect fill="#f2f5e9" fill-opacity="0.5" stroke="#606060" stroke-width=".5" x="0" y="0" width="60" height="60"/>
                <use id="zoomplus" xlink:href="#zoomPlus" x="17" y="9" onmousedown="handleZoom(evt,'in')"/>
                <use id="zoomminus" xlink:href="#zoomMin" x="42" y="9" onmousedown="handleZoom(evt,'out')"/>
                <use id="reset" xlink:href="#resetDef" x="30" y="36" onmousedown="handleReset()"/>
                <g id="arrowUp" xlink:href="#dirArrow" transform="translate(30 24)" onmousedown="handlePan(0,-1)">
                  <use xlink:href="#rim" fill="#404040">
                        <set attributeName="fill" to="#808080" begin="arrowUp.mouseover" end="arrowUp.mouseout"/>
                  </use>
                  <path fill="none" stroke="white" stroke-width="1.5" d="M0,-3.0v7 M-2.5,-0.5L0,-3.0L2.5,-0.5"/>
                </g>
                <g id="arrowRight" xlink:href="#dirArrow" transform="rotate(90) translate(36 -43)" onmousedown="handlePan(1,0)">
                  <use xlink:href="#rim" fill="#404040">
                        <set attributeName="fill" to="#808080" begin="arrowRight.mouseover" end="arrowRight.mouseout"/>
                  </use>
                  <path fill="none" stroke="white" stroke-width="1.5" d="M0,-3.0v7 M-2.5,-0.5L0,-3.0L2.5,-0.5"/>
                </g>
                <g id="arrowDown" xlink:href="#dirArrow" transform="rotate(180) translate(-30 -48)" onmousedown="handlePan(0,1)">
                  <use xlink:href="#rim" fill="#404040">
                        <set attributeName="fill" to="#808080" begin="arrowDown.mouseover" end="arrowDown.mouseout"/>
                  </use>
                  <path fill="none" stroke="white" stroke-width="1.5" d="M0,-3.0v7 M-2.5,-0.5L0,-3.0L2.5,-0.5"/>
                </g>
                <g id="arrowLeft" xlink:href="#dirArrow" transform="rotate(270) translate(-36 17)" onmousedown="handlePan(-1,0)">
                  <use xlink:href="#rim" fill="#404040">
                        <set attributeName="fill" to="#808080" begin="arrowLeft.mouseover" end="arrowLeft.mouseout"/>
                  </use>
                  <path fill="none" stroke="white" stroke-width="1.5" d="M0,-3.0v7 M-2.5,-0.5L0,-3.0L2.5,-0.5"/>
                </g>
        </g>
        <svg viewBox="0 0 15 15" width="100%" height="30px" preserveAspectRatio="xMaxYMin meet">
         <g id="arrow_out" transform="scale(0.3 0.3)">
          <a xlink:href="classx265_1_1Frame_a538e2e03787c196818d3d8e3c3e42609_icgraph_org.svg" target="_base">
           <rect id="button" ry="5" rx="5" y="6" x="6" height="38" width="38"
                fill="#f2f5e9" fill-opacity="0.5" stroke="#606060" stroke-width="1.0"/>
           <path id="arrow"
             d="M 11.500037,31.436501 C 11.940474,20.09759 22.043105,11.32322 32.158766,21.979434 L 37.068811,17.246167 C 37.068811,17.246167 37.088388,32 37.088388,32 L 22.160133,31.978069 C 22.160133,31.978069 26.997745,27.140456 26.997745,27.140456 C 18.528582,18.264221 13.291696,25.230495 11.500037,31.436501 z"
             style="fill:#404040;"/>
          </a>
         </g>
        </svg>
</svg>
