<?xml version="1.0" encoding="UTF-8" standalone="no"?>
<!DOCTYPE svg PUBLIC "-//W3C//DTD SVG 1.1//EN"
 "http://www.w3.org/Graphics/SVG/1.1/DTD/svg11.dtd">
<!-- Generated by graphviz version 2.36.0 (20140111.2315)
 -->
<!-- Title: x265::CUData::getPUBelowLeft Pages: 1 -->
<!--zoomable 220 -->
<svg id="main" version="1.1" xmlns="http://www.w3.org/2000/svg" xmlns:xlink="http://www.w3.org/1999/xlink" xml:space="preserve" onload="init(evt)">
<style type="text/css"><![CDATA[
.edge:hover path { stroke: red; }
.edge:hover polygon { stroke: red; fill: red; }
]]></style>
<script type="text/javascript"><![CDATA[
var edges = document.getElementsByTagName('g');
if (edges && edges.length) {
  for (var i=0;i<edges.length;i++) {
    if (edges[i].id.substr(0,4)=='edge') {
      edges[i].setAttribute('class','edge');
    }
  }
}
]]></script>
        <defs>
                <circle id="rim" cx="0" cy="0" r="7"/>
                <circle id="rim2" cx="0" cy="0" r="3.5"/>
                <g id="zoomPlus">
                        <use xlink:href="#rim" fill="#404040">
                                <set attributeName="fill" to="#808080" begin="zoomplus.mouseover" end="zoomplus.mouseout"/>
                        </use>
                        <path d="M-4,0h8M0,-4v8" fill="none" stroke="white" stroke-width="1.5" pointer-events="none"/>
                </g>
                <g id="zoomMin">
                        <use xlink:href="#rim" fill="#404040">
                                <set attributeName="fill" to="#808080" begin="zoomminus.mouseover" end="zoomminus.mouseout"/>
                        </use>
                        <path d="M-4,0h8" fill="none" stroke="white" stroke-width="1.5" pointer-events="none"/>
                </g>
                <g id="dirArrow">
                        <path fill="none" stroke="white" stroke-width="1.5" d="M0,-3.0v7 M-2.5,-0.5L0,-3.0L2.5,-0.5"/>
                </g>
               <g id="resetDef">
                       <use xlink:href="#rim2" fill="#404040">
                               <set attributeName="fill" to="#808080" begin="reset.mouseover" end="reset.mouseout"/>
                       </use>
               </g>
        </defs>

<script type="text/javascript">
var viewWidth = 2494;
var viewHeight = 220;
var sectionId = 'dynsection-50';
</script>
<script xlink:href="svgpan.js"/>
<svg id="graph" class="graph">
<g id="viewport">
<title>x265::CUData::getPUBelowLeft</title>
<polygon fill="white" stroke="none" points="-4,4 -4,-216 2490,-216 2490,4 -4,4"/>
<!-- Node1 -->
<g id="node1" class="node"><title>Node1</title>
<polygon fill="#bfbfbf" stroke="black" points="0.5,-81.5 0.5,-100.5 157.5,-100.5 157.5,-81.5 0.5,-81.5"/>
<text text-anchor="middle" x="79" y="-88.5" font-family="Helvetica,sans-Serif" font-size="10.00">x265::CUData::getPUBelowLeft</text>
</g>
<!-- Node2 -->
<g id="node2" class="node"><title>Node2</title>
<g id="a_node2"><a xlink:href="classx265_1_1CUData.html#a0a0813a6acf261b95304a250aec73c3b" target="_top" xlink:title="x265::CUData::getInterMerge\lCandidates">
<polygon fill="white" stroke="black" points="376,-120 376,-150 522,-150 522,-120 376,-120"/>
<text text-anchor="start" x="384" y="-138" font-family="Helvetica,sans-Serif" font-size="10.00">x265::CUData::getInterMerge</text>
<text text-anchor="middle" x="449" y="-127" font-family="Helvetica,sans-Serif" font-size="10.00">Candidates</text>
</a>
</g>
</g>
<!-- Node1&#45;&gt;Node2 -->
<g id="edge1" class="edge"><title>Node1&#45;&gt;Node2</title>
<path fill="none" stroke="midnightblue" d="M128.93,-102.747C148.992,-107.184 172.507,-111.905 194,-115 254.966,-123.78 324.761,-128.926 375.741,-131.794"/>
<polygon fill="midnightblue" stroke="midnightblue" points="129.608,-99.3118 119.084,-100.531 128.071,-106.141 129.608,-99.3118"/>
</g>
<!-- Node20 -->
<g id="node20" class="node"><title>Node20</title>
<g id="a_node20"><a xlink:href="classx265_1_1CUData.html#abe3e0dd714313c4b9d0e981646c51649" target="_top" xlink:title="x265::CUData::addMVPCand">
<polygon fill="white" stroke="black" points="194,-37.5 194,-56.5 340,-56.5 340,-37.5 194,-37.5"/>
<text text-anchor="middle" x="267" y="-44.5" font-family="Helvetica,sans-Serif" font-size="10.00">x265::CUData::addMVPCand</text>
</a>
</g>
</g>
<!-- Node1&#45;&gt;Node20 -->
<g id="edge24" class="edge"><title>Node1&#45;&gt;Node20</title>
<path fill="none" stroke="midnightblue" d="M130.205,-79.1236C160.167,-72.0358 197.708,-63.1552 225.72,-56.5287"/>
<polygon fill="midnightblue" stroke="midnightblue" points="129.285,-75.7445 120.359,-81.4527 130.896,-82.5565 129.285,-75.7445"/>
</g>
<!-- Node24 -->
<g id="node24" class="node"><title>Node24</title>
<g id="a_node24"><a xlink:href="classx265_1_1CUData.html#a5575a29995af7c83719955b0c48a7def" target="_top" xlink:title="x265::CUData::addMVPCand\lOrder">
<polygon fill="white" stroke="black" points="194,-76 194,-106 340,-106 340,-76 194,-76"/>
<text text-anchor="start" x="202" y="-94" font-family="Helvetica,sans-Serif" font-size="10.00">x265::CUData::addMVPCand</text>
<text text-anchor="middle" x="267" y="-83" font-family="Helvetica,sans-Serif" font-size="10.00">Order</text>
</a>
</g>
</g>
<!-- Node1&#45;&gt;Node24 -->
<g id="edge31" class="edge"><title>Node1&#45;&gt;Node24</title>
<path fill="none" stroke="midnightblue" d="M167.777,-91C176.542,-91 185.37,-91 193.947,-91"/>
<polygon fill="midnightblue" stroke="midnightblue" points="167.534,-87.5001 157.534,-91 167.534,-94.5001 167.534,-87.5001"/>
</g>
<!-- Node3 -->
<g id="node3" class="node"><title>Node3</title>
<g id="a_node3"><a xlink:href="classx265_1_1Analysis.html#addd72cb95590e2b2a6965d42d110eab3" target="_top" xlink:title="x265::Analysis::checkMerge2\lNx2N_rd0_4">
<polygon fill="white" stroke="black" points="934,-93 934,-123 1080,-123 1080,-93 934,-93"/>
<text text-anchor="start" x="942" y="-111" font-family="Helvetica,sans-Serif" font-size="10.00">x265::Analysis::checkMerge2</text>
<text text-anchor="middle" x="1007" y="-100" font-family="Helvetica,sans-Serif" font-size="10.00">Nx2N_rd0_4</text>
</a>
</g>
</g>
<!-- Node2&#45;&gt;Node3 -->
<g id="edge2" class="edge"><title>Node2&#45;&gt;Node3</title>
<path fill="none" stroke="midnightblue" d="M532.366,-131C640.931,-125.728 830.211,-116.536 933.57,-111.517"/>
<polygon fill="midnightblue" stroke="midnightblue" points="531.936,-127.517 522.117,-131.498 532.275,-134.509 531.936,-127.517"/>
</g>
<!-- Node12 -->
<g id="node12" class="node"><title>Node12</title>
<g id="a_node12"><a xlink:href="classx265_1_1Analysis.html#a0194a9da53aa95173fa1132ba3aea1c7" target="_top" xlink:title="x265::Analysis::checkMerge2\lNx2N_rd5_6">
<polygon fill="white" stroke="black" points="750,-175 750,-205 896,-205 896,-175 750,-175"/>
<text text-anchor="start" x="758" y="-193" font-family="Helvetica,sans-Serif" font-size="10.00">x265::Analysis::checkMerge2</text>
<text text-anchor="middle" x="823" y="-182" font-family="Helvetica,sans-Serif" font-size="10.00">Nx2N_rd5_6</text>
</a>
</g>
</g>
<!-- Node2&#45;&gt;Node12 -->
<g id="edge12" class="edge"><title>Node2&#45;&gt;Node12</title>
<path fill="none" stroke="midnightblue" d="M532.39,-147.181C597.473,-156.804 687.41,-170.101 749.718,-179.313"/>
<polygon fill="midnightblue" stroke="midnightblue" points="532.571,-143.67 522.166,-145.67 531.547,-150.595 532.571,-143.67"/>
</g>
<!-- Node14 -->
<g id="node14" class="node"><title>Node14</title>
<g id="a_node14"><a xlink:href="classx265_1_1Search.html#a761560ef5d3ff0beb48567c88c771d55" target="_top" xlink:title="x265::Search::mergeEstimation">
<polygon fill="white" stroke="black" points="558,-87.5 558,-106.5 712,-106.5 712,-87.5 558,-87.5"/>
<text text-anchor="middle" x="635" y="-94.5" font-family="Helvetica,sans-Serif" font-size="10.00">x265::Search::mergeEstimation</text>
</a>
</g>
</g>
<!-- Node2&#45;&gt;Node14 -->
<g id="edge15" class="edge"><title>Node2&#45;&gt;Node14</title>
<path fill="none" stroke="midnightblue" d="M532.146,-118.035C551.311,-114.077 571.054,-110 587.996,-106.501"/>
<polygon fill="midnightblue" stroke="midnightblue" points="531.279,-114.64 522.194,-120.09 532.695,-121.496 531.279,-114.64"/>
</g>
<!-- Node4 -->
<g id="node4" class="node"><title>Node4</title>
<g id="a_node4"><a xlink:href="classx265_1_1Analysis.html#a87060ff27a37f56adc5f5b8a4c033ece" target="_top" xlink:title="x265::Analysis::compress\lInterCU_dist">
<polygon fill="white" stroke="black" points="1438,-137 1438,-167 1568,-167 1568,-137 1438,-137"/>
<text text-anchor="start" x="1446" y="-155" font-family="Helvetica,sans-Serif" font-size="10.00">x265::Analysis::compress</text>
<text text-anchor="middle" x="1503" y="-144" font-family="Helvetica,sans-Serif" font-size="10.00">InterCU_dist</text>
</a>
</g>
</g>
<!-- Node3&#45;&gt;Node4 -->
<g id="edge3" class="edge"><title>Node3&#45;&gt;Node4</title>
<path fill="none" stroke="midnightblue" d="M1077.47,-125.227C1090.22,-127.876 1103.46,-130.294 1116,-132 1228.54,-147.31 1360.99,-151.118 1437.83,-151.941"/>
<polygon fill="midnightblue" stroke="midnightblue" points="1077.89,-121.736 1067.38,-123.061 1076.42,-128.581 1077.89,-121.736"/>
</g>
<!-- Node11 -->
<g id="node11" class="node"><title>Node11</title>
<g id="a_node11"><a xlink:href="classx265_1_1Analysis.html#a30d2ff7eca5addbb0a6b3dfe14f09650" target="_top" xlink:title="x265::Analysis::compress\lInterCU_rd0_4">
<polygon fill="white" stroke="black" points="1116,-93 1116,-123 1246,-123 1246,-93 1116,-93"/>
<text text-anchor="start" x="1124" y="-111" font-family="Helvetica,sans-Serif" font-size="10.00">x265::Analysis::compress</text>
<text text-anchor="middle" x="1181" y="-100" font-family="Helvetica,sans-Serif" font-size="10.00">InterCU_rd0_4</text>
</a>
</g>
</g>
<!-- Node3&#45;&gt;Node11 -->
<g id="edge10" class="edge"><title>Node3&#45;&gt;Node11</title>
<path fill="none" stroke="midnightblue" d="M1090.7,-108C1099.14,-108 1107.63,-108 1115.83,-108"/>
<polygon fill="midnightblue" stroke="midnightblue" points="1090.45,-104.5 1080.44,-108 1090.44,-111.5 1090.45,-104.5"/>
</g>
<!-- Node5 -->
<g id="node5" class="node"><title>Node5</title>
<g id="a_node5"><a xlink:href="classx265_1_1Analysis.html#aaebc9de2ff98834c650244f3b58942c2" target="_top" xlink:title="x265::Analysis::compressCTU">
<polygon fill="white" stroke="black" points="1604.5,-142.5 1604.5,-161.5 1755.5,-161.5 1755.5,-142.5 1604.5,-142.5"/>
<text text-anchor="middle" x="1680" y="-149.5" font-family="Helvetica,sans-Serif" font-size="10.00">x265::Analysis::compressCTU</text>
</a>
</g>
</g>
<!-- Node4&#45;&gt;Node5 -->
<g id="edge4" class="edge"><title>Node4&#45;&gt;Node5</title>
<path fill="none" stroke="midnightblue" d="M1578.25,-152C1586.93,-152 1595.78,-152 1604.47,-152"/>
<polygon fill="midnightblue" stroke="midnightblue" points="1578.17,-148.5 1568.17,-152 1578.17,-155.5 1578.17,-148.5"/>
</g>
<!-- Node6 -->
<g id="node6" class="node"><title>Node6</title>
<g id="a_node6"><a xlink:href="classx265_1_1FrameEncoder.html#a0ae85001572afd28238476542523ac5f" target="_top" xlink:title="x265::FrameEncoder\l::processRowEncoder">
<polygon fill="white" stroke="black" points="1792.5,-137 1792.5,-167 1905.5,-167 1905.5,-137 1792.5,-137"/>
<text text-anchor="start" x="1800.5" y="-155" font-family="Helvetica,sans-Serif" font-size="10.00">x265::FrameEncoder</text>
<text text-anchor="middle" x="1849" y="-144" font-family="Helvetica,sans-Serif" font-size="10.00">::processRowEncoder</text>
</a>
</g>
</g>
<!-- Node5&#45;&gt;Node6 -->
<g id="edge5" class="edge"><title>Node5&#45;&gt;Node6</title>
<path fill="none" stroke="midnightblue" d="M1765.86,-152C1774.86,-152 1783.85,-152 1792.39,-152"/>
<polygon fill="midnightblue" stroke="midnightblue" points="1765.71,-148.5 1755.71,-152 1765.71,-155.5 1765.71,-148.5"/>
</g>
<!-- Node7 -->
<g id="node7" class="node"><title>Node7</title>
<g id="a_node7"><a xlink:href="classx265_1_1FrameEncoder.html#acad645a8ece97d884895f8f7366b7d70" target="_top" xlink:title="x265::FrameEncoder\l::processRow">
<polygon fill="white" stroke="black" points="1942.5,-137 1942.5,-167 2049.5,-167 2049.5,-137 1942.5,-137"/>
<text text-anchor="start" x="1950.5" y="-155" font-family="Helvetica,sans-Serif" font-size="10.00">x265::FrameEncoder</text>
<text text-anchor="middle" x="1996" y="-144" font-family="Helvetica,sans-Serif" font-size="10.00">::processRow</text>
</a>
</g>
</g>
<!-- Node6&#45;&gt;Node7 -->
<g id="edge6" class="edge"><title>Node6&#45;&gt;Node7</title>
<path fill="none" stroke="midnightblue" d="M1915.88,-152C1924.67,-152 1933.59,-152 1942.13,-152"/>
<polygon fill="midnightblue" stroke="midnightblue" points="1915.65,-148.5 1905.65,-152 1915.65,-155.5 1915.65,-148.5"/>
</g>
<!-- Node8 -->
<g id="node8" class="node"><title>Node8</title>
<g id="a_node8"><a xlink:href="classx265_1_1FrameEncoder.html#ac4e9ce2e876c0cdb25c992c872fe4302" target="_top" xlink:title="x265::FrameEncoder\l::compressCTURows">
<polygon fill="white" stroke="black" points="2086,-137 2086,-167 2198,-167 2198,-137 2086,-137"/>
<text text-anchor="start" x="2094" y="-155" font-family="Helvetica,sans-Serif" font-size="10.00">x265::FrameEncoder</text>
<text text-anchor="middle" x="2142" y="-144" font-family="Helvetica,sans-Serif" font-size="10.00">::compressCTURows</text>
</a>
</g>
</g>
<!-- Node7&#45;&gt;Node8 -->
<g id="edge7" class="edge"><title>Node7&#45;&gt;Node8</title>
<path fill="none" stroke="midnightblue" d="M2059.83,-152C2068.48,-152 2077.3,-152 2085.79,-152"/>
<polygon fill="midnightblue" stroke="midnightblue" points="2059.8,-148.5 2049.8,-152 2059.8,-155.5 2059.8,-148.5"/>
</g>
<!-- Node9 -->
<g id="node9" class="node"><title>Node9</title>
<g id="a_node9"><a xlink:href="classx265_1_1FrameEncoder.html#a2f5c4c0f1a4e36fce4c9b87eb7ec4973" target="_top" xlink:title="x265::FrameEncoder\l::compressFrame">
<polygon fill="white" stroke="black" points="2234.5,-137 2234.5,-167 2341.5,-167 2341.5,-137 2234.5,-137"/>
<text text-anchor="start" x="2242.5" y="-155" font-family="Helvetica,sans-Serif" font-size="10.00">x265::FrameEncoder</text>
<text text-anchor="middle" x="2288" y="-144" font-family="Helvetica,sans-Serif" font-size="10.00">::compressFrame</text>
</a>
</g>
</g>
<!-- Node8&#45;&gt;Node9 -->
<g id="edge8" class="edge"><title>Node8&#45;&gt;Node9</title>
<path fill="none" stroke="midnightblue" d="M2208.42,-152C2217.15,-152 2226.02,-152 2234.49,-152"/>
<polygon fill="midnightblue" stroke="midnightblue" points="2208.26,-148.5 2198.26,-152 2208.26,-155.5 2208.26,-148.5"/>
</g>
<!-- Node10 -->
<g id="node10" class="node"><title>Node10</title>
<g id="a_node10"><a xlink:href="classx265_1_1FrameEncoder.html#aef61f29b9e93b3af9255d96236bc90a7" target="_top" xlink:title="x265::FrameEncoder\l::threadMain">
<polygon fill="white" stroke="black" points="2378.5,-137 2378.5,-167 2485.5,-167 2485.5,-137 2378.5,-137"/>
<text text-anchor="start" x="2386.5" y="-155" font-family="Helvetica,sans-Serif" font-size="10.00">x265::FrameEncoder</text>
<text text-anchor="middle" x="2432" y="-144" font-family="Helvetica,sans-Serif" font-size="10.00">::threadMain</text>
</a>
</g>
</g>
<!-- Node9&#45;&gt;Node10 -->
<g id="edge9" class="edge"><title>Node9&#45;&gt;Node10</title>
<path fill="none" stroke="midnightblue" d="M2351.99,-152C2360.7,-152 2369.58,-152 2378.08,-152"/>
<polygon fill="midnightblue" stroke="midnightblue" points="2351.88,-148.5 2341.88,-152 2351.88,-155.5 2351.88,-148.5"/>
</g>
<!-- Node11&#45;&gt;Node5 -->
<g id="edge11" class="edge"><title>Node11&#45;&gt;Node5</title>
<path fill="none" stroke="midnightblue" d="M1256.38,-107.871C1334.37,-108.621 1460.32,-112.335 1568,-127 1593.64,-130.492 1622.11,-136.957 1643.79,-142.437"/>
<polygon fill="midnightblue" stroke="midnightblue" points="1256.2,-104.37 1246.17,-107.788 1256.14,-111.37 1256.2,-104.37"/>
</g>
<!-- Node13 -->
<g id="node13" class="node"><title>Node13</title>
<g id="a_node13"><a xlink:href="classx265_1_1Analysis.html#a0b22b7765aa4a36b1ba6d07ba26901e6" target="_top" xlink:title="x265::Analysis::compress\lInterCU_rd5_6">
<polygon fill="white" stroke="black" points="1116,-181 1116,-211 1246,-211 1246,-181 1116,-181"/>
<text text-anchor="start" x="1124" y="-199" font-family="Helvetica,sans-Serif" font-size="10.00">x265::Analysis::compress</text>
<text text-anchor="middle" x="1181" y="-188" font-family="Helvetica,sans-Serif" font-size="10.00">InterCU_rd5_6</text>
</a>
</g>
</g>
<!-- Node12&#45;&gt;Node13 -->
<g id="edge13" class="edge"><title>Node12&#45;&gt;Node13</title>
<path fill="none" stroke="midnightblue" d="M906.071,-191.383C969.863,-192.458 1057.09,-193.929 1115.83,-194.919"/>
<polygon fill="midnightblue" stroke="midnightblue" points="906.1,-187.883 896.042,-191.214 905.981,-194.882 906.1,-187.883"/>
</g>
<!-- Node13&#45;&gt;Node5 -->
<g id="edge14" class="edge"><title>Node13&#45;&gt;Node5</title>
<path fill="none" stroke="midnightblue" d="M1256.36,-195.693C1334.33,-194.543 1460.26,-190.344 1568,-176 1593.02,-172.67 1620.77,-166.67 1642.26,-161.502"/>
<polygon fill="midnightblue" stroke="midnightblue" points="1256.1,-192.196 1246.15,-195.83 1256.2,-199.195 1256.1,-192.196"/>
</g>
<!-- Node15 -->
<g id="node15" class="node"><title>Node15</title>
<g id="a_node15"><a xlink:href="classx265_1_1Search.html#a48101e3d900e93b97a83f461be390bd1" target="_top" xlink:title="x265::Search::predInterSearch">
<polygon fill="white" stroke="black" points="748.5,-49.5 748.5,-68.5 897.5,-68.5 897.5,-49.5 748.5,-49.5"/>
<text text-anchor="middle" x="823" y="-56.5" font-family="Helvetica,sans-Serif" font-size="10.00">x265::Search::predInterSearch</text>
</a>
</g>
</g>
<!-- Node14&#45;&gt;Node15 -->
<g id="edge16" class="edge"><title>Node14&#45;&gt;Node15</title>
<path fill="none" stroke="midnightblue" d="M692.825,-85.3905C719.279,-79.986 750.358,-73.6365 775.402,-68.5201"/>
<polygon fill="midnightblue" stroke="midnightblue" points="692.033,-81.9801 682.936,-87.411 693.434,-88.8384 692.033,-81.9801"/>
</g>
<!-- Node16 -->
<g id="node16" class="node"><title>Node16</title>
<g id="a_node16"><a xlink:href="classx265_1_1Analysis.html#a2305f7985af66b49fdbc40ebb1b281d2" target="_top" xlink:title="x265::Analysis::checkInter\l_rd0_4">
<polygon fill="white" stroke="black" points="940.5,-44 940.5,-74 1073.5,-74 1073.5,-44 940.5,-44"/>
<text text-anchor="start" x="948.5" y="-62" font-family="Helvetica,sans-Serif" font-size="10.00">x265::Analysis::checkInter</text>
<text text-anchor="middle" x="1007" y="-51" font-family="Helvetica,sans-Serif" font-size="10.00">_rd0_4</text>
</a>
</g>
</g>
<!-- Node15&#45;&gt;Node16 -->
<g id="edge17" class="edge"><title>Node15&#45;&gt;Node16</title>
<path fill="none" stroke="midnightblue" d="M907.569,-59C918.597,-59 929.771,-59 940.438,-59"/>
<polygon fill="midnightblue" stroke="midnightblue" points="907.502,-55.5001 897.502,-59 907.502,-62.5001 907.502,-55.5001"/>
</g>
<!-- Node19 -->
<g id="node19" class="node"><title>Node19</title>
<g id="a_node19"><a xlink:href="classx265_1_1Analysis.html#a828daa3e9f1ed40a1af9f99f7ff7bb33" target="_top" xlink:title="x265::Analysis::checkInter\l_rd5_6">
<polygon fill="white" stroke="black" points="940.5,-142 940.5,-172 1073.5,-172 1073.5,-142 940.5,-142"/>
<text text-anchor="start" x="948.5" y="-160" font-family="Helvetica,sans-Serif" font-size="10.00">x265::Analysis::checkInter</text>
<text text-anchor="middle" x="1007" y="-149" font-family="Helvetica,sans-Serif" font-size="10.00">_rd5_6</text>
</a>
</g>
</g>
<!-- Node15&#45;&gt;Node19 -->
<g id="edge22" class="edge"><title>Node15&#45;&gt;Node19</title>
<path fill="none" stroke="midnightblue" d="M844.256,-74.7145C865.64,-90.7467 900.788,-115.543 934,-132 941.351,-135.642 949.364,-138.987 957.288,-141.964"/>
<polygon fill="midnightblue" stroke="midnightblue" points="846.323,-71.8898 836.242,-68.6318 842.091,-77.4656 846.323,-71.8898"/>
</g>
<!-- Node16&#45;&gt;Node11 -->
<g id="edge21" class="edge"><title>Node16&#45;&gt;Node11</title>
<path fill="none" stroke="midnightblue" d="M1070.81,-76.8941C1089.31,-82.1644 1109.36,-87.8755 1127.17,-92.9484"/>
<polygon fill="midnightblue" stroke="midnightblue" points="1071.59,-73.4753 1061.01,-74.1014 1069.67,-80.2074 1071.59,-73.4753"/>
</g>
<!-- Node17 -->
<g id="node17" class="node"><title>Node17</title>
<g id="a_node17"><a xlink:href="classx265_1_1Analysis.html#aa6122285d10bb1bd7584958b88b029d5" target="_top" xlink:title="x265::Analysis::parallel\lModeAnalysis">
<polygon fill="white" stroke="black" points="1122,-44 1122,-74 1240,-74 1240,-44 1122,-44"/>
<text text-anchor="start" x="1130" y="-62" font-family="Helvetica,sans-Serif" font-size="10.00">x265::Analysis::parallel</text>
<text text-anchor="middle" x="1181" y="-51" font-family="Helvetica,sans-Serif" font-size="10.00">ModeAnalysis</text>
</a>
</g>
</g>
<!-- Node16&#45;&gt;Node17 -->
<g id="edge18" class="edge"><title>Node16&#45;&gt;Node17</title>
<path fill="none" stroke="midnightblue" d="M1083.72,-59C1096.55,-59 1109.7,-59 1121.99,-59"/>
<polygon fill="midnightblue" stroke="midnightblue" points="1083.52,-55.5001 1073.52,-59 1083.52,-62.5001 1083.52,-55.5001"/>
</g>
<!-- Node18 -->
<g id="node18" class="node"><title>Node18</title>
<g id="a_node18"><a xlink:href="classx265_1_1Analysis.html#a29a58dad4cc1c07d2f5e5717c6be7c25" target="_top" xlink:title="x265::Analysis::findJob">
<polygon fill="white" stroke="black" points="1282.5,-49.5 1282.5,-68.5 1401.5,-68.5 1401.5,-49.5 1282.5,-49.5"/>
<text text-anchor="middle" x="1342" y="-56.5" font-family="Helvetica,sans-Serif" font-size="10.00">x265::Analysis::findJob</text>
</a>
</g>
</g>
<!-- Node17&#45;&gt;Node18 -->
<g id="edge19" class="edge"><title>Node17&#45;&gt;Node18</title>
<path fill="none" stroke="midnightblue" d="M1250.42,-59C1261.08,-59 1272.02,-59 1282.44,-59"/>
<polygon fill="midnightblue" stroke="midnightblue" points="1250.3,-55.5001 1240.3,-59 1250.3,-62.5001 1250.3,-55.5001"/>
</g>
<!-- Node18&#45;&gt;Node4 -->
<g id="edge20" class="edge"><title>Node18&#45;&gt;Node4</title>
<path fill="none" stroke="midnightblue" d="M1368.3,-73.7962C1397.86,-91.0886 1446.52,-119.548 1476.27,-136.949"/>
<polygon fill="midnightblue" stroke="midnightblue" points="1369.82,-70.6301 1359.42,-68.6024 1366.28,-76.6724 1369.82,-70.6301"/>
</g>
<!-- Node19&#45;&gt;Node13 -->
<g id="edge23" class="edge"><title>Node19&#45;&gt;Node13</title>
<path fill="none" stroke="midnightblue" d="M1083.37,-174.089C1094.18,-176.542 1105.23,-179.046 1115.8,-181.444"/>
<polygon fill="midnightblue" stroke="midnightblue" points="1084.04,-170.654 1073.52,-171.855 1082.49,-177.48 1084.04,-170.654"/>
</g>
<!-- Node21 -->
<g id="node21" class="node"><title>Node21</title>
<g id="a_node21"><a xlink:href="classx265_1_1CUData.html#ae34dd24258f1cfa1cf930a9dee773bce" target="_top" xlink:title="x265::CUData::fillMvpCand">
<polygon fill="white" stroke="black" points="380.5,-43.5 380.5,-62.5 517.5,-62.5 517.5,-43.5 380.5,-43.5"/>
<text text-anchor="middle" x="449" y="-50.5" font-family="Helvetica,sans-Serif" font-size="10.00">x265::CUData::fillMvpCand</text>
</a>
</g>
</g>
<!-- Node20&#45;&gt;Node21 -->
<g id="edge25" class="edge"><title>Node20&#45;&gt;Node21</title>
<path fill="none" stroke="midnightblue" d="M350.234,-49.7411C360.356,-50.0785 370.61,-50.4203 380.479,-50.7493"/>
<polygon fill="midnightblue" stroke="midnightblue" points="350.287,-46.241 340.176,-49.4059 350.054,-53.2372 350.287,-46.241"/>
</g>
<!-- Node21&#45;&gt;Node15 -->
<g id="edge30" class="edge"><title>Node21&#45;&gt;Node15</title>
<path fill="none" stroke="midnightblue" d="M527.974,-54.2577C592.87,-55.3043 684.616,-56.7841 748.296,-57.8112"/>
<polygon fill="midnightblue" stroke="midnightblue" points="527.853,-50.7553 517.798,-54.0935 527.74,-57.7544 527.853,-50.7553"/>
</g>
<!-- Node22 -->
<g id="node22" class="node"><title>Node22</title>
<g id="a_node22"><a xlink:href="classx265_1_1Search.html#a47294b1b3d67ab31cb6be412407982d5" target="_top" xlink:title="x265::Search::singleMotion\lEstimation">
<polygon fill="white" stroke="black" points="567.5,-0 567.5,-30 702.5,-30 702.5,-0 567.5,-0"/>
<text text-anchor="start" x="575.5" y="-18" font-family="Helvetica,sans-Serif" font-size="10.00">x265::Search::singleMotion</text>
<text text-anchor="middle" x="635" y="-7" font-family="Helvetica,sans-Serif" font-size="10.00">Estimation</text>
</a>
</g>
</g>
<!-- Node21&#45;&gt;Node22 -->
<g id="edge26" class="edge"><title>Node21&#45;&gt;Node22</title>
<path fill="none" stroke="midnightblue" d="M506.279,-41.3772C525.587,-37.3897 547.38,-32.8889 567.425,-28.7491"/>
<polygon fill="midnightblue" stroke="midnightblue" points="505.516,-37.9607 496.431,-43.411 506.932,-44.816 505.516,-37.9607"/>
</g>
<!-- Node22&#45;&gt;Node15 -->
<g id="edge29" class="edge"><title>Node22&#45;&gt;Node15</title>
<path fill="none" stroke="midnightblue" d="M709.539,-32.3964C734.16,-38.2206 760.685,-44.4954 781.788,-49.4876"/>
<polygon fill="midnightblue" stroke="midnightblue" points="710.028,-28.9154 699.49,-30.0192 708.416,-35.7274 710.028,-28.9154"/>
</g>
<!-- Node23 -->
<g id="node23" class="node"><title>Node23</title>
<g id="a_node23"><a xlink:href="classx265_1_1Analysis.html#abd49473ae6e5e1f7e555b447b04398e6" target="_top" xlink:title="x265::Analysis::parallelME">
<polygon fill="white" stroke="black" points="756.5,-5.5 756.5,-24.5 889.5,-24.5 889.5,-5.5 756.5,-5.5"/>
<text text-anchor="middle" x="823" y="-12.5" font-family="Helvetica,sans-Serif" font-size="10.00">x265::Analysis::parallelME</text>
</a>
</g>
</g>
<!-- Node22&#45;&gt;Node23 -->
<g id="edge27" class="edge"><title>Node22&#45;&gt;Node23</title>
<path fill="none" stroke="midnightblue" d="M713.021,-15C727.455,-15 742.419,-15 756.464,-15"/>
<polygon fill="midnightblue" stroke="midnightblue" points="712.625,-11.5001 702.625,-15 712.625,-18.5001 712.625,-11.5001"/>
</g>
<!-- Node23&#45;&gt;Node18 -->
<g id="edge28" class="edge"><title>Node23&#45;&gt;Node18</title>
<path fill="none" stroke="midnightblue" d="M899.908,-13.5924C984.755,-13.136 1125.99,-15.7206 1246,-34 1268.26,-37.3899 1292.82,-43.9307 1311.39,-49.4718"/>
<polygon fill="midnightblue" stroke="midnightblue" points="899.821,-10.0928 889.846,-13.6623 899.87,-17.0927 899.821,-10.0928"/>
</g>
<!-- Node24&#45;&gt;Node21 -->
<g id="edge32" class="edge"><title>Node24&#45;&gt;Node21</title>
<path fill="none" stroke="midnightblue" d="M349.063,-73.8867C367.591,-69.9752 386.63,-65.956 402.996,-62.5009"/>
<polygon fill="midnightblue" stroke="midnightblue" points="348.202,-70.4912 339.141,-75.9814 349.648,-77.3403 348.202,-70.4912"/>
</g>
</g>
</svg>
        <g id="navigator" transform="translate(0 0)" fill="#404254">
                <rect fill="#f2f5e9" fill-opacity="0.5" stroke="#606060" stroke-width=".5" x="0" y="0" width="60" height="60"/>
                <use id="zoomplus" xlink:href="#zoomPlus" x="17" y="9" onmousedown="handleZoom(evt,'in')"/>
                <use id="zoomminus" xlink:href="#zoomMin" x="42" y="9" onmousedown="handleZoom(evt,'out')"/>
                <use id="reset" xlink:href="#resetDef" x="30" y="36" onmousedown="handleReset()"/>
                <g id="arrowUp" xlink:href="#dirArrow" transform="translate(30 24)" onmousedown="handlePan(0,-1)">
                  <use xlink:href="#rim" fill="#404040">
                        <set attributeName="fill" to="#808080" begin="arrowUp.mouseover" end="arrowUp.mouseout"/>
                  </use>
                  <path fill="none" stroke="white" stroke-width="1.5" d="M0,-3.0v7 M-2.5,-0.5L0,-3.0L2.5,-0.5"/>
                </g>
                <g id="arrowRight" xlink:href="#dirArrow" transform="rotate(90) translate(36 -43)" onmousedown="handlePan(1,0)">
                  <use xlink:href="#rim" fill="#404040">
                        <set attributeName="fill" to="#808080" begin="arrowRight.mouseover" end="arrowRight.mouseout"/>
                  </use>
                  <path fill="none" stroke="white" stroke-width="1.5" d="M0,-3.0v7 M-2.5,-0.5L0,-3.0L2.5,-0.5"/>
                </g>
                <g id="arrowDown" xlink:href="#dirArrow" transform="rotate(180) translate(-30 -48)" onmousedown="handlePan(0,1)">
                  <use xlink:href="#rim" fill="#404040">
                        <set attributeName="fill" to="#808080" begin="arrowDown.mouseover" end="arrowDown.mouseout"/>
                  </use>
                  <path fill="none" stroke="white" stroke-width="1.5" d="M0,-3.0v7 M-2.5,-0.5L0,-3.0L2.5,-0.5"/>
                </g>
                <g id="arrowLeft" xlink:href="#dirArrow" transform="rotate(270) translate(-36 17)" onmousedown="handlePan(-1,0)">
                  <use xlink:href="#rim" fill="#404040">
                        <set attributeName="fill" to="#808080" begin="arrowLeft.mouseover" end="arrowLeft.mouseout"/>
                  </use>
                  <path fill="none" stroke="white" stroke-width="1.5" d="M0,-3.0v7 M-2.5,-0.5L0,-3.0L2.5,-0.5"/>
                </g>
        </g>
        <svg viewBox="0 0 15 15" width="100%" height="30px" preserveAspectRatio="xMaxYMin meet">
         <g id="arrow_out" transform="scale(0.3 0.3)">
          <a xlink:href="classx265_1_1CUData_aaf883ffae61fbe3bc5d88c54cb725c65_icgraph_org.svg" target="_base">
           <rect id="button" ry="5" rx="5" y="6" x="6" height="38" width="38"
                fill="#f2f5e9" fill-opacity="0.5" stroke="#606060" stroke-width="1.0"/>
           <path id="arrow"
             d="M 11.500037,31.436501 C 11.940474,20.09759 22.043105,11.32322 32.158766,21.979434 L 37.068811,17.246167 C 37.068811,17.246167 37.088388,32 37.088388,32 L 22.160133,31.978069 C 22.160133,31.978069 26.997745,27.140456 26.997745,27.140456 C 18.528582,18.264221 13.291696,25.230495 11.500037,31.436501 z"
             style="fill:#404040;"/>
          </a>
         </g>
        </svg>
</svg>
