<?xml version="1.0" encoding="UTF-8" standalone="no"?>
<!DOCTYPE svg PUBLIC "-//W3C//DTD SVG 1.1//EN"
 "http://www.w3.org/Graphics/SVG/1.1/DTD/svg11.dtd">
<!-- Generated by graphviz version 2.36.0 (20140111.2315)
 -->
<!-- Title: x265::Slice::realEndAddress Pages: 1 -->
<svg width="1374pt" height="95pt"
 viewBox="0.00 0.00 1374.00 95.00" xmlns="http://www.w3.org/2000/svg" xmlns:xlink="http://www.w3.org/1999/xlink">
<g id="graph0" class="graph" transform="scale(1 1) rotate(0) translate(4 91)">
<title>x265::Slice::realEndAddress</title>
<polygon fill="white" stroke="none" points="-4,4 -4,-91 1370,-91 1370,4 -4,4"/>
<!-- Node1 -->
<g id="node1" class="node"><title>Node1</title>
<polygon fill="#bfbfbf" stroke="black" points="0,-48.5 0,-67.5 140,-67.5 140,-48.5 0,-48.5"/>
<text text-anchor="middle" x="70" y="-55.5" font-family="Helvetica,sans-Serif" font-size="10.00">x265::Slice::realEndAddress</text>
</g>
<!-- Node2 -->
<g id="node2" class="node"><title>Node2</title>
<g id="a_node2"><a xlink:href="classx265_1_1Encoder.html#af5c80cef5fcafa00d1b3c105681bc784" target="_top" xlink:title="x265::Encoder::encode">
<polygon fill="white" stroke="black" points="178.5,-67.5 178.5,-86.5 295.5,-86.5 295.5,-67.5 178.5,-67.5"/>
<text text-anchor="middle" x="237" y="-74.5" font-family="Helvetica,sans-Serif" font-size="10.00">x265::Encoder::encode</text>
</a>
</g>
</g>
<!-- Node1&#45;&gt;Node2 -->
<g id="edge1" class="edge"><title>Node1&#45;&gt;Node2</title>
<path fill="none" stroke="midnightblue" d="M149.989,-67.0958C159.6,-68.2025 169.275,-69.3165 178.49,-70.3776"/>
<polygon fill="midnightblue" stroke="midnightblue" points="150.354,-63.6146 140.019,-65.9476 149.553,-70.5687 150.354,-63.6146"/>
</g>
<!-- Node5 -->
<g id="node5" class="node"><title>Node5</title>
<g id="a_node5"><a xlink:href="classx265_1_1Entropy.html#ada027e64bb3fcdc48c94cefda1bbaba9" target="_top" xlink:title="x265::Entropy::finishCU">
<polygon fill="white" stroke="black" points="176,-29.5 176,-48.5 298,-48.5 298,-29.5 176,-29.5"/>
<text text-anchor="middle" x="237" y="-36.5" font-family="Helvetica,sans-Serif" font-size="10.00">x265::Entropy::finishCU</text>
</a>
</g>
</g>
<!-- Node1&#45;&gt;Node5 -->
<g id="edge4" class="edge"><title>Node1&#45;&gt;Node5</title>
<path fill="none" stroke="midnightblue" d="M150.146,-48.8862C158.813,-47.8883 167.528,-46.8846 175.91,-45.9195"/>
<polygon fill="midnightblue" stroke="midnightblue" points="149.553,-45.4313 140.019,-50.0524 150.354,-52.3854 149.553,-45.4313"/>
</g>
<!-- Node3 -->
<g id="node3" class="node"><title>Node3</title>
<g id="a_node3"><a xlink:href="x265_8h.html#a7a45a920b9d86ed3fb3cb3794b14f5ea" target="_top" xlink:title="x265_encoder_encode">
<polygon fill="white" stroke="black" points="342,-67.5 342,-86.5 456,-86.5 456,-67.5 342,-67.5"/>
<text text-anchor="middle" x="399" y="-74.5" font-family="Helvetica,sans-Serif" font-size="10.00">x265_encoder_encode</text>
</a>
</g>
</g>
<!-- Node2&#45;&gt;Node3 -->
<g id="edge2" class="edge"><title>Node2&#45;&gt;Node3</title>
<path fill="none" stroke="midnightblue" d="M305.771,-77C317.82,-77 330.248,-77 341.927,-77"/>
<polygon fill="midnightblue" stroke="midnightblue" points="305.764,-73.5001 295.764,-77 305.764,-80.5001 305.764,-73.5001"/>
</g>
<!-- Node4 -->
<g id="node4" class="node"><title>Node4</title>
<g id="a_node4"><a xlink:href="x265_8cpp.html#a3c04138a5bfe5d72780bb7e82a18e627" target="_top" xlink:title="main">
<polygon fill="white" stroke="black" points="549,-67.5 549,-86.5 587,-86.5 587,-67.5 549,-67.5"/>
<text text-anchor="middle" x="568" y="-74.5" font-family="Helvetica,sans-Serif" font-size="10.00">main</text>
</a>
</g>
</g>
<!-- Node3&#45;&gt;Node4 -->
<g id="edge3" class="edge"><title>Node3&#45;&gt;Node4</title>
<path fill="none" stroke="midnightblue" d="M466.445,-77C496.198,-77 528.969,-77 548.763,-77"/>
<polygon fill="midnightblue" stroke="midnightblue" points="466.073,-73.5001 456.073,-77 466.073,-80.5001 466.073,-73.5001"/>
</g>
<!-- Node6 -->
<g id="node6" class="node"><title>Node6</title>
<g id="a_node6"><a xlink:href="classx265_1_1Entropy.html#adeb50a7c9a5df6643407d01158d93799" target="_top" xlink:title="x265::Entropy::encodeCU">
<polygon fill="white" stroke="black" points="334,-29.5 334,-48.5 464,-48.5 464,-29.5 334,-29.5"/>
<text text-anchor="middle" x="399" y="-36.5" font-family="Helvetica,sans-Serif" font-size="10.00">x265::Entropy::encodeCU</text>
</a>
</g>
</g>
<!-- Node5&#45;&gt;Node6 -->
<g id="edge5" class="edge"><title>Node5&#45;&gt;Node6</title>
<path fill="none" stroke="midnightblue" d="M308.31,-39C316.817,-39 325.472,-39 333.883,-39"/>
<polygon fill="midnightblue" stroke="midnightblue" points="308.033,-35.5001 298.033,-39 308.033,-42.5001 308.033,-35.5001"/>
</g>
<!-- Node7 -->
<g id="node7" class="node"><title>Node7</title>
<g id="a_node7"><a xlink:href="classx265_1_1Entropy.html#abb101b71f310e90eb504a8204babc180" target="_top" xlink:title="x265::Entropy::encodeCTU">
<polygon fill="white" stroke="black" points="500,-29.5 500,-48.5 636,-48.5 636,-29.5 500,-29.5"/>
<text text-anchor="middle" x="568" y="-36.5" font-family="Helvetica,sans-Serif" font-size="10.00">x265::Entropy::encodeCTU</text>
</a>
</g>
</g>
<!-- Node6&#45;&gt;Node7 -->
<g id="edge6" class="edge"><title>Node6&#45;&gt;Node7</title>
<path fill="none" stroke="midnightblue" d="M474.33,-39C482.797,-39 491.391,-39 499.759,-39"/>
<polygon fill="midnightblue" stroke="midnightblue" points="474.089,-35.5001 464.089,-39 474.089,-42.5001 474.089,-35.5001"/>
</g>
<!-- Node8 -->
<g id="node8" class="node"><title>Node8</title>
<g id="a_node8"><a xlink:href="classx265_1_1FrameEncoder.html#a6d4045d35bfe6b10c8d0dc39353be360" target="_top" xlink:title="x265::FrameEncoder\l::encodeSlice">
<polygon fill="white" stroke="black" points="822.5,-49 822.5,-79 929.5,-79 929.5,-49 822.5,-49"/>
<text text-anchor="start" x="830.5" y="-67" font-family="Helvetica,sans-Serif" font-size="10.00">x265::FrameEncoder</text>
<text text-anchor="middle" x="876" y="-56" font-family="Helvetica,sans-Serif" font-size="10.00">::encodeSlice</text>
</a>
</g>
</g>
<!-- Node7&#45;&gt;Node8 -->
<g id="edge7" class="edge"><title>Node7&#45;&gt;Node8</title>
<path fill="none" stroke="midnightblue" d="M646.21,-45.308C701.215,-49.8019 773.705,-55.7243 822.209,-59.687"/>
<polygon fill="midnightblue" stroke="midnightblue" points="646.405,-41.8124 636.153,-44.4864 645.835,-48.7891 646.405,-41.8124"/>
</g>
<!-- Node11 -->
<g id="node11" class="node"><title>Node11</title>
<g id="a_node11"><a xlink:href="classx265_1_1FrameEncoder.html#a0ae85001572afd28238476542523ac5f" target="_top" xlink:title="x265::FrameEncoder\l::processRowEncoder">
<polygon fill="white" stroke="black" points="672.5,-2 672.5,-32 785.5,-32 785.5,-2 672.5,-2"/>
<text text-anchor="start" x="680.5" y="-20" font-family="Helvetica,sans-Serif" font-size="10.00">x265::FrameEncoder</text>
<text text-anchor="middle" x="729" y="-9" font-family="Helvetica,sans-Serif" font-size="10.00">::processRowEncoder</text>
</a>
</g>
</g>
<!-- Node7&#45;&gt;Node11 -->
<g id="edge10" class="edge"><title>Node7&#45;&gt;Node11</title>
<path fill="none" stroke="midnightblue" d="M646.351,-28.2974C655.171,-27.0769 664.027,-25.8516 672.484,-24.6815"/>
<polygon fill="midnightblue" stroke="midnightblue" points="645.856,-24.8324 636.43,-29.67 646.816,-31.7663 645.856,-24.8324"/>
</g>
<!-- Node9 -->
<g id="node9" class="node"><title>Node9</title>
<g id="a_node9"><a xlink:href="classx265_1_1FrameEncoder.html#a2f5c4c0f1a4e36fce4c9b87eb7ec4973" target="_top" xlink:title="x265::FrameEncoder\l::compressFrame">
<polygon fill="white" stroke="black" points="1114.5,-24 1114.5,-54 1221.5,-54 1221.5,-24 1114.5,-24"/>
<text text-anchor="start" x="1122.5" y="-42" font-family="Helvetica,sans-Serif" font-size="10.00">x265::FrameEncoder</text>
<text text-anchor="middle" x="1168" y="-31" font-family="Helvetica,sans-Serif" font-size="10.00">::compressFrame</text>
</a>
</g>
</g>
<!-- Node8&#45;&gt;Node9 -->
<g id="edge8" class="edge"><title>Node8&#45;&gt;Node9</title>
<path fill="none" stroke="midnightblue" d="M939.651,-58.599C991.809,-54.1027 1065.23,-47.7731 1114.38,-43.5358"/>
<polygon fill="midnightblue" stroke="midnightblue" points="939.179,-55.1266 929.517,-59.4727 939.781,-62.1008 939.179,-55.1266"/>
</g>
<!-- Node10 -->
<g id="node10" class="node"><title>Node10</title>
<g id="a_node10"><a xlink:href="classx265_1_1FrameEncoder.html#aef61f29b9e93b3af9255d96236bc90a7" target="_top" xlink:title="x265::FrameEncoder\l::threadMain">
<polygon fill="white" stroke="black" points="1258.5,-24 1258.5,-54 1365.5,-54 1365.5,-24 1258.5,-24"/>
<text text-anchor="start" x="1266.5" y="-42" font-family="Helvetica,sans-Serif" font-size="10.00">x265::FrameEncoder</text>
<text text-anchor="middle" x="1312" y="-31" font-family="Helvetica,sans-Serif" font-size="10.00">::threadMain</text>
</a>
</g>
</g>
<!-- Node9&#45;&gt;Node10 -->
<g id="edge9" class="edge"><title>Node9&#45;&gt;Node10</title>
<path fill="none" stroke="midnightblue" d="M1231.99,-39C1240.7,-39 1249.58,-39 1258.08,-39"/>
<polygon fill="midnightblue" stroke="midnightblue" points="1231.88,-35.5001 1221.88,-39 1231.88,-42.5001 1231.88,-35.5001"/>
</g>
<!-- Node12 -->
<g id="node12" class="node"><title>Node12</title>
<g id="a_node12"><a xlink:href="classx265_1_1FrameEncoder.html#acad645a8ece97d884895f8f7366b7d70" target="_top" xlink:title="x265::FrameEncoder\l::processRow">
<polygon fill="white" stroke="black" points="822.5,-0 822.5,-30 929.5,-30 929.5,-0 822.5,-0"/>
<text text-anchor="start" x="830.5" y="-18" font-family="Helvetica,sans-Serif" font-size="10.00">x265::FrameEncoder</text>
<text text-anchor="middle" x="876" y="-7" font-family="Helvetica,sans-Serif" font-size="10.00">::processRow</text>
</a>
</g>
</g>
<!-- Node11&#45;&gt;Node12 -->
<g id="edge11" class="edge"><title>Node11&#45;&gt;Node12</title>
<path fill="none" stroke="midnightblue" d="M795.877,-16.0914C804.67,-15.9701 813.594,-15.847 822.126,-15.7293"/>
<polygon fill="midnightblue" stroke="midnightblue" points="795.597,-12.5948 785.646,-16.2325 795.693,-19.5941 795.597,-12.5948"/>
</g>
<!-- Node13 -->
<g id="node13" class="node"><title>Node13</title>
<g id="a_node13"><a xlink:href="classx265_1_1FrameEncoder.html#ac4e9ce2e876c0cdb25c992c872fe4302" target="_top" xlink:title="x265::FrameEncoder\l::compressCTURows">
<polygon fill="white" stroke="black" points="966,-2 966,-32 1078,-32 1078,-2 966,-2"/>
<text text-anchor="start" x="974" y="-20" font-family="Helvetica,sans-Serif" font-size="10.00">x265::FrameEncoder</text>
<text text-anchor="middle" x="1022" y="-9" font-family="Helvetica,sans-Serif" font-size="10.00">::compressCTURows</text>
</a>
</g>
</g>
<!-- Node12&#45;&gt;Node13 -->
<g id="edge12" class="edge"><title>Node12&#45;&gt;Node13</title>
<path fill="none" stroke="midnightblue" d="M939.834,-15.8727C948.475,-15.9927 957.295,-16.1152 965.786,-16.2331"/>
<polygon fill="midnightblue" stroke="midnightblue" points="939.85,-12.3727 929.803,-15.7334 939.753,-19.372 939.85,-12.3727"/>
</g>
<!-- Node13&#45;&gt;Node9 -->
<g id="edge13" class="edge"><title>Node13&#45;&gt;Node9</title>
<path fill="none" stroke="midnightblue" d="M1088.42,-26.9951C1097.15,-28.3292 1106.02,-29.6832 1114.49,-30.9777"/>
<polygon fill="midnightblue" stroke="midnightblue" points="1088.68,-23.4933 1078.26,-25.4429 1087.62,-30.413 1088.68,-23.4933"/>
</g>
</g>
</svg>
