<?xml version="1.0" encoding="UTF-8" standalone="no"?>
<!DOCTYPE svg PUBLIC "-//W3C//DTD SVG 1.1//EN"
 "http://www.w3.org/Graphics/SVG/1.1/DTD/svg11.dtd">
<!-- Generated by graphviz version 2.36.0 (20140111.2315)
 -->
<!-- Title: x265::CostEstimate::init Pages: 1 -->
<svg width="842pt" height="104pt"
 viewBox="0.00 0.00 842.00 104.00" xmlns="http://www.w3.org/2000/svg" xmlns:xlink="http://www.w3.org/1999/xlink">
<g id="graph0" class="graph" transform="scale(1 1) rotate(0) translate(4 100)">
<title>x265::CostEstimate::init</title>
<polygon fill="white" stroke="none" points="-4,4 -4,-100 838,-100 838,4 -4,4"/>
<!-- Node1 -->
<g id="node1" class="node"><title>Node1</title>
<polygon fill="#bfbfbf" stroke="black" points="0,-33 0,-63 104,-63 104,-33 0,-33"/>
<text text-anchor="start" x="8" y="-51" font-family="Helvetica,sans-Serif" font-size="10.00">x265::CostEstimate</text>
<text text-anchor="middle" x="52" y="-40" font-family="Helvetica,sans-Serif" font-size="10.00">::init</text>
</g>
<!-- Node2 -->
<g id="node2" class="node"><title>Node2</title>
<g id="a_node2"><a xlink:href="classx265_1_1Lookahead.html#ad15172de7a432e47e8514fb157fafedd" target="_top" xlink:title="x265::Lookahead::slicetype\lDecide">
<polygon fill="white" stroke="black" points="140,-33 140,-63 276,-63 276,-33 140,-33"/>
<text text-anchor="start" x="148" y="-51" font-family="Helvetica,sans-Serif" font-size="10.00">x265::Lookahead::slicetype</text>
<text text-anchor="middle" x="208" y="-40" font-family="Helvetica,sans-Serif" font-size="10.00">Decide</text>
</a>
</g>
</g>
<!-- Node1&#45;&gt;Node2 -->
<g id="edge1" class="edge"><title>Node1&#45;&gt;Node2</title>
<path fill="none" stroke="midnightblue" d="M114.328,-48C122.693,-48 131.316,-48 139.779,-48"/>
<polygon fill="midnightblue" stroke="midnightblue" points="114.28,-44.5001 104.28,-48 114.28,-51.5001 114.28,-44.5001"/>
</g>
<!-- Node3 -->
<g id="node3" class="node"><title>Node3</title>
<g id="a_node3"><a xlink:href="classx265_1_1Lookahead.html#a878bca13580997ab9c01e72a8f8e81c3" target="_top" xlink:title="x265::Lookahead::addPicture">
<polygon fill="white" stroke="black" points="312.5,-76.5 312.5,-95.5 455.5,-95.5 455.5,-76.5 312.5,-76.5"/>
<text text-anchor="middle" x="384" y="-83.5" font-family="Helvetica,sans-Serif" font-size="10.00">x265::Lookahead::addPicture</text>
</a>
</g>
</g>
<!-- Node2&#45;&gt;Node3 -->
<g id="edge2" class="edge"><title>Node2&#45;&gt;Node3</title>
<path fill="none" stroke="midnightblue" d="M286.279,-64.8771C304.434,-68.8419 323.16,-72.9315 339.243,-76.4438"/>
<polygon fill="midnightblue" stroke="midnightblue" points="286.789,-61.4061 276.273,-62.6918 285.296,-68.2449 286.789,-61.4061"/>
</g>
<!-- Node7 -->
<g id="node7" class="node"><title>Node7</title>
<g id="a_node7"><a xlink:href="classx265_1_1Lookahead.html#a0294c952379ca6f328014f92aa51259c" target="_top" xlink:title="x265::Lookahead::flush">
<polygon fill="white" stroke="black" points="325,-38.5 325,-57.5 443,-57.5 443,-38.5 325,-38.5"/>
<text text-anchor="middle" x="384" y="-45.5" font-family="Helvetica,sans-Serif" font-size="10.00">x265::Lookahead::flush</text>
</a>
</g>
</g>
<!-- Node2&#45;&gt;Node7 -->
<g id="edge6" class="edge"><title>Node2&#45;&gt;Node7</title>
<path fill="none" stroke="midnightblue" d="M286.544,-48C299.454,-48 312.645,-48 324.962,-48"/>
<polygon fill="midnightblue" stroke="midnightblue" points="286.273,-44.5001 276.273,-48 286.273,-51.5001 286.273,-44.5001"/>
</g>
<!-- Node8 -->
<g id="node8" class="node"><title>Node8</title>
<g id="a_node8"><a xlink:href="classx265_1_1Lookahead.html#a341d8c6a3a971583aa911cf8dedbe6a1" target="_top" xlink:title="x265::Lookahead::findJob">
<polygon fill="white" stroke="black" points="320,-0.5 320,-19.5 448,-19.5 448,-0.5 320,-0.5"/>
<text text-anchor="middle" x="384" y="-7.5" font-family="Helvetica,sans-Serif" font-size="10.00">x265::Lookahead::findJob</text>
</a>
</g>
</g>
<!-- Node2&#45;&gt;Node8 -->
<g id="edge8" class="edge"><title>Node2&#45;&gt;Node8</title>
<path fill="none" stroke="midnightblue" d="M286.279,-31.1229C304.434,-27.1581 323.16,-23.0685 339.243,-19.5562"/>
<polygon fill="midnightblue" stroke="midnightblue" points="285.296,-27.7551 276.273,-33.3082 286.789,-34.5939 285.296,-27.7551"/>
</g>
<!-- Node4 -->
<g id="node4" class="node"><title>Node4</title>
<g id="a_node4"><a xlink:href="classx265_1_1Encoder.html#af5c80cef5fcafa00d1b3c105681bc784" target="_top" xlink:title="x265::Encoder::encode">
<polygon fill="white" stroke="black" points="492.5,-57.5 492.5,-76.5 609.5,-76.5 609.5,-57.5 492.5,-57.5"/>
<text text-anchor="middle" x="551" y="-64.5" font-family="Helvetica,sans-Serif" font-size="10.00">x265::Encoder::encode</text>
</a>
</g>
</g>
<!-- Node3&#45;&gt;Node4 -->
<g id="edge3" class="edge"><title>Node3&#45;&gt;Node4</title>
<path fill="none" stroke="midnightblue" d="M465.946,-76.6789C474.844,-75.6543 483.766,-74.6269 492.298,-73.6444"/>
<polygon fill="midnightblue" stroke="midnightblue" points="465.466,-73.211 455.932,-77.832 466.267,-80.165 465.466,-73.211"/>
</g>
<!-- Node5 -->
<g id="node5" class="node"><title>Node5</title>
<g id="a_node5"><a xlink:href="x265_8h.html#a7a45a920b9d86ed3fb3cb3794b14f5ea" target="_top" xlink:title="x265_encoder_encode">
<polygon fill="white" stroke="black" points="646,-57.5 646,-76.5 760,-76.5 760,-57.5 646,-57.5"/>
<text text-anchor="middle" x="703" y="-64.5" font-family="Helvetica,sans-Serif" font-size="10.00">x265_encoder_encode</text>
</a>
</g>
</g>
<!-- Node4&#45;&gt;Node5 -->
<g id="edge4" class="edge"><title>Node4&#45;&gt;Node5</title>
<path fill="none" stroke="midnightblue" d="M619.721,-67C628.45,-67 637.311,-67 645.826,-67"/>
<polygon fill="midnightblue" stroke="midnightblue" points="619.565,-63.5001 609.565,-67 619.565,-70.5001 619.565,-63.5001"/>
</g>
<!-- Node6 -->
<g id="node6" class="node"><title>Node6</title>
<g id="a_node6"><a xlink:href="x265_8cpp.html#a3c04138a5bfe5d72780bb7e82a18e627" target="_top" xlink:title="main">
<polygon fill="white" stroke="black" points="796,-57.5 796,-76.5 834,-76.5 834,-57.5 796,-57.5"/>
<text text-anchor="middle" x="815" y="-64.5" font-family="Helvetica,sans-Serif" font-size="10.00">main</text>
</a>
</g>
</g>
<!-- Node5&#45;&gt;Node6 -->
<g id="edge5" class="edge"><title>Node5&#45;&gt;Node6</title>
<path fill="none" stroke="midnightblue" d="M770.493,-67C779.781,-67 788.611,-67 795.859,-67"/>
<polygon fill="midnightblue" stroke="midnightblue" points="770.289,-63.5001 760.289,-67 770.289,-70.5001 770.289,-63.5001"/>
</g>
<!-- Node7&#45;&gt;Node4 -->
<g id="edge7" class="edge"><title>Node7&#45;&gt;Node4</title>
<path fill="none" stroke="midnightblue" d="M453.424,-55.8792C466.366,-57.3694 479.784,-58.9145 492.353,-60.3618"/>
<polygon fill="midnightblue" stroke="midnightblue" points="453.508,-52.3657 443.173,-54.6987 452.707,-59.3198 453.508,-52.3657"/>
</g>
</g>
</svg>
