<?xml version="1.0" encoding="UTF-8" standalone="no"?>
<!DOCTYPE svg PUBLIC "-//W3C//DTD SVG 1.1//EN"
 "http://www.w3.org/Graphics/SVG/1.1/DTD/svg11.dtd">
<!-- Generated by graphviz version 2.36.0 (20140111.2315)
 -->
<!-- Title: x265::BitCost::mvcost Pages: 1 -->
<!--zoomable 409 -->
<svg id="main" version="1.1" xmlns="http://www.w3.org/2000/svg" xmlns:xlink="http://www.w3.org/1999/xlink" xml:space="preserve" onload="init(evt)">
<style type="text/css"><![CDATA[
.edge:hover path { stroke: red; }
.edge:hover polygon { stroke: red; fill: red; }
]]></style>
<script type="text/javascript"><![CDATA[
var edges = document.getElementsByTagName('g');
if (edges && edges.length) {
  for (var i=0;i<edges.length;i++) {
    if (edges[i].id.substr(0,4)=='edge') {
      edges[i].setAttribute('class','edge');
    }
  }
}
]]></script>
        <defs>
                <circle id="rim" cx="0" cy="0" r="7"/>
                <circle id="rim2" cx="0" cy="0" r="3.5"/>
                <g id="zoomPlus">
                        <use xlink:href="#rim" fill="#404040">
                                <set attributeName="fill" to="#808080" begin="zoomplus.mouseover" end="zoomplus.mouseout"/>
                        </use>
                        <path d="M-4,0h8M0,-4v8" fill="none" stroke="white" stroke-width="1.5" pointer-events="none"/>
                </g>
                <g id="zoomMin">
                        <use xlink:href="#rim" fill="#404040">
                                <set attributeName="fill" to="#808080" begin="zoomminus.mouseover" end="zoomminus.mouseout"/>
                        </use>
                        <path d="M-4,0h8" fill="none" stroke="white" stroke-width="1.5" pointer-events="none"/>
                </g>
                <g id="dirArrow">
                        <path fill="none" stroke="white" stroke-width="1.5" d="M0,-3.0v7 M-2.5,-0.5L0,-3.0L2.5,-0.5"/>
                </g>
               <g id="resetDef">
                       <use xlink:href="#rim2" fill="#404040">
                               <set attributeName="fill" to="#808080" begin="reset.mouseover" end="reset.mouseout"/>
                       </use>
               </g>
        </defs>

<script type="text/javascript">
var viewWidth = 1342;
var viewHeight = 409;
var sectionId = 'dynsection-5';
</script>
<script xlink:href="svgpan.js"/>
<svg id="graph" class="graph">
<g id="viewport">
<title>x265::BitCost::mvcost</title>
<polygon fill="white" stroke="none" points="-4,4 -4,-405 1338,-405 1338,4 -4,4"/>
<!-- Node1 -->
<g id="node1" class="node"><title>Node1</title>
<polygon fill="#bfbfbf" stroke="black" points="0.5,-280.5 0.5,-299.5 115.5,-299.5 115.5,-280.5 0.5,-280.5"/>
<text text-anchor="middle" x="58" y="-287.5" font-family="Helvetica,sans-Serif" font-size="10.00">x265::BitCost::mvcost</text>
</g>
<!-- Node2 -->
<g id="node2" class="node"><title>Node2</title>
<g id="a_node2"><a xlink:href="classx265_1_1MotionEstimate.html#a2fa2c8bf4129cf3352a828a0795bd139" target="_top" xlink:title="x265::MotionEstimate\l::motionEstimate">
<polygon fill="white" stroke="black" points="152,-231 152,-261 264,-261 264,-231 152,-231"/>
<text text-anchor="start" x="160" y="-249" font-family="Helvetica,sans-Serif" font-size="10.00">x265::MotionEstimate</text>
<text text-anchor="middle" x="208" y="-238" font-family="Helvetica,sans-Serif" font-size="10.00">::motionEstimate</text>
</a>
</g>
</g>
<!-- Node1&#45;&gt;Node2 -->
<g id="edge1" class="edge"><title>Node1&#45;&gt;Node2</title>
<path fill="none" stroke="midnightblue" d="M100.895,-277.545C118.137,-272.419 138.264,-266.435 156.326,-261.065"/>
<polygon fill="midnightblue" stroke="midnightblue" points="99.7017,-274.248 91.1138,-280.453 101.697,-280.958 99.7017,-274.248"/>
</g>
<!-- Node3 -->
<g id="node3" class="node"><title>Node3</title>
<g id="a_node3"><a xlink:href="classx265_1_1Search.html#a47294b1b3d67ab31cb6be412407982d5" target="_top" xlink:title="x265::Search::singleMotion\lEstimation">
<polygon fill="white" stroke="black" points="300.5,-319 300.5,-349 435.5,-349 435.5,-319 300.5,-319"/>
<text text-anchor="start" x="308.5" y="-337" font-family="Helvetica,sans-Serif" font-size="10.00">x265::Search::singleMotion</text>
<text text-anchor="middle" x="368" y="-326" font-family="Helvetica,sans-Serif" font-size="10.00">Estimation</text>
</a>
</g>
</g>
<!-- Node1&#45;&gt;Node3 -->
<g id="edge25" class="edge"><title>Node1&#45;&gt;Node3</title>
<path fill="none" stroke="midnightblue" d="M125.517,-300.102C134.418,-301.428 143.43,-302.757 152,-304 201.606,-311.194 257.7,-319.011 300.15,-324.861"/>
<polygon fill="midnightblue" stroke="midnightblue" points="125.951,-296.628 115.543,-298.611 124.916,-303.551 125.951,-296.628"/>
</g>
<!-- Node7 -->
<g id="node7" class="node"><title>Node7</title>
<g id="a_node7"><a xlink:href="classx265_1_1Search.html#a48101e3d900e93b97a83f461be390bd1" target="_top" xlink:title="x265::Search::predInterSearch">
<polygon fill="white" stroke="black" points="472.5,-280.5 472.5,-299.5 621.5,-299.5 621.5,-280.5 472.5,-280.5"/>
<text text-anchor="middle" x="547" y="-287.5" font-family="Helvetica,sans-Serif" font-size="10.00">x265::Search::predInterSearch</text>
</a>
</g>
</g>
<!-- Node1&#45;&gt;Node7 -->
<g id="edge26" class="edge"><title>Node1&#45;&gt;Node7</title>
<path fill="none" stroke="midnightblue" d="M125.981,-290C216.671,-290 377.974,-290 472.101,-290"/>
<polygon fill="midnightblue" stroke="midnightblue" points="125.818,-286.5 115.818,-290 125.818,-293.5 125.818,-286.5"/>
</g>
<!-- Node2&#45;&gt;Node3 -->
<g id="edge2" class="edge"><title>Node2&#45;&gt;Node3</title>
<path fill="none" stroke="midnightblue" d="M245.113,-266.113C273.964,-282.183 313.767,-304.351 339.929,-318.923"/>
<polygon fill="midnightblue" stroke="midnightblue" points="246.601,-262.936 236.161,-261.128 243.194,-269.051 246.601,-262.936"/>
</g>
<!-- Node2&#45;&gt;Node7 -->
<g id="edge13" class="edge"><title>Node2&#45;&gt;Node7</title>
<path fill="none" stroke="midnightblue" d="M274.247,-254.519C331.23,-261.959 413.85,-272.746 473.013,-280.471"/>
<polygon fill="midnightblue" stroke="midnightblue" points="274.64,-251.041 264.271,-253.216 273.734,-257.982 274.64,-251.041"/>
</g>
<!-- Node13 -->
<g id="node13" class="node"><title>Node13</title>
<g id="a_node13"><a xlink:href="classx265_1_1EstimateRow.html#ab4418a4e826e746d0b9cdce75a0736d9" target="_top" xlink:title="x265::EstimateRow::\lestimateCUCost">
<polygon fill="white" stroke="black" points="313.5,-161 313.5,-191 422.5,-191 422.5,-161 313.5,-161"/>
<text text-anchor="start" x="321.5" y="-179" font-family="Helvetica,sans-Serif" font-size="10.00">x265::EstimateRow::</text>
<text text-anchor="middle" x="368" y="-168" font-family="Helvetica,sans-Serif" font-size="10.00">estimateCUCost</text>
</a>
</g>
</g>
<!-- Node2&#45;&gt;Node13 -->
<g id="edge14" class="edge"><title>Node2&#45;&gt;Node13</title>
<path fill="none" stroke="midnightblue" d="M252.288,-226.822C277.67,-215.576 309.282,-201.571 332.889,-191.113"/>
<polygon fill="midnightblue" stroke="midnightblue" points="250.62,-223.733 242.895,-230.983 253.456,-230.133 250.62,-223.733"/>
</g>
<!-- Node4 -->
<g id="node4" class="node"><title>Node4</title>
<g id="a_node4"><a xlink:href="classx265_1_1Analysis.html#abd49473ae6e5e1f7e555b447b04398e6" target="_top" xlink:title="x265::Analysis::parallelME">
<polygon fill="white" stroke="black" points="480.5,-373.5 480.5,-392.5 613.5,-392.5 613.5,-373.5 480.5,-373.5"/>
<text text-anchor="middle" x="547" y="-380.5" font-family="Helvetica,sans-Serif" font-size="10.00">x265::Analysis::parallelME</text>
</a>
</g>
</g>
<!-- Node3&#45;&gt;Node4 -->
<g id="edge3" class="edge"><title>Node3&#45;&gt;Node4</title>
<path fill="none" stroke="midnightblue" d="M433.514,-351.86C459.965,-359.182 489.507,-367.361 511.677,-373.498"/>
<polygon fill="midnightblue" stroke="midnightblue" points="434.121,-348.396 423.55,-349.101 432.254,-355.143 434.121,-348.396"/>
</g>
<!-- Node3&#45;&gt;Node7 -->
<g id="edge6" class="edge"><title>Node3&#45;&gt;Node7</title>
<path fill="none" stroke="midnightblue" d="M439.293,-316.526C462.634,-310.724 487.741,-304.482 507.734,-299.512"/>
<polygon fill="midnightblue" stroke="midnightblue" points="438.279,-313.172 429.418,-318.981 439.967,-319.965 438.279,-313.172"/>
</g>
<!-- Node5 -->
<g id="node5" class="node"><title>Node5</title>
<g id="a_node5"><a xlink:href="classx265_1_1Analysis.html#a29a58dad4cc1c07d2f5e5717c6be7c25" target="_top" xlink:title="x265::Analysis::findJob">
<polygon fill="white" stroke="black" points="1034.5,-376.5 1034.5,-395.5 1153.5,-395.5 1153.5,-376.5 1034.5,-376.5"/>
<text text-anchor="middle" x="1094" y="-383.5" font-family="Helvetica,sans-Serif" font-size="10.00">x265::Analysis::findJob</text>
</a>
</g>
</g>
<!-- Node4&#45;&gt;Node5 -->
<g id="edge4" class="edge"><title>Node4&#45;&gt;Node5</title>
<path fill="none" stroke="midnightblue" d="M623.871,-384.721C680.196,-385.91 758.89,-387.383 828,-388 899.997,-388.643 918.003,-388.699 990,-388 1004.4,-387.86 1019.92,-387.611 1034.45,-387.334"/>
<polygon fill="midnightblue" stroke="midnightblue" points="623.694,-381.217 613.622,-384.503 623.545,-388.215 623.694,-381.217"/>
</g>
<!-- Node6 -->
<g id="node6" class="node"><title>Node6</title>
<g id="a_node6"><a xlink:href="classx265_1_1Analysis.html#a87060ff27a37f56adc5f5b8a4c033ece" target="_top" xlink:title="x265::Analysis::compress\lInterCU_dist">
<polygon fill="white" stroke="red" points="1201,-371 1201,-401 1331,-401 1331,-371 1201,-371"/>
<text text-anchor="start" x="1209" y="-389" font-family="Helvetica,sans-Serif" font-size="10.00">x265::Analysis::compress</text>
<text text-anchor="middle" x="1266" y="-378" font-family="Helvetica,sans-Serif" font-size="10.00">InterCU_dist</text>
</a>
</g>
</g>
<!-- Node5&#45;&gt;Node6 -->
<g id="edge5" class="edge"><title>Node5&#45;&gt;Node6</title>
<path fill="none" stroke="midnightblue" d="M1163.68,-386C1175.96,-386 1188.72,-386 1200.86,-386"/>
<polygon fill="midnightblue" stroke="midnightblue" points="1163.5,-382.5 1153.5,-386 1163.5,-389.5 1163.5,-382.5"/>
</g>
<!-- Node8 -->
<g id="node8" class="node"><title>Node8</title>
<g id="a_node8"><a xlink:href="classx265_1_1Analysis.html#a2305f7985af66b49fdbc40ebb1b281d2" target="_top" xlink:title="x265::Analysis::checkInter\l_rd0_4">
<polygon fill="white" stroke="black" points="658.5,-300 658.5,-330 791.5,-330 791.5,-300 658.5,-300"/>
<text text-anchor="start" x="666.5" y="-318" font-family="Helvetica,sans-Serif" font-size="10.00">x265::Analysis::checkInter</text>
<text text-anchor="middle" x="725" y="-307" font-family="Helvetica,sans-Serif" font-size="10.00">_rd0_4</text>
</a>
</g>
</g>
<!-- Node7&#45;&gt;Node8 -->
<g id="edge7" class="edge"><title>Node7&#45;&gt;Node8</title>
<path fill="none" stroke="midnightblue" d="M625.119,-300.954C636.188,-302.527 647.49,-304.132 658.31,-305.669"/>
<polygon fill="midnightblue" stroke="midnightblue" points="625.433,-297.464 615.04,-299.523 624.448,-304.394 625.433,-297.464"/>
</g>
<!-- Node11 -->
<g id="node11" class="node"><title>Node11</title>
<g id="a_node11"><a xlink:href="classx265_1_1Analysis.html#a828daa3e9f1ed40a1af9f99f7ff7bb33" target="_top" xlink:title="x265::Analysis::checkInter\l_rd5_6">
<polygon fill="white" stroke="black" points="658.5,-251 658.5,-281 791.5,-281 791.5,-251 658.5,-251"/>
<text text-anchor="start" x="666.5" y="-269" font-family="Helvetica,sans-Serif" font-size="10.00">x265::Analysis::checkInter</text>
<text text-anchor="middle" x="725" y="-258" font-family="Helvetica,sans-Serif" font-size="10.00">_rd5_6</text>
</a>
</g>
</g>
<!-- Node7&#45;&gt;Node11 -->
<g id="edge11" class="edge"><title>Node7&#45;&gt;Node11</title>
<path fill="none" stroke="midnightblue" d="M627.907,-279.104C638.07,-277.718 648.378,-276.312 658.283,-274.961"/>
<polygon fill="midnightblue" stroke="midnightblue" points="627.248,-275.661 617.813,-280.48 628.194,-282.597 627.248,-275.661"/>
</g>
<!-- Node9 -->
<g id="node9" class="node"><title>Node9</title>
<g id="a_node9"><a xlink:href="classx265_1_1Analysis.html#aa6122285d10bb1bd7584958b88b029d5" target="_top" xlink:title="x265::Analysis::parallel\lModeAnalysis">
<polygon fill="white" stroke="black" points="850,-349 850,-379 968,-379 968,-349 850,-349"/>
<text text-anchor="start" x="858" y="-367" font-family="Helvetica,sans-Serif" font-size="10.00">x265::Analysis::parallel</text>
<text text-anchor="middle" x="909" y="-356" font-family="Helvetica,sans-Serif" font-size="10.00">ModeAnalysis</text>
</a>
</g>
</g>
<!-- Node8&#45;&gt;Node9 -->
<g id="edge8" class="edge"><title>Node8&#45;&gt;Node9</title>
<path fill="none" stroke="midnightblue" d="M791.923,-332.748C811.648,-338.059 833.078,-343.829 852.094,-348.948"/>
<polygon fill="midnightblue" stroke="midnightblue" points="792.657,-329.322 782.091,-330.101 790.837,-336.081 792.657,-329.322"/>
</g>
<!-- Node10 -->
<g id="node10" class="node"><title>Node10</title>
<g id="a_node10"><a xlink:href="classx265_1_1Analysis.html#a30d2ff7eca5addbb0a6b3dfe14f09650" target="_top" xlink:title="x265::Analysis::compress\lInterCU_rd0_4">
<polygon fill="white" stroke="red" points="844,-300 844,-330 974,-330 974,-300 844,-300"/>
<text text-anchor="start" x="852" y="-318" font-family="Helvetica,sans-Serif" font-size="10.00">x265::Analysis::compress</text>
<text text-anchor="middle" x="909" y="-307" font-family="Helvetica,sans-Serif" font-size="10.00">InterCU_rd0_4</text>
</a>
</g>
</g>
<!-- Node8&#45;&gt;Node10 -->
<g id="edge10" class="edge"><title>Node8&#45;&gt;Node10</title>
<path fill="none" stroke="midnightblue" d="M801.796,-315C815.8,-315 830.299,-315 843.914,-315"/>
<polygon fill="midnightblue" stroke="midnightblue" points="801.706,-311.5 791.706,-315 801.706,-318.5 801.706,-311.5"/>
</g>
<!-- Node9&#45;&gt;Node5 -->
<g id="edge9" class="edge"><title>Node9&#45;&gt;Node5</title>
<path fill="none" stroke="midnightblue" d="M978.244,-372.204C996.695,-374.422 1016.5,-376.803 1034.37,-378.951"/>
<polygon fill="midnightblue" stroke="midnightblue" points="978.5,-368.71 968.154,-370.991 977.665,-375.66 978.5,-368.71"/>
</g>
<!-- Node12 -->
<g id="node12" class="node"><title>Node12</title>
<g id="a_node12"><a xlink:href="classx265_1_1Analysis.html#a0b22b7765aa4a36b1ba6d07ba26901e6" target="_top" xlink:title="x265::Analysis::compress\lInterCU_rd5_6">
<polygon fill="white" stroke="red" points="844,-251 844,-281 974,-281 974,-251 844,-251"/>
<text text-anchor="start" x="852" y="-269" font-family="Helvetica,sans-Serif" font-size="10.00">x265::Analysis::compress</text>
<text text-anchor="middle" x="909" y="-258" font-family="Helvetica,sans-Serif" font-size="10.00">InterCU_rd5_6</text>
</a>
</g>
</g>
<!-- Node11&#45;&gt;Node12 -->
<g id="edge12" class="edge"><title>Node11&#45;&gt;Node12</title>
<path fill="none" stroke="midnightblue" d="M801.796,-266C815.8,-266 830.299,-266 843.914,-266"/>
<polygon fill="midnightblue" stroke="midnightblue" points="801.706,-262.5 791.706,-266 801.706,-269.5 801.706,-262.5"/>
</g>
<!-- Node14 -->
<g id="node14" class="node"><title>Node14</title>
<g id="a_node14"><a xlink:href="classx265_1_1CostEstimate.html#a239a71996364d7662e9c9c32b82d6c9f" target="_top" xlink:title="x265::CostEstimate\l::processRow">
<polygon fill="white" stroke="black" points="495,-146 495,-176 599,-176 599,-146 495,-146"/>
<text text-anchor="start" x="503" y="-164" font-family="Helvetica,sans-Serif" font-size="10.00">x265::CostEstimate</text>
<text text-anchor="middle" x="547" y="-153" font-family="Helvetica,sans-Serif" font-size="10.00">::processRow</text>
</a>
</g>
</g>
<!-- Node13&#45;&gt;Node14 -->
<g id="edge15" class="edge"><title>Node13&#45;&gt;Node14</title>
<path fill="none" stroke="midnightblue" d="M432.722,-170.6C453.088,-168.874 475.357,-166.987 494.72,-165.346"/>
<polygon fill="midnightblue" stroke="midnightblue" points="432.255,-167.127 422.586,-171.459 432.846,-174.102 432.255,-167.127"/>
</g>
<!-- Node15 -->
<g id="node15" class="node"><title>Node15</title>
<g id="a_node15"><a xlink:href="classx265_1_1CostEstimate.html#af33d06405527ebbb03d9c93d565e6e2a" target="_top" xlink:title="x265::CostEstimate\l::estimateFrameCost">
<polygon fill="white" stroke="black" points="670.5,-131 670.5,-161 779.5,-161 779.5,-131 670.5,-131"/>
<text text-anchor="start" x="678.5" y="-149" font-family="Helvetica,sans-Serif" font-size="10.00">x265::CostEstimate</text>
<text text-anchor="middle" x="725" y="-138" font-family="Helvetica,sans-Serif" font-size="10.00">::estimateFrameCost</text>
</a>
</g>
</g>
<!-- Node14&#45;&gt;Node15 -->
<g id="edge16" class="edge"><title>Node14&#45;&gt;Node15</title>
<path fill="none" stroke="midnightblue" d="M609.548,-155.754C629.385,-154.064 651.199,-152.205 670.414,-150.567"/>
<polygon fill="midnightblue" stroke="midnightblue" points="609.046,-152.284 599.38,-156.621 609.641,-159.259 609.046,-152.284"/>
</g>
<!-- Node16 -->
<g id="node16" class="node"><title>Node16</title>
<g id="a_node16"><a xlink:href="classx265_1_1Lookahead.html#ad15172de7a432e47e8514fb157fafedd" target="_top" xlink:title="x265::Lookahead::slicetype\lDecide">
<polygon fill="white" stroke="red" points="1198,-153 1198,-183 1334,-183 1334,-153 1198,-153"/>
<text text-anchor="start" x="1206" y="-171" font-family="Helvetica,sans-Serif" font-size="10.00">x265::Lookahead::slicetype</text>
<text text-anchor="middle" x="1266" y="-160" font-family="Helvetica,sans-Serif" font-size="10.00">Decide</text>
</a>
</g>
</g>
<!-- Node15&#45;&gt;Node16 -->
<g id="edge17" class="edge"><title>Node15&#45;&gt;Node16</title>
<path fill="none" stroke="midnightblue" d="M789.868,-148.607C892.465,-152.795 1093.06,-160.982 1197.76,-165.256"/>
<polygon fill="midnightblue" stroke="midnightblue" points="789.786,-145.101 779.652,-148.19 789.501,-152.095 789.786,-145.101"/>
</g>
<!-- Node17 -->
<g id="node17" class="node"><title>Node17</title>
<g id="a_node17"><a xlink:href="classx265_1_1Lookahead.html#ad963fd74581c61eaf7713367906b3e96" target="_top" xlink:title="x265::Lookahead::vbvFrameCost">
<polygon fill="white" stroke="red" points="828.5,-98.5 828.5,-117.5 989.5,-117.5 989.5,-98.5 828.5,-98.5"/>
<text text-anchor="middle" x="909" y="-105.5" font-family="Helvetica,sans-Serif" font-size="10.00">x265::Lookahead::vbvFrameCost</text>
</a>
</g>
</g>
<!-- Node15&#45;&gt;Node17 -->
<g id="edge18" class="edge"><title>Node15&#45;&gt;Node17</title>
<path fill="none" stroke="midnightblue" d="M789.706,-132.699C813.685,-127.692 840.45,-122.104 862.448,-117.511"/>
<polygon fill="midnightblue" stroke="midnightblue" points="788.695,-129.334 779.622,-134.804 790.126,-136.186 788.695,-129.334"/>
</g>
<!-- Node18 -->
<g id="node18" class="node"><title>Node18</title>
<g id="a_node18"><a xlink:href="classx265_1_1Lookahead.html#a2f8c7057dd5c5086830b5f22b38105b0" target="_top" xlink:title="x265::Lookahead::slicetype\lAnalyse">
<polygon fill="white" stroke="black" points="1026,-175 1026,-205 1162,-205 1162,-175 1026,-175"/>
<text text-anchor="start" x="1034" y="-193" font-family="Helvetica,sans-Serif" font-size="10.00">x265::Lookahead::slicetype</text>
<text text-anchor="middle" x="1094" y="-182" font-family="Helvetica,sans-Serif" font-size="10.00">Analyse</text>
</a>
</g>
</g>
<!-- Node15&#45;&gt;Node18 -->
<g id="edge19" class="edge"><title>Node15&#45;&gt;Node18</title>
<path fill="none" stroke="midnightblue" d="M789.722,-154.983C802.397,-156.703 815.615,-158.449 828,-160 895.305,-168.428 972.362,-177.034 1025.97,-182.855"/>
<polygon fill="midnightblue" stroke="midnightblue" points="790.081,-151.499 779.699,-153.613 789.133,-158.435 790.081,-151.499"/>
</g>
<!-- Node19 -->
<g id="node19" class="node"><title>Node19</title>
<g id="a_node19"><a xlink:href="classx265_1_1Lookahead.html#abe59d19601dc7f3cc76ba3dd315140ee" target="_top" xlink:title="x265::Lookahead::scenecut\lInternal">
<polygon fill="white" stroke="red" points="840.5,-49 840.5,-79 977.5,-79 977.5,-49 840.5,-49"/>
<text text-anchor="start" x="848.5" y="-67" font-family="Helvetica,sans-Serif" font-size="10.00">x265::Lookahead::scenecut</text>
<text text-anchor="middle" x="909" y="-56" font-family="Helvetica,sans-Serif" font-size="10.00">Internal</text>
</a>
</g>
</g>
<!-- Node15&#45;&gt;Node19 -->
<g id="edge21" class="edge"><title>Node15&#45;&gt;Node19</title>
<path fill="none" stroke="midnightblue" d="M758.164,-125.762C777.819,-113.974 803.76,-99.4271 828,-89 836.421,-85.3775 845.543,-82.0239 854.509,-79.0262"/>
<polygon fill="midnightblue" stroke="midnightblue" points="756.335,-122.778 749.604,-130.96 759.968,-128.761 756.335,-122.778"/>
</g>
<!-- Node20 -->
<g id="node20" class="node"><title>Node20</title>
<g id="a_node20"><a xlink:href="classx265_1_1Lookahead.html#a23cd684acae2cb60daeb2f6df390e30e" target="_top" xlink:title="x265::Lookahead::slicetype\lPathCost">
<polygon fill="white" stroke="red" points="841,-0 841,-30 977,-30 977,-0 841,-0"/>
<text text-anchor="start" x="849" y="-18" font-family="Helvetica,sans-Serif" font-size="10.00">x265::Lookahead::slicetype</text>
<text text-anchor="middle" x="909" y="-7" font-family="Helvetica,sans-Serif" font-size="10.00">PathCost</text>
</a>
</g>
</g>
<!-- Node15&#45;&gt;Node20 -->
<g id="edge22" class="edge"><title>Node15&#45;&gt;Node20</title>
<path fill="none" stroke="midnightblue" d="M742.492,-122.552C760.748,-98.2686 792.348,-60.8774 828,-39 833.562,-35.5872 839.64,-32.6327 845.881,-30.0807"/>
<polygon fill="midnightblue" stroke="midnightblue" points="739.492,-120.723 736.387,-130.852 745.131,-124.871 739.492,-120.723"/>
</g>
<!-- Node21 -->
<g id="node21" class="node"><title>Node21</title>
<g id="a_node21"><a xlink:href="classx265_1_1Lookahead.html#a7de60f6bb080e48623088fb1ed9f034b" target="_top" xlink:title="x265::Lookahead::cuTree">
<polygon fill="white" stroke="black" points="845.5,-212.5 845.5,-231.5 972.5,-231.5 972.5,-212.5 845.5,-212.5"/>
<text text-anchor="middle" x="909" y="-219.5" font-family="Helvetica,sans-Serif" font-size="10.00">x265::Lookahead::cuTree</text>
</a>
</g>
</g>
<!-- Node15&#45;&gt;Node21 -->
<g id="edge23" class="edge"><title>Node15&#45;&gt;Node21</title>
<path fill="none" stroke="midnightblue" d="M761.261,-165.963C780.578,-176.388 805.171,-188.843 828,-198 841.862,-203.56 857.52,-208.531 871.284,-212.487"/>
<polygon fill="midnightblue" stroke="midnightblue" points="762.687,-162.754 752.233,-161.032 759.331,-168.897 762.687,-162.754"/>
</g>
<!-- Node18&#45;&gt;Node16 -->
<g id="edge20" class="edge"><title>Node18&#45;&gt;Node16</title>
<path fill="none" stroke="midnightblue" d="M1172.15,-180.016C1180.69,-178.911 1189.34,-177.792 1197.74,-176.704"/>
<polygon fill="midnightblue" stroke="midnightblue" points="1171.66,-176.55 1162.19,-181.305 1172.56,-183.493 1171.66,-176.55"/>
</g>
<!-- Node21&#45;&gt;Node18 -->
<g id="edge24" class="edge"><title>Node21&#45;&gt;Node18</title>
<path fill="none" stroke="midnightblue" d="M974.564,-210.71C991.177,-207.805 1009.09,-204.673 1025.83,-201.745"/>
<polygon fill="midnightblue" stroke="midnightblue" points="973.658,-207.315 964.411,-212.486 974.864,-214.211 973.658,-207.315"/>
</g>
</g>
</svg>
        <g id="navigator" transform="translate(0 0)" fill="#404254">
                <rect fill="#f2f5e9" fill-opacity="0.5" stroke="#606060" stroke-width=".5" x="0" y="0" width="60" height="60"/>
                <use id="zoomplus" xlink:href="#zoomPlus" x="17" y="9" onmousedown="handleZoom(evt,'in')"/>
                <use id="zoomminus" xlink:href="#zoomMin" x="42" y="9" onmousedown="handleZoom(evt,'out')"/>
                <use id="reset" xlink:href="#resetDef" x="30" y="36" onmousedown="handleReset()"/>
                <g id="arrowUp" xlink:href="#dirArrow" transform="translate(30 24)" onmousedown="handlePan(0,-1)">
                  <use xlink:href="#rim" fill="#404040">
                        <set attributeName="fill" to="#808080" begin="arrowUp.mouseover" end="arrowUp.mouseout"/>
                  </use>
                  <path fill="none" stroke="white" stroke-width="1.5" d="M0,-3.0v7 M-2.5,-0.5L0,-3.0L2.5,-0.5"/>
                </g>
                <g id="arrowRight" xlink:href="#dirArrow" transform="rotate(90) translate(36 -43)" onmousedown="handlePan(1,0)">
                  <use xlink:href="#rim" fill="#404040">
                        <set attributeName="fill" to="#808080" begin="arrowRight.mouseover" end="arrowRight.mouseout"/>
                  </use>
                  <path fill="none" stroke="white" stroke-width="1.5" d="M0,-3.0v7 M-2.5,-0.5L0,-3.0L2.5,-0.5"/>
                </g>
                <g id="arrowDown" xlink:href="#dirArrow" transform="rotate(180) translate(-30 -48)" onmousedown="handlePan(0,1)">
                  <use xlink:href="#rim" fill="#404040">
                        <set attributeName="fill" to="#808080" begin="arrowDown.mouseover" end="arrowDown.mouseout"/>
                  </use>
                  <path fill="none" stroke="white" stroke-width="1.5" d="M0,-3.0v7 M-2.5,-0.5L0,-3.0L2.5,-0.5"/>
                </g>
                <g id="arrowLeft" xlink:href="#dirArrow" transform="rotate(270) translate(-36 17)" onmousedown="handlePan(-1,0)">
                  <use xlink:href="#rim" fill="#404040">
                        <set attributeName="fill" to="#808080" begin="arrowLeft.mouseover" end="arrowLeft.mouseout"/>
                  </use>
                  <path fill="none" stroke="white" stroke-width="1.5" d="M0,-3.0v7 M-2.5,-0.5L0,-3.0L2.5,-0.5"/>
                </g>
        </g>
        <svg viewBox="0 0 15 15" width="100%" height="30px" preserveAspectRatio="xMaxYMin meet">
         <g id="arrow_out" transform="scale(0.3 0.3)">
          <a xlink:href="classx265_1_1BitCost_a1f6ec166b475924ab9879f671718fd18_icgraph_org.svg" target="_base">
           <rect id="button" ry="5" rx="5" y="6" x="6" height="38" width="38"
                fill="#f2f5e9" fill-opacity="0.5" stroke="#606060" stroke-width="1.0"/>
           <path id="arrow"
             d="M 11.500037,31.436501 C 11.940474,20.09759 22.043105,11.32322 32.158766,21.979434 L 37.068811,17.246167 C 37.068811,17.246167 37.088388,32 37.088388,32 L 22.160133,31.978069 C 22.160133,31.978069 26.997745,27.140456 26.997745,27.140456 C 18.528582,18.264221 13.291696,25.230495 11.500037,31.436501 z"
             style="fill:#404040;"/>
          </a>
         </g>
        </svg>
</svg>
