<?xml version="1.0" encoding="UTF-8" standalone="no"?>
<!DOCTYPE svg PUBLIC "-//W3C//DTD SVG 1.1//EN"
 "http://www.w3.org/Graphics/SVG/1.1/DTD/svg11.dtd">
<!-- Generated by graphviz version 2.36.0 (20140111.2315)
 -->
<!-- Title: x265::Entropy::codeScalingList Pages: 1 -->
<svg width="812pt" height="38pt"
 viewBox="0.00 0.00 812.00 38.00" xmlns="http://www.w3.org/2000/svg" xmlns:xlink="http://www.w3.org/1999/xlink">
<g id="graph0" class="graph" transform="scale(1 1) rotate(0) translate(4 34)">
<title>x265::Entropy::codeScalingList</title>
<polygon fill="white" stroke="none" points="-4,4 -4,-34 808,-34 808,4 -4,4"/>
<!-- Node1 -->
<g id="node1" class="node"><title>Node1</title>
<polygon fill="#bfbfbf" stroke="black" points="0,-5.5 0,-24.5 152,-24.5 152,-5.5 0,-5.5"/>
<text text-anchor="middle" x="76" y="-12.5" font-family="Helvetica,sans-Serif" font-size="10.00">x265::Entropy::codeScalingList</text>
</g>
<!-- Node2 -->
<g id="node2" class="node"><title>Node2</title>
<g id="a_node2"><a xlink:href="classx265_1_1SyntaxElementWriter.html#abd043bffe2e86e34473d57508388ebce" target="_top" xlink:title="x265::SyntaxElementWriter\l::WRITE_SVLC">
<polygon fill="white" stroke="black" points="188.5,-0 188.5,-30 325.5,-30 325.5,-0 188.5,-0"/>
<text text-anchor="start" x="196.5" y="-18" font-family="Helvetica,sans-Serif" font-size="10.00">x265::SyntaxElementWriter</text>
<text text-anchor="middle" x="257" y="-7" font-family="Helvetica,sans-Serif" font-size="10.00">::WRITE_SVLC</text>
</a>
</g>
</g>
<!-- Node1&#45;&gt;Node2 -->
<g id="edge1" class="edge"><title>Node1&#45;&gt;Node2</title>
<path fill="none" stroke="midnightblue" d="M152.134,-15C160.799,-15 169.648,-15 178.345,-15"/>
<polygon fill="midnightblue" stroke="midnightblue" points="178.464,-18.5001 188.464,-15 178.464,-11.5001 178.464,-18.5001"/>
</g>
<!-- Node3 -->
<g id="node3" class="node"><title>Node3</title>
<g id="a_node3"><a xlink:href="classx265_1_1SyntaxElementWriter.html#aaa4cbfe0fa90daf355de0c7d7f4f5788" target="_top" xlink:title="x265::SyntaxElementWriter\l::writeSvlc">
<polygon fill="white" stroke="black" points="362.5,-0 362.5,-30 499.5,-30 499.5,-0 362.5,-0"/>
<text text-anchor="start" x="370.5" y="-18" font-family="Helvetica,sans-Serif" font-size="10.00">x265::SyntaxElementWriter</text>
<text text-anchor="middle" x="431" y="-7" font-family="Helvetica,sans-Serif" font-size="10.00">::writeSvlc</text>
</a>
</g>
</g>
<!-- Node2&#45;&gt;Node3 -->
<g id="edge2" class="edge"><title>Node2&#45;&gt;Node3</title>
<path fill="none" stroke="midnightblue" d="M325.979,-15C334.55,-15 343.372,-15 352.082,-15"/>
<polygon fill="midnightblue" stroke="midnightblue" points="352.233,-18.5001 362.233,-15 352.233,-11.5001 352.233,-18.5001"/>
</g>
<!-- Node4 -->
<g id="node4" class="node"><title>Node4</title>
<g id="a_node4"><a xlink:href="classx265_1_1SyntaxElementWriter.html#af0151cc567598deee8f51decf2ab915d" target="_top" xlink:title="x265::SyntaxElementWriter\l::writeUvlc">
<polygon fill="white" stroke="black" points="536.5,-0 536.5,-30 673.5,-30 673.5,-0 536.5,-0"/>
<text text-anchor="start" x="544.5" y="-18" font-family="Helvetica,sans-Serif" font-size="10.00">x265::SyntaxElementWriter</text>
<text text-anchor="middle" x="605" y="-7" font-family="Helvetica,sans-Serif" font-size="10.00">::writeUvlc</text>
</a>
</g>
</g>
<!-- Node3&#45;&gt;Node4 -->
<g id="edge3" class="edge"><title>Node3&#45;&gt;Node4</title>
<path fill="none" stroke="midnightblue" d="M499.979,-15C508.55,-15 517.372,-15 526.082,-15"/>
<polygon fill="midnightblue" stroke="midnightblue" points="526.233,-18.5001 536.233,-15 526.233,-11.5001 526.233,-18.5001"/>
</g>
<!-- Node5 -->
<g id="node5" class="node"><title>Node5</title>
<g id="a_node5"><a xlink:href="classx265_1_1BitInterface.html#a28a79d8b25645cdd59d6ff004d4851dc" target="_top" xlink:title="x265::BitInterface\l::write">
<polygon fill="white" stroke="black" points="710,-0 710,-30 804,-30 804,-0 710,-0"/>
<text text-anchor="start" x="718" y="-18" font-family="Helvetica,sans-Serif" font-size="10.00">x265::BitInterface</text>
<text text-anchor="middle" x="757" y="-7" font-family="Helvetica,sans-Serif" font-size="10.00">::write</text>
</a>
</g>
</g>
<!-- Node4&#45;&gt;Node5 -->
<g id="edge4" class="edge"><title>Node4&#45;&gt;Node5</title>
<path fill="none" stroke="midnightblue" d="M673.54,-15C682.275,-15 691.146,-15 699.673,-15"/>
<polygon fill="midnightblue" stroke="midnightblue" points="699.872,-18.5001 709.872,-15 699.872,-11.5001 699.872,-18.5001"/>
</g>
</g>
</svg>
