<?xml version="1.0" encoding="UTF-8" standalone="no"?>
<!DOCTYPE svg PUBLIC "-//W3C//DTD SVG 1.1//EN"
 "http://www.w3.org/Graphics/SVG/1.1/DTD/svg11.dtd">
<!-- Generated by graphviz version 2.36.0 (20140111.2315)
 -->
<!-- Title: x265::Deblock::setEdgefilterMultiple Pages: 1 -->
<!--zoomable 80 -->
<svg id="main" version="1.1" xmlns="http://www.w3.org/2000/svg" xmlns:xlink="http://www.w3.org/1999/xlink" xml:space="preserve" onload="init(evt)">
<style type="text/css"><![CDATA[
.edge:hover path { stroke: red; }
.edge:hover polygon { stroke: red; fill: red; }
]]></style>
<script type="text/javascript"><![CDATA[
var edges = document.getElementsByTagName('g');
if (edges && edges.length) {
  for (var i=0;i<edges.length;i++) {
    if (edges[i].id.substr(0,4)=='edge') {
      edges[i].setAttribute('class','edge');
    }
  }
}
]]></script>
        <defs>
                <circle id="rim" cx="0" cy="0" r="7"/>
                <circle id="rim2" cx="0" cy="0" r="3.5"/>
                <g id="zoomPlus">
                        <use xlink:href="#rim" fill="#404040">
                                <set attributeName="fill" to="#808080" begin="zoomplus.mouseover" end="zoomplus.mouseout"/>
                        </use>
                        <path d="M-4,0h8M0,-4v8" fill="none" stroke="white" stroke-width="1.5" pointer-events="none"/>
                </g>
                <g id="zoomMin">
                        <use xlink:href="#rim" fill="#404040">
                                <set attributeName="fill" to="#808080" begin="zoomminus.mouseover" end="zoomminus.mouseout"/>
                        </use>
                        <path d="M-4,0h8" fill="none" stroke="white" stroke-width="1.5" pointer-events="none"/>
                </g>
                <g id="dirArrow">
                        <path fill="none" stroke="white" stroke-width="1.5" d="M0,-3.0v7 M-2.5,-0.5L0,-3.0L2.5,-0.5"/>
                </g>
               <g id="resetDef">
                       <use xlink:href="#rim2" fill="#404040">
                               <set attributeName="fill" to="#808080" begin="reset.mouseover" end="reset.mouseout"/>
                       </use>
               </g>
        </defs>

<script type="text/javascript">
var viewWidth = 1546;
var viewHeight = 80;
var sectionId = 'dynsection-12';
</script>
<script xlink:href="svgpan.js"/>
<svg id="graph" class="graph">
<g id="viewport">
<title>x265::Deblock::setEdgefilterMultiple</title>
<polygon fill="white" stroke="none" points="-4,4 -4,-75.7371 1542,-75.7371 1542,4 -4,4"/>
<!-- Node1 -->
<g id="node1" class="node"><title>Node1</title>
<polygon fill="#bfbfbf" stroke="black" points="0,-33 0,-63 140,-63 140,-33 0,-33"/>
<text text-anchor="start" x="8" y="-51" font-family="Helvetica,sans-Serif" font-size="10.00">x265::Deblock::setEdgefilter</text>
<text text-anchor="middle" x="70" y="-40" font-family="Helvetica,sans-Serif" font-size="10.00">Multiple</text>
</g>
<!-- Node2 -->
<g id="node2" class="node"><title>Node2</title>
<g id="a_node2"><a xlink:href="classx265_1_1Deblock.html#a2314896538bde018e8f4134f3f766df9" target="_top" xlink:title="x265::Deblock::deblockCU">
<polygon fill="white" stroke="black" points="368,-38.5 368,-57.5 502,-57.5 502,-38.5 368,-38.5"/>
<text text-anchor="middle" x="435" y="-45.5" font-family="Helvetica,sans-Serif" font-size="10.00">x265::Deblock::deblockCU</text>
</a>
</g>
</g>
<!-- Node1&#45;&gt;Node2 -->
<g id="edge1" class="edge"><title>Node1&#45;&gt;Node2</title>
<path fill="none" stroke="midnightblue" d="M150.325,-63.9029C158.961,-65.1712 167.645,-66.2502 176,-67 245.056,-73.1976 262.96,-73.3753 332,-67 352.089,-65.1449 374.124,-61.2763 392.556,-57.5111"/>
<polygon fill="midnightblue" stroke="midnightblue" points="150.651,-60.4116 140.232,-62.3355 149.577,-67.3287 150.651,-60.4116"/>
</g>
<!-- Node10 -->
<g id="node10" class="node"><title>Node10</title>
<g id="a_node10"><a xlink:href="classx265_1_1Deblock.html#a256fe829a95ac12fa76180b5efe79f98" target="_top" xlink:title="x265::Deblock::setEdgefilterTU">
<polygon fill="white" stroke="black" points="177,-38.5 177,-57.5 331,-57.5 331,-38.5 177,-38.5"/>
<text text-anchor="middle" x="254" y="-45.5" font-family="Helvetica,sans-Serif" font-size="10.00">x265::Deblock::setEdgefilterTU</text>
</a>
</g>
</g>
<!-- Node1&#45;&gt;Node10 -->
<g id="edge9" class="edge"><title>Node1&#45;&gt;Node10</title>
<path fill="none" stroke="midnightblue" d="M150.069,-48C159.004,-48 168.095,-48 176.99,-48"/>
<polygon fill="midnightblue" stroke="midnightblue" points="150.066,-44.5001 140.066,-48 150.066,-51.5001 150.066,-44.5001"/>
</g>
<!-- Node11 -->
<g id="node11" class="node"><title>Node11</title>
<g id="a_node11"><a xlink:href="classx265_1_1Deblock.html#a131b33f8cd65ed758316db41fbf2e273" target="_top" xlink:title="x265::Deblock::setEdgefilterPU">
<polygon fill="white" stroke="black" points="176.5,-0.5 176.5,-19.5 331.5,-19.5 331.5,-0.5 176.5,-0.5"/>
<text text-anchor="middle" x="254" y="-7.5" font-family="Helvetica,sans-Serif" font-size="10.00">x265::Deblock::setEdgefilterPU</text>
</a>
</g>
</g>
<!-- Node1&#45;&gt;Node11 -->
<g id="edge11" class="edge"><title>Node1&#45;&gt;Node11</title>
<path fill="none" stroke="midnightblue" d="M149.934,-31.5192C169.568,-27.4198 189.966,-23.161 207.382,-19.5246"/>
<polygon fill="midnightblue" stroke="midnightblue" points="149.139,-28.1096 140.066,-33.5796 150.57,-34.9618 149.139,-28.1096"/>
</g>
<!-- Node3 -->
<g id="node3" class="node"><title>Node3</title>
<g id="a_node3"><a xlink:href="classx265_1_1Deblock.html#a166deb5f5a020fff72ffae14556e4d95" target="_top" xlink:title="x265::Deblock::deblockCTU">
<polygon fill="white" stroke="black" points="538,-38.5 538,-57.5 678,-57.5 678,-38.5 538,-38.5"/>
<text text-anchor="middle" x="608" y="-45.5" font-family="Helvetica,sans-Serif" font-size="10.00">x265::Deblock::deblockCTU</text>
</a>
</g>
</g>
<!-- Node2&#45;&gt;Node3 -->
<g id="edge2" class="edge"><title>Node2&#45;&gt;Node3</title>
<path fill="none" stroke="midnightblue" d="M512.126,-48C520.725,-48 529.451,-48 537.951,-48"/>
<polygon fill="midnightblue" stroke="midnightblue" points="512.113,-44.5001 502.113,-48 512.113,-51.5001 512.113,-44.5001"/>
</g>
<!-- Node4 -->
<g id="node4" class="node"><title>Node4</title>
<g id="a_node4"><a xlink:href="classx265_1_1FrameFilter.html#a75d13efc3b8c164f9c1615bffda89891" target="_top" xlink:title="x265::FrameFilter::\lprocessRow">
<polygon fill="white" stroke="black" points="714.5,-33 714.5,-63 813.5,-63 813.5,-33 714.5,-33"/>
<text text-anchor="start" x="722.5" y="-51" font-family="Helvetica,sans-Serif" font-size="10.00">x265::FrameFilter::</text>
<text text-anchor="middle" x="764" y="-40" font-family="Helvetica,sans-Serif" font-size="10.00">processRow</text>
</a>
</g>
</g>
<!-- Node3&#45;&gt;Node4 -->
<g id="edge3" class="edge"><title>Node3&#45;&gt;Node4</title>
<path fill="none" stroke="midnightblue" d="M688.614,-48C697.37,-48 706.081,-48 714.293,-48"/>
<polygon fill="midnightblue" stroke="midnightblue" points="688.341,-44.5001 678.341,-48 688.341,-51.5001 688.341,-44.5001"/>
</g>
<!-- Node5 -->
<g id="node5" class="node"><title>Node5</title>
<g id="a_node5"><a xlink:href="classx265_1_1FrameEncoder.html#a764697a109059858166d1c017b81d233" target="_top" xlink:title="x265::FrameEncoder\l::processRowFilter">
<polygon fill="white" stroke="black" points="850.5,-33 850.5,-63 957.5,-63 957.5,-33 850.5,-33"/>
<text text-anchor="start" x="858.5" y="-51" font-family="Helvetica,sans-Serif" font-size="10.00">x265::FrameEncoder</text>
<text text-anchor="middle" x="904" y="-40" font-family="Helvetica,sans-Serif" font-size="10.00">::processRowFilter</text>
</a>
</g>
</g>
<!-- Node4&#45;&gt;Node5 -->
<g id="edge4" class="edge"><title>Node4&#45;&gt;Node5</title>
<path fill="none" stroke="midnightblue" d="M823.778,-48C832.519,-48 841.485,-48 850.096,-48"/>
<polygon fill="midnightblue" stroke="midnightblue" points="823.654,-44.5001 813.654,-48 823.654,-51.5001 823.654,-44.5001"/>
</g>
<!-- Node6 -->
<g id="node6" class="node"><title>Node6</title>
<g id="a_node6"><a xlink:href="classx265_1_1FrameEncoder.html#acad645a8ece97d884895f8f7366b7d70" target="_top" xlink:title="x265::FrameEncoder\l::processRow">
<polygon fill="white" stroke="black" points="994.5,-33 994.5,-63 1101.5,-63 1101.5,-33 994.5,-33"/>
<text text-anchor="start" x="1002.5" y="-51" font-family="Helvetica,sans-Serif" font-size="10.00">x265::FrameEncoder</text>
<text text-anchor="middle" x="1048" y="-40" font-family="Helvetica,sans-Serif" font-size="10.00">::processRow</text>
</a>
</g>
</g>
<!-- Node5&#45;&gt;Node6 -->
<g id="edge5" class="edge"><title>Node5&#45;&gt;Node6</title>
<path fill="none" stroke="midnightblue" d="M967.994,-48C976.704,-48 985.578,-48 994.08,-48"/>
<polygon fill="midnightblue" stroke="midnightblue" points="967.876,-44.5001 957.876,-48 967.876,-51.5001 967.876,-44.5001"/>
</g>
<!-- Node7 -->
<g id="node7" class="node"><title>Node7</title>
<g id="a_node7"><a xlink:href="classx265_1_1FrameEncoder.html#ac4e9ce2e876c0cdb25c992c872fe4302" target="_top" xlink:title="x265::FrameEncoder\l::compressCTURows">
<polygon fill="white" stroke="black" points="1138,-33 1138,-63 1250,-63 1250,-33 1138,-33"/>
<text text-anchor="start" x="1146" y="-51" font-family="Helvetica,sans-Serif" font-size="10.00">x265::FrameEncoder</text>
<text text-anchor="middle" x="1194" y="-40" font-family="Helvetica,sans-Serif" font-size="10.00">::compressCTURows</text>
</a>
</g>
</g>
<!-- Node6&#45;&gt;Node7 -->
<g id="edge6" class="edge"><title>Node6&#45;&gt;Node7</title>
<path fill="none" stroke="midnightblue" d="M1111.83,-48C1120.48,-48 1129.3,-48 1137.79,-48"/>
<polygon fill="midnightblue" stroke="midnightblue" points="1111.8,-44.5001 1101.8,-48 1111.8,-51.5001 1111.8,-44.5001"/>
</g>
<!-- Node8 -->
<g id="node8" class="node"><title>Node8</title>
<g id="a_node8"><a xlink:href="classx265_1_1FrameEncoder.html#a2f5c4c0f1a4e36fce4c9b87eb7ec4973" target="_top" xlink:title="x265::FrameEncoder\l::compressFrame">
<polygon fill="white" stroke="black" points="1286.5,-33 1286.5,-63 1393.5,-63 1393.5,-33 1286.5,-33"/>
<text text-anchor="start" x="1294.5" y="-51" font-family="Helvetica,sans-Serif" font-size="10.00">x265::FrameEncoder</text>
<text text-anchor="middle" x="1340" y="-40" font-family="Helvetica,sans-Serif" font-size="10.00">::compressFrame</text>
</a>
</g>
</g>
<!-- Node7&#45;&gt;Node8 -->
<g id="edge7" class="edge"><title>Node7&#45;&gt;Node8</title>
<path fill="none" stroke="midnightblue" d="M1260.42,-48C1269.15,-48 1278.02,-48 1286.49,-48"/>
<polygon fill="midnightblue" stroke="midnightblue" points="1260.26,-44.5001 1250.26,-48 1260.26,-51.5001 1260.26,-44.5001"/>
</g>
<!-- Node9 -->
<g id="node9" class="node"><title>Node9</title>
<g id="a_node9"><a xlink:href="classx265_1_1FrameEncoder.html#aef61f29b9e93b3af9255d96236bc90a7" target="_top" xlink:title="x265::FrameEncoder\l::threadMain">
<polygon fill="white" stroke="black" points="1430.5,-33 1430.5,-63 1537.5,-63 1537.5,-33 1430.5,-33"/>
<text text-anchor="start" x="1438.5" y="-51" font-family="Helvetica,sans-Serif" font-size="10.00">x265::FrameEncoder</text>
<text text-anchor="middle" x="1484" y="-40" font-family="Helvetica,sans-Serif" font-size="10.00">::threadMain</text>
</a>
</g>
</g>
<!-- Node8&#45;&gt;Node9 -->
<g id="edge8" class="edge"><title>Node8&#45;&gt;Node9</title>
<path fill="none" stroke="midnightblue" d="M1403.99,-48C1412.7,-48 1421.58,-48 1430.08,-48"/>
<polygon fill="midnightblue" stroke="midnightblue" points="1403.88,-44.5001 1393.88,-48 1403.88,-51.5001 1403.88,-44.5001"/>
</g>
<!-- Node10&#45;&gt;Node2 -->
<g id="edge10" class="edge"><title>Node10&#45;&gt;Node2</title>
<path fill="none" stroke="midnightblue" d="M341.219,-48C350.152,-48 359.129,-48 367.792,-48"/>
<polygon fill="midnightblue" stroke="midnightblue" points="341.172,-44.5001 331.172,-48 341.172,-51.5001 341.172,-44.5001"/>
</g>
<!-- Node11&#45;&gt;Node2 -->
<g id="edge12" class="edge"><title>Node11&#45;&gt;Node2</title>
<path fill="none" stroke="midnightblue" d="M310.024,-21.681C335.408,-27.0699 365.161,-33.3861 389.156,-38.4799"/>
<polygon fill="midnightblue" stroke="midnightblue" points="310.678,-18.242 300.169,-19.589 309.224,-25.0894 310.678,-18.242"/>
</g>
</g>
</svg>
        <g id="navigator" transform="translate(0 0)" fill="#404254">
                <rect fill="#f2f5e9" fill-opacity="0.5" stroke="#606060" stroke-width=".5" x="0" y="0" width="60" height="60"/>
                <use id="zoomplus" xlink:href="#zoomPlus" x="17" y="9" onmousedown="handleZoom(evt,'in')"/>
                <use id="zoomminus" xlink:href="#zoomMin" x="42" y="9" onmousedown="handleZoom(evt,'out')"/>
                <use id="reset" xlink:href="#resetDef" x="30" y="36" onmousedown="handleReset()"/>
                <g id="arrowUp" xlink:href="#dirArrow" transform="translate(30 24)" onmousedown="handlePan(0,-1)">
                  <use xlink:href="#rim" fill="#404040">
                        <set attributeName="fill" to="#808080" begin="arrowUp.mouseover" end="arrowUp.mouseout"/>
                  </use>
                  <path fill="none" stroke="white" stroke-width="1.5" d="M0,-3.0v7 M-2.5,-0.5L0,-3.0L2.5,-0.5"/>
                </g>
                <g id="arrowRight" xlink:href="#dirArrow" transform="rotate(90) translate(36 -43)" onmousedown="handlePan(1,0)">
                  <use xlink:href="#rim" fill="#404040">
                        <set attributeName="fill" to="#808080" begin="arrowRight.mouseover" end="arrowRight.mouseout"/>
                  </use>
                  <path fill="none" stroke="white" stroke-width="1.5" d="M0,-3.0v7 M-2.5,-0.5L0,-3.0L2.5,-0.5"/>
                </g>
                <g id="arrowDown" xlink:href="#dirArrow" transform="rotate(180) translate(-30 -48)" onmousedown="handlePan(0,1)">
                  <use xlink:href="#rim" fill="#404040">
                        <set attributeName="fill" to="#808080" begin="arrowDown.mouseover" end="arrowDown.mouseout"/>
                  </use>
                  <path fill="none" stroke="white" stroke-width="1.5" d="M0,-3.0v7 M-2.5,-0.5L0,-3.0L2.5,-0.5"/>
                </g>
                <g id="arrowLeft" xlink:href="#dirArrow" transform="rotate(270) translate(-36 17)" onmousedown="handlePan(-1,0)">
                  <use xlink:href="#rim" fill="#404040">
                        <set attributeName="fill" to="#808080" begin="arrowLeft.mouseover" end="arrowLeft.mouseout"/>
                  </use>
                  <path fill="none" stroke="white" stroke-width="1.5" d="M0,-3.0v7 M-2.5,-0.5L0,-3.0L2.5,-0.5"/>
                </g>
        </g>
        <svg viewBox="0 0 15 15" width="100%" height="30px" preserveAspectRatio="xMaxYMin meet">
         <g id="arrow_out" transform="scale(0.3 0.3)">
          <a xlink:href="classx265_1_1Deblock_aa5859ba90be3d7f2e498377baa318030_icgraph_org.svg" target="_base">
           <rect id="button" ry="5" rx="5" y="6" x="6" height="38" width="38"
                fill="#f2f5e9" fill-opacity="0.5" stroke="#606060" stroke-width="1.0"/>
           <path id="arrow"
             d="M 11.500037,31.436501 C 11.940474,20.09759 22.043105,11.32322 32.158766,21.979434 L 37.068811,17.246167 C 37.068811,17.246167 37.088388,32 37.088388,32 L 22.160133,31.978069 C 22.160133,31.978069 26.997745,27.140456 26.997745,27.140456 C 18.528582,18.264221 13.291696,25.230495 11.500037,31.436501 z"
             style="fill:#404040;"/>
          </a>
         </g>
        </svg>
</svg>
