<?xml version="1.0" encoding="UTF-8" standalone="no"?>
<!DOCTYPE svg PUBLIC "-//W3C//DTD SVG 1.1//EN"
 "http://www.w3.org/Graphics/SVG/1.1/DTD/svg11.dtd">
<!-- Generated by graphviz version 2.36.0 (20140111.2315)
 -->
<!-- Title: MD5Frame::processRow Pages: 1 -->
<svg width="644pt" height="142pt"
 viewBox="0.00 0.00 644.00 142.00" xmlns="http://www.w3.org/2000/svg" xmlns:xlink="http://www.w3.org/1999/xlink">
<g id="graph0" class="graph" transform="scale(1 1) rotate(0) translate(4 138)">
<title>MD5Frame::processRow</title>
<polygon fill="white" stroke="none" points="-4,4 -4,-138 640,-138 640,4 -4,4"/>
<!-- Node1 -->
<g id="node1" class="node"><title>Node1</title>
<polygon fill="#bfbfbf" stroke="black" points="0,-57.5 0,-76.5 126,-76.5 126,-57.5 0,-57.5"/>
<text text-anchor="middle" x="63" y="-64.5" font-family="Helvetica,sans-Serif" font-size="10.00">MD5Frame::processRow</text>
</g>
<!-- Node2 -->
<g id="node2" class="node"><title>Node2</title>
<g id="a_node2"><a xlink:href="classx265_1_1MD5.html#a150f9bdb9a021b45985d1b562159ee48" target="_top" xlink:title="x265::MD5::update">
<polygon fill="white" stroke="black" points="190,-114.5 190,-133.5 290,-133.5 290,-114.5 190,-114.5"/>
<text text-anchor="middle" x="240" y="-121.5" font-family="Helvetica,sans-Serif" font-size="10.00">x265::MD5::update</text>
</a>
</g>
</g>
<!-- Node1&#45;&gt;Node2 -->
<g id="edge1" class="edge"><title>Node1&#45;&gt;Node2</title>
<path fill="none" stroke="midnightblue" d="M86.2847,-76.5829C105.961,-84.8163 135.551,-96.6465 162,-105 169.748,-107.447 178.015,-109.775 186.15,-111.91"/>
<polygon fill="midnightblue" stroke="midnightblue" points="185.409,-115.333 195.964,-114.412 187.139,-108.55 185.409,-115.333"/>
</g>
<!-- Node5 -->
<g id="node5" class="node"><title>Node5</title>
<g id="a_node5"><a xlink:href="classx265_1_1MD5.html#a2bca13c6bb8f474bd6fd5ea90bf7436b" target="_top" xlink:title="x265::MD5::finalize">
<polygon fill="white" stroke="black" points="189.5,-76.5 189.5,-95.5 290.5,-95.5 290.5,-76.5 189.5,-76.5"/>
<text text-anchor="middle" x="240" y="-83.5" font-family="Helvetica,sans-Serif" font-size="10.00">x265::MD5::finalize</text>
</a>
</g>
</g>
<!-- Node1&#45;&gt;Node5 -->
<g id="edge4" class="edge"><title>Node1&#45;&gt;Node5</title>
<path fill="none" stroke="midnightblue" d="M126.191,-73.7522C143.357,-75.616 161.946,-77.6341 178.986,-79.4842"/>
<polygon fill="midnightblue" stroke="midnightblue" points="179.05,-83.0116 189.369,-80.6115 179.806,-76.0525 179.05,-83.0116"/>
</g>
<!-- Node7 -->
<g id="node7" class="node"><title>Node7</title>
<g id="a_node7"><a xlink:href="classx265_1_1WaveFront.html#a7e9bb7c12ce745c308ada7e889a8227e" target="_top" xlink:title="x265::WaveFront::enqueueRow">
<polygon fill="white" stroke="black" points="162.5,-38.5 162.5,-57.5 317.5,-57.5 317.5,-38.5 162.5,-38.5"/>
<text text-anchor="middle" x="240" y="-45.5" font-family="Helvetica,sans-Serif" font-size="10.00">x265::WaveFront::enqueueRow</text>
</a>
</g>
</g>
<!-- Node1&#45;&gt;Node7 -->
<g id="edge7" class="edge"><title>Node1&#45;&gt;Node7</title>
<path fill="none" stroke="midnightblue" d="M126.191,-60.2478C134.685,-59.3256 143.528,-58.3656 152.358,-57.4068"/>
<polygon fill="midnightblue" stroke="midnightblue" points="152.74,-60.886 162.304,-56.327 151.985,-53.9269 152.74,-60.886"/>
</g>
<!-- Node9 -->
<g id="node9" class="node"><title>Node9</title>
<g id="a_node9"><a xlink:href="classx265_1_1WaveFront.html#a7e202b18d1b2095c7b31fbd44e7eb696" target="_top" xlink:title="x265::WaveFront::enableRow">
<polygon fill="white" stroke="black" points="167,-0.5 167,-19.5 313,-19.5 313,-0.5 167,-0.5"/>
<text text-anchor="middle" x="240" y="-7.5" font-family="Helvetica,sans-Serif" font-size="10.00">x265::WaveFront::enableRow</text>
</a>
</g>
</g>
<!-- Node1&#45;&gt;Node9 -->
<g id="edge9" class="edge"><title>Node1&#45;&gt;Node9</title>
<path fill="none" stroke="midnightblue" d="M86.2847,-57.4171C105.961,-49.1837 135.551,-37.3535 162,-29 169.748,-26.5531 178.015,-24.2248 186.15,-22.0903"/>
<polygon fill="midnightblue" stroke="midnightblue" points="187.139,-25.4502 195.964,-19.588 185.409,-18.6672 187.139,-25.4502"/>
</g>
<!-- Node3 -->
<g id="node3" class="node"><title>Node3</title>
<g id="a_node3"><a xlink:href="namespacex265.html#a6f598b085b6ad0e79306a43b6d61d4ad" target="_top" xlink:title="x265::MD5Update">
<polygon fill="white" stroke="black" points="374,-114.5 374,-133.5 470,-133.5 470,-114.5 374,-114.5"/>
<text text-anchor="middle" x="422" y="-121.5" font-family="Helvetica,sans-Serif" font-size="10.00">x265::MD5Update</text>
</a>
</g>
</g>
<!-- Node2&#45;&gt;Node3 -->
<g id="edge2" class="edge"><title>Node2&#45;&gt;Node3</title>
<path fill="none" stroke="midnightblue" d="M290.186,-124C312.854,-124 339.905,-124 363.509,-124"/>
<polygon fill="midnightblue" stroke="midnightblue" points="363.737,-127.5 373.737,-124 363.736,-120.5 363.737,-127.5"/>
</g>
<!-- Node4 -->
<g id="node4" class="node"><title>Node4</title>
<g id="a_node4"><a xlink:href="namespacex265.html#a6e4a0fadde713a59af66944a25d751aa" target="_top" xlink:title="x265::MD5Transform">
<polygon fill="white" stroke="black" points="526.5,-95.5 526.5,-114.5 635.5,-114.5 635.5,-95.5 526.5,-95.5"/>
<text text-anchor="middle" x="581" y="-102.5" font-family="Helvetica,sans-Serif" font-size="10.00">x265::MD5Transform</text>
</a>
</g>
</g>
<!-- Node3&#45;&gt;Node4 -->
<g id="edge3" class="edge"><title>Node3&#45;&gt;Node4</title>
<path fill="none" stroke="midnightblue" d="M470.105,-118.299C484.627,-116.542 500.866,-114.577 516.311,-112.708"/>
<polygon fill="midnightblue" stroke="midnightblue" points="516.812,-116.173 526.319,-111.496 515.971,-109.223 516.812,-116.173"/>
</g>
<!-- Node6 -->
<g id="node6" class="node"><title>Node6</title>
<g id="a_node6"><a xlink:href="namespacex265.html#a49da8f194a3c708d7beee96adef30603" target="_top" xlink:title="x265::MD5Final">
<polygon fill="white" stroke="black" points="379,-76.5 379,-95.5 465,-95.5 465,-76.5 379,-76.5"/>
<text text-anchor="middle" x="422" y="-83.5" font-family="Helvetica,sans-Serif" font-size="10.00">x265::MD5Final</text>
</a>
</g>
</g>
<!-- Node5&#45;&gt;Node6 -->
<g id="edge5" class="edge"><title>Node5&#45;&gt;Node6</title>
<path fill="none" stroke="midnightblue" d="M290.662,-86C314.882,-86 344.017,-86 368.592,-86"/>
<polygon fill="midnightblue" stroke="midnightblue" points="368.818,-89.5001 378.818,-86 368.818,-82.5001 368.818,-89.5001"/>
</g>
<!-- Node6&#45;&gt;Node4 -->
<g id="edge6" class="edge"><title>Node6&#45;&gt;Node4</title>
<path fill="none" stroke="midnightblue" d="M465.073,-91.0917C480.79,-92.9937 499.011,-95.1988 516.247,-97.2847"/>
<polygon fill="midnightblue" stroke="midnightblue" points="515.908,-100.769 526.256,-98.496 516.749,-93.8198 515.908,-100.769"/>
</g>
<!-- Node8 -->
<g id="node8" class="node"><title>Node8</title>
<g id="a_node8"><a xlink:href="classx265_1_1ThreadPool.html#a47277b980acec1c3114d1374ba304b85" target="_top" xlink:title="x265::ThreadPool::pokeIdle\lThread">
<polygon fill="white" stroke="black" points="354,-27 354,-57 490,-57 490,-27 354,-27"/>
<text text-anchor="start" x="362" y="-45" font-family="Helvetica,sans-Serif" font-size="10.00">x265::ThreadPool::pokeIdle</text>
<text text-anchor="middle" x="422" y="-34" font-family="Helvetica,sans-Serif" font-size="10.00">Thread</text>
</a>
</g>
</g>
<!-- Node7&#45;&gt;Node8 -->
<g id="edge8" class="edge"><title>Node7&#45;&gt;Node8</title>
<path fill="none" stroke="midnightblue" d="M317.597,-45.4468C326.263,-45.1579 335.098,-44.8634 343.772,-44.5743"/>
<polygon fill="midnightblue" stroke="midnightblue" points="343.982,-48.0693 353.86,-44.238 343.749,-41.0732 343.982,-48.0693"/>
</g>
</g>
</svg>
