<?xml version="1.0" encoding="UTF-8" standalone="no"?>
<!DOCTYPE svg PUBLIC "-//W3C//DTD SVG 1.1//EN"
 "http://www.w3.org/Graphics/SVG/1.1/DTD/svg11.dtd">
<!-- Generated by graphviz version 2.36.0 (20140111.2315)
 -->
<!-- Title: x265::Lookahead::slicetypeDecide Pages: 1 -->
<svg width="1434pt" height="540pt"
 viewBox="0.00 0.00 1434.00 539.51" xmlns="http://www.w3.org/2000/svg" xmlns:xlink="http://www.w3.org/1999/xlink">
<g id="graph0" class="graph" transform="scale(1 1) rotate(0) translate(4 535.513)">
<title>x265::Lookahead::slicetypeDecide</title>
<polygon fill="white" stroke="none" points="-4,4 -4,-535.513 1430,-535.513 1430,4 -4,4"/>
<!-- Node1 -->
<g id="node1" class="node"><title>Node1</title>
<polygon fill="#bfbfbf" stroke="black" points="0,-240.513 0,-270.513 136,-270.513 136,-240.513 0,-240.513"/>
<text text-anchor="start" x="8" y="-258.513" font-family="Helvetica,sans-Serif" font-size="10.00">x265::Lookahead::slicetype</text>
<text text-anchor="middle" x="68" y="-247.513" font-family="Helvetica,sans-Serif" font-size="10.00">Decide</text>
</g>
<!-- Node2 -->
<g id="node2" class="node"><title>Node2</title>
<g id="a_node2"><a xlink:href="classx265_1_1PicList.html#a078060a1a29ba1c310bb6db0e375752d" target="_top" xlink:title="x265::PicList::first">
<polygon fill="white" stroke="black" points="192,-512.013 192,-531.013 288,-531.013 288,-512.013 192,-512.013"/>
<text text-anchor="middle" x="240" y="-519.013" font-family="Helvetica,sans-Serif" font-size="10.00">x265::PicList::first</text>
</a>
</g>
</g>
<!-- Node1&#45;&gt;Node2 -->
<g id="edge1" class="edge"><title>Node1&#45;&gt;Node2</title>
<path fill="none" stroke="midnightblue" d="M70.7557,-270.605C76.5765,-313.619 99.2102,-437.892 172,-502.513 175.204,-505.358 178.805,-507.779 182.631,-509.84"/>
<polygon fill="midnightblue" stroke="midnightblue" points="181.334,-513.094 191.889,-514.022 184.217,-506.715 181.334,-513.094"/>
</g>
<!-- Node3 -->
<g id="node3" class="node"><title>Node3</title>
<g id="a_node3"><a xlink:href="classx265_1_1Lock.html#a985bcbbf08696312e240893ec0386c78" target="_top" xlink:title="x265::Lock::release">
<polygon fill="white" stroke="black" points="189,-474.013 189,-493.013 291,-493.013 291,-474.013 189,-474.013"/>
<text text-anchor="middle" x="240" y="-481.013" font-family="Helvetica,sans-Serif" font-size="10.00">x265::Lock::release</text>
</a>
</g>
</g>
<!-- Node1&#45;&gt;Node3 -->
<g id="edge2" class="edge"><title>Node1&#45;&gt;Node3</title>
<path fill="none" stroke="midnightblue" d="M72.1157,-270.649C80.7889,-308.916 108.848,-410.262 172,-463.513 174.68,-465.773 177.607,-467.777 180.693,-469.555"/>
<polygon fill="midnightblue" stroke="midnightblue" points="179.212,-472.727 189.731,-473.99 182.295,-466.443 179.212,-472.727"/>
</g>
<!-- Node4 -->
<g id="node4" class="node"><title>Node4</title>
<g id="a_node4"><a xlink:href="classx265_1_1CostEstimate.html#a32585b492514e11eb144ed9912153036" target="_top" xlink:title="x265::CostEstimate\l::init">
<polygon fill="white" stroke="black" points="188,-424.513 188,-454.513 292,-454.513 292,-424.513 188,-424.513"/>
<text text-anchor="start" x="196" y="-442.513" font-family="Helvetica,sans-Serif" font-size="10.00">x265::CostEstimate</text>
<text text-anchor="middle" x="240" y="-431.513" font-family="Helvetica,sans-Serif" font-size="10.00">::init</text>
</a>
</g>
</g>
<!-- Node1&#45;&gt;Node4 -->
<g id="edge3" class="edge"><title>Node1&#45;&gt;Node4</title>
<path fill="none" stroke="midnightblue" d="M75.594,-270.686C89.3981,-300.878 124.074,-369.052 172,-409.513 176.492,-413.306 181.54,-416.705 186.798,-419.731"/>
<polygon fill="midnightblue" stroke="midnightblue" points="185.307,-422.901 195.785,-424.472 188.574,-416.71 185.307,-422.901"/>
</g>
<!-- Node8 -->
<g id="node8" class="node"><title>Node8</title>
<g id="a_node8"><a xlink:href="classx265_1_1RateControl.html#a3fb377b9c39849532748fb62f359671f" target="_top" xlink:title="x265::RateControl::\lrateControlSliceType">
<polygon fill="white" stroke="black" points="571,-391.513 571,-421.513 679,-421.513 679,-391.513 571,-391.513"/>
<text text-anchor="start" x="579" y="-409.513" font-family="Helvetica,sans-Serif" font-size="10.00">x265::RateControl::</text>
<text text-anchor="middle" x="625" y="-398.513" font-family="Helvetica,sans-Serif" font-size="10.00">rateControlSliceType</text>
</a>
</g>
</g>
<!-- Node1&#45;&gt;Node8 -->
<g id="edge7" class="edge"><title>Node1&#45;&gt;Node8</title>
<path fill="none" stroke="midnightblue" d="M77.1046,-270.538C91.9963,-296.435 126.412,-348.871 172,-371.513 238.581,-404.583 453.022,-407.906 560.852,-407.376"/>
<polygon fill="midnightblue" stroke="midnightblue" points="560.968,-410.875 570.946,-407.313 560.925,-403.875 560.968,-410.875"/>
</g>
<!-- Node10 -->
<g id="node10" class="node"><title>Node10</title>
<g id="a_node10"><a xlink:href="common_8cpp.html#a746489f014374f963df715ddf9bd3986" target="_top" xlink:title="x265_log">
<polygon fill="white" stroke="black" points="791,-353.013 791,-372.013 847,-372.013 847,-353.013 791,-353.013"/>
<text text-anchor="middle" x="819" y="-360.013" font-family="Helvetica,sans-Serif" font-size="10.00">x265_log</text>
</a>
</g>
</g>
<!-- Node1&#45;&gt;Node10 -->
<g id="edge48" class="edge"><title>Node1&#45;&gt;Node10</title>
<path fill="none" stroke="midnightblue" d="M110.728,-270.635C164.04,-289.222 259.538,-320.07 344,-334.513 504.777,-362.008 700.187,-363.728 780.645,-363.091"/>
<polygon fill="midnightblue" stroke="midnightblue" points="780.808,-366.59 790.773,-362.993 780.74,-359.59 780.808,-366.59"/>
</g>
<!-- Node11 -->
<g id="node11" class="node"><title>Node11</title>
<g id="a_node11"><a xlink:href="classx265_1_1Lookahead.html#a2f8c7057dd5c5086830b5f22b38105b0" target="_top" xlink:title="x265::Lookahead::slicetype\lAnalyse">
<polygon fill="white" stroke="black" points="172,-240.513 172,-270.513 308,-270.513 308,-240.513 172,-240.513"/>
<text text-anchor="start" x="180" y="-258.513" font-family="Helvetica,sans-Serif" font-size="10.00">x265::Lookahead::slicetype</text>
<text text-anchor="middle" x="240" y="-247.513" font-family="Helvetica,sans-Serif" font-size="10.00">Analyse</text>
</a>
</g>
</g>
<!-- Node1&#45;&gt;Node11 -->
<g id="edge10" class="edge"><title>Node1&#45;&gt;Node11</title>
<path fill="none" stroke="midnightblue" d="M136.189,-255.513C144.502,-255.513 153.054,-255.513 161.506,-255.513"/>
<polygon fill="midnightblue" stroke="midnightblue" points="161.743,-259.014 171.743,-255.513 161.743,-252.014 161.743,-259.014"/>
</g>
<!-- Node13 -->
<g id="node13" class="node"><title>Node13</title>
<g id="a_node13"><a xlink:href="classx265_1_1CostEstimate.html#af33d06405527ebbb03d9c93d565e6e2a" target="_top" xlink:title="x265::CostEstimate\l::estimateFrameCost">
<polygon fill="white" stroke="black" points="764.5,-176.513 764.5,-206.513 873.5,-206.513 873.5,-176.513 764.5,-176.513"/>
<text text-anchor="start" x="772.5" y="-194.513" font-family="Helvetica,sans-Serif" font-size="10.00">x265::CostEstimate</text>
<text text-anchor="middle" x="819" y="-183.513" font-family="Helvetica,sans-Serif" font-size="10.00">::estimateFrameCost</text>
</a>
</g>
</g>
<!-- Node1&#45;&gt;Node13 -->
<g id="edge49" class="edge"><title>Node1&#45;&gt;Node13</title>
<path fill="none" stroke="midnightblue" d="M130.68,-240.451C190.084,-225.728 275.563,-203.914 308,-192.513 324.519,-186.708 326.958,-180.532 344,-176.513 500.642,-139.573 545.957,-150.558 706,-167.513 721.735,-169.18 738.509,-172.13 754.156,-175.403"/>
<polygon fill="midnightblue" stroke="midnightblue" points="753.738,-178.894 764.253,-177.591 755.221,-172.053 753.738,-178.894"/>
</g>
<!-- Node39 -->
<g id="node39" class="node"><title>Node39</title>
<g id="a_node39"><a xlink:href="classx265_1_1Lock.html#a11bb88b077423b018467350cb6858edc" target="_top" xlink:title="x265::Lock::acquire">
<polygon fill="white" stroke="black" points="189,-164.013 189,-183.013 291,-183.013 291,-164.013 189,-164.013"/>
<text text-anchor="middle" x="240" y="-171.013" font-family="Helvetica,sans-Serif" font-size="10.00">x265::Lock::acquire</text>
</a>
</g>
</g>
<!-- Node1&#45;&gt;Node39 -->
<g id="edge50" class="edge"><title>Node1&#45;&gt;Node39</title>
<path fill="none" stroke="midnightblue" d="M92.9512,-240.494C113.449,-228.016 143.999,-210.302 172,-197.513 180.666,-193.556 190.191,-189.805 199.27,-186.495"/>
<polygon fill="midnightblue" stroke="midnightblue" points="200.628,-189.727 208.885,-183.088 198.29,-183.129 200.628,-189.727"/>
</g>
<!-- Node40 -->
<g id="node40" class="node"><title>Node40</title>
<g id="a_node40"><a xlink:href="classx265_1_1PicList.html#af044edb915f7de4762689c9813c37ce1" target="_top" xlink:title="x265::PicList::popFront">
<polygon fill="white" stroke="black" points="181,-126.013 181,-145.013 299,-145.013 299,-126.013 181,-126.013"/>
<text text-anchor="middle" x="240" y="-133.013" font-family="Helvetica,sans-Serif" font-size="10.00">x265::PicList::popFront</text>
</a>
</g>
</g>
<!-- Node1&#45;&gt;Node40 -->
<g id="edge51" class="edge"><title>Node1&#45;&gt;Node40</title>
<path fill="none" stroke="midnightblue" d="M80.247,-240.446C97.54,-218.337 132.796,-177.271 172,-154.513 175.706,-152.362 179.669,-150.443 183.748,-148.732"/>
<polygon fill="midnightblue" stroke="midnightblue" points="185.275,-151.897 193.408,-145.107 182.816,-145.343 185.275,-151.897"/>
</g>
<!-- Node41 -->
<g id="node41" class="node"><title>Node41</title>
<g id="a_node41"><a xlink:href="classx265_1_1PicList.html#a3136480f7f313ad7beed7891557824cf" target="_top" xlink:title="x265::PicList::pushBack">
<polygon fill="white" stroke="black" points="178.5,-88.0135 178.5,-107.013 301.5,-107.013 301.5,-88.0135 178.5,-88.0135"/>
<text text-anchor="middle" x="240" y="-95.0135" font-family="Helvetica,sans-Serif" font-size="10.00">x265::PicList::pushBack</text>
</a>
</g>
</g>
<!-- Node1&#45;&gt;Node41 -->
<g id="edge52" class="edge"><title>Node1&#45;&gt;Node41</title>
<path fill="none" stroke="midnightblue" d="M75.9791,-240.39C89.9857,-211.738 124.311,-149.469 172,-116.513 174.872,-114.529 177.949,-112.75 181.147,-111.156"/>
<polygon fill="midnightblue" stroke="midnightblue" points="182.634,-114.326 190.415,-107.135 179.848,-107.904 182.634,-114.326"/>
</g>
<!-- Node42 -->
<g id="node42" class="node"><title>Node42</title>
<g id="a_node42"><a xlink:href="classx265_1_1Event.html#ad3e86a968fd0b5340255f8691c22441b" target="_top" xlink:title="x265::Event::trigger">
<polygon fill="white" stroke="black" points="189,-50.0135 189,-69.0135 291,-69.0135 291,-50.0135 189,-50.0135"/>
<text text-anchor="middle" x="240" y="-57.0135" font-family="Helvetica,sans-Serif" font-size="10.00">x265::Event::trigger</text>
</a>
</g>
</g>
<!-- Node1&#45;&gt;Node42 -->
<g id="edge53" class="edge"><title>Node1&#45;&gt;Node42</title>
<path fill="none" stroke="midnightblue" d="M73.4841,-240.326C84.4025,-206.038 115.688,-122.222 172,-78.5135 174.452,-76.6103 177.086,-74.8977 179.841,-73.3568"/>
<polygon fill="midnightblue" stroke="midnightblue" points="181.459,-76.4626 188.975,-68.9956 178.443,-70.1456 181.459,-76.4626"/>
</g>
<!-- Node5 -->
<g id="node5" class="node"><title>Node5</title>
<g id="a_node5"><a xlink:href="classx265_1_1WaveFront.html#a24e51ce94e57786042db2bfa10fd7d7a" target="_top" xlink:title="x265::WaveFront::init">
<polygon fill="white" stroke="black" points="371,-462.013 371,-481.013 481,-481.013 481,-462.013 371,-462.013"/>
<text text-anchor="middle" x="426" y="-469.013" font-family="Helvetica,sans-Serif" font-size="10.00">x265::WaveFront::init</text>
</a>
</g>
</g>
<!-- Node4&#45;&gt;Node5 -->
<g id="edge4" class="edge"><title>Node4&#45;&gt;Node5</title>
<path fill="none" stroke="midnightblue" d="M292.254,-448.427C313.463,-452.116 338.293,-456.434 360.704,-460.331"/>
<polygon fill="midnightblue" stroke="midnightblue" points="360.357,-463.824 370.809,-462.089 361.556,-456.927 360.357,-463.824"/>
</g>
<!-- Node6 -->
<g id="node6" class="node"><title>Node6</title>
<g id="a_node6"><a xlink:href="classx265_1_1WaveFront.html#a604f8ca2090194c07d33eaf32783e1b9" target="_top" xlink:title="x265::WaveFront::enableAllRows">
<polygon fill="white" stroke="black" points="344.5,-424.013 344.5,-443.013 507.5,-443.013 507.5,-424.013 344.5,-424.013"/>
<text text-anchor="middle" x="426" y="-431.013" font-family="Helvetica,sans-Serif" font-size="10.00">x265::WaveFront::enableAllRows</text>
</a>
</g>
</g>
<!-- Node4&#45;&gt;Node6 -->
<g id="edge5" class="edge"><title>Node4&#45;&gt;Node6</title>
<path fill="none" stroke="midnightblue" d="M292.254,-437.842C305.387,-437.414 319.907,-436.94 334.382,-436.468"/>
<polygon fill="midnightblue" stroke="midnightblue" points="334.498,-439.967 344.379,-436.142 334.27,-432.97 334.498,-439.967"/>
</g>
<!-- Node7 -->
<g id="node7" class="node"><title>Node7</title>
<g id="a_node7"><a xlink:href="common_8cpp.html#a38ca1a52840936693f8520bb89701406" target="_top" xlink:title="x265_malloc">
<polygon fill="white" stroke="black" points="390.5,-500.013 390.5,-519.013 461.5,-519.013 461.5,-500.013 390.5,-500.013"/>
<text text-anchor="middle" x="426" y="-507.013" font-family="Helvetica,sans-Serif" font-size="10.00">x265_malloc</text>
</a>
</g>
</g>
<!-- Node4&#45;&gt;Node7 -->
<g id="edge6" class="edge"><title>Node4&#45;&gt;Node7</title>
<path fill="none" stroke="midnightblue" d="M286.421,-454.568C293.784,-457.543 301.213,-460.882 308,-464.513 325.402,-473.825 326.043,-482.323 344,-490.513 355.294,-495.665 368.133,-499.499 380.207,-502.319"/>
<polygon fill="midnightblue" stroke="midnightblue" points="379.606,-505.77 390.119,-504.457 381.081,-498.927 379.606,-505.77"/>
</g>
<!-- Node9 -->
<g id="node9" class="node"><title>Node9</title>
<g id="a_node9"><a xlink:href="common_8h.html#a0bc45c2b4097068046b78520c8c09a94" target="_top" xlink:title="Clip3">
<polygon fill="white" stroke="black" points="1156.5,-408.013 1156.5,-427.013 1195.5,-427.013 1195.5,-408.013 1156.5,-408.013"/>
<text text-anchor="middle" x="1176" y="-415.013" font-family="Helvetica,sans-Serif" font-size="10.00">Clip3</text>
</a>
</g>
</g>
<!-- Node8&#45;&gt;Node9 -->
<g id="edge8" class="edge"><title>Node8&#45;&gt;Node9</title>
<path fill="none" stroke="midnightblue" d="M679.139,-407.578C793.318,-409.866 1058.8,-415.185 1146.39,-416.94"/>
<polygon fill="midnightblue" stroke="midnightblue" points="1146.33,-420.44 1156.4,-417.141 1146.47,-413.441 1146.33,-420.44"/>
</g>
<!-- Node8&#45;&gt;Node10 -->
<g id="edge9" class="edge"><title>Node8&#45;&gt;Node10</title>
<path fill="none" stroke="midnightblue" d="M679.228,-394.315C711.549,-386.909 752,-377.638 780.876,-371.021"/>
<polygon fill="midnightblue" stroke="midnightblue" points="781.988,-374.357 790.953,-368.712 780.424,-367.534 781.988,-374.357"/>
</g>
<!-- Node12 -->
<g id="node12" class="node"><title>Node12</title>
<g id="a_node12"><a xlink:href="classx265_1_1Lookahead.html#a7de60f6bb080e48623088fb1ed9f034b" target="_top" xlink:title="x265::Lookahead::cuTree">
<polygon fill="white" stroke="black" points="362.5,-79.0135 362.5,-98.0135 489.5,-98.0135 489.5,-79.0135 362.5,-79.0135"/>
<text text-anchor="middle" x="426" y="-86.0135" font-family="Helvetica,sans-Serif" font-size="10.00">x265::Lookahead::cuTree</text>
</a>
</g>
</g>
<!-- Node11&#45;&gt;Node12 -->
<g id="edge11" class="edge"><title>Node11&#45;&gt;Node12</title>
<path fill="none" stroke="midnightblue" d="M257.653,-240.399C292.05,-209.18 370.718,-137.781 406.577,-105.234"/>
<polygon fill="midnightblue" stroke="midnightblue" points="409.278,-107.509 414.331,-98.1967 404.574,-102.326 409.278,-107.509"/>
</g>
<!-- Node11&#45;&gt;Node13 -->
<g id="edge42" class="edge"><title>Node11&#45;&gt;Node13</title>
<path fill="none" stroke="midnightblue" d="M308.33,-252.741C399.072,-248.35 565.455,-237.991 706,-216.513 721.752,-214.106 738.593,-210.763 754.306,-207.304"/>
<polygon fill="midnightblue" stroke="midnightblue" points="755.458,-210.632 764.446,-205.022 753.921,-203.803 755.458,-210.632"/>
</g>
<!-- Node31 -->
<g id="node31" class="node"><title>Node31</title>
<g id="a_node31"><a xlink:href="classx265_1_1Lookahead.html#aa8614a28660df5604b8f7a2319d1c43a" target="_top" xlink:title="x265::Lookahead::scenecut">
<polygon fill="white" stroke="black" points="357.5,-306.013 357.5,-325.013 494.5,-325.013 494.5,-306.013 357.5,-306.013"/>
<text text-anchor="middle" x="426" y="-313.013" font-family="Helvetica,sans-Serif" font-size="10.00">x265::Lookahead::scenecut</text>
</a>
</g>
</g>
<!-- Node11&#45;&gt;Node31 -->
<g id="edge35" class="edge"><title>Node11&#45;&gt;Node31</title>
<path fill="none" stroke="midnightblue" d="M279.36,-270.582C298.62,-277.912 322.395,-286.609 344,-293.513 354.733,-296.944 366.373,-300.309 377.392,-303.335"/>
<polygon fill="midnightblue" stroke="midnightblue" points="376.727,-306.781 387.294,-306.012 378.553,-300.024 376.727,-306.781"/>
</g>
<!-- Node33 -->
<g id="node33" class="node"><title>Node33</title>
<g id="a_node33"><a xlink:href="classx265_1_1Lookahead.html#a694b3e0d0fb30e4e5b149cd3d79a839d" target="_top" xlink:title="x265::Lookahead::slicetypePath">
<polygon fill="white" stroke="black" points="348,-186.013 348,-205.013 504,-205.013 504,-186.013 348,-186.013"/>
<text text-anchor="middle" x="426" y="-193.013" font-family="Helvetica,sans-Serif" font-size="10.00">x265::Lookahead::slicetypePath</text>
</a>
</g>
</g>
<!-- Node11&#45;&gt;Node33 -->
<g id="edge39" class="edge"><title>Node11&#45;&gt;Node33</title>
<path fill="none" stroke="midnightblue" d="M287.431,-240.373C317.906,-230.436 357.305,-217.588 386.124,-208.19"/>
<polygon fill="midnightblue" stroke="midnightblue" points="387.422,-211.448 395.845,-205.021 385.252,-204.793 387.422,-211.448"/>
</g>
<!-- Node35 -->
<g id="node35" class="node"><title>Node35</title>
<g id="a_node35"><a xlink:href="classx265_1_1Lookahead.html#ad80879ec65df8318fbb5109388dcfa39" target="_top" xlink:title="x265::Lookahead::vbvLookahead">
<polygon fill="white" stroke="black" points="346,-265.013 346,-284.013 506,-284.013 506,-265.013 346,-265.013"/>
<text text-anchor="middle" x="426" y="-272.013" font-family="Helvetica,sans-Serif" font-size="10.00">x265::Lookahead::vbvLookahead</text>
</a>
</g>
</g>
<!-- Node11&#45;&gt;Node35 -->
<g id="edge43" class="edge"><title>Node11&#45;&gt;Node35</title>
<path fill="none" stroke="midnightblue" d="M308.209,-262.454C317.181,-263.38 326.492,-264.341 335.766,-265.299"/>
<polygon fill="midnightblue" stroke="midnightblue" points="335.49,-268.789 345.797,-266.335 336.209,-261.826 335.49,-268.789"/>
</g>
<!-- Node12&#45;&gt;Node13 -->
<g id="edge12" class="edge"><title>Node12&#45;&gt;Node13</title>
<path fill="none" stroke="midnightblue" d="M489.533,-93.2927C546.953,-98.9678 633.818,-110.826 706,-134.513 733.752,-143.621 763.108,-158.791 784.8,-171.192"/>
<polygon fill="midnightblue" stroke="midnightblue" points="783.197,-174.308 793.601,-176.312 786.717,-168.258 783.197,-174.308"/>
</g>
<!-- Node29 -->
<g id="node29" class="node"><title>Node29</title>
<g id="a_node29"><a xlink:href="classx265_1_1Lookahead.html#ab9797d1bdb6f5d879c95945d96b04465" target="_top" xlink:title="x265::Lookahead::estimate\lCUPropagate">
<polygon fill="white" stroke="black" points="558,-51.5135 558,-81.5135 692,-81.5135 692,-51.5135 558,-51.5135"/>
<text text-anchor="start" x="566" y="-69.5135" font-family="Helvetica,sans-Serif" font-size="10.00">x265::Lookahead::estimate</text>
<text text-anchor="middle" x="625" y="-58.5135" font-family="Helvetica,sans-Serif" font-size="10.00">CUPropagate</text>
</a>
</g>
</g>
<!-- Node12&#45;&gt;Node29 -->
<g id="edge32" class="edge"><title>Node12&#45;&gt;Node29</title>
<path fill="none" stroke="midnightblue" d="M489.603,-81.5223C508.119,-79.4544 528.597,-77.1676 547.868,-75.0155"/>
<polygon fill="midnightblue" stroke="midnightblue" points="548.269,-78.4926 557.819,-73.9042 547.492,-71.5358 548.269,-78.4926"/>
</g>
<!-- Node30 -->
<g id="node30" class="node"><title>Node30</title>
<g id="a_node30"><a xlink:href="classx265_1_1Lookahead.html#af2d1422f3e2483911cb873c8d5ff27ec" target="_top" xlink:title="x265::Lookahead::cuTreeFinish">
<polygon fill="white" stroke="black" points="742.5,-35.0135 742.5,-54.0135 895.5,-54.0135 895.5,-35.0135 742.5,-35.0135"/>
<text text-anchor="middle" x="819" y="-42.0135" font-family="Helvetica,sans-Serif" font-size="10.00">x265::Lookahead::cuTreeFinish</text>
</a>
</g>
</g>
<!-- Node12&#45;&gt;Node30 -->
<g id="edge34" class="edge"><title>Node12&#45;&gt;Node30</title>
<path fill="none" stroke="midnightblue" d="M444.584,-78.9619C466.925,-67.4204 507.034,-48.6608 544,-41.5135 606.089,-29.5087 677.578,-30.7803 731.962,-34.7771"/>
<polygon fill="midnightblue" stroke="midnightblue" points="732.015,-38.2918 742.257,-35.5811 732.56,-31.3131 732.015,-38.2918"/>
</g>
<!-- Node14 -->
<g id="node14" class="node"><title>Node14</title>
<g id="a_node14"><a xlink:href="classx265_1_1CostEstimate.html#a97a70c43a6dc0ede9d048a1dc8af59ed" target="_top" xlink:title="x265::CostEstimate\l::weightsAnalyse">
<polygon fill="white" stroke="black" points="945,-273.513 945,-303.513 1049,-303.513 1049,-273.513 945,-273.513"/>
<text text-anchor="start" x="953" y="-291.513" font-family="Helvetica,sans-Serif" font-size="10.00">x265::CostEstimate</text>
<text text-anchor="middle" x="997" y="-280.513" font-family="Helvetica,sans-Serif" font-size="10.00">::weightsAnalyse</text>
</a>
</g>
</g>
<!-- Node13&#45;&gt;Node14 -->
<g id="edge13" class="edge"><title>Node13&#45;&gt;Node14</title>
<path fill="none" stroke="midnightblue" d="M840.721,-206.622C862.654,-222.181 898.645,-246.492 932,-263.513 935.993,-265.551 940.192,-267.529 944.452,-269.421"/>
<polygon fill="midnightblue" stroke="midnightblue" points="943.245,-272.711 953.816,-273.416 945.991,-266.273 943.245,-272.711"/>
</g>
<!-- Node17 -->
<g id="node17" class="node"><title>Node17</title>
<g id="a_node17"><a xlink:href="classx265_1_1EstimateRow.html#abbf6cfd575ceb20105ae92c0ad2711e2" target="_top" xlink:title="x265::EstimateRow::init">
<polygon fill="white" stroke="black" points="936,-137.013 936,-156.013 1058,-156.013 1058,-137.013 936,-137.013"/>
<text text-anchor="middle" x="997" y="-144.013" font-family="Helvetica,sans-Serif" font-size="10.00">x265::EstimateRow::init</text>
</a>
</g>
</g>
<!-- Node13&#45;&gt;Node17 -->
<g id="edge17" class="edge"><title>Node13&#45;&gt;Node17</title>
<path fill="none" stroke="midnightblue" d="M873.762,-177.767C897.714,-171.643 925.676,-164.494 948.806,-158.58"/>
<polygon fill="midnightblue" stroke="midnightblue" points="949.907,-161.911 958.729,-156.043 948.173,-155.129 949.907,-161.911"/>
</g>
<!-- Node18 -->
<g id="node18" class="node"><title>Node18</title>
<g id="a_node18"><a xlink:href="classx265_1_1MotionEstimate.html#ac697505bf39a6a42796f76bcc971eba3" target="_top" xlink:title="x265::MotionEstimate\l::setSourcePlane">
<polygon fill="white" stroke="black" points="941,-87.5135 941,-117.513 1053,-117.513 1053,-87.5135 941,-87.5135"/>
<text text-anchor="start" x="949" y="-105.513" font-family="Helvetica,sans-Serif" font-size="10.00">x265::MotionEstimate</text>
<text text-anchor="middle" x="997" y="-94.5135" font-family="Helvetica,sans-Serif" font-size="10.00">::setSourcePlane</text>
</a>
</g>
</g>
<!-- Node13&#45;&gt;Node18 -->
<g id="edge18" class="edge"><title>Node13&#45;&gt;Node18</title>
<path fill="none" stroke="midnightblue" d="M843.919,-176.477C866.228,-162.785 900.68,-142.48 932,-127.513 936.282,-125.467 940.778,-123.454 945.319,-121.511"/>
<polygon fill="midnightblue" stroke="midnightblue" points="946.755,-124.705 954.648,-117.638 944.071,-118.24 946.755,-124.705"/>
</g>
<!-- Node19 -->
<g id="node19" class="node"><title>Node19</title>
<g id="a_node19"><a xlink:href="classx265_1_1JobProvider.html#a18b4ca907c73a70fd1a3d19951e715f5" target="_top" xlink:title="x265::JobProvider::\lenqueue">
<polygon fill="white" stroke="black" points="946.5,-224.513 946.5,-254.513 1047.5,-254.513 1047.5,-224.513 946.5,-224.513"/>
<text text-anchor="start" x="954.5" y="-242.513" font-family="Helvetica,sans-Serif" font-size="10.00">x265::JobProvider::</text>
<text text-anchor="middle" x="997" y="-231.513" font-family="Helvetica,sans-Serif" font-size="10.00">enqueue</text>
</a>
</g>
</g>
<!-- Node13&#45;&gt;Node19 -->
<g id="edge19" class="edge"><title>Node13&#45;&gt;Node19</title>
<path fill="none" stroke="midnightblue" d="M873.762,-206.176C893.656,-211.602 916.317,-217.782 936.677,-223.335"/>
<polygon fill="midnightblue" stroke="midnightblue" points="935.897,-226.749 946.466,-226.004 937.739,-219.996 935.897,-226.749"/>
</g>
<!-- Node22 -->
<g id="node22" class="node"><title>Node22</title>
<g id="a_node22"><a xlink:href="classx265_1_1WaveFront.html#a7e9bb7c12ce745c308ada7e889a8227e" target="_top" xlink:title="x265::WaveFront::enqueueRow">
<polygon fill="white" stroke="black" points="1098.5,-4.01346 1098.5,-23.0135 1253.5,-23.0135 1253.5,-4.01346 1098.5,-4.01346"/>
<text text-anchor="middle" x="1176" y="-11.0135" font-family="Helvetica,sans-Serif" font-size="10.00">x265::WaveFront::enqueueRow</text>
</a>
</g>
</g>
<!-- Node13&#45;&gt;Node22 -->
<g id="edge22" class="edge"><title>Node13&#45;&gt;Node22</title>
<path fill="none" stroke="midnightblue" d="M828.065,-176.478C848.238,-139.488 901.45,-45.8116 932,-28.5135 986.482,2.33517 1059.27,2.50685 1110.94,-2.82616"/>
<polygon fill="midnightblue" stroke="midnightblue" points="1110.65,-6.31573 1120.98,-3.9587 1111.44,0.640164 1110.65,-6.31573"/>
</g>
<!-- Node23 -->
<g id="node23" class="node"><title>Node23</title>
<g id="a_node23"><a xlink:href="classx265_1_1WaveFront.html#a2d24a9c2629a6c16c96ecdc85993d77c" target="_top" xlink:title="x265::WaveFront::findJob">
<polygon fill="white" stroke="black" points="932.5,-323.013 932.5,-342.013 1061.5,-342.013 1061.5,-323.013 932.5,-323.013"/>
<text text-anchor="middle" x="997" y="-330.013" font-family="Helvetica,sans-Serif" font-size="10.00">x265::WaveFront::findJob</text>
</a>
</g>
</g>
<!-- Node13&#45;&gt;Node23 -->
<g id="edge24" class="edge"><title>Node13&#45;&gt;Node23</title>
<path fill="none" stroke="midnightblue" d="M834.382,-206.653C849.736,-222.86 874.732,-249.37 896,-272.513 912.184,-290.124 911.869,-299.598 932,-312.513 935.852,-314.985 940.03,-317.169 944.343,-319.095"/>
<polygon fill="midnightblue" stroke="midnightblue" points="943.342,-322.464 953.927,-322.913 945.933,-315.961 943.342,-322.464"/>
</g>
<!-- Node25 -->
<g id="node25" class="node"><title>Node25</title>
<g id="a_node25"><a xlink:href="classx265_1_1JobProvider.html#aad43fe7bf62d5d3656046fcf0888e7b8" target="_top" xlink:title="x265::JobProvider::\ldequeue">
<polygon fill="white" stroke="black" points="946.5,-175.513 946.5,-205.513 1047.5,-205.513 1047.5,-175.513 946.5,-175.513"/>
<text text-anchor="start" x="954.5" y="-193.513" font-family="Helvetica,sans-Serif" font-size="10.00">x265::JobProvider::</text>
<text text-anchor="middle" x="997" y="-182.513" font-family="Helvetica,sans-Serif" font-size="10.00">dequeue</text>
</a>
</g>
</g>
<!-- Node13&#45;&gt;Node25 -->
<g id="edge26" class="edge"><title>Node13&#45;&gt;Node25</title>
<path fill="none" stroke="midnightblue" d="M873.762,-191.208C893.566,-191.095 916.111,-190.967 936.399,-190.852"/>
<polygon fill="midnightblue" stroke="midnightblue" points="936.486,-194.352 946.466,-190.795 936.446,-187.352 936.486,-194.352"/>
</g>
<!-- Node27 -->
<g id="node27" class="node"><title>Node27</title>
<g id="a_node27"><a xlink:href="classx265_1_1CostEstimate.html#a239a71996364d7662e9c9c32b82d6c9f" target="_top" xlink:title="x265::CostEstimate\l::processRow">
<polygon fill="white" stroke="black" points="945,-38.5135 945,-68.5135 1049,-68.5135 1049,-38.5135 945,-38.5135"/>
<text text-anchor="start" x="953" y="-56.5135" font-family="Helvetica,sans-Serif" font-size="10.00">x265::CostEstimate</text>
<text text-anchor="middle" x="997" y="-45.5135" font-family="Helvetica,sans-Serif" font-size="10.00">::processRow</text>
</a>
</g>
</g>
<!-- Node13&#45;&gt;Node27 -->
<g id="edge29" class="edge"><title>Node13&#45;&gt;Node27</title>
<path fill="none" stroke="midnightblue" d="M831.438,-176.137C850.066,-152.059 889.2,-105.341 932,-77.5135 934.425,-75.9368 936.968,-74.4427 939.586,-73.0299"/>
<polygon fill="midnightblue" stroke="midnightblue" points="941.281,-76.0965 948.704,-68.5372 938.187,-69.8172 941.281,-76.0965"/>
</g>
<!-- Node14&#45;&gt;Node9 -->
<g id="edge16" class="edge"><title>Node14&#45;&gt;Node9</title>
<path fill="none" stroke="midnightblue" d="M1048.6,-303.66C1053.48,-306.431 1058.07,-309.689 1062,-313.513 1091.42,-342.111 1066.78,-371.894 1098,-398.513 1111.28,-409.837 1130.29,-414.605 1146.09,-416.534"/>
<polygon fill="midnightblue" stroke="midnightblue" points="1146.14,-420.052 1156.41,-417.461 1146.77,-413.08 1146.14,-420.052"/>
</g>
<!-- Node15 -->
<g id="node15" class="node"><title>Node15</title>
<g id="a_node15"><a xlink:href="structx265_1_1WeightParam.html#ade2d5601abcbd58f276e3a1699bebd77" target="_top" xlink:title="x265::WeightParam::\lsetFromWeightAndOffset">
<polygon fill="white" stroke="black" points="1112,-320.513 1112,-350.513 1240,-350.513 1240,-320.513 1112,-320.513"/>
<text text-anchor="start" x="1120" y="-338.513" font-family="Helvetica,sans-Serif" font-size="10.00">x265::WeightParam::</text>
<text text-anchor="middle" x="1176" y="-327.513" font-family="Helvetica,sans-Serif" font-size="10.00">setFromWeightAndOffset</text>
</a>
</g>
</g>
<!-- Node14&#45;&gt;Node15 -->
<g id="edge14" class="edge"><title>Node14&#45;&gt;Node15</title>
<path fill="none" stroke="midnightblue" d="M1049.2,-302.108C1067.71,-307.025 1088.9,-312.65 1108.53,-317.864"/>
<polygon fill="midnightblue" stroke="midnightblue" points="1107.77,-321.283 1118.33,-320.467 1109.57,-314.517 1107.77,-321.283"/>
</g>
<!-- Node16 -->
<g id="node16" class="node"><title>Node16</title>
<g id="a_node16"><a xlink:href="classx265_1_1CostEstimate.html#a0cbdff1f1c55dcec0820ddef993eafee" target="_top" xlink:title="x265::CostEstimate\l::weightCostLuma">
<polygon fill="white" stroke="black" points="1124,-271.513 1124,-301.513 1228,-301.513 1228,-271.513 1124,-271.513"/>
<text text-anchor="start" x="1132" y="-289.513" font-family="Helvetica,sans-Serif" font-size="10.00">x265::CostEstimate</text>
<text text-anchor="middle" x="1176" y="-278.513" font-family="Helvetica,sans-Serif" font-size="10.00">::weightCostLuma</text>
</a>
</g>
</g>
<!-- Node14&#45;&gt;Node16 -->
<g id="edge15" class="edge"><title>Node14&#45;&gt;Node16</title>
<path fill="none" stroke="midnightblue" d="M1049.2,-287.935C1069.38,-287.707 1092.72,-287.443 1113.79,-287.205"/>
<polygon fill="midnightblue" stroke="midnightblue" points="1113.96,-290.704 1123.92,-287.091 1113.88,-283.704 1113.96,-290.704"/>
</g>
<!-- Node20 -->
<g id="node20" class="node"><title>Node20</title>
<g id="a_node20"><a xlink:href="classx265_1_1ThreadPool.html#aded625482b82128d9ff1a3f3058129c1" target="_top" xlink:title="x265::ThreadPool::enqueue\lJobProvider">
<polygon fill="white" stroke="black" points="1108,-222.513 1108,-252.513 1244,-252.513 1244,-222.513 1108,-222.513"/>
<text text-anchor="start" x="1116" y="-240.513" font-family="Helvetica,sans-Serif" font-size="10.00">x265::ThreadPool::enqueue</text>
<text text-anchor="middle" x="1176" y="-229.513" font-family="Helvetica,sans-Serif" font-size="10.00">JobProvider</text>
</a>
</g>
</g>
<!-- Node19&#45;&gt;Node20 -->
<g id="edge20" class="edge"><title>Node19&#45;&gt;Node20</title>
<path fill="none" stroke="midnightblue" d="M1047.78,-238.951C1063.19,-238.777 1080.55,-238.581 1097.38,-238.391"/>
<polygon fill="midnightblue" stroke="midnightblue" points="1097.81,-241.886 1107.77,-238.273 1097.73,-234.886 1097.81,-241.886"/>
</g>
<!-- Node21 -->
<g id="node21" class="node"><title>Node21</title>
<g id="a_node21"><a xlink:href="classx265_1_1ThreadPool.html#a47277b980acec1c3114d1374ba304b85" target="_top" xlink:title="x265::ThreadPool::pokeIdle\lThread">
<polygon fill="white" stroke="black" points="1290,-140.513 1290,-170.513 1426,-170.513 1426,-140.513 1290,-140.513"/>
<text text-anchor="start" x="1298" y="-158.513" font-family="Helvetica,sans-Serif" font-size="10.00">x265::ThreadPool::pokeIdle</text>
<text text-anchor="middle" x="1358" y="-147.513" font-family="Helvetica,sans-Serif" font-size="10.00">Thread</text>
</a>
</g>
</g>
<!-- Node19&#45;&gt;Node21 -->
<g id="edge21" class="edge"><title>Node19&#45;&gt;Node21</title>
<path fill="none" stroke="midnightblue" d="M1047.71,-225.511C1063.72,-221.158 1081.57,-216.467 1098,-212.513 1166.9,-195.937 1184.82,-194.889 1254,-179.513 1263.54,-177.392 1273.57,-175.115 1283.48,-172.839"/>
<polygon fill="midnightblue" stroke="midnightblue" points="1284.35,-176.228 1293.31,-170.568 1282.78,-169.407 1284.35,-176.228"/>
</g>
<!-- Node22&#45;&gt;Node21 -->
<g id="edge23" class="edge"><title>Node22&#45;&gt;Node21</title>
<path fill="none" stroke="midnightblue" d="M1233.79,-23.1209C1240.88,-25.5731 1247.81,-28.6507 1254,-32.5135 1294.13,-57.5473 1326.34,-103.487 1343.48,-131.585"/>
<polygon fill="midnightblue" stroke="midnightblue" points="1340.59,-133.567 1348.71,-140.374 1346.6,-129.99 1340.59,-133.567"/>
</g>
<!-- Node24 -->
<g id="node24" class="node"><title>Node24</title>
<g id="a_node24"><a xlink:href="classx265_1_1WaveFront.html#aa44b94082205421580868d288487dd0c" target="_top" xlink:title="x265::WaveFront::processRow">
<polygon fill="white" stroke="black" points="1100,-370.013 1100,-389.013 1252,-389.013 1252,-370.013 1100,-370.013"/>
<text text-anchor="middle" x="1176" y="-377.013" font-family="Helvetica,sans-Serif" font-size="10.00">x265::WaveFront::processRow</text>
</a>
</g>
</g>
<!-- Node23&#45;&gt;Node24 -->
<g id="edge25" class="edge"><title>Node23&#45;&gt;Node24</title>
<path fill="none" stroke="midnightblue" d="M1033.15,-342.092C1052.31,-347.291 1076.44,-353.804 1098,-359.513 1107.71,-362.086 1118.12,-364.812 1128.05,-367.396"/>
<polygon fill="midnightblue" stroke="midnightblue" points="1127.22,-370.795 1137.77,-369.921 1128.98,-364.019 1127.22,-370.795"/>
</g>
<!-- Node25&#45;&gt;Node21 -->
<g id="edge28" class="edge"><title>Node25&#45;&gt;Node21</title>
<path fill="none" stroke="midnightblue" d="M1047.57,-184.89C1063.65,-183.112 1081.58,-181.177 1098,-179.513 1159.07,-173.325 1228.32,-166.942 1279.83,-162.315"/>
<polygon fill="midnightblue" stroke="midnightblue" points="1280.24,-165.793 1289.89,-161.414 1279.62,-158.82 1280.24,-165.793"/>
</g>
<!-- Node26 -->
<g id="node26" class="node"><title>Node26</title>
<g id="a_node26"><a xlink:href="classx265_1_1ThreadPool.html#a360b412a2c2a49143e4611ff790d9462" target="_top" xlink:title="x265::ThreadPool::dequeue\lJobProvider">
<polygon fill="white" stroke="black" points="1108,-96.5135 1108,-126.513 1244,-126.513 1244,-96.5135 1108,-96.5135"/>
<text text-anchor="start" x="1116" y="-114.513" font-family="Helvetica,sans-Serif" font-size="10.00">x265::ThreadPool::dequeue</text>
<text text-anchor="middle" x="1176" y="-103.513" font-family="Helvetica,sans-Serif" font-size="10.00">JobProvider</text>
</a>
</g>
</g>
<!-- Node25&#45;&gt;Node26 -->
<g id="edge27" class="edge"><title>Node25&#45;&gt;Node26</title>
<path fill="none" stroke="midnightblue" d="M1040.23,-175.512C1047.61,-172.47 1055.12,-169.095 1062,-165.513 1079.05,-156.63 1080.94,-150.389 1098,-141.513 1105.59,-137.563 1113.83,-133.825 1121.99,-130.414"/>
<polygon fill="midnightblue" stroke="midnightblue" points="1123.55,-133.561 1131.51,-126.568 1120.92,-127.072 1123.55,-133.561"/>
</g>
<!-- Node27&#45;&gt;Node22 -->
<g id="edge31" class="edge"><title>Node27&#45;&gt;Node22</title>
<path fill="none" stroke="midnightblue" d="M1049.2,-41.9438C1072.32,-36.7181 1099.6,-30.5524 1122.84,-25.301"/>
<polygon fill="midnightblue" stroke="midnightblue" points="1123.88,-28.654 1132.86,-23.0357 1122.34,-21.8262 1123.88,-28.654"/>
</g>
<!-- Node28 -->
<g id="node28" class="node"><title>Node28</title>
<g id="a_node28"><a xlink:href="classx265_1_1EstimateRow.html#ab4418a4e826e746d0b9cdce75a0736d9" target="_top" xlink:title="x265::EstimateRow::\lestimateCUCost">
<polygon fill="white" stroke="red" points="1121.5,-42.5135 1121.5,-72.5135 1230.5,-72.5135 1230.5,-42.5135 1121.5,-42.5135"/>
<text text-anchor="start" x="1129.5" y="-60.5135" font-family="Helvetica,sans-Serif" font-size="10.00">x265::EstimateRow::</text>
<text text-anchor="middle" x="1176" y="-49.5135" font-family="Helvetica,sans-Serif" font-size="10.00">estimateCUCost</text>
</a>
</g>
</g>
<!-- Node27&#45;&gt;Node28 -->
<g id="edge30" class="edge"><title>Node27&#45;&gt;Node28</title>
<path fill="none" stroke="midnightblue" d="M1049.2,-54.6704C1068.59,-55.1086 1090.9,-55.6129 1111.3,-56.074"/>
<polygon fill="midnightblue" stroke="midnightblue" points="1111.38,-59.5765 1121.46,-56.3034 1111.54,-52.5783 1111.38,-59.5765"/>
</g>
<!-- Node29&#45;&gt;Node30 -->
<g id="edge33" class="edge"><title>Node29&#45;&gt;Node30</title>
<path fill="none" stroke="midnightblue" d="M692.076,-58.9423C704.955,-57.4665 718.633,-55.8992 732.047,-54.3623"/>
<polygon fill="midnightblue" stroke="midnightblue" points="732.698,-57.8106 742.235,-53.1949 731.902,-50.8561 732.698,-57.8106"/>
</g>
<!-- Node32 -->
<g id="node32" class="node"><title>Node32</title>
<g id="a_node32"><a xlink:href="classx265_1_1Lookahead.html#abe59d19601dc7f3cc76ba3dd315140ee" target="_top" xlink:title="x265::Lookahead::scenecut\lInternal">
<polygon fill="white" stroke="black" points="556.5,-303.513 556.5,-333.513 693.5,-333.513 693.5,-303.513 556.5,-303.513"/>
<text text-anchor="start" x="564.5" y="-321.513" font-family="Helvetica,sans-Serif" font-size="10.00">x265::Lookahead::scenecut</text>
<text text-anchor="middle" x="625" y="-310.513" font-family="Helvetica,sans-Serif" font-size="10.00">Internal</text>
</a>
</g>
</g>
<!-- Node31&#45;&gt;Node32 -->
<g id="edge36" class="edge"><title>Node31&#45;&gt;Node32</title>
<path fill="none" stroke="midnightblue" d="M494.521,-316.542C511.031,-316.793 528.835,-317.064 545.799,-317.323"/>
<polygon fill="midnightblue" stroke="midnightblue" points="546.181,-320.829 556.233,-317.481 546.288,-313.83 546.181,-320.829"/>
</g>
<!-- Node32&#45;&gt;Node10 -->
<g id="edge38" class="edge"><title>Node32&#45;&gt;Node10</title>
<path fill="none" stroke="midnightblue" d="M691.539,-333.533C721.328,-340.359 755.484,-348.187 780.783,-353.985"/>
<polygon fill="midnightblue" stroke="midnightblue" points="780.172,-357.435 790.701,-356.258 781.736,-350.612 780.172,-357.435"/>
</g>
<!-- Node32&#45;&gt;Node13 -->
<g id="edge37" class="edge"><title>Node32&#45;&gt;Node13</title>
<path fill="none" stroke="midnightblue" d="M684.935,-303.361C692.239,-300.545 699.436,-297.278 706,-293.513 742.936,-272.326 777.952,-237.138 798.702,-214.135"/>
<polygon fill="midnightblue" stroke="midnightblue" points="801.411,-216.354 805.426,-206.549 796.173,-211.711 801.411,-216.354"/>
</g>
<!-- Node34 -->
<g id="node34" class="node"><title>Node34</title>
<g id="a_node34"><a xlink:href="classx265_1_1Lookahead.html#a23cd684acae2cb60daeb2f6df390e30e" target="_top" xlink:title="x265::Lookahead::slicetype\lPathCost">
<polygon fill="white" stroke="black" points="557,-177.513 557,-207.513 693,-207.513 693,-177.513 557,-177.513"/>
<text text-anchor="start" x="565" y="-195.513" font-family="Helvetica,sans-Serif" font-size="10.00">x265::Lookahead::slicetype</text>
<text text-anchor="middle" x="625" y="-184.513" font-family="Helvetica,sans-Serif" font-size="10.00">PathCost</text>
</a>
</g>
</g>
<!-- Node33&#45;&gt;Node34 -->
<g id="edge40" class="edge"><title>Node33&#45;&gt;Node34</title>
<path fill="none" stroke="midnightblue" d="M504.012,-194.341C518.08,-194.126 532.762,-193.903 546.834,-193.689"/>
<polygon fill="midnightblue" stroke="midnightblue" points="547.01,-197.186 556.956,-193.534 546.904,-190.187 547.01,-197.186"/>
</g>
<!-- Node34&#45;&gt;Node13 -->
<g id="edge41" class="edge"><title>Node34&#45;&gt;Node13</title>
<path fill="none" stroke="midnightblue" d="M693.152,-192.164C713.043,-192.06 734.755,-191.947 754.413,-191.845"/>
<polygon fill="midnightblue" stroke="midnightblue" points="754.504,-195.344 764.485,-191.792 754.467,-188.344 754.504,-195.344"/>
</g>
<!-- Node36 -->
<g id="node36" class="node"><title>Node36</title>
<g id="a_node36"><a xlink:href="classx265_1_1Lookahead.html#ad963fd74581c61eaf7713367906b3e96" target="_top" xlink:title="x265::Lookahead::vbvFrameCost">
<polygon fill="white" stroke="black" points="544.5,-265.013 544.5,-284.013 705.5,-284.013 705.5,-265.013 544.5,-265.013"/>
<text text-anchor="middle" x="625" y="-272.013" font-family="Helvetica,sans-Serif" font-size="10.00">x265::Lookahead::vbvFrameCost</text>
</a>
</g>
</g>
<!-- Node35&#45;&gt;Node36 -->
<g id="edge44" class="edge"><title>Node35&#45;&gt;Node36</title>
<path fill="none" stroke="midnightblue" d="M506.276,-274.513C515.462,-274.513 524.881,-274.513 534.195,-274.513"/>
<polygon fill="midnightblue" stroke="midnightblue" points="534.245,-278.014 544.245,-274.513 534.245,-271.014 534.245,-278.014"/>
</g>
<!-- Node36&#45;&gt;Node13 -->
<g id="edge45" class="edge"><title>Node36&#45;&gt;Node13</title>
<path fill="none" stroke="midnightblue" d="M663.157,-264.985C676.829,-261.058 692.31,-256.111 706,-250.513 733.056,-239.451 762.229,-223.958 784.017,-211.624"/>
<polygon fill="midnightblue" stroke="midnightblue" points="785.935,-214.559 792.875,-206.554 782.457,-208.484 785.935,-214.559"/>
</g>
<!-- Node37 -->
<g id="node37" class="node"><title>Node37</title>
<g id="a_node37"><a xlink:href="classx265_1_1Lookahead.html#a9a76af299443c51828478d5c036cc2bc" target="_top" xlink:title="x265::Lookahead::frameCost\lRecalculate">
<polygon fill="white" stroke="black" points="747.5,-281.513 747.5,-311.513 890.5,-311.513 890.5,-281.513 747.5,-281.513"/>
<text text-anchor="start" x="755.5" y="-299.513" font-family="Helvetica,sans-Serif" font-size="10.00">x265::Lookahead::frameCost</text>
<text text-anchor="middle" x="819" y="-288.513" font-family="Helvetica,sans-Serif" font-size="10.00">Recalculate</text>
</a>
</g>
</g>
<!-- Node36&#45;&gt;Node37 -->
<g id="edge46" class="edge"><title>Node36&#45;&gt;Node37</title>
<path fill="none" stroke="midnightblue" d="M705.757,-283.652C716.22,-284.851 726.947,-286.08 737.423,-287.281"/>
<polygon fill="midnightblue" stroke="midnightblue" points="737.04,-290.76 747.373,-288.421 737.837,-283.805 737.04,-290.76"/>
</g>
<!-- Node38 -->
<g id="node38" class="node"><title>Node38</title>
<g id="a_node38"><a xlink:href="common_8cpp.html#ac466459518e3d7434dd4f8b9a36317bb" target="_top" xlink:title="x265_exp2fix8">
<polygon fill="white" stroke="black" points="957,-361.013 957,-380.013 1037,-380.013 1037,-361.013 957,-361.013"/>
<text text-anchor="middle" x="997" y="-368.013" font-family="Helvetica,sans-Serif" font-size="10.00">x265_exp2fix8</text>
</a>
</g>
</g>
<!-- Node37&#45;&gt;Node38 -->
<g id="edge47" class="edge"><title>Node37&#45;&gt;Node38</title>
<path fill="none" stroke="midnightblue" d="M847.492,-311.632C869.814,-323.509 902.34,-339.923 932,-351.513 937.88,-353.811 944.155,-355.991 950.391,-358"/>
<polygon fill="midnightblue" stroke="midnightblue" points="949.508,-361.39 960.096,-361.007 951.58,-354.704 949.508,-361.39"/>
</g>
</g>
</svg>
