<?xml version="1.0" encoding="UTF-8" standalone="no"?>
<!DOCTYPE svg PUBLIC "-//W3C//DTD SVG 1.1//EN"
 "http://www.w3.org/Graphics/SVG/1.1/DTD/svg11.dtd">
<!-- Generated by graphviz version 2.36.0 (20140111.2315)
 -->
<!-- Title: x265::CUData::addMVPCandOrder Pages: 1 -->
<svg width="532pt" height="241pt"
 viewBox="0.00 0.00 532.00 241.00" xmlns="http://www.w3.org/2000/svg" xmlns:xlink="http://www.w3.org/1999/xlink">
<g id="graph0" class="graph" transform="scale(1 1) rotate(0) translate(4 237)">
<title>x265::CUData::addMVPCandOrder</title>
<polygon fill="white" stroke="none" points="-4,4 -4,-237 528,-237 528,4 -4,4"/>
<!-- Node1 -->
<g id="node1" class="node"><title>Node1</title>
<polygon fill="#bfbfbf" stroke="black" points="0,-104 0,-134 146,-134 146,-104 0,-104"/>
<text text-anchor="start" x="8" y="-122" font-family="Helvetica,sans-Serif" font-size="10.00">x265::CUData::addMVPCand</text>
<text text-anchor="middle" x="73" y="-111" font-family="Helvetica,sans-Serif" font-size="10.00">Order</text>
</g>
<!-- Node2 -->
<g id="node2" class="node"><title>Node2</title>
<g id="a_node2"><a xlink:href="classx265_1_1CUData.html#a790220d1a24b35b6be3f205334c961b9" target="_top" xlink:title="x265::CUData::getPULeft">
<polygon fill="white" stroke="black" points="196,-213.5 196,-232.5 326,-232.5 326,-213.5 196,-213.5"/>
<text text-anchor="middle" x="261" y="-220.5" font-family="Helvetica,sans-Serif" font-size="10.00">x265::CUData::getPULeft</text>
</a>
</g>
</g>
<!-- Node1&#45;&gt;Node2 -->
<g id="edge1" class="edge"><title>Node1&#45;&gt;Node2</title>
<path fill="none" stroke="midnightblue" d="M88.9914,-134.316C108.61,-153.471 144.882,-185.939 182,-204 186.935,-206.401 192.197,-208.513 197.569,-210.368"/>
<polygon fill="midnightblue" stroke="midnightblue" points="196.72,-213.77 207.31,-213.437 198.823,-207.094 196.72,-213.77"/>
</g>
<!-- Node4 -->
<g id="node4" class="node"><title>Node4</title>
<g id="a_node4"><a xlink:href="classx265_1_1CUData.html#a1776d2850dab48b37a6ffac109e02fdb" target="_top" xlink:title="x265::CUData::getPUAbove">
<polygon fill="white" stroke="black" points="190.5,-175.5 190.5,-194.5 331.5,-194.5 331.5,-175.5 190.5,-175.5"/>
<text text-anchor="middle" x="261" y="-182.5" font-family="Helvetica,sans-Serif" font-size="10.00">x265::CUData::getPUAbove</text>
</a>
</g>
</g>
<!-- Node1&#45;&gt;Node4 -->
<g id="edge3" class="edge"><title>Node1&#45;&gt;Node4</title>
<path fill="none" stroke="midnightblue" d="M106.111,-134.195C127.335,-143.858 155.944,-156.167 182,-165 190.369,-167.837 199.361,-170.492 208.157,-172.883"/>
<polygon fill="midnightblue" stroke="midnightblue" points="207.401,-176.303 217.962,-175.465 209.183,-169.533 207.401,-176.303"/>
</g>
<!-- Node5 -->
<g id="node5" class="node"><title>Node5</title>
<g id="a_node5"><a xlink:href="classx265_1_1CUData.html#a281022b469dc71e6f08586624a286f35" target="_top" xlink:title="x265::CUData::getPUAbove\lRight">
<polygon fill="white" stroke="black" points="190.5,-126 190.5,-156 331.5,-156 331.5,-126 190.5,-126"/>
<text text-anchor="start" x="198.5" y="-144" font-family="Helvetica,sans-Serif" font-size="10.00">x265::CUData::getPUAbove</text>
<text text-anchor="middle" x="261" y="-133" font-family="Helvetica,sans-Serif" font-size="10.00">Right</text>
</a>
</g>
</g>
<!-- Node1&#45;&gt;Node5 -->
<g id="edge5" class="edge"><title>Node1&#45;&gt;Node5</title>
<path fill="none" stroke="midnightblue" d="M146.179,-127.537C157.281,-128.85 168.8,-130.213 180.058,-131.545"/>
<polygon fill="midnightblue" stroke="midnightblue" points="179.963,-135.058 190.305,-132.757 180.786,-128.106 179.963,-135.058"/>
</g>
<!-- Node6 -->
<g id="node6" class="node"><title>Node6</title>
<g id="a_node6"><a xlink:href="classx265_1_1CUData.html#aaf883ffae61fbe3bc5d88c54cb725c65" target="_top" xlink:title="x265::CUData::getPUBelowLeft">
<polygon fill="white" stroke="black" points="182.5,-87.5 182.5,-106.5 339.5,-106.5 339.5,-87.5 182.5,-87.5"/>
<text text-anchor="middle" x="261" y="-94.5" font-family="Helvetica,sans-Serif" font-size="10.00">x265::CUData::getPUBelowLeft</text>
</a>
</g>
</g>
<!-- Node1&#45;&gt;Node6 -->
<g id="edge7" class="edge"><title>Node1&#45;&gt;Node6</title>
<path fill="none" stroke="midnightblue" d="M146.179,-110.463C154.693,-109.456 163.452,-108.42 172.151,-107.391"/>
<polygon fill="midnightblue" stroke="midnightblue" points="172.797,-110.839 182.317,-106.188 171.975,-103.887 172.797,-110.839"/>
</g>
<!-- Node7 -->
<g id="node7" class="node"><title>Node7</title>
<g id="a_node7"><a xlink:href="classx265_1_1CUData.html#ad1ad60ca75127ee52e217c987dfc2814" target="_top" xlink:title="x265::CUData::getPUAboveLeft">
<polygon fill="white" stroke="black" points="182,-49.5 182,-68.5 340,-68.5 340,-49.5 182,-49.5"/>
<text text-anchor="middle" x="261" y="-56.5" font-family="Helvetica,sans-Serif" font-size="10.00">x265::CUData::getPUAboveLeft</text>
</a>
</g>
</g>
<!-- Node1&#45;&gt;Node7 -->
<g id="edge9" class="edge"><title>Node1&#45;&gt;Node7</title>
<path fill="none" stroke="midnightblue" d="M110.594,-103.813C131.325,-95.5383 157.865,-85.4891 182,-78 190.037,-75.5062 198.621,-73.1318 207.048,-70.9594"/>
<polygon fill="midnightblue" stroke="midnightblue" points="207.978,-74.3347 216.825,-68.5067 206.274,-67.545 207.978,-74.3347"/>
</g>
<!-- Node8 -->
<g id="node8" class="node"><title>Node8</title>
<g id="a_node8"><a xlink:href="classx265_1_1CUData.html#ac4a238cd025b199704cb9497df53df2a" target="_top" xlink:title="x265::CUData::getDistScale\lFactor">
<polygon fill="white" stroke="black" points="190,-0 190,-30 332,-30 332,-0 190,-0"/>
<text text-anchor="start" x="198" y="-18" font-family="Helvetica,sans-Serif" font-size="10.00">x265::CUData::getDistScale</text>
<text text-anchor="middle" x="261" y="-7" font-family="Helvetica,sans-Serif" font-size="10.00">Factor</text>
</a>
</g>
</g>
<!-- Node1&#45;&gt;Node8 -->
<g id="edge11" class="edge"><title>Node1&#45;&gt;Node8</title>
<path fill="none" stroke="midnightblue" d="M91.182,-103.689C111.576,-86.1946 147.219,-57.7049 182,-40 186.479,-37.72 191.208,-35.593 196.033,-33.6203"/>
<polygon fill="midnightblue" stroke="midnightblue" points="197.314,-36.8774 205.388,-30.017 194.798,-30.3451 197.314,-36.8774"/>
</g>
<!-- Node3 -->
<g id="node3" class="node"><title>Node3</title>
<g id="a_node3"><a xlink:href="classx265_1_1FrameData.html#a83d98df913873a07c3ce59bd5c16b2e4" target="_top" xlink:title="x265::FrameData::getPicCTU">
<polygon fill="white" stroke="black" points="376.5,-131.5 376.5,-150.5 523.5,-150.5 523.5,-131.5 376.5,-131.5"/>
<text text-anchor="middle" x="450" y="-138.5" font-family="Helvetica,sans-Serif" font-size="10.00">x265::FrameData::getPicCTU</text>
</a>
</g>
</g>
<!-- Node2&#45;&gt;Node3 -->
<g id="edge2" class="edge"><title>Node2&#45;&gt;Node3</title>
<path fill="none" stroke="midnightblue" d="M310.527,-213.454C320.442,-210.874 330.686,-207.736 340,-204 371.772,-191.254 405.468,-170.522 426.84,-156.348"/>
<polygon fill="midnightblue" stroke="midnightblue" points="428.863,-159.205 435.204,-150.717 424.954,-153.398 428.863,-159.205"/>
</g>
<!-- Node4&#45;&gt;Node3 -->
<g id="edge4" class="edge"><title>Node4&#45;&gt;Node3</title>
<path fill="none" stroke="midnightblue" d="M302.576,-175.453C330.757,-168.822 368.501,-159.941 398.61,-152.857"/>
<polygon fill="midnightblue" stroke="midnightblue" points="399.57,-156.226 408.503,-150.529 397.967,-149.412 399.57,-156.226"/>
</g>
<!-- Node5&#45;&gt;Node3 -->
<g id="edge6" class="edge"><title>Node5&#45;&gt;Node3</title>
<path fill="none" stroke="midnightblue" d="M331.632,-141C342.956,-141 354.781,-141 366.38,-141"/>
<polygon fill="midnightblue" stroke="midnightblue" points="366.496,-144.5 376.496,-141 366.496,-137.5 366.496,-144.5"/>
</g>
<!-- Node6&#45;&gt;Node3 -->
<g id="edge8" class="edge"><title>Node6&#45;&gt;Node3</title>
<path fill="none" stroke="midnightblue" d="M302.576,-106.547C330.757,-113.178 368.501,-122.059 398.61,-129.143"/>
<polygon fill="midnightblue" stroke="midnightblue" points="397.967,-132.588 408.503,-131.471 399.57,-125.774 397.967,-132.588"/>
</g>
<!-- Node7&#45;&gt;Node3 -->
<g id="edge10" class="edge"><title>Node7&#45;&gt;Node3</title>
<path fill="none" stroke="midnightblue" d="M310.527,-68.5462C320.442,-71.1262 330.686,-74.2638 340,-78 371.772,-90.7458 405.468,-111.478 426.84,-125.652"/>
<polygon fill="midnightblue" stroke="midnightblue" points="424.954,-128.602 435.204,-131.283 428.863,-122.795 424.954,-128.602"/>
</g>
<!-- Node9 -->
<g id="node9" class="node"><title>Node9</title>
<g id="a_node9"><a xlink:href="common_8h.html#a0bc45c2b4097068046b78520c8c09a94" target="_top" xlink:title="Clip3">
<polygon fill="white" stroke="black" points="430.5,-5.5 430.5,-24.5 469.5,-24.5 469.5,-5.5 430.5,-5.5"/>
<text text-anchor="middle" x="450" y="-12.5" font-family="Helvetica,sans-Serif" font-size="10.00">Clip3</text>
</a>
</g>
</g>
<!-- Node8&#45;&gt;Node9 -->
<g id="edge12" class="edge"><title>Node8&#45;&gt;Node9</title>
<path fill="none" stroke="midnightblue" d="M332.164,-15C362.583,-15 396.522,-15 419.949,-15"/>
<polygon fill="midnightblue" stroke="midnightblue" points="420.232,-18.5001 430.232,-15 420.232,-11.5001 420.232,-18.5001"/>
</g>
</g>
</svg>
