<?xml version="1.0" encoding="UTF-8" standalone="no"?>
<!DOCTYPE svg PUBLIC "-//W3C//DTD SVG 1.1//EN"
 "http://www.w3.org/Graphics/SVG/1.1/DTD/svg11.dtd">
<!-- Generated by graphviz version 2.36.0 (20140111.2315)
 -->
<!-- Title: x265::Entropy::finishSlice Pages: 1 -->
<svg width="604pt" height="115pt"
 viewBox="0.00 0.00 604.00 115.00" xmlns="http://www.w3.org/2000/svg" xmlns:xlink="http://www.w3.org/1999/xlink">
<g id="graph0" class="graph" transform="scale(1 1) rotate(0) translate(4 111)">
<title>x265::Entropy::finishSlice</title>
<polygon fill="white" stroke="none" points="-4,4 -4,-111 600,-111 600,4 -4,4"/>
<!-- Node1 -->
<g id="node1" class="node"><title>Node1</title>
<polygon fill="#bfbfbf" stroke="black" points="0,-68.5 0,-87.5 128,-87.5 128,-68.5 0,-68.5"/>
<text text-anchor="middle" x="64" y="-75.5" font-family="Helvetica,sans-Serif" font-size="10.00">x265::Entropy::finishSlice</text>
</g>
<!-- Node2 -->
<g id="node2" class="node"><title>Node2</title>
<g id="a_node2"><a xlink:href="classx265_1_1Entropy.html#a381bcaf744ffe20a018626dc7f7d7933" target="_top" xlink:title="x265::Entropy::encodeBinTrm">
<polygon fill="white" stroke="black" points="164,-87.5 164,-106.5 310,-106.5 310,-87.5 164,-87.5"/>
<text text-anchor="middle" x="237" y="-94.5" font-family="Helvetica,sans-Serif" font-size="10.00">x265::Entropy::encodeBinTrm</text>
</a>
</g>
</g>
<!-- Node1&#45;&gt;Node2 -->
<g id="edge1" class="edge"><title>Node1&#45;&gt;Node2</title>
<path fill="none" stroke="midnightblue" d="M128.188,-85.0209C136.531,-85.9479 145.178,-86.9087 153.781,-87.8646"/>
<polygon fill="midnightblue" stroke="midnightblue" points="153.513,-91.3563 163.839,-88.9821 154.287,-84.3991 153.513,-91.3563"/>
</g>
<!-- Node5 -->
<g id="node5" class="node"><title>Node5</title>
<g id="a_node5"><a xlink:href="classx265_1_1Entropy.html#a0672b197f2e8af0bf962e6047601e2b6" target="_top" xlink:title="x265::Entropy::finish">
<polygon fill="white" stroke="black" points="183.5,-49.5 183.5,-68.5 290.5,-68.5 290.5,-49.5 183.5,-49.5"/>
<text text-anchor="middle" x="237" y="-56.5" font-family="Helvetica,sans-Serif" font-size="10.00">x265::Entropy::finish</text>
</a>
</g>
</g>
<!-- Node1&#45;&gt;Node5 -->
<g id="edge4" class="edge"><title>Node1&#45;&gt;Node5</title>
<path fill="none" stroke="midnightblue" d="M128.188,-70.9791C142.953,-69.3386 158.672,-67.592 173.41,-65.9544"/>
<polygon fill="midnightblue" stroke="midnightblue" points="173.881,-69.4238 183.433,-64.8408 173.108,-62.4666 173.881,-69.4238"/>
</g>
<!-- Node3 -->
<g id="node3" class="node"><title>Node3</title>
<g id="a_node3"><a xlink:href="classx265_1_1Entropy.html#a38c906d03fe47f10456a3d5bc0cd2080" target="_top" xlink:title="x265::Entropy::writeOut">
<polygon fill="white" stroke="black" points="346,-87.5 346,-106.5 466,-106.5 466,-87.5 346,-87.5"/>
<text text-anchor="middle" x="406" y="-94.5" font-family="Helvetica,sans-Serif" font-size="10.00">x265::Entropy::writeOut</text>
</a>
</g>
</g>
<!-- Node2&#45;&gt;Node3 -->
<g id="edge2" class="edge"><title>Node2&#45;&gt;Node3</title>
<path fill="none" stroke="midnightblue" d="M310.277,-97C318.738,-97 327.355,-97 335.773,-97"/>
<polygon fill="midnightblue" stroke="midnightblue" points="335.917,-100.5 345.917,-97 335.917,-93.5001 335.917,-100.5"/>
</g>
<!-- Node4 -->
<g id="node4" class="node"><title>Node4</title>
<g id="a_node4"><a xlink:href="classx265_1_1BitInterface.html#a0ab2614d14b086091eefc0ed19f3be6d" target="_top" xlink:title="x265::BitInterface\l::writeByte">
<polygon fill="white" stroke="black" points="502,-63 502,-93 596,-93 596,-63 502,-63"/>
<text text-anchor="start" x="510" y="-81" font-family="Helvetica,sans-Serif" font-size="10.00">x265::BitInterface</text>
<text text-anchor="middle" x="549" y="-70" font-family="Helvetica,sans-Serif" font-size="10.00">::writeByte</text>
</a>
</g>
</g>
<!-- Node3&#45;&gt;Node4 -->
<g id="edge3" class="edge"><title>Node3&#45;&gt;Node4</title>
<path fill="none" stroke="midnightblue" d="M466.388,-88.9974C474.842,-87.8582 483.515,-86.6895 491.903,-85.5591"/>
<polygon fill="midnightblue" stroke="midnightblue" points="492.518,-89.008 501.961,-84.2038 491.583,-82.0707 492.518,-89.008"/>
</g>
<!-- Node5&#45;&gt;Node4 -->
<g id="edge5" class="edge"><title>Node5&#45;&gt;Node4</title>
<path fill="none" stroke="midnightblue" d="M290.587,-62.2231C346.366,-65.6418 434.173,-71.0235 491.424,-74.5325"/>
<polygon fill="midnightblue" stroke="midnightblue" points="491.549,-78.0466 501.744,-75.165 491.977,-71.0597 491.549,-78.0466"/>
</g>
<!-- Node6 -->
<g id="node6" class="node"><title>Node6</title>
<g id="a_node6"><a xlink:href="classx265_1_1BitInterface.html#a28a79d8b25645cdd59d6ff004d4851dc" target="_top" xlink:title="x265::BitInterface\l::write">
<polygon fill="white" stroke="black" points="359,-0 359,-30 453,-30 453,-0 359,-0"/>
<text text-anchor="start" x="367" y="-18" font-family="Helvetica,sans-Serif" font-size="10.00">x265::BitInterface</text>
<text text-anchor="middle" x="406" y="-7" font-family="Helvetica,sans-Serif" font-size="10.00">::write</text>
</a>
</g>
</g>
<!-- Node5&#45;&gt;Node6 -->
<g id="edge6" class="edge"><title>Node5&#45;&gt;Node6</title>
<path fill="none" stroke="midnightblue" d="M274.237,-49.4527C296.074,-43.6992 324.341,-36.2514 349.005,-29.7532"/>
<polygon fill="midnightblue" stroke="midnightblue" points="350.189,-33.0606 358.968,-27.1283 348.406,-26.2916 350.189,-33.0606"/>
</g>
</g>
</svg>
