<?xml version="1.0" encoding="UTF-8" standalone="no"?>
<!DOCTYPE svg PUBLIC "-//W3C//DTD SVG 1.1//EN"
 "http://www.w3.org/Graphics/SVG/1.1/DTD/svg11.dtd">
<!-- Generated by graphviz version 2.36.0 (20140111.2315)
 -->
<!-- Title: x265::Predict::addWeightBi Pages: 1 -->
<svg width="2318pt" height="239pt"
 viewBox="0.00 0.00 2318.00 239.00" xmlns="http://www.w3.org/2000/svg" xmlns:xlink="http://www.w3.org/1999/xlink">
<g id="graph0" class="graph" transform="scale(1 1) rotate(0) translate(4 235)">
<title>x265::Predict::addWeightBi</title>
<polygon fill="white" stroke="none" points="-4,4 -4,-235 2314,-235 2314,4 -4,4"/>
<!-- Node1 -->
<g id="node1" class="node"><title>Node1</title>
<polygon fill="#bfbfbf" stroke="black" points="0,-114.5 0,-133.5 136,-133.5 136,-114.5 0,-114.5"/>
<text text-anchor="middle" x="68" y="-121.5" font-family="Helvetica,sans-Serif" font-size="10.00">x265::Predict::addWeightBi</text>
</g>
<!-- Node2 -->
<g id="node2" class="node"><title>Node2</title>
<g id="a_node2"><a xlink:href="classx265_1_1Predict.html#ab23a30d88a19749b5ddd7892d19e202f" target="_top" xlink:title="x265::Predict::motionCompensation">
<polygon fill="white" stroke="black" points="172.5,-114.5 172.5,-133.5 345.5,-133.5 345.5,-114.5 172.5,-114.5"/>
<text text-anchor="middle" x="259" y="-121.5" font-family="Helvetica,sans-Serif" font-size="10.00">x265::Predict::motionCompensation</text>
</a>
</g>
</g>
<!-- Node1&#45;&gt;Node2 -->
<g id="edge1" class="edge"><title>Node1&#45;&gt;Node2</title>
<path fill="none" stroke="midnightblue" d="M146.421,-124C154.921,-124 163.612,-124 172.206,-124"/>
<polygon fill="midnightblue" stroke="midnightblue" points="146.167,-120.5 136.166,-124 146.166,-127.5 146.167,-120.5"/>
</g>
<!-- Node3 -->
<g id="node3" class="node"><title>Node3</title>
<g id="a_node3"><a xlink:href="classx265_1_1Analysis.html#a87060ff27a37f56adc5f5b8a4c033ece" target="_top" xlink:title="x265::Analysis::compress\lInterCU_dist">
<polygon fill="white" stroke="black" points="1262,-159 1262,-189 1392,-189 1392,-159 1262,-159"/>
<text text-anchor="start" x="1270" y="-177" font-family="Helvetica,sans-Serif" font-size="10.00">x265::Analysis::compress</text>
<text text-anchor="middle" x="1327" y="-166" font-family="Helvetica,sans-Serif" font-size="10.00">InterCU_dist</text>
</a>
</g>
</g>
<!-- Node2&#45;&gt;Node3 -->
<g id="edge2" class="edge"><title>Node2&#45;&gt;Node3</title>
<path fill="none" stroke="midnightblue" d="M285.707,-138.326C309.883,-151.234 347.431,-169.846 382,-181 495.649,-217.672 526.581,-231 646,-231 646,-231 646,-231 1006,-231 1101.79,-231 1211.24,-205.938 1274.12,-189.051"/>
<polygon fill="midnightblue" stroke="midnightblue" points="287.284,-135.201 276.824,-133.519 283.952,-141.357 287.284,-135.201"/>
</g>
<!-- Node10 -->
<g id="node10" class="node"><title>Node10</title>
<g id="a_node10"><a xlink:href="classx265_1_1Analysis.html#a30d2ff7eca5addbb0a6b3dfe14f09650" target="_top" xlink:title="x265::Analysis::compress\lInterCU_rd0_4">
<polygon fill="white" stroke="black" points="940,-131 940,-161 1070,-161 1070,-131 940,-131"/>
<text text-anchor="start" x="948" y="-149" font-family="Helvetica,sans-Serif" font-size="10.00">x265::Analysis::compress</text>
<text text-anchor="middle" x="1005" y="-138" font-family="Helvetica,sans-Serif" font-size="10.00">InterCU_rd0_4</text>
</a>
</g>
</g>
<!-- Node2&#45;&gt;Node10 -->
<g id="edge9" class="edge"><title>Node2&#45;&gt;Node10</title>
<path fill="none" stroke="midnightblue" d="M356.109,-126.842C510.36,-131.403 809.11,-140.237 939.974,-144.107"/>
<polygon fill="midnightblue" stroke="midnightblue" points="355.808,-123.332 345.709,-126.534 355.602,-130.329 355.808,-123.332"/>
</g>
<!-- Node11 -->
<g id="node11" class="node"><title>Node11</title>
<g id="a_node11"><a xlink:href="classx265_1_1Analysis.html#addd72cb95590e2b2a6965d42d110eab3" target="_top" xlink:title="x265::Analysis::checkMerge2\lNx2N_rd0_4">
<polygon fill="white" stroke="black" points="758,-172 758,-202 904,-202 904,-172 758,-172"/>
<text text-anchor="start" x="766" y="-190" font-family="Helvetica,sans-Serif" font-size="10.00">x265::Analysis::checkMerge2</text>
<text text-anchor="middle" x="831" y="-179" font-family="Helvetica,sans-Serif" font-size="10.00">Nx2N_rd0_4</text>
</a>
</g>
</g>
<!-- Node2&#45;&gt;Node11 -->
<g id="edge11" class="edge"><title>Node2&#45;&gt;Node11</title>
<path fill="none" stroke="midnightblue" d="M298.919,-136.636C322.666,-143.815 353.784,-152.287 382,-157 513.284,-178.93 668.743,-184.952 757.722,-186.531"/>
<polygon fill="midnightblue" stroke="midnightblue" points="299.81,-133.248 289.223,-133.653 297.752,-139.939 299.81,-133.248"/>
</g>
<!-- Node12 -->
<g id="node12" class="node"><title>Node12</title>
<g id="a_node12"><a xlink:href="classx265_1_1Analysis.html#a0194a9da53aa95173fa1132ba3aea1c7" target="_top" xlink:title="x265::Analysis::checkMerge2\lNx2N_rd5_6">
<polygon fill="white" stroke="black" points="574,-0 574,-30 720,-30 720,-0 574,-0"/>
<text text-anchor="start" x="582" y="-18" font-family="Helvetica,sans-Serif" font-size="10.00">x265::Analysis::checkMerge2</text>
<text text-anchor="middle" x="647" y="-7" font-family="Helvetica,sans-Serif" font-size="10.00">Nx2N_rd5_6</text>
</a>
</g>
</g>
<!-- Node2&#45;&gt;Node12 -->
<g id="edge14" class="edge"><title>Node2&#45;&gt;Node12</title>
<path fill="none" stroke="midnightblue" d="M279.499,-108.068C302.49,-90.224 342.584,-61.9758 382,-48 444.363,-25.888 519.597,-18.1895 573.769,-15.6975"/>
<polygon fill="midnightblue" stroke="midnightblue" points="277.233,-105.398 271.561,-114.346 281.576,-110.888 277.233,-105.398"/>
</g>
<!-- Node14 -->
<g id="node14" class="node"><title>Node14</title>
<g id="a_node14"><a xlink:href="classx265_1_1Search.html#a761560ef5d3ff0beb48567c88c771d55" target="_top" xlink:title="x265::Search::mergeEstimation">
<polygon fill="white" stroke="black" points="382,-57.5 382,-76.5 536,-76.5 536,-57.5 382,-57.5"/>
<text text-anchor="middle" x="459" y="-64.5" font-family="Helvetica,sans-Serif" font-size="10.00">x265::Search::mergeEstimation</text>
</a>
</g>
</g>
<!-- Node2&#45;&gt;Node14 -->
<g id="edge17" class="edge"><title>Node2&#45;&gt;Node14</title>
<path fill="none" stroke="midnightblue" d="M303.022,-111.615C339.578,-101.091 391.303,-86.2007 424.751,-76.5716"/>
<polygon fill="midnightblue" stroke="midnightblue" points="301.782,-108.33 293.141,-114.459 303.719,-115.056 301.782,-108.33"/>
</g>
<!-- Node15 -->
<g id="node15" class="node"><title>Node15</title>
<g id="a_node15"><a xlink:href="classx265_1_1Search.html#a48101e3d900e93b97a83f461be390bd1" target="_top" xlink:title="x265::Search::predInterSearch">
<polygon fill="white" stroke="black" points="572.5,-58.5 572.5,-77.5 721.5,-77.5 721.5,-58.5 572.5,-58.5"/>
<text text-anchor="middle" x="647" y="-65.5" font-family="Helvetica,sans-Serif" font-size="10.00">x265::Search::predInterSearch</text>
</a>
</g>
</g>
<!-- Node2&#45;&gt;Node15 -->
<g id="edge26" class="edge"><title>Node2&#45;&gt;Node15</title>
<path fill="none" stroke="midnightblue" d="M343.018,-113.129C397.854,-105.811 471.274,-95.7499 536,-86 553.413,-83.377 572.346,-80.3443 589.518,-77.5247"/>
<polygon fill="midnightblue" stroke="midnightblue" points="342.452,-109.673 333.001,-114.463 343.376,-116.612 342.452,-109.673"/>
</g>
<!-- Node4 -->
<g id="node4" class="node"><title>Node4</title>
<g id="a_node4"><a xlink:href="classx265_1_1Analysis.html#aaebc9de2ff98834c650244f3b58942c2" target="_top" xlink:title="x265::Analysis::compressCTU">
<polygon fill="white" stroke="black" points="1428.5,-104.5 1428.5,-123.5 1579.5,-123.5 1579.5,-104.5 1428.5,-104.5"/>
<text text-anchor="middle" x="1504" y="-111.5" font-family="Helvetica,sans-Serif" font-size="10.00">x265::Analysis::compressCTU</text>
</a>
</g>
</g>
<!-- Node3&#45;&gt;Node4 -->
<g id="edge3" class="edge"><title>Node3&#45;&gt;Node4</title>
<path fill="none" stroke="midnightblue" d="M1381.93,-155.509C1412.82,-144.92 1450.28,-132.077 1475.27,-123.507"/>
<polygon fill="midnightblue" stroke="midnightblue" points="1380.48,-152.305 1372.16,-158.859 1382.75,-158.927 1380.48,-152.305"/>
</g>
<!-- Node5 -->
<g id="node5" class="node"><title>Node5</title>
<g id="a_node5"><a xlink:href="classx265_1_1FrameEncoder.html#a0ae85001572afd28238476542523ac5f" target="_top" xlink:title="x265::FrameEncoder\l::processRowEncoder">
<polygon fill="white" stroke="black" points="1616.5,-99 1616.5,-129 1729.5,-129 1729.5,-99 1616.5,-99"/>
<text text-anchor="start" x="1624.5" y="-117" font-family="Helvetica,sans-Serif" font-size="10.00">x265::FrameEncoder</text>
<text text-anchor="middle" x="1673" y="-106" font-family="Helvetica,sans-Serif" font-size="10.00">::processRowEncoder</text>
</a>
</g>
</g>
<!-- Node4&#45;&gt;Node5 -->
<g id="edge4" class="edge"><title>Node4&#45;&gt;Node5</title>
<path fill="none" stroke="midnightblue" d="M1589.86,-114C1598.86,-114 1607.85,-114 1616.39,-114"/>
<polygon fill="midnightblue" stroke="midnightblue" points="1589.71,-110.5 1579.71,-114 1589.71,-117.5 1589.71,-110.5"/>
</g>
<!-- Node6 -->
<g id="node6" class="node"><title>Node6</title>
<g id="a_node6"><a xlink:href="classx265_1_1FrameEncoder.html#acad645a8ece97d884895f8f7366b7d70" target="_top" xlink:title="x265::FrameEncoder\l::processRow">
<polygon fill="white" stroke="black" points="1766.5,-99 1766.5,-129 1873.5,-129 1873.5,-99 1766.5,-99"/>
<text text-anchor="start" x="1774.5" y="-117" font-family="Helvetica,sans-Serif" font-size="10.00">x265::FrameEncoder</text>
<text text-anchor="middle" x="1820" y="-106" font-family="Helvetica,sans-Serif" font-size="10.00">::processRow</text>
</a>
</g>
</g>
<!-- Node5&#45;&gt;Node6 -->
<g id="edge5" class="edge"><title>Node5&#45;&gt;Node6</title>
<path fill="none" stroke="midnightblue" d="M1739.88,-114C1748.67,-114 1757.59,-114 1766.13,-114"/>
<polygon fill="midnightblue" stroke="midnightblue" points="1739.65,-110.5 1729.65,-114 1739.65,-117.5 1739.65,-110.5"/>
</g>
<!-- Node7 -->
<g id="node7" class="node"><title>Node7</title>
<g id="a_node7"><a xlink:href="classx265_1_1FrameEncoder.html#ac4e9ce2e876c0cdb25c992c872fe4302" target="_top" xlink:title="x265::FrameEncoder\l::compressCTURows">
<polygon fill="white" stroke="black" points="1910,-99 1910,-129 2022,-129 2022,-99 1910,-99"/>
<text text-anchor="start" x="1918" y="-117" font-family="Helvetica,sans-Serif" font-size="10.00">x265::FrameEncoder</text>
<text text-anchor="middle" x="1966" y="-106" font-family="Helvetica,sans-Serif" font-size="10.00">::compressCTURows</text>
</a>
</g>
</g>
<!-- Node6&#45;&gt;Node7 -->
<g id="edge6" class="edge"><title>Node6&#45;&gt;Node7</title>
<path fill="none" stroke="midnightblue" d="M1883.83,-114C1892.48,-114 1901.3,-114 1909.79,-114"/>
<polygon fill="midnightblue" stroke="midnightblue" points="1883.8,-110.5 1873.8,-114 1883.8,-117.5 1883.8,-110.5"/>
</g>
<!-- Node8 -->
<g id="node8" class="node"><title>Node8</title>
<g id="a_node8"><a xlink:href="classx265_1_1FrameEncoder.html#a2f5c4c0f1a4e36fce4c9b87eb7ec4973" target="_top" xlink:title="x265::FrameEncoder\l::compressFrame">
<polygon fill="white" stroke="black" points="2058.5,-99 2058.5,-129 2165.5,-129 2165.5,-99 2058.5,-99"/>
<text text-anchor="start" x="2066.5" y="-117" font-family="Helvetica,sans-Serif" font-size="10.00">x265::FrameEncoder</text>
<text text-anchor="middle" x="2112" y="-106" font-family="Helvetica,sans-Serif" font-size="10.00">::compressFrame</text>
</a>
</g>
</g>
<!-- Node7&#45;&gt;Node8 -->
<g id="edge7" class="edge"><title>Node7&#45;&gt;Node8</title>
<path fill="none" stroke="midnightblue" d="M2032.42,-114C2041.15,-114 2050.02,-114 2058.49,-114"/>
<polygon fill="midnightblue" stroke="midnightblue" points="2032.26,-110.5 2022.26,-114 2032.26,-117.5 2032.26,-110.5"/>
</g>
<!-- Node9 -->
<g id="node9" class="node"><title>Node9</title>
<g id="a_node9"><a xlink:href="classx265_1_1FrameEncoder.html#aef61f29b9e93b3af9255d96236bc90a7" target="_top" xlink:title="x265::FrameEncoder\l::threadMain">
<polygon fill="white" stroke="black" points="2202.5,-99 2202.5,-129 2309.5,-129 2309.5,-99 2202.5,-99"/>
<text text-anchor="start" x="2210.5" y="-117" font-family="Helvetica,sans-Serif" font-size="10.00">x265::FrameEncoder</text>
<text text-anchor="middle" x="2256" y="-106" font-family="Helvetica,sans-Serif" font-size="10.00">::threadMain</text>
</a>
</g>
</g>
<!-- Node8&#45;&gt;Node9 -->
<g id="edge8" class="edge"><title>Node8&#45;&gt;Node9</title>
<path fill="none" stroke="midnightblue" d="M2175.99,-114C2184.7,-114 2193.58,-114 2202.08,-114"/>
<polygon fill="midnightblue" stroke="midnightblue" points="2175.88,-110.5 2165.88,-114 2175.88,-117.5 2175.88,-110.5"/>
</g>
<!-- Node10&#45;&gt;Node4 -->
<g id="edge10" class="edge"><title>Node10&#45;&gt;Node4</title>
<path fill="none" stroke="midnightblue" d="M1080.3,-135.659C1088.96,-134.657 1097.66,-133.74 1106,-133 1218.03,-123.054 1348.35,-118.07 1428.24,-115.763"/>
<polygon fill="midnightblue" stroke="midnightblue" points="1079.71,-132.204 1070.2,-136.868 1080.54,-139.155 1079.71,-132.204"/>
</g>
<!-- Node11&#45;&gt;Node3 -->
<g id="edge12" class="edge"><title>Node11&#45;&gt;Node3</title>
<path fill="none" stroke="midnightblue" d="M914.217,-184.836C1011.84,-182.267 1172.6,-178.037 1261.63,-175.694"/>
<polygon fill="midnightblue" stroke="midnightblue" points="914.001,-181.341 904.096,-185.103 914.185,-188.338 914.001,-181.341"/>
</g>
<!-- Node11&#45;&gt;Node10 -->
<g id="edge13" class="edge"><title>Node11&#45;&gt;Node10</title>
<path fill="none" stroke="midnightblue" d="M905.008,-169.597C916.959,-166.748 929.253,-163.818 940.938,-161.032"/>
<polygon fill="midnightblue" stroke="midnightblue" points="903.986,-166.242 895.07,-171.966 905.609,-173.052 903.986,-166.242"/>
</g>
<!-- Node13 -->
<g id="node13" class="node"><title>Node13</title>
<g id="a_node13"><a xlink:href="classx265_1_1Analysis.html#a0b22b7765aa4a36b1ba6d07ba26901e6" target="_top" xlink:title="x265::Analysis::compress\lInterCU_rd5_6">
<polygon fill="white" stroke="black" points="940,-33 940,-63 1070,-63 1070,-33 940,-33"/>
<text text-anchor="start" x="948" y="-51" font-family="Helvetica,sans-Serif" font-size="10.00">x265::Analysis::compress</text>
<text text-anchor="middle" x="1005" y="-40" font-family="Helvetica,sans-Serif" font-size="10.00">InterCU_rd5_6</text>
</a>
</g>
</g>
<!-- Node12&#45;&gt;Node13 -->
<g id="edge15" class="edge"><title>Node12&#45;&gt;Node13</title>
<path fill="none" stroke="midnightblue" d="M730.218,-14.3164C780.587,-14.8618 846.255,-17.3004 904,-25 918.038,-26.8718 933.001,-29.7992 946.961,-32.9459"/>
<polygon fill="midnightblue" stroke="midnightblue" points="730.063,-10.815 720.033,-14.2295 730.003,-17.8148 730.063,-10.815"/>
</g>
<!-- Node13&#45;&gt;Node4 -->
<g id="edge16" class="edge"><title>Node13&#45;&gt;Node4</title>
<path fill="none" stroke="midnightblue" d="M1080.29,-57.8657C1175.06,-70.4504 1337.84,-92.0675 1431.33,-104.483"/>
<polygon fill="midnightblue" stroke="midnightblue" points="1080.58,-54.3739 1070.21,-56.5269 1079.66,-61.313 1080.58,-54.3739"/>
</g>
<!-- Node14&#45;&gt;Node15 -->
<g id="edge18" class="edge"><title>Node14&#45;&gt;Node15</title>
<path fill="none" stroke="midnightblue" d="M546.336,-67.4642C555.024,-67.5109 563.791,-67.558 572.33,-67.6039"/>
<polygon fill="midnightblue" stroke="midnightblue" points="546.209,-63.9635 536.19,-67.4096 546.171,-70.9634 546.209,-63.9635"/>
</g>
<!-- Node16 -->
<g id="node16" class="node"><title>Node16</title>
<g id="a_node16"><a xlink:href="classx265_1_1Analysis.html#a2305f7985af66b49fdbc40ebb1b281d2" target="_top" xlink:title="x265::Analysis::checkInter\l_rd0_4">
<polygon fill="white" stroke="black" points="764.5,-84 764.5,-114 897.5,-114 897.5,-84 764.5,-84"/>
<text text-anchor="start" x="772.5" y="-102" font-family="Helvetica,sans-Serif" font-size="10.00">x265::Analysis::checkInter</text>
<text text-anchor="middle" x="831" y="-91" font-family="Helvetica,sans-Serif" font-size="10.00">_rd0_4</text>
</a>
</g>
</g>
<!-- Node15&#45;&gt;Node16 -->
<g id="edge19" class="edge"><title>Node15&#45;&gt;Node16</title>
<path fill="none" stroke="midnightblue" d="M714.084,-79.2561C730.407,-82.0364 747.89,-85.0142 764.199,-87.7922"/>
<polygon fill="midnightblue" stroke="midnightblue" points="714.537,-75.7829 704.091,-77.554 713.361,-82.6835 714.537,-75.7829"/>
</g>
<!-- Node19 -->
<g id="node19" class="node"><title>Node19</title>
<g id="a_node19"><a xlink:href="classx265_1_1Analysis.html#a828daa3e9f1ed40a1af9f99f7ff7bb33" target="_top" xlink:title="x265::Analysis::checkInter\l_rd5_6">
<polygon fill="white" stroke="black" points="764.5,-35 764.5,-65 897.5,-65 897.5,-35 764.5,-35"/>
<text text-anchor="start" x="772.5" y="-53" font-family="Helvetica,sans-Serif" font-size="10.00">x265::Analysis::checkInter</text>
<text text-anchor="middle" x="831" y="-42" font-family="Helvetica,sans-Serif" font-size="10.00">_rd5_6</text>
</a>
</g>
</g>
<!-- Node15&#45;&gt;Node19 -->
<g id="edge24" class="edge"><title>Node15&#45;&gt;Node19</title>
<path fill="none" stroke="midnightblue" d="M731.569,-59.7349C742.597,-58.6442 753.771,-57.5391 764.438,-56.4841"/>
<polygon fill="midnightblue" stroke="midnightblue" points="731.109,-56.2633 721.502,-60.7306 731.798,-63.2293 731.109,-56.2633"/>
</g>
<!-- Node16&#45;&gt;Node10 -->
<g id="edge23" class="edge"><title>Node16&#45;&gt;Node10</title>
<path fill="none" stroke="midnightblue" d="M896.853,-116.722C914.041,-121.418 932.431,-126.443 949.037,-130.981"/>
<polygon fill="midnightblue" stroke="midnightblue" points="897.464,-113.26 886.895,-114 895.619,-120.013 897.464,-113.26"/>
</g>
<!-- Node17 -->
<g id="node17" class="node"><title>Node17</title>
<g id="a_node17"><a xlink:href="classx265_1_1Analysis.html#aa6122285d10bb1bd7584958b88b029d5" target="_top" xlink:title="x265::Analysis::parallel\lModeAnalysis">
<polygon fill="white" stroke="black" points="946,-82 946,-112 1064,-112 1064,-82 946,-82"/>
<text text-anchor="start" x="954" y="-100" font-family="Helvetica,sans-Serif" font-size="10.00">x265::Analysis::parallel</text>
<text text-anchor="middle" x="1005" y="-89" font-family="Helvetica,sans-Serif" font-size="10.00">ModeAnalysis</text>
</a>
</g>
</g>
<!-- Node16&#45;&gt;Node17 -->
<g id="edge20" class="edge"><title>Node16&#45;&gt;Node17</title>
<path fill="none" stroke="midnightblue" d="M907.72,-98.1195C920.554,-97.9703 933.698,-97.8175 945.986,-97.6746"/>
<polygon fill="midnightblue" stroke="midnightblue" points="907.475,-94.622 897.516,-98.2382 907.557,-101.622 907.475,-94.622"/>
</g>
<!-- Node18 -->
<g id="node18" class="node"><title>Node18</title>
<g id="a_node18"><a xlink:href="classx265_1_1Analysis.html#a29a58dad4cc1c07d2f5e5717c6be7c25" target="_top" xlink:title="x265::Analysis::findJob">
<polygon fill="white" stroke="black" points="1106.5,-142.5 1106.5,-161.5 1225.5,-161.5 1225.5,-142.5 1106.5,-142.5"/>
<text text-anchor="middle" x="1166" y="-149.5" font-family="Helvetica,sans-Serif" font-size="10.00">x265::Analysis::findJob</text>
</a>
</g>
</g>
<!-- Node17&#45;&gt;Node18 -->
<g id="edge21" class="edge"><title>Node17&#45;&gt;Node18</title>
<path fill="none" stroke="midnightblue" d="M1059.21,-115.406C1085.3,-124.43 1115.64,-134.926 1137.12,-142.357"/>
<polygon fill="midnightblue" stroke="midnightblue" points="1060.04,-111.99 1049.45,-112.029 1057.75,-118.606 1060.04,-111.99"/>
</g>
<!-- Node18&#45;&gt;Node3 -->
<g id="edge22" class="edge"><title>Node18&#45;&gt;Node3</title>
<path fill="none" stroke="midnightblue" d="M1235.81,-161.521C1244.47,-162.719 1253.29,-163.94 1261.87,-165.127"/>
<polygon fill="midnightblue" stroke="midnightblue" points="1236.14,-158.033 1225.75,-160.129 1235.18,-164.967 1236.14,-158.033"/>
</g>
<!-- Node19&#45;&gt;Node13 -->
<g id="edge25" class="edge"><title>Node19&#45;&gt;Node13</title>
<path fill="none" stroke="midnightblue" d="M907.698,-49.1198C918.409,-48.9952 929.336,-48.8682 939.803,-48.7465"/>
<polygon fill="midnightblue" stroke="midnightblue" points="907.475,-45.622 897.516,-49.2382 907.557,-52.6216 907.475,-45.622"/>
</g>
</g>
</svg>
