<?xml version="1.0" encoding="UTF-8" standalone="no"?>
<!DOCTYPE svg PUBLIC "-//W3C//DTD SVG 1.1//EN"
 "http://www.w3.org/Graphics/SVG/1.1/DTD/svg11.dtd">
<!-- Generated by graphviz version 2.36.0 (20140111.2315)
 -->
<!-- Title: x265::ShortYuv Pages: 1 -->
<svg width="160pt" height="140pt"
 viewBox="0.00 0.00 160.00 140.00" xmlns="http://www.w3.org/2000/svg" xmlns:xlink="http://www.w3.org/1999/xlink">
<g id="graph0" class="graph" transform="scale(1 1) rotate(0) translate(4 136)">
<title>x265::ShortYuv</title>
<polygon fill="white" stroke="none" points="-4,4 -4,-136 156,-136 156,4 -4,4"/>
<!-- Node1 -->
<g id="node1" class="node"><title>Node1</title>
<polygon fill="#bfbfbf" stroke="black" points="13,-0.5 13,-19.5 97,-19.5 97,-0.5 13,-0.5"/>
<text text-anchor="middle" x="55" y="-7.5" font-family="Helvetica,sans-Serif" font-size="10.00">x265::ShortYuv</text>
</g>
<!-- Node2 -->
<g id="node2" class="node"><title>Node2</title>
<polygon fill="white" stroke="#bfbfbf" points="-0.5,-112.5 -0.5,-131.5 52.5,-131.5 52.5,-112.5 -0.5,-112.5"/>
<text text-anchor="middle" x="26" y="-119.5" font-family="Helvetica,sans-Serif" font-size="10.00">int16_t *</text>
</g>
<!-- Node2&#45;&gt;Node1 -->
<g id="edge1" class="edge"><title>Node2&#45;&gt;Node1</title>
<path fill="none" stroke="#9a32cd" stroke-dasharray="5,2" d="M24.0882,-101.902C23.1046,-84.5676 23.544,-58.6379 32,-38 34.8015,-31.1625 40.0304,-24.8025 44.7953,-19.9748"/>
<polygon fill="#9a32cd" stroke="#9a32cd" points="20.6377,-102.666 24.9155,-112.359 27.6158,-102.114 20.6377,-102.666"/>
<text text-anchor="middle" x="47.5" y="-63.5" font-family="Helvetica,sans-Serif" font-size="10.00"> m_buf</text>
</g>
<!-- Node3 -->
<g id="node3" class="node"><title>Node3</title>
<polygon fill="white" stroke="#bfbfbf" points="70.5,-112.5 70.5,-131.5 99.5,-131.5 99.5,-112.5 70.5,-112.5"/>
<text text-anchor="middle" x="85" y="-119.5" font-family="Helvetica,sans-Serif" font-size="10.00">int</text>
</g>
<!-- Node3&#45;&gt;Node1 -->
<g id="edge2" class="edge"><title>Node3&#45;&gt;Node1</title>
<path fill="none" stroke="#9a32cd" stroke-dasharray="5,2" d="M80.278,-102.569C75.923,-85.7221 69.2114,-60.1349 63,-38 61.3093,-31.9749 59.3093,-25.2249 57.7319,-19.9812"/>
<polygon fill="#9a32cd" stroke="#9a32cd" points="76.8885,-103.442 82.7707,-112.254 83.6676,-101.697 76.8885,-103.442"/>
<text text-anchor="middle" x="115" y="-85.5" font-family="Helvetica,sans-Serif" font-size="10.00"> m_size</text>
<text text-anchor="middle" x="115" y="-74.5" font-family="Helvetica,sans-Serif" font-size="10.00">m_vChromaShift</text>
<text text-anchor="middle" x="115" y="-63.5" font-family="Helvetica,sans-Serif" font-size="10.00">m_csp</text>
<text text-anchor="middle" x="115" y="-52.5" font-family="Helvetica,sans-Serif" font-size="10.00">m_hChromaShift</text>
<text text-anchor="middle" x="115" y="-41.5" font-family="Helvetica,sans-Serif" font-size="10.00">m_csize</text>
</g>
</g>
</svg>
