<?xml version="1.0" encoding="UTF-8" standalone="no"?>
<!DOCTYPE svg PUBLIC "-//W3C//DTD SVG 1.1//EN"
 "http://www.w3.org/Graphics/SVG/1.1/DTD/svg11.dtd">
<!-- Generated by graphviz version 2.36.0 (20140111.2315)
 -->
<!-- Title: MBDstHarness Pages: 1 -->
<svg width="196pt" height="278pt"
 viewBox="0.00 0.00 196.00 278.00" xmlns="http://www.w3.org/2000/svg" xmlns:xlink="http://www.w3.org/1999/xlink">
<g id="graph0" class="graph" transform="scale(1 1) rotate(0) translate(4 274)">
<title>MBDstHarness</title>
<polygon fill="white" stroke="none" points="-4,4 -4,-274 192,-274 192,4 -4,4"/>
<!-- Node1 -->
<g id="node1" class="node"><title>Node1</title>
<polygon fill="#bfbfbf" stroke="black" points="65,-0.5 65,-19.5 149,-19.5 149,-0.5 65,-0.5"/>
<text text-anchor="middle" x="107" y="-7.5" font-family="Helvetica,sans-Serif" font-size="10.00">MBDstHarness</text>
</g>
<!-- Node2 -->
<g id="node2" class="node"><title>Node2</title>
<g id="a_node2"><a xlink:href="classTestHarness.html" target="_top" xlink:title="TestHarness">
<polygon fill="white" stroke="black" points="16.5,-120.5 16.5,-139.5 89.5,-139.5 89.5,-120.5 16.5,-120.5"/>
<text text-anchor="middle" x="53" y="-127.5" font-family="Helvetica,sans-Serif" font-size="10.00">TestHarness</text>
</a>
</g>
</g>
<!-- Node2&#45;&gt;Node1 -->
<g id="edge1" class="edge"><title>Node2&#45;&gt;Node1</title>
<path fill="none" stroke="midnightblue" d="M61.3557,-110.741C73.1711,-84.9223 94.2954,-38.7619 103.041,-19.6514"/>
<polygon fill="midnightblue" stroke="midnightblue" points="58.0375,-109.581 57.0588,-120.131 64.4027,-112.494 58.0375,-109.581"/>
</g>
<!-- Node3 -->
<g id="node3" class="node"><title>Node3</title>
<polygon fill="white" stroke="#bfbfbf" points="0,-250.5 0,-269.5 48,-269.5 48,-250.5 0,-250.5"/>
<text text-anchor="middle" x="24" y="-257.5" font-family="Helvetica,sans-Serif" font-size="10.00">__int64</text>
</g>
<!-- Node3&#45;&gt;Node2 -->
<g id="edge2" class="edge"><title>Node3&#45;&gt;Node2</title>
<path fill="none" stroke="#9a32cd" stroke-dasharray="5,2" d="M23.4297,-239.905C23.5205,-233.538 23.9278,-226.43 25,-220 30.0617,-189.643 43.0335,-155.322 49.3857,-139.643"/>
<polygon fill="#9a32cd" stroke="#9a32cd" points="19.9333,-240.295 23.5327,-250.26 26.9329,-240.225 19.9333,-240.295"/>
<text text-anchor="middle" x="43" y="-223.5" font-family="Helvetica,sans-Serif" font-size="10.00"> m_rand</text>
</g>
<!-- Node4 -->
<g id="node4" class="node"><title>Node4</title>
<polygon fill="white" stroke="#bfbfbf" points="89.5,-250.5 89.5,-269.5 118.5,-269.5 118.5,-250.5 89.5,-250.5"/>
<text text-anchor="middle" x="104" y="-257.5" font-family="Helvetica,sans-Serif" font-size="10.00">int</text>
</g>
<!-- Node4&#45;&gt;Node1 -->
<g id="edge4" class="edge"><title>Node4&#45;&gt;Node1</title>
<path fill="none" stroke="#9a32cd" stroke-dasharray="5,2" d="M110.224,-240.566C110.96,-237.727 111.593,-234.806 112,-232 112.765,-226.722 112.059,-225.333 112,-220 111.111,-139.096 110.386,-118.873 108,-38 107.817,-31.811 107.557,-24.8259 107.348,-19.5112"/>
<polygon fill="#9a32cd" stroke="#9a32cd" points="106.872,-239.56 107.326,-250.145 113.572,-241.586 106.872,-239.56"/>
<text text-anchor="middle" x="150" y="-193.5" font-family="Helvetica,sans-Serif" font-size="10.00"> short_test_buff</text>
<text text-anchor="middle" x="150" y="-182.5" font-family="Helvetica,sans-Serif" font-size="10.00">int_idct_test_buff</text>
<text text-anchor="middle" x="150" y="-171.5" font-family="Helvetica,sans-Serif" font-size="10.00">mbufidct</text>
<text text-anchor="middle" x="150" y="-160.5" font-family="Helvetica,sans-Serif" font-size="10.00">mubuf1</text>
<text text-anchor="middle" x="150" y="-149.5" font-family="Helvetica,sans-Serif" font-size="10.00">mubuf2</text>
<text text-anchor="start" x="112" y="-138.5" font-family="Helvetica,sans-Serif" font-size="10.00">int_denoise_test</text>
<text text-anchor="middle" x="150" y="-127.5" font-family="Helvetica,sans-Serif" font-size="10.00">_buff1</text>
<text text-anchor="start" x="112" y="-116.5" font-family="Helvetica,sans-Serif" font-size="10.00">int_denoise_test</text>
<text text-anchor="middle" x="150" y="-105.5" font-family="Helvetica,sans-Serif" font-size="10.00">_buff2</text>
<text text-anchor="middle" x="150" y="-94.5" font-family="Helvetica,sans-Serif" font-size="10.00">mbufdct</text>
<text text-anchor="middle" x="150" y="-83.5" font-family="Helvetica,sans-Serif" font-size="10.00">mshortbuf2</text>
<text text-anchor="middle" x="150" y="-72.5" font-family="Helvetica,sans-Serif" font-size="10.00">mintbuf1</text>
<text text-anchor="middle" x="150" y="-61.5" font-family="Helvetica,sans-Serif" font-size="10.00">...</text>
</g>
<!-- Node4&#45;&gt;Node2 -->
<g id="edge3" class="edge"><title>Node4&#45;&gt;Node2</title>
<path fill="none" stroke="#9a32cd" stroke-dasharray="5,2" d="M90.377,-242.432C88.0376,-239.106 85.7883,-235.541 84,-232 67.7931,-199.91 58.2314,-157.753 54.6396,-139.755"/>
<polygon fill="#9a32cd" stroke="#9a32cd" points="87.6795,-244.666 96.5246,-250.499 93.2471,-240.424 87.6795,-244.666"/>
<text text-anchor="middle" x="98" y="-223.5" font-family="Helvetica,sans-Serif" font-size="10.00"> m_ok</text>
</g>
</g>
</svg>
