<?xml version="1.0" encoding="UTF-8" standalone="no"?>
<!DOCTYPE svg PUBLIC "-//W3C//DTD SVG 1.1//EN"
 "http://www.w3.org/Graphics/SVG/1.1/DTD/svg11.dtd">
<!-- Generated by graphviz version 2.36.0 (20140111.2315)
 -->
<!-- Title: x265::Search::checkBestMVP Pages: 1 -->
<svg width="2090pt" height="154pt"
 viewBox="0.00 0.00 2090.00 154.00" xmlns="http://www.w3.org/2000/svg" xmlns:xlink="http://www.w3.org/1999/xlink">
<g id="graph0" class="graph" transform="scale(1 1) rotate(0) translate(4 150)">
<title>x265::Search::checkBestMVP</title>
<polygon fill="white" stroke="none" points="-4,4 -4,-150 2086,-150 2086,4 -4,4"/>
<!-- Node1 -->
<g id="node1" class="node"><title>Node1</title>
<polygon fill="#bfbfbf" stroke="black" points="0.5,-88.5 0.5,-107.5 149.5,-107.5 149.5,-88.5 0.5,-88.5"/>
<text text-anchor="middle" x="75" y="-95.5" font-family="Helvetica,sans-Serif" font-size="10.00">x265::Search::checkBestMVP</text>
</g>
<!-- Node2 -->
<g id="node2" class="node"><title>Node2</title>
<g id="a_node2"><a xlink:href="classx265_1_1Search.html#a47294b1b3d67ab31cb6be412407982d5" target="_top" xlink:title="x265::Search::singleMotion\lEstimation">
<polygon fill="white" stroke="black" points="186.5,-105 186.5,-135 321.5,-135 321.5,-105 186.5,-105"/>
<text text-anchor="start" x="194.5" y="-123" font-family="Helvetica,sans-Serif" font-size="10.00">x265::Search::singleMotion</text>
<text text-anchor="middle" x="254" y="-112" font-family="Helvetica,sans-Serif" font-size="10.00">Estimation</text>
</a>
</g>
</g>
<!-- Node1&#45;&gt;Node2 -->
<g id="edge1" class="edge"><title>Node1&#45;&gt;Node2</title>
<path fill="none" stroke="midnightblue" d="M159.646,-108.397C168.652,-109.516 177.725,-110.644 186.491,-111.733"/>
<polygon fill="midnightblue" stroke="midnightblue" points="159.882,-104.899 149.526,-107.139 159.018,-111.846 159.882,-104.899"/>
</g>
<!-- Node12 -->
<g id="node12" class="node"><title>Node12</title>
<g id="a_node12"><a xlink:href="classx265_1_1Search.html#a48101e3d900e93b97a83f461be390bd1" target="_top" xlink:title="x265::Search::predInterSearch">
<polygon fill="white" stroke="black" points="358.5,-66.5 358.5,-85.5 507.5,-85.5 507.5,-66.5 358.5,-66.5"/>
<text text-anchor="middle" x="433" y="-73.5" font-family="Helvetica,sans-Serif" font-size="10.00">x265::Search::predInterSearch</text>
</a>
</g>
</g>
<!-- Node1&#45;&gt;Node12 -->
<g id="edge20" class="edge"><title>Node1&#45;&gt;Node12</title>
<path fill="none" stroke="midnightblue" d="M160.006,-92.8086C220.236,-89.0866 300.599,-84.1203 358.331,-80.5526"/>
<polygon fill="midnightblue" stroke="midnightblue" points="159.528,-89.3314 149.763,-93.4416 159.96,-96.318 159.528,-89.3314"/>
</g>
<!-- Node3 -->
<g id="node3" class="node"><title>Node3</title>
<g id="a_node3"><a xlink:href="classx265_1_1Analysis.html#abd49473ae6e5e1f7e555b447b04398e6" target="_top" xlink:title="x265::Analysis::parallelME">
<polygon fill="white" stroke="black" points="366.5,-126.5 366.5,-145.5 499.5,-145.5 499.5,-126.5 366.5,-126.5"/>
<text text-anchor="middle" x="433" y="-133.5" font-family="Helvetica,sans-Serif" font-size="10.00">x265::Analysis::parallelME</text>
</a>
</g>
</g>
<!-- Node2&#45;&gt;Node3 -->
<g id="edge2" class="edge"><title>Node2&#45;&gt;Node3</title>
<path fill="none" stroke="midnightblue" d="M331.698,-126.933C343.22,-127.975 355.012,-129.041 366.277,-130.059"/>
<polygon fill="midnightblue" stroke="midnightblue" points="331.938,-123.441 321.664,-126.026 331.308,-130.412 331.938,-123.441"/>
</g>
<!-- Node2&#45;&gt;Node12 -->
<g id="edge11" class="edge"><title>Node2&#45;&gt;Node12</title>
<path fill="none" stroke="midnightblue" d="M325.293,-102.526C348.634,-96.7237 373.741,-90.4824 393.734,-85.5124"/>
<polygon fill="midnightblue" stroke="midnightblue" points="324.279,-99.1716 315.418,-104.981 325.967,-105.965 324.279,-99.1716"/>
</g>
<!-- Node4 -->
<g id="node4" class="node"><title>Node4</title>
<g id="a_node4"><a xlink:href="classx265_1_1Analysis.html#a29a58dad4cc1c07d2f5e5717c6be7c25" target="_top" xlink:title="x265::Analysis::findJob">
<polygon fill="white" stroke="black" points="873.5,-93.5 873.5,-112.5 992.5,-112.5 992.5,-93.5 873.5,-93.5"/>
<text text-anchor="middle" x="933" y="-100.5" font-family="Helvetica,sans-Serif" font-size="10.00">x265::Analysis::findJob</text>
</a>
</g>
</g>
<!-- Node3&#45;&gt;Node4 -->
<g id="edge3" class="edge"><title>Node3&#45;&gt;Node4</title>
<path fill="none" stroke="midnightblue" d="M509.783,-137.684C590.078,-138.542 720.422,-137.292 832,-124 852.786,-121.524 875.656,-116.869 894.273,-112.569"/>
<polygon fill="midnightblue" stroke="midnightblue" points="509.802,-134.184 499.761,-137.563 509.718,-141.184 509.802,-134.184"/>
</g>
<!-- Node5 -->
<g id="node5" class="node"><title>Node5</title>
<g id="a_node5"><a xlink:href="classx265_1_1Analysis.html#a87060ff27a37f56adc5f5b8a4c033ece" target="_top" xlink:title="x265::Analysis::compress\lInterCU_dist">
<polygon fill="white" stroke="black" points="1034,-88 1034,-118 1164,-118 1164,-88 1034,-88"/>
<text text-anchor="start" x="1042" y="-106" font-family="Helvetica,sans-Serif" font-size="10.00">x265::Analysis::compress</text>
<text text-anchor="middle" x="1099" y="-95" font-family="Helvetica,sans-Serif" font-size="10.00">InterCU_dist</text>
</a>
</g>
</g>
<!-- Node4&#45;&gt;Node5 -->
<g id="edge4" class="edge"><title>Node4&#45;&gt;Node5</title>
<path fill="none" stroke="midnightblue" d="M1002.88,-103C1013.14,-103 1023.68,-103 1033.83,-103"/>
<polygon fill="midnightblue" stroke="midnightblue" points="1002.74,-99.5001 992.745,-103 1002.74,-106.5 1002.74,-99.5001"/>
</g>
<!-- Node6 -->
<g id="node6" class="node"><title>Node6</title>
<g id="a_node6"><a xlink:href="classx265_1_1Analysis.html#aaebc9de2ff98834c650244f3b58942c2" target="_top" xlink:title="x265::Analysis::compressCTU">
<polygon fill="white" stroke="black" points="1200.5,-49.5 1200.5,-68.5 1351.5,-68.5 1351.5,-49.5 1200.5,-49.5"/>
<text text-anchor="middle" x="1276" y="-56.5" font-family="Helvetica,sans-Serif" font-size="10.00">x265::Analysis::compressCTU</text>
</a>
</g>
</g>
<!-- Node5&#45;&gt;Node6 -->
<g id="edge5" class="edge"><title>Node5&#45;&gt;Node6</title>
<path fill="none" stroke="midnightblue" d="M1169.5,-85.5259C1192.58,-79.7237 1217.4,-73.4824 1237.17,-68.5124"/>
<polygon fill="midnightblue" stroke="midnightblue" points="1168.58,-82.1479 1159.74,-87.9808 1170.29,-88.9366 1168.58,-82.1479"/>
</g>
<!-- Node7 -->
<g id="node7" class="node"><title>Node7</title>
<g id="a_node7"><a xlink:href="classx265_1_1FrameEncoder.html#a0ae85001572afd28238476542523ac5f" target="_top" xlink:title="x265::FrameEncoder\l::processRowEncoder">
<polygon fill="white" stroke="black" points="1388.5,-44 1388.5,-74 1501.5,-74 1501.5,-44 1388.5,-44"/>
<text text-anchor="start" x="1396.5" y="-62" font-family="Helvetica,sans-Serif" font-size="10.00">x265::FrameEncoder</text>
<text text-anchor="middle" x="1445" y="-51" font-family="Helvetica,sans-Serif" font-size="10.00">::processRowEncoder</text>
</a>
</g>
</g>
<!-- Node6&#45;&gt;Node7 -->
<g id="edge6" class="edge"><title>Node6&#45;&gt;Node7</title>
<path fill="none" stroke="midnightblue" d="M1361.86,-59C1370.86,-59 1379.85,-59 1388.39,-59"/>
<polygon fill="midnightblue" stroke="midnightblue" points="1361.71,-55.5001 1351.71,-59 1361.71,-62.5001 1361.71,-55.5001"/>
</g>
<!-- Node8 -->
<g id="node8" class="node"><title>Node8</title>
<g id="a_node8"><a xlink:href="classx265_1_1FrameEncoder.html#acad645a8ece97d884895f8f7366b7d70" target="_top" xlink:title="x265::FrameEncoder\l::processRow">
<polygon fill="white" stroke="black" points="1538.5,-44 1538.5,-74 1645.5,-74 1645.5,-44 1538.5,-44"/>
<text text-anchor="start" x="1546.5" y="-62" font-family="Helvetica,sans-Serif" font-size="10.00">x265::FrameEncoder</text>
<text text-anchor="middle" x="1592" y="-51" font-family="Helvetica,sans-Serif" font-size="10.00">::processRow</text>
</a>
</g>
</g>
<!-- Node7&#45;&gt;Node8 -->
<g id="edge7" class="edge"><title>Node7&#45;&gt;Node8</title>
<path fill="none" stroke="midnightblue" d="M1511.88,-59C1520.67,-59 1529.59,-59 1538.13,-59"/>
<polygon fill="midnightblue" stroke="midnightblue" points="1511.65,-55.5001 1501.65,-59 1511.65,-62.5001 1511.65,-55.5001"/>
</g>
<!-- Node9 -->
<g id="node9" class="node"><title>Node9</title>
<g id="a_node9"><a xlink:href="classx265_1_1FrameEncoder.html#ac4e9ce2e876c0cdb25c992c872fe4302" target="_top" xlink:title="x265::FrameEncoder\l::compressCTURows">
<polygon fill="white" stroke="black" points="1682,-44 1682,-74 1794,-74 1794,-44 1682,-44"/>
<text text-anchor="start" x="1690" y="-62" font-family="Helvetica,sans-Serif" font-size="10.00">x265::FrameEncoder</text>
<text text-anchor="middle" x="1738" y="-51" font-family="Helvetica,sans-Serif" font-size="10.00">::compressCTURows</text>
</a>
</g>
</g>
<!-- Node8&#45;&gt;Node9 -->
<g id="edge8" class="edge"><title>Node8&#45;&gt;Node9</title>
<path fill="none" stroke="midnightblue" d="M1655.83,-59C1664.48,-59 1673.3,-59 1681.79,-59"/>
<polygon fill="midnightblue" stroke="midnightblue" points="1655.8,-55.5001 1645.8,-59 1655.8,-62.5001 1655.8,-55.5001"/>
</g>
<!-- Node10 -->
<g id="node10" class="node"><title>Node10</title>
<g id="a_node10"><a xlink:href="classx265_1_1FrameEncoder.html#a2f5c4c0f1a4e36fce4c9b87eb7ec4973" target="_top" xlink:title="x265::FrameEncoder\l::compressFrame">
<polygon fill="white" stroke="black" points="1830.5,-44 1830.5,-74 1937.5,-74 1937.5,-44 1830.5,-44"/>
<text text-anchor="start" x="1838.5" y="-62" font-family="Helvetica,sans-Serif" font-size="10.00">x265::FrameEncoder</text>
<text text-anchor="middle" x="1884" y="-51" font-family="Helvetica,sans-Serif" font-size="10.00">::compressFrame</text>
</a>
</g>
</g>
<!-- Node9&#45;&gt;Node10 -->
<g id="edge9" class="edge"><title>Node9&#45;&gt;Node10</title>
<path fill="none" stroke="midnightblue" d="M1804.42,-59C1813.15,-59 1822.02,-59 1830.49,-59"/>
<polygon fill="midnightblue" stroke="midnightblue" points="1804.26,-55.5001 1794.26,-59 1804.26,-62.5001 1804.26,-55.5001"/>
</g>
<!-- Node11 -->
<g id="node11" class="node"><title>Node11</title>
<g id="a_node11"><a xlink:href="classx265_1_1FrameEncoder.html#aef61f29b9e93b3af9255d96236bc90a7" target="_top" xlink:title="x265::FrameEncoder\l::threadMain">
<polygon fill="white" stroke="black" points="1974.5,-44 1974.5,-74 2081.5,-74 2081.5,-44 1974.5,-44"/>
<text text-anchor="start" x="1982.5" y="-62" font-family="Helvetica,sans-Serif" font-size="10.00">x265::FrameEncoder</text>
<text text-anchor="middle" x="2028" y="-51" font-family="Helvetica,sans-Serif" font-size="10.00">::threadMain</text>
</a>
</g>
</g>
<!-- Node10&#45;&gt;Node11 -->
<g id="edge10" class="edge"><title>Node10&#45;&gt;Node11</title>
<path fill="none" stroke="midnightblue" d="M1947.99,-59C1956.7,-59 1965.58,-59 1974.08,-59"/>
<polygon fill="midnightblue" stroke="midnightblue" points="1947.88,-55.5001 1937.88,-59 1947.88,-62.5001 1947.88,-55.5001"/>
</g>
<!-- Node13 -->
<g id="node13" class="node"><title>Node13</title>
<g id="a_node13"><a xlink:href="classx265_1_1Analysis.html#a2305f7985af66b49fdbc40ebb1b281d2" target="_top" xlink:title="x265::Analysis::checkInter\l_rd0_4">
<polygon fill="white" stroke="black" points="544.5,-61 544.5,-91 677.5,-91 677.5,-61 544.5,-61"/>
<text text-anchor="start" x="552.5" y="-79" font-family="Helvetica,sans-Serif" font-size="10.00">x265::Analysis::checkInter</text>
<text text-anchor="middle" x="611" y="-68" font-family="Helvetica,sans-Serif" font-size="10.00">_rd0_4</text>
</a>
</g>
</g>
<!-- Node12&#45;&gt;Node13 -->
<g id="edge12" class="edge"><title>Node12&#45;&gt;Node13</title>
<path fill="none" stroke="midnightblue" d="M517.653,-76C526.579,-76 535.564,-76 544.241,-76"/>
<polygon fill="midnightblue" stroke="midnightblue" points="517.62,-72.5001 507.62,-76 517.62,-79.5001 517.62,-72.5001"/>
</g>
<!-- Node16 -->
<g id="node16" class="node"><title>Node16</title>
<g id="a_node16"><a xlink:href="classx265_1_1Analysis.html#a828daa3e9f1ed40a1af9f99f7ff7bb33" target="_top" xlink:title="x265::Analysis::checkInter\l_rd5_6">
<polygon fill="white" stroke="black" points="544.5,-4 544.5,-34 677.5,-34 677.5,-4 544.5,-4"/>
<text text-anchor="start" x="552.5" y="-22" font-family="Helvetica,sans-Serif" font-size="10.00">x265::Analysis::checkInter</text>
<text text-anchor="middle" x="611" y="-11" font-family="Helvetica,sans-Serif" font-size="10.00">_rd5_6</text>
</a>
</g>
</g>
<!-- Node12&#45;&gt;Node16 -->
<g id="edge17" class="edge"><title>Node12&#45;&gt;Node16</title>
<path fill="none" stroke="midnightblue" d="M473.233,-63.2939C499.944,-54.6433 535.415,-43.1555 563.54,-34.0468"/>
<polygon fill="midnightblue" stroke="midnightblue" points="471.894,-60.0486 463.458,-66.4595 474.05,-66.7081 471.894,-60.0486"/>
</g>
<!-- Node14 -->
<g id="node14" class="node"><title>Node14</title>
<g id="a_node14"><a xlink:href="classx265_1_1Analysis.html#aa6122285d10bb1bd7584958b88b029d5" target="_top" xlink:title="x265::Analysis::parallel\lModeAnalysis">
<polygon fill="white" stroke="black" points="714,-85 714,-115 832,-115 832,-85 714,-85"/>
<text text-anchor="start" x="722" y="-103" font-family="Helvetica,sans-Serif" font-size="10.00">x265::Analysis::parallel</text>
<text text-anchor="middle" x="773" y="-92" font-family="Helvetica,sans-Serif" font-size="10.00">ModeAnalysis</text>
</a>
</g>
</g>
<!-- Node13&#45;&gt;Node14 -->
<g id="edge13" class="edge"><title>Node13&#45;&gt;Node14</title>
<path fill="none" stroke="midnightblue" d="M687.529,-87.3294C696.426,-88.6639 705.397,-90.0095 713.999,-91.2999"/>
<polygon fill="midnightblue" stroke="midnightblue" points="687.948,-83.8532 677.54,-85.831 686.91,-90.7757 687.948,-83.8532"/>
</g>
<!-- Node15 -->
<g id="node15" class="node"><title>Node15</title>
<g id="a_node15"><a xlink:href="classx265_1_1Analysis.html#a30d2ff7eca5addbb0a6b3dfe14f09650" target="_top" xlink:title="x265::Analysis::compress\lInterCU_rd0_4">
<polygon fill="white" stroke="black" points="868,-44 868,-74 998,-74 998,-44 868,-44"/>
<text text-anchor="start" x="876" y="-62" font-family="Helvetica,sans-Serif" font-size="10.00">x265::Analysis::compress</text>
<text text-anchor="middle" x="933" y="-51" font-family="Helvetica,sans-Serif" font-size="10.00">InterCU_rd0_4</text>
</a>
</g>
</g>
<!-- Node13&#45;&gt;Node15 -->
<g id="edge15" class="edge"><title>Node13&#45;&gt;Node15</title>
<path fill="none" stroke="midnightblue" d="M687.551,-71.9863C742.436,-69.0706 815.903,-65.1676 867.925,-62.404"/>
<polygon fill="midnightblue" stroke="midnightblue" points="687.329,-68.4931 677.529,-72.5188 687.701,-75.4832 687.329,-68.4931"/>
</g>
<!-- Node14&#45;&gt;Node4 -->
<g id="edge14" class="edge"><title>Node14&#45;&gt;Node4</title>
<path fill="none" stroke="midnightblue" d="M842.538,-101.301C852.798,-101.496 863.298,-101.696 873.328,-101.886"/>
<polygon fill="midnightblue" stroke="midnightblue" points="842.449,-97.7991 832.384,-101.109 842.316,-104.798 842.449,-97.7991"/>
</g>
<!-- Node15&#45;&gt;Node6 -->
<g id="edge16" class="edge"><title>Node15&#45;&gt;Node6</title>
<path fill="none" stroke="midnightblue" d="M1008.16,-59C1065.11,-59 1143.41,-59 1200.46,-59"/>
<polygon fill="midnightblue" stroke="midnightblue" points="1008.14,-55.5001 998.139,-59 1008.14,-62.5001 1008.14,-55.5001"/>
</g>
<!-- Node17 -->
<g id="node17" class="node"><title>Node17</title>
<g id="a_node17"><a xlink:href="classx265_1_1Analysis.html#a0b22b7765aa4a36b1ba6d07ba26901e6" target="_top" xlink:title="x265::Analysis::compress\lInterCU_rd5_6">
<polygon fill="white" stroke="black" points="1034,-0 1034,-30 1164,-30 1164,-0 1034,-0"/>
<text text-anchor="start" x="1042" y="-18" font-family="Helvetica,sans-Serif" font-size="10.00">x265::Analysis::compress</text>
<text text-anchor="middle" x="1099" y="-7" font-family="Helvetica,sans-Serif" font-size="10.00">InterCU_rd5_6</text>
</a>
</g>
</g>
<!-- Node16&#45;&gt;Node17 -->
<g id="edge18" class="edge"><title>Node16&#45;&gt;Node17</title>
<path fill="none" stroke="midnightblue" d="M687.674,-18.3772C782.828,-17.594 944.521,-16.2632 1033.88,-15.5277"/>
<polygon fill="midnightblue" stroke="midnightblue" points="687.515,-14.8783 677.544,-18.4605 687.573,-21.878 687.515,-14.8783"/>
</g>
<!-- Node17&#45;&gt;Node6 -->
<g id="edge19" class="edge"><title>Node17&#45;&gt;Node6</title>
<path fill="none" stroke="midnightblue" d="M1169.5,-32.4741C1192.58,-38.2763 1217.4,-44.5176 1237.17,-49.4876"/>
<polygon fill="midnightblue" stroke="midnightblue" points="1170.29,-29.0634 1159.74,-30.0192 1168.58,-35.8521 1170.29,-29.0634"/>
</g>
</g>
</svg>
