<?xml version="1.0" encoding="UTF-8" standalone="no"?>
<!DOCTYPE svg PUBLIC "-//W3C//DTD SVG 1.1//EN"
 "http://www.w3.org/Graphics/SVG/1.1/DTD/svg11.dtd">
<!-- Generated by graphviz version 2.36.0 (20140111.2315)
 -->
<!-- Title: x265::Encoder::finishFrameStats Pages: 1 -->
<svg width="310pt" height="332pt"
 viewBox="0.00 0.00 310.00 332.00" xmlns="http://www.w3.org/2000/svg" xmlns:xlink="http://www.w3.org/1999/xlink">
<g id="graph0" class="graph" transform="scale(1 1) rotate(0) translate(4 328)">
<title>x265::Encoder::finishFrameStats</title>
<polygon fill="white" stroke="none" points="-4,4 -4,-328 306,-328 306,4 -4,4"/>
<!-- Node1 -->
<g id="node1" class="node"><title>Node1</title>
<polygon fill="#bfbfbf" stroke="black" points="0.5,-147 0.5,-177 137.5,-177 137.5,-147 0.5,-147"/>
<text text-anchor="start" x="8.5" y="-165" font-family="Helvetica,sans-Serif" font-size="10.00">x265::Encoder::finishFrame</text>
<text text-anchor="middle" x="69" y="-154" font-family="Helvetica,sans-Serif" font-size="10.00">Stats</text>
</g>
<!-- Node2 -->
<g id="node2" class="node"><title>Node2</title>
<g id="a_node2"><a xlink:href="structx265_1_1EncStats.html#a3ddf45be3143aa4fee6640c2d41824c1" target="_top" xlink:title="x265::EncStats::addBits">
<polygon fill="white" stroke="black" points="176.5,-304.5 176.5,-323.5 299.5,-323.5 299.5,-304.5 176.5,-304.5"/>
<text text-anchor="middle" x="238" y="-311.5" font-family="Helvetica,sans-Serif" font-size="10.00">x265::EncStats::addBits</text>
</a>
</g>
</g>
<!-- Node1&#45;&gt;Node2 -->
<g id="edge1" class="edge"><title>Node1&#45;&gt;Node2</title>
<path fill="none" stroke="midnightblue" d="M77.7731,-177.255C92.6442,-204.911 127.795,-263.387 174,-295 176.917,-296.996 180.049,-298.787 183.301,-300.393"/>
<polygon fill="midnightblue" stroke="midnightblue" points="182.14,-303.703 192.708,-304.448 184.911,-297.275 182.14,-303.703"/>
</g>
<!-- Node3 -->
<g id="node3" class="node"><title>Node3</title>
<g id="a_node3"><a xlink:href="structx265_1_1EncStats.html#a84feb7eb9300b4d858dc534ff897b0d2" target="_top" xlink:title="x265::EncStats::addQP">
<polygon fill="white" stroke="black" points="178,-266.5 178,-285.5 298,-285.5 298,-266.5 178,-266.5"/>
<text text-anchor="middle" x="238" y="-273.5" font-family="Helvetica,sans-Serif" font-size="10.00">x265::EncStats::addQP</text>
</a>
</g>
</g>
<!-- Node1&#45;&gt;Node3 -->
<g id="edge2" class="edge"><title>Node1&#45;&gt;Node3</title>
<path fill="none" stroke="midnightblue" d="M82.5397,-177.096C100.656,-197.971 136.15,-235.501 174,-257 177.848,-259.185 181.973,-261.145 186.205,-262.896"/>
<polygon fill="midnightblue" stroke="midnightblue" points="184.978,-266.174 195.57,-266.405 187.434,-259.619 184.978,-266.174"/>
</g>
<!-- Node4 -->
<g id="node4" class="node"><title>Node4</title>
<g id="a_node4"><a xlink:href="structx265_1_1EncStats.html#a767b2d2c5623eb23878f98b3ec153374" target="_top" xlink:title="x265::EncStats::addPsnr">
<polygon fill="white" stroke="black" points="175,-228.5 175,-247.5 301,-247.5 301,-228.5 175,-228.5"/>
<text text-anchor="middle" x="238" y="-235.5" font-family="Helvetica,sans-Serif" font-size="10.00">x265::EncStats::addPsnr</text>
</a>
</g>
</g>
<!-- Node1&#45;&gt;Node4 -->
<g id="edge3" class="edge"><title>Node1&#45;&gt;Node4</title>
<path fill="none" stroke="midnightblue" d="M94.0769,-177.081C114.709,-189.538 145.519,-207.054 174,-219 179.399,-221.265 185.161,-223.384 190.925,-225.325"/>
<polygon fill="midnightblue" stroke="midnightblue" points="189.971,-228.695 200.562,-228.419 192.111,-222.03 189.971,-228.695"/>
</g>
<!-- Node5 -->
<g id="node5" class="node"><title>Node5</title>
<g id="a_node5"><a xlink:href="structx265_1_1EncStats.html#a6974c52c86fa732298374c7ecbb12806" target="_top" xlink:title="x265::EncStats::addSsim">
<polygon fill="white" stroke="black" points="174,-190.5 174,-209.5 302,-209.5 302,-190.5 174,-190.5"/>
<text text-anchor="middle" x="238" y="-197.5" font-family="Helvetica,sans-Serif" font-size="10.00">x265::EncStats::addSsim</text>
</a>
</g>
</g>
<!-- Node1&#45;&gt;Node5 -->
<g id="edge4" class="edge"><title>Node1&#45;&gt;Node5</title>
<path fill="none" stroke="midnightblue" d="M136.003,-177.019C152.307,-180.728 169.542,-184.65 185.07,-188.184"/>
<polygon fill="midnightblue" stroke="midnightblue" points="184.473,-191.637 195,-190.443 186.026,-184.812 184.473,-191.637"/>
</g>
<!-- Node6 -->
<g id="node6" class="node"><title>Node6</title>
<g id="a_node6"><a xlink:href="classx265_1_1Slice.html#ad41c52c38e5ddea4266bceee1d6b17d3" target="_top" xlink:title="x265::Slice::isIntra">
<polygon fill="white" stroke="black" points="189,-152.5 189,-171.5 287,-171.5 287,-152.5 189,-152.5"/>
<text text-anchor="middle" x="238" y="-159.5" font-family="Helvetica,sans-Serif" font-size="10.00">x265::Slice::isIntra</text>
</a>
</g>
</g>
<!-- Node1&#45;&gt;Node6 -->
<g id="edge5" class="edge"><title>Node1&#45;&gt;Node6</title>
<path fill="none" stroke="midnightblue" d="M137.925,-162C151.392,-162 165.42,-162 178.539,-162"/>
<polygon fill="midnightblue" stroke="midnightblue" points="178.837,-165.5 188.837,-162 178.837,-158.5 178.837,-165.5"/>
</g>
<!-- Node7 -->
<g id="node7" class="node"><title>Node7</title>
<g id="a_node7"><a xlink:href="classx265_1_1Slice.html#a36f5fe00b0e4877e8335516800a26c20" target="_top" xlink:title="x265::Slice::isInterP">
<polygon fill="white" stroke="black" points="185.5,-114.5 185.5,-133.5 290.5,-133.5 290.5,-114.5 185.5,-114.5"/>
<text text-anchor="middle" x="238" y="-121.5" font-family="Helvetica,sans-Serif" font-size="10.00">x265::Slice::isInterP</text>
</a>
</g>
</g>
<!-- Node1&#45;&gt;Node7 -->
<g id="edge6" class="edge"><title>Node1&#45;&gt;Node7</title>
<path fill="none" stroke="midnightblue" d="M136.003,-146.981C152.307,-143.272 169.542,-139.35 185.07,-135.816"/>
<polygon fill="midnightblue" stroke="midnightblue" points="186.026,-139.188 195,-133.557 184.473,-132.363 186.026,-139.188"/>
</g>
<!-- Node8 -->
<g id="node8" class="node"><title>Node8</title>
<g id="a_node8"><a xlink:href="classx265_1_1Slice.html#af70c482a1b6f69f50aa211dc9e74e615" target="_top" xlink:title="x265::Slice::isInterB">
<polygon fill="white" stroke="black" points="185.5,-76.5 185.5,-95.5 290.5,-95.5 290.5,-76.5 185.5,-76.5"/>
<text text-anchor="middle" x="238" y="-83.5" font-family="Helvetica,sans-Serif" font-size="10.00">x265::Slice::isInterB</text>
</a>
</g>
</g>
<!-- Node1&#45;&gt;Node8 -->
<g id="edge7" class="edge"><title>Node1&#45;&gt;Node8</title>
<path fill="none" stroke="midnightblue" d="M94.0769,-146.919C114.709,-134.462 145.519,-116.946 174,-105 179.399,-102.735 185.161,-100.616 190.925,-98.6746"/>
<polygon fill="midnightblue" stroke="midnightblue" points="192.111,-101.97 200.562,-95.5809 189.971,-95.305 192.111,-101.97"/>
</g>
<!-- Node9 -->
<g id="node9" class="node"><title>Node9</title>
<g id="a_node9"><a xlink:href="common_8cpp.html#ab040d4574139b69ca049c4d5d0ab1d23" target="_top" xlink:title="x265_ssim2dB">
<polygon fill="white" stroke="black" points="197.5,-38.5 197.5,-57.5 278.5,-57.5 278.5,-38.5 197.5,-38.5"/>
<text text-anchor="middle" x="238" y="-45.5" font-family="Helvetica,sans-Serif" font-size="10.00">x265_ssim2dB</text>
</a>
</g>
</g>
<!-- Node1&#45;&gt;Node9 -->
<g id="edge8" class="edge"><title>Node1&#45;&gt;Node9</title>
<path fill="none" stroke="midnightblue" d="M82.5397,-146.904C100.656,-126.029 136.15,-88.4986 174,-67 178.247,-64.5879 182.832,-62.4516 187.524,-60.5662"/>
<polygon fill="midnightblue" stroke="midnightblue" points="189.027,-63.7441 197.231,-57.0407 186.637,-57.1646 189.027,-63.7441"/>
</g>
<!-- Node10 -->
<g id="node10" class="node"><title>Node10</title>
<g id="a_node10"><a xlink:href="common_8cpp.html#a746489f014374f963df715ddf9bd3986" target="_top" xlink:title="x265_log">
<polygon fill="white" stroke="black" points="210,-0.5 210,-19.5 266,-19.5 266,-0.5 210,-0.5"/>
<text text-anchor="middle" x="238" y="-7.5" font-family="Helvetica,sans-Serif" font-size="10.00">x265_log</text>
</a>
</g>
</g>
<!-- Node1&#45;&gt;Node10 -->
<g id="edge9" class="edge"><title>Node1&#45;&gt;Node10</title>
<path fill="none" stroke="midnightblue" d="M77.7731,-146.745C92.6442,-119.089 127.795,-60.6131 174,-29 181.824,-23.6468 191.196,-19.7677 200.289,-16.9695"/>
<polygon fill="midnightblue" stroke="midnightblue" points="201.231,-20.3407 209.961,-14.3388 199.393,-13.5861 201.231,-20.3407"/>
</g>
</g>
</svg>
