<?xml version="1.0" encoding="UTF-8" standalone="no"?>
<!DOCTYPE svg PUBLIC "-//W3C//DTD SVG 1.1//EN"
 "http://www.w3.org/Graphics/SVG/1.1/DTD/svg11.dtd">
<!-- Generated by graphviz version 2.36.0 (20140111.2315)
 -->
<!-- Title: x265::ThreadPool::pokeIdleThread Pages: 1 -->
<svg width="2004pt" height="892pt"
 viewBox="0.00 0.00 2004.00 892.00" xmlns="http://www.w3.org/2000/svg" xmlns:xlink="http://www.w3.org/1999/xlink">
<g id="graph0" class="graph" transform="scale(1 1) rotate(0) translate(4 888)">
<title>x265::ThreadPool::pokeIdleThread</title>
<polygon fill="white" stroke="none" points="-4,4 -4,-888 2000,-888 2000,4 -4,4"/>
<!-- Node1 -->
<g id="node1" class="node"><title>Node1</title>
<polygon fill="#bfbfbf" stroke="black" points="0,-599 0,-629 136,-629 136,-599 0,-599"/>
<text text-anchor="start" x="8" y="-617" font-family="Helvetica,sans-Serif" font-size="10.00">x265::ThreadPool::pokeIdle</text>
<text text-anchor="middle" x="68" y="-606" font-family="Helvetica,sans-Serif" font-size="10.00">Thread</text>
</g>
<!-- Node2 -->
<g id="node2" class="node"><title>Node2</title>
<g id="a_node2"><a xlink:href="classx265_1_1JobProvider.html#a18b4ca907c73a70fd1a3d19951e715f5" target="_top" xlink:title="x265::JobProvider::\lenqueue">
<polygon fill="white" stroke="black" points="199.5,-427 199.5,-457 300.5,-457 300.5,-427 199.5,-427"/>
<text text-anchor="start" x="207.5" y="-445" font-family="Helvetica,sans-Serif" font-size="10.00">x265::JobProvider::</text>
<text text-anchor="middle" x="250" y="-434" font-family="Helvetica,sans-Serif" font-size="10.00">enqueue</text>
</a>
</g>
</g>
<!-- Node1&#45;&gt;Node2 -->
<g id="edge1" class="edge"><title>Node1&#45;&gt;Node2</title>
<path fill="none" stroke="midnightblue" d="M92.3559,-591.682C129.529,-556.161 201.202,-487.674 233.062,-457.23"/>
<polygon fill="midnightblue" stroke="midnightblue" points="89.7857,-589.297 84.9738,-598.736 94.6217,-594.358 89.7857,-589.297"/>
</g>
<!-- Node3 -->
<g id="node3" class="node"><title>Node3</title>
<g id="a_node3"><a xlink:href="classx265_1_1Analysis.html#a87060ff27a37f56adc5f5b8a4c033ece" target="_top" xlink:title="x265::Analysis::compress\lInterCU_dist">
<polygon fill="white" stroke="black" points="1117,-705 1117,-735 1247,-735 1247,-705 1117,-705"/>
<text text-anchor="start" x="1125" y="-723" font-family="Helvetica,sans-Serif" font-size="10.00">x265::Analysis::compress</text>
<text text-anchor="middle" x="1182" y="-712" font-family="Helvetica,sans-Serif" font-size="10.00">InterCU_dist</text>
</a>
</g>
</g>
<!-- Node1&#45;&gt;Node3 -->
<g id="edge69" class="edge"><title>Node1&#45;&gt;Node3</title>
<path fill="none" stroke="midnightblue" d="M97.3358,-635.072C117.391,-649.243 145.354,-667.539 172,-680 331.545,-754.61 375.916,-772.245 550,-799 766.881,-832.332 1027.34,-766.291 1132.98,-735.087"/>
<polygon fill="midnightblue" stroke="midnightblue" points="99.1487,-632.066 88.9818,-629.085 95.0709,-637.755 99.1487,-632.066"/>
</g>
<!-- Node7 -->
<g id="node7" class="node"><title>Node7</title>
<g id="a_node7"><a xlink:href="classx265_1_1FrameEncoder.html#ac4e9ce2e876c0cdb25c992c872fe4302" target="_top" xlink:title="x265::FrameEncoder\l::compressCTURows">
<polygon fill="white" stroke="red" points="1809,-430 1809,-460 1921,-460 1921,-430 1809,-430"/>
<text text-anchor="start" x="1817" y="-448" font-family="Helvetica,sans-Serif" font-size="10.00">x265::FrameEncoder</text>
<text text-anchor="middle" x="1865" y="-437" font-family="Helvetica,sans-Serif" font-size="10.00">::compressCTURows</text>
</a>
</g>
</g>
<!-- Node1&#45;&gt;Node7 -->
<g id="edge70" class="edge"><title>Node1&#45;&gt;Node7</title>
<path fill="none" stroke="midnightblue" d="M97.3358,-635.072C117.391,-649.243 145.354,-667.539 172,-680 514.146,-840.002 619.29,-884 997,-884 997,-884 997,-884 1547,-884 1760.87,-884 1844.97,-537.305 1861.04,-460.111"/>
<polygon fill="midnightblue" stroke="midnightblue" points="99.1487,-632.066 88.9818,-629.085 95.0709,-637.755 99.1487,-632.066"/>
</g>
<!-- Node8 -->
<g id="node8" class="node"><title>Node8</title>
<g id="a_node8"><a xlink:href="classx265_1_1Search.html#a48101e3d900e93b97a83f461be390bd1" target="_top" xlink:title="x265::Search::predInterSearch">
<polygon fill="white" stroke="black" points="364.5,-710.5 364.5,-729.5 513.5,-729.5 513.5,-710.5 364.5,-710.5"/>
<text text-anchor="middle" x="439" y="-717.5" font-family="Helvetica,sans-Serif" font-size="10.00">x265::Search::predInterSearch</text>
</a>
</g>
</g>
<!-- Node1&#45;&gt;Node8 -->
<g id="edge71" class="edge"><title>Node1&#45;&gt;Node8</title>
<path fill="none" stroke="midnightblue" d="M131.293,-631.895C210.193,-654.56 343.279,-692.79 404.881,-710.486"/>
<polygon fill="midnightblue" stroke="midnightblue" points="132.054,-628.472 121.477,-629.075 130.122,-635.2 132.054,-628.472"/>
</g>
<!-- Node15 -->
<g id="node15" class="node"><title>Node15</title>
<g id="a_node15"><a xlink:href="classx265_1_1Lookahead.html#a878bca13580997ab9c01e72a8f8e81c3" target="_top" xlink:title="x265::Lookahead::addPicture">
<polygon fill="white" stroke="black" points="1474.5,-233.5 1474.5,-252.5 1617.5,-252.5 1617.5,-233.5 1474.5,-233.5"/>
<text text-anchor="middle" x="1546" y="-240.5" font-family="Helvetica,sans-Serif" font-size="10.00">x265::Lookahead::addPicture</text>
</a>
</g>
</g>
<!-- Node1&#45;&gt;Node15 -->
<g id="edge72" class="edge"><title>Node1&#45;&gt;Node15</title>
<path fill="none" stroke="midnightblue" d="M71.658,-588.786C85.3488,-473.247 158.487,-0 438,-0 438,-0 438,-0 1183,-0 1346.21,-0 1327.66,-151.724 1474,-224 1481.67,-227.786 1490.18,-230.892 1498.58,-233.414"/>
<polygon fill="midnightblue" stroke="midnightblue" points="68.1691,-588.49 70.5137,-598.822 75.124,-589.283 68.1691,-588.49"/>
</g>
<!-- Node33 -->
<g id="node33" class="node"><title>Node33</title>
<g id="a_node33"><a xlink:href="classx265_1_1JobProvider.html#aad43fe7bf62d5d3656046fcf0888e7b8" target="_top" xlink:title="x265::JobProvider::\ldequeue">
<polygon fill="white" stroke="black" points="199.5,-599 199.5,-629 300.5,-629 300.5,-599 199.5,-599"/>
<text text-anchor="start" x="207.5" y="-617" font-family="Helvetica,sans-Serif" font-size="10.00">x265::JobProvider::</text>
<text text-anchor="middle" x="250" y="-606" font-family="Helvetica,sans-Serif" font-size="10.00">dequeue</text>
</a>
</g>
</g>
<!-- Node1&#45;&gt;Node33 -->
<g id="edge43" class="edge"><title>Node1&#45;&gt;Node33</title>
<path fill="none" stroke="midnightblue" d="M146.228,-614C164.229,-614 182.927,-614 199.36,-614"/>
<polygon fill="midnightblue" stroke="midnightblue" points="146.025,-610.5 136.025,-614 146.025,-617.5 146.025,-610.5"/>
</g>
<!-- Node40 -->
<g id="node40" class="node"><title>Node40</title>
<g id="a_node40"><a xlink:href="classx265_1_1WaveFront.html#a7e9bb7c12ce745c308ada7e889a8227e" target="_top" xlink:title="x265::WaveFront::enqueueRow">
<polygon fill="white" stroke="black" points="172.5,-280.5 172.5,-299.5 327.5,-299.5 327.5,-280.5 172.5,-280.5"/>
<text text-anchor="middle" x="250" y="-287.5" font-family="Helvetica,sans-Serif" font-size="10.00">x265::WaveFront::enqueueRow</text>
</a>
</g>
</g>
<!-- Node1&#45;&gt;Node40 -->
<g id="edge57" class="edge"><title>Node1&#45;&gt;Node40</title>
<path fill="none" stroke="midnightblue" d="M80.9872,-589.888C99.7177,-552.491 137.374,-478.413 172,-417 197.074,-372.528 229.424,-320.877 242.795,-299.755"/>
<polygon fill="midnightblue" stroke="midnightblue" points="77.7734,-588.49 76.435,-599 84.0354,-591.618 77.7734,-588.49"/>
</g>
<!-- Node2&#45;&gt;Node3 -->
<g id="edge2" class="edge"><title>Node2&#45;&gt;Node3</title>
<path fill="none" stroke="midnightblue" d="M310.972,-452.1C383.132,-463.357 508.063,-480 616,-480 616,-480 616,-480 802,-480 971.003,-480 1125.81,-652.445 1169.06,-704.987"/>
<polygon fill="midnightblue" stroke="midnightblue" points="311.141,-448.583 300.717,-450.481 310.049,-455.498 311.141,-448.583"/>
</g>
<!-- Node2&#45;&gt;Node7 -->
<g id="edge7" class="edge"><title>Node2&#45;&gt;Node7</title>
<path fill="none" stroke="midnightblue" d="M310.866,-442C383.172,-442 508.492,-442 616,-442 616,-442 616,-442 802,-442 1187.35,-442 1651.34,-444 1808.72,-444.734"/>
<polygon fill="midnightblue" stroke="midnightblue" points="310.592,-438.5 300.591,-442 310.591,-445.5 310.592,-438.5"/>
</g>
<!-- Node2&#45;&gt;Node8 -->
<g id="edge8" class="edge"><title>Node2&#45;&gt;Node8</title>
<path fill="none" stroke="midnightblue" d="M266.335,-466.059C287.824,-499.639 328.277,-562.362 364,-615 388.045,-650.43 417.647,-691.777 430.946,-710.237"/>
<polygon fill="midnightblue" stroke="midnightblue" points="269.131,-463.935 260.797,-457.394 263.233,-467.705 269.131,-463.935"/>
</g>
<!-- Node2&#45;&gt;Node15 -->
<g id="edge18" class="edge"><title>Node2&#45;&gt;Node15</title>
<path fill="none" stroke="midnightblue" d="M283.506,-421.664C305.416,-408.967 335.43,-393.473 364,-385 824.386,-248.464 964.319,-345.893 1438,-267 1461.1,-263.153 1486.7,-257.462 1507.07,-252.588"/>
<polygon fill="midnightblue" stroke="midnightblue" points="281.468,-418.803 274.641,-426.906 285.03,-424.829 281.468,-418.803"/>
</g>
<!-- Node19 -->
<g id="node19" class="node"><title>Node19</title>
<g id="a_node19"><a xlink:href="classx265_1_1CostEstimate.html#af33d06405527ebbb03d9c93d565e6e2a" target="_top" xlink:title="x265::CostEstimate\l::estimateFrameCost">
<polygon fill="white" stroke="black" points="562.5,-177 562.5,-207 671.5,-207 671.5,-177 562.5,-177"/>
<text text-anchor="start" x="570.5" y="-195" font-family="Helvetica,sans-Serif" font-size="10.00">x265::CostEstimate</text>
<text text-anchor="middle" x="617" y="-184" font-family="Helvetica,sans-Serif" font-size="10.00">::estimateFrameCost</text>
</a>
</g>
</g>
<!-- Node2&#45;&gt;Node19 -->
<g id="edge22" class="edge"><title>Node2&#45;&gt;Node19</title>
<path fill="none" stroke="midnightblue" d="M276.689,-420.241C299.204,-401.488 333.076,-374.037 364,-352 444.187,-294.858 544.159,-234.401 590.377,-207.026"/>
<polygon fill="midnightblue" stroke="midnightblue" points="274.357,-417.629 268.934,-426.731 278.849,-422.997 274.357,-417.629"/>
</g>
<!-- Node31 -->
<g id="node31" class="node"><title>Node31</title>
<g id="a_node31"><a xlink:href="classMD5Frame.html#a54826606d5067ffe9ff99a21aea15ff8" target="_top" xlink:title="MD5Frame::encode">
<polygon fill="white" stroke="black" points="387.5,-394.5 387.5,-413.5 490.5,-413.5 490.5,-394.5 387.5,-394.5"/>
<text text-anchor="middle" x="439" y="-401.5" font-family="Helvetica,sans-Serif" font-size="10.00">MD5Frame::encode</text>
</a>
</g>
</g>
<!-- Node2&#45;&gt;Node31 -->
<g id="edge41" class="edge"><title>Node2&#45;&gt;Node31</title>
<path fill="none" stroke="midnightblue" d="M310.732,-429.862C336.709,-424.583 366.703,-418.488 391.047,-413.541"/>
<polygon fill="midnightblue" stroke="midnightblue" points="309.724,-426.495 300.622,-431.916 311.118,-433.355 309.724,-426.495"/>
</g>
<!-- Node4 -->
<g id="node4" class="node"><title>Node4</title>
<g id="a_node4"><a xlink:href="classx265_1_1Analysis.html#aaebc9de2ff98834c650244f3b58942c2" target="_top" xlink:title="x265::Analysis::compressCTU">
<polygon fill="white" stroke="black" points="1286.5,-737.5 1286.5,-756.5 1437.5,-756.5 1437.5,-737.5 1286.5,-737.5"/>
<text text-anchor="middle" x="1362" y="-744.5" font-family="Helvetica,sans-Serif" font-size="10.00">x265::Analysis::compressCTU</text>
</a>
</g>
</g>
<!-- Node3&#45;&gt;Node4 -->
<g id="edge3" class="edge"><title>Node3&#45;&gt;Node4</title>
<path fill="none" stroke="midnightblue" d="M1257.29,-731.269C1270.88,-733.33 1284.94,-735.462 1298.15,-737.467"/>
<polygon fill="midnightblue" stroke="midnightblue" points="1257.42,-727.749 1247.01,-729.709 1256.37,-734.67 1257.42,-727.749"/>
</g>
<!-- Node5 -->
<g id="node5" class="node"><title>Node5</title>
<g id="a_node5"><a xlink:href="classx265_1_1FrameEncoder.html#a0ae85001572afd28238476542523ac5f" target="_top" xlink:title="x265::FrameEncoder\l::processRowEncoder">
<polygon fill="white" stroke="black" points="1489.5,-348 1489.5,-378 1602.5,-378 1602.5,-348 1489.5,-348"/>
<text text-anchor="start" x="1497.5" y="-366" font-family="Helvetica,sans-Serif" font-size="10.00">x265::FrameEncoder</text>
<text text-anchor="middle" x="1546" y="-355" font-family="Helvetica,sans-Serif" font-size="10.00">::processRowEncoder</text>
</a>
</g>
</g>
<!-- Node4&#45;&gt;Node5 -->
<g id="edge4" class="edge"><title>Node4&#45;&gt;Node5</title>
<path fill="none" stroke="midnightblue" d="M1372.12,-727.753C1403.87,-660.776 1509.12,-438.7 1537.75,-378.287"/>
<polygon fill="midnightblue" stroke="midnightblue" points="1368.8,-726.586 1367.68,-737.122 1375.13,-729.585 1368.8,-726.586"/>
</g>
<!-- Node6 -->
<g id="node6" class="node"><title>Node6</title>
<g id="a_node6"><a xlink:href="classx265_1_1FrameEncoder.html#acad645a8ece97d884895f8f7366b7d70" target="_top" xlink:title="x265::FrameEncoder\l::processRow">
<polygon fill="white" stroke="black" points="1659.5,-348 1659.5,-378 1766.5,-378 1766.5,-348 1659.5,-348"/>
<text text-anchor="start" x="1667.5" y="-366" font-family="Helvetica,sans-Serif" font-size="10.00">x265::FrameEncoder</text>
<text text-anchor="middle" x="1713" y="-355" font-family="Helvetica,sans-Serif" font-size="10.00">::processRow</text>
</a>
</g>
</g>
<!-- Node5&#45;&gt;Node6 -->
<g id="edge5" class="edge"><title>Node5&#45;&gt;Node6</title>
<path fill="none" stroke="midnightblue" d="M1613.29,-363C1628.58,-363 1644.64,-363 1659.26,-363"/>
<polygon fill="midnightblue" stroke="midnightblue" points="1612.86,-359.5 1602.86,-363 1612.86,-366.5 1612.86,-359.5"/>
</g>
<!-- Node6&#45;&gt;Node7 -->
<g id="edge6" class="edge"><title>Node6&#45;&gt;Node7</title>
<path fill="none" stroke="midnightblue" d="M1752.85,-382.842C1759.27,-386.193 1765.84,-389.666 1772,-393 1794.43,-405.135 1819.63,-419.422 1837.97,-429.947"/>
<polygon fill="midnightblue" stroke="midnightblue" points="1754.11,-379.551 1743.62,-378.051 1750.88,-385.764 1754.11,-379.551"/>
</g>
<!-- Node9 -->
<g id="node9" class="node"><title>Node9</title>
<g id="a_node9"><a xlink:href="classx265_1_1Analysis.html#a2305f7985af66b49fdbc40ebb1b281d2" target="_top" xlink:title="x265::Analysis::checkInter\l_rd0_4">
<polygon fill="white" stroke="black" points="550.5,-711 550.5,-741 683.5,-741 683.5,-711 550.5,-711"/>
<text text-anchor="start" x="558.5" y="-729" font-family="Helvetica,sans-Serif" font-size="10.00">x265::Analysis::checkInter</text>
<text text-anchor="middle" x="617" y="-718" font-family="Helvetica,sans-Serif" font-size="10.00">_rd0_4</text>
</a>
</g>
</g>
<!-- Node8&#45;&gt;Node9 -->
<g id="edge9" class="edge"><title>Node8&#45;&gt;Node9</title>
<path fill="none" stroke="midnightblue" d="M523.653,-722.852C532.579,-723.156 541.564,-723.462 550.241,-723.758"/>
<polygon fill="midnightblue" stroke="midnightblue" points="523.734,-719.353 513.62,-722.51 523.495,-726.349 523.734,-719.353"/>
</g>
<!-- Node13 -->
<g id="node13" class="node"><title>Node13</title>
<g id="a_node13"><a xlink:href="classx265_1_1Analysis.html#a828daa3e9f1ed40a1af9f99f7ff7bb33" target="_top" xlink:title="x265::Analysis::checkInter\l_rd5_6">
<polygon fill="white" stroke="black" points="550.5,-760 550.5,-790 683.5,-790 683.5,-760 550.5,-760"/>
<text text-anchor="start" x="558.5" y="-778" font-family="Helvetica,sans-Serif" font-size="10.00">x265::Analysis::checkInter</text>
<text text-anchor="middle" x="617" y="-767" font-family="Helvetica,sans-Serif" font-size="10.00">_rd5_6</text>
</a>
</g>
</g>
<!-- Node8&#45;&gt;Node13 -->
<g id="edge15" class="edge"><title>Node8&#45;&gt;Node13</title>
<path fill="none" stroke="midnightblue" d="M480.214,-732.567C506.252,-740.704 540.302,-751.344 567.791,-759.935"/>
<polygon fill="midnightblue" stroke="midnightblue" points="481.246,-729.222 470.657,-729.58 479.158,-735.904 481.246,-729.222"/>
</g>
<!-- Node10 -->
<g id="node10" class="node"><title>Node10</title>
<g id="a_node10"><a xlink:href="classx265_1_1Analysis.html#aa6122285d10bb1bd7584958b88b029d5" target="_top" xlink:title="x265::Analysis::parallel\lModeAnalysis">
<polygon fill="white" stroke="black" points="742,-711 742,-741 860,-741 860,-711 742,-711"/>
<text text-anchor="start" x="750" y="-729" font-family="Helvetica,sans-Serif" font-size="10.00">x265::Analysis::parallel</text>
<text text-anchor="middle" x="801" y="-718" font-family="Helvetica,sans-Serif" font-size="10.00">ModeAnalysis</text>
</a>
</g>
</g>
<!-- Node9&#45;&gt;Node10 -->
<g id="edge10" class="edge"><title>Node9&#45;&gt;Node10</title>
<path fill="none" stroke="midnightblue" d="M694.104,-726C710.098,-726 726.723,-726 741.929,-726"/>
<polygon fill="midnightblue" stroke="midnightblue" points="693.706,-722.5 683.706,-726 693.706,-729.5 693.706,-722.5"/>
</g>
<!-- Node12 -->
<g id="node12" class="node"><title>Node12</title>
<g id="a_node12"><a xlink:href="classx265_1_1Analysis.html#a30d2ff7eca5addbb0a6b3dfe14f09650" target="_top" xlink:title="x265::Analysis::compress\lInterCU_rd0_4">
<polygon fill="white" stroke="black" points="1117,-760 1117,-790 1247,-790 1247,-760 1117,-760"/>
<text text-anchor="start" x="1125" y="-778" font-family="Helvetica,sans-Serif" font-size="10.00">x265::Analysis::compress</text>
<text text-anchor="middle" x="1182" y="-767" font-family="Helvetica,sans-Serif" font-size="10.00">InterCU_rd0_4</text>
</a>
</g>
</g>
<!-- Node9&#45;&gt;Node12 -->
<g id="edge13" class="edge"><title>Node9&#45;&gt;Node12</title>
<path fill="none" stroke="midnightblue" d="M683.723,-743.262C695.721,-745.899 708.183,-748.303 720,-750 860.627,-770.195 1027.52,-774.41 1116.89,-775.091"/>
<polygon fill="midnightblue" stroke="midnightblue" points="684.304,-739.805 673.777,-741.002 682.753,-746.631 684.304,-739.805"/>
</g>
<!-- Node11 -->
<g id="node11" class="node"><title>Node11</title>
<g id="a_node11"><a xlink:href="classx265_1_1Analysis.html#a29a58dad4cc1c07d2f5e5717c6be7c25" target="_top" xlink:title="x265::Analysis::findJob">
<polygon fill="white" stroke="black" points="938.5,-710.5 938.5,-729.5 1057.5,-729.5 1057.5,-710.5 938.5,-710.5"/>
<text text-anchor="middle" x="998" y="-717.5" font-family="Helvetica,sans-Serif" font-size="10.00">x265::Analysis::findJob</text>
</a>
</g>
</g>
<!-- Node10&#45;&gt;Node11 -->
<g id="edge11" class="edge"><title>Node10&#45;&gt;Node11</title>
<path fill="none" stroke="midnightblue" d="M870.274,-723.899C892.491,-723.216 916.938,-722.463 938.384,-721.804"/>
<polygon fill="midnightblue" stroke="midnightblue" points="870.13,-720.402 860.242,-724.208 870.345,-727.399 870.13,-720.402"/>
</g>
<!-- Node11&#45;&gt;Node3 -->
<g id="edge12" class="edge"><title>Node11&#45;&gt;Node3</title>
<path fill="none" stroke="midnightblue" d="M1067.97,-720C1084.01,-720 1101.03,-720 1116.85,-720"/>
<polygon fill="midnightblue" stroke="midnightblue" points="1067.59,-716.5 1057.59,-720 1067.59,-723.5 1067.59,-716.5"/>
</g>
<!-- Node12&#45;&gt;Node4 -->
<g id="edge14" class="edge"><title>Node12&#45;&gt;Node4</title>
<path fill="none" stroke="midnightblue" d="M1256.95,-763.368C1271.46,-761.085 1286.52,-758.716 1300.53,-756.513"/>
<polygon fill="midnightblue" stroke="midnightblue" points="1256.35,-759.919 1247.01,-764.931 1257.43,-766.834 1256.35,-759.919"/>
</g>
<!-- Node14 -->
<g id="node14" class="node"><title>Node14</title>
<g id="a_node14"><a xlink:href="classx265_1_1Analysis.html#a0b22b7765aa4a36b1ba6d07ba26901e6" target="_top" xlink:title="x265::Analysis::compress\lInterCU_rd5_6">
<polygon fill="white" stroke="black" points="1117,-820 1117,-850 1247,-850 1247,-820 1117,-820"/>
<text text-anchor="start" x="1125" y="-838" font-family="Helvetica,sans-Serif" font-size="10.00">x265::Analysis::compress</text>
<text text-anchor="middle" x="1182" y="-827" font-family="Helvetica,sans-Serif" font-size="10.00">InterCU_rd5_6</text>
</a>
</g>
</g>
<!-- Node13&#45;&gt;Node14 -->
<g id="edge16" class="edge"><title>Node13&#45;&gt;Node14</title>
<path fill="none" stroke="midnightblue" d="M693.853,-783.084C805.451,-794.977 1011.94,-816.983 1116.6,-828.137"/>
<polygon fill="midnightblue" stroke="midnightblue" points="694,-779.58 683.685,-782 693.258,-786.54 694,-779.58"/>
</g>
<!-- Node14&#45;&gt;Node4 -->
<g id="edge17" class="edge"><title>Node14&#45;&gt;Node4</title>
<path fill="none" stroke="midnightblue" d="M1222.63,-815.408C1259.66,-797.099 1313.38,-770.541 1341.76,-756.511"/>
<polygon fill="midnightblue" stroke="midnightblue" points="1221.01,-812.303 1213.6,-819.872 1224.11,-818.578 1221.01,-812.303"/>
</g>
<!-- Node16 -->
<g id="node16" class="node"><title>Node16</title>
<g id="a_node16"><a xlink:href="classx265_1_1Encoder.html#af5c80cef5fcafa00d1b3c105681bc784" target="_top" xlink:title="x265::Encoder::encode">
<polygon fill="white" stroke="black" points="1654.5,-233.5 1654.5,-252.5 1771.5,-252.5 1771.5,-233.5 1654.5,-233.5"/>
<text text-anchor="middle" x="1713" y="-240.5" font-family="Helvetica,sans-Serif" font-size="10.00">x265::Encoder::encode</text>
</a>
</g>
</g>
<!-- Node15&#45;&gt;Node16 -->
<g id="edge19" class="edge"><title>Node15&#45;&gt;Node16</title>
<path fill="none" stroke="midnightblue" d="M1627.95,-243C1636.84,-243 1645.77,-243 1654.3,-243"/>
<polygon fill="midnightblue" stroke="midnightblue" points="1627.93,-239.5 1617.93,-243 1627.93,-246.5 1627.93,-239.5"/>
</g>
<!-- Node17 -->
<g id="node17" class="node"><title>Node17</title>
<g id="a_node17"><a xlink:href="x265_8h.html#a7a45a920b9d86ed3fb3cb3794b14f5ea" target="_top" xlink:title="x265_encoder_encode">
<polygon fill="white" stroke="black" points="1808,-312.5 1808,-331.5 1922,-331.5 1922,-312.5 1808,-312.5"/>
<text text-anchor="middle" x="1865" y="-319.5" font-family="Helvetica,sans-Serif" font-size="10.00">x265_encoder_encode</text>
</a>
</g>
</g>
<!-- Node16&#45;&gt;Node17 -->
<g id="edge20" class="edge"><title>Node16&#45;&gt;Node17</title>
<path fill="none" stroke="midnightblue" d="M1741.27,-257.361C1771.61,-273.342 1819.79,-298.716 1845.84,-312.437"/>
<polygon fill="midnightblue" stroke="midnightblue" points="1742.57,-254.092 1732.09,-252.529 1739.31,-260.286 1742.57,-254.092"/>
</g>
<!-- Node18 -->
<g id="node18" class="node"><title>Node18</title>
<g id="a_node18"><a xlink:href="x265_8cpp.html#a3c04138a5bfe5d72780bb7e82a18e627" target="_top" xlink:title="main">
<polygon fill="white" stroke="black" points="1958,-424.5 1958,-443.5 1996,-443.5 1996,-424.5 1958,-424.5"/>
<text text-anchor="middle" x="1977" y="-431.5" font-family="Helvetica,sans-Serif" font-size="10.00">main</text>
</a>
</g>
</g>
<!-- Node17&#45;&gt;Node18 -->
<g id="edge21" class="edge"><title>Node17&#45;&gt;Node18</title>
<path fill="none" stroke="midnightblue" d="M1882.55,-338.846C1905.96,-362.689 1947.99,-405.484 1966.65,-424.475"/>
<polygon fill="midnightblue" stroke="midnightblue" points="1884.88,-336.231 1875.38,-331.549 1879.89,-341.136 1884.88,-336.231"/>
</g>
<!-- Node20 -->
<g id="node20" class="node"><title>Node20</title>
<g id="a_node20"><a xlink:href="classx265_1_1Lookahead.html#ad15172de7a432e47e8514fb157fafedd" target="_top" xlink:title="x265::Lookahead::slicetype\lDecide">
<polygon fill="white" stroke="black" points="1294,-228 1294,-258 1430,-258 1430,-228 1294,-228"/>
<text text-anchor="start" x="1302" y="-246" font-family="Helvetica,sans-Serif" font-size="10.00">x265::Lookahead::slicetype</text>
<text text-anchor="middle" x="1362" y="-235" font-family="Helvetica,sans-Serif" font-size="10.00">Decide</text>
</a>
</g>
</g>
<!-- Node19&#45;&gt;Node20 -->
<g id="edge23" class="edge"><title>Node19&#45;&gt;Node20</title>
<path fill="none" stroke="midnightblue" d="M656.769,-211.49C675.394,-219.826 698.333,-228.633 720,-233 925.661,-274.454 1175.99,-260.282 1293.7,-249.927"/>
<polygon fill="midnightblue" stroke="midnightblue" points="658,-208.203 647.453,-207.2 655.072,-214.562 658,-208.203"/>
</g>
<!-- Node23 -->
<g id="node23" class="node"><title>Node23</title>
<g id="a_node23"><a xlink:href="classx265_1_1Lookahead.html#ad963fd74581c61eaf7713367906b3e96" target="_top" xlink:title="x265::Lookahead::vbvFrameCost">
<polygon fill="white" stroke="black" points="720.5,-204.5 720.5,-223.5 881.5,-223.5 881.5,-204.5 720.5,-204.5"/>
<text text-anchor="middle" x="801" y="-211.5" font-family="Helvetica,sans-Serif" font-size="10.00">x265::Lookahead::vbvFrameCost</text>
</a>
</g>
</g>
<!-- Node19&#45;&gt;Node23 -->
<g id="edge28" class="edge"><title>Node19&#45;&gt;Node23</title>
<path fill="none" stroke="midnightblue" d="M681.655,-199.695C694.403,-201.235 707.94,-202.872 721.131,-204.466"/>
<polygon fill="midnightblue" stroke="midnightblue" points="681.969,-196.207 671.622,-198.482 681.129,-203.157 681.969,-196.207"/>
</g>
<!-- Node25 -->
<g id="node25" class="node"><title>Node25</title>
<g id="a_node25"><a xlink:href="classx265_1_1Lookahead.html#a2f8c7057dd5c5086830b5f22b38105b0" target="_top" xlink:title="x265::Lookahead::slicetype\lAnalyse">
<polygon fill="white" stroke="black" points="1114,-132 1114,-162 1250,-162 1250,-132 1114,-132"/>
<text text-anchor="start" x="1122" y="-150" font-family="Helvetica,sans-Serif" font-size="10.00">x265::Lookahead::slicetype</text>
<text text-anchor="middle" x="1182" y="-139" font-family="Helvetica,sans-Serif" font-size="10.00">Analyse</text>
</a>
</g>
</g>
<!-- Node19&#45;&gt;Node25 -->
<g id="edge32" class="edge"><title>Node19&#45;&gt;Node25</title>
<path fill="none" stroke="midnightblue" d="M628.145,-167.336C642.928,-135.09 673.766,-80.0145 720,-57 746.521,-43.7982 1076.15,-65.3133 1078,-66 1115.31,-79.8805 1149.74,-112.635 1167.8,-131.973"/>
<polygon fill="midnightblue" stroke="midnightblue" points="624.914,-165.988 624.073,-176.549 631.317,-168.817 624.914,-165.988"/>
</g>
<!-- Node26 -->
<g id="node26" class="node"><title>Node26</title>
<g id="a_node26"><a xlink:href="classx265_1_1Lookahead.html#abe59d19601dc7f3cc76ba3dd315140ee" target="_top" xlink:title="x265::Lookahead::scenecut\lInternal">
<polygon fill="white" stroke="black" points="732.5,-67 732.5,-97 869.5,-97 869.5,-67 732.5,-67"/>
<text text-anchor="start" x="740.5" y="-85" font-family="Helvetica,sans-Serif" font-size="10.00">x265::Lookahead::scenecut</text>
<text text-anchor="middle" x="801" y="-74" font-family="Helvetica,sans-Serif" font-size="10.00">Internal</text>
</a>
</g>
</g>
<!-- Node19&#45;&gt;Node26 -->
<g id="edge33" class="edge"><title>Node19&#45;&gt;Node26</title>
<path fill="none" stroke="midnightblue" d="M641.778,-169.889C661.545,-152.393 691.03,-128.278 720,-112 730.087,-106.332 741.454,-101.333 752.384,-97.1216"/>
<polygon fill="midnightblue" stroke="midnightblue" points="639.289,-167.42 634.187,-176.705 643.966,-172.628 639.289,-167.42"/>
</g>
<!-- Node28 -->
<g id="node28" class="node"><title>Node28</title>
<g id="a_node28"><a xlink:href="classx265_1_1Lookahead.html#a23cd684acae2cb60daeb2f6df390e30e" target="_top" xlink:title="x265::Lookahead::slicetype\lPathCost">
<polygon fill="white" stroke="black" points="733,-155 733,-185 869,-185 869,-155 733,-155"/>
<text text-anchor="start" x="741" y="-173" font-family="Helvetica,sans-Serif" font-size="10.00">x265::Lookahead::slicetype</text>
<text text-anchor="middle" x="801" y="-162" font-family="Helvetica,sans-Serif" font-size="10.00">PathCost</text>
</a>
</g>
</g>
<!-- Node19&#45;&gt;Node28 -->
<g id="edge36" class="edge"><title>Node19&#45;&gt;Node28</title>
<path fill="none" stroke="midnightblue" d="M681.731,-184.296C698.279,-182.296 716.152,-180.136 732.868,-178.115"/>
<polygon fill="midnightblue" stroke="midnightblue" points="681.129,-180.843 671.622,-185.518 681.969,-187.793 681.129,-180.843"/>
</g>
<!-- Node30 -->
<g id="node30" class="node"><title>Node30</title>
<g id="a_node30"><a xlink:href="classx265_1_1Lookahead.html#a7de60f6bb080e48623088fb1ed9f034b" target="_top" xlink:title="x265::Lookahead::cuTree">
<polygon fill="white" stroke="black" points="934.5,-117.5 934.5,-136.5 1061.5,-136.5 1061.5,-117.5 934.5,-117.5"/>
<text text-anchor="middle" x="998" y="-124.5" font-family="Helvetica,sans-Serif" font-size="10.00">x265::Lookahead::cuTree</text>
</a>
</g>
</g>
<!-- Node19&#45;&gt;Node30 -->
<g id="edge39" class="edge"><title>Node19&#45;&gt;Node30</title>
<path fill="none" stroke="midnightblue" d="M652.814,-172.078C672,-162.11 696.612,-150.931 720,-145 791.938,-126.758 877.566,-123.95 934.38,-124.608"/>
<polygon fill="midnightblue" stroke="midnightblue" points="651.041,-169.057 643.86,-176.846 654.331,-175.235 651.041,-169.057"/>
</g>
<!-- Node20&#45;&gt;Node15 -->
<g id="edge24" class="edge"><title>Node20&#45;&gt;Node15</title>
<path fill="none" stroke="midnightblue" d="M1440.48,-243C1451.73,-243 1463.26,-243 1474.36,-243"/>
<polygon fill="midnightblue" stroke="midnightblue" points="1440.25,-239.5 1430.25,-243 1440.25,-246.5 1440.25,-239.5"/>
</g>
<!-- Node21 -->
<g id="node21" class="node"><title>Node21</title>
<g id="a_node21"><a xlink:href="classx265_1_1Lookahead.html#a0294c952379ca6f328014f92aa51259c" target="_top" xlink:title="x265::Lookahead::flush">
<polygon fill="white" stroke="black" points="1487,-195.5 1487,-214.5 1605,-214.5 1605,-195.5 1487,-195.5"/>
<text text-anchor="middle" x="1546" y="-202.5" font-family="Helvetica,sans-Serif" font-size="10.00">x265::Lookahead::flush</text>
</a>
</g>
</g>
<!-- Node20&#45;&gt;Node21 -->
<g id="edge25" class="edge"><title>Node20&#45;&gt;Node21</title>
<path fill="none" stroke="midnightblue" d="M1440.06,-226.91C1460.23,-222.699 1481.34,-218.293 1499.29,-214.545"/>
<polygon fill="midnightblue" stroke="midnightblue" points="1439.33,-223.488 1430.25,-228.958 1440.76,-230.34 1439.33,-223.488"/>
</g>
<!-- Node22 -->
<g id="node22" class="node"><title>Node22</title>
<g id="a_node22"><a xlink:href="classx265_1_1Lookahead.html#a341d8c6a3a971583aa911cf8dedbe6a1" target="_top" xlink:title="x265::Lookahead::findJob">
<polygon fill="white" stroke="black" points="1482,-271.5 1482,-290.5 1610,-290.5 1610,-271.5 1482,-271.5"/>
<text text-anchor="middle" x="1546" y="-278.5" font-family="Helvetica,sans-Serif" font-size="10.00">x265::Lookahead::findJob</text>
</a>
</g>
</g>
<!-- Node20&#45;&gt;Node22 -->
<g id="edge27" class="edge"><title>Node20&#45;&gt;Node22</title>
<path fill="none" stroke="midnightblue" d="M1440.06,-259.09C1460.23,-263.301 1481.34,-267.707 1499.29,-271.455"/>
<polygon fill="midnightblue" stroke="midnightblue" points="1440.76,-255.66 1430.25,-257.042 1439.33,-262.512 1440.76,-255.66"/>
</g>
<!-- Node21&#45;&gt;Node16 -->
<g id="edge26" class="edge"><title>Node21&#45;&gt;Node16</title>
<path fill="none" stroke="midnightblue" d="M1598.65,-216.896C1621.85,-222.237 1648.84,-228.454 1670.66,-233.48"/>
<polygon fill="midnightblue" stroke="midnightblue" points="1599.17,-213.423 1588.64,-214.589 1597.6,-220.244 1599.17,-213.423"/>
</g>
<!-- Node24 -->
<g id="node24" class="node"><title>Node24</title>
<g id="a_node24"><a xlink:href="classx265_1_1Lookahead.html#ad80879ec65df8318fbb5109388dcfa39" target="_top" xlink:title="x265::Lookahead::vbvLookahead">
<polygon fill="white" stroke="black" points="918,-200.5 918,-219.5 1078,-219.5 1078,-200.5 918,-200.5"/>
<text text-anchor="middle" x="998" y="-207.5" font-family="Helvetica,sans-Serif" font-size="10.00">x265::Lookahead::vbvLookahead</text>
</a>
</g>
</g>
<!-- Node23&#45;&gt;Node24 -->
<g id="edge29" class="edge"><title>Node23&#45;&gt;Node24</title>
<path fill="none" stroke="midnightblue" d="M891.797,-212.158C900.534,-211.979 909.355,-211.798 917.975,-211.621"/>
<polygon fill="midnightblue" stroke="midnightblue" points="891.521,-208.663 881.595,-212.367 891.665,-215.661 891.521,-208.663"/>
</g>
<!-- Node24&#45;&gt;Node25 -->
<g id="edge30" class="edge"><title>Node24&#45;&gt;Node25</title>
<path fill="none" stroke="midnightblue" d="M1041.83,-197.559C1053.61,-193.984 1066.34,-189.974 1078,-186 1099.72,-178.599 1123.71,-169.567 1143.07,-162.059"/>
<polygon fill="midnightblue" stroke="midnightblue" points="1040.78,-194.219 1032.21,-200.448 1042.8,-200.923 1040.78,-194.219"/>
</g>
<!-- Node25&#45;&gt;Node20 -->
<g id="edge31" class="edge"><title>Node25&#45;&gt;Node20</title>
<path fill="none" stroke="midnightblue" d="M1220.25,-167.091C1253.85,-185.21 1302.51,-211.457 1332.93,-227.86"/>
<polygon fill="midnightblue" stroke="midnightblue" points="1221.67,-163.878 1211.2,-162.211 1218.34,-170.039 1221.67,-163.878"/>
</g>
<!-- Node27 -->
<g id="node27" class="node"><title>Node27</title>
<g id="a_node27"><a xlink:href="classx265_1_1Lookahead.html#aa8614a28660df5604b8f7a2319d1c43a" target="_top" xlink:title="x265::Lookahead::scenecut">
<polygon fill="white" stroke="black" points="929.5,-75.5 929.5,-94.5 1066.5,-94.5 1066.5,-75.5 929.5,-75.5"/>
<text text-anchor="middle" x="998" y="-82.5" font-family="Helvetica,sans-Serif" font-size="10.00">x265::Lookahead::scenecut</text>
</a>
</g>
</g>
<!-- Node26&#45;&gt;Node27 -->
<g id="edge34" class="edge"><title>Node26&#45;&gt;Node27</title>
<path fill="none" stroke="midnightblue" d="M879.773,-83.1965C896.215,-83.4495 913.439,-83.7144 929.465,-83.961"/>
<polygon fill="midnightblue" stroke="midnightblue" points="879.707,-79.6952 869.654,-83.0408 879.599,-86.6943 879.707,-79.6952"/>
</g>
<!-- Node27&#45;&gt;Node25 -->
<g id="edge35" class="edge"><title>Node27&#45;&gt;Node25</title>
<path fill="none" stroke="midnightblue" d="M1043.81,-97.3807C1055.03,-100.663 1067,-104.322 1078,-108 1099.76,-115.275 1123.75,-124.299 1143.1,-131.834"/>
<polygon fill="midnightblue" stroke="midnightblue" points="1044.76,-94.0139 1034.18,-94.6026 1042.82,-100.739 1044.76,-94.0139"/>
</g>
<!-- Node29 -->
<g id="node29" class="node"><title>Node29</title>
<g id="a_node29"><a xlink:href="classx265_1_1Lookahead.html#a694b3e0d0fb30e4e5b149cd3d79a839d" target="_top" xlink:title="x265::Lookahead::slicetypePath">
<polygon fill="white" stroke="black" points="920,-157.5 920,-176.5 1076,-176.5 1076,-157.5 920,-157.5"/>
<text text-anchor="middle" x="998" y="-164.5" font-family="Helvetica,sans-Serif" font-size="10.00">x265::Lookahead::slicetypePath</text>
</a>
</g>
</g>
<!-- Node28&#45;&gt;Node29 -->
<g id="edge37" class="edge"><title>Node28&#45;&gt;Node29</title>
<path fill="none" stroke="midnightblue" d="M879.182,-168.813C892.514,-168.607 906.377,-168.394 919.712,-168.189"/>
<polygon fill="midnightblue" stroke="midnightblue" points="879.053,-165.314 869.108,-168.968 879.161,-172.313 879.053,-165.314"/>
</g>
<!-- Node29&#45;&gt;Node25 -->
<g id="edge38" class="edge"><title>Node29&#45;&gt;Node25</title>
<path fill="none" stroke="midnightblue" d="M1086.2,-157.417C1095.47,-156.399 1104.79,-155.375 1113.77,-154.388"/>
<polygon fill="midnightblue" stroke="midnightblue" points="1085.74,-153.947 1076.18,-158.518 1086.51,-160.905 1085.74,-153.947"/>
</g>
<!-- Node30&#45;&gt;Node25 -->
<g id="edge40" class="edge"><title>Node30&#45;&gt;Node25</title>
<path fill="none" stroke="midnightblue" d="M1071.66,-134.985C1085.6,-136.517 1100.14,-138.115 1113.9,-139.626"/>
<polygon fill="midnightblue" stroke="midnightblue" points="1071.96,-131.496 1061.63,-133.883 1071.19,-138.454 1071.96,-131.496"/>
</g>
<!-- Node32 -->
<g id="node32" class="node"><title>Node32</title>
<g id="a_node32"><a xlink:href="testpool_8cpp.html#a2c3f6775325c30275d11c6abee2db6a0" target="_top" xlink:title="main">
<polygon fill="white" stroke="black" points="598,-394.5 598,-413.5 636,-413.5 636,-394.5 598,-394.5"/>
<text text-anchor="middle" x="617" y="-401.5" font-family="Helvetica,sans-Serif" font-size="10.00">main</text>
</a>
</g>
</g>
<!-- Node31&#45;&gt;Node32 -->
<g id="edge42" class="edge"><title>Node31&#45;&gt;Node32</title>
<path fill="none" stroke="midnightblue" d="M501.255,-404C535.293,-404 575.231,-404 597.882,-404"/>
<polygon fill="midnightblue" stroke="midnightblue" points="500.907,-400.5 490.906,-404 500.906,-407.5 500.907,-400.5"/>
</g>
<!-- Node33&#45;&gt;Node3 -->
<g id="edge52" class="edge"><title>Node33&#45;&gt;Node3</title>
<path fill="none" stroke="midnightblue" d="M303.517,-632.544C311.747,-635.609 320.131,-638.825 328,-642 344.237,-648.551 347.064,-653.557 364,-658 472.823,-686.552 503.493,-682 616,-682 616,-682 616,-682 802,-682 924.957,-682 956.011,-685.6 1078,-701 1090.63,-702.594 1104.05,-704.737 1116.89,-707.01"/>
<polygon fill="midnightblue" stroke="midnightblue" points="304.56,-629.198 293.966,-629.026 302.14,-635.767 304.56,-629.198"/>
</g>
<!-- Node33&#45;&gt;Node7 -->
<g id="edge53" class="edge"><title>Node33&#45;&gt;Node7</title>
<path fill="none" stroke="midnightblue" d="M311.047,-621.974C383.279,-630.861 508.281,-644 616,-644 616,-644 616,-644 999,-644 1326.84,-644 1707.19,-506.56 1826.35,-460.121"/>
<polygon fill="midnightblue" stroke="midnightblue" points="311.137,-618.458 300.781,-620.695 310.272,-625.404 311.137,-618.458"/>
</g>
<!-- Node33&#45;&gt;Node8 -->
<g id="edge54" class="edge"><title>Node33&#45;&gt;Node8</title>
<path fill="none" stroke="midnightblue" d="M276.085,-635.784C298.04,-653.942 331.435,-679.43 364,-696 375.556,-701.88 388.851,-706.725 400.956,-710.484"/>
<polygon fill="midnightblue" stroke="midnightblue" points="278.167,-632.962 268.255,-629.218 273.668,-638.326 278.167,-632.962"/>
</g>
<!-- Node33&#45;&gt;Node19 -->
<g id="edge55" class="edge"><title>Node33&#45;&gt;Node19</title>
<path fill="none" stroke="midnightblue" d="M290.367,-594.142C346.66,-564.01 450.365,-501.813 514,-423 570.596,-352.905 602.056,-246.493 612.265,-207.238"/>
<polygon fill="midnightblue" stroke="midnightblue" points="288.624,-591.104 281.421,-598.874 291.897,-597.292 288.624,-591.104"/>
</g>
<!-- Node33&#45;&gt;Node31 -->
<g id="edge56" class="edge"><title>Node33&#45;&gt;Node31</title>
<path fill="none" stroke="midnightblue" d="M271.174,-591.345C311.585,-545.964 401.004,-445.546 429.263,-413.812"/>
<polygon fill="midnightblue" stroke="midnightblue" points="268.485,-589.101 264.449,-598.897 273.713,-593.757 268.485,-589.101"/>
</g>
<!-- Node34 -->
<g id="node34" class="node"><title>Node34</title>
<g id="a_node34"><a xlink:href="classx265_1_1JobProvider.html#ad004107327dde958624d0db7a55c57f7" target="_top" xlink:title="x265::JobProvider::\lflush">
<polygon fill="white" stroke="black" points="388.5,-576 388.5,-606 489.5,-606 489.5,-576 388.5,-576"/>
<text text-anchor="start" x="396.5" y="-594" font-family="Helvetica,sans-Serif" font-size="10.00">x265::JobProvider::</text>
<text text-anchor="middle" x="439" y="-583" font-family="Helvetica,sans-Serif" font-size="10.00">flush</text>
</a>
</g>
</g>
<!-- Node33&#45;&gt;Node34 -->
<g id="edge44" class="edge"><title>Node33&#45;&gt;Node34</title>
<path fill="none" stroke="midnightblue" d="M310.746,-606.652C335.811,-603.569 364.614,-600.026 388.471,-597.092"/>
<polygon fill="midnightblue" stroke="midnightblue" points="310.12,-603.202 300.622,-607.897 310.974,-610.15 310.12,-603.202"/>
</g>
<!-- Node35 -->
<g id="node35" class="node"><title>Node35</title>
<g id="a_node35"><a xlink:href="classx265_1_1FrameEncoder.html#a8a04405cf881d4ff9fa7bb6dd103f707" target="_top" xlink:title="x265::FrameEncoder\l::destroy">
<polygon fill="white" stroke="black" points="563.5,-585 563.5,-615 670.5,-615 670.5,-585 563.5,-585"/>
<text text-anchor="start" x="571.5" y="-603" font-family="Helvetica,sans-Serif" font-size="10.00">x265::FrameEncoder</text>
<text text-anchor="middle" x="617" y="-592" font-family="Helvetica,sans-Serif" font-size="10.00">::destroy</text>
</a>
</g>
</g>
<!-- Node34&#45;&gt;Node35 -->
<g id="edge45" class="edge"><title>Node34&#45;&gt;Node35</title>
<path fill="none" stroke="midnightblue" d="M500.166,-594.077C520.725,-595.128 543.544,-596.295 563.455,-597.313"/>
<polygon fill="midnightblue" stroke="midnightblue" points="500.129,-590.57 489.964,-593.555 499.772,-597.561 500.129,-590.57"/>
</g>
<!-- Node38 -->
<g id="node38" class="node"><title>Node38</title>
<g id="a_node38"><a xlink:href="classx265_1_1Lookahead.html#ab9a7aba780092c796bb7b2a2e0d41f4d" target="_top" xlink:title="x265::Lookahead::destroy">
<polygon fill="white" stroke="black" points="552.5,-508.5 552.5,-527.5 681.5,-527.5 681.5,-508.5 552.5,-508.5"/>
<text text-anchor="middle" x="617" y="-515.5" font-family="Helvetica,sans-Serif" font-size="10.00">x265::Lookahead::destroy</text>
</a>
</g>
</g>
<!-- Node34&#45;&gt;Node38 -->
<g id="edge49" class="edge"><title>Node34&#45;&gt;Node38</title>
<path fill="none" stroke="midnightblue" d="M476.354,-571.141C497.448,-560.132 524.758,-546.742 550,-537 559.122,-533.48 569.171,-530.265 578.619,-527.522"/>
<polygon fill="midnightblue" stroke="midnightblue" points="474.636,-568.09 467.425,-575.852 477.902,-574.281 474.636,-568.09"/>
</g>
<!-- Node39 -->
<g id="node39" class="node"><title>Node39</title>
<g id="a_node39"><a xlink:href="classMD5Frame.html#a8443b99914fb3ebd12367368532a5ec0" target="_top" xlink:title="MD5Frame::~MD5Frame">
<polygon fill="white" stroke="black" points="554,-546.5 554,-565.5 680,-565.5 680,-546.5 554,-546.5"/>
<text text-anchor="middle" x="617" y="-553.5" font-family="Helvetica,sans-Serif" font-size="10.00">MD5Frame::~MD5Frame</text>
</a>
</g>
</g>
<!-- Node34&#45;&gt;Node39 -->
<g id="edge51" class="edge"><title>Node34&#45;&gt;Node39</title>
<path fill="none" stroke="midnightblue" d="M499.957,-579.077C522.164,-574.661 547.032,-569.715 568.034,-565.539"/>
<polygon fill="midnightblue" stroke="midnightblue" points="499.089,-575.681 489.964,-581.064 500.454,-582.546 499.089,-575.681"/>
</g>
<!-- Node36 -->
<g id="node36" class="node"><title>Node36</title>
<g id="a_node36"><a xlink:href="classx265_1_1Encoder.html#ac689b087686eca38579aad7426e34fc6" target="_top" xlink:title="x265::Encoder::destroy">
<polygon fill="white" stroke="black" points="742,-590.5 742,-609.5 860,-609.5 860,-590.5 742,-590.5"/>
<text text-anchor="middle" x="801" y="-597.5" font-family="Helvetica,sans-Serif" font-size="10.00">x265::Encoder::destroy</text>
</a>
</g>
</g>
<!-- Node35&#45;&gt;Node36 -->
<g id="edge46" class="edge"><title>Node35&#45;&gt;Node36</title>
<path fill="none" stroke="midnightblue" d="M680.778,-600C700.548,-600 722.291,-600 741.734,-600"/>
<polygon fill="midnightblue" stroke="midnightblue" points="680.642,-596.5 670.642,-600 680.642,-603.5 680.642,-596.5"/>
</g>
<!-- Node37 -->
<g id="node37" class="node"><title>Node37</title>
<g id="a_node37"><a xlink:href="x265_8h.html#ac370491d505086b2eb41e10d89f271ad" target="_top" xlink:title="x265_encoder_close">
<polygon fill="white" stroke="black" points="1660,-596.5 1660,-615.5 1766,-615.5 1766,-596.5 1660,-596.5"/>
<text text-anchor="middle" x="1713" y="-603.5" font-family="Helvetica,sans-Serif" font-size="10.00">x265_encoder_close</text>
</a>
</g>
</g>
<!-- Node36&#45;&gt;Node37 -->
<g id="edge47" class="edge"><title>Node36&#45;&gt;Node37</title>
<path fill="none" stroke="midnightblue" d="M870.476,-601.736C946.377,-603.508 1072.43,-606 1181,-606 1181,-606 1181,-606 1363,-606 1468.43,-606 1591.77,-606 1659.97,-606"/>
<polygon fill="midnightblue" stroke="midnightblue" points="870.186,-598.228 860.106,-601.491 870.021,-605.226 870.186,-598.228"/>
</g>
<!-- Node37&#45;&gt;Node18 -->
<g id="edge48" class="edge"><title>Node37&#45;&gt;Node18</title>
<path fill="none" stroke="midnightblue" d="M1750.57,-592.407C1757.82,-589.286 1765.27,-585.767 1772,-582 1850.67,-537.999 1934.82,-468.979 1964.7,-443.696"/>
<polygon fill="midnightblue" stroke="midnightblue" points="1748.8,-589.351 1740.89,-596.401 1751.47,-595.821 1748.8,-589.351"/>
</g>
<!-- Node38&#45;&gt;Node36 -->
<g id="edge50" class="edge"><title>Node38&#45;&gt;Node36</title>
<path fill="none" stroke="midnightblue" d="M666.499,-530.647C672.461,-532.586 678.416,-534.712 684,-537 721.746,-552.468 763.083,-576.884 784.768,-590.326"/>
<polygon fill="midnightblue" stroke="midnightblue" points="667.111,-527.173 656.523,-527.566 665.045,-533.861 667.111,-527.173"/>
</g>
<!-- Node40&#45;&gt;Node19 -->
<g id="edge64" class="edge"><title>Node40&#45;&gt;Node19</title>
<path fill="none" stroke="midnightblue" d="M276.965,-275.772C299.401,-264.04 333.008,-247.788 364,-238 430.793,-216.905 510.784,-204.355 562.452,-197.82"/>
<polygon fill="midnightblue" stroke="midnightblue" points="275.266,-272.712 268.074,-280.491 278.548,-278.894 275.266,-272.712"/>
</g>
<!-- Node40&#45;&gt;Node31 -->
<g id="edge67" class="edge"><title>Node40&#45;&gt;Node31</title>
<path fill="none" stroke="midnightblue" d="M275.245,-304.78C314.192,-328.523 389.628,-374.511 422.291,-394.423"/>
<polygon fill="midnightblue" stroke="midnightblue" points="276.982,-301.74 266.622,-299.523 273.338,-307.717 276.982,-301.74"/>
</g>
<!-- Node41 -->
<g id="node41" class="node"><title>Node41</title>
<g id="a_node41"><a xlink:href="classx265_1_1FrameEncoder.html#a967c6be94893dc938c532a9773b27bb5" target="_top" xlink:title="x265::FrameEncoder\l::enqueueRowEncoder">
<polygon fill="white" stroke="black" points="1304,-368 1304,-398 1420,-398 1420,-368 1304,-368"/>
<text text-anchor="start" x="1312" y="-386" font-family="Helvetica,sans-Serif" font-size="10.00">x265::FrameEncoder</text>
<text text-anchor="middle" x="1362" y="-375" font-family="Helvetica,sans-Serif" font-size="10.00">::enqueueRowEncoder</text>
</a>
</g>
</g>
<!-- Node40&#45;&gt;Node41 -->
<g id="edge58" class="edge"><title>Node40&#45;&gt;Node41</title>
<path fill="none" stroke="midnightblue" d="M333.956,-300.703C344.07,-301.882 354.265,-303.012 364,-304 720.934,-340.234 1151.19,-369.442 1303.88,-379.361"/>
<polygon fill="midnightblue" stroke="midnightblue" points="334.233,-297.211 323.89,-299.511 333.409,-304.163 334.233,-297.211"/>
</g>
<!-- Node42 -->
<g id="node42" class="node"><title>Node42</title>
<g id="a_node42"><a xlink:href="classx265_1_1FrameEncoder.html#a8942ed6f97bb47874d11bfa0bf32ba3e" target="_top" xlink:title="x265::FrameEncoder\l::enqueueRowFilter">
<polygon fill="white" stroke="black" points="1308.5,-319 1308.5,-349 1415.5,-349 1415.5,-319 1308.5,-319"/>
<text text-anchor="start" x="1316.5" y="-337" font-family="Helvetica,sans-Serif" font-size="10.00">x265::FrameEncoder</text>
<text text-anchor="middle" x="1362" y="-326" font-family="Helvetica,sans-Serif" font-size="10.00">::enqueueRowFilter</text>
</a>
</g>
</g>
<!-- Node40&#45;&gt;Node42 -->
<g id="edge61" class="edge"><title>Node40&#45;&gt;Node42</title>
<path fill="none" stroke="midnightblue" d="M337.748,-290C411.702,-290 520.83,-290 616,-290 616,-290 616,-290 802,-290 988.666,-290 1209.32,-314.686 1308.32,-327.077"/>
<polygon fill="midnightblue" stroke="midnightblue" points="337.552,-286.5 327.552,-290 337.551,-293.5 337.552,-286.5"/>
</g>
<!-- Node43 -->
<g id="node43" class="node"><title>Node43</title>
<g id="a_node43"><a xlink:href="classx265_1_1CostEstimate.html#a239a71996364d7662e9c9c32b82d6c9f" target="_top" xlink:title="x265::CostEstimate\l::processRow">
<polygon fill="white" stroke="black" points="387,-155 387,-185 491,-185 491,-155 387,-155"/>
<text text-anchor="start" x="395" y="-173" font-family="Helvetica,sans-Serif" font-size="10.00">x265::CostEstimate</text>
<text text-anchor="middle" x="439" y="-162" font-family="Helvetica,sans-Serif" font-size="10.00">::processRow</text>
</a>
</g>
</g>
<!-- Node40&#45;&gt;Node43 -->
<g id="edge65" class="edge"><title>Node40&#45;&gt;Node43</title>
<path fill="none" stroke="midnightblue" d="M268.414,-273.464C289.659,-253.95 327.297,-221.449 364,-200 373.575,-194.404 384.392,-189.376 394.74,-185.108"/>
<polygon fill="midnightblue" stroke="midnightblue" points="265.797,-271.118 260.861,-280.493 270.566,-276.243 265.797,-271.118"/>
</g>
<!-- Node44 -->
<g id="node44" class="node"><title>Node44</title>
<g id="a_node44"><a xlink:href="classMD5Frame.html#a39dee23ab5b9de1e283625f053954874" target="_top" xlink:title="MD5Frame::processRow">
<polygon fill="white" stroke="black" points="376,-116.5 376,-135.5 502,-135.5 502,-116.5 376,-116.5"/>
<text text-anchor="middle" x="439" y="-123.5" font-family="Helvetica,sans-Serif" font-size="10.00">MD5Frame::processRow</text>
</a>
</g>
</g>
<!-- Node40&#45;&gt;Node44 -->
<g id="edge68" class="edge"><title>Node40&#45;&gt;Node44</title>
<path fill="none" stroke="midnightblue" d="M260.142,-271.549C276.521,-240.461 313.897,-177.83 364,-145 369.88,-141.147 376.497,-138.075 383.294,-135.626"/>
<polygon fill="midnightblue" stroke="midnightblue" points="257.023,-269.961 255.572,-280.456 263.251,-273.156 257.023,-269.961"/>
</g>
<!-- Node41&#45;&gt;Node5 -->
<g id="edge60" class="edge"><title>Node41&#45;&gt;Node5</title>
<path fill="none" stroke="midnightblue" d="M1430.11,-375.625C1449.6,-373.483 1470.66,-371.169 1489.36,-369.114"/>
<polygon fill="midnightblue" stroke="midnightblue" points="1429.64,-372.155 1420.09,-376.727 1430.41,-379.113 1429.64,-372.155"/>
</g>
<!-- Node41&#45;&gt;Node7 -->
<g id="edge59" class="edge"><title>Node41&#45;&gt;Node7</title>
<path fill="none" stroke="midnightblue" d="M1430.4,-390.195C1511.54,-399.023 1651.9,-414.82 1772,-431 1783.85,-432.596 1796.53,-434.44 1808.58,-436.254"/>
<polygon fill="midnightblue" stroke="midnightblue" points="1430.63,-386.701 1420.32,-389.101 1429.88,-393.66 1430.63,-386.701"/>
</g>
<!-- Node42&#45;&gt;Node5 -->
<g id="edge63" class="edge"><title>Node42&#45;&gt;Node5</title>
<path fill="none" stroke="midnightblue" d="M1425.6,-343.975C1446.3,-347.272 1469.17,-350.916 1489.3,-354.125"/>
<polygon fill="midnightblue" stroke="midnightblue" points="1426.07,-340.505 1415.64,-342.388 1424.97,-347.418 1426.07,-340.505"/>
</g>
<!-- Node42&#45;&gt;Node6 -->
<g id="edge62" class="edge"><title>Node42&#45;&gt;Node6</title>
<path fill="none" stroke="midnightblue" d="M1425.58,-330.749C1477.4,-329.068 1552.83,-328.962 1618,-338 1633.39,-340.134 1649.86,-343.963 1664.64,-347.993"/>
<polygon fill="midnightblue" stroke="midnightblue" points="1425.41,-327.252 1415.54,-331.103 1425.66,-334.248 1425.41,-327.252"/>
</g>
<!-- Node43&#45;&gt;Node19 -->
<g id="edge66" class="edge"><title>Node43&#45;&gt;Node19</title>
<path fill="none" stroke="midnightblue" d="M501.548,-177.694C521.385,-180.173 543.199,-182.9 562.414,-185.302"/>
<polygon fill="midnightblue" stroke="midnightblue" points="501.737,-174.19 491.38,-176.422 500.868,-181.136 501.737,-174.19"/>
</g>
</g>
</svg>
