<?xml version="1.0" encoding="UTF-8" standalone="no"?>
<!DOCTYPE svg PUBLIC "-//W3C//DTD SVG 1.1//EN"
 "http://www.w3.org/Graphics/SVG/1.1/DTD/svg11.dtd">
<!-- Generated by graphviz version 2.36.0 (20140111.2315)
 -->
<!-- Title: x265::Predict::initAdiPatternChroma Pages: 1 -->
<!--zoomable 283 -->
<svg id="main" version="1.1" xmlns="http://www.w3.org/2000/svg" xmlns:xlink="http://www.w3.org/1999/xlink" xml:space="preserve" onload="init(evt)">
<style type="text/css"><![CDATA[
.edge:hover path { stroke: red; }
.edge:hover polygon { stroke: red; fill: red; }
]]></style>
<script type="text/javascript"><![CDATA[
var edges = document.getElementsByTagName('g');
if (edges && edges.length) {
  for (var i=0;i<edges.length;i++) {
    if (edges[i].id.substr(0,4)=='edge') {
      edges[i].setAttribute('class','edge');
    }
  }
}
]]></script>
        <defs>
                <circle id="rim" cx="0" cy="0" r="7"/>
                <circle id="rim2" cx="0" cy="0" r="3.5"/>
                <g id="zoomPlus">
                        <use xlink:href="#rim" fill="#404040">
                                <set attributeName="fill" to="#808080" begin="zoomplus.mouseover" end="zoomplus.mouseout"/>
                        </use>
                        <path d="M-4,0h8M0,-4v8" fill="none" stroke="white" stroke-width="1.5" pointer-events="none"/>
                </g>
                <g id="zoomMin">
                        <use xlink:href="#rim" fill="#404040">
                                <set attributeName="fill" to="#808080" begin="zoomminus.mouseover" end="zoomminus.mouseout"/>
                        </use>
                        <path d="M-4,0h8" fill="none" stroke="white" stroke-width="1.5" pointer-events="none"/>
                </g>
                <g id="dirArrow">
                        <path fill="none" stroke="white" stroke-width="1.5" d="M0,-3.0v7 M-2.5,-0.5L0,-3.0L2.5,-0.5"/>
                </g>
               <g id="resetDef">
                       <use xlink:href="#rim2" fill="#404040">
                               <set attributeName="fill" to="#808080" begin="reset.mouseover" end="reset.mouseout"/>
                       </use>
               </g>
        </defs>

<script type="text/javascript">
var viewWidth = 1406;
var viewHeight = 283;
var sectionId = 'dynsection-14';
</script>
<script xlink:href="svgpan.js"/>
<svg id="graph" class="graph">
<g id="viewport">
<title>x265::Predict::initAdiPatternChroma</title>
<polygon fill="white" stroke="none" points="-4,4 -4,-278.657 1402,-278.657 1402,4 -4,4"/>
<!-- Node1 -->
<g id="node1" class="node"><title>Node1</title>
<polygon fill="#bfbfbf" stroke="black" points="0.5,-88.7322 0.5,-118.732 139.5,-118.732 139.5,-88.7322 0.5,-88.7322"/>
<text text-anchor="start" x="8.5" y="-106.732" font-family="Helvetica,sans-Serif" font-size="10.00">x265::Predict::initAdiPattern</text>
<text text-anchor="middle" x="70" y="-95.7322" font-family="Helvetica,sans-Serif" font-size="10.00">Chroma</text>
</g>
<!-- Node2 -->
<g id="node2" class="node"><title>Node2</title>
<g id="a_node2"><a xlink:href="classx265_1_1Search.html#a0ec5d297bb4eba4e9445ff67b35b95fa" target="_top" xlink:title="x265::Search::codeIntraChromaQt">
<polygon fill="white" stroke="black" points="176,-139.232 176,-158.232 342,-158.232 342,-139.232 176,-139.232"/>
<text text-anchor="middle" x="259" y="-146.232" font-family="Helvetica,sans-Serif" font-size="10.00">x265::Search::codeIntraChromaQt</text>
</a>
</g>
</g>
<!-- Node1&#45;&gt;Node2 -->
<g id="edge1" class="edge"><title>Node1&#45;&gt;Node2</title>
<path fill="none" stroke="midnightblue" d="M143.536,-121.187C169.006,-127.316 196.663,-133.972 218.41,-139.205"/>
<polygon fill="midnightblue" stroke="midnightblue" points="144.07,-117.716 133.528,-118.779 142.432,-124.522 144.07,-117.716"/>
</g>
<!-- Node14 -->
<g id="node14" class="node"><title>Node14</title>
<g id="a_node14"><a xlink:href="classx265_1_1Search.html#a42170100e328cf2504b615ecb2579094" target="_top" xlink:title="x265::Search::residualQTIntra\lChroma">
<polygon fill="white" stroke="black" points="185.5,-88.7322 185.5,-118.732 332.5,-118.732 332.5,-88.7322 185.5,-88.7322"/>
<text text-anchor="start" x="193.5" y="-106.732" font-family="Helvetica,sans-Serif" font-size="10.00">x265::Search::residualQTIntra</text>
<text text-anchor="middle" x="259" y="-95.7322" font-family="Helvetica,sans-Serif" font-size="10.00">Chroma</text>
</a>
</g>
</g>
<!-- Node1&#45;&gt;Node14 -->
<g id="edge21" class="edge"><title>Node1&#45;&gt;Node14</title>
<path fill="none" stroke="midnightblue" d="M149.822,-103.732C161.605,-103.732 173.705,-103.732 185.352,-103.732"/>
<polygon fill="midnightblue" stroke="midnightblue" points="149.57,-100.232 139.57,-103.732 149.57,-107.232 149.57,-100.232"/>
</g>
<!-- Node17 -->
<g id="node17" class="node"><title>Node17</title>
<g id="a_node17"><a xlink:href="classx265_1_1Search.html#ad676dc0bcf94eea19260363b3b029755" target="_top" xlink:title="x265::Search::getBestIntra\lModeChroma">
<polygon fill="white" stroke="black" points="192,-39.7322 192,-69.7322 326,-69.7322 326,-39.7322 192,-39.7322"/>
<text text-anchor="start" x="200" y="-57.7322" font-family="Helvetica,sans-Serif" font-size="10.00">x265::Search::getBestIntra</text>
<text text-anchor="middle" x="259" y="-46.7322" font-family="Helvetica,sans-Serif" font-size="10.00">ModeChroma</text>
</a>
</g>
</g>
<!-- Node1&#45;&gt;Node17 -->
<g id="edge26" class="edge"><title>Node1&#45;&gt;Node17</title>
<path fill="none" stroke="midnightblue" d="M138.255,-86.1093C158.713,-80.7485 180.996,-74.9097 200.731,-69.7384"/>
<polygon fill="midnightblue" stroke="midnightblue" points="137.163,-82.7771 128.377,-88.6976 138.938,-89.5485 137.163,-82.7771"/>
</g>
<!-- Node3 -->
<g id="node3" class="node"><title>Node3</title>
<g id="a_node3"><a xlink:href="classx265_1_1Search.html#a70d466b561a7463b8ec5a213384ae667" target="_top" xlink:title="x265::Search::estIntraPred\lChromaQT">
<polygon fill="white" stroke="black" points="389,-135.732 389,-165.732 523,-165.732 523,-135.732 389,-135.732"/>
<text text-anchor="start" x="397" y="-153.732" font-family="Helvetica,sans-Serif" font-size="10.00">x265::Search::estIntraPred</text>
<text text-anchor="middle" x="456" y="-142.732" font-family="Helvetica,sans-Serif" font-size="10.00">ChromaQT</text>
</a>
</g>
</g>
<!-- Node2&#45;&gt;Node3 -->
<g id="edge2" class="edge"><title>Node2&#45;&gt;Node3</title>
<path fill="none" stroke="midnightblue" d="M352.438,-149.68C364.758,-149.807 377.187,-149.934 388.933,-150.055"/>
<polygon fill="midnightblue" stroke="midnightblue" points="352.168,-146.177 342.132,-149.575 352.096,-153.177 352.168,-146.177"/>
</g>
<!-- Node4 -->
<g id="node4" class="node"><title>Node4</title>
<g id="a_node4"><a xlink:href="classx265_1_1Analysis.html#ae4d61bcf4d2c22a054d68d6d77136428" target="_top" xlink:title="x265::Analysis::encodeIntra\lInInter">
<polygon fill="white" stroke="black" points="570,-200.732 570,-230.732 708,-230.732 708,-200.732 570,-200.732"/>
<text text-anchor="start" x="578" y="-218.732" font-family="Helvetica,sans-Serif" font-size="10.00">x265::Analysis::encodeIntra</text>
<text text-anchor="middle" x="639" y="-207.732" font-family="Helvetica,sans-Serif" font-size="10.00">InInter</text>
</a>
</g>
</g>
<!-- Node3&#45;&gt;Node4 -->
<g id="edge3" class="edge"><title>Node3&#45;&gt;Node4</title>
<path fill="none" stroke="midnightblue" d="M508.495,-169.225C536.166,-179.162 569.854,-191.26 595.935,-200.626"/>
<polygon fill="midnightblue" stroke="midnightblue" points="509.574,-165.894 498.98,-165.808 507.209,-172.482 509.574,-165.894"/>
</g>
<!-- Node10 -->
<g id="node10" class="node"><title>Node10</title>
<g id="a_node10"><a xlink:href="classx265_1_1Search.html#ab02df91827cf67796d1605bde60c6aed" target="_top" xlink:title="x265::Search::checkIntra">
<polygon fill="white" stroke="black" points="744,-82.2322 744,-101.232 870,-101.232 870,-82.2322 744,-82.2322"/>
<text text-anchor="middle" x="807" y="-89.2322" font-family="Helvetica,sans-Serif" font-size="10.00">x265::Search::checkIntra</text>
</a>
</g>
</g>
<!-- Node3&#45;&gt;Node10 -->
<g id="edge11" class="edge"><title>Node3&#45;&gt;Node10</title>
<path fill="none" stroke="midnightblue" d="M533.286,-137.836C598.552,-126.802 690.998,-111.174 749.723,-101.246"/>
<polygon fill="midnightblue" stroke="midnightblue" points="532.331,-134.447 523.055,-139.565 533.498,-141.349 532.331,-134.447"/>
</g>
<!-- Node5 -->
<g id="node5" class="node"><title>Node5</title>
<g id="a_node5"><a xlink:href="classx265_1_1Analysis.html#aa6122285d10bb1bd7584958b88b029d5" target="_top" xlink:title="x265::Analysis::parallel\lModeAnalysis">
<polygon fill="white" stroke="black" points="748,-219.732 748,-249.732 866,-249.732 866,-219.732 748,-219.732"/>
<text text-anchor="start" x="756" y="-237.732" font-family="Helvetica,sans-Serif" font-size="10.00">x265::Analysis::parallel</text>
<text text-anchor="middle" x="807" y="-226.732" font-family="Helvetica,sans-Serif" font-size="10.00">ModeAnalysis</text>
</a>
</g>
</g>
<!-- Node4&#45;&gt;Node5 -->
<g id="edge4" class="edge"><title>Node4&#45;&gt;Node5</title>
<path fill="none" stroke="midnightblue" d="M718.707,-224.741C728.575,-225.87 738.524,-227.009 747.994,-228.093"/>
<polygon fill="midnightblue" stroke="midnightblue" points="718.81,-221.23 708.477,-223.57 718.014,-228.184 718.81,-221.23"/>
</g>
<!-- Node7 -->
<g id="node7" class="node"><title>Node7</title>
<g id="a_node7"><a xlink:href="classx265_1_1Analysis.html#a87060ff27a37f56adc5f5b8a4c033ece" target="_top" xlink:title="x265::Analysis::compress\lInterCU_dist">
<polygon fill="white" stroke="black" points="1080,-202.732 1080,-232.732 1210,-232.732 1210,-202.732 1080,-202.732"/>
<text text-anchor="start" x="1088" y="-220.732" font-family="Helvetica,sans-Serif" font-size="10.00">x265::Analysis::compress</text>
<text text-anchor="middle" x="1145" y="-209.732" font-family="Helvetica,sans-Serif" font-size="10.00">InterCU_dist</text>
</a>
</g>
</g>
<!-- Node4&#45;&gt;Node7 -->
<g id="edge8" class="edge"><title>Node4&#45;&gt;Node7</title>
<path fill="none" stroke="midnightblue" d="M677.247,-235.308C696.588,-244.381 720.944,-254.154 744,-258.732 874.826,-284.711 912.831,-274.919 1044,-250.732 1065.22,-246.82 1088.12,-239.503 1106.65,-232.752"/>
<polygon fill="midnightblue" stroke="midnightblue" points="678.711,-232.128 668.183,-230.936 675.669,-238.433 678.711,-232.128"/>
</g>
<!-- Node9 -->
<g id="node9" class="node"><title>Node9</title>
<g id="a_node9"><a xlink:href="classx265_1_1Analysis.html#a30d2ff7eca5addbb0a6b3dfe14f09650" target="_top" xlink:title="x265::Analysis::compress\lInterCU_rd0_4">
<polygon fill="white" stroke="black" points="1080,-137.732 1080,-167.732 1210,-167.732 1210,-137.732 1080,-137.732"/>
<text text-anchor="start" x="1088" y="-155.732" font-family="Helvetica,sans-Serif" font-size="10.00">x265::Analysis::compress</text>
<text text-anchor="middle" x="1145" y="-144.732" font-family="Helvetica,sans-Serif" font-size="10.00">InterCU_rd0_4</text>
</a>
</g>
</g>
<!-- Node4&#45;&gt;Node9 -->
<g id="edge9" class="edge"><title>Node4&#45;&gt;Node9</title>
<path fill="none" stroke="midnightblue" d="M718.486,-206.646C799.928,-197.116 930.963,-181.499 1044,-166.732 1055.56,-165.222 1067.86,-163.552 1079.74,-161.907"/>
<polygon fill="midnightblue" stroke="midnightblue" points="717.84,-203.198 708.313,-207.835 718.652,-210.15 717.84,-203.198"/>
</g>
<!-- Node6 -->
<g id="node6" class="node"><title>Node6</title>
<g id="a_node6"><a xlink:href="classx265_1_1Analysis.html#a29a58dad4cc1c07d2f5e5717c6be7c25" target="_top" xlink:title="x265::Analysis::findJob">
<polygon fill="white" stroke="black" points="915.5,-222.232 915.5,-241.232 1034.5,-241.232 1034.5,-222.232 915.5,-222.232"/>
<text text-anchor="middle" x="975" y="-229.232" font-family="Helvetica,sans-Serif" font-size="10.00">x265::Analysis::findJob</text>
</a>
</g>
</g>
<!-- Node5&#45;&gt;Node6 -->
<g id="edge5" class="edge"><title>Node5&#45;&gt;Node6</title>
<path fill="none" stroke="midnightblue" d="M876.332,-233.497C889.306,-233.263 902.774,-233.019 915.413,-232.791"/>
<polygon fill="midnightblue" stroke="midnightblue" points="875.994,-230.003 866.059,-233.683 876.12,-237.002 875.994,-230.003"/>
</g>
<!-- Node6&#45;&gt;Node7 -->
<g id="edge6" class="edge"><title>Node6&#45;&gt;Node7</title>
<path fill="none" stroke="midnightblue" d="M1044.81,-225.998C1056.39,-225.033 1068.38,-224.034 1079.83,-223.079"/>
<polygon fill="midnightblue" stroke="midnightblue" points="1044.43,-222.517 1034.76,-226.836 1045.01,-229.493 1044.43,-222.517"/>
</g>
<!-- Node8 -->
<g id="node8" class="node"><title>Node8</title>
<g id="a_node8"><a xlink:href="classx265_1_1Analysis.html#aaebc9de2ff98834c650244f3b58942c2" target="_top" xlink:title="x265::Analysis::compressCTU">
<polygon fill="white" stroke="red" points="1246.5,-94.2322 1246.5,-113.232 1397.5,-113.232 1397.5,-94.2322 1246.5,-94.2322"/>
<text text-anchor="middle" x="1322" y="-101.232" font-family="Helvetica,sans-Serif" font-size="10.00">x265::Analysis::compressCTU</text>
</a>
</g>
</g>
<!-- Node7&#45;&gt;Node8 -->
<g id="edge7" class="edge"><title>Node7&#45;&gt;Node8</title>
<path fill="none" stroke="midnightblue" d="M1178.34,-197.121C1188.49,-190.623 1199.73,-183.4 1210,-176.732 1244.82,-154.128 1285.55,-127.221 1306.67,-113.237"/>
<polygon fill="midnightblue" stroke="midnightblue" points="1176.29,-194.277 1169.75,-202.612 1180.06,-200.174 1176.29,-194.277"/>
</g>
<!-- Node9&#45;&gt;Node8 -->
<g id="edge10" class="edge"><title>Node9&#45;&gt;Node8</title>
<path fill="none" stroke="midnightblue" d="M1209.79,-134.872C1235.94,-127.55 1265.15,-119.372 1287.06,-113.234"/>
<polygon fill="midnightblue" stroke="midnightblue" points="1208.62,-131.564 1199.93,-137.631 1210.51,-138.305 1208.62,-131.564"/>
</g>
<!-- Node11 -->
<g id="node11" class="node"><title>Node11</title>
<g id="a_node11"><a xlink:href="classx265_1_1Analysis.html#a10f0a8d9d143faf8dc671c6f0982693d" target="_top" xlink:title="x265::Analysis::tryLossless">
<polygon fill="white" stroke="black" points="906.5,-105.232 906.5,-124.232 1043.5,-124.232 1043.5,-105.232 906.5,-105.232"/>
<text text-anchor="middle" x="975" y="-112.232" font-family="Helvetica,sans-Serif" font-size="10.00">x265::Analysis::tryLossless</text>
</a>
</g>
</g>
<!-- Node10&#45;&gt;Node11 -->
<g id="edge12" class="edge"><title>Node10&#45;&gt;Node11</title>
<path fill="none" stroke="midnightblue" d="M880.338,-101.755C888.984,-102.953 897.786,-104.172 906.362,-105.361"/>
<polygon fill="midnightblue" stroke="midnightblue" points="880.67,-98.2676 870.285,-100.362 879.71,-105.201 880.67,-98.2676"/>
</g>
<!-- Node12 -->
<g id="node12" class="node"><title>Node12</title>
<g id="a_node12"><a xlink:href="classx265_1_1Analysis.html#aae2a6a2252270782b591d2bed7e99dae" target="_top" xlink:title="x265::Analysis::compress\lIntraCU">
<polygon fill="white" stroke="black" points="1080,-88.7322 1080,-118.732 1210,-118.732 1210,-88.7322 1080,-88.7322"/>
<text text-anchor="start" x="1088" y="-106.732" font-family="Helvetica,sans-Serif" font-size="10.00">x265::Analysis::compress</text>
<text text-anchor="middle" x="1145" y="-95.7322" font-family="Helvetica,sans-Serif" font-size="10.00">IntraCU</text>
</a>
</g>
</g>
<!-- Node10&#45;&gt;Node12 -->
<g id="edge19" class="edge"><title>Node10&#45;&gt;Node12</title>
<path fill="none" stroke="midnightblue" d="M880.177,-91.7809C926.919,-92.1025 989.09,-93.0731 1044,-95.7322 1055.57,-96.2924 1067.87,-97.1014 1079.75,-97.9921"/>
<polygon fill="midnightblue" stroke="midnightblue" points="880.167,-88.2809 870.146,-91.7202 880.125,-95.2808 880.167,-88.2809"/>
</g>
<!-- Node13 -->
<g id="node13" class="node"><title>Node13</title>
<g id="a_node13"><a xlink:href="classx265_1_1Analysis.html#a0b22b7765aa4a36b1ba6d07ba26901e6" target="_top" xlink:title="x265::Analysis::compress\lInterCU_rd5_6">
<polygon fill="white" stroke="black" points="1080,-39.7322 1080,-69.7322 1210,-69.7322 1210,-39.7322 1080,-39.7322"/>
<text text-anchor="start" x="1088" y="-57.7322" font-family="Helvetica,sans-Serif" font-size="10.00">x265::Analysis::compress</text>
<text text-anchor="middle" x="1145" y="-46.7322" font-family="Helvetica,sans-Serif" font-size="10.00">InterCU_rd5_6</text>
</a>
</g>
</g>
<!-- Node10&#45;&gt;Node13 -->
<g id="edge20" class="edge"><title>Node10&#45;&gt;Node13</title>
<path fill="none" stroke="midnightblue" d="M880.064,-83.7966C939.383,-77.2644 1022.7,-68.0891 1079.77,-61.8052"/>
<polygon fill="midnightblue" stroke="midnightblue" points="879.576,-80.3291 870.019,-84.9027 880.342,-87.287 879.576,-80.3291"/>
</g>
<!-- Node11&#45;&gt;Node7 -->
<g id="edge15" class="edge"><title>Node11&#45;&gt;Node7</title>
<path fill="none" stroke="midnightblue" d="M1000.17,-129.551C1031.93,-149.023 1087.42,-183.04 1119.39,-202.645"/>
<polygon fill="midnightblue" stroke="midnightblue" points="1001.86,-126.481 991.504,-124.238 998.2,-132.448 1001.86,-126.481"/>
</g>
<!-- Node11&#45;&gt;Node9 -->
<g id="edge16" class="edge"><title>Node11&#45;&gt;Node9</title>
<path fill="none" stroke="midnightblue" d="M1028.26,-126.553C1044.54,-130.235 1062.68,-134.339 1079.68,-138.185"/>
<polygon fill="midnightblue" stroke="midnightblue" points="1028.92,-123.114 1018.39,-124.321 1027.37,-129.941 1028.92,-123.114"/>
</g>
<!-- Node11&#45;&gt;Node12 -->
<g id="edge13" class="edge"><title>Node11&#45;&gt;Node12</title>
<path fill="none" stroke="midnightblue" d="M1054,-109.625C1062.7,-109.056 1071.48,-108.48 1079.98,-107.924"/>
<polygon fill="midnightblue" stroke="midnightblue" points="1053.6,-106.144 1043.85,-110.29 1054.06,-113.129 1053.6,-106.144"/>
</g>
<!-- Node11&#45;&gt;Node13 -->
<g id="edge17" class="edge"><title>Node11&#45;&gt;Node13</title>
<path fill="none" stroke="midnightblue" d="M1012.21,-101.801C1038.51,-92.4054 1074.2,-79.6624 1101.8,-69.805"/>
<polygon fill="midnightblue" stroke="midnightblue" points="1010.86,-98.5655 1002.62,-105.225 1013.21,-105.158 1010.86,-98.5655"/>
</g>
<!-- Node12&#45;&gt;Node8 -->
<g id="edge14" class="edge"><title>Node12&#45;&gt;Node8</title>
<path fill="none" stroke="midnightblue" d="M1220.25,-103.732C1228.93,-103.732 1237.78,-103.732 1246.47,-103.732"/>
<polygon fill="midnightblue" stroke="midnightblue" points="1220.17,-100.232 1210.17,-103.732 1220.17,-107.232 1220.17,-100.232"/>
</g>
<!-- Node13&#45;&gt;Node8 -->
<g id="edge18" class="edge"><title>Node13&#45;&gt;Node8</title>
<path fill="none" stroke="midnightblue" d="M1209.79,-72.5921C1235.94,-79.9145 1265.15,-88.0929 1287.06,-94.2303"/>
<polygon fill="midnightblue" stroke="midnightblue" points="1210.51,-69.1596 1199.93,-69.8336 1208.62,-75.9004 1210.51,-69.1596"/>
</g>
<!-- Node15 -->
<g id="node15" class="node"><title>Node15</title>
<g id="a_node15"><a xlink:href="classx265_1_1Analysis.html#a88ad2880a5a8bcad5cfd5d6ea630b265" target="_top" xlink:title="x265::Analysis::encodeResidue">
<polygon fill="white" stroke="black" points="378.5,-45.2322 378.5,-64.2322 533.5,-64.2322 533.5,-45.2322 378.5,-45.2322"/>
<text text-anchor="middle" x="456" y="-52.2322" font-family="Helvetica,sans-Serif" font-size="10.00">x265::Analysis::encodeResidue</text>
</a>
</g>
</g>
<!-- Node14&#45;&gt;Node15 -->
<g id="edge22" class="edge"><title>Node14&#45;&gt;Node15</title>
<path fill="none" stroke="midnightblue" d="M329.662,-86.2274C359.118,-78.8257 392.274,-70.4942 417.083,-64.2602"/>
<polygon fill="midnightblue" stroke="midnightblue" points="328.677,-82.866 319.832,-88.6976 330.383,-89.6549 328.677,-82.866"/>
</g>
<!-- Node16 -->
<g id="node16" class="node"><title>Node16</title>
<g id="a_node16"><a xlink:href="classx265_1_1Search.html#a5284cffef18fe6884b268ea28f21f22f" target="_top" xlink:title="x265::Search::generateCoeff\lRecon">
<polygon fill="white" stroke="black" points="385,-86.7322 385,-116.732 527,-116.732 527,-86.7322 385,-86.7322"/>
<text text-anchor="start" x="393" y="-104.732" font-family="Helvetica,sans-Serif" font-size="10.00">x265::Search::generateCoeff</text>
<text text-anchor="middle" x="456" y="-93.7322" font-family="Helvetica,sans-Serif" font-size="10.00">Recon</text>
</a>
</g>
</g>
<!-- Node14&#45;&gt;Node16 -->
<g id="edge24" class="edge"><title>Node14&#45;&gt;Node16</title>
<path fill="none" stroke="midnightblue" d="M342.744,-102.884C356.785,-102.74 371.244,-102.591 384.919,-102.451"/>
<polygon fill="midnightblue" stroke="midnightblue" points="342.574,-99.385 332.611,-102.987 342.646,-106.385 342.574,-99.385"/>
</g>
<!-- Node15&#45;&gt;Node8 -->
<g id="edge23" class="edge"><title>Node15&#45;&gt;Node8</title>
<path fill="none" stroke="midnightblue" d="M503.673,-42.8402C570.281,-26.9402 696.655,-0.732206 806,-0.732206 806,-0.732206 806,-0.732206 976,-0.732206 1080.8,-0.732206 1111.76,6.75788 1210,-29.7322 1250.82,-44.8936 1291.55,-77.6954 1310.31,-94.0516"/>
<polygon fill="midnightblue" stroke="midnightblue" points="502.796,-39.4512 493.898,-45.2024 504.441,-46.2554 502.796,-39.4512"/>
</g>
<!-- Node16&#45;&gt;Node9 -->
<g id="edge25" class="edge"><title>Node16&#45;&gt;Node9</title>
<path fill="none" stroke="midnightblue" d="M537.373,-107.699C675.228,-117.933 954.042,-138.631 1079.85,-147.97"/>
<polygon fill="midnightblue" stroke="midnightblue" points="537.524,-104.2 527.293,-106.95 537.006,-111.181 537.524,-104.2"/>
</g>
<!-- Node17&#45;&gt;Node15 -->
<g id="edge27" class="edge"><title>Node17&#45;&gt;Node15</title>
<path fill="none" stroke="midnightblue" d="M336.406,-54.7322C350.165,-54.7322 364.513,-54.7322 378.281,-54.7322"/>
<polygon fill="midnightblue" stroke="midnightblue" points="336.018,-51.2323 326.018,-54.7322 336.018,-58.2323 336.018,-51.2323"/>
</g>
<!-- Node17&#45;&gt;Node16 -->
<g id="edge28" class="edge"><title>Node17&#45;&gt;Node16</title>
<path fill="none" stroke="midnightblue" d="M332.162,-72.1251C352.037,-76.9154 373.42,-82.0694 392.687,-86.7132"/>
<polygon fill="midnightblue" stroke="midnightblue" points="332.777,-68.6732 322.235,-69.7325 331.137,-75.4783 332.777,-68.6732"/>
</g>
</g>
</svg>
        <g id="navigator" transform="translate(0 0)" fill="#404254">
                <rect fill="#f2f5e9" fill-opacity="0.5" stroke="#606060" stroke-width=".5" x="0" y="0" width="60" height="60"/>
                <use id="zoomplus" xlink:href="#zoomPlus" x="17" y="9" onmousedown="handleZoom(evt,'in')"/>
                <use id="zoomminus" xlink:href="#zoomMin" x="42" y="9" onmousedown="handleZoom(evt,'out')"/>
                <use id="reset" xlink:href="#resetDef" x="30" y="36" onmousedown="handleReset()"/>
                <g id="arrowUp" xlink:href="#dirArrow" transform="translate(30 24)" onmousedown="handlePan(0,-1)">
                  <use xlink:href="#rim" fill="#404040">
                        <set attributeName="fill" to="#808080" begin="arrowUp.mouseover" end="arrowUp.mouseout"/>
                  </use>
                  <path fill="none" stroke="white" stroke-width="1.5" d="M0,-3.0v7 M-2.5,-0.5L0,-3.0L2.5,-0.5"/>
                </g>
                <g id="arrowRight" xlink:href="#dirArrow" transform="rotate(90) translate(36 -43)" onmousedown="handlePan(1,0)">
                  <use xlink:href="#rim" fill="#404040">
                        <set attributeName="fill" to="#808080" begin="arrowRight.mouseover" end="arrowRight.mouseout"/>
                  </use>
                  <path fill="none" stroke="white" stroke-width="1.5" d="M0,-3.0v7 M-2.5,-0.5L0,-3.0L2.5,-0.5"/>
                </g>
                <g id="arrowDown" xlink:href="#dirArrow" transform="rotate(180) translate(-30 -48)" onmousedown="handlePan(0,1)">
                  <use xlink:href="#rim" fill="#404040">
                        <set attributeName="fill" to="#808080" begin="arrowDown.mouseover" end="arrowDown.mouseout"/>
                  </use>
                  <path fill="none" stroke="white" stroke-width="1.5" d="M0,-3.0v7 M-2.5,-0.5L0,-3.0L2.5,-0.5"/>
                </g>
                <g id="arrowLeft" xlink:href="#dirArrow" transform="rotate(270) translate(-36 17)" onmousedown="handlePan(-1,0)">
                  <use xlink:href="#rim" fill="#404040">
                        <set attributeName="fill" to="#808080" begin="arrowLeft.mouseover" end="arrowLeft.mouseout"/>
                  </use>
                  <path fill="none" stroke="white" stroke-width="1.5" d="M0,-3.0v7 M-2.5,-0.5L0,-3.0L2.5,-0.5"/>
                </g>
        </g>
        <svg viewBox="0 0 15 15" width="100%" height="30px" preserveAspectRatio="xMaxYMin meet">
         <g id="arrow_out" transform="scale(0.3 0.3)">
          <a xlink:href="classx265_1_1Predict_adaf25ea2af37db5f3222139d849447a4_icgraph_org.svg" target="_base">
           <rect id="button" ry="5" rx="5" y="6" x="6" height="38" width="38"
                fill="#f2f5e9" fill-opacity="0.5" stroke="#606060" stroke-width="1.0"/>
           <path id="arrow"
             d="M 11.500037,31.436501 C 11.940474,20.09759 22.043105,11.32322 32.158766,21.979434 L 37.068811,17.246167 C 37.068811,17.246167 37.088388,32 37.088388,32 L 22.160133,31.978069 C 22.160133,31.978069 26.997745,27.140456 26.997745,27.140456 C 18.528582,18.264221 13.291696,25.230495 11.500037,31.436501 z"
             style="fill:#404040;"/>
          </a>
         </g>
        </svg>
</svg>
