<?xml version="1.0" encoding="UTF-8" standalone="no"?>
<!DOCTYPE svg PUBLIC "-//W3C//DTD SVG 1.1//EN"
 "http://www.w3.org/Graphics/SVG/1.1/DTD/svg11.dtd">
<!-- Generated by graphviz version 2.36.0 (20140111.2315)
 -->
<!-- Title: x265::Entropy::writeEpExGolomb Pages: 1 -->
<!--zoomable 542 -->
<svg id="main" version="1.1" xmlns="http://www.w3.org/2000/svg" xmlns:xlink="http://www.w3.org/1999/xlink" xml:space="preserve" onload="init(evt)">
<style type="text/css"><![CDATA[
.edge:hover path { stroke: red; }
.edge:hover polygon { stroke: red; fill: red; }
]]></style>
<script type="text/javascript"><![CDATA[
var edges = document.getElementsByTagName('g');
if (edges && edges.length) {
  for (var i=0;i<edges.length;i++) {
    if (edges[i].id.substr(0,4)=='edge') {
      edges[i].setAttribute('class','edge');
    }
  }
}
]]></script>
        <defs>
                <circle id="rim" cx="0" cy="0" r="7"/>
                <circle id="rim2" cx="0" cy="0" r="3.5"/>
                <g id="zoomPlus">
                        <use xlink:href="#rim" fill="#404040">
                                <set attributeName="fill" to="#808080" begin="zoomplus.mouseover" end="zoomplus.mouseout"/>
                        </use>
                        <path d="M-4,0h8M0,-4v8" fill="none" stroke="white" stroke-width="1.5" pointer-events="none"/>
                </g>
                <g id="zoomMin">
                        <use xlink:href="#rim" fill="#404040">
                                <set attributeName="fill" to="#808080" begin="zoomminus.mouseover" end="zoomminus.mouseout"/>
                        </use>
                        <path d="M-4,0h8" fill="none" stroke="white" stroke-width="1.5" pointer-events="none"/>
                </g>
                <g id="dirArrow">
                        <path fill="none" stroke="white" stroke-width="1.5" d="M0,-3.0v7 M-2.5,-0.5L0,-3.0L2.5,-0.5"/>
                </g>
               <g id="resetDef">
                       <use xlink:href="#rim2" fill="#404040">
                               <set attributeName="fill" to="#808080" begin="reset.mouseover" end="reset.mouseout"/>
                       </use>
               </g>
        </defs>

<script type="text/javascript">
var viewWidth = 1876;
var viewHeight = 542;
var sectionId = 'dynsection-137';
</script>
<script xlink:href="svgpan.js"/>
<svg id="graph" class="graph">
<g id="viewport">
<title>x265::Entropy::writeEpExGolomb</title>
<polygon fill="white" stroke="none" points="-4,4 -4,-538 1872,-538 1872,4 -4,4"/>
<!-- Node1 -->
<g id="node1" class="node"><title>Node1</title>
<polygon fill="#bfbfbf" stroke="black" points="0,-234 0,-264 128,-264 128,-234 0,-234"/>
<text text-anchor="start" x="8" y="-252" font-family="Helvetica,sans-Serif" font-size="10.00">x265::Entropy::writeEpEx</text>
<text text-anchor="middle" x="64" y="-241" font-family="Helvetica,sans-Serif" font-size="10.00">Golomb</text>
</g>
<!-- Node2 -->
<g id="node2" class="node"><title>Node2</title>
<g id="a_node2"><a xlink:href="classx265_1_1Entropy.html#aa2c9d4c34e53a1e84c4138e09d064763" target="_top" xlink:title="x265::Entropy::codeMvd">
<polygon fill="white" stroke="black" points="173.5,-258.5 173.5,-277.5 296.5,-277.5 296.5,-258.5 173.5,-258.5"/>
<text text-anchor="middle" x="235" y="-265.5" font-family="Helvetica,sans-Serif" font-size="10.00">x265::Entropy::codeMvd</text>
</a>
</g>
</g>
<!-- Node1&#45;&gt;Node2 -->
<g id="edge1" class="edge"><title>Node1&#45;&gt;Node2</title>
<path fill="none" stroke="midnightblue" d="M138.522,-257.266C150.138,-258.572 162.034,-259.909 173.314,-261.177"/>
<polygon fill="midnightblue" stroke="midnightblue" points="138.739,-253.768 128.41,-256.129 137.957,-260.724 138.739,-253.768"/>
</g>
<!-- Node25 -->
<g id="node25" class="node"><title>Node25</title>
<g id="a_node25"><a xlink:href="classx265_1_1Entropy.html#af4ab096830911ac48684ea5258cea013" target="_top" xlink:title="x265::Entropy::codeDeltaQP">
<polygon fill="white" stroke="black" points="164,-220.5 164,-239.5 306,-239.5 306,-220.5 164,-220.5"/>
<text text-anchor="middle" x="235" y="-227.5" font-family="Helvetica,sans-Serif" font-size="10.00">x265::Entropy::codeDeltaQP</text>
</a>
</g>
</g>
<!-- Node1&#45;&gt;Node25 -->
<g id="edge40" class="edge"><title>Node1&#45;&gt;Node25</title>
<path fill="none" stroke="midnightblue" d="M138.601,-240.725C147.034,-239.777 155.615,-238.813 163.999,-237.87"/>
<polygon fill="midnightblue" stroke="midnightblue" points="137.957,-237.276 128.41,-241.871 138.739,-244.232 137.957,-237.276"/>
</g>
<!-- Node3 -->
<g id="node3" class="node"><title>Node3</title>
<g id="a_node3"><a xlink:href="classx265_1_1Entropy.html#af4c256cca3be50b1f7e6695f7447ffd8" target="_top" xlink:title="x265::Entropy::codePUWise">
<polygon fill="white" stroke="black" points="351.5,-258.5 351.5,-277.5 492.5,-277.5 492.5,-258.5 351.5,-258.5"/>
<text text-anchor="middle" x="422" y="-265.5" font-family="Helvetica,sans-Serif" font-size="10.00">x265::Entropy::codePUWise</text>
</a>
</g>
</g>
<!-- Node2&#45;&gt;Node3 -->
<g id="edge2" class="edge"><title>Node2&#45;&gt;Node3</title>
<path fill="none" stroke="midnightblue" d="M306.579,-268C321.236,-268 336.673,-268 351.298,-268"/>
<polygon fill="midnightblue" stroke="midnightblue" points="306.576,-264.5 296.576,-268 306.576,-271.5 306.576,-264.5"/>
</g>
<!-- Node4 -->
<g id="node4" class="node"><title>Node4</title>
<g id="a_node4"><a xlink:href="classx265_1_1Entropy.html#a2a627c1c7ab4aee68a3b6c3b572e649a" target="_top" xlink:title="x265::Entropy::codePredInfo">
<polygon fill="white" stroke="black" points="538.5,-258.5 538.5,-277.5 679.5,-277.5 679.5,-258.5 538.5,-258.5"/>
<text text-anchor="middle" x="609" y="-265.5" font-family="Helvetica,sans-Serif" font-size="10.00">x265::Entropy::codePredInfo</text>
</a>
</g>
</g>
<!-- Node3&#45;&gt;Node4 -->
<g id="edge3" class="edge"><title>Node3&#45;&gt;Node4</title>
<path fill="none" stroke="midnightblue" d="M502.952,-268C514.748,-268 526.822,-268 538.386,-268"/>
<polygon fill="midnightblue" stroke="midnightblue" points="502.677,-264.5 492.677,-268 502.677,-271.5 502.677,-264.5"/>
</g>
<!-- Node5 -->
<g id="node5" class="node"><title>Node5</title>
<g id="a_node5"><a xlink:href="classx265_1_1Analysis.html#ae4d61bcf4d2c22a054d68d6d77136428" target="_top" xlink:title="x265::Analysis::encodeIntra\lInInter">
<polygon fill="white" stroke="black" points="716,-421 716,-451 854,-451 854,-421 716,-421"/>
<text text-anchor="start" x="724" y="-439" font-family="Helvetica,sans-Serif" font-size="10.00">x265::Analysis::encodeIntra</text>
<text text-anchor="middle" x="785" y="-428" font-family="Helvetica,sans-Serif" font-size="10.00">InInter</text>
</a>
</g>
</g>
<!-- Node4&#45;&gt;Node5 -->
<g id="edge4" class="edge"><title>Node4&#45;&gt;Node5</title>
<path fill="none" stroke="midnightblue" d="M627.147,-284.556C660.934,-317.177 735.656,-389.323 768.265,-420.808"/>
<polygon fill="midnightblue" stroke="midnightblue" points="629.479,-281.942 619.854,-277.514 624.616,-286.978 629.479,-281.942"/>
</g>
<!-- Node13 -->
<g id="node13" class="node"><title>Node13</title>
<g id="a_node13"><a xlink:href="classx265_1_1Entropy.html#adeb50a7c9a5df6643407d01158d93799" target="_top" xlink:title="x265::Entropy::encodeCU">
<polygon fill="white" stroke="black" points="720,-220.5 720,-239.5 850,-239.5 850,-220.5 720,-220.5"/>
<text text-anchor="middle" x="785" y="-227.5" font-family="Helvetica,sans-Serif" font-size="10.00">x265::Entropy::encodeCU</text>
</a>
</g>
</g>
<!-- Node4&#45;&gt;Node13 -->
<g id="edge14" class="edge"><title>Node4&#45;&gt;Node13</title>
<path fill="none" stroke="midnightblue" d="M663.814,-256.247C688.418,-250.874 717.187,-244.591 740.408,-239.52"/>
<polygon fill="midnightblue" stroke="midnightblue" points="662.93,-252.858 653.908,-258.411 664.424,-259.697 662.93,-252.858"/>
</g>
<!-- Node17 -->
<g id="node17" class="node"><title>Node17</title>
<g id="a_node17"><a xlink:href="classx265_1_1Search.html#ab02df91827cf67796d1605bde60c6aed" target="_top" xlink:title="x265::Search::checkIntra">
<polygon fill="white" stroke="black" points="901,-144.5 901,-163.5 1027,-163.5 1027,-144.5 901,-144.5"/>
<text text-anchor="middle" x="964" y="-151.5" font-family="Helvetica,sans-Serif" font-size="10.00">x265::Search::checkIntra</text>
</a>
</g>
</g>
<!-- Node4&#45;&gt;Node17 -->
<g id="edge19" class="edge"><title>Node4&#45;&gt;Node17</title>
<path fill="none" stroke="midnightblue" d="M690.027,-274.222C739.151,-275.066 802.333,-270.68 854,-249 899.6,-229.866 939.566,-183.923 955.566,-163.763"/>
<polygon fill="midnightblue" stroke="midnightblue" points="689.85,-270.717 679.766,-273.967 689.676,-277.715 689.85,-270.717"/>
</g>
<!-- Node21 -->
<g id="node21" class="node"><title>Node21</title>
<g id="a_node21"><a xlink:href="classx265_1_1Search.html#aba5e04ce529f41accd43c540ba1dc7ad" target="_top" xlink:title="x265::Search::encodeResAnd\lCalcRdInterCU">
<polygon fill="white" stroke="black" points="890.5,-271 890.5,-301 1037.5,-301 1037.5,-271 890.5,-271"/>
<text text-anchor="start" x="898.5" y="-289" font-family="Helvetica,sans-Serif" font-size="10.00">x265::Search::encodeResAnd</text>
<text text-anchor="middle" x="964" y="-278" font-family="Helvetica,sans-Serif" font-size="10.00">CalcRdInterCU</text>
</a>
</g>
</g>
<!-- Node4&#45;&gt;Node21 -->
<g id="edge29" class="edge"><title>Node4&#45;&gt;Node21</title>
<path fill="none" stroke="midnightblue" d="M682.985,-278.759C694.026,-280.062 705.299,-281.209 716,-282 774.596,-286.33 841.215,-287.171 890.488,-287.017"/>
<polygon fill="midnightblue" stroke="midnightblue" points="683.286,-275.27 672.934,-277.525 682.433,-282.218 683.286,-275.27"/>
</g>
<!-- Node6 -->
<g id="node6" class="node"><title>Node6</title>
<g id="a_node6"><a xlink:href="classx265_1_1Analysis.html#aa6122285d10bb1bd7584958b88b029d5" target="_top" xlink:title="x265::Analysis::parallel\lModeAnalysis">
<polygon fill="white" stroke="black" points="905,-503 905,-533 1023,-533 1023,-503 905,-503"/>
<text text-anchor="start" x="913" y="-521" font-family="Helvetica,sans-Serif" font-size="10.00">x265::Analysis::parallel</text>
<text text-anchor="middle" x="964" y="-510" font-family="Helvetica,sans-Serif" font-size="10.00">ModeAnalysis</text>
</a>
</g>
</g>
<!-- Node5&#45;&gt;Node6 -->
<g id="edge5" class="edge"><title>Node5&#45;&gt;Node6</title>
<path fill="none" stroke="midnightblue" d="M823.78,-455.73C843.372,-465.747 867.791,-477.901 890,-488 901.226,-493.105 913.581,-498.328 924.884,-502.956"/>
<polygon fill="midnightblue" stroke="midnightblue" points="825.356,-452.606 814.862,-451.148 822.157,-458.832 825.356,-452.606"/>
</g>
<!-- Node8 -->
<g id="node8" class="node"><title>Node8</title>
<g id="a_node8"><a xlink:href="classx265_1_1Analysis.html#a87060ff27a37f56adc5f5b8a4c033ece" target="_top" xlink:title="x265::Analysis::compress\lInterCU_dist">
<polygon fill="white" stroke="black" points="1256,-363 1256,-393 1386,-393 1386,-363 1256,-363"/>
<text text-anchor="start" x="1264" y="-381" font-family="Helvetica,sans-Serif" font-size="10.00">x265::Analysis::compress</text>
<text text-anchor="middle" x="1321" y="-370" font-family="Helvetica,sans-Serif" font-size="10.00">InterCU_dist</text>
</a>
</g>
</g>
<!-- Node5&#45;&gt;Node8 -->
<g id="edge11" class="edge"><title>Node5&#45;&gt;Node8</title>
<path fill="none" stroke="midnightblue" d="M858.812,-453.013C946.756,-470.27 1098.07,-489.329 1220,-450 1254.61,-438.836 1287.35,-410.749 1305.44,-393.137"/>
<polygon fill="midnightblue" stroke="midnightblue" points="859.425,-449.566 848.931,-451.029 858.047,-456.429 859.425,-449.566"/>
</g>
<!-- Node12 -->
<g id="node12" class="node"><title>Node12</title>
<g id="a_node12"><a xlink:href="classx265_1_1Analysis.html#a30d2ff7eca5addbb0a6b3dfe14f09650" target="_top" xlink:title="x265::Analysis::compress\lInterCU_rd0_4">
<polygon fill="white" stroke="black" points="1256,-295 1256,-325 1386,-325 1386,-295 1256,-295"/>
<text text-anchor="start" x="1264" y="-313" font-family="Helvetica,sans-Serif" font-size="10.00">x265::Analysis::compress</text>
<text text-anchor="middle" x="1321" y="-302" font-family="Helvetica,sans-Serif" font-size="10.00">InterCU_rd0_4</text>
</a>
</g>
</g>
<!-- Node5&#45;&gt;Node12 -->
<g id="edge12" class="edge"><title>Node5&#45;&gt;Node12</title>
<path fill="none" stroke="midnightblue" d="M864.263,-436.48C953.331,-434.572 1101.77,-423.848 1220,-378 1238.16,-370.957 1239.91,-363.988 1256,-353 1269.71,-343.637 1285.15,-333.256 1297.43,-325.04"/>
<polygon fill="midnightblue" stroke="midnightblue" points="864.169,-432.981 854.235,-436.663 864.297,-439.98 864.169,-432.981"/>
</g>
<!-- Node7 -->
<g id="node7" class="node"><title>Node7</title>
<g id="a_node7"><a xlink:href="classx265_1_1Analysis.html#a29a58dad4cc1c07d2f5e5717c6be7c25" target="_top" xlink:title="x265::Analysis::findJob">
<polygon fill="white" stroke="black" points="1087.5,-505.5 1087.5,-524.5 1206.5,-524.5 1206.5,-505.5 1087.5,-505.5"/>
<text text-anchor="middle" x="1147" y="-512.5" font-family="Helvetica,sans-Serif" font-size="10.00">x265::Analysis::findJob</text>
</a>
</g>
</g>
<!-- Node6&#45;&gt;Node7 -->
<g id="edge6" class="edge"><title>Node6&#45;&gt;Node7</title>
<path fill="none" stroke="midnightblue" d="M1033.52,-516.864C1051.2,-516.571 1070.08,-516.258 1087.22,-515.974"/>
<polygon fill="midnightblue" stroke="midnightblue" points="1033.21,-513.369 1023.27,-517.034 1033.32,-520.368 1033.21,-513.369"/>
</g>
<!-- Node7&#45;&gt;Node8 -->
<g id="edge7" class="edge"><title>Node7&#45;&gt;Node8</title>
<path fill="none" stroke="midnightblue" d="M1192.95,-501.904C1202.3,-498.167 1211.8,-493.561 1220,-488 1259.09,-461.493 1293.39,-416.672 1309.78,-393.266"/>
<polygon fill="midnightblue" stroke="midnightblue" points="1191.47,-498.721 1183.32,-505.488 1193.91,-505.282 1191.47,-498.721"/>
</g>
<!-- Node9 -->
<g id="node9" class="node"><title>Node9</title>
<g id="a_node9"><a xlink:href="classx265_1_1Analysis.html#aaebc9de2ff98834c650244f3b58942c2" target="_top" xlink:title="x265::Analysis::compressCTU">
<polygon fill="white" stroke="black" points="1422.5,-207.5 1422.5,-226.5 1573.5,-226.5 1573.5,-207.5 1422.5,-207.5"/>
<text text-anchor="middle" x="1498" y="-214.5" font-family="Helvetica,sans-Serif" font-size="10.00">x265::Analysis::compressCTU</text>
</a>
</g>
</g>
<!-- Node8&#45;&gt;Node9 -->
<g id="edge8" class="edge"><title>Node8&#45;&gt;Node9</title>
<path fill="none" stroke="midnightblue" d="M1354.96,-357.275C1365.23,-350.309 1376.39,-342.211 1386,-334 1428.15,-297.99 1471.5,-247.693 1488.98,-226.75"/>
<polygon fill="midnightblue" stroke="midnightblue" points="1352.97,-354.39 1346.58,-362.839 1356.85,-360.221 1352.97,-354.39"/>
</g>
<!-- Node10 -->
<g id="node10" class="node"><title>Node10</title>
<g id="a_node10"><a xlink:href="classx265_1_1FrameEncoder.html#a0ae85001572afd28238476542523ac5f" target="_top" xlink:title="x265::FrameEncoder\l::processRowEncoder">
<polygon fill="white" stroke="black" points="1610.5,-123 1610.5,-153 1723.5,-153 1723.5,-123 1610.5,-123"/>
<text text-anchor="start" x="1618.5" y="-141" font-family="Helvetica,sans-Serif" font-size="10.00">x265::FrameEncoder</text>
<text text-anchor="middle" x="1667" y="-130" font-family="Helvetica,sans-Serif" font-size="10.00">::processRowEncoder</text>
</a>
</g>
</g>
<!-- Node9&#45;&gt;Node10 -->
<g id="edge9" class="edge"><title>Node9&#45;&gt;Node10</title>
<path fill="none" stroke="midnightblue" d="M1528.54,-203.027C1558.16,-189.015 1603.63,-167.506 1634.07,-153.106"/>
<polygon fill="midnightblue" stroke="midnightblue" points="1526.69,-200.031 1519.14,-207.471 1529.68,-206.358 1526.69,-200.031"/>
</g>
<!-- Node11 -->
<g id="node11" class="node"><title>Node11</title>
<g id="a_node11"><a xlink:href="classx265_1_1FrameEncoder.html#acad645a8ece97d884895f8f7366b7d70" target="_top" xlink:title="x265::FrameEncoder\l::processRow">
<polygon fill="white" stroke="red" points="1760.5,-123 1760.5,-153 1867.5,-153 1867.5,-123 1760.5,-123"/>
<text text-anchor="start" x="1768.5" y="-141" font-family="Helvetica,sans-Serif" font-size="10.00">x265::FrameEncoder</text>
<text text-anchor="middle" x="1814" y="-130" font-family="Helvetica,sans-Serif" font-size="10.00">::processRow</text>
</a>
</g>
</g>
<!-- Node10&#45;&gt;Node11 -->
<g id="edge10" class="edge"><title>Node10&#45;&gt;Node11</title>
<path fill="none" stroke="midnightblue" d="M1733.88,-138C1742.67,-138 1751.59,-138 1760.13,-138"/>
<polygon fill="midnightblue" stroke="midnightblue" points="1733.65,-134.5 1723.65,-138 1733.65,-141.5 1733.65,-134.5"/>
</g>
<!-- Node12&#45;&gt;Node9 -->
<g id="edge13" class="edge"><title>Node12&#45;&gt;Node9</title>
<path fill="none" stroke="midnightblue" d="M1359.43,-290.108C1396.14,-270.597 1450.58,-241.668 1478.7,-226.723"/>
<polygon fill="midnightblue" stroke="midnightblue" points="1357.69,-287.067 1350.51,-294.851 1360.98,-293.249 1357.69,-287.067"/>
</g>
<!-- Node14 -->
<g id="node14" class="node"><title>Node14</title>
<g id="a_node14"><a xlink:href="classx265_1_1Entropy.html#abb101b71f310e90eb504a8204babc180" target="_top" xlink:title="x265::Entropy::encodeCTU">
<polygon fill="white" stroke="black" points="896,-49.5 896,-68.5 1032,-68.5 1032,-49.5 896,-49.5"/>
<text text-anchor="middle" x="964" y="-56.5" font-family="Helvetica,sans-Serif" font-size="10.00">x265::Entropy::encodeCTU</text>
</a>
</g>
</g>
<!-- Node13&#45;&gt;Node14 -->
<g id="edge15" class="edge"><title>Node13&#45;&gt;Node14</title>
<path fill="none" stroke="midnightblue" d="M803.496,-213.097C840.208,-177.63 924.263,-96.4239 953.087,-68.5774"/>
<polygon fill="midnightblue" stroke="midnightblue" points="800.784,-210.851 796.023,-220.316 805.647,-215.885 800.784,-210.851"/>
</g>
<!-- Node14&#45;&gt;Node10 -->
<g id="edge18" class="edge"><title>Node14&#45;&gt;Node10</title>
<path fill="none" stroke="midnightblue" d="M1042.2,-67.6998C1184.7,-83.7598 1485.88,-117.701 1610.36,-131.73"/>
<polygon fill="midnightblue" stroke="midnightblue" points="1042.54,-64.2168 1032.21,-66.5749 1041.76,-71.1728 1042.54,-64.2168"/>
</g>
<!-- Node15 -->
<g id="node15" class="node"><title>Node15</title>
<g id="a_node15"><a xlink:href="classx265_1_1FrameEncoder.html#a6d4045d35bfe6b10c8d0dc39353be360" target="_top" xlink:title="x265::FrameEncoder\l::encodeSlice">
<polygon fill="white" stroke="black" points="1093.5,-0 1093.5,-30 1200.5,-30 1200.5,-0 1093.5,-0"/>
<text text-anchor="start" x="1101.5" y="-18" font-family="Helvetica,sans-Serif" font-size="10.00">x265::FrameEncoder</text>
<text text-anchor="middle" x="1147" y="-7" font-family="Helvetica,sans-Serif" font-size="10.00">::encodeSlice</text>
</a>
</g>
</g>
<!-- Node14&#45;&gt;Node15 -->
<g id="edge16" class="edge"><title>Node14&#45;&gt;Node15</title>
<path fill="none" stroke="midnightblue" d="M1014.1,-47.0637C1038.65,-41.0951 1068.39,-33.8668 1093.41,-27.7853"/>
<polygon fill="midnightblue" stroke="midnightblue" points="1013.16,-43.6895 1004.27,-49.4527 1014.82,-50.4914 1013.16,-43.6895"/>
</g>
<!-- Node16 -->
<g id="node16" class="node"><title>Node16</title>
<g id="a_node16"><a xlink:href="classx265_1_1FrameEncoder.html#a2f5c4c0f1a4e36fce4c9b87eb7ec4973" target="_top" xlink:title="x265::FrameEncoder\l::compressFrame">
<polygon fill="white" stroke="red" points="1267.5,-0 1267.5,-30 1374.5,-30 1374.5,-0 1267.5,-0"/>
<text text-anchor="start" x="1275.5" y="-18" font-family="Helvetica,sans-Serif" font-size="10.00">x265::FrameEncoder</text>
<text text-anchor="middle" x="1321" y="-7" font-family="Helvetica,sans-Serif" font-size="10.00">::compressFrame</text>
</a>
</g>
</g>
<!-- Node15&#45;&gt;Node16 -->
<g id="edge17" class="edge"><title>Node15&#45;&gt;Node16</title>
<path fill="none" stroke="midnightblue" d="M1210.71,-15C1229.35,-15 1249.57,-15 1267.49,-15"/>
<polygon fill="midnightblue" stroke="midnightblue" points="1210.54,-11.5001 1200.54,-15 1210.54,-18.5001 1210.54,-11.5001"/>
</g>
<!-- Node18 -->
<g id="node18" class="node"><title>Node18</title>
<g id="a_node18"><a xlink:href="classx265_1_1Analysis.html#a10f0a8d9d143faf8dc671c6f0982693d" target="_top" xlink:title="x265::Analysis::tryLossless">
<polygon fill="white" stroke="black" points="1078.5,-163.5 1078.5,-182.5 1215.5,-182.5 1215.5,-163.5 1078.5,-163.5"/>
<text text-anchor="middle" x="1147" y="-170.5" font-family="Helvetica,sans-Serif" font-size="10.00">x265::Analysis::tryLossless</text>
</a>
</g>
</g>
<!-- Node17&#45;&gt;Node18 -->
<g id="edge20" class="edge"><title>Node17&#45;&gt;Node18</title>
<path fill="none" stroke="midnightblue" d="M1037.29,-161.589C1050.88,-163.015 1065.04,-164.501 1078.47,-165.911"/>
<polygon fill="midnightblue" stroke="midnightblue" points="1037.35,-158.075 1027.04,-160.512 1036.62,-165.037 1037.35,-158.075"/>
</g>
<!-- Node19 -->
<g id="node19" class="node"><title>Node19</title>
<g id="a_node19"><a xlink:href="classx265_1_1Analysis.html#aae2a6a2252270782b591d2bed7e99dae" target="_top" xlink:title="x265::Analysis::compress\lIntraCU">
<polygon fill="white" stroke="black" points="1256,-153 1256,-183 1386,-183 1386,-153 1256,-153"/>
<text text-anchor="start" x="1264" y="-171" font-family="Helvetica,sans-Serif" font-size="10.00">x265::Analysis::compress</text>
<text text-anchor="middle" x="1321" y="-160" font-family="Helvetica,sans-Serif" font-size="10.00">IntraCU</text>
</a>
</g>
</g>
<!-- Node17&#45;&gt;Node19 -->
<g id="edge27" class="edge"><title>Node17&#45;&gt;Node19</title>
<path fill="none" stroke="midnightblue" d="M998.735,-140.978C1019.97,-133.487 1048.17,-124.825 1074,-121 1138.19,-111.496 1156.67,-106.86 1220,-121 1247.33,-127.103 1276.02,-141.532 1295.62,-152.805"/>
<polygon fill="midnightblue" stroke="midnightblue" points="997.417,-137.732 989.204,-144.424 999.798,-144.315 997.417,-137.732"/>
</g>
<!-- Node20 -->
<g id="node20" class="node"><title>Node20</title>
<g id="a_node20"><a xlink:href="classx265_1_1Analysis.html#a0b22b7765aa4a36b1ba6d07ba26901e6" target="_top" xlink:title="x265::Analysis::compress\lInterCU_rd5_6">
<polygon fill="white" stroke="black" points="1256,-202 1256,-232 1386,-232 1386,-202 1256,-202"/>
<text text-anchor="start" x="1264" y="-220" font-family="Helvetica,sans-Serif" font-size="10.00">x265::Analysis::compress</text>
<text text-anchor="middle" x="1321" y="-209" font-family="Helvetica,sans-Serif" font-size="10.00">InterCU_rd5_6</text>
</a>
</g>
</g>
<!-- Node17&#45;&gt;Node20 -->
<g id="edge28" class="edge"><title>Node17&#45;&gt;Node20</title>
<path fill="none" stroke="midnightblue" d="M1015.73,-142.629C1068.95,-133.238 1153.9,-125.57 1220,-154 1241.37,-163.192 1236.7,-179.01 1256,-192 1261.54,-195.73 1267.72,-199.024 1273.99,-201.895"/>
<polygon fill="midnightblue" stroke="midnightblue" points="1015.04,-139.196 1005.85,-144.457 1016.32,-146.079 1015.04,-139.196"/>
</g>
<!-- Node18&#45;&gt;Node8 -->
<g id="edge23" class="edge"><title>Node18&#45;&gt;Node8</title>
<path fill="none" stroke="midnightblue" d="M1215.43,-187.97C1217.04,-189.213 1218.57,-190.553 1220,-192 1265.81,-238.261 1218.79,-280.575 1256,-334 1264.32,-345.949 1277.01,-355.647 1288.91,-362.867"/>
<polygon fill="midnightblue" stroke="midnightblue" points="1217.14,-184.911 1206.81,-182.546 1213.41,-190.835 1217.14,-184.911"/>
</g>
<!-- Node18&#45;&gt;Node12 -->
<g id="edge24" class="edge"><title>Node18&#45;&gt;Node12</title>
<path fill="none" stroke="midnightblue" d="M1210.72,-186.638C1213.96,-188.232 1217.08,-190.012 1220,-192 1242.34,-207.205 1238.78,-220.171 1256,-241 1271.93,-260.268 1291.68,-281.151 1304.99,-294.836"/>
<polygon fill="midnightblue" stroke="midnightblue" points="1211.91,-183.338 1201.33,-182.622 1209.15,-189.773 1211.91,-183.338"/>
</g>
<!-- Node18&#45;&gt;Node19 -->
<g id="edge21" class="edge"><title>Node18&#45;&gt;Node19</title>
<path fill="none" stroke="midnightblue" d="M1226.24,-170.726C1236.16,-170.437 1246.22,-170.145 1255.88,-169.864"/>
<polygon fill="midnightblue" stroke="midnightblue" points="1225.87,-167.235 1215.98,-171.024 1226.08,-174.232 1225.87,-167.235"/>
</g>
<!-- Node18&#45;&gt;Node20 -->
<g id="edge25" class="edge"><title>Node18&#45;&gt;Node20</title>
<path fill="none" stroke="midnightblue" d="M1195.01,-185.026C1215.41,-190.245 1239.53,-196.414 1261.11,-201.935"/>
<polygon fill="midnightblue" stroke="midnightblue" points="1195.88,-181.635 1185.32,-182.547 1194.14,-188.417 1195.88,-181.635"/>
</g>
<!-- Node19&#45;&gt;Node9 -->
<g id="edge22" class="edge"><title>Node19&#45;&gt;Node9</title>
<path fill="none" stroke="midnightblue" d="M1385.79,-185.86C1411.94,-193.182 1441.15,-201.361 1463.06,-207.498"/>
<polygon fill="midnightblue" stroke="midnightblue" points="1386.51,-182.427 1375.93,-183.101 1384.62,-189.168 1386.51,-182.427"/>
</g>
<!-- Node20&#45;&gt;Node9 -->
<g id="edge26" class="edge"><title>Node20&#45;&gt;Node9</title>
<path fill="none" stroke="midnightblue" d="M1396.25,-217C1404.93,-217 1413.78,-217 1422.47,-217"/>
<polygon fill="midnightblue" stroke="midnightblue" points="1396.17,-213.5 1386.17,-217 1396.17,-220.5 1396.17,-213.5"/>
</g>
<!-- Node21&#45;&gt;Node8 -->
<g id="edge31" class="edge"><title>Node21&#45;&gt;Node8</title>
<path fill="none" stroke="midnightblue" d="M983.347,-308.864C1003.01,-331.368 1036.51,-364.293 1074,-378 1132.86,-399.521 1205.08,-396.369 1255.99,-389.758"/>
<polygon fill="midnightblue" stroke="midnightblue" points="985.889,-306.451 976.745,-301.099 980.556,-310.985 985.889,-306.451"/>
</g>
<!-- Node21&#45;&gt;Node12 -->
<g id="edge32" class="edge"><title>Node21&#45;&gt;Node12</title>
<path fill="none" stroke="midnightblue" d="M1047.67,-291.589C1111.11,-295.878 1197.43,-301.713 1255.74,-305.656"/>
<polygon fill="midnightblue" stroke="midnightblue" points="1047.91,-288.097 1037.7,-290.915 1047.44,-295.081 1047.91,-288.097"/>
</g>
<!-- Node21&#45;&gt;Node18 -->
<g id="edge30" class="edge"><title>Node21&#45;&gt;Node18</title>
<path fill="none" stroke="midnightblue" d="M985.128,-263.526C1005.51,-242.106 1038.95,-210.463 1074,-192 1081.32,-188.144 1089.48,-185.028 1097.6,-182.524"/>
<polygon fill="midnightblue" stroke="midnightblue" points="982.498,-261.214 978.231,-270.912 987.614,-265.992 982.498,-261.214"/>
</g>
<!-- Node22 -->
<g id="node22" class="node"><title>Node22</title>
<g id="a_node22"><a xlink:href="classx265_1_1Analysis.html#addd72cb95590e2b2a6965d42d110eab3" target="_top" xlink:title="x265::Analysis::checkMerge2\lNx2N_rd0_4">
<polygon fill="white" stroke="black" points="1074,-339 1074,-369 1220,-369 1220,-339 1074,-339"/>
<text text-anchor="start" x="1082" y="-357" font-family="Helvetica,sans-Serif" font-size="10.00">x265::Analysis::checkMerge2</text>
<text text-anchor="middle" x="1147" y="-346" font-family="Helvetica,sans-Serif" font-size="10.00">Nx2N_rd0_4</text>
</a>
</g>
</g>
<!-- Node21&#45;&gt;Node22 -->
<g id="edge33" class="edge"><title>Node21&#45;&gt;Node22</title>
<path fill="none" stroke="midnightblue" d="M1014.62,-304.642C1043.34,-315.432 1079.02,-328.836 1105.94,-338.951"/>
<polygon fill="midnightblue" stroke="midnightblue" points="1015.76,-301.332 1005.17,-301.091 1013.3,-307.885 1015.76,-301.332"/>
</g>
<!-- Node23 -->
<g id="node23" class="node"><title>Node23</title>
<g id="a_node23"><a xlink:href="classx265_1_1Analysis.html#a0194a9da53aa95173fa1132ba3aea1c7" target="_top" xlink:title="x265::Analysis::checkMerge2\lNx2N_rd5_6">
<polygon fill="white" stroke="black" points="1074,-202 1074,-232 1220,-232 1220,-202 1074,-202"/>
<text text-anchor="start" x="1082" y="-220" font-family="Helvetica,sans-Serif" font-size="10.00">x265::Analysis::checkMerge2</text>
<text text-anchor="middle" x="1147" y="-209" font-family="Helvetica,sans-Serif" font-size="10.00">Nx2N_rd5_6</text>
</a>
</g>
</g>
<!-- Node21&#45;&gt;Node23 -->
<g id="edge36" class="edge"><title>Node21&#45;&gt;Node23</title>
<path fill="none" stroke="midnightblue" d="M1008.97,-267.03C1028.72,-258.719 1052.4,-249.047 1074,-241 1082.15,-237.964 1090.88,-234.898 1099.36,-232.02"/>
<polygon fill="midnightblue" stroke="midnightblue" points="1007.45,-263.869 999.609,-270.988 1010.18,-270.316 1007.45,-263.869"/>
</g>
<!-- Node24 -->
<g id="node24" class="node"><title>Node24</title>
<g id="a_node24"><a xlink:href="classx265_1_1Analysis.html#a828daa3e9f1ed40a1af9f99f7ff7bb33" target="_top" xlink:title="x265::Analysis::checkInter\l_rd5_6">
<polygon fill="white" stroke="black" points="1080.5,-251 1080.5,-281 1213.5,-281 1213.5,-251 1080.5,-251"/>
<text text-anchor="start" x="1088.5" y="-269" font-family="Helvetica,sans-Serif" font-size="10.00">x265::Analysis::checkInter</text>
<text text-anchor="middle" x="1147" y="-258" font-family="Helvetica,sans-Serif" font-size="10.00">_rd5_6</text>
</a>
</g>
</g>
<!-- Node21&#45;&gt;Node24 -->
<g id="edge38" class="edge"><title>Node21&#45;&gt;Node24</title>
<path fill="none" stroke="midnightblue" d="M1047.62,-276.871C1058.62,-275.656 1069.77,-274.423 1080.43,-273.245"/>
<polygon fill="midnightblue" stroke="midnightblue" points="1047.13,-273.403 1037.58,-277.98 1047.9,-280.361 1047.13,-273.403"/>
</g>
<!-- Node22&#45;&gt;Node8 -->
<g id="edge34" class="edge"><title>Node22&#45;&gt;Node8</title>
<path fill="none" stroke="midnightblue" d="M1230.42,-365.501C1238.96,-366.692 1247.54,-367.889 1255.83,-369.046"/>
<polygon fill="midnightblue" stroke="midnightblue" points="1230.83,-362.024 1220.44,-364.109 1229.87,-368.957 1230.83,-362.024"/>
</g>
<!-- Node22&#45;&gt;Node12 -->
<g id="edge35" class="edge"><title>Node22&#45;&gt;Node12</title>
<path fill="none" stroke="midnightblue" d="M1216.78,-336.406C1231.51,-332.637 1246.95,-328.688 1261.26,-325.026"/>
<polygon fill="midnightblue" stroke="midnightblue" points="1215.53,-333.112 1206.71,-338.981 1217.27,-339.893 1215.53,-333.112"/>
</g>
<!-- Node23&#45;&gt;Node20 -->
<g id="edge37" class="edge"><title>Node23&#45;&gt;Node20</title>
<path fill="none" stroke="midnightblue" d="M1230.7,-217C1239.14,-217 1247.63,-217 1255.83,-217"/>
<polygon fill="midnightblue" stroke="midnightblue" points="1230.45,-213.5 1220.44,-217 1230.44,-220.5 1230.45,-213.5"/>
</g>
<!-- Node24&#45;&gt;Node20 -->
<g id="edge39" class="edge"><title>Node24&#45;&gt;Node20</title>
<path fill="none" stroke="midnightblue" d="M1210.81,-248.106C1229.31,-242.836 1249.36,-237.124 1267.17,-232.052"/>
<polygon fill="midnightblue" stroke="midnightblue" points="1209.67,-244.793 1201.01,-250.899 1211.59,-251.525 1209.67,-244.793"/>
</g>
<!-- Node26 -->
<g id="node26" class="node"><title>Node26</title>
<g id="a_node26"><a xlink:href="classx265_1_1Entropy.html#af0793a415273d86dc38b396dae9f9db3" target="_top" xlink:title="x265::Entropy::encodeTransform">
<polygon fill="white" stroke="black" points="342.5,-220.5 342.5,-239.5 501.5,-239.5 501.5,-220.5 342.5,-220.5"/>
<text text-anchor="middle" x="422" y="-227.5" font-family="Helvetica,sans-Serif" font-size="10.00">x265::Entropy::encodeTransform</text>
</a>
</g>
</g>
<!-- Node25&#45;&gt;Node26 -->
<g id="edge41" class="edge"><title>Node25&#45;&gt;Node26</title>
<path fill="none" stroke="midnightblue" d="M316.313,-230C324.998,-230 333.828,-230 342.491,-230"/>
<polygon fill="midnightblue" stroke="midnightblue" points="316.204,-226.5 306.204,-230 316.204,-233.5 316.204,-226.5"/>
</g>
<!-- Node27 -->
<g id="node27" class="node"><title>Node27</title>
<g id="a_node27"><a xlink:href="classx265_1_1Entropy.html#a220326e32d9be80554bf11194ef2c642" target="_top" xlink:title="x265::Entropy::codeCoeff">
<polygon fill="white" stroke="black" points="545,-220.5 545,-239.5 673,-239.5 673,-220.5 545,-220.5"/>
<text text-anchor="middle" x="609" y="-227.5" font-family="Helvetica,sans-Serif" font-size="10.00">x265::Entropy::codeCoeff</text>
</a>
</g>
</g>
<!-- Node26&#45;&gt;Node27 -->
<g id="edge42" class="edge"><title>Node26&#45;&gt;Node27</title>
<path fill="none" stroke="midnightblue" d="M511.877,-230C522.973,-230 534.138,-230 544.733,-230"/>
<polygon fill="midnightblue" stroke="midnightblue" points="511.725,-226.5 501.725,-230 511.725,-233.5 511.725,-226.5"/>
</g>
<!-- Node27&#45;&gt;Node5 -->
<g id="edge43" class="edge"><title>Node27&#45;&gt;Node5</title>
<path fill="none" stroke="midnightblue" d="M672.593,-244.047C675.191,-245.535 677.676,-247.181 680,-249 739.236,-295.368 769.832,-385.387 780.033,-420.987"/>
<polygon fill="midnightblue" stroke="midnightblue" points="673.924,-240.802 663.401,-239.57 670.859,-247.096 673.924,-240.802"/>
</g>
<!-- Node27&#45;&gt;Node13 -->
<g id="edge44" class="edge"><title>Node27&#45;&gt;Node13</title>
<path fill="none" stroke="midnightblue" d="M683.386,-230C695.507,-230 707.99,-230 719.861,-230"/>
<polygon fill="midnightblue" stroke="midnightblue" points="683.31,-226.5 673.31,-230 683.31,-233.5 683.31,-226.5"/>
</g>
<!-- Node27&#45;&gt;Node17 -->
<g id="edge45" class="edge"><title>Node27&#45;&gt;Node17</title>
<path fill="none" stroke="midnightblue" d="M646.933,-217.211C667.156,-210.537 692.761,-202.615 716,-197 778.3,-181.946 850.651,-169.984 900.878,-162.537"/>
<polygon fill="midnightblue" stroke="midnightblue" points="645.557,-213.981 637.182,-220.47 647.776,-220.62 645.557,-213.981"/>
</g>
<!-- Node27&#45;&gt;Node21 -->
<g id="edge46" class="edge"><title>Node27&#45;&gt;Node21</title>
<path fill="none" stroke="midnightblue" d="M650.83,-217.73C700.143,-204.959 785.058,-189.573 854,-211 891.729,-222.726 927.964,-252.552 947.681,-270.862"/>
<polygon fill="midnightblue" stroke="midnightblue" points="649.618,-214.432 640.866,-220.402 651.431,-221.193 649.618,-214.432"/>
</g>
</g>
</svg>
        <g id="navigator" transform="translate(0 0)" fill="#404254">
                <rect fill="#f2f5e9" fill-opacity="0.5" stroke="#606060" stroke-width=".5" x="0" y="0" width="60" height="60"/>
                <use id="zoomplus" xlink:href="#zoomPlus" x="17" y="9" onmousedown="handleZoom(evt,'in')"/>
                <use id="zoomminus" xlink:href="#zoomMin" x="42" y="9" onmousedown="handleZoom(evt,'out')"/>
                <use id="reset" xlink:href="#resetDef" x="30" y="36" onmousedown="handleReset()"/>
                <g id="arrowUp" xlink:href="#dirArrow" transform="translate(30 24)" onmousedown="handlePan(0,-1)">
                  <use xlink:href="#rim" fill="#404040">
                        <set attributeName="fill" to="#808080" begin="arrowUp.mouseover" end="arrowUp.mouseout"/>
                  </use>
                  <path fill="none" stroke="white" stroke-width="1.5" d="M0,-3.0v7 M-2.5,-0.5L0,-3.0L2.5,-0.5"/>
                </g>
                <g id="arrowRight" xlink:href="#dirArrow" transform="rotate(90) translate(36 -43)" onmousedown="handlePan(1,0)">
                  <use xlink:href="#rim" fill="#404040">
                        <set attributeName="fill" to="#808080" begin="arrowRight.mouseover" end="arrowRight.mouseout"/>
                  </use>
                  <path fill="none" stroke="white" stroke-width="1.5" d="M0,-3.0v7 M-2.5,-0.5L0,-3.0L2.5,-0.5"/>
                </g>
                <g id="arrowDown" xlink:href="#dirArrow" transform="rotate(180) translate(-30 -48)" onmousedown="handlePan(0,1)">
                  <use xlink:href="#rim" fill="#404040">
                        <set attributeName="fill" to="#808080" begin="arrowDown.mouseover" end="arrowDown.mouseout"/>
                  </use>
                  <path fill="none" stroke="white" stroke-width="1.5" d="M0,-3.0v7 M-2.5,-0.5L0,-3.0L2.5,-0.5"/>
                </g>
                <g id="arrowLeft" xlink:href="#dirArrow" transform="rotate(270) translate(-36 17)" onmousedown="handlePan(-1,0)">
                  <use xlink:href="#rim" fill="#404040">
                        <set attributeName="fill" to="#808080" begin="arrowLeft.mouseover" end="arrowLeft.mouseout"/>
                  </use>
                  <path fill="none" stroke="white" stroke-width="1.5" d="M0,-3.0v7 M-2.5,-0.5L0,-3.0L2.5,-0.5"/>
                </g>
        </g>
        <svg viewBox="0 0 15 15" width="100%" height="30px" preserveAspectRatio="xMaxYMin meet">
         <g id="arrow_out" transform="scale(0.3 0.3)">
          <a xlink:href="classx265_1_1Entropy_a1dcd536d7412a6e572c1c76f43914366_icgraph_org.svg" target="_base">
           <rect id="button" ry="5" rx="5" y="6" x="6" height="38" width="38"
                fill="#f2f5e9" fill-opacity="0.5" stroke="#606060" stroke-width="1.0"/>
           <path id="arrow"
             d="M 11.500037,31.436501 C 11.940474,20.09759 22.043105,11.32322 32.158766,21.979434 L 37.068811,17.246167 C 37.068811,17.246167 37.088388,32 37.088388,32 L 22.160133,31.978069 C 22.160133,31.978069 26.997745,27.140456 26.997745,27.140456 C 18.528582,18.264221 13.291696,25.230495 11.500037,31.436501 z"
             style="fill:#404040;"/>
          </a>
         </g>
        </svg>
</svg>
