<?xml version="1.0" encoding="UTF-8" standalone="no"?>
<!DOCTYPE svg PUBLIC "-//W3C//DTD SVG 1.1//EN"
 "http://www.w3.org/Graphics/SVG/1.1/DTD/svg11.dtd">
<!-- Generated by graphviz version 2.36.0 (20140111.2315)
 -->
<!-- Title: x265::Entropy::codeRefFrmIdxPU Pages: 1 -->
<svg width="804pt" height="85pt"
 viewBox="0.00 0.00 804.00 85.00" xmlns="http://www.w3.org/2000/svg" xmlns:xlink="http://www.w3.org/1999/xlink">
<g id="graph0" class="graph" transform="scale(1 1) rotate(0) translate(4 81)">
<title>x265::Entropy::codeRefFrmIdxPU</title>
<polygon fill="white" stroke="none" points="-4,4 -4,-81 800,-81 800,4 -4,4"/>
<!-- Node1 -->
<g id="node1" class="node"><title>Node1</title>
<polygon fill="#bfbfbf" stroke="black" points="0.5,-33 0.5,-63 137.5,-63 137.5,-33 0.5,-33"/>
<text text-anchor="start" x="8.5" y="-51" font-family="Helvetica,sans-Serif" font-size="10.00">x265::Entropy::codeRefFrm</text>
<text text-anchor="middle" x="69" y="-40" font-family="Helvetica,sans-Serif" font-size="10.00">IdxPU</text>
</g>
<!-- Node2 -->
<g id="node2" class="node"><title>Node2</title>
<g id="a_node2"><a xlink:href="classx265_1_1CUData.html#a4de1cda97a0a06196c9f6ac92d6829a2" target="_top" xlink:title="x265::CUData::isIntra">
<polygon fill="white" stroke="black" points="193.5,-57.5 193.5,-76.5 306.5,-76.5 306.5,-57.5 193.5,-57.5"/>
<text text-anchor="middle" x="250" y="-64.5" font-family="Helvetica,sans-Serif" font-size="10.00">x265::CUData::isIntra</text>
</a>
</g>
</g>
<!-- Node1&#45;&gt;Node2 -->
<g id="edge1" class="edge"><title>Node1&#45;&gt;Node2</title>
<path fill="none" stroke="midnightblue" d="M137.672,-55.1831C152.634,-56.7712 168.463,-58.4513 183.343,-60.0308"/>
<polygon fill="midnightblue" stroke="midnightblue" points="183.157,-63.5307 193.471,-61.1058 183.896,-56.5698 183.157,-63.5307"/>
</g>
<!-- Node3 -->
<g id="node3" class="node"><title>Node3</title>
<g id="a_node3"><a xlink:href="classx265_1_1Entropy.html#a06d70c3de658d9c93ae7a981985a8844" target="_top" xlink:title="x265::Entropy::codeRefFrmIdx">
<polygon fill="white" stroke="black" points="174.5,-19.5 174.5,-38.5 325.5,-38.5 325.5,-19.5 174.5,-19.5"/>
<text text-anchor="middle" x="250" y="-26.5" font-family="Helvetica,sans-Serif" font-size="10.00">x265::Entropy::codeRefFrmIdx</text>
</a>
</g>
</g>
<!-- Node1&#45;&gt;Node3 -->
<g id="edge2" class="edge"><title>Node1&#45;&gt;Node3</title>
<path fill="none" stroke="midnightblue" d="M137.672,-40.8169C146.376,-39.893 155.373,-38.9381 164.306,-37.9898"/>
<polygon fill="midnightblue" stroke="midnightblue" points="164.771,-41.4603 174.346,-36.9242 164.032,-34.4994 164.771,-41.4603"/>
</g>
<!-- Node4 -->
<g id="node4" class="node"><title>Node4</title>
<g id="a_node4"><a xlink:href="classx265_1_1Entropy.html#ad5bd127b6afa68ee4408890c75fdd4bd" target="_top" xlink:title="x265::Entropy::encodeBin">
<polygon fill="white" stroke="black" points="371.5,-38.5 371.5,-57.5 500.5,-57.5 500.5,-38.5 371.5,-38.5"/>
<text text-anchor="middle" x="436" y="-45.5" font-family="Helvetica,sans-Serif" font-size="10.00">x265::Entropy::encodeBin</text>
</a>
</g>
</g>
<!-- Node3&#45;&gt;Node4 -->
<g id="edge3" class="edge"><title>Node3&#45;&gt;Node4</title>
<path fill="none" stroke="midnightblue" d="M325.575,-36.7006C337.286,-37.91 349.388,-39.1597 361.085,-40.3674"/>
<polygon fill="midnightblue" stroke="midnightblue" points="360.932,-43.8702 371.239,-41.416 361.651,-36.9072 360.932,-43.8702"/>
</g>
<!-- Node7 -->
<g id="node7" class="node"><title>Node7</title>
<g id="a_node7"><a xlink:href="classx265_1_1Entropy.html#ac9e06099bfcb9f576565d6d5a0e3205f" target="_top" xlink:title="x265::Entropy::encodeBinsEP">
<polygon fill="white" stroke="black" points="362,-0.5 362,-19.5 510,-19.5 510,-0.5 362,-0.5"/>
<text text-anchor="middle" x="436" y="-7.5" font-family="Helvetica,sans-Serif" font-size="10.00">x265::Entropy::encodeBinsEP</text>
</a>
</g>
</g>
<!-- Node3&#45;&gt;Node7 -->
<g id="edge6" class="edge"><title>Node3&#45;&gt;Node7</title>
<path fill="none" stroke="midnightblue" d="M325.575,-21.2994C334.167,-20.4121 342.969,-19.5032 351.667,-18.605"/>
<polygon fill="midnightblue" stroke="midnightblue" points="352.224,-22.0662 361.812,-17.5575 351.505,-15.1032 352.224,-22.0662"/>
</g>
<!-- Node5 -->
<g id="node5" class="node"><title>Node5</title>
<g id="a_node5"><a xlink:href="classx265_1_1Entropy.html#a38c906d03fe47f10456a3d5bc0cd2080" target="_top" xlink:title="x265::Entropy::writeOut">
<polygon fill="white" stroke="black" points="546,-19.5 546,-38.5 666,-38.5 666,-19.5 546,-19.5"/>
<text text-anchor="middle" x="606" y="-26.5" font-family="Helvetica,sans-Serif" font-size="10.00">x265::Entropy::writeOut</text>
</a>
</g>
</g>
<!-- Node4&#45;&gt;Node5 -->
<g id="edge4" class="edge"><title>Node4&#45;&gt;Node5</title>
<path fill="none" stroke="midnightblue" d="M500.514,-40.8169C512.012,-39.5165 524.057,-38.1543 535.711,-36.8363"/>
<polygon fill="midnightblue" stroke="midnightblue" points="536.285,-40.2937 545.829,-35.692 535.499,-33.3381 536.285,-40.2937"/>
</g>
<!-- Node6 -->
<g id="node6" class="node"><title>Node6</title>
<g id="a_node6"><a xlink:href="classx265_1_1BitInterface.html#a0ab2614d14b086091eefc0ed19f3be6d" target="_top" xlink:title="x265::BitInterface\l::writeByte">
<polygon fill="white" stroke="black" points="702,-14 702,-44 796,-44 796,-14 702,-14"/>
<text text-anchor="start" x="710" y="-32" font-family="Helvetica,sans-Serif" font-size="10.00">x265::BitInterface</text>
<text text-anchor="middle" x="749" y="-21" font-family="Helvetica,sans-Serif" font-size="10.00">::writeByte</text>
</a>
</g>
</g>
<!-- Node5&#45;&gt;Node6 -->
<g id="edge5" class="edge"><title>Node5&#45;&gt;Node6</title>
<path fill="none" stroke="midnightblue" d="M666.388,-29C674.842,-29 683.515,-29 691.903,-29"/>
<polygon fill="midnightblue" stroke="midnightblue" points="691.961,-32.5001 701.961,-29 691.961,-25.5001 691.961,-32.5001"/>
</g>
<!-- Node7&#45;&gt;Node5 -->
<g id="edge7" class="edge"><title>Node7&#45;&gt;Node5</title>
<path fill="none" stroke="midnightblue" d="M510.199,-18.2784C518.685,-19.2382 527.321,-20.2149 535.753,-21.1684"/>
<polygon fill="midnightblue" stroke="midnightblue" points="535.582,-24.6713 545.912,-22.3174 536.368,-17.7157 535.582,-24.6713"/>
</g>
</g>
</svg>
