<?xml version="1.0" encoding="UTF-8" standalone="no"?>
<!DOCTYPE svg PUBLIC "-//W3C//DTD SVG 1.1//EN"
 "http://www.w3.org/Graphics/SVG/1.1/DTD/svg11.dtd">
<!-- Generated by graphviz version 2.36.0 (20140111.2315)
 -->
<!-- Title: x265::CUData::initLosslessCU Pages: 1 -->
<svg width="1418pt" height="185pt"
 viewBox="0.00 0.00 1418.00 185.00" xmlns="http://www.w3.org/2000/svg" xmlns:xlink="http://www.w3.org/1999/xlink">
<g id="graph0" class="graph" transform="scale(1 1) rotate(0) translate(4 181)">
<title>x265::CUData::initLosslessCU</title>
<polygon fill="white" stroke="none" points="-4,4 -4,-181 1414,-181 1414,4 -4,4"/>
<!-- Node1 -->
<g id="node1" class="node"><title>Node1</title>
<polygon fill="#bfbfbf" stroke="black" points="0,-78.5 0,-97.5 152,-97.5 152,-78.5 0,-78.5"/>
<text text-anchor="middle" x="76" y="-85.5" font-family="Helvetica,sans-Serif" font-size="10.00">x265::CUData::initLosslessCU</text>
</g>
<!-- Node2 -->
<g id="node2" class="node"><title>Node2</title>
<g id="a_node2"><a xlink:href="classx265_1_1Analysis.html#a10f0a8d9d143faf8dc671c6f0982693d" target="_top" xlink:title="x265::Analysis::tryLossless">
<polygon fill="white" stroke="black" points="188.5,-78.5 188.5,-97.5 325.5,-97.5 325.5,-78.5 188.5,-78.5"/>
<text text-anchor="middle" x="257" y="-85.5" font-family="Helvetica,sans-Serif" font-size="10.00">x265::Analysis::tryLossless</text>
</a>
</g>
</g>
<!-- Node1&#45;&gt;Node2 -->
<g id="edge1" class="edge"><title>Node1&#45;&gt;Node2</title>
<path fill="none" stroke="midnightblue" d="M162.37,-88C171.127,-88 179.938,-88 188.464,-88"/>
<polygon fill="midnightblue" stroke="midnightblue" points="162.134,-84.5001 152.134,-88 162.134,-91.5001 162.134,-84.5001"/>
</g>
<!-- Node3 -->
<g id="node3" class="node"><title>Node3</title>
<g id="a_node3"><a xlink:href="classx265_1_1Analysis.html#aae2a6a2252270782b591d2bed7e99dae" target="_top" xlink:title="x265::Analysis::compress\lIntraCU">
<polygon fill="white" stroke="black" points="362,-147 362,-177 492,-177 492,-147 362,-147"/>
<text text-anchor="start" x="370" y="-165" font-family="Helvetica,sans-Serif" font-size="10.00">x265::Analysis::compress</text>
<text text-anchor="middle" x="427" y="-154" font-family="Helvetica,sans-Serif" font-size="10.00">IntraCU</text>
</a>
</g>
</g>
<!-- Node2&#45;&gt;Node3 -->
<g id="edge2" class="edge"><title>Node2&#45;&gt;Node3</title>
<path fill="none" stroke="midnightblue" d="M286.582,-102.108C307.342,-112.197 336.201,-125.899 362,-137 369.78,-140.348 378.167,-143.761 386.226,-146.947"/>
<polygon fill="midnightblue" stroke="midnightblue" points="287.893,-98.8531 277.372,-97.6104 284.822,-105.143 287.893,-98.8531"/>
</g>
<!-- Node10 -->
<g id="node10" class="node"><title>Node10</title>
<g id="a_node10"><a xlink:href="classx265_1_1Analysis.html#a87060ff27a37f56adc5f5b8a4c033ece" target="_top" xlink:title="x265::Analysis::compress\lInterCU_dist">
<polygon fill="white" stroke="black" points="362,-98 362,-128 492,-128 492,-98 362,-98"/>
<text text-anchor="start" x="370" y="-116" font-family="Helvetica,sans-Serif" font-size="10.00">x265::Analysis::compress</text>
<text text-anchor="middle" x="427" y="-105" font-family="Helvetica,sans-Serif" font-size="10.00">InterCU_dist</text>
</a>
</g>
</g>
<!-- Node2&#45;&gt;Node10 -->
<g id="edge9" class="edge"><title>Node2&#45;&gt;Node10</title>
<path fill="none" stroke="midnightblue" d="M331.906,-98.9979C341.905,-100.486 352.098,-102.003 361.907,-103.462"/>
<polygon fill="midnightblue" stroke="midnightblue" points="332.399,-95.5328 321.993,-97.5227 331.369,-102.457 332.399,-95.5328"/>
</g>
<!-- Node11 -->
<g id="node11" class="node"><title>Node11</title>
<g id="a_node11"><a xlink:href="classx265_1_1Analysis.html#a30d2ff7eca5addbb0a6b3dfe14f09650" target="_top" xlink:title="x265::Analysis::compress\lInterCU_rd0_4">
<polygon fill="white" stroke="black" points="362,-49 362,-79 492,-79 492,-49 362,-49"/>
<text text-anchor="start" x="370" y="-67" font-family="Helvetica,sans-Serif" font-size="10.00">x265::Analysis::compress</text>
<text text-anchor="middle" x="427" y="-56" font-family="Helvetica,sans-Serif" font-size="10.00">InterCU_rd0_4</text>
</a>
</g>
</g>
<!-- Node2&#45;&gt;Node11 -->
<g id="edge11" class="edge"><title>Node2&#45;&gt;Node11</title>
<path fill="none" stroke="midnightblue" d="M334.954,-77.0066C343.937,-75.7233 353.027,-74.4247 361.811,-73.1698"/>
<polygon fill="midnightblue" stroke="midnightblue" points="334.285,-73.5665 324.881,-78.4456 335.275,-80.4961 334.285,-73.5665"/>
</g>
<!-- Node12 -->
<g id="node12" class="node"><title>Node12</title>
<g id="a_node12"><a xlink:href="classx265_1_1Analysis.html#a0b22b7765aa4a36b1ba6d07ba26901e6" target="_top" xlink:title="x265::Analysis::compress\lInterCU_rd5_6">
<polygon fill="white" stroke="black" points="362,-0 362,-30 492,-30 492,-0 362,-0"/>
<text text-anchor="start" x="370" y="-18" font-family="Helvetica,sans-Serif" font-size="10.00">x265::Analysis::compress</text>
<text text-anchor="middle" x="427" y="-7" font-family="Helvetica,sans-Serif" font-size="10.00">InterCU_rd5_6</text>
</a>
</g>
</g>
<!-- Node2&#45;&gt;Node12 -->
<g id="edge13" class="edge"><title>Node2&#45;&gt;Node12</title>
<path fill="none" stroke="midnightblue" d="M286.996,-74.0497C307.742,-64.2081 336.411,-50.8915 362,-40 369.793,-36.6831 378.186,-33.2831 386.247,-30.1012"/>
<polygon fill="midnightblue" stroke="midnightblue" points="285.302,-70.98 277.779,-78.4407 288.312,-77.2996 285.302,-70.98"/>
</g>
<!-- Node4 -->
<g id="node4" class="node"><title>Node4</title>
<g id="a_node4"><a xlink:href="classx265_1_1Analysis.html#aaebc9de2ff98834c650244f3b58942c2" target="_top" xlink:title="x265::Analysis::compressCTU">
<polygon fill="white" stroke="black" points="528.5,-78.5 528.5,-97.5 679.5,-97.5 679.5,-78.5 528.5,-78.5"/>
<text text-anchor="middle" x="604" y="-85.5" font-family="Helvetica,sans-Serif" font-size="10.00">x265::Analysis::compressCTU</text>
</a>
</g>
</g>
<!-- Node3&#45;&gt;Node4 -->
<g id="edge3" class="edge"><title>Node3&#45;&gt;Node4</title>
<path fill="none" stroke="midnightblue" d="M477.05,-143.09C482.111,-141.064 487.167,-139.009 492,-137 523.51,-123.898 559.59,-107.756 581.838,-97.6684"/>
<polygon fill="midnightblue" stroke="midnightblue" points="475.374,-139.99 467.37,-146.931 477.955,-146.497 475.374,-139.99"/>
</g>
<!-- Node5 -->
<g id="node5" class="node"><title>Node5</title>
<g id="a_node5"><a xlink:href="classx265_1_1FrameEncoder.html#a0ae85001572afd28238476542523ac5f" target="_top" xlink:title="x265::FrameEncoder\l::processRowEncoder">
<polygon fill="white" stroke="black" points="716.5,-73 716.5,-103 829.5,-103 829.5,-73 716.5,-73"/>
<text text-anchor="start" x="724.5" y="-91" font-family="Helvetica,sans-Serif" font-size="10.00">x265::FrameEncoder</text>
<text text-anchor="middle" x="773" y="-80" font-family="Helvetica,sans-Serif" font-size="10.00">::processRowEncoder</text>
</a>
</g>
</g>
<!-- Node4&#45;&gt;Node5 -->
<g id="edge4" class="edge"><title>Node4&#45;&gt;Node5</title>
<path fill="none" stroke="midnightblue" d="M689.86,-88C698.863,-88 707.845,-88 716.388,-88"/>
<polygon fill="midnightblue" stroke="midnightblue" points="689.708,-84.5001 679.708,-88 689.708,-91.5001 689.708,-84.5001"/>
</g>
<!-- Node6 -->
<g id="node6" class="node"><title>Node6</title>
<g id="a_node6"><a xlink:href="classx265_1_1FrameEncoder.html#acad645a8ece97d884895f8f7366b7d70" target="_top" xlink:title="x265::FrameEncoder\l::processRow">
<polygon fill="white" stroke="black" points="866.5,-73 866.5,-103 973.5,-103 973.5,-73 866.5,-73"/>
<text text-anchor="start" x="874.5" y="-91" font-family="Helvetica,sans-Serif" font-size="10.00">x265::FrameEncoder</text>
<text text-anchor="middle" x="920" y="-80" font-family="Helvetica,sans-Serif" font-size="10.00">::processRow</text>
</a>
</g>
</g>
<!-- Node5&#45;&gt;Node6 -->
<g id="edge5" class="edge"><title>Node5&#45;&gt;Node6</title>
<path fill="none" stroke="midnightblue" d="M839.877,-88C848.67,-88 857.594,-88 866.126,-88"/>
<polygon fill="midnightblue" stroke="midnightblue" points="839.646,-84.5001 829.646,-88 839.646,-91.5001 839.646,-84.5001"/>
</g>
<!-- Node7 -->
<g id="node7" class="node"><title>Node7</title>
<g id="a_node7"><a xlink:href="classx265_1_1FrameEncoder.html#ac4e9ce2e876c0cdb25c992c872fe4302" target="_top" xlink:title="x265::FrameEncoder\l::compressCTURows">
<polygon fill="white" stroke="black" points="1010,-73 1010,-103 1122,-103 1122,-73 1010,-73"/>
<text text-anchor="start" x="1018" y="-91" font-family="Helvetica,sans-Serif" font-size="10.00">x265::FrameEncoder</text>
<text text-anchor="middle" x="1066" y="-80" font-family="Helvetica,sans-Serif" font-size="10.00">::compressCTURows</text>
</a>
</g>
</g>
<!-- Node6&#45;&gt;Node7 -->
<g id="edge6" class="edge"><title>Node6&#45;&gt;Node7</title>
<path fill="none" stroke="midnightblue" d="M983.834,-88C992.475,-88 1001.3,-88 1009.79,-88"/>
<polygon fill="midnightblue" stroke="midnightblue" points="983.803,-84.5001 973.803,-88 983.803,-91.5001 983.803,-84.5001"/>
</g>
<!-- Node8 -->
<g id="node8" class="node"><title>Node8</title>
<g id="a_node8"><a xlink:href="classx265_1_1FrameEncoder.html#a2f5c4c0f1a4e36fce4c9b87eb7ec4973" target="_top" xlink:title="x265::FrameEncoder\l::compressFrame">
<polygon fill="white" stroke="black" points="1158.5,-73 1158.5,-103 1265.5,-103 1265.5,-73 1158.5,-73"/>
<text text-anchor="start" x="1166.5" y="-91" font-family="Helvetica,sans-Serif" font-size="10.00">x265::FrameEncoder</text>
<text text-anchor="middle" x="1212" y="-80" font-family="Helvetica,sans-Serif" font-size="10.00">::compressFrame</text>
</a>
</g>
</g>
<!-- Node7&#45;&gt;Node8 -->
<g id="edge7" class="edge"><title>Node7&#45;&gt;Node8</title>
<path fill="none" stroke="midnightblue" d="M1132.42,-88C1141.15,-88 1150.02,-88 1158.49,-88"/>
<polygon fill="midnightblue" stroke="midnightblue" points="1132.26,-84.5001 1122.26,-88 1132.26,-91.5001 1132.26,-84.5001"/>
</g>
<!-- Node9 -->
<g id="node9" class="node"><title>Node9</title>
<g id="a_node9"><a xlink:href="classx265_1_1FrameEncoder.html#aef61f29b9e93b3af9255d96236bc90a7" target="_top" xlink:title="x265::FrameEncoder\l::threadMain">
<polygon fill="white" stroke="black" points="1302.5,-73 1302.5,-103 1409.5,-103 1409.5,-73 1302.5,-73"/>
<text text-anchor="start" x="1310.5" y="-91" font-family="Helvetica,sans-Serif" font-size="10.00">x265::FrameEncoder</text>
<text text-anchor="middle" x="1356" y="-80" font-family="Helvetica,sans-Serif" font-size="10.00">::threadMain</text>
</a>
</g>
</g>
<!-- Node8&#45;&gt;Node9 -->
<g id="edge8" class="edge"><title>Node8&#45;&gt;Node9</title>
<path fill="none" stroke="midnightblue" d="M1275.99,-88C1284.7,-88 1293.58,-88 1302.08,-88"/>
<polygon fill="midnightblue" stroke="midnightblue" points="1275.88,-84.5001 1265.88,-88 1275.88,-91.5001 1275.88,-84.5001"/>
</g>
<!-- Node10&#45;&gt;Node4 -->
<g id="edge10" class="edge"><title>Node10&#45;&gt;Node4</title>
<path fill="none" stroke="midnightblue" d="M502.103,-102.414C513.521,-100.783 525.25,-99.1071 536.489,-97.5016"/>
<polygon fill="midnightblue" stroke="midnightblue" points="501.574,-98.9538 492.17,-103.833 502.564,-105.883 501.574,-98.9538"/>
</g>
<!-- Node11&#45;&gt;Node4 -->
<g id="edge12" class="edge"><title>Node11&#45;&gt;Node4</title>
<path fill="none" stroke="midnightblue" d="M502.393,-74.2025C512.722,-75.619 523.299,-77.0696 533.533,-78.4731"/>
<polygon fill="midnightblue" stroke="midnightblue" points="502.553,-70.6917 492.17,-72.8004 501.602,-77.6268 502.553,-70.6917"/>
</g>
<!-- Node12&#45;&gt;Node4 -->
<g id="edge14" class="edge"><title>Node12&#45;&gt;Node4</title>
<path fill="none" stroke="midnightblue" d="M477.035,-33.9474C482.099,-35.9659 487.16,-38.0089 492,-40 523.261,-52.86 559.105,-68.5296 581.402,-78.3885"/>
<polygon fill="midnightblue" stroke="midnightblue" points="477.937,-30.5402 467.35,-30.1158 475.361,-37.0493 477.937,-30.5402"/>
</g>
</g>
</svg>
