<?xml version="1.0" encoding="UTF-8" standalone="no"?>
<!DOCTYPE svg PUBLIC "-//W3C//DTD SVG 1.1//EN"
 "http://www.w3.org/Graphics/SVG/1.1/DTD/svg11.dtd">
<!-- Generated by graphviz version 2.36.0 (20140111.2315)
 -->
<!-- Title: x265::NALList::serializeSubstreams Pages: 1 -->
<svg width="306pt" height="116pt"
 viewBox="0.00 0.00 306.00 116.00" xmlns="http://www.w3.org/2000/svg" xmlns:xlink="http://www.w3.org/1999/xlink">
<g id="graph0" class="graph" transform="scale(1 1) rotate(0) translate(4 112)">
<title>x265::NALList::serializeSubstreams</title>
<polygon fill="white" stroke="none" points="-4,4 -4,-112 302,-112 302,4 -4,4"/>
<!-- Node1 -->
<g id="node1" class="node"><title>Node1</title>
<polygon fill="#bfbfbf" stroke="black" points="0.5,-39 0.5,-69 121.5,-69 121.5,-39 0.5,-39"/>
<text text-anchor="start" x="8.5" y="-57" font-family="Helvetica,sans-Serif" font-size="10.00">x265::NALList::serialize</text>
<text text-anchor="middle" x="61" y="-46" font-family="Helvetica,sans-Serif" font-size="10.00">Substreams</text>
</g>
<!-- Node2 -->
<g id="node2" class="node"><title>Node2</title>
<g id="a_node2"><a xlink:href="common_8cpp.html#a746489f014374f963df715ddf9bd3986" target="_top" xlink:title="x265_log">
<polygon fill="white" stroke="black" points="200,-88.5 200,-107.5 256,-107.5 256,-88.5 200,-88.5"/>
<text text-anchor="middle" x="228" y="-95.5" font-family="Helvetica,sans-Serif" font-size="10.00">x265_log</text>
</a>
</g>
</g>
<!-- Node1&#45;&gt;Node2 -->
<g id="edge1" class="edge"><title>Node1&#45;&gt;Node2</title>
<path fill="none" stroke="midnightblue" d="M118.322,-69.0192C141.91,-75.3092 168.682,-82.4485 189.752,-88.0673"/>
<polygon fill="midnightblue" stroke="midnightblue" points="189.035,-91.4981 199.599,-90.693 190.838,-84.7345 189.035,-91.4981"/>
</g>
<!-- Node3 -->
<g id="node3" class="node"><title>Node3</title>
<g id="a_node3"><a xlink:href="classx265_1_1Bitstream.html#a7821155c24a43eb0b142d00be6f0e710" target="_top" xlink:title="x265::Bitstream::getNumber\lOfWrittenBytes">
<polygon fill="white" stroke="black" points="158,-39 158,-69 298,-69 298,-39 158,-39"/>
<text text-anchor="start" x="166" y="-57" font-family="Helvetica,sans-Serif" font-size="10.00">x265::Bitstream::getNumber</text>
<text text-anchor="middle" x="228" y="-46" font-family="Helvetica,sans-Serif" font-size="10.00">OfWrittenBytes</text>
</a>
</g>
</g>
<!-- Node1&#45;&gt;Node3 -->
<g id="edge2" class="edge"><title>Node1&#45;&gt;Node3</title>
<path fill="none" stroke="midnightblue" d="M121.569,-54C130.061,-54 138.906,-54 147.702,-54"/>
<polygon fill="midnightblue" stroke="midnightblue" points="147.981,-57.5001 157.981,-54 147.981,-50.5001 147.981,-57.5001"/>
</g>
<!-- Node4 -->
<g id="node4" class="node"><title>Node4</title>
<g id="a_node4"><a xlink:href="classx265_1_1Bitstream.html#a77a39d516b2795ed90f8faeb75ff4cf1" target="_top" xlink:title="x265::Bitstream::getFIFO">
<polygon fill="white" stroke="black" points="164,-0.5 164,-19.5 292,-19.5 292,-0.5 164,-0.5"/>
<text text-anchor="middle" x="228" y="-7.5" font-family="Helvetica,sans-Serif" font-size="10.00">x265::Bitstream::getFIFO</text>
</a>
</g>
</g>
<!-- Node1&#45;&gt;Node4 -->
<g id="edge3" class="edge"><title>Node1&#45;&gt;Node4</title>
<path fill="none" stroke="midnightblue" d="M118.322,-38.9808C138.833,-33.5112 161.753,-27.3993 181.237,-22.2036"/>
<polygon fill="midnightblue" stroke="midnightblue" points="182.321,-25.5368 191.081,-19.5783 180.517,-18.7732 182.321,-25.5368"/>
</g>
</g>
</svg>
