<?xml version="1.0" encoding="UTF-8" standalone="no"?>
<!DOCTYPE svg PUBLIC "-//W3C//DTD SVG 1.1//EN"
 "http://www.w3.org/Graphics/SVG/1.1/DTD/svg11.dtd">
<!-- Generated by graphviz version 2.36.0 (20140111.2315)
 -->
<!-- Title: x265::Entropy::codeIntraDirChroma Pages: 1 -->
<svg width="1790pt" height="448pt"
 viewBox="0.00 0.00 1790.00 447.96" xmlns="http://www.w3.org/2000/svg" xmlns:xlink="http://www.w3.org/1999/xlink">
<g id="graph0" class="graph" transform="scale(1 1) rotate(0) translate(4 443.962)">
<title>x265::Entropy::codeIntraDirChroma</title>
<polygon fill="white" stroke="none" points="-4,4 -4,-443.962 1786,-443.962 1786,4 -4,4"/>
<!-- Node1 -->
<g id="node1" class="node"><title>Node1</title>
<polygon fill="#bfbfbf" stroke="black" points="0,-158 0,-188 124,-188 124,-158 0,-158"/>
<text text-anchor="start" x="8" y="-176" font-family="Helvetica,sans-Serif" font-size="10.00">x265::Entropy::codeIntra</text>
<text text-anchor="middle" x="62" y="-165" font-family="Helvetica,sans-Serif" font-size="10.00">DirChroma</text>
</g>
<!-- Node2 -->
<g id="node2" class="node"><title>Node2</title>
<g id="a_node2"><a xlink:href="classx265_1_1Entropy.html#a2a627c1c7ab4aee68a3b6c3b572e649a" target="_top" xlink:title="x265::Entropy::codePredInfo">
<polygon fill="white" stroke="black" points="160.5,-141.5 160.5,-160.5 301.5,-160.5 301.5,-141.5 160.5,-141.5"/>
<text text-anchor="middle" x="231" y="-148.5" font-family="Helvetica,sans-Serif" font-size="10.00">x265::Entropy::codePredInfo</text>
</a>
</g>
</g>
<!-- Node1&#45;&gt;Node2 -->
<g id="edge1" class="edge"><title>Node1&#45;&gt;Node2</title>
<path fill="none" stroke="midnightblue" d="M134.26,-163.612C142.888,-162.476 151.694,-161.316 160.299,-160.182"/>
<polygon fill="midnightblue" stroke="midnightblue" points="133.694,-160.157 124.236,-164.933 134.608,-167.097 133.694,-160.157"/>
</g>
<!-- Node24 -->
<g id="node24" class="node"><title>Node24</title>
<g id="a_node24"><a xlink:href="classx265_1_1Search.html#a70d466b561a7463b8ec5a213384ae667" target="_top" xlink:title="x265::Search::estIntraPred\lChromaQT">
<polygon fill="white" stroke="black" points="164,-180 164,-210 298,-210 298,-180 164,-180"/>
<text text-anchor="start" x="172" y="-198" font-family="Helvetica,sans-Serif" font-size="10.00">x265::Search::estIntraPred</text>
<text text-anchor="middle" x="231" y="-187" font-family="Helvetica,sans-Serif" font-size="10.00">ChromaQT</text>
</a>
</g>
</g>
<!-- Node1&#45;&gt;Node24 -->
<g id="edge40" class="edge"><title>Node1&#45;&gt;Node24</title>
<path fill="none" stroke="midnightblue" d="M134.374,-182.403C144.204,-183.698 154.264,-185.023 163.992,-186.304"/>
<polygon fill="midnightblue" stroke="midnightblue" points="134.608,-178.903 124.236,-181.067 133.694,-185.843 134.608,-178.903"/>
</g>
<!-- Node3 -->
<g id="node3" class="node"><title>Node3</title>
<g id="a_node3"><a xlink:href="classx265_1_1Analysis.html#ae4d61bcf4d2c22a054d68d6d77136428" target="_top" xlink:title="x265::Analysis::encodeIntra\lInInter">
<polygon fill="white" stroke="black" points="338,-320 338,-350 476,-350 476,-320 338,-320"/>
<text text-anchor="start" x="346" y="-338" font-family="Helvetica,sans-Serif" font-size="10.00">x265::Analysis::encodeIntra</text>
<text text-anchor="middle" x="407" y="-327" font-family="Helvetica,sans-Serif" font-size="10.00">InInter</text>
</a>
</g>
</g>
<!-- Node2&#45;&gt;Node3 -->
<g id="edge2" class="edge"><title>Node2&#45;&gt;Node3</title>
<path fill="none" stroke="midnightblue" d="M293.606,-164.738C296.548,-166.306 299.367,-168.053 302,-170 355.908,-209.862 388.64,-286.767 400.705,-319.568"/>
<polygon fill="midnightblue" stroke="midnightblue" points="295.027,-161.539 284.479,-160.55 292.108,-167.902 295.027,-161.539"/>
</g>
<!-- Node13 -->
<g id="node13" class="node"><title>Node13</title>
<g id="a_node13"><a xlink:href="classx265_1_1Entropy.html#adeb50a7c9a5df6643407d01158d93799" target="_top" xlink:title="x265::Entropy::encodeCU">
<polygon fill="white" stroke="black" points="342,-2.5 342,-21.5 472,-21.5 472,-2.5 342,-2.5"/>
<text text-anchor="middle" x="407" y="-9.5" font-family="Helvetica,sans-Serif" font-size="10.00">x265::Entropy::encodeCU</text>
</a>
</g>
</g>
<!-- Node2&#45;&gt;Node13 -->
<g id="edge14" class="edge"><title>Node2&#45;&gt;Node13</title>
<path fill="none" stroke="midnightblue" d="M251.894,-135.108C288.261,-106.056 364.44,-45.2 393.957,-21.6209"/>
<polygon fill="midnightblue" stroke="midnightblue" points="249.588,-132.47 243.96,-141.446 253.957,-137.939 249.588,-132.47"/>
</g>
<!-- Node16 -->
<g id="node16" class="node"><title>Node16</title>
<g id="a_node16"><a xlink:href="classx265_1_1Search.html#ab02df91827cf67796d1605bde60c6aed" target="_top" xlink:title="x265::Search::checkIntra">
<polygon fill="white" stroke="black" points="523,-64.5 523,-83.5 649,-83.5 649,-64.5 523,-64.5"/>
<text text-anchor="middle" x="586" y="-71.5" font-family="Helvetica,sans-Serif" font-size="10.00">x265::Search::checkIntra</text>
</a>
</g>
</g>
<!-- Node2&#45;&gt;Node16 -->
<g id="edge19" class="edge"><title>Node2&#45;&gt;Node16</title>
<path fill="none" stroke="midnightblue" d="M285.568,-139.315C355.467,-124.068 476.469,-97.674 541.184,-83.5576"/>
<polygon fill="midnightblue" stroke="midnightblue" points="284.663,-135.93 275.639,-141.481 286.155,-142.769 284.663,-135.93"/>
</g>
<!-- Node20 -->
<g id="node20" class="node"><title>Node20</title>
<g id="a_node20"><a xlink:href="classx265_1_1Search.html#aba5e04ce529f41accd43c540ba1dc7ad" target="_top" xlink:title="x265::Search::encodeResAnd\lCalcRdInterCU">
<polygon fill="white" stroke="black" points="512.5,-152 512.5,-182 659.5,-182 659.5,-152 512.5,-152"/>
<text text-anchor="start" x="520.5" y="-170" font-family="Helvetica,sans-Serif" font-size="10.00">x265::Search::encodeResAnd</text>
<text text-anchor="middle" x="586" y="-159" font-family="Helvetica,sans-Serif" font-size="10.00">CalcRdInterCU</text>
</a>
</g>
</g>
<!-- Node2&#45;&gt;Node20 -->
<g id="edge29" class="edge"><title>Node2&#45;&gt;Node20</title>
<path fill="none" stroke="midnightblue" d="M311.965,-154.624C372.172,-157.353 454.024,-161.063 512.37,-163.708"/>
<polygon fill="midnightblue" stroke="midnightblue" points="311.89,-151.118 301.741,-154.161 311.573,-158.11 311.89,-151.118"/>
</g>
<!-- Node4 -->
<g id="node4" class="node"><title>Node4</title>
<g id="a_node4"><a xlink:href="classx265_1_1Analysis.html#aa6122285d10bb1bd7584958b88b029d5" target="_top" xlink:title="x265::Analysis::parallel\lModeAnalysis">
<polygon fill="white" stroke="black" points="527,-364 527,-394 645,-394 645,-364 527,-364"/>
<text text-anchor="start" x="535" y="-382" font-family="Helvetica,sans-Serif" font-size="10.00">x265::Analysis::parallel</text>
<text text-anchor="middle" x="586" y="-371" font-family="Helvetica,sans-Serif" font-size="10.00">ModeAnalysis</text>
</a>
</g>
</g>
<!-- Node3&#45;&gt;Node4 -->
<g id="edge3" class="edge"><title>Node3&#45;&gt;Node4</title>
<path fill="none" stroke="midnightblue" d="M478.327,-352.482C494.448,-356.49 511.41,-360.707 526.947,-364.569"/>
<polygon fill="midnightblue" stroke="midnightblue" points="478.967,-349.035 468.418,-350.019 477.279,-355.828 478.967,-349.035"/>
</g>
<!-- Node6 -->
<g id="node6" class="node"><title>Node6</title>
<g id="a_node6"><a xlink:href="classx265_1_1Analysis.html#a87060ff27a37f56adc5f5b8a4c033ece" target="_top" xlink:title="x265::Analysis::compress\lInterCU_dist">
<polygon fill="white" stroke="black" points="878,-264 878,-294 1008,-294 1008,-264 878,-264"/>
<text text-anchor="start" x="886" y="-282" font-family="Helvetica,sans-Serif" font-size="10.00">x265::Analysis::compress</text>
<text text-anchor="middle" x="943" y="-271" font-family="Helvetica,sans-Serif" font-size="10.00">InterCU_dist</text>
</a>
</g>
</g>
<!-- Node3&#45;&gt;Node6 -->
<g id="edge11" class="edge"><title>Node3&#45;&gt;Node6</title>
<path fill="none" stroke="midnightblue" d="M432.333,-356.853C452.183,-373.119 481.789,-394 512,-403 652.585,-444.882 709.936,-460.854 842,-397 887.933,-374.791 920.769,-320.549 934.646,-294.057"/>
<polygon fill="midnightblue" stroke="midnightblue" points="434.354,-353.978 424.451,-350.212 429.844,-359.332 434.354,-353.978"/>
</g>
<!-- Node12 -->
<g id="node12" class="node"><title>Node12</title>
<g id="a_node12"><a xlink:href="classx265_1_1Analysis.html#a30d2ff7eca5addbb0a6b3dfe14f09650" target="_top" xlink:title="x265::Analysis::compress\lInterCU_rd0_4">
<polygon fill="white" stroke="black" points="878,-196 878,-226 1008,-226 1008,-196 878,-196"/>
<text text-anchor="start" x="886" y="-214" font-family="Helvetica,sans-Serif" font-size="10.00">x265::Analysis::compress</text>
<text text-anchor="middle" x="943" y="-203" font-family="Helvetica,sans-Serif" font-size="10.00">InterCU_rd0_4</text>
</a>
</g>
</g>
<!-- Node3&#45;&gt;Node12 -->
<g id="edge12" class="edge"><title>Node3&#45;&gt;Node12</title>
<path fill="none" stroke="midnightblue" d="M486.251,-335.931C575.308,-334.517 723.733,-324.553 842,-279 860.178,-271.998 861.915,-264.988 878,-254 891.706,-244.637 907.15,-234.256 919.433,-226.04"/>
<polygon fill="midnightblue" stroke="midnightblue" points="486.179,-332.432 476.224,-336.058 486.267,-339.431 486.179,-332.432"/>
</g>
<!-- Node5 -->
<g id="node5" class="node"><title>Node5</title>
<g id="a_node5"><a xlink:href="classx265_1_1Analysis.html#a29a58dad4cc1c07d2f5e5717c6be7c25" target="_top" xlink:title="x265::Analysis::findJob">
<polygon fill="white" stroke="black" points="709.5,-368.5 709.5,-387.5 828.5,-387.5 828.5,-368.5 709.5,-368.5"/>
<text text-anchor="middle" x="769" y="-375.5" font-family="Helvetica,sans-Serif" font-size="10.00">x265::Analysis::findJob</text>
</a>
</g>
</g>
<!-- Node4&#45;&gt;Node5 -->
<g id="edge4" class="edge"><title>Node4&#45;&gt;Node5</title>
<path fill="none" stroke="midnightblue" d="M655.519,-378.621C673.205,-378.524 692.083,-378.419 709.223,-378.325"/>
<polygon fill="midnightblue" stroke="midnightblue" points="655.246,-375.123 645.266,-378.678 655.285,-382.123 655.246,-375.123"/>
</g>
<!-- Node5&#45;&gt;Node6 -->
<g id="edge5" class="edge"><title>Node5&#45;&gt;Node6</title>
<path fill="none" stroke="midnightblue" d="M810.36,-365.01C820.904,-361.042 832.087,-356.305 842,-351 872.744,-334.546 904.879,-309.856 924.169,-294.088"/>
<polygon fill="midnightblue" stroke="midnightblue" points="809.121,-361.736 800.91,-368.432 811.504,-368.318 809.121,-361.736"/>
</g>
<!-- Node7 -->
<g id="node7" class="node"><title>Node7</title>
<g id="a_node7"><a xlink:href="classx265_1_1Analysis.html#aaebc9de2ff98834c650244f3b58942c2" target="_top" xlink:title="x265::Analysis::compressCTU">
<polygon fill="white" stroke="black" points="1044.5,-108.5 1044.5,-127.5 1195.5,-127.5 1195.5,-108.5 1044.5,-108.5"/>
<text text-anchor="middle" x="1120" y="-115.5" font-family="Helvetica,sans-Serif" font-size="10.00">x265::Analysis::compressCTU</text>
</a>
</g>
</g>
<!-- Node6&#45;&gt;Node7 -->
<g id="edge6" class="edge"><title>Node6&#45;&gt;Node7</title>
<path fill="none" stroke="midnightblue" d="M976.955,-258.275C987.234,-251.309 998.389,-243.211 1008,-235 1050.15,-198.99 1093.5,-148.693 1110.98,-127.75"/>
<polygon fill="midnightblue" stroke="midnightblue" points="974.973,-255.39 968.58,-263.839 978.846,-261.221 974.973,-255.39"/>
</g>
<!-- Node8 -->
<g id="node8" class="node"><title>Node8</title>
<g id="a_node8"><a xlink:href="classx265_1_1FrameEncoder.html#a0ae85001572afd28238476542523ac5f" target="_top" xlink:title="x265::FrameEncoder\l::processRowEncoder">
<polygon fill="white" stroke="black" points="1232.5,-49 1232.5,-79 1345.5,-79 1345.5,-49 1232.5,-49"/>
<text text-anchor="start" x="1240.5" y="-67" font-family="Helvetica,sans-Serif" font-size="10.00">x265::FrameEncoder</text>
<text text-anchor="middle" x="1289" y="-56" font-family="Helvetica,sans-Serif" font-size="10.00">::processRowEncoder</text>
</a>
</g>
</g>
<!-- Node7&#45;&gt;Node8 -->
<g id="edge7" class="edge"><title>Node7&#45;&gt;Node8</title>
<path fill="none" stroke="midnightblue" d="M1160.09,-105.359C1184.43,-97.4884 1215.87,-87.3224 1241.49,-79.0389"/>
<polygon fill="midnightblue" stroke="midnightblue" points="1158.91,-102.063 1150.47,-108.47 1161.06,-108.724 1158.91,-102.063"/>
</g>
<!-- Node9 -->
<g id="node9" class="node"><title>Node9</title>
<g id="a_node9"><a xlink:href="classx265_1_1FrameEncoder.html#acad645a8ece97d884895f8f7366b7d70" target="_top" xlink:title="x265::FrameEncoder\l::processRow">
<polygon fill="white" stroke="black" points="1382.5,-49 1382.5,-79 1489.5,-79 1489.5,-49 1382.5,-49"/>
<text text-anchor="start" x="1390.5" y="-67" font-family="Helvetica,sans-Serif" font-size="10.00">x265::FrameEncoder</text>
<text text-anchor="middle" x="1436" y="-56" font-family="Helvetica,sans-Serif" font-size="10.00">::processRow</text>
</a>
</g>
</g>
<!-- Node8&#45;&gt;Node9 -->
<g id="edge8" class="edge"><title>Node8&#45;&gt;Node9</title>
<path fill="none" stroke="midnightblue" d="M1355.88,-64C1364.67,-64 1373.59,-64 1382.13,-64"/>
<polygon fill="midnightblue" stroke="midnightblue" points="1355.65,-60.5001 1345.65,-64 1355.65,-67.5001 1355.65,-60.5001"/>
</g>
<!-- Node10 -->
<g id="node10" class="node"><title>Node10</title>
<g id="a_node10"><a xlink:href="classx265_1_1FrameEncoder.html#ac4e9ce2e876c0cdb25c992c872fe4302" target="_top" xlink:title="x265::FrameEncoder\l::compressCTURows">
<polygon fill="white" stroke="black" points="1526,-47 1526,-77 1638,-77 1638,-47 1526,-47"/>
<text text-anchor="start" x="1534" y="-65" font-family="Helvetica,sans-Serif" font-size="10.00">x265::FrameEncoder</text>
<text text-anchor="middle" x="1582" y="-54" font-family="Helvetica,sans-Serif" font-size="10.00">::compressCTURows</text>
</a>
</g>
</g>
<!-- Node9&#45;&gt;Node10 -->
<g id="edge9" class="edge"><title>Node9&#45;&gt;Node10</title>
<path fill="none" stroke="midnightblue" d="M1499.83,-63.1273C1508.48,-63.0073 1517.3,-62.8848 1525.79,-62.7669"/>
<polygon fill="midnightblue" stroke="midnightblue" points="1499.75,-59.628 1489.8,-63.2666 1499.85,-66.6273 1499.75,-59.628"/>
</g>
<!-- Node11 -->
<g id="node11" class="node"><title>Node11</title>
<g id="a_node11"><a xlink:href="classx265_1_1FrameEncoder.html#a2f5c4c0f1a4e36fce4c9b87eb7ec4973" target="_top" xlink:title="x265::FrameEncoder\l::compressFrame">
<polygon fill="white" stroke="red" points="1674.5,-24 1674.5,-54 1781.5,-54 1781.5,-24 1674.5,-24"/>
<text text-anchor="start" x="1682.5" y="-42" font-family="Helvetica,sans-Serif" font-size="10.00">x265::FrameEncoder</text>
<text text-anchor="middle" x="1728" y="-31" font-family="Helvetica,sans-Serif" font-size="10.00">::compressFrame</text>
</a>
</g>
</g>
<!-- Node10&#45;&gt;Node11 -->
<g id="edge10" class="edge"><title>Node10&#45;&gt;Node11</title>
<path fill="none" stroke="midnightblue" d="M1648.14,-51.596C1656.96,-50.1866 1665.93,-48.755 1674.49,-47.3869"/>
<polygon fill="midnightblue" stroke="midnightblue" points="1647.59,-48.1399 1638.26,-53.1734 1648.69,-55.0523 1647.59,-48.1399"/>
</g>
<!-- Node12&#45;&gt;Node7 -->
<g id="edge13" class="edge"><title>Node12&#45;&gt;Node7</title>
<path fill="none" stroke="midnightblue" d="M981.431,-191.108C1018.14,-171.597 1072.58,-142.668 1100.7,-127.723"/>
<polygon fill="midnightblue" stroke="midnightblue" points="979.694,-188.067 972.506,-195.851 982.979,-194.249 979.694,-188.067"/>
</g>
<!-- Node14 -->
<g id="node14" class="node"><title>Node14</title>
<g id="a_node14"><a xlink:href="classx265_1_1Entropy.html#abb101b71f310e90eb504a8204babc180" target="_top" xlink:title="x265::Entropy::encodeCTU">
<polygon fill="white" stroke="black" points="1052,-5.5 1052,-24.5 1188,-24.5 1188,-5.5 1052,-5.5"/>
<text text-anchor="middle" x="1120" y="-12.5" font-family="Helvetica,sans-Serif" font-size="10.00">x265::Entropy::encodeCTU</text>
</a>
</g>
</g>
<!-- Node13&#45;&gt;Node14 -->
<g id="edge15" class="edge"><title>Node13&#45;&gt;Node14</title>
<path fill="none" stroke="midnightblue" d="M482.582,-10.323C569.045,-8.60858 715.841,-6.40618 842,-8 913.672,-8.90545 995.75,-11.1282 1051.84,-12.8281"/>
<polygon fill="midnightblue" stroke="midnightblue" points="482.269,-6.82852 472.342,-10.5294 482.41,-13.8271 482.269,-6.82852"/>
</g>
<!-- Node14&#45;&gt;Node8 -->
<g id="edge18" class="edge"><title>Node14&#45;&gt;Node8</title>
<path fill="none" stroke="midnightblue" d="M1163.45,-27.4541C1185.75,-33.9992 1213.26,-42.0713 1236.75,-48.963"/>
<polygon fill="midnightblue" stroke="midnightblue" points="1164.18,-24.0211 1153.6,-24.564 1162.21,-30.7379 1164.18,-24.0211"/>
</g>
<!-- Node15 -->
<g id="node15" class="node"><title>Node15</title>
<g id="a_node15"><a xlink:href="classx265_1_1FrameEncoder.html#a6d4045d35bfe6b10c8d0dc39353be360" target="_top" xlink:title="x265::FrameEncoder\l::encodeSlice">
<polygon fill="white" stroke="black" points="1382.5,-0 1382.5,-30 1489.5,-30 1489.5,-0 1382.5,-0"/>
<text text-anchor="start" x="1390.5" y="-18" font-family="Helvetica,sans-Serif" font-size="10.00">x265::FrameEncoder</text>
<text text-anchor="middle" x="1436" y="-7" font-family="Helvetica,sans-Serif" font-size="10.00">::encodeSlice</text>
</a>
</g>
</g>
<!-- Node14&#45;&gt;Node15 -->
<g id="edge16" class="edge"><title>Node14&#45;&gt;Node15</title>
<path fill="none" stroke="midnightblue" d="M1198.45,-15C1255.65,-15 1332,-15 1382.29,-15"/>
<polygon fill="midnightblue" stroke="midnightblue" points="1198.36,-11.5001 1188.36,-15 1198.36,-18.5001 1198.36,-11.5001"/>
</g>
<!-- Node15&#45;&gt;Node11 -->
<g id="edge17" class="edge"><title>Node15&#45;&gt;Node11</title>
<path fill="none" stroke="midnightblue" d="M1499.65,-20.1849C1551.81,-24.5014 1625.23,-30.5779 1674.38,-34.6456"/>
<polygon fill="midnightblue" stroke="midnightblue" points="1499.77,-16.683 1489.52,-19.3462 1499.19,-23.6592 1499.77,-16.683"/>
</g>
<!-- Node17 -->
<g id="node17" class="node"><title>Node17</title>
<g id="a_node17"><a xlink:href="classx265_1_1Analysis.html#a10f0a8d9d143faf8dc671c6f0982693d" target="_top" xlink:title="x265::Analysis::tryLossless">
<polygon fill="white" stroke="black" points="700.5,-64.5 700.5,-83.5 837.5,-83.5 837.5,-64.5 700.5,-64.5"/>
<text text-anchor="middle" x="769" y="-71.5" font-family="Helvetica,sans-Serif" font-size="10.00">x265::Analysis::tryLossless</text>
</a>
</g>
</g>
<!-- Node16&#45;&gt;Node17 -->
<g id="edge20" class="edge"><title>Node16&#45;&gt;Node17</title>
<path fill="none" stroke="midnightblue" d="M659.293,-74C672.879,-74 687.037,-74 700.471,-74"/>
<polygon fill="midnightblue" stroke="midnightblue" points="659.037,-70.5001 649.037,-74 659.037,-77.5001 659.037,-70.5001"/>
</g>
<!-- Node18 -->
<g id="node18" class="node"><title>Node18</title>
<g id="a_node18"><a xlink:href="classx265_1_1Analysis.html#aae2a6a2252270782b591d2bed7e99dae" target="_top" xlink:title="x265::Analysis::compress\lIntraCU">
<polygon fill="white" stroke="black" points="878,-54 878,-84 1008,-84 1008,-54 878,-54"/>
<text text-anchor="start" x="886" y="-72" font-family="Helvetica,sans-Serif" font-size="10.00">x265::Analysis::compress</text>
<text text-anchor="middle" x="943" y="-61" font-family="Helvetica,sans-Serif" font-size="10.00">IntraCU</text>
</a>
</g>
</g>
<!-- Node16&#45;&gt;Node18 -->
<g id="edge27" class="edge"><title>Node16&#45;&gt;Node18</title>
<path fill="none" stroke="midnightblue" d="M610.411,-59.0368C631.755,-46.3422 664.648,-29.0954 696,-22 759.288,-7.6769 778.671,-7.85956 842,-22 869.334,-28.1033 898.016,-42.5321 917.618,-53.8049"/>
<polygon fill="midnightblue" stroke="midnightblue" points="608.452,-56.1315 601.736,-64.3258 612.097,-62.1082 608.452,-56.1315"/>
</g>
<!-- Node19 -->
<g id="node19" class="node"><title>Node19</title>
<g id="a_node19"><a xlink:href="classx265_1_1Analysis.html#a0b22b7765aa4a36b1ba6d07ba26901e6" target="_top" xlink:title="x265::Analysis::compress\lInterCU_rd5_6">
<polygon fill="white" stroke="black" points="878,-103 878,-133 1008,-133 1008,-103 878,-103"/>
<text text-anchor="start" x="886" y="-121" font-family="Helvetica,sans-Serif" font-size="10.00">x265::Analysis::compress</text>
<text text-anchor="middle" x="943" y="-110" font-family="Helvetica,sans-Serif" font-size="10.00">InterCU_rd5_6</text>
</a>
</g>
</g>
<!-- Node16&#45;&gt;Node19 -->
<g id="edge28" class="edge"><title>Node16&#45;&gt;Node19</title>
<path fill="none" stroke="midnightblue" d="M622.466,-61.3721C673.349,-45.4161 768.976,-23.5902 842,-55 863.371,-64.1925 858.7,-80.01 878,-93 883.542,-96.7299 889.722,-100.024 895.995,-102.895"/>
<polygon fill="midnightblue" stroke="midnightblue" points="621.341,-58.0573 612.905,-64.4675 623.497,-64.7169 621.341,-58.0573"/>
</g>
<!-- Node17&#45;&gt;Node6 -->
<g id="edge23" class="edge"><title>Node17&#45;&gt;Node6</title>
<path fill="none" stroke="midnightblue" d="M837.43,-88.9705C839.038,-90.2126 840.567,-91.5532 842,-93 887.814,-139.261 840.787,-181.575 878,-235 886.323,-246.949 899.014,-256.647 910.907,-263.867"/>
<polygon fill="midnightblue" stroke="midnightblue" points="839.14,-85.9109 828.812,-83.5457 835.411,-91.835 839.14,-85.9109"/>
</g>
<!-- Node17&#45;&gt;Node12 -->
<g id="edge24" class="edge"><title>Node17&#45;&gt;Node12</title>
<path fill="none" stroke="midnightblue" d="M832.723,-87.6385C835.962,-89.2323 839.079,-91.0122 842,-93 864.34,-108.205 860.783,-121.171 878,-142 893.926,-161.268 913.676,-182.151 926.99,-195.836"/>
<polygon fill="midnightblue" stroke="midnightblue" points="833.905,-84.3376 823.334,-83.6217 831.151,-90.7733 833.905,-84.3376"/>
</g>
<!-- Node17&#45;&gt;Node18 -->
<g id="edge21" class="edge"><title>Node17&#45;&gt;Node18</title>
<path fill="none" stroke="midnightblue" d="M848.242,-71.7255C858.159,-71.4372 868.215,-71.1449 877.877,-70.864"/>
<polygon fill="midnightblue" stroke="midnightblue" points="847.873,-68.2347 837.979,-72.0239 848.076,-75.2317 847.873,-68.2347"/>
</g>
<!-- Node17&#45;&gt;Node19 -->
<g id="edge25" class="edge"><title>Node17&#45;&gt;Node19</title>
<path fill="none" stroke="midnightblue" d="M817.011,-86.0261C837.413,-91.2453 861.529,-97.4144 883.108,-102.935"/>
<polygon fill="midnightblue" stroke="midnightblue" points="817.877,-82.6349 807.321,-83.5473 816.142,-89.4166 817.877,-82.6349"/>
</g>
<!-- Node18&#45;&gt;Node7 -->
<g id="edge22" class="edge"><title>Node18&#45;&gt;Node7</title>
<path fill="none" stroke="midnightblue" d="M1007.79,-86.8599C1033.94,-94.1823 1063.15,-102.361 1085.06,-108.498"/>
<polygon fill="midnightblue" stroke="midnightblue" points="1008.51,-83.4274 997.934,-84.1014 1006.62,-90.1682 1008.51,-83.4274"/>
</g>
<!-- Node19&#45;&gt;Node7 -->
<g id="edge26" class="edge"><title>Node19&#45;&gt;Node7</title>
<path fill="none" stroke="midnightblue" d="M1018.25,-118C1026.93,-118 1035.78,-118 1044.47,-118"/>
<polygon fill="midnightblue" stroke="midnightblue" points="1018.17,-114.5 1008.17,-118 1018.17,-121.5 1018.17,-114.5"/>
</g>
<!-- Node20&#45;&gt;Node6 -->
<g id="edge31" class="edge"><title>Node20&#45;&gt;Node6</title>
<path fill="none" stroke="midnightblue" d="M601.604,-190.88C619.822,-218.115 653.78,-261.175 696,-279 753.936,-303.46 826.612,-299.781 877.903,-292.242"/>
<polygon fill="midnightblue" stroke="midnightblue" points="604.42,-188.791 596.039,-182.309 598.549,-192.603 604.42,-188.791"/>
</g>
<!-- Node20&#45;&gt;Node12 -->
<g id="edge32" class="edge"><title>Node20&#45;&gt;Node12</title>
<path fill="none" stroke="midnightblue" d="M658.324,-184.155C670.826,-186.746 683.753,-189.162 696,-191 757.338,-200.203 827.96,-205.393 877.757,-208.166"/>
<polygon fill="midnightblue" stroke="midnightblue" points="658.918,-180.704 648.409,-182.048 657.462,-187.551 658.918,-180.704"/>
</g>
<!-- Node20&#45;&gt;Node17 -->
<g id="edge30" class="edge"><title>Node20&#45;&gt;Node17</title>
<path fill="none" stroke="midnightblue" d="M613.008,-145.602C634.195,-129.125 665.494,-106.888 696,-93 704.236,-89.2504 713.352,-86.1308 722.249,-83.577"/>
<polygon fill="midnightblue" stroke="midnightblue" points="610.807,-142.88 605.131,-151.826 615.147,-148.372 610.807,-142.88"/>
</g>
<!-- Node21 -->
<g id="node21" class="node"><title>Node21</title>
<g id="a_node21"><a xlink:href="classx265_1_1Analysis.html#addd72cb95590e2b2a6965d42d110eab3" target="_top" xlink:title="x265::Analysis::checkMerge2\lNx2N_rd0_4">
<polygon fill="white" stroke="black" points="696,-240 696,-270 842,-270 842,-240 696,-240"/>
<text text-anchor="start" x="704" y="-258" font-family="Helvetica,sans-Serif" font-size="10.00">x265::Analysis::checkMerge2</text>
<text text-anchor="middle" x="769" y="-247" font-family="Helvetica,sans-Serif" font-size="10.00">Nx2N_rd0_4</text>
</a>
</g>
</g>
<!-- Node20&#45;&gt;Node21 -->
<g id="edge33" class="edge"><title>Node20&#45;&gt;Node21</title>
<path fill="none" stroke="midnightblue" d="M622.444,-186.95C643.555,-198.557 671.019,-213.182 696,-225 706.894,-230.154 718.916,-235.35 729.964,-239.937"/>
<polygon fill="midnightblue" stroke="midnightblue" points="623.963,-183.791 613.519,-182.014 620.576,-189.916 623.963,-183.791"/>
</g>
<!-- Node22 -->
<g id="node22" class="node"><title>Node22</title>
<g id="a_node22"><a xlink:href="classx265_1_1Analysis.html#a0194a9da53aa95173fa1132ba3aea1c7" target="_top" xlink:title="x265::Analysis::checkMerge2\lNx2N_rd5_6">
<polygon fill="white" stroke="black" points="696,-152 696,-182 842,-182 842,-152 696,-152"/>
<text text-anchor="start" x="704" y="-170" font-family="Helvetica,sans-Serif" font-size="10.00">x265::Analysis::checkMerge2</text>
<text text-anchor="middle" x="769" y="-159" font-family="Helvetica,sans-Serif" font-size="10.00">Nx2N_rd5_6</text>
</a>
</g>
</g>
<!-- Node20&#45;&gt;Node22 -->
<g id="edge36" class="edge"><title>Node20&#45;&gt;Node22</title>
<path fill="none" stroke="midnightblue" d="M669.785,-167C678.535,-167 687.383,-167 695.997,-167"/>
<polygon fill="midnightblue" stroke="midnightblue" points="669.577,-163.5 659.577,-167 669.577,-170.5 669.577,-163.5"/>
</g>
<!-- Node23 -->
<g id="node23" class="node"><title>Node23</title>
<g id="a_node23"><a xlink:href="classx265_1_1Analysis.html#a828daa3e9f1ed40a1af9f99f7ff7bb33" target="_top" xlink:title="x265::Analysis::checkInter\l_rd5_6">
<polygon fill="white" stroke="black" points="702.5,-103 702.5,-133 835.5,-133 835.5,-103 702.5,-103"/>
<text text-anchor="start" x="710.5" y="-121" font-family="Helvetica,sans-Serif" font-size="10.00">x265::Analysis::checkInter</text>
<text text-anchor="middle" x="769" y="-110" font-family="Helvetica,sans-Serif" font-size="10.00">_rd5_6</text>
</a>
</g>
</g>
<!-- Node20&#45;&gt;Node23 -->
<g id="edge38" class="edge"><title>Node20&#45;&gt;Node23</title>
<path fill="none" stroke="midnightblue" d="M652.561,-149.252C672.177,-143.941 693.49,-138.171 712.401,-133.052"/>
<polygon fill="midnightblue" stroke="midnightblue" points="651.521,-145.907 642.783,-151.899 653.35,-152.664 651.521,-145.907"/>
</g>
<!-- Node21&#45;&gt;Node6 -->
<g id="edge34" class="edge"><title>Node21&#45;&gt;Node6</title>
<path fill="none" stroke="midnightblue" d="M852.422,-266.501C860.957,-267.692 869.539,-268.889 877.831,-270.046"/>
<polygon fill="midnightblue" stroke="midnightblue" points="852.833,-263.024 842.445,-265.109 851.865,-269.957 852.833,-263.024"/>
</g>
<!-- Node21&#45;&gt;Node12 -->
<g id="edge35" class="edge"><title>Node21&#45;&gt;Node12</title>
<path fill="none" stroke="midnightblue" d="M838.777,-237.406C853.511,-233.637 868.948,-229.688 883.261,-226.026"/>
<polygon fill="midnightblue" stroke="midnightblue" points="837.532,-234.112 828.712,-239.981 839.267,-240.893 837.532,-234.112"/>
</g>
<!-- Node22&#45;&gt;Node19 -->
<g id="edge37" class="edge"><title>Node22&#45;&gt;Node19</title>
<path fill="none" stroke="midnightblue" d="M832.812,-149.106C851.312,-143.836 871.359,-138.124 889.166,-133.052"/>
<polygon fill="midnightblue" stroke="midnightblue" points="831.668,-145.793 823.009,-151.899 833.585,-152.525 831.668,-145.793"/>
</g>
<!-- Node23&#45;&gt;Node19 -->
<g id="edge39" class="edge"><title>Node23&#45;&gt;Node19</title>
<path fill="none" stroke="midnightblue" d="M845.698,-118C856.409,-118 867.336,-118 877.803,-118"/>
<polygon fill="midnightblue" stroke="midnightblue" points="845.517,-114.5 835.516,-118 845.516,-121.5 845.517,-114.5"/>
</g>
<!-- Node24&#45;&gt;Node3 -->
<g id="edge41" class="edge"><title>Node24&#45;&gt;Node3</title>
<path fill="none" stroke="midnightblue" d="M258.988,-216.715C294.624,-245.387 356.457,-295.138 387.334,-319.982"/>
<polygon fill="midnightblue" stroke="midnightblue" points="260.938,-213.791 250.952,-210.249 256.549,-219.245 260.938,-213.791"/>
</g>
<!-- Node24&#45;&gt;Node16 -->
<g id="edge42" class="edge"><title>Node24&#45;&gt;Node16</title>
<path fill="none" stroke="midnightblue" d="M307.865,-177.619C356.61,-165.536 420.889,-147.882 476,-127 509.451,-114.325 546.541,-95.1124 567.687,-83.634"/>
<polygon fill="midnightblue" stroke="midnightblue" points="306.897,-174.253 298.02,-180.036 308.566,-181.051 306.897,-174.253"/>
</g>
</g>
</svg>
