<?xml version="1.0" encoding="UTF-8" standalone="no"?>
<!DOCTYPE svg PUBLIC "-//W3C//DTD SVG 1.1//EN"
 "http://www.w3.org/Graphics/SVG/1.1/DTD/svg11.dtd">
<!-- Generated by graphviz version 2.36.0 (20140111.2315)
 -->
<!-- Title: x265::Search::xEncodeResidualQT Pages: 1 -->
<svg width="1840pt" height="235pt"
 viewBox="0.00 0.00 1840.00 235.45" xmlns="http://www.w3.org/2000/svg" xmlns:xlink="http://www.w3.org/1999/xlink">
<g id="graph0" class="graph" transform="scale(1 1) rotate(0) translate(4 231.452)">
<title>x265::Search::xEncodeResidualQT</title>
<polygon fill="white" stroke="none" points="-4,4 -4,-231.452 1836,-231.452 1836,4 -4,4"/>
<!-- Node1 -->
<g id="node1" class="node"><title>Node1</title>
<polygon fill="#bfbfbf" stroke="black" points="0,-117.5 0,-136.5 170,-136.5 170,-117.5 0,-117.5"/>
<text text-anchor="middle" x="85" y="-124.5" font-family="Helvetica,sans-Serif" font-size="10.00">x265::Search::xEncodeResidualQT</text>
</g>
<!-- Node2 -->
<g id="node2" class="node"><title>Node2</title>
<g id="a_node2"><a xlink:href="classx265_1_1Search.html#a9f01b6f04dca31dca9f16e60d1c029b3" target="_top" xlink:title="x265::Search::xEstimateResidualQT">
<polygon fill="white" stroke="black" points="206,-117.5 206,-136.5 382,-136.5 382,-117.5 206,-117.5"/>
<text text-anchor="middle" x="294" y="-124.5" font-family="Helvetica,sans-Serif" font-size="10.00">x265::Search::xEstimateResidualQT</text>
</a>
</g>
</g>
<!-- Node1&#45;&gt;Node2 -->
<g id="edge1" class="edge"><title>Node1&#45;&gt;Node2</title>
<path fill="none" stroke="midnightblue" d="M180.458,-127C188.917,-127 197.457,-127 205.851,-127"/>
<polygon fill="midnightblue" stroke="midnightblue" points="180.195,-123.5 170.195,-127 180.195,-130.5 180.195,-123.5"/>
</g>
<!-- Node3 -->
<g id="node3" class="node"><title>Node3</title>
<g id="a_node3"><a xlink:href="classx265_1_1Search.html#aba5e04ce529f41accd43c540ba1dc7ad" target="_top" xlink:title="x265::Search::encodeResAnd\lCalcRdInterCU">
<polygon fill="white" stroke="black" points="418.5,-112 418.5,-142 565.5,-142 565.5,-112 418.5,-112"/>
<text text-anchor="start" x="426.5" y="-130" font-family="Helvetica,sans-Serif" font-size="10.00">x265::Search::encodeResAnd</text>
<text text-anchor="middle" x="492" y="-119" font-family="Helvetica,sans-Serif" font-size="10.00">CalcRdInterCU</text>
</a>
</g>
</g>
<!-- Node2&#45;&gt;Node3 -->
<g id="edge2" class="edge"><title>Node2&#45;&gt;Node3</title>
<path fill="none" stroke="midnightblue" d="M392.325,-127C401.045,-127 409.771,-127 418.228,-127"/>
<polygon fill="midnightblue" stroke="midnightblue" points="392.11,-123.5 382.11,-127 392.11,-130.5 392.11,-123.5"/>
</g>
<!-- Node4 -->
<g id="node4" class="node"><title>Node4</title>
<g id="a_node4"><a xlink:href="classx265_1_1Analysis.html#a10f0a8d9d143faf8dc671c6f0982693d" target="_top" xlink:title="x265::Analysis::tryLossless">
<polygon fill="white" stroke="black" points="606.5,-98.5 606.5,-117.5 743.5,-117.5 743.5,-98.5 606.5,-98.5"/>
<text text-anchor="middle" x="675" y="-105.5" font-family="Helvetica,sans-Serif" font-size="10.00">x265::Analysis::tryLossless</text>
</a>
</g>
</g>
<!-- Node3&#45;&gt;Node4 -->
<g id="edge3" class="edge"><title>Node3&#45;&gt;Node4</title>
<path fill="none" stroke="midnightblue" d="M575.766,-118.312C586.02,-117.236 596.407,-116.145 606.395,-115.097"/>
<polygon fill="midnightblue" stroke="midnightblue" points="575.157,-114.857 565.577,-119.381 575.887,-121.818 575.157,-114.857"/>
</g>
<!-- Node12 -->
<g id="node12" class="node"><title>Node12</title>
<g id="a_node12"><a xlink:href="classx265_1_1Analysis.html#a87060ff27a37f56adc5f5b8a4c033ece" target="_top" xlink:title="x265::Analysis::compress\lInterCU_dist">
<polygon fill="white" stroke="black" points="784,-185 784,-215 914,-215 914,-185 784,-185"/>
<text text-anchor="start" x="792" y="-203" font-family="Helvetica,sans-Serif" font-size="10.00">x265::Analysis::compress</text>
<text text-anchor="middle" x="849" y="-192" font-family="Helvetica,sans-Serif" font-size="10.00">InterCU_dist</text>
</a>
</g>
</g>
<!-- Node3&#45;&gt;Node12 -->
<g id="edge17" class="edge"><title>Node3&#45;&gt;Node12</title>
<path fill="none" stroke="midnightblue" d="M512.88,-149.995C532.905,-171.243 565.931,-201.37 602,-214 664.58,-235.912 741.561,-226.158 792.563,-215.05"/>
<polygon fill="midnightblue" stroke="midnightblue" points="515.2,-147.347 505.862,-142.341 510.04,-152.078 515.2,-147.347"/>
</g>
<!-- Node13 -->
<g id="node13" class="node"><title>Node13</title>
<g id="a_node13"><a xlink:href="classx265_1_1Analysis.html#a30d2ff7eca5addbb0a6b3dfe14f09650" target="_top" xlink:title="x265::Analysis::compress\lInterCU_rd0_4">
<polygon fill="white" stroke="black" points="784,-136 784,-166 914,-166 914,-136 784,-136"/>
<text text-anchor="start" x="792" y="-154" font-family="Helvetica,sans-Serif" font-size="10.00">x265::Analysis::compress</text>
<text text-anchor="middle" x="849" y="-143" font-family="Helvetica,sans-Serif" font-size="10.00">InterCU_rd0_4</text>
</a>
</g>
</g>
<!-- Node3&#45;&gt;Node13 -->
<g id="edge18" class="edge"><title>Node3&#45;&gt;Node13</title>
<path fill="none" stroke="midnightblue" d="M575.674,-132.589C639.113,-136.878 725.429,-142.713 783.744,-146.656"/>
<polygon fill="midnightblue" stroke="midnightblue" points="575.91,-129.097 565.696,-131.915 575.437,-136.081 575.91,-129.097"/>
</g>
<!-- Node15 -->
<g id="node15" class="node"><title>Node15</title>
<g id="a_node15"><a xlink:href="classx265_1_1Analysis.html#addd72cb95590e2b2a6965d42d110eab3" target="_top" xlink:title="x265::Analysis::checkMerge2\lNx2N_rd0_4">
<polygon fill="white" stroke="black" points="602,-175 602,-205 748,-205 748,-175 602,-175"/>
<text text-anchor="start" x="610" y="-193" font-family="Helvetica,sans-Serif" font-size="10.00">x265::Analysis::checkMerge2</text>
<text text-anchor="middle" x="675" y="-182" font-family="Helvetica,sans-Serif" font-size="10.00">Nx2N_rd0_4</text>
</a>
</g>
</g>
<!-- Node3&#45;&gt;Node15 -->
<g id="edge19" class="edge"><title>Node3&#45;&gt;Node15</title>
<path fill="none" stroke="midnightblue" d="M546.011,-145.452C572.947,-154.827 605.265,-166.076 630.686,-174.924"/>
<polygon fill="midnightblue" stroke="midnightblue" points="546.949,-142.072 536.354,-142.09 544.648,-148.683 546.949,-142.072"/>
</g>
<!-- Node16 -->
<g id="node16" class="node"><title>Node16</title>
<g id="a_node16"><a xlink:href="classx265_1_1Analysis.html#a0194a9da53aa95173fa1132ba3aea1c7" target="_top" xlink:title="x265::Analysis::checkMerge2\lNx2N_rd5_6">
<polygon fill="white" stroke="black" points="602,-49 602,-79 748,-79 748,-49 602,-49"/>
<text text-anchor="start" x="610" y="-67" font-family="Helvetica,sans-Serif" font-size="10.00">x265::Analysis::checkMerge2</text>
<text text-anchor="middle" x="675" y="-56" font-family="Helvetica,sans-Serif" font-size="10.00">Nx2N_rd5_6</text>
</a>
</g>
</g>
<!-- Node3&#45;&gt;Node16 -->
<g id="edge22" class="edge"><title>Node3&#45;&gt;Node16</title>
<path fill="none" stroke="midnightblue" d="M545.88,-108.55C563.706,-102.334 583.714,-95.3621 602,-89 611.248,-85.7824 621.166,-82.3361 630.593,-79.0621"/>
<polygon fill="midnightblue" stroke="midnightblue" points="544.516,-105.319 536.226,-111.916 546.821,-111.928 544.516,-105.319"/>
</g>
<!-- Node17 -->
<g id="node17" class="node"><title>Node17</title>
<g id="a_node17"><a xlink:href="classx265_1_1Analysis.html#a828daa3e9f1ed40a1af9f99f7ff7bb33" target="_top" xlink:title="x265::Analysis::checkInter\l_rd5_6">
<polygon fill="white" stroke="black" points="608.5,-0 608.5,-30 741.5,-30 741.5,-0 608.5,-0"/>
<text text-anchor="start" x="616.5" y="-18" font-family="Helvetica,sans-Serif" font-size="10.00">x265::Analysis::checkInter</text>
<text text-anchor="middle" x="675" y="-7" font-family="Helvetica,sans-Serif" font-size="10.00">_rd5_6</text>
</a>
</g>
</g>
<!-- Node3&#45;&gt;Node17 -->
<g id="edge24" class="edge"><title>Node3&#45;&gt;Node17</title>
<path fill="none" stroke="midnightblue" d="M515.355,-104.892C536.246,-85.2727 569.078,-57.006 602,-39 608.127,-35.6491 614.803,-32.657 621.538,-30.0187"/>
<polygon fill="midnightblue" stroke="midnightblue" points="512.778,-102.513 507.958,-111.948 517.609,-107.578 512.778,-102.513"/>
</g>
<!-- Node5 -->
<g id="node5" class="node"><title>Node5</title>
<g id="a_node5"><a xlink:href="classx265_1_1Analysis.html#aae2a6a2252270782b591d2bed7e99dae" target="_top" xlink:title="x265::Analysis::compress\lIntraCU">
<polygon fill="white" stroke="black" points="784,-87 784,-117 914,-117 914,-87 784,-87"/>
<text text-anchor="start" x="792" y="-105" font-family="Helvetica,sans-Serif" font-size="10.00">x265::Analysis::compress</text>
<text text-anchor="middle" x="849" y="-94" font-family="Helvetica,sans-Serif" font-size="10.00">IntraCU</text>
</a>
</g>
</g>
<!-- Node4&#45;&gt;Node5 -->
<g id="edge4" class="edge"><title>Node4&#45;&gt;Node5</title>
<path fill="none" stroke="midnightblue" d="M754.242,-105.271C764.159,-104.925 774.215,-104.574 783.877,-104.237"/>
<polygon fill="midnightblue" stroke="midnightblue" points="753.851,-101.782 743.979,-105.629 754.095,-108.778 753.851,-101.782"/>
</g>
<!-- Node4&#45;&gt;Node12 -->
<g id="edge11" class="edge"><title>Node4&#45;&gt;Node12</title>
<path fill="none" stroke="midnightblue" d="M697.859,-123.219C719.203,-137.675 752.919,-159.453 784,-175 791.041,-178.522 798.706,-181.89 806.204,-184.949"/>
<polygon fill="midnightblue" stroke="midnightblue" points="699.742,-120.267 689.512,-117.511 695.791,-126.045 699.742,-120.267"/>
</g>
<!-- Node4&#45;&gt;Node13 -->
<g id="edge13" class="edge"><title>Node4&#45;&gt;Node13</title>
<path fill="none" stroke="midnightblue" d="M723.915,-119.979C743.765,-124.941 767.007,-130.752 787.975,-135.994"/>
<polygon fill="midnightblue" stroke="midnightblue" points="724.723,-116.573 714.172,-117.543 723.025,-123.364 724.723,-116.573"/>
</g>
<!-- Node14 -->
<g id="node14" class="node"><title>Node14</title>
<g id="a_node14"><a xlink:href="classx265_1_1Analysis.html#a0b22b7765aa4a36b1ba6d07ba26901e6" target="_top" xlink:title="x265::Analysis::compress\lInterCU_rd5_6">
<polygon fill="white" stroke="black" points="784,-38 784,-68 914,-68 914,-38 784,-38"/>
<text text-anchor="start" x="792" y="-56" font-family="Helvetica,sans-Serif" font-size="10.00">x265::Analysis::compress</text>
<text text-anchor="middle" x="849" y="-45" font-family="Helvetica,sans-Serif" font-size="10.00">InterCU_rd5_6</text>
</a>
</g>
</g>
<!-- Node4&#45;&gt;Node14 -->
<g id="edge15" class="edge"><title>Node4&#45;&gt;Node14</title>
<path fill="none" stroke="midnightblue" d="M721.725,-95.7859C730.477,-93.3105 739.545,-90.6507 748,-88 767.482,-81.8921 788.87,-74.5007 806.848,-68.0872"/>
<polygon fill="midnightblue" stroke="midnightblue" points="720.718,-92.4331 712.027,-98.4921 722.6,-99.1755 720.718,-92.4331"/>
</g>
<!-- Node6 -->
<g id="node6" class="node"><title>Node6</title>
<g id="a_node6"><a xlink:href="classx265_1_1Analysis.html#aaebc9de2ff98834c650244f3b58942c2" target="_top" xlink:title="x265::Analysis::compressCTU">
<polygon fill="white" stroke="black" points="950.5,-116.5 950.5,-135.5 1101.5,-135.5 1101.5,-116.5 950.5,-116.5"/>
<text text-anchor="middle" x="1026" y="-123.5" font-family="Helvetica,sans-Serif" font-size="10.00">x265::Analysis::compressCTU</text>
</a>
</g>
</g>
<!-- Node5&#45;&gt;Node6 -->
<g id="edge5" class="edge"><title>Node5&#45;&gt;Node6</title>
<path fill="none" stroke="midnightblue" d="M924.393,-112.202C934.722,-113.619 945.299,-115.07 955.533,-116.473"/>
<polygon fill="midnightblue" stroke="midnightblue" points="924.553,-108.692 914.17,-110.8 923.602,-115.627 924.553,-108.692"/>
</g>
<!-- Node7 -->
<g id="node7" class="node"><title>Node7</title>
<g id="a_node7"><a xlink:href="classx265_1_1FrameEncoder.html#a0ae85001572afd28238476542523ac5f" target="_top" xlink:title="x265::FrameEncoder\l::processRowEncoder">
<polygon fill="white" stroke="black" points="1138.5,-111 1138.5,-141 1251.5,-141 1251.5,-111 1138.5,-111"/>
<text text-anchor="start" x="1146.5" y="-129" font-family="Helvetica,sans-Serif" font-size="10.00">x265::FrameEncoder</text>
<text text-anchor="middle" x="1195" y="-118" font-family="Helvetica,sans-Serif" font-size="10.00">::processRowEncoder</text>
</a>
</g>
</g>
<!-- Node6&#45;&gt;Node7 -->
<g id="edge6" class="edge"><title>Node6&#45;&gt;Node7</title>
<path fill="none" stroke="midnightblue" d="M1111.86,-126C1120.86,-126 1129.85,-126 1138.39,-126"/>
<polygon fill="midnightblue" stroke="midnightblue" points="1111.71,-122.5 1101.71,-126 1111.71,-129.5 1111.71,-122.5"/>
</g>
<!-- Node8 -->
<g id="node8" class="node"><title>Node8</title>
<g id="a_node8"><a xlink:href="classx265_1_1FrameEncoder.html#acad645a8ece97d884895f8f7366b7d70" target="_top" xlink:title="x265::FrameEncoder\l::processRow">
<polygon fill="white" stroke="black" points="1288.5,-111 1288.5,-141 1395.5,-141 1395.5,-111 1288.5,-111"/>
<text text-anchor="start" x="1296.5" y="-129" font-family="Helvetica,sans-Serif" font-size="10.00">x265::FrameEncoder</text>
<text text-anchor="middle" x="1342" y="-118" font-family="Helvetica,sans-Serif" font-size="10.00">::processRow</text>
</a>
</g>
</g>
<!-- Node7&#45;&gt;Node8 -->
<g id="edge7" class="edge"><title>Node7&#45;&gt;Node8</title>
<path fill="none" stroke="midnightblue" d="M1261.88,-126C1270.67,-126 1279.59,-126 1288.13,-126"/>
<polygon fill="midnightblue" stroke="midnightblue" points="1261.65,-122.5 1251.65,-126 1261.65,-129.5 1261.65,-122.5"/>
</g>
<!-- Node9 -->
<g id="node9" class="node"><title>Node9</title>
<g id="a_node9"><a xlink:href="classx265_1_1FrameEncoder.html#ac4e9ce2e876c0cdb25c992c872fe4302" target="_top" xlink:title="x265::FrameEncoder\l::compressCTURows">
<polygon fill="white" stroke="black" points="1432,-111 1432,-141 1544,-141 1544,-111 1432,-111"/>
<text text-anchor="start" x="1440" y="-129" font-family="Helvetica,sans-Serif" font-size="10.00">x265::FrameEncoder</text>
<text text-anchor="middle" x="1488" y="-118" font-family="Helvetica,sans-Serif" font-size="10.00">::compressCTURows</text>
</a>
</g>
</g>
<!-- Node8&#45;&gt;Node9 -->
<g id="edge8" class="edge"><title>Node8&#45;&gt;Node9</title>
<path fill="none" stroke="midnightblue" d="M1405.83,-126C1414.48,-126 1423.3,-126 1431.79,-126"/>
<polygon fill="midnightblue" stroke="midnightblue" points="1405.8,-122.5 1395.8,-126 1405.8,-129.5 1405.8,-122.5"/>
</g>
<!-- Node10 -->
<g id="node10" class="node"><title>Node10</title>
<g id="a_node10"><a xlink:href="classx265_1_1FrameEncoder.html#a2f5c4c0f1a4e36fce4c9b87eb7ec4973" target="_top" xlink:title="x265::FrameEncoder\l::compressFrame">
<polygon fill="white" stroke="black" points="1580.5,-111 1580.5,-141 1687.5,-141 1687.5,-111 1580.5,-111"/>
<text text-anchor="start" x="1588.5" y="-129" font-family="Helvetica,sans-Serif" font-size="10.00">x265::FrameEncoder</text>
<text text-anchor="middle" x="1634" y="-118" font-family="Helvetica,sans-Serif" font-size="10.00">::compressFrame</text>
</a>
</g>
</g>
<!-- Node9&#45;&gt;Node10 -->
<g id="edge9" class="edge"><title>Node9&#45;&gt;Node10</title>
<path fill="none" stroke="midnightblue" d="M1554.42,-126C1563.15,-126 1572.02,-126 1580.49,-126"/>
<polygon fill="midnightblue" stroke="midnightblue" points="1554.26,-122.5 1544.26,-126 1554.26,-129.5 1554.26,-122.5"/>
</g>
<!-- Node11 -->
<g id="node11" class="node"><title>Node11</title>
<g id="a_node11"><a xlink:href="classx265_1_1FrameEncoder.html#aef61f29b9e93b3af9255d96236bc90a7" target="_top" xlink:title="x265::FrameEncoder\l::threadMain">
<polygon fill="white" stroke="black" points="1724.5,-111 1724.5,-141 1831.5,-141 1831.5,-111 1724.5,-111"/>
<text text-anchor="start" x="1732.5" y="-129" font-family="Helvetica,sans-Serif" font-size="10.00">x265::FrameEncoder</text>
<text text-anchor="middle" x="1778" y="-118" font-family="Helvetica,sans-Serif" font-size="10.00">::threadMain</text>
</a>
</g>
</g>
<!-- Node10&#45;&gt;Node11 -->
<g id="edge10" class="edge"><title>Node10&#45;&gt;Node11</title>
<path fill="none" stroke="midnightblue" d="M1697.99,-126C1706.7,-126 1715.58,-126 1724.08,-126"/>
<polygon fill="midnightblue" stroke="midnightblue" points="1697.88,-122.5 1687.88,-126 1697.88,-129.5 1697.88,-122.5"/>
</g>
<!-- Node12&#45;&gt;Node6 -->
<g id="edge12" class="edge"><title>Node12&#45;&gt;Node6</title>
<path fill="none" stroke="midnightblue" d="M899.05,-181.09C904.111,-179.064 909.167,-177.009 914,-175 945.51,-161.898 981.59,-145.756 1003.84,-135.668"/>
<polygon fill="midnightblue" stroke="midnightblue" points="897.374,-177.99 889.37,-184.931 899.955,-184.497 897.374,-177.99"/>
</g>
<!-- Node13&#45;&gt;Node6 -->
<g id="edge14" class="edge"><title>Node13&#45;&gt;Node6</title>
<path fill="none" stroke="midnightblue" d="M924.103,-140.414C935.521,-138.783 947.25,-137.107 958.489,-135.502"/>
<polygon fill="midnightblue" stroke="midnightblue" points="923.574,-136.954 914.17,-141.833 924.564,-143.883 923.574,-136.954"/>
</g>
<!-- Node14&#45;&gt;Node6 -->
<g id="edge16" class="edge"><title>Node14&#45;&gt;Node6</title>
<path fill="none" stroke="midnightblue" d="M900.489,-71.6264C905.071,-73.4091 909.629,-75.2173 914,-77 945.793,-89.9665 982.101,-106.286 1004.28,-116.432"/>
<polygon fill="midnightblue" stroke="midnightblue" points="901.695,-68.3402 891.105,-68.0192 899.184,-74.8741 901.695,-68.3402"/>
</g>
<!-- Node15&#45;&gt;Node12 -->
<g id="edge20" class="edge"><title>Node15&#45;&gt;Node12</title>
<path fill="none" stroke="midnightblue" d="M758.701,-194.808C767.144,-195.299 775.629,-195.792 783.831,-196.269"/>
<polygon fill="midnightblue" stroke="midnightblue" points="758.631,-191.298 748.445,-194.212 758.225,-198.287 758.631,-191.298"/>
</g>
<!-- Node15&#45;&gt;Node13 -->
<g id="edge21" class="edge"><title>Node15&#45;&gt;Node13</title>
<path fill="none" stroke="midnightblue" d="M752.49,-172.656C762.994,-170.275 773.689,-167.85 783.938,-165.526"/>
<polygon fill="midnightblue" stroke="midnightblue" points="751.478,-169.297 742.5,-174.922 753.026,-176.124 751.478,-169.297"/>
</g>
<!-- Node16&#45;&gt;Node14 -->
<g id="edge23" class="edge"><title>Node16&#45;&gt;Node14</title>
<path fill="none" stroke="midnightblue" d="M758.701,-58.711C767.144,-58.171 775.629,-57.6284 783.831,-57.1038"/>
<polygon fill="midnightblue" stroke="midnightblue" points="758.201,-55.2357 748.445,-59.3669 758.648,-62.2214 758.201,-55.2357"/>
</g>
<!-- Node17&#45;&gt;Node14 -->
<g id="edge25" class="edge"><title>Node17&#45;&gt;Node14</title>
<path fill="none" stroke="midnightblue" d="M751.366,-31.6507C762.183,-34.0405 773.228,-36.4807 783.803,-38.8169"/>
<polygon fill="midnightblue" stroke="midnightblue" points="752.036,-28.2143 741.516,-29.4746 750.526,-35.0495 752.036,-28.2143"/>
</g>
</g>
</svg>
