<?xml version="1.0" encoding="UTF-8" standalone="no"?>
<!DOCTYPE svg PUBLIC "-//W3C//DTD SVG 1.1//EN"
 "http://www.w3.org/Graphics/SVG/1.1/DTD/svg11.dtd">
<!-- Generated by graphviz version 2.36.0 (20140111.2315)
 -->
<!-- Title: x265::Entropy::codeDeltaQP Pages: 1 -->
<!--zoomable 544 -->
<svg id="main" version="1.1" xmlns="http://www.w3.org/2000/svg" xmlns:xlink="http://www.w3.org/1999/xlink" xml:space="preserve" onload="init(evt)">
<style type="text/css"><![CDATA[
.edge:hover path { stroke: red; }
.edge:hover polygon { stroke: red; fill: red; }
]]></style>
<script type="text/javascript"><![CDATA[
var edges = document.getElementsByTagName('g');
if (edges && edges.length) {
  for (var i=0;i<edges.length;i++) {
    if (edges[i].id.substr(0,4)=='edge') {
      edges[i].setAttribute('class','edge');
    }
  }
}
]]></script>
        <defs>
                <circle id="rim" cx="0" cy="0" r="7"/>
                <circle id="rim2" cx="0" cy="0" r="3.5"/>
                <g id="zoomPlus">
                        <use xlink:href="#rim" fill="#404040">
                                <set attributeName="fill" to="#808080" begin="zoomplus.mouseover" end="zoomplus.mouseout"/>
                        </use>
                        <path d="M-4,0h8M0,-4v8" fill="none" stroke="white" stroke-width="1.5" pointer-events="none"/>
                </g>
                <g id="zoomMin">
                        <use xlink:href="#rim" fill="#404040">
                                <set attributeName="fill" to="#808080" begin="zoomminus.mouseover" end="zoomminus.mouseout"/>
                        </use>
                        <path d="M-4,0h8" fill="none" stroke="white" stroke-width="1.5" pointer-events="none"/>
                </g>
                <g id="dirArrow">
                        <path fill="none" stroke="white" stroke-width="1.5" d="M0,-3.0v7 M-2.5,-0.5L0,-3.0L2.5,-0.5"/>
                </g>
               <g id="resetDef">
                       <use xlink:href="#rim2" fill="#404040">
                               <set attributeName="fill" to="#808080" begin="reset.mouseover" end="reset.mouseout"/>
                       </use>
               </g>
        </defs>

<script type="text/javascript">
var viewWidth = 1554;
var viewHeight = 544;
var sectionId = 'dynsection-12';
</script>
<script xlink:href="svgpan.js"/>
<svg id="graph" class="graph">
<g id="viewport">
<title>x265::Entropy::codeDeltaQP</title>
<polygon fill="white" stroke="none" points="-4,4 -4,-540.163 1550,-540.163 1550,4 -4,4"/>
<!-- Node1 -->
<g id="node1" class="node"><title>Node1</title>
<polygon fill="#bfbfbf" stroke="black" points="0,-184.5 0,-203.5 142,-203.5 142,-184.5 0,-184.5"/>
<text text-anchor="middle" x="71" y="-191.5" font-family="Helvetica,sans-Serif" font-size="10.00">x265::Entropy::codeDeltaQP</text>
</g>
<!-- Node2 -->
<g id="node2" class="node"><title>Node2</title>
<g id="a_node2"><a xlink:href="classx265_1_1Entropy.html#af0793a415273d86dc38b396dae9f9db3" target="_top" xlink:title="x265::Entropy::encodeTransform">
<polygon fill="white" stroke="black" points="178.5,-184.5 178.5,-203.5 337.5,-203.5 337.5,-184.5 178.5,-184.5"/>
<text text-anchor="middle" x="258" y="-191.5" font-family="Helvetica,sans-Serif" font-size="10.00">x265::Entropy::encodeTransform</text>
</a>
</g>
</g>
<!-- Node1&#45;&gt;Node2 -->
<g id="edge1" class="edge"><title>Node1&#45;&gt;Node2</title>
<path fill="none" stroke="midnightblue" d="M152.313,-194C160.998,-194 169.828,-194 178.491,-194"/>
<polygon fill="midnightblue" stroke="midnightblue" points="152.204,-190.5 142.204,-194 152.204,-197.5 152.204,-190.5"/>
</g>
<!-- Node3 -->
<g id="node3" class="node"><title>Node3</title>
<g id="a_node3"><a xlink:href="classx265_1_1Entropy.html#a220326e32d9be80554bf11194ef2c642" target="_top" xlink:title="x265::Entropy::codeCoeff">
<polygon fill="white" stroke="black" points="374,-184.5 374,-203.5 502,-203.5 502,-184.5 374,-184.5"/>
<text text-anchor="middle" x="438" y="-191.5" font-family="Helvetica,sans-Serif" font-size="10.00">x265::Entropy::codeCoeff</text>
</a>
</g>
</g>
<!-- Node2&#45;&gt;Node3 -->
<g id="edge2" class="edge"><title>Node2&#45;&gt;Node3</title>
<path fill="none" stroke="midnightblue" d="M347.848,-194C356.604,-194 365.361,-194 373.782,-194"/>
<polygon fill="midnightblue" stroke="midnightblue" points="347.592,-190.5 337.592,-194 347.591,-197.5 347.592,-190.5"/>
</g>
<!-- Node4 -->
<g id="node4" class="node"><title>Node4</title>
<g id="a_node4"><a xlink:href="classx265_1_1Analysis.html#ae4d61bcf4d2c22a054d68d6d77136428" target="_top" xlink:title="x265::Analysis::encodeIntra\lInInter">
<polygon fill="white" stroke="black" points="538,-443 538,-473 676,-473 676,-443 538,-443"/>
<text text-anchor="start" x="546" y="-461" font-family="Helvetica,sans-Serif" font-size="10.00">x265::Analysis::encodeIntra</text>
<text text-anchor="middle" x="607" y="-450" font-family="Helvetica,sans-Serif" font-size="10.00">InInter</text>
</a>
</g>
</g>
<!-- Node3&#45;&gt;Node4 -->
<g id="edge3" class="edge"><title>Node3&#45;&gt;Node4</title>
<path fill="none" stroke="midnightblue" d="M450.655,-212.424C482.01,-261.992 567.728,-397.498 596.465,-442.927"/>
<polygon fill="midnightblue" stroke="midnightblue" points="453.446,-210.289 445.142,-203.709 447.53,-214.031 453.446,-210.289"/>
</g>
<!-- Node11 -->
<g id="node11" class="node"><title>Node11</title>
<g id="a_node11"><a xlink:href="classx265_1_1Entropy.html#adeb50a7c9a5df6643407d01158d93799" target="_top" xlink:title="x265::Entropy::encodeCU">
<polygon fill="white" stroke="black" points="542,-82.5 542,-101.5 672,-101.5 672,-82.5 542,-82.5"/>
<text text-anchor="middle" x="607" y="-89.5" font-family="Helvetica,sans-Serif" font-size="10.00">x265::Entropy::encodeCU</text>
</a>
</g>
</g>
<!-- Node3&#45;&gt;Node11 -->
<g id="edge12" class="edge"><title>Node3&#45;&gt;Node11</title>
<path fill="none" stroke="midnightblue" d="M463.306,-179.154C498.047,-157.935 560.93,-119.528 590.209,-101.645"/>
<polygon fill="midnightblue" stroke="midnightblue" points="461.421,-176.205 454.711,-184.404 465.069,-182.179 461.421,-176.205"/>
</g>
<!-- Node14 -->
<g id="node14" class="node"><title>Node14</title>
<g id="a_node14"><a xlink:href="classx265_1_1Search.html#ab02df91827cf67796d1605bde60c6aed" target="_top" xlink:title="x265::Search::checkIntra">
<polygon fill="white" stroke="black" points="723,-144.5 723,-163.5 849,-163.5 849,-144.5 723,-144.5"/>
<text text-anchor="middle" x="786" y="-151.5" font-family="Helvetica,sans-Serif" font-size="10.00">x265::Search::checkIntra</text>
</a>
</g>
</g>
<!-- Node3&#45;&gt;Node14 -->
<g id="edge16" class="edge"><title>Node3&#45;&gt;Node14</title>
<path fill="none" stroke="midnightblue" d="M512.254,-185.531C574.827,-178.297 663.842,-168.007 722.956,-161.173"/>
<polygon fill="midnightblue" stroke="midnightblue" points="511.591,-182.085 502.059,-186.71 512.395,-189.038 511.591,-182.085"/>
</g>
<!-- Node18 -->
<g id="node18" class="node"><title>Node18</title>
<g id="a_node18"><a xlink:href="classx265_1_1Search.html#aba5e04ce529f41accd43c540ba1dc7ad" target="_top" xlink:title="x265::Search::encodeResAnd\lCalcRdInterCU">
<polygon fill="white" stroke="black" points="712.5,-251 712.5,-281 859.5,-281 859.5,-251 712.5,-251"/>
<text text-anchor="start" x="720.5" y="-269" font-family="Helvetica,sans-Serif" font-size="10.00">x265::Search::encodeResAnd</text>
<text text-anchor="middle" x="786" y="-258" font-family="Helvetica,sans-Serif" font-size="10.00">CalcRdInterCU</text>
</a>
</g>
</g>
<!-- Node3&#45;&gt;Node18 -->
<g id="edge26" class="edge"><title>Node3&#45;&gt;Node18</title>
<path fill="none" stroke="midnightblue" d="M494.863,-205.625C554.067,-217.945 647.786,-237.447 712.614,-250.937"/>
<polygon fill="midnightblue" stroke="midnightblue" points="495.449,-202.172 484.946,-203.561 494.023,-209.025 495.449,-202.172"/>
</g>
<!-- Node5 -->
<g id="node5" class="node"><title>Node5</title>
<g id="a_node5"><a xlink:href="classx265_1_1Analysis.html#aa6122285d10bb1bd7584958b88b029d5" target="_top" xlink:title="x265::Analysis::parallel\lModeAnalysis">
<polygon fill="white" stroke="black" points="727,-465 727,-495 845,-495 845,-465 727,-465"/>
<text text-anchor="start" x="735" y="-483" font-family="Helvetica,sans-Serif" font-size="10.00">x265::Analysis::parallel</text>
<text text-anchor="middle" x="786" y="-472" font-family="Helvetica,sans-Serif" font-size="10.00">ModeAnalysis</text>
</a>
</g>
</g>
<!-- Node4&#45;&gt;Node5 -->
<g id="edge4" class="edge"><title>Node4&#45;&gt;Node5</title>
<path fill="none" stroke="midnightblue" d="M686.492,-467.756C700.088,-469.446 714.002,-471.175 726.931,-472.782"/>
<polygon fill="midnightblue" stroke="midnightblue" points="686.535,-464.235 676.18,-466.474 685.672,-471.181 686.535,-464.235"/>
</g>
<!-- Node7 -->
<g id="node7" class="node"><title>Node7</title>
<g id="a_node7"><a xlink:href="classx265_1_1Analysis.html#a87060ff27a37f56adc5f5b8a4c033ece" target="_top" xlink:title="x265::Analysis::compress\lInterCU_dist">
<polygon fill="white" stroke="black" points="1078,-363 1078,-393 1208,-393 1208,-363 1078,-363"/>
<text text-anchor="start" x="1086" y="-381" font-family="Helvetica,sans-Serif" font-size="10.00">x265::Analysis::compress</text>
<text text-anchor="middle" x="1143" y="-370" font-family="Helvetica,sans-Serif" font-size="10.00">InterCU_dist</text>
</a>
</g>
</g>
<!-- Node4&#45;&gt;Node7 -->
<g id="edge9" class="edge"><title>Node4&#45;&gt;Node7</title>
<path fill="none" stroke="midnightblue" d="M642.777,-477.759C662.422,-487.78 687.82,-498.891 712,-504 855.541,-534.328 910.271,-560.586 1042,-496 1087.81,-473.539 1120.71,-419.419 1134.62,-393.007"/>
<polygon fill="midnightblue" stroke="midnightblue" points="644.386,-474.65 633.904,-473.107 641.136,-480.85 644.386,-474.65"/>
</g>
<!-- Node10 -->
<g id="node10" class="node"><title>Node10</title>
<g id="a_node10"><a xlink:href="classx265_1_1Analysis.html#a30d2ff7eca5addbb0a6b3dfe14f09650" target="_top" xlink:title="x265::Analysis::compress\lInterCU_rd0_4">
<polygon fill="white" stroke="black" points="1078,-295 1078,-325 1208,-325 1208,-295 1078,-295"/>
<text text-anchor="start" x="1086" y="-313" font-family="Helvetica,sans-Serif" font-size="10.00">x265::Analysis::compress</text>
<text text-anchor="middle" x="1143" y="-302" font-family="Helvetica,sans-Serif" font-size="10.00">InterCU_rd0_4</text>
</a>
</g>
</g>
<!-- Node4&#45;&gt;Node10 -->
<g id="edge10" class="edge"><title>Node4&#45;&gt;Node10</title>
<path fill="none" stroke="midnightblue" d="M686.352,-453.529C775.502,-446.208 924.012,-427.14 1042,-378 1059.98,-370.511 1061.91,-363.988 1078,-353 1091.71,-343.637 1107.15,-333.256 1119.43,-325.04"/>
<polygon fill="midnightblue" stroke="midnightblue" points="686.007,-450.045 676.315,-454.324 686.56,-457.024 686.007,-450.045"/>
</g>
<!-- Node6 -->
<g id="node6" class="node"><title>Node6</title>
<g id="a_node6"><a xlink:href="classx265_1_1Analysis.html#a29a58dad4cc1c07d2f5e5717c6be7c25" target="_top" xlink:title="x265::Analysis::findJob">
<polygon fill="white" stroke="black" points="909.5,-467.5 909.5,-486.5 1028.5,-486.5 1028.5,-467.5 909.5,-467.5"/>
<text text-anchor="middle" x="969" y="-474.5" font-family="Helvetica,sans-Serif" font-size="10.00">x265::Analysis::findJob</text>
</a>
</g>
</g>
<!-- Node5&#45;&gt;Node6 -->
<g id="edge5" class="edge"><title>Node5&#45;&gt;Node6</title>
<path fill="none" stroke="midnightblue" d="M855.519,-478.864C873.205,-478.571 892.083,-478.258 909.223,-477.974"/>
<polygon fill="midnightblue" stroke="midnightblue" points="855.206,-475.369 845.266,-479.034 855.323,-482.368 855.206,-475.369"/>
</g>
<!-- Node6&#45;&gt;Node7 -->
<g id="edge6" class="edge"><title>Node6&#45;&gt;Node7</title>
<path fill="none" stroke="midnightblue" d="M1010.36,-464.01C1020.9,-460.042 1032.09,-455.305 1042,-450 1072.74,-433.546 1104.88,-408.856 1124.17,-393.088"/>
<polygon fill="midnightblue" stroke="midnightblue" points="1009.12,-460.736 1000.91,-467.432 1011.5,-467.318 1009.12,-460.736"/>
</g>
<!-- Node8 -->
<g id="node8" class="node"><title>Node8</title>
<g id="a_node8"><a xlink:href="classx265_1_1Analysis.html#aaebc9de2ff98834c650244f3b58942c2" target="_top" xlink:title="x265::Analysis::compressCTU">
<polygon fill="white" stroke="black" points="1244.5,-207.5 1244.5,-226.5 1395.5,-226.5 1395.5,-207.5 1244.5,-207.5"/>
<text text-anchor="middle" x="1320" y="-214.5" font-family="Helvetica,sans-Serif" font-size="10.00">x265::Analysis::compressCTU</text>
</a>
</g>
</g>
<!-- Node7&#45;&gt;Node8 -->
<g id="edge7" class="edge"><title>Node7&#45;&gt;Node8</title>
<path fill="none" stroke="midnightblue" d="M1176.96,-357.275C1187.23,-350.309 1198.39,-342.211 1208,-334 1250.15,-297.99 1293.5,-247.693 1310.98,-226.75"/>
<polygon fill="midnightblue" stroke="midnightblue" points="1174.97,-354.39 1168.58,-362.839 1178.85,-360.221 1174.97,-354.39"/>
</g>
<!-- Node9 -->
<g id="node9" class="node"><title>Node9</title>
<g id="a_node9"><a xlink:href="classx265_1_1FrameEncoder.html#a0ae85001572afd28238476542523ac5f" target="_top" xlink:title="x265::FrameEncoder\l::processRowEncoder">
<polygon fill="white" stroke="red" points="1432.5,-123 1432.5,-153 1545.5,-153 1545.5,-123 1432.5,-123"/>
<text text-anchor="start" x="1440.5" y="-141" font-family="Helvetica,sans-Serif" font-size="10.00">x265::FrameEncoder</text>
<text text-anchor="middle" x="1489" y="-130" font-family="Helvetica,sans-Serif" font-size="10.00">::processRowEncoder</text>
</a>
</g>
</g>
<!-- Node8&#45;&gt;Node9 -->
<g id="edge8" class="edge"><title>Node8&#45;&gt;Node9</title>
<path fill="none" stroke="midnightblue" d="M1350.54,-203.027C1380.16,-189.015 1425.63,-167.506 1456.07,-153.106"/>
<polygon fill="midnightblue" stroke="midnightblue" points="1348.69,-200.031 1341.14,-207.471 1351.68,-206.358 1348.69,-200.031"/>
</g>
<!-- Node10&#45;&gt;Node8 -->
<g id="edge11" class="edge"><title>Node10&#45;&gt;Node8</title>
<path fill="none" stroke="midnightblue" d="M1181.43,-290.108C1218.14,-270.597 1272.58,-241.668 1300.7,-226.723"/>
<polygon fill="midnightblue" stroke="midnightblue" points="1179.69,-287.067 1172.51,-294.851 1182.98,-293.249 1179.69,-287.067"/>
</g>
<!-- Node12 -->
<g id="node12" class="node"><title>Node12</title>
<g id="a_node12"><a xlink:href="classx265_1_1Entropy.html#abb101b71f310e90eb504a8204babc180" target="_top" xlink:title="x265::Entropy::encodeCTU">
<polygon fill="white" stroke="black" points="718,-49.5 718,-68.5 854,-68.5 854,-49.5 718,-49.5"/>
<text text-anchor="middle" x="786" y="-56.5" font-family="Helvetica,sans-Serif" font-size="10.00">x265::Entropy::encodeCTU</text>
</a>
</g>
</g>
<!-- Node11&#45;&gt;Node12 -->
<g id="edge13" class="edge"><title>Node11&#45;&gt;Node12</title>
<path fill="none" stroke="midnightblue" d="M669.046,-80.6186C690.192,-76.6761 713.659,-72.3008 733.919,-68.5235"/>
<polygon fill="midnightblue" stroke="midnightblue" points="668.385,-77.1814 659.196,-82.455 669.668,-84.0628 668.385,-77.1814"/>
</g>
<!-- Node12&#45;&gt;Node9 -->
<g id="edge15" class="edge"><title>Node12&#45;&gt;Node9</title>
<path fill="none" stroke="midnightblue" d="M864.197,-67.6998C1006.7,-83.7598 1307.88,-117.701 1432.36,-131.73"/>
<polygon fill="midnightblue" stroke="midnightblue" points="864.544,-64.2168 854.215,-66.5749 863.76,-71.1728 864.544,-64.2168"/>
</g>
<!-- Node13 -->
<g id="node13" class="node"><title>Node13</title>
<g id="a_node13"><a xlink:href="classx265_1_1FrameEncoder.html#a6d4045d35bfe6b10c8d0dc39353be360" target="_top" xlink:title="x265::FrameEncoder\l::encodeSlice">
<polygon fill="white" stroke="red" points="915.5,-0 915.5,-30 1022.5,-30 1022.5,-0 915.5,-0"/>
<text text-anchor="start" x="923.5" y="-18" font-family="Helvetica,sans-Serif" font-size="10.00">x265::FrameEncoder</text>
<text text-anchor="middle" x="969" y="-7" font-family="Helvetica,sans-Serif" font-size="10.00">::encodeSlice</text>
</a>
</g>
</g>
<!-- Node12&#45;&gt;Node13 -->
<g id="edge14" class="edge"><title>Node12&#45;&gt;Node13</title>
<path fill="none" stroke="midnightblue" d="M836.102,-47.0637C860.654,-41.0951 890.389,-33.8668 915.406,-27.7853"/>
<polygon fill="midnightblue" stroke="midnightblue" points="835.165,-43.6895 826.274,-49.4527 836.818,-50.4914 835.165,-43.6895"/>
</g>
<!-- Node15 -->
<g id="node15" class="node"><title>Node15</title>
<g id="a_node15"><a xlink:href="classx265_1_1Analysis.html#a10f0a8d9d143faf8dc671c6f0982693d" target="_top" xlink:title="x265::Analysis::tryLossless">
<polygon fill="white" stroke="black" points="900.5,-163.5 900.5,-182.5 1037.5,-182.5 1037.5,-163.5 900.5,-163.5"/>
<text text-anchor="middle" x="969" y="-170.5" font-family="Helvetica,sans-Serif" font-size="10.00">x265::Analysis::tryLossless</text>
</a>
</g>
</g>
<!-- Node14&#45;&gt;Node15 -->
<g id="edge17" class="edge"><title>Node14&#45;&gt;Node15</title>
<path fill="none" stroke="midnightblue" d="M859.293,-161.589C872.879,-163.015 887.037,-164.501 900.471,-165.911"/>
<polygon fill="midnightblue" stroke="midnightblue" points="859.347,-158.075 849.037,-160.512 858.617,-165.037 859.347,-158.075"/>
</g>
<!-- Node16 -->
<g id="node16" class="node"><title>Node16</title>
<g id="a_node16"><a xlink:href="classx265_1_1Analysis.html#aae2a6a2252270782b591d2bed7e99dae" target="_top" xlink:title="x265::Analysis::compress\lIntraCU">
<polygon fill="white" stroke="black" points="1078,-153 1078,-183 1208,-183 1208,-153 1078,-153"/>
<text text-anchor="start" x="1086" y="-171" font-family="Helvetica,sans-Serif" font-size="10.00">x265::Analysis::compress</text>
<text text-anchor="middle" x="1143" y="-160" font-family="Helvetica,sans-Serif" font-size="10.00">IntraCU</text>
</a>
</g>
</g>
<!-- Node14&#45;&gt;Node16 -->
<g id="edge24" class="edge"><title>Node14&#45;&gt;Node16</title>
<path fill="none" stroke="midnightblue" d="M820.735,-140.978C841.975,-133.487 870.167,-124.825 896,-121 960.189,-111.496 978.671,-106.86 1042,-121 1069.33,-127.103 1098.02,-141.532 1117.62,-152.805"/>
<polygon fill="midnightblue" stroke="midnightblue" points="819.417,-137.732 811.204,-144.424 821.798,-144.315 819.417,-137.732"/>
</g>
<!-- Node17 -->
<g id="node17" class="node"><title>Node17</title>
<g id="a_node17"><a xlink:href="classx265_1_1Analysis.html#a0b22b7765aa4a36b1ba6d07ba26901e6" target="_top" xlink:title="x265::Analysis::compress\lInterCU_rd5_6">
<polygon fill="white" stroke="black" points="1078,-202 1078,-232 1208,-232 1208,-202 1078,-202"/>
<text text-anchor="start" x="1086" y="-220" font-family="Helvetica,sans-Serif" font-size="10.00">x265::Analysis::compress</text>
<text text-anchor="middle" x="1143" y="-209" font-family="Helvetica,sans-Serif" font-size="10.00">InterCU_rd5_6</text>
</a>
</g>
</g>
<!-- Node14&#45;&gt;Node17 -->
<g id="edge25" class="edge"><title>Node14&#45;&gt;Node17</title>
<path fill="none" stroke="midnightblue" d="M837.729,-142.629C890.953,-133.238 975.904,-125.57 1042,-154 1063.37,-163.192 1058.7,-179.01 1078,-192 1083.54,-195.73 1089.72,-199.024 1095.99,-201.895"/>
<polygon fill="midnightblue" stroke="midnightblue" points="837.043,-139.196 827.847,-144.457 838.316,-146.079 837.043,-139.196"/>
</g>
<!-- Node15&#45;&gt;Node7 -->
<g id="edge20" class="edge"><title>Node15&#45;&gt;Node7</title>
<path fill="none" stroke="midnightblue" d="M1037.43,-187.97C1039.04,-189.213 1040.57,-190.553 1042,-192 1087.81,-238.261 1040.79,-280.575 1078,-334 1086.32,-345.949 1099.01,-355.647 1110.91,-362.867"/>
<polygon fill="midnightblue" stroke="midnightblue" points="1039.14,-184.911 1028.81,-182.546 1035.41,-190.835 1039.14,-184.911"/>
</g>
<!-- Node15&#45;&gt;Node10 -->
<g id="edge21" class="edge"><title>Node15&#45;&gt;Node10</title>
<path fill="none" stroke="midnightblue" d="M1032.72,-186.638C1035.96,-188.232 1039.08,-190.012 1042,-192 1064.34,-207.205 1060.78,-220.171 1078,-241 1093.93,-260.268 1113.68,-281.151 1126.99,-294.836"/>
<polygon fill="midnightblue" stroke="midnightblue" points="1033.91,-183.338 1023.33,-182.622 1031.15,-189.773 1033.91,-183.338"/>
</g>
<!-- Node15&#45;&gt;Node16 -->
<g id="edge18" class="edge"><title>Node15&#45;&gt;Node16</title>
<path fill="none" stroke="midnightblue" d="M1048.24,-170.726C1058.16,-170.437 1068.22,-170.145 1077.88,-169.864"/>
<polygon fill="midnightblue" stroke="midnightblue" points="1047.87,-167.235 1037.98,-171.024 1048.08,-174.232 1047.87,-167.235"/>
</g>
<!-- Node15&#45;&gt;Node17 -->
<g id="edge22" class="edge"><title>Node15&#45;&gt;Node17</title>
<path fill="none" stroke="midnightblue" d="M1017.01,-185.026C1037.41,-190.245 1061.53,-196.414 1083.11,-201.935"/>
<polygon fill="midnightblue" stroke="midnightblue" points="1017.88,-181.635 1007.32,-182.547 1016.14,-188.417 1017.88,-181.635"/>
</g>
<!-- Node16&#45;&gt;Node8 -->
<g id="edge19" class="edge"><title>Node16&#45;&gt;Node8</title>
<path fill="none" stroke="midnightblue" d="M1207.79,-185.86C1233.94,-193.182 1263.15,-201.361 1285.06,-207.498"/>
<polygon fill="midnightblue" stroke="midnightblue" points="1208.51,-182.427 1197.93,-183.101 1206.62,-189.168 1208.51,-182.427"/>
</g>
<!-- Node17&#45;&gt;Node8 -->
<g id="edge23" class="edge"><title>Node17&#45;&gt;Node8</title>
<path fill="none" stroke="midnightblue" d="M1218.25,-217C1226.93,-217 1235.78,-217 1244.47,-217"/>
<polygon fill="midnightblue" stroke="midnightblue" points="1218.17,-213.5 1208.17,-217 1218.17,-220.5 1218.17,-213.5"/>
</g>
<!-- Node18&#45;&gt;Node7 -->
<g id="edge28" class="edge"><title>Node18&#45;&gt;Node7</title>
<path fill="none" stroke="midnightblue" d="M801.604,-289.88C819.822,-317.115 853.78,-360.175 896,-378 953.936,-402.46 1026.61,-398.781 1077.9,-391.242"/>
<polygon fill="midnightblue" stroke="midnightblue" points="804.42,-287.791 796.039,-281.309 798.549,-291.603 804.42,-287.791"/>
</g>
<!-- Node18&#45;&gt;Node10 -->
<g id="edge29" class="edge"><title>Node18&#45;&gt;Node10</title>
<path fill="none" stroke="midnightblue" d="M858.324,-283.155C870.826,-285.746 883.753,-288.162 896,-290 957.338,-299.203 1027.96,-304.393 1077.76,-307.166"/>
<polygon fill="midnightblue" stroke="midnightblue" points="858.918,-279.704 848.409,-281.048 857.462,-286.551 858.918,-279.704"/>
</g>
<!-- Node18&#45;&gt;Node15 -->
<g id="edge27" class="edge"><title>Node18&#45;&gt;Node15</title>
<path fill="none" stroke="midnightblue" d="M813.008,-244.602C834.195,-228.125 865.494,-205.888 896,-192 904.236,-188.25 913.352,-185.131 922.249,-182.577"/>
<polygon fill="midnightblue" stroke="midnightblue" points="810.807,-241.88 805.131,-250.826 815.147,-247.372 810.807,-241.88"/>
</g>
<!-- Node19 -->
<g id="node19" class="node"><title>Node19</title>
<g id="a_node19"><a xlink:href="classx265_1_1Analysis.html#addd72cb95590e2b2a6965d42d110eab3" target="_top" xlink:title="x265::Analysis::checkMerge2\lNx2N_rd0_4">
<polygon fill="white" stroke="black" points="896,-339 896,-369 1042,-369 1042,-339 896,-339"/>
<text text-anchor="start" x="904" y="-357" font-family="Helvetica,sans-Serif" font-size="10.00">x265::Analysis::checkMerge2</text>
<text text-anchor="middle" x="969" y="-346" font-family="Helvetica,sans-Serif" font-size="10.00">Nx2N_rd0_4</text>
</a>
</g>
</g>
<!-- Node18&#45;&gt;Node19 -->
<g id="edge30" class="edge"><title>Node18&#45;&gt;Node19</title>
<path fill="none" stroke="midnightblue" d="M822.444,-285.95C843.555,-297.557 871.019,-312.182 896,-324 906.894,-329.154 918.916,-334.35 929.964,-338.937"/>
<polygon fill="midnightblue" stroke="midnightblue" points="823.963,-282.791 813.519,-281.014 820.576,-288.916 823.963,-282.791"/>
</g>
<!-- Node20 -->
<g id="node20" class="node"><title>Node20</title>
<g id="a_node20"><a xlink:href="classx265_1_1Analysis.html#a0194a9da53aa95173fa1132ba3aea1c7" target="_top" xlink:title="x265::Analysis::checkMerge2\lNx2N_rd5_6">
<polygon fill="white" stroke="black" points="896,-251 896,-281 1042,-281 1042,-251 896,-251"/>
<text text-anchor="start" x="904" y="-269" font-family="Helvetica,sans-Serif" font-size="10.00">x265::Analysis::checkMerge2</text>
<text text-anchor="middle" x="969" y="-258" font-family="Helvetica,sans-Serif" font-size="10.00">Nx2N_rd5_6</text>
</a>
</g>
</g>
<!-- Node18&#45;&gt;Node20 -->
<g id="edge33" class="edge"><title>Node18&#45;&gt;Node20</title>
<path fill="none" stroke="midnightblue" d="M869.785,-266C878.535,-266 887.383,-266 895.997,-266"/>
<polygon fill="midnightblue" stroke="midnightblue" points="869.577,-262.5 859.577,-266 869.577,-269.5 869.577,-262.5"/>
</g>
<!-- Node21 -->
<g id="node21" class="node"><title>Node21</title>
<g id="a_node21"><a xlink:href="classx265_1_1Analysis.html#a828daa3e9f1ed40a1af9f99f7ff7bb33" target="_top" xlink:title="x265::Analysis::checkInter\l_rd5_6">
<polygon fill="white" stroke="black" points="902.5,-202 902.5,-232 1035.5,-232 1035.5,-202 902.5,-202"/>
<text text-anchor="start" x="910.5" y="-220" font-family="Helvetica,sans-Serif" font-size="10.00">x265::Analysis::checkInter</text>
<text text-anchor="middle" x="969" y="-209" font-family="Helvetica,sans-Serif" font-size="10.00">_rd5_6</text>
</a>
</g>
</g>
<!-- Node18&#45;&gt;Node21 -->
<g id="edge35" class="edge"><title>Node18&#45;&gt;Node21</title>
<path fill="none" stroke="midnightblue" d="M852.561,-248.252C872.177,-242.941 893.49,-237.171 912.401,-232.052"/>
<polygon fill="midnightblue" stroke="midnightblue" points="851.521,-244.907 842.783,-250.899 853.35,-251.664 851.521,-244.907"/>
</g>
<!-- Node19&#45;&gt;Node7 -->
<g id="edge31" class="edge"><title>Node19&#45;&gt;Node7</title>
<path fill="none" stroke="midnightblue" d="M1052.42,-365.501C1060.96,-366.692 1069.54,-367.889 1077.83,-369.046"/>
<polygon fill="midnightblue" stroke="midnightblue" points="1052.83,-362.024 1042.44,-364.109 1051.87,-368.957 1052.83,-362.024"/>
</g>
<!-- Node19&#45;&gt;Node10 -->
<g id="edge32" class="edge"><title>Node19&#45;&gt;Node10</title>
<path fill="none" stroke="midnightblue" d="M1038.78,-336.406C1053.51,-332.637 1068.95,-328.688 1083.26,-325.026"/>
<polygon fill="midnightblue" stroke="midnightblue" points="1037.53,-333.112 1028.71,-338.981 1039.27,-339.893 1037.53,-333.112"/>
</g>
<!-- Node20&#45;&gt;Node17 -->
<g id="edge34" class="edge"><title>Node20&#45;&gt;Node17</title>
<path fill="none" stroke="midnightblue" d="M1032.81,-248.106C1051.31,-242.836 1071.36,-237.124 1089.17,-232.052"/>
<polygon fill="midnightblue" stroke="midnightblue" points="1031.67,-244.793 1023.01,-250.899 1033.59,-251.525 1031.67,-244.793"/>
</g>
<!-- Node21&#45;&gt;Node17 -->
<g id="edge36" class="edge"><title>Node21&#45;&gt;Node17</title>
<path fill="none" stroke="midnightblue" d="M1045.7,-217C1056.41,-217 1067.34,-217 1077.8,-217"/>
<polygon fill="midnightblue" stroke="midnightblue" points="1045.52,-213.5 1035.52,-217 1045.52,-220.5 1045.52,-213.5"/>
</g>
</g>
</svg>
        <g id="navigator" transform="translate(0 0)" fill="#404254">
                <rect fill="#f2f5e9" fill-opacity="0.5" stroke="#606060" stroke-width=".5" x="0" y="0" width="60" height="60"/>
                <use id="zoomplus" xlink:href="#zoomPlus" x="17" y="9" onmousedown="handleZoom(evt,'in')"/>
                <use id="zoomminus" xlink:href="#zoomMin" x="42" y="9" onmousedown="handleZoom(evt,'out')"/>
                <use id="reset" xlink:href="#resetDef" x="30" y="36" onmousedown="handleReset()"/>
                <g id="arrowUp" xlink:href="#dirArrow" transform="translate(30 24)" onmousedown="handlePan(0,-1)">
                  <use xlink:href="#rim" fill="#404040">
                        <set attributeName="fill" to="#808080" begin="arrowUp.mouseover" end="arrowUp.mouseout"/>
                  </use>
                  <path fill="none" stroke="white" stroke-width="1.5" d="M0,-3.0v7 M-2.5,-0.5L0,-3.0L2.5,-0.5"/>
                </g>
                <g id="arrowRight" xlink:href="#dirArrow" transform="rotate(90) translate(36 -43)" onmousedown="handlePan(1,0)">
                  <use xlink:href="#rim" fill="#404040">
                        <set attributeName="fill" to="#808080" begin="arrowRight.mouseover" end="arrowRight.mouseout"/>
                  </use>
                  <path fill="none" stroke="white" stroke-width="1.5" d="M0,-3.0v7 M-2.5,-0.5L0,-3.0L2.5,-0.5"/>
                </g>
                <g id="arrowDown" xlink:href="#dirArrow" transform="rotate(180) translate(-30 -48)" onmousedown="handlePan(0,1)">
                  <use xlink:href="#rim" fill="#404040">
                        <set attributeName="fill" to="#808080" begin="arrowDown.mouseover" end="arrowDown.mouseout"/>
                  </use>
                  <path fill="none" stroke="white" stroke-width="1.5" d="M0,-3.0v7 M-2.5,-0.5L0,-3.0L2.5,-0.5"/>
                </g>
                <g id="arrowLeft" xlink:href="#dirArrow" transform="rotate(270) translate(-36 17)" onmousedown="handlePan(-1,0)">
                  <use xlink:href="#rim" fill="#404040">
                        <set attributeName="fill" to="#808080" begin="arrowLeft.mouseover" end="arrowLeft.mouseout"/>
                  </use>
                  <path fill="none" stroke="white" stroke-width="1.5" d="M0,-3.0v7 M-2.5,-0.5L0,-3.0L2.5,-0.5"/>
                </g>
        </g>
        <svg viewBox="0 0 15 15" width="100%" height="30px" preserveAspectRatio="xMaxYMin meet">
         <g id="arrow_out" transform="scale(0.3 0.3)">
          <a xlink:href="classx265_1_1Entropy_af4ab096830911ac48684ea5258cea013_icgraph_org.svg" target="_base">
           <rect id="button" ry="5" rx="5" y="6" x="6" height="38" width="38"
                fill="#f2f5e9" fill-opacity="0.5" stroke="#606060" stroke-width="1.0"/>
           <path id="arrow"
             d="M 11.500037,31.436501 C 11.940474,20.09759 22.043105,11.32322 32.158766,21.979434 L 37.068811,17.246167 C 37.068811,17.246167 37.088388,32 37.088388,32 L 22.160133,31.978069 C 22.160133,31.978069 26.997745,27.140456 26.997745,27.140456 C 18.528582,18.264221 13.291696,25.230495 11.500037,31.436501 z"
             style="fill:#404040;"/>
          </a>
         </g>
        </svg>
</svg>
