<?xml version="1.0" encoding="UTF-8" standalone="no"?>
<!DOCTYPE svg PUBLIC "-//W3C//DTD SVG 1.1//EN"
 "http://www.w3.org/Graphics/SVG/1.1/DTD/svg11.dtd">
<!-- Generated by graphviz version 2.36.0 (20140111.2315)
 -->
<!-- Title: x265::Entropy::load Pages: 1 -->
<svg width="438pt" height="66pt"
 viewBox="0.00 0.00 438.00 66.00" xmlns="http://www.w3.org/2000/svg" xmlns:xlink="http://www.w3.org/1999/xlink">
<g id="graph0" class="graph" transform="scale(1 1) rotate(0) translate(4 62)">
<title>x265::Entropy::load</title>
<polygon fill="white" stroke="none" points="-4,4 -4,-62 434,-62 434,4 -4,4"/>
<!-- Node1 -->
<g id="node1" class="node"><title>Node1</title>
<polygon fill="#bfbfbf" stroke="black" points="0.5,-19.5 0.5,-38.5 101.5,-38.5 101.5,-19.5 0.5,-19.5"/>
<text text-anchor="middle" x="51" y="-26.5" font-family="Helvetica,sans-Serif" font-size="10.00">x265::Entropy::load</text>
</g>
<!-- Node2 -->
<g id="node2" class="node"><title>Node2</title>
<g id="a_node2"><a xlink:href="classx265_1_1Entropy.html#a58920cd5abeb58e01ff534ee73aa6764" target="_top" xlink:title="x265::Entropy::copyFrom">
<polygon fill="white" stroke="black" points="138.5,-19.5 138.5,-38.5 265.5,-38.5 265.5,-19.5 138.5,-19.5"/>
<text text-anchor="middle" x="202" y="-26.5" font-family="Helvetica,sans-Serif" font-size="10.00">x265::Entropy::copyFrom</text>
</a>
</g>
</g>
<!-- Node1&#45;&gt;Node2 -->
<g id="edge1" class="edge"><title>Node1&#45;&gt;Node2</title>
<path fill="none" stroke="midnightblue" d="M101.615,-29C110.164,-29 119.208,-29 128.218,-29"/>
<polygon fill="midnightblue" stroke="midnightblue" points="128.349,-32.5001 138.349,-29 128.349,-25.5001 128.349,-32.5001"/>
</g>
<!-- Node3 -->
<g id="node3" class="node"><title>Node3</title>
<g id="a_node3"><a xlink:href="classx265_1_1Entropy.html#aec97e584e9e0da270532ef3d29d13b3d" target="_top" xlink:title="x265::Entropy::copyState">
<polygon fill="white" stroke="black" points="302,-38.5 302,-57.5 430,-57.5 430,-38.5 302,-38.5"/>
<text text-anchor="middle" x="366" y="-45.5" font-family="Helvetica,sans-Serif" font-size="10.00">x265::Entropy::copyState</text>
</a>
</g>
</g>
<!-- Node2&#45;&gt;Node3 -->
<g id="edge2" class="edge"><title>Node2&#45;&gt;Node3</title>
<path fill="none" stroke="midnightblue" d="M265.633,-36.3459C274.209,-37.3516 283.074,-38.3914 291.817,-39.4168"/>
<polygon fill="midnightblue" stroke="midnightblue" points="291.659,-42.9222 301.999,-40.611 292.475,-35.9699 291.659,-42.9222"/>
</g>
<!-- Node4 -->
<g id="node4" class="node"><title>Node4</title>
<g id="a_node4"><a xlink:href="classx265_1_1Entropy.html#a4a2ed9d9dc4b2a31aed493c4a8d8b58b" target="_top" xlink:title="x265::Entropy::markValid">
<polygon fill="white" stroke="black" points="302.5,-0.5 302.5,-19.5 429.5,-19.5 429.5,-0.5 302.5,-0.5"/>
<text text-anchor="middle" x="366" y="-7.5" font-family="Helvetica,sans-Serif" font-size="10.00">x265::Entropy::markValid</text>
</a>
</g>
</g>
<!-- Node2&#45;&gt;Node4 -->
<g id="edge3" class="edge"><title>Node2&#45;&gt;Node4</title>
<path fill="none" stroke="midnightblue" d="M265.633,-21.6541C274.367,-20.6298 283.401,-19.5703 292.3,-18.5266"/>
<polygon fill="midnightblue" stroke="midnightblue" points="292.742,-21.9988 302.266,-17.3577 291.926,-15.0465 292.742,-21.9988"/>
</g>
</g>
</svg>
