<?xml version="1.0" encoding="UTF-8" standalone="no"?>
<!DOCTYPE svg PUBLIC "-//W3C//DTD SVG 1.1//EN"
 "http://www.w3.org/Graphics/SVG/1.1/DTD/svg11.dtd">
<!-- Generated by graphviz version 2.36.0 (20140111.2315)
 -->
<!-- Title: x265::DPB::applyReferencePictureSet Pages: 1 -->
<svg width="698pt" height="38pt"
 viewBox="0.00 0.00 698.00 38.00" xmlns="http://www.w3.org/2000/svg" xmlns:xlink="http://www.w3.org/1999/xlink">
<g id="graph0" class="graph" transform="scale(1 1) rotate(0) translate(4 34)">
<title>x265::DPB::applyReferencePictureSet</title>
<polygon fill="white" stroke="none" points="-4,4 -4,-34 694,-34 694,4 -4,4"/>
<!-- Node1 -->
<g id="node1" class="node"><title>Node1</title>
<polygon fill="#bfbfbf" stroke="black" points="0.5,-0 0.5,-30 139.5,-30 139.5,-0 0.5,-0"/>
<text text-anchor="start" x="8.5" y="-18" font-family="Helvetica,sans-Serif" font-size="10.00">x265::DPB::applyReference</text>
<text text-anchor="middle" x="70" y="-7" font-family="Helvetica,sans-Serif" font-size="10.00">PictureSet</text>
</g>
<!-- Node2 -->
<g id="node2" class="node"><title>Node2</title>
<g id="a_node2"><a xlink:href="classx265_1_1DPB.html#a816f74b4e9b9a47b65f301b80caf7a41" target="_top" xlink:title="x265::DPB::prepareEncode">
<polygon fill="white" stroke="black" points="176,-5.5 176,-24.5 312,-24.5 312,-5.5 176,-5.5"/>
<text text-anchor="middle" x="244" y="-12.5" font-family="Helvetica,sans-Serif" font-size="10.00">x265::DPB::prepareEncode</text>
</a>
</g>
</g>
<!-- Node1&#45;&gt;Node2 -->
<g id="edge1" class="edge"><title>Node1&#45;&gt;Node2</title>
<path fill="none" stroke="midnightblue" d="M150.069,-15C158.728,-15 167.481,-15 175.975,-15"/>
<polygon fill="midnightblue" stroke="midnightblue" points="149.968,-11.5001 139.968,-15 149.968,-18.5001 149.968,-11.5001"/>
</g>
<!-- Node3 -->
<g id="node3" class="node"><title>Node3</title>
<g id="a_node3"><a xlink:href="classx265_1_1Encoder.html#af5c80cef5fcafa00d1b3c105681bc784" target="_top" xlink:title="x265::Encoder::encode">
<polygon fill="white" stroke="black" points="348.5,-5.5 348.5,-24.5 465.5,-24.5 465.5,-5.5 348.5,-5.5"/>
<text text-anchor="middle" x="407" y="-12.5" font-family="Helvetica,sans-Serif" font-size="10.00">x265::Encoder::encode</text>
</a>
</g>
</g>
<!-- Node2&#45;&gt;Node3 -->
<g id="edge2" class="edge"><title>Node2&#45;&gt;Node3</title>
<path fill="none" stroke="midnightblue" d="M322.522,-15C331.23,-15 339.984,-15 348.376,-15"/>
<polygon fill="midnightblue" stroke="midnightblue" points="322.346,-11.5001 312.346,-15 322.346,-18.5001 322.346,-11.5001"/>
</g>
<!-- Node4 -->
<g id="node4" class="node"><title>Node4</title>
<g id="a_node4"><a xlink:href="x265_8h.html#a7a45a920b9d86ed3fb3cb3794b14f5ea" target="_top" xlink:title="x265_encoder_encode">
<polygon fill="white" stroke="black" points="502,-5.5 502,-24.5 616,-24.5 616,-5.5 502,-5.5"/>
<text text-anchor="middle" x="559" y="-12.5" font-family="Helvetica,sans-Serif" font-size="10.00">x265_encoder_encode</text>
</a>
</g>
</g>
<!-- Node3&#45;&gt;Node4 -->
<g id="edge3" class="edge"><title>Node3&#45;&gt;Node4</title>
<path fill="none" stroke="midnightblue" d="M475.721,-15C484.45,-15 493.311,-15 501.826,-15"/>
<polygon fill="midnightblue" stroke="midnightblue" points="475.565,-11.5001 465.565,-15 475.565,-18.5001 475.565,-11.5001"/>
</g>
<!-- Node5 -->
<g id="node5" class="node"><title>Node5</title>
<g id="a_node5"><a xlink:href="x265_8cpp.html#a3c04138a5bfe5d72780bb7e82a18e627" target="_top" xlink:title="main">
<polygon fill="white" stroke="black" points="652,-5.5 652,-24.5 690,-24.5 690,-5.5 652,-5.5"/>
<text text-anchor="middle" x="671" y="-12.5" font-family="Helvetica,sans-Serif" font-size="10.00">main</text>
</a>
</g>
</g>
<!-- Node4&#45;&gt;Node5 -->
<g id="edge4" class="edge"><title>Node4&#45;&gt;Node5</title>
<path fill="none" stroke="midnightblue" d="M626.493,-15C635.781,-15 644.611,-15 651.859,-15"/>
<polygon fill="midnightblue" stroke="midnightblue" points="626.289,-11.5001 616.289,-15 626.289,-18.5001 626.289,-11.5001"/>
</g>
</g>
</svg>
