<?xml version="1.0" encoding="UTF-8" standalone="no"?>
<!DOCTYPE svg PUBLIC "-//W3C//DTD SVG 1.1//EN"
 "http://www.w3.org/Graphics/SVG/1.1/DTD/svg11.dtd">
<!-- Generated by graphviz version 2.36.0 (20140111.2315)
 -->
<!-- Title: x265::Search::checkIntra Pages: 1 -->
<svg width="956pt" height="185pt"
 viewBox="0.00 0.00 956.00 185.00" xmlns="http://www.w3.org/2000/svg" xmlns:xlink="http://www.w3.org/1999/xlink">
<g id="graph0" class="graph" transform="scale(1 1) rotate(0) translate(4 181)">
<title>x265::Search::checkIntra</title>
<polygon fill="white" stroke="none" points="-4,4 -4,-181 952,-181 952,4 -4,4"/>
<!-- Node1 -->
<g id="node1" class="node"><title>Node1</title>
<polygon fill="#bfbfbf" stroke="black" points="0,-69.5 0,-88.5 126,-88.5 126,-69.5 0,-69.5"/>
<text text-anchor="middle" x="63" y="-76.5" font-family="Helvetica,sans-Serif" font-size="10.00">x265::Search::checkIntra</text>
</g>
<!-- Node2 -->
<g id="node2" class="node"><title>Node2</title>
<g id="a_node2"><a xlink:href="classx265_1_1Analysis.html#a10f0a8d9d143faf8dc671c6f0982693d" target="_top" xlink:title="x265::Analysis::tryLossless">
<polygon fill="white" stroke="black" points="162.5,-69.5 162.5,-88.5 299.5,-88.5 299.5,-69.5 162.5,-69.5"/>
<text text-anchor="middle" x="231" y="-76.5" font-family="Helvetica,sans-Serif" font-size="10.00">x265::Analysis::tryLossless</text>
</a>
</g>
</g>
<!-- Node1&#45;&gt;Node2 -->
<g id="edge1" class="edge"><title>Node1&#45;&gt;Node2</title>
<path fill="none" stroke="midnightblue" d="M136.338,-79C144.984,-79 153.786,-79 162.362,-79"/>
<polygon fill="midnightblue" stroke="midnightblue" points="136.285,-75.5001 126.285,-79 136.285,-82.5001 136.285,-75.5001"/>
</g>
<!-- Node3 -->
<g id="node3" class="node"><title>Node3</title>
<g id="a_node3"><a xlink:href="classx265_1_1Analysis.html#aae2a6a2252270782b591d2bed7e99dae" target="_top" xlink:title="x265::Analysis::compress\lIntraCU">
<polygon fill="white" stroke="black" points="336,-147 336,-177 466,-177 466,-147 336,-147"/>
<text text-anchor="start" x="344" y="-165" font-family="Helvetica,sans-Serif" font-size="10.00">x265::Analysis::compress</text>
<text text-anchor="middle" x="401" y="-154" font-family="Helvetica,sans-Serif" font-size="10.00">IntraCU</text>
</a>
</g>
</g>
<!-- Node1&#45;&gt;Node3 -->
<g id="edge12" class="edge"><title>Node1&#45;&gt;Node3</title>
<path fill="none" stroke="midnightblue" d="M112.498,-90.9801C172.37,-105.77 274.228,-130.931 339.25,-146.993"/>
<polygon fill="midnightblue" stroke="midnightblue" points="113.091,-87.5215 102.543,-88.5212 111.412,-94.3172 113.091,-87.5215"/>
</g>
<!-- Node9 -->
<g id="node9" class="node"><title>Node9</title>
<g id="a_node9"><a xlink:href="classx265_1_1Analysis.html#a0b22b7765aa4a36b1ba6d07ba26901e6" target="_top" xlink:title="x265::Analysis::compress\lInterCU_rd5_6">
<polygon fill="white" stroke="black" points="336,-0 336,-30 466,-30 466,-0 336,-0"/>
<text text-anchor="start" x="344" y="-18" font-family="Helvetica,sans-Serif" font-size="10.00">x265::Analysis::compress</text>
<text text-anchor="middle" x="401" y="-7" font-family="Helvetica,sans-Serif" font-size="10.00">InterCU_rd5_6</text>
</a>
</g>
</g>
<!-- Node1&#45;&gt;Node9 -->
<g id="edge13" class="edge"><title>Node1&#45;&gt;Node9</title>
<path fill="none" stroke="midnightblue" d="M122.98,-67.5193C135.839,-65.029 149.375,-62.4174 162,-60 220.854,-48.7308 287.931,-36.0642 335.841,-27.0477"/>
<polygon fill="midnightblue" stroke="midnightblue" points="121.993,-64.1452 112.842,-69.4844 123.326,-71.0173 121.993,-64.1452"/>
</g>
<!-- Node2&#45;&gt;Node3 -->
<g id="edge2" class="edge"><title>Node2&#45;&gt;Node3</title>
<path fill="none" stroke="midnightblue" d="M256.289,-93.7894C277.057,-106.13 307.946,-123.774 336,-137 343.337,-140.459 351.292,-143.845 359.019,-146.951"/>
<polygon fill="midnightblue" stroke="midnightblue" points="257.883,-90.6644 247.506,-88.5273 254.286,-96.6692 257.883,-90.6644"/>
</g>
<!-- Node7 -->
<g id="node7" class="node"><title>Node7</title>
<g id="a_node7"><a xlink:href="classx265_1_1Analysis.html#a87060ff27a37f56adc5f5b8a4c033ece" target="_top" xlink:title="x265::Analysis::compress\lInterCU_dist">
<polygon fill="white" stroke="black" points="336,-98 336,-128 466,-128 466,-98 336,-98"/>
<text text-anchor="start" x="344" y="-116" font-family="Helvetica,sans-Serif" font-size="10.00">x265::Analysis::compress</text>
<text text-anchor="middle" x="401" y="-105" font-family="Helvetica,sans-Serif" font-size="10.00">InterCU_dist</text>
</a>
</g>
</g>
<!-- Node2&#45;&gt;Node7 -->
<g id="edge6" class="edge"><title>Node2&#45;&gt;Node7</title>
<path fill="none" stroke="midnightblue" d="M289.38,-90.6127C304.35,-93.6423 320.578,-96.9265 335.873,-100.022"/>
<polygon fill="midnightblue" stroke="midnightblue" points="289.74,-87.1146 279.244,-88.5614 288.351,-93.9755 289.74,-87.1146"/>
</g>
<!-- Node8 -->
<g id="node8" class="node"><title>Node8</title>
<g id="a_node8"><a xlink:href="classx265_1_1Analysis.html#a30d2ff7eca5addbb0a6b3dfe14f09650" target="_top" xlink:title="x265::Analysis::compress\lInterCU_rd0_4">
<polygon fill="white" stroke="black" points="336,-49 336,-79 466,-79 466,-49 336,-49"/>
<text text-anchor="start" x="344" y="-67" font-family="Helvetica,sans-Serif" font-size="10.00">x265::Analysis::compress</text>
<text text-anchor="middle" x="401" y="-56" font-family="Helvetica,sans-Serif" font-size="10.00">InterCU_rd0_4</text>
</a>
</g>
</g>
<!-- Node2&#45;&gt;Node8 -->
<g id="edge8" class="edge"><title>Node2&#45;&gt;Node8</title>
<path fill="none" stroke="midnightblue" d="M309.998,-72.0359C318.698,-71.2591 327.484,-70.4747 335.98,-69.7161"/>
<polygon fill="midnightblue" stroke="midnightblue" points="309.497,-68.5666 299.848,-72.9422 310.119,-75.5389 309.497,-68.5666"/>
</g>
<!-- Node2&#45;&gt;Node9 -->
<g id="edge10" class="edge"><title>Node2&#45;&gt;Node9</title>
<path fill="none" stroke="midnightblue" d="M266.21,-65.7592C286.483,-57.9334 312.688,-47.854 336,-39 343.655,-36.0928 351.832,-33.0093 359.695,-30.0556"/>
<polygon fill="midnightblue" stroke="midnightblue" points="264.84,-62.5363 256.773,-69.4046 267.363,-69.066 264.84,-62.5363"/>
</g>
<!-- Node4 -->
<g id="node4" class="node"><title>Node4</title>
<g id="a_node4"><a xlink:href="classx265_1_1Analysis.html#aaebc9de2ff98834c650244f3b58942c2" target="_top" xlink:title="x265::Analysis::compressCTU">
<polygon fill="white" stroke="black" points="502.5,-78.5 502.5,-97.5 653.5,-97.5 653.5,-78.5 502.5,-78.5"/>
<text text-anchor="middle" x="578" y="-85.5" font-family="Helvetica,sans-Serif" font-size="10.00">x265::Analysis::compressCTU</text>
</a>
</g>
</g>
<!-- Node3&#45;&gt;Node4 -->
<g id="edge3" class="edge"><title>Node3&#45;&gt;Node4</title>
<path fill="none" stroke="midnightblue" d="M451.05,-143.09C456.111,-141.064 461.167,-139.009 466,-137 497.51,-123.898 533.59,-107.756 555.838,-97.6684"/>
<polygon fill="midnightblue" stroke="midnightblue" points="449.374,-139.99 441.37,-146.931 451.955,-146.497 449.374,-139.99"/>
</g>
<!-- Node5 -->
<g id="node5" class="node"><title>Node5</title>
<g id="a_node5"><a xlink:href="classx265_1_1FrameEncoder.html#a0ae85001572afd28238476542523ac5f" target="_top" xlink:title="x265::FrameEncoder\l::processRowEncoder">
<polygon fill="white" stroke="black" points="690.5,-73 690.5,-103 803.5,-103 803.5,-73 690.5,-73"/>
<text text-anchor="start" x="698.5" y="-91" font-family="Helvetica,sans-Serif" font-size="10.00">x265::FrameEncoder</text>
<text text-anchor="middle" x="747" y="-80" font-family="Helvetica,sans-Serif" font-size="10.00">::processRowEncoder</text>
</a>
</g>
</g>
<!-- Node4&#45;&gt;Node5 -->
<g id="edge4" class="edge"><title>Node4&#45;&gt;Node5</title>
<path fill="none" stroke="midnightblue" d="M663.86,-88C672.863,-88 681.845,-88 690.388,-88"/>
<polygon fill="midnightblue" stroke="midnightblue" points="663.708,-84.5001 653.708,-88 663.708,-91.5001 663.708,-84.5001"/>
</g>
<!-- Node6 -->
<g id="node6" class="node"><title>Node6</title>
<g id="a_node6"><a xlink:href="classx265_1_1FrameEncoder.html#acad645a8ece97d884895f8f7366b7d70" target="_top" xlink:title="x265::FrameEncoder\l::processRow">
<polygon fill="white" stroke="red" points="840.5,-73 840.5,-103 947.5,-103 947.5,-73 840.5,-73"/>
<text text-anchor="start" x="848.5" y="-91" font-family="Helvetica,sans-Serif" font-size="10.00">x265::FrameEncoder</text>
<text text-anchor="middle" x="894" y="-80" font-family="Helvetica,sans-Serif" font-size="10.00">::processRow</text>
</a>
</g>
</g>
<!-- Node5&#45;&gt;Node6 -->
<g id="edge5" class="edge"><title>Node5&#45;&gt;Node6</title>
<path fill="none" stroke="midnightblue" d="M813.877,-88C822.67,-88 831.594,-88 840.126,-88"/>
<polygon fill="midnightblue" stroke="midnightblue" points="813.646,-84.5001 803.646,-88 813.646,-91.5001 813.646,-84.5001"/>
</g>
<!-- Node7&#45;&gt;Node4 -->
<g id="edge7" class="edge"><title>Node7&#45;&gt;Node4</title>
<path fill="none" stroke="midnightblue" d="M476.103,-102.414C487.521,-100.783 499.25,-99.1071 510.489,-97.5016"/>
<polygon fill="midnightblue" stroke="midnightblue" points="475.574,-98.9538 466.17,-103.833 476.564,-105.883 475.574,-98.9538"/>
</g>
<!-- Node8&#45;&gt;Node4 -->
<g id="edge9" class="edge"><title>Node8&#45;&gt;Node4</title>
<path fill="none" stroke="midnightblue" d="M476.393,-74.2025C486.722,-75.619 497.299,-77.0696 507.533,-78.4731"/>
<polygon fill="midnightblue" stroke="midnightblue" points="476.553,-70.6917 466.17,-72.8004 475.602,-77.6268 476.553,-70.6917"/>
</g>
<!-- Node9&#45;&gt;Node4 -->
<g id="edge11" class="edge"><title>Node9&#45;&gt;Node4</title>
<path fill="none" stroke="midnightblue" d="M452.489,-33.6264C457.071,-35.4091 461.629,-37.2173 466,-39 497.793,-51.9665 534.101,-68.2861 556.284,-78.4321"/>
<polygon fill="midnightblue" stroke="midnightblue" points="453.695,-30.3402 443.105,-30.0192 451.184,-36.8741 453.695,-30.3402"/>
</g>
</g>
</svg>
