<?xml version="1.0" encoding="UTF-8" standalone="no"?>
<!DOCTYPE svg PUBLIC "-//W3C//DTD SVG 1.1//EN"
 "http://www.w3.org/Graphics/SVG/1.1/DTD/svg11.dtd">
<!-- Generated by graphviz version 2.36.0 (20140111.2315)
 -->
<!-- Title: x265::Entropy::finishCU Pages: 1 -->
<!--zoomable 151 -->
<svg id="main" version="1.1" xmlns="http://www.w3.org/2000/svg" xmlns:xlink="http://www.w3.org/1999/xlink" xml:space="preserve" onload="init(evt)">
<style type="text/css"><![CDATA[
.edge:hover path { stroke: red; }
.edge:hover polygon { stroke: red; fill: red; }
]]></style>
<script type="text/javascript"><![CDATA[
var edges = document.getElementsByTagName('g');
if (edges && edges.length) {
  for (var i=0;i<edges.length;i++) {
    if (edges[i].id.substr(0,4)=='edge') {
      edges[i].setAttribute('class','edge');
    }
  }
}
]]></script>
        <defs>
                <circle id="rim" cx="0" cy="0" r="7"/>
                <circle id="rim2" cx="0" cy="0" r="3.5"/>
                <g id="zoomPlus">
                        <use xlink:href="#rim" fill="#404040">
                                <set attributeName="fill" to="#808080" begin="zoomplus.mouseover" end="zoomplus.mouseout"/>
                        </use>
                        <path d="M-4,0h8M0,-4v8" fill="none" stroke="white" stroke-width="1.5" pointer-events="none"/>
                </g>
                <g id="zoomMin">
                        <use xlink:href="#rim" fill="#404040">
                                <set attributeName="fill" to="#808080" begin="zoomminus.mouseover" end="zoomminus.mouseout"/>
                        </use>
                        <path d="M-4,0h8" fill="none" stroke="white" stroke-width="1.5" pointer-events="none"/>
                </g>
                <g id="dirArrow">
                        <path fill="none" stroke="white" stroke-width="1.5" d="M0,-3.0v7 M-2.5,-0.5L0,-3.0L2.5,-0.5"/>
                </g>
               <g id="resetDef">
                       <use xlink:href="#rim2" fill="#404040">
                               <set attributeName="fill" to="#808080" begin="reset.mouseover" end="reset.mouseout"/>
                       </use>
               </g>
        </defs>

<script type="text/javascript">
var viewWidth = 598;
var viewHeight = 151;
var sectionId = 'dynsection-114';
</script>
<script xlink:href="svgpan.js"/>
<svg id="graph" class="graph">
<g id="viewport">
<title>x265::Entropy::finishCU</title>
<polygon fill="white" stroke="none" points="-4,4 -4,-147 594,-147 594,4 -4,4"/>
<!-- Node1 -->
<g id="node1" class="node"><title>Node1</title>
<polygon fill="#bfbfbf" stroke="black" points="0,-66.5 0,-85.5 122,-85.5 122,-66.5 0,-66.5"/>
<text text-anchor="middle" x="61" y="-73.5" font-family="Helvetica,sans-Serif" font-size="10.00">x265::Entropy::finishCU</text>
</g>
<!-- Node2 -->
<g id="node2" class="node"><title>Node2</title>
<g id="a_node2"><a xlink:href="classx265_1_1Slice.html#a779558881fea4d5ac5eeb8434a0c2e6d" target="_top" xlink:title="x265::Slice::realEndAddress">
<polygon fill="white" stroke="black" points="161,-123.5 161,-142.5 301,-142.5 301,-123.5 161,-123.5"/>
<text text-anchor="middle" x="231" y="-130.5" font-family="Helvetica,sans-Serif" font-size="10.00">x265::Slice::realEndAddress</text>
</a>
</g>
</g>
<!-- Node1&#45;&gt;Node2 -->
<g id="edge1" class="edge"><title>Node1&#45;&gt;Node2</title>
<path fill="none" stroke="midnightblue" d="M83.8424,-85.508C103.125,-93.6933 132.116,-105.495 158,-114 165.259,-116.385 173.004,-118.682 180.623,-120.803"/>
<polygon fill="midnightblue" stroke="midnightblue" points="179.948,-124.247 190.516,-123.484 181.78,-117.49 179.948,-124.247"/>
</g>
<!-- Node3 -->
<g id="node3" class="node"><title>Node3</title>
<g id="a_node3"><a xlink:href="classx265_1_1CUData.html#a2202983a565d785e91092f3e5c6eaf04" target="_top" xlink:title="x265::CUData::getSCUAddr">
<polygon fill="white" stroke="black" points="160.5,-85.5 160.5,-104.5 301.5,-104.5 301.5,-85.5 160.5,-85.5"/>
<text text-anchor="middle" x="231" y="-92.5" font-family="Helvetica,sans-Serif" font-size="10.00">x265::CUData::getSCUAddr</text>
</a>
</g>
</g>
<!-- Node1&#45;&gt;Node3 -->
<g id="edge2" class="edge"><title>Node1&#45;&gt;Node3</title>
<path fill="none" stroke="midnightblue" d="M122.177,-82.8058C131.235,-83.8302 140.696,-84.9001 150.088,-85.9623"/>
<polygon fill="midnightblue" stroke="midnightblue" points="149.9,-89.4633 160.23,-87.1094 150.687,-82.5077 149.9,-89.4633"/>
</g>
<!-- Node4 -->
<g id="node4" class="node"><title>Node4</title>
<g id="a_node4"><a xlink:href="classx265_1_1Entropy.html#a381bcaf744ffe20a018626dc7f7d7933" target="_top" xlink:title="x265::Entropy::encodeBinTrm">
<polygon fill="white" stroke="black" points="158,-47.5 158,-66.5 304,-66.5 304,-47.5 158,-47.5"/>
<text text-anchor="middle" x="231" y="-54.5" font-family="Helvetica,sans-Serif" font-size="10.00">x265::Entropy::encodeBinTrm</text>
</a>
</g>
</g>
<!-- Node1&#45;&gt;Node4 -->
<g id="edge3" class="edge"><title>Node1&#45;&gt;Node4</title>
<path fill="none" stroke="midnightblue" d="M122.177,-69.1942C130.501,-68.2529 139.165,-67.273 147.803,-66.2961"/>
<polygon fill="midnightblue" stroke="midnightblue" points="148.367,-69.7547 157.91,-65.153 147.58,-62.799 148.367,-69.7547"/>
</g>
<!-- Node7 -->
<g id="node7" class="node"><title>Node7</title>
<g id="a_node7"><a xlink:href="classx265_1_1Entropy.html#abfcde0e06b9eacfac4bfe0784eb7c967" target="_top" xlink:title="x265::Entropy::resetBits">
<polygon fill="white" stroke="black" points="170,-8.5 170,-27.5 292,-27.5 292,-8.5 170,-8.5"/>
<text text-anchor="middle" x="231" y="-15.5" font-family="Helvetica,sans-Serif" font-size="10.00">x265::Entropy::resetBits</text>
</a>
</g>
</g>
<!-- Node1&#45;&gt;Node7 -->
<g id="edge6" class="edge"><title>Node1&#45;&gt;Node7</title>
<path fill="none" stroke="midnightblue" d="M84.2521,-66.4139C103.552,-58.2879 132.341,-46.6151 158,-38 166.044,-35.2992 174.678,-32.6729 183.074,-30.2594"/>
<polygon fill="midnightblue" stroke="midnightblue" points="184.094,-33.6085 192.773,-27.5321 182.199,-26.8698 184.094,-33.6085"/>
</g>
<!-- Node5 -->
<g id="node5" class="node"><title>Node5</title>
<g id="a_node5"><a xlink:href="classx265_1_1Entropy.html#a38c906d03fe47f10456a3d5bc0cd2080" target="_top" xlink:title="x265::Entropy::writeOut">
<polygon fill="white" stroke="black" points="340,-49.5 340,-68.5 460,-68.5 460,-49.5 340,-49.5"/>
<text text-anchor="middle" x="400" y="-56.5" font-family="Helvetica,sans-Serif" font-size="10.00">x265::Entropy::writeOut</text>
</a>
</g>
</g>
<!-- Node4&#45;&gt;Node5 -->
<g id="edge4" class="edge"><title>Node4&#45;&gt;Node5</title>
<path fill="none" stroke="midnightblue" d="M304.277,-57.8656C312.738,-57.9669 321.355,-58.0701 329.773,-58.1709"/>
<polygon fill="midnightblue" stroke="midnightblue" points="329.876,-61.6723 339.917,-58.2924 329.96,-54.6728 329.876,-61.6723"/>
</g>
<!-- Node6 -->
<g id="node6" class="node"><title>Node6</title>
<g id="a_node6"><a xlink:href="classx265_1_1BitInterface.html#a0ab2614d14b086091eefc0ed19f3be6d" target="_top" xlink:title="x265::BitInterface\l::writeByte">
<polygon fill="white" stroke="black" points="496,-44 496,-74 590,-74 590,-44 496,-44"/>
<text text-anchor="start" x="504" y="-62" font-family="Helvetica,sans-Serif" font-size="10.00">x265::BitInterface</text>
<text text-anchor="middle" x="543" y="-51" font-family="Helvetica,sans-Serif" font-size="10.00">::writeByte</text>
</a>
</g>
</g>
<!-- Node5&#45;&gt;Node6 -->
<g id="edge5" class="edge"><title>Node5&#45;&gt;Node6</title>
<path fill="none" stroke="midnightblue" d="M460.388,-59C468.842,-59 477.515,-59 485.903,-59"/>
<polygon fill="midnightblue" stroke="midnightblue" points="485.961,-62.5001 495.961,-59 485.961,-55.5001 485.961,-62.5001"/>
</g>
<!-- Node8 -->
<g id="node8" class="node"><title>Node8</title>
<g id="a_node8"><a xlink:href="classx265_1_1BitInterface.html#acce17e1c0f79b9ebb54423eafa1cc782" target="_top" xlink:title="x265::BitInterface\l::resetBits">
<polygon fill="white" stroke="black" points="353,-0 353,-30 447,-30 447,-0 353,-0"/>
<text text-anchor="start" x="361" y="-18" font-family="Helvetica,sans-Serif" font-size="10.00">x265::BitInterface</text>
<text text-anchor="middle" x="400" y="-7" font-family="Helvetica,sans-Serif" font-size="10.00">::resetBits</text>
</a>
</g>
</g>
<!-- Node7&#45;&gt;Node8 -->
<g id="edge7" class="edge"><title>Node7&#45;&gt;Node8</title>
<path fill="none" stroke="midnightblue" d="M292.291,-16.9169C308.692,-16.6223 326.391,-16.3044 342.569,-16.0137"/>
<polygon fill="midnightblue" stroke="midnightblue" points="343.017,-19.5063 352.952,-15.8272 342.891,-12.5075 343.017,-19.5063"/>
</g>
</g>
</svg>
        <g id="navigator" transform="translate(0 0)" fill="#404254">
                <rect fill="#f2f5e9" fill-opacity="0.5" stroke="#606060" stroke-width=".5" x="0" y="0" width="60" height="60"/>
                <use id="zoomplus" xlink:href="#zoomPlus" x="17" y="9" onmousedown="handleZoom(evt,'in')"/>
                <use id="zoomminus" xlink:href="#zoomMin" x="42" y="9" onmousedown="handleZoom(evt,'out')"/>
                <use id="reset" xlink:href="#resetDef" x="30" y="36" onmousedown="handleReset()"/>
                <g id="arrowUp" xlink:href="#dirArrow" transform="translate(30 24)" onmousedown="handlePan(0,-1)">
                  <use xlink:href="#rim" fill="#404040">
                        <set attributeName="fill" to="#808080" begin="arrowUp.mouseover" end="arrowUp.mouseout"/>
                  </use>
                  <path fill="none" stroke="white" stroke-width="1.5" d="M0,-3.0v7 M-2.5,-0.5L0,-3.0L2.5,-0.5"/>
                </g>
                <g id="arrowRight" xlink:href="#dirArrow" transform="rotate(90) translate(36 -43)" onmousedown="handlePan(1,0)">
                  <use xlink:href="#rim" fill="#404040">
                        <set attributeName="fill" to="#808080" begin="arrowRight.mouseover" end="arrowRight.mouseout"/>
                  </use>
                  <path fill="none" stroke="white" stroke-width="1.5" d="M0,-3.0v7 M-2.5,-0.5L0,-3.0L2.5,-0.5"/>
                </g>
                <g id="arrowDown" xlink:href="#dirArrow" transform="rotate(180) translate(-30 -48)" onmousedown="handlePan(0,1)">
                  <use xlink:href="#rim" fill="#404040">
                        <set attributeName="fill" to="#808080" begin="arrowDown.mouseover" end="arrowDown.mouseout"/>
                  </use>
                  <path fill="none" stroke="white" stroke-width="1.5" d="M0,-3.0v7 M-2.5,-0.5L0,-3.0L2.5,-0.5"/>
                </g>
                <g id="arrowLeft" xlink:href="#dirArrow" transform="rotate(270) translate(-36 17)" onmousedown="handlePan(-1,0)">
                  <use xlink:href="#rim" fill="#404040">
                        <set attributeName="fill" to="#808080" begin="arrowLeft.mouseover" end="arrowLeft.mouseout"/>
                  </use>
                  <path fill="none" stroke="white" stroke-width="1.5" d="M0,-3.0v7 M-2.5,-0.5L0,-3.0L2.5,-0.5"/>
                </g>
        </g>
        <svg viewBox="0 0 15 15" width="100%" height="30px" preserveAspectRatio="xMaxYMin meet">
         <g id="arrow_out" transform="scale(0.3 0.3)">
          <a xlink:href="classx265_1_1Entropy_ada027e64bb3fcdc48c94cefda1bbaba9_cgraph_org.svg" target="_base">
           <rect id="button" ry="5" rx="5" y="6" x="6" height="38" width="38"
                fill="#f2f5e9" fill-opacity="0.5" stroke="#606060" stroke-width="1.0"/>
           <path id="arrow"
             d="M 11.500037,31.436501 C 11.940474,20.09759 22.043105,11.32322 32.158766,21.979434 L 37.068811,17.246167 C 37.068811,17.246167 37.088388,32 37.088388,32 L 22.160133,31.978069 C 22.160133,31.978069 26.997745,27.140456 26.997745,27.140456 C 18.528582,18.264221 13.291696,25.230495 11.500037,31.436501 z"
             style="fill:#404040;"/>
          </a>
         </g>
        </svg>
</svg>
