<?xml version="1.0" encoding="UTF-8" standalone="no"?>
<!DOCTYPE svg PUBLIC "-//W3C//DTD SVG 1.1//EN"
 "http://www.w3.org/Graphics/SVG/1.1/DTD/svg11.dtd">
<!-- Generated by graphviz version 2.36.0 (20140111.2315)
 -->
<!-- Title: x265::Predict::predInterChromaShort Pages: 1 -->
<svg width="476pt" height="104pt"
 viewBox="0.00 0.00 476.00 104.00" xmlns="http://www.w3.org/2000/svg" xmlns:xlink="http://www.w3.org/1999/xlink">
<g id="graph0" class="graph" transform="scale(1 1) rotate(0) translate(4 100)">
<title>x265::Predict::predInterChromaShort</title>
<polygon fill="white" stroke="none" points="-4,4 -4,-100 472,-100 472,4 -4,4"/>
<!-- Node1 -->
<g id="node1" class="node"><title>Node1</title>
<polygon fill="#bfbfbf" stroke="black" points="0.5,-33 0.5,-63 119.5,-63 119.5,-33 0.5,-33"/>
<text text-anchor="start" x="8.5" y="-51" font-family="Helvetica,sans-Serif" font-size="10.00">x265::Predict::predInter</text>
<text text-anchor="middle" x="60" y="-40" font-family="Helvetica,sans-Serif" font-size="10.00">ChromaShort</text>
</g>
<!-- Node2 -->
<g id="node2" class="node"><title>Node2</title>
<g id="a_node2"><a xlink:href="classx265_1_1ShortYuv.html#a6660171fcbce209dfaa6fe73ae4de71c" target="_top" xlink:title="x265::ShortYuv::getCbAddr">
<polygon fill="white" stroke="black" points="156.5,-76.5 156.5,-95.5 293.5,-95.5 293.5,-76.5 156.5,-76.5"/>
<text text-anchor="middle" x="225" y="-83.5" font-family="Helvetica,sans-Serif" font-size="10.00">x265::ShortYuv::getCbAddr</text>
</a>
</g>
</g>
<!-- Node1&#45;&gt;Node2 -->
<g id="edge1" class="edge"><title>Node1&#45;&gt;Node2</title>
<path fill="none" stroke="midnightblue" d="M119.847,-61.7189C137.216,-65.7681 156.076,-70.1649 172.914,-74.0903"/>
<polygon fill="midnightblue" stroke="midnightblue" points="172.571,-77.6043 183.105,-76.4662 174.161,-70.7871 172.571,-77.6043"/>
</g>
<!-- Node4 -->
<g id="node4" class="node"><title>Node4</title>
<g id="a_node4"><a xlink:href="classx265_1_1ShortYuv.html#a6da679101051acbcbab626c848863fa8" target="_top" xlink:title="x265::ShortYuv::getCrAddr">
<polygon fill="white" stroke="black" points="158,-38.5 158,-57.5 292,-57.5 292,-38.5 158,-38.5"/>
<text text-anchor="middle" x="225" y="-45.5" font-family="Helvetica,sans-Serif" font-size="10.00">x265::ShortYuv::getCrAddr</text>
</a>
</g>
</g>
<!-- Node1&#45;&gt;Node4 -->
<g id="edge3" class="edge"><title>Node1&#45;&gt;Node4</title>
<path fill="none" stroke="midnightblue" d="M119.847,-48C128.887,-48 138.332,-48 147.685,-48"/>
<polygon fill="midnightblue" stroke="midnightblue" points="147.775,-51.5001 157.775,-48 147.775,-44.5001 147.775,-51.5001"/>
</g>
<!-- Node5 -->
<g id="node5" class="node"><title>Node5</title>
<g id="a_node5"><a xlink:href="namespacex265.html#a93e053711da89baf3e987bf83cbd55a3" target="_top" xlink:title="x265::partitionFromSizes">
<polygon fill="white" stroke="black" points="162.5,-0.5 162.5,-19.5 287.5,-19.5 287.5,-0.5 162.5,-0.5"/>
<text text-anchor="middle" x="225" y="-7.5" font-family="Helvetica,sans-Serif" font-size="10.00">x265::partitionFromSizes</text>
</a>
</g>
</g>
<!-- Node1&#45;&gt;Node5 -->
<g id="edge5" class="edge"><title>Node1&#45;&gt;Node5</title>
<path fill="none" stroke="midnightblue" d="M119.847,-34.2811C137.216,-30.2319 156.076,-25.8351 172.914,-21.9097"/>
<polygon fill="midnightblue" stroke="midnightblue" points="174.161,-25.2129 183.105,-19.5338 172.571,-18.3957 174.161,-25.2129"/>
</g>
<!-- Node3 -->
<g id="node3" class="node"><title>Node3</title>
<g id="a_node3"><a xlink:href="classx265_1_1ShortYuv.html#a9249fde852269aaff4406515274bcf9d" target="_top" xlink:title="x265::ShortYuv::getChroma\lAddrOffset">
<polygon fill="white" stroke="black" points="330,-52 330,-82 468,-82 468,-52 330,-52"/>
<text text-anchor="start" x="338" y="-70" font-family="Helvetica,sans-Serif" font-size="10.00">x265::ShortYuv::getChroma</text>
<text text-anchor="middle" x="399" y="-59" font-family="Helvetica,sans-Serif" font-size="10.00">AddrOffset</text>
</a>
</g>
</g>
<!-- Node2&#45;&gt;Node3 -->
<g id="edge2" class="edge"><title>Node2&#45;&gt;Node3</title>
<path fill="none" stroke="midnightblue" d="M293.979,-78.4907C302.483,-77.5513 311.233,-76.5848 319.876,-75.63"/>
<polygon fill="midnightblue" stroke="midnightblue" points="320.396,-79.0939 329.952,-74.517 319.628,-72.1362 320.396,-79.0939"/>
</g>
<!-- Node4&#45;&gt;Node3 -->
<g id="edge4" class="edge"><title>Node4&#45;&gt;Node3</title>
<path fill="none" stroke="midnightblue" d="M292.008,-55.2916C301.122,-56.2983 310.553,-57.3401 319.86,-58.3683"/>
<polygon fill="midnightblue" stroke="midnightblue" points="319.566,-61.857 329.89,-59.4762 320.335,-54.8993 319.566,-61.857"/>
</g>
</g>
</svg>
