<?xml version="1.0" encoding="UTF-8" standalone="no"?>
<!DOCTYPE svg PUBLIC "-//W3C//DTD SVG 1.1//EN"
 "http://www.w3.org/Graphics/SVG/1.1/DTD/svg11.dtd">
<!-- Generated by graphviz version 2.36.0 (20140111.2315)
 -->
<!-- Title: x265::Encoder::printSummary Pages: 1 -->
<svg width="442pt" height="66pt"
 viewBox="0.00 0.00 442.00 66.00" xmlns="http://www.w3.org/2000/svg" xmlns:xlink="http://www.w3.org/1999/xlink">
<g id="graph0" class="graph" transform="scale(1 1) rotate(0) translate(4 62)">
<title>x265::Encoder::printSummary</title>
<polygon fill="white" stroke="none" points="-4,4 -4,-62 438,-62 438,4 -4,4"/>
<!-- Node1 -->
<g id="node1" class="node"><title>Node1</title>
<polygon fill="#bfbfbf" stroke="black" points="0,-19.5 0,-38.5 146,-38.5 146,-19.5 0,-19.5"/>
<text text-anchor="middle" x="73" y="-26.5" font-family="Helvetica,sans-Serif" font-size="10.00">x265::Encoder::printSummary</text>
</g>
<!-- Node2 -->
<g id="node2" class="node"><title>Node2</title>
<g id="a_node2"><a xlink:href="common_8cpp.html#a746489f014374f963df715ddf9bd3986" target="_top" xlink:title="x265_log">
<polygon fill="white" stroke="black" points="221,-38.5 221,-57.5 277,-57.5 277,-38.5 221,-38.5"/>
<text text-anchor="middle" x="249" y="-45.5" font-family="Helvetica,sans-Serif" font-size="10.00">x265_log</text>
</a>
</g>
</g>
<!-- Node1&#45;&gt;Node2 -->
<g id="edge1" class="edge"><title>Node1&#45;&gt;Node2</title>
<path fill="none" stroke="midnightblue" d="M146.028,-36.8652C168.274,-39.2943 191.866,-41.8704 210.749,-43.9323"/>
<polygon fill="midnightblue" stroke="midnightblue" points="210.395,-47.4145 220.716,-45.0207 211.155,-40.4558 210.395,-47.4145"/>
</g>
<!-- Node3 -->
<g id="node3" class="node"><title>Node3</title>
<g id="a_node3"><a xlink:href="classx265_1_1Encoder.html#a894de09381dd095e1a2fac58e4d3b05c" target="_top" xlink:title="x265::Encoder::statsString">
<polygon fill="white" stroke="black" points="182.5,-0.5 182.5,-19.5 315.5,-19.5 315.5,-0.5 182.5,-0.5"/>
<text text-anchor="middle" x="249" y="-7.5" font-family="Helvetica,sans-Serif" font-size="10.00">x265::Encoder::statsString</text>
</a>
</g>
</g>
<!-- Node1&#45;&gt;Node3 -->
<g id="edge2" class="edge"><title>Node1&#45;&gt;Node3</title>
<path fill="none" stroke="midnightblue" d="M146.028,-21.1348C154.697,-20.1883 163.57,-19.2194 172.289,-18.2673"/>
<polygon fill="midnightblue" stroke="midnightblue" points="172.872,-21.7246 182.433,-17.1597 172.112,-14.7659 172.872,-21.7246"/>
</g>
<!-- Node4 -->
<g id="node4" class="node"><title>Node4</title>
<g id="a_node4"><a xlink:href="common_8cpp.html#ab040d4574139b69ca049c4d5d0ab1d23" target="_top" xlink:title="x265_ssim2dB">
<polygon fill="white" stroke="black" points="352.5,-0.5 352.5,-19.5 433.5,-19.5 433.5,-0.5 352.5,-0.5"/>
<text text-anchor="middle" x="393" y="-7.5" font-family="Helvetica,sans-Serif" font-size="10.00">x265_ssim2dB</text>
</a>
</g>
</g>
<!-- Node3&#45;&gt;Node4 -->
<g id="edge3" class="edge"><title>Node3&#45;&gt;Node4</title>
<path fill="none" stroke="midnightblue" d="M315.596,-10C324.483,-10 333.482,-10 342.034,-10"/>
<polygon fill="midnightblue" stroke="midnightblue" points="342.206,-13.5001 352.206,-10 342.206,-6.5001 342.206,-13.5001"/>
</g>
</g>
</svg>
