<?xml version="1.0" encoding="UTF-8" standalone="no"?>
<!DOCTYPE svg PUBLIC "-//W3C//DTD SVG 1.1//EN"
 "http://www.w3.org/Graphics/SVG/1.1/DTD/svg11.dtd">
<!-- Generated by graphviz version 2.36.0 (20140111.2315)
 -->
<!-- Title: x265::Entropy::codeCoeff Pages: 1 -->
<!--zoomable 800 -->
<svg id="main" version="1.1" xmlns="http://www.w3.org/2000/svg" xmlns:xlink="http://www.w3.org/1999/xlink" xml:space="preserve" onload="init(evt)">
<style type="text/css"><![CDATA[
.edge:hover path { stroke: red; }
.edge:hover polygon { stroke: red; fill: red; }
]]></style>
<script type="text/javascript"><![CDATA[
var edges = document.getElementsByTagName('g');
if (edges && edges.length) {
  for (var i=0;i<edges.length;i++) {
    if (edges[i].id.substr(0,4)=='edge') {
      edges[i].setAttribute('class','edge');
    }
  }
}
]]></script>
        <defs>
                <circle id="rim" cx="0" cy="0" r="7"/>
                <circle id="rim2" cx="0" cy="0" r="3.5"/>
                <g id="zoomPlus">
                        <use xlink:href="#rim" fill="#404040">
                                <set attributeName="fill" to="#808080" begin="zoomplus.mouseover" end="zoomplus.mouseout"/>
                        </use>
                        <path d="M-4,0h8M0,-4v8" fill="none" stroke="white" stroke-width="1.5" pointer-events="none"/>
                </g>
                <g id="zoomMin">
                        <use xlink:href="#rim" fill="#404040">
                                <set attributeName="fill" to="#808080" begin="zoomminus.mouseover" end="zoomminus.mouseout"/>
                        </use>
                        <path d="M-4,0h8" fill="none" stroke="white" stroke-width="1.5" pointer-events="none"/>
                </g>
                <g id="dirArrow">
                        <path fill="none" stroke="white" stroke-width="1.5" d="M0,-3.0v7 M-2.5,-0.5L0,-3.0L2.5,-0.5"/>
                </g>
               <g id="resetDef">
                       <use xlink:href="#rim2" fill="#404040">
                               <set attributeName="fill" to="#808080" begin="reset.mouseover" end="reset.mouseout"/>
                       </use>
               </g>
        </defs>

<script type="text/javascript">
var viewWidth = 1260;
var viewHeight = 800;
var sectionId = 'dynsection-5';
</script>
<script xlink:href="svgpan.js"/>
<svg id="graph" class="graph">
<g id="viewport">
<title>x265::Entropy::codeCoeff</title>
<polygon fill="white" stroke="none" points="-4,4 -4,-795.978 1256,-795.978 1256,4 -4,4"/>
<!-- Node1 -->
<g id="node1" class="node"><title>Node1</title>
<polygon fill="#bfbfbf" stroke="black" points="0,-287.5 0,-306.5 128,-306.5 128,-287.5 0,-287.5"/>
<text text-anchor="middle" x="64" y="-294.5" font-family="Helvetica,sans-Serif" font-size="10.00">x265::Entropy::codeCoeff</text>
</g>
<!-- Node2 -->
<g id="node2" class="node"><title>Node2</title>
<g id="a_node2"><a xlink:href="classx265_1_1CUData.html#a4de1cda97a0a06196c9f6ac92d6829a2" target="_top" xlink:title="x265::CUData::isIntra">
<polygon fill="white" stroke="black" points="800.5,-770.5 800.5,-789.5 913.5,-789.5 913.5,-770.5 800.5,-770.5"/>
<text text-anchor="middle" x="857" y="-777.5" font-family="Helvetica,sans-Serif" font-size="10.00">x265::CUData::isIntra</text>
</a>
</g>
</g>
<!-- Node1&#45;&gt;Node2 -->
<g id="edge1" class="edge"><title>Node1&#45;&gt;Node2</title>
<path fill="none" stroke="midnightblue" d="M71.28,-306.75C108.661,-363.798 308.717,-655.507 558,-763 632.712,-795.217 727.875,-794.31 790.299,-788.792"/>
<polygon fill="midnightblue" stroke="midnightblue" points="790.787,-792.261 800.411,-787.832 790.125,-785.292 790.787,-792.261"/>
</g>
<!-- Node3 -->
<g id="node3" class="node"><title>Node3</title>
<g id="a_node3"><a xlink:href="classx265_1_1Entropy.html#a208ef7972bc8ecb973084e8d8db0bf31" target="_top" xlink:title="x265::Entropy::codeQtRootCbf">
<polygon fill="white" stroke="black" points="168,-268.5 168,-287.5 320,-287.5 320,-268.5 168,-268.5"/>
<text text-anchor="middle" x="244" y="-275.5" font-family="Helvetica,sans-Serif" font-size="10.00">x265::Entropy::codeQtRootCbf</text>
</a>
</g>
</g>
<!-- Node1&#45;&gt;Node3 -->
<g id="edge2" class="edge"><title>Node1&#45;&gt;Node3</title>
<path fill="none" stroke="midnightblue" d="M128.007,-290.275C137.683,-289.242 147.808,-288.161 157.867,-287.087"/>
<polygon fill="midnightblue" stroke="midnightblue" points="158.313,-290.56 167.885,-286.018 157.57,-283.599 158.313,-290.56"/>
</g>
<!-- Node7 -->
<g id="node7" class="node"><title>Node7</title>
<g id="a_node7"><a xlink:href="classx265_1_1CUData.html#a1e8c1eda7e231326488075ea927df481" target="_top" xlink:title="x265::CUData::getQtRootCbf">
<polygon fill="white" stroke="black" points="171,-230.5 171,-249.5 317,-249.5 317,-230.5 171,-230.5"/>
<text text-anchor="middle" x="244" y="-237.5" font-family="Helvetica,sans-Serif" font-size="10.00">x265::CUData::getQtRootCbf</text>
</a>
</g>
</g>
<!-- Node1&#45;&gt;Node7 -->
<g id="edge6" class="edge"><title>Node1&#45;&gt;Node7</title>
<path fill="none" stroke="midnightblue" d="M87.5102,-287.392C107.386,-279.143 137.277,-267.303 164,-259 172.036,-256.503 180.617,-254.138 189.052,-251.979"/>
<polygon fill="midnightblue" stroke="midnightblue" points="189.987,-255.353 198.847,-249.544 188.297,-248.56 189.987,-255.353"/>
</g>
<!-- Node8 -->
<g id="node8" class="node"><title>Node8</title>
<g id="a_node8"><a xlink:href="classx265_1_1Entropy.html#af0793a415273d86dc38b396dae9f9db3" target="_top" xlink:title="x265::Entropy::encodeTransform">
<polygon fill="white" stroke="black" points="164.5,-306.5 164.5,-325.5 323.5,-325.5 323.5,-306.5 164.5,-306.5"/>
<text text-anchor="middle" x="244" y="-313.5" font-family="Helvetica,sans-Serif" font-size="10.00">x265::Entropy::encodeTransform</text>
</a>
</g>
</g>
<!-- Node1&#45;&gt;Node8 -->
<g id="edge7" class="edge"><title>Node1&#45;&gt;Node8</title>
<path fill="none" stroke="midnightblue" d="M128.007,-303.725C136.581,-304.641 145.508,-305.594 154.429,-306.546"/>
<polygon fill="midnightblue" stroke="midnightblue" points="154.165,-310.037 164.48,-307.619 154.908,-303.077 154.165,-310.037"/>
</g>
<!-- Node4 -->
<g id="node4" class="node"><title>Node4</title>
<g id="a_node4"><a xlink:href="classx265_1_1Entropy.html#ad5bd127b6afa68ee4408890c75fdd4bd" target="_top" xlink:title="x265::Entropy::encodeBin">
<polygon fill="white" stroke="black" points="792.5,-296.5 792.5,-315.5 921.5,-315.5 921.5,-296.5 792.5,-296.5"/>
<text text-anchor="middle" x="857" y="-303.5" font-family="Helvetica,sans-Serif" font-size="10.00">x265::Entropy::encodeBin</text>
</a>
</g>
</g>
<!-- Node3&#45;&gt;Node4 -->
<g id="edge3" class="edge"><title>Node3&#45;&gt;Node4</title>
<path fill="none" stroke="midnightblue" d="M305.17,-268.381C311.826,-265.928 318.262,-262.854 324,-259 346.732,-243.733 335.628,-221.484 360,-209 389.353,-193.965 720.725,-210.061 740,-217 781.508,-231.943 820.121,-267.617 840.639,-288.986"/>
<polygon fill="midnightblue" stroke="midnightblue" points="838.194,-291.496 847.585,-296.402 843.304,-286.711 838.194,-291.496"/>
</g>
<!-- Node5 -->
<g id="node5" class="node"><title>Node5</title>
<g id="a_node5"><a xlink:href="classx265_1_1Entropy.html#a38c906d03fe47f10456a3d5bc0cd2080" target="_top" xlink:title="x265::Entropy::writeOut">
<polygon fill="white" stroke="black" points="988,-296.5 988,-315.5 1108,-315.5 1108,-296.5 988,-296.5"/>
<text text-anchor="middle" x="1048" y="-303.5" font-family="Helvetica,sans-Serif" font-size="10.00">x265::Entropy::writeOut</text>
</a>
</g>
</g>
<!-- Node4&#45;&gt;Node5 -->
<g id="edge4" class="edge"><title>Node4&#45;&gt;Node5</title>
<path fill="none" stroke="midnightblue" d="M921.723,-306C939.717,-306 959.382,-306 977.687,-306"/>
<polygon fill="midnightblue" stroke="midnightblue" points="977.697,-309.5 987.697,-306 977.697,-302.5 977.697,-309.5"/>
</g>
<!-- Node6 -->
<g id="node6" class="node"><title>Node6</title>
<g id="a_node6"><a xlink:href="classx265_1_1BitInterface.html#a0ab2614d14b086091eefc0ed19f3be6d" target="_top" xlink:title="x265::BitInterface\l::writeByte">
<polygon fill="white" stroke="black" points="1158,-291 1158,-321 1252,-321 1252,-291 1158,-291"/>
<text text-anchor="start" x="1166" y="-309" font-family="Helvetica,sans-Serif" font-size="10.00">x265::BitInterface</text>
<text text-anchor="middle" x="1205" y="-298" font-family="Helvetica,sans-Serif" font-size="10.00">::writeByte</text>
</a>
</g>
</g>
<!-- Node5&#45;&gt;Node6 -->
<g id="edge5" class="edge"><title>Node5&#45;&gt;Node6</title>
<path fill="none" stroke="midnightblue" d="M1108.04,-306C1121,-306 1134.69,-306 1147.55,-306"/>
<polygon fill="midnightblue" stroke="midnightblue" points="1147.65,-309.5 1157.65,-306 1147.65,-302.5 1147.65,-309.5"/>
</g>
<!-- Node9 -->
<g id="node9" class="node"><title>Node9</title>
<g id="a_node9"><a xlink:href="classx265_1_1CUData.html#ae01b9f17830903cc264ddb26b18ed4a0" target="_top" xlink:title="x265::CUData::getCbf">
<polygon fill="white" stroke="black" points="591.5,-334.5 591.5,-353.5 706.5,-353.5 706.5,-334.5 591.5,-334.5"/>
<text text-anchor="middle" x="649" y="-341.5" font-family="Helvetica,sans-Serif" font-size="10.00">x265::CUData::getCbf</text>
</a>
</g>
</g>
<!-- Node8&#45;&gt;Node9 -->
<g id="edge8" class="edge"><title>Node8&#45;&gt;Node9</title>
<path fill="none" stroke="midnightblue" d="M266.948,-325.593C289.708,-334.978 326.577,-348.621 360,-354 435.021,-366.074 522.396,-360.301 581.061,-353.609"/>
<polygon fill="midnightblue" stroke="midnightblue" points="581.788,-357.047 591.308,-352.397 580.966,-350.095 581.788,-357.047"/>
</g>
<!-- Node10 -->
<g id="node10" class="node"><title>Node10</title>
<g id="a_node10"><a xlink:href="classx265_1_1Entropy.html#a0052cf59b3cef0daf2f76cb510dd5846" target="_top" xlink:title="x265::Entropy::codeTransform\lSubdivFlag">
<polygon fill="white" stroke="black" points="366.5,-219 366.5,-249 515.5,-249 515.5,-219 366.5,-219"/>
<text text-anchor="start" x="374.5" y="-237" font-family="Helvetica,sans-Serif" font-size="10.00">x265::Entropy::codeTransform</text>
<text text-anchor="middle" x="441" y="-226" font-family="Helvetica,sans-Serif" font-size="10.00">SubdivFlag</text>
</a>
</g>
</g>
<!-- Node8&#45;&gt;Node10 -->
<g id="edge9" class="edge"><title>Node8&#45;&gt;Node10</title>
<path fill="none" stroke="midnightblue" d="M293.656,-306.415C303.833,-303.825 314.387,-300.693 324,-297 328.229,-295.376 371.494,-271.72 403.957,-253.87"/>
<polygon fill="midnightblue" stroke="midnightblue" points="405.711,-256.9 412.785,-249.013 402.336,-250.767 405.711,-256.9"/>
</g>
<!-- Node11 -->
<g id="node11" class="node"><title>Node11</title>
<g id="a_node11"><a xlink:href="classx265_1_1Entropy.html#af86f84f10bd0d83bed8f158a1abb2453" target="_top" xlink:title="x265::Entropy::codeQtCbf">
<polygon fill="white" stroke="black" points="375.5,-287.5 375.5,-306.5 506.5,-306.5 506.5,-287.5 375.5,-287.5"/>
<text text-anchor="middle" x="441" y="-294.5" font-family="Helvetica,sans-Serif" font-size="10.00">x265::Entropy::codeQtCbf</text>
</a>
</g>
</g>
<!-- Node8&#45;&gt;Node11 -->
<g id="edge11" class="edge"><title>Node8&#45;&gt;Node11</title>
<path fill="none" stroke="midnightblue" d="M323.752,-308.327C337.397,-306.997 351.552,-305.618 365.092,-304.299"/>
<polygon fill="midnightblue" stroke="midnightblue" points="365.694,-307.757 375.307,-303.303 365.015,-300.79 365.694,-307.757"/>
</g>
<!-- Node12 -->
<g id="node12" class="node"><title>Node12</title>
<g id="a_node12"><a xlink:href="classx265_1_1Entropy.html#af4ab096830911ac48684ea5258cea013" target="_top" xlink:title="x265::Entropy::codeDeltaQP">
<polygon fill="white" stroke="black" points="370,-126.5 370,-145.5 512,-145.5 512,-126.5 370,-126.5"/>
<text text-anchor="middle" x="441" y="-133.5" font-family="Helvetica,sans-Serif" font-size="10.00">x265::Entropy::codeDeltaQP</text>
</a>
</g>
</g>
<!-- Node8&#45;&gt;Node12 -->
<g id="edge14" class="edge"><title>Node8&#45;&gt;Node12</title>
<path fill="none" stroke="midnightblue" d="M308.893,-306.455C314.357,-303.962 319.504,-300.859 324,-297 356.067,-269.479 335.802,-243.643 360,-209 376.007,-186.083 400.404,-165.164 418.047,-151.651"/>
<polygon fill="midnightblue" stroke="midnightblue" points="420.182,-154.424 426.099,-145.636 415.993,-148.816 420.182,-154.424"/>
</g>
<!-- Node23 -->
<g id="node23" class="node"><title>Node23</title>
<g id="a_node23"><a xlink:href="classx265_1_1Entropy.html#a955a0c3b2662c4af07b55b071370136b" target="_top" xlink:title="x265::Entropy::codeCoeffNxN">
<polygon fill="white" stroke="black" points="366.5,-528.5 366.5,-547.5 515.5,-547.5 515.5,-528.5 366.5,-528.5"/>
<text text-anchor="middle" x="441" y="-535.5" font-family="Helvetica,sans-Serif" font-size="10.00">x265::Entropy::codeCoeffNxN</text>
</a>
</g>
</g>
<!-- Node8&#45;&gt;Node23 -->
<g id="edge31" class="edge"><title>Node8&#45;&gt;Node23</title>
<path fill="none" stroke="midnightblue" d="M253.379,-325.539C283.444,-359.767 386.161,-476.707 424.98,-520.9"/>
<polygon fill="midnightblue" stroke="midnightblue" points="422.423,-523.293 431.652,-528.496 427.682,-518.673 422.423,-523.293"/>
</g>
<!-- Node32 -->
<g id="node32" class="node"><title>Node32</title>
<g id="a_node32"><a xlink:href="structx265_1_1TURecurse.html#a57a0734e9b32d88376eaec732b751d0f" target="_top" xlink:title="x265::TURecurse::isNextSection">
<polygon fill="white" stroke="black" points="360.5,-325.5 360.5,-344.5 521.5,-344.5 521.5,-325.5 360.5,-325.5"/>
<text text-anchor="middle" x="441" y="-332.5" font-family="Helvetica,sans-Serif" font-size="10.00">x265::TURecurse::isNextSection</text>
</a>
</g>
</g>
<!-- Node8&#45;&gt;Node32 -->
<g id="edge47" class="edge"><title>Node8&#45;&gt;Node32</title>
<path fill="none" stroke="midnightblue" d="M323.752,-323.673C332.507,-324.526 341.472,-325.4 350.349,-326.265"/>
<polygon fill="midnightblue" stroke="midnightblue" points="350.027,-329.75 360.319,-327.236 350.706,-322.783 350.027,-329.75"/>
</g>
<!-- Node10&#45;&gt;Node4 -->
<g id="edge10" class="edge"><title>Node10&#45;&gt;Node4</title>
<path fill="none" stroke="midnightblue" d="M515.758,-224.228C576.999,-218.588 665.771,-216.19 740,-237 777.281,-247.452 814.762,-273.157 836.653,-290.071"/>
<polygon fill="midnightblue" stroke="midnightblue" points="834.76,-293.036 844.773,-296.498 839.105,-287.547 834.76,-293.036"/>
</g>
<!-- Node11&#45;&gt;Node4 -->
<g id="edge13" class="edge"><title>Node11&#45;&gt;Node4</title>
<path fill="none" stroke="midnightblue" d="M506.688,-298.406C581.34,-300.029 703.854,-302.692 782.173,-304.395"/>
<polygon fill="midnightblue" stroke="midnightblue" points="782.372,-307.9 792.446,-304.618 782.524,-300.902 782.372,-307.9"/>
</g>
<!-- Node11&#45;&gt;Node9 -->
<g id="edge12" class="edge"><title>Node11&#45;&gt;Node9</title>
<path fill="none" stroke="midnightblue" d="M483.687,-306.511C516.109,-313.908 561.275,-324.213 596.05,-332.147"/>
<polygon fill="midnightblue" stroke="midnightblue" points="595.494,-335.61 606.022,-334.422 597.051,-328.786 595.494,-335.61"/>
</g>
<!-- Node13 -->
<g id="node13" class="node"><title>Node13</title>
<g id="a_node13"><a xlink:href="classx265_1_1CUData.html#a83aa8547b59c61d599373675ddb0ace4" target="_top" xlink:title="x265::CUData::getRefQP">
<polygon fill="white" stroke="black" points="584.5,-44.5 584.5,-63.5 713.5,-63.5 713.5,-44.5 584.5,-44.5"/>
<text text-anchor="middle" x="649" y="-51.5" font-family="Helvetica,sans-Serif" font-size="10.00">x265::CUData::getRefQP</text>
</a>
</g>
</g>
<!-- Node12&#45;&gt;Node13 -->
<g id="edge15" class="edge"><title>Node12&#45;&gt;Node13</title>
<path fill="none" stroke="midnightblue" d="M458.424,-126.447C480.476,-113.937 521.152,-91.959 558,-78 569.813,-73.5248 582.797,-69.5461 595.137,-66.1775"/>
<polygon fill="midnightblue" stroke="midnightblue" points="596.087,-69.5469 604.861,-63.609 594.299,-62.779 596.087,-69.5469"/>
</g>
<!-- Node19 -->
<g id="node19" class="node"><title>Node19</title>
<g id="a_node19"><a xlink:href="classx265_1_1Entropy.html#ab2f9a032714666f66b8e1da1f4ed92c2" target="_top" xlink:title="x265::Entropy::writeUnary\lMaxSymbol">
<polygon fill="white" stroke="black" points="583.5,-121 583.5,-151 714.5,-151 714.5,-121 583.5,-121"/>
<text text-anchor="start" x="591.5" y="-139" font-family="Helvetica,sans-Serif" font-size="10.00">x265::Entropy::writeUnary</text>
<text text-anchor="middle" x="649" y="-128" font-family="Helvetica,sans-Serif" font-size="10.00">MaxSymbol</text>
</a>
</g>
</g>
<!-- Node12&#45;&gt;Node19 -->
<g id="edge24" class="edge"><title>Node12&#45;&gt;Node19</title>
<path fill="none" stroke="midnightblue" d="M512.03,-136C531.696,-136 553.156,-136 573.094,-136"/>
<polygon fill="midnightblue" stroke="midnightblue" points="573.365,-139.5 583.365,-136 573.365,-132.5 573.365,-139.5"/>
</g>
<!-- Node20 -->
<g id="node20" class="node"><title>Node20</title>
<g id="a_node20"><a xlink:href="classx265_1_1Entropy.html#a1dcd536d7412a6e572c1c76f43914366" target="_top" xlink:title="x265::Entropy::writeEpEx\lGolomb">
<polygon fill="white" stroke="black" points="585,-247 585,-277 713,-277 713,-247 585,-247"/>
<text text-anchor="start" x="593" y="-265" font-family="Helvetica,sans-Serif" font-size="10.00">x265::Entropy::writeEpEx</text>
<text text-anchor="middle" x="649" y="-254" font-family="Helvetica,sans-Serif" font-size="10.00">Golomb</text>
</a>
</g>
</g>
<!-- Node12&#45;&gt;Node20 -->
<g id="edge26" class="edge"><title>Node12&#45;&gt;Node20</title>
<path fill="none" stroke="midnightblue" d="M457.822,-145.678C491.228,-166.11 569.572,-214.03 614.592,-241.566"/>
<polygon fill="midnightblue" stroke="midnightblue" points="613.04,-244.719 623.397,-246.951 616.692,-238.748 613.04,-244.719"/>
</g>
<!-- Node22 -->
<g id="node22" class="node"><title>Node22</title>
<g id="a_node22"><a xlink:href="classx265_1_1Entropy.html#aeb3460dd06c9b37356040eeb108a3e98" target="_top" xlink:title="x265::Entropy::encodeBinEP">
<polygon fill="white" stroke="black" points="785.5,-201.5 785.5,-220.5 928.5,-220.5 928.5,-201.5 785.5,-201.5"/>
<text text-anchor="middle" x="857" y="-208.5" font-family="Helvetica,sans-Serif" font-size="10.00">x265::Entropy::encodeBinEP</text>
</a>
</g>
</g>
<!-- Node12&#45;&gt;Node22 -->
<g id="edge29" class="edge"><title>Node12&#45;&gt;Node22</title>
<path fill="none" stroke="midnightblue" d="M468.531,-126.412C521.869,-108.702 645.099,-75.7408 740,-111 763.04,-119.56 813.299,-167.909 839.448,-194.114"/>
<polygon fill="midnightblue" stroke="midnightblue" points="837.209,-196.826 846.733,-201.467 842.182,-191.9 837.209,-196.826"/>
</g>
<!-- Node14 -->
<g id="node14" class="node"><title>Node14</title>
<g id="a_node14"><a xlink:href="classx265_1_1CUData.html#ae9dcb94237b038dd32853d63a5f15fba" target="_top" xlink:title="x265::CUData::getQpMinCuLeft">
<polygon fill="white" stroke="black" points="778.5,-0.5 778.5,-19.5 935.5,-19.5 935.5,-0.5 778.5,-0.5"/>
<text text-anchor="middle" x="857" y="-7.5" font-family="Helvetica,sans-Serif" font-size="10.00">x265::CUData::getQpMinCuLeft</text>
</a>
</g>
</g>
<!-- Node13&#45;&gt;Node14 -->
<g id="edge16" class="edge"><title>Node13&#45;&gt;Node14</title>
<path fill="none" stroke="midnightblue" d="M694.699,-44.4527C726.013,-37.7643 768.046,-28.7863 801.353,-21.6721"/>
<polygon fill="midnightblue" stroke="midnightblue" points="802.34,-25.0404 811.388,-19.5287 800.878,-18.1948 802.34,-25.0404"/>
</g>
<!-- Node16 -->
<g id="node16" class="node"><title>Node16</title>
<g id="a_node16"><a xlink:href="classx265_1_1CUData.html#ae23527f57eb862ea1bbe255e4bcf7d07" target="_top" xlink:title="x265::CUData::getQpMinCu\lAbove">
<polygon fill="white" stroke="black" points="787,-39 787,-69 927,-69 927,-39 787,-39"/>
<text text-anchor="start" x="795" y="-57" font-family="Helvetica,sans-Serif" font-size="10.00">x265::CUData::getQpMinCu</text>
<text text-anchor="middle" x="857" y="-46" font-family="Helvetica,sans-Serif" font-size="10.00">Above</text>
</a>
</g>
</g>
<!-- Node13&#45;&gt;Node16 -->
<g id="edge18" class="edge"><title>Node13&#45;&gt;Node16</title>
<path fill="none" stroke="midnightblue" d="M713.769,-54C733.672,-54 755.873,-54 776.706,-54"/>
<polygon fill="midnightblue" stroke="midnightblue" points="776.807,-57.5001 786.807,-54 776.807,-50.5001 776.807,-57.5001"/>
</g>
<!-- Node17 -->
<g id="node17" class="node"><title>Node17</title>
<g id="a_node17"><a xlink:href="classx265_1_1CUData.html#a31d1cef3ddd2a8e40d62b43f47ea73da" target="_top" xlink:title="x265::CUData::getLastCodedQP">
<polygon fill="white" stroke="black" points="776.5,-88.5 776.5,-107.5 937.5,-107.5 937.5,-88.5 776.5,-88.5"/>
<text text-anchor="middle" x="857" y="-95.5" font-family="Helvetica,sans-Serif" font-size="10.00">x265::CUData::getLastCodedQP</text>
</a>
</g>
</g>
<!-- Node13&#45;&gt;Node17 -->
<g id="edge20" class="edge"><title>Node13&#45;&gt;Node17</title>
<path fill="none" stroke="midnightblue" d="M694.699,-63.5473C726.013,-70.2357 768.046,-79.2137 801.353,-86.3279"/>
<polygon fill="midnightblue" stroke="midnightblue" points="800.878,-89.8052 811.388,-88.4713 802.34,-82.9596 800.878,-89.8052"/>
</g>
<!-- Node15 -->
<g id="node15" class="node"><title>Node15</title>
<g id="a_node15"><a xlink:href="classx265_1_1FrameData.html#a83d98df913873a07c3ce59bd5c16b2e4" target="_top" xlink:title="x265::FrameData::getPicCTU">
<polygon fill="white" stroke="black" points="974.5,-44.5 974.5,-63.5 1121.5,-63.5 1121.5,-44.5 974.5,-44.5"/>
<text text-anchor="middle" x="1048" y="-51.5" font-family="Helvetica,sans-Serif" font-size="10.00">x265::FrameData::getPicCTU</text>
</a>
</g>
</g>
<!-- Node14&#45;&gt;Node15 -->
<g id="edge17" class="edge"><title>Node14&#45;&gt;Node15</title>
<path fill="none" stroke="midnightblue" d="M899.01,-19.5473C927.492,-26.1781 965.64,-35.0591 996.071,-42.1435"/>
<polygon fill="midnightblue" stroke="midnightblue" points="995.537,-45.6126 1006.07,-44.4713 997.124,-38.795 995.537,-45.6126"/>
</g>
<!-- Node16&#45;&gt;Node15 -->
<g id="edge19" class="edge"><title>Node16&#45;&gt;Node15</title>
<path fill="none" stroke="midnightblue" d="M927.036,-54C939.064,-54 951.686,-54 964.042,-54"/>
<polygon fill="midnightblue" stroke="midnightblue" points="964.338,-57.5001 974.338,-54 964.338,-50.5001 964.338,-57.5001"/>
</g>
<!-- Node17&#45;&gt;Node15 -->
<g id="edge22" class="edge"><title>Node17&#45;&gt;Node15</title>
<path fill="none" stroke="midnightblue" d="M899.01,-88.4527C927.492,-81.8219 965.64,-72.9409 996.071,-65.8565"/>
<polygon fill="midnightblue" stroke="midnightblue" points="997.124,-69.205 1006.07,-63.5287 995.537,-62.3874 997.124,-69.205"/>
</g>
<!-- Node17&#45;&gt;Node17 -->
<g id="edge23" class="edge"><title>Node17&#45;&gt;Node17</title>
<path fill="none" stroke="midnightblue" d="M827.715,-107.757C813.469,-116.565 823.23,-126 857,-126 880.744,-126 892.619,-121.336 892.625,-115.504"/>
<polygon fill="midnightblue" stroke="midnightblue" points="895.327,-113.279 886.285,-107.757 889.909,-117.712 895.327,-113.279"/>
</g>
<!-- Node18 -->
<g id="node18" class="node"><title>Node18</title>
<g id="a_node18"><a xlink:href="classx265_1_1CUData.html#a188a753316fed86e3aec507f7e522875" target="_top" xlink:title="x265::CUData::getLastValid\lPartIdx">
<polygon fill="white" stroke="black" points="978,-83 978,-113 1118,-113 1118,-83 978,-83"/>
<text text-anchor="start" x="986" y="-101" font-family="Helvetica,sans-Serif" font-size="10.00">x265::CUData::getLastValid</text>
<text text-anchor="middle" x="1048" y="-90" font-family="Helvetica,sans-Serif" font-size="10.00">PartIdx</text>
</a>
</g>
</g>
<!-- Node17&#45;&gt;Node18 -->
<g id="edge21" class="edge"><title>Node17&#45;&gt;Node18</title>
<path fill="none" stroke="midnightblue" d="M937.605,-98C947.564,-98 957.748,-98 967.702,-98"/>
<polygon fill="midnightblue" stroke="midnightblue" points="967.972,-101.5 977.972,-98 967.972,-94.5001 967.972,-101.5"/>
</g>
<!-- Node19&#45;&gt;Node4 -->
<g id="edge25" class="edge"><title>Node19&#45;&gt;Node4</title>
<path fill="none" stroke="midnightblue" d="M714.549,-150.964C723.686,-154.886 732.506,-159.814 740,-166 765.168,-186.776 755.946,-204.252 776,-230 793.905,-252.99 818.777,-275.491 836.014,-289.968"/>
<polygon fill="midnightblue" stroke="midnightblue" points="833.86,-292.728 843.799,-296.397 838.317,-287.331 833.86,-292.728"/>
</g>
<!-- Node21 -->
<g id="node21" class="node"><title>Node21</title>
<g id="a_node21"><a xlink:href="classx265_1_1Entropy.html#ac9e06099bfcb9f576565d6d5a0e3205f" target="_top" xlink:title="x265::Entropy::encodeBinsEP">
<polygon fill="white" stroke="black" points="783,-597.5 783,-616.5 931,-616.5 931,-597.5 783,-597.5"/>
<text text-anchor="middle" x="857" y="-604.5" font-family="Helvetica,sans-Serif" font-size="10.00">x265::Entropy::encodeBinsEP</text>
</a>
</g>
</g>
<!-- Node20&#45;&gt;Node21 -->
<g id="edge27" class="edge"><title>Node20&#45;&gt;Node21</title>
<path fill="none" stroke="midnightblue" d="M680.1,-277.204C699.4,-288.237 723.788,-304.752 740,-325 807.686,-409.535 841.269,-539.036 852.031,-587.661"/>
<polygon fill="midnightblue" stroke="midnightblue" points="848.62,-588.447 854.136,-597.492 855.464,-586.981 848.62,-588.447"/>
</g>
<!-- Node21&#45;&gt;Node5 -->
<g id="edge28" class="edge"><title>Node21&#45;&gt;Node5</title>
<path fill="none" stroke="midnightblue" d="M864.074,-597.326C890.952,-554.521 999.441,-381.743 1035.38,-324.514"/>
<polygon fill="midnightblue" stroke="midnightblue" points="1038.5,-326.119 1040.85,-315.789 1032.57,-322.397 1038.5,-326.119"/>
</g>
<!-- Node22&#45;&gt;Node5 -->
<g id="edge30" class="edge"><title>Node22&#45;&gt;Node5</title>
<path fill="none" stroke="midnightblue" d="M877.162,-220.632C910.644,-237.461 979.928,-272.287 1018.86,-291.857"/>
<polygon fill="midnightblue" stroke="midnightblue" points="1017.56,-295.12 1028.07,-296.484 1020.7,-288.866 1017.56,-295.12"/>
</g>
<!-- Node23&#45;&gt;Node4 -->
<g id="edge41" class="edge"><title>Node23&#45;&gt;Node4</title>
<path fill="none" stroke="midnightblue" d="M451.584,-528.445C470.306,-510.358 513.783,-471.134 558,-451 633.287,-416.718 666.461,-449.888 740,-412 782.982,-389.856 822.049,-347.566 842.02,-323.64"/>
<polygon fill="midnightblue" stroke="midnightblue" points="844.869,-325.685 848.486,-315.727 839.448,-321.256 844.869,-325.685"/>
</g>
<!-- Node23&#45;&gt;Node21 -->
<g id="edge44" class="edge"><title>Node23&#45;&gt;Node21</title>
<path fill="none" stroke="midnightblue" d="M446.502,-547.767C459.368,-574.334 499.188,-647.735 558,-675 631.386,-709.022 661.937,-696.194 740,-675 777.027,-664.947 814.323,-639.774 836.281,-623.039"/>
<polygon fill="midnightblue" stroke="midnightblue" points="838.717,-625.578 844.443,-616.664 834.408,-620.062 838.717,-625.578"/>
</g>
<!-- Node24 -->
<g id="node24" class="node"><title>Node24</title>
<g id="a_node24"><a xlink:href="classx265_1_1Entropy.html#a70146b58f72ab30ab0d0390d54f556c0" target="_top" xlink:title="x265::Entropy::codeTransform\lSkipFlags">
<polygon fill="white" stroke="black" points="574.5,-373 574.5,-403 723.5,-403 723.5,-373 574.5,-373"/>
<text text-anchor="start" x="582.5" y="-391" font-family="Helvetica,sans-Serif" font-size="10.00">x265::Entropy::codeTransform</text>
<text text-anchor="middle" x="649" y="-380" font-family="Helvetica,sans-Serif" font-size="10.00">SkipFlags</text>
</a>
</g>
</g>
<!-- Node23&#45;&gt;Node24 -->
<g id="edge32" class="edge"><title>Node23&#45;&gt;Node24</title>
<path fill="none" stroke="midnightblue" d="M448.696,-528.398C464.882,-505.874 508.473,-449.193 558,-418 564.663,-413.803 571.977,-410.128 579.466,-406.925"/>
<polygon fill="midnightblue" stroke="midnightblue" points="581.018,-410.074 589.01,-403.118 578.424,-403.572 581.018,-410.074"/>
</g>
<!-- Node25 -->
<g id="node25" class="node"><title>Node25</title>
<g id="a_node25"><a xlink:href="classx265_1_1CUData.html#a554b34e5fb607f903b7765bd240c2694" target="_top" xlink:title="x265::CUData::getTUEntropy\lCodingParameters">
<polygon fill="white" stroke="black" points="576,-724 576,-754 722,-754 722,-724 576,-724"/>
<text text-anchor="start" x="584" y="-742" font-family="Helvetica,sans-Serif" font-size="10.00">x265::CUData::getTUEntropy</text>
<text text-anchor="middle" x="649" y="-731" font-family="Helvetica,sans-Serif" font-size="10.00">CodingParameters</text>
</a>
</g>
</g>
<!-- Node23&#45;&gt;Node25 -->
<g id="edge34" class="edge"><title>Node23&#45;&gt;Node25</title>
<path fill="none" stroke="midnightblue" d="M445.9,-547.757C457.984,-576.766 497.661,-663.297 558,-709 563.381,-713.076 569.346,-716.615 575.569,-719.686"/>
<polygon fill="midnightblue" stroke="midnightblue" points="574.28,-722.944 584.835,-723.857 577.153,-716.561 574.28,-722.944"/>
</g>
<!-- Node27 -->
<g id="node27" class="node"><title>Node27</title>
<g id="a_node27"><a xlink:href="classx265_1_1Entropy.html#aa37a5f42bf31dd5234d2fd0298ab37d5" target="_top" xlink:title="x265::Entropy::codeLastSignificantXY">
<polygon fill="white" stroke="black" points="558,-597.5 558,-616.5 740,-616.5 740,-597.5 558,-597.5"/>
<text text-anchor="middle" x="649" y="-604.5" font-family="Helvetica,sans-Serif" font-size="10.00">x265::Entropy::codeLastSignificantXY</text>
</a>
</g>
</g>
<!-- Node23&#45;&gt;Node27 -->
<g id="edge37" class="edge"><title>Node23&#45;&gt;Node27</title>
<path fill="none" stroke="midnightblue" d="M461.702,-547.621C484.454,-558.424 523.222,-575.891 558,-587 567.491,-590.032 577.688,-592.772 587.687,-595.182"/>
<polygon fill="midnightblue" stroke="midnightblue" points="587.053,-598.628 597.585,-597.482 588.637,-591.81 587.053,-598.628"/>
</g>
<!-- Node28 -->
<g id="node28" class="node"><title>Node28</title>
<g id="a_node28"><a xlink:href="classx265_1_1Quant.html#ad178d867a67ea861aad413e8d7d07767" target="_top" xlink:title="x265::Quant::getSigCoeff\lGroupCtxInc">
<polygon fill="white" stroke="black" points="585,-548 585,-578 713,-578 713,-548 585,-548"/>
<text text-anchor="start" x="593" y="-566" font-family="Helvetica,sans-Serif" font-size="10.00">x265::Quant::getSigCoeff</text>
<text text-anchor="middle" x="649" y="-555" font-family="Helvetica,sans-Serif" font-size="10.00">GroupCtxInc</text>
</a>
</g>
</g>
<!-- Node23&#45;&gt;Node28 -->
<g id="edge40" class="edge"><title>Node23&#45;&gt;Node28</title>
<path fill="none" stroke="midnightblue" d="M515.789,-546.955C534.97,-549.283 555.623,-551.789 574.775,-554.113"/>
<polygon fill="midnightblue" stroke="midnightblue" points="574.589,-557.617 584.938,-555.347 575.433,-550.667 574.589,-557.617"/>
</g>
<!-- Node29 -->
<g id="node29" class="node"><title>Node29</title>
<g id="a_node29"><a xlink:href="classx265_1_1Quant.html#aaf517e8c951a76b369006e1f48645e74" target="_top" xlink:title="x265::Quant::calcPattern\lSigCtx">
<polygon fill="white" stroke="black" points="586.5,-499 586.5,-529 711.5,-529 711.5,-499 586.5,-499"/>
<text text-anchor="start" x="594.5" y="-517" font-family="Helvetica,sans-Serif" font-size="10.00">x265::Quant::calcPattern</text>
<text text-anchor="middle" x="649" y="-506" font-family="Helvetica,sans-Serif" font-size="10.00">SigCtx</text>
</a>
</g>
</g>
<!-- Node23&#45;&gt;Node29 -->
<g id="edge42" class="edge"><title>Node23&#45;&gt;Node29</title>
<path fill="none" stroke="midnightblue" d="M515.789,-529.403C535.451,-527.112 556.662,-524.641 576.215,-522.363"/>
<polygon fill="midnightblue" stroke="midnightblue" points="576.744,-525.825 586.272,-521.192 575.934,-518.872 576.744,-525.825"/>
</g>
<!-- Node30 -->
<g id="node30" class="node"><title>Node30</title>
<g id="a_node30"><a xlink:href="classx265_1_1Quant.html#a6fe89a8ebf937d5dbe20c7ac3e3288ad" target="_top" xlink:title="x265::Quant::getSigCtxInc">
<polygon fill="white" stroke="black" points="582.5,-460.5 582.5,-479.5 715.5,-479.5 715.5,-460.5 582.5,-460.5"/>
<text text-anchor="middle" x="649" y="-467.5" font-family="Helvetica,sans-Serif" font-size="10.00">x265::Quant::getSigCtxInc</text>
</a>
</g>
</g>
<!-- Node23&#45;&gt;Node30 -->
<g id="edge43" class="edge"><title>Node23&#45;&gt;Node30</title>
<path fill="none" stroke="midnightblue" d="M462.137,-528.408C484.964,-517.834 523.496,-500.882 558,-490 567.502,-487.003 577.705,-484.281 587.706,-481.878"/>
<polygon fill="midnightblue" stroke="midnightblue" points="588.655,-485.25 597.606,-479.582 587.073,-478.431 588.655,-485.25"/>
</g>
<!-- Node31 -->
<g id="node31" class="node"><title>Node31</title>
<g id="a_node31"><a xlink:href="classx265_1_1Entropy.html#af93a2888ed1b7b3bee4bf90558d1feb4" target="_top" xlink:title="x265::Entropy::writeCoef\lRemainExGolomb">
<polygon fill="white" stroke="black" points="586.5,-636 586.5,-666 711.5,-666 711.5,-636 586.5,-636"/>
<text text-anchor="start" x="594.5" y="-654" font-family="Helvetica,sans-Serif" font-size="10.00">x265::Entropy::writeCoef</text>
<text text-anchor="middle" x="649" y="-643" font-family="Helvetica,sans-Serif" font-size="10.00">RemainExGolomb</text>
</a>
</g>
</g>
<!-- Node23&#45;&gt;Node31 -->
<g id="edge45" class="edge"><title>Node23&#45;&gt;Node31</title>
<path fill="none" stroke="midnightblue" d="M451.971,-547.71C471.005,-565.727 514.51,-604.455 558,-626 563.955,-628.95 570.311,-631.597 576.785,-633.961"/>
<polygon fill="midnightblue" stroke="midnightblue" points="575.729,-637.299 586.324,-637.226 577.996,-630.676 575.729,-637.299"/>
</g>
<!-- Node24&#45;&gt;Node4 -->
<g id="edge33" class="edge"><title>Node24&#45;&gt;Node4</title>
<path fill="none" stroke="midnightblue" d="M710.051,-372.996C720.153,-369.996 730.452,-366.636 740,-363 772.069,-350.788 807.22,-332.825 830.326,-320.341"/>
<polygon fill="midnightblue" stroke="midnightblue" points="832.051,-323.386 839.151,-315.521 828.696,-317.242 832.051,-323.386"/>
</g>
<!-- Node25&#45;&gt;Node2 -->
<g id="edge36" class="edge"><title>Node25&#45;&gt;Node2</title>
<path fill="none" stroke="midnightblue" d="M722.049,-753.34C747.023,-758.31 774.674,-763.814 798.336,-768.523"/>
<polygon fill="midnightblue" stroke="midnightblue" points="797.723,-771.97 808.214,-770.489 799.089,-765.104 797.723,-771.97"/>
</g>
<!-- Node26 -->
<g id="node26" class="node"><title>Node26</title>
<g id="a_node26"><a xlink:href="classx265_1_1CUData.html#ada5470364be8a87b70b409a3f521fce2" target="_top" xlink:title="x265::CUData::getCoefScanIdx">
<polygon fill="white" stroke="black" points="779,-729.5 779,-748.5 935,-748.5 935,-729.5 779,-729.5"/>
<text text-anchor="middle" x="857" y="-736.5" font-family="Helvetica,sans-Serif" font-size="10.00">x265::CUData::getCoefScanIdx</text>
</a>
</g>
</g>
<!-- Node25&#45;&gt;Node26 -->
<g id="edge35" class="edge"><title>Node25&#45;&gt;Node26</title>
<path fill="none" stroke="midnightblue" d="M722.049,-739C737.087,-739 753.095,-739 768.618,-739"/>
<polygon fill="midnightblue" stroke="midnightblue" points="768.735,-742.5 778.735,-739 768.735,-735.5 768.735,-742.5"/>
</g>
<!-- Node27&#45;&gt;Node4 -->
<g id="edge38" class="edge"><title>Node27&#45;&gt;Node4</title>
<path fill="none" stroke="midnightblue" d="M723.184,-597.31C729.253,-594.606 734.976,-591.223 740,-587 823.385,-516.911 847.715,-377.191 854.014,-325.671"/>
<polygon fill="midnightblue" stroke="midnightblue" points="857.511,-325.892 855.151,-315.564 850.555,-325.11 857.511,-325.892"/>
</g>
<!-- Node27&#45;&gt;Node21 -->
<g id="edge39" class="edge"><title>Node27&#45;&gt;Node21</title>
<path fill="none" stroke="midnightblue" d="M740.055,-607C750.885,-607 761.909,-607 772.637,-607"/>
<polygon fill="midnightblue" stroke="midnightblue" points="772.817,-610.5 782.817,-607 772.817,-603.5 772.817,-610.5"/>
</g>
<!-- Node31&#45;&gt;Node21 -->
<g id="edge46" class="edge"><title>Node31&#45;&gt;Node21</title>
<path fill="none" stroke="midnightblue" d="M711.528,-637.858C740.143,-631.746 773.884,-624.539 801.56,-618.628"/>
<polygon fill="midnightblue" stroke="midnightblue" points="802.413,-622.025 811.461,-616.513 800.951,-615.179 802.413,-622.025"/>
</g>
</g>
</svg>
        <g id="navigator" transform="translate(0 0)" fill="#404254">
                <rect fill="#f2f5e9" fill-opacity="0.5" stroke="#606060" stroke-width=".5" x="0" y="0" width="60" height="60"/>
                <use id="zoomplus" xlink:href="#zoomPlus" x="17" y="9" onmousedown="handleZoom(evt,'in')"/>
                <use id="zoomminus" xlink:href="#zoomMin" x="42" y="9" onmousedown="handleZoom(evt,'out')"/>
                <use id="reset" xlink:href="#resetDef" x="30" y="36" onmousedown="handleReset()"/>
                <g id="arrowUp" xlink:href="#dirArrow" transform="translate(30 24)" onmousedown="handlePan(0,-1)">
                  <use xlink:href="#rim" fill="#404040">
                        <set attributeName="fill" to="#808080" begin="arrowUp.mouseover" end="arrowUp.mouseout"/>
                  </use>
                  <path fill="none" stroke="white" stroke-width="1.5" d="M0,-3.0v7 M-2.5,-0.5L0,-3.0L2.5,-0.5"/>
                </g>
                <g id="arrowRight" xlink:href="#dirArrow" transform="rotate(90) translate(36 -43)" onmousedown="handlePan(1,0)">
                  <use xlink:href="#rim" fill="#404040">
                        <set attributeName="fill" to="#808080" begin="arrowRight.mouseover" end="arrowRight.mouseout"/>
                  </use>
                  <path fill="none" stroke="white" stroke-width="1.5" d="M0,-3.0v7 M-2.5,-0.5L0,-3.0L2.5,-0.5"/>
                </g>
                <g id="arrowDown" xlink:href="#dirArrow" transform="rotate(180) translate(-30 -48)" onmousedown="handlePan(0,1)">
                  <use xlink:href="#rim" fill="#404040">
                        <set attributeName="fill" to="#808080" begin="arrowDown.mouseover" end="arrowDown.mouseout"/>
                  </use>
                  <path fill="none" stroke="white" stroke-width="1.5" d="M0,-3.0v7 M-2.5,-0.5L0,-3.0L2.5,-0.5"/>
                </g>
                <g id="arrowLeft" xlink:href="#dirArrow" transform="rotate(270) translate(-36 17)" onmousedown="handlePan(-1,0)">
                  <use xlink:href="#rim" fill="#404040">
                        <set attributeName="fill" to="#808080" begin="arrowLeft.mouseover" end="arrowLeft.mouseout"/>
                  </use>
                  <path fill="none" stroke="white" stroke-width="1.5" d="M0,-3.0v7 M-2.5,-0.5L0,-3.0L2.5,-0.5"/>
                </g>
        </g>
        <svg viewBox="0 0 15 15" width="100%" height="30px" preserveAspectRatio="xMaxYMin meet">
         <g id="arrow_out" transform="scale(0.3 0.3)">
          <a xlink:href="classx265_1_1Entropy_a220326e32d9be80554bf11194ef2c642_cgraph_org.svg" target="_base">
           <rect id="button" ry="5" rx="5" y="6" x="6" height="38" width="38"
                fill="#f2f5e9" fill-opacity="0.5" stroke="#606060" stroke-width="1.0"/>
           <path id="arrow"
             d="M 11.500037,31.436501 C 11.940474,20.09759 22.043105,11.32322 32.158766,21.979434 L 37.068811,17.246167 C 37.068811,17.246167 37.088388,32 37.088388,32 L 22.160133,31.978069 C 22.160133,31.978069 26.997745,27.140456 26.997745,27.140456 C 18.528582,18.264221 13.291696,25.230495 11.500037,31.436501 z"
             style="fill:#404040;"/>
          </a>
         </g>
        </svg>
</svg>
