<?xml version="1.0" encoding="UTF-8" standalone="no"?>
<!DOCTYPE svg PUBLIC "-//W3C//DTD SVG 1.1//EN"
 "http://www.w3.org/Graphics/SVG/1.1/DTD/svg11.dtd">
<!-- Generated by graphviz version 2.36.0 (20140111.2315)
 -->
<!-- Title: x265::CUData::getLastValidPartIdx Pages: 1 -->
<!--zoomable 262 -->
<svg id="main" version="1.1" xmlns="http://www.w3.org/2000/svg" xmlns:xlink="http://www.w3.org/1999/xlink" xml:space="preserve" onload="init(evt)">
<style type="text/css"><![CDATA[
.edge:hover path { stroke: red; }
.edge:hover polygon { stroke: red; fill: red; }
]]></style>
<script type="text/javascript"><![CDATA[
var edges = document.getElementsByTagName('g');
if (edges && edges.length) {
  for (var i=0;i<edges.length;i++) {
    if (edges[i].id.substr(0,4)=='edge') {
      edges[i].setAttribute('class','edge');
    }
  }
}
]]></script>
        <defs>
                <circle id="rim" cx="0" cy="0" r="7"/>
                <circle id="rim2" cx="0" cy="0" r="3.5"/>
                <g id="zoomPlus">
                        <use xlink:href="#rim" fill="#404040">
                                <set attributeName="fill" to="#808080" begin="zoomplus.mouseover" end="zoomplus.mouseout"/>
                        </use>
                        <path d="M-4,0h8M0,-4v8" fill="none" stroke="white" stroke-width="1.5" pointer-events="none"/>
                </g>
                <g id="zoomMin">
                        <use xlink:href="#rim" fill="#404040">
                                <set attributeName="fill" to="#808080" begin="zoomminus.mouseover" end="zoomminus.mouseout"/>
                        </use>
                        <path d="M-4,0h8" fill="none" stroke="white" stroke-width="1.5" pointer-events="none"/>
                </g>
                <g id="dirArrow">
                        <path fill="none" stroke="white" stroke-width="1.5" d="M0,-3.0v7 M-2.5,-0.5L0,-3.0L2.5,-0.5"/>
                </g>
               <g id="resetDef">
                       <use xlink:href="#rim2" fill="#404040">
                               <set attributeName="fill" to="#808080" begin="reset.mouseover" end="reset.mouseout"/>
                       </use>
               </g>
        </defs>

<script type="text/javascript">
var viewWidth = 1074;
var viewHeight = 262;
var sectionId = 'dynsection-37';
</script>
<script xlink:href="svgpan.js"/>
<svg id="graph" class="graph">
<g id="viewport">
<title>x265::CUData::getLastValidPartIdx</title>
<polygon fill="white" stroke="none" points="-4,4 -4,-258 1070,-258 1070,4 -4,4"/>
<!-- Node1 -->
<g id="node1" class="node"><title>Node1</title>
<polygon fill="#bfbfbf" stroke="black" points="0,-56 0,-86 140,-86 140,-56 0,-56"/>
<text text-anchor="start" x="8" y="-74" font-family="Helvetica,sans-Serif" font-size="10.00">x265::CUData::getLastValid</text>
<text text-anchor="middle" x="70" y="-63" font-family="Helvetica,sans-Serif" font-size="10.00">PartIdx</text>
</g>
<!-- Node2 -->
<g id="node2" class="node"><title>Node2</title>
<g id="a_node2"><a xlink:href="classx265_1_1CUData.html#a31d1cef3ddd2a8e40d62b43f47ea73da" target="_top" xlink:title="x265::CUData::getLastCodedQP">
<polygon fill="white" stroke="black" points="176.5,-61.5 176.5,-80.5 337.5,-80.5 337.5,-61.5 176.5,-61.5"/>
<text text-anchor="middle" x="257" y="-68.5" font-family="Helvetica,sans-Serif" font-size="10.00">x265::CUData::getLastCodedQP</text>
</a>
</g>
</g>
<!-- Node1&#45;&gt;Node2 -->
<g id="edge1" class="edge"><title>Node1&#45;&gt;Node2</title>
<path fill="none" stroke="midnightblue" d="M150.219,-71C158.873,-71 167.686,-71 176.346,-71"/>
<polygon fill="midnightblue" stroke="midnightblue" points="150.15,-67.5001 140.15,-71 150.15,-74.5001 150.15,-67.5001"/>
</g>
<!-- Node2&#45;&gt;Node2 -->
<g id="edge17" class="edge"><title>Node2&#45;&gt;Node2</title>
<path fill="none" stroke="midnightblue" d="M222.892,-88.8913C223.392,-94.5406 234.761,-99 257,-99 289.348,-99 298.698,-89.5653 285.051,-80.7571"/>
<polygon fill="midnightblue" stroke="midnightblue" points="225.784,-90.8682 228.949,-80.7571 220.169,-86.6878 225.784,-90.8682"/>
</g>
<!-- Node3 -->
<g id="node3" class="node"><title>Node3</title>
<g id="a_node3"><a xlink:href="classx265_1_1CUData.html#a83aa8547b59c61d599373675ddb0ace4" target="_top" xlink:title="x265::CUData::getRefQP">
<polygon fill="white" stroke="black" points="374.5,-61.5 374.5,-80.5 503.5,-80.5 503.5,-61.5 374.5,-61.5"/>
<text text-anchor="middle" x="439" y="-68.5" font-family="Helvetica,sans-Serif" font-size="10.00">x265::CUData::getRefQP</text>
</a>
</g>
</g>
<!-- Node2&#45;&gt;Node3 -->
<g id="edge2" class="edge"><title>Node2&#45;&gt;Node3</title>
<path fill="none" stroke="midnightblue" d="M347.803,-71C356.737,-71 365.674,-71 374.261,-71"/>
<polygon fill="midnightblue" stroke="midnightblue" points="347.737,-67.5001 337.737,-71 347.737,-74.5001 347.737,-67.5001"/>
</g>
<!-- Node4 -->
<g id="node4" class="node"><title>Node4</title>
<g id="a_node4"><a xlink:href="classx265_1_1Analysis.html#a359278813e4f26bd2b5270d07253fe6c" target="_top" xlink:title="x265::Analysis::checkDQP">
<polygon fill="white" stroke="black" points="543.5,-106.5 543.5,-125.5 678.5,-125.5 678.5,-106.5 543.5,-106.5"/>
<text text-anchor="middle" x="611" y="-113.5" font-family="Helvetica,sans-Serif" font-size="10.00">x265::Analysis::checkDQP</text>
</a>
</g>
</g>
<!-- Node3&#45;&gt;Node4 -->
<g id="edge3" class="edge"><title>Node3&#45;&gt;Node4</title>
<path fill="none" stroke="midnightblue" d="M485.899,-83.1496C513.573,-90.4751 548.317,-99.6723 573.999,-106.47"/>
<polygon fill="midnightblue" stroke="midnightblue" points="486.615,-79.7189 476.053,-80.5433 484.824,-86.4858 486.615,-79.7189"/>
</g>
<!-- Node11 -->
<g id="node11" class="node"><title>Node11</title>
<g id="a_node11"><a xlink:href="classx265_1_1Entropy.html#af4ab096830911ac48684ea5258cea013" target="_top" xlink:title="x265::Entropy::codeDeltaQP">
<polygon fill="white" stroke="black" points="540,-20.5 540,-39.5 682,-39.5 682,-20.5 540,-20.5"/>
<text text-anchor="middle" x="611" y="-27.5" font-family="Helvetica,sans-Serif" font-size="10.00">x265::Entropy::codeDeltaQP</text>
</a>
</g>
</g>
<!-- Node3&#45;&gt;Node11 -->
<g id="edge14" class="edge"><title>Node3&#45;&gt;Node11</title>
<path fill="none" stroke="midnightblue" d="M489.389,-59.0884C515.183,-52.8677 546.317,-45.3589 570.491,-39.5286"/>
<polygon fill="midnightblue" stroke="midnightblue" points="488.329,-55.7437 479.429,-61.4907 489.971,-62.5486 488.329,-55.7437"/>
</g>
<!-- Node5 -->
<g id="node5" class="node"><title>Node5</title>
<g id="a_node5"><a xlink:href="classx265_1_1Analysis.html#aae2a6a2252270782b591d2bed7e99dae" target="_top" xlink:title="x265::Analysis::compress\lIntraCU">
<polygon fill="white" stroke="black" points="733,-224 733,-254 863,-254 863,-224 733,-224"/>
<text text-anchor="start" x="741" y="-242" font-family="Helvetica,sans-Serif" font-size="10.00">x265::Analysis::compress</text>
<text text-anchor="middle" x="798" y="-231" font-family="Helvetica,sans-Serif" font-size="10.00">IntraCU</text>
</a>
</g>
</g>
<!-- Node4&#45;&gt;Node5 -->
<g id="edge4" class="edge"><title>Node4&#45;&gt;Node5</title>
<path fill="none" stroke="midnightblue" d="M626.369,-133.344C645.269,-155.108 680.503,-192.214 718,-214 724.592,-217.83 731.841,-221.146 739.192,-223.996"/>
<polygon fill="midnightblue" stroke="midnightblue" points="628.888,-130.903 619.739,-125.56 623.559,-135.442 628.888,-130.903"/>
</g>
<!-- Node7 -->
<g id="node7" class="node"><title>Node7</title>
<g id="a_node7"><a xlink:href="classx265_1_1Analysis.html#a87060ff27a37f56adc5f5b8a4c033ece" target="_top" xlink:title="x265::Analysis::compress\lInterCU_dist">
<polygon fill="white" stroke="black" points="733,-175 733,-205 863,-205 863,-175 733,-175"/>
<text text-anchor="start" x="741" y="-193" font-family="Helvetica,sans-Serif" font-size="10.00">x265::Analysis::compress</text>
<text text-anchor="middle" x="798" y="-182" font-family="Helvetica,sans-Serif" font-size="10.00">InterCU_dist</text>
</a>
</g>
</g>
<!-- Node4&#45;&gt;Node7 -->
<g id="edge6" class="edge"><title>Node4&#45;&gt;Node7</title>
<path fill="none" stroke="midnightblue" d="M639.887,-130.07C661.025,-140.445 690.951,-154.517 718,-165 726.987,-168.483 736.681,-171.855 746.097,-174.936"/>
<polygon fill="midnightblue" stroke="midnightblue" points="641.351,-126.89 630.836,-125.59 638.245,-133.163 641.351,-126.89"/>
</g>
<!-- Node8 -->
<g id="node8" class="node"><title>Node8</title>
<g id="a_node8"><a xlink:href="classx265_1_1Analysis.html#a30d2ff7eca5addbb0a6b3dfe14f09650" target="_top" xlink:title="x265::Analysis::compress\lInterCU_rd0_4">
<polygon fill="white" stroke="black" points="733,-126 733,-156 863,-156 863,-126 733,-126"/>
<text text-anchor="start" x="741" y="-144" font-family="Helvetica,sans-Serif" font-size="10.00">x265::Analysis::compress</text>
<text text-anchor="middle" x="798" y="-133" font-family="Helvetica,sans-Serif" font-size="10.00">InterCU_rd0_4</text>
</a>
</g>
</g>
<!-- Node4&#45;&gt;Node8 -->
<g id="edge8" class="edge"><title>Node4&#45;&gt;Node8</title>
<path fill="none" stroke="midnightblue" d="M688.619,-126.354C703.35,-128.345 718.634,-130.41 732.918,-132.34"/>
<polygon fill="midnightblue" stroke="midnightblue" points="688.907,-122.861 678.528,-124.99 687.969,-129.798 688.907,-122.861"/>
</g>
<!-- Node9 -->
<g id="node9" class="node"><title>Node9</title>
<g id="a_node9"><a xlink:href="classx265_1_1Analysis.html#a0b22b7765aa4a36b1ba6d07ba26901e6" target="_top" xlink:title="x265::Analysis::compress\lInterCU_rd5_6">
<polygon fill="white" stroke="black" points="733,-77 733,-107 863,-107 863,-77 733,-77"/>
<text text-anchor="start" x="741" y="-95" font-family="Helvetica,sans-Serif" font-size="10.00">x265::Analysis::compress</text>
<text text-anchor="middle" x="798" y="-84" font-family="Helvetica,sans-Serif" font-size="10.00">InterCU_rd5_6</text>
</a>
</g>
</g>
<!-- Node4&#45;&gt;Node9 -->
<g id="edge10" class="edge"><title>Node4&#45;&gt;Node9</title>
<path fill="none" stroke="midnightblue" d="M688.619,-106.06C703.35,-104.149 718.634,-102.166 732.918,-100.313"/>
<polygon fill="midnightblue" stroke="midnightblue" points="687.994,-102.612 678.528,-107.369 688.895,-109.554 687.994,-102.612"/>
</g>
<!-- Node10 -->
<g id="node10" class="node"><title>Node10</title>
<g id="a_node10"><a xlink:href="classx265_1_1Analysis.html#a88ad2880a5a8bcad5cfd5d6ea630b265" target="_top" xlink:title="x265::Analysis::encodeResidue">
<polygon fill="white" stroke="black" points="720.5,-38.5 720.5,-57.5 875.5,-57.5 875.5,-38.5 720.5,-38.5"/>
<text text-anchor="middle" x="798" y="-45.5" font-family="Helvetica,sans-Serif" font-size="10.00">x265::Analysis::encodeResidue</text>
</a>
</g>
</g>
<!-- Node4&#45;&gt;Node10 -->
<g id="edge12" class="edge"><title>Node4&#45;&gt;Node10</title>
<path fill="none" stroke="midnightblue" d="M639.368,-101.983C660.455,-91.5849 690.551,-77.6043 718,-68 729.351,-64.0284 741.874,-60.4892 753.538,-57.5333"/>
<polygon fill="midnightblue" stroke="midnightblue" points="637.741,-98.8836 630.355,-106.48 640.866,-105.147 637.741,-98.8836"/>
</g>
<!-- Node6 -->
<g id="node6" class="node"><title>Node6</title>
<g id="a_node6"><a xlink:href="classx265_1_1Analysis.html#aaebc9de2ff98834c650244f3b58942c2" target="_top" xlink:title="x265::Analysis::compressCTU">
<polygon fill="white" stroke="red" points="914.5,-131.5 914.5,-150.5 1065.5,-150.5 1065.5,-131.5 914.5,-131.5"/>
<text text-anchor="middle" x="990" y="-138.5" font-family="Helvetica,sans-Serif" font-size="10.00">x265::Analysis::compressCTU</text>
</a>
</g>
</g>
<!-- Node5&#45;&gt;Node6 -->
<g id="edge5" class="edge"><title>Node5&#45;&gt;Node6</title>
<path fill="none" stroke="midnightblue" d="M862.765,-220.518C867.989,-218.493 873.129,-216.318 878,-214 916.531,-195.667 957.34,-165.708 977.013,-150.5"/>
<polygon fill="midnightblue" stroke="midnightblue" points="861.485,-217.259 853.309,-223.998 863.903,-223.829 861.485,-217.259"/>
</g>
<!-- Node7&#45;&gt;Node6 -->
<g id="edge7" class="edge"><title>Node7&#45;&gt;Node6</title>
<path fill="none" stroke="midnightblue" d="M867.25,-172.399C895.857,-165.021 927.987,-156.735 952.055,-150.528"/>
<polygon fill="midnightblue" stroke="midnightblue" points="866.107,-169.079 857.297,-174.965 867.855,-175.857 866.107,-169.079"/>
</g>
<!-- Node8&#45;&gt;Node6 -->
<g id="edge9" class="edge"><title>Node8&#45;&gt;Node6</title>
<path fill="none" stroke="midnightblue" d="M873.258,-141C886.769,-141 900.868,-141 914.389,-141"/>
<polygon fill="midnightblue" stroke="midnightblue" points="873.06,-137.5 863.06,-141 873.06,-144.5 873.06,-137.5"/>
</g>
<!-- Node9&#45;&gt;Node6 -->
<g id="edge11" class="edge"><title>Node9&#45;&gt;Node6</title>
<path fill="none" stroke="midnightblue" d="M867.25,-109.601C895.857,-116.979 927.987,-125.265 952.055,-131.472"/>
<polygon fill="midnightblue" stroke="midnightblue" points="867.855,-106.143 857.297,-107.035 866.107,-112.921 867.855,-106.143"/>
</g>
<!-- Node10&#45;&gt;Node6 -->
<g id="edge13" class="edge"><title>Node10&#45;&gt;Node6</title>
<path fill="none" stroke="midnightblue" d="M857.192,-60.3566C864.324,-62.5611 871.413,-65.0989 878,-68 917.262,-85.2911 958.067,-115.992 977.447,-131.489"/>
<polygon fill="midnightblue" stroke="midnightblue" points="858.063,-56.9651 847.485,-57.5543 856.122,-63.6905 858.063,-56.9651"/>
</g>
<!-- Node12 -->
<g id="node12" class="node"><title>Node12</title>
<g id="a_node12"><a xlink:href="classx265_1_1Entropy.html#af0793a415273d86dc38b396dae9f9db3" target="_top" xlink:title="x265::Entropy::encodeTransform">
<polygon fill="white" stroke="black" points="718.5,-0.5 718.5,-19.5 877.5,-19.5 877.5,-0.5 718.5,-0.5"/>
<text text-anchor="middle" x="798" y="-7.5" font-family="Helvetica,sans-Serif" font-size="10.00">x265::Entropy::encodeTransform</text>
</a>
</g>
</g>
<!-- Node11&#45;&gt;Node12 -->
<g id="edge15" class="edge"><title>Node11&#45;&gt;Node12</title>
<path fill="none" stroke="midnightblue" d="M692.313,-21.3175C700.998,-20.3786 709.828,-19.424 718.491,-18.4875"/>
<polygon fill="midnightblue" stroke="midnightblue" points="691.77,-17.8557 682.204,-22.4103 692.523,-24.8152 691.77,-17.8557"/>
</g>
<!-- Node13 -->
<g id="node13" class="node"><title>Node13</title>
<g id="a_node13"><a xlink:href="classx265_1_1Entropy.html#a220326e32d9be80554bf11194ef2c642" target="_top" xlink:title="x265::Entropy::codeCoeff">
<polygon fill="white" stroke="red" points="926,-0.5 926,-19.5 1054,-19.5 1054,-0.5 926,-0.5"/>
<text text-anchor="middle" x="990" y="-7.5" font-family="Helvetica,sans-Serif" font-size="10.00">x265::Entropy::codeCoeff</text>
</a>
</g>
</g>
<!-- Node12&#45;&gt;Node13 -->
<g id="edge16" class="edge"><title>Node12&#45;&gt;Node13</title>
<path fill="none" stroke="midnightblue" d="M887.862,-10C900.656,-10 913.599,-10 925.757,-10"/>
<polygon fill="midnightblue" stroke="midnightblue" points="887.652,-6.5001 877.652,-10 887.652,-13.5001 887.652,-6.5001"/>
</g>
</g>
</svg>
        <g id="navigator" transform="translate(0 0)" fill="#404254">
                <rect fill="#f2f5e9" fill-opacity="0.5" stroke="#606060" stroke-width=".5" x="0" y="0" width="60" height="60"/>
                <use id="zoomplus" xlink:href="#zoomPlus" x="17" y="9" onmousedown="handleZoom(evt,'in')"/>
                <use id="zoomminus" xlink:href="#zoomMin" x="42" y="9" onmousedown="handleZoom(evt,'out')"/>
                <use id="reset" xlink:href="#resetDef" x="30" y="36" onmousedown="handleReset()"/>
                <g id="arrowUp" xlink:href="#dirArrow" transform="translate(30 24)" onmousedown="handlePan(0,-1)">
                  <use xlink:href="#rim" fill="#404040">
                        <set attributeName="fill" to="#808080" begin="arrowUp.mouseover" end="arrowUp.mouseout"/>
                  </use>
                  <path fill="none" stroke="white" stroke-width="1.5" d="M0,-3.0v7 M-2.5,-0.5L0,-3.0L2.5,-0.5"/>
                </g>
                <g id="arrowRight" xlink:href="#dirArrow" transform="rotate(90) translate(36 -43)" onmousedown="handlePan(1,0)">
                  <use xlink:href="#rim" fill="#404040">
                        <set attributeName="fill" to="#808080" begin="arrowRight.mouseover" end="arrowRight.mouseout"/>
                  </use>
                  <path fill="none" stroke="white" stroke-width="1.5" d="M0,-3.0v7 M-2.5,-0.5L0,-3.0L2.5,-0.5"/>
                </g>
                <g id="arrowDown" xlink:href="#dirArrow" transform="rotate(180) translate(-30 -48)" onmousedown="handlePan(0,1)">
                  <use xlink:href="#rim" fill="#404040">
                        <set attributeName="fill" to="#808080" begin="arrowDown.mouseover" end="arrowDown.mouseout"/>
                  </use>
                  <path fill="none" stroke="white" stroke-width="1.5" d="M0,-3.0v7 M-2.5,-0.5L0,-3.0L2.5,-0.5"/>
                </g>
                <g id="arrowLeft" xlink:href="#dirArrow" transform="rotate(270) translate(-36 17)" onmousedown="handlePan(-1,0)">
                  <use xlink:href="#rim" fill="#404040">
                        <set attributeName="fill" to="#808080" begin="arrowLeft.mouseover" end="arrowLeft.mouseout"/>
                  </use>
                  <path fill="none" stroke="white" stroke-width="1.5" d="M0,-3.0v7 M-2.5,-0.5L0,-3.0L2.5,-0.5"/>
                </g>
        </g>
        <svg viewBox="0 0 15 15" width="100%" height="30px" preserveAspectRatio="xMaxYMin meet">
         <g id="arrow_out" transform="scale(0.3 0.3)">
          <a xlink:href="classx265_1_1CUData_a188a753316fed86e3aec507f7e522875_icgraph_org.svg" target="_base">
           <rect id="button" ry="5" rx="5" y="6" x="6" height="38" width="38"
                fill="#f2f5e9" fill-opacity="0.5" stroke="#606060" stroke-width="1.0"/>
           <path id="arrow"
             d="M 11.500037,31.436501 C 11.940474,20.09759 22.043105,11.32322 32.158766,21.979434 L 37.068811,17.246167 C 37.068811,17.246167 37.088388,32 37.088388,32 L 22.160133,31.978069 C 22.160133,31.978069 26.997745,27.140456 26.997745,27.140456 C 18.528582,18.264221 13.291696,25.230495 11.500037,31.436501 z"
             style="fill:#404040;"/>
          </a>
         </g>
        </svg>
</svg>
