<?xml version="1.0" encoding="UTF-8" standalone="no"?>
<!DOCTYPE svg PUBLIC "-//W3C//DTD SVG 1.1//EN"
 "http://www.w3.org/Graphics/SVG/1.1/DTD/svg11.dtd">
<!-- Generated by graphviz version 2.36.0 (20140111.2315)
 -->
<!-- Title: x265::Bitstream::push_back Pages: 1 -->
<!--zoomable 115 -->
<svg id="main" version="1.1" xmlns="http://www.w3.org/2000/svg" xmlns:xlink="http://www.w3.org/1999/xlink" xml:space="preserve" onload="init(evt)">
<style type="text/css"><![CDATA[
.edge:hover path { stroke: red; }
.edge:hover polygon { stroke: red; fill: red; }
]]></style>
<script type="text/javascript"><![CDATA[
var edges = document.getElementsByTagName('g');
if (edges && edges.length) {
  for (var i=0;i<edges.length;i++) {
    if (edges[i].id.substr(0,4)=='edge') {
      edges[i].setAttribute('class','edge');
    }
  }
}
]]></script>
        <defs>
                <circle id="rim" cx="0" cy="0" r="7"/>
                <circle id="rim2" cx="0" cy="0" r="3.5"/>
                <g id="zoomPlus">
                        <use xlink:href="#rim" fill="#404040">
                                <set attributeName="fill" to="#808080" begin="zoomplus.mouseover" end="zoomplus.mouseout"/>
                        </use>
                        <path d="M-4,0h8M0,-4v8" fill="none" stroke="white" stroke-width="1.5" pointer-events="none"/>
                </g>
                <g id="zoomMin">
                        <use xlink:href="#rim" fill="#404040">
                                <set attributeName="fill" to="#808080" begin="zoomminus.mouseover" end="zoomminus.mouseout"/>
                        </use>
                        <path d="M-4,0h8" fill="none" stroke="white" stroke-width="1.5" pointer-events="none"/>
                </g>
                <g id="dirArrow">
                        <path fill="none" stroke="white" stroke-width="1.5" d="M0,-3.0v7 M-2.5,-0.5L0,-3.0L2.5,-0.5"/>
                </g>
               <g id="resetDef">
                       <use xlink:href="#rim2" fill="#404040">
                               <set attributeName="fill" to="#808080" begin="reset.mouseover" end="reset.mouseout"/>
                       </use>
               </g>
        </defs>

<script type="text/javascript">
var viewWidth = 992;
var viewHeight = 115;
var sectionId = 'dynsection-6';
</script>
<script xlink:href="svgpan.js"/>
<svg id="graph" class="graph">
<g id="viewport">
<title>x265::Bitstream::push_back</title>
<polygon fill="white" stroke="none" points="-4,4 -4,-111 988,-111 988,4 -4,4"/>
<!-- Node1 -->
<g id="node1" class="node"><title>Node1</title>
<polygon fill="#bfbfbf" stroke="black" points="0.5,-49.5 0.5,-68.5 139.5,-68.5 139.5,-49.5 0.5,-49.5"/>
<text text-anchor="middle" x="70" y="-56.5" font-family="Helvetica,sans-Serif" font-size="10.00">x265::Bitstream::push_back</text>
</g>
<!-- Node2 -->
<g id="node2" class="node"><title>Node2</title>
<g id="a_node2"><a xlink:href="classx265_1_1Bitstream.html#a77e5539c6b9722b29ee4876b5b1d31a8" target="_top" xlink:title="x265::Bitstream::write">
<polygon fill="white" stroke="black" points="196.5,-87.5 196.5,-106.5 309.5,-106.5 309.5,-87.5 196.5,-87.5"/>
<text text-anchor="middle" x="253" y="-94.5" font-family="Helvetica,sans-Serif" font-size="10.00">x265::Bitstream::write</text>
</a>
</g>
</g>
<!-- Node1&#45;&gt;Node2 -->
<g id="edge1" class="edge"><title>Node1&#45;&gt;Node2</title>
<path fill="none" stroke="midnightblue" d="M126.638,-70.681C152.307,-76.0699 182.391,-82.3861 206.654,-87.4799"/>
<polygon fill="midnightblue" stroke="midnightblue" points="127.18,-67.2184 116.674,-68.589 125.741,-74.0691 127.18,-67.2184"/>
</g>
<!-- Node10 -->
<g id="node10" class="node"><title>Node10</title>
<g id="a_node10"><a xlink:href="classx265_1_1Bitstream.html#afdcc854466a40694a33f34eedf5f7b2c" target="_top" xlink:title="x265::Bitstream::writeByte">
<polygon fill="white" stroke="black" points="186.5,-49.5 186.5,-68.5 319.5,-68.5 319.5,-49.5 186.5,-49.5"/>
<text text-anchor="middle" x="253" y="-56.5" font-family="Helvetica,sans-Serif" font-size="10.00">x265::Bitstream::writeByte</text>
</a>
</g>
</g>
<!-- Node1&#45;&gt;Node10 -->
<g id="edge10" class="edge"><title>Node1&#45;&gt;Node10</title>
<path fill="none" stroke="midnightblue" d="M149.835,-59C162.02,-59 174.493,-59 186.348,-59"/>
<polygon fill="midnightblue" stroke="midnightblue" points="149.686,-55.5001 139.686,-59 149.686,-62.5001 149.686,-55.5001"/>
</g>
<!-- Node11 -->
<g id="node11" class="node"><title>Node11</title>
<g id="a_node11"><a xlink:href="classx265_1_1Bitstream.html#a8bc710ffb42196e6271388c2dce0f1e2" target="_top" xlink:title="x265::Bitstream::writeAlignZero">
<polygon fill="white" stroke="black" points="176,-11.5 176,-30.5 330,-30.5 330,-11.5 176,-11.5"/>
<text text-anchor="middle" x="253" y="-18.5" font-family="Helvetica,sans-Serif" font-size="10.00">x265::Bitstream::writeAlignZero</text>
</a>
</g>
</g>
<!-- Node1&#45;&gt;Node11 -->
<g id="edge11" class="edge"><title>Node1&#45;&gt;Node11</title>
<path fill="none" stroke="midnightblue" d="M126.638,-47.319C152.307,-41.9301 182.391,-35.6139 206.654,-30.5201"/>
<polygon fill="midnightblue" stroke="midnightblue" points="125.741,-43.9309 116.674,-49.411 127.18,-50.7816 125.741,-43.9309"/>
</g>
<!-- Node3 -->
<g id="node3" class="node"><title>Node3</title>
<g id="a_node3"><a xlink:href="classx265_1_1Bitstream.html#a699714d762d06007518d0156f3aff062" target="_top" xlink:title="x265::Bitstream::writeAlignOne">
<polygon fill="white" stroke="black" points="366,-87.5 366,-106.5 518,-106.5 518,-87.5 366,-87.5"/>
<text text-anchor="middle" x="442" y="-94.5" font-family="Helvetica,sans-Serif" font-size="10.00">x265::Bitstream::writeAlignOne</text>
</a>
</g>
</g>
<!-- Node2&#45;&gt;Node3 -->
<g id="edge2" class="edge"><title>Node2&#45;&gt;Node3</title>
<path fill="none" stroke="midnightblue" d="M319.739,-97C334.655,-97 350.607,-97 365.879,-97"/>
<polygon fill="midnightblue" stroke="midnightblue" points="319.6,-93.5001 309.6,-97 319.6,-100.5 319.6,-93.5001"/>
</g>
<!-- Node4 -->
<g id="node4" class="node"><title>Node4</title>
<g id="a_node4"><a xlink:href="classx265_1_1Bitstream.html#ac141b26026ae37649bf9dc2bc1064398" target="_top" xlink:title="x265::Bitstream::writeByte\lAlignment">
<polygon fill="white" stroke="black" points="375.5,-22 375.5,-52 508.5,-52 508.5,-22 375.5,-22"/>
<text text-anchor="start" x="383.5" y="-40" font-family="Helvetica,sans-Serif" font-size="10.00">x265::Bitstream::writeByte</text>
<text text-anchor="middle" x="442" y="-29" font-family="Helvetica,sans-Serif" font-size="10.00">Alignment</text>
</a>
</g>
</g>
<!-- Node2&#45;&gt;Node4 -->
<g id="edge3" class="edge"><title>Node2&#45;&gt;Node4</title>
<path fill="none" stroke="midnightblue" d="M305.545,-84.9205C313.766,-82.7625 322.147,-80.4241 330,-78 354.733,-70.3653 382.009,-60.3139 403.333,-52.0741"/>
<polygon fill="midnightblue" stroke="midnightblue" points="304.461,-81.5851 295.642,-87.4571 306.198,-88.3662 304.461,-81.5851"/>
</g>
<!-- Node5 -->
<g id="node5" class="node"><title>Node5</title>
<g id="a_node5"><a xlink:href="classx265_1_1Encoder.html#a5095039a4d1af32049c30052ef3e6588" target="_top" xlink:title="x265::Encoder::getStream\lHeaders">
<polygon fill="white" stroke="black" points="554.5,-44 554.5,-74 685.5,-74 685.5,-44 554.5,-44"/>
<text text-anchor="start" x="562.5" y="-62" font-family="Helvetica,sans-Serif" font-size="10.00">x265::Encoder::getStream</text>
<text text-anchor="middle" x="620" y="-51" font-family="Helvetica,sans-Serif" font-size="10.00">Headers</text>
</a>
</g>
</g>
<!-- Node4&#45;&gt;Node5 -->
<g id="edge4" class="edge"><title>Node4&#45;&gt;Node5</title>
<path fill="none" stroke="midnightblue" d="M518.462,-46.4328C530.391,-47.9238 542.633,-49.4541 554.288,-50.911"/>
<polygon fill="midnightblue" stroke="midnightblue" points="518.893,-42.9595 508.536,-45.192 518.025,-49.9054 518.893,-42.9595"/>
</g>
<!-- Node8 -->
<g id="node8" class="node"><title>Node8</title>
<g id="a_node8"><a xlink:href="classx265_1_1FrameEncoder.html#a2f5c4c0f1a4e36fce4c9b87eb7ec4973" target="_top" xlink:title="x265::FrameEncoder\l::compressFrame">
<polygon fill="white" stroke="black" points="727.5,-0 727.5,-30 834.5,-30 834.5,-0 727.5,-0"/>
<text text-anchor="start" x="735.5" y="-18" font-family="Helvetica,sans-Serif" font-size="10.00">x265::FrameEncoder</text>
<text text-anchor="middle" x="781" y="-7" font-family="Helvetica,sans-Serif" font-size="10.00">::compressFrame</text>
</a>
</g>
</g>
<!-- Node4&#45;&gt;Node8 -->
<g id="edge9" class="edge"><title>Node4&#45;&gt;Node8</title>
<path fill="none" stroke="midnightblue" d="M519.139,-32.0295C582.654,-27.8832 671.504,-22.0828 727.382,-18.435"/>
<polygon fill="midnightblue" stroke="midnightblue" points="518.528,-28.5619 508.777,-32.706 518.984,-35.547 518.528,-28.5619"/>
</g>
<!-- Node6 -->
<g id="node6" class="node"><title>Node6</title>
<g id="a_node6"><a xlink:href="x265_8h.html#a575071c7bc7374ffd708d93f016211b5" target="_top" xlink:title="x265_encoder_headers">
<polygon fill="white" stroke="black" points="722.5,-49.5 722.5,-68.5 839.5,-68.5 839.5,-49.5 722.5,-49.5"/>
<text text-anchor="middle" x="781" y="-56.5" font-family="Helvetica,sans-Serif" font-size="10.00">x265_encoder_headers</text>
</a>
</g>
</g>
<!-- Node5&#45;&gt;Node6 -->
<g id="edge5" class="edge"><title>Node5&#45;&gt;Node6</title>
<path fill="none" stroke="midnightblue" d="M695.699,-59C704.632,-59 713.646,-59 722.288,-59"/>
<polygon fill="midnightblue" stroke="midnightblue" points="695.671,-55.5001 685.671,-59 695.671,-62.5001 695.671,-55.5001"/>
</g>
<!-- Node5&#45;&gt;Node8 -->
<g id="edge7" class="edge"><title>Node5&#45;&gt;Node8</title>
<path fill="none" stroke="midnightblue" d="M685.298,-41.2069C699.257,-37.3439 713.866,-33.3013 727.315,-29.5795"/>
<polygon fill="midnightblue" stroke="midnightblue" points="683.978,-37.9404 675.274,-43.9808 685.845,-44.6869 683.978,-37.9404"/>
</g>
<!-- Node7 -->
<g id="node7" class="node"><title>Node7</title>
<g id="a_node7"><a xlink:href="x265_8cpp.html#a3c04138a5bfe5d72780bb7e82a18e627" target="_top" xlink:title="main">
<polygon fill="white" stroke="black" points="911,-49.5 911,-68.5 949,-68.5 949,-49.5 911,-49.5"/>
<text text-anchor="middle" x="930" y="-56.5" font-family="Helvetica,sans-Serif" font-size="10.00">main</text>
</a>
</g>
</g>
<!-- Node6&#45;&gt;Node7 -->
<g id="edge6" class="edge"><title>Node6&#45;&gt;Node7</title>
<path fill="none" stroke="midnightblue" d="M849.914,-59C872.368,-59 895.521,-59 910.927,-59"/>
<polygon fill="midnightblue" stroke="midnightblue" points="849.676,-55.5001 839.676,-59 849.676,-62.5001 849.676,-55.5001"/>
</g>
<!-- Node9 -->
<g id="node9" class="node"><title>Node9</title>
<g id="a_node9"><a xlink:href="classx265_1_1FrameEncoder.html#aef61f29b9e93b3af9255d96236bc90a7" target="_top" xlink:title="x265::FrameEncoder\l::threadMain">
<polygon fill="white" stroke="black" points="876.5,-0 876.5,-30 983.5,-30 983.5,-0 876.5,-0"/>
<text text-anchor="start" x="884.5" y="-18" font-family="Helvetica,sans-Serif" font-size="10.00">x265::FrameEncoder</text>
<text text-anchor="middle" x="930" y="-7" font-family="Helvetica,sans-Serif" font-size="10.00">::threadMain</text>
</a>
</g>
</g>
<!-- Node8&#45;&gt;Node9 -->
<g id="edge8" class="edge"><title>Node8&#45;&gt;Node9</title>
<path fill="none" stroke="midnightblue" d="M844.948,-15C855.37,-15 866.081,-15 876.218,-15"/>
<polygon fill="midnightblue" stroke="midnightblue" points="844.655,-11.5001 834.655,-15 844.655,-18.5001 844.655,-11.5001"/>
</g>
<!-- Node11&#45;&gt;Node4 -->
<g id="edge12" class="edge"><title>Node11&#45;&gt;Node4</title>
<path fill="none" stroke="midnightblue" d="M340.378,-28.3906C352.185,-29.4009 364.145,-30.4242 375.498,-31.3955"/>
<polygon fill="midnightblue" stroke="midnightblue" points="340.322,-24.8731 330.06,-27.5078 339.725,-31.8477 340.322,-24.8731"/>
</g>
</g>
</svg>
        <g id="navigator" transform="translate(0 0)" fill="#404254">
                <rect fill="#f2f5e9" fill-opacity="0.5" stroke="#606060" stroke-width=".5" x="0" y="0" width="60" height="60"/>
                <use id="zoomplus" xlink:href="#zoomPlus" x="17" y="9" onmousedown="handleZoom(evt,'in')"/>
                <use id="zoomminus" xlink:href="#zoomMin" x="42" y="9" onmousedown="handleZoom(evt,'out')"/>
                <use id="reset" xlink:href="#resetDef" x="30" y="36" onmousedown="handleReset()"/>
                <g id="arrowUp" xlink:href="#dirArrow" transform="translate(30 24)" onmousedown="handlePan(0,-1)">
                  <use xlink:href="#rim" fill="#404040">
                        <set attributeName="fill" to="#808080" begin="arrowUp.mouseover" end="arrowUp.mouseout"/>
                  </use>
                  <path fill="none" stroke="white" stroke-width="1.5" d="M0,-3.0v7 M-2.5,-0.5L0,-3.0L2.5,-0.5"/>
                </g>
                <g id="arrowRight" xlink:href="#dirArrow" transform="rotate(90) translate(36 -43)" onmousedown="handlePan(1,0)">
                  <use xlink:href="#rim" fill="#404040">
                        <set attributeName="fill" to="#808080" begin="arrowRight.mouseover" end="arrowRight.mouseout"/>
                  </use>
                  <path fill="none" stroke="white" stroke-width="1.5" d="M0,-3.0v7 M-2.5,-0.5L0,-3.0L2.5,-0.5"/>
                </g>
                <g id="arrowDown" xlink:href="#dirArrow" transform="rotate(180) translate(-30 -48)" onmousedown="handlePan(0,1)">
                  <use xlink:href="#rim" fill="#404040">
                        <set attributeName="fill" to="#808080" begin="arrowDown.mouseover" end="arrowDown.mouseout"/>
                  </use>
                  <path fill="none" stroke="white" stroke-width="1.5" d="M0,-3.0v7 M-2.5,-0.5L0,-3.0L2.5,-0.5"/>
                </g>
                <g id="arrowLeft" xlink:href="#dirArrow" transform="rotate(270) translate(-36 17)" onmousedown="handlePan(-1,0)">
                  <use xlink:href="#rim" fill="#404040">
                        <set attributeName="fill" to="#808080" begin="arrowLeft.mouseover" end="arrowLeft.mouseout"/>
                  </use>
                  <path fill="none" stroke="white" stroke-width="1.5" d="M0,-3.0v7 M-2.5,-0.5L0,-3.0L2.5,-0.5"/>
                </g>
        </g>
        <svg viewBox="0 0 15 15" width="100%" height="30px" preserveAspectRatio="xMaxYMin meet">
         <g id="arrow_out" transform="scale(0.3 0.3)">
          <a xlink:href="classx265_1_1Bitstream_a017acf53e803a204c55a23cddf793401_icgraph_org.svg" target="_base">
           <rect id="button" ry="5" rx="5" y="6" x="6" height="38" width="38"
                fill="#f2f5e9" fill-opacity="0.5" stroke="#606060" stroke-width="1.0"/>
           <path id="arrow"
             d="M 11.500037,31.436501 C 11.940474,20.09759 22.043105,11.32322 32.158766,21.979434 L 37.068811,17.246167 C 37.068811,17.246167 37.088388,32 37.088388,32 L 22.160133,31.978069 C 22.160133,31.978069 26.997745,27.140456 26.997745,27.140456 C 18.528582,18.264221 13.291696,25.230495 11.500037,31.436501 z"
             style="fill:#404040;"/>
          </a>
         </g>
        </svg>
</svg>
