<?xml version="1.0" encoding="UTF-8" standalone="no"?>
<!DOCTYPE svg PUBLIC "-//W3C//DTD SVG 1.1//EN"
 "http://www.w3.org/Graphics/SVG/1.1/DTD/svg11.dtd">
<!-- Generated by graphviz version 2.36.0 (20140111.2315)
 -->
<!-- Title: x265::MotionEstimate::setSourcePlane Pages: 1 -->
<!--zoomable 367 -->
<svg id="main" version="1.1" xmlns="http://www.w3.org/2000/svg" xmlns:xlink="http://www.w3.org/1999/xlink" xml:space="preserve" onload="init(evt)">
<style type="text/css"><![CDATA[
.edge:hover path { stroke: red; }
.edge:hover polygon { stroke: red; fill: red; }
]]></style>
<script type="text/javascript"><![CDATA[
var edges = document.getElementsByTagName('g');
if (edges && edges.length) {
  for (var i=0;i<edges.length;i++) {
    if (edges[i].id.substr(0,4)=='edge') {
      edges[i].setAttribute('class','edge');
    }
  }
}
]]></script>
        <defs>
                <circle id="rim" cx="0" cy="0" r="7"/>
                <circle id="rim2" cx="0" cy="0" r="3.5"/>
                <g id="zoomPlus">
                        <use xlink:href="#rim" fill="#404040">
                                <set attributeName="fill" to="#808080" begin="zoomplus.mouseover" end="zoomplus.mouseout"/>
                        </use>
                        <path d="M-4,0h8M0,-4v8" fill="none" stroke="white" stroke-width="1.5" pointer-events="none"/>
                </g>
                <g id="zoomMin">
                        <use xlink:href="#rim" fill="#404040">
                                <set attributeName="fill" to="#808080" begin="zoomminus.mouseover" end="zoomminus.mouseout"/>
                        </use>
                        <path d="M-4,0h8" fill="none" stroke="white" stroke-width="1.5" pointer-events="none"/>
                </g>
                <g id="dirArrow">
                        <path fill="none" stroke="white" stroke-width="1.5" d="M0,-3.0v7 M-2.5,-0.5L0,-3.0L2.5,-0.5"/>
                </g>
               <g id="resetDef">
                       <use xlink:href="#rim2" fill="#404040">
                               <set attributeName="fill" to="#808080" begin="reset.mouseover" end="reset.mouseout"/>
                       </use>
               </g>
        </defs>

<script type="text/javascript">
var viewWidth = 1528;
var viewHeight = 367;
var sectionId = 'dynsection-7';
</script>
<script xlink:href="svgpan.js"/>
<svg id="graph" class="graph">
<g id="viewport">
<title>x265::MotionEstimate::setSourcePlane</title>
<polygon fill="white" stroke="none" points="-4,4 -4,-363.476 1524,-363.476 1524,4 -4,4"/>
<!-- Node1 -->
<g id="node1" class="node"><title>Node1</title>
<polygon fill="#bfbfbf" stroke="black" points="0,-268.476 0,-298.476 112,-298.476 112,-268.476 0,-268.476"/>
<text text-anchor="start" x="8" y="-286.476" font-family="Helvetica,sans-Serif" font-size="10.00">x265::MotionEstimate</text>
<text text-anchor="middle" x="56" y="-275.476" font-family="Helvetica,sans-Serif" font-size="10.00">::setSourcePlane</text>
</g>
<!-- Node2 -->
<g id="node2" class="node"><title>Node2</title>
<g id="a_node2"><a xlink:href="classx265_1_1Analysis.html#abd49473ae6e5e1f7e555b447b04398e6" target="_top" xlink:title="x265::Analysis::parallelME">
<polygon fill="white" stroke="black" points="148.5,-339.976 148.5,-358.976 281.5,-358.976 281.5,-339.976 148.5,-339.976"/>
<text text-anchor="middle" x="215" y="-346.976" font-family="Helvetica,sans-Serif" font-size="10.00">x265::Analysis::parallelME</text>
</a>
</g>
</g>
<!-- Node1&#45;&gt;Node2 -->
<g id="edge1" class="edge"><title>Node1&#45;&gt;Node2</title>
<path fill="none" stroke="midnightblue" d="M93.1448,-303.57C109.578,-312.227 129.456,-322.045 148,-329.476 157.669,-333.351 168.389,-336.902 178.328,-339.902"/>
<polygon fill="midnightblue" stroke="midnightblue" points="94.3733,-300.258 83.9038,-298.634 91.0753,-306.432 94.3733,-300.258"/>
</g>
<!-- Node6 -->
<g id="node6" class="node"><title>Node6</title>
<g id="a_node6"><a xlink:href="classx265_1_1FrameEncoder.html#a0ae85001572afd28238476542523ac5f" target="_top" xlink:title="x265::FrameEncoder\l::processRowEncoder">
<polygon fill="white" stroke="red" points="911.5,-266.476 911.5,-296.476 1024.5,-296.476 1024.5,-266.476 911.5,-266.476"/>
<text text-anchor="start" x="919.5" y="-284.476" font-family="Helvetica,sans-Serif" font-size="10.00">x265::FrameEncoder</text>
<text text-anchor="middle" x="968" y="-273.476" font-family="Helvetica,sans-Serif" font-size="10.00">::processRowEncoder</text>
</a>
</g>
</g>
<!-- Node1&#45;&gt;Node6 -->
<g id="edge8" class="edge"><title>Node1&#45;&gt;Node6</title>
<path fill="none" stroke="midnightblue" d="M122.371,-276.749C190.955,-270.279 301.932,-261.476 398,-261.476 398,-261.476 398,-261.476 597,-261.476 708.612,-261.476 838.887,-270.663 911.262,-276.584"/>
<polygon fill="midnightblue" stroke="midnightblue" points="121.774,-273.29 112.152,-277.725 122.44,-280.258 121.774,-273.29"/>
</g>
<!-- Node7 -->
<g id="node7" class="node"><title>Node7</title>
<g id="a_node7"><a xlink:href="classx265_1_1Analysis.html#aa6122285d10bb1bd7584958b88b029d5" target="_top" xlink:title="x265::Analysis::parallel\lModeAnalysis">
<polygon fill="white" stroke="black" points="156,-290.476 156,-320.476 274,-320.476 274,-290.476 156,-290.476"/>
<text text-anchor="start" x="164" y="-308.476" font-family="Helvetica,sans-Serif" font-size="10.00">x265::Analysis::parallel</text>
<text text-anchor="middle" x="215" y="-297.476" font-family="Helvetica,sans-Serif" font-size="10.00">ModeAnalysis</text>
</a>
</g>
</g>
<!-- Node1&#45;&gt;Node7 -->
<g id="edge6" class="edge"><title>Node1&#45;&gt;Node7</title>
<path fill="none" stroke="midnightblue" d="M122.439,-292.646C133.561,-294.205 145.043,-295.814 155.957,-297.343"/>
<polygon fill="midnightblue" stroke="midnightblue" points="122.741,-289.154 112.352,-291.233 121.77,-296.087 122.741,-289.154"/>
</g>
<!-- Node8 -->
<g id="node8" class="node"><title>Node8</title>
<g id="a_node8"><a xlink:href="classx265_1_1CostEstimate.html#af33d06405527ebbb03d9c93d565e6e2a" target="_top" xlink:title="x265::CostEstimate\l::estimateFrameCost">
<polygon fill="white" stroke="black" points="160.5,-132.476 160.5,-162.476 269.5,-162.476 269.5,-132.476 160.5,-132.476"/>
<text text-anchor="start" x="168.5" y="-150.476" font-family="Helvetica,sans-Serif" font-size="10.00">x265::CostEstimate</text>
<text text-anchor="middle" x="215" y="-139.476" font-family="Helvetica,sans-Serif" font-size="10.00">::estimateFrameCost</text>
</a>
</g>
</g>
<!-- Node1&#45;&gt;Node8 -->
<g id="edge9" class="edge"><title>Node1&#45;&gt;Node8</title>
<path fill="none" stroke="midnightblue" d="M82.022,-261.801C114.03,-234.075 168.65,-186.761 196.52,-162.618"/>
<polygon fill="midnightblue" stroke="midnightblue" points="79.6685,-259.209 74.4016,-268.402 84.2517,-264.5 79.6685,-259.209"/>
</g>
<!-- Node3 -->
<g id="node3" class="node"><title>Node3</title>
<g id="a_node3"><a xlink:href="classx265_1_1Analysis.html#a29a58dad4cc1c07d2f5e5717c6be7c25" target="_top" xlink:title="x265::Analysis::findJob">
<polygon fill="white" stroke="black" points="339.5,-295.976 339.5,-314.976 458.5,-314.976 458.5,-295.976 339.5,-295.976"/>
<text text-anchor="middle" x="399" y="-302.976" font-family="Helvetica,sans-Serif" font-size="10.00">x265::Analysis::findJob</text>
</a>
</g>
</g>
<!-- Node2&#45;&gt;Node3 -->
<g id="edge2" class="edge"><title>Node2&#45;&gt;Node3</title>
<path fill="none" stroke="midnightblue" d="M265.508,-337.507C294.762,-330.435 331.295,-321.603 358.586,-315.005"/>
<polygon fill="midnightblue" stroke="midnightblue" points="264.389,-334.177 255.491,-339.929 266.034,-340.981 264.389,-334.177"/>
</g>
<!-- Node4 -->
<g id="node4" class="node"><title>Node4</title>
<g id="a_node4"><a xlink:href="classx265_1_1Analysis.html#a87060ff27a37f56adc5f5b8a4c033ece" target="_top" xlink:title="x265::Analysis::compress\lInterCU_dist">
<polygon fill="white" stroke="black" points="531,-290.476 531,-320.476 661,-320.476 661,-290.476 531,-290.476"/>
<text text-anchor="start" x="539" y="-308.476" font-family="Helvetica,sans-Serif" font-size="10.00">x265::Analysis::compress</text>
<text text-anchor="middle" x="596" y="-297.476" font-family="Helvetica,sans-Serif" font-size="10.00">InterCU_dist</text>
</a>
</g>
</g>
<!-- Node3&#45;&gt;Node4 -->
<g id="edge3" class="edge"><title>Node3&#45;&gt;Node4</title>
<path fill="none" stroke="midnightblue" d="M468.575,-305.476C488.785,-305.476 510.818,-305.476 530.747,-305.476"/>
<polygon fill="midnightblue" stroke="midnightblue" points="468.506,-301.976 458.506,-305.476 468.506,-308.976 468.506,-301.976"/>
</g>
<!-- Node5 -->
<g id="node5" class="node"><title>Node5</title>
<g id="a_node5"><a xlink:href="classx265_1_1Analysis.html#aaebc9de2ff98834c650244f3b58942c2" target="_top" xlink:title="x265::Analysis::compressCTU">
<polygon fill="white" stroke="black" points="712.5,-292.976 712.5,-311.976 863.5,-311.976 863.5,-292.976 712.5,-292.976"/>
<text text-anchor="middle" x="788" y="-299.976" font-family="Helvetica,sans-Serif" font-size="10.00">x265::Analysis::compressCTU</text>
</a>
</g>
</g>
<!-- Node4&#45;&gt;Node5 -->
<g id="edge4" class="edge"><title>Node4&#45;&gt;Node5</title>
<path fill="none" stroke="midnightblue" d="M671.258,-304.304C684.769,-304.091 698.868,-303.868 712.389,-303.654"/>
<polygon fill="midnightblue" stroke="midnightblue" points="671.004,-300.807 661.06,-304.465 671.114,-307.806 671.004,-300.807"/>
</g>
<!-- Node5&#45;&gt;Node6 -->
<g id="edge5" class="edge"><title>Node5&#45;&gt;Node6</title>
<path fill="none" stroke="midnightblue" d="M873.893,-292.461C886.64,-290.957 899.5,-289.44 911.423,-288.033"/>
<polygon fill="midnightblue" stroke="midnightblue" points="873.235,-289.014 863.714,-293.662 874.056,-295.966 873.235,-289.014"/>
</g>
<!-- Node7&#45;&gt;Node3 -->
<g id="edge7" class="edge"><title>Node7&#45;&gt;Node3</title>
<path fill="none" stroke="midnightblue" d="M284.266,-305.476C302.34,-305.476 321.693,-305.476 339.216,-305.476"/>
<polygon fill="midnightblue" stroke="midnightblue" points="284.086,-301.976 274.086,-305.476 284.086,-308.976 284.086,-301.976"/>
</g>
<!-- Node9 -->
<g id="node9" class="node"><title>Node9</title>
<g id="a_node9"><a xlink:href="classx265_1_1Lookahead.html#ad15172de7a432e47e8514fb157fafedd" target="_top" xlink:title="x265::Lookahead::slicetype\lDecide">
<polygon fill="white" stroke="black" points="900,-185.476 900,-215.476 1036,-215.476 1036,-185.476 900,-185.476"/>
<text text-anchor="start" x="908" y="-203.476" font-family="Helvetica,sans-Serif" font-size="10.00">x265::Lookahead::slicetype</text>
<text text-anchor="middle" x="968" y="-192.476" font-family="Helvetica,sans-Serif" font-size="10.00">Decide</text>
</a>
</g>
</g>
<!-- Node8&#45;&gt;Node9 -->
<g id="edge10" class="edge"><title>Node8&#45;&gt;Node9</title>
<path fill="none" stroke="midnightblue" d="M244.189,-168.43C263.779,-181.636 291.103,-197.471 318,-204.476 524.354,-258.223 780.29,-230.318 899.728,-212.112"/>
<polygon fill="midnightblue" stroke="midnightblue" points="245.975,-165.409 235.763,-162.589 241.987,-171.162 245.975,-165.409"/>
</g>
<!-- Node15 -->
<g id="node15" class="node"><title>Node15</title>
<g id="a_node15"><a xlink:href="classx265_1_1Lookahead.html#ad963fd74581c61eaf7713367906b3e96" target="_top" xlink:title="x265::Lookahead::vbvFrameCost">
<polygon fill="white" stroke="black" points="318.5,-175.976 318.5,-194.976 479.5,-194.976 479.5,-175.976 318.5,-175.976"/>
<text text-anchor="middle" x="399" y="-182.976" font-family="Helvetica,sans-Serif" font-size="10.00">x265::Lookahead::vbvFrameCost</text>
</a>
</g>
</g>
<!-- Node8&#45;&gt;Node15 -->
<g id="edge17" class="edge"><title>Node8&#45;&gt;Node15</title>
<path fill="none" stroke="midnightblue" d="M279.706,-160.778C303.685,-165.784 330.45,-171.372 352.448,-175.965"/>
<polygon fill="midnightblue" stroke="midnightblue" points="280.126,-157.29 269.622,-158.672 278.695,-164.142 280.126,-157.29"/>
</g>
<!-- Node17 -->
<g id="node17" class="node"><title>Node17</title>
<g id="a_node17"><a xlink:href="classx265_1_1Lookahead.html#a2f8c7057dd5c5086830b5f22b38105b0" target="_top" xlink:title="x265::Lookahead::slicetype\lAnalyse">
<polygon fill="white" stroke="black" points="720,-112.476 720,-142.476 856,-142.476 856,-112.476 720,-112.476"/>
<text text-anchor="start" x="728" y="-130.476" font-family="Helvetica,sans-Serif" font-size="10.00">x265::Lookahead::slicetype</text>
<text text-anchor="middle" x="788" y="-119.476" font-family="Helvetica,sans-Serif" font-size="10.00">Analyse</text>
</a>
</g>
</g>
<!-- Node8&#45;&gt;Node17 -->
<g id="edge21" class="edge"><title>Node8&#45;&gt;Node17</title>
<path fill="none" stroke="midnightblue" d="M279.893,-145.238C388.705,-141.427 608.951,-133.713 719.906,-129.826"/>
<polygon fill="midnightblue" stroke="midnightblue" points="279.59,-141.747 269.718,-145.595 279.835,-148.743 279.59,-141.747"/>
</g>
<!-- Node18 -->
<g id="node18" class="node"><title>Node18</title>
<g id="a_node18"><a xlink:href="classx265_1_1Lookahead.html#abe59d19601dc7f3cc76ba3dd315140ee" target="_top" xlink:title="x265::Lookahead::scenecut\lInternal">
<polygon fill="white" stroke="black" points="330.5,-88.4764 330.5,-118.476 467.5,-118.476 467.5,-88.4764 330.5,-88.4764"/>
<text text-anchor="start" x="338.5" y="-106.476" font-family="Helvetica,sans-Serif" font-size="10.00">x265::Lookahead::scenecut</text>
<text text-anchor="middle" x="399" y="-95.4764" font-family="Helvetica,sans-Serif" font-size="10.00">Internal</text>
</a>
</g>
</g>
<!-- Node8&#45;&gt;Node18 -->
<g id="edge22" class="edge"><title>Node8&#45;&gt;Node18</title>
<path fill="none" stroke="midnightblue" d="M279.562,-132.11C297.794,-127.702 317.647,-122.902 335.795,-118.515"/>
<polygon fill="midnightblue" stroke="midnightblue" points="278.519,-128.761 269.622,-134.513 280.164,-135.565 278.519,-128.761"/>
</g>
<!-- Node20 -->
<g id="node20" class="node"><title>Node20</title>
<g id="a_node20"><a xlink:href="classx265_1_1Lookahead.html#a23cd684acae2cb60daeb2f6df390e30e" target="_top" xlink:title="x265::Lookahead::slicetype\lPathCost">
<polygon fill="white" stroke="black" points="331,-39.4764 331,-69.4764 467,-69.4764 467,-39.4764 331,-39.4764"/>
<text text-anchor="start" x="339" y="-57.4764" font-family="Helvetica,sans-Serif" font-size="10.00">x265::Lookahead::slicetype</text>
<text text-anchor="middle" x="399" y="-46.4764" font-family="Helvetica,sans-Serif" font-size="10.00">PathCost</text>
</a>
</g>
</g>
<!-- Node8&#45;&gt;Node20 -->
<g id="edge25" class="edge"><title>Node8&#45;&gt;Node20</title>
<path fill="none" stroke="midnightblue" d="M242.454,-126.278C262.29,-111.229 290.621,-91.4698 318,-78.4764 324.943,-75.1813 332.44,-72.222 339.964,-69.6005"/>
<polygon fill="midnightblue" stroke="midnightblue" points="240.287,-123.53 234.501,-132.406 244.559,-129.075 240.287,-123.53"/>
</g>
<!-- Node22 -->
<g id="node22" class="node"><title>Node22</title>
<g id="a_node22"><a xlink:href="classx265_1_1Lookahead.html#a7de60f6bb080e48623088fb1ed9f034b" target="_top" xlink:title="x265::Lookahead::cuTree">
<polygon fill="white" stroke="black" points="532.5,-3.97637 532.5,-22.9764 659.5,-22.9764 659.5,-3.97637 532.5,-3.97637"/>
<text text-anchor="middle" x="596" y="-10.9764" font-family="Helvetica,sans-Serif" font-size="10.00">x265::Lookahead::cuTree</text>
</a>
</g>
</g>
<!-- Node8&#45;&gt;Node22 -->
<g id="edge28" class="edge"><title>Node8&#45;&gt;Node22</title>
<path fill="none" stroke="midnightblue" d="M228.876,-123.265C245.349,-95.079 276.755,-49.8009 318,-29.4764 386.379,4.21857 476.068,2.36954 534.592,-3.95519"/>
<polygon fill="midnightblue" stroke="midnightblue" points="225.751,-121.681 223.869,-132.108 231.842,-125.13 225.751,-121.681"/>
</g>
<!-- Node10 -->
<g id="node10" class="node"><title>Node10</title>
<g id="a_node10"><a xlink:href="classx265_1_1Lookahead.html#a878bca13580997ab9c01e72a8f8e81c3" target="_top" xlink:title="x265::Lookahead::addPicture">
<polygon fill="white" stroke="black" points="1072.5,-228.976 1072.5,-247.976 1215.5,-247.976 1215.5,-228.976 1072.5,-228.976"/>
<text text-anchor="middle" x="1144" y="-235.976" font-family="Helvetica,sans-Serif" font-size="10.00">x265::Lookahead::addPicture</text>
</a>
</g>
</g>
<!-- Node9&#45;&gt;Node10 -->
<g id="edge11" class="edge"><title>Node9&#45;&gt;Node10</title>
<path fill="none" stroke="midnightblue" d="M1046.28,-217.353C1064.43,-221.318 1083.16,-225.408 1099.24,-228.92"/>
<polygon fill="midnightblue" stroke="midnightblue" points="1046.79,-213.882 1036.27,-215.168 1045.3,-220.721 1046.79,-213.882"/>
</g>
<!-- Node13 -->
<g id="node13" class="node"><title>Node13</title>
<g id="a_node13"><a xlink:href="classx265_1_1Lookahead.html#a0294c952379ca6f328014f92aa51259c" target="_top" xlink:title="x265::Lookahead::flush">
<polygon fill="white" stroke="black" points="1085,-190.976 1085,-209.976 1203,-209.976 1203,-190.976 1085,-190.976"/>
<text text-anchor="middle" x="1144" y="-197.976" font-family="Helvetica,sans-Serif" font-size="10.00">x265::Lookahead::flush</text>
</a>
</g>
</g>
<!-- Node9&#45;&gt;Node13 -->
<g id="edge14" class="edge"><title>Node9&#45;&gt;Node13</title>
<path fill="none" stroke="midnightblue" d="M1046.54,-200.476C1059.45,-200.476 1072.65,-200.476 1084.96,-200.476"/>
<polygon fill="midnightblue" stroke="midnightblue" points="1046.27,-196.976 1036.27,-200.476 1046.27,-203.976 1046.27,-196.976"/>
</g>
<!-- Node14 -->
<g id="node14" class="node"><title>Node14</title>
<g id="a_node14"><a xlink:href="classx265_1_1Lookahead.html#a341d8c6a3a971583aa911cf8dedbe6a1" target="_top" xlink:title="x265::Lookahead::findJob">
<polygon fill="white" stroke="black" points="1080,-152.976 1080,-171.976 1208,-171.976 1208,-152.976 1080,-152.976"/>
<text text-anchor="middle" x="1144" y="-159.976" font-family="Helvetica,sans-Serif" font-size="10.00">x265::Lookahead::findJob</text>
</a>
</g>
</g>
<!-- Node9&#45;&gt;Node14 -->
<g id="edge16" class="edge"><title>Node9&#45;&gt;Node14</title>
<path fill="none" stroke="midnightblue" d="M1046.28,-183.599C1064.43,-179.634 1083.16,-175.545 1099.24,-172.033"/>
<polygon fill="midnightblue" stroke="midnightblue" points="1045.3,-180.231 1036.27,-185.785 1046.79,-187.07 1045.3,-180.231"/>
</g>
<!-- Node11 -->
<g id="node11" class="node"><title>Node11</title>
<g id="a_node11"><a xlink:href="classx265_1_1Encoder.html#af5c80cef5fcafa00d1b3c105681bc784" target="_top" xlink:title="x265::Encoder::encode">
<polygon fill="white" stroke="black" points="1252.5,-209.976 1252.5,-228.976 1369.5,-228.976 1369.5,-209.976 1252.5,-209.976"/>
<text text-anchor="middle" x="1311" y="-216.976" font-family="Helvetica,sans-Serif" font-size="10.00">x265::Encoder::encode</text>
</a>
</g>
</g>
<!-- Node10&#45;&gt;Node11 -->
<g id="edge12" class="edge"><title>Node10&#45;&gt;Node11</title>
<path fill="none" stroke="midnightblue" d="M1225.95,-229.155C1234.84,-228.131 1243.77,-227.103 1252.3,-226.121"/>
<polygon fill="midnightblue" stroke="midnightblue" points="1225.47,-225.687 1215.93,-230.308 1226.27,-232.641 1225.47,-225.687"/>
</g>
<!-- Node12 -->
<g id="node12" class="node"><title>Node12</title>
<g id="a_node12"><a xlink:href="x265_8h.html#a7a45a920b9d86ed3fb3cb3794b14f5ea" target="_top" xlink:title="x265_encoder_encode">
<polygon fill="white" stroke="red" points="1406,-209.976 1406,-228.976 1520,-228.976 1520,-209.976 1406,-209.976"/>
<text text-anchor="middle" x="1463" y="-216.976" font-family="Helvetica,sans-Serif" font-size="10.00">x265_encoder_encode</text>
</a>
</g>
</g>
<!-- Node11&#45;&gt;Node12 -->
<g id="edge13" class="edge"><title>Node11&#45;&gt;Node12</title>
<path fill="none" stroke="midnightblue" d="M1379.72,-219.476C1388.45,-219.476 1397.31,-219.476 1405.83,-219.476"/>
<polygon fill="midnightblue" stroke="midnightblue" points="1379.56,-215.976 1369.56,-219.476 1379.56,-222.976 1379.56,-215.976"/>
</g>
<!-- Node13&#45;&gt;Node11 -->
<g id="edge15" class="edge"><title>Node13&#45;&gt;Node11</title>
<path fill="none" stroke="midnightblue" d="M1213.42,-208.356C1226.37,-209.846 1239.78,-211.391 1252.35,-212.838"/>
<polygon fill="midnightblue" stroke="midnightblue" points="1213.51,-204.842 1203.17,-207.175 1212.71,-211.796 1213.51,-204.842"/>
</g>
<!-- Node16 -->
<g id="node16" class="node"><title>Node16</title>
<g id="a_node16"><a xlink:href="classx265_1_1Lookahead.html#ad80879ec65df8318fbb5109388dcfa39" target="_top" xlink:title="x265::Lookahead::vbvLookahead">
<polygon fill="white" stroke="black" points="516,-175.976 516,-194.976 676,-194.976 676,-175.976 516,-175.976"/>
<text text-anchor="middle" x="596" y="-182.976" font-family="Helvetica,sans-Serif" font-size="10.00">x265::Lookahead::vbvLookahead</text>
</a>
</g>
</g>
<!-- Node15&#45;&gt;Node16 -->
<g id="edge18" class="edge"><title>Node15&#45;&gt;Node16</title>
<path fill="none" stroke="midnightblue" d="M489.797,-185.476C498.534,-185.476 507.355,-185.476 515.975,-185.476"/>
<polygon fill="midnightblue" stroke="midnightblue" points="489.595,-181.976 479.595,-185.476 489.595,-188.976 489.595,-181.976"/>
</g>
<!-- Node16&#45;&gt;Node17 -->
<g id="edge19" class="edge"><title>Node16&#45;&gt;Node17</title>
<path fill="none" stroke="midnightblue" d="M638.39,-172.922C650.513,-169.239 663.789,-165.201 676,-161.476 696.338,-155.272 718.764,-148.407 738.104,-142.48"/>
<polygon fill="midnightblue" stroke="midnightblue" points="637.079,-169.662 628.528,-175.916 639.113,-176.36 637.079,-169.662"/>
</g>
<!-- Node17&#45;&gt;Node9 -->
<g id="edge20" class="edge"><title>Node17&#45;&gt;Node9</title>
<path fill="none" stroke="midnightblue" d="M835.17,-146.411C864.747,-158.541 902.611,-174.07 930.166,-185.37"/>
<polygon fill="midnightblue" stroke="midnightblue" points="836.462,-143.158 825.882,-142.602 833.806,-149.635 836.462,-143.158"/>
</g>
<!-- Node19 -->
<g id="node19" class="node"><title>Node19</title>
<g id="a_node19"><a xlink:href="classx265_1_1Lookahead.html#aa8614a28660df5604b8f7a2319d1c43a" target="_top" xlink:title="x265::Lookahead::scenecut">
<polygon fill="white" stroke="black" points="527.5,-96.9764 527.5,-115.976 664.5,-115.976 664.5,-96.9764 527.5,-96.9764"/>
<text text-anchor="middle" x="596" y="-103.976" font-family="Helvetica,sans-Serif" font-size="10.00">x265::Lookahead::scenecut</text>
</a>
</g>
</g>
<!-- Node18&#45;&gt;Node19 -->
<g id="edge23" class="edge"><title>Node18&#45;&gt;Node19</title>
<path fill="none" stroke="midnightblue" d="M477.773,-104.673C494.215,-104.926 511.439,-105.191 527.465,-105.437"/>
<polygon fill="midnightblue" stroke="midnightblue" points="477.707,-101.172 467.654,-104.517 477.599,-108.171 477.707,-101.172"/>
</g>
<!-- Node19&#45;&gt;Node17 -->
<g id="edge24" class="edge"><title>Node19&#45;&gt;Node17</title>
<path fill="none" stroke="midnightblue" d="M674.733,-115.068C689.646,-116.716 705.145,-118.429 719.696,-120.037"/>
<polygon fill="midnightblue" stroke="midnightblue" points="674.846,-111.559 664.522,-113.939 674.077,-118.517 674.846,-111.559"/>
</g>
<!-- Node21 -->
<g id="node21" class="node"><title>Node21</title>
<g id="a_node21"><a xlink:href="classx265_1_1Lookahead.html#a694b3e0d0fb30e4e5b149cd3d79a839d" target="_top" xlink:title="x265::Lookahead::slicetypePath">
<polygon fill="white" stroke="black" points="518,-52.9764 518,-71.9764 674,-71.9764 674,-52.9764 518,-52.9764"/>
<text text-anchor="middle" x="596" y="-59.9764" font-family="Helvetica,sans-Serif" font-size="10.00">x265::Lookahead::slicetypePath</text>
</a>
</g>
</g>
<!-- Node20&#45;&gt;Node21 -->
<g id="edge26" class="edge"><title>Node20&#45;&gt;Node21</title>
<path fill="none" stroke="midnightblue" d="M477.182,-57.6428C490.514,-58.1898 504.377,-58.7585 517.712,-59.3056"/>
<polygon fill="midnightblue" stroke="midnightblue" points="477.243,-54.1425 467.108,-57.2295 476.956,-61.1366 477.243,-54.1425"/>
</g>
<!-- Node21&#45;&gt;Node17 -->
<g id="edge27" class="edge"><title>Node21&#45;&gt;Node17</title>
<path fill="none" stroke="midnightblue" d="M637.8,-75.0508C650.109,-78.935 663.634,-83.2936 676,-87.4764 699.479,-95.4183 725.56,-104.789 746.539,-112.463"/>
<polygon fill="midnightblue" stroke="midnightblue" points="638.824,-71.7038 628.235,-72.0498 636.729,-78.3828 638.824,-71.7038"/>
</g>
<!-- Node22&#45;&gt;Node17 -->
<g id="edge29" class="edge"><title>Node22&#45;&gt;Node17</title>
<path fill="none" stroke="midnightblue" d="M638.054,-26.5441C650.571,-31.1899 664.149,-36.9192 676,-43.4764 712.16,-63.4832 749.538,-94.2415 770.374,-112.461"/>
<polygon fill="midnightblue" stroke="midnightblue" points="638.89,-23.1262 628.296,-23.0554 636.534,-29.7176 638.89,-23.1262"/>
</g>
</g>
</svg>
        <g id="navigator" transform="translate(0 0)" fill="#404254">
                <rect fill="#f2f5e9" fill-opacity="0.5" stroke="#606060" stroke-width=".5" x="0" y="0" width="60" height="60"/>
                <use id="zoomplus" xlink:href="#zoomPlus" x="17" y="9" onmousedown="handleZoom(evt,'in')"/>
                <use id="zoomminus" xlink:href="#zoomMin" x="42" y="9" onmousedown="handleZoom(evt,'out')"/>
                <use id="reset" xlink:href="#resetDef" x="30" y="36" onmousedown="handleReset()"/>
                <g id="arrowUp" xlink:href="#dirArrow" transform="translate(30 24)" onmousedown="handlePan(0,-1)">
                  <use xlink:href="#rim" fill="#404040">
                        <set attributeName="fill" to="#808080" begin="arrowUp.mouseover" end="arrowUp.mouseout"/>
                  </use>
                  <path fill="none" stroke="white" stroke-width="1.5" d="M0,-3.0v7 M-2.5,-0.5L0,-3.0L2.5,-0.5"/>
                </g>
                <g id="arrowRight" xlink:href="#dirArrow" transform="rotate(90) translate(36 -43)" onmousedown="handlePan(1,0)">
                  <use xlink:href="#rim" fill="#404040">
                        <set attributeName="fill" to="#808080" begin="arrowRight.mouseover" end="arrowRight.mouseout"/>
                  </use>
                  <path fill="none" stroke="white" stroke-width="1.5" d="M0,-3.0v7 M-2.5,-0.5L0,-3.0L2.5,-0.5"/>
                </g>
                <g id="arrowDown" xlink:href="#dirArrow" transform="rotate(180) translate(-30 -48)" onmousedown="handlePan(0,1)">
                  <use xlink:href="#rim" fill="#404040">
                        <set attributeName="fill" to="#808080" begin="arrowDown.mouseover" end="arrowDown.mouseout"/>
                  </use>
                  <path fill="none" stroke="white" stroke-width="1.5" d="M0,-3.0v7 M-2.5,-0.5L0,-3.0L2.5,-0.5"/>
                </g>
                <g id="arrowLeft" xlink:href="#dirArrow" transform="rotate(270) translate(-36 17)" onmousedown="handlePan(-1,0)">
                  <use xlink:href="#rim" fill="#404040">
                        <set attributeName="fill" to="#808080" begin="arrowLeft.mouseover" end="arrowLeft.mouseout"/>
                  </use>
                  <path fill="none" stroke="white" stroke-width="1.5" d="M0,-3.0v7 M-2.5,-0.5L0,-3.0L2.5,-0.5"/>
                </g>
        </g>
        <svg viewBox="0 0 15 15" width="100%" height="30px" preserveAspectRatio="xMaxYMin meet">
         <g id="arrow_out" transform="scale(0.3 0.3)">
          <a xlink:href="classx265_1_1MotionEstimate_ac697505bf39a6a42796f76bcc971eba3_icgraph_org.svg" target="_base">
           <rect id="button" ry="5" rx="5" y="6" x="6" height="38" width="38"
                fill="#f2f5e9" fill-opacity="0.5" stroke="#606060" stroke-width="1.0"/>
           <path id="arrow"
             d="M 11.500037,31.436501 C 11.940474,20.09759 22.043105,11.32322 32.158766,21.979434 L 37.068811,17.246167 C 37.068811,17.246167 37.088388,32 37.088388,32 L 22.160133,31.978069 C 22.160133,31.978069 26.997745,27.140456 26.997745,27.140456 C 18.528582,18.264221 13.291696,25.230495 11.500037,31.436501 z"
             style="fill:#404040;"/>
          </a>
         </g>
        </svg>
</svg>
