<?xml version="1.0" encoding="UTF-8" standalone="no"?>
<!DOCTYPE svg PUBLIC "-//W3C//DTD SVG 1.1//EN"
 "http://www.w3.org/Graphics/SVG/1.1/DTD/svg11.dtd">
<!-- Generated by graphviz version 2.36.0 (20140111.2315)
 -->
<!-- Title: x265::Predict::predInterChromaPixel Pages: 1 -->
<svg width="2302pt" height="239pt"
 viewBox="0.00 0.00 2302.00 239.00" xmlns="http://www.w3.org/2000/svg" xmlns:xlink="http://www.w3.org/1999/xlink">
<g id="graph0" class="graph" transform="scale(1 1) rotate(0) translate(4 235)">
<title>x265::Predict::predInterChromaPixel</title>
<polygon fill="white" stroke="none" points="-4,4 -4,-235 2298,-235 2298,4 -4,4"/>
<!-- Node1 -->
<g id="node1" class="node"><title>Node1</title>
<polygon fill="#bfbfbf" stroke="black" points="0.5,-109 0.5,-139 119.5,-139 119.5,-109 0.5,-109"/>
<text text-anchor="start" x="8.5" y="-127" font-family="Helvetica,sans-Serif" font-size="10.00">x265::Predict::predInter</text>
<text text-anchor="middle" x="60" y="-116" font-family="Helvetica,sans-Serif" font-size="10.00">ChromaPixel</text>
</g>
<!-- Node2 -->
<g id="node2" class="node"><title>Node2</title>
<g id="a_node2"><a xlink:href="classx265_1_1Predict.html#ab23a30d88a19749b5ddd7892d19e202f" target="_top" xlink:title="x265::Predict::motionCompensation">
<polygon fill="white" stroke="black" points="156.5,-114.5 156.5,-133.5 329.5,-133.5 329.5,-114.5 156.5,-114.5"/>
<text text-anchor="middle" x="243" y="-121.5" font-family="Helvetica,sans-Serif" font-size="10.00">x265::Predict::motionCompensation</text>
</a>
</g>
</g>
<!-- Node1&#45;&gt;Node2 -->
<g id="edge1" class="edge"><title>Node1&#45;&gt;Node2</title>
<path fill="none" stroke="midnightblue" d="M129.778,-124C138.435,-124 147.373,-124 156.251,-124"/>
<polygon fill="midnightblue" stroke="midnightblue" points="129.766,-120.5 119.766,-124 129.765,-127.5 129.766,-120.5"/>
</g>
<!-- Node3 -->
<g id="node3" class="node"><title>Node3</title>
<g id="a_node3"><a xlink:href="classx265_1_1Analysis.html#a87060ff27a37f56adc5f5b8a4c033ece" target="_top" xlink:title="x265::Analysis::compress\lInterCU_dist">
<polygon fill="white" stroke="black" points="1246,-159 1246,-189 1376,-189 1376,-159 1246,-159"/>
<text text-anchor="start" x="1254" y="-177" font-family="Helvetica,sans-Serif" font-size="10.00">x265::Analysis::compress</text>
<text text-anchor="middle" x="1311" y="-166" font-family="Helvetica,sans-Serif" font-size="10.00">InterCU_dist</text>
</a>
</g>
</g>
<!-- Node2&#45;&gt;Node3 -->
<g id="edge2" class="edge"><title>Node2&#45;&gt;Node3</title>
<path fill="none" stroke="midnightblue" d="M269.707,-138.326C293.883,-151.234 331.431,-169.846 366,-181 479.649,-217.672 510.581,-231 630,-231 630,-231 630,-231 990,-231 1085.79,-231 1195.24,-205.938 1258.12,-189.051"/>
<polygon fill="midnightblue" stroke="midnightblue" points="271.284,-135.201 260.824,-133.519 267.952,-141.357 271.284,-135.201"/>
</g>
<!-- Node10 -->
<g id="node10" class="node"><title>Node10</title>
<g id="a_node10"><a xlink:href="classx265_1_1Analysis.html#a30d2ff7eca5addbb0a6b3dfe14f09650" target="_top" xlink:title="x265::Analysis::compress\lInterCU_rd0_4">
<polygon fill="white" stroke="black" points="924,-131 924,-161 1054,-161 1054,-131 924,-131"/>
<text text-anchor="start" x="932" y="-149" font-family="Helvetica,sans-Serif" font-size="10.00">x265::Analysis::compress</text>
<text text-anchor="middle" x="989" y="-138" font-family="Helvetica,sans-Serif" font-size="10.00">InterCU_rd0_4</text>
</a>
</g>
</g>
<!-- Node2&#45;&gt;Node10 -->
<g id="edge9" class="edge"><title>Node2&#45;&gt;Node10</title>
<path fill="none" stroke="midnightblue" d="M340.109,-126.842C494.36,-131.403 793.11,-140.237 923.974,-144.107"/>
<polygon fill="midnightblue" stroke="midnightblue" points="339.808,-123.332 329.709,-126.534 339.602,-130.329 339.808,-123.332"/>
</g>
<!-- Node11 -->
<g id="node11" class="node"><title>Node11</title>
<g id="a_node11"><a xlink:href="classx265_1_1Analysis.html#addd72cb95590e2b2a6965d42d110eab3" target="_top" xlink:title="x265::Analysis::checkMerge2\lNx2N_rd0_4">
<polygon fill="white" stroke="black" points="742,-172 742,-202 888,-202 888,-172 742,-172"/>
<text text-anchor="start" x="750" y="-190" font-family="Helvetica,sans-Serif" font-size="10.00">x265::Analysis::checkMerge2</text>
<text text-anchor="middle" x="815" y="-179" font-family="Helvetica,sans-Serif" font-size="10.00">Nx2N_rd0_4</text>
</a>
</g>
</g>
<!-- Node2&#45;&gt;Node11 -->
<g id="edge11" class="edge"><title>Node2&#45;&gt;Node11</title>
<path fill="none" stroke="midnightblue" d="M282.919,-136.636C306.666,-143.815 337.784,-152.287 366,-157 497.284,-178.93 652.743,-184.952 741.722,-186.531"/>
<polygon fill="midnightblue" stroke="midnightblue" points="283.81,-133.248 273.223,-133.653 281.752,-139.939 283.81,-133.248"/>
</g>
<!-- Node12 -->
<g id="node12" class="node"><title>Node12</title>
<g id="a_node12"><a xlink:href="classx265_1_1Analysis.html#a0194a9da53aa95173fa1132ba3aea1c7" target="_top" xlink:title="x265::Analysis::checkMerge2\lNx2N_rd5_6">
<polygon fill="white" stroke="black" points="558,-0 558,-30 704,-30 704,-0 558,-0"/>
<text text-anchor="start" x="566" y="-18" font-family="Helvetica,sans-Serif" font-size="10.00">x265::Analysis::checkMerge2</text>
<text text-anchor="middle" x="631" y="-7" font-family="Helvetica,sans-Serif" font-size="10.00">Nx2N_rd5_6</text>
</a>
</g>
</g>
<!-- Node2&#45;&gt;Node12 -->
<g id="edge14" class="edge"><title>Node2&#45;&gt;Node12</title>
<path fill="none" stroke="midnightblue" d="M263.499,-108.068C286.49,-90.224 326.584,-61.9758 366,-48 428.363,-25.888 503.597,-18.1895 557.769,-15.6975"/>
<polygon fill="midnightblue" stroke="midnightblue" points="261.233,-105.398 255.561,-114.346 265.576,-110.888 261.233,-105.398"/>
</g>
<!-- Node14 -->
<g id="node14" class="node"><title>Node14</title>
<g id="a_node14"><a xlink:href="classx265_1_1Search.html#a761560ef5d3ff0beb48567c88c771d55" target="_top" xlink:title="x265::Search::mergeEstimation">
<polygon fill="white" stroke="black" points="366,-57.5 366,-76.5 520,-76.5 520,-57.5 366,-57.5"/>
<text text-anchor="middle" x="443" y="-64.5" font-family="Helvetica,sans-Serif" font-size="10.00">x265::Search::mergeEstimation</text>
</a>
</g>
</g>
<!-- Node2&#45;&gt;Node14 -->
<g id="edge17" class="edge"><title>Node2&#45;&gt;Node14</title>
<path fill="none" stroke="midnightblue" d="M287.022,-111.615C323.578,-101.091 375.303,-86.2007 408.751,-76.5716"/>
<polygon fill="midnightblue" stroke="midnightblue" points="285.782,-108.33 277.141,-114.459 287.719,-115.056 285.782,-108.33"/>
</g>
<!-- Node15 -->
<g id="node15" class="node"><title>Node15</title>
<g id="a_node15"><a xlink:href="classx265_1_1Search.html#a48101e3d900e93b97a83f461be390bd1" target="_top" xlink:title="x265::Search::predInterSearch">
<polygon fill="white" stroke="black" points="556.5,-58.5 556.5,-77.5 705.5,-77.5 705.5,-58.5 556.5,-58.5"/>
<text text-anchor="middle" x="631" y="-65.5" font-family="Helvetica,sans-Serif" font-size="10.00">x265::Search::predInterSearch</text>
</a>
</g>
</g>
<!-- Node2&#45;&gt;Node15 -->
<g id="edge26" class="edge"><title>Node2&#45;&gt;Node15</title>
<path fill="none" stroke="midnightblue" d="M327.018,-113.129C381.854,-105.811 455.274,-95.7499 520,-86 537.413,-83.377 556.346,-80.3443 573.518,-77.5247"/>
<polygon fill="midnightblue" stroke="midnightblue" points="326.452,-109.673 317.001,-114.463 327.376,-116.612 326.452,-109.673"/>
</g>
<!-- Node4 -->
<g id="node4" class="node"><title>Node4</title>
<g id="a_node4"><a xlink:href="classx265_1_1Analysis.html#aaebc9de2ff98834c650244f3b58942c2" target="_top" xlink:title="x265::Analysis::compressCTU">
<polygon fill="white" stroke="black" points="1412.5,-104.5 1412.5,-123.5 1563.5,-123.5 1563.5,-104.5 1412.5,-104.5"/>
<text text-anchor="middle" x="1488" y="-111.5" font-family="Helvetica,sans-Serif" font-size="10.00">x265::Analysis::compressCTU</text>
</a>
</g>
</g>
<!-- Node3&#45;&gt;Node4 -->
<g id="edge3" class="edge"><title>Node3&#45;&gt;Node4</title>
<path fill="none" stroke="midnightblue" d="M1365.93,-155.509C1396.82,-144.92 1434.28,-132.077 1459.27,-123.507"/>
<polygon fill="midnightblue" stroke="midnightblue" points="1364.48,-152.305 1356.16,-158.859 1366.75,-158.927 1364.48,-152.305"/>
</g>
<!-- Node5 -->
<g id="node5" class="node"><title>Node5</title>
<g id="a_node5"><a xlink:href="classx265_1_1FrameEncoder.html#a0ae85001572afd28238476542523ac5f" target="_top" xlink:title="x265::FrameEncoder\l::processRowEncoder">
<polygon fill="white" stroke="black" points="1600.5,-99 1600.5,-129 1713.5,-129 1713.5,-99 1600.5,-99"/>
<text text-anchor="start" x="1608.5" y="-117" font-family="Helvetica,sans-Serif" font-size="10.00">x265::FrameEncoder</text>
<text text-anchor="middle" x="1657" y="-106" font-family="Helvetica,sans-Serif" font-size="10.00">::processRowEncoder</text>
</a>
</g>
</g>
<!-- Node4&#45;&gt;Node5 -->
<g id="edge4" class="edge"><title>Node4&#45;&gt;Node5</title>
<path fill="none" stroke="midnightblue" d="M1573.86,-114C1582.86,-114 1591.85,-114 1600.39,-114"/>
<polygon fill="midnightblue" stroke="midnightblue" points="1573.71,-110.5 1563.71,-114 1573.71,-117.5 1573.71,-110.5"/>
</g>
<!-- Node6 -->
<g id="node6" class="node"><title>Node6</title>
<g id="a_node6"><a xlink:href="classx265_1_1FrameEncoder.html#acad645a8ece97d884895f8f7366b7d70" target="_top" xlink:title="x265::FrameEncoder\l::processRow">
<polygon fill="white" stroke="black" points="1750.5,-99 1750.5,-129 1857.5,-129 1857.5,-99 1750.5,-99"/>
<text text-anchor="start" x="1758.5" y="-117" font-family="Helvetica,sans-Serif" font-size="10.00">x265::FrameEncoder</text>
<text text-anchor="middle" x="1804" y="-106" font-family="Helvetica,sans-Serif" font-size="10.00">::processRow</text>
</a>
</g>
</g>
<!-- Node5&#45;&gt;Node6 -->
<g id="edge5" class="edge"><title>Node5&#45;&gt;Node6</title>
<path fill="none" stroke="midnightblue" d="M1723.88,-114C1732.67,-114 1741.59,-114 1750.13,-114"/>
<polygon fill="midnightblue" stroke="midnightblue" points="1723.65,-110.5 1713.65,-114 1723.65,-117.5 1723.65,-110.5"/>
</g>
<!-- Node7 -->
<g id="node7" class="node"><title>Node7</title>
<g id="a_node7"><a xlink:href="classx265_1_1FrameEncoder.html#ac4e9ce2e876c0cdb25c992c872fe4302" target="_top" xlink:title="x265::FrameEncoder\l::compressCTURows">
<polygon fill="white" stroke="black" points="1894,-99 1894,-129 2006,-129 2006,-99 1894,-99"/>
<text text-anchor="start" x="1902" y="-117" font-family="Helvetica,sans-Serif" font-size="10.00">x265::FrameEncoder</text>
<text text-anchor="middle" x="1950" y="-106" font-family="Helvetica,sans-Serif" font-size="10.00">::compressCTURows</text>
</a>
</g>
</g>
<!-- Node6&#45;&gt;Node7 -->
<g id="edge6" class="edge"><title>Node6&#45;&gt;Node7</title>
<path fill="none" stroke="midnightblue" d="M1867.83,-114C1876.48,-114 1885.3,-114 1893.79,-114"/>
<polygon fill="midnightblue" stroke="midnightblue" points="1867.8,-110.5 1857.8,-114 1867.8,-117.5 1867.8,-110.5"/>
</g>
<!-- Node8 -->
<g id="node8" class="node"><title>Node8</title>
<g id="a_node8"><a xlink:href="classx265_1_1FrameEncoder.html#a2f5c4c0f1a4e36fce4c9b87eb7ec4973" target="_top" xlink:title="x265::FrameEncoder\l::compressFrame">
<polygon fill="white" stroke="black" points="2042.5,-99 2042.5,-129 2149.5,-129 2149.5,-99 2042.5,-99"/>
<text text-anchor="start" x="2050.5" y="-117" font-family="Helvetica,sans-Serif" font-size="10.00">x265::FrameEncoder</text>
<text text-anchor="middle" x="2096" y="-106" font-family="Helvetica,sans-Serif" font-size="10.00">::compressFrame</text>
</a>
</g>
</g>
<!-- Node7&#45;&gt;Node8 -->
<g id="edge7" class="edge"><title>Node7&#45;&gt;Node8</title>
<path fill="none" stroke="midnightblue" d="M2016.42,-114C2025.15,-114 2034.02,-114 2042.49,-114"/>
<polygon fill="midnightblue" stroke="midnightblue" points="2016.26,-110.5 2006.26,-114 2016.26,-117.5 2016.26,-110.5"/>
</g>
<!-- Node9 -->
<g id="node9" class="node"><title>Node9</title>
<g id="a_node9"><a xlink:href="classx265_1_1FrameEncoder.html#aef61f29b9e93b3af9255d96236bc90a7" target="_top" xlink:title="x265::FrameEncoder\l::threadMain">
<polygon fill="white" stroke="black" points="2186.5,-99 2186.5,-129 2293.5,-129 2293.5,-99 2186.5,-99"/>
<text text-anchor="start" x="2194.5" y="-117" font-family="Helvetica,sans-Serif" font-size="10.00">x265::FrameEncoder</text>
<text text-anchor="middle" x="2240" y="-106" font-family="Helvetica,sans-Serif" font-size="10.00">::threadMain</text>
</a>
</g>
</g>
<!-- Node8&#45;&gt;Node9 -->
<g id="edge8" class="edge"><title>Node8&#45;&gt;Node9</title>
<path fill="none" stroke="midnightblue" d="M2159.99,-114C2168.7,-114 2177.58,-114 2186.08,-114"/>
<polygon fill="midnightblue" stroke="midnightblue" points="2159.88,-110.5 2149.88,-114 2159.88,-117.5 2159.88,-110.5"/>
</g>
<!-- Node10&#45;&gt;Node4 -->
<g id="edge10" class="edge"><title>Node10&#45;&gt;Node4</title>
<path fill="none" stroke="midnightblue" d="M1064.3,-135.659C1072.96,-134.657 1081.66,-133.74 1090,-133 1202.03,-123.054 1332.35,-118.07 1412.24,-115.763"/>
<polygon fill="midnightblue" stroke="midnightblue" points="1063.71,-132.204 1054.2,-136.868 1064.54,-139.155 1063.71,-132.204"/>
</g>
<!-- Node11&#45;&gt;Node3 -->
<g id="edge12" class="edge"><title>Node11&#45;&gt;Node3</title>
<path fill="none" stroke="midnightblue" d="M898.217,-184.836C995.837,-182.267 1156.6,-178.037 1245.63,-175.694"/>
<polygon fill="midnightblue" stroke="midnightblue" points="898.001,-181.341 888.096,-185.103 898.185,-188.338 898.001,-181.341"/>
</g>
<!-- Node11&#45;&gt;Node10 -->
<g id="edge13" class="edge"><title>Node11&#45;&gt;Node10</title>
<path fill="none" stroke="midnightblue" d="M889.008,-169.597C900.959,-166.748 913.253,-163.818 924.938,-161.032"/>
<polygon fill="midnightblue" stroke="midnightblue" points="887.986,-166.242 879.07,-171.966 889.609,-173.052 887.986,-166.242"/>
</g>
<!-- Node13 -->
<g id="node13" class="node"><title>Node13</title>
<g id="a_node13"><a xlink:href="classx265_1_1Analysis.html#a0b22b7765aa4a36b1ba6d07ba26901e6" target="_top" xlink:title="x265::Analysis::compress\lInterCU_rd5_6">
<polygon fill="white" stroke="black" points="924,-33 924,-63 1054,-63 1054,-33 924,-33"/>
<text text-anchor="start" x="932" y="-51" font-family="Helvetica,sans-Serif" font-size="10.00">x265::Analysis::compress</text>
<text text-anchor="middle" x="989" y="-40" font-family="Helvetica,sans-Serif" font-size="10.00">InterCU_rd5_6</text>
</a>
</g>
</g>
<!-- Node12&#45;&gt;Node13 -->
<g id="edge15" class="edge"><title>Node12&#45;&gt;Node13</title>
<path fill="none" stroke="midnightblue" d="M714.218,-14.3164C764.587,-14.8618 830.255,-17.3004 888,-25 902.038,-26.8718 917.001,-29.7992 930.961,-32.9459"/>
<polygon fill="midnightblue" stroke="midnightblue" points="714.063,-10.815 704.033,-14.2295 714.003,-17.8148 714.063,-10.815"/>
</g>
<!-- Node13&#45;&gt;Node4 -->
<g id="edge16" class="edge"><title>Node13&#45;&gt;Node4</title>
<path fill="none" stroke="midnightblue" d="M1064.29,-57.8657C1159.06,-70.4504 1321.84,-92.0675 1415.33,-104.483"/>
<polygon fill="midnightblue" stroke="midnightblue" points="1064.58,-54.3739 1054.21,-56.5269 1063.66,-61.313 1064.58,-54.3739"/>
</g>
<!-- Node14&#45;&gt;Node15 -->
<g id="edge18" class="edge"><title>Node14&#45;&gt;Node15</title>
<path fill="none" stroke="midnightblue" d="M530.336,-67.4642C539.024,-67.5109 547.791,-67.558 556.33,-67.6039"/>
<polygon fill="midnightblue" stroke="midnightblue" points="530.209,-63.9635 520.19,-67.4096 530.171,-70.9634 530.209,-63.9635"/>
</g>
<!-- Node16 -->
<g id="node16" class="node"><title>Node16</title>
<g id="a_node16"><a xlink:href="classx265_1_1Analysis.html#a2305f7985af66b49fdbc40ebb1b281d2" target="_top" xlink:title="x265::Analysis::checkInter\l_rd0_4">
<polygon fill="white" stroke="black" points="748.5,-84 748.5,-114 881.5,-114 881.5,-84 748.5,-84"/>
<text text-anchor="start" x="756.5" y="-102" font-family="Helvetica,sans-Serif" font-size="10.00">x265::Analysis::checkInter</text>
<text text-anchor="middle" x="815" y="-91" font-family="Helvetica,sans-Serif" font-size="10.00">_rd0_4</text>
</a>
</g>
</g>
<!-- Node15&#45;&gt;Node16 -->
<g id="edge19" class="edge"><title>Node15&#45;&gt;Node16</title>
<path fill="none" stroke="midnightblue" d="M698.084,-79.2561C714.407,-82.0364 731.89,-85.0142 748.199,-87.7922"/>
<polygon fill="midnightblue" stroke="midnightblue" points="698.537,-75.7829 688.091,-77.554 697.361,-82.6835 698.537,-75.7829"/>
</g>
<!-- Node19 -->
<g id="node19" class="node"><title>Node19</title>
<g id="a_node19"><a xlink:href="classx265_1_1Analysis.html#a828daa3e9f1ed40a1af9f99f7ff7bb33" target="_top" xlink:title="x265::Analysis::checkInter\l_rd5_6">
<polygon fill="white" stroke="black" points="748.5,-35 748.5,-65 881.5,-65 881.5,-35 748.5,-35"/>
<text text-anchor="start" x="756.5" y="-53" font-family="Helvetica,sans-Serif" font-size="10.00">x265::Analysis::checkInter</text>
<text text-anchor="middle" x="815" y="-42" font-family="Helvetica,sans-Serif" font-size="10.00">_rd5_6</text>
</a>
</g>
</g>
<!-- Node15&#45;&gt;Node19 -->
<g id="edge24" class="edge"><title>Node15&#45;&gt;Node19</title>
<path fill="none" stroke="midnightblue" d="M715.569,-59.7349C726.597,-58.6442 737.771,-57.5391 748.438,-56.4841"/>
<polygon fill="midnightblue" stroke="midnightblue" points="715.109,-56.2633 705.502,-60.7306 715.798,-63.2293 715.109,-56.2633"/>
</g>
<!-- Node16&#45;&gt;Node10 -->
<g id="edge23" class="edge"><title>Node16&#45;&gt;Node10</title>
<path fill="none" stroke="midnightblue" d="M880.853,-116.722C898.041,-121.418 916.431,-126.443 933.037,-130.981"/>
<polygon fill="midnightblue" stroke="midnightblue" points="881.464,-113.26 870.895,-114 879.619,-120.013 881.464,-113.26"/>
</g>
<!-- Node17 -->
<g id="node17" class="node"><title>Node17</title>
<g id="a_node17"><a xlink:href="classx265_1_1Analysis.html#aa6122285d10bb1bd7584958b88b029d5" target="_top" xlink:title="x265::Analysis::parallel\lModeAnalysis">
<polygon fill="white" stroke="black" points="930,-82 930,-112 1048,-112 1048,-82 930,-82"/>
<text text-anchor="start" x="938" y="-100" font-family="Helvetica,sans-Serif" font-size="10.00">x265::Analysis::parallel</text>
<text text-anchor="middle" x="989" y="-89" font-family="Helvetica,sans-Serif" font-size="10.00">ModeAnalysis</text>
</a>
</g>
</g>
<!-- Node16&#45;&gt;Node17 -->
<g id="edge20" class="edge"><title>Node16&#45;&gt;Node17</title>
<path fill="none" stroke="midnightblue" d="M891.72,-98.1195C904.554,-97.9703 917.698,-97.8175 929.986,-97.6746"/>
<polygon fill="midnightblue" stroke="midnightblue" points="891.475,-94.622 881.516,-98.2382 891.557,-101.622 891.475,-94.622"/>
</g>
<!-- Node18 -->
<g id="node18" class="node"><title>Node18</title>
<g id="a_node18"><a xlink:href="classx265_1_1Analysis.html#a29a58dad4cc1c07d2f5e5717c6be7c25" target="_top" xlink:title="x265::Analysis::findJob">
<polygon fill="white" stroke="black" points="1090.5,-142.5 1090.5,-161.5 1209.5,-161.5 1209.5,-142.5 1090.5,-142.5"/>
<text text-anchor="middle" x="1150" y="-149.5" font-family="Helvetica,sans-Serif" font-size="10.00">x265::Analysis::findJob</text>
</a>
</g>
</g>
<!-- Node17&#45;&gt;Node18 -->
<g id="edge21" class="edge"><title>Node17&#45;&gt;Node18</title>
<path fill="none" stroke="midnightblue" d="M1043.21,-115.406C1069.3,-124.43 1099.64,-134.926 1121.12,-142.357"/>
<polygon fill="midnightblue" stroke="midnightblue" points="1044.04,-111.99 1033.45,-112.029 1041.75,-118.606 1044.04,-111.99"/>
</g>
<!-- Node18&#45;&gt;Node3 -->
<g id="edge22" class="edge"><title>Node18&#45;&gt;Node3</title>
<path fill="none" stroke="midnightblue" d="M1219.81,-161.521C1228.47,-162.719 1237.29,-163.94 1245.87,-165.127"/>
<polygon fill="midnightblue" stroke="midnightblue" points="1220.14,-158.033 1209.75,-160.129 1219.18,-164.967 1220.14,-158.033"/>
</g>
<!-- Node19&#45;&gt;Node13 -->
<g id="edge25" class="edge"><title>Node19&#45;&gt;Node13</title>
<path fill="none" stroke="midnightblue" d="M891.698,-49.1198C902.409,-48.9952 913.336,-48.8682 923.803,-48.7465"/>
<polygon fill="midnightblue" stroke="midnightblue" points="891.475,-45.622 881.516,-49.2382 891.557,-52.6216 891.475,-45.622"/>
</g>
</g>
</svg>
