<?xml version="1.0" encoding="UTF-8" standalone="no"?>
<!DOCTYPE svg PUBLIC "-//W3C//DTD SVG 1.1//EN"
 "http://www.w3.org/Graphics/SVG/1.1/DTD/svg11.dtd">
<!-- Generated by graphviz version 2.36.0 (20140111.2315)
 -->
<!-- Title: x265::SEIPictureTiming Pages: 1 -->
<svg width="340pt" height="254pt"
 viewBox="0.00 0.00 340.00 254.00" xmlns="http://www.w3.org/2000/svg" xmlns:xlink="http://www.w3.org/1999/xlink">
<g id="graph0" class="graph" transform="scale(1 1) rotate(0) translate(4 250)">
<title>x265::SEIPictureTiming</title>
<polygon fill="white" stroke="none" points="-4,4 -4,-250 336,-250 336,4 -4,4"/>
<!-- Node1 -->
<g id="node1" class="node"><title>Node1</title>
<polygon fill="#bfbfbf" stroke="black" points="70,-0.5 70,-19.5 190,-19.5 190,-0.5 70,-0.5"/>
<text text-anchor="middle" x="130" y="-7.5" font-family="Helvetica,sans-Serif" font-size="10.00">x265::SEIPictureTiming</text>
</g>
<!-- Node2 -->
<g id="node2" class="node"><title>Node2</title>
<g id="a_node2"><a xlink:href="classx265_1_1SEI.html" target="_top" xlink:title="x265::SEI">
<polygon fill="white" stroke="black" points="38,-100.5 38,-119.5 98,-119.5 98,-100.5 38,-100.5"/>
<text text-anchor="middle" x="68" y="-107.5" font-family="Helvetica,sans-Serif" font-size="10.00">x265::SEI</text>
</a>
</g>
</g>
<!-- Node2&#45;&gt;Node1 -->
<g id="edge1" class="edge"><title>Node2&#45;&gt;Node1</title>
<path fill="none" stroke="midnightblue" d="M78.9637,-91.6703C92.3474,-70.5154 114.449,-35.581 124.599,-19.5374"/>
<polygon fill="midnightblue" stroke="midnightblue" points="75.8908,-89.9811 73.5021,-100.303 81.8063,-93.7236 75.8908,-89.9811"/>
</g>
<!-- Node3 -->
<g id="node3" class="node"><title>Node3</title>
<g id="a_node3"><a xlink:href="classx265_1_1SyntaxElementWriter.html" target="_top" xlink:title="x265::SyntaxElementWriter">
<polygon fill="white" stroke="black" points="-0.5,-158.5 -0.5,-177.5 136.5,-177.5 136.5,-158.5 -0.5,-158.5"/>
<text text-anchor="middle" x="68" y="-165.5" font-family="Helvetica,sans-Serif" font-size="10.00">x265::SyntaxElementWriter</text>
</a>
</g>
</g>
<!-- Node3&#45;&gt;Node2 -->
<g id="edge2" class="edge"><title>Node3&#45;&gt;Node2</title>
<path fill="none" stroke="midnightblue" d="M68,-147.953C68,-138.287 68,-127.031 68,-119.505"/>
<polygon fill="midnightblue" stroke="midnightblue" points="64.5001,-148.25 68,-158.25 71.5001,-148.25 64.5001,-148.25"/>
</g>
<!-- Node4 -->
<g id="node4" class="node"><title>Node4</title>
<g id="a_node4"><a xlink:href="classx265_1_1BitInterface.html" target="_top" xlink:title="x265::BitInterface">
<polygon fill="white" stroke="black" points="21,-226.5 21,-245.5 115,-245.5 115,-226.5 21,-226.5"/>
<text text-anchor="middle" x="68" y="-233.5" font-family="Helvetica,sans-Serif" font-size="10.00">x265::BitInterface</text>
</a>
</g>
</g>
<!-- Node4&#45;&gt;Node3 -->
<g id="edge3" class="edge"><title>Node4&#45;&gt;Node3</title>
<path fill="none" stroke="#9a32cd" stroke-dasharray="5,2" d="M68,-216.041C68,-203.472 68,-187.563 68,-177.841"/>
<polygon fill="#9a32cd" stroke="#9a32cd" points="64.5001,-216.372 68,-226.372 71.5001,-216.372 64.5001,-216.372"/>
<text text-anchor="middle" x="85" y="-199.5" font-family="Helvetica,sans-Serif" font-size="10.00"> m_bitIf</text>
</g>
<!-- Node5 -->
<g id="node5" class="node"><title>Node5</title>
<polygon fill="white" stroke="#bfbfbf" points="115.5,-100.5 115.5,-119.5 144.5,-119.5 144.5,-100.5 115.5,-100.5"/>
<text text-anchor="middle" x="130" y="-107.5" font-family="Helvetica,sans-Serif" font-size="10.00">int</text>
</g>
<!-- Node5&#45;&gt;Node1 -->
<g id="edge4" class="edge"><title>Node5&#45;&gt;Node1</title>
<path fill="none" stroke="#9a32cd" stroke-dasharray="5,2" d="M130,-90.2203C130,-68.9514 130,-35.2197 130,-19.5374"/>
<polygon fill="#9a32cd" stroke="#9a32cd" points="126.5,-90.3031 130,-100.303 133.5,-90.3032 126.5,-90.3031"/>
<text text-anchor="middle" x="183.5" y="-74" font-family="Helvetica,sans-Serif" font-size="10.00"> m_picStruct</text>
<text text-anchor="middle" x="183.5" y="-63" font-family="Helvetica,sans-Serif" font-size="10.00">m_picDpbOutputDelay</text>
<text text-anchor="middle" x="183.5" y="-52" font-family="Helvetica,sans-Serif" font-size="10.00">m_auCpbRemovalDelay</text>
<text text-anchor="middle" x="183.5" y="-41" font-family="Helvetica,sans-Serif" font-size="10.00">m_sourceScanType</text>
</g>
<!-- Node6 -->
<g id="node6" class="node"><title>Node6</title>
<polygon fill="white" stroke="#bfbfbf" points="242.5,-100.5 242.5,-119.5 277.5,-119.5 277.5,-100.5 242.5,-100.5"/>
<text text-anchor="middle" x="260" y="-107.5" font-family="Helvetica,sans-Serif" font-size="10.00">bool</text>
</g>
<!-- Node6&#45;&gt;Node1 -->
<g id="edge5" class="edge"><title>Node6&#45;&gt;Node1</title>
<path fill="none" stroke="#9a32cd" stroke-dasharray="5,2" d="M259.087,-89.8132C257.285,-73.7699 252.182,-51.416 238,-38 225.083,-25.7807 207.502,-18.857 190.277,-15.0007"/>
<polygon fill="#9a32cd" stroke="#9a32cd" points="255.627,-90.4659 259.898,-100.162 262.606,-89.9188 255.627,-90.4659"/>
<text text-anchor="middle" x="294.5" y="-57.5" font-family="Helvetica,sans-Serif" font-size="10.00"> m_duplicateFlag</text>
</g>
</g>
</svg>
