<?xml version="1.0" encoding="UTF-8" standalone="no"?>
<!DOCTYPE svg PUBLIC "-//W3C//DTD SVG 1.1//EN"
 "http://www.w3.org/Graphics/SVG/1.1/DTD/svg11.dtd">
<!-- Generated by graphviz version 2.36.0 (20140111.2315)
 -->
<!-- Title: x265::Yuv::getCrAddr Pages: 1 -->
<svg width="1588pt" height="584pt"
 viewBox="0.00 0.00 1588.00 583.86" xmlns="http://www.w3.org/2000/svg" xmlns:xlink="http://www.w3.org/1999/xlink">
<g id="graph0" class="graph" transform="scale(1 1) rotate(0) translate(4 579.863)">
<title>x265::Yuv::getCrAddr</title>
<polygon fill="white" stroke="none" points="-4,4 -4,-579.863 1584,-579.863 1584,4 -4,4"/>
<!-- Node1 -->
<g id="node1" class="node"><title>Node1</title>
<polygon fill="#bfbfbf" stroke="black" points="0.5,-243.363 0.5,-262.363 111.5,-262.363 111.5,-243.363 0.5,-243.363"/>
<text text-anchor="middle" x="56" y="-250.363" font-family="Helvetica,sans-Serif" font-size="10.00">x265::Yuv::getCrAddr</text>
</g>
<!-- Node2 -->
<g id="node2" class="node"><title>Node2</title>
<g id="a_node2"><a xlink:href="classx265_1_1Predict.html#a648ff7cb91657d132ef9053ba9e8982e" target="_top" xlink:title="x265::Predict::predInter\lChromaPixel">
<polygon fill="white" stroke="black" points="167.5,-338.863 167.5,-368.863 286.5,-368.863 286.5,-338.863 167.5,-338.863"/>
<text text-anchor="start" x="175.5" y="-356.863" font-family="Helvetica,sans-Serif" font-size="10.00">x265::Predict::predInter</text>
<text text-anchor="middle" x="227" y="-345.863" font-family="Helvetica,sans-Serif" font-size="10.00">ChromaPixel</text>
</a>
</g>
</g>
<!-- Node1&#45;&gt;Node2 -->
<g id="edge1" class="edge"><title>Node1&#45;&gt;Node2</title>
<path fill="none" stroke="midnightblue" d="M73.3938,-269.988C90.563,-287.043 119.018,-312.918 148,-328.863 154.852,-332.634 162.361,-335.938 169.927,-338.802"/>
<polygon fill="midnightblue" stroke="midnightblue" points="75.4322,-267.071 65.9191,-262.407 70.4475,-271.985 75.4322,-267.071"/>
</g>
<!-- Node16 -->
<g id="node16" class="node"><title>Node16</title>
<g id="a_node16"><a xlink:href="classx265_1_1Predict.html#a0b719127889bf4f85db737d1956ff2ce" target="_top" xlink:title="x265::Predict::addWeightBi">
<polygon fill="white" stroke="black" points="159,-300.363 159,-319.363 295,-319.363 295,-300.363 159,-300.363"/>
<text text-anchor="middle" x="227" y="-307.363" font-family="Helvetica,sans-Serif" font-size="10.00">x265::Predict::addWeightBi</text>
</a>
</g>
</g>
<!-- Node1&#45;&gt;Node16 -->
<g id="edge22" class="edge"><title>Node1&#45;&gt;Node16</title>
<path fill="none" stroke="midnightblue" d="M86.4357,-266.537C104.04,-274.364 127.001,-283.969 148,-290.863 158.726,-294.385 170.473,-297.581 181.522,-300.303"/>
<polygon fill="midnightblue" stroke="midnightblue" points="87.8081,-263.316 77.253,-262.399 84.9325,-269.698 87.8081,-263.316"/>
</g>
<!-- Node17 -->
<g id="node17" class="node"><title>Node17</title>
<g id="a_node17"><a xlink:href="classx265_1_1Predict.html#ab6d43dbcad99d42321aa05dc0eab87e9" target="_top" xlink:title="x265::Predict::addWeightUni">
<polygon fill="white" stroke="black" points="156,-262.363 156,-281.363 298,-281.363 298,-262.363 156,-262.363"/>
<text text-anchor="middle" x="227" y="-269.363" font-family="Helvetica,sans-Serif" font-size="10.00">x265::Predict::addWeightUni</text>
</a>
</g>
</g>
<!-- Node1&#45;&gt;Node17 -->
<g id="edge24" class="edge"><title>Node1&#45;&gt;Node17</title>
<path fill="none" stroke="midnightblue" d="M121.946,-260.165C133.092,-261.418 144.718,-262.725 155.99,-263.992"/>
<polygon fill="midnightblue" stroke="midnightblue" points="122.198,-256.671 111.869,-259.032 121.416,-263.628 122.198,-256.671"/>
</g>
<!-- Node18 -->
<g id="node18" class="node"><title>Node18</title>
<g id="a_node18"><a xlink:href="classx265_1_1ShortYuv.html#a9266622f3b725ddf4e980d61d9f988ca" target="_top" xlink:title="x265::ShortYuv::copyPart\lToPartChroma">
<polygon fill="white" stroke="black" points="162.5,-50.8634 162.5,-80.8634 291.5,-80.8634 291.5,-50.8634 162.5,-50.8634"/>
<text text-anchor="start" x="170.5" y="-68.8634" font-family="Helvetica,sans-Serif" font-size="10.00">x265::ShortYuv::copyPart</text>
<text text-anchor="middle" x="227" y="-57.8634" font-family="Helvetica,sans-Serif" font-size="10.00">ToPartChroma</text>
</a>
</g>
</g>
<!-- Node1&#45;&gt;Node18 -->
<g id="edge26" class="edge"><title>Node1&#45;&gt;Node18</title>
<path fill="none" stroke="midnightblue" d="M63.3559,-233.535C75.0535,-200.796 102.996,-134.259 148,-95.8634 155.064,-89.8366 163.471,-84.9482 172.108,-81.0056"/>
<polygon fill="midnightblue" stroke="midnightblue" points="59.9564,-232.658 60.0105,-243.252 66.5751,-234.936 59.9564,-232.658"/>
</g>
<!-- Node19 -->
<g id="node19" class="node"><title>Node19</title>
<g id="a_node19"><a xlink:href="classx265_1_1Yuv.html#a7814c78673d0d34cf6a21348e1a1feba" target="_top" xlink:title="x265::Yuv::copyToPartYuv">
<polygon fill="white" stroke="black" points="936,-89.3634 936,-108.363 1070,-108.363 1070,-89.3634 936,-89.3634"/>
<text text-anchor="middle" x="1003" y="-96.3634" font-family="Helvetica,sans-Serif" font-size="10.00">x265::Yuv::copyToPartYuv</text>
</a>
</g>
</g>
<!-- Node1&#45;&gt;Node19 -->
<g id="edge27" class="edge"><title>Node1&#45;&gt;Node19</title>
<path fill="none" stroke="midnightblue" d="M66.5342,-234.085C80.5699,-208.612 109.368,-163.882 148,-142.863 258.457,-82.7676 303.253,-109.863 429,-109.863 429,-109.863 429,-109.863 632,-109.863 738.358,-109.863 861.837,-105.266 935.848,-102.016"/>
<polygon fill="midnightblue" stroke="midnightblue" points="63.3399,-232.637 61.7366,-243.11 69.5209,-235.923 63.3399,-232.637"/>
</g>
<!-- Node21 -->
<g id="node21" class="node"><title>Node21</title>
<g id="a_node21"><a xlink:href="classx265_1_1Yuv.html#a8be8f50ae94d1a894220550fc04da412" target="_top" xlink:title="x265::Yuv::addAvg">
<polygon fill="white" stroke="black" points="177,-224.363 177,-243.363 277,-243.363 277,-224.363 177,-224.363"/>
<text text-anchor="middle" x="227" y="-231.363" font-family="Helvetica,sans-Serif" font-size="10.00">x265::Yuv::addAvg</text>
</a>
</g>
</g>
<!-- Node1&#45;&gt;Node21 -->
<g id="edge33" class="edge"><title>Node1&#45;&gt;Node21</title>
<path fill="none" stroke="midnightblue" d="M121.853,-245.572C140.105,-243.52 159.652,-241.323 176.825,-239.392"/>
<polygon fill="midnightblue" stroke="midnightblue" points="121.416,-242.099 111.869,-246.695 122.198,-249.055 121.416,-242.099"/>
</g>
<!-- Node22 -->
<g id="node22" class="node"><title>Node22</title>
<g id="a_node22"><a xlink:href="classx265_1_1Analysis.html#a88ad2880a5a8bcad5cfd5d6ea630b265" target="_top" xlink:title="x265::Analysis::encodeResidue">
<polygon fill="white" stroke="black" points="352.5,-503.363 352.5,-522.363 507.5,-522.363 507.5,-503.363 352.5,-503.363"/>
<text text-anchor="middle" x="430" y="-510.363" font-family="Helvetica,sans-Serif" font-size="10.00">x265::Analysis::encodeResidue</text>
</a>
</g>
</g>
<!-- Node1&#45;&gt;Node22 -->
<g id="edge35" class="edge"><title>Node1&#45;&gt;Node22</title>
<path fill="none" stroke="midnightblue" d="M57.7642,-272.674C60.7616,-319.85 75.5061,-438.921 148,-492.863 218.823,-545.563 329.47,-533.891 388.574,-522.422"/>
<polygon fill="midnightblue" stroke="midnightblue" points="61.2523,-272.352 57.2366,-262.548 54.2618,-272.716 61.2523,-272.352"/>
</g>
<!-- Node23 -->
<g id="node23" class="node"><title>Node23</title>
<g id="a_node23"><a xlink:href="classx265_1_1Search.html#a70d466b561a7463b8ec5a213384ae667" target="_top" xlink:title="x265::Search::estIntraPred\lChromaQT">
<polygon fill="white" stroke="black" points="564,-176.863 564,-206.863 698,-206.863 698,-176.863 564,-176.863"/>
<text text-anchor="start" x="572" y="-194.863" font-family="Helvetica,sans-Serif" font-size="10.00">x265::Search::estIntraPred</text>
<text text-anchor="middle" x="631" y="-183.863" font-family="Helvetica,sans-Serif" font-size="10.00">ChromaQT</text>
</a>
</g>
</g>
<!-- Node1&#45;&gt;Node23 -->
<g id="edge37" class="edge"><title>Node1&#45;&gt;Node23</title>
<path fill="none" stroke="midnightblue" d="M83.9926,-238.664C101.68,-230.105 125.593,-219.912 148,-214.863 293.678,-182.038 470.17,-183.774 563.938,-187.856"/>
<polygon fill="midnightblue" stroke="midnightblue" points="82.2512,-235.621 74.8559,-243.208 85.3683,-241.889 82.2512,-235.621"/>
</g>
<!-- Node27 -->
<g id="node27" class="node"><title>Node27</title>
<g id="a_node27"><a xlink:href="classx265_1_1Search.html#a11ea3fb9c65e98f50e348de22593748c" target="_top" xlink:title="x265::Search::residualTransform\lQuantInter">
<polygon fill="white" stroke="black" points="148,-453.863 148,-483.863 306,-483.863 306,-453.863 148,-453.863"/>
<text text-anchor="start" x="156" y="-471.863" font-family="Helvetica,sans-Serif" font-size="10.00">x265::Search::residualTransform</text>
<text text-anchor="middle" x="227" y="-460.863" font-family="Helvetica,sans-Serif" font-size="10.00">QuantInter</text>
</a>
</g>
</g>
<!-- Node1&#45;&gt;Node27 -->
<g id="edge50" class="edge"><title>Node1&#45;&gt;Node27</title>
<path fill="none" stroke="midnightblue" d="M69.389,-270.806C86.5102,-295.383 118.625,-340.706 148,-377.863 169.679,-405.287 196.496,-435.907 212.371,-453.719"/>
<polygon fill="midnightblue" stroke="midnightblue" points="72.1754,-268.682 63.5982,-262.462 66.4247,-272.673 72.1754,-268.682"/>
</g>
<!-- Node29 -->
<g id="node29" class="node"><title>Node29</title>
<g id="a_node29"><a xlink:href="classx265_1_1Search.html#a9f01b6f04dca31dca9f16e60d1c029b3" target="_top" xlink:title="x265::Search::xEstimateResidualQT">
<polygon fill="white" stroke="black" points="342,-139.363 342,-158.363 518,-158.363 518,-139.363 342,-139.363"/>
<text text-anchor="middle" x="430" y="-146.363" font-family="Helvetica,sans-Serif" font-size="10.00">x265::Search::xEstimateResidualQT</text>
</a>
</g>
</g>
<!-- Node1&#45;&gt;Node29 -->
<g id="edge54" class="edge"><title>Node1&#45;&gt;Node29</title>
<path fill="none" stroke="midnightblue" d="M72.3493,-235.525C89.047,-217.946 117.467,-191.577 148,-178.863 209.485,-153.263 284.776,-146.377 341.943,-145.557"/>
<polygon fill="midnightblue" stroke="midnightblue" points="69.3402,-233.625 65.136,-243.35 74.4872,-238.37 69.3402,-233.625"/>
</g>
<!-- Node3 -->
<g id="node3" class="node"><title>Node3</title>
<g id="a_node3"><a xlink:href="classx265_1_1Predict.html#ab23a30d88a19749b5ddd7892d19e202f" target="_top" xlink:title="x265::Predict::motionCompensation">
<polygon fill="white" stroke="black" points="343.5,-301.363 343.5,-320.363 516.5,-320.363 516.5,-301.363 343.5,-301.363"/>
<text text-anchor="middle" x="430" y="-308.363" font-family="Helvetica,sans-Serif" font-size="10.00">x265::Predict::motionCompensation</text>
</a>
</g>
</g>
<!-- Node2&#45;&gt;Node3 -->
<g id="edge2" class="edge"><title>Node2&#45;&gt;Node3</title>
<path fill="none" stroke="midnightblue" d="M296.74,-339.158C325.702,-332.962 358.585,-325.927 384.318,-320.422"/>
<polygon fill="midnightblue" stroke="midnightblue" points="295.724,-335.796 286.678,-341.31 297.189,-342.641 295.724,-335.796"/>
</g>
<!-- Node4 -->
<g id="node4" class="node"><title>Node4</title>
<g id="a_node4"><a xlink:href="classx265_1_1Analysis.html#a87060ff27a37f56adc5f5b8a4c033ece" target="_top" xlink:title="x265::Analysis::compress\lInterCU_dist">
<polygon fill="white" stroke="black" points="1112,-239.863 1112,-269.863 1242,-269.863 1242,-239.863 1112,-239.863"/>
<text text-anchor="start" x="1120" y="-257.863" font-family="Helvetica,sans-Serif" font-size="10.00">x265::Analysis::compress</text>
<text text-anchor="middle" x="1177" y="-246.863" font-family="Helvetica,sans-Serif" font-size="10.00">InterCU_dist</text>
</a>
</g>
</g>
<!-- Node3&#45;&gt;Node4 -->
<g id="edge3" class="edge"><title>Node3&#45;&gt;Node4</title>
<path fill="none" stroke="midnightblue" d="M527.239,-303.629C681.697,-292.019 980.848,-269.533 1111.89,-259.683"/>
<polygon fill="midnightblue" stroke="midnightblue" points="526.534,-300.172 516.825,-304.412 527.059,-307.153 526.534,-300.172"/>
</g>
<!-- Node7 -->
<g id="node7" class="node"><title>Node7</title>
<g id="a_node7"><a xlink:href="classx265_1_1Analysis.html#a30d2ff7eca5addbb0a6b3dfe14f09650" target="_top" xlink:title="x265::Analysis::compress\lInterCU_rd0_4">
<polygon fill="white" stroke="black" points="1112,-346.863 1112,-376.863 1242,-376.863 1242,-346.863 1112,-346.863"/>
<text text-anchor="start" x="1120" y="-364.863" font-family="Helvetica,sans-Serif" font-size="10.00">x265::Analysis::compress</text>
<text text-anchor="middle" x="1177" y="-353.863" font-family="Helvetica,sans-Serif" font-size="10.00">InterCU_rd0_4</text>
</a>
</g>
</g>
<!-- Node3&#45;&gt;Node7 -->
<g id="edge6" class="edge"><title>Node3&#45;&gt;Node7</title>
<path fill="none" stroke="midnightblue" d="M450.246,-326.813C473.321,-344.964 513.919,-373.897 554,-387.863 712.787,-443.191 762.11,-420.516 930,-429.863 994.789,-433.471 1013.98,-448.952 1076,-429.863 1109.51,-419.549 1141.86,-393.754 1160.29,-377.065"/>
<polygon fill="midnightblue" stroke="midnightblue" points="452.288,-323.964 442.298,-320.438 447.908,-329.425 452.288,-323.964"/>
</g>
<!-- Node8 -->
<g id="node8" class="node"><title>Node8</title>
<g id="a_node8"><a xlink:href="classx265_1_1Analysis.html#addd72cb95590e2b2a6965d42d110eab3" target="_top" xlink:title="x265::Analysis::checkMerge2\lNx2N_rd0_4">
<polygon fill="white" stroke="black" points="930,-302.863 930,-332.863 1076,-332.863 1076,-302.863 930,-302.863"/>
<text text-anchor="start" x="938" y="-320.863" font-family="Helvetica,sans-Serif" font-size="10.00">x265::Analysis::checkMerge2</text>
<text text-anchor="middle" x="1003" y="-309.863" font-family="Helvetica,sans-Serif" font-size="10.00">Nx2N_rd0_4</text>
</a>
</g>
</g>
<!-- Node3&#45;&gt;Node8 -->
<g id="edge8" class="edge"><title>Node3&#45;&gt;Node8</title>
<path fill="none" stroke="midnightblue" d="M454.462,-325.789C478.409,-340.07 517.187,-360.619 554,-368.863 698.946,-401.324 875.149,-357.645 956.641,-332.864"/>
<polygon fill="midnightblue" stroke="midnightblue" points="456.109,-322.694 445.748,-320.476 452.465,-328.671 456.109,-322.694"/>
</g>
<!-- Node9 -->
<g id="node9" class="node"><title>Node9</title>
<g id="a_node9"><a xlink:href="classx265_1_1Analysis.html#a0194a9da53aa95173fa1132ba3aea1c7" target="_top" xlink:title="x265::Analysis::checkMerge2\lNx2N_rd5_6">
<polygon fill="white" stroke="black" points="930,-127.863 930,-157.863 1076,-157.863 1076,-127.863 930,-127.863"/>
<text text-anchor="start" x="938" y="-145.863" font-family="Helvetica,sans-Serif" font-size="10.00">x265::Analysis::checkMerge2</text>
<text text-anchor="middle" x="1003" y="-134.863" font-family="Helvetica,sans-Serif" font-size="10.00">Nx2N_rd5_6</text>
</a>
</g>
</g>
<!-- Node3&#45;&gt;Node9 -->
<g id="edge11" class="edge"><title>Node3&#45;&gt;Node9</title>
<path fill="none" stroke="midnightblue" d="M461.241,-297.183C485.912,-286.301 521.821,-271.09 554,-259.863 621.21,-236.415 649.363,-256.221 708,-215.863 729.967,-200.745 720.752,-180.927 744,-167.863 800.592,-136.063 875.324,-132.163 929.785,-134.817"/>
<polygon fill="midnightblue" stroke="midnightblue" points="459.763,-294.009 452.046,-301.268 462.605,-300.406 459.763,-294.009"/>
</g>
<!-- Node11 -->
<g id="node11" class="node"><title>Node11</title>
<g id="a_node11"><a xlink:href="classx265_1_1Search.html#a761560ef5d3ff0beb48567c88c771d55" target="_top" xlink:title="x265::Search::mergeEstimation">
<polygon fill="white" stroke="black" points="554,-340.363 554,-359.363 708,-359.363 708,-340.363 554,-340.363"/>
<text text-anchor="middle" x="631" y="-347.363" font-family="Helvetica,sans-Serif" font-size="10.00">x265::Search::mergeEstimation</text>
</a>
</g>
</g>
<!-- Node3&#45;&gt;Node11 -->
<g id="edge14" class="edge"><title>Node3&#45;&gt;Node11</title>
<path fill="none" stroke="midnightblue" d="M489.753,-322.378C518.954,-328.101 553.816,-334.933 581.477,-340.354"/>
<polygon fill="midnightblue" stroke="midnightblue" points="490.167,-318.893 479.681,-320.404 488.821,-325.762 490.167,-318.893"/>
</g>
<!-- Node12 -->
<g id="node12" class="node"><title>Node12</title>
<g id="a_node12"><a xlink:href="classx265_1_1Search.html#a48101e3d900e93b97a83f461be390bd1" target="_top" xlink:title="x265::Search::predInterSearch">
<polygon fill="white" stroke="black" points="744.5,-321.363 744.5,-340.363 893.5,-340.363 893.5,-321.363 744.5,-321.363"/>
<text text-anchor="middle" x="819" y="-328.363" font-family="Helvetica,sans-Serif" font-size="10.00">x265::Search::predInterSearch</text>
</a>
</g>
</g>
<!-- Node3&#45;&gt;Node12 -->
<g id="edge21" class="edge"><title>Node3&#45;&gt;Node12</title>
<path fill="none" stroke="midnightblue" d="M527.067,-315.828C594.292,-319.302 682.748,-323.874 744.401,-327.06"/>
<polygon fill="midnightblue" stroke="midnightblue" points="527.055,-312.323 516.888,-315.302 526.694,-319.314 527.055,-312.323"/>
</g>
<!-- Node5 -->
<g id="node5" class="node"><title>Node5</title>
<g id="a_node5"><a xlink:href="classx265_1_1Analysis.html#aaebc9de2ff98834c650244f3b58942c2" target="_top" xlink:title="x265::Analysis::compressCTU">
<polygon fill="white" stroke="black" points="1278.5,-245.363 1278.5,-264.363 1429.5,-264.363 1429.5,-245.363 1278.5,-245.363"/>
<text text-anchor="middle" x="1354" y="-252.363" font-family="Helvetica,sans-Serif" font-size="10.00">x265::Analysis::compressCTU</text>
</a>
</g>
</g>
<!-- Node4&#45;&gt;Node5 -->
<g id="edge4" class="edge"><title>Node4&#45;&gt;Node5</title>
<path fill="none" stroke="midnightblue" d="M1252.25,-254.863C1260.93,-254.863 1269.78,-254.863 1278.47,-254.863"/>
<polygon fill="midnightblue" stroke="midnightblue" points="1252.17,-251.363 1242.17,-254.863 1252.17,-258.363 1252.17,-251.363"/>
</g>
<!-- Node6 -->
<g id="node6" class="node"><title>Node6</title>
<g id="a_node6"><a xlink:href="classx265_1_1FrameEncoder.html#a0ae85001572afd28238476542523ac5f" target="_top" xlink:title="x265::FrameEncoder\l::processRowEncoder">
<polygon fill="white" stroke="red" points="1466.5,-239.863 1466.5,-269.863 1579.5,-269.863 1579.5,-239.863 1466.5,-239.863"/>
<text text-anchor="start" x="1474.5" y="-257.863" font-family="Helvetica,sans-Serif" font-size="10.00">x265::FrameEncoder</text>
<text text-anchor="middle" x="1523" y="-246.863" font-family="Helvetica,sans-Serif" font-size="10.00">::processRowEncoder</text>
</a>
</g>
</g>
<!-- Node5&#45;&gt;Node6 -->
<g id="edge5" class="edge"><title>Node5&#45;&gt;Node6</title>
<path fill="none" stroke="midnightblue" d="M1439.86,-254.863C1448.86,-254.863 1457.85,-254.863 1466.39,-254.863"/>
<polygon fill="midnightblue" stroke="midnightblue" points="1439.71,-251.363 1429.71,-254.863 1439.71,-258.363 1439.71,-251.363"/>
</g>
<!-- Node7&#45;&gt;Node5 -->
<g id="edge7" class="edge"><title>Node7&#45;&gt;Node5</title>
<path fill="none" stroke="midnightblue" d="M1211.32,-341.488C1249.07,-318.41 1308.99,-281.774 1337.26,-264.49"/>
<polygon fill="midnightblue" stroke="midnightblue" points="1209.41,-338.557 1202.7,-346.76 1213.06,-344.529 1209.41,-338.557"/>
</g>
<!-- Node8&#45;&gt;Node4 -->
<g id="edge9" class="edge"><title>Node8&#45;&gt;Node4</title>
<path fill="none" stroke="midnightblue" d="M1054.71,-299.288C1080.24,-289.938 1110.79,-278.749 1134.84,-269.939"/>
<polygon fill="midnightblue" stroke="midnightblue" points="1053.38,-296.047 1045.2,-302.773 1055.79,-302.62 1053.38,-296.047"/>
</g>
<!-- Node8&#45;&gt;Node7 -->
<g id="edge10" class="edge"><title>Node8&#45;&gt;Node7</title>
<path fill="none" stroke="midnightblue" d="M1072.78,-335.458C1087.51,-339.227 1102.95,-343.176 1117.26,-346.837"/>
<polygon fill="midnightblue" stroke="midnightblue" points="1073.27,-331.97 1062.71,-332.883 1071.53,-338.752 1073.27,-331.97"/>
</g>
<!-- Node10 -->
<g id="node10" class="node"><title>Node10</title>
<g id="a_node10"><a xlink:href="classx265_1_1Analysis.html#a0b22b7765aa4a36b1ba6d07ba26901e6" target="_top" xlink:title="x265::Analysis::compress\lInterCU_rd5_6">
<polygon fill="white" stroke="black" points="1112,-119.863 1112,-149.863 1242,-149.863 1242,-119.863 1112,-119.863"/>
<text text-anchor="start" x="1120" y="-137.863" font-family="Helvetica,sans-Serif" font-size="10.00">x265::Analysis::compress</text>
<text text-anchor="middle" x="1177" y="-126.863" font-family="Helvetica,sans-Serif" font-size="10.00">InterCU_rd5_6</text>
</a>
</g>
</g>
<!-- Node9&#45;&gt;Node10 -->
<g id="edge12" class="edge"><title>Node9&#45;&gt;Node10</title>
<path fill="none" stroke="midnightblue" d="M1086.7,-139.017C1095.14,-138.624 1103.63,-138.229 1111.83,-137.848"/>
<polygon fill="midnightblue" stroke="midnightblue" points="1086.27,-135.533 1076.44,-139.494 1086.6,-142.525 1086.27,-135.533"/>
</g>
<!-- Node10&#45;&gt;Node5 -->
<g id="edge13" class="edge"><title>Node10&#45;&gt;Node5</title>
<path fill="none" stroke="midnightblue" d="M1208.87,-156.03C1247.23,-182.338 1311.06,-226.108 1339.09,-245.323"/>
<polygon fill="midnightblue" stroke="midnightblue" points="1210.39,-152.83 1200.16,-150.061 1206.43,-158.603 1210.39,-152.83"/>
</g>
<!-- Node11&#45;&gt;Node12 -->
<g id="edge15" class="edge"><title>Node11&#45;&gt;Node12</title>
<path fill="none" stroke="midnightblue" d="M718.336,-341.044C727.024,-340.157 735.791,-339.261 744.33,-338.389"/>
<polygon fill="midnightblue" stroke="midnightblue" points="717.783,-337.582 708.19,-342.081 718.494,-344.546 717.783,-337.582"/>
</g>
<!-- Node13 -->
<g id="node13" class="node"><title>Node13</title>
<g id="a_node13"><a xlink:href="classx265_1_1Analysis.html#a2305f7985af66b49fdbc40ebb1b281d2" target="_top" xlink:title="x265::Analysis::checkInter\l_rd0_4">
<polygon fill="white" stroke="black" points="936.5,-478.863 936.5,-508.863 1069.5,-508.863 1069.5,-478.863 936.5,-478.863"/>
<text text-anchor="start" x="944.5" y="-496.863" font-family="Helvetica,sans-Serif" font-size="10.00">x265::Analysis::checkInter</text>
<text text-anchor="middle" x="1003" y="-485.863" font-family="Helvetica,sans-Serif" font-size="10.00">_rd0_4</text>
</a>
</g>
</g>
<!-- Node12&#45;&gt;Node13 -->
<g id="edge16" class="edge"><title>Node12&#45;&gt;Node13</title>
<path fill="none" stroke="midnightblue" d="M838.124,-347.237C859.902,-366.898 897.567,-400.854 930,-429.863 948.698,-446.588 970.204,-465.686 984.807,-478.634"/>
<polygon fill="midnightblue" stroke="midnightblue" points="840.367,-344.547 830.599,-340.442 835.675,-349.742 840.367,-344.547"/>
</g>
<!-- Node15 -->
<g id="node15" class="node"><title>Node15</title>
<g id="a_node15"><a xlink:href="classx265_1_1Analysis.html#a828daa3e9f1ed40a1af9f99f7ff7bb33" target="_top" xlink:title="x265::Analysis::checkInter\l_rd5_6">
<polygon fill="white" stroke="black" points="936.5,-176.863 936.5,-206.863 1069.5,-206.863 1069.5,-176.863 936.5,-176.863"/>
<text text-anchor="start" x="944.5" y="-194.863" font-family="Helvetica,sans-Serif" font-size="10.00">x265::Analysis::checkInter</text>
<text text-anchor="middle" x="1003" y="-183.863" font-family="Helvetica,sans-Serif" font-size="10.00">_rd5_6</text>
</a>
</g>
</g>
<!-- Node12&#45;&gt;Node15 -->
<g id="edge19" class="edge"><title>Node12&#45;&gt;Node15</title>
<path fill="none" stroke="midnightblue" d="M840.662,-315.083C875.971,-288.116 947.462,-233.516 982.183,-206.998"/>
<polygon fill="midnightblue" stroke="midnightblue" points="838.333,-312.458 832.51,-321.309 842.581,-318.021 838.333,-312.458"/>
</g>
<!-- Node13&#45;&gt;Node7 -->
<g id="edge18" class="edge"><title>Node13&#45;&gt;Node7</title>
<path fill="none" stroke="midnightblue" d="M1057.54,-474.42C1063.97,-471.263 1070.27,-467.739 1076,-463.863 1080.93,-460.527 1134.71,-404.82 1161.3,-377.175"/>
<polygon fill="midnightblue" stroke="midnightblue" points="1055.7,-471.413 1048.09,-478.782 1058.64,-477.769 1055.7,-471.413"/>
</g>
<!-- Node14 -->
<g id="node14" class="node"><title>Node14</title>
<g id="a_node14"><a xlink:href="classx265_1_1Analysis.html#aa6122285d10bb1bd7584958b88b029d5" target="_top" xlink:title="x265::Analysis::parallel\lModeAnalysis">
<polygon fill="white" stroke="red" points="1118,-437.863 1118,-467.863 1236,-467.863 1236,-437.863 1118,-437.863"/>
<text text-anchor="start" x="1126" y="-455.863" font-family="Helvetica,sans-Serif" font-size="10.00">x265::Analysis::parallel</text>
<text text-anchor="middle" x="1177" y="-444.863" font-family="Helvetica,sans-Serif" font-size="10.00">ModeAnalysis</text>
</a>
</g>
</g>
<!-- Node13&#45;&gt;Node14 -->
<g id="edge17" class="edge"><title>Node13&#45;&gt;Node14</title>
<path fill="none" stroke="midnightblue" d="M1076.91,-476.484C1090.56,-473.23 1104.66,-469.869 1117.79,-466.739"/>
<polygon fill="midnightblue" stroke="midnightblue" points="1075.99,-473.106 1067.07,-478.829 1077.61,-479.915 1075.99,-473.106"/>
</g>
<!-- Node15&#45;&gt;Node10 -->
<g id="edge20" class="edge"><title>Node15&#45;&gt;Node10</title>
<path fill="none" stroke="midnightblue" d="M1059.26,-173.55C1082.24,-165.934 1108.6,-157.2 1130.44,-149.96"/>
<polygon fill="midnightblue" stroke="midnightblue" points="1058.03,-170.27 1049.64,-176.738 1060.23,-176.915 1058.03,-170.27"/>
</g>
<!-- Node16&#45;&gt;Node3 -->
<g id="edge23" class="edge"><title>Node16&#45;&gt;Node3</title>
<path fill="none" stroke="midnightblue" d="M305.472,-310.249C317.847,-310.31 330.715,-310.374 343.269,-310.437"/>
<polygon fill="midnightblue" stroke="midnightblue" points="305.227,-306.748 295.21,-310.198 305.192,-313.748 305.227,-306.748"/>
</g>
<!-- Node17&#45;&gt;Node3 -->
<g id="edge25" class="edge"><title>Node17&#45;&gt;Node3</title>
<path fill="none" stroke="midnightblue" d="M287.343,-283.378C316.838,-289.101 352.051,-295.933 379.99,-301.354"/>
<polygon fill="midnightblue" stroke="midnightblue" points="287.654,-279.873 277.17,-281.404 286.32,-286.745 287.654,-279.873"/>
</g>
<!-- Node19&#45;&gt;Node4 -->
<g id="edge30" class="edge"><title>Node19&#45;&gt;Node4</title>
<path fill="none" stroke="midnightblue" d="M1064.63,-112.386C1068.62,-114.272 1072.46,-116.419 1076,-118.863 1088.06,-127.184 1142.31,-205.511 1165.47,-239.382"/>
<polygon fill="midnightblue" stroke="midnightblue" points="1065.68,-109.031 1055.1,-108.445 1063,-115.5 1065.68,-109.031"/>
</g>
<!-- Node19&#45;&gt;Node7 -->
<g id="edge31" class="edge"><title>Node19&#45;&gt;Node7</title>
<path fill="none" stroke="midnightblue" d="M1070.15,-113.695C1072.24,-115.254 1074.2,-116.972 1076,-118.863 1126.25,-171.667 1081.01,-212.889 1112,-278.863 1124.38,-305.215 1146.28,-331.049 1160.97,-346.719"/>
<polygon fill="midnightblue" stroke="midnightblue" points="1071.91,-110.669 1061.56,-108.431 1068.26,-116.639 1071.91,-110.669"/>
</g>
<!-- Node19&#45;&gt;Node10 -->
<g id="edge32" class="edge"><title>Node19&#45;&gt;Node10</title>
<path fill="none" stroke="midnightblue" d="M1059.72,-110.525C1076.3,-113.996 1094.61,-117.828 1111.69,-121.403"/>
<polygon fill="midnightblue" stroke="midnightblue" points="1060.15,-107.039 1049.64,-108.416 1058.71,-113.891 1060.15,-107.039"/>
</g>
<!-- Node20 -->
<g id="node20" class="node"><title>Node20</title>
<g id="a_node20"><a xlink:href="classx265_1_1Analysis.html#aae2a6a2252270782b591d2bed7e99dae" target="_top" xlink:title="x265::Analysis::compress\lIntraCU">
<polygon fill="white" stroke="black" points="1112,-54.8634 1112,-84.8634 1242,-84.8634 1242,-54.8634 1112,-54.8634"/>
<text text-anchor="start" x="1120" y="-72.8634" font-family="Helvetica,sans-Serif" font-size="10.00">x265::Analysis::compress</text>
<text text-anchor="middle" x="1177" y="-61.8634" font-family="Helvetica,sans-Serif" font-size="10.00">IntraCU</text>
</a>
</g>
</g>
<!-- Node19&#45;&gt;Node20 -->
<g id="edge28" class="edge"><title>Node19&#45;&gt;Node20</title>
<path fill="none" stroke="midnightblue" d="M1070.93,-87.579C1084.38,-85.3117 1098.48,-82.934 1111.83,-80.683"/>
<polygon fill="midnightblue" stroke="midnightblue" points="1070.07,-84.1734 1060.8,-89.2873 1071.24,-91.076 1070.07,-84.1734"/>
</g>
<!-- Node20&#45;&gt;Node5 -->
<g id="edge29" class="edge"><title>Node20&#45;&gt;Node5</title>
<path fill="none" stroke="midnightblue" d="M1214.46,-90.1635C1223.9,-96.221 1233.73,-103.286 1242,-110.863 1289.7,-154.588 1332.18,-220.625 1347.22,-245.201"/>
<polygon fill="midnightblue" stroke="midnightblue" points="1216.29,-87.183 1205.95,-84.8979 1212.61,-93.1358 1216.29,-87.183"/>
</g>
<!-- Node21&#45;&gt;Node3 -->
<g id="edge34" class="edge"><title>Node21&#45;&gt;Node3</title>
<path fill="none" stroke="midnightblue" d="M283.7,-245.972C291.265,-248.04 298.873,-250.344 306,-252.863 344.954,-266.633 388.129,-288.681 411.55,-301.254"/>
<polygon fill="midnightblue" stroke="midnightblue" points="284.383,-242.533 273.823,-243.392 282.614,-249.306 284.383,-242.533"/>
</g>
<!-- Node22&#45;&gt;Node5 -->
<g id="edge36" class="edge"><title>Node22&#45;&gt;Node5</title>
<path fill="none" stroke="midnightblue" d="M475.949,-525.024C547.695,-543.334 692.78,-575.863 818,-575.863 818,-575.863 818,-575.863 1004,-575.863 1118.56,-575.863 1158.23,-555.011 1242,-476.863 1310.06,-413.373 1342.29,-298.978 1350.7,-264.779"/>
<polygon fill="midnightblue" stroke="midnightblue" points="476.465,-521.543 465.907,-522.432 474.715,-528.321 476.465,-521.543"/>
</g>
<!-- Node24 -->
<g id="node24" class="node"><title>Node24</title>
<g id="a_node24"><a xlink:href="classx265_1_1Analysis.html#ae4d61bcf4d2c22a054d68d6d77136428" target="_top" xlink:title="x265::Analysis::encodeIntra\lInInter">
<polygon fill="white" stroke="black" points="934,-390.863 934,-420.863 1072,-420.863 1072,-390.863 934,-390.863"/>
<text text-anchor="start" x="942" y="-408.863" font-family="Helvetica,sans-Serif" font-size="10.00">x265::Analysis::encodeIntra</text>
<text text-anchor="middle" x="1003" y="-397.863" font-family="Helvetica,sans-Serif" font-size="10.00">InInter</text>
</a>
</g>
</g>
<!-- Node23&#45;&gt;Node24 -->
<g id="edge38" class="edge"><title>Node23&#45;&gt;Node24</title>
<path fill="none" stroke="midnightblue" d="M698.757,-209.893C755.931,-228.046 837.71,-260.763 894,-311.863 917.592,-333.281 906.287,-352.579 930,-373.863 937.635,-380.716 946.976,-386.3 956.368,-390.771"/>
<polygon fill="midnightblue" stroke="midnightblue" points="699.679,-206.515 689.091,-206.888 697.601,-213.199 699.679,-206.515"/>
</g>
<!-- Node25 -->
<g id="node25" class="node"><title>Node25</title>
<g id="a_node25"><a xlink:href="classx265_1_1Search.html#ab02df91827cf67796d1605bde60c6aed" target="_top" xlink:title="x265::Search::checkIntra">
<polygon fill="white" stroke="black" points="756,-32.3634 756,-51.3634 882,-51.3634 882,-32.3634 756,-32.3634"/>
<text text-anchor="middle" x="819" y="-39.3634" font-family="Helvetica,sans-Serif" font-size="10.00">x265::Search::checkIntra</text>
</a>
</g>
</g>
<!-- Node23&#45;&gt;Node25 -->
<g id="edge42" class="edge"><title>Node23&#45;&gt;Node25</title>
<path fill="none" stroke="midnightblue" d="M658.816,-170.238C699.913,-137.094 776.8,-75.0889 806.176,-51.3987"/>
<polygon fill="midnightblue" stroke="midnightblue" points="656.445,-167.653 650.858,-176.655 660.84,-173.102 656.445,-167.653"/>
</g>
<!-- Node24&#45;&gt;Node4 -->
<g id="edge40" class="edge"><title>Node24&#45;&gt;Node4</title>
<path fill="none" stroke="midnightblue" d="M1029.05,-383.87C1064.43,-352.812 1128.11,-296.902 1158.69,-270.057"/>
<polygon fill="midnightblue" stroke="midnightblue" points="1026.33,-381.605 1021.12,-390.833 1030.94,-386.866 1026.33,-381.605"/>
</g>
<!-- Node24&#45;&gt;Node7 -->
<g id="edge41" class="edge"><title>Node24&#45;&gt;Node7</title>
<path fill="none" stroke="midnightblue" d="M1072.78,-388.269C1087.51,-384.5 1102.95,-380.551 1117.26,-376.89"/>
<polygon fill="midnightblue" stroke="midnightblue" points="1071.53,-384.975 1062.71,-390.844 1073.27,-391.757 1071.53,-384.975"/>
</g>
<!-- Node24&#45;&gt;Node14 -->
<g id="edge39" class="edge"><title>Node24&#45;&gt;Node14</title>
<path fill="none" stroke="midnightblue" d="M1068.85,-423.585C1086.04,-428.282 1104.43,-433.307 1121.04,-437.844"/>
<polygon fill="midnightblue" stroke="midnightblue" points="1069.46,-420.123 1058.89,-420.864 1067.62,-426.876 1069.46,-420.123"/>
</g>
<!-- Node25&#45;&gt;Node10 -->
<g id="edge49" class="edge"><title>Node25&#45;&gt;Node10</title>
<path fill="none" stroke="midnightblue" d="M864.121,-30.0968C917.597,-18.3731 1008.87,-6.69221 1076,-41.8634 1100.9,-54.909 1091.77,-74.3461 1112,-93.8634 1122.35,-103.85 1135.49,-112.766 1147.17,-119.711"/>
<polygon fill="midnightblue" stroke="midnightblue" points="863.236,-26.7087 854.269,-32.3515 864.798,-33.5323 863.236,-26.7087"/>
</g>
<!-- Node25&#45;&gt;Node20 -->
<g id="edge48" class="edge"><title>Node25&#45;&gt;Node20</title>
<path fill="none" stroke="midnightblue" d="M854.069,-28.9912C903.725,-12.1203 998.506,12.9069 1076,-8.8634 1107.72,-17.7736 1139.34,-39.8344 1158.28,-54.8339"/>
<polygon fill="midnightblue" stroke="midnightblue" points="852.756,-25.7425 844.469,-32.344 855.064,-32.351 852.756,-25.7425"/>
</g>
<!-- Node26 -->
<g id="node26" class="node"><title>Node26</title>
<g id="a_node26"><a xlink:href="classx265_1_1Analysis.html#a10f0a8d9d143faf8dc671c6f0982693d" target="_top" xlink:title="x265::Analysis::tryLossless">
<polygon fill="white" stroke="black" points="934.5,-51.3634 934.5,-70.3634 1071.5,-70.3634 1071.5,-51.3634 934.5,-51.3634"/>
<text text-anchor="middle" x="1003" y="-58.3634" font-family="Helvetica,sans-Serif" font-size="10.00">x265::Analysis::tryLossless</text>
</a>
</g>
</g>
<!-- Node25&#45;&gt;Node26 -->
<g id="edge43" class="edge"><title>Node25&#45;&gt;Node26</title>
<path fill="none" stroke="midnightblue" d="M892.108,-49.3911C905.993,-50.8407 920.493,-52.3544 934.235,-53.789"/>
<polygon fill="midnightblue" stroke="midnightblue" points="892.434,-45.9063 882.125,-48.349 891.708,-52.8685 892.434,-45.9063"/>
</g>
<!-- Node26&#45;&gt;Node4 -->
<g id="edge45" class="edge"><title>Node26&#45;&gt;Node4</title>
<path fill="none" stroke="midnightblue" d="M1069.67,-75.2577C1071.89,-76.6551 1074.01,-78.1861 1076,-79.8634 1105.5,-104.738 1093.24,-125.147 1112,-158.863 1128.56,-188.619 1151.35,-221.189 1164.79,-239.715"/>
<polygon fill="midnightblue" stroke="midnightblue" points="1071.16,-72.0866 1060.68,-70.504 1067.89,-78.2741 1071.16,-72.0866"/>
</g>
<!-- Node26&#45;&gt;Node7 -->
<g id="edge46" class="edge"><title>Node26&#45;&gt;Node7</title>
<path fill="none" stroke="midnightblue" d="M1072.16,-76.1974C1073.51,-77.3376 1074.79,-78.5578 1076,-79.8634 1136.99,-145.88 1075.52,-196.719 1112,-278.863 1123.82,-305.472 1145.86,-331.241 1160.73,-346.827"/>
<polygon fill="midnightblue" stroke="midnightblue" points="1074.02,-73.2303 1063.78,-70.5048 1070.09,-79.0201 1074.02,-73.2303"/>
</g>
<!-- Node26&#45;&gt;Node10 -->
<g id="edge47" class="edge"><title>Node26&#45;&gt;Node10</title>
<path fill="none" stroke="midnightblue" d="M1057.22,-73.3244C1063.63,-75.2868 1070.01,-77.4692 1076,-79.8634 1103.41,-90.8255 1132.79,-107.659 1152.56,-119.815"/>
<polygon fill="midnightblue" stroke="midnightblue" points="1057.78,-69.8419 1047.2,-70.4231 1055.83,-76.5658 1057.78,-69.8419"/>
</g>
<!-- Node26&#45;&gt;Node20 -->
<g id="edge44" class="edge"><title>Node26&#45;&gt;Node20</title>
<path fill="none" stroke="midnightblue" d="M1082.24,-64.9574C1092.16,-65.4764 1102.22,-66.0026 1111.88,-66.5081"/>
<polygon fill="midnightblue" stroke="midnightblue" points="1082.15,-61.4479 1071.98,-64.4204 1081.78,-68.4383 1082.15,-61.4479"/>
</g>
<!-- Node27&#45;&gt;Node22 -->
<g id="edge51" class="edge"><title>Node27&#45;&gt;Node22</title>
<path fill="none" stroke="midnightblue" d="M306.407,-486.027C333.31,-491.916 362.436,-498.292 385.546,-503.351"/>
<polygon fill="midnightblue" stroke="midnightblue" points="307.128,-482.602 296.611,-483.883 305.631,-489.44 307.128,-482.602"/>
</g>
<!-- Node28 -->
<g id="node28" class="node"><title>Node28</title>
<g id="a_node28"><a xlink:href="classx265_1_1Search.html#a5284cffef18fe6884b268ea28f21f22f" target="_top" xlink:title="x265::Search::generateCoeff\lRecon">
<polygon fill="white" stroke="black" points="560,-497.863 560,-527.863 702,-527.863 702,-497.863 560,-497.863"/>
<text text-anchor="start" x="568" y="-515.863" font-family="Helvetica,sans-Serif" font-size="10.00">x265::Search::generateCoeff</text>
<text text-anchor="middle" x="631" y="-504.863" font-family="Helvetica,sans-Serif" font-size="10.00">Recon</text>
</a>
</g>
</g>
<!-- Node27&#45;&gt;Node28 -->
<g id="edge52" class="edge"><title>Node27&#45;&gt;Node28</title>
<path fill="none" stroke="midnightblue" d="M316.193,-474.578C373.765,-478.774 450.497,-485.243 518,-493.863 531.597,-495.6 546.065,-497.794 559.931,-500.069"/>
<polygon fill="midnightblue" stroke="midnightblue" points="316.262,-471.074 306.036,-473.847 315.759,-478.056 316.262,-471.074"/>
</g>
<!-- Node28&#45;&gt;Node7 -->
<g id="edge53" class="edge"><title>Node28&#45;&gt;Node7</title>
<path fill="none" stroke="midnightblue" d="M712.521,-524.379C824.171,-538.589 1018.74,-556.467 1076,-517.863 1111.38,-494.01 1088.85,-464.707 1112,-428.863 1124.92,-408.864 1144.29,-389.596 1158.34,-376.898"/>
<polygon fill="midnightblue" stroke="midnightblue" points="712.68,-520.87 702.314,-523.061 711.783,-527.813 712.68,-520.87"/>
</g>
<!-- Node30 -->
<g id="node30" class="node"><title>Node30</title>
<g id="a_node30"><a xlink:href="classx265_1_1Search.html#aba5e04ce529f41accd43c540ba1dc7ad" target="_top" xlink:title="x265::Search::encodeResAnd\lCalcRdInterCU">
<polygon fill="white" stroke="black" points="745.5,-176.863 745.5,-206.863 892.5,-206.863 892.5,-176.863 745.5,-176.863"/>
<text text-anchor="start" x="753.5" y="-194.863" font-family="Helvetica,sans-Serif" font-size="10.00">x265::Search::encodeResAnd</text>
<text text-anchor="middle" x="819" y="-183.863" font-family="Helvetica,sans-Serif" font-size="10.00">CalcRdInterCU</text>
</a>
</g>
</g>
<!-- Node29&#45;&gt;Node30 -->
<g id="edge55" class="edge"><title>Node29&#45;&gt;Node30</title>
<path fill="none" stroke="midnightblue" d="M528.179,-152.048C581.473,-154.667 648.599,-159.392 708,-167.863 723.868,-170.126 740.856,-173.402 756.619,-176.809"/>
<polygon fill="midnightblue" stroke="midnightblue" points="528.208,-148.545 518.053,-151.567 527.876,-155.537 528.208,-148.545"/>
</g>
<!-- Node30&#45;&gt;Node4 -->
<g id="edge57" class="edge"><title>Node30&#45;&gt;Node4</title>
<path fill="none" stroke="midnightblue" d="M895.85,-209.01C907.273,-211.419 918.931,-213.78 930,-215.863 991.513,-227.44 1062.11,-238.394 1111.86,-245.728"/>
<polygon fill="midnightblue" stroke="midnightblue" points="896.404,-205.55 885.894,-206.887 894.944,-212.396 896.404,-205.55"/>
</g>
<!-- Node30&#45;&gt;Node7 -->
<g id="edge58" class="edge"><title>Node30&#45;&gt;Node7</title>
<path fill="none" stroke="midnightblue" d="M882.708,-212.164C886.843,-214.995 890.675,-218.212 894,-221.863 931.486,-263.037 886.712,-306.841 930,-341.863 980.551,-382.762 1057.61,-382.201 1111.99,-374.962"/>
<polygon fill="midnightblue" stroke="midnightblue" points="884.243,-209.003 873.863,-206.876 880.651,-215.011 884.243,-209.003"/>
</g>
<!-- Node30&#45;&gt;Node8 -->
<g id="edge59" class="edge"><title>Node30&#45;&gt;Node8</title>
<path fill="none" stroke="midnightblue" d="M873.781,-211.111C880.769,-214.345 887.685,-217.94 894,-221.863 913.711,-234.109 961.335,-278.79 986.235,-302.632"/>
<polygon fill="midnightblue" stroke="midnightblue" points="874.819,-207.744 864.256,-206.929 872.005,-214.154 874.819,-207.744"/>
</g>
<!-- Node30&#45;&gt;Node9 -->
<g id="edge60" class="edge"><title>Node30&#45;&gt;Node9</title>
<path fill="none" stroke="midnightblue" d="M885.923,-174.115C905.648,-168.804 927.078,-163.035 946.094,-157.915"/>
<polygon fill="midnightblue" stroke="midnightblue" points="884.837,-170.782 876.091,-176.762 886.657,-177.542 884.837,-170.782"/>
</g>
<!-- Node30&#45;&gt;Node15 -->
<g id="edge61" class="edge"><title>Node30&#45;&gt;Node15</title>
<path fill="none" stroke="midnightblue" d="M902.966,-191.863C914.199,-191.863 925.597,-191.863 936.468,-191.863"/>
<polygon fill="midnightblue" stroke="midnightblue" points="902.716,-188.363 892.716,-191.863 902.716,-195.363 902.716,-188.363"/>
</g>
<!-- Node30&#45;&gt;Node26 -->
<g id="edge56" class="edge"><title>Node30&#45;&gt;Node26</title>
<path fill="none" stroke="midnightblue" d="M836.647,-168.591C856.153,-143.036 890.829,-102.615 930,-79.8634 936.707,-75.9675 944.226,-72.8541 951.807,-70.3704"/>
<polygon fill="midnightblue" stroke="midnightblue" points="833.814,-166.536 830.629,-176.641 839.42,-170.727 833.814,-166.536"/>
</g>
</g>
</svg>
