<?xml version="1.0" encoding="UTF-8" standalone="no"?>
<!DOCTYPE svg PUBLIC "-//W3C//DTD SVG 1.1//EN"
 "http://www.w3.org/Graphics/SVG/1.1/DTD/svg11.dtd">
<!-- Generated by graphviz version 2.36.0 (20140111.2315)
 -->
<!-- Title: x265::SAO::calcSaoStatsCu Pages: 1 -->
<svg width="334pt" height="104pt"
 viewBox="0.00 0.00 334.00 104.00" xmlns="http://www.w3.org/2000/svg" xmlns:xlink="http://www.w3.org/1999/xlink">
<g id="graph0" class="graph" transform="scale(1 1) rotate(0) translate(4 100)">
<title>x265::SAO::calcSaoStatsCu</title>
<polygon fill="white" stroke="none" points="-4,4 -4,-100 330,-100 330,4 -4,4"/>
<!-- Node1 -->
<g id="node1" class="node"><title>Node1</title>
<polygon fill="#bfbfbf" stroke="black" points="0,-38.5 0,-57.5 142,-57.5 142,-38.5 0,-38.5"/>
<text text-anchor="middle" x="71" y="-45.5" font-family="Helvetica,sans-Serif" font-size="10.00">x265::SAO::calcSaoStatsCu</text>
</g>
<!-- Node2 -->
<g id="node2" class="node"><title>Node2</title>
<g id="a_node2"><a xlink:href="classx265_1_1FrameData.html#a83d98df913873a07c3ce59bd5c16b2e4" target="_top" xlink:title="x265::FrameData::getPicCTU">
<polygon fill="white" stroke="black" points="178.5,-76.5 178.5,-95.5 325.5,-95.5 325.5,-76.5 178.5,-76.5"/>
<text text-anchor="middle" x="252" y="-83.5" font-family="Helvetica,sans-Serif" font-size="10.00">x265::FrameData::getPicCTU</text>
</a>
</g>
</g>
<!-- Node1&#45;&gt;Node2 -->
<g id="edge1" class="edge"><title>Node1&#45;&gt;Node2</title>
<path fill="none" stroke="midnightblue" d="M117.169,-57.589C141.216,-62.6939 170.974,-69.0113 196.319,-74.3918"/>
<polygon fill="midnightblue" stroke="midnightblue" points="195.647,-77.8269 206.156,-76.4799 197.1,-70.9795 195.647,-77.8269"/>
</g>
<!-- Node3 -->
<g id="node3" class="node"><title>Node3</title>
<g id="a_node3"><a xlink:href="classx265_1_1PicYuv.html#aeee8556da4cb35b12357140c8f009586" target="_top" xlink:title="x265::PicYuv::getPlaneAddr">
<polygon fill="white" stroke="black" points="182,-38.5 182,-57.5 322,-57.5 322,-38.5 182,-38.5"/>
<text text-anchor="middle" x="252" y="-45.5" font-family="Helvetica,sans-Serif" font-size="10.00">x265::PicYuv::getPlaneAddr</text>
</a>
</g>
</g>
<!-- Node1&#45;&gt;Node3 -->
<g id="edge2" class="edge"><title>Node1&#45;&gt;Node3</title>
<path fill="none" stroke="midnightblue" d="M142.232,-48C151.9,-48 161.883,-48 171.7,-48"/>
<polygon fill="midnightblue" stroke="midnightblue" points="171.851,-51.5001 181.851,-48 171.851,-44.5001 171.851,-51.5001"/>
</g>
<!-- Node4 -->
<g id="node4" class="node"><title>Node4</title>
<g id="a_node4"><a xlink:href="common_8h.html#a0cd31af5bfbe1669e9a0d02225e6efba" target="_top" xlink:title="x265_min">
<polygon fill="white" stroke="black" points="222.5,-0.5 222.5,-19.5 281.5,-19.5 281.5,-0.5 222.5,-0.5"/>
<text text-anchor="middle" x="252" y="-7.5" font-family="Helvetica,sans-Serif" font-size="10.00">x265_min</text>
</a>
</g>
</g>
<!-- Node1&#45;&gt;Node4 -->
<g id="edge3" class="edge"><title>Node1&#45;&gt;Node4</title>
<path fill="none" stroke="midnightblue" d="M117.169,-38.411C146.594,-32.1644 184.572,-24.1021 212.55,-18.1626"/>
<polygon fill="midnightblue" stroke="midnightblue" points="213.316,-21.5781 222.371,-16.0777 211.862,-14.7307 213.316,-21.5781"/>
</g>
</g>
</svg>
