<?xml version="1.0" encoding="UTF-8" standalone="no"?>
<!DOCTYPE svg PUBLIC "-//W3C//DTD SVG 1.1//EN"
 "http://www.w3.org/Graphics/SVG/1.1/DTD/svg11.dtd">
<!-- Generated by graphviz version 2.36.0 (20140111.2315)
 -->
<!-- Title: x265::Entropy::codeQtRootCbf Pages: 1 -->
<svg width="1368pt" height="531pt"
 viewBox="0.00 0.00 1368.00 531.24" xmlns="http://www.w3.org/2000/svg" xmlns:xlink="http://www.w3.org/1999/xlink">
<g id="graph0" class="graph" transform="scale(1 1) rotate(0) translate(4 527.239)">
<title>x265::Entropy::codeQtRootCbf</title>
<polygon fill="white" stroke="none" points="-4,4 -4,-527.239 1364,-527.239 1364,4 -4,4"/>
<!-- Node1 -->
<g id="node1" class="node"><title>Node1</title>
<polygon fill="#bfbfbf" stroke="black" points="0,-187.576 0,-206.576 152,-206.576 152,-187.576 0,-187.576"/>
<text text-anchor="middle" x="76" y="-194.576" font-family="Helvetica,sans-Serif" font-size="10.00">x265::Entropy::codeQtRootCbf</text>
</g>
<!-- Node2 -->
<g id="node2" class="node"><title>Node2</title>
<g id="a_node2"><a xlink:href="classx265_1_1Entropy.html#a220326e32d9be80554bf11194ef2c642" target="_top" xlink:title="x265::Entropy::codeCoeff">
<polygon fill="white" stroke="black" points="188,-187.576 188,-206.576 316,-206.576 316,-187.576 188,-187.576"/>
<text text-anchor="middle" x="252" y="-194.576" font-family="Helvetica,sans-Serif" font-size="10.00">x265::Entropy::codeCoeff</text>
</a>
</g>
</g>
<!-- Node1&#45;&gt;Node2 -->
<g id="edge1" class="edge"><title>Node1&#45;&gt;Node2</title>
<path fill="none" stroke="midnightblue" d="M162.195,-197.076C170.861,-197.076 179.55,-197.076 187.92,-197.076"/>
<polygon fill="midnightblue" stroke="midnightblue" points="162.054,-193.576 152.054,-197.076 162.054,-200.576 162.054,-193.576"/>
</g>
<!-- Node3 -->
<g id="node3" class="node"><title>Node3</title>
<g id="a_node3"><a xlink:href="classx265_1_1Analysis.html#ae4d61bcf4d2c22a054d68d6d77136428" target="_top" xlink:title="x265::Analysis::encodeIntra\lInInter">
<polygon fill="white" stroke="black" points="352,-430.076 352,-460.076 490,-460.076 490,-430.076 352,-430.076"/>
<text text-anchor="start" x="360" y="-448.076" font-family="Helvetica,sans-Serif" font-size="10.00">x265::Analysis::encodeIntra</text>
<text text-anchor="middle" x="421" y="-437.076" font-family="Helvetica,sans-Serif" font-size="10.00">InInter</text>
</a>
</g>
</g>
<!-- Node2&#45;&gt;Node3 -->
<g id="edge2" class="edge"><title>Node2&#45;&gt;Node3</title>
<path fill="none" stroke="midnightblue" d="M265.315,-215.364C296.987,-262.397 380.817,-386.888 409.896,-430.071"/>
<polygon fill="midnightblue" stroke="midnightblue" points="268.035,-213.137 259.547,-206.798 262.229,-217.047 268.035,-213.137"/>
</g>
<!-- Node10 -->
<g id="node10" class="node"><title>Node10</title>
<g id="a_node10"><a xlink:href="classx265_1_1Entropy.html#adeb50a7c9a5df6643407d01158d93799" target="_top" xlink:title="x265::Entropy::encodeCU">
<polygon fill="white" stroke="black" points="356,-63.5758 356,-82.5758 486,-82.5758 486,-63.5758 356,-63.5758"/>
<text text-anchor="middle" x="421" y="-70.5758" font-family="Helvetica,sans-Serif" font-size="10.00">x265::Entropy::encodeCU</text>
</a>
</g>
</g>
<!-- Node2&#45;&gt;Node10 -->
<g id="edge11" class="edge"><title>Node2&#45;&gt;Node10</title>
<path fill="none" stroke="midnightblue" d="M273.924,-181.539C308.855,-155.603 378.055,-104.221 406.899,-82.8034"/>
<polygon fill="midnightblue" stroke="midnightblue" points="271.769,-178.78 265.827,-187.552 275.942,-184.4 271.769,-178.78"/>
</g>
<!-- Node14 -->
<g id="node14" class="node"><title>Node14</title>
<g id="a_node14"><a xlink:href="classx265_1_1Search.html#ab02df91827cf67796d1605bde60c6aed" target="_top" xlink:title="x265::Search::checkIntra">
<polygon fill="white" stroke="black" points="537,-166.576 537,-185.576 663,-185.576 663,-166.576 537,-166.576"/>
<text text-anchor="middle" x="600" y="-173.576" font-family="Helvetica,sans-Serif" font-size="10.00">x265::Search::checkIntra</text>
</a>
</g>
</g>
<!-- Node2&#45;&gt;Node14 -->
<g id="edge16" class="edge"><title>Node2&#45;&gt;Node14</title>
<path fill="none" stroke="midnightblue" d="M326.254,-192.63C388.827,-188.832 477.842,-183.429 536.956,-179.841"/>
<polygon fill="midnightblue" stroke="midnightblue" points="325.829,-189.149 316.059,-193.248 326.253,-196.136 325.829,-189.149"/>
</g>
<!-- Node18 -->
<g id="node18" class="node"><title>Node18</title>
<g id="a_node18"><a xlink:href="classx265_1_1Search.html#aba5e04ce529f41accd43c540ba1dc7ad" target="_top" xlink:title="x265::Search::encodeResAnd\lCalcRdInterCU">
<polygon fill="white" stroke="black" points="526.5,-238.076 526.5,-268.076 673.5,-268.076 673.5,-238.076 526.5,-238.076"/>
<text text-anchor="start" x="534.5" y="-256.076" font-family="Helvetica,sans-Serif" font-size="10.00">x265::Search::encodeResAnd</text>
<text text-anchor="middle" x="600" y="-245.076" font-family="Helvetica,sans-Serif" font-size="10.00">CalcRdInterCU</text>
</a>
</g>
</g>
<!-- Node2&#45;&gt;Node18 -->
<g id="edge26" class="edge"><title>Node2&#45;&gt;Node18</title>
<path fill="none" stroke="midnightblue" d="M322.086,-208.257C381.249,-217.833 466.172,-231.578 526.343,-241.316"/>
<polygon fill="midnightblue" stroke="midnightblue" points="322.517,-204.782 312.086,-206.639 321.399,-211.692 322.517,-204.782"/>
</g>
<!-- Node4 -->
<g id="node4" class="node"><title>Node4</title>
<g id="a_node4"><a xlink:href="classx265_1_1Analysis.html#aa6122285d10bb1bd7584958b88b029d5" target="_top" xlink:title="x265::Analysis::parallel\lModeAnalysis">
<polygon fill="white" stroke="black" points="541,-452.076 541,-482.076 659,-482.076 659,-452.076 541,-452.076"/>
<text text-anchor="start" x="549" y="-470.076" font-family="Helvetica,sans-Serif" font-size="10.00">x265::Analysis::parallel</text>
<text text-anchor="middle" x="600" y="-459.076" font-family="Helvetica,sans-Serif" font-size="10.00">ModeAnalysis</text>
</a>
</g>
</g>
<!-- Node3&#45;&gt;Node4 -->
<g id="edge3" class="edge"><title>Node3&#45;&gt;Node4</title>
<path fill="none" stroke="midnightblue" d="M500.492,-454.832C514.088,-456.522 528.002,-458.251 540.931,-459.858"/>
<polygon fill="midnightblue" stroke="midnightblue" points="500.535,-451.31 490.18,-453.55 499.672,-458.257 500.535,-451.31"/>
</g>
<!-- Node6 -->
<g id="node6" class="node"><title>Node6</title>
<g id="a_node6"><a xlink:href="classx265_1_1Analysis.html#a87060ff27a37f56adc5f5b8a4c033ece" target="_top" xlink:title="x265::Analysis::compress\lInterCU_dist">
<polygon fill="white" stroke="black" points="892,-350.076 892,-380.076 1022,-380.076 1022,-350.076 892,-350.076"/>
<text text-anchor="start" x="900" y="-368.076" font-family="Helvetica,sans-Serif" font-size="10.00">x265::Analysis::compress</text>
<text text-anchor="middle" x="957" y="-357.076" font-family="Helvetica,sans-Serif" font-size="10.00">InterCU_dist</text>
</a>
</g>
</g>
<!-- Node3&#45;&gt;Node6 -->
<g id="edge8" class="edge"><title>Node3&#45;&gt;Node6</title>
<path fill="none" stroke="midnightblue" d="M456.777,-464.834C476.422,-474.856 501.82,-485.967 526,-491.076 669.541,-521.403 724.271,-547.662 856,-483.076 901.811,-460.615 934.705,-406.495 948.622,-380.082"/>
<polygon fill="midnightblue" stroke="midnightblue" points="458.386,-461.726 447.904,-460.183 455.136,-467.926 458.386,-461.726"/>
</g>
<!-- Node9 -->
<g id="node9" class="node"><title>Node9</title>
<g id="a_node9"><a xlink:href="classx265_1_1Analysis.html#a30d2ff7eca5addbb0a6b3dfe14f09650" target="_top" xlink:title="x265::Analysis::compress\lInterCU_rd0_4">
<polygon fill="white" stroke="black" points="892,-282.076 892,-312.076 1022,-312.076 1022,-282.076 892,-282.076"/>
<text text-anchor="start" x="900" y="-300.076" font-family="Helvetica,sans-Serif" font-size="10.00">x265::Analysis::compress</text>
<text text-anchor="middle" x="957" y="-289.076" font-family="Helvetica,sans-Serif" font-size="10.00">InterCU_rd0_4</text>
</a>
</g>
</g>
<!-- Node3&#45;&gt;Node9 -->
<g id="edge9" class="edge"><title>Node3&#45;&gt;Node9</title>
<path fill="none" stroke="midnightblue" d="M500.352,-440.605C589.502,-433.284 738.012,-414.216 856,-365.076 873.982,-357.586 875.915,-351.063 892,-340.076 905.706,-330.713 921.15,-320.332 933.433,-312.116"/>
<polygon fill="midnightblue" stroke="midnightblue" points="500.007,-437.121 490.315,-441.4 500.56,-444.099 500.007,-437.121"/>
</g>
<!-- Node5 -->
<g id="node5" class="node"><title>Node5</title>
<g id="a_node5"><a xlink:href="classx265_1_1Analysis.html#a29a58dad4cc1c07d2f5e5717c6be7c25" target="_top" xlink:title="x265::Analysis::findJob">
<polygon fill="white" stroke="black" points="723.5,-454.576 723.5,-473.576 842.5,-473.576 842.5,-454.576 723.5,-454.576"/>
<text text-anchor="middle" x="783" y="-461.576" font-family="Helvetica,sans-Serif" font-size="10.00">x265::Analysis::findJob</text>
</a>
</g>
</g>
<!-- Node4&#45;&gt;Node5 -->
<g id="edge4" class="edge"><title>Node4&#45;&gt;Node5</title>
<path fill="none" stroke="midnightblue" d="M669.519,-465.94C687.205,-465.647 706.083,-465.334 723.223,-465.05"/>
<polygon fill="midnightblue" stroke="midnightblue" points="669.206,-462.445 659.266,-466.11 669.323,-469.444 669.206,-462.445"/>
</g>
<!-- Node5&#45;&gt;Node6 -->
<g id="edge5" class="edge"><title>Node5&#45;&gt;Node6</title>
<path fill="none" stroke="midnightblue" d="M824.36,-451.086C834.904,-447.118 846.087,-442.381 856,-437.076 886.744,-420.622 918.879,-395.931 938.169,-380.164"/>
<polygon fill="midnightblue" stroke="midnightblue" points="823.121,-447.812 814.91,-454.508 825.504,-454.394 823.121,-447.812"/>
</g>
<!-- Node7 -->
<g id="node7" class="node"><title>Node7</title>
<g id="a_node7"><a xlink:href="classx265_1_1Analysis.html#aaebc9de2ff98834c650244f3b58942c2" target="_top" xlink:title="x265::Analysis::compressCTU">
<polygon fill="white" stroke="black" points="1058.5,-199.576 1058.5,-218.576 1209.5,-218.576 1209.5,-199.576 1058.5,-199.576"/>
<text text-anchor="middle" x="1134" y="-206.576" font-family="Helvetica,sans-Serif" font-size="10.00">x265::Analysis::compressCTU</text>
</a>
</g>
</g>
<!-- Node6&#45;&gt;Node7 -->
<g id="edge6" class="edge"><title>Node6&#45;&gt;Node7</title>
<path fill="none" stroke="midnightblue" d="M990.591,-344.398C1000.93,-337.386 1012.22,-329.249 1022,-321.076 1063.38,-286.494 1106.81,-238.812 1124.62,-218.67"/>
<polygon fill="midnightblue" stroke="midnightblue" points="988.561,-341.545 982.178,-350.001 992.441,-347.372 988.561,-341.545"/>
</g>
<!-- Node8 -->
<g id="node8" class="node"><title>Node8</title>
<g id="a_node8"><a xlink:href="classx265_1_1FrameEncoder.html#a0ae85001572afd28238476542523ac5f" target="_top" xlink:title="x265::FrameEncoder\l::processRowEncoder">
<polygon fill="white" stroke="red" points="1246.5,-87.0758 1246.5,-117.076 1359.5,-117.076 1359.5,-87.0758 1246.5,-87.0758"/>
<text text-anchor="start" x="1254.5" y="-105.076" font-family="Helvetica,sans-Serif" font-size="10.00">x265::FrameEncoder</text>
<text text-anchor="middle" x="1303" y="-94.0758" font-family="Helvetica,sans-Serif" font-size="10.00">::processRowEncoder</text>
</a>
</g>
</g>
<!-- Node7&#45;&gt;Node8 -->
<g id="edge7" class="edge"><title>Node7&#45;&gt;Node8</title>
<path fill="none" stroke="midnightblue" d="M1158.77,-193.845C1190.55,-173.482 1246.56,-137.598 1278.3,-117.259"/>
<polygon fill="midnightblue" stroke="midnightblue" points="1156.65,-191.05 1150.11,-199.392 1160.42,-196.944 1156.65,-191.05"/>
</g>
<!-- Node9&#45;&gt;Node7 -->
<g id="edge10" class="edge"><title>Node9&#45;&gt;Node7</title>
<path fill="none" stroke="midnightblue" d="M997.426,-277.25C1033.82,-258.95 1086.3,-232.558 1114.09,-218.587"/>
<polygon fill="midnightblue" stroke="midnightblue" points="995.445,-274.329 988.084,-281.948 998.59,-280.582 995.445,-274.329"/>
</g>
<!-- Node11 -->
<g id="node11" class="node"><title>Node11</title>
<g id="a_node11"><a xlink:href="classx265_1_1Entropy.html#abb101b71f310e90eb504a8204babc180" target="_top" xlink:title="x265::Entropy::encodeCTU">
<polygon fill="white" stroke="black" points="532,-29.5758 532,-48.5758 668,-48.5758 668,-29.5758 532,-29.5758"/>
<text text-anchor="middle" x="600" y="-36.5758" font-family="Helvetica,sans-Serif" font-size="10.00">x265::Entropy::encodeCTU</text>
</a>
</g>
</g>
<!-- Node10&#45;&gt;Node11 -->
<g id="edge12" class="edge"><title>Node10&#45;&gt;Node11</title>
<path fill="none" stroke="midnightblue" d="M481.664,-61.615C503.642,-57.3931 528.285,-52.6595 549.292,-48.6242"/>
<polygon fill="midnightblue" stroke="midnightblue" points="480.936,-58.1907 471.775,-63.5144 482.256,-65.0651 480.936,-58.1907"/>
</g>
<!-- Node11&#45;&gt;Node8 -->
<g id="edge15" class="edge"><title>Node11&#45;&gt;Node8</title>
<path fill="none" stroke="midnightblue" d="M643.775,-26.9152C663.72,-21.8536 687.885,-16.5794 710,-14.0758 847.787,1.52292 884.937,6.9555 1022,-14.0758 1112.41,-27.9481 1213.69,-65.6311 1266.15,-86.9139"/>
<polygon fill="midnightblue" stroke="midnightblue" points="642.852,-23.5389 634.058,-29.448 644.617,-30.3126 642.852,-23.5389"/>
</g>
<!-- Node12 -->
<g id="node12" class="node"><title>Node12</title>
<g id="a_node12"><a xlink:href="classx265_1_1FrameEncoder.html#a6d4045d35bfe6b10c8d0dc39353be360" target="_top" xlink:title="x265::FrameEncoder\l::encodeSlice">
<polygon fill="white" stroke="black" points="729.5,-24.0758 729.5,-54.0758 836.5,-54.0758 836.5,-24.0758 729.5,-24.0758"/>
<text text-anchor="start" x="737.5" y="-42.0758" font-family="Helvetica,sans-Serif" font-size="10.00">x265::FrameEncoder</text>
<text text-anchor="middle" x="783" y="-31.0758" font-family="Helvetica,sans-Serif" font-size="10.00">::encodeSlice</text>
</a>
</g>
</g>
<!-- Node11&#45;&gt;Node12 -->
<g id="edge13" class="edge"><title>Node11&#45;&gt;Node12</title>
<path fill="none" stroke="midnightblue" d="M678.209,-39.0758C695.472,-39.0758 713.394,-39.0758 729.389,-39.0758"/>
<polygon fill="midnightblue" stroke="midnightblue" points="678.141,-35.5759 668.141,-39.0758 678.14,-42.5759 678.141,-35.5759"/>
</g>
<!-- Node13 -->
<g id="node13" class="node"><title>Node13</title>
<g id="a_node13"><a xlink:href="classx265_1_1FrameEncoder.html#a2f5c4c0f1a4e36fce4c9b87eb7ec4973" target="_top" xlink:title="x265::FrameEncoder\l::compressFrame">
<polygon fill="white" stroke="red" points="903.5,-24.0758 903.5,-54.0758 1010.5,-54.0758 1010.5,-24.0758 903.5,-24.0758"/>
<text text-anchor="start" x="911.5" y="-42.0758" font-family="Helvetica,sans-Serif" font-size="10.00">x265::FrameEncoder</text>
<text text-anchor="middle" x="957" y="-31.0758" font-family="Helvetica,sans-Serif" font-size="10.00">::compressFrame</text>
</a>
</g>
</g>
<!-- Node12&#45;&gt;Node13 -->
<g id="edge14" class="edge"><title>Node12&#45;&gt;Node13</title>
<path fill="none" stroke="midnightblue" d="M846.708,-39.0758C865.348,-39.0758 885.566,-39.0758 903.485,-39.0758"/>
<polygon fill="midnightblue" stroke="midnightblue" points="846.54,-35.5759 836.54,-39.0758 846.54,-42.5759 846.54,-35.5759"/>
</g>
<!-- Node15 -->
<g id="node15" class="node"><title>Node15</title>
<g id="a_node15"><a xlink:href="classx265_1_1Analysis.html#a10f0a8d9d143faf8dc671c6f0982693d" target="_top" xlink:title="x265::Analysis::tryLossless">
<polygon fill="white" stroke="black" points="714.5,-199.576 714.5,-218.576 851.5,-218.576 851.5,-199.576 714.5,-199.576"/>
<text text-anchor="middle" x="783" y="-206.576" font-family="Helvetica,sans-Serif" font-size="10.00">x265::Analysis::tryLossless</text>
</a>
</g>
</g>
<!-- Node14&#45;&gt;Node15 -->
<g id="edge17" class="edge"><title>Node14&#45;&gt;Node15</title>
<path fill="none" stroke="midnightblue" d="M663.425,-187.457C685.049,-191.4 709.047,-195.775 729.765,-199.552"/>
<polygon fill="midnightblue" stroke="midnightblue" points="663.818,-183.971 653.353,-185.621 662.563,-190.858 663.818,-183.971"/>
</g>
<!-- Node16 -->
<g id="node16" class="node"><title>Node16</title>
<g id="a_node16"><a xlink:href="classx265_1_1Analysis.html#aae2a6a2252270782b591d2bed7e99dae" target="_top" xlink:title="x265::Analysis::compress\lIntraCU">
<polygon fill="white" stroke="black" points="892,-145.076 892,-175.076 1022,-175.076 1022,-145.076 892,-145.076"/>
<text text-anchor="start" x="900" y="-163.076" font-family="Helvetica,sans-Serif" font-size="10.00">x265::Analysis::compress</text>
<text text-anchor="middle" x="957" y="-152.076" font-family="Helvetica,sans-Serif" font-size="10.00">IntraCU</text>
</a>
</g>
</g>
<!-- Node14&#45;&gt;Node16 -->
<g id="edge24" class="edge"><title>Node14&#45;&gt;Node16</title>
<path fill="none" stroke="midnightblue" d="M619.259,-159.864C639.698,-142.9 674.615,-117.334 710,-107.076 772.323,-89.0077 793.028,-91.4197 856,-107.076 885.365,-114.377 915.588,-132.073 935.01,-145.016"/>
<polygon fill="midnightblue" stroke="midnightblue" points="616.768,-157.389 611.426,-166.539 621.308,-162.717 616.768,-157.389"/>
</g>
<!-- Node17 -->
<g id="node17" class="node"><title>Node17</title>
<g id="a_node17"><a xlink:href="classx265_1_1Analysis.html#a0b22b7765aa4a36b1ba6d07ba26901e6" target="_top" xlink:title="x265::Analysis::compress\lInterCU_rd5_6">
<polygon fill="white" stroke="black" points="892,-194.076 892,-224.076 1022,-224.076 1022,-194.076 892,-194.076"/>
<text text-anchor="start" x="900" y="-212.076" font-family="Helvetica,sans-Serif" font-size="10.00">x265::Analysis::compress</text>
<text text-anchor="middle" x="957" y="-201.076" font-family="Helvetica,sans-Serif" font-size="10.00">InterCU_rd5_6</text>
</a>
</g>
</g>
<!-- Node14&#45;&gt;Node17 -->
<g id="edge25" class="edge"><title>Node14&#45;&gt;Node17</title>
<path fill="none" stroke="midnightblue" d="M629.305,-162.202C678.076,-140.386 780.024,-104.073 856,-140.076 878.833,-150.896 871.565,-169.216 892,-184.076 897.21,-187.864 903.069,-191.167 909.073,-194.02"/>
<polygon fill="midnightblue" stroke="midnightblue" points="627.632,-159.119 620.008,-166.476 630.556,-165.479 627.632,-159.119"/>
</g>
<!-- Node15&#45;&gt;Node6 -->
<g id="edge20" class="edge"><title>Node15&#45;&gt;Node6</title>
<path fill="none" stroke="midnightblue" d="M850.394,-223.723C852.361,-225.053 854.238,-226.5 856,-228.076 889.035,-257.624 864.514,-286.306 892,-321.076 901.282,-332.817 914.546,-342.649 926.596,-350.019"/>
<polygon fill="midnightblue" stroke="midnightblue" points="851.706,-220.447 841.271,-218.617 848.288,-226.555 851.706,-220.447"/>
</g>
<!-- Node15&#45;&gt;Node9 -->
<g id="edge21" class="edge"><title>Node15&#45;&gt;Node9</title>
<path fill="none" stroke="midnightblue" d="M839.396,-221.588C845.102,-223.497 850.733,-225.654 856,-228.076 887.237,-242.439 919.237,-266.485 938.364,-282.06"/>
<polygon fill="midnightblue" stroke="midnightblue" points="840.361,-218.223 829.773,-218.604 838.288,-224.909 840.361,-218.223"/>
</g>
<!-- Node15&#45;&gt;Node16 -->
<g id="edge18" class="edge"><title>Node15&#45;&gt;Node16</title>
<path fill="none" stroke="midnightblue" d="M828.485,-196.804C837.592,-194.267 847.11,-191.6 856,-189.076 871.824,-184.584 889.034,-179.621 904.645,-175.089"/>
<polygon fill="midnightblue" stroke="midnightblue" points="827.511,-193.442 818.813,-199.491 829.385,-200.186 827.511,-193.442"/>
</g>
<!-- Node15&#45;&gt;Node17 -->
<g id="edge22" class="edge"><title>Node15&#45;&gt;Node17</title>
<path fill="none" stroke="midnightblue" d="M862.242,-209.076C872.159,-209.076 882.215,-209.076 891.877,-209.076"/>
<polygon fill="midnightblue" stroke="midnightblue" points="861.979,-205.576 851.979,-209.076 861.979,-212.576 861.979,-205.576"/>
</g>
<!-- Node16&#45;&gt;Node7 -->
<g id="edge19" class="edge"><title>Node16&#45;&gt;Node7</title>
<path fill="none" stroke="midnightblue" d="M1021.79,-177.936C1047.94,-185.258 1077.15,-193.436 1099.06,-199.574"/>
<polygon fill="midnightblue" stroke="midnightblue" points="1022.51,-174.503 1011.93,-175.177 1020.62,-181.244 1022.51,-174.503"/>
</g>
<!-- Node17&#45;&gt;Node7 -->
<g id="edge23" class="edge"><title>Node17&#45;&gt;Node7</title>
<path fill="none" stroke="midnightblue" d="M1032.25,-209.076C1040.93,-209.076 1049.78,-209.076 1058.47,-209.076"/>
<polygon fill="midnightblue" stroke="midnightblue" points="1032.17,-205.576 1022.17,-209.076 1032.17,-212.576 1032.17,-205.576"/>
</g>
<!-- Node18&#45;&gt;Node6 -->
<g id="edge28" class="edge"><title>Node18&#45;&gt;Node6</title>
<path fill="none" stroke="midnightblue" d="M615.604,-276.956C633.822,-304.191 667.78,-347.251 710,-365.076 767.936,-389.536 840.612,-385.857 891.903,-378.318"/>
<polygon fill="midnightblue" stroke="midnightblue" points="618.42,-274.867 610.039,-268.385 612.549,-278.678 618.42,-274.867"/>
</g>
<!-- Node18&#45;&gt;Node9 -->
<g id="edge29" class="edge"><title>Node18&#45;&gt;Node9</title>
<path fill="none" stroke="midnightblue" d="M672.324,-270.231C684.826,-272.822 697.753,-275.238 710,-277.076 771.338,-286.279 841.96,-291.469 891.757,-294.241"/>
<polygon fill="midnightblue" stroke="midnightblue" points="672.918,-266.779 662.409,-268.123 671.462,-273.626 672.918,-266.779"/>
</g>
<!-- Node18&#45;&gt;Node15 -->
<g id="edge27" class="edge"><title>Node18&#45;&gt;Node15</title>
<path fill="none" stroke="midnightblue" d="M672.562,-235.679C696.521,-229.855 722.333,-223.58 742.869,-218.588"/>
<polygon fill="midnightblue" stroke="midnightblue" points="671.674,-232.293 662.784,-238.057 673.327,-239.095 671.674,-232.293"/>
</g>
<!-- Node19 -->
<g id="node19" class="node"><title>Node19</title>
<g id="a_node19"><a xlink:href="classx265_1_1Analysis.html#addd72cb95590e2b2a6965d42d110eab3" target="_top" xlink:title="x265::Analysis::checkMerge2\lNx2N_rd0_4">
<polygon fill="white" stroke="black" points="710,-326.076 710,-356.076 856,-356.076 856,-326.076 710,-326.076"/>
<text text-anchor="start" x="718" y="-344.076" font-family="Helvetica,sans-Serif" font-size="10.00">x265::Analysis::checkMerge2</text>
<text text-anchor="middle" x="783" y="-333.076" font-family="Helvetica,sans-Serif" font-size="10.00">Nx2N_rd0_4</text>
</a>
</g>
</g>
<!-- Node18&#45;&gt;Node19 -->
<g id="edge30" class="edge"><title>Node18&#45;&gt;Node19</title>
<path fill="none" stroke="midnightblue" d="M636.444,-273.026C657.555,-284.633 685.019,-299.257 710,-311.076 720.894,-316.23 732.916,-321.426 743.964,-326.013"/>
<polygon fill="midnightblue" stroke="midnightblue" points="637.963,-269.866 627.519,-268.09 634.576,-275.992 637.963,-269.866"/>
</g>
<!-- Node20 -->
<g id="node20" class="node"><title>Node20</title>
<g id="a_node20"><a xlink:href="classx265_1_1Analysis.html#a0194a9da53aa95173fa1132ba3aea1c7" target="_top" xlink:title="x265::Analysis::checkMerge2\lNx2N_rd5_6">
<polygon fill="white" stroke="black" points="710,-150.076 710,-180.076 856,-180.076 856,-150.076 710,-150.076"/>
<text text-anchor="start" x="718" y="-168.076" font-family="Helvetica,sans-Serif" font-size="10.00">x265::Analysis::checkMerge2</text>
<text text-anchor="middle" x="783" y="-157.076" font-family="Helvetica,sans-Serif" font-size="10.00">Nx2N_rd5_6</text>
</a>
</g>
</g>
<!-- Node18&#45;&gt;Node20 -->
<g id="edge33" class="edge"><title>Node18&#45;&gt;Node20</title>
<path fill="none" stroke="midnightblue" d="M632.756,-232.569C654.057,-219.358 683.044,-202.41 710,-190.076 717.821,-186.497 726.312,-183.124 734.629,-180.083"/>
<polygon fill="midnightblue" stroke="midnightblue" points="630.741,-229.701 624.126,-237.977 634.458,-235.632 630.741,-229.701"/>
</g>
<!-- Node21 -->
<g id="node21" class="node"><title>Node21</title>
<g id="a_node21"><a xlink:href="classx265_1_1Analysis.html#a828daa3e9f1ed40a1af9f99f7ff7bb33" target="_top" xlink:title="x265::Analysis::checkInter\l_rd5_6">
<polygon fill="white" stroke="black" points="716.5,-238.076 716.5,-268.076 849.5,-268.076 849.5,-238.076 716.5,-238.076"/>
<text text-anchor="start" x="724.5" y="-256.076" font-family="Helvetica,sans-Serif" font-size="10.00">x265::Analysis::checkInter</text>
<text text-anchor="middle" x="783" y="-245.076" font-family="Helvetica,sans-Serif" font-size="10.00">_rd5_6</text>
</a>
</g>
</g>
<!-- Node18&#45;&gt;Node21 -->
<g id="edge35" class="edge"><title>Node18&#45;&gt;Node21</title>
<path fill="none" stroke="midnightblue" d="M683.616,-253.076C694.617,-253.076 705.774,-253.076 716.431,-253.076"/>
<polygon fill="midnightblue" stroke="midnightblue" points="683.577,-249.576 673.577,-253.076 683.577,-256.576 683.577,-249.576"/>
</g>
<!-- Node19&#45;&gt;Node6 -->
<g id="edge31" class="edge"><title>Node19&#45;&gt;Node6</title>
<path fill="none" stroke="midnightblue" d="M866.422,-352.577C874.957,-353.767 883.539,-354.965 891.831,-356.122"/>
<polygon fill="midnightblue" stroke="midnightblue" points="866.833,-349.1 856.445,-351.184 865.865,-356.033 866.833,-349.1"/>
</g>
<!-- Node19&#45;&gt;Node9 -->
<g id="edge32" class="edge"><title>Node19&#45;&gt;Node9</title>
<path fill="none" stroke="midnightblue" d="M852.777,-323.482C867.511,-319.713 882.948,-315.764 897.261,-312.102"/>
<polygon fill="midnightblue" stroke="midnightblue" points="851.532,-320.187 842.712,-326.057 853.267,-326.969 851.532,-320.187"/>
</g>
<!-- Node20&#45;&gt;Node17 -->
<g id="edge34" class="edge"><title>Node20&#45;&gt;Node17</title>
<path fill="none" stroke="midnightblue" d="M852.777,-182.67C867.511,-186.439 882.948,-190.388 897.261,-194.05"/>
<polygon fill="midnightblue" stroke="midnightblue" points="853.267,-179.183 842.712,-180.095 851.532,-185.964 853.267,-179.183"/>
</g>
<!-- Node21&#45;&gt;Node17 -->
<g id="edge36" class="edge"><title>Node21&#45;&gt;Node17</title>
<path fill="none" stroke="midnightblue" d="M852.777,-235.482C867.511,-231.713 882.948,-227.764 897.261,-224.102"/>
<polygon fill="midnightblue" stroke="midnightblue" points="851.532,-232.187 842.712,-238.057 853.267,-238.969 851.532,-232.187"/>
</g>
</g>
</svg>
