<?xml version="1.0" encoding="UTF-8" standalone="no"?>
<!DOCTYPE svg PUBLIC "-//W3C//DTD SVG 1.1//EN"
 "http://www.w3.org/Graphics/SVG/1.1/DTD/svg11.dtd">
<!-- Generated by graphviz version 2.36.0 (20140111.2315)
 -->
<!-- Title: x265::FrameEncoder::initializeGeoms Pages: 1 -->
<svg width="492pt" height="66pt"
 viewBox="0.00 0.00 492.00 66.00" xmlns="http://www.w3.org/2000/svg" xmlns:xlink="http://www.w3.org/1999/xlink">
<g id="graph0" class="graph" transform="scale(1 1) rotate(0) translate(4 62)">
<title>x265::FrameEncoder::initializeGeoms</title>
<polygon fill="white" stroke="none" points="-4,4 -4,-62 488,-62 488,4 -4,4"/>
<!-- Node1 -->
<g id="node1" class="node"><title>Node1</title>
<polygon fill="#bfbfbf" stroke="black" points="0.5,-14 0.5,-44 107.5,-44 107.5,-14 0.5,-14"/>
<text text-anchor="start" x="8.5" y="-32" font-family="Helvetica,sans-Serif" font-size="10.00">x265::FrameEncoder</text>
<text text-anchor="middle" x="54" y="-21" font-family="Helvetica,sans-Serif" font-size="10.00">::initializeGeoms</text>
</g>
<!-- Node2 -->
<g id="node2" class="node"><title>Node2</title>
<g id="a_node2"><a xlink:href="classx265_1_1CUData.html#aa6bdc20567720dab1fc8c417d4331434" target="_top" xlink:title="x265::CUData::initCTU">
<polygon fill="white" stroke="black" points="162.5,-38.5 162.5,-57.5 281.5,-57.5 281.5,-38.5 162.5,-38.5"/>
<text text-anchor="middle" x="222" y="-45.5" font-family="Helvetica,sans-Serif" font-size="10.00">x265::CUData::initCTU</text>
</a>
</g>
</g>
<!-- Node1&#45;&gt;Node2 -->
<g id="edge1" class="edge"><title>Node1&#45;&gt;Node2</title>
<path fill="none" stroke="midnightblue" d="M107.523,-35.0117C121.724,-36.6371 137.306,-38.4206 152.253,-40.1314"/>
<polygon fill="midnightblue" stroke="midnightblue" points="152.141,-43.6414 162.475,-41.3013 152.938,-36.6868 152.141,-43.6414"/>
</g>
<!-- Node4 -->
<g id="node4" class="node"><title>Node4</title>
<g id="a_node4"><a xlink:href="classx265_1_1CUData.html#a9d2e225783a5fe2a143d3a8b044acc6f" target="_top" xlink:title="x265::CUData::calcCTUGeoms">
<polygon fill="white" stroke="black" points="144,-0.5 144,-19.5 300,-19.5 300,-0.5 144,-0.5"/>
<text text-anchor="middle" x="222" y="-7.5" font-family="Helvetica,sans-Serif" font-size="10.00">x265::CUData::calcCTUGeoms</text>
</a>
</g>
</g>
<!-- Node1&#45;&gt;Node4 -->
<g id="edge3" class="edge"><title>Node1&#45;&gt;Node4</title>
<path fill="none" stroke="midnightblue" d="M107.523,-22.9883C115.943,-22.0246 124.849,-21.0053 133.819,-19.9785"/>
<polygon fill="midnightblue" stroke="midnightblue" points="134.416,-23.4332 143.953,-18.8186 133.62,-16.4786 134.416,-23.4332"/>
</g>
<!-- Node3 -->
<g id="node3" class="node"><title>Node3</title>
<g id="a_node3"><a xlink:href="classx265_1_1FrameData.html#a83d98df913873a07c3ce59bd5c16b2e4" target="_top" xlink:title="x265::FrameData::getPicCTU">
<polygon fill="white" stroke="black" points="336.5,-38.5 336.5,-57.5 483.5,-57.5 483.5,-38.5 336.5,-38.5"/>
<text text-anchor="middle" x="410" y="-45.5" font-family="Helvetica,sans-Serif" font-size="10.00">x265::FrameData::getPicCTU</text>
</a>
</g>
</g>
<!-- Node2&#45;&gt;Node3 -->
<g id="edge2" class="edge"><title>Node2&#45;&gt;Node3</title>
<path fill="none" stroke="midnightblue" d="M281.596,-48C295.699,-48 311.03,-48 326.011,-48"/>
<polygon fill="midnightblue" stroke="midnightblue" points="326.307,-51.5001 336.307,-48 326.307,-44.5001 326.307,-51.5001"/>
</g>
</g>
</svg>
