<?xml version="1.0" encoding="UTF-8" standalone="no"?>
<!DOCTYPE svg PUBLIC "-//W3C//DTD SVG 1.1//EN"
 "http://www.w3.org/Graphics/SVG/1.1/DTD/svg11.dtd">
<!-- Generated by graphviz version 2.36.0 (20140111.2315)
 -->
<!-- Title: x265::BitInterface::getNumberOfWrittenBits Pages: 1 -->
<svg width="474pt" height="185pt"
 viewBox="0.00 0.00 474.00 185.00" xmlns="http://www.w3.org/2000/svg" xmlns:xlink="http://www.w3.org/1999/xlink">
<g id="graph0" class="graph" transform="scale(1 1) rotate(0) translate(4 181)">
<title>x265::BitInterface::getNumberOfWrittenBits</title>
<polygon fill="white" stroke="none" points="-4,4 -4,-181 470,-181 470,4 -4,4"/>
<!-- Node1 -->
<g id="node1" class="node"><title>Node1</title>
<polygon fill="#bfbfbf" stroke="black" points="0,-73 0,-103 130,-103 130,-73 0,-73"/>
<text text-anchor="start" x="8" y="-91" font-family="Helvetica,sans-Serif" font-size="10.00">x265::BitInterface</text>
<text text-anchor="middle" x="65" y="-80" font-family="Helvetica,sans-Serif" font-size="10.00">::getNumberOfWrittenBits</text>
</g>
<!-- Node2 -->
<g id="node2" class="node"><title>Node2</title>
<g id="a_node2"><a xlink:href="classx265_1_1SEI.html#a5949af24988ead690e69076810f43bd7" target="_top" xlink:title="x265::SEI::writeByteAlign">
<polygon fill="white" stroke="black" points="166.5,-78.5 166.5,-97.5 295.5,-97.5 295.5,-78.5 166.5,-78.5"/>
<text text-anchor="middle" x="231" y="-85.5" font-family="Helvetica,sans-Serif" font-size="10.00">x265::SEI::writeByteAlign</text>
</a>
</g>
</g>
<!-- Node1&#45;&gt;Node2 -->
<g id="edge1" class="edge"><title>Node1&#45;&gt;Node2</title>
<path fill="none" stroke="midnightblue" d="M140.44,-88C149.102,-88 157.879,-88 166.377,-88"/>
<polygon fill="midnightblue" stroke="midnightblue" points="140.346,-84.5001 130.346,-88 140.346,-91.5001 140.346,-84.5001"/>
</g>
<!-- Node3 -->
<g id="node3" class="node"><title>Node3</title>
<g id="a_node3"><a xlink:href="classx265_1_1SEIActiveParameterSets.html#ae4e6f13edeabe2136cef0b6fe80e82a2" target="_top" xlink:title="x265::SEIActiveParameter\lSets::writeSEI">
<polygon fill="white" stroke="black" points="332.5,-147 332.5,-177 465.5,-177 465.5,-147 332.5,-147"/>
<text text-anchor="start" x="340.5" y="-165" font-family="Helvetica,sans-Serif" font-size="10.00">x265::SEIActiveParameter</text>
<text text-anchor="middle" x="399" y="-154" font-family="Helvetica,sans-Serif" font-size="10.00">Sets::writeSEI</text>
</a>
</g>
</g>
<!-- Node2&#45;&gt;Node3 -->
<g id="edge2" class="edge"><title>Node2&#45;&gt;Node3</title>
<path fill="none" stroke="midnightblue" d="M259.293,-102.233C279.216,-112.411 306.998,-126.167 332,-137 339.87,-140.41 348.371,-143.824 356.569,-146.985"/>
<polygon fill="midnightblue" stroke="midnightblue" points="260.684,-99.0129 250.19,-97.5527 257.483,-105.238 260.684,-99.0129"/>
</g>
<!-- Node4 -->
<g id="node4" class="node"><title>Node4</title>
<g id="a_node4"><a xlink:href="classx265_1_1SEIBufferingPeriod.html#a6152a9bb8906206d562a8b4935d02274" target="_top" xlink:title="x265::SEIBufferingPeriod\l::writeSEI">
<polygon fill="white" stroke="black" points="335.5,-98 335.5,-128 462.5,-128 462.5,-98 335.5,-98"/>
<text text-anchor="start" x="343.5" y="-116" font-family="Helvetica,sans-Serif" font-size="10.00">x265::SEIBufferingPeriod</text>
<text text-anchor="middle" x="399" y="-105" font-family="Helvetica,sans-Serif" font-size="10.00">::writeSEI</text>
</a>
</g>
</g>
<!-- Node2&#45;&gt;Node4 -->
<g id="edge3" class="edge"><title>Node2&#45;&gt;Node4</title>
<path fill="none" stroke="midnightblue" d="M305.237,-99.0296C315.33,-100.55 325.618,-102.099 335.494,-103.586"/>
<polygon fill="midnightblue" stroke="midnightblue" points="305.641,-95.5511 295.231,-97.5227 304.598,-102.473 305.641,-95.5511"/>
</g>
<!-- Node5 -->
<g id="node5" class="node"><title>Node5</title>
<g id="a_node5"><a xlink:href="classx265_1_1SEIPictureTiming.html#a453562cf724db6ae5803875052dc61be" target="_top" xlink:title="x265::SEIPictureTiming\l::writeSEI">
<polygon fill="white" stroke="black" points="339,-49 339,-79 459,-79 459,-49 339,-49"/>
<text text-anchor="start" x="347" y="-67" font-family="Helvetica,sans-Serif" font-size="10.00">x265::SEIPictureTiming</text>
<text text-anchor="middle" x="399" y="-56" font-family="Helvetica,sans-Serif" font-size="10.00">::writeSEI</text>
</a>
</g>
</g>
<!-- Node2&#45;&gt;Node5 -->
<g id="edge4" class="edge"><title>Node2&#45;&gt;Node5</title>
<path fill="none" stroke="midnightblue" d="M305.778,-77.3333C316.838,-75.7342 328.12,-74.1031 338.824,-72.5555"/>
<polygon fill="midnightblue" stroke="midnightblue" points="305.101,-73.8946 295.705,-78.7896 306.103,-80.8226 305.101,-73.8946"/>
</g>
<!-- Node6 -->
<g id="node6" class="node"><title>Node6</title>
<g id="a_node6"><a xlink:href="classx265_1_1SEIRecoveryPoint.html#a1305df775c7e64b8d68cfc1a3c4c40e8" target="_top" xlink:title="x265::SEIRecoveryPoint\l::writeSEI">
<polygon fill="white" stroke="black" points="336.5,-0 336.5,-30 461.5,-30 461.5,-0 336.5,-0"/>
<text text-anchor="start" x="344.5" y="-18" font-family="Helvetica,sans-Serif" font-size="10.00">x265::SEIRecoveryPoint</text>
<text text-anchor="middle" x="399" y="-7" font-family="Helvetica,sans-Serif" font-size="10.00">::writeSEI</text>
</a>
</g>
</g>
<!-- Node2&#45;&gt;Node6 -->
<g id="edge5" class="edge"><title>Node2&#45;&gt;Node6</title>
<path fill="none" stroke="midnightblue" d="M259.691,-73.9221C279.604,-63.993 307.205,-50.624 332,-40 339.884,-36.6221 348.391,-33.2222 356.591,-30.065"/>
<polygon fill="midnightblue" stroke="midnightblue" points="257.949,-70.8805 250.58,-78.493 261.088,-77.1374 257.949,-70.8805"/>
</g>
</g>
</svg>
