<?xml version="1.0" encoding="UTF-8" standalone="no"?>
<!DOCTYPE svg PUBLIC "-//W3C//DTD SVG 1.1//EN"
 "http://www.w3.org/Graphics/SVG/1.1/DTD/svg11.dtd">
<!-- Generated by graphviz version 2.36.0 (20140111.2315)
 -->
<!-- Title: x265::Quant::getSigCoeffGroupCtxInc Pages: 1 -->
<svg width="2116pt" height="584pt"
 viewBox="0.00 0.00 2116.00 584.00" xmlns="http://www.w3.org/2000/svg" xmlns:xlink="http://www.w3.org/1999/xlink">
<g id="graph0" class="graph" transform="scale(1 1) rotate(0) translate(4 580)">
<title>x265::Quant::getSigCoeffGroupCtxInc</title>
<polygon fill="white" stroke="none" points="-4,4 -4,-580 2112,-580 2112,4 -4,4"/>
<!-- Node1 -->
<g id="node1" class="node"><title>Node1</title>
<polygon fill="#bfbfbf" stroke="black" points="0,-205 0,-235 128,-235 128,-205 0,-205"/>
<text text-anchor="start" x="8" y="-223" font-family="Helvetica,sans-Serif" font-size="10.00">x265::Quant::getSigCoeff</text>
<text text-anchor="middle" x="64" y="-212" font-family="Helvetica,sans-Serif" font-size="10.00">GroupCtxInc</text>
</g>
<!-- Node2 -->
<g id="node2" class="node"><title>Node2</title>
<g id="a_node2"><a xlink:href="classx265_1_1Quant.html#ab353c26be0707486eecf784d618fc385" target="_top" xlink:title="x265::Quant::rdoQuant">
<polygon fill="white" stroke="black" points="164,-169.5 164,-188.5 280,-188.5 280,-169.5 164,-169.5"/>
<text text-anchor="middle" x="222" y="-176.5" font-family="Helvetica,sans-Serif" font-size="10.00">x265::Quant::rdoQuant</text>
</a>
</g>
</g>
<!-- Node1&#45;&gt;Node2 -->
<g id="edge1" class="edge"><title>Node1&#45;&gt;Node2</title>
<path fill="none" stroke="midnightblue" d="M132.117,-202.36C150.155,-197.619 168.986,-192.67 184.646,-188.554"/>
<polygon fill="midnightblue" stroke="midnightblue" points="130.985,-199.039 122.203,-204.966 132.764,-205.809 130.985,-199.039"/>
</g>
<!-- Node30 -->
<g id="node30" class="node"><title>Node30</title>
<g id="a_node30"><a xlink:href="classx265_1_1Entropy.html#a955a0c3b2662c4af07b55b071370136b" target="_top" xlink:title="x265::Entropy::codeCoeffNxN">
<polygon fill="white" stroke="black" points="494.5,-273.5 494.5,-292.5 643.5,-292.5 643.5,-273.5 494.5,-273.5"/>
<text text-anchor="middle" x="569" y="-280.5" font-family="Helvetica,sans-Serif" font-size="10.00">x265::Entropy::codeCoeffNxN</text>
</a>
</g>
</g>
<!-- Node1&#45;&gt;Node30 -->
<g id="edge52" class="edge"><title>Node1&#45;&gt;Node30</title>
<path fill="none" stroke="midnightblue" d="M138.326,-229.184C233.62,-241.119 399.073,-261.842 494.468,-273.79"/>
<polygon fill="midnightblue" stroke="midnightblue" points="138.553,-225.685 128.196,-227.915 137.683,-232.631 138.553,-225.685"/>
</g>
<!-- Node3 -->
<g id="node3" class="node"><title>Node3</title>
<g id="a_node3"><a xlink:href="classx265_1_1Quant.html#a2d9fecd5e50c8f9ba36dd799a1f07d5c" target="_top" xlink:title="x265::Quant::transformNxN">
<polygon fill="white" stroke="black" points="316.5,-147.5 316.5,-166.5 453.5,-166.5 453.5,-147.5 316.5,-147.5"/>
<text text-anchor="middle" x="385" y="-154.5" font-family="Helvetica,sans-Serif" font-size="10.00">x265::Quant::transformNxN</text>
</a>
</g>
</g>
<!-- Node2&#45;&gt;Node3 -->
<g id="edge2" class="edge"><title>Node2&#45;&gt;Node3</title>
<path fill="none" stroke="midnightblue" d="M290.198,-169.818C298.804,-168.642 307.619,-167.437 316.234,-166.26"/>
<polygon fill="midnightblue" stroke="midnightblue" points="289.65,-166.36 280.216,-171.182 290.598,-173.295 289.65,-166.36"/>
</g>
<!-- Node4 -->
<g id="node4" class="node"><title>Node4</title>
<g id="a_node4"><a xlink:href="classx265_1_1Search.html#a9d5a7faa13067f95fe76558afc63c31b" target="_top" xlink:title="x265::Search::calcIntraChroma\lRecon">
<polygon fill="white" stroke="black" points="493,-224 493,-254 645,-254 645,-224 493,-224"/>
<text text-anchor="start" x="501" y="-242" font-family="Helvetica,sans-Serif" font-size="10.00">x265::Search::calcIntraChroma</text>
<text text-anchor="middle" x="569" y="-231" font-family="Helvetica,sans-Serif" font-size="10.00">Recon</text>
</a>
</g>
</g>
<!-- Node3&#45;&gt;Node4 -->
<g id="edge3" class="edge"><title>Node3&#45;&gt;Node4</title>
<path fill="none" stroke="midnightblue" d="M412.674,-171.229C433.485,-182.111 463.252,-197.202 490,-209 501.682,-214.153 514.549,-219.308 526.407,-223.855"/>
<polygon fill="midnightblue" stroke="midnightblue" points="414.265,-168.111 403.786,-166.552 411.006,-174.306 414.265,-168.111"/>
</g>
<!-- Node18 -->
<g id="node18" class="node"><title>Node18</title>
<g id="a_node18"><a xlink:href="classx265_1_1Search.html#a59b84ac1e21c86af579b6e84e43c5b7a" target="_top" xlink:title="x265::Search::codeIntraLumaQT">
<polygon fill="white" stroke="black" points="693,-186.5 693,-205.5 851,-205.5 851,-186.5 693,-186.5"/>
<text text-anchor="middle" x="772" y="-193.5" font-family="Helvetica,sans-Serif" font-size="10.00">x265::Search::codeIntraLumaQT</text>
</a>
</g>
</g>
<!-- Node3&#45;&gt;Node18 -->
<g id="edge25" class="edge"><title>Node3&#45;&gt;Node18</title>
<path fill="none" stroke="midnightblue" d="M463.422,-167.814C472.377,-168.949 481.384,-170.037 490,-171 558.388,-178.641 636.35,-185.425 692.778,-189.991"/>
<polygon fill="midnightblue" stroke="midnightblue" points="463.723,-164.324 453.358,-166.518 462.829,-171.267 463.723,-164.324"/>
</g>
<!-- Node20 -->
<g id="node20" class="node"><title>Node20</title>
<g id="a_node20"><a xlink:href="classx265_1_1Search.html#a8179474a0f2f2b7b84da90802f92b06e" target="_top" xlink:title="x265::Search::residualTransform\lQuantIntra">
<polygon fill="white" stroke="black" points="490,-49 490,-79 648,-79 648,-49 490,-49"/>
<text text-anchor="start" x="498" y="-67" font-family="Helvetica,sans-Serif" font-size="10.00">x265::Search::residualTransform</text>
<text text-anchor="middle" x="569" y="-56" font-family="Helvetica,sans-Serif" font-size="10.00">QuantIntra</text>
</a>
</g>
</g>
<!-- Node3&#45;&gt;Node20 -->
<g id="edge29" class="edge"><title>Node3&#45;&gt;Node20</title>
<path fill="none" stroke="midnightblue" d="M406.243,-141.004C426.472,-125.655 458.951,-102.698 490,-88 496.915,-84.7264 504.383,-81.766 511.864,-79.1323"/>
<polygon fill="midnightblue" stroke="midnightblue" points="403.898,-138.392 398.111,-147.267 408.169,-143.938 403.898,-138.392"/>
</g>
<!-- Node23 -->
<g id="node23" class="node"><title>Node23</title>
<g id="a_node23"><a xlink:href="classx265_1_1Search.html#a42170100e328cf2504b615ecb2579094" target="_top" xlink:title="x265::Search::residualQTIntra\lChroma">
<polygon fill="white" stroke="black" points="495.5,-0 495.5,-30 642.5,-30 642.5,-0 495.5,-0"/>
<text text-anchor="start" x="503.5" y="-18" font-family="Helvetica,sans-Serif" font-size="10.00">x265::Search::residualQTIntra</text>
<text text-anchor="middle" x="569" y="-7" font-family="Helvetica,sans-Serif" font-size="10.00">Chroma</text>
</a>
</g>
</g>
<!-- Node3&#45;&gt;Node23 -->
<g id="edge34" class="edge"><title>Node3&#45;&gt;Node23</title>
<path fill="none" stroke="midnightblue" d="M397.165,-138.986C414.104,-113.121 448.731,-65.6528 490,-39 495.237,-35.6179 500.978,-32.6894 506.895,-30.1585"/>
<polygon fill="midnightblue" stroke="midnightblue" points="394.185,-137.149 391.745,-147.459 400.082,-140.921 394.185,-137.149"/>
</g>
<!-- Node24 -->
<g id="node24" class="node"><title>Node24</title>
<g id="a_node24"><a xlink:href="classx265_1_1Search.html#a11ea3fb9c65e98f50e348de22593748c" target="_top" xlink:title="x265::Search::residualTransform\lQuantInter">
<polygon fill="white" stroke="black" points="490,-98 490,-128 648,-128 648,-98 490,-98"/>
<text text-anchor="start" x="498" y="-116" font-family="Helvetica,sans-Serif" font-size="10.00">x265::Search::residualTransform</text>
<text text-anchor="middle" x="569" y="-105" font-family="Helvetica,sans-Serif" font-size="10.00">QuantInter</text>
</a>
</g>
</g>
<!-- Node3&#45;&gt;Node24 -->
<g id="edge37" class="edge"><title>Node3&#45;&gt;Node24</title>
<path fill="none" stroke="midnightblue" d="M435.45,-145.045C457.101,-139.811 482.747,-133.611 505.684,-128.065"/>
<polygon fill="midnightblue" stroke="midnightblue" points="434.389,-141.701 425.491,-147.453 436.034,-148.505 434.389,-141.701"/>
</g>
<!-- Node25 -->
<g id="node25" class="node"><title>Node25</title>
<g id="a_node25"><a xlink:href="classx265_1_1Search.html#a9f01b6f04dca31dca9f16e60d1c029b3" target="_top" xlink:title="x265::Search::xEstimateResidualQT">
<polygon fill="white" stroke="black" points="896,-271.5 896,-290.5 1072,-290.5 1072,-271.5 896,-271.5"/>
<text text-anchor="middle" x="984" y="-278.5" font-family="Helvetica,sans-Serif" font-size="10.00">x265::Search::xEstimateResidualQT</text>
</a>
</g>
</g>
<!-- Node3&#45;&gt;Node25 -->
<g id="edge40" class="edge"><title>Node3&#45;&gt;Node25</title>
<path fill="none" stroke="midnightblue" d="M463.713,-150.596C581.403,-142.481 797.741,-134.236 860,-177 893.144,-199.766 865.225,-234.121 896,-260 901.708,-264.8 908.334,-268.539 915.334,-271.445"/>
<polygon fill="midnightblue" stroke="midnightblue" points="463.409,-147.109 453.68,-151.304 463.902,-154.092 463.409,-147.109"/>
</g>
<!-- Node5 -->
<g id="node5" class="node"><title>Node5</title>
<g id="a_node5"><a xlink:href="classx265_1_1Search.html#a0ec5d297bb4eba4e9445ff67b35b95fa" target="_top" xlink:title="x265::Search::codeIntraChromaQt">
<polygon fill="white" stroke="black" points="689,-227.5 689,-246.5 855,-246.5 855,-227.5 689,-227.5"/>
<text text-anchor="middle" x="772" y="-234.5" font-family="Helvetica,sans-Serif" font-size="10.00">x265::Search::codeIntraChromaQt</text>
</a>
</g>
</g>
<!-- Node4&#45;&gt;Node5 -->
<g id="edge4" class="edge"><title>Node4&#45;&gt;Node5</title>
<path fill="none" stroke="midnightblue" d="M655.271,-238.152C666.407,-238.041 677.8,-237.927 688.883,-237.817"/>
<polygon fill="midnightblue" stroke="midnightblue" points="655.095,-234.653 645.131,-238.252 655.165,-241.653 655.095,-234.653"/>
</g>
<!-- Node6 -->
<g id="node6" class="node"><title>Node6</title>
<g id="a_node6"><a xlink:href="classx265_1_1Search.html#a70d466b561a7463b8ec5a213384ae667" target="_top" xlink:title="x265::Search::estIntraPred\lChromaQT">
<polygon fill="white" stroke="black" points="917,-317 917,-347 1051,-347 1051,-317 917,-317"/>
<text text-anchor="start" x="925" y="-335" font-family="Helvetica,sans-Serif" font-size="10.00">x265::Search::estIntraPred</text>
<text text-anchor="middle" x="984" y="-324" font-family="Helvetica,sans-Serif" font-size="10.00">ChromaQT</text>
</a>
</g>
</g>
<!-- Node5&#45;&gt;Node6 -->
<g id="edge5" class="edge"><title>Node5&#45;&gt;Node6</title>
<path fill="none" stroke="midnightblue" d="M799.245,-251.615C823.848,-265.033 861.855,-285.041 896,-300 909.709,-306.006 924.939,-311.871 938.776,-316.906"/>
<polygon fill="midnightblue" stroke="midnightblue" points="800.647,-248.392 790.196,-246.648 797.278,-254.528 800.647,-248.392"/>
</g>
<!-- Node7 -->
<g id="node7" class="node"><title>Node7</title>
<g id="a_node7"><a xlink:href="classx265_1_1Analysis.html#ae4d61bcf4d2c22a054d68d6d77136428" target="_top" xlink:title="x265::Analysis::encodeIntra\lInInter">
<polygon fill="white" stroke="black" points="1113,-172 1113,-202 1251,-202 1251,-172 1113,-172"/>
<text text-anchor="start" x="1121" y="-190" font-family="Helvetica,sans-Serif" font-size="10.00">x265::Analysis::encodeIntra</text>
<text text-anchor="middle" x="1182" y="-179" font-family="Helvetica,sans-Serif" font-size="10.00">InInter</text>
</a>
</g>
</g>
<!-- Node6&#45;&gt;Node7 -->
<g id="edge6" class="edge"><title>Node6&#45;&gt;Node7</title>
<path fill="none" stroke="midnightblue" d="M1047.26,-313.048C1055.88,-309.308 1064.38,-304.971 1072,-300 1114.01,-272.601 1151.94,-226.212 1169.95,-202.286"/>
<polygon fill="midnightblue" stroke="midnightblue" points="1045.83,-309.85 1037.9,-316.873 1048.48,-316.33 1045.83,-309.85"/>
</g>
<!-- Node14 -->
<g id="node14" class="node"><title>Node14</title>
<g id="a_node14"><a xlink:href="classx265_1_1Search.html#ab02df91827cf67796d1605bde60c6aed" target="_top" xlink:title="x265::Search::checkIntra">
<polygon fill="white" stroke="black" points="1119,-410.5 1119,-429.5 1245,-429.5 1245,-410.5 1119,-410.5"/>
<text text-anchor="middle" x="1182" y="-417.5" font-family="Helvetica,sans-Serif" font-size="10.00">x265::Search::checkIntra</text>
</a>
</g>
</g>
<!-- Node6&#45;&gt;Node14 -->
<g id="edge15" class="edge"><title>Node6&#45;&gt;Node14</title>
<path fill="none" stroke="midnightblue" d="M1029.05,-351.054C1042.83,-357.063 1058.07,-363.762 1072,-370 1102.97,-383.867 1138.69,-400.346 1160.56,-410.489"/>
<polygon fill="midnightblue" stroke="midnightblue" points="1030.34,-347.801 1019.78,-347.018 1027.55,-354.219 1030.34,-347.801"/>
</g>
<!-- Node8 -->
<g id="node8" class="node"><title>Node8</title>
<g id="a_node8"><a xlink:href="classx265_1_1Analysis.html#aa6122285d10bb1bd7584958b88b029d5" target="_top" xlink:title="x265::Analysis::parallel\lModeAnalysis">
<polygon fill="white" stroke="black" points="1306,-125 1306,-155 1424,-155 1424,-125 1306,-125"/>
<text text-anchor="start" x="1314" y="-143" font-family="Helvetica,sans-Serif" font-size="10.00">x265::Analysis::parallel</text>
<text text-anchor="middle" x="1365" y="-132" font-family="Helvetica,sans-Serif" font-size="10.00">ModeAnalysis</text>
</a>
</g>
</g>
<!-- Node7&#45;&gt;Node8 -->
<g id="edge7" class="edge"><title>Node7&#45;&gt;Node8</title>
<path fill="none" stroke="midnightblue" d="M1250.49,-169.476C1268.79,-164.723 1288.44,-159.62 1306.16,-155.019"/>
<polygon fill="midnightblue" stroke="midnightblue" points="1249.57,-166.099 1240.77,-172 1251.33,-172.874 1249.57,-166.099"/>
</g>
<!-- Node10 -->
<g id="node10" class="node"><title>Node10</title>
<g id="a_node10"><a xlink:href="classx265_1_1Analysis.html#a87060ff27a37f56adc5f5b8a4c033ece" target="_top" xlink:title="x265::Analysis::compress\lInterCU_dist">
<polygon fill="white" stroke="black" points="1640,-275 1640,-305 1770,-305 1770,-275 1640,-275"/>
<text text-anchor="start" x="1648" y="-293" font-family="Helvetica,sans-Serif" font-size="10.00">x265::Analysis::compress</text>
<text text-anchor="middle" x="1705" y="-282" font-family="Helvetica,sans-Serif" font-size="10.00">InterCU_dist</text>
</a>
</g>
</g>
<!-- Node7&#45;&gt;Node10 -->
<g id="edge12" class="edge"><title>Node7&#45;&gt;Node10</title>
<path fill="none" stroke="midnightblue" d="M1206.8,-165.252C1227.56,-147.85 1259.4,-124.794 1292,-115 1425.26,-74.9602 1486.67,-66.2008 1604,-141 1655.49,-173.824 1686.75,-243.727 1698.58,-274.691"/>
<polygon fill="midnightblue" stroke="midnightblue" points="1204.44,-162.665 1199.14,-171.839 1209,-167.973 1204.44,-162.665"/>
</g>
<!-- Node13 -->
<g id="node13" class="node"><title>Node13</title>
<g id="a_node13"><a xlink:href="classx265_1_1Analysis.html#a30d2ff7eca5addbb0a6b3dfe14f09650" target="_top" xlink:title="x265::Analysis::compress\lInterCU_rd0_4">
<polygon fill="white" stroke="black" points="1474,-209 1474,-239 1604,-239 1604,-209 1474,-209"/>
<text text-anchor="start" x="1482" y="-227" font-family="Helvetica,sans-Serif" font-size="10.00">x265::Analysis::compress</text>
<text text-anchor="middle" x="1539" y="-216" font-family="Helvetica,sans-Serif" font-size="10.00">InterCU_rd0_4</text>
</a>
</g>
</g>
<!-- Node7&#45;&gt;Node13 -->
<g id="edge13" class="edge"><title>Node7&#45;&gt;Node13</title>
<path fill="none" stroke="midnightblue" d="M1261.26,-191.889C1311.79,-195.43 1378.9,-200.849 1438,-208 1449.61,-209.404 1461.93,-211.159 1473.82,-212.987"/>
<polygon fill="midnightblue" stroke="midnightblue" points="1261.28,-188.382 1251.06,-191.184 1260.8,-195.366 1261.28,-188.382"/>
</g>
<!-- Node9 -->
<g id="node9" class="node"><title>Node9</title>
<g id="a_node9"><a xlink:href="classx265_1_1Analysis.html#a29a58dad4cc1c07d2f5e5717c6be7c25" target="_top" xlink:title="x265::Analysis::findJob">
<polygon fill="white" stroke="black" points="1479.5,-150.5 1479.5,-169.5 1598.5,-169.5 1598.5,-150.5 1479.5,-150.5"/>
<text text-anchor="middle" x="1539" y="-157.5" font-family="Helvetica,sans-Serif" font-size="10.00">x265::Analysis::findJob</text>
</a>
</g>
</g>
<!-- Node8&#45;&gt;Node9 -->
<g id="edge8" class="edge"><title>Node8&#45;&gt;Node9</title>
<path fill="none" stroke="midnightblue" d="M1434.37,-147.95C1449.22,-149.677 1464.8,-151.489 1479.24,-153.168"/>
<polygon fill="midnightblue" stroke="midnightblue" points="1434.57,-144.45 1424.23,-146.771 1433.76,-151.403 1434.57,-144.45"/>
</g>
<!-- Node9&#45;&gt;Node10 -->
<g id="edge9" class="edge"><title>Node9&#45;&gt;Node10</title>
<path fill="none" stroke="midnightblue" d="M1566.63,-174.692C1578.42,-181.58 1592.25,-190.199 1604,-199 1636.32,-223.202 1670.35,-255.961 1689.2,-274.854"/>
<polygon fill="midnightblue" stroke="midnightblue" points="1568.11,-171.505 1557.7,-169.569 1564.63,-177.578 1568.11,-171.505"/>
</g>
<!-- Node11 -->
<g id="node11" class="node"><title>Node11</title>
<g id="a_node11"><a xlink:href="classx265_1_1Analysis.html#aaebc9de2ff98834c650244f3b58942c2" target="_top" xlink:title="x265::Analysis::compressCTU">
<polygon fill="white" stroke="black" points="1806.5,-309.5 1806.5,-328.5 1957.5,-328.5 1957.5,-309.5 1806.5,-309.5"/>
<text text-anchor="middle" x="1882" y="-316.5" font-family="Helvetica,sans-Serif" font-size="10.00">x265::Analysis::compressCTU</text>
</a>
</g>
</g>
<!-- Node10&#45;&gt;Node11 -->
<g id="edge10" class="edge"><title>Node10&#45;&gt;Node11</title>
<path fill="none" stroke="midnightblue" d="M1780.11,-302.282C1794.62,-304.686 1809.63,-307.173 1823.5,-309.471"/>
<polygon fill="midnightblue" stroke="midnightblue" points="1780.61,-298.816 1770.17,-300.634 1779.46,-305.722 1780.61,-298.816"/>
</g>
<!-- Node12 -->
<g id="node12" class="node"><title>Node12</title>
<g id="a_node12"><a xlink:href="classx265_1_1FrameEncoder.html#a0ae85001572afd28238476542523ac5f" target="_top" xlink:title="x265::FrameEncoder\l::processRowEncoder">
<polygon fill="white" stroke="red" points="1994.5,-399 1994.5,-429 2107.5,-429 2107.5,-399 1994.5,-399"/>
<text text-anchor="start" x="2002.5" y="-417" font-family="Helvetica,sans-Serif" font-size="10.00">x265::FrameEncoder</text>
<text text-anchor="middle" x="2051" y="-406" font-family="Helvetica,sans-Serif" font-size="10.00">::processRowEncoder</text>
</a>
</g>
</g>
<!-- Node11&#45;&gt;Node12 -->
<g id="edge11" class="edge"><title>Node11&#45;&gt;Node12</title>
<path fill="none" stroke="midnightblue" d="M1908.88,-333.722C1940.02,-351.434 1992.02,-381.015 2023.45,-398.897"/>
<polygon fill="midnightblue" stroke="midnightblue" points="1910.35,-330.534 1899.93,-328.632 1906.89,-336.619 1910.35,-330.534"/>
</g>
<!-- Node13&#45;&gt;Node11 -->
<g id="edge14" class="edge"><title>Node13&#45;&gt;Node11</title>
<path fill="none" stroke="midnightblue" d="M1614.24,-231.942C1659.93,-238.121 1719.26,-248.49 1770,-265 1805.46,-276.538 1843.99,-297.338 1865.04,-309.48"/>
<polygon fill="midnightblue" stroke="midnightblue" points="1614.49,-228.445 1604.12,-230.611 1613.58,-235.385 1614.49,-228.445"/>
</g>
<!-- Node15 -->
<g id="node15" class="node"><title>Node15</title>
<g id="a_node15"><a xlink:href="classx265_1_1Analysis.html#a10f0a8d9d143faf8dc671c6f0982693d" target="_top" xlink:title="x265::Analysis::tryLossless">
<polygon fill="white" stroke="black" points="1296.5,-437.5 1296.5,-456.5 1433.5,-456.5 1433.5,-437.5 1296.5,-437.5"/>
<text text-anchor="middle" x="1365" y="-444.5" font-family="Helvetica,sans-Serif" font-size="10.00">x265::Analysis::tryLossless</text>
</a>
</g>
</g>
<!-- Node14&#45;&gt;Node15 -->
<g id="edge16" class="edge"><title>Node14&#45;&gt;Node15</title>
<path fill="none" stroke="midnightblue" d="M1255.2,-430.771C1270.08,-432.99 1285.64,-435.312 1300.2,-437.482"/>
<polygon fill="midnightblue" stroke="midnightblue" points="1255.44,-427.268 1245.04,-429.254 1254.41,-434.191 1255.44,-427.268"/>
</g>
<!-- Node16 -->
<g id="node16" class="node"><title>Node16</title>
<g id="a_node16"><a xlink:href="classx265_1_1Analysis.html#aae2a6a2252270782b591d2bed7e99dae" target="_top" xlink:title="x265::Analysis::compress\lIntraCU">
<polygon fill="white" stroke="black" points="1474,-438 1474,-468 1604,-468 1604,-438 1474,-438"/>
<text text-anchor="start" x="1482" y="-456" font-family="Helvetica,sans-Serif" font-size="10.00">x265::Analysis::compress</text>
<text text-anchor="middle" x="1539" y="-445" font-family="Helvetica,sans-Serif" font-size="10.00">IntraCU</text>
</a>
</g>
</g>
<!-- Node14&#45;&gt;Node16 -->
<g id="edge23" class="edge"><title>Node14&#45;&gt;Node16</title>
<path fill="none" stroke="midnightblue" d="M1199.28,-437.035C1219.07,-456.381 1254.48,-486.834 1292,-499 1353.72,-519.016 1374.61,-512.88 1438,-499 1465.07,-493.073 1493.55,-479.103 1513.17,-468.102"/>
<polygon fill="midnightblue" stroke="midnightblue" points="1201.56,-434.367 1192.03,-429.748 1196.6,-439.305 1201.56,-434.367"/>
</g>
<!-- Node17 -->
<g id="node17" class="node"><title>Node17</title>
<g id="a_node17"><a xlink:href="classx265_1_1Analysis.html#a0b22b7765aa4a36b1ba6d07ba26901e6" target="_top" xlink:title="x265::Analysis::compress\lInterCU_rd5_6">
<polygon fill="white" stroke="black" points="1474,-350 1474,-380 1604,-380 1604,-350 1474,-350"/>
<text text-anchor="start" x="1482" y="-368" font-family="Helvetica,sans-Serif" font-size="10.00">x265::Analysis::compress</text>
<text text-anchor="middle" x="1539" y="-357" font-family="Helvetica,sans-Serif" font-size="10.00">InterCU_rd5_6</text>
</a>
</g>
</g>
<!-- Node14&#45;&gt;Node17 -->
<g id="edge24" class="edge"><title>Node14&#45;&gt;Node17</title>
<path fill="none" stroke="midnightblue" d="M1209.16,-434.187C1256.64,-457.907 1359.32,-499.841 1438,-466 1459.37,-456.808 1457.71,-444.607 1474,-428 1490.27,-411.417 1509.28,-392.796 1522.33,-380.126"/>
<polygon fill="midnightblue" stroke="midnightblue" points="1210.66,-431.021 1200.16,-429.574 1207.47,-437.25 1210.66,-431.021"/>
</g>
<!-- Node15&#45;&gt;Node10 -->
<g id="edge19" class="edge"><title>Node15&#45;&gt;Node10</title>
<path fill="none" stroke="midnightblue" d="M1429.31,-435.548C1489.27,-423.996 1574.39,-405.551 1604,-389 1642.38,-367.544 1676.23,-327.317 1692.94,-305.322"/>
<polygon fill="midnightblue" stroke="midnightblue" points="1428.34,-432.17 1419.18,-437.482 1429.66,-439.046 1428.34,-432.17"/>
</g>
<!-- Node15&#45;&gt;Node13 -->
<g id="edge20" class="edge"><title>Node15&#45;&gt;Node13</title>
<path fill="none" stroke="midnightblue" d="M1430.4,-432.625C1433.1,-430.951 1435.65,-429.083 1438,-427 1469.33,-399.26 1455.86,-377.712 1474,-340 1491.84,-302.896 1516.02,-260.967 1528.96,-239.1"/>
<polygon fill="midnightblue" stroke="midnightblue" points="1428.63,-429.602 1421.4,-437.344 1431.88,-435.803 1428.63,-429.602"/>
</g>
<!-- Node15&#45;&gt;Node16 -->
<g id="edge17" class="edge"><title>Node15&#45;&gt;Node16</title>
<path fill="none" stroke="midnightblue" d="M1444.24,-449.729C1454.16,-450.075 1464.22,-450.426 1473.88,-450.763"/>
<polygon fill="midnightblue" stroke="midnightblue" points="1444.09,-446.222 1433.98,-449.371 1443.85,-453.218 1444.09,-446.222"/>
</g>
<!-- Node15&#45;&gt;Node17 -->
<g id="edge21" class="edge"><title>Node15&#45;&gt;Node17</title>
<path fill="none" stroke="midnightblue" d="M1422.37,-434.063C1427.79,-432.019 1433.09,-429.676 1438,-427 1456.8,-416.759 1456.12,-406.776 1474,-395 1482.4,-389.465 1491.99,-384.397 1501.14,-380.066"/>
<polygon fill="midnightblue" stroke="midnightblue" points="1420.87,-430.877 1412.54,-437.43 1423.14,-437.498 1420.87,-430.877"/>
</g>
<!-- Node16&#45;&gt;Node11 -->
<g id="edge18" class="edge"><title>Node16&#45;&gt;Node11</title>
<path fill="none" stroke="midnightblue" d="M1587.99,-434.142C1661.79,-405.14 1800.49,-350.636 1856.56,-328.604"/>
<polygon fill="midnightblue" stroke="midnightblue" points="1586.48,-430.974 1578.45,-437.889 1589.04,-437.489 1586.48,-430.974"/>
</g>
<!-- Node17&#45;&gt;Node11 -->
<g id="edge22" class="edge"><title>Node17&#45;&gt;Node11</title>
<path fill="none" stroke="midnightblue" d="M1614.38,-354.966C1672.63,-347.108 1753.12,-336.251 1810.38,-328.526"/>
<polygon fill="midnightblue" stroke="midnightblue" points="1613.58,-351.542 1604.14,-356.348 1614.52,-358.479 1613.58,-351.542"/>
</g>
<!-- Node18&#45;&gt;Node7 -->
<g id="edge26" class="edge"><title>Node18&#45;&gt;Node7</title>
<path fill="none" stroke="midnightblue" d="M861.619,-194.045C937.101,-192.38 1043.98,-190.022 1112.9,-188.502"/>
<polygon fill="midnightblue" stroke="midnightblue" points="861.104,-190.556 851.184,-194.275 861.259,-197.554 861.104,-190.556"/>
</g>
<!-- Node19 -->
<g id="node19" class="node"><title>Node19</title>
<g id="a_node19"><a xlink:href="classx265_1_1Search.html#a1778d2ab96ac88c7f76d36818d6adbdd" target="_top" xlink:title="x265::Search::estIntraPredQT">
<polygon fill="white" stroke="black" points="910.5,-231.5 910.5,-250.5 1057.5,-250.5 1057.5,-231.5 910.5,-231.5"/>
<text text-anchor="middle" x="984" y="-238.5" font-family="Helvetica,sans-Serif" font-size="10.00">x265::Search::estIntraPredQT</text>
</a>
</g>
</g>
<!-- Node18&#45;&gt;Node19 -->
<g id="edge27" class="edge"><title>Node18&#45;&gt;Node19</title>
<path fill="none" stroke="midnightblue" d="M827.462,-207.67C861.996,-215.071 906.108,-224.523 938.529,-231.47"/>
<polygon fill="midnightblue" stroke="midnightblue" points="828.047,-204.216 817.536,-205.543 826.58,-211.061 828.047,-204.216"/>
</g>
<!-- Node19&#45;&gt;Node14 -->
<g id="edge28" class="edge"><title>Node19&#45;&gt;Node14</title>
<path fill="none" stroke="midnightblue" d="M1062.77,-255.31C1066.05,-257.274 1069.15,-259.494 1072,-262 1105.61,-291.531 1082.43,-319.29 1108,-356 1123.99,-378.959 1149.94,-399.053 1166.21,-410.344"/>
<polygon fill="midnightblue" stroke="midnightblue" points="1064.24,-252.13 1053.74,-250.685 1061.05,-258.36 1064.24,-252.13"/>
</g>
<!-- Node21 -->
<g id="node21" class="node"><title>Node21</title>
<g id="a_node21"><a xlink:href="classx265_1_1Analysis.html#a88ad2880a5a8bcad5cfd5d6ea630b265" target="_top" xlink:title="x265::Analysis::encodeResidue">
<polygon fill="white" stroke="black" points="694.5,-54.5 694.5,-73.5 849.5,-73.5 849.5,-54.5 694.5,-54.5"/>
<text text-anchor="middle" x="772" y="-61.5" font-family="Helvetica,sans-Serif" font-size="10.00">x265::Analysis::encodeResidue</text>
</a>
</g>
</g>
<!-- Node20&#45;&gt;Node21 -->
<g id="edge30" class="edge"><title>Node20&#45;&gt;Node21</title>
<path fill="none" stroke="midnightblue" d="M658.643,-64C670.512,-64 682.605,-64 694.247,-64"/>
<polygon fill="midnightblue" stroke="midnightblue" points="658.287,-60.5001 648.287,-64 658.287,-67.5001 658.287,-60.5001"/>
</g>
<!-- Node22 -->
<g id="node22" class="node"><title>Node22</title>
<g id="a_node22"><a xlink:href="classx265_1_1Search.html#a5284cffef18fe6884b268ea28f21f22f" target="_top" xlink:title="x265::Search::generateCoeff\lRecon">
<polygon fill="white" stroke="black" points="701,-5 701,-35 843,-35 843,-5 701,-5"/>
<text text-anchor="start" x="709" y="-23" font-family="Helvetica,sans-Serif" font-size="10.00">x265::Search::generateCoeff</text>
<text text-anchor="middle" x="772" y="-12" font-family="Helvetica,sans-Serif" font-size="10.00">Recon</text>
</a>
</g>
</g>
<!-- Node20&#45;&gt;Node22 -->
<g id="edge32" class="edge"><title>Node20&#45;&gt;Node22</title>
<path fill="none" stroke="midnightblue" d="M648.39,-46.8399C666.202,-42.941 684.988,-38.8286 702.358,-35.0262"/>
<polygon fill="midnightblue" stroke="midnightblue" points="647.631,-43.4232 638.611,-48.9808 649.128,-50.2613 647.631,-43.4232"/>
</g>
<!-- Node21&#45;&gt;Node11 -->
<g id="edge31" class="edge"><title>Node21&#45;&gt;Node11</title>
<path fill="none" stroke="midnightblue" d="M859.791,-61.9845C942.383,-60.2416 1070.15,-58 1181,-58 1181,-58 1181,-58 1540,-58 1708.86,-58 1845.86,-262.313 1875.19,-309.401"/>
<polygon fill="midnightblue" stroke="midnightblue" points="859.619,-58.4873 849.696,-62.1998 859.769,-65.4857 859.619,-58.4873"/>
</g>
<!-- Node22&#45;&gt;Node13 -->
<g id="edge33" class="edge"><title>Node22&#45;&gt;Node13</title>
<path fill="none" stroke="midnightblue" d="M853.337,-9.17485C987.819,4.47621 1261.14,12.6051 1438,-115 1464.47,-134.095 1452.11,-154.794 1474,-179 1484.57,-190.686 1498.7,-201.021 1510.99,-208.83"/>
<polygon fill="midnightblue" stroke="midnightblue" points="852.692,-5.7233 843.113,-10.2507 853.425,-12.6849 852.692,-5.7233"/>
</g>
<!-- Node23&#45;&gt;Node21 -->
<g id="edge35" class="edge"><title>Node23&#45;&gt;Node21</title>
<path fill="none" stroke="midnightblue" d="M637.771,-32.5145C652.966,-36.3648 669.021,-40.3734 684,-44 698.46,-47.5009 714.31,-51.1886 728.473,-54.4307"/>
<polygon fill="midnightblue" stroke="midnightblue" points="638.484,-29.0846 627.93,-30.0128 636.76,-35.8688 638.484,-29.0846"/>
</g>
<!-- Node23&#45;&gt;Node22 -->
<g id="edge36" class="edge"><title>Node23&#45;&gt;Node22</title>
<path fill="none" stroke="midnightblue" d="M652.933,-17.063C668.868,-17.4594 685.412,-17.871 700.894,-18.2561"/>
<polygon fill="midnightblue" stroke="midnightblue" points="652.65,-13.555 642.566,-16.8051 652.475,-20.5528 652.65,-13.555"/>
</g>
<!-- Node24&#45;&gt;Node21 -->
<g id="edge38" class="edge"><title>Node24&#45;&gt;Node21</title>
<path fill="none" stroke="midnightblue" d="M641.409,-95.5917C671.87,-88.166 706.233,-79.7891 731.916,-73.528"/>
<polygon fill="midnightblue" stroke="midnightblue" points="640.559,-92.1964 631.673,-97.9654 642.217,-98.9973 640.559,-92.1964"/>
</g>
<!-- Node24&#45;&gt;Node22 -->
<g id="edge39" class="edge"><title>Node24&#45;&gt;Node22</title>
<path fill="none" stroke="midnightblue" d="M638.804,-93.4633C641.994,-91.7817 645.079,-89.9639 648,-88 668.683,-74.0921 663.108,-58.5924 684,-45 689.928,-41.1434 696.46,-37.8701 703.2,-35.0943"/>
<polygon fill="midnightblue" stroke="midnightblue" points="637.11,-90.3933 629.584,-97.8502 640.118,-96.7143 637.11,-90.3933"/>
</g>
<!-- Node26 -->
<g id="node26" class="node"><title>Node26</title>
<g id="a_node26"><a xlink:href="classx265_1_1Search.html#aba5e04ce529f41accd43c540ba1dc7ad" target="_top" xlink:title="x265::Search::encodeResAnd\lCalcRdInterCU">
<polygon fill="white" stroke="black" points="1108.5,-317 1108.5,-347 1255.5,-347 1255.5,-317 1108.5,-317"/>
<text text-anchor="start" x="1116.5" y="-335" font-family="Helvetica,sans-Serif" font-size="10.00">x265::Search::encodeResAnd</text>
<text text-anchor="middle" x="1182" y="-324" font-family="Helvetica,sans-Serif" font-size="10.00">CalcRdInterCU</text>
</a>
</g>
</g>
<!-- Node25&#45;&gt;Node26 -->
<g id="edge41" class="edge"><title>Node25&#45;&gt;Node26</title>
<path fill="none" stroke="midnightblue" d="M1031.61,-293.127C1059.03,-300.262 1093.93,-309.344 1123.11,-316.936"/>
<polygon fill="midnightblue" stroke="midnightblue" points="1032.43,-289.724 1021.87,-290.593 1030.66,-296.498 1032.43,-289.724"/>
</g>
<!-- Node26&#45;&gt;Node10 -->
<g id="edge43" class="edge"><title>Node26&#45;&gt;Node10</title>
<path fill="none" stroke="midnightblue" d="M1265.84,-325.322C1369.64,-316.954 1545.33,-302.791 1639.62,-295.19"/>
<polygon fill="midnightblue" stroke="midnightblue" points="1265.4,-321.846 1255.72,-326.138 1265.97,-328.823 1265.4,-321.846"/>
</g>
<!-- Node26&#45;&gt;Node13 -->
<g id="edge44" class="edge"><title>Node26&#45;&gt;Node13</title>
<path fill="none" stroke="midnightblue" d="M1202.27,-309.178C1222.22,-287.353 1255.54,-255.662 1292,-241 1350.39,-217.522 1422.83,-215.402 1473.94,-217.852"/>
<polygon fill="midnightblue" stroke="midnightblue" points="1199.58,-306.929 1195.54,-316.722 1204.81,-311.587 1199.58,-306.929"/>
</g>
<!-- Node26&#45;&gt;Node15 -->
<g id="edge42" class="edge"><title>Node26&#45;&gt;Node15</title>
<path fill="none" stroke="midnightblue" d="M1206.03,-354.248C1232.11,-379.044 1273.39,-416.981 1292,-427 1300,-431.305 1309,-434.751 1317.87,-437.486"/>
<polygon fill="midnightblue" stroke="midnightblue" points="1208.43,-351.706 1198.78,-347.329 1203.6,-356.767 1208.43,-351.706"/>
</g>
<!-- Node27 -->
<g id="node27" class="node"><title>Node27</title>
<g id="a_node27"><a xlink:href="classx265_1_1Analysis.html#addd72cb95590e2b2a6965d42d110eab3" target="_top" xlink:title="x265::Analysis::checkMerge2\lNx2N_rd0_4">
<polygon fill="white" stroke="black" points="1292,-251 1292,-281 1438,-281 1438,-251 1292,-251"/>
<text text-anchor="start" x="1300" y="-269" font-family="Helvetica,sans-Serif" font-size="10.00">x265::Analysis::checkMerge2</text>
<text text-anchor="middle" x="1365" y="-258" font-family="Helvetica,sans-Serif" font-size="10.00">Nx2N_rd0_4</text>
</a>
</g>
</g>
<!-- Node26&#45;&gt;Node27 -->
<g id="edge45" class="edge"><title>Node26&#45;&gt;Node27</title>
<path fill="none" stroke="midnightblue" d="M1234.14,-313.351C1262.14,-303.142 1296.38,-290.657 1322.67,-281.071"/>
<polygon fill="midnightblue" stroke="midnightblue" points="1232.72,-310.144 1224.53,-316.858 1235.12,-316.721 1232.72,-310.144"/>
</g>
<!-- Node28 -->
<g id="node28" class="node"><title>Node28</title>
<g id="a_node28"><a xlink:href="classx265_1_1Analysis.html#a0194a9da53aa95173fa1132ba3aea1c7" target="_top" xlink:title="x265::Analysis::checkMerge2\lNx2N_rd5_6">
<polygon fill="white" stroke="black" points="1292,-339 1292,-369 1438,-369 1438,-339 1292,-339"/>
<text text-anchor="start" x="1300" y="-357" font-family="Helvetica,sans-Serif" font-size="10.00">x265::Analysis::checkMerge2</text>
<text text-anchor="middle" x="1365" y="-346" font-family="Helvetica,sans-Serif" font-size="10.00">Nx2N_rd5_6</text>
</a>
</g>
</g>
<!-- Node26&#45;&gt;Node28 -->
<g id="edge48" class="edge"><title>Node26&#45;&gt;Node28</title>
<path fill="none" stroke="midnightblue" d="M1265.78,-342.062C1274.54,-343.126 1283.38,-344.201 1292,-345.248"/>
<polygon fill="midnightblue" stroke="midnightblue" points="1265.93,-338.554 1255.58,-340.821 1265.08,-345.503 1265.93,-338.554"/>
</g>
<!-- Node29 -->
<g id="node29" class="node"><title>Node29</title>
<g id="a_node29"><a xlink:href="classx265_1_1Analysis.html#a828daa3e9f1ed40a1af9f99f7ff7bb33" target="_top" xlink:title="x265::Analysis::checkInter\l_rd5_6">
<polygon fill="white" stroke="black" points="1298.5,-388 1298.5,-418 1431.5,-418 1431.5,-388 1298.5,-388"/>
<text text-anchor="start" x="1306.5" y="-406" font-family="Helvetica,sans-Serif" font-size="10.00">x265::Analysis::checkInter</text>
<text text-anchor="middle" x="1365" y="-395" font-family="Helvetica,sans-Serif" font-size="10.00">_rd5_6</text>
</a>
</g>
</g>
<!-- Node26&#45;&gt;Node29 -->
<g id="edge50" class="edge"><title>Node26&#45;&gt;Node29</title>
<path fill="none" stroke="midnightblue" d="M1226.53,-351.135C1246.37,-359.662 1270.25,-369.645 1292,-378 1300.77,-381.369 1310.21,-384.792 1319.28,-387.98"/>
<polygon fill="midnightblue" stroke="midnightblue" points="1227.7,-347.83 1217.13,-347.079 1224.93,-354.256 1227.7,-347.83"/>
</g>
<!-- Node27&#45;&gt;Node10 -->
<g id="edge46" class="edge"><title>Node27&#45;&gt;Node10</title>
<path fill="none" stroke="midnightblue" d="M1448.14,-271.832C1507.16,-276.023 1585.6,-281.593 1640,-285.456"/>
<polygon fill="midnightblue" stroke="midnightblue" points="1448.32,-268.336 1438.09,-271.119 1447.82,-275.319 1448.32,-268.336"/>
</g>
<!-- Node27&#45;&gt;Node13 -->
<g id="edge47" class="edge"><title>Node27&#45;&gt;Node13</title>
<path fill="none" stroke="midnightblue" d="M1437.43,-248.557C1450.42,-245.386 1463.86,-242.103 1476.53,-239.01"/>
<polygon fill="midnightblue" stroke="midnightblue" points="1436.49,-245.183 1427.61,-250.956 1438.15,-251.984 1436.49,-245.183"/>
</g>
<!-- Node28&#45;&gt;Node17 -->
<g id="edge49" class="edge"><title>Node28&#45;&gt;Node17</title>
<path fill="none" stroke="midnightblue" d="M1448.7,-359.289C1457.14,-359.829 1465.63,-360.372 1473.83,-360.896"/>
<polygon fill="midnightblue" stroke="midnightblue" points="1448.65,-355.779 1438.44,-358.633 1448.2,-362.764 1448.65,-355.779"/>
</g>
<!-- Node29&#45;&gt;Node17 -->
<g id="edge51" class="edge"><title>Node29&#45;&gt;Node17</title>
<path fill="none" stroke="midnightblue" d="M1441.37,-386.349C1452.18,-383.959 1463.23,-381.519 1473.8,-379.183"/>
<polygon fill="midnightblue" stroke="midnightblue" points="1440.53,-382.95 1431.52,-388.525 1442.04,-389.786 1440.53,-382.95"/>
</g>
<!-- Node30&#45;&gt;Node5 -->
<g id="edge66" class="edge"><title>Node30&#45;&gt;Node5</title>
<path fill="none" stroke="midnightblue" d="M621.703,-271.168C655.165,-263.51 698.157,-253.671 729.406,-246.519"/>
<polygon fill="midnightblue" stroke="midnightblue" points="620.614,-267.826 611.647,-273.469 622.176,-274.65 620.614,-267.826"/>
</g>
<!-- Node30&#45;&gt;Node18 -->
<g id="edge65" class="edge"><title>Node30&#45;&gt;Node18</title>
<path fill="none" stroke="midnightblue" d="M635.643,-269.601C639.965,-267.687 644.13,-265.5 648,-263 669.514,-249.103 662.463,-231.862 684,-218 692.253,-212.688 701.714,-208.658 711.287,-205.601"/>
<polygon fill="midnightblue" stroke="midnightblue" points="634.03,-266.474 625.987,-273.371 636.576,-272.995 634.03,-266.474"/>
</g>
<!-- Node30&#45;&gt;Node25 -->
<g id="edge67" class="edge"><title>Node30&#45;&gt;Node25</title>
<path fill="none" stroke="midnightblue" d="M654.001,-282.593C724.408,-282.252 824.569,-281.767 895.845,-281.422"/>
<polygon fill="midnightblue" stroke="midnightblue" points="653.819,-279.094 643.836,-282.642 653.853,-286.094 653.819,-279.094"/>
</g>
<!-- Node31 -->
<g id="node31" class="node"><title>Node31</title>
<g id="a_node31"><a xlink:href="classx265_1_1Entropy.html#af0793a415273d86dc38b396dae9f9db3" target="_top" xlink:title="x265::Entropy::encodeTransform">
<polygon fill="white" stroke="black" points="692.5,-379.5 692.5,-398.5 851.5,-398.5 851.5,-379.5 692.5,-379.5"/>
<text text-anchor="middle" x="772" y="-386.5" font-family="Helvetica,sans-Serif" font-size="10.00">x265::Entropy::encodeTransform</text>
</a>
</g>
</g>
<!-- Node30&#45;&gt;Node31 -->
<g id="edge53" class="edge"><title>Node30&#45;&gt;Node31</title>
<path fill="none" stroke="midnightblue" d="M586.806,-299.706C607.752,-319.545 645.503,-352.184 684,-370 692.418,-373.896 701.67,-377.009 710.901,-379.493"/>
<polygon fill="midnightblue" stroke="midnightblue" points="589.017,-296.975 579.391,-292.547 584.154,-302.011 589.017,-296.975"/>
</g>
<!-- Node37 -->
<g id="node37" class="node"><title>Node37</title>
<g id="a_node37"><a xlink:href="classx265_1_1Search.html#a825a262c7ffde63152ad2dca236251eb" target="_top" xlink:title="x265::Search::xEncCoeffQTChroma">
<polygon fill="white" stroke="black" points="684.5,-341.5 684.5,-360.5 859.5,-360.5 859.5,-341.5 684.5,-341.5"/>
<text text-anchor="middle" x="772" y="-348.5" font-family="Helvetica,sans-Serif" font-size="10.00">x265::Search::xEncCoeffQTChroma</text>
</a>
</g>
</g>
<!-- Node30&#45;&gt;Node37 -->
<g id="edge63" class="edge"><title>Node30&#45;&gt;Node37</title>
<path fill="none" stroke="midnightblue" d="M598.409,-297.016C621.128,-307.78 654.026,-322.383 684,-332 695.335,-335.637 707.722,-338.805 719.503,-341.457"/>
<polygon fill="midnightblue" stroke="midnightblue" points="599.865,-293.832 589.334,-292.664 596.838,-300.144 599.865,-293.832"/>
</g>
<!-- Node38 -->
<g id="node38" class="node"><title>Node38</title>
<g id="a_node38"><a xlink:href="classx265_1_1Search.html#a52f183b79fbb6d1aa3255084d89e01c6" target="_top" xlink:title="x265::Search::xEncodeResidualQT">
<polygon fill="white" stroke="black" points="687,-303.5 687,-322.5 857,-322.5 857,-303.5 687,-303.5"/>
<text text-anchor="middle" x="772" y="-310.5" font-family="Helvetica,sans-Serif" font-size="10.00">x265::Search::xEncodeResidualQT</text>
</a>
</g>
</g>
<!-- Node30&#45;&gt;Node38 -->
<g id="edge68" class="edge"><title>Node30&#45;&gt;Node38</title>
<path fill="none" stroke="midnightblue" d="M643.933,-294.035C664.725,-297.138 687.152,-300.485 707.292,-303.491"/>
<polygon fill="midnightblue" stroke="midnightblue" points="644.281,-290.548 633.874,-292.533 643.248,-297.471 644.281,-290.548"/>
</g>
<!-- Node32 -->
<g id="node32" class="node"><title>Node32</title>
<g id="a_node32"><a xlink:href="classx265_1_1Entropy.html#a220326e32d9be80554bf11194ef2c642" target="_top" xlink:title="x265::Entropy::codeCoeff">
<polygon fill="white" stroke="black" points="920,-379.5 920,-398.5 1048,-398.5 1048,-379.5 920,-379.5"/>
<text text-anchor="middle" x="984" y="-386.5" font-family="Helvetica,sans-Serif" font-size="10.00">x265::Entropy::codeCoeff</text>
</a>
</g>
</g>
<!-- Node31&#45;&gt;Node32 -->
<g id="edge54" class="edge"><title>Node31&#45;&gt;Node32</title>
<path fill="none" stroke="midnightblue" d="M861.895,-389C881.371,-389 901.604,-389 919.827,-389"/>
<polygon fill="midnightblue" stroke="midnightblue" points="861.794,-385.5 851.794,-389 861.794,-392.5 861.794,-385.5"/>
</g>
<!-- Node32&#45;&gt;Node7 -->
<g id="edge55" class="edge"><title>Node32&#45;&gt;Node7</title>
<path fill="none" stroke="midnightblue" d="M1035.55,-375.967C1048.31,-371.094 1061.39,-364.583 1072,-356 1086.01,-344.663 1148.34,-241.653 1171.92,-202.241"/>
<polygon fill="midnightblue" stroke="midnightblue" points="1034.15,-372.747 1025.89,-379.381 1036.49,-379.347 1034.15,-372.747"/>
</g>
<!-- Node32&#45;&gt;Node14 -->
<g id="edge61" class="edge"><title>Node32&#45;&gt;Node14</title>
<path fill="none" stroke="midnightblue" d="M1055.15,-400.095C1076.57,-403.483 1099.93,-407.177 1120.64,-410.453"/>
<polygon fill="midnightblue" stroke="midnightblue" points="1055.56,-396.617 1045.14,-398.512 1054.47,-403.531 1055.56,-396.617"/>
</g>
<!-- Node32&#45;&gt;Node26 -->
<g id="edge62" class="edge"><title>Node32&#45;&gt;Node26</title>
<path fill="none" stroke="midnightblue" d="M1027.52,-376.635C1057.39,-367.947 1097.53,-356.276 1129.26,-347.047"/>
<polygon fill="midnightblue" stroke="midnightblue" points="1026.43,-373.306 1017.81,-379.459 1028.39,-380.028 1026.43,-373.306"/>
</g>
<!-- Node33 -->
<g id="node33" class="node"><title>Node33</title>
<g id="a_node33"><a xlink:href="classx265_1_1Entropy.html#adeb50a7c9a5df6643407d01158d93799" target="_top" xlink:title="x265::Entropy::encodeCU">
<polygon fill="white" stroke="black" points="1117,-517.5 1117,-536.5 1247,-536.5 1247,-517.5 1117,-517.5"/>
<text text-anchor="middle" x="1182" y="-524.5" font-family="Helvetica,sans-Serif" font-size="10.00">x265::Entropy::encodeCU</text>
</a>
</g>
</g>
<!-- Node32&#45;&gt;Node33 -->
<g id="edge56" class="edge"><title>Node32&#45;&gt;Node33</title>
<path fill="none" stroke="midnightblue" d="M1006.99,-404.485C1047.82,-433.227 1134.18,-494.031 1167.49,-517.49"/>
<polygon fill="midnightblue" stroke="midnightblue" points="1008.97,-401.599 998.782,-398.704 1004.94,-407.323 1008.97,-401.599"/>
</g>
<!-- Node34 -->
<g id="node34" class="node"><title>Node34</title>
<g id="a_node34"><a xlink:href="classx265_1_1Entropy.html#abb101b71f310e90eb504a8204babc180" target="_top" xlink:title="x265::Entropy::encodeCTU">
<polygon fill="white" stroke="black" points="1297,-551.5 1297,-570.5 1433,-570.5 1433,-551.5 1297,-551.5"/>
<text text-anchor="middle" x="1365" y="-558.5" font-family="Helvetica,sans-Serif" font-size="10.00">x265::Entropy::encodeCTU</text>
</a>
</g>
</g>
<!-- Node33&#45;&gt;Node34 -->
<g id="edge57" class="edge"><title>Node33&#45;&gt;Node34</title>
<path fill="none" stroke="midnightblue" d="M1244.01,-538.461C1266.49,-542.683 1291.69,-547.416 1313.17,-551.452"/>
<polygon fill="midnightblue" stroke="midnightblue" points="1244.37,-534.968 1233.9,-536.561 1243.08,-541.847 1244.37,-534.968"/>
</g>
<!-- Node34&#45;&gt;Node12 -->
<g id="edge60" class="edge"><title>Node34&#45;&gt;Node12</title>
<path fill="none" stroke="midnightblue" d="M1418.64,-549.21C1436.24,-545.294 1455.96,-540.931 1474,-537 1664.83,-495.422 1891.54,-447.418 1994.36,-425.721"/>
<polygon fill="midnightblue" stroke="midnightblue" points="1417.56,-545.866 1408.56,-551.458 1419.08,-552.699 1417.56,-545.866"/>
</g>
<!-- Node35 -->
<g id="node35" class="node"><title>Node35</title>
<g id="a_node35"><a xlink:href="classx265_1_1FrameEncoder.html#a6d4045d35bfe6b10c8d0dc39353be360" target="_top" xlink:title="x265::FrameEncoder\l::encodeSlice">
<polygon fill="white" stroke="black" points="1485.5,-546 1485.5,-576 1592.5,-576 1592.5,-546 1485.5,-546"/>
<text text-anchor="start" x="1493.5" y="-564" font-family="Helvetica,sans-Serif" font-size="10.00">x265::FrameEncoder</text>
<text text-anchor="middle" x="1539" y="-553" font-family="Helvetica,sans-Serif" font-size="10.00">::encodeSlice</text>
</a>
</g>
</g>
<!-- Node34&#45;&gt;Node35 -->
<g id="edge58" class="edge"><title>Node34&#45;&gt;Node35</title>
<path fill="none" stroke="midnightblue" d="M1443.67,-561C1457.77,-561 1472.17,-561 1485.33,-561"/>
<polygon fill="midnightblue" stroke="midnightblue" points="1443.49,-557.5 1433.49,-561 1443.49,-564.5 1443.49,-557.5"/>
</g>
<!-- Node36 -->
<g id="node36" class="node"><title>Node36</title>
<g id="a_node36"><a xlink:href="classx265_1_1FrameEncoder.html#a2f5c4c0f1a4e36fce4c9b87eb7ec4973" target="_top" xlink:title="x265::FrameEncoder\l::compressFrame">
<polygon fill="white" stroke="red" points="1651.5,-546 1651.5,-576 1758.5,-576 1758.5,-546 1651.5,-546"/>
<text text-anchor="start" x="1659.5" y="-564" font-family="Helvetica,sans-Serif" font-size="10.00">x265::FrameEncoder</text>
<text text-anchor="middle" x="1705" y="-553" font-family="Helvetica,sans-Serif" font-size="10.00">::compressFrame</text>
</a>
</g>
</g>
<!-- Node35&#45;&gt;Node36 -->
<g id="edge59" class="edge"><title>Node35&#45;&gt;Node36</title>
<path fill="none" stroke="midnightblue" d="M1603.09,-561C1619.02,-561 1635.95,-561 1651.31,-561"/>
<polygon fill="midnightblue" stroke="midnightblue" points="1602.79,-557.5 1592.79,-561 1602.79,-564.5 1602.79,-557.5"/>
</g>
<!-- Node37&#45;&gt;Node6 -->
<g id="edge64" class="edge"><title>Node37&#45;&gt;Node6</title>
<path fill="none" stroke="midnightblue" d="M869.986,-342.225C885.826,-340.792 901.911,-339.337 916.787,-337.991"/>
<polygon fill="midnightblue" stroke="midnightblue" points="869.271,-338.775 859.627,-343.162 869.902,-345.747 869.271,-338.775"/>
</g>
<!-- Node38&#45;&gt;Node25 -->
<g id="edge69" class="edge"><title>Node38&#45;&gt;Node25</title>
<path fill="none" stroke="midnightblue" d="M845.37,-301.972C869.796,-298.25 896.837,-294.13 920.44,-290.533"/>
<polygon fill="midnightblue" stroke="midnightblue" points="844.797,-298.519 835.438,-303.486 845.852,-305.439 844.797,-298.519"/>
</g>
</g>
</svg>
