<?xml version="1.0" encoding="UTF-8" standalone="no"?>
<!DOCTYPE svg PUBLIC "-//W3C//DTD SVG 1.1//EN"
 "http://www.w3.org/Graphics/SVG/1.1/DTD/svg11.dtd">
<!-- Generated by graphviz version 2.36.0 (20140111.2315)
 -->
<!-- Title: x265::Entropy::loadIntraDirModeLuma Pages: 1 -->
<!--zoomable 230 -->
<svg id="main" version="1.1" xmlns="http://www.w3.org/2000/svg" xmlns:xlink="http://www.w3.org/1999/xlink" xml:space="preserve" onload="init(evt)">
<style type="text/css"><![CDATA[
.edge:hover path { stroke: red; }
.edge:hover polygon { stroke: red; fill: red; }
]]></style>
<script type="text/javascript"><![CDATA[
var edges = document.getElementsByTagName('g');
if (edges && edges.length) {
  for (var i=0;i<edges.length;i++) {
    if (edges[i].id.substr(0,4)=='edge') {
      edges[i].setAttribute('class','edge');
    }
  }
}
]]></script>
        <defs>
                <circle id="rim" cx="0" cy="0" r="7"/>
                <circle id="rim2" cx="0" cy="0" r="3.5"/>
                <g id="zoomPlus">
                        <use xlink:href="#rim" fill="#404040">
                                <set attributeName="fill" to="#808080" begin="zoomplus.mouseover" end="zoomplus.mouseout"/>
                        </use>
                        <path d="M-4,0h8M0,-4v8" fill="none" stroke="white" stroke-width="1.5" pointer-events="none"/>
                </g>
                <g id="zoomMin">
                        <use xlink:href="#rim" fill="#404040">
                                <set attributeName="fill" to="#808080" begin="zoomminus.mouseover" end="zoomminus.mouseout"/>
                        </use>
                        <path d="M-4,0h8" fill="none" stroke="white" stroke-width="1.5" pointer-events="none"/>
                </g>
                <g id="dirArrow">
                        <path fill="none" stroke="white" stroke-width="1.5" d="M0,-3.0v7 M-2.5,-0.5L0,-3.0L2.5,-0.5"/>
                </g>
               <g id="resetDef">
                       <use xlink:href="#rim2" fill="#404040">
                               <set attributeName="fill" to="#808080" begin="reset.mouseover" end="reset.mouseout"/>
                       </use>
               </g>
        </defs>

<script type="text/javascript">
var viewWidth = 1952;
var viewHeight = 230;
var sectionId = 'dynsection-124';
</script>
<script xlink:href="svgpan.js"/>
<svg id="graph" class="graph">
<g id="viewport">
<title>x265::Entropy::loadIntraDirModeLuma</title>
<polygon fill="white" stroke="none" points="-4,4 -4,-226 1948,-226 1948,4 -4,4"/>
<!-- Node1 -->
<g id="node1" class="node"><title>Node1</title>
<polygon fill="#bfbfbf" stroke="black" points="0.5,-96 0.5,-126 121.5,-126 121.5,-96 0.5,-96"/>
<text text-anchor="start" x="8.5" y="-114" font-family="Helvetica,sans-Serif" font-size="10.00">x265::Entropy::loadIntra</text>
<text text-anchor="middle" x="61" y="-103" font-family="Helvetica,sans-Serif" font-size="10.00">DirModeLuma</text>
</g>
<!-- Node2 -->
<g id="node2" class="node"><title>Node2</title>
<g id="a_node2"><a xlink:href="classx265_1_1Search.html#a74bb6c5a121190c14d380a7d26cf9271" target="_top" xlink:title="x265::Search::getIntraModeBits">
<polygon fill="white" stroke="black" points="158.5,-101.5 158.5,-120.5 313.5,-120.5 313.5,-101.5 158.5,-101.5"/>
<text text-anchor="middle" x="236" y="-108.5" font-family="Helvetica,sans-Serif" font-size="10.00">x265::Search::getIntraModeBits</text>
</a>
</g>
</g>
<!-- Node1&#45;&gt;Node2 -->
<g id="edge1" class="edge"><title>Node1&#45;&gt;Node2</title>
<path fill="none" stroke="midnightblue" d="M131.67,-111C140.415,-111 149.398,-111 158.244,-111"/>
<polygon fill="midnightblue" stroke="midnightblue" points="131.537,-107.5 121.537,-111 131.537,-114.5 131.537,-107.5"/>
</g>
<!-- Node3 -->
<g id="node3" class="node"><title>Node3</title>
<g id="a_node3"><a xlink:href="classx265_1_1Analysis.html#a47fe19b013534639df70d2cccc551dca" target="_top" xlink:title="x265::Analysis::checkIntra\lInInter_rd0_4">
<polygon fill="white" stroke="black" points="527.5,-140 527.5,-170 660.5,-170 660.5,-140 527.5,-140"/>
<text text-anchor="start" x="535.5" y="-158" font-family="Helvetica,sans-Serif" font-size="10.00">x265::Analysis::checkIntra</text>
<text text-anchor="middle" x="594" y="-147" font-family="Helvetica,sans-Serif" font-size="10.00">InInter_rd0_4</text>
</a>
</g>
</g>
<!-- Node2&#45;&gt;Node3 -->
<g id="edge2" class="edge"><title>Node2&#45;&gt;Node3</title>
<path fill="none" stroke="midnightblue" d="M285.501,-122.716C305.387,-127.149 328.696,-131.874 350,-135 409.681,-143.758 478.214,-148.963 527.251,-151.856"/>
<polygon fill="midnightblue" stroke="midnightblue" points="286.267,-119.301 275.741,-120.503 284.72,-126.127 286.267,-119.301"/>
</g>
<!-- Node13 -->
<g id="node13" class="node"><title>Node13</title>
<g id="a_node13"><a xlink:href="classx265_1_1Search.html#a1778d2ab96ac88c7f76d36818d6adbdd" target="_top" xlink:title="x265::Search::estIntraPredQT">
<polygon fill="white" stroke="black" points="520.5,-57.5 520.5,-76.5 667.5,-76.5 667.5,-57.5 520.5,-57.5"/>
<text text-anchor="middle" x="594" y="-64.5" font-family="Helvetica,sans-Serif" font-size="10.00">x265::Search::estIntraPredQT</text>
</a>
</g>
</g>
<!-- Node2&#45;&gt;Node13 -->
<g id="edge14" class="edge"><title>Node2&#45;&gt;Node13</title>
<path fill="none" stroke="midnightblue" d="M283.813,-99.1041C304.047,-94.3631 328.069,-89.267 350,-86 406.922,-77.5204 471.945,-72.6881 520.398,-70.021"/>
<polygon fill="midnightblue" stroke="midnightblue" points="282.825,-95.7415 273.91,-101.466 284.449,-102.55 282.825,-95.7415"/>
</g>
<!-- Node18 -->
<g id="node18" class="node"><title>Node18</title>
<g id="a_node18"><a xlink:href="classx265_1_1Search.html#ad327d1f90617a0d272692bb98c660172" target="_top" xlink:title="x265::Search::getIntraRem\lModeBits">
<polygon fill="white" stroke="black" points="350,-96 350,-126 484,-126 484,-96 350,-96"/>
<text text-anchor="start" x="358" y="-114" font-family="Helvetica,sans-Serif" font-size="10.00">x265::Search::getIntraRem</text>
<text text-anchor="middle" x="417" y="-103" font-family="Helvetica,sans-Serif" font-size="10.00">ModeBits</text>
</a>
</g>
</g>
<!-- Node2&#45;&gt;Node18 -->
<g id="edge25" class="edge"><title>Node2&#45;&gt;Node18</title>
<path fill="none" stroke="midnightblue" d="M323.914,-111C332.653,-111 341.424,-111 349.895,-111"/>
<polygon fill="midnightblue" stroke="midnightblue" points="323.691,-107.5 313.691,-111 323.691,-114.5 323.691,-107.5"/>
</g>
<!-- Node4 -->
<g id="node4" class="node"><title>Node4</title>
<g id="a_node4"><a xlink:href="classx265_1_1Analysis.html#aa6122285d10bb1bd7584958b88b029d5" target="_top" xlink:title="x265::Analysis::parallel\lModeAnalysis">
<polygon fill="white" stroke="black" points="708,-191 708,-221 826,-221 826,-191 708,-191"/>
<text text-anchor="start" x="716" y="-209" font-family="Helvetica,sans-Serif" font-size="10.00">x265::Analysis::parallel</text>
<text text-anchor="middle" x="767" y="-198" font-family="Helvetica,sans-Serif" font-size="10.00">ModeAnalysis</text>
</a>
</g>
</g>
<!-- Node3&#45;&gt;Node4 -->
<g id="edge3" class="edge"><title>Node3&#45;&gt;Node4</title>
<path fill="none" stroke="midnightblue" d="M655.208,-172.957C674.977,-178.853 696.728,-185.34 715.684,-190.994"/>
<polygon fill="midnightblue" stroke="midnightblue" points="655.964,-169.53 645.381,-170.026 653.963,-176.238 655.964,-169.53"/>
</g>
<!-- Node6 -->
<g id="node6" class="node"><title>Node6</title>
<g id="a_node6"><a xlink:href="classx265_1_1Analysis.html#a87060ff27a37f56adc5f5b8a4c033ece" target="_top" xlink:title="x265::Analysis::compress\lInterCU_dist">
<polygon fill="white" stroke="black" points="1040,-147 1040,-177 1170,-177 1170,-147 1040,-147"/>
<text text-anchor="start" x="1048" y="-165" font-family="Helvetica,sans-Serif" font-size="10.00">x265::Analysis::compress</text>
<text text-anchor="middle" x="1105" y="-154" font-family="Helvetica,sans-Serif" font-size="10.00">InterCU_dist</text>
</a>
</g>
</g>
<!-- Node3&#45;&gt;Node6 -->
<g id="edge11" class="edge"><title>Node3&#45;&gt;Node6</title>
<path fill="none" stroke="midnightblue" d="M670.554,-156.039C770.763,-157.417 945.901,-159.826 1039.95,-161.119"/>
<polygon fill="midnightblue" stroke="midnightblue" points="670.548,-152.539 660.501,-155.901 670.452,-159.538 670.548,-152.539"/>
</g>
<!-- Node12 -->
<g id="node12" class="node"><title>Node12</title>
<g id="a_node12"><a xlink:href="classx265_1_1Analysis.html#a30d2ff7eca5addbb0a6b3dfe14f09650" target="_top" xlink:title="x265::Analysis::compress\lInterCU_rd0_4">
<polygon fill="white" stroke="black" points="1040,-98 1040,-128 1170,-128 1170,-98 1040,-98"/>
<text text-anchor="start" x="1048" y="-116" font-family="Helvetica,sans-Serif" font-size="10.00">x265::Analysis::compress</text>
<text text-anchor="middle" x="1105" y="-105" font-family="Helvetica,sans-Serif" font-size="10.00">InterCU_rd0_4</text>
</a>
</g>
</g>
<!-- Node3&#45;&gt;Node12 -->
<g id="edge12" class="edge"><title>Node3&#45;&gt;Node12</title>
<path fill="none" stroke="midnightblue" d="M670.554,-148.766C770.763,-140.497 945.901,-126.045 1039.95,-118.285"/>
<polygon fill="midnightblue" stroke="midnightblue" points="670.179,-145.285 660.501,-149.595 670.755,-152.261 670.179,-145.285"/>
</g>
<!-- Node5 -->
<g id="node5" class="node"><title>Node5</title>
<g id="a_node5"><a xlink:href="classx265_1_1Analysis.html#a29a58dad4cc1c07d2f5e5717c6be7c25" target="_top" xlink:title="x265::Analysis::findJob">
<polygon fill="white" stroke="black" points="875.5,-193.5 875.5,-212.5 994.5,-212.5 994.5,-193.5 875.5,-193.5"/>
<text text-anchor="middle" x="935" y="-200.5" font-family="Helvetica,sans-Serif" font-size="10.00">x265::Analysis::findJob</text>
</a>
</g>
</g>
<!-- Node4&#45;&gt;Node5 -->
<g id="edge4" class="edge"><title>Node4&#45;&gt;Node5</title>
<path fill="none" stroke="midnightblue" d="M836.332,-204.765C849.306,-204.531 862.774,-204.287 875.413,-204.059"/>
<polygon fill="midnightblue" stroke="midnightblue" points="835.994,-201.271 826.059,-204.951 836.12,-208.269 835.994,-201.271"/>
</g>
<!-- Node5&#45;&gt;Node6 -->
<g id="edge5" class="edge"><title>Node5&#45;&gt;Node6</title>
<path fill="none" stroke="midnightblue" d="M984.901,-191.066C1002.81,-186.694 1023.32,-181.689 1042.22,-177.078"/>
<polygon fill="midnightblue" stroke="midnightblue" points="983.85,-187.72 974.965,-193.491 985.51,-194.52 983.85,-187.72"/>
</g>
<!-- Node7 -->
<g id="node7" class="node"><title>Node7</title>
<g id="a_node7"><a xlink:href="classx265_1_1Analysis.html#aaebc9de2ff98834c650244f3b58942c2" target="_top" xlink:title="x265::Analysis::compressCTU">
<polygon fill="white" stroke="black" points="1206.5,-78.5 1206.5,-97.5 1357.5,-97.5 1357.5,-78.5 1206.5,-78.5"/>
<text text-anchor="middle" x="1282" y="-85.5" font-family="Helvetica,sans-Serif" font-size="10.00">x265::Analysis::compressCTU</text>
</a>
</g>
</g>
<!-- Node6&#45;&gt;Node7 -->
<g id="edge6" class="edge"><title>Node6&#45;&gt;Node7</title>
<path fill="none" stroke="midnightblue" d="M1155.05,-143.09C1160.11,-141.064 1165.17,-139.009 1170,-137 1201.51,-123.898 1237.59,-107.756 1259.84,-97.6684"/>
<polygon fill="midnightblue" stroke="midnightblue" points="1153.37,-139.99 1145.37,-146.931 1155.96,-146.497 1153.37,-139.99"/>
</g>
<!-- Node8 -->
<g id="node8" class="node"><title>Node8</title>
<g id="a_node8"><a xlink:href="classx265_1_1FrameEncoder.html#a0ae85001572afd28238476542523ac5f" target="_top" xlink:title="x265::FrameEncoder\l::processRowEncoder">
<polygon fill="white" stroke="black" points="1394.5,-73 1394.5,-103 1507.5,-103 1507.5,-73 1394.5,-73"/>
<text text-anchor="start" x="1402.5" y="-91" font-family="Helvetica,sans-Serif" font-size="10.00">x265::FrameEncoder</text>
<text text-anchor="middle" x="1451" y="-80" font-family="Helvetica,sans-Serif" font-size="10.00">::processRowEncoder</text>
</a>
</g>
</g>
<!-- Node7&#45;&gt;Node8 -->
<g id="edge7" class="edge"><title>Node7&#45;&gt;Node8</title>
<path fill="none" stroke="midnightblue" d="M1367.86,-88C1376.86,-88 1385.85,-88 1394.39,-88"/>
<polygon fill="midnightblue" stroke="midnightblue" points="1367.71,-84.5001 1357.71,-88 1367.71,-91.5001 1367.71,-84.5001"/>
</g>
<!-- Node9 -->
<g id="node9" class="node"><title>Node9</title>
<g id="a_node9"><a xlink:href="classx265_1_1FrameEncoder.html#acad645a8ece97d884895f8f7366b7d70" target="_top" xlink:title="x265::FrameEncoder\l::processRow">
<polygon fill="white" stroke="black" points="1544.5,-73 1544.5,-103 1651.5,-103 1651.5,-73 1544.5,-73"/>
<text text-anchor="start" x="1552.5" y="-91" font-family="Helvetica,sans-Serif" font-size="10.00">x265::FrameEncoder</text>
<text text-anchor="middle" x="1598" y="-80" font-family="Helvetica,sans-Serif" font-size="10.00">::processRow</text>
</a>
</g>
</g>
<!-- Node8&#45;&gt;Node9 -->
<g id="edge8" class="edge"><title>Node8&#45;&gt;Node9</title>
<path fill="none" stroke="midnightblue" d="M1517.88,-88C1526.67,-88 1535.59,-88 1544.13,-88"/>
<polygon fill="midnightblue" stroke="midnightblue" points="1517.65,-84.5001 1507.65,-88 1517.65,-91.5001 1517.65,-84.5001"/>
</g>
<!-- Node10 -->
<g id="node10" class="node"><title>Node10</title>
<g id="a_node10"><a xlink:href="classx265_1_1FrameEncoder.html#ac4e9ce2e876c0cdb25c992c872fe4302" target="_top" xlink:title="x265::FrameEncoder\l::compressCTURows">
<polygon fill="white" stroke="black" points="1688,-73 1688,-103 1800,-103 1800,-73 1688,-73"/>
<text text-anchor="start" x="1696" y="-91" font-family="Helvetica,sans-Serif" font-size="10.00">x265::FrameEncoder</text>
<text text-anchor="middle" x="1744" y="-80" font-family="Helvetica,sans-Serif" font-size="10.00">::compressCTURows</text>
</a>
</g>
</g>
<!-- Node9&#45;&gt;Node10 -->
<g id="edge9" class="edge"><title>Node9&#45;&gt;Node10</title>
<path fill="none" stroke="midnightblue" d="M1661.83,-88C1670.48,-88 1679.3,-88 1687.79,-88"/>
<polygon fill="midnightblue" stroke="midnightblue" points="1661.8,-84.5001 1651.8,-88 1661.8,-91.5001 1661.8,-84.5001"/>
</g>
<!-- Node11 -->
<g id="node11" class="node"><title>Node11</title>
<g id="a_node11"><a xlink:href="classx265_1_1FrameEncoder.html#a2f5c4c0f1a4e36fce4c9b87eb7ec4973" target="_top" xlink:title="x265::FrameEncoder\l::compressFrame">
<polygon fill="white" stroke="red" points="1836.5,-73 1836.5,-103 1943.5,-103 1943.5,-73 1836.5,-73"/>
<text text-anchor="start" x="1844.5" y="-91" font-family="Helvetica,sans-Serif" font-size="10.00">x265::FrameEncoder</text>
<text text-anchor="middle" x="1890" y="-80" font-family="Helvetica,sans-Serif" font-size="10.00">::compressFrame</text>
</a>
</g>
</g>
<!-- Node10&#45;&gt;Node11 -->
<g id="edge10" class="edge"><title>Node10&#45;&gt;Node11</title>
<path fill="none" stroke="midnightblue" d="M1810.42,-88C1819.15,-88 1828.02,-88 1836.49,-88"/>
<polygon fill="midnightblue" stroke="midnightblue" points="1810.26,-84.5001 1800.26,-88 1810.26,-91.5001 1810.26,-84.5001"/>
</g>
<!-- Node12&#45;&gt;Node7 -->
<g id="edge13" class="edge"><title>Node12&#45;&gt;Node7</title>
<path fill="none" stroke="midnightblue" d="M1180.1,-102.414C1191.52,-100.783 1203.25,-99.1071 1214.49,-97.5016"/>
<polygon fill="midnightblue" stroke="midnightblue" points="1179.57,-98.9538 1170.17,-103.833 1180.56,-105.883 1179.57,-98.9538"/>
</g>
<!-- Node14 -->
<g id="node14" class="node"><title>Node14</title>
<g id="a_node14"><a xlink:href="classx265_1_1Search.html#ab02df91827cf67796d1605bde60c6aed" target="_top" xlink:title="x265::Search::checkIntra">
<polygon fill="white" stroke="black" points="704,-51.5 704,-70.5 830,-70.5 830,-51.5 704,-51.5"/>
<text text-anchor="middle" x="767" y="-58.5" font-family="Helvetica,sans-Serif" font-size="10.00">x265::Search::checkIntra</text>
</a>
</g>
</g>
<!-- Node13&#45;&gt;Node14 -->
<g id="edge15" class="edge"><title>Node13&#45;&gt;Node14</title>
<path fill="none" stroke="midnightblue" d="M677.796,-64.0949C686.585,-63.7865 695.411,-63.4768 703.904,-63.1788"/>
<polygon fill="midnightblue" stroke="midnightblue" points="677.39,-60.6069 667.519,-64.4555 677.636,-67.6026 677.39,-60.6069"/>
</g>
<!-- Node15 -->
<g id="node15" class="node"><title>Node15</title>
<g id="a_node15"><a xlink:href="classx265_1_1Analysis.html#a10f0a8d9d143faf8dc671c6f0982693d" target="_top" xlink:title="x265::Analysis::tryLossless">
<polygon fill="white" stroke="black" points="866.5,-76.5 866.5,-95.5 1003.5,-95.5 1003.5,-76.5 866.5,-76.5"/>
<text text-anchor="middle" x="935" y="-83.5" font-family="Helvetica,sans-Serif" font-size="10.00">x265::Analysis::tryLossless</text>
</a>
</g>
</g>
<!-- Node14&#45;&gt;Node15 -->
<g id="edge16" class="edge"><title>Node14&#45;&gt;Node15</title>
<path fill="none" stroke="midnightblue" d="M840.338,-71.8943C850.487,-73.4228 860.853,-74.9838 870.813,-76.4839"/>
<polygon fill="midnightblue" stroke="midnightblue" points="840.694,-68.4085 830.285,-70.3802 839.652,-75.3305 840.694,-68.4085"/>
</g>
<!-- Node16 -->
<g id="node16" class="node"><title>Node16</title>
<g id="a_node16"><a xlink:href="classx265_1_1Analysis.html#aae2a6a2252270782b591d2bed7e99dae" target="_top" xlink:title="x265::Analysis::compress\lIntraCU">
<polygon fill="white" stroke="black" points="1040,-49 1040,-79 1170,-79 1170,-49 1040,-49"/>
<text text-anchor="start" x="1048" y="-67" font-family="Helvetica,sans-Serif" font-size="10.00">x265::Analysis::compress</text>
<text text-anchor="middle" x="1105" y="-56" font-family="Helvetica,sans-Serif" font-size="10.00">IntraCU</text>
</a>
</g>
</g>
<!-- Node14&#45;&gt;Node16 -->
<g id="edge23" class="edge"><title>Node14&#45;&gt;Node16</title>
<path fill="none" stroke="midnightblue" d="M840.064,-61.6434C899.383,-62.1731 982.705,-62.917 1039.77,-63.4265"/>
<polygon fill="midnightblue" stroke="midnightblue" points="840.05,-58.1433 830.019,-61.5537 839.987,-65.143 840.05,-58.1433"/>
</g>
<!-- Node17 -->
<g id="node17" class="node"><title>Node17</title>
<g id="a_node17"><a xlink:href="classx265_1_1Analysis.html#a0b22b7765aa4a36b1ba6d07ba26901e6" target="_top" xlink:title="x265::Analysis::compress\lInterCU_rd5_6">
<polygon fill="white" stroke="black" points="1040,-0 1040,-30 1170,-30 1170,-0 1040,-0"/>
<text text-anchor="start" x="1048" y="-18" font-family="Helvetica,sans-Serif" font-size="10.00">x265::Analysis::compress</text>
<text text-anchor="middle" x="1105" y="-7" font-family="Helvetica,sans-Serif" font-size="10.00">InterCU_rd5_6</text>
</a>
</g>
</g>
<!-- Node14&#45;&gt;Node17 -->
<g id="edge24" class="edge"><title>Node14&#45;&gt;Node17</title>
<path fill="none" stroke="midnightblue" d="M840.064,-51.1342C899.383,-43.0131 982.705,-31.6059 1039.77,-23.7934"/>
<polygon fill="midnightblue" stroke="midnightblue" points="839.452,-47.6851 830.019,-52.5093 840.401,-54.6205 839.452,-47.6851"/>
</g>
<!-- Node15&#45;&gt;Node6 -->
<g id="edge19" class="edge"><title>Node15&#45;&gt;Node6</title>
<path fill="none" stroke="midnightblue" d="M963.476,-100.255C984.273,-110.853 1013.66,-125.421 1040,-137 1047.64,-140.36 1055.89,-143.752 1063.84,-146.907"/>
<polygon fill="midnightblue" stroke="midnightblue" points="965.062,-97.1349 954.566,-95.6896 961.87,-103.365 965.062,-97.1349"/>
</g>
<!-- Node15&#45;&gt;Node12 -->
<g id="edge20" class="edge"><title>Node15&#45;&gt;Node12</title>
<path fill="none" stroke="midnightblue" d="M1005.2,-97.121C1016.68,-98.9659 1028.54,-100.872 1039.88,-102.695"/>
<polygon fill="midnightblue" stroke="midnightblue" points="1005.66,-93.6504 995.231,-95.5192 1004.55,-100.562 1005.66,-93.6504"/>
</g>
<!-- Node15&#45;&gt;Node16 -->
<g id="edge17" class="edge"><title>Node15&#45;&gt;Node16</title>
<path fill="none" stroke="midnightblue" d="M1014,-75.786C1022.7,-74.6467 1031.48,-73.4962 1039.98,-72.3836"/>
<polygon fill="midnightblue" stroke="midnightblue" points="1013.31,-72.3463 1003.85,-77.1152 1014.22,-79.287 1013.31,-72.3463"/>
</g>
<!-- Node15&#45;&gt;Node17 -->
<g id="edge21" class="edge"><title>Node15&#45;&gt;Node17</title>
<path fill="none" stroke="midnightblue" d="M965.367,-72.1065C986.076,-62.4626 1014.55,-49.511 1040,-39 1047.24,-36.0107 1055,-32.9675 1062.53,-30.097"/>
<polygon fill="midnightblue" stroke="midnightblue" points="963.729,-69.0085 956.155,-76.4167 966.696,-75.3488 963.729,-69.0085"/>
</g>
<!-- Node16&#45;&gt;Node7 -->
<g id="edge18" class="edge"><title>Node16&#45;&gt;Node7</title>
<path fill="none" stroke="midnightblue" d="M1180.39,-74.2025C1190.72,-75.619 1201.3,-77.0696 1211.53,-78.4731"/>
<polygon fill="midnightblue" stroke="midnightblue" points="1180.55,-70.6917 1170.17,-72.8004 1179.6,-77.6268 1180.55,-70.6917"/>
</g>
<!-- Node17&#45;&gt;Node7 -->
<g id="edge22" class="edge"><title>Node17&#45;&gt;Node7</title>
<path fill="none" stroke="midnightblue" d="M1156.49,-33.6264C1161.07,-35.4091 1165.63,-37.2173 1170,-39 1201.79,-51.9665 1238.1,-68.2861 1260.28,-78.4321"/>
<polygon fill="midnightblue" stroke="midnightblue" points="1157.7,-30.3402 1147.11,-30.0192 1155.18,-36.8741 1157.7,-30.3402"/>
</g>
<!-- Node18&#45;&gt;Node3 -->
<g id="edge26" class="edge"><title>Node18&#45;&gt;Node3</title>
<path fill="none" stroke="midnightblue" d="M487.544,-128.485C502.665,-132.287 518.534,-136.277 533.237,-139.974"/>
<polygon fill="midnightblue" stroke="midnightblue" points="488.287,-125.063 477.736,-126.019 486.58,-131.852 488.287,-125.063"/>
</g>
<!-- Node18&#45;&gt;Node13 -->
<g id="edge27" class="edge"><title>Node18&#45;&gt;Node13</title>
<path fill="none" stroke="midnightblue" d="M487.499,-93.5259C510.576,-87.7237 535.4,-81.4824 555.167,-76.5124"/>
<polygon fill="midnightblue" stroke="midnightblue" points="486.58,-90.1479 477.736,-95.9808 488.287,-96.9366 486.58,-90.1479"/>
</g>
</g>
</svg>
        <g id="navigator" transform="translate(0 0)" fill="#404254">
                <rect fill="#f2f5e9" fill-opacity="0.5" stroke="#606060" stroke-width=".5" x="0" y="0" width="60" height="60"/>
                <use id="zoomplus" xlink:href="#zoomPlus" x="17" y="9" onmousedown="handleZoom(evt,'in')"/>
                <use id="zoomminus" xlink:href="#zoomMin" x="42" y="9" onmousedown="handleZoom(evt,'out')"/>
                <use id="reset" xlink:href="#resetDef" x="30" y="36" onmousedown="handleReset()"/>
                <g id="arrowUp" xlink:href="#dirArrow" transform="translate(30 24)" onmousedown="handlePan(0,-1)">
                  <use xlink:href="#rim" fill="#404040">
                        <set attributeName="fill" to="#808080" begin="arrowUp.mouseover" end="arrowUp.mouseout"/>
                  </use>
                  <path fill="none" stroke="white" stroke-width="1.5" d="M0,-3.0v7 M-2.5,-0.5L0,-3.0L2.5,-0.5"/>
                </g>
                <g id="arrowRight" xlink:href="#dirArrow" transform="rotate(90) translate(36 -43)" onmousedown="handlePan(1,0)">
                  <use xlink:href="#rim" fill="#404040">
                        <set attributeName="fill" to="#808080" begin="arrowRight.mouseover" end="arrowRight.mouseout"/>
                  </use>
                  <path fill="none" stroke="white" stroke-width="1.5" d="M0,-3.0v7 M-2.5,-0.5L0,-3.0L2.5,-0.5"/>
                </g>
                <g id="arrowDown" xlink:href="#dirArrow" transform="rotate(180) translate(-30 -48)" onmousedown="handlePan(0,1)">
                  <use xlink:href="#rim" fill="#404040">
                        <set attributeName="fill" to="#808080" begin="arrowDown.mouseover" end="arrowDown.mouseout"/>
                  </use>
                  <path fill="none" stroke="white" stroke-width="1.5" d="M0,-3.0v7 M-2.5,-0.5L0,-3.0L2.5,-0.5"/>
                </g>
                <g id="arrowLeft" xlink:href="#dirArrow" transform="rotate(270) translate(-36 17)" onmousedown="handlePan(-1,0)">
                  <use xlink:href="#rim" fill="#404040">
                        <set attributeName="fill" to="#808080" begin="arrowLeft.mouseover" end="arrowLeft.mouseout"/>
                  </use>
                  <path fill="none" stroke="white" stroke-width="1.5" d="M0,-3.0v7 M-2.5,-0.5L0,-3.0L2.5,-0.5"/>
                </g>
        </g>
        <svg viewBox="0 0 15 15" width="100%" height="30px" preserveAspectRatio="xMaxYMin meet">
         <g id="arrow_out" transform="scale(0.3 0.3)">
          <a xlink:href="classx265_1_1Entropy_a5cc0bb0a25fc10237124e2130dca5311_icgraph_org.svg" target="_base">
           <rect id="button" ry="5" rx="5" y="6" x="6" height="38" width="38"
                fill="#f2f5e9" fill-opacity="0.5" stroke="#606060" stroke-width="1.0"/>
           <path id="arrow"
             d="M 11.500037,31.436501 C 11.940474,20.09759 22.043105,11.32322 32.158766,21.979434 L 37.068811,17.246167 C 37.068811,17.246167 37.088388,32 37.088388,32 L 22.160133,31.978069 C 22.160133,31.978069 26.997745,27.140456 26.997745,27.140456 C 18.528582,18.264221 13.291696,25.230495 11.500037,31.436501 z"
             style="fill:#404040;"/>
          </a>
         </g>
        </svg>
</svg>
