<?xml version="1.0" encoding="UTF-8" standalone="no"?>
<!DOCTYPE svg PUBLIC "-//W3C//DTD SVG 1.1//EN"
 "http://www.w3.org/Graphics/SVG/1.1/DTD/svg11.dtd">
<!-- Generated by graphviz version 2.36.0 (20140111.2315)
 -->
<!-- Title: x265::CUData::addMVPCand Pages: 1 -->
<!--zoomable 192 -->
<svg id="main" version="1.1" xmlns="http://www.w3.org/2000/svg" xmlns:xlink="http://www.w3.org/1999/xlink" xml:space="preserve" onload="init(evt)">
<style type="text/css"><![CDATA[
.edge:hover path { stroke: red; }
.edge:hover polygon { stroke: red; fill: red; }
]]></style>
<script type="text/javascript"><![CDATA[
var edges = document.getElementsByTagName('g');
if (edges && edges.length) {
  for (var i=0;i<edges.length;i++) {
    if (edges[i].id.substr(0,4)=='edge') {
      edges[i].setAttribute('class','edge');
    }
  }
}
]]></script>
        <defs>
                <circle id="rim" cx="0" cy="0" r="7"/>
                <circle id="rim2" cx="0" cy="0" r="3.5"/>
                <g id="zoomPlus">
                        <use xlink:href="#rim" fill="#404040">
                                <set attributeName="fill" to="#808080" begin="zoomplus.mouseover" end="zoomplus.mouseout"/>
                        </use>
                        <path d="M-4,0h8M0,-4v8" fill="none" stroke="white" stroke-width="1.5" pointer-events="none"/>
                </g>
                <g id="zoomMin">
                        <use xlink:href="#rim" fill="#404040">
                                <set attributeName="fill" to="#808080" begin="zoomminus.mouseover" end="zoomminus.mouseout"/>
                        </use>
                        <path d="M-4,0h8" fill="none" stroke="white" stroke-width="1.5" pointer-events="none"/>
                </g>
                <g id="dirArrow">
                        <path fill="none" stroke="white" stroke-width="1.5" d="M0,-3.0v7 M-2.5,-0.5L0,-3.0L2.5,-0.5"/>
                </g>
               <g id="resetDef">
                       <use xlink:href="#rim2" fill="#404040">
                               <set attributeName="fill" to="#808080" begin="reset.mouseover" end="reset.mouseout"/>
                       </use>
               </g>
        </defs>

<script type="text/javascript">
var viewWidth = 532;
var viewHeight = 192;
var sectionId = 'dynsection-1';
</script>
<script xlink:href="svgpan.js"/>
<svg id="graph" class="graph">
<g id="viewport">
<title>x265::CUData::addMVPCand</title>
<polygon fill="white" stroke="none" points="-4,4 -4,-188 528,-188 528,4 -4,4"/>
<!-- Node1 -->
<g id="node1" class="node"><title>Node1</title>
<polygon fill="#bfbfbf" stroke="black" points="0,-82.5 0,-101.5 146,-101.5 146,-82.5 0,-82.5"/>
<text text-anchor="middle" x="73" y="-89.5" font-family="Helvetica,sans-Serif" font-size="10.00">x265::CUData::addMVPCand</text>
</g>
<!-- Node2 -->
<g id="node2" class="node"><title>Node2</title>
<g id="a_node2"><a xlink:href="classx265_1_1CUData.html#a790220d1a24b35b6be3f205334c961b9" target="_top" xlink:title="x265::CUData::getPULeft">
<polygon fill="white" stroke="black" points="196,-164.5 196,-183.5 326,-183.5 326,-164.5 196,-164.5"/>
<text text-anchor="middle" x="261" y="-171.5" font-family="Helvetica,sans-Serif" font-size="10.00">x265::CUData::getPULeft</text>
</a>
</g>
</g>
<!-- Node1&#45;&gt;Node2 -->
<g id="edge1" class="edge"><title>Node1&#45;&gt;Node2</title>
<path fill="none" stroke="midnightblue" d="M87.6548,-101.724C107.522,-115.453 145.967,-140.461 182,-155 188.253,-157.523 194.927,-159.771 201.641,-161.757"/>
<polygon fill="midnightblue" stroke="midnightblue" points="200.89,-165.181 211.462,-164.483 202.762,-158.436 200.89,-165.181"/>
</g>
<!-- Node4 -->
<g id="node4" class="node"><title>Node4</title>
<g id="a_node4"><a xlink:href="classx265_1_1CUData.html#a1776d2850dab48b37a6ffac109e02fdb" target="_top" xlink:title="x265::CUData::getPUAbove">
<polygon fill="white" stroke="black" points="190.5,-126.5 190.5,-145.5 331.5,-145.5 331.5,-126.5 190.5,-126.5"/>
<text text-anchor="middle" x="261" y="-133.5" font-family="Helvetica,sans-Serif" font-size="10.00">x265::CUData::getPUAbove</text>
</a>
</g>
</g>
<!-- Node1&#45;&gt;Node4 -->
<g id="edge3" class="edge"><title>Node1&#45;&gt;Node4</title>
<path fill="none" stroke="midnightblue" d="M114.359,-101.547C142.389,-108.178 179.932,-117.059 209.879,-124.143"/>
<polygon fill="midnightblue" stroke="midnightblue" points="209.182,-127.575 219.72,-126.471 210.794,-120.763 209.182,-127.575"/>
</g>
<!-- Node5 -->
<g id="node5" class="node"><title>Node5</title>
<g id="a_node5"><a xlink:href="classx265_1_1CUData.html#a281022b469dc71e6f08586624a286f35" target="_top" xlink:title="x265::CUData::getPUAbove\lRight">
<polygon fill="white" stroke="black" points="190.5,-77 190.5,-107 331.5,-107 331.5,-77 190.5,-77"/>
<text text-anchor="start" x="198.5" y="-95" font-family="Helvetica,sans-Serif" font-size="10.00">x265::CUData::getPUAbove</text>
<text text-anchor="middle" x="261" y="-84" font-family="Helvetica,sans-Serif" font-size="10.00">Right</text>
</a>
</g>
</g>
<!-- Node1&#45;&gt;Node5 -->
<g id="edge5" class="edge"><title>Node1&#45;&gt;Node5</title>
<path fill="none" stroke="midnightblue" d="M146.179,-92C157.281,-92 168.8,-92 180.058,-92"/>
<polygon fill="midnightblue" stroke="midnightblue" points="180.305,-95.5001 190.305,-92 180.305,-88.5001 180.305,-95.5001"/>
</g>
<!-- Node6 -->
<g id="node6" class="node"><title>Node6</title>
<g id="a_node6"><a xlink:href="classx265_1_1CUData.html#aaf883ffae61fbe3bc5d88c54cb725c65" target="_top" xlink:title="x265::CUData::getPUBelowLeft">
<polygon fill="white" stroke="black" points="182.5,-38.5 182.5,-57.5 339.5,-57.5 339.5,-38.5 182.5,-38.5"/>
<text text-anchor="middle" x="261" y="-45.5" font-family="Helvetica,sans-Serif" font-size="10.00">x265::CUData::getPUBelowLeft</text>
</a>
</g>
</g>
<!-- Node1&#45;&gt;Node6 -->
<g id="edge7" class="edge"><title>Node1&#45;&gt;Node6</title>
<path fill="none" stroke="midnightblue" d="M114.359,-82.4527C142.389,-75.8219 179.932,-66.9409 209.879,-59.8565"/>
<polygon fill="midnightblue" stroke="midnightblue" points="210.794,-63.2368 219.72,-57.5287 209.182,-56.4248 210.794,-63.2368"/>
</g>
<!-- Node7 -->
<g id="node7" class="node"><title>Node7</title>
<g id="a_node7"><a xlink:href="classx265_1_1CUData.html#ad1ad60ca75127ee52e217c987dfc2814" target="_top" xlink:title="x265::CUData::getPUAboveLeft">
<polygon fill="white" stroke="black" points="182,-0.5 182,-19.5 340,-19.5 340,-0.5 182,-0.5"/>
<text text-anchor="middle" x="261" y="-7.5" font-family="Helvetica,sans-Serif" font-size="10.00">x265::CUData::getPUAboveLeft</text>
</a>
</g>
</g>
<!-- Node1&#45;&gt;Node7 -->
<g id="edge9" class="edge"><title>Node1&#45;&gt;Node7</title>
<path fill="none" stroke="midnightblue" d="M87.6548,-82.2759C107.522,-68.5471 145.967,-43.5387 182,-29 188.253,-26.4772 194.927,-24.2294 201.641,-22.2427"/>
<polygon fill="midnightblue" stroke="midnightblue" points="202.762,-25.5641 211.462,-19.5173 200.89,-18.819 202.762,-25.5641"/>
</g>
<!-- Node3 -->
<g id="node3" class="node"><title>Node3</title>
<g id="a_node3"><a xlink:href="classx265_1_1FrameData.html#a83d98df913873a07c3ce59bd5c16b2e4" target="_top" xlink:title="x265::FrameData::getPicCTU">
<polygon fill="white" stroke="black" points="376.5,-82.5 376.5,-101.5 523.5,-101.5 523.5,-82.5 376.5,-82.5"/>
<text text-anchor="middle" x="450" y="-89.5" font-family="Helvetica,sans-Serif" font-size="10.00">x265::FrameData::getPicCTU</text>
</a>
</g>
</g>
<!-- Node2&#45;&gt;Node3 -->
<g id="edge2" class="edge"><title>Node2&#45;&gt;Node3</title>
<path fill="none" stroke="midnightblue" d="M310.527,-164.454C320.442,-161.874 330.686,-158.736 340,-155 371.772,-142.254 405.468,-121.522 426.84,-107.348"/>
<polygon fill="midnightblue" stroke="midnightblue" points="428.863,-110.205 435.204,-101.717 424.954,-104.398 428.863,-110.205"/>
</g>
<!-- Node4&#45;&gt;Node3 -->
<g id="edge4" class="edge"><title>Node4&#45;&gt;Node3</title>
<path fill="none" stroke="midnightblue" d="M302.576,-126.453C330.757,-119.822 368.501,-110.941 398.61,-103.857"/>
<polygon fill="midnightblue" stroke="midnightblue" points="399.57,-107.226 408.503,-101.529 397.967,-100.412 399.57,-107.226"/>
</g>
<!-- Node5&#45;&gt;Node3 -->
<g id="edge6" class="edge"><title>Node5&#45;&gt;Node3</title>
<path fill="none" stroke="midnightblue" d="M331.632,-92C342.956,-92 354.781,-92 366.38,-92"/>
<polygon fill="midnightblue" stroke="midnightblue" points="366.496,-95.5001 376.496,-92 366.496,-88.5001 366.496,-95.5001"/>
</g>
<!-- Node6&#45;&gt;Node3 -->
<g id="edge8" class="edge"><title>Node6&#45;&gt;Node3</title>
<path fill="none" stroke="midnightblue" d="M302.576,-57.5473C330.757,-64.1781 368.501,-73.0591 398.61,-80.1435"/>
<polygon fill="midnightblue" stroke="midnightblue" points="397.967,-83.5878 408.503,-82.4713 399.57,-76.7739 397.967,-83.5878"/>
</g>
<!-- Node7&#45;&gt;Node3 -->
<g id="edge10" class="edge"><title>Node7&#45;&gt;Node3</title>
<path fill="none" stroke="midnightblue" d="M310.527,-19.5462C320.442,-22.1262 330.686,-25.2638 340,-29 371.772,-41.7458 405.468,-62.4775 426.84,-76.6523"/>
<polygon fill="midnightblue" stroke="midnightblue" points="424.954,-79.6017 435.204,-82.2834 428.863,-73.7951 424.954,-79.6017"/>
</g>
</g>
</svg>
        <g id="navigator" transform="translate(0 0)" fill="#404254">
                <rect fill="#f2f5e9" fill-opacity="0.5" stroke="#606060" stroke-width=".5" x="0" y="0" width="60" height="60"/>
                <use id="zoomplus" xlink:href="#zoomPlus" x="17" y="9" onmousedown="handleZoom(evt,'in')"/>
                <use id="zoomminus" xlink:href="#zoomMin" x="42" y="9" onmousedown="handleZoom(evt,'out')"/>
                <use id="reset" xlink:href="#resetDef" x="30" y="36" onmousedown="handleReset()"/>
                <g id="arrowUp" xlink:href="#dirArrow" transform="translate(30 24)" onmousedown="handlePan(0,-1)">
                  <use xlink:href="#rim" fill="#404040">
                        <set attributeName="fill" to="#808080" begin="arrowUp.mouseover" end="arrowUp.mouseout"/>
                  </use>
                  <path fill="none" stroke="white" stroke-width="1.5" d="M0,-3.0v7 M-2.5,-0.5L0,-3.0L2.5,-0.5"/>
                </g>
                <g id="arrowRight" xlink:href="#dirArrow" transform="rotate(90) translate(36 -43)" onmousedown="handlePan(1,0)">
                  <use xlink:href="#rim" fill="#404040">
                        <set attributeName="fill" to="#808080" begin="arrowRight.mouseover" end="arrowRight.mouseout"/>
                  </use>
                  <path fill="none" stroke="white" stroke-width="1.5" d="M0,-3.0v7 M-2.5,-0.5L0,-3.0L2.5,-0.5"/>
                </g>
                <g id="arrowDown" xlink:href="#dirArrow" transform="rotate(180) translate(-30 -48)" onmousedown="handlePan(0,1)">
                  <use xlink:href="#rim" fill="#404040">
                        <set attributeName="fill" to="#808080" begin="arrowDown.mouseover" end="arrowDown.mouseout"/>
                  </use>
                  <path fill="none" stroke="white" stroke-width="1.5" d="M0,-3.0v7 M-2.5,-0.5L0,-3.0L2.5,-0.5"/>
                </g>
                <g id="arrowLeft" xlink:href="#dirArrow" transform="rotate(270) translate(-36 17)" onmousedown="handlePan(-1,0)">
                  <use xlink:href="#rim" fill="#404040">
                        <set attributeName="fill" to="#808080" begin="arrowLeft.mouseover" end="arrowLeft.mouseout"/>
                  </use>
                  <path fill="none" stroke="white" stroke-width="1.5" d="M0,-3.0v7 M-2.5,-0.5L0,-3.0L2.5,-0.5"/>
                </g>
        </g>
        <svg viewBox="0 0 15 15" width="100%" height="30px" preserveAspectRatio="xMaxYMin meet">
         <g id="arrow_out" transform="scale(0.3 0.3)">
          <a xlink:href="classx265_1_1CUData_abe3e0dd714313c4b9d0e981646c51649_cgraph_org.svg" target="_base">
           <rect id="button" ry="5" rx="5" y="6" x="6" height="38" width="38"
                fill="#f2f5e9" fill-opacity="0.5" stroke="#606060" stroke-width="1.0"/>
           <path id="arrow"
             d="M 11.500037,31.436501 C 11.940474,20.09759 22.043105,11.32322 32.158766,21.979434 L 37.068811,17.246167 C 37.068811,17.246167 37.088388,32 37.088388,32 L 22.160133,31.978069 C 22.160133,31.978069 26.997745,27.140456 26.997745,27.140456 C 18.528582,18.264221 13.291696,25.230495 11.500037,31.436501 z"
             style="fill:#404040;"/>
          </a>
         </g>
        </svg>
</svg>
