<?xml version="1.0" encoding="UTF-8" standalone="no"?>
<!DOCTYPE svg PUBLIC "-//W3C//DTD SVG 1.1//EN"
 "http://www.w3.org/Graphics/SVG/1.1/DTD/svg11.dtd">
<!-- Generated by graphviz version 2.36.0 (20140111.2315)
 -->
<!-- Title: x265::Search::getIntraRemModeBits Pages: 1 -->
<svg width="1048pt" height="243pt"
 viewBox="0.00 0.00 1048.00 243.00" xmlns="http://www.w3.org/2000/svg" xmlns:xlink="http://www.w3.org/1999/xlink">
<g id="graph0" class="graph" transform="scale(1 1) rotate(0) translate(4 239)">
<title>x265::Search::getIntraRemModeBits</title>
<polygon fill="white" stroke="none" points="-4,4 -4,-239 1044,-239 1044,4 -4,4"/>
<!-- Node1 -->
<g id="node1" class="node"><title>Node1</title>
<polygon fill="#bfbfbf" stroke="black" points="0,-102 0,-132 134,-132 134,-102 0,-102"/>
<text text-anchor="start" x="8" y="-120" font-family="Helvetica,sans-Serif" font-size="10.00">x265::Search::getIntraRem</text>
<text text-anchor="middle" x="67" y="-109" font-family="Helvetica,sans-Serif" font-size="10.00">ModeBits</text>
</g>
<!-- Node2 -->
<g id="node2" class="node"><title>Node2</title>
<g id="a_node2"><a xlink:href="classx265_1_1Search.html#a74bb6c5a121190c14d380a7d26cf9271" target="_top" xlink:title="x265::Search::getIntraModeBits">
<polygon fill="white" stroke="black" points="170.5,-107.5 170.5,-126.5 325.5,-126.5 325.5,-107.5 170.5,-107.5"/>
<text text-anchor="middle" x="248" y="-114.5" font-family="Helvetica,sans-Serif" font-size="10.00">x265::Search::getIntraModeBits</text>
</a>
</g>
</g>
<!-- Node1&#45;&gt;Node2 -->
<g id="edge1" class="edge"><title>Node1&#45;&gt;Node2</title>
<path fill="none" stroke="midnightblue" d="M134.144,-117C142.591,-117 151.336,-117 160.049,-117"/>
<polygon fill="midnightblue" stroke="midnightblue" points="160.242,-120.5 170.242,-117 160.242,-113.5 160.242,-120.5"/>
</g>
<!-- Node3 -->
<g id="node3" class="node"><title>Node3</title>
<g id="a_node3"><a xlink:href="classx265_1_1Entropy.html#a5cc0bb0a25fc10237124e2130dca5311" target="_top" xlink:title="x265::Entropy::loadIntra\lDirModeLuma">
<polygon fill="white" stroke="black" points="367.5,-172 367.5,-202 488.5,-202 488.5,-172 367.5,-172"/>
<text text-anchor="start" x="375.5" y="-190" font-family="Helvetica,sans-Serif" font-size="10.00">x265::Entropy::loadIntra</text>
<text text-anchor="middle" x="428" y="-179" font-family="Helvetica,sans-Serif" font-size="10.00">DirModeLuma</text>
</a>
</g>
</g>
<!-- Node2&#45;&gt;Node3 -->
<g id="edge2" class="edge"><title>Node2&#45;&gt;Node3</title>
<path fill="none" stroke="midnightblue" d="M273.377,-126.586C300.531,-137.265 345.098,-154.791 379.254,-168.224"/>
<polygon fill="midnightblue" stroke="midnightblue" points="378.002,-171.492 388.589,-171.895 380.564,-164.978 378.002,-171.492"/>
</g>
<!-- Node6 -->
<g id="node6" class="node"><title>Node6</title>
<g id="a_node6"><a xlink:href="classx265_1_1Entropy.html#abfcde0e06b9eacfac4bfe0784eb7c967" target="_top" xlink:title="x265::Entropy::resetBits">
<polygon fill="white" stroke="black" points="367,-131.5 367,-150.5 489,-150.5 489,-131.5 367,-131.5"/>
<text text-anchor="middle" x="428" y="-138.5" font-family="Helvetica,sans-Serif" font-size="10.00">x265::Entropy::resetBits</text>
</a>
</g>
</g>
<!-- Node2&#45;&gt;Node6 -->
<g id="edge5" class="edge"><title>Node2&#45;&gt;Node6</title>
<path fill="none" stroke="midnightblue" d="M319.606,-126.52C331.815,-128.166 344.506,-129.877 356.707,-131.522"/>
<polygon fill="midnightblue" stroke="midnightblue" points="356.44,-135.018 366.818,-132.886 357.376,-128.081 356.44,-135.018"/>
</g>
<!-- Node8 -->
<g id="node8" class="node"><title>Node8</title>
<g id="a_node8"><a xlink:href="classx265_1_1Entropy.html#ab66ece727fbc0d4d8afe02a42466dae2" target="_top" xlink:title="x265::Entropy::codeIntra\lDirLumaAng">
<polygon fill="white" stroke="black" points="366,-79 366,-109 490,-109 490,-79 366,-79"/>
<text text-anchor="start" x="374" y="-97" font-family="Helvetica,sans-Serif" font-size="10.00">x265::Entropy::codeIntra</text>
<text text-anchor="middle" x="428" y="-86" font-family="Helvetica,sans-Serif" font-size="10.00">DirLumaAng</text>
</a>
</g>
</g>
<!-- Node2&#45;&gt;Node8 -->
<g id="edge7" class="edge"><title>Node2&#45;&gt;Node8</title>
<path fill="none" stroke="midnightblue" d="M322.684,-107.479C333.556,-106.074 344.742,-104.629 355.568,-103.23"/>
<polygon fill="midnightblue" stroke="midnightblue" points="356.345,-106.659 365.814,-101.906 355.447,-99.7165 356.345,-106.659"/>
</g>
<!-- Node18 -->
<g id="node18" class="node"><title>Node18</title>
<g id="a_node18"><a xlink:href="classx265_1_1Entropy.html#a9078f8e04c0b7a1a2840299c30458e97" target="_top" xlink:title="x265::Entropy::getNumber\lOfWrittenBits">
<polygon fill="white" stroke="black" points="362.5,-30 362.5,-60 493.5,-60 493.5,-30 362.5,-30"/>
<text text-anchor="start" x="370.5" y="-48" font-family="Helvetica,sans-Serif" font-size="10.00">x265::Entropy::getNumber</text>
<text text-anchor="middle" x="428" y="-37" font-family="Helvetica,sans-Serif" font-size="10.00">OfWrittenBits</text>
</a>
</g>
</g>
<!-- Node2&#45;&gt;Node18 -->
<g id="edge19" class="edge"><title>Node2&#45;&gt;Node18</title>
<path fill="none" stroke="midnightblue" d="M270.536,-107.488C293.179,-97.573 329.904,-81.7338 362,-69 366.448,-67.2352 371.083,-65.4394 375.74,-63.6648"/>
<polygon fill="midnightblue" stroke="midnightblue" points="377.155,-66.8721 385.276,-60.0686 374.685,-60.3223 377.155,-66.8721"/>
</g>
<!-- Node4 -->
<g id="node4" class="node"><title>Node4</title>
<g id="a_node4"><a xlink:href="classx265_1_1Entropy.html#aec97e584e9e0da270532ef3d29d13b3d" target="_top" xlink:title="x265::Entropy::copyState">
<polygon fill="white" stroke="black" points="540,-215.5 540,-234.5 668,-234.5 668,-215.5 540,-215.5"/>
<text text-anchor="middle" x="604" y="-222.5" font-family="Helvetica,sans-Serif" font-size="10.00">x265::Entropy::copyState</text>
</a>
</g>
</g>
<!-- Node3&#45;&gt;Node4 -->
<g id="edge3" class="edge"><title>Node3&#45;&gt;Node4</title>
<path fill="none" stroke="midnightblue" d="M488.881,-200.077C508.637,-204.392 530.466,-209.159 549.697,-213.359"/>
<polygon fill="midnightblue" stroke="midnightblue" points="548.976,-216.784 559.492,-215.498 550.469,-209.945 548.976,-216.784"/>
</g>
<!-- Node5 -->
<g id="node5" class="node"><title>Node5</title>
<g id="a_node5"><a xlink:href="classx265_1_1Entropy.html#a4a2ed9d9dc4b2a31aed493c4a8d8b58b" target="_top" xlink:title="x265::Entropy::markValid">
<polygon fill="white" stroke="black" points="540.5,-177.5 540.5,-196.5 667.5,-196.5 667.5,-177.5 540.5,-177.5"/>
<text text-anchor="middle" x="604" y="-184.5" font-family="Helvetica,sans-Serif" font-size="10.00">x265::Entropy::markValid</text>
</a>
</g>
</g>
<!-- Node3&#45;&gt;Node5 -->
<g id="edge4" class="edge"><title>Node3&#45;&gt;Node5</title>
<path fill="none" stroke="midnightblue" d="M488.881,-187C502.12,-187 516.29,-187 529.985,-187"/>
<polygon fill="midnightblue" stroke="midnightblue" points="530.341,-190.5 540.341,-187 530.341,-183.5 530.341,-190.5"/>
</g>
<!-- Node7 -->
<g id="node7" class="node"><title>Node7</title>
<g id="a_node7"><a xlink:href="classx265_1_1BitInterface.html#acce17e1c0f79b9ebb54423eafa1cc782" target="_top" xlink:title="x265::BitInterface\l::resetBits">
<polygon fill="white" stroke="black" points="557,-128 557,-158 651,-158 651,-128 557,-128"/>
<text text-anchor="start" x="565" y="-146" font-family="Helvetica,sans-Serif" font-size="10.00">x265::BitInterface</text>
<text text-anchor="middle" x="604" y="-135" font-family="Helvetica,sans-Serif" font-size="10.00">::resetBits</text>
</a>
</g>
</g>
<!-- Node6&#45;&gt;Node7 -->
<g id="edge6" class="edge"><title>Node6&#45;&gt;Node7</title>
<path fill="none" stroke="midnightblue" d="M489.368,-141.694C507.916,-141.907 528.251,-142.141 546.528,-142.351"/>
<polygon fill="midnightblue" stroke="midnightblue" points="546.693,-145.853 556.733,-142.468 546.774,-138.853 546.693,-145.853"/>
</g>
<!-- Node9 -->
<g id="node9" class="node"><title>Node9</title>
<g id="a_node9"><a xlink:href="classx265_1_1CUData.html#a3278b824ce09f53bc001074896077975" target="_top" xlink:title="x265::CUData::getIntraDir\lLumaPredictor">
<polygon fill="white" stroke="black" points="538.5,-79 538.5,-109 669.5,-109 669.5,-79 538.5,-79"/>
<text text-anchor="start" x="546.5" y="-97" font-family="Helvetica,sans-Serif" font-size="10.00">x265::CUData::getIntraDir</text>
<text text-anchor="middle" x="604" y="-86" font-family="Helvetica,sans-Serif" font-size="10.00">LumaPredictor</text>
</a>
</g>
</g>
<!-- Node8&#45;&gt;Node9 -->
<g id="edge8" class="edge"><title>Node8&#45;&gt;Node9</title>
<path fill="none" stroke="midnightblue" d="M490.346,-94C502.621,-94 515.645,-94 528.314,-94"/>
<polygon fill="midnightblue" stroke="midnightblue" points="528.376,-97.5001 538.376,-94 528.376,-90.5001 528.376,-97.5001"/>
</g>
<!-- Node14 -->
<g id="node14" class="node"><title>Node14</title>
<g id="a_node14"><a xlink:href="classx265_1_1Entropy.html#ad5bd127b6afa68ee4408890c75fdd4bd" target="_top" xlink:title="x265::Entropy::encodeBin">
<polygon fill="white" stroke="black" points="539.5,-40.5 539.5,-59.5 668.5,-59.5 668.5,-40.5 539.5,-40.5"/>
<text text-anchor="middle" x="604" y="-47.5" font-family="Helvetica,sans-Serif" font-size="10.00">x265::Entropy::encodeBin</text>
</a>
</g>
</g>
<!-- Node8&#45;&gt;Node14 -->
<g id="edge14" class="edge"><title>Node8&#45;&gt;Node14</title>
<path fill="none" stroke="midnightblue" d="M488.394,-78.9808C510.307,-73.4396 534.827,-67.2393 555.545,-62.0001"/>
<polygon fill="midnightblue" stroke="midnightblue" points="556.546,-65.3573 565.383,-59.5124 554.83,-58.5709 556.546,-65.3573"/>
</g>
<!-- Node17 -->
<g id="node17" class="node"><title>Node17</title>
<g id="a_node17"><a xlink:href="classx265_1_1Entropy.html#ac9e06099bfcb9f576565d6d5a0e3205f" target="_top" xlink:title="x265::Entropy::encodeBinsEP">
<polygon fill="white" stroke="black" points="530,-2.5 530,-21.5 678,-21.5 678,-2.5 530,-2.5"/>
<text text-anchor="middle" x="604" y="-9.5" font-family="Helvetica,sans-Serif" font-size="10.00">x265::Entropy::encodeBinsEP</text>
</a>
</g>
</g>
<!-- Node8&#45;&gt;Node17 -->
<g id="edge17" class="edge"><title>Node8&#45;&gt;Node17</title>
<path fill="none" stroke="midnightblue" d="M475.727,-78.9609C482.098,-76.0804 488.373,-72.7658 494,-69 513.334,-56.0605 509.969,-42.8316 530,-31 533.679,-28.8271 537.605,-26.8995 541.657,-25.1899"/>
<polygon fill="midnightblue" stroke="midnightblue" points="543.144,-28.3703 551.28,-21.5837 540.688,-21.8155 543.144,-28.3703"/>
</g>
<!-- Node10 -->
<g id="node10" class="node"><title>Node10</title>
<g id="a_node10"><a xlink:href="classx265_1_1CUData.html#a790220d1a24b35b6be3f205334c961b9" target="_top" xlink:title="x265::CUData::getPULeft">
<polygon fill="white" stroke="black" points="720,-122.5 720,-141.5 850,-141.5 850,-122.5 720,-122.5"/>
<text text-anchor="middle" x="785" y="-129.5" font-family="Helvetica,sans-Serif" font-size="10.00">x265::CUData::getPULeft</text>
</a>
</g>
</g>
<!-- Node9&#45;&gt;Node10 -->
<g id="edge9" class="edge"><title>Node9&#45;&gt;Node10</title>
<path fill="none" stroke="midnightblue" d="M669.623,-107.719C689.147,-111.864 710.386,-116.372 729.204,-120.367"/>
<polygon fill="midnightblue" stroke="midnightblue" points="728.582,-123.813 739.091,-122.466 730.035,-116.966 728.582,-123.813"/>
</g>
<!-- Node12 -->
<g id="node12" class="node"><title>Node12</title>
<g id="a_node12"><a xlink:href="classx265_1_1CUData.html#a4de1cda97a0a06196c9f6ac92d6829a2" target="_top" xlink:title="x265::CUData::isIntra">
<polygon fill="white" stroke="black" points="728.5,-84.5 728.5,-103.5 841.5,-103.5 841.5,-84.5 728.5,-84.5"/>
<text text-anchor="middle" x="785" y="-91.5" font-family="Helvetica,sans-Serif" font-size="10.00">x265::CUData::isIntra</text>
</a>
</g>
</g>
<!-- Node9&#45;&gt;Node12 -->
<g id="edge11" class="edge"><title>Node9&#45;&gt;Node12</title>
<path fill="none" stroke="midnightblue" d="M669.623,-94C685.395,-94 702.287,-94 718.118,-94"/>
<polygon fill="midnightblue" stroke="midnightblue" points="718.345,-97.5001 728.344,-94 718.344,-90.5001 718.345,-97.5001"/>
</g>
<!-- Node13 -->
<g id="node13" class="node"><title>Node13</title>
<g id="a_node13"><a xlink:href="classx265_1_1CUData.html#a1776d2850dab48b37a6ffac109e02fdb" target="_top" xlink:title="x265::CUData::getPUAbove">
<polygon fill="white" stroke="black" points="714.5,-46.5 714.5,-65.5 855.5,-65.5 855.5,-46.5 714.5,-46.5"/>
<text text-anchor="middle" x="785" y="-53.5" font-family="Helvetica,sans-Serif" font-size="10.00">x265::CUData::getPUAbove</text>
</a>
</g>
</g>
<!-- Node9&#45;&gt;Node13 -->
<g id="edge12" class="edge"><title>Node9&#45;&gt;Node13</title>
<path fill="none" stroke="midnightblue" d="M669.623,-80.2811C689.147,-76.1364 710.386,-71.6275 729.204,-67.6328"/>
<polygon fill="midnightblue" stroke="midnightblue" points="730.035,-71.0342 739.091,-65.5338 728.582,-64.1868 730.035,-71.0342"/>
</g>
<!-- Node11 -->
<g id="node11" class="node"><title>Node11</title>
<g id="a_node11"><a xlink:href="classx265_1_1FrameData.html#a83d98df913873a07c3ce59bd5c16b2e4" target="_top" xlink:title="x265::FrameData::getPicCTU">
<polygon fill="white" stroke="black" points="892.5,-85.5 892.5,-104.5 1039.5,-104.5 1039.5,-85.5 892.5,-85.5"/>
<text text-anchor="middle" x="966" y="-92.5" font-family="Helvetica,sans-Serif" font-size="10.00">x265::FrameData::getPicCTU</text>
</a>
</g>
</g>
<!-- Node10&#45;&gt;Node11 -->
<g id="edge10" class="edge"><title>Node10&#45;&gt;Node11</title>
<path fill="none" stroke="midnightblue" d="M832.097,-122.472C855.495,-117.635 884.115,-111.719 908.796,-106.618"/>
<polygon fill="midnightblue" stroke="midnightblue" points="909.664,-110.012 918.749,-104.56 908.247,-103.157 909.664,-110.012"/>
</g>
<!-- Node13&#45;&gt;Node11 -->
<g id="edge13" class="edge"><title>Node13&#45;&gt;Node11</title>
<path fill="none" stroke="midnightblue" d="M829.788,-65.5405C854.367,-70.8957 885.234,-77.6208 911.268,-83.293"/>
<polygon fill="midnightblue" stroke="midnightblue" points="910.838,-86.7814 921.354,-85.4905 912.328,-79.9418 910.838,-86.7814"/>
</g>
<!-- Node15 -->
<g id="node15" class="node"><title>Node15</title>
<g id="a_node15"><a xlink:href="classx265_1_1Entropy.html#a38c906d03fe47f10456a3d5bc0cd2080" target="_top" xlink:title="x265::Entropy::writeOut">
<polygon fill="white" stroke="black" points="725,-5.5 725,-24.5 845,-24.5 845,-5.5 725,-5.5"/>
<text text-anchor="middle" x="785" y="-12.5" font-family="Helvetica,sans-Serif" font-size="10.00">x265::Entropy::writeOut</text>
</a>
</g>
</g>
<!-- Node14&#45;&gt;Node15 -->
<g id="edge15" class="edge"><title>Node14&#45;&gt;Node15</title>
<path fill="none" stroke="midnightblue" d="M653.913,-40.4361C675.914,-36.1342 702.067,-31.0205 725.133,-26.5103"/>
<polygon fill="midnightblue" stroke="midnightblue" points="726.004,-29.9063 735.147,-24.5523 724.661,-23.0364 726.004,-29.9063"/>
</g>
<!-- Node16 -->
<g id="node16" class="node"><title>Node16</title>
<g id="a_node16"><a xlink:href="classx265_1_1BitInterface.html#a0ab2614d14b086091eefc0ed19f3be6d" target="_top" xlink:title="x265::BitInterface\l::writeByte">
<polygon fill="white" stroke="black" points="919,-0 919,-30 1013,-30 1013,-0 919,-0"/>
<text text-anchor="start" x="927" y="-18" font-family="Helvetica,sans-Serif" font-size="10.00">x265::BitInterface</text>
<text text-anchor="middle" x="966" y="-7" font-family="Helvetica,sans-Serif" font-size="10.00">::writeByte</text>
</a>
</g>
</g>
<!-- Node15&#45;&gt;Node16 -->
<g id="edge16" class="edge"><title>Node15&#45;&gt;Node16</title>
<path fill="none" stroke="midnightblue" d="M845.107,-15C865.667,-15 888.654,-15 908.957,-15"/>
<polygon fill="midnightblue" stroke="midnightblue" points="908.994,-18.5001 918.994,-15 908.994,-11.5001 908.994,-18.5001"/>
</g>
<!-- Node17&#45;&gt;Node15 -->
<g id="edge18" class="edge"><title>Node17&#45;&gt;Node15</title>
<path fill="none" stroke="midnightblue" d="M678.064,-13.2245C690.102,-13.4263 702.551,-13.6349 714.498,-13.8352"/>
<polygon fill="midnightblue" stroke="midnightblue" points="714.788,-17.3404 724.846,-14.0086 714.906,-10.3414 714.788,-17.3404"/>
</g>
</g>
</svg>
