<?xml version="1.0" encoding="UTF-8" standalone="no"?>
<!DOCTYPE svg PUBLIC "-//W3C//DTD SVG 1.1//EN"
 "http://www.w3.org/Graphics/SVG/1.1/DTD/svg11.dtd">
<!-- Generated by graphviz version 2.36.0 (20140111.2315)
 -->
<!-- Title: x265::DPB::recycleUnreferenced Pages: 1 -->
<svg width="350pt" height="142pt"
 viewBox="0.00 0.00 350.00 142.00" xmlns="http://www.w3.org/2000/svg" xmlns:xlink="http://www.w3.org/1999/xlink">
<g id="graph0" class="graph" transform="scale(1 1) rotate(0) translate(4 138)">
<title>x265::DPB::recycleUnreferenced</title>
<polygon fill="white" stroke="none" points="-4,4 -4,-138 346,-138 346,4 -4,4"/>
<!-- Node1 -->
<g id="node1" class="node"><title>Node1</title>
<polygon fill="#bfbfbf" stroke="black" points="0.5,-57.5 0.5,-76.5 161.5,-76.5 161.5,-57.5 0.5,-57.5"/>
<text text-anchor="middle" x="81" y="-64.5" font-family="Helvetica,sans-Serif" font-size="10.00">x265::DPB::recycleUnreferenced</text>
</g>
<!-- Node2 -->
<g id="node2" class="node"><title>Node2</title>
<g id="a_node2"><a xlink:href="classx265_1_1PicList.html#a078060a1a29ba1c310bb6db0e375752d" target="_top" xlink:title="x265::PicList::first">
<polygon fill="white" stroke="black" points="222,-114.5 222,-133.5 318,-133.5 318,-114.5 222,-114.5"/>
<text text-anchor="middle" x="270" y="-121.5" font-family="Helvetica,sans-Serif" font-size="10.00">x265::PicList::first</text>
</a>
</g>
</g>
<!-- Node1&#45;&gt;Node2 -->
<g id="edge1" class="edge"><title>Node1&#45;&gt;Node2</title>
<path fill="none" stroke="midnightblue" d="M109.992,-76.6495C133.403,-84.6039 167.734,-96.0003 198,-105 205.654,-107.276 213.808,-109.574 221.761,-111.749"/>
<polygon fill="midnightblue" stroke="midnightblue" points="221.108,-115.197 231.674,-114.425 222.932,-108.439 221.108,-115.197"/>
</g>
<!-- Node3 -->
<g id="node3" class="node"><title>Node3</title>
<g id="a_node3"><a xlink:href="classx265_1_1ThreadSafeInteger.html#a7ccef198afc7cd642b949381b0b9bbe8" target="_top" xlink:title="x265::ThreadSafeInteger::set">
<polygon fill="white" stroke="black" points="198.5,-76.5 198.5,-95.5 341.5,-95.5 341.5,-76.5 198.5,-76.5"/>
<text text-anchor="middle" x="270" y="-83.5" font-family="Helvetica,sans-Serif" font-size="10.00">x265::ThreadSafeInteger::set</text>
</a>
</g>
</g>
<!-- Node1&#45;&gt;Node3 -->
<g id="edge2" class="edge"><title>Node1&#45;&gt;Node3</title>
<path fill="none" stroke="midnightblue" d="M161.576,-75.0853C170.46,-75.9879 179.515,-76.9079 188.411,-77.8119"/>
<polygon fill="midnightblue" stroke="midnightblue" points="188.068,-81.2949 198.37,-78.8237 188.776,-74.3307 188.068,-81.2949"/>
</g>
<!-- Node4 -->
<g id="node4" class="node"><title>Node4</title>
<g id="a_node4"><a xlink:href="classx265_1_1PicList.html#aeaa49f1b6e568b0ac8ecc14f69d8404d" target="_top" xlink:title="x265::PicList::remove">
<polygon fill="white" stroke="black" points="214,-38.5 214,-57.5 326,-57.5 326,-38.5 214,-38.5"/>
<text text-anchor="middle" x="270" y="-45.5" font-family="Helvetica,sans-Serif" font-size="10.00">x265::PicList::remove</text>
</a>
</g>
</g>
<!-- Node1&#45;&gt;Node4 -->
<g id="edge3" class="edge"><title>Node1&#45;&gt;Node4</title>
<path fill="none" stroke="midnightblue" d="M161.576,-58.9147C175.597,-57.4901 190.046,-56.0221 203.622,-54.6427"/>
<polygon fill="midnightblue" stroke="midnightblue" points="204.217,-58.1003 213.812,-53.6073 203.51,-51.1362 204.217,-58.1003"/>
</g>
<!-- Node5 -->
<g id="node5" class="node"><title>Node5</title>
<g id="a_node5"><a xlink:href="classx265_1_1PicList.html#a3136480f7f313ad7beed7891557824cf" target="_top" xlink:title="x265::PicList::pushBack">
<polygon fill="white" stroke="black" points="208.5,-0.5 208.5,-19.5 331.5,-19.5 331.5,-0.5 208.5,-0.5"/>
<text text-anchor="middle" x="270" y="-7.5" font-family="Helvetica,sans-Serif" font-size="10.00">x265::PicList::pushBack</text>
</a>
</g>
</g>
<!-- Node1&#45;&gt;Node5 -->
<g id="edge4" class="edge"><title>Node1&#45;&gt;Node5</title>
<path fill="none" stroke="midnightblue" d="M109.992,-57.3505C133.403,-49.3961 167.734,-37.9997 198,-29 205.654,-26.7241 213.808,-24.4256 221.761,-22.2515"/>
<polygon fill="midnightblue" stroke="midnightblue" points="222.932,-25.5607 231.674,-19.5752 221.108,-18.8026 222.932,-25.5607"/>
</g>
</g>
</svg>
