<?xml version="1.0" encoding="UTF-8" standalone="no"?>
<!DOCTYPE svg PUBLIC "-//W3C//DTD SVG 1.1//EN"
 "http://www.w3.org/Graphics/SVG/1.1/DTD/svg11.dtd">
<!-- Generated by graphviz version 2.36.0 (20140111.2315)
 -->
<!-- Title: x265::PicList::getPOC Pages: 1 -->
<svg width="842pt" height="28pt"
 viewBox="0.00 0.00 842.00 28.00" xmlns="http://www.w3.org/2000/svg" xmlns:xlink="http://www.w3.org/1999/xlink">
<g id="graph0" class="graph" transform="scale(1 1) rotate(0) translate(4 24)">
<title>x265::PicList::getPOC</title>
<polygon fill="white" stroke="none" points="-4,4 -4,-24 838,-24 838,4 -4,4"/>
<!-- Node1 -->
<g id="node1" class="node"><title>Node1</title>
<polygon fill="#bfbfbf" stroke="black" points="0.5,-0.5 0.5,-19.5 115.5,-19.5 115.5,-0.5 0.5,-0.5"/>
<text text-anchor="middle" x="58" y="-7.5" font-family="Helvetica,sans-Serif" font-size="10.00">x265::PicList::getPOC</text>
</g>
<!-- Node2 -->
<g id="node2" class="node"><title>Node2</title>
<g id="a_node2"><a xlink:href="classx265_1_1Slice.html#a179dcdbc5038ba9d519f5b3fd205ae63" target="_top" xlink:title="x265::Slice::setRefPicList">
<polygon fill="white" stroke="black" points="152.5,-0.5 152.5,-19.5 283.5,-19.5 283.5,-0.5 152.5,-0.5"/>
<text text-anchor="middle" x="218" y="-7.5" font-family="Helvetica,sans-Serif" font-size="10.00">x265::Slice::setRefPicList</text>
</a>
</g>
</g>
<!-- Node1&#45;&gt;Node2 -->
<g id="edge1" class="edge"><title>Node1&#45;&gt;Node2</title>
<path fill="none" stroke="midnightblue" d="M125.831,-10C134.655,-10 143.687,-10 152.471,-10"/>
<polygon fill="midnightblue" stroke="midnightblue" points="125.595,-6.5001 115.595,-10 125.595,-13.5001 125.595,-6.5001"/>
</g>
<!-- Node3 -->
<g id="node3" class="node"><title>Node3</title>
<g id="a_node3"><a xlink:href="classx265_1_1DPB.html#a816f74b4e9b9a47b65f301b80caf7a41" target="_top" xlink:title="x265::DPB::prepareEncode">
<polygon fill="white" stroke="black" points="320,-0.5 320,-19.5 456,-19.5 456,-0.5 320,-0.5"/>
<text text-anchor="middle" x="388" y="-7.5" font-family="Helvetica,sans-Serif" font-size="10.00">x265::DPB::prepareEncode</text>
</a>
</g>
</g>
<!-- Node2&#45;&gt;Node3 -->
<g id="edge2" class="edge"><title>Node2&#45;&gt;Node3</title>
<path fill="none" stroke="midnightblue" d="M294.029,-10C302.681,-10 311.462,-10 319.998,-10"/>
<polygon fill="midnightblue" stroke="midnightblue" points="293.953,-6.5001 283.953,-10 293.953,-13.5001 293.953,-6.5001"/>
</g>
<!-- Node4 -->
<g id="node4" class="node"><title>Node4</title>
<g id="a_node4"><a xlink:href="classx265_1_1Encoder.html#af5c80cef5fcafa00d1b3c105681bc784" target="_top" xlink:title="x265::Encoder::encode">
<polygon fill="white" stroke="black" points="492.5,-0.5 492.5,-19.5 609.5,-19.5 609.5,-0.5 492.5,-0.5"/>
<text text-anchor="middle" x="551" y="-7.5" font-family="Helvetica,sans-Serif" font-size="10.00">x265::Encoder::encode</text>
</a>
</g>
</g>
<!-- Node3&#45;&gt;Node4 -->
<g id="edge3" class="edge"><title>Node3&#45;&gt;Node4</title>
<path fill="none" stroke="midnightblue" d="M466.522,-10C475.23,-10 483.984,-10 492.376,-10"/>
<polygon fill="midnightblue" stroke="midnightblue" points="466.346,-6.5001 456.346,-10 466.346,-13.5001 466.346,-6.5001"/>
</g>
<!-- Node5 -->
<g id="node5" class="node"><title>Node5</title>
<g id="a_node5"><a xlink:href="x265_8h.html#a7a45a920b9d86ed3fb3cb3794b14f5ea" target="_top" xlink:title="x265_encoder_encode">
<polygon fill="white" stroke="black" points="646,-0.5 646,-19.5 760,-19.5 760,-0.5 646,-0.5"/>
<text text-anchor="middle" x="703" y="-7.5" font-family="Helvetica,sans-Serif" font-size="10.00">x265_encoder_encode</text>
</a>
</g>
</g>
<!-- Node4&#45;&gt;Node5 -->
<g id="edge4" class="edge"><title>Node4&#45;&gt;Node5</title>
<path fill="none" stroke="midnightblue" d="M619.721,-10C628.45,-10 637.311,-10 645.826,-10"/>
<polygon fill="midnightblue" stroke="midnightblue" points="619.565,-6.5001 609.565,-10 619.565,-13.5001 619.565,-6.5001"/>
</g>
<!-- Node6 -->
<g id="node6" class="node"><title>Node6</title>
<g id="a_node6"><a xlink:href="x265_8cpp.html#a3c04138a5bfe5d72780bb7e82a18e627" target="_top" xlink:title="main">
<polygon fill="white" stroke="black" points="796,-0.5 796,-19.5 834,-19.5 834,-0.5 796,-0.5"/>
<text text-anchor="middle" x="815" y="-7.5" font-family="Helvetica,sans-Serif" font-size="10.00">main</text>
</a>
</g>
</g>
<!-- Node5&#45;&gt;Node6 -->
<g id="edge5" class="edge"><title>Node5&#45;&gt;Node6</title>
<path fill="none" stroke="midnightblue" d="M770.493,-10C779.781,-10 788.611,-10 795.859,-10"/>
<polygon fill="midnightblue" stroke="midnightblue" points="770.289,-6.5001 760.289,-10 770.289,-13.5001 770.289,-6.5001"/>
</g>
</g>
</svg>
