<?xml version="1.0" encoding="UTF-8" standalone="no"?>
<!DOCTYPE svg PUBLIC "-//W3C//DTD SVG 1.1//EN"
 "http://www.w3.org/Graphics/SVG/1.1/DTD/svg11.dtd">
<!-- Generated by graphviz version 2.36.0 (20140111.2315)
 -->
<!-- Title: x265::RateControl::vbv2Pass Pages: 1 -->
<svg width="324pt" height="175pt"
 viewBox="0.00 0.00 324.00 175.00" xmlns="http://www.w3.org/2000/svg" xmlns:xlink="http://www.w3.org/1999/xlink">
<g id="graph0" class="graph" transform="scale(1 1) rotate(0) translate(4 171)">
<title>x265::RateControl::vbv2Pass</title>
<polygon fill="white" stroke="none" points="-4,4 -4,-171 320,-171 320,4 -4,4"/>
<!-- Node1 -->
<g id="node1" class="node"><title>Node1</title>
<polygon fill="#bfbfbf" stroke="black" points="0,-63 0,-93 102,-93 102,-63 0,-63"/>
<text text-anchor="start" x="8" y="-81" font-family="Helvetica,sans-Serif" font-size="10.00">x265::RateControl::</text>
<text text-anchor="middle" x="51" y="-70" font-family="Helvetica,sans-Serif" font-size="10.00">vbv2Pass</text>
</g>
<!-- Node2 -->
<g id="node2" class="node"><title>Node2</title>
<g id="a_node2"><a xlink:href="classx265_1_1RateControl.html#ae347530d6985d9422f190ed031e69686" target="_top" xlink:title="x265::RateControl::\lfindUnderflow">
<polygon fill="white" stroke="black" points="138,-137 138,-167 240,-167 240,-137 138,-137"/>
<text text-anchor="start" x="146" y="-155" font-family="Helvetica,sans-Serif" font-size="10.00">x265::RateControl::</text>
<text text-anchor="middle" x="189" y="-144" font-family="Helvetica,sans-Serif" font-size="10.00">findUnderflow</text>
</a>
</g>
</g>
<!-- Node1&#45;&gt;Node2 -->
<g id="edge1" class="edge"><title>Node1&#45;&gt;Node2</title>
<path fill="none" stroke="midnightblue" d="M77.7634,-93.1645C94.7428,-103.038 117.54,-116.066 138,-127 141.274,-128.75 144.686,-130.534 148.121,-132.305"/>
<polygon fill="midnightblue" stroke="midnightblue" points="146.693,-135.505 157.192,-136.924 149.869,-129.267 146.693,-135.505"/>
</g>
<!-- Node4 -->
<g id="node4" class="node"><title>Node4</title>
<g id="a_node4"><a xlink:href="classx265_1_1RateControl.html#a301291752f441257f511939a62cb8cc1" target="_top" xlink:title="x265::RateControl::\lfixUnderflow">
<polygon fill="white" stroke="black" points="138,-88 138,-118 240,-118 240,-88 138,-88"/>
<text text-anchor="start" x="146" y="-106" font-family="Helvetica,sans-Serif" font-size="10.00">x265::RateControl::</text>
<text text-anchor="middle" x="189" y="-95" font-family="Helvetica,sans-Serif" font-size="10.00">fixUnderflow</text>
</a>
</g>
</g>
<!-- Node1&#45;&gt;Node4 -->
<g id="edge3" class="edge"><title>Node1&#45;&gt;Node4</title>
<path fill="none" stroke="midnightblue" d="M102.255,-87.238C110.63,-88.7776 119.392,-90.3882 127.981,-91.9671"/>
<polygon fill="midnightblue" stroke="midnightblue" points="127.484,-95.4342 137.952,-93.7999 128.749,-88.5496 127.484,-95.4342"/>
</g>
<!-- Node5 -->
<g id="node5" class="node"><title>Node5</title>
<g id="a_node5"><a xlink:href="classx265_1_1RateControl.html#aa1a80e5a87ce7cc73c4f922933e90ed3" target="_top" xlink:title="x265::RateControl::\lcountExpectedBits">
<polygon fill="white" stroke="black" points="138,-39 138,-69 240,-69 240,-39 138,-39"/>
<text text-anchor="start" x="146" y="-57" font-family="Helvetica,sans-Serif" font-size="10.00">x265::RateControl::</text>
<text text-anchor="middle" x="189" y="-46" font-family="Helvetica,sans-Serif" font-size="10.00">countExpectedBits</text>
</a>
</g>
</g>
<!-- Node1&#45;&gt;Node5 -->
<g id="edge5" class="edge"><title>Node1&#45;&gt;Node5</title>
<path fill="none" stroke="midnightblue" d="M102.255,-69.1315C110.63,-67.6535 119.392,-66.1073 127.981,-64.5916"/>
<polygon fill="midnightblue" stroke="midnightblue" points="128.712,-68.0168 137.952,-62.8321 127.495,-61.1233 128.712,-68.0168"/>
</g>
<!-- Node6 -->
<g id="node6" class="node"><title>Node6</title>
<g id="a_node6"><a xlink:href="common_8cpp.html#a746489f014374f963df715ddf9bd3986" target="_top" xlink:title="x265_log">
<polygon fill="white" stroke="black" points="161,-0.5 161,-19.5 217,-19.5 217,-0.5 161,-0.5"/>
<text text-anchor="middle" x="189" y="-7.5" font-family="Helvetica,sans-Serif" font-size="10.00">x265_log</text>
</a>
</g>
</g>
<!-- Node1&#45;&gt;Node6 -->
<g id="edge6" class="edge"><title>Node1&#45;&gt;Node6</title>
<path fill="none" stroke="midnightblue" d="M77.1367,-62.8425C94.0488,-52.9271 117.008,-40.0055 138,-30 142.731,-27.7448 147.788,-25.5182 152.802,-23.4158"/>
<polygon fill="midnightblue" stroke="midnightblue" points="154.35,-26.5645 162.291,-19.551 151.709,-20.0816 154.35,-26.5645"/>
</g>
<!-- Node3 -->
<g id="node3" class="node"><title>Node3</title>
<g id="a_node3"><a xlink:href="common_8h.html#a0bc45c2b4097068046b78520c8c09a94" target="_top" xlink:title="Clip3">
<polygon fill="white" stroke="black" points="276.5,-117.5 276.5,-136.5 315.5,-136.5 315.5,-117.5 276.5,-117.5"/>
<text text-anchor="middle" x="296" y="-124.5" font-family="Helvetica,sans-Serif" font-size="10.00">Clip3</text>
</a>
</g>
</g>
<!-- Node2&#45;&gt;Node3 -->
<g id="edge2" class="edge"><title>Node2&#45;&gt;Node3</title>
<path fill="none" stroke="midnightblue" d="M240.04,-140.086C249.102,-137.928 258.262,-135.747 266.436,-133.801"/>
<polygon fill="midnightblue" stroke="midnightblue" points="267.265,-137.201 276.183,-131.48 265.644,-130.392 267.265,-137.201"/>
</g>
<!-- Node4&#45;&gt;Node3 -->
<g id="edge4" class="edge"><title>Node4&#45;&gt;Node3</title>
<path fill="none" stroke="midnightblue" d="M240.04,-114.438C249.001,-116.486 258.058,-118.556 266.164,-120.409"/>
<polygon fill="midnightblue" stroke="midnightblue" points="265.654,-123.883 276.183,-122.699 267.214,-117.059 265.654,-123.883"/>
</g>
</g>
</svg>
