<?xml version="1.0" encoding="UTF-8" standalone="no"?>
<!DOCTYPE svg PUBLIC "-//W3C//DTD SVG 1.1//EN"
 "http://www.w3.org/Graphics/SVG/1.1/DTD/svg11.dtd">
<!-- Generated by graphviz version 2.36.0 (20140111.2315)
 -->
<!-- Title: x265::Entropy::codeRefFrmIdx Pages: 1 -->
<!--zoomable 531 -->
<svg id="main" version="1.1" xmlns="http://www.w3.org/2000/svg" xmlns:xlink="http://www.w3.org/1999/xlink" xml:space="preserve" onload="init(evt)">
<style type="text/css"><![CDATA[
.edge:hover path { stroke: red; }
.edge:hover polygon { stroke: red; fill: red; }
]]></style>
<script type="text/javascript"><![CDATA[
var edges = document.getElementsByTagName('g');
if (edges && edges.length) {
  for (var i=0;i<edges.length;i++) {
    if (edges[i].id.substr(0,4)=='edge') {
      edges[i].setAttribute('class','edge');
    }
  }
}
]]></script>
        <defs>
                <circle id="rim" cx="0" cy="0" r="7"/>
                <circle id="rim2" cx="0" cy="0" r="3.5"/>
                <g id="zoomPlus">
                        <use xlink:href="#rim" fill="#404040">
                                <set attributeName="fill" to="#808080" begin="zoomplus.mouseover" end="zoomplus.mouseout"/>
                        </use>
                        <path d="M-4,0h8M0,-4v8" fill="none" stroke="white" stroke-width="1.5" pointer-events="none"/>
                </g>
                <g id="zoomMin">
                        <use xlink:href="#rim" fill="#404040">
                                <set attributeName="fill" to="#808080" begin="zoomminus.mouseover" end="zoomminus.mouseout"/>
                        </use>
                        <path d="M-4,0h8" fill="none" stroke="white" stroke-width="1.5" pointer-events="none"/>
                </g>
                <g id="dirArrow">
                        <path fill="none" stroke="white" stroke-width="1.5" d="M0,-3.0v7 M-2.5,-0.5L0,-3.0L2.5,-0.5"/>
                </g>
               <g id="resetDef">
                       <use xlink:href="#rim2" fill="#404040">
                               <set attributeName="fill" to="#808080" begin="reset.mouseover" end="reset.mouseout"/>
                       </use>
               </g>
        </defs>

<script type="text/javascript">
var viewWidth = 1878;
var viewHeight = 531;
var sectionId = 'dynsection-55';
</script>
<script xlink:href="svgpan.js"/>
<svg id="graph" class="graph">
<g id="viewport">
<title>x265::Entropy::codeRefFrmIdx</title>
<polygon fill="white" stroke="none" points="-4,4 -4,-527.239 1874,-527.239 1874,4 -4,4"/>
<!-- Node1 -->
<g id="node1" class="node"><title>Node1</title>
<polygon fill="#bfbfbf" stroke="black" points="0.5,-187.576 0.5,-206.576 151.5,-206.576 151.5,-187.576 0.5,-187.576"/>
<text text-anchor="middle" x="76" y="-194.576" font-family="Helvetica,sans-Serif" font-size="10.00">x265::Entropy::codeRefFrmIdx</text>
</g>
<!-- Node2 -->
<g id="node2" class="node"><title>Node2</title>
<g id="a_node2"><a xlink:href="classx265_1_1Entropy.html#afd06020e84aa5af4334ca240fcb84478" target="_top" xlink:title="x265::Entropy::codeRefFrm\lIdxPU">
<polygon fill="white" stroke="black" points="188.5,-182.076 188.5,-212.076 325.5,-212.076 325.5,-182.076 188.5,-182.076"/>
<text text-anchor="start" x="196.5" y="-200.076" font-family="Helvetica,sans-Serif" font-size="10.00">x265::Entropy::codeRefFrm</text>
<text text-anchor="middle" x="257" y="-189.076" font-family="Helvetica,sans-Serif" font-size="10.00">IdxPU</text>
</a>
</g>
</g>
<!-- Node1&#45;&gt;Node2 -->
<g id="edge1" class="edge"><title>Node1&#45;&gt;Node2</title>
<path fill="none" stroke="midnightblue" d="M161.676,-197.076C170.627,-197.076 179.642,-197.076 188.363,-197.076"/>
<polygon fill="midnightblue" stroke="midnightblue" points="161.616,-193.576 151.616,-197.076 161.616,-200.576 161.616,-193.576"/>
</g>
<!-- Node3 -->
<g id="node3" class="node"><title>Node3</title>
<g id="a_node3"><a xlink:href="classx265_1_1Entropy.html#af4c256cca3be50b1f7e6695f7447ffd8" target="_top" xlink:title="x265::Entropy::codePUWise">
<polygon fill="white" stroke="black" points="362.5,-187.576 362.5,-206.576 503.5,-206.576 503.5,-187.576 362.5,-187.576"/>
<text text-anchor="middle" x="433" y="-194.576" font-family="Helvetica,sans-Serif" font-size="10.00">x265::Entropy::codePUWise</text>
</a>
</g>
</g>
<!-- Node2&#45;&gt;Node3 -->
<g id="edge2" class="edge"><title>Node2&#45;&gt;Node3</title>
<path fill="none" stroke="midnightblue" d="M336.016,-197.076C344.811,-197.076 353.729,-197.076 362.406,-197.076"/>
<polygon fill="midnightblue" stroke="midnightblue" points="335.771,-193.576 325.771,-197.076 335.771,-200.576 335.771,-193.576"/>
</g>
<!-- Node4 -->
<g id="node4" class="node"><title>Node4</title>
<g id="a_node4"><a xlink:href="classx265_1_1Entropy.html#a2a627c1c7ab4aee68a3b6c3b572e649a" target="_top" xlink:title="x265::Entropy::codePredInfo">
<polygon fill="white" stroke="black" points="540.5,-187.576 540.5,-206.576 681.5,-206.576 681.5,-187.576 540.5,-187.576"/>
<text text-anchor="middle" x="611" y="-194.576" font-family="Helvetica,sans-Serif" font-size="10.00">x265::Entropy::codePredInfo</text>
</a>
</g>
</g>
<!-- Node3&#45;&gt;Node4 -->
<g id="edge3" class="edge"><title>Node3&#45;&gt;Node4</title>
<path fill="none" stroke="midnightblue" d="M513.581,-197.076C522.518,-197.076 531.571,-197.076 540.369,-197.076"/>
<polygon fill="midnightblue" stroke="midnightblue" points="513.56,-193.576 503.56,-197.076 513.56,-200.576 513.56,-193.576"/>
</g>
<!-- Node5 -->
<g id="node5" class="node"><title>Node5</title>
<g id="a_node5"><a xlink:href="classx265_1_1Analysis.html#ae4d61bcf4d2c22a054d68d6d77136428" target="_top" xlink:title="x265::Analysis::encodeIntra\lInInter">
<polygon fill="white" stroke="black" points="718,-430.076 718,-460.076 856,-460.076 856,-430.076 718,-430.076"/>
<text text-anchor="start" x="726" y="-448.076" font-family="Helvetica,sans-Serif" font-size="10.00">x265::Analysis::encodeIntra</text>
<text text-anchor="middle" x="787" y="-437.076" font-family="Helvetica,sans-Serif" font-size="10.00">InInter</text>
</a>
</g>
</g>
<!-- Node4&#45;&gt;Node5 -->
<g id="edge4" class="edge"><title>Node4&#45;&gt;Node5</title>
<path fill="none" stroke="midnightblue" d="M624.625,-215.07C657.465,-261.877 745.111,-386.798 775.472,-430.071"/>
<polygon fill="midnightblue" stroke="midnightblue" points="627.43,-212.974 618.821,-206.798 621.699,-216.994 627.43,-212.974"/>
</g>
<!-- Node13 -->
<g id="node13" class="node"><title>Node13</title>
<g id="a_node13"><a xlink:href="classx265_1_1Entropy.html#adeb50a7c9a5df6643407d01158d93799" target="_top" xlink:title="x265::Entropy::encodeCU">
<polygon fill="white" stroke="black" points="722,-63.5758 722,-82.5758 852,-82.5758 852,-63.5758 722,-63.5758"/>
<text text-anchor="middle" x="787" y="-70.5758" font-family="Helvetica,sans-Serif" font-size="10.00">x265::Entropy::encodeCU</text>
</a>
</g>
</g>
<!-- Node4&#45;&gt;Node13 -->
<g id="edge14" class="edge"><title>Node4&#45;&gt;Node13</title>
<path fill="none" stroke="midnightblue" d="M633.801,-181.539C670.196,-155.603 742.297,-104.221 772.35,-82.8034"/>
<polygon fill="midnightblue" stroke="midnightblue" points="631.477,-178.898 625.365,-187.552 635.539,-184.598 631.477,-178.898"/>
</g>
<!-- Node17 -->
<g id="node17" class="node"><title>Node17</title>
<g id="a_node17"><a xlink:href="classx265_1_1Search.html#ab02df91827cf67796d1605bde60c6aed" target="_top" xlink:title="x265::Search::checkIntra">
<polygon fill="white" stroke="black" points="903,-166.576 903,-185.576 1029,-185.576 1029,-166.576 903,-166.576"/>
<text text-anchor="middle" x="966" y="-173.576" font-family="Helvetica,sans-Serif" font-size="10.00">x265::Search::checkIntra</text>
</a>
</g>
</g>
<!-- Node4&#45;&gt;Node17 -->
<g id="edge19" class="edge"><title>Node4&#45;&gt;Node17</title>
<path fill="none" stroke="midnightblue" d="M691.779,-192.33C755.679,-188.528 844.05,-183.271 902.79,-179.777"/>
<polygon fill="midnightblue" stroke="midnightblue" points="691.516,-188.839 681.741,-192.927 691.932,-195.827 691.516,-188.839"/>
</g>
<!-- Node21 -->
<g id="node21" class="node"><title>Node21</title>
<g id="a_node21"><a xlink:href="classx265_1_1Search.html#aba5e04ce529f41accd43c540ba1dc7ad" target="_top" xlink:title="x265::Search::encodeResAnd\lCalcRdInterCU">
<polygon fill="white" stroke="black" points="892.5,-238.076 892.5,-268.076 1039.5,-268.076 1039.5,-238.076 892.5,-238.076"/>
<text text-anchor="start" x="900.5" y="-256.076" font-family="Helvetica,sans-Serif" font-size="10.00">x265::Search::encodeResAnd</text>
<text text-anchor="middle" x="966" y="-245.076" font-family="Helvetica,sans-Serif" font-size="10.00">CalcRdInterCU</text>
</a>
</g>
</g>
<!-- Node4&#45;&gt;Node21 -->
<g id="edge29" class="edge"><title>Node4&#45;&gt;Node21</title>
<path fill="none" stroke="midnightblue" d="M682.192,-208.211C743.084,-217.871 830.881,-231.799 892.454,-241.567"/>
<polygon fill="midnightblue" stroke="midnightblue" points="682.707,-204.749 672.282,-206.639 681.61,-211.663 682.707,-204.749"/>
</g>
<!-- Node6 -->
<g id="node6" class="node"><title>Node6</title>
<g id="a_node6"><a xlink:href="classx265_1_1Analysis.html#aa6122285d10bb1bd7584958b88b029d5" target="_top" xlink:title="x265::Analysis::parallel\lModeAnalysis">
<polygon fill="white" stroke="black" points="907,-452.076 907,-482.076 1025,-482.076 1025,-452.076 907,-452.076"/>
<text text-anchor="start" x="915" y="-470.076" font-family="Helvetica,sans-Serif" font-size="10.00">x265::Analysis::parallel</text>
<text text-anchor="middle" x="966" y="-459.076" font-family="Helvetica,sans-Serif" font-size="10.00">ModeAnalysis</text>
</a>
</g>
</g>
<!-- Node5&#45;&gt;Node6 -->
<g id="edge5" class="edge"><title>Node5&#45;&gt;Node6</title>
<path fill="none" stroke="midnightblue" d="M866.492,-454.832C880.088,-456.522 894.002,-458.251 906.931,-459.858"/>
<polygon fill="midnightblue" stroke="midnightblue" points="866.535,-451.31 856.18,-453.55 865.672,-458.257 866.535,-451.31"/>
</g>
<!-- Node8 -->
<g id="node8" class="node"><title>Node8</title>
<g id="a_node8"><a xlink:href="classx265_1_1Analysis.html#a87060ff27a37f56adc5f5b8a4c033ece" target="_top" xlink:title="x265::Analysis::compress\lInterCU_dist">
<polygon fill="white" stroke="black" points="1258,-350.076 1258,-380.076 1388,-380.076 1388,-350.076 1258,-350.076"/>
<text text-anchor="start" x="1266" y="-368.076" font-family="Helvetica,sans-Serif" font-size="10.00">x265::Analysis::compress</text>
<text text-anchor="middle" x="1323" y="-357.076" font-family="Helvetica,sans-Serif" font-size="10.00">InterCU_dist</text>
</a>
</g>
</g>
<!-- Node5&#45;&gt;Node8 -->
<g id="edge11" class="edge"><title>Node5&#45;&gt;Node8</title>
<path fill="none" stroke="midnightblue" d="M822.777,-464.834C842.422,-474.856 867.82,-485.967 892,-491.076 1035.54,-521.403 1090.27,-547.662 1222,-483.076 1267.81,-460.615 1300.71,-406.495 1314.62,-380.082"/>
<polygon fill="midnightblue" stroke="midnightblue" points="824.386,-461.726 813.904,-460.183 821.136,-467.926 824.386,-461.726"/>
</g>
<!-- Node12 -->
<g id="node12" class="node"><title>Node12</title>
<g id="a_node12"><a xlink:href="classx265_1_1Analysis.html#a30d2ff7eca5addbb0a6b3dfe14f09650" target="_top" xlink:title="x265::Analysis::compress\lInterCU_rd0_4">
<polygon fill="white" stroke="black" points="1258,-282.076 1258,-312.076 1388,-312.076 1388,-282.076 1258,-282.076"/>
<text text-anchor="start" x="1266" y="-300.076" font-family="Helvetica,sans-Serif" font-size="10.00">x265::Analysis::compress</text>
<text text-anchor="middle" x="1323" y="-289.076" font-family="Helvetica,sans-Serif" font-size="10.00">InterCU_rd0_4</text>
</a>
</g>
</g>
<!-- Node5&#45;&gt;Node12 -->
<g id="edge12" class="edge"><title>Node5&#45;&gt;Node12</title>
<path fill="none" stroke="midnightblue" d="M866.352,-440.605C955.502,-433.284 1104.01,-414.216 1222,-365.076 1239.98,-357.586 1241.91,-351.063 1258,-340.076 1271.71,-330.713 1287.15,-320.332 1299.43,-312.116"/>
<polygon fill="midnightblue" stroke="midnightblue" points="866.007,-437.121 856.315,-441.4 866.56,-444.099 866.007,-437.121"/>
</g>
<!-- Node7 -->
<g id="node7" class="node"><title>Node7</title>
<g id="a_node7"><a xlink:href="classx265_1_1Analysis.html#a29a58dad4cc1c07d2f5e5717c6be7c25" target="_top" xlink:title="x265::Analysis::findJob">
<polygon fill="white" stroke="black" points="1089.5,-454.576 1089.5,-473.576 1208.5,-473.576 1208.5,-454.576 1089.5,-454.576"/>
<text text-anchor="middle" x="1149" y="-461.576" font-family="Helvetica,sans-Serif" font-size="10.00">x265::Analysis::findJob</text>
</a>
</g>
</g>
<!-- Node6&#45;&gt;Node7 -->
<g id="edge6" class="edge"><title>Node6&#45;&gt;Node7</title>
<path fill="none" stroke="midnightblue" d="M1035.52,-465.94C1053.2,-465.647 1072.08,-465.334 1089.22,-465.05"/>
<polygon fill="midnightblue" stroke="midnightblue" points="1035.21,-462.445 1025.27,-466.11 1035.32,-469.444 1035.21,-462.445"/>
</g>
<!-- Node7&#45;&gt;Node8 -->
<g id="edge7" class="edge"><title>Node7&#45;&gt;Node8</title>
<path fill="none" stroke="midnightblue" d="M1190.36,-451.086C1200.9,-447.118 1212.09,-442.381 1222,-437.076 1252.74,-420.622 1284.88,-395.931 1304.17,-380.164"/>
<polygon fill="midnightblue" stroke="midnightblue" points="1189.12,-447.812 1180.91,-454.508 1191.5,-454.394 1189.12,-447.812"/>
</g>
<!-- Node9 -->
<g id="node9" class="node"><title>Node9</title>
<g id="a_node9"><a xlink:href="classx265_1_1Analysis.html#aaebc9de2ff98834c650244f3b58942c2" target="_top" xlink:title="x265::Analysis::compressCTU">
<polygon fill="white" stroke="black" points="1424.5,-199.576 1424.5,-218.576 1575.5,-218.576 1575.5,-199.576 1424.5,-199.576"/>
<text text-anchor="middle" x="1500" y="-206.576" font-family="Helvetica,sans-Serif" font-size="10.00">x265::Analysis::compressCTU</text>
</a>
</g>
</g>
<!-- Node8&#45;&gt;Node9 -->
<g id="edge8" class="edge"><title>Node8&#45;&gt;Node9</title>
<path fill="none" stroke="midnightblue" d="M1356.59,-344.398C1366.93,-337.386 1378.22,-329.249 1388,-321.076 1429.38,-286.494 1472.81,-238.812 1490.62,-218.67"/>
<polygon fill="midnightblue" stroke="midnightblue" points="1354.56,-341.545 1348.18,-350.001 1358.44,-347.372 1354.56,-341.545"/>
</g>
<!-- Node10 -->
<g id="node10" class="node"><title>Node10</title>
<g id="a_node10"><a xlink:href="classx265_1_1FrameEncoder.html#a0ae85001572afd28238476542523ac5f" target="_top" xlink:title="x265::FrameEncoder\l::processRowEncoder">
<polygon fill="white" stroke="black" points="1612.5,-87.0758 1612.5,-117.076 1725.5,-117.076 1725.5,-87.0758 1612.5,-87.0758"/>
<text text-anchor="start" x="1620.5" y="-105.076" font-family="Helvetica,sans-Serif" font-size="10.00">x265::FrameEncoder</text>
<text text-anchor="middle" x="1669" y="-94.0758" font-family="Helvetica,sans-Serif" font-size="10.00">::processRowEncoder</text>
</a>
</g>
</g>
<!-- Node9&#45;&gt;Node10 -->
<g id="edge9" class="edge"><title>Node9&#45;&gt;Node10</title>
<path fill="none" stroke="midnightblue" d="M1524.77,-193.845C1556.55,-173.482 1612.56,-137.598 1644.3,-117.259"/>
<polygon fill="midnightblue" stroke="midnightblue" points="1522.65,-191.05 1516.11,-199.392 1526.42,-196.944 1522.65,-191.05"/>
</g>
<!-- Node11 -->
<g id="node11" class="node"><title>Node11</title>
<g id="a_node11"><a xlink:href="classx265_1_1FrameEncoder.html#acad645a8ece97d884895f8f7366b7d70" target="_top" xlink:title="x265::FrameEncoder\l::processRow">
<polygon fill="white" stroke="red" points="1762.5,-87.0758 1762.5,-117.076 1869.5,-117.076 1869.5,-87.0758 1762.5,-87.0758"/>
<text text-anchor="start" x="1770.5" y="-105.076" font-family="Helvetica,sans-Serif" font-size="10.00">x265::FrameEncoder</text>
<text text-anchor="middle" x="1816" y="-94.0758" font-family="Helvetica,sans-Serif" font-size="10.00">::processRow</text>
</a>
</g>
</g>
<!-- Node10&#45;&gt;Node11 -->
<g id="edge10" class="edge"><title>Node10&#45;&gt;Node11</title>
<path fill="none" stroke="midnightblue" d="M1735.88,-102.076C1744.67,-102.076 1753.59,-102.076 1762.13,-102.076"/>
<polygon fill="midnightblue" stroke="midnightblue" points="1735.65,-98.5759 1725.65,-102.076 1735.65,-105.576 1735.65,-98.5759"/>
</g>
<!-- Node12&#45;&gt;Node9 -->
<g id="edge13" class="edge"><title>Node12&#45;&gt;Node9</title>
<path fill="none" stroke="midnightblue" d="M1363.43,-277.25C1399.82,-258.95 1452.3,-232.558 1480.09,-218.587"/>
<polygon fill="midnightblue" stroke="midnightblue" points="1361.45,-274.329 1354.08,-281.948 1364.59,-280.582 1361.45,-274.329"/>
</g>
<!-- Node14 -->
<g id="node14" class="node"><title>Node14</title>
<g id="a_node14"><a xlink:href="classx265_1_1Entropy.html#abb101b71f310e90eb504a8204babc180" target="_top" xlink:title="x265::Entropy::encodeCTU">
<polygon fill="white" stroke="black" points="898,-29.5758 898,-48.5758 1034,-48.5758 1034,-29.5758 898,-29.5758"/>
<text text-anchor="middle" x="966" y="-36.5758" font-family="Helvetica,sans-Serif" font-size="10.00">x265::Entropy::encodeCTU</text>
</a>
</g>
</g>
<!-- Node13&#45;&gt;Node14 -->
<g id="edge15" class="edge"><title>Node13&#45;&gt;Node14</title>
<path fill="none" stroke="midnightblue" d="M847.664,-61.615C869.642,-57.3931 894.285,-52.6595 915.292,-48.6242"/>
<polygon fill="midnightblue" stroke="midnightblue" points="846.936,-58.1907 837.775,-63.5144 848.256,-65.0651 846.936,-58.1907"/>
</g>
<!-- Node14&#45;&gt;Node10 -->
<g id="edge18" class="edge"><title>Node14&#45;&gt;Node10</title>
<path fill="none" stroke="midnightblue" d="M1009.78,-26.9152C1029.72,-21.8536 1053.89,-16.5794 1076,-14.0758 1213.79,1.52292 1250.94,6.9555 1388,-14.0758 1478.41,-27.9481 1579.69,-65.6311 1632.15,-86.9139"/>
<polygon fill="midnightblue" stroke="midnightblue" points="1008.85,-23.5389 1000.06,-29.448 1010.62,-30.3126 1008.85,-23.5389"/>
</g>
<!-- Node15 -->
<g id="node15" class="node"><title>Node15</title>
<g id="a_node15"><a xlink:href="classx265_1_1FrameEncoder.html#a6d4045d35bfe6b10c8d0dc39353be360" target="_top" xlink:title="x265::FrameEncoder\l::encodeSlice">
<polygon fill="white" stroke="black" points="1095.5,-24.0758 1095.5,-54.0758 1202.5,-54.0758 1202.5,-24.0758 1095.5,-24.0758"/>
<text text-anchor="start" x="1103.5" y="-42.0758" font-family="Helvetica,sans-Serif" font-size="10.00">x265::FrameEncoder</text>
<text text-anchor="middle" x="1149" y="-31.0758" font-family="Helvetica,sans-Serif" font-size="10.00">::encodeSlice</text>
</a>
</g>
</g>
<!-- Node14&#45;&gt;Node15 -->
<g id="edge16" class="edge"><title>Node14&#45;&gt;Node15</title>
<path fill="none" stroke="midnightblue" d="M1044.21,-39.0758C1061.47,-39.0758 1079.39,-39.0758 1095.39,-39.0758"/>
<polygon fill="midnightblue" stroke="midnightblue" points="1044.14,-35.5759 1034.14,-39.0758 1044.14,-42.5759 1044.14,-35.5759"/>
</g>
<!-- Node16 -->
<g id="node16" class="node"><title>Node16</title>
<g id="a_node16"><a xlink:href="classx265_1_1FrameEncoder.html#a2f5c4c0f1a4e36fce4c9b87eb7ec4973" target="_top" xlink:title="x265::FrameEncoder\l::compressFrame">
<polygon fill="white" stroke="red" points="1269.5,-24.0758 1269.5,-54.0758 1376.5,-54.0758 1376.5,-24.0758 1269.5,-24.0758"/>
<text text-anchor="start" x="1277.5" y="-42.0758" font-family="Helvetica,sans-Serif" font-size="10.00">x265::FrameEncoder</text>
<text text-anchor="middle" x="1323" y="-31.0758" font-family="Helvetica,sans-Serif" font-size="10.00">::compressFrame</text>
</a>
</g>
</g>
<!-- Node15&#45;&gt;Node16 -->
<g id="edge17" class="edge"><title>Node15&#45;&gt;Node16</title>
<path fill="none" stroke="midnightblue" d="M1212.71,-39.0758C1231.35,-39.0758 1251.57,-39.0758 1269.49,-39.0758"/>
<polygon fill="midnightblue" stroke="midnightblue" points="1212.54,-35.5759 1202.54,-39.0758 1212.54,-42.5759 1212.54,-35.5759"/>
</g>
<!-- Node18 -->
<g id="node18" class="node"><title>Node18</title>
<g id="a_node18"><a xlink:href="classx265_1_1Analysis.html#a10f0a8d9d143faf8dc671c6f0982693d" target="_top" xlink:title="x265::Analysis::tryLossless">
<polygon fill="white" stroke="black" points="1080.5,-199.576 1080.5,-218.576 1217.5,-218.576 1217.5,-199.576 1080.5,-199.576"/>
<text text-anchor="middle" x="1149" y="-206.576" font-family="Helvetica,sans-Serif" font-size="10.00">x265::Analysis::tryLossless</text>
</a>
</g>
</g>
<!-- Node17&#45;&gt;Node18 -->
<g id="edge20" class="edge"><title>Node17&#45;&gt;Node18</title>
<path fill="none" stroke="midnightblue" d="M1029.43,-187.457C1051.05,-191.4 1075.05,-195.775 1095.76,-199.552"/>
<polygon fill="midnightblue" stroke="midnightblue" points="1029.82,-183.971 1019.35,-185.621 1028.56,-190.858 1029.82,-183.971"/>
</g>
<!-- Node19 -->
<g id="node19" class="node"><title>Node19</title>
<g id="a_node19"><a xlink:href="classx265_1_1Analysis.html#aae2a6a2252270782b591d2bed7e99dae" target="_top" xlink:title="x265::Analysis::compress\lIntraCU">
<polygon fill="white" stroke="black" points="1258,-145.076 1258,-175.076 1388,-175.076 1388,-145.076 1258,-145.076"/>
<text text-anchor="start" x="1266" y="-163.076" font-family="Helvetica,sans-Serif" font-size="10.00">x265::Analysis::compress</text>
<text text-anchor="middle" x="1323" y="-152.076" font-family="Helvetica,sans-Serif" font-size="10.00">IntraCU</text>
</a>
</g>
</g>
<!-- Node17&#45;&gt;Node19 -->
<g id="edge27" class="edge"><title>Node17&#45;&gt;Node19</title>
<path fill="none" stroke="midnightblue" d="M985.259,-159.864C1005.7,-142.9 1040.61,-117.334 1076,-107.076 1138.32,-89.0077 1159.03,-91.4197 1222,-107.076 1251.37,-114.377 1281.59,-132.073 1301.01,-145.016"/>
<polygon fill="midnightblue" stroke="midnightblue" points="982.768,-157.389 977.426,-166.539 987.308,-162.717 982.768,-157.389"/>
</g>
<!-- Node20 -->
<g id="node20" class="node"><title>Node20</title>
<g id="a_node20"><a xlink:href="classx265_1_1Analysis.html#a0b22b7765aa4a36b1ba6d07ba26901e6" target="_top" xlink:title="x265::Analysis::compress\lInterCU_rd5_6">
<polygon fill="white" stroke="black" points="1258,-194.076 1258,-224.076 1388,-224.076 1388,-194.076 1258,-194.076"/>
<text text-anchor="start" x="1266" y="-212.076" font-family="Helvetica,sans-Serif" font-size="10.00">x265::Analysis::compress</text>
<text text-anchor="middle" x="1323" y="-201.076" font-family="Helvetica,sans-Serif" font-size="10.00">InterCU_rd5_6</text>
</a>
</g>
</g>
<!-- Node17&#45;&gt;Node20 -->
<g id="edge28" class="edge"><title>Node17&#45;&gt;Node20</title>
<path fill="none" stroke="midnightblue" d="M995.305,-162.202C1044.08,-140.386 1146.02,-104.073 1222,-140.076 1244.83,-150.896 1237.56,-169.216 1258,-184.076 1263.21,-187.864 1269.07,-191.167 1275.07,-194.02"/>
<polygon fill="midnightblue" stroke="midnightblue" points="993.632,-159.119 986.008,-166.476 996.556,-165.479 993.632,-159.119"/>
</g>
<!-- Node18&#45;&gt;Node8 -->
<g id="edge23" class="edge"><title>Node18&#45;&gt;Node8</title>
<path fill="none" stroke="midnightblue" d="M1216.39,-223.723C1218.36,-225.053 1220.24,-226.5 1222,-228.076 1255.04,-257.624 1230.51,-286.306 1258,-321.076 1267.28,-332.817 1280.55,-342.649 1292.6,-350.019"/>
<polygon fill="midnightblue" stroke="midnightblue" points="1217.71,-220.447 1207.27,-218.617 1214.29,-226.555 1217.71,-220.447"/>
</g>
<!-- Node18&#45;&gt;Node12 -->
<g id="edge24" class="edge"><title>Node18&#45;&gt;Node12</title>
<path fill="none" stroke="midnightblue" d="M1205.4,-221.588C1211.1,-223.497 1216.73,-225.654 1222,-228.076 1253.24,-242.439 1285.24,-266.485 1304.36,-282.06"/>
<polygon fill="midnightblue" stroke="midnightblue" points="1206.36,-218.223 1195.77,-218.604 1204.29,-224.909 1206.36,-218.223"/>
</g>
<!-- Node18&#45;&gt;Node19 -->
<g id="edge21" class="edge"><title>Node18&#45;&gt;Node19</title>
<path fill="none" stroke="midnightblue" d="M1194.49,-196.804C1203.59,-194.267 1213.11,-191.6 1222,-189.076 1237.82,-184.584 1255.03,-179.621 1270.65,-175.089"/>
<polygon fill="midnightblue" stroke="midnightblue" points="1193.51,-193.442 1184.81,-199.491 1195.38,-200.186 1193.51,-193.442"/>
</g>
<!-- Node18&#45;&gt;Node20 -->
<g id="edge25" class="edge"><title>Node18&#45;&gt;Node20</title>
<path fill="none" stroke="midnightblue" d="M1228.24,-209.076C1238.16,-209.076 1248.22,-209.076 1257.88,-209.076"/>
<polygon fill="midnightblue" stroke="midnightblue" points="1227.98,-205.576 1217.98,-209.076 1227.98,-212.576 1227.98,-205.576"/>
</g>
<!-- Node19&#45;&gt;Node9 -->
<g id="edge22" class="edge"><title>Node19&#45;&gt;Node9</title>
<path fill="none" stroke="midnightblue" d="M1387.79,-177.936C1413.94,-185.258 1443.15,-193.436 1465.06,-199.574"/>
<polygon fill="midnightblue" stroke="midnightblue" points="1388.51,-174.503 1377.93,-175.177 1386.62,-181.244 1388.51,-174.503"/>
</g>
<!-- Node20&#45;&gt;Node9 -->
<g id="edge26" class="edge"><title>Node20&#45;&gt;Node9</title>
<path fill="none" stroke="midnightblue" d="M1398.25,-209.076C1406.93,-209.076 1415.78,-209.076 1424.47,-209.076"/>
<polygon fill="midnightblue" stroke="midnightblue" points="1398.17,-205.576 1388.17,-209.076 1398.17,-212.576 1398.17,-205.576"/>
</g>
<!-- Node21&#45;&gt;Node8 -->
<g id="edge31" class="edge"><title>Node21&#45;&gt;Node8</title>
<path fill="none" stroke="midnightblue" d="M981.604,-276.956C999.822,-304.191 1033.78,-347.251 1076,-365.076 1133.94,-389.536 1206.61,-385.857 1257.9,-378.318"/>
<polygon fill="midnightblue" stroke="midnightblue" points="984.42,-274.867 976.039,-268.385 978.549,-278.678 984.42,-274.867"/>
</g>
<!-- Node21&#45;&gt;Node12 -->
<g id="edge32" class="edge"><title>Node21&#45;&gt;Node12</title>
<path fill="none" stroke="midnightblue" d="M1038.32,-270.231C1050.83,-272.822 1063.75,-275.238 1076,-277.076 1137.34,-286.279 1207.96,-291.469 1257.76,-294.241"/>
<polygon fill="midnightblue" stroke="midnightblue" points="1038.92,-266.779 1028.41,-268.123 1037.46,-273.626 1038.92,-266.779"/>
</g>
<!-- Node21&#45;&gt;Node18 -->
<g id="edge30" class="edge"><title>Node21&#45;&gt;Node18</title>
<path fill="none" stroke="midnightblue" d="M1038.56,-235.679C1062.52,-229.855 1088.33,-223.58 1108.87,-218.588"/>
<polygon fill="midnightblue" stroke="midnightblue" points="1037.67,-232.293 1028.78,-238.057 1039.33,-239.095 1037.67,-232.293"/>
</g>
<!-- Node22 -->
<g id="node22" class="node"><title>Node22</title>
<g id="a_node22"><a xlink:href="classx265_1_1Analysis.html#addd72cb95590e2b2a6965d42d110eab3" target="_top" xlink:title="x265::Analysis::checkMerge2\lNx2N_rd0_4">
<polygon fill="white" stroke="black" points="1076,-326.076 1076,-356.076 1222,-356.076 1222,-326.076 1076,-326.076"/>
<text text-anchor="start" x="1084" y="-344.076" font-family="Helvetica,sans-Serif" font-size="10.00">x265::Analysis::checkMerge2</text>
<text text-anchor="middle" x="1149" y="-333.076" font-family="Helvetica,sans-Serif" font-size="10.00">Nx2N_rd0_4</text>
</a>
</g>
</g>
<!-- Node21&#45;&gt;Node22 -->
<g id="edge33" class="edge"><title>Node21&#45;&gt;Node22</title>
<path fill="none" stroke="midnightblue" d="M1002.44,-273.026C1023.56,-284.633 1051.02,-299.257 1076,-311.076 1086.89,-316.23 1098.92,-321.426 1109.96,-326.013"/>
<polygon fill="midnightblue" stroke="midnightblue" points="1003.96,-269.866 993.519,-268.09 1000.58,-275.992 1003.96,-269.866"/>
</g>
<!-- Node23 -->
<g id="node23" class="node"><title>Node23</title>
<g id="a_node23"><a xlink:href="classx265_1_1Analysis.html#a0194a9da53aa95173fa1132ba3aea1c7" target="_top" xlink:title="x265::Analysis::checkMerge2\lNx2N_rd5_6">
<polygon fill="white" stroke="black" points="1076,-150.076 1076,-180.076 1222,-180.076 1222,-150.076 1076,-150.076"/>
<text text-anchor="start" x="1084" y="-168.076" font-family="Helvetica,sans-Serif" font-size="10.00">x265::Analysis::checkMerge2</text>
<text text-anchor="middle" x="1149" y="-157.076" font-family="Helvetica,sans-Serif" font-size="10.00">Nx2N_rd5_6</text>
</a>
</g>
</g>
<!-- Node21&#45;&gt;Node23 -->
<g id="edge36" class="edge"><title>Node21&#45;&gt;Node23</title>
<path fill="none" stroke="midnightblue" d="M998.756,-232.569C1020.06,-219.358 1049.04,-202.41 1076,-190.076 1083.82,-186.497 1092.31,-183.124 1100.63,-180.083"/>
<polygon fill="midnightblue" stroke="midnightblue" points="996.741,-229.701 990.126,-237.977 1000.46,-235.632 996.741,-229.701"/>
</g>
<!-- Node24 -->
<g id="node24" class="node"><title>Node24</title>
<g id="a_node24"><a xlink:href="classx265_1_1Analysis.html#a828daa3e9f1ed40a1af9f99f7ff7bb33" target="_top" xlink:title="x265::Analysis::checkInter\l_rd5_6">
<polygon fill="white" stroke="black" points="1082.5,-238.076 1082.5,-268.076 1215.5,-268.076 1215.5,-238.076 1082.5,-238.076"/>
<text text-anchor="start" x="1090.5" y="-256.076" font-family="Helvetica,sans-Serif" font-size="10.00">x265::Analysis::checkInter</text>
<text text-anchor="middle" x="1149" y="-245.076" font-family="Helvetica,sans-Serif" font-size="10.00">_rd5_6</text>
</a>
</g>
</g>
<!-- Node21&#45;&gt;Node24 -->
<g id="edge38" class="edge"><title>Node21&#45;&gt;Node24</title>
<path fill="none" stroke="midnightblue" d="M1049.62,-253.076C1060.62,-253.076 1071.77,-253.076 1082.43,-253.076"/>
<polygon fill="midnightblue" stroke="midnightblue" points="1049.58,-249.576 1039.58,-253.076 1049.58,-256.576 1049.58,-249.576"/>
</g>
<!-- Node22&#45;&gt;Node8 -->
<g id="edge34" class="edge"><title>Node22&#45;&gt;Node8</title>
<path fill="none" stroke="midnightblue" d="M1232.42,-352.577C1240.96,-353.767 1249.54,-354.965 1257.83,-356.122"/>
<polygon fill="midnightblue" stroke="midnightblue" points="1232.83,-349.1 1222.44,-351.184 1231.87,-356.033 1232.83,-349.1"/>
</g>
<!-- Node22&#45;&gt;Node12 -->
<g id="edge35" class="edge"><title>Node22&#45;&gt;Node12</title>
<path fill="none" stroke="midnightblue" d="M1218.78,-323.482C1233.51,-319.713 1248.95,-315.764 1263.26,-312.102"/>
<polygon fill="midnightblue" stroke="midnightblue" points="1217.53,-320.187 1208.71,-326.057 1219.27,-326.969 1217.53,-320.187"/>
</g>
<!-- Node23&#45;&gt;Node20 -->
<g id="edge37" class="edge"><title>Node23&#45;&gt;Node20</title>
<path fill="none" stroke="midnightblue" d="M1218.78,-182.67C1233.51,-186.439 1248.95,-190.388 1263.26,-194.05"/>
<polygon fill="midnightblue" stroke="midnightblue" points="1219.27,-179.183 1208.71,-180.095 1217.53,-185.964 1219.27,-179.183"/>
</g>
<!-- Node24&#45;&gt;Node20 -->
<g id="edge39" class="edge"><title>Node24&#45;&gt;Node20</title>
<path fill="none" stroke="midnightblue" d="M1218.78,-235.482C1233.51,-231.713 1248.95,-227.764 1263.26,-224.102"/>
<polygon fill="midnightblue" stroke="midnightblue" points="1217.53,-232.187 1208.71,-238.057 1219.27,-238.969 1217.53,-232.187"/>
</g>
</g>
</svg>
        <g id="navigator" transform="translate(0 0)" fill="#404254">
                <rect fill="#f2f5e9" fill-opacity="0.5" stroke="#606060" stroke-width=".5" x="0" y="0" width="60" height="60"/>
                <use id="zoomplus" xlink:href="#zoomPlus" x="17" y="9" onmousedown="handleZoom(evt,'in')"/>
                <use id="zoomminus" xlink:href="#zoomMin" x="42" y="9" onmousedown="handleZoom(evt,'out')"/>
                <use id="reset" xlink:href="#resetDef" x="30" y="36" onmousedown="handleReset()"/>
                <g id="arrowUp" xlink:href="#dirArrow" transform="translate(30 24)" onmousedown="handlePan(0,-1)">
                  <use xlink:href="#rim" fill="#404040">
                        <set attributeName="fill" to="#808080" begin="arrowUp.mouseover" end="arrowUp.mouseout"/>
                  </use>
                  <path fill="none" stroke="white" stroke-width="1.5" d="M0,-3.0v7 M-2.5,-0.5L0,-3.0L2.5,-0.5"/>
                </g>
                <g id="arrowRight" xlink:href="#dirArrow" transform="rotate(90) translate(36 -43)" onmousedown="handlePan(1,0)">
                  <use xlink:href="#rim" fill="#404040">
                        <set attributeName="fill" to="#808080" begin="arrowRight.mouseover" end="arrowRight.mouseout"/>
                  </use>
                  <path fill="none" stroke="white" stroke-width="1.5" d="M0,-3.0v7 M-2.5,-0.5L0,-3.0L2.5,-0.5"/>
                </g>
                <g id="arrowDown" xlink:href="#dirArrow" transform="rotate(180) translate(-30 -48)" onmousedown="handlePan(0,1)">
                  <use xlink:href="#rim" fill="#404040">
                        <set attributeName="fill" to="#808080" begin="arrowDown.mouseover" end="arrowDown.mouseout"/>
                  </use>
                  <path fill="none" stroke="white" stroke-width="1.5" d="M0,-3.0v7 M-2.5,-0.5L0,-3.0L2.5,-0.5"/>
                </g>
                <g id="arrowLeft" xlink:href="#dirArrow" transform="rotate(270) translate(-36 17)" onmousedown="handlePan(-1,0)">
                  <use xlink:href="#rim" fill="#404040">
                        <set attributeName="fill" to="#808080" begin="arrowLeft.mouseover" end="arrowLeft.mouseout"/>
                  </use>
                  <path fill="none" stroke="white" stroke-width="1.5" d="M0,-3.0v7 M-2.5,-0.5L0,-3.0L2.5,-0.5"/>
                </g>
        </g>
        <svg viewBox="0 0 15 15" width="100%" height="30px" preserveAspectRatio="xMaxYMin meet">
         <g id="arrow_out" transform="scale(0.3 0.3)">
          <a xlink:href="classx265_1_1Entropy_a06d70c3de658d9c93ae7a981985a8844_icgraph_org.svg" target="_base">
           <rect id="button" ry="5" rx="5" y="6" x="6" height="38" width="38"
                fill="#f2f5e9" fill-opacity="0.5" stroke="#606060" stroke-width="1.0"/>
           <path id="arrow"
             d="M 11.500037,31.436501 C 11.940474,20.09759 22.043105,11.32322 32.158766,21.979434 L 37.068811,17.246167 C 37.068811,17.246167 37.088388,32 37.088388,32 L 22.160133,31.978069 C 22.160133,31.978069 26.997745,27.140456 26.997745,27.140456 C 18.528582,18.264221 13.291696,25.230495 11.500037,31.436501 z"
             style="fill:#404040;"/>
          </a>
         </g>
        </svg>
</svg>
