<?xml version="1.0" encoding="UTF-8" standalone="no"?>
<!DOCTYPE svg PUBLIC "-//W3C//DTD SVG 1.1//EN"
 "http://www.w3.org/Graphics/SVG/1.1/DTD/svg11.dtd">
<!-- Generated by graphviz version 2.36.0 (20140111.2315)
 -->
<!-- Title: x265::Bitstream::writeByteAlignment Pages: 1 -->
<svg width="608pt" height="82pt"
 viewBox="0.00 0.00 608.00 82.00" xmlns="http://www.w3.org/2000/svg" xmlns:xlink="http://www.w3.org/1999/xlink">
<g id="graph0" class="graph" transform="scale(1 1) rotate(0) translate(4 78)">
<title>x265::Bitstream::writeByteAlignment</title>
<polygon fill="white" stroke="none" points="-4,4 -4,-78 604,-78 604,4 -4,4"/>
<!-- Node1 -->
<g id="node1" class="node"><title>Node1</title>
<polygon fill="#bfbfbf" stroke="black" points="0.5,-22 0.5,-52 133.5,-52 133.5,-22 0.5,-22"/>
<text text-anchor="start" x="8.5" y="-40" font-family="Helvetica,sans-Serif" font-size="10.00">x265::Bitstream::writeByte</text>
<text text-anchor="middle" x="67" y="-29" font-family="Helvetica,sans-Serif" font-size="10.00">Alignment</text>
</g>
<!-- Node2 -->
<g id="node2" class="node"><title>Node2</title>
<g id="a_node2"><a xlink:href="classx265_1_1Encoder.html#a5095039a4d1af32049c30052ef3e6588" target="_top" xlink:title="x265::Encoder::getStream\lHeaders">
<polygon fill="white" stroke="black" points="170.5,-44 170.5,-74 301.5,-74 301.5,-44 170.5,-44"/>
<text text-anchor="start" x="178.5" y="-62" font-family="Helvetica,sans-Serif" font-size="10.00">x265::Encoder::getStream</text>
<text text-anchor="middle" x="236" y="-51" font-family="Helvetica,sans-Serif" font-size="10.00">Headers</text>
</a>
</g>
</g>
<!-- Node1&#45;&gt;Node2 -->
<g id="edge1" class="edge"><title>Node1&#45;&gt;Node2</title>
<path fill="none" stroke="midnightblue" d="M143.59,-46.958C152.573,-48.1413 161.679,-49.3409 170.487,-50.5012"/>
<polygon fill="midnightblue" stroke="midnightblue" points="143.895,-43.468 133.524,-45.6318 142.981,-50.408 143.895,-43.468"/>
</g>
<!-- Node5 -->
<g id="node5" class="node"><title>Node5</title>
<g id="a_node5"><a xlink:href="classx265_1_1FrameEncoder.html#a2f5c4c0f1a4e36fce4c9b87eb7ec4973" target="_top" xlink:title="x265::FrameEncoder\l::compressFrame">
<polygon fill="white" stroke="black" points="343.5,-0 343.5,-30 450.5,-30 450.5,-0 343.5,-0"/>
<text text-anchor="start" x="351.5" y="-18" font-family="Helvetica,sans-Serif" font-size="10.00">x265::FrameEncoder</text>
<text text-anchor="middle" x="397" y="-7" font-family="Helvetica,sans-Serif" font-size="10.00">::compressFrame</text>
</a>
</g>
</g>
<!-- Node1&#45;&gt;Node5 -->
<g id="edge6" class="edge"><title>Node1&#45;&gt;Node5</title>
<path fill="none" stroke="midnightblue" d="M143.584,-31.9303C204.803,-27.8242 289.467,-22.1455 343.486,-18.5223"/>
<polygon fill="midnightblue" stroke="midnightblue" points="143.331,-28.4394 133.587,-32.6008 143.799,-35.4237 143.331,-28.4394"/>
</g>
<!-- Node3 -->
<g id="node3" class="node"><title>Node3</title>
<g id="a_node3"><a xlink:href="x265_8h.html#a575071c7bc7374ffd708d93f016211b5" target="_top" xlink:title="x265_encoder_headers">
<polygon fill="white" stroke="black" points="338.5,-49.5 338.5,-68.5 455.5,-68.5 455.5,-49.5 338.5,-49.5"/>
<text text-anchor="middle" x="397" y="-56.5" font-family="Helvetica,sans-Serif" font-size="10.00">x265_encoder_headers</text>
</a>
</g>
</g>
<!-- Node2&#45;&gt;Node3 -->
<g id="edge2" class="edge"><title>Node2&#45;&gt;Node3</title>
<path fill="none" stroke="midnightblue" d="M311.699,-59C320.632,-59 329.646,-59 338.288,-59"/>
<polygon fill="midnightblue" stroke="midnightblue" points="311.671,-55.5001 301.671,-59 311.671,-62.5001 311.671,-55.5001"/>
</g>
<!-- Node2&#45;&gt;Node5 -->
<g id="edge4" class="edge"><title>Node2&#45;&gt;Node5</title>
<path fill="none" stroke="midnightblue" d="M301.298,-41.2069C315.257,-37.3439 329.866,-33.3013 343.315,-29.5795"/>
<polygon fill="midnightblue" stroke="midnightblue" points="299.978,-37.9404 291.274,-43.9808 301.845,-44.6869 299.978,-37.9404"/>
</g>
<!-- Node4 -->
<g id="node4" class="node"><title>Node4</title>
<g id="a_node4"><a xlink:href="x265_8cpp.html#a3c04138a5bfe5d72780bb7e82a18e627" target="_top" xlink:title="main">
<polygon fill="white" stroke="black" points="527,-49.5 527,-68.5 565,-68.5 565,-49.5 527,-49.5"/>
<text text-anchor="middle" x="546" y="-56.5" font-family="Helvetica,sans-Serif" font-size="10.00">main</text>
</a>
</g>
</g>
<!-- Node3&#45;&gt;Node4 -->
<g id="edge3" class="edge"><title>Node3&#45;&gt;Node4</title>
<path fill="none" stroke="midnightblue" d="M465.914,-59C488.368,-59 511.521,-59 526.927,-59"/>
<polygon fill="midnightblue" stroke="midnightblue" points="465.676,-55.5001 455.676,-59 465.676,-62.5001 465.676,-55.5001"/>
</g>
<!-- Node6 -->
<g id="node6" class="node"><title>Node6</title>
<g id="a_node6"><a xlink:href="classx265_1_1FrameEncoder.html#aef61f29b9e93b3af9255d96236bc90a7" target="_top" xlink:title="x265::FrameEncoder\l::threadMain">
<polygon fill="white" stroke="black" points="492.5,-0 492.5,-30 599.5,-30 599.5,-0 492.5,-0"/>
<text text-anchor="start" x="500.5" y="-18" font-family="Helvetica,sans-Serif" font-size="10.00">x265::FrameEncoder</text>
<text text-anchor="middle" x="546" y="-7" font-family="Helvetica,sans-Serif" font-size="10.00">::threadMain</text>
</a>
</g>
</g>
<!-- Node5&#45;&gt;Node6 -->
<g id="edge5" class="edge"><title>Node5&#45;&gt;Node6</title>
<path fill="none" stroke="midnightblue" d="M460.948,-15C471.37,-15 482.081,-15 492.218,-15"/>
<polygon fill="midnightblue" stroke="midnightblue" points="460.655,-11.5001 450.655,-15 460.655,-18.5001 460.655,-11.5001"/>
</g>
</g>
</svg>
