<?xml version="1.0" encoding="UTF-8" standalone="no"?>
<!DOCTYPE svg PUBLIC "-//W3C//DTD SVG 1.1//EN"
 "http://www.w3.org/Graphics/SVG/1.1/DTD/svg11.dtd">
<!-- Generated by graphviz version 2.36.0 (20140111.2315)
 -->
<!-- Title: x265::CUData::setTrIdxSubParts Pages: 1 -->
<svg width="1272pt" height="537pt"
 viewBox="0.00 0.00 1272.00 537.00" xmlns="http://www.w3.org/2000/svg" xmlns:xlink="http://www.w3.org/1999/xlink">
<g id="graph0" class="graph" transform="scale(1 1) rotate(0) translate(4 533.003)">
<title>x265::CUData::setTrIdxSubParts</title>
<polygon fill="white" stroke="none" points="-4,4 -4,-533.003 1268,-533.003 1268,4 -4,4"/>
<!-- Node1 -->
<g id="node1" class="node"><title>Node1</title>
<polygon fill="#bfbfbf" stroke="black" points="0.5,-149.603 0.5,-179.603 139.5,-179.603 139.5,-149.603 0.5,-149.603"/>
<text text-anchor="start" x="8.5" y="-167.603" font-family="Helvetica,sans-Serif" font-size="10.00">x265::CUData::setTrIdxSub</text>
<text text-anchor="middle" x="70" y="-156.603" font-family="Helvetica,sans-Serif" font-size="10.00">Parts</text>
</g>
<!-- Node2 -->
<g id="node2" class="node"><title>Node2</title>
<g id="a_node2"><a xlink:href="classx265_1_1Search.html#a59b84ac1e21c86af579b6e84e43c5b7a" target="_top" xlink:title="x265::Search::codeIntraLumaQT">
<polygon fill="white" stroke="black" points="185,-381.103 185,-400.103 343,-400.103 343,-381.103 185,-381.103"/>
<text text-anchor="middle" x="264" y="-388.103" font-family="Helvetica,sans-Serif" font-size="10.00">x265::Search::codeIntraLumaQT</text>
</a>
</g>
</g>
<!-- Node1&#45;&gt;Node2 -->
<g id="edge1" class="edge"><title>Node1&#45;&gt;Node2</title>
<path fill="none" stroke="midnightblue" d="M90.4921,-187.547C131.719,-236.075 226.304,-347.409 254.756,-380.899"/>
<polygon fill="midnightblue" stroke="midnightblue" points="93.0377,-185.138 83.8958,-179.783 87.703,-189.67 93.0377,-185.138"/>
</g>
<!-- Node14 -->
<g id="node14" class="node"><title>Node14</title>
<g id="a_node14"><a xlink:href="classx265_1_1Search.html#a8179474a0f2f2b7b84da90802f92b06e" target="_top" xlink:title="x265::Search::residualTransform\lQuantIntra">
<polygon fill="white" stroke="black" points="185,-27.6033 185,-57.6033 343,-57.6033 343,-27.6033 185,-27.6033"/>
<text text-anchor="start" x="193" y="-45.6033" font-family="Helvetica,sans-Serif" font-size="10.00">x265::Search::residualTransform</text>
<text text-anchor="middle" x="264" y="-34.6033" font-family="Helvetica,sans-Serif" font-size="10.00">QuantIntra</text>
</a>
</g>
</g>
<!-- Node1&#45;&gt;Node14 -->
<g id="edge21" class="edge"><title>Node1&#45;&gt;Node14</title>
<path fill="none" stroke="midnightblue" d="M89.7437,-141.571C109.104,-119.252 141.307,-86.0113 176,-66.6033 182.153,-63.161 188.832,-60.1873 195.66,-57.6238"/>
<polygon fill="midnightblue" stroke="midnightblue" points="87.0226,-139.368 83.2112,-149.253 92.3554,-143.902 87.0226,-139.368"/>
</g>
<!-- Node17 -->
<g id="node17" class="node"><title>Node17</title>
<g id="a_node17"><a xlink:href="classx265_1_1Search.html#a4e3f1622d206a6883cb41567c63e106f" target="_top" xlink:title="x265::Search::encodeResAnd\lCalcRdSkipCU">
<polygon fill="white" stroke="black" points="580.5,-130.603 580.5,-160.603 727.5,-160.603 727.5,-130.603 580.5,-130.603"/>
<text text-anchor="start" x="588.5" y="-148.603" font-family="Helvetica,sans-Serif" font-size="10.00">x265::Search::encodeResAnd</text>
<text text-anchor="middle" x="654" y="-137.603" font-family="Helvetica,sans-Serif" font-size="10.00">CalcRdSkipCU</text>
</a>
</g>
</g>
<!-- Node1&#45;&gt;Node17 -->
<g id="edge26" class="edge"><title>Node1&#45;&gt;Node17</title>
<path fill="none" stroke="midnightblue" d="M149.758,-162.032C263.063,-158.333 470.48,-151.562 580.31,-147.976"/>
<polygon fill="midnightblue" stroke="midnightblue" points="149.642,-158.534 139.761,-162.359 149.87,-165.53 149.642,-158.534"/>
</g>
<!-- Node20 -->
<g id="node20" class="node"><title>Node20</title>
<g id="a_node20"><a xlink:href="classx265_1_1Search.html#aba5e04ce529f41accd43c540ba1dc7ad" target="_top" xlink:title="x265::Search::encodeResAnd\lCalcRdInterCU">
<polygon fill="white" stroke="black" points="580.5,-206.603 580.5,-236.603 727.5,-236.603 727.5,-206.603 580.5,-206.603"/>
<text text-anchor="start" x="588.5" y="-224.603" font-family="Helvetica,sans-Serif" font-size="10.00">x265::Search::encodeResAnd</text>
<text text-anchor="middle" x="654" y="-213.603" font-family="Helvetica,sans-Serif" font-size="10.00">CalcRdInterCU</text>
</a>
</g>
</g>
<!-- Node1&#45;&gt;Node20 -->
<g id="edge32" class="edge"><title>Node1&#45;&gt;Node20</title>
<path fill="none" stroke="midnightblue" d="M149.758,-172.317C263.063,-183.414 470.48,-203.728 580.31,-214.484"/>
<polygon fill="midnightblue" stroke="midnightblue" points="150.055,-168.829 139.761,-171.338 149.372,-175.796 150.055,-168.829"/>
</g>
<!-- Node22 -->
<g id="node22" class="node"><title>Node22</title>
<g id="a_node22"><a xlink:href="classx265_1_1Search.html#a11ea3fb9c65e98f50e348de22593748c" target="_top" xlink:title="x265::Search::residualTransform\lQuantInter">
<polygon fill="white" stroke="black" points="185,-76.6033 185,-106.603 343,-106.603 343,-76.6033 185,-76.6033"/>
<text text-anchor="start" x="193" y="-94.6033" font-family="Helvetica,sans-Serif" font-size="10.00">x265::Search::residualTransform</text>
<text text-anchor="middle" x="264" y="-83.6033" font-family="Helvetica,sans-Serif" font-size="10.00">QuantInter</text>
</a>
</g>
</g>
<!-- Node1&#45;&gt;Node22 -->
<g id="edge40" class="edge"><title>Node1&#45;&gt;Node22</title>
<path fill="none" stroke="midnightblue" d="M120.388,-145.826C152.351,-133.673 193.419,-118.059 223.268,-106.71"/>
<polygon fill="midnightblue" stroke="midnightblue" points="118.886,-142.652 110.783,-149.478 121.374,-149.195 118.886,-142.652"/>
</g>
<!-- Node23 -->
<g id="node23" class="node"><title>Node23</title>
<g id="a_node23"><a xlink:href="classx265_1_1Search.html#a9f01b6f04dca31dca9f16e60d1c029b3" target="_top" xlink:title="x265::Search::xEstimateResidualQT">
<polygon fill="white" stroke="black" points="176,-212.103 176,-231.103 352,-231.103 352,-212.103 176,-212.103"/>
<text text-anchor="middle" x="264" y="-219.103" font-family="Helvetica,sans-Serif" font-size="10.00">x265::Search::xEstimateResidualQT</text>
</a>
</g>
</g>
<!-- Node1&#45;&gt;Node23 -->
<g id="edge43" class="edge"><title>Node1&#45;&gt;Node23</title>
<path fill="none" stroke="midnightblue" d="M127.267,-182.69C143.003,-187.638 160.14,-192.925 176,-197.603 192.832,-202.568 211.588,-207.783 227.363,-212.078"/>
<polygon fill="midnightblue" stroke="midnightblue" points="128.263,-179.334 117.673,-179.661 126.155,-186.009 128.263,-179.334"/>
</g>
<!-- Node3 -->
<g id="node3" class="node"><title>Node3</title>
<g id="a_node3"><a xlink:href="classx265_1_1Analysis.html#ae4d61bcf4d2c22a054d68d6d77136428" target="_top" xlink:title="x265::Analysis::encodeIntra\lInInter">
<polygon fill="white" stroke="black" points="397,-425.603 397,-455.603 535,-455.603 535,-425.603 397,-425.603"/>
<text text-anchor="start" x="405" y="-443.603" font-family="Helvetica,sans-Serif" font-size="10.00">x265::Analysis::encodeIntra</text>
<text text-anchor="middle" x="466" y="-432.603" font-family="Helvetica,sans-Serif" font-size="10.00">InInter</text>
</a>
</g>
</g>
<!-- Node2&#45;&gt;Node3 -->
<g id="edge2" class="edge"><title>Node2&#45;&gt;Node3</title>
<path fill="none" stroke="midnightblue" d="M312.876,-402.572C340.403,-409.454 375.243,-418.164 404.634,-425.512"/>
<polygon fill="midnightblue" stroke="midnightblue" points="313.64,-399.156 303.089,-400.126 311.942,-405.947 313.64,-399.156"/>
</g>
<!-- Node9 -->
<g id="node9" class="node"><title>Node9</title>
<g id="a_node9"><a xlink:href="classx265_1_1Search.html#a1778d2ab96ac88c7f76d36818d6adbdd" target="_top" xlink:title="x265::Search::estIntraPredQT">
<polygon fill="white" stroke="black" points="392.5,-381.103 392.5,-400.103 539.5,-400.103 539.5,-381.103 392.5,-381.103"/>
<text text-anchor="middle" x="466" y="-388.103" font-family="Helvetica,sans-Serif" font-size="10.00">x265::Search::estIntraPredQT</text>
</a>
</g>
</g>
<!-- Node2&#45;&gt;Node9 -->
<g id="edge10" class="edge"><title>Node2&#45;&gt;Node9</title>
<path fill="none" stroke="midnightblue" d="M353.536,-390.603C366.534,-390.603 379.794,-390.603 392.422,-390.603"/>
<polygon fill="midnightblue" stroke="midnightblue" points="353.185,-387.103 343.185,-390.603 353.184,-394.103 353.185,-387.103"/>
</g>
<!-- Node4 -->
<g id="node4" class="node"><title>Node4</title>
<g id="a_node4"><a xlink:href="classx265_1_1Analysis.html#aa6122285d10bb1bd7584958b88b029d5" target="_top" xlink:title="x265::Analysis::parallel\lModeAnalysis">
<polygon fill="white" stroke="black" points="595,-438.603 595,-468.603 713,-468.603 713,-438.603 595,-438.603"/>
<text text-anchor="start" x="603" y="-456.603" font-family="Helvetica,sans-Serif" font-size="10.00">x265::Analysis::parallel</text>
<text text-anchor="middle" x="654" y="-445.603" font-family="Helvetica,sans-Serif" font-size="10.00">ModeAnalysis</text>
</a>
</g>
</g>
<!-- Node3&#45;&gt;Node4 -->
<g id="edge3" class="edge"><title>Node3&#45;&gt;Node4</title>
<path fill="none" stroke="midnightblue" d="M545.428,-446.085C562.013,-447.244 579.232,-448.447 594.904,-449.543"/>
<polygon fill="midnightblue" stroke="midnightblue" points="545.423,-442.576 535.203,-445.37 544.935,-449.559 545.423,-442.576"/>
</g>
<!-- Node6 -->
<g id="node6" class="node"><title>Node6</title>
<g id="a_node6"><a xlink:href="classx265_1_1Analysis.html#a87060ff27a37f56adc5f5b8a4c033ece" target="_top" xlink:title="x265::Analysis::compress\lInterCU_dist">
<polygon fill="white" stroke="black" points="946,-315.603 946,-345.603 1076,-345.603 1076,-315.603 946,-315.603"/>
<text text-anchor="start" x="954" y="-333.603" font-family="Helvetica,sans-Serif" font-size="10.00">x265::Analysis::compress</text>
<text text-anchor="middle" x="1011" y="-322.603" font-family="Helvetica,sans-Serif" font-size="10.00">InterCU_dist</text>
</a>
</g>
</g>
<!-- Node3&#45;&gt;Node6 -->
<g id="edge7" class="edge"><title>Node3&#45;&gt;Node6</title>
<path fill="none" stroke="midnightblue" d="M504.953,-460.057C587.676,-499.433 786.678,-577.359 910,-485.603 954.673,-452.365 910.949,-408.868 946,-365.603 952.617,-357.436 961.671,-350.886 970.885,-345.762"/>
<polygon fill="midnightblue" stroke="midnightblue" points="506.444,-456.891 495.918,-455.688 503.397,-463.192 506.444,-456.891"/>
</g>
<!-- Node8 -->
<g id="node8" class="node"><title>Node8</title>
<g id="a_node8"><a xlink:href="classx265_1_1Analysis.html#a30d2ff7eca5addbb0a6b3dfe14f09650" target="_top" xlink:title="x265::Analysis::compress\lInterCU_rd0_4">
<polygon fill="white" stroke="black" points="946,-184.603 946,-214.603 1076,-214.603 1076,-184.603 946,-184.603"/>
<text text-anchor="start" x="954" y="-202.603" font-family="Helvetica,sans-Serif" font-size="10.00">x265::Analysis::compress</text>
<text text-anchor="middle" x="1011" y="-191.603" font-family="Helvetica,sans-Serif" font-size="10.00">InterCU_rd0_4</text>
</a>
</g>
</g>
<!-- Node3&#45;&gt;Node8 -->
<g id="edge8" class="edge"><title>Node3&#45;&gt;Node8</title>
<path fill="none" stroke="midnightblue" d="M533.393,-419.973C537.367,-416.972 540.973,-413.536 544,-409.603 622.95,-307.032 485.823,-209.399 580,-120.603 633.392,-70.2624 841.562,-82.1251 910,-108.603 949.406,-123.849 982.836,-162.645 999.212,-184.336"/>
<polygon fill="midnightblue" stroke="midnightblue" points="531.279,-417.172 524.785,-425.543 535.082,-423.049 531.279,-417.172"/>
</g>
<!-- Node5 -->
<g id="node5" class="node"><title>Node5</title>
<g id="a_node5"><a xlink:href="classx265_1_1Analysis.html#a29a58dad4cc1c07d2f5e5717c6be7c25" target="_top" xlink:title="x265::Analysis::findJob">
<polygon fill="white" stroke="black" points="777.5,-457.103 777.5,-476.103 896.5,-476.103 896.5,-457.103 777.5,-457.103"/>
<text text-anchor="middle" x="837" y="-464.103" font-family="Helvetica,sans-Serif" font-size="10.00">x265::Analysis::findJob</text>
</a>
</g>
</g>
<!-- Node4&#45;&gt;Node5 -->
<g id="edge4" class="edge"><title>Node4&#45;&gt;Node5</title>
<path fill="none" stroke="midnightblue" d="M723.519,-458.525C741.205,-459.795 760.083,-461.151 777.223,-462.382"/>
<polygon fill="midnightblue" stroke="midnightblue" points="723.491,-455.014 713.266,-457.788 722.989,-461.996 723.491,-455.014"/>
</g>
<!-- Node5&#45;&gt;Node6 -->
<g id="edge5" class="edge"><title>Node5&#45;&gt;Node6</title>
<path fill="none" stroke="midnightblue" d="M860.503,-450.752C875.244,-439.906 894.567,-424.79 910,-409.603 928.01,-391.881 926.557,-381.74 946,-365.603 955.258,-357.92 966.458,-351.119 976.884,-345.604"/>
<polygon fill="midnightblue" stroke="midnightblue" points="858.038,-448.215 851.992,-456.915 862.144,-453.884 858.038,-448.215"/>
</g>
<!-- Node7 -->
<g id="node7" class="node"><title>Node7</title>
<g id="a_node7"><a xlink:href="classx265_1_1Analysis.html#aaebc9de2ff98834c650244f3b58942c2" target="_top" xlink:title="x265::Analysis::compressCTU">
<polygon fill="white" stroke="red" points="1112.5,-261.103 1112.5,-280.103 1263.5,-280.103 1263.5,-261.103 1112.5,-261.103"/>
<text text-anchor="middle" x="1188" y="-268.103" font-family="Helvetica,sans-Serif" font-size="10.00">x265::Analysis::compressCTU</text>
</a>
</g>
</g>
<!-- Node6&#45;&gt;Node7 -->
<g id="edge6" class="edge"><title>Node6&#45;&gt;Node7</title>
<path fill="none" stroke="midnightblue" d="M1065.93,-312.112C1096.82,-301.524 1134.28,-288.68 1159.27,-280.111"/>
<polygon fill="midnightblue" stroke="midnightblue" points="1064.48,-308.909 1056.16,-315.463 1066.75,-315.53 1064.48,-308.909"/>
</g>
<!-- Node8&#45;&gt;Node7 -->
<g id="edge9" class="edge"><title>Node8&#45;&gt;Node7</title>
<path fill="none" stroke="midnightblue" d="M1058.77,-218.58C1092.51,-232.267 1136.64,-250.173 1163.35,-261.009"/>
<polygon fill="midnightblue" stroke="midnightblue" points="1059.7,-215.177 1049.11,-214.661 1057.06,-221.663 1059.7,-215.177"/>
</g>
<!-- Node10 -->
<g id="node10" class="node"><title>Node10</title>
<g id="a_node10"><a xlink:href="classx265_1_1Search.html#ab02df91827cf67796d1605bde60c6aed" target="_top" xlink:title="x265::Search::checkIntra">
<polygon fill="white" stroke="black" points="591,-381.103 591,-400.103 717,-400.103 717,-381.103 591,-381.103"/>
<text text-anchor="middle" x="654" y="-388.103" font-family="Helvetica,sans-Serif" font-size="10.00">x265::Search::checkIntra</text>
</a>
</g>
</g>
<!-- Node9&#45;&gt;Node10 -->
<g id="edge11" class="edge"><title>Node9&#45;&gt;Node10</title>
<path fill="none" stroke="midnightblue" d="M549.712,-390.603C563.545,-390.603 577.685,-390.603 590.888,-390.603"/>
<polygon fill="midnightblue" stroke="midnightblue" points="549.712,-387.103 539.712,-390.603 549.712,-394.103 549.712,-387.103"/>
</g>
<!-- Node11 -->
<g id="node11" class="node"><title>Node11</title>
<g id="a_node11"><a xlink:href="classx265_1_1Analysis.html#a10f0a8d9d143faf8dc671c6f0982693d" target="_top" xlink:title="x265::Analysis::tryLossless">
<polygon fill="white" stroke="black" points="768.5,-381.103 768.5,-400.103 905.5,-400.103 905.5,-381.103 768.5,-381.103"/>
<text text-anchor="middle" x="837" y="-388.103" font-family="Helvetica,sans-Serif" font-size="10.00">x265::Analysis::tryLossless</text>
</a>
</g>
</g>
<!-- Node10&#45;&gt;Node11 -->
<g id="edge12" class="edge"><title>Node10&#45;&gt;Node11</title>
<path fill="none" stroke="midnightblue" d="M727.293,-390.603C740.879,-390.603 755.037,-390.603 768.471,-390.603"/>
<polygon fill="midnightblue" stroke="midnightblue" points="727.037,-387.103 717.037,-390.603 727.037,-394.103 727.037,-387.103"/>
</g>
<!-- Node12 -->
<g id="node12" class="node"><title>Node12</title>
<g id="a_node12"><a xlink:href="classx265_1_1Analysis.html#aae2a6a2252270782b591d2bed7e99dae" target="_top" xlink:title="x265::Analysis::compress\lIntraCU">
<polygon fill="white" stroke="black" points="946,-375.603 946,-405.603 1076,-405.603 1076,-375.603 946,-375.603"/>
<text text-anchor="start" x="954" y="-393.603" font-family="Helvetica,sans-Serif" font-size="10.00">x265::Analysis::compress</text>
<text text-anchor="middle" x="1011" y="-382.603" font-family="Helvetica,sans-Serif" font-size="10.00">IntraCU</text>
</a>
</g>
</g>
<!-- Node10&#45;&gt;Node12 -->
<g id="edge19" class="edge"><title>Node10&#45;&gt;Node12</title>
<path fill="none" stroke="midnightblue" d="M709.302,-401.968C726.692,-405.096 746.083,-408.053 764,-409.603 828.647,-415.196 845.397,-415.686 910,-409.603 921.7,-408.502 934.069,-406.69 945.971,-404.612"/>
<polygon fill="midnightblue" stroke="midnightblue" points="709.791,-398.499 699.32,-400.115 708.514,-405.381 709.791,-398.499"/>
</g>
<!-- Node13 -->
<g id="node13" class="node"><title>Node13</title>
<g id="a_node13"><a xlink:href="classx265_1_1Analysis.html#a0b22b7765aa4a36b1ba6d07ba26901e6" target="_top" xlink:title="x265::Analysis::compress\lInterCU_rd5_6">
<polygon fill="white" stroke="black" points="946,-255.603 946,-285.603 1076,-285.603 1076,-255.603 946,-255.603"/>
<text text-anchor="start" x="954" y="-273.603" font-family="Helvetica,sans-Serif" font-size="10.00">x265::Analysis::compress</text>
<text text-anchor="middle" x="1011" y="-262.603" font-family="Helvetica,sans-Serif" font-size="10.00">InterCU_rd5_6</text>
</a>
</g>
</g>
<!-- Node10&#45;&gt;Node13 -->
<g id="edge20" class="edge"><title>Node10&#45;&gt;Node13</title>
<path fill="none" stroke="midnightblue" d="M692.753,-377.842C758.809,-355.513 895.018,-309.47 965.528,-285.636"/>
<polygon fill="midnightblue" stroke="midnightblue" points="691.506,-374.569 683.153,-381.087 693.747,-381.2 691.506,-374.569"/>
</g>
<!-- Node11&#45;&gt;Node6 -->
<g id="edge15" class="edge"><title>Node11&#45;&gt;Node6</title>
<path fill="none" stroke="midnightblue" d="M876.726,-377.883C887.515,-374.288 899.229,-370.337 910,-366.603 929.352,-359.896 950.723,-352.237 968.723,-345.712"/>
<polygon fill="midnightblue" stroke="midnightblue" points="875.518,-374.596 867.13,-381.068 877.724,-381.239 875.518,-374.596"/>
</g>
<!-- Node11&#45;&gt;Node8 -->
<g id="edge16" class="edge"><title>Node11&#45;&gt;Node8</title>
<path fill="none" stroke="midnightblue" d="M851.316,-372.957C865.807,-353.729 889.632,-322.041 910,-294.603 926.107,-272.905 926.792,-264.612 946,-245.603 957.768,-233.957 972.71,-223.044 985.196,-214.772"/>
<polygon fill="midnightblue" stroke="midnightblue" points="848.411,-370.997 845.185,-381.089 854,-375.211 848.411,-370.997"/>
</g>
<!-- Node11&#45;&gt;Node12 -->
<g id="edge13" class="edge"><title>Node11&#45;&gt;Node12</title>
<path fill="none" stroke="midnightblue" d="M916.242,-390.603C926.159,-390.603 936.215,-390.603 945.877,-390.603"/>
<polygon fill="midnightblue" stroke="midnightblue" points="915.979,-387.103 905.979,-390.603 915.979,-394.103 915.979,-387.103"/>
</g>
<!-- Node11&#45;&gt;Node13 -->
<g id="edge17" class="edge"><title>Node11&#45;&gt;Node13</title>
<path fill="none" stroke="midnightblue" d="M892.489,-377.218C898.757,-374.329 904.767,-370.832 910,-366.603 934.484,-346.816 923.379,-327.496 946,-305.603 954.19,-297.677 964.532,-290.998 974.5,-285.669"/>
<polygon fill="midnightblue" stroke="midnightblue" points="891.108,-374.001 883.179,-381.029 893.76,-380.479 891.108,-374.001"/>
</g>
<!-- Node12&#45;&gt;Node7 -->
<g id="edge14" class="edge"><title>Node12&#45;&gt;Node7</title>
<path fill="none" stroke="midnightblue" d="M1049.76,-370.484C1058.51,-365.515 1067.69,-360.049 1076,-354.603 1113.8,-329.833 1155.6,-296.43 1175.39,-280.222"/>
<polygon fill="midnightblue" stroke="midnightblue" points="1047.87,-367.529 1040.85,-375.462 1051.28,-373.641 1047.87,-367.529"/>
</g>
<!-- Node13&#45;&gt;Node7 -->
<g id="edge18" class="edge"><title>Node13&#45;&gt;Node7</title>
<path fill="none" stroke="midnightblue" d="M1086.25,-270.603C1094.93,-270.603 1103.78,-270.603 1112.47,-270.603"/>
<polygon fill="midnightblue" stroke="midnightblue" points="1086.17,-267.103 1076.17,-270.603 1086.17,-274.103 1086.17,-267.103"/>
</g>
<!-- Node15 -->
<g id="node15" class="node"><title>Node15</title>
<g id="a_node15"><a xlink:href="classx265_1_1Analysis.html#a88ad2880a5a8bcad5cfd5d6ea630b265" target="_top" xlink:title="x265::Analysis::encodeResidue">
<polygon fill="white" stroke="black" points="388.5,-14.1033 388.5,-33.1033 543.5,-33.1033 543.5,-14.1033 388.5,-14.1033"/>
<text text-anchor="middle" x="466" y="-21.1033" font-family="Helvetica,sans-Serif" font-size="10.00">x265::Analysis::encodeResidue</text>
</a>
</g>
</g>
<!-- Node14&#45;&gt;Node15 -->
<g id="edge22" class="edge"><title>Node14&#45;&gt;Node15</title>
<path fill="none" stroke="midnightblue" d="M353.324,-34.2125C364.944,-33.1087 376.776,-31.9846 388.183,-30.901"/>
<polygon fill="midnightblue" stroke="midnightblue" points="352.809,-30.7457 343.185,-35.1758 353.471,-37.7143 352.809,-30.7457"/>
</g>
<!-- Node16 -->
<g id="node16" class="node"><title>Node16</title>
<g id="a_node16"><a xlink:href="classx265_1_1Search.html#a5284cffef18fe6884b268ea28f21f22f" target="_top" xlink:title="x265::Search::generateCoeff\lRecon">
<polygon fill="white" stroke="black" points="395,-52.6033 395,-82.6033 537,-82.6033 537,-52.6033 395,-52.6033"/>
<text text-anchor="start" x="403" y="-70.6033" font-family="Helvetica,sans-Serif" font-size="10.00">x265::Search::generateCoeff</text>
<text text-anchor="middle" x="466" y="-59.6033" font-family="Helvetica,sans-Serif" font-size="10.00">Recon</text>
</a>
</g>
</g>
<!-- Node14&#45;&gt;Node16 -->
<g id="edge24" class="edge"><title>Node14&#45;&gt;Node16</title>
<path fill="none" stroke="midnightblue" d="M353.22,-53.6308C367.098,-55.3656 381.283,-57.1387 394.686,-58.8141"/>
<polygon fill="midnightblue" stroke="midnightblue" points="353.541,-50.1439 343.185,-52.3764 352.673,-57.0898 353.541,-50.1439"/>
</g>
<!-- Node15&#45;&gt;Node7 -->
<g id="edge23" class="edge"><title>Node15&#45;&gt;Node7</title>
<path fill="none" stroke="midnightblue" d="M529.37,-12.554C617.45,0.294722 781.829,14.0405 910,-34.6033 1040.24,-84.0331 1151.62,-223.398 1180.01,-261.099"/>
<polygon fill="midnightblue" stroke="midnightblue" points="528.642,-9.12404 519.274,-14.0721 529.683,-16.0462 528.642,-9.12404"/>
</g>
<!-- Node16&#45;&gt;Node8 -->
<g id="edge25" class="edge"><title>Node16&#45;&gt;Node8</title>
<path fill="none" stroke="midnightblue" d="M541.481,-50.6386C633.278,-33.7008 791.625,-17.6758 910,-75.6033 957.447,-98.8215 989.76,-156.419 1003.11,-184.171"/>
<polygon fill="midnightblue" stroke="midnightblue" points="540.615,-47.2403 531.443,-52.5435 541.92,-54.1176 540.615,-47.2403"/>
</g>
<!-- Node18 -->
<g id="node18" class="node"><title>Node18</title>
<g id="a_node18"><a xlink:href="classx265_1_1Analysis.html#addd72cb95590e2b2a6965d42d110eab3" target="_top" xlink:title="x265::Analysis::checkMerge2\lNx2N_rd0_4">
<polygon fill="white" stroke="black" points="764,-206.603 764,-236.603 910,-236.603 910,-206.603 764,-206.603"/>
<text text-anchor="start" x="772" y="-224.603" font-family="Helvetica,sans-Serif" font-size="10.00">x265::Analysis::checkMerge2</text>
<text text-anchor="middle" x="837" y="-213.603" font-family="Helvetica,sans-Serif" font-size="10.00">Nx2N_rd0_4</text>
</a>
</g>
</g>
<!-- Node17&#45;&gt;Node18 -->
<g id="edge27" class="edge"><title>Node17&#45;&gt;Node18</title>
<path fill="none" stroke="midnightblue" d="M700.009,-164.502C730.873,-177.462 771.278,-194.427 800.005,-206.489"/>
<polygon fill="midnightblue" stroke="midnightblue" points="701.335,-161.263 690.76,-160.618 698.625,-167.717 701.335,-161.263"/>
</g>
<!-- Node19 -->
<g id="node19" class="node"><title>Node19</title>
<g id="a_node19"><a xlink:href="classx265_1_1Analysis.html#a0194a9da53aa95173fa1132ba3aea1c7" target="_top" xlink:title="x265::Analysis::checkMerge2\lNx2N_rd5_6">
<polygon fill="white" stroke="black" points="764,-118.603 764,-148.603 910,-148.603 910,-118.603 764,-118.603"/>
<text text-anchor="start" x="772" y="-136.603" font-family="Helvetica,sans-Serif" font-size="10.00">x265::Analysis::checkMerge2</text>
<text text-anchor="middle" x="837" y="-125.603" font-family="Helvetica,sans-Serif" font-size="10.00">Nx2N_rd5_6</text>
</a>
</g>
</g>
<!-- Node17&#45;&gt;Node19 -->
<g id="edge30" class="edge"><title>Node17&#45;&gt;Node19</title>
<path fill="none" stroke="midnightblue" d="M737.785,-140.115C746.535,-139.535 755.383,-138.948 763.997,-138.377"/>
<polygon fill="midnightblue" stroke="midnightblue" points="737.323,-136.638 727.577,-140.792 737.786,-143.622 737.323,-136.638"/>
</g>
<!-- Node18&#45;&gt;Node6 -->
<g id="edge28" class="edge"><title>Node18&#45;&gt;Node6</title>
<path fill="none" stroke="midnightblue" d="M903.579,-241.385C905.801,-242.706 907.95,-244.11 910,-245.603 931.844,-261.512 925.769,-276.688 946,-294.603 955.162,-302.717 966.453,-309.808 976.987,-315.502"/>
<polygon fill="midnightblue" stroke="midnightblue" points="905.185,-238.276 894.709,-236.698 901.915,-244.465 905.185,-238.276"/>
</g>
<!-- Node18&#45;&gt;Node8 -->
<g id="edge29" class="edge"><title>Node18&#45;&gt;Node8</title>
<path fill="none" stroke="midnightblue" d="M920.422,-211.061C928.957,-209.969 937.539,-208.872 945.831,-207.811"/>
<polygon fill="midnightblue" stroke="midnightblue" points="919.92,-207.597 910.445,-212.337 920.808,-214.54 919.92,-207.597"/>
</g>
<!-- Node19&#45;&gt;Node13 -->
<g id="edge31" class="edge"><title>Node19&#45;&gt;Node13</title>
<path fill="none" stroke="midnightblue" d="M863.449,-155.564C885.108,-174.07 917.198,-201.061 946,-223.603 960.004,-234.564 976.146,-246.412 988.714,-255.471"/>
<polygon fill="midnightblue" stroke="midnightblue" points="865.559,-152.762 855.688,-148.913 861.004,-158.078 865.559,-152.762"/>
</g>
<!-- Node20&#45;&gt;Node6 -->
<g id="edge34" class="edge"><title>Node20&#45;&gt;Node6</title>
<path fill="none" stroke="midnightblue" d="M679.903,-243.042C700.896,-259.886 732.479,-282.46 764,-294.603 823.007,-317.335 895.041,-325.839 945.868,-328.955"/>
<polygon fill="midnightblue" stroke="midnightblue" points="682.082,-240.302 672.128,-236.675 677.647,-245.718 682.082,-240.302"/>
</g>
<!-- Node20&#45;&gt;Node8 -->
<g id="edge35" class="edge"><title>Node20&#45;&gt;Node8</title>
<path fill="none" stroke="midnightblue" d="M719.391,-204.311C733.954,-201.108 749.423,-198.254 764,-196.603 825.432,-189.649 896.042,-191.518 945.811,-194.456"/>
<polygon fill="midnightblue" stroke="midnightblue" points="718.446,-200.937 709.476,-206.574 720.004,-207.761 718.446,-200.937"/>
</g>
<!-- Node20&#45;&gt;Node11 -->
<g id="edge33" class="edge"><title>Node20&#45;&gt;Node11</title>
<path fill="none" stroke="midnightblue" d="M676.995,-244.033C698.723,-265.988 733.095,-300.184 764,-328.603 784.763,-347.697 809.913,-368.946 824.325,-380.952"/>
<polygon fill="midnightblue" stroke="midnightblue" points="679.379,-241.465 669.863,-236.807 674.397,-246.383 679.379,-241.465"/>
</g>
<!-- Node20&#45;&gt;Node18 -->
<g id="edge36" class="edge"><title>Node20&#45;&gt;Node18</title>
<path fill="none" stroke="midnightblue" d="M737.785,-221.603C746.535,-221.603 755.383,-221.603 763.997,-221.603"/>
<polygon fill="midnightblue" stroke="midnightblue" points="737.577,-218.103 727.577,-221.603 737.577,-225.103 737.577,-218.103"/>
</g>
<!-- Node20&#45;&gt;Node19 -->
<g id="edge37" class="edge"><title>Node20&#45;&gt;Node19</title>
<path fill="none" stroke="midnightblue" d="M690.444,-201.653C711.555,-190.046 739.019,-175.422 764,-163.603 774.894,-158.449 786.916,-153.253 797.964,-148.667"/>
<polygon fill="midnightblue" stroke="midnightblue" points="688.576,-198.687 681.519,-206.589 691.963,-204.813 688.576,-198.687"/>
</g>
<!-- Node21 -->
<g id="node21" class="node"><title>Node21</title>
<g id="a_node21"><a xlink:href="classx265_1_1Analysis.html#a828daa3e9f1ed40a1af9f99f7ff7bb33" target="_top" xlink:title="x265::Analysis::checkInter\l_rd5_6">
<polygon fill="white" stroke="black" points="770.5,-255.603 770.5,-285.603 903.5,-285.603 903.5,-255.603 770.5,-255.603"/>
<text text-anchor="start" x="778.5" y="-273.603" font-family="Helvetica,sans-Serif" font-size="10.00">x265::Analysis::checkInter</text>
<text text-anchor="middle" x="837" y="-262.603" font-family="Helvetica,sans-Serif" font-size="10.00">_rd5_6</text>
</a>
</g>
</g>
<!-- Node20&#45;&gt;Node21 -->
<g id="edge38" class="edge"><title>Node20&#45;&gt;Node21</title>
<path fill="none" stroke="midnightblue" d="M720.561,-239.352C740.177,-244.662 761.49,-250.432 780.401,-255.552"/>
<polygon fill="midnightblue" stroke="midnightblue" points="721.35,-235.94 710.783,-236.705 719.521,-242.696 721.35,-235.94"/>
</g>
<!-- Node21&#45;&gt;Node13 -->
<g id="edge39" class="edge"><title>Node21&#45;&gt;Node13</title>
<path fill="none" stroke="midnightblue" d="M913.698,-270.603C924.409,-270.603 935.336,-270.603 945.803,-270.603"/>
<polygon fill="midnightblue" stroke="midnightblue" points="913.517,-267.103 903.516,-270.603 913.516,-274.103 913.517,-267.103"/>
</g>
<!-- Node22&#45;&gt;Node15 -->
<g id="edge41" class="edge"><title>Node22&#45;&gt;Node15</title>
<path fill="none" stroke="midnightblue" d="M335.713,-73.3045C341.302,-71.2489 346.793,-69.0159 352,-66.6033 369.448,-58.5188 370.402,-50.3558 388,-42.6033 396.568,-38.8286 406.018,-35.7186 415.275,-33.1866"/>
<polygon fill="midnightblue" stroke="midnightblue" points="334.543,-70.0056 326.248,-76.5966 336.842,-76.6171 334.543,-70.0056"/>
</g>
<!-- Node22&#45;&gt;Node16 -->
<g id="edge42" class="edge"><title>Node22&#45;&gt;Node16</title>
<path fill="none" stroke="midnightblue" d="M353.22,-81.0169C367.098,-79.3515 381.283,-77.6493 394.686,-76.041"/>
<polygon fill="midnightblue" stroke="midnightblue" points="352.696,-77.5546 343.185,-82.2212 353.53,-84.5047 352.696,-77.5546"/>
</g>
<!-- Node23&#45;&gt;Node20 -->
<g id="edge44" class="edge"><title>Node23&#45;&gt;Node20</title>
<path fill="none" stroke="midnightblue" d="M362.318,-221.603C429.958,-221.603 518.662,-221.603 580.21,-221.603"/>
<polygon fill="midnightblue" stroke="midnightblue" points="362.075,-218.103 352.075,-221.603 362.075,-225.103 362.075,-218.103"/>
</g>
</g>
</svg>
