<?xml version="1.0" encoding="UTF-8" standalone="no"?>
<!DOCTYPE svg PUBLIC "-//W3C//DTD SVG 1.1//EN"
 "http://www.w3.org/Graphics/SVG/1.1/DTD/svg11.dtd">
<!-- Generated by graphviz version 2.36.0 (20140111.2315)
 -->
<!-- Title: x265::JobProvider::enqueue Pages: 1 -->
<!--zoomable 519 -->
<svg id="main" version="1.1" xmlns="http://www.w3.org/2000/svg" xmlns:xlink="http://www.w3.org/1999/xlink" xml:space="preserve" onload="init(evt)">
<style type="text/css"><![CDATA[
.edge:hover path { stroke: red; }
.edge:hover polygon { stroke: red; fill: red; }
]]></style>
<script type="text/javascript"><![CDATA[
var edges = document.getElementsByTagName('g');
if (edges && edges.length) {
  for (var i=0;i<edges.length;i++) {
    if (edges[i].id.substr(0,4)=='edge') {
      edges[i].setAttribute('class','edge');
    }
  }
}
]]></script>
        <defs>
                <circle id="rim" cx="0" cy="0" r="7"/>
                <circle id="rim2" cx="0" cy="0" r="3.5"/>
                <g id="zoomPlus">
                        <use xlink:href="#rim" fill="#404040">
                                <set attributeName="fill" to="#808080" begin="zoomplus.mouseover" end="zoomplus.mouseout"/>
                        </use>
                        <path d="M-4,0h8M0,-4v8" fill="none" stroke="white" stroke-width="1.5" pointer-events="none"/>
                </g>
                <g id="zoomMin">
                        <use xlink:href="#rim" fill="#404040">
                                <set attributeName="fill" to="#808080" begin="zoomminus.mouseover" end="zoomminus.mouseout"/>
                        </use>
                        <path d="M-4,0h8" fill="none" stroke="white" stroke-width="1.5" pointer-events="none"/>
                </g>
                <g id="dirArrow">
                        <path fill="none" stroke="white" stroke-width="1.5" d="M0,-3.0v7 M-2.5,-0.5L0,-3.0L2.5,-0.5"/>
                </g>
               <g id="resetDef">
                       <use xlink:href="#rim2" fill="#404040">
                               <set attributeName="fill" to="#808080" begin="reset.mouseover" end="reset.mouseout"/>
                       </use>
               </g>
        </defs>

<script type="text/javascript">
var viewWidth = 1674;
var viewHeight = 519;
var sectionId = 'dynsection-5';
</script>
<script xlink:href="svgpan.js"/>
<svg id="graph" class="graph">
<g id="viewport">
<title>x265::JobProvider::enqueue</title>
<polygon fill="white" stroke="none" points="-4,4 -4,-515 1670,-515 1670,4 -4,4"/>
<!-- Node1 -->
<g id="node1" class="node"><title>Node1</title>
<polygon fill="#bfbfbf" stroke="black" points="0.5,-260 0.5,-290 101.5,-290 101.5,-260 0.5,-260"/>
<text text-anchor="start" x="8.5" y="-278" font-family="Helvetica,sans-Serif" font-size="10.00">x265::JobProvider::</text>
<text text-anchor="middle" x="51" y="-267" font-family="Helvetica,sans-Serif" font-size="10.00">enqueue</text>
</g>
<!-- Node2 -->
<g id="node2" class="node"><title>Node2</title>
<g id="a_node2"><a xlink:href="classx265_1_1Analysis.html#a87060ff27a37f56adc5f5b8a4c033ece" target="_top" xlink:title="x265::Analysis::compress\lInterCU_dist">
<polygon fill="white" stroke="black" points="893,-455 893,-485 1023,-485 1023,-455 893,-455"/>
<text text-anchor="start" x="901" y="-473" font-family="Helvetica,sans-Serif" font-size="10.00">x265::Analysis::compress</text>
<text text-anchor="middle" x="958" y="-462" font-family="Helvetica,sans-Serif" font-size="10.00">InterCU_dist</text>
</a>
</g>
</g>
<!-- Node1&#45;&gt;Node2 -->
<g id="edge1" class="edge"><title>Node1&#45;&gt;Node2</title>
<path fill="none" stroke="midnightblue" d="M63.2124,-299.402C77.162,-327.361 103.423,-372.924 138,-401 237.315,-481.642 276.068,-511 404,-511 404,-511 404,-511 603,-511 714.983,-511 743.034,-504.063 854,-489 866.613,-487.288 880.029,-485.091 892.867,-482.804"/>
<polygon fill="midnightblue" stroke="midnightblue" points="66.3125,-297.773 58.7983,-290.304 60.0146,-300.829 66.3125,-297.773"/>
</g>
<!-- Node6 -->
<g id="node6" class="node"><title>Node6</title>
<g id="a_node6"><a xlink:href="classx265_1_1FrameEncoder.html#ac4e9ce2e876c0cdb25c992c872fe4302" target="_top" xlink:title="x265::FrameEncoder\l::compressCTURows">
<polygon fill="white" stroke="red" points="1554,-345 1554,-375 1666,-375 1666,-345 1554,-345"/>
<text text-anchor="start" x="1562" y="-363" font-family="Helvetica,sans-Serif" font-size="10.00">x265::FrameEncoder</text>
<text text-anchor="middle" x="1610" y="-352" font-family="Helvetica,sans-Serif" font-size="10.00">::compressCTURows</text>
</a>
</g>
</g>
<!-- Node1&#45;&gt;Node6 -->
<g id="edge6" class="edge"><title>Node1&#45;&gt;Node6</title>
<path fill="none" stroke="midnightblue" d="M111.523,-292.298C181.055,-310.949 299.857,-338 404,-338 404,-338 404,-338 1310,-338 1395.36,-338 1494.06,-347.029 1553.98,-353.518"/>
<polygon fill="midnightblue" stroke="midnightblue" points="112.197,-288.855 101.63,-289.612 110.363,-295.61 112.197,-288.855"/>
</g>
<!-- Node7 -->
<g id="node7" class="node"><title>Node7</title>
<g id="a_node7"><a xlink:href="classx265_1_1Search.html#a48101e3d900e93b97a83f461be390bd1" target="_top" xlink:title="x265::Search::predInterSearch">
<polygon fill="white" stroke="black" points="138.5,-372.5 138.5,-391.5 287.5,-391.5 287.5,-372.5 138.5,-372.5"/>
<text text-anchor="middle" x="213" y="-379.5" font-family="Helvetica,sans-Serif" font-size="10.00">x265::Search::predInterSearch</text>
</a>
</g>
</g>
<!-- Node1&#45;&gt;Node7 -->
<g id="edge7" class="edge"><title>Node1&#45;&gt;Node7</title>
<path fill="none" stroke="midnightblue" d="M72.639,-297.264C89.0889,-314.017 113.375,-336.64 138,-352 151.527,-360.437 167.833,-367.348 181.693,-372.401"/>
<polygon fill="midnightblue" stroke="midnightblue" points="75.1205,-294.795 65.6593,-290.026 70.0819,-299.654 75.1205,-294.795"/>
</g>
<!-- Node14 -->
<g id="node14" class="node"><title>Node14</title>
<g id="a_node14"><a xlink:href="classx265_1_1Lookahead.html#a878bca13580997ab9c01e72a8f8e81c3" target="_top" xlink:title="x265::Lookahead::addPicture">
<polygon fill="white" stroke="black" points="1066.5,-107.5 1066.5,-126.5 1209.5,-126.5 1209.5,-107.5 1066.5,-107.5"/>
<text text-anchor="middle" x="1138" y="-114.5" font-family="Helvetica,sans-Serif" font-size="10.00">x265::Lookahead::addPicture</text>
</a>
</g>
</g>
<!-- Node1&#45;&gt;Node14 -->
<g id="edge17" class="edge"><title>Node1&#45;&gt;Node14</title>
<path fill="none" stroke="midnightblue" d="M70.315,-251.899C118.356,-194.13 254.641,-48 404,-48 404,-48 404,-48 787,-48 908.39,-48 1049.06,-88.4465 1108.34,-107.406"/>
<polygon fill="midnightblue" stroke="midnightblue" points="67.5093,-249.801 63.8762,-259.753 72.9228,-254.239 67.5093,-249.801"/>
</g>
<!-- Node18 -->
<g id="node18" class="node"><title>Node18</title>
<g id="a_node18"><a xlink:href="classx265_1_1CostEstimate.html#af33d06405527ebbb03d9c93d565e6e2a" target="_top" xlink:title="x265::CostEstimate\l::estimateFrameCost">
<polygon fill="white" stroke="black" points="158.5,-197 158.5,-227 267.5,-227 267.5,-197 158.5,-197"/>
<text text-anchor="start" x="166.5" y="-215" font-family="Helvetica,sans-Serif" font-size="10.00">x265::CostEstimate</text>
<text text-anchor="middle" x="213" y="-204" font-family="Helvetica,sans-Serif" font-size="10.00">::estimateFrameCost</text>
</a>
</g>
</g>
<!-- Node1&#45;&gt;Node18 -->
<g id="edge21" class="edge"><title>Node1&#45;&gt;Node18</title>
<path fill="none" stroke="midnightblue" d="M99.8033,-256.177C123.422,-246.877 151.535,-235.808 173.712,-227.076"/>
<polygon fill="midnightblue" stroke="midnightblue" points="98.3464,-252.99 90.324,-259.91 100.911,-259.503 98.3464,-252.99"/>
</g>
<!-- Node30 -->
<g id="node30" class="node"><title>Node30</title>
<g id="a_node30"><a xlink:href="classMD5Frame.html#a54826606d5067ffe9ff99a21aea15ff8" target="_top" xlink:title="MD5Frame::encode">
<polygon fill="white" stroke="black" points="161.5,-0.5 161.5,-19.5 264.5,-19.5 264.5,-0.5 161.5,-0.5"/>
<text text-anchor="middle" x="213" y="-7.5" font-family="Helvetica,sans-Serif" font-size="10.00">MD5Frame::encode</text>
</a>
</g>
</g>
<!-- Node1&#45;&gt;Node30 -->
<g id="edge40" class="edge"><title>Node1&#45;&gt;Node30</title>
<path fill="none" stroke="midnightblue" d="M53.8231,-249.885C58.6957,-201.309 76.2287,-93.9969 138,-34 144.491,-27.6953 152.653,-23.0468 161.167,-19.6194"/>
<polygon fill="midnightblue" stroke="midnightblue" points="50.3367,-249.578 52.9212,-259.853 57.3082,-250.209 50.3367,-249.578"/>
</g>
<!-- Node3 -->
<g id="node3" class="node"><title>Node3</title>
<g id="a_node3"><a xlink:href="classx265_1_1Analysis.html#aaebc9de2ff98834c650244f3b58942c2" target="_top" xlink:title="x265::Analysis::compressCTU">
<polygon fill="white" stroke="black" points="1062.5,-410.5 1062.5,-429.5 1213.5,-429.5 1213.5,-410.5 1062.5,-410.5"/>
<text text-anchor="middle" x="1138" y="-417.5" font-family="Helvetica,sans-Serif" font-size="10.00">x265::Analysis::compressCTU</text>
</a>
</g>
</g>
<!-- Node2&#45;&gt;Node3 -->
<g id="edge2" class="edge"><title>Node2&#45;&gt;Node3</title>
<path fill="none" stroke="midnightblue" d="M1022.25,-452.233C1049.46,-444.589 1080.19,-435.959 1102.99,-429.553"/>
<polygon fill="midnightblue" stroke="midnightblue" points="1021.09,-448.924 1012.41,-454.998 1022.98,-455.664 1021.09,-448.924"/>
</g>
<!-- Node4 -->
<g id="node4" class="node"><title>Node4</title>
<g id="a_node4"><a xlink:href="classx265_1_1FrameEncoder.html#a0ae85001572afd28238476542523ac5f" target="_top" xlink:title="x265::FrameEncoder\l::processRowEncoder">
<polygon fill="white" stroke="black" points="1252.5,-383 1252.5,-413 1365.5,-413 1365.5,-383 1252.5,-383"/>
<text text-anchor="start" x="1260.5" y="-401" font-family="Helvetica,sans-Serif" font-size="10.00">x265::FrameEncoder</text>
<text text-anchor="middle" x="1309" y="-390" font-family="Helvetica,sans-Serif" font-size="10.00">::processRowEncoder</text>
</a>
</g>
</g>
<!-- Node3&#45;&gt;Node4 -->
<g id="edge3" class="edge"><title>Node3&#45;&gt;Node4</title>
<path fill="none" stroke="midnightblue" d="M1222.3,-409.157C1232.48,-407.831 1242.69,-406.502 1252.33,-405.247"/>
<polygon fill="midnightblue" stroke="midnightblue" points="1221.61,-405.717 1212.14,-410.478 1222.51,-412.658 1221.61,-405.717"/>
</g>
<!-- Node5 -->
<g id="node5" class="node"><title>Node5</title>
<g id="a_node5"><a xlink:href="classx265_1_1FrameEncoder.html#acad645a8ece97d884895f8f7366b7d70" target="_top" xlink:title="x265::FrameEncoder\l::processRow">
<polygon fill="white" stroke="black" points="1407.5,-372 1407.5,-402 1514.5,-402 1514.5,-372 1407.5,-372"/>
<text text-anchor="start" x="1415.5" y="-390" font-family="Helvetica,sans-Serif" font-size="10.00">x265::FrameEncoder</text>
<text text-anchor="middle" x="1461" y="-379" font-family="Helvetica,sans-Serif" font-size="10.00">::processRow</text>
</a>
</g>
</g>
<!-- Node4&#45;&gt;Node5 -->
<g id="edge4" class="edge"><title>Node4&#45;&gt;Node5</title>
<path fill="none" stroke="midnightblue" d="M1376.11,-393.152C1386.47,-392.392 1397.07,-391.615 1407.08,-390.881"/>
<polygon fill="midnightblue" stroke="midnightblue" points="1375.57,-389.682 1365.85,-393.904 1376.08,-396.663 1375.57,-389.682"/>
</g>
<!-- Node5&#45;&gt;Node6 -->
<g id="edge5" class="edge"><title>Node5&#45;&gt;Node6</title>
<path fill="none" stroke="midnightblue" d="M1524.62,-375.499C1534.3,-373.721 1544.23,-371.896 1553.73,-370.151"/>
<polygon fill="midnightblue" stroke="midnightblue" points="1523.86,-372.08 1514.66,-377.329 1525.12,-378.964 1523.86,-372.08"/>
</g>
<!-- Node8 -->
<g id="node8" class="node"><title>Node8</title>
<g id="a_node8"><a xlink:href="classx265_1_1Analysis.html#a2305f7985af66b49fdbc40ebb1b281d2" target="_top" xlink:title="x265::Analysis::checkInter\l_rd0_4">
<polygon fill="white" stroke="black" points="338.5,-416 338.5,-446 471.5,-446 471.5,-416 338.5,-416"/>
<text text-anchor="start" x="346.5" y="-434" font-family="Helvetica,sans-Serif" font-size="10.00">x265::Analysis::checkInter</text>
<text text-anchor="middle" x="405" y="-423" font-family="Helvetica,sans-Serif" font-size="10.00">_rd0_4</text>
</a>
</g>
</g>
<!-- Node7&#45;&gt;Node8 -->
<g id="edge8" class="edge"><title>Node7&#45;&gt;Node8</title>
<path fill="none" stroke="midnightblue" d="M260.925,-394.102C286.541,-400.708 318.489,-408.947 345.693,-415.963"/>
<polygon fill="midnightblue" stroke="midnightblue" points="261.642,-390.672 251.085,-391.564 259.894,-397.45 261.642,-390.672"/>
</g>
<!-- Node12 -->
<g id="node12" class="node"><title>Node12</title>
<g id="a_node12"><a xlink:href="classx265_1_1Analysis.html#a828daa3e9f1ed40a1af9f99f7ff7bb33" target="_top" xlink:title="x265::Analysis::checkInter\l_rd5_6">
<polygon fill="white" stroke="black" points="338.5,-367 338.5,-397 471.5,-397 471.5,-367 338.5,-367"/>
<text text-anchor="start" x="346.5" y="-385" font-family="Helvetica,sans-Serif" font-size="10.00">x265::Analysis::checkInter</text>
<text text-anchor="middle" x="405" y="-374" font-family="Helvetica,sans-Serif" font-size="10.00">_rd5_6</text>
</a>
</g>
</g>
<!-- Node7&#45;&gt;Node12 -->
<g id="edge14" class="edge"><title>Node7&#45;&gt;Node12</title>
<path fill="none" stroke="midnightblue" d="M297.997,-382C311.523,-382 325.351,-382 338.363,-382"/>
<polygon fill="midnightblue" stroke="midnightblue" points="297.731,-378.5 287.731,-382 297.731,-385.5 297.731,-378.5"/>
</g>
<!-- Node9 -->
<g id="node9" class="node"><title>Node9</title>
<g id="a_node9"><a xlink:href="classx265_1_1Analysis.html#aa6122285d10bb1bd7584958b88b029d5" target="_top" xlink:title="x265::Analysis::parallel\lModeAnalysis">
<polygon fill="white" stroke="black" points="543,-452 543,-482 661,-482 661,-452 543,-452"/>
<text text-anchor="start" x="551" y="-470" font-family="Helvetica,sans-Serif" font-size="10.00">x265::Analysis::parallel</text>
<text text-anchor="middle" x="602" y="-459" font-family="Helvetica,sans-Serif" font-size="10.00">ModeAnalysis</text>
</a>
</g>
</g>
<!-- Node8&#45;&gt;Node9 -->
<g id="edge9" class="edge"><title>Node8&#45;&gt;Node9</title>
<path fill="none" stroke="midnightblue" d="M481.589,-444.955C501.891,-448.703 523.531,-452.698 542.733,-456.243"/>
<polygon fill="midnightblue" stroke="midnightblue" points="482.216,-441.511 471.746,-443.138 480.945,-448.395 482.216,-441.511"/>
</g>
<!-- Node11 -->
<g id="node11" class="node"><title>Node11</title>
<g id="a_node11"><a xlink:href="classx265_1_1Analysis.html#a30d2ff7eca5addbb0a6b3dfe14f09650" target="_top" xlink:title="x265::Analysis::compress\lInterCU_rd0_4">
<polygon fill="white" stroke="black" points="721,-411 721,-441 851,-441 851,-411 721,-411"/>
<text text-anchor="start" x="729" y="-429" font-family="Helvetica,sans-Serif" font-size="10.00">x265::Analysis::compress</text>
<text text-anchor="middle" x="786" y="-418" font-family="Helvetica,sans-Serif" font-size="10.00">InterCU_rd0_4</text>
</a>
</g>
</g>
<!-- Node8&#45;&gt;Node11 -->
<g id="edge12" class="edge"><title>Node8&#45;&gt;Node11</title>
<path fill="none" stroke="midnightblue" d="M481.672,-430.002C551.722,-429.078 654.74,-427.718 720.85,-426.846"/>
<polygon fill="midnightblue" stroke="midnightblue" points="481.537,-426.503 471.584,-430.135 481.629,-433.502 481.537,-426.503"/>
</g>
<!-- Node10 -->
<g id="node10" class="node"><title>Node10</title>
<g id="a_node10"><a xlink:href="classx265_1_1Analysis.html#a29a58dad4cc1c07d2f5e5717c6be7c25" target="_top" xlink:title="x265::Analysis::findJob">
<polygon fill="white" stroke="black" points="726.5,-460.5 726.5,-479.5 845.5,-479.5 845.5,-460.5 726.5,-460.5"/>
<text text-anchor="middle" x="786" y="-467.5" font-family="Helvetica,sans-Serif" font-size="10.00">x265::Analysis::findJob</text>
</a>
</g>
</g>
<!-- Node9&#45;&gt;Node10 -->
<g id="edge10" class="edge"><title>Node9&#45;&gt;Node10</title>
<path fill="none" stroke="midnightblue" d="M671.266,-468.125C689.34,-468.423 708.693,-468.742 726.216,-469.031"/>
<polygon fill="midnightblue" stroke="midnightblue" points="671.143,-464.623 661.086,-467.957 671.027,-471.622 671.143,-464.623"/>
</g>
<!-- Node10&#45;&gt;Node2 -->
<g id="edge11" class="edge"><title>Node10&#45;&gt;Node2</title>
<path fill="none" stroke="midnightblue" d="M855.684,-470C867.964,-470 880.715,-470 892.861,-470"/>
<polygon fill="midnightblue" stroke="midnightblue" points="855.504,-466.5 845.504,-470 855.504,-473.5 855.504,-466.5"/>
</g>
<!-- Node11&#45;&gt;Node3 -->
<g id="edge13" class="edge"><title>Node11&#45;&gt;Node3</title>
<path fill="none" stroke="midnightblue" d="M861.226,-424.728C920.421,-423.713 1002.95,-422.298 1062.28,-421.281"/>
<polygon fill="midnightblue" stroke="midnightblue" points="861.134,-421.229 851.195,-424.9 861.254,-428.227 861.134,-421.229"/>
</g>
<!-- Node13 -->
<g id="node13" class="node"><title>Node13</title>
<g id="a_node13"><a xlink:href="classx265_1_1Analysis.html#a0b22b7765aa4a36b1ba6d07ba26901e6" target="_top" xlink:title="x265::Analysis::compress\lInterCU_rd5_6">
<polygon fill="white" stroke="black" points="893,-367 893,-397 1023,-397 1023,-367 893,-367"/>
<text text-anchor="start" x="901" y="-385" font-family="Helvetica,sans-Serif" font-size="10.00">x265::Analysis::compress</text>
<text text-anchor="middle" x="958" y="-374" font-family="Helvetica,sans-Serif" font-size="10.00">InterCU_rd5_6</text>
</a>
</g>
</g>
<!-- Node12&#45;&gt;Node13 -->
<g id="edge15" class="edge"><title>Node12&#45;&gt;Node13</title>
<path fill="none" stroke="midnightblue" d="M481.916,-382C591.041,-382 790.332,-382 892.64,-382"/>
<polygon fill="midnightblue" stroke="midnightblue" points="481.643,-378.5 471.643,-382 481.643,-385.5 481.643,-378.5"/>
</g>
<!-- Node13&#45;&gt;Node3 -->
<g id="edge16" class="edge"><title>Node13&#45;&gt;Node3</title>
<path fill="none" stroke="midnightblue" d="M1032.85,-397.765C1053.1,-402.09 1074.44,-406.644 1092.49,-410.497"/>
<polygon fill="midnightblue" stroke="midnightblue" points="1033.52,-394.33 1023.01,-395.665 1032.06,-401.176 1033.52,-394.33"/>
</g>
<!-- Node15 -->
<g id="node15" class="node"><title>Node15</title>
<g id="a_node15"><a xlink:href="classx265_1_1Encoder.html#af5c80cef5fcafa00d1b3c105681bc784" target="_top" xlink:title="x265::Encoder::encode">
<polygon fill="white" stroke="black" points="1250.5,-145.5 1250.5,-164.5 1367.5,-164.5 1367.5,-145.5 1250.5,-145.5"/>
<text text-anchor="middle" x="1309" y="-152.5" font-family="Helvetica,sans-Serif" font-size="10.00">x265::Encoder::encode</text>
</a>
</g>
</g>
<!-- Node14&#45;&gt;Node15 -->
<g id="edge18" class="edge"><title>Node14&#45;&gt;Node15</title>
<path fill="none" stroke="midnightblue" d="M1191.59,-128.824C1215.41,-134.182 1243.21,-140.431 1265.66,-145.48"/>
<polygon fill="midnightblue" stroke="midnightblue" points="1192.17,-125.368 1181.65,-126.589 1190.63,-132.198 1192.17,-125.368"/>
</g>
<!-- Node16 -->
<g id="node16" class="node"><title>Node16</title>
<g id="a_node16"><a xlink:href="x265_8h.html#a7a45a920b9d86ed3fb3cb3794b14f5ea" target="_top" xlink:title="x265_encoder_encode">
<polygon fill="white" stroke="black" points="1404,-145.5 1404,-164.5 1518,-164.5 1518,-145.5 1404,-145.5"/>
<text text-anchor="middle" x="1461" y="-152.5" font-family="Helvetica,sans-Serif" font-size="10.00">x265_encoder_encode</text>
</a>
</g>
</g>
<!-- Node15&#45;&gt;Node16 -->
<g id="edge19" class="edge"><title>Node15&#45;&gt;Node16</title>
<path fill="none" stroke="midnightblue" d="M1377.72,-155C1386.45,-155 1395.31,-155 1403.83,-155"/>
<polygon fill="midnightblue" stroke="midnightblue" points="1377.56,-151.5 1367.56,-155 1377.56,-158.5 1377.56,-151.5"/>
</g>
<!-- Node17 -->
<g id="node17" class="node"><title>Node17</title>
<g id="a_node17"><a xlink:href="x265_8cpp.html#a3c04138a5bfe5d72780bb7e82a18e627" target="_top" xlink:title="main">
<polygon fill="white" stroke="black" points="1591,-145.5 1591,-164.5 1629,-164.5 1629,-145.5 1591,-145.5"/>
<text text-anchor="middle" x="1610" y="-152.5" font-family="Helvetica,sans-Serif" font-size="10.00">main</text>
</a>
</g>
</g>
<!-- Node16&#45;&gt;Node17 -->
<g id="edge20" class="edge"><title>Node16&#45;&gt;Node17</title>
<path fill="none" stroke="midnightblue" d="M1528.49,-155C1551.39,-155 1575.2,-155 1590.93,-155"/>
<polygon fill="midnightblue" stroke="midnightblue" points="1528.41,-151.5 1518.41,-155 1528.41,-158.5 1528.41,-151.5"/>
</g>
<!-- Node19 -->
<g id="node19" class="node"><title>Node19</title>
<g id="a_node19"><a xlink:href="classx265_1_1Lookahead.html#ad15172de7a432e47e8514fb157fafedd" target="_top" xlink:title="x265::Lookahead::slicetype\lDecide">
<polygon fill="white" stroke="black" points="890,-159 890,-189 1026,-189 1026,-159 890,-159"/>
<text text-anchor="start" x="898" y="-177" font-family="Helvetica,sans-Serif" font-size="10.00">x265::Lookahead::slicetype</text>
<text text-anchor="middle" x="958" y="-166" font-family="Helvetica,sans-Serif" font-size="10.00">Decide</text>
</a>
</g>
</g>
<!-- Node18&#45;&gt;Node19 -->
<g id="edge22" class="edge"><title>Node18&#45;&gt;Node19</title>
<path fill="none" stroke="midnightblue" d="M239.674,-233.653C260.791,-249.961 292.301,-270.993 324,-280 477.091,-323.499 525.76,-302.301 682,-272 773.055,-254.341 874.455,-211.85 924.881,-189.054"/>
<polygon fill="midnightblue" stroke="midnightblue" points="241.575,-230.694 231.564,-227.226 237.227,-236.18 241.575,-230.694"/>
</g>
<!-- Node22 -->
<g id="node22" class="node"><title>Node22</title>
<g id="a_node22"><a xlink:href="classx265_1_1Lookahead.html#ad963fd74581c61eaf7713367906b3e96" target="_top" xlink:title="x265::Lookahead::vbvFrameCost">
<polygon fill="white" stroke="black" points="324.5,-164.5 324.5,-183.5 485.5,-183.5 485.5,-164.5 324.5,-164.5"/>
<text text-anchor="middle" x="405" y="-171.5" font-family="Helvetica,sans-Serif" font-size="10.00">x265::Lookahead::vbvFrameCost</text>
</a>
</g>
</g>
<!-- Node18&#45;&gt;Node22 -->
<g id="edge27" class="edge"><title>Node18&#45;&gt;Node22</title>
<path fill="none" stroke="midnightblue" d="M277.706,-199.259C303.378,-194.124 332.482,-188.304 356.276,-183.545"/>
<polygon fill="midnightblue" stroke="midnightblue" points="276.804,-195.87 267.685,-201.263 278.177,-202.734 276.804,-195.87"/>
</g>
<!-- Node24 -->
<g id="node24" class="node"><title>Node24</title>
<g id="a_node24"><a xlink:href="classx265_1_1Lookahead.html#a2f8c7057dd5c5086830b5f22b38105b0" target="_top" xlink:title="x265::Lookahead::slicetype\lAnalyse">
<polygon fill="white" stroke="black" points="718,-159 718,-189 854,-189 854,-159 718,-159"/>
<text text-anchor="start" x="726" y="-177" font-family="Helvetica,sans-Serif" font-size="10.00">x265::Lookahead::slicetype</text>
<text text-anchor="middle" x="786" y="-166" font-family="Helvetica,sans-Serif" font-size="10.00">Analyse</text>
</a>
</g>
</g>
<!-- Node18&#45;&gt;Node24 -->
<g id="edge31" class="edge"><title>Node18&#45;&gt;Node24</title>
<path fill="none" stroke="midnightblue" d="M244.071,-191.385C265.342,-178.1 295.11,-162.041 324,-155 460.777,-121.667 627.029,-143.057 717.82,-159.743"/>
<polygon fill="midnightblue" stroke="midnightblue" points="242.035,-188.532 235.502,-196.874 245.811,-194.427 242.035,-188.532"/>
</g>
<!-- Node25 -->
<g id="node25" class="node"><title>Node25</title>
<g id="a_node25"><a xlink:href="classx265_1_1Lookahead.html#abe59d19601dc7f3cc76ba3dd315140ee" target="_top" xlink:title="x265::Lookahead::scenecut\lInternal">
<polygon fill="white" stroke="black" points="336.5,-77 336.5,-107 473.5,-107 473.5,-77 336.5,-77"/>
<text text-anchor="start" x="344.5" y="-95" font-family="Helvetica,sans-Serif" font-size="10.00">x265::Lookahead::scenecut</text>
<text text-anchor="middle" x="405" y="-84" font-family="Helvetica,sans-Serif" font-size="10.00">Internal</text>
</a>
</g>
</g>
<!-- Node18&#45;&gt;Node25 -->
<g id="edge32" class="edge"><title>Node18&#45;&gt;Node25</title>
<path fill="none" stroke="midnightblue" d="M236.669,-189.662C257.825,-169.782 291.004,-140.991 324,-122 333.899,-116.303 345.081,-111.318 355.878,-107.134"/>
<polygon fill="midnightblue" stroke="midnightblue" points="233.998,-187.372 229.174,-196.806 238.828,-192.439 233.998,-187.372"/>
</g>
<!-- Node27 -->
<g id="node27" class="node"><title>Node27</title>
<g id="a_node27"><a xlink:href="classx265_1_1Lookahead.html#a23cd684acae2cb60daeb2f6df390e30e" target="_top" xlink:title="x265::Lookahead::slicetype\lPathCost">
<polygon fill="white" stroke="black" points="337,-241 337,-271 473,-271 473,-241 337,-241"/>
<text text-anchor="start" x="345" y="-259" font-family="Helvetica,sans-Serif" font-size="10.00">x265::Lookahead::slicetype</text>
<text text-anchor="middle" x="405" y="-248" font-family="Helvetica,sans-Serif" font-size="10.00">PathCost</text>
</a>
</g>
</g>
<!-- Node18&#45;&gt;Node27 -->
<g id="edge35" class="edge"><title>Node18&#45;&gt;Node27</title>
<path fill="none" stroke="midnightblue" d="M277.51,-226.708C297.281,-231.286 319.103,-236.34 338.975,-240.942"/>
<polygon fill="midnightblue" stroke="midnightblue" points="278.216,-223.279 267.685,-224.432 276.637,-230.098 278.216,-223.279"/>
</g>
<!-- Node29 -->
<g id="node29" class="node"><title>Node29</title>
<g id="a_node29"><a xlink:href="classx265_1_1Lookahead.html#a7de60f6bb080e48623088fb1ed9f034b" target="_top" xlink:title="x265::Lookahead::cuTree">
<polygon fill="white" stroke="black" points="538.5,-202.5 538.5,-221.5 665.5,-221.5 665.5,-202.5 538.5,-202.5"/>
<text text-anchor="middle" x="602" y="-209.5" font-family="Helvetica,sans-Serif" font-size="10.00">x265::Lookahead::cuTree</text>
</a>
</g>
</g>
<!-- Node18&#45;&gt;Node29 -->
<g id="edge38" class="edge"><title>Node18&#45;&gt;Node29</title>
<path fill="none" stroke="midnightblue" d="M278.127,-212C350.304,-212 466.797,-212 538.358,-212"/>
<polygon fill="midnightblue" stroke="midnightblue" points="277.811,-208.5 267.811,-212 277.811,-215.5 277.811,-208.5"/>
</g>
<!-- Node19&#45;&gt;Node14 -->
<g id="edge23" class="edge"><title>Node19&#45;&gt;Node14</title>
<path fill="none" stroke="midnightblue" d="M1006.2,-155.398C1023.6,-148.856 1043.57,-141.717 1062,-136 1072.9,-132.617 1084.84,-129.387 1095.91,-126.579"/>
<polygon fill="midnightblue" stroke="midnightblue" points="1004.93,-152.137 996.826,-158.958 1007.42,-158.681 1004.93,-152.137"/>
</g>
<!-- Node20 -->
<g id="node20" class="node"><title>Node20</title>
<g id="a_node20"><a xlink:href="classx265_1_1Lookahead.html#a0294c952379ca6f328014f92aa51259c" target="_top" xlink:title="x265::Lookahead::flush">
<polygon fill="white" stroke="black" points="1079,-183.5 1079,-202.5 1197,-202.5 1197,-183.5 1079,-183.5"/>
<text text-anchor="middle" x="1138" y="-190.5" font-family="Helvetica,sans-Serif" font-size="10.00">x265::Lookahead::flush</text>
</a>
</g>
</g>
<!-- Node19&#45;&gt;Node20 -->
<g id="edge24" class="edge"><title>Node19&#45;&gt;Node20</title>
<path fill="none" stroke="midnightblue" d="M1036.32,-182.253C1050.56,-183.773 1065.21,-185.337 1078.77,-186.784"/>
<polygon fill="midnightblue" stroke="midnightblue" points="1036.36,-178.737 1026.04,-181.156 1035.61,-185.698 1036.36,-178.737"/>
</g>
<!-- Node21 -->
<g id="node21" class="node"><title>Node21</title>
<g id="a_node21"><a xlink:href="classx265_1_1Lookahead.html#a341d8c6a3a971583aa911cf8dedbe6a1" target="_top" xlink:title="x265::Lookahead::findJob">
<polygon fill="white" stroke="black" points="1074,-145.5 1074,-164.5 1202,-164.5 1202,-145.5 1074,-145.5"/>
<text text-anchor="middle" x="1138" y="-152.5" font-family="Helvetica,sans-Serif" font-size="10.00">x265::Lookahead::findJob</text>
</a>
</g>
</g>
<!-- Node19&#45;&gt;Node21 -->
<g id="edge26" class="edge"><title>Node19&#45;&gt;Node21</title>
<path fill="none" stroke="midnightblue" d="M1036.07,-165.774C1048.68,-164.428 1061.62,-163.047 1073.84,-161.742"/>
<polygon fill="midnightblue" stroke="midnightblue" points="1035.61,-162.302 1026.04,-166.844 1036.36,-169.263 1035.61,-162.302"/>
</g>
<!-- Node20&#45;&gt;Node15 -->
<g id="edge25" class="edge"><title>Node20&#45;&gt;Node15</title>
<path fill="none" stroke="midnightblue" d="M1191.59,-181.176C1215.41,-175.818 1243.21,-169.569 1265.66,-164.52"/>
<polygon fill="midnightblue" stroke="midnightblue" points="1190.63,-177.802 1181.65,-183.411 1192.17,-184.632 1190.63,-177.802"/>
</g>
<!-- Node23 -->
<g id="node23" class="node"><title>Node23</title>
<g id="a_node23"><a xlink:href="classx265_1_1Lookahead.html#ad80879ec65df8318fbb5109388dcfa39" target="_top" xlink:title="x265::Lookahead::vbvLookahead">
<polygon fill="white" stroke="black" points="522,-164.5 522,-183.5 682,-183.5 682,-164.5 522,-164.5"/>
<text text-anchor="middle" x="602" y="-171.5" font-family="Helvetica,sans-Serif" font-size="10.00">x265::Lookahead::vbvLookahead</text>
</a>
</g>
</g>
<!-- Node22&#45;&gt;Node23 -->
<g id="edge28" class="edge"><title>Node22&#45;&gt;Node23</title>
<path fill="none" stroke="midnightblue" d="M495.797,-174C504.534,-174 513.355,-174 521.975,-174"/>
<polygon fill="midnightblue" stroke="midnightblue" points="495.595,-170.5 485.595,-174 495.595,-177.5 495.595,-170.5"/>
</g>
<!-- Node23&#45;&gt;Node24 -->
<g id="edge29" class="edge"><title>Node23&#45;&gt;Node24</title>
<path fill="none" stroke="midnightblue" d="M692.118,-174C700.733,-174 709.37,-174 717.721,-174"/>
<polygon fill="midnightblue" stroke="midnightblue" points="692.034,-170.5 682.034,-174 692.034,-177.5 692.034,-170.5"/>
</g>
<!-- Node24&#45;&gt;Node19 -->
<g id="edge30" class="edge"><title>Node24&#45;&gt;Node19</title>
<path fill="none" stroke="midnightblue" d="M864.425,-174C872.876,-174 881.428,-174 889.743,-174"/>
<polygon fill="midnightblue" stroke="midnightblue" points="864.189,-170.5 854.189,-174 864.188,-177.5 864.189,-170.5"/>
</g>
<!-- Node26 -->
<g id="node26" class="node"><title>Node26</title>
<g id="a_node26"><a xlink:href="classx265_1_1Lookahead.html#aa8614a28660df5604b8f7a2319d1c43a" target="_top" xlink:title="x265::Lookahead::scenecut">
<polygon fill="white" stroke="black" points="533.5,-85.5 533.5,-104.5 670.5,-104.5 670.5,-85.5 533.5,-85.5"/>
<text text-anchor="middle" x="602" y="-92.5" font-family="Helvetica,sans-Serif" font-size="10.00">x265::Lookahead::scenecut</text>
</a>
</g>
</g>
<!-- Node25&#45;&gt;Node26 -->
<g id="edge33" class="edge"><title>Node25&#45;&gt;Node26</title>
<path fill="none" stroke="midnightblue" d="M483.773,-93.1965C500.215,-93.4495 517.439,-93.7144 533.465,-93.961"/>
<polygon fill="midnightblue" stroke="midnightblue" points="483.707,-89.6952 473.654,-93.0408 483.599,-96.6943 483.707,-89.6952"/>
</g>
<!-- Node26&#45;&gt;Node24 -->
<g id="edge34" class="edge"><title>Node26&#45;&gt;Node24</title>
<path fill="none" stroke="midnightblue" d="M643.783,-107.74C656.189,-111.935 669.772,-116.853 682,-122 708.217,-133.036 737.04,-147.828 757.512,-158.814"/>
<polygon fill="midnightblue" stroke="midnightblue" points="644.728,-104.366 634.135,-104.54 642.525,-111.01 644.728,-104.366"/>
</g>
<!-- Node28 -->
<g id="node28" class="node"><title>Node28</title>
<g id="a_node28"><a xlink:href="classx265_1_1Lookahead.html#a694b3e0d0fb30e4e5b149cd3d79a839d" target="_top" xlink:title="x265::Lookahead::slicetypePath">
<polygon fill="white" stroke="black" points="524,-243.5 524,-262.5 680,-262.5 680,-243.5 524,-243.5"/>
<text text-anchor="middle" x="602" y="-250.5" font-family="Helvetica,sans-Serif" font-size="10.00">x265::Lookahead::slicetypePath</text>
</a>
</g>
</g>
<!-- Node27&#45;&gt;Node28 -->
<g id="edge36" class="edge"><title>Node27&#45;&gt;Node28</title>
<path fill="none" stroke="midnightblue" d="M483.182,-254.813C496.514,-254.607 510.377,-254.394 523.712,-254.189"/>
<polygon fill="midnightblue" stroke="midnightblue" points="483.053,-251.314 473.108,-254.968 483.161,-258.313 483.053,-251.314"/>
</g>
<!-- Node28&#45;&gt;Node24 -->
<g id="edge37" class="edge"><title>Node28&#45;&gt;Node24</title>
<path fill="none" stroke="midnightblue" d="M653.937,-240.708C663.399,-237.895 673.101,-234.643 682,-231 710.561,-219.309 741.264,-201.579 761.646,-189.001"/>
<polygon fill="midnightblue" stroke="midnightblue" points="652.865,-237.374 644.207,-243.48 654.783,-244.106 652.865,-237.374"/>
</g>
<!-- Node29&#45;&gt;Node24 -->
<g id="edge39" class="edge"><title>Node29&#45;&gt;Node24</title>
<path fill="none" stroke="midnightblue" d="M658.727,-200.365C677.366,-196.473 698.341,-192.094 717.763,-188.038"/>
<polygon fill="midnightblue" stroke="midnightblue" points="658,-196.941 648.926,-202.411 659.431,-203.793 658,-196.941"/>
</g>
<!-- Node31 -->
<g id="node31" class="node"><title>Node31</title>
<g id="a_node31"><a xlink:href="testpool_8cpp.html#a2c3f6775325c30275d11c6abee2db6a0" target="_top" xlink:title="main">
<polygon fill="white" stroke="black" points="386,-0.5 386,-19.5 424,-19.5 424,-0.5 386,-0.5"/>
<text text-anchor="middle" x="405" y="-7.5" font-family="Helvetica,sans-Serif" font-size="10.00">main</text>
</a>
</g>
</g>
<!-- Node30&#45;&gt;Node31 -->
<g id="edge41" class="edge"><title>Node30&#45;&gt;Node31</title>
<path fill="none" stroke="midnightblue" d="M275.012,-10C313.518,-10 360.605,-10 385.884,-10"/>
<polygon fill="midnightblue" stroke="midnightblue" points="274.917,-6.5001 264.917,-10 274.916,-13.5001 274.917,-6.5001"/>
</g>
</g>
</svg>
        <g id="navigator" transform="translate(0 0)" fill="#404254">
                <rect fill="#f2f5e9" fill-opacity="0.5" stroke="#606060" stroke-width=".5" x="0" y="0" width="60" height="60"/>
                <use id="zoomplus" xlink:href="#zoomPlus" x="17" y="9" onmousedown="handleZoom(evt,'in')"/>
                <use id="zoomminus" xlink:href="#zoomMin" x="42" y="9" onmousedown="handleZoom(evt,'out')"/>
                <use id="reset" xlink:href="#resetDef" x="30" y="36" onmousedown="handleReset()"/>
                <g id="arrowUp" xlink:href="#dirArrow" transform="translate(30 24)" onmousedown="handlePan(0,-1)">
                  <use xlink:href="#rim" fill="#404040">
                        <set attributeName="fill" to="#808080" begin="arrowUp.mouseover" end="arrowUp.mouseout"/>
                  </use>
                  <path fill="none" stroke="white" stroke-width="1.5" d="M0,-3.0v7 M-2.5,-0.5L0,-3.0L2.5,-0.5"/>
                </g>
                <g id="arrowRight" xlink:href="#dirArrow" transform="rotate(90) translate(36 -43)" onmousedown="handlePan(1,0)">
                  <use xlink:href="#rim" fill="#404040">
                        <set attributeName="fill" to="#808080" begin="arrowRight.mouseover" end="arrowRight.mouseout"/>
                  </use>
                  <path fill="none" stroke="white" stroke-width="1.5" d="M0,-3.0v7 M-2.5,-0.5L0,-3.0L2.5,-0.5"/>
                </g>
                <g id="arrowDown" xlink:href="#dirArrow" transform="rotate(180) translate(-30 -48)" onmousedown="handlePan(0,1)">
                  <use xlink:href="#rim" fill="#404040">
                        <set attributeName="fill" to="#808080" begin="arrowDown.mouseover" end="arrowDown.mouseout"/>
                  </use>
                  <path fill="none" stroke="white" stroke-width="1.5" d="M0,-3.0v7 M-2.5,-0.5L0,-3.0L2.5,-0.5"/>
                </g>
                <g id="arrowLeft" xlink:href="#dirArrow" transform="rotate(270) translate(-36 17)" onmousedown="handlePan(-1,0)">
                  <use xlink:href="#rim" fill="#404040">
                        <set attributeName="fill" to="#808080" begin="arrowLeft.mouseover" end="arrowLeft.mouseout"/>
                  </use>
                  <path fill="none" stroke="white" stroke-width="1.5" d="M0,-3.0v7 M-2.5,-0.5L0,-3.0L2.5,-0.5"/>
                </g>
        </g>
        <svg viewBox="0 0 15 15" width="100%" height="30px" preserveAspectRatio="xMaxYMin meet">
         <g id="arrow_out" transform="scale(0.3 0.3)">
          <a xlink:href="classx265_1_1JobProvider_a18b4ca907c73a70fd1a3d19951e715f5_icgraph_org.svg" target="_base">
           <rect id="button" ry="5" rx="5" y="6" x="6" height="38" width="38"
                fill="#f2f5e9" fill-opacity="0.5" stroke="#606060" stroke-width="1.0"/>
           <path id="arrow"
             d="M 11.500037,31.436501 C 11.940474,20.09759 22.043105,11.32322 32.158766,21.979434 L 37.068811,17.246167 C 37.068811,17.246167 37.088388,32 37.088388,32 L 22.160133,31.978069 C 22.160133,31.978069 26.997745,27.140456 26.997745,27.140456 C 18.528582,18.264221 13.291696,25.230495 11.500037,31.436501 z"
             style="fill:#404040;"/>
          </a>
         </g>
        </svg>
</svg>
