<?xml version="1.0" encoding="UTF-8" standalone="no"?>
<!DOCTYPE svg PUBLIC "-//W3C//DTD SVG 1.1//EN"
 "http://www.w3.org/Graphics/SVG/1.1/DTD/svg11.dtd">
<!-- Generated by graphviz version 2.36.0 (20140111.2315)
 -->
<!-- Title: x265::Entropy::codeRefFrmIdxPU Pages: 1 -->
<!--zoomable 445 -->
<svg id="main" version="1.1" xmlns="http://www.w3.org/2000/svg" xmlns:xlink="http://www.w3.org/1999/xlink" xml:space="preserve" onload="init(evt)">
<style type="text/css"><![CDATA[
.edge:hover path { stroke: red; }
.edge:hover polygon { stroke: red; fill: red; }
]]></style>
<script type="text/javascript"><![CDATA[
var edges = document.getElementsByTagName('g');
if (edges && edges.length) {
  for (var i=0;i<edges.length;i++) {
    if (edges[i].id.substr(0,4)=='edge') {
      edges[i].setAttribute('class','edge');
    }
  }
}
]]></script>
        <defs>
                <circle id="rim" cx="0" cy="0" r="7"/>
                <circle id="rim2" cx="0" cy="0" r="3.5"/>
                <g id="zoomPlus">
                        <use xlink:href="#rim" fill="#404040">
                                <set attributeName="fill" to="#808080" begin="zoomplus.mouseover" end="zoomplus.mouseout"/>
                        </use>
                        <path d="M-4,0h8M0,-4v8" fill="none" stroke="white" stroke-width="1.5" pointer-events="none"/>
                </g>
                <g id="zoomMin">
                        <use xlink:href="#rim" fill="#404040">
                                <set attributeName="fill" to="#808080" begin="zoomminus.mouseover" end="zoomminus.mouseout"/>
                        </use>
                        <path d="M-4,0h8" fill="none" stroke="white" stroke-width="1.5" pointer-events="none"/>
                </g>
                <g id="dirArrow">
                        <path fill="none" stroke="white" stroke-width="1.5" d="M0,-3.0v7 M-2.5,-0.5L0,-3.0L2.5,-0.5"/>
                </g>
               <g id="resetDef">
                       <use xlink:href="#rim2" fill="#404040">
                               <set attributeName="fill" to="#808080" begin="reset.mouseover" end="reset.mouseout"/>
                       </use>
               </g>
        </defs>

<script type="text/javascript">
var viewWidth = 1982;
var viewHeight = 445;
var sectionId = 'dynsection-57';
</script>
<script xlink:href="svgpan.js"/>
<svg id="graph" class="graph">
<g id="viewport">
<title>x265::Entropy::codeRefFrmIdxPU</title>
<polygon fill="white" stroke="none" points="-4,4 -4,-441.163 1978,-441.163 1978,4 -4,4"/>
<!-- Node1 -->
<g id="node1" class="node"><title>Node1</title>
<polygon fill="#bfbfbf" stroke="black" points="0.5,-87 0.5,-117 137.5,-117 137.5,-87 0.5,-87"/>
<text text-anchor="start" x="8.5" y="-105" font-family="Helvetica,sans-Serif" font-size="10.00">x265::Entropy::codeRefFrm</text>
<text text-anchor="middle" x="69" y="-94" font-family="Helvetica,sans-Serif" font-size="10.00">IdxPU</text>
</g>
<!-- Node2 -->
<g id="node2" class="node"><title>Node2</title>
<g id="a_node2"><a xlink:href="classx265_1_1Entropy.html#af4c256cca3be50b1f7e6695f7447ffd8" target="_top" xlink:title="x265::Entropy::codePUWise">
<polygon fill="white" stroke="black" points="174.5,-92.5 174.5,-111.5 315.5,-111.5 315.5,-92.5 174.5,-92.5"/>
<text text-anchor="middle" x="245" y="-99.5" font-family="Helvetica,sans-Serif" font-size="10.00">x265::Entropy::codePUWise</text>
</a>
</g>
</g>
<!-- Node1&#45;&gt;Node2 -->
<g id="edge1" class="edge"><title>Node1&#45;&gt;Node2</title>
<path fill="none" stroke="midnightblue" d="M148.016,-102C156.811,-102 165.729,-102 174.406,-102"/>
<polygon fill="midnightblue" stroke="midnightblue" points="147.771,-98.5001 137.771,-102 147.771,-105.5 147.771,-98.5001"/>
</g>
<!-- Node3 -->
<g id="node3" class="node"><title>Node3</title>
<g id="a_node3"><a xlink:href="classx265_1_1Entropy.html#a2a627c1c7ab4aee68a3b6c3b572e649a" target="_top" xlink:title="x265::Entropy::codePredInfo">
<polygon fill="white" stroke="black" points="352.5,-92.5 352.5,-111.5 493.5,-111.5 493.5,-92.5 352.5,-92.5"/>
<text text-anchor="middle" x="423" y="-99.5" font-family="Helvetica,sans-Serif" font-size="10.00">x265::Entropy::codePredInfo</text>
</a>
</g>
</g>
<!-- Node2&#45;&gt;Node3 -->
<g id="edge2" class="edge"><title>Node2&#45;&gt;Node3</title>
<path fill="none" stroke="midnightblue" d="M325.581,-102C334.518,-102 343.571,-102 352.369,-102"/>
<polygon fill="midnightblue" stroke="midnightblue" points="325.56,-98.5001 315.56,-102 325.56,-105.5 325.56,-98.5001"/>
</g>
<!-- Node4 -->
<g id="node4" class="node"><title>Node4</title>
<g id="a_node4"><a xlink:href="classx265_1_1Analysis.html#ae4d61bcf4d2c22a054d68d6d77136428" target="_top" xlink:title="x265::Analysis::encodeIntra\lInInter">
<polygon fill="white" stroke="black" points="530,-344 530,-374 668,-374 668,-344 530,-344"/>
<text text-anchor="start" x="538" y="-362" font-family="Helvetica,sans-Serif" font-size="10.00">x265::Analysis::encodeIntra</text>
<text text-anchor="middle" x="599" y="-351" font-family="Helvetica,sans-Serif" font-size="10.00">InInter</text>
</a>
</g>
</g>
<!-- Node3&#45;&gt;Node4 -->
<g id="edge3" class="edge"><title>Node3&#45;&gt;Node4</title>
<path fill="none" stroke="midnightblue" d="M436.376,-120.279C469.085,-168.591 557.391,-299.02 587.657,-343.723"/>
<polygon fill="midnightblue" stroke="midnightblue" points="439.113,-118.079 430.609,-111.761 433.317,-122.004 439.113,-118.079"/>
</g>
<!-- Node14 -->
<g id="node14" class="node"><title>Node14</title>
<g id="a_node14"><a xlink:href="classx265_1_1Entropy.html#adeb50a7c9a5df6643407d01158d93799" target="_top" xlink:title="x265::Entropy::encodeCU">
<polygon fill="white" stroke="black" points="534,-4.5 534,-23.5 664,-23.5 664,-4.5 534,-4.5"/>
<text text-anchor="middle" x="599" y="-11.5" font-family="Helvetica,sans-Serif" font-size="10.00">x265::Entropy::encodeCU</text>
</a>
</g>
</g>
<!-- Node3&#45;&gt;Node14 -->
<g id="edge15" class="edge"><title>Node3&#45;&gt;Node14</title>
<path fill="none" stroke="midnightblue" d="M452.328,-87.6734C488.052,-69.6061 548.492,-39.0384 579.071,-23.5732"/>
<polygon fill="midnightblue" stroke="midnightblue" points="450.296,-84.7785 442.952,-92.4149 453.456,-91.0251 450.296,-84.7785"/>
</g>
<!-- Node17 -->
<g id="node17" class="node"><title>Node17</title>
<g id="a_node17"><a xlink:href="classx265_1_1Search.html#ab02df91827cf67796d1605bde60c6aed" target="_top" xlink:title="x265::Search::checkIntra">
<polygon fill="white" stroke="black" points="715,-38.5 715,-57.5 841,-57.5 841,-38.5 715,-38.5"/>
<text text-anchor="middle" x="778" y="-45.5" font-family="Helvetica,sans-Serif" font-size="10.00">x265::Search::checkIntra</text>
</a>
</g>
</g>
<!-- Node3&#45;&gt;Node17 -->
<g id="edge20" class="edge"><title>Node3&#45;&gt;Node17</title>
<path fill="none" stroke="midnightblue" d="M496.362,-90.9305C560.667,-81.0934 653.684,-66.8642 714.733,-57.5252"/>
<polygon fill="midnightblue" stroke="midnightblue" points="495.652,-87.4982 486.297,-92.4702 496.711,-94.4177 495.652,-87.4982"/>
</g>
<!-- Node21 -->
<g id="node21" class="node"><title>Node21</title>
<g id="a_node21"><a xlink:href="classx265_1_1Search.html#aba5e04ce529f41accd43c540ba1dc7ad" target="_top" xlink:title="x265::Search::encodeResAnd\lCalcRdInterCU">
<polygon fill="white" stroke="black" points="704.5,-152 704.5,-182 851.5,-182 851.5,-152 704.5,-152"/>
<text text-anchor="start" x="712.5" y="-170" font-family="Helvetica,sans-Serif" font-size="10.00">x265::Search::encodeResAnd</text>
<text text-anchor="middle" x="778" y="-159" font-family="Helvetica,sans-Serif" font-size="10.00">CalcRdInterCU</text>
</a>
</g>
</g>
<!-- Node3&#45;&gt;Node21 -->
<g id="edge30" class="edge"><title>Node3&#45;&gt;Node21</title>
<path fill="none" stroke="midnightblue" d="M485.572,-113.338C546.503,-124.557 639.764,-141.73 704.302,-153.614"/>
<polygon fill="midnightblue" stroke="midnightblue" points="486.176,-109.89 475.707,-111.521 484.908,-116.774 486.176,-109.89"/>
</g>
<!-- Node5 -->
<g id="node5" class="node"><title>Node5</title>
<g id="a_node5"><a xlink:href="classx265_1_1Analysis.html#aa6122285d10bb1bd7584958b88b029d5" target="_top" xlink:title="x265::Analysis::parallel\lModeAnalysis">
<polygon fill="white" stroke="black" points="719,-366 719,-396 837,-396 837,-366 719,-366"/>
<text text-anchor="start" x="727" y="-384" font-family="Helvetica,sans-Serif" font-size="10.00">x265::Analysis::parallel</text>
<text text-anchor="middle" x="778" y="-373" font-family="Helvetica,sans-Serif" font-size="10.00">ModeAnalysis</text>
</a>
</g>
</g>
<!-- Node4&#45;&gt;Node5 -->
<g id="edge4" class="edge"><title>Node4&#45;&gt;Node5</title>
<path fill="none" stroke="midnightblue" d="M678.492,-368.756C692.088,-370.446 706.002,-372.175 718.931,-373.782"/>
<polygon fill="midnightblue" stroke="midnightblue" points="678.535,-365.235 668.18,-367.474 677.672,-372.181 678.535,-365.235"/>
</g>
<!-- Node7 -->
<g id="node7" class="node"><title>Node7</title>
<g id="a_node7"><a xlink:href="classx265_1_1Analysis.html#a87060ff27a37f56adc5f5b8a4c033ece" target="_top" xlink:title="x265::Analysis::compress\lInterCU_dist">
<polygon fill="white" stroke="black" points="1070,-264 1070,-294 1200,-294 1200,-264 1070,-264"/>
<text text-anchor="start" x="1078" y="-282" font-family="Helvetica,sans-Serif" font-size="10.00">x265::Analysis::compress</text>
<text text-anchor="middle" x="1135" y="-271" font-family="Helvetica,sans-Serif" font-size="10.00">InterCU_dist</text>
</a>
</g>
</g>
<!-- Node4&#45;&gt;Node7 -->
<g id="edge12" class="edge"><title>Node4&#45;&gt;Node7</title>
<path fill="none" stroke="midnightblue" d="M634.777,-378.759C654.422,-388.78 679.82,-399.891 704,-405 847.541,-435.328 902.271,-461.586 1034,-397 1079.81,-374.539 1112.71,-320.419 1126.62,-294.007"/>
<polygon fill="midnightblue" stroke="midnightblue" points="636.386,-375.65 625.904,-374.107 633.136,-381.85 636.386,-375.65"/>
</g>
<!-- Node13 -->
<g id="node13" class="node"><title>Node13</title>
<g id="a_node13"><a xlink:href="classx265_1_1Analysis.html#a30d2ff7eca5addbb0a6b3dfe14f09650" target="_top" xlink:title="x265::Analysis::compress\lInterCU_rd0_4">
<polygon fill="white" stroke="black" points="1070,-196 1070,-226 1200,-226 1200,-196 1070,-196"/>
<text text-anchor="start" x="1078" y="-214" font-family="Helvetica,sans-Serif" font-size="10.00">x265::Analysis::compress</text>
<text text-anchor="middle" x="1135" y="-203" font-family="Helvetica,sans-Serif" font-size="10.00">InterCU_rd0_4</text>
</a>
</g>
</g>
<!-- Node4&#45;&gt;Node13 -->
<g id="edge13" class="edge"><title>Node4&#45;&gt;Node13</title>
<path fill="none" stroke="midnightblue" d="M678.352,-354.529C767.502,-347.208 916.012,-328.14 1034,-279 1051.98,-271.511 1053.91,-264.988 1070,-254 1083.71,-244.637 1099.15,-234.256 1111.43,-226.04"/>
<polygon fill="midnightblue" stroke="midnightblue" points="678.007,-351.045 668.315,-355.324 678.56,-358.024 678.007,-351.045"/>
</g>
<!-- Node6 -->
<g id="node6" class="node"><title>Node6</title>
<g id="a_node6"><a xlink:href="classx265_1_1Analysis.html#a29a58dad4cc1c07d2f5e5717c6be7c25" target="_top" xlink:title="x265::Analysis::findJob">
<polygon fill="white" stroke="black" points="901.5,-368.5 901.5,-387.5 1020.5,-387.5 1020.5,-368.5 901.5,-368.5"/>
<text text-anchor="middle" x="961" y="-375.5" font-family="Helvetica,sans-Serif" font-size="10.00">x265::Analysis::findJob</text>
</a>
</g>
</g>
<!-- Node5&#45;&gt;Node6 -->
<g id="edge5" class="edge"><title>Node5&#45;&gt;Node6</title>
<path fill="none" stroke="midnightblue" d="M847.519,-379.864C865.205,-379.571 884.083,-379.258 901.223,-378.974"/>
<polygon fill="midnightblue" stroke="midnightblue" points="847.206,-376.369 837.266,-380.034 847.323,-383.368 847.206,-376.369"/>
</g>
<!-- Node6&#45;&gt;Node7 -->
<g id="edge6" class="edge"><title>Node6&#45;&gt;Node7</title>
<path fill="none" stroke="midnightblue" d="M1002.36,-365.01C1012.9,-361.042 1024.09,-356.305 1034,-351 1064.74,-334.546 1096.88,-309.856 1116.17,-294.088"/>
<polygon fill="midnightblue" stroke="midnightblue" points="1001.12,-361.736 992.91,-368.432 1003.5,-368.318 1001.12,-361.736"/>
</g>
<!-- Node8 -->
<g id="node8" class="node"><title>Node8</title>
<g id="a_node8"><a xlink:href="classx265_1_1Analysis.html#aaebc9de2ff98834c650244f3b58942c2" target="_top" xlink:title="x265::Analysis::compressCTU">
<polygon fill="white" stroke="black" points="1236.5,-108.5 1236.5,-127.5 1387.5,-127.5 1387.5,-108.5 1236.5,-108.5"/>
<text text-anchor="middle" x="1312" y="-115.5" font-family="Helvetica,sans-Serif" font-size="10.00">x265::Analysis::compressCTU</text>
</a>
</g>
</g>
<!-- Node7&#45;&gt;Node8 -->
<g id="edge7" class="edge"><title>Node7&#45;&gt;Node8</title>
<path fill="none" stroke="midnightblue" d="M1168.96,-258.275C1179.23,-251.309 1190.39,-243.211 1200,-235 1242.15,-198.99 1285.5,-148.693 1302.98,-127.75"/>
<polygon fill="midnightblue" stroke="midnightblue" points="1166.97,-255.39 1160.58,-263.839 1170.85,-261.221 1166.97,-255.39"/>
</g>
<!-- Node9 -->
<g id="node9" class="node"><title>Node9</title>
<g id="a_node9"><a xlink:href="classx265_1_1FrameEncoder.html#a0ae85001572afd28238476542523ac5f" target="_top" xlink:title="x265::FrameEncoder\l::processRowEncoder">
<polygon fill="white" stroke="black" points="1424.5,-49 1424.5,-79 1537.5,-79 1537.5,-49 1424.5,-49"/>
<text text-anchor="start" x="1432.5" y="-67" font-family="Helvetica,sans-Serif" font-size="10.00">x265::FrameEncoder</text>
<text text-anchor="middle" x="1481" y="-56" font-family="Helvetica,sans-Serif" font-size="10.00">::processRowEncoder</text>
</a>
</g>
</g>
<!-- Node8&#45;&gt;Node9 -->
<g id="edge8" class="edge"><title>Node8&#45;&gt;Node9</title>
<path fill="none" stroke="midnightblue" d="M1352.09,-105.359C1376.43,-97.4884 1407.87,-87.3224 1433.49,-79.0389"/>
<polygon fill="midnightblue" stroke="midnightblue" points="1350.91,-102.063 1342.47,-108.47 1353.06,-108.724 1350.91,-102.063"/>
</g>
<!-- Node10 -->
<g id="node10" class="node"><title>Node10</title>
<g id="a_node10"><a xlink:href="classx265_1_1FrameEncoder.html#acad645a8ece97d884895f8f7366b7d70" target="_top" xlink:title="x265::FrameEncoder\l::processRow">
<polygon fill="white" stroke="black" points="1574.5,-49 1574.5,-79 1681.5,-79 1681.5,-49 1574.5,-49"/>
<text text-anchor="start" x="1582.5" y="-67" font-family="Helvetica,sans-Serif" font-size="10.00">x265::FrameEncoder</text>
<text text-anchor="middle" x="1628" y="-56" font-family="Helvetica,sans-Serif" font-size="10.00">::processRow</text>
</a>
</g>
</g>
<!-- Node9&#45;&gt;Node10 -->
<g id="edge9" class="edge"><title>Node9&#45;&gt;Node10</title>
<path fill="none" stroke="midnightblue" d="M1547.88,-64C1556.67,-64 1565.59,-64 1574.13,-64"/>
<polygon fill="midnightblue" stroke="midnightblue" points="1547.65,-60.5001 1537.65,-64 1547.65,-67.5001 1547.65,-60.5001"/>
</g>
<!-- Node11 -->
<g id="node11" class="node"><title>Node11</title>
<g id="a_node11"><a xlink:href="classx265_1_1FrameEncoder.html#ac4e9ce2e876c0cdb25c992c872fe4302" target="_top" xlink:title="x265::FrameEncoder\l::compressCTURows">
<polygon fill="white" stroke="black" points="1718,-47 1718,-77 1830,-77 1830,-47 1718,-47"/>
<text text-anchor="start" x="1726" y="-65" font-family="Helvetica,sans-Serif" font-size="10.00">x265::FrameEncoder</text>
<text text-anchor="middle" x="1774" y="-54" font-family="Helvetica,sans-Serif" font-size="10.00">::compressCTURows</text>
</a>
</g>
</g>
<!-- Node10&#45;&gt;Node11 -->
<g id="edge10" class="edge"><title>Node10&#45;&gt;Node11</title>
<path fill="none" stroke="midnightblue" d="M1691.83,-63.1273C1700.48,-63.0073 1709.3,-62.8848 1717.79,-62.7669"/>
<polygon fill="midnightblue" stroke="midnightblue" points="1691.75,-59.628 1681.8,-63.2666 1691.85,-66.6273 1691.75,-59.628"/>
</g>
<!-- Node12 -->
<g id="node12" class="node"><title>Node12</title>
<g id="a_node12"><a xlink:href="classx265_1_1FrameEncoder.html#a2f5c4c0f1a4e36fce4c9b87eb7ec4973" target="_top" xlink:title="x265::FrameEncoder\l::compressFrame">
<polygon fill="white" stroke="red" points="1866.5,-24 1866.5,-54 1973.5,-54 1973.5,-24 1866.5,-24"/>
<text text-anchor="start" x="1874.5" y="-42" font-family="Helvetica,sans-Serif" font-size="10.00">x265::FrameEncoder</text>
<text text-anchor="middle" x="1920" y="-31" font-family="Helvetica,sans-Serif" font-size="10.00">::compressFrame</text>
</a>
</g>
</g>
<!-- Node11&#45;&gt;Node12 -->
<g id="edge11" class="edge"><title>Node11&#45;&gt;Node12</title>
<path fill="none" stroke="midnightblue" d="M1840.14,-51.596C1848.96,-50.1866 1857.93,-48.755 1866.49,-47.3869"/>
<polygon fill="midnightblue" stroke="midnightblue" points="1839.59,-48.1399 1830.26,-53.1734 1840.69,-55.0523 1839.59,-48.1399"/>
</g>
<!-- Node13&#45;&gt;Node8 -->
<g id="edge14" class="edge"><title>Node13&#45;&gt;Node8</title>
<path fill="none" stroke="midnightblue" d="M1173.43,-191.108C1210.14,-171.597 1264.58,-142.668 1292.7,-127.723"/>
<polygon fill="midnightblue" stroke="midnightblue" points="1171.69,-188.067 1164.51,-195.851 1174.98,-194.249 1171.69,-188.067"/>
</g>
<!-- Node15 -->
<g id="node15" class="node"><title>Node15</title>
<g id="a_node15"><a xlink:href="classx265_1_1Entropy.html#abb101b71f310e90eb504a8204babc180" target="_top" xlink:title="x265::Entropy::encodeCTU">
<polygon fill="white" stroke="black" points="1244,-5.5 1244,-24.5 1380,-24.5 1380,-5.5 1244,-5.5"/>
<text text-anchor="middle" x="1312" y="-12.5" font-family="Helvetica,sans-Serif" font-size="10.00">x265::Entropy::encodeCTU</text>
</a>
</g>
</g>
<!-- Node14&#45;&gt;Node15 -->
<g id="edge16" class="edge"><title>Node14&#45;&gt;Node15</title>
<path fill="none" stroke="midnightblue" d="M674.58,-13.2023C761.042,-12.383 907.837,-11.3168 1034,-12 1105.66,-12.388 1187.74,-13.3406 1243.83,-14.0692"/>
<polygon fill="midnightblue" stroke="midnightblue" points="674.306,-9.70472 664.34,-13.3009 674.374,-16.7044 674.306,-9.70472"/>
</g>
<!-- Node15&#45;&gt;Node9 -->
<g id="edge19" class="edge"><title>Node15&#45;&gt;Node9</title>
<path fill="none" stroke="midnightblue" d="M1355.45,-27.4541C1377.75,-33.9992 1405.26,-42.0713 1428.75,-48.963"/>
<polygon fill="midnightblue" stroke="midnightblue" points="1356.18,-24.0211 1345.6,-24.564 1354.21,-30.7379 1356.18,-24.0211"/>
</g>
<!-- Node16 -->
<g id="node16" class="node"><title>Node16</title>
<g id="a_node16"><a xlink:href="classx265_1_1FrameEncoder.html#a6d4045d35bfe6b10c8d0dc39353be360" target="_top" xlink:title="x265::FrameEncoder\l::encodeSlice">
<polygon fill="white" stroke="black" points="1574.5,-0 1574.5,-30 1681.5,-30 1681.5,-0 1574.5,-0"/>
<text text-anchor="start" x="1582.5" y="-18" font-family="Helvetica,sans-Serif" font-size="10.00">x265::FrameEncoder</text>
<text text-anchor="middle" x="1628" y="-7" font-family="Helvetica,sans-Serif" font-size="10.00">::encodeSlice</text>
</a>
</g>
</g>
<!-- Node15&#45;&gt;Node16 -->
<g id="edge17" class="edge"><title>Node15&#45;&gt;Node16</title>
<path fill="none" stroke="midnightblue" d="M1390.45,-15C1447.65,-15 1524,-15 1574.29,-15"/>
<polygon fill="midnightblue" stroke="midnightblue" points="1390.36,-11.5001 1380.36,-15 1390.36,-18.5001 1390.36,-11.5001"/>
</g>
<!-- Node16&#45;&gt;Node12 -->
<g id="edge18" class="edge"><title>Node16&#45;&gt;Node12</title>
<path fill="none" stroke="midnightblue" d="M1691.65,-20.1849C1743.81,-24.5014 1817.23,-30.5779 1866.38,-34.6456"/>
<polygon fill="midnightblue" stroke="midnightblue" points="1691.77,-16.683 1681.52,-19.3462 1691.19,-23.6592 1691.77,-16.683"/>
</g>
<!-- Node18 -->
<g id="node18" class="node"><title>Node18</title>
<g id="a_node18"><a xlink:href="classx265_1_1Analysis.html#a10f0a8d9d143faf8dc671c6f0982693d" target="_top" xlink:title="x265::Analysis::tryLossless">
<polygon fill="white" stroke="black" points="892.5,-64.5 892.5,-83.5 1029.5,-83.5 1029.5,-64.5 892.5,-64.5"/>
<text text-anchor="middle" x="961" y="-71.5" font-family="Helvetica,sans-Serif" font-size="10.00">x265::Analysis::tryLossless</text>
</a>
</g>
</g>
<!-- Node17&#45;&gt;Node18 -->
<g id="edge21" class="edge"><title>Node17&#45;&gt;Node18</title>
<path fill="none" stroke="midnightblue" d="M851.14,-58.3627C865.194,-60.3815 879.864,-62.4888 893.717,-64.4787"/>
<polygon fill="midnightblue" stroke="midnightblue" points="851.433,-54.8689 841.037,-56.9113 850.437,-61.7977 851.433,-54.8689"/>
</g>
<!-- Node19 -->
<g id="node19" class="node"><title>Node19</title>
<g id="a_node19"><a xlink:href="classx265_1_1Analysis.html#aae2a6a2252270782b591d2bed7e99dae" target="_top" xlink:title="x265::Analysis::compress\lIntraCU">
<polygon fill="white" stroke="black" points="1070,-54 1070,-84 1200,-84 1200,-54 1070,-54"/>
<text text-anchor="start" x="1078" y="-72" font-family="Helvetica,sans-Serif" font-size="10.00">x265::Analysis::compress</text>
<text text-anchor="middle" x="1135" y="-61" font-family="Helvetica,sans-Serif" font-size="10.00">IntraCU</text>
</a>
</g>
</g>
<!-- Node17&#45;&gt;Node19 -->
<g id="edge28" class="edge"><title>Node17&#45;&gt;Node19</title>
<path fill="none" stroke="midnightblue" d="M820.341,-35.7589C871.179,-22.5362 959.847,-5.44289 1034,-22 1061.33,-28.1033 1090.02,-42.5321 1109.62,-53.8049"/>
<polygon fill="midnightblue" stroke="midnightblue" points="819.143,-32.4562 810.389,-38.4244 820.954,-39.2179 819.143,-32.4562"/>
</g>
<!-- Node20 -->
<g id="node20" class="node"><title>Node20</title>
<g id="a_node20"><a xlink:href="classx265_1_1Analysis.html#a0b22b7765aa4a36b1ba6d07ba26901e6" target="_top" xlink:title="x265::Analysis::compress\lInterCU_rd5_6">
<polygon fill="white" stroke="black" points="1070,-103 1070,-133 1200,-133 1200,-103 1070,-103"/>
<text text-anchor="start" x="1078" y="-121" font-family="Helvetica,sans-Serif" font-size="10.00">x265::Analysis::compress</text>
<text text-anchor="middle" x="1135" y="-110" font-family="Helvetica,sans-Serif" font-size="10.00">InterCU_rd5_6</text>
</a>
</g>
</g>
<!-- Node17&#45;&gt;Node20 -->
<g id="edge29" class="edge"><title>Node17&#45;&gt;Node20</title>
<path fill="none" stroke="midnightblue" d="M839.436,-37.089C892.992,-30.2747 972.074,-27.3508 1034,-55 1055.24,-64.4849 1050.7,-80.01 1070,-93 1075.54,-96.7299 1081.72,-100.024 1087.99,-102.895"/>
<polygon fill="midnightblue" stroke="midnightblue" points="838.85,-33.6364 829.411,-38.4479 839.79,-40.5729 838.85,-33.6364"/>
</g>
<!-- Node18&#45;&gt;Node7 -->
<g id="edge24" class="edge"><title>Node18&#45;&gt;Node7</title>
<path fill="none" stroke="midnightblue" d="M1029.43,-88.9705C1031.04,-90.2126 1032.57,-91.5532 1034,-93 1079.81,-139.261 1032.79,-181.575 1070,-235 1078.32,-246.949 1091.01,-256.647 1102.91,-263.867"/>
<polygon fill="midnightblue" stroke="midnightblue" points="1031.14,-85.9109 1020.81,-83.5457 1027.41,-91.835 1031.14,-85.9109"/>
</g>
<!-- Node18&#45;&gt;Node13 -->
<g id="edge25" class="edge"><title>Node18&#45;&gt;Node13</title>
<path fill="none" stroke="midnightblue" d="M1024.72,-87.6385C1027.96,-89.2323 1031.08,-91.0122 1034,-93 1056.34,-108.205 1052.78,-121.171 1070,-142 1085.93,-161.268 1105.68,-182.151 1118.99,-195.836"/>
<polygon fill="midnightblue" stroke="midnightblue" points="1025.91,-84.3376 1015.33,-83.6217 1023.15,-90.7733 1025.91,-84.3376"/>
</g>
<!-- Node18&#45;&gt;Node19 -->
<g id="edge22" class="edge"><title>Node18&#45;&gt;Node19</title>
<path fill="none" stroke="midnightblue" d="M1040.24,-71.7255C1050.16,-71.4372 1060.22,-71.1449 1069.88,-70.864"/>
<polygon fill="midnightblue" stroke="midnightblue" points="1039.87,-68.2347 1029.98,-72.0239 1040.08,-75.2317 1039.87,-68.2347"/>
</g>
<!-- Node18&#45;&gt;Node20 -->
<g id="edge26" class="edge"><title>Node18&#45;&gt;Node20</title>
<path fill="none" stroke="midnightblue" d="M1009.01,-86.0261C1029.41,-91.2453 1053.53,-97.4144 1075.11,-102.935"/>
<polygon fill="midnightblue" stroke="midnightblue" points="1009.88,-82.6349 999.321,-83.5473 1008.14,-89.4166 1009.88,-82.6349"/>
</g>
<!-- Node19&#45;&gt;Node8 -->
<g id="edge23" class="edge"><title>Node19&#45;&gt;Node8</title>
<path fill="none" stroke="midnightblue" d="M1199.79,-86.8599C1225.94,-94.1823 1255.15,-102.361 1277.06,-108.498"/>
<polygon fill="midnightblue" stroke="midnightblue" points="1200.51,-83.4274 1189.93,-84.1014 1198.62,-90.1682 1200.51,-83.4274"/>
</g>
<!-- Node20&#45;&gt;Node8 -->
<g id="edge27" class="edge"><title>Node20&#45;&gt;Node8</title>
<path fill="none" stroke="midnightblue" d="M1210.25,-118C1218.93,-118 1227.78,-118 1236.47,-118"/>
<polygon fill="midnightblue" stroke="midnightblue" points="1210.17,-114.5 1200.17,-118 1210.17,-121.5 1210.17,-114.5"/>
</g>
<!-- Node21&#45;&gt;Node7 -->
<g id="edge32" class="edge"><title>Node21&#45;&gt;Node7</title>
<path fill="none" stroke="midnightblue" d="M793.604,-190.88C811.822,-218.115 845.78,-261.175 888,-279 945.936,-303.46 1018.61,-299.781 1069.9,-292.242"/>
<polygon fill="midnightblue" stroke="midnightblue" points="796.42,-188.791 788.039,-182.309 790.549,-192.603 796.42,-188.791"/>
</g>
<!-- Node21&#45;&gt;Node13 -->
<g id="edge33" class="edge"><title>Node21&#45;&gt;Node13</title>
<path fill="none" stroke="midnightblue" d="M850.324,-184.155C862.826,-186.746 875.753,-189.162 888,-191 949.338,-200.203 1019.96,-205.393 1069.76,-208.166"/>
<polygon fill="midnightblue" stroke="midnightblue" points="850.918,-180.704 840.409,-182.048 849.462,-187.551 850.918,-180.704"/>
</g>
<!-- Node21&#45;&gt;Node18 -->
<g id="edge31" class="edge"><title>Node21&#45;&gt;Node18</title>
<path fill="none" stroke="midnightblue" d="M805.008,-145.602C826.195,-129.125 857.494,-106.888 888,-93 896.236,-89.2504 905.352,-86.1308 914.249,-83.577"/>
<polygon fill="midnightblue" stroke="midnightblue" points="802.807,-142.88 797.131,-151.826 807.147,-148.372 802.807,-142.88"/>
</g>
<!-- Node22 -->
<g id="node22" class="node"><title>Node22</title>
<g id="a_node22"><a xlink:href="classx265_1_1Analysis.html#addd72cb95590e2b2a6965d42d110eab3" target="_top" xlink:title="x265::Analysis::checkMerge2\lNx2N_rd0_4">
<polygon fill="white" stroke="black" points="888,-240 888,-270 1034,-270 1034,-240 888,-240"/>
<text text-anchor="start" x="896" y="-258" font-family="Helvetica,sans-Serif" font-size="10.00">x265::Analysis::checkMerge2</text>
<text text-anchor="middle" x="961" y="-247" font-family="Helvetica,sans-Serif" font-size="10.00">Nx2N_rd0_4</text>
</a>
</g>
</g>
<!-- Node21&#45;&gt;Node22 -->
<g id="edge34" class="edge"><title>Node21&#45;&gt;Node22</title>
<path fill="none" stroke="midnightblue" d="M814.444,-186.95C835.555,-198.557 863.019,-213.182 888,-225 898.894,-230.154 910.916,-235.35 921.964,-239.937"/>
<polygon fill="midnightblue" stroke="midnightblue" points="815.963,-183.791 805.519,-182.014 812.576,-189.916 815.963,-183.791"/>
</g>
<!-- Node23 -->
<g id="node23" class="node"><title>Node23</title>
<g id="a_node23"><a xlink:href="classx265_1_1Analysis.html#a0194a9da53aa95173fa1132ba3aea1c7" target="_top" xlink:title="x265::Analysis::checkMerge2\lNx2N_rd5_6">
<polygon fill="white" stroke="black" points="888,-152 888,-182 1034,-182 1034,-152 888,-152"/>
<text text-anchor="start" x="896" y="-170" font-family="Helvetica,sans-Serif" font-size="10.00">x265::Analysis::checkMerge2</text>
<text text-anchor="middle" x="961" y="-159" font-family="Helvetica,sans-Serif" font-size="10.00">Nx2N_rd5_6</text>
</a>
</g>
</g>
<!-- Node21&#45;&gt;Node23 -->
<g id="edge37" class="edge"><title>Node21&#45;&gt;Node23</title>
<path fill="none" stroke="midnightblue" d="M861.785,-167C870.535,-167 879.383,-167 887.997,-167"/>
<polygon fill="midnightblue" stroke="midnightblue" points="861.577,-163.5 851.577,-167 861.577,-170.5 861.577,-163.5"/>
</g>
<!-- Node24 -->
<g id="node24" class="node"><title>Node24</title>
<g id="a_node24"><a xlink:href="classx265_1_1Analysis.html#a828daa3e9f1ed40a1af9f99f7ff7bb33" target="_top" xlink:title="x265::Analysis::checkInter\l_rd5_6">
<polygon fill="white" stroke="black" points="894.5,-103 894.5,-133 1027.5,-133 1027.5,-103 894.5,-103"/>
<text text-anchor="start" x="902.5" y="-121" font-family="Helvetica,sans-Serif" font-size="10.00">x265::Analysis::checkInter</text>
<text text-anchor="middle" x="961" y="-110" font-family="Helvetica,sans-Serif" font-size="10.00">_rd5_6</text>
</a>
</g>
</g>
<!-- Node21&#45;&gt;Node24 -->
<g id="edge39" class="edge"><title>Node21&#45;&gt;Node24</title>
<path fill="none" stroke="midnightblue" d="M844.561,-149.252C864.177,-143.941 885.49,-138.171 904.401,-133.052"/>
<polygon fill="midnightblue" stroke="midnightblue" points="843.521,-145.907 834.783,-151.899 845.35,-152.664 843.521,-145.907"/>
</g>
<!-- Node22&#45;&gt;Node7 -->
<g id="edge35" class="edge"><title>Node22&#45;&gt;Node7</title>
<path fill="none" stroke="midnightblue" d="M1044.42,-266.501C1052.96,-267.692 1061.54,-268.889 1069.83,-270.046"/>
<polygon fill="midnightblue" stroke="midnightblue" points="1044.83,-263.024 1034.44,-265.109 1043.87,-269.957 1044.83,-263.024"/>
</g>
<!-- Node22&#45;&gt;Node13 -->
<g id="edge36" class="edge"><title>Node22&#45;&gt;Node13</title>
<path fill="none" stroke="midnightblue" d="M1030.78,-237.406C1045.51,-233.637 1060.95,-229.688 1075.26,-226.026"/>
<polygon fill="midnightblue" stroke="midnightblue" points="1029.53,-234.112 1020.71,-239.981 1031.27,-240.893 1029.53,-234.112"/>
</g>
<!-- Node23&#45;&gt;Node20 -->
<g id="edge38" class="edge"><title>Node23&#45;&gt;Node20</title>
<path fill="none" stroke="midnightblue" d="M1024.81,-149.106C1043.31,-143.836 1063.36,-138.124 1081.17,-133.052"/>
<polygon fill="midnightblue" stroke="midnightblue" points="1023.67,-145.793 1015.01,-151.899 1025.59,-152.525 1023.67,-145.793"/>
</g>
<!-- Node24&#45;&gt;Node20 -->
<g id="edge40" class="edge"><title>Node24&#45;&gt;Node20</title>
<path fill="none" stroke="midnightblue" d="M1037.7,-118C1048.41,-118 1059.34,-118 1069.8,-118"/>
<polygon fill="midnightblue" stroke="midnightblue" points="1037.52,-114.5 1027.52,-118 1037.52,-121.5 1037.52,-114.5"/>
</g>
</g>
</svg>
        <g id="navigator" transform="translate(0 0)" fill="#404254">
                <rect fill="#f2f5e9" fill-opacity="0.5" stroke="#606060" stroke-width=".5" x="0" y="0" width="60" height="60"/>
                <use id="zoomplus" xlink:href="#zoomPlus" x="17" y="9" onmousedown="handleZoom(evt,'in')"/>
                <use id="zoomminus" xlink:href="#zoomMin" x="42" y="9" onmousedown="handleZoom(evt,'out')"/>
                <use id="reset" xlink:href="#resetDef" x="30" y="36" onmousedown="handleReset()"/>
                <g id="arrowUp" xlink:href="#dirArrow" transform="translate(30 24)" onmousedown="handlePan(0,-1)">
                  <use xlink:href="#rim" fill="#404040">
                        <set attributeName="fill" to="#808080" begin="arrowUp.mouseover" end="arrowUp.mouseout"/>
                  </use>
                  <path fill="none" stroke="white" stroke-width="1.5" d="M0,-3.0v7 M-2.5,-0.5L0,-3.0L2.5,-0.5"/>
                </g>
                <g id="arrowRight" xlink:href="#dirArrow" transform="rotate(90) translate(36 -43)" onmousedown="handlePan(1,0)">
                  <use xlink:href="#rim" fill="#404040">
                        <set attributeName="fill" to="#808080" begin="arrowRight.mouseover" end="arrowRight.mouseout"/>
                  </use>
                  <path fill="none" stroke="white" stroke-width="1.5" d="M0,-3.0v7 M-2.5,-0.5L0,-3.0L2.5,-0.5"/>
                </g>
                <g id="arrowDown" xlink:href="#dirArrow" transform="rotate(180) translate(-30 -48)" onmousedown="handlePan(0,1)">
                  <use xlink:href="#rim" fill="#404040">
                        <set attributeName="fill" to="#808080" begin="arrowDown.mouseover" end="arrowDown.mouseout"/>
                  </use>
                  <path fill="none" stroke="white" stroke-width="1.5" d="M0,-3.0v7 M-2.5,-0.5L0,-3.0L2.5,-0.5"/>
                </g>
                <g id="arrowLeft" xlink:href="#dirArrow" transform="rotate(270) translate(-36 17)" onmousedown="handlePan(-1,0)">
                  <use xlink:href="#rim" fill="#404040">
                        <set attributeName="fill" to="#808080" begin="arrowLeft.mouseover" end="arrowLeft.mouseout"/>
                  </use>
                  <path fill="none" stroke="white" stroke-width="1.5" d="M0,-3.0v7 M-2.5,-0.5L0,-3.0L2.5,-0.5"/>
                </g>
        </g>
        <svg viewBox="0 0 15 15" width="100%" height="30px" preserveAspectRatio="xMaxYMin meet">
         <g id="arrow_out" transform="scale(0.3 0.3)">
          <a xlink:href="classx265_1_1Entropy_afd06020e84aa5af4334ca240fcb84478_icgraph_org.svg" target="_base">
           <rect id="button" ry="5" rx="5" y="6" x="6" height="38" width="38"
                fill="#f2f5e9" fill-opacity="0.5" stroke="#606060" stroke-width="1.0"/>
           <path id="arrow"
             d="M 11.500037,31.436501 C 11.940474,20.09759 22.043105,11.32322 32.158766,21.979434 L 37.068811,17.246167 C 37.068811,17.246167 37.088388,32 37.088388,32 L 22.160133,31.978069 C 22.160133,31.978069 26.997745,27.140456 26.997745,27.140456 C 18.528582,18.264221 13.291696,25.230495 11.500037,31.436501 z"
             style="fill:#404040;"/>
          </a>
         </g>
        </svg>
</svg>
