<?xml version="1.0" encoding="UTF-8" standalone="no"?>
<!DOCTYPE svg PUBLIC "-//W3C//DTD SVG 1.1//EN"
 "http://www.w3.org/Graphics/SVG/1.1/DTD/svg11.dtd">
<!-- Generated by graphviz version 2.36.0 (20140111.2315)
 -->
<!-- Title: x265::Entropy::codeQtCbfZero Pages: 1 -->
<!--zoomable 235 -->
<svg id="main" version="1.1" xmlns="http://www.w3.org/2000/svg" xmlns:xlink="http://www.w3.org/1999/xlink" xml:space="preserve" onload="init(evt)">
<style type="text/css"><![CDATA[
.edge:hover path { stroke: red; }
.edge:hover polygon { stroke: red; fill: red; }
]]></style>
<script type="text/javascript"><![CDATA[
var edges = document.getElementsByTagName('g');
if (edges && edges.length) {
  for (var i=0;i<edges.length;i++) {
    if (edges[i].id.substr(0,4)=='edge') {
      edges[i].setAttribute('class','edge');
    }
  }
}
]]></script>
        <defs>
                <circle id="rim" cx="0" cy="0" r="7"/>
                <circle id="rim2" cx="0" cy="0" r="3.5"/>
                <g id="zoomPlus">
                        <use xlink:href="#rim" fill="#404040">
                                <set attributeName="fill" to="#808080" begin="zoomplus.mouseover" end="zoomplus.mouseout"/>
                        </use>
                        <path d="M-4,0h8M0,-4v8" fill="none" stroke="white" stroke-width="1.5" pointer-events="none"/>
                </g>
                <g id="zoomMin">
                        <use xlink:href="#rim" fill="#404040">
                                <set attributeName="fill" to="#808080" begin="zoomminus.mouseover" end="zoomminus.mouseout"/>
                        </use>
                        <path d="M-4,0h8" fill="none" stroke="white" stroke-width="1.5" pointer-events="none"/>
                </g>
                <g id="dirArrow">
                        <path fill="none" stroke="white" stroke-width="1.5" d="M0,-3.0v7 M-2.5,-0.5L0,-3.0L2.5,-0.5"/>
                </g>
               <g id="resetDef">
                       <use xlink:href="#rim2" fill="#404040">
                               <set attributeName="fill" to="#808080" begin="reset.mouseover" end="reset.mouseout"/>
                       </use>
               </g>
        </defs>

<script type="text/javascript">
var viewWidth = 1820;
var viewHeight = 235;
var sectionId = 'dynsection-49';
</script>
<script xlink:href="svgpan.js"/>
<svg id="graph" class="graph">
<g id="viewport">
<title>x265::Entropy::codeQtCbfZero</title>
<polygon fill="white" stroke="none" points="-4,4 -4,-231.452 1816,-231.452 1816,4 -4,4"/>
<!-- Node1 -->
<g id="node1" class="node"><title>Node1</title>
<polygon fill="#bfbfbf" stroke="black" points="0,-117.5 0,-136.5 150,-136.5 150,-117.5 0,-117.5"/>
<text text-anchor="middle" x="75" y="-124.5" font-family="Helvetica,sans-Serif" font-size="10.00">x265::Entropy::codeQtCbfZero</text>
</g>
<!-- Node2 -->
<g id="node2" class="node"><title>Node2</title>
<g id="a_node2"><a xlink:href="classx265_1_1Search.html#a9f01b6f04dca31dca9f16e60d1c029b3" target="_top" xlink:title="x265::Search::xEstimateResidualQT">
<polygon fill="white" stroke="black" points="186,-117.5 186,-136.5 362,-136.5 362,-117.5 186,-117.5"/>
<text text-anchor="middle" x="274" y="-124.5" font-family="Helvetica,sans-Serif" font-size="10.00">x265::Search::xEstimateResidualQT</text>
</a>
</g>
</g>
<!-- Node1&#45;&gt;Node2 -->
<g id="edge1" class="edge"><title>Node1&#45;&gt;Node2</title>
<path fill="none" stroke="midnightblue" d="M160.421,-127C168.876,-127 177.471,-127 185.952,-127"/>
<polygon fill="midnightblue" stroke="midnightblue" points="160.197,-123.5 150.197,-127 160.197,-130.5 160.197,-123.5"/>
</g>
<!-- Node3 -->
<g id="node3" class="node"><title>Node3</title>
<g id="a_node3"><a xlink:href="classx265_1_1Search.html#aba5e04ce529f41accd43c540ba1dc7ad" target="_top" xlink:title="x265::Search::encodeResAnd\lCalcRdInterCU">
<polygon fill="white" stroke="black" points="398.5,-112 398.5,-142 545.5,-142 545.5,-112 398.5,-112"/>
<text text-anchor="start" x="406.5" y="-130" font-family="Helvetica,sans-Serif" font-size="10.00">x265::Search::encodeResAnd</text>
<text text-anchor="middle" x="472" y="-119" font-family="Helvetica,sans-Serif" font-size="10.00">CalcRdInterCU</text>
</a>
</g>
</g>
<!-- Node2&#45;&gt;Node3 -->
<g id="edge2" class="edge"><title>Node2&#45;&gt;Node3</title>
<path fill="none" stroke="midnightblue" d="M372.325,-127C381.045,-127 389.771,-127 398.228,-127"/>
<polygon fill="midnightblue" stroke="midnightblue" points="372.11,-123.5 362.11,-127 372.11,-130.5 372.11,-123.5"/>
</g>
<!-- Node4 -->
<g id="node4" class="node"><title>Node4</title>
<g id="a_node4"><a xlink:href="classx265_1_1Analysis.html#a10f0a8d9d143faf8dc671c6f0982693d" target="_top" xlink:title="x265::Analysis::tryLossless">
<polygon fill="white" stroke="black" points="586.5,-98.5 586.5,-117.5 723.5,-117.5 723.5,-98.5 586.5,-98.5"/>
<text text-anchor="middle" x="655" y="-105.5" font-family="Helvetica,sans-Serif" font-size="10.00">x265::Analysis::tryLossless</text>
</a>
</g>
</g>
<!-- Node3&#45;&gt;Node4 -->
<g id="edge3" class="edge"><title>Node3&#45;&gt;Node4</title>
<path fill="none" stroke="midnightblue" d="M555.766,-118.312C566.02,-117.236 576.407,-116.145 586.395,-115.097"/>
<polygon fill="midnightblue" stroke="midnightblue" points="555.157,-114.857 545.577,-119.381 555.887,-121.818 555.157,-114.857"/>
</g>
<!-- Node12 -->
<g id="node12" class="node"><title>Node12</title>
<g id="a_node12"><a xlink:href="classx265_1_1Analysis.html#a87060ff27a37f56adc5f5b8a4c033ece" target="_top" xlink:title="x265::Analysis::compress\lInterCU_dist">
<polygon fill="white" stroke="black" points="764,-185 764,-215 894,-215 894,-185 764,-185"/>
<text text-anchor="start" x="772" y="-203" font-family="Helvetica,sans-Serif" font-size="10.00">x265::Analysis::compress</text>
<text text-anchor="middle" x="829" y="-192" font-family="Helvetica,sans-Serif" font-size="10.00">InterCU_dist</text>
</a>
</g>
</g>
<!-- Node3&#45;&gt;Node12 -->
<g id="edge17" class="edge"><title>Node3&#45;&gt;Node12</title>
<path fill="none" stroke="midnightblue" d="M492.88,-149.995C512.905,-171.243 545.931,-201.37 582,-214 644.58,-235.912 721.561,-226.158 772.563,-215.05"/>
<polygon fill="midnightblue" stroke="midnightblue" points="495.2,-147.347 485.862,-142.341 490.04,-152.078 495.2,-147.347"/>
</g>
<!-- Node13 -->
<g id="node13" class="node"><title>Node13</title>
<g id="a_node13"><a xlink:href="classx265_1_1Analysis.html#a30d2ff7eca5addbb0a6b3dfe14f09650" target="_top" xlink:title="x265::Analysis::compress\lInterCU_rd0_4">
<polygon fill="white" stroke="black" points="764,-136 764,-166 894,-166 894,-136 764,-136"/>
<text text-anchor="start" x="772" y="-154" font-family="Helvetica,sans-Serif" font-size="10.00">x265::Analysis::compress</text>
<text text-anchor="middle" x="829" y="-143" font-family="Helvetica,sans-Serif" font-size="10.00">InterCU_rd0_4</text>
</a>
</g>
</g>
<!-- Node3&#45;&gt;Node13 -->
<g id="edge18" class="edge"><title>Node3&#45;&gt;Node13</title>
<path fill="none" stroke="midnightblue" d="M555.674,-132.589C619.113,-136.878 705.429,-142.713 763.744,-146.656"/>
<polygon fill="midnightblue" stroke="midnightblue" points="555.91,-129.097 545.696,-131.915 555.437,-136.081 555.91,-129.097"/>
</g>
<!-- Node15 -->
<g id="node15" class="node"><title>Node15</title>
<g id="a_node15"><a xlink:href="classx265_1_1Analysis.html#addd72cb95590e2b2a6965d42d110eab3" target="_top" xlink:title="x265::Analysis::checkMerge2\lNx2N_rd0_4">
<polygon fill="white" stroke="black" points="582,-175 582,-205 728,-205 728,-175 582,-175"/>
<text text-anchor="start" x="590" y="-193" font-family="Helvetica,sans-Serif" font-size="10.00">x265::Analysis::checkMerge2</text>
<text text-anchor="middle" x="655" y="-182" font-family="Helvetica,sans-Serif" font-size="10.00">Nx2N_rd0_4</text>
</a>
</g>
</g>
<!-- Node3&#45;&gt;Node15 -->
<g id="edge19" class="edge"><title>Node3&#45;&gt;Node15</title>
<path fill="none" stroke="midnightblue" d="M526.011,-145.452C552.947,-154.827 585.265,-166.076 610.686,-174.924"/>
<polygon fill="midnightblue" stroke="midnightblue" points="526.949,-142.072 516.354,-142.09 524.648,-148.683 526.949,-142.072"/>
</g>
<!-- Node16 -->
<g id="node16" class="node"><title>Node16</title>
<g id="a_node16"><a xlink:href="classx265_1_1Analysis.html#a0194a9da53aa95173fa1132ba3aea1c7" target="_top" xlink:title="x265::Analysis::checkMerge2\lNx2N_rd5_6">
<polygon fill="white" stroke="black" points="582,-49 582,-79 728,-79 728,-49 582,-49"/>
<text text-anchor="start" x="590" y="-67" font-family="Helvetica,sans-Serif" font-size="10.00">x265::Analysis::checkMerge2</text>
<text text-anchor="middle" x="655" y="-56" font-family="Helvetica,sans-Serif" font-size="10.00">Nx2N_rd5_6</text>
</a>
</g>
</g>
<!-- Node3&#45;&gt;Node16 -->
<g id="edge22" class="edge"><title>Node3&#45;&gt;Node16</title>
<path fill="none" stroke="midnightblue" d="M525.88,-108.55C543.706,-102.334 563.714,-95.3621 582,-89 591.248,-85.7824 601.166,-82.3361 610.593,-79.0621"/>
<polygon fill="midnightblue" stroke="midnightblue" points="524.516,-105.319 516.226,-111.916 526.821,-111.928 524.516,-105.319"/>
</g>
<!-- Node17 -->
<g id="node17" class="node"><title>Node17</title>
<g id="a_node17"><a xlink:href="classx265_1_1Analysis.html#a828daa3e9f1ed40a1af9f99f7ff7bb33" target="_top" xlink:title="x265::Analysis::checkInter\l_rd5_6">
<polygon fill="white" stroke="black" points="588.5,-0 588.5,-30 721.5,-30 721.5,-0 588.5,-0"/>
<text text-anchor="start" x="596.5" y="-18" font-family="Helvetica,sans-Serif" font-size="10.00">x265::Analysis::checkInter</text>
<text text-anchor="middle" x="655" y="-7" font-family="Helvetica,sans-Serif" font-size="10.00">_rd5_6</text>
</a>
</g>
</g>
<!-- Node3&#45;&gt;Node17 -->
<g id="edge24" class="edge"><title>Node3&#45;&gt;Node17</title>
<path fill="none" stroke="midnightblue" d="M495.355,-104.892C516.246,-85.2727 549.078,-57.006 582,-39 588.127,-35.6491 594.803,-32.657 601.538,-30.0187"/>
<polygon fill="midnightblue" stroke="midnightblue" points="492.778,-102.513 487.958,-111.948 497.609,-107.578 492.778,-102.513"/>
</g>
<!-- Node5 -->
<g id="node5" class="node"><title>Node5</title>
<g id="a_node5"><a xlink:href="classx265_1_1Analysis.html#aae2a6a2252270782b591d2bed7e99dae" target="_top" xlink:title="x265::Analysis::compress\lIntraCU">
<polygon fill="white" stroke="black" points="764,-87 764,-117 894,-117 894,-87 764,-87"/>
<text text-anchor="start" x="772" y="-105" font-family="Helvetica,sans-Serif" font-size="10.00">x265::Analysis::compress</text>
<text text-anchor="middle" x="829" y="-94" font-family="Helvetica,sans-Serif" font-size="10.00">IntraCU</text>
</a>
</g>
</g>
<!-- Node4&#45;&gt;Node5 -->
<g id="edge4" class="edge"><title>Node4&#45;&gt;Node5</title>
<path fill="none" stroke="midnightblue" d="M734.242,-105.271C744.159,-104.925 754.215,-104.574 763.877,-104.237"/>
<polygon fill="midnightblue" stroke="midnightblue" points="733.851,-101.782 723.979,-105.629 734.095,-108.778 733.851,-101.782"/>
</g>
<!-- Node4&#45;&gt;Node12 -->
<g id="edge11" class="edge"><title>Node4&#45;&gt;Node12</title>
<path fill="none" stroke="midnightblue" d="M677.859,-123.219C699.203,-137.675 732.919,-159.453 764,-175 771.041,-178.522 778.706,-181.89 786.204,-184.949"/>
<polygon fill="midnightblue" stroke="midnightblue" points="679.742,-120.267 669.512,-117.511 675.791,-126.045 679.742,-120.267"/>
</g>
<!-- Node4&#45;&gt;Node13 -->
<g id="edge13" class="edge"><title>Node4&#45;&gt;Node13</title>
<path fill="none" stroke="midnightblue" d="M703.915,-119.979C723.765,-124.941 747.007,-130.752 767.975,-135.994"/>
<polygon fill="midnightblue" stroke="midnightblue" points="704.723,-116.573 694.172,-117.543 703.025,-123.364 704.723,-116.573"/>
</g>
<!-- Node14 -->
<g id="node14" class="node"><title>Node14</title>
<g id="a_node14"><a xlink:href="classx265_1_1Analysis.html#a0b22b7765aa4a36b1ba6d07ba26901e6" target="_top" xlink:title="x265::Analysis::compress\lInterCU_rd5_6">
<polygon fill="white" stroke="black" points="764,-38 764,-68 894,-68 894,-38 764,-38"/>
<text text-anchor="start" x="772" y="-56" font-family="Helvetica,sans-Serif" font-size="10.00">x265::Analysis::compress</text>
<text text-anchor="middle" x="829" y="-45" font-family="Helvetica,sans-Serif" font-size="10.00">InterCU_rd5_6</text>
</a>
</g>
</g>
<!-- Node4&#45;&gt;Node14 -->
<g id="edge15" class="edge"><title>Node4&#45;&gt;Node14</title>
<path fill="none" stroke="midnightblue" d="M701.725,-95.7859C710.477,-93.3105 719.545,-90.6507 728,-88 747.482,-81.8921 768.87,-74.5007 786.848,-68.0872"/>
<polygon fill="midnightblue" stroke="midnightblue" points="700.718,-92.4331 692.027,-98.4921 702.6,-99.1755 700.718,-92.4331"/>
</g>
<!-- Node6 -->
<g id="node6" class="node"><title>Node6</title>
<g id="a_node6"><a xlink:href="classx265_1_1Analysis.html#aaebc9de2ff98834c650244f3b58942c2" target="_top" xlink:title="x265::Analysis::compressCTU">
<polygon fill="white" stroke="black" points="930.5,-116.5 930.5,-135.5 1081.5,-135.5 1081.5,-116.5 930.5,-116.5"/>
<text text-anchor="middle" x="1006" y="-123.5" font-family="Helvetica,sans-Serif" font-size="10.00">x265::Analysis::compressCTU</text>
</a>
</g>
</g>
<!-- Node5&#45;&gt;Node6 -->
<g id="edge5" class="edge"><title>Node5&#45;&gt;Node6</title>
<path fill="none" stroke="midnightblue" d="M904.393,-112.202C914.722,-113.619 925.299,-115.07 935.533,-116.473"/>
<polygon fill="midnightblue" stroke="midnightblue" points="904.553,-108.692 894.17,-110.8 903.602,-115.627 904.553,-108.692"/>
</g>
<!-- Node7 -->
<g id="node7" class="node"><title>Node7</title>
<g id="a_node7"><a xlink:href="classx265_1_1FrameEncoder.html#a0ae85001572afd28238476542523ac5f" target="_top" xlink:title="x265::FrameEncoder\l::processRowEncoder">
<polygon fill="white" stroke="black" points="1118.5,-111 1118.5,-141 1231.5,-141 1231.5,-111 1118.5,-111"/>
<text text-anchor="start" x="1126.5" y="-129" font-family="Helvetica,sans-Serif" font-size="10.00">x265::FrameEncoder</text>
<text text-anchor="middle" x="1175" y="-118" font-family="Helvetica,sans-Serif" font-size="10.00">::processRowEncoder</text>
</a>
</g>
</g>
<!-- Node6&#45;&gt;Node7 -->
<g id="edge6" class="edge"><title>Node6&#45;&gt;Node7</title>
<path fill="none" stroke="midnightblue" d="M1091.86,-126C1100.86,-126 1109.85,-126 1118.39,-126"/>
<polygon fill="midnightblue" stroke="midnightblue" points="1091.71,-122.5 1081.71,-126 1091.71,-129.5 1091.71,-122.5"/>
</g>
<!-- Node8 -->
<g id="node8" class="node"><title>Node8</title>
<g id="a_node8"><a xlink:href="classx265_1_1FrameEncoder.html#acad645a8ece97d884895f8f7366b7d70" target="_top" xlink:title="x265::FrameEncoder\l::processRow">
<polygon fill="white" stroke="black" points="1268.5,-111 1268.5,-141 1375.5,-141 1375.5,-111 1268.5,-111"/>
<text text-anchor="start" x="1276.5" y="-129" font-family="Helvetica,sans-Serif" font-size="10.00">x265::FrameEncoder</text>
<text text-anchor="middle" x="1322" y="-118" font-family="Helvetica,sans-Serif" font-size="10.00">::processRow</text>
</a>
</g>
</g>
<!-- Node7&#45;&gt;Node8 -->
<g id="edge7" class="edge"><title>Node7&#45;&gt;Node8</title>
<path fill="none" stroke="midnightblue" d="M1241.88,-126C1250.67,-126 1259.59,-126 1268.13,-126"/>
<polygon fill="midnightblue" stroke="midnightblue" points="1241.65,-122.5 1231.65,-126 1241.65,-129.5 1241.65,-122.5"/>
</g>
<!-- Node9 -->
<g id="node9" class="node"><title>Node9</title>
<g id="a_node9"><a xlink:href="classx265_1_1FrameEncoder.html#ac4e9ce2e876c0cdb25c992c872fe4302" target="_top" xlink:title="x265::FrameEncoder\l::compressCTURows">
<polygon fill="white" stroke="black" points="1412,-111 1412,-141 1524,-141 1524,-111 1412,-111"/>
<text text-anchor="start" x="1420" y="-129" font-family="Helvetica,sans-Serif" font-size="10.00">x265::FrameEncoder</text>
<text text-anchor="middle" x="1468" y="-118" font-family="Helvetica,sans-Serif" font-size="10.00">::compressCTURows</text>
</a>
</g>
</g>
<!-- Node8&#45;&gt;Node9 -->
<g id="edge8" class="edge"><title>Node8&#45;&gt;Node9</title>
<path fill="none" stroke="midnightblue" d="M1385.83,-126C1394.48,-126 1403.3,-126 1411.79,-126"/>
<polygon fill="midnightblue" stroke="midnightblue" points="1385.8,-122.5 1375.8,-126 1385.8,-129.5 1385.8,-122.5"/>
</g>
<!-- Node10 -->
<g id="node10" class="node"><title>Node10</title>
<g id="a_node10"><a xlink:href="classx265_1_1FrameEncoder.html#a2f5c4c0f1a4e36fce4c9b87eb7ec4973" target="_top" xlink:title="x265::FrameEncoder\l::compressFrame">
<polygon fill="white" stroke="black" points="1560.5,-111 1560.5,-141 1667.5,-141 1667.5,-111 1560.5,-111"/>
<text text-anchor="start" x="1568.5" y="-129" font-family="Helvetica,sans-Serif" font-size="10.00">x265::FrameEncoder</text>
<text text-anchor="middle" x="1614" y="-118" font-family="Helvetica,sans-Serif" font-size="10.00">::compressFrame</text>
</a>
</g>
</g>
<!-- Node9&#45;&gt;Node10 -->
<g id="edge9" class="edge"><title>Node9&#45;&gt;Node10</title>
<path fill="none" stroke="midnightblue" d="M1534.42,-126C1543.15,-126 1552.02,-126 1560.49,-126"/>
<polygon fill="midnightblue" stroke="midnightblue" points="1534.26,-122.5 1524.26,-126 1534.26,-129.5 1534.26,-122.5"/>
</g>
<!-- Node11 -->
<g id="node11" class="node"><title>Node11</title>
<g id="a_node11"><a xlink:href="classx265_1_1FrameEncoder.html#aef61f29b9e93b3af9255d96236bc90a7" target="_top" xlink:title="x265::FrameEncoder\l::threadMain">
<polygon fill="white" stroke="black" points="1704.5,-111 1704.5,-141 1811.5,-141 1811.5,-111 1704.5,-111"/>
<text text-anchor="start" x="1712.5" y="-129" font-family="Helvetica,sans-Serif" font-size="10.00">x265::FrameEncoder</text>
<text text-anchor="middle" x="1758" y="-118" font-family="Helvetica,sans-Serif" font-size="10.00">::threadMain</text>
</a>
</g>
</g>
<!-- Node10&#45;&gt;Node11 -->
<g id="edge10" class="edge"><title>Node10&#45;&gt;Node11</title>
<path fill="none" stroke="midnightblue" d="M1677.99,-126C1686.7,-126 1695.58,-126 1704.08,-126"/>
<polygon fill="midnightblue" stroke="midnightblue" points="1677.88,-122.5 1667.88,-126 1677.88,-129.5 1677.88,-122.5"/>
</g>
<!-- Node12&#45;&gt;Node6 -->
<g id="edge12" class="edge"><title>Node12&#45;&gt;Node6</title>
<path fill="none" stroke="midnightblue" d="M879.05,-181.09C884.111,-179.064 889.167,-177.009 894,-175 925.51,-161.898 961.59,-145.756 983.838,-135.668"/>
<polygon fill="midnightblue" stroke="midnightblue" points="877.374,-177.99 869.37,-184.931 879.955,-184.497 877.374,-177.99"/>
</g>
<!-- Node13&#45;&gt;Node6 -->
<g id="edge14" class="edge"><title>Node13&#45;&gt;Node6</title>
<path fill="none" stroke="midnightblue" d="M904.103,-140.414C915.521,-138.783 927.25,-137.107 938.489,-135.502"/>
<polygon fill="midnightblue" stroke="midnightblue" points="903.574,-136.954 894.17,-141.833 904.564,-143.883 903.574,-136.954"/>
</g>
<!-- Node14&#45;&gt;Node6 -->
<g id="edge16" class="edge"><title>Node14&#45;&gt;Node6</title>
<path fill="none" stroke="midnightblue" d="M880.489,-71.6264C885.071,-73.4091 889.629,-75.2173 894,-77 925.793,-89.9665 962.101,-106.286 984.284,-116.432"/>
<polygon fill="midnightblue" stroke="midnightblue" points="881.695,-68.3402 871.105,-68.0192 879.184,-74.8741 881.695,-68.3402"/>
</g>
<!-- Node15&#45;&gt;Node12 -->
<g id="edge20" class="edge"><title>Node15&#45;&gt;Node12</title>
<path fill="none" stroke="midnightblue" d="M738.701,-194.808C747.144,-195.299 755.629,-195.792 763.831,-196.269"/>
<polygon fill="midnightblue" stroke="midnightblue" points="738.631,-191.298 728.445,-194.212 738.225,-198.287 738.631,-191.298"/>
</g>
<!-- Node15&#45;&gt;Node13 -->
<g id="edge21" class="edge"><title>Node15&#45;&gt;Node13</title>
<path fill="none" stroke="midnightblue" d="M732.49,-172.656C742.994,-170.275 753.689,-167.85 763.938,-165.526"/>
<polygon fill="midnightblue" stroke="midnightblue" points="731.478,-169.297 722.5,-174.922 733.026,-176.124 731.478,-169.297"/>
</g>
<!-- Node16&#45;&gt;Node14 -->
<g id="edge23" class="edge"><title>Node16&#45;&gt;Node14</title>
<path fill="none" stroke="midnightblue" d="M738.701,-58.711C747.144,-58.171 755.629,-57.6284 763.831,-57.1038"/>
<polygon fill="midnightblue" stroke="midnightblue" points="738.201,-55.2357 728.445,-59.3669 738.648,-62.2214 738.201,-55.2357"/>
</g>
<!-- Node17&#45;&gt;Node14 -->
<g id="edge25" class="edge"><title>Node17&#45;&gt;Node14</title>
<path fill="none" stroke="midnightblue" d="M731.366,-31.6507C742.183,-34.0405 753.228,-36.4807 763.803,-38.8169"/>
<polygon fill="midnightblue" stroke="midnightblue" points="732.036,-28.2143 721.516,-29.4746 730.526,-35.0495 732.036,-28.2143"/>
</g>
</g>
</svg>
        <g id="navigator" transform="translate(0 0)" fill="#404254">
                <rect fill="#f2f5e9" fill-opacity="0.5" stroke="#606060" stroke-width=".5" x="0" y="0" width="60" height="60"/>
                <use id="zoomplus" xlink:href="#zoomPlus" x="17" y="9" onmousedown="handleZoom(evt,'in')"/>
                <use id="zoomminus" xlink:href="#zoomMin" x="42" y="9" onmousedown="handleZoom(evt,'out')"/>
                <use id="reset" xlink:href="#resetDef" x="30" y="36" onmousedown="handleReset()"/>
                <g id="arrowUp" xlink:href="#dirArrow" transform="translate(30 24)" onmousedown="handlePan(0,-1)">
                  <use xlink:href="#rim" fill="#404040">
                        <set attributeName="fill" to="#808080" begin="arrowUp.mouseover" end="arrowUp.mouseout"/>
                  </use>
                  <path fill="none" stroke="white" stroke-width="1.5" d="M0,-3.0v7 M-2.5,-0.5L0,-3.0L2.5,-0.5"/>
                </g>
                <g id="arrowRight" xlink:href="#dirArrow" transform="rotate(90) translate(36 -43)" onmousedown="handlePan(1,0)">
                  <use xlink:href="#rim" fill="#404040">
                        <set attributeName="fill" to="#808080" begin="arrowRight.mouseover" end="arrowRight.mouseout"/>
                  </use>
                  <path fill="none" stroke="white" stroke-width="1.5" d="M0,-3.0v7 M-2.5,-0.5L0,-3.0L2.5,-0.5"/>
                </g>
                <g id="arrowDown" xlink:href="#dirArrow" transform="rotate(180) translate(-30 -48)" onmousedown="handlePan(0,1)">
                  <use xlink:href="#rim" fill="#404040">
                        <set attributeName="fill" to="#808080" begin="arrowDown.mouseover" end="arrowDown.mouseout"/>
                  </use>
                  <path fill="none" stroke="white" stroke-width="1.5" d="M0,-3.0v7 M-2.5,-0.5L0,-3.0L2.5,-0.5"/>
                </g>
                <g id="arrowLeft" xlink:href="#dirArrow" transform="rotate(270) translate(-36 17)" onmousedown="handlePan(-1,0)">
                  <use xlink:href="#rim" fill="#404040">
                        <set attributeName="fill" to="#808080" begin="arrowLeft.mouseover" end="arrowLeft.mouseout"/>
                  </use>
                  <path fill="none" stroke="white" stroke-width="1.5" d="M0,-3.0v7 M-2.5,-0.5L0,-3.0L2.5,-0.5"/>
                </g>
        </g>
        <svg viewBox="0 0 15 15" width="100%" height="30px" preserveAspectRatio="xMaxYMin meet">
         <g id="arrow_out" transform="scale(0.3 0.3)">
          <a xlink:href="classx265_1_1Entropy_add1835f134b52e1f9fe0d7f469b42193_icgraph_org.svg" target="_base">
           <rect id="button" ry="5" rx="5" y="6" x="6" height="38" width="38"
                fill="#f2f5e9" fill-opacity="0.5" stroke="#606060" stroke-width="1.0"/>
           <path id="arrow"
             d="M 11.500037,31.436501 C 11.940474,20.09759 22.043105,11.32322 32.158766,21.979434 L 37.068811,17.246167 C 37.068811,17.246167 37.088388,32 37.088388,32 L 22.160133,31.978069 C 22.160133,31.978069 26.997745,27.140456 26.997745,27.140456 C 18.528582,18.264221 13.291696,25.230495 11.500037,31.436501 z"
             style="fill:#404040;"/>
          </a>
         </g>
        </svg>
</svg>
