<?xml version="1.0" encoding="UTF-8" standalone="no"?>
<!DOCTYPE svg PUBLIC "-//W3C//DTD SVG 1.1//EN"
 "http://www.w3.org/Graphics/SVG/1.1/DTD/svg11.dtd">
<!-- Generated by graphviz version 2.36.0 (20140111.2315)
 -->
<!-- Title: x265::Predict::prepMotionCompensation Pages: 1 -->
<svg width="314pt" height="77pt"
 viewBox="0.00 0.00 314.00 77.00" xmlns="http://www.w3.org/2000/svg" xmlns:xlink="http://www.w3.org/1999/xlink">
<g id="graph0" class="graph" transform="scale(1 1) rotate(0) translate(4 73)">
<title>x265::Predict::prepMotionCompensation</title>
<polygon fill="white" stroke="none" points="-4,4 -4,-73 310,-73 310,4 -4,4"/>
<!-- Node1 -->
<g id="node1" class="node"><title>Node1</title>
<polygon fill="#bfbfbf" stroke="black" points="0,-17 0,-47 128,-47 128,-17 0,-17"/>
<text text-anchor="start" x="8" y="-35" font-family="Helvetica,sans-Serif" font-size="10.00">x265::Predict::prepMotion</text>
<text text-anchor="middle" x="64" y="-24" font-family="Helvetica,sans-Serif" font-size="10.00">Compensation</text>
</g>
<!-- Node2 -->
<g id="node2" class="node"><title>Node2</title>
<g id="a_node2"><a xlink:href="classx265_1_1CUData.html#a6ad6881ec9a11bc8dcbd54cfe8126c47" target="_top" xlink:title="x265::CUData::getPartIndex\lAndSize">
<polygon fill="white" stroke="black" points="164.5,-39 164.5,-69 305.5,-69 305.5,-39 164.5,-39"/>
<text text-anchor="start" x="172.5" y="-57" font-family="Helvetica,sans-Serif" font-size="10.00">x265::CUData::getPartIndex</text>
<text text-anchor="middle" x="235" y="-46" font-family="Helvetica,sans-Serif" font-size="10.00">AndSize</text>
</a>
</g>
</g>
<!-- Node1&#45;&gt;Node2 -->
<g id="edge1" class="edge"><title>Node1&#45;&gt;Node2</title>
<path fill="none" stroke="midnightblue" d="M128.41,-40.2546C136.825,-41.35 145.538,-42.4842 154.185,-43.6099"/>
<polygon fill="midnightblue" stroke="midnightblue" points="153.916,-47.1044 164.285,-44.9246 154.82,-40.1629 153.916,-47.1044"/>
</g>
<!-- Node3 -->
<g id="node3" class="node"><title>Node3</title>
<g id="a_node3"><a xlink:href="classx265_1_1CUData.html#a5ed70af91009b3ba3cc544c5a9bc28b5" target="_top" xlink:title="x265::CUData::clipMv">
<polygon fill="white" stroke="black" points="178,-0.5 178,-19.5 292,-19.5 292,-0.5 178,-0.5"/>
<text text-anchor="middle" x="235" y="-7.5" font-family="Helvetica,sans-Serif" font-size="10.00">x265::CUData::clipMv</text>
</a>
</g>
</g>
<!-- Node1&#45;&gt;Node3 -->
<g id="edge2" class="edge"><title>Node1&#45;&gt;Node3</title>
<path fill="none" stroke="midnightblue" d="M128.41,-23.7454C141.196,-22.081 154.669,-20.3271 167.555,-18.6496"/>
<polygon fill="midnightblue" stroke="midnightblue" points="168.275,-22.0856 177.739,-17.3239 167.371,-15.1441 168.275,-22.0856"/>
</g>
</g>
</svg>
