<?xml version="1.0" encoding="UTF-8" standalone="no"?>
<!DOCTYPE svg PUBLIC "-//W3C//DTD SVG 1.1//EN"
 "http://www.w3.org/Graphics/SVG/1.1/DTD/svg11.dtd">
<!-- Generated by graphviz version 2.36.0 (20140111.2315)
 -->
<!-- Title: x265::ThreadSafeInteger::waitForChange Pages: 1 -->
<svg width="568pt" height="136pt"
 viewBox="0.00 0.00 568.00 136.00" xmlns="http://www.w3.org/2000/svg" xmlns:xlink="http://www.w3.org/1999/xlink">
<g id="graph0" class="graph" transform="scale(1 1) rotate(0) translate(4 132)">
<title>x265::ThreadSafeInteger::waitForChange</title>
<polygon fill="white" stroke="none" points="-4,4 -4,-132 564,-132 564,4 -4,4"/>
<!-- Node1 -->
<g id="node1" class="node"><title>Node1</title>
<polygon fill="#bfbfbf" stroke="black" points="0,-49 0,-79 124,-79 124,-49 0,-49"/>
<text text-anchor="start" x="8" y="-67" font-family="Helvetica,sans-Serif" font-size="10.00">x265::ThreadSafeInteger</text>
<text text-anchor="middle" x="62" y="-56" font-family="Helvetica,sans-Serif" font-size="10.00">::waitForChange</text>
</g>
<!-- Node2 -->
<g id="node2" class="node"><title>Node2</title>
<g id="a_node2"><a xlink:href="classx265_1_1FrameEncoder.html#ac4e9ce2e876c0cdb25c992c872fe4302" target="_top" xlink:title="x265::FrameEncoder\l::compressCTURows">
<polygon fill="white" stroke="black" points="160,-98 160,-128 272,-128 272,-98 160,-98"/>
<text text-anchor="start" x="168" y="-116" font-family="Helvetica,sans-Serif" font-size="10.00">x265::FrameEncoder</text>
<text text-anchor="middle" x="216" y="-105" font-family="Helvetica,sans-Serif" font-size="10.00">::compressCTURows</text>
</a>
</g>
</g>
<!-- Node1&#45;&gt;Node2 -->
<g id="edge1" class="edge"><title>Node1&#45;&gt;Node2</title>
<path fill="none" stroke="midnightblue" d="M119.64,-82.2591C135.672,-87.4273 152.936,-92.9924 168.309,-97.9484"/>
<polygon fill="midnightblue" stroke="midnightblue" points="120.437,-78.8385 109.845,-79.1014 118.289,-85.5009 120.437,-78.8385"/>
</g>
<!-- Node5 -->
<g id="node5" class="node"><title>Node5</title>
<g id="a_node5"><a xlink:href="classx265_1_1RateControl.html#a6453a04a36d66b87ed8a23df88e75326" target="_top" xlink:title="x265::RateControl::\lrateControlStart">
<polygon fill="white" stroke="black" points="165,-49 165,-79 267,-79 267,-49 165,-49"/>
<text text-anchor="start" x="173" y="-67" font-family="Helvetica,sans-Serif" font-size="10.00">x265::RateControl::</text>
<text text-anchor="middle" x="216" y="-56" font-family="Helvetica,sans-Serif" font-size="10.00">rateControlStart</text>
</a>
</g>
</g>
<!-- Node1&#45;&gt;Node5 -->
<g id="edge4" class="edge"><title>Node1&#45;&gt;Node5</title>
<path fill="none" stroke="midnightblue" d="M134.487,-64C144.651,-64 154.923,-64 164.573,-64"/>
<polygon fill="midnightblue" stroke="midnightblue" points="134.386,-60.5001 124.386,-64 134.386,-67.5001 134.386,-60.5001"/>
</g>
<!-- Node6 -->
<g id="node6" class="node"><title>Node6</title>
<g id="a_node6"><a xlink:href="classx265_1_1RateControl.html#a26331c267938f5e6e49ad5b07e4ff013" target="_top" xlink:title="x265::RateControl::\lrateControlEnd">
<polygon fill="white" stroke="black" points="165,-0 165,-30 267,-30 267,-0 165,-0"/>
<text text-anchor="start" x="173" y="-18" font-family="Helvetica,sans-Serif" font-size="10.00">x265::RateControl::</text>
<text text-anchor="middle" x="216" y="-7" font-family="Helvetica,sans-Serif" font-size="10.00">rateControlEnd</text>
</a>
</g>
</g>
<!-- Node1&#45;&gt;Node6 -->
<g id="edge6" class="edge"><title>Node1&#45;&gt;Node6</title>
<path fill="none" stroke="midnightblue" d="M119.64,-45.7409C135.672,-40.5727 152.936,-35.0076 168.309,-30.0516"/>
<polygon fill="midnightblue" stroke="midnightblue" points="118.289,-42.4991 109.845,-48.8986 120.437,-49.1615 118.289,-42.4991"/>
</g>
<!-- Node3 -->
<g id="node3" class="node"><title>Node3</title>
<g id="a_node3"><a xlink:href="classx265_1_1FrameEncoder.html#a2f5c4c0f1a4e36fce4c9b87eb7ec4973" target="_top" xlink:title="x265::FrameEncoder\l::compressFrame">
<polygon fill="white" stroke="black" points="308.5,-49 308.5,-79 415.5,-79 415.5,-49 308.5,-49"/>
<text text-anchor="start" x="316.5" y="-67" font-family="Helvetica,sans-Serif" font-size="10.00">x265::FrameEncoder</text>
<text text-anchor="middle" x="362" y="-56" font-family="Helvetica,sans-Serif" font-size="10.00">::compressFrame</text>
</a>
</g>
</g>
<!-- Node2&#45;&gt;Node3 -->
<g id="edge2" class="edge"><title>Node2&#45;&gt;Node3</title>
<path fill="none" stroke="midnightblue" d="M271.043,-94.6104C286.036,-89.5084 302.14,-84.0289 316.519,-79.1359"/>
<polygon fill="midnightblue" stroke="midnightblue" points="269.719,-91.3637 261.38,-97.8986 271.974,-97.9905 269.719,-91.3637"/>
</g>
<!-- Node4 -->
<g id="node4" class="node"><title>Node4</title>
<g id="a_node4"><a xlink:href="classx265_1_1FrameEncoder.html#aef61f29b9e93b3af9255d96236bc90a7" target="_top" xlink:title="x265::FrameEncoder\l::threadMain">
<polygon fill="white" stroke="black" points="452.5,-49 452.5,-79 559.5,-79 559.5,-49 452.5,-49"/>
<text text-anchor="start" x="460.5" y="-67" font-family="Helvetica,sans-Serif" font-size="10.00">x265::FrameEncoder</text>
<text text-anchor="middle" x="506" y="-56" font-family="Helvetica,sans-Serif" font-size="10.00">::threadMain</text>
</a>
</g>
</g>
<!-- Node3&#45;&gt;Node4 -->
<g id="edge3" class="edge"><title>Node3&#45;&gt;Node4</title>
<path fill="none" stroke="midnightblue" d="M425.994,-64C434.704,-64 443.578,-64 452.08,-64"/>
<polygon fill="midnightblue" stroke="midnightblue" points="425.876,-60.5001 415.876,-64 425.876,-67.5001 425.876,-60.5001"/>
</g>
<!-- Node5&#45;&gt;Node3 -->
<g id="edge5" class="edge"><title>Node5&#45;&gt;Node3</title>
<path fill="none" stroke="midnightblue" d="M277.511,-64C287.798,-64 298.406,-64 308.465,-64"/>
<polygon fill="midnightblue" stroke="midnightblue" points="277.364,-60.5001 267.364,-64 277.364,-67.5001 277.364,-60.5001"/>
</g>
<!-- Node6&#45;&gt;Node3 -->
<g id="edge7" class="edge"><title>Node6&#45;&gt;Node3</title>
<path fill="none" stroke="midnightblue" d="M271.043,-33.3896C286.036,-38.4916 302.14,-43.9711 316.519,-48.8641"/>
<polygon fill="midnightblue" stroke="midnightblue" points="271.974,-30.0095 261.38,-30.1014 269.719,-36.6363 271.974,-30.0095"/>
</g>
</g>
</svg>
