<?xml version="1.0" encoding="UTF-8" standalone="no"?>
<!DOCTYPE svg PUBLIC "-//W3C//DTD SVG 1.1//EN"
 "http://www.w3.org/Graphics/SVG/1.1/DTD/svg11.dtd">
<!-- Generated by graphviz version 2.36.0 (20140111.2315)
 -->
<!-- Title: x265::Lookahead::scenecut Pages: 1 -->
<svg width="1436pt" height="698pt"
 viewBox="0.00 0.00 1436.00 698.00" xmlns="http://www.w3.org/2000/svg" xmlns:xlink="http://www.w3.org/1999/xlink">
<g id="graph0" class="graph" transform="scale(1 1) rotate(0) translate(4 694)">
<title>x265::Lookahead::scenecut</title>
<polygon fill="white" stroke="none" points="-4,4 -4,-694 1432,-694 1432,4 -4,4"/>
<!-- Node1 -->
<g id="node1" class="node"><title>Node1</title>
<polygon fill="#bfbfbf" stroke="black" points="0.5,-445.5 0.5,-464.5 137.5,-464.5 137.5,-445.5 0.5,-445.5"/>
<text text-anchor="middle" x="69" y="-452.5" font-family="Helvetica,sans-Serif" font-size="10.00">x265::Lookahead::scenecut</text>
</g>
<!-- Node2 -->
<g id="node2" class="node"><title>Node2</title>
<g id="a_node2"><a xlink:href="classx265_1_1Lookahead.html#abe59d19601dc7f3cc76ba3dd315140ee" target="_top" xlink:title="x265::Lookahead::scenecut\lInternal">
<polygon fill="white" stroke="black" points="174.5,-440 174.5,-470 311.5,-470 311.5,-440 174.5,-440"/>
<text text-anchor="start" x="182.5" y="-458" font-family="Helvetica,sans-Serif" font-size="10.00">x265::Lookahead::scenecut</text>
<text text-anchor="middle" x="243" y="-447" font-family="Helvetica,sans-Serif" font-size="10.00">Internal</text>
</a>
</g>
</g>
<!-- Node1&#45;&gt;Node2 -->
<g id="edge1" class="edge"><title>Node1&#45;&gt;Node2</title>
<path fill="none" stroke="midnightblue" d="M137.979,-455C146.55,-455 155.372,-455 164.082,-455"/>
<polygon fill="midnightblue" stroke="midnightblue" points="164.233,-458.5 174.233,-455 164.233,-451.5 164.233,-458.5"/>
</g>
<!-- Node3 -->
<g id="node3" class="node"><title>Node3</title>
<g id="a_node3"><a xlink:href="classx265_1_1CostEstimate.html#af33d06405527ebbb03d9c93d565e6e2a" target="_top" xlink:title="x265::CostEstimate\l::estimateFrameCost">
<polygon fill="white" stroke="black" points="348.5,-462 348.5,-492 457.5,-492 457.5,-462 348.5,-462"/>
<text text-anchor="start" x="356.5" y="-480" font-family="Helvetica,sans-Serif" font-size="10.00">x265::CostEstimate</text>
<text text-anchor="middle" x="403" y="-469" font-family="Helvetica,sans-Serif" font-size="10.00">::estimateFrameCost</text>
</a>
</g>
</g>
<!-- Node2&#45;&gt;Node3 -->
<g id="edge2" class="edge"><title>Node2&#45;&gt;Node3</title>
<path fill="none" stroke="midnightblue" d="M311.923,-464.458C320.7,-465.68 329.663,-466.928 338.367,-468.14"/>
<polygon fill="midnightblue" stroke="midnightblue" points="338.052,-471.63 348.44,-469.542 339.018,-464.696 338.052,-471.63"/>
</g>
<!-- Node40 -->
<g id="node40" class="node"><title>Node40</title>
<g id="a_node40"><a xlink:href="common_8cpp.html#a746489f014374f963df715ddf9bd3986" target="_top" xlink:title="x265_log">
<polygon fill="white" stroke="black" points="375,-423.5 375,-442.5 431,-442.5 431,-423.5 375,-423.5"/>
<text text-anchor="middle" x="403" y="-430.5" font-family="Helvetica,sans-Serif" font-size="10.00">x265_log</text>
</a>
</g>
</g>
<!-- Node2&#45;&gt;Node40 -->
<g id="edge45" class="edge"><title>Node2&#45;&gt;Node40</title>
<path fill="none" stroke="midnightblue" d="M311.923,-445.542C329.864,-443.044 348.582,-440.438 364.277,-438.253"/>
<polygon fill="midnightblue" stroke="midnightblue" points="365.192,-441.659 374.614,-436.813 364.227,-434.726 365.192,-441.659"/>
</g>
<!-- Node4 -->
<g id="node4" class="node"><title>Node4</title>
<g id="a_node4"><a xlink:href="classx265_1_1CostEstimate.html#a97a70c43a6dc0ede9d048a1dc8af59ed" target="_top" xlink:title="x265::CostEstimate\l::weightsAnalyse">
<polygon fill="white" stroke="black" points="507,-621 507,-651 611,-651 611,-621 507,-621"/>
<text text-anchor="start" x="515" y="-639" font-family="Helvetica,sans-Serif" font-size="10.00">x265::CostEstimate</text>
<text text-anchor="middle" x="559" y="-628" font-family="Helvetica,sans-Serif" font-size="10.00">::weightsAnalyse</text>
</a>
</g>
</g>
<!-- Node3&#45;&gt;Node4 -->
<g id="edge3" class="edge"><title>Node3&#45;&gt;Node4</title>
<path fill="none" stroke="midnightblue" d="M410.384,-492.053C422.695,-519.404 452.241,-577.515 494,-611 496.076,-612.665 498.277,-614.23 500.565,-615.699"/>
<polygon fill="midnightblue" stroke="midnightblue" points="499.314,-619.013 509.739,-620.903 502.767,-612.925 499.314,-619.013"/>
</g>
<!-- Node8 -->
<g id="node8" class="node"><title>Node8</title>
<g id="a_node8"><a xlink:href="classx265_1_1EstimateRow.html#abbf6cfd575ceb20105ae92c0ad2711e2" target="_top" xlink:title="x265::EstimateRow::init">
<polygon fill="white" stroke="black" points="498,-582.5 498,-601.5 620,-601.5 620,-582.5 498,-582.5"/>
<text text-anchor="middle" x="559" y="-589.5" font-family="Helvetica,sans-Serif" font-size="10.00">x265::EstimateRow::init</text>
</a>
</g>
</g>
<!-- Node3&#45;&gt;Node8 -->
<g id="edge7" class="edge"><title>Node3&#45;&gt;Node8</title>
<path fill="none" stroke="midnightblue" d="M414.417,-492.123C429.579,-513.03 459.687,-550.599 494,-572 498.105,-574.56 502.565,-576.817 507.155,-578.8"/>
<polygon fill="midnightblue" stroke="midnightblue" points="506.099,-582.145 516.688,-582.498 508.631,-575.618 506.099,-582.145"/>
</g>
<!-- Node9 -->
<g id="node9" class="node"><title>Node9</title>
<g id="a_node9"><a xlink:href="classx265_1_1MotionEstimate.html#ac697505bf39a6a42796f76bcc971eba3" target="_top" xlink:title="x265::MotionEstimate\l::setSourcePlane">
<polygon fill="white" stroke="black" points="503,-533 503,-563 615,-563 615,-533 503,-533"/>
<text text-anchor="start" x="511" y="-551" font-family="Helvetica,sans-Serif" font-size="10.00">x265::MotionEstimate</text>
<text text-anchor="middle" x="559" y="-540" font-family="Helvetica,sans-Serif" font-size="10.00">::setSourcePlane</text>
</a>
</g>
</g>
<!-- Node3&#45;&gt;Node9 -->
<g id="edge8" class="edge"><title>Node3&#45;&gt;Node9</title>
<path fill="none" stroke="midnightblue" d="M431.623,-492.026C449.253,-501.389 472.713,-513.431 494,-523 498.457,-525.004 503.127,-527.006 507.827,-528.957"/>
<polygon fill="midnightblue" stroke="midnightblue" points="506.877,-532.349 517.459,-532.871 509.513,-525.864 506.877,-532.349"/>
</g>
<!-- Node10 -->
<g id="node10" class="node"><title>Node10</title>
<g id="a_node10"><a xlink:href="classx265_1_1JobProvider.html#a18b4ca907c73a70fd1a3d19951e715f5" target="_top" xlink:title="x265::JobProvider::\lenqueue">
<polygon fill="white" stroke="black" points="508.5,-484 508.5,-514 609.5,-514 609.5,-484 508.5,-484"/>
<text text-anchor="start" x="516.5" y="-502" font-family="Helvetica,sans-Serif" font-size="10.00">x265::JobProvider::</text>
<text text-anchor="middle" x="559" y="-491" font-family="Helvetica,sans-Serif" font-size="10.00">enqueue</text>
</a>
</g>
</g>
<!-- Node3&#45;&gt;Node10 -->
<g id="edge9" class="edge"><title>Node3&#45;&gt;Node10</title>
<path fill="none" stroke="midnightblue" d="M457.862,-484.695C470.925,-486.561 484.968,-488.567 498.284,-490.469"/>
<polygon fill="midnightblue" stroke="midnightblue" points="497.902,-493.95 508.296,-491.899 498.892,-487.02 497.902,-493.95"/>
</g>
<!-- Node13 -->
<g id="node13" class="node"><title>Node13</title>
<g id="a_node13"><a xlink:href="classx265_1_1WaveFront.html#a7e9bb7c12ce745c308ada7e889a8227e" target="_top" xlink:title="x265::WaveFront::enqueueRow">
<polygon fill="white" stroke="black" points="660.5,-320.5 660.5,-339.5 815.5,-339.5 815.5,-320.5 660.5,-320.5"/>
<text text-anchor="middle" x="738" y="-327.5" font-family="Helvetica,sans-Serif" font-size="10.00">x265::WaveFront::enqueueRow</text>
</a>
</g>
</g>
<!-- Node3&#45;&gt;Node13 -->
<g id="edge12" class="edge"><title>Node3&#45;&gt;Node13</title>
<path fill="none" stroke="midnightblue" d="M444.199,-461.99C449.171,-459.13 453.928,-455.813 458,-452 482.391,-429.163 467.38,-406.194 494,-386 508.476,-375.018 608.47,-354.357 675.593,-341.434"/>
<polygon fill="midnightblue" stroke="midnightblue" points="676.491,-344.826 685.654,-339.507 675.174,-337.951 676.491,-344.826"/>
</g>
<!-- Node14 -->
<g id="node14" class="node"><title>Node14</title>
<g id="a_node14"><a xlink:href="classx265_1_1WaveFront.html#a2d24a9c2629a6c16c96ecdc85993d77c" target="_top" xlink:title="x265::WaveFront::findJob">
<polygon fill="white" stroke="black" points="494.5,-445.5 494.5,-464.5 623.5,-464.5 623.5,-445.5 494.5,-445.5"/>
<text text-anchor="middle" x="559" y="-452.5" font-family="Helvetica,sans-Serif" font-size="10.00">x265::WaveFront::findJob</text>
</a>
</g>
</g>
<!-- Node3&#45;&gt;Node14 -->
<g id="edge14" class="edge"><title>Node3&#45;&gt;Node14</title>
<path fill="none" stroke="midnightblue" d="M457.862,-469.305C466.432,-468.081 475.425,-466.796 484.357,-465.52"/>
<polygon fill="midnightblue" stroke="midnightblue" points="484.985,-468.966 494.39,-464.087 483.995,-462.037 484.985,-468.966"/>
</g>
<!-- Node16 -->
<g id="node16" class="node"><title>Node16</title>
<g id="a_node16"><a xlink:href="classx265_1_1JobProvider.html#aad43fe7bf62d5d3656046fcf0888e7b8" target="_top" xlink:title="x265::JobProvider::\ldequeue">
<polygon fill="white" stroke="black" points="508.5,-396 508.5,-426 609.5,-426 609.5,-396 508.5,-396"/>
<text text-anchor="start" x="516.5" y="-414" font-family="Helvetica,sans-Serif" font-size="10.00">x265::JobProvider::</text>
<text text-anchor="middle" x="559" y="-403" font-family="Helvetica,sans-Serif" font-size="10.00">dequeue</text>
</a>
</g>
</g>
<!-- Node3&#45;&gt;Node16 -->
<g id="edge16" class="edge"><title>Node3&#45;&gt;Node16</title>
<path fill="none" stroke="midnightblue" d="M436.782,-461.838C457.787,-452.167 483.088,-440.613 494,-436 498.754,-433.991 503.729,-431.946 508.714,-429.936"/>
<polygon fill="midnightblue" stroke="midnightblue" points="510.267,-433.085 518.26,-426.131 507.675,-426.583 510.267,-433.085"/>
</g>
<!-- Node18 -->
<g id="node18" class="node"><title>Node18</title>
<g id="a_node18"><a xlink:href="classx265_1_1CostEstimate.html#a239a71996364d7662e9c9c32b82d6c9f" target="_top" xlink:title="x265::CostEstimate\l::processRow">
<polygon fill="white" stroke="black" points="507,-308 507,-338 611,-338 611,-308 507,-308"/>
<text text-anchor="start" x="515" y="-326" font-family="Helvetica,sans-Serif" font-size="10.00">x265::CostEstimate</text>
<text text-anchor="middle" x="559" y="-315" font-family="Helvetica,sans-Serif" font-size="10.00">::processRow</text>
</a>
</g>
</g>
<!-- Node3&#45;&gt;Node18 -->
<g id="edge19" class="edge"><title>Node3&#45;&gt;Node18</title>
<path fill="none" stroke="midnightblue" d="M445.837,-461.878C450.316,-459.076 454.506,-455.804 458,-452 489.673,-417.52 462.409,-387.555 494,-353 497.245,-349.451 500.996,-346.285 505.022,-343.469"/>
<polygon fill="midnightblue" stroke="midnightblue" points="506.933,-346.403 513.599,-338.168 503.252,-340.448 506.933,-346.403"/>
</g>
<!-- Node5 -->
<g id="node5" class="node"><title>Node5</title>
<g id="a_node5"><a xlink:href="structx265_1_1WeightParam.html#ade2d5601abcbd58f276e3a1699bebd77" target="_top" xlink:title="x265::WeightParam::\lsetFromWeightAndOffset">
<polygon fill="white" stroke="black" points="674,-621 674,-651 802,-651 802,-621 674,-621"/>
<text text-anchor="start" x="682" y="-639" font-family="Helvetica,sans-Serif" font-size="10.00">x265::WeightParam::</text>
<text text-anchor="middle" x="738" y="-628" font-family="Helvetica,sans-Serif" font-size="10.00">setFromWeightAndOffset</text>
</a>
</g>
</g>
<!-- Node4&#45;&gt;Node5 -->
<g id="edge4" class="edge"><title>Node4&#45;&gt;Node5</title>
<path fill="none" stroke="midnightblue" d="M611.196,-636C627.583,-636 646.058,-636 663.703,-636"/>
<polygon fill="midnightblue" stroke="midnightblue" points="663.973,-639.5 673.973,-636 663.973,-632.5 663.973,-639.5"/>
</g>
<!-- Node6 -->
<g id="node6" class="node"><title>Node6</title>
<g id="a_node6"><a xlink:href="classx265_1_1CostEstimate.html#a0cbdff1f1c55dcec0820ddef993eafee" target="_top" xlink:title="x265::CostEstimate\l::weightCostLuma">
<polygon fill="white" stroke="black" points="686,-572 686,-602 790,-602 790,-572 686,-572"/>
<text text-anchor="start" x="694" y="-590" font-family="Helvetica,sans-Serif" font-size="10.00">x265::CostEstimate</text>
<text text-anchor="middle" x="738" y="-579" font-family="Helvetica,sans-Serif" font-size="10.00">::weightCostLuma</text>
</a>
</g>
</g>
<!-- Node4&#45;&gt;Node6 -->
<g id="edge5" class="edge"><title>Node4&#45;&gt;Node6</title>
<path fill="none" stroke="midnightblue" d="M611.196,-621.827C631.468,-616.215 654.937,-609.718 676.074,-603.866"/>
<polygon fill="midnightblue" stroke="midnightblue" points="677.216,-607.182 685.919,-601.141 675.348,-600.436 677.216,-607.182"/>
</g>
<!-- Node7 -->
<g id="node7" class="node"><title>Node7</title>
<g id="a_node7"><a xlink:href="common_8h.html#a0bc45c2b4097068046b78520c8c09a94" target="_top" xlink:title="Clip3">
<polygon fill="white" stroke="black" points="718.5,-670.5 718.5,-689.5 757.5,-689.5 757.5,-670.5 718.5,-670.5"/>
<text text-anchor="middle" x="738" y="-677.5" font-family="Helvetica,sans-Serif" font-size="10.00">Clip3</text>
</a>
</g>
</g>
<!-- Node4&#45;&gt;Node7 -->
<g id="edge6" class="edge"><title>Node4&#45;&gt;Node7</title>
<path fill="none" stroke="midnightblue" d="M611.196,-648.727C642.783,-656.579 682.13,-666.36 708.326,-672.872"/>
<polygon fill="midnightblue" stroke="midnightblue" points="707.802,-676.348 718.351,-675.364 709.49,-669.555 707.802,-676.348"/>
</g>
<!-- Node11 -->
<g id="node11" class="node"><title>Node11</title>
<g id="a_node11"><a xlink:href="classx265_1_1ThreadPool.html#aded625482b82128d9ff1a3f3058129c1" target="_top" xlink:title="x265::ThreadPool::enqueue\lJobProvider">
<polygon fill="white" stroke="black" points="670,-523 670,-553 806,-553 806,-523 670,-523"/>
<text text-anchor="start" x="678" y="-541" font-family="Helvetica,sans-Serif" font-size="10.00">x265::ThreadPool::enqueue</text>
<text text-anchor="middle" x="738" y="-530" font-family="Helvetica,sans-Serif" font-size="10.00">JobProvider</text>
</a>
</g>
</g>
<!-- Node10&#45;&gt;Node11 -->
<g id="edge10" class="edge"><title>Node10&#45;&gt;Node11</title>
<path fill="none" stroke="midnightblue" d="M609.775,-509.967C625.332,-513.395 642.877,-517.261 659.855,-521.002"/>
<polygon fill="midnightblue" stroke="midnightblue" points="659.248,-524.452 669.766,-523.186 660.754,-517.616 659.248,-524.452"/>
</g>
<!-- Node12 -->
<g id="node12" class="node"><title>Node12</title>
<g id="a_node12"><a xlink:href="classx265_1_1ThreadPool.html#a47277b980acec1c3114d1374ba304b85" target="_top" xlink:title="x265::ThreadPool::pokeIdle\lThread">
<polygon fill="white" stroke="black" points="855,-405 855,-435 991,-435 991,-405 855,-405"/>
<text text-anchor="start" x="863" y="-423" font-family="Helvetica,sans-Serif" font-size="10.00">x265::ThreadPool::pokeIdle</text>
<text text-anchor="middle" x="923" y="-412" font-family="Helvetica,sans-Serif" font-size="10.00">Thread</text>
</a>
</g>
</g>
<!-- Node10&#45;&gt;Node12 -->
<g id="edge11" class="edge"><title>Node10&#45;&gt;Node12</title>
<path fill="none" stroke="midnightblue" d="M609.654,-499.925C662.016,-499.622 746.409,-495.468 816,-475 842.509,-467.203 870.146,-452.617 890.552,-440.425"/>
<polygon fill="midnightblue" stroke="midnightblue" points="892.399,-443.398 899.109,-435.199 888.75,-437.424 892.399,-443.398"/>
</g>
<!-- Node13&#45;&gt;Node12 -->
<g id="edge13" class="edge"><title>Node13&#45;&gt;Node12</title>
<path fill="none" stroke="midnightblue" d="M796.308,-339.556C803.243,-342.017 809.989,-345.11 816,-349 837.796,-363.104 830.945,-379.813 852,-395 854.669,-396.925 857.501,-398.715 860.436,-400.377"/>
<polygon fill="midnightblue" stroke="midnightblue" points="858.996,-403.571 869.496,-404.988 862.172,-397.333 858.996,-403.571"/>
</g>
<!-- Node15 -->
<g id="node15" class="node"><title>Node15</title>
<g id="a_node15"><a xlink:href="classx265_1_1WaveFront.html#aa44b94082205421580868d288487dd0c" target="_top" xlink:title="x265::WaveFront::processRow">
<polygon fill="white" stroke="black" points="662,-446.5 662,-465.5 814,-465.5 814,-446.5 662,-446.5"/>
<text text-anchor="middle" x="738" y="-453.5" font-family="Helvetica,sans-Serif" font-size="10.00">x265::WaveFront::processRow</text>
</a>
</g>
</g>
<!-- Node14&#45;&gt;Node15 -->
<g id="edge15" class="edge"><title>Node14&#45;&gt;Node15</title>
<path fill="none" stroke="midnightblue" d="M623.901,-455.361C632.918,-455.412 642.306,-455.465 651.646,-455.518"/>
<polygon fill="midnightblue" stroke="midnightblue" points="651.724,-459.018 661.744,-455.575 651.764,-452.018 651.724,-459.018"/>
</g>
<!-- Node16&#45;&gt;Node12 -->
<g id="edge18" class="edge"><title>Node16&#45;&gt;Node12</title>
<path fill="none" stroke="midnightblue" d="M609.576,-412.233C670.204,-413.74 773.516,-416.308 844.635,-418.077"/>
<polygon fill="midnightblue" stroke="midnightblue" points="844.801,-421.582 854.885,-418.331 844.976,-414.584 844.801,-421.582"/>
</g>
<!-- Node17 -->
<g id="node17" class="node"><title>Node17</title>
<g id="a_node17"><a xlink:href="classx265_1_1ThreadPool.html#a360b412a2c2a49143e4611ff790d9462" target="_top" xlink:title="x265::ThreadPool::dequeue\lJobProvider">
<polygon fill="white" stroke="black" points="670,-359 670,-389 806,-389 806,-359 670,-359"/>
<text text-anchor="start" x="678" y="-377" font-family="Helvetica,sans-Serif" font-size="10.00">x265::ThreadPool::dequeue</text>
<text text-anchor="middle" x="738" y="-366" font-family="Helvetica,sans-Serif" font-size="10.00">JobProvider</text>
</a>
</g>
</g>
<!-- Node16&#45;&gt;Node17 -->
<g id="edge17" class="edge"><title>Node16&#45;&gt;Node17</title>
<path fill="none" stroke="midnightblue" d="M609.775,-400.595C625.332,-397.343 642.877,-393.675 659.855,-390.126"/>
<polygon fill="midnightblue" stroke="midnightblue" points="660.694,-393.527 669.766,-388.054 659.262,-386.675 660.694,-393.527"/>
</g>
<!-- Node18&#45;&gt;Node13 -->
<g id="edge44" class="edge"><title>Node18&#45;&gt;Node13</title>
<path fill="none" stroke="midnightblue" d="M611.196,-325.025C623.4,-325.507 636.762,-326.036 650.077,-326.562"/>
<polygon fill="midnightblue" stroke="midnightblue" points="650.099,-330.066 660.23,-326.964 650.376,-323.071 650.099,-330.066"/>
</g>
<!-- Node19 -->
<g id="node19" class="node"><title>Node19</title>
<g id="a_node19"><a xlink:href="classx265_1_1EstimateRow.html#ab4418a4e826e746d0b9cdce75a0736d9" target="_top" xlink:title="x265::EstimateRow::\lestimateCUCost">
<polygon fill="white" stroke="black" points="683.5,-269 683.5,-299 792.5,-299 792.5,-269 683.5,-269"/>
<text text-anchor="start" x="691.5" y="-287" font-family="Helvetica,sans-Serif" font-size="10.00">x265::EstimateRow::</text>
<text text-anchor="middle" x="738" y="-276" font-family="Helvetica,sans-Serif" font-size="10.00">estimateCUCost</text>
</a>
</g>
</g>
<!-- Node18&#45;&gt;Node19 -->
<g id="edge20" class="edge"><title>Node18&#45;&gt;Node19</title>
<path fill="none" stroke="midnightblue" d="M611.196,-311.72C630.674,-307.428 653.104,-302.486 673.581,-297.974"/>
<polygon fill="midnightblue" stroke="midnightblue" points="674.443,-301.368 683.455,-295.798 672.936,-294.532 674.443,-301.368"/>
</g>
<!-- Node20 -->
<g id="node20" class="node"><title>Node20</title>
<g id="a_node20"><a xlink:href="classx265_1_1MotionEstimate.html#adb6e30a132d2c6216fbc68061f1ca488" target="_top" xlink:title="x265::MotionEstimate\l::setSourcePU">
<polygon fill="white" stroke="black" points="867,-317 867,-347 979,-347 979,-317 867,-317"/>
<text text-anchor="start" x="875" y="-335" font-family="Helvetica,sans-Serif" font-size="10.00">x265::MotionEstimate</text>
<text text-anchor="middle" x="923" y="-324" font-family="Helvetica,sans-Serif" font-size="10.00">::setSourcePU</text>
</a>
</g>
</g>
<!-- Node19&#45;&gt;Node20 -->
<g id="edge21" class="edge"><title>Node19&#45;&gt;Node20</title>
<path fill="none" stroke="midnightblue" d="M792.916,-298.142C813.031,-303.418 836.078,-309.463 857.08,-314.972"/>
<polygon fill="midnightblue" stroke="midnightblue" points="856.324,-318.392 866.885,-317.544 858.1,-311.621 856.324,-318.392"/>
</g>
<!-- Node22 -->
<g id="node22" class="node"><title>Node22</title>
<g id="a_node22"><a xlink:href="classx265_1_1MotionEstimate.html#a2fa2c8bf4129cf3352a828a0795bd139" target="_top" xlink:title="x265::MotionEstimate\l::motionEstimate">
<polygon fill="white" stroke="black" points="867,-268 867,-298 979,-298 979,-268 867,-268"/>
<text text-anchor="start" x="875" y="-286" font-family="Helvetica,sans-Serif" font-size="10.00">x265::MotionEstimate</text>
<text text-anchor="middle" x="923" y="-275" font-family="Helvetica,sans-Serif" font-size="10.00">::motionEstimate</text>
</a>
</g>
</g>
<!-- Node19&#45;&gt;Node22 -->
<g id="edge23" class="edge"><title>Node19&#45;&gt;Node22</title>
<path fill="none" stroke="midnightblue" d="M792.916,-283.705C812.94,-283.596 835.87,-283.471 856.795,-283.356"/>
<polygon fill="midnightblue" stroke="midnightblue" points="856.904,-286.856 866.885,-283.301 856.866,-279.856 856.904,-286.856"/>
</g>
<!-- Node31 -->
<g id="node31" class="node"><title>Node31</title>
<g id="a_node31"><a xlink:href="search_8cpp.html#ae9b663e71d46be40d428dde255388fc0" target="_top" xlink:title="ALIGN_VAR_32">
<polygon fill="white" stroke="black" points="1207.5,-71.5 1207.5,-90.5 1296.5,-90.5 1296.5,-71.5 1207.5,-71.5"/>
<text text-anchor="middle" x="1252" y="-78.5" font-family="Helvetica,sans-Serif" font-size="10.00">ALIGN_VAR_32</text>
</a>
</g>
</g>
<!-- Node19&#45;&gt;Node31 -->
<g id="edge43" class="edge"><title>Node19&#45;&gt;Node31</title>
<path fill="none" stroke="midnightblue" d="M753.197,-268.813C792.441,-228.093 907.605,-116.937 1030,-78 1085.07,-60.4801 1151.84,-64.6131 1197.47,-70.9854"/>
<polygon fill="midnightblue" stroke="midnightblue" points="1197.05,-74.4603 1207.45,-72.4612 1198.07,-67.5356 1197.05,-74.4603"/>
</g>
<!-- Node38 -->
<g id="node38" class="node"><title>Node38</title>
<g id="a_node38"><a xlink:href="structx265_1_1ReferencePlanes.html#a194ef69a517d17a6f7b0741b084164ae" target="_top" xlink:title="x265::ReferencePlanes\l::lowresMC">
<polygon fill="white" stroke="black" points="863.5,-0 863.5,-30 982.5,-30 982.5,-0 863.5,-0"/>
<text text-anchor="start" x="871.5" y="-18" font-family="Helvetica,sans-Serif" font-size="10.00">x265::ReferencePlanes</text>
<text text-anchor="middle" x="923" y="-7" font-family="Helvetica,sans-Serif" font-size="10.00">::lowresMC</text>
</a>
</g>
</g>
<!-- Node19&#45;&gt;Node38 -->
<g id="edge41" class="edge"><title>Node19&#45;&gt;Node38</title>
<path fill="none" stroke="midnightblue" d="M742.179,-268.931C751.627,-227.622 783.266,-111.252 852,-45 855.927,-41.215 860.406,-37.8708 865.157,-34.9237"/>
<polygon fill="midnightblue" stroke="midnightblue" points="866.903,-37.9573 873.942,-30.0383 863.501,-31.8396 866.903,-37.9573"/>
</g>
<!-- Node39 -->
<g id="node39" class="node"><title>Node39</title>
<g id="a_node39"><a xlink:href="namespacex265.html#ac6c8410818c1795fa1005c95bcba83a6" target="_top" xlink:title="x265::partitionFromLog2Size">
<polygon fill="white" stroke="black" points="852.5,-366.5 852.5,-385.5 993.5,-385.5 993.5,-366.5 852.5,-366.5"/>
<text text-anchor="middle" x="923" y="-373.5" font-family="Helvetica,sans-Serif" font-size="10.00">x265::partitionFromLog2Size</text>
</a>
</g>
</g>
<!-- Node19&#45;&gt;Node39 -->
<g id="edge42" class="edge"><title>Node19&#45;&gt;Node39</title>
<path fill="none" stroke="midnightblue" d="M792.697,-298.433C800.888,-301.854 808.95,-306.003 816,-311 836.895,-325.812 830.677,-341.81 852,-356 855.772,-358.51 859.859,-360.709 864.101,-362.635"/>
<polygon fill="midnightblue" stroke="midnightblue" points="862.984,-365.958 873.568,-366.431 865.589,-359.461 862.984,-365.958"/>
</g>
<!-- Node21 -->
<g id="node21" class="node"><title>Node21</title>
<g id="a_node21"><a xlink:href="namespacex265.html#a93e053711da89baf3e987bf83cbd55a3" target="_top" xlink:title="x265::partitionFromSizes">
<polygon fill="white" stroke="black" points="1030.5,-541.5 1030.5,-560.5 1155.5,-560.5 1155.5,-541.5 1030.5,-541.5"/>
<text text-anchor="middle" x="1093" y="-548.5" font-family="Helvetica,sans-Serif" font-size="10.00">x265::partitionFromSizes</text>
</a>
</g>
</g>
<!-- Node20&#45;&gt;Node21 -->
<g id="edge22" class="edge"><title>Node20&#45;&gt;Node21</title>
<path fill="none" stroke="midnightblue" d="M979.154,-345.24C984.729,-348.365 989.853,-352.227 994,-357 1046.08,-416.942 976.565,-473.262 1030,-532 1031.2,-533.317 1032.48,-534.543 1033.84,-535.686"/>
<polygon fill="midnightblue" stroke="midnightblue" points="1032.06,-538.705 1042.32,-541.353 1035.95,-532.886 1032.06,-538.705"/>
</g>
<!-- Node23 -->
<g id="node23" class="node"><title>Node23</title>
<g id="a_node23"><a xlink:href="classx265_1_1BitCost.html#af9e3546cdb4725839b70c8bc7d0f769f" target="_top" xlink:title="x265::BitCost::setMVP">
<polygon fill="white" stroke="black" points="1034,-415.5 1034,-434.5 1152,-434.5 1152,-415.5 1034,-415.5"/>
<text text-anchor="middle" x="1093" y="-422.5" font-family="Helvetica,sans-Serif" font-size="10.00">x265::BitCost::setMVP</text>
</a>
</g>
</g>
<!-- Node22&#45;&gt;Node23 -->
<g id="edge24" class="edge"><title>Node22&#45;&gt;Node23</title>
<path fill="none" stroke="midnightblue" d="M979.172,-296.412C984.605,-299.284 989.691,-302.77 994,-307 1027.41,-339.799 996.054,-373.756 1030,-406 1031.66,-407.575 1033.44,-409.02 1035.33,-410.345"/>
<polygon fill="midnightblue" stroke="midnightblue" points="1033.69,-413.443 1044.1,-415.422 1037.2,-407.384 1033.69,-413.443"/>
</g>
<!-- Node24 -->
<g id="node24" class="node"><title>Node24</title>
<g id="a_node24"><a xlink:href="structx265_1_1MV.html#a75cda809db25c298d3814d018ae48556" target="_top" xlink:title="x265::MV::toQPel">
<polygon fill="white" stroke="black" points="1045.5,-377.5 1045.5,-396.5 1140.5,-396.5 1140.5,-377.5 1045.5,-377.5"/>
<text text-anchor="middle" x="1093" y="-384.5" font-family="Helvetica,sans-Serif" font-size="10.00">x265::MV::toQPel</text>
</a>
</g>
</g>
<!-- Node22&#45;&gt;Node24 -->
<g id="edge25" class="edge"><title>Node22&#45;&gt;Node24</title>
<path fill="none" stroke="midnightblue" d="M979.355,-297.942C984.564,-300.515 989.551,-303.512 994,-307 1017.29,-325.255 1007.08,-344.294 1030,-363 1034.99,-367.07 1040.75,-370.506 1046.7,-373.391"/>
<polygon fill="midnightblue" stroke="midnightblue" points="1045.57,-376.717 1056.14,-377.483 1048.36,-370.294 1045.57,-376.717"/>
</g>
<!-- Node25 -->
<g id="node25" class="node"><title>Node25</title>
<g id="a_node25"><a xlink:href="structx265_1_1MV.html#aab942064e803bea5dc44bd93c5049044" target="_top" xlink:title="x265::MV::clipped">
<polygon fill="white" stroke="black" points="1045.5,-251.5 1045.5,-270.5 1140.5,-270.5 1140.5,-251.5 1045.5,-251.5"/>
<text text-anchor="middle" x="1093" y="-258.5" font-family="Helvetica,sans-Serif" font-size="10.00">x265::MV::clipped</text>
</a>
</g>
</g>
<!-- Node22&#45;&gt;Node25 -->
<g id="edge26" class="edge"><title>Node22&#45;&gt;Node25</title>
<path fill="none" stroke="midnightblue" d="M979.009,-275.796C997.012,-273.439 1017.04,-270.816 1035.17,-268.442"/>
<polygon fill="midnightblue" stroke="midnightblue" points="1035.85,-271.883 1045.31,-267.114 1034.94,-264.942 1035.85,-271.883"/>
</g>
<!-- Node29 -->
<g id="node29" class="node"><title>Node29</title>
<g id="a_node29"><a xlink:href="structx265_1_1ReferencePlanes.html#ae68e9da3e5057a6525f319a01fd424dd" target="_top" xlink:title="x265::ReferencePlanes\l::lowresQPelCost">
<polygon fill="white" stroke="black" points="1033.5,-290 1033.5,-320 1152.5,-320 1152.5,-290 1033.5,-290"/>
<text text-anchor="start" x="1041.5" y="-308" font-family="Helvetica,sans-Serif" font-size="10.00">x265::ReferencePlanes</text>
<text text-anchor="middle" x="1093" y="-297" font-family="Helvetica,sans-Serif" font-size="10.00">::lowresQPelCost</text>
</a>
</g>
</g>
<!-- Node22&#45;&gt;Node29 -->
<g id="edge31" class="edge"><title>Node22&#45;&gt;Node29</title>
<path fill="none" stroke="midnightblue" d="M979.009,-290.204C993.16,-292.057 1008.56,-294.074 1023.31,-296.005"/>
<polygon fill="midnightblue" stroke="midnightblue" points="1023.03,-299.498 1033.4,-297.326 1023.94,-292.557 1023.03,-299.498"/>
</g>
<!-- Node30 -->
<g id="node30" class="node"><title>Node30</title>
<g id="a_node30"><a xlink:href="classx265_1_1MotionEstimate.html#a567395e03ad3eaf176bc2be0176b00de" target="_top" xlink:title="x265::MotionEstimate\l::subpelCompare">
<polygon fill="white" stroke="black" points="1037,-88 1037,-118 1149,-118 1149,-88 1037,-88"/>
<text text-anchor="start" x="1045" y="-106" font-family="Helvetica,sans-Serif" font-size="10.00">x265::MotionEstimate</text>
<text text-anchor="middle" x="1093" y="-95" font-family="Helvetica,sans-Serif" font-size="10.00">::subpelCompare</text>
</a>
</g>
</g>
<!-- Node22&#45;&gt;Node30 -->
<g id="edge32" class="edge"><title>Node22&#45;&gt;Node30</title>
<path fill="none" stroke="midnightblue" d="M930.748,-267.577C944.886,-236.915 980.454,-167.831 1030,-128 1032.06,-126.346 1034.24,-124.788 1036.51,-123.323"/>
<polygon fill="midnightblue" stroke="midnightblue" points="1038.66,-126.126 1045.6,-118.121 1035.18,-120.051 1038.66,-126.126"/>
</g>
<!-- Node32 -->
<g id="node32" class="node"><title>Node32</title>
<g id="a_node32"><a xlink:href="structx265_1_1MV.html#a86c0423fcfa253386479878911ba85df" target="_top" xlink:title="x265::MV::roundToFPel">
<polygon fill="white" stroke="black" points="1192,-333.5 1192,-352.5 1312,-352.5 1312,-333.5 1192,-333.5"/>
<text text-anchor="middle" x="1252" y="-340.5" font-family="Helvetica,sans-Serif" font-size="10.00">x265::MV::roundToFPel</text>
</a>
</g>
</g>
<!-- Node22&#45;&gt;Node32 -->
<g id="edge34" class="edge"><title>Node22&#45;&gt;Node32</title>
<path fill="none" stroke="midnightblue" d="M972.373,-298.035C979.724,-300.762 987.14,-303.775 994,-307 1010.97,-314.977 1012.12,-323.353 1030,-329 1079.15,-344.521 1137.42,-347.626 1181.79,-347.062"/>
<polygon fill="midnightblue" stroke="midnightblue" points="1181.96,-350.559 1191.9,-346.867 1181.83,-343.56 1181.96,-350.559"/>
</g>
<!-- Node33 -->
<g id="node33" class="node"><title>Node33</title>
<g id="a_node33"><a xlink:href="structx265_1_1MV.html#af727b7e8ec45f84fb033435441cca8e2" target="_top" xlink:title="x265::MV::isSubpel">
<polygon fill="white" stroke="black" points="1042,-213.5 1042,-232.5 1144,-232.5 1144,-213.5 1042,-213.5"/>
<text text-anchor="middle" x="1093" y="-220.5" font-family="Helvetica,sans-Serif" font-size="10.00">x265::MV::isSubpel</text>
</a>
</g>
</g>
<!-- Node22&#45;&gt;Node33 -->
<g id="edge36" class="edge"><title>Node22&#45;&gt;Node33</title>
<path fill="none" stroke="midnightblue" d="M961.042,-267.922C981.287,-259.872 1006.88,-250.003 1030,-242 1036.36,-239.798 1043.13,-237.588 1049.78,-235.494"/>
<polygon fill="midnightblue" stroke="midnightblue" points="1050.84,-238.828 1059.36,-232.524 1048.77,-232.142 1050.84,-238.828"/>
</g>
<!-- Node34 -->
<g id="node34" class="node"><title>Node34</title>
<g id="a_node34"><a xlink:href="classx265_1_1BitCost.html#a1f6ec166b475924ab9879f671718fd18" target="_top" xlink:title="x265::BitCost::mvcost">
<polygon fill="white" stroke="black" points="1035.5,-175.5 1035.5,-194.5 1150.5,-194.5 1150.5,-175.5 1035.5,-175.5"/>
<text text-anchor="middle" x="1093" y="-182.5" font-family="Helvetica,sans-Serif" font-size="10.00">x265::BitCost::mvcost</text>
</a>
</g>
</g>
<!-- Node22&#45;&gt;Node34 -->
<g id="edge37" class="edge"><title>Node22&#45;&gt;Node34</title>
<path fill="none" stroke="midnightblue" d="M940.417,-267.903C960.287,-250.343 995.399,-221.529 1030,-204 1034.35,-201.795 1039.01,-199.792 1043.74,-197.985"/>
<polygon fill="midnightblue" stroke="midnightblue" points="1045.22,-201.176 1053.49,-194.553 1042.89,-194.573 1045.22,-201.176"/>
</g>
<!-- Node35 -->
<g id="node35" class="node"><title>Node35</title>
<g id="a_node35"><a xlink:href="structx265_1_1MV.html#ab8c700f2d598d52daeabba8950a4f100" target="_top" xlink:title="x265::MV::notZero">
<polygon fill="white" stroke="black" points="1044,-137.5 1044,-156.5 1142,-156.5 1142,-137.5 1044,-137.5"/>
<text text-anchor="middle" x="1093" y="-144.5" font-family="Helvetica,sans-Serif" font-size="10.00">x265::MV::notZero</text>
</a>
</g>
</g>
<!-- Node22&#45;&gt;Node35 -->
<g id="edge38" class="edge"><title>Node22&#45;&gt;Node35</title>
<path fill="none" stroke="midnightblue" d="M933.79,-267.673C950.511,-242.715 986.97,-193.34 1030,-166 1033.33,-163.887 1036.9,-161.996 1040.6,-160.307"/>
<polygon fill="midnightblue" stroke="midnightblue" points="1042,-163.515 1049.95,-156.511 1039.37,-157.028 1042,-163.515"/>
</g>
<!-- Node36 -->
<g id="node36" class="node"><title>Node36</title>
<g id="a_node36"><a xlink:href="structx265_1_1MV.html#a01d2ebe3995b2b90306138965e342be0" target="_top" xlink:title="x265::MV::checkRange">
<polygon fill="white" stroke="black" points="1033.5,-503.5 1033.5,-522.5 1152.5,-522.5 1152.5,-503.5 1033.5,-503.5"/>
<text text-anchor="middle" x="1093" y="-510.5" font-family="Helvetica,sans-Serif" font-size="10.00">x265::MV::checkRange</text>
</a>
</g>
</g>
<!-- Node22&#45;&gt;Node36 -->
<g id="edge39" class="edge"><title>Node22&#45;&gt;Node36</title>
<path fill="none" stroke="midnightblue" d="M979.185,-295.382C984.755,-298.439 989.869,-302.25 994,-307 1049.26,-370.533 974.165,-429.974 1030,-493 1031.55,-494.754 1033.26,-496.355 1035.09,-497.817"/>
<polygon fill="midnightblue" stroke="midnightblue" points="1033.45,-500.923 1043.76,-503.371 1037.23,-495.029 1033.45,-500.923"/>
</g>
<!-- Node37 -->
<g id="node37" class="node"><title>Node37</title>
<g id="a_node37"><a xlink:href="classx265_1_1MotionEstimate.html#aa22e36e9370319fe452f886c94a68ba3" target="_top" xlink:title="x265::MotionEstimate\l::StarPatternSearch">
<polygon fill="white" stroke="black" points="1037,-454 1037,-484 1149,-484 1149,-454 1037,-454"/>
<text text-anchor="start" x="1045" y="-472" font-family="Helvetica,sans-Serif" font-size="10.00">x265::MotionEstimate</text>
<text text-anchor="middle" x="1093" y="-461" font-family="Helvetica,sans-Serif" font-size="10.00">::StarPatternSearch</text>
</a>
</g>
</g>
<!-- Node22&#45;&gt;Node37 -->
<g id="edge40" class="edge"><title>Node22&#45;&gt;Node37</title>
<path fill="none" stroke="midnightblue" d="M979.227,-295.839C984.718,-298.815 989.802,-302.483 994,-307 1036.85,-353.119 988.382,-396.762 1030,-444 1031.16,-445.317 1032.4,-446.566 1033.71,-447.75"/>
<polygon fill="midnightblue" stroke="midnightblue" points="1031.71,-450.632 1041.81,-453.845 1035.92,-445.037 1031.71,-450.632"/>
</g>
<!-- Node26 -->
<g id="node26" class="node"><title>Node26</title>
<g id="a_node26"><a xlink:href="structx265_1_1MV.html#ae2188abb6fce57e17c2b20d546eda720" target="_top" xlink:title="x265::MV::mvmin">
<polygon fill="white" stroke="black" points="1205,-289.5 1205,-308.5 1299,-308.5 1299,-289.5 1205,-289.5"/>
<text text-anchor="middle" x="1252" y="-296.5" font-family="Helvetica,sans-Serif" font-size="10.00">x265::MV::mvmin</text>
</a>
</g>
</g>
<!-- Node25&#45;&gt;Node26 -->
<g id="edge27" class="edge"><title>Node25&#45;&gt;Node26</title>
<path fill="none" stroke="midnightblue" d="M1133.62,-270.589C1154.34,-275.604 1179.89,-281.788 1201.86,-287.105"/>
<polygon fill="midnightblue" stroke="midnightblue" points="1201.12,-290.529 1211.67,-289.48 1202.77,-283.726 1201.12,-290.529"/>
</g>
<!-- Node28 -->
<g id="node28" class="node"><title>Node28</title>
<g id="a_node28"><a xlink:href="structx265_1_1MV.html#a018ff75610ce4789aa617555d70384c3" target="_top" xlink:title="x265::MV::mvmax">
<polygon fill="white" stroke="black" points="1203.5,-251.5 1203.5,-270.5 1300.5,-270.5 1300.5,-251.5 1203.5,-251.5"/>
<text text-anchor="middle" x="1252" y="-258.5" font-family="Helvetica,sans-Serif" font-size="10.00">x265::MV::mvmax</text>
</a>
</g>
</g>
<!-- Node25&#45;&gt;Node28 -->
<g id="edge29" class="edge"><title>Node25&#45;&gt;Node28</title>
<path fill="none" stroke="midnightblue" d="M1140.68,-261C1157.23,-261 1176.05,-261 1193.4,-261"/>
<polygon fill="midnightblue" stroke="midnightblue" points="1193.41,-264.5 1203.41,-261 1193.41,-257.5 1193.41,-264.5"/>
</g>
<!-- Node27 -->
<g id="node27" class="node"><title>Node27</title>
<g id="a_node27"><a xlink:href="structx265_1_1MV.html#ad6ea050b3dad242656dba0bf3f921d41" target="_top" xlink:title="x265::MV::MV">
<polygon fill="white" stroke="black" points="1348,-289.5 1348,-308.5 1428,-308.5 1428,-289.5 1348,-289.5"/>
<text text-anchor="middle" x="1388" y="-296.5" font-family="Helvetica,sans-Serif" font-size="10.00">x265::MV::MV</text>
</a>
</g>
</g>
<!-- Node26&#45;&gt;Node27 -->
<g id="edge28" class="edge"><title>Node26&#45;&gt;Node27</title>
<path fill="none" stroke="midnightblue" d="M1299.12,-299C1311.54,-299 1325.02,-299 1337.61,-299"/>
<polygon fill="midnightblue" stroke="midnightblue" points="1337.93,-302.5 1347.93,-299 1337.93,-295.5 1337.93,-302.5"/>
</g>
<!-- Node28&#45;&gt;Node27 -->
<g id="edge30" class="edge"><title>Node28&#45;&gt;Node27</title>
<path fill="none" stroke="midnightblue" d="M1286.81,-270.589C1304.03,-275.472 1325.16,-281.464 1343.57,-286.685"/>
<polygon fill="midnightblue" stroke="midnightblue" points="1342.62,-290.053 1353.2,-289.414 1344.53,-283.319 1342.62,-290.053"/>
</g>
<!-- Node30&#45;&gt;Node31 -->
<g id="edge33" class="edge"><title>Node30&#45;&gt;Node31</title>
<path fill="none" stroke="midnightblue" d="M1149.35,-95.2436C1165,-93.0516 1181.98,-90.6709 1197.52,-88.4947"/>
<polygon fill="midnightblue" stroke="midnightblue" points="1198.06,-91.952 1207.48,-87.0981 1197.09,-85.0198 1198.06,-91.952"/>
</g>
<!-- Node32&#45;&gt;Node27 -->
<g id="edge35" class="edge"><title>Node32&#45;&gt;Node27</title>
<path fill="none" stroke="midnightblue" d="M1282.08,-333.453C1301.48,-327.081 1327.21,-318.633 1348.33,-311.696"/>
<polygon fill="midnightblue" stroke="midnightblue" points="1349.57,-314.974 1357.98,-308.529 1347.39,-308.323 1349.57,-314.974"/>
</g>
</g>
</svg>
