<?xml version="1.0" encoding="UTF-8" standalone="no"?>
<!DOCTYPE svg PUBLIC "-//W3C//DTD SVG 1.1//EN"
 "http://www.w3.org/Graphics/SVG/1.1/DTD/svg11.dtd">
<!-- Generated by graphviz version 2.36.0 (20140111.2315)
 -->
<!-- Title: x265::CUData::setEmptyPart Pages: 1 -->
<svg width="950pt" height="185pt"
 viewBox="0.00 0.00 950.00 185.00" xmlns="http://www.w3.org/2000/svg" xmlns:xlink="http://www.w3.org/1999/xlink">
<g id="graph0" class="graph" transform="scale(1 1) rotate(0) translate(4 181)">
<title>x265::CUData::setEmptyPart</title>
<polygon fill="white" stroke="none" points="-4,4 -4,-181 946,-181 946,4 -4,4"/>
<!-- Node1 -->
<g id="node1" class="node"><title>Node1</title>
<polygon fill="#bfbfbf" stroke="black" points="0,-78.5 0,-97.5 146,-97.5 146,-78.5 0,-78.5"/>
<text text-anchor="middle" x="73" y="-85.5" font-family="Helvetica,sans-Serif" font-size="10.00">x265::CUData::setEmptyPart</text>
</g>
<!-- Node2 -->
<g id="node2" class="node"><title>Node2</title>
<g id="a_node2"><a xlink:href="classx265_1_1Analysis.html#aae2a6a2252270782b591d2bed7e99dae" target="_top" xlink:title="x265::Analysis::compress\lIntraCU">
<polygon fill="white" stroke="black" points="182,-147 182,-177 312,-177 312,-147 182,-147"/>
<text text-anchor="start" x="190" y="-165" font-family="Helvetica,sans-Serif" font-size="10.00">x265::Analysis::compress</text>
<text text-anchor="middle" x="247" y="-154" font-family="Helvetica,sans-Serif" font-size="10.00">IntraCU</text>
</a>
</g>
</g>
<!-- Node1&#45;&gt;Node2 -->
<g id="edge1" class="edge"><title>Node1&#45;&gt;Node2</title>
<path fill="none" stroke="midnightblue" d="M103.447,-101.875C125.055,-111.93 155.184,-125.689 182,-137 189.914,-140.338 198.438,-143.776 206.604,-146.993"/>
<polygon fill="midnightblue" stroke="midnightblue" points="104.702,-98.5982 94.1607,-97.5375 101.74,-104.941 104.702,-98.5982"/>
</g>
<!-- Node7 -->
<g id="node7" class="node"><title>Node7</title>
<g id="a_node7"><a xlink:href="classx265_1_1Analysis.html#a87060ff27a37f56adc5f5b8a4c033ece" target="_top" xlink:title="x265::Analysis::compress\lInterCU_dist">
<polygon fill="white" stroke="black" points="182,-98 182,-128 312,-128 312,-98 182,-98"/>
<text text-anchor="start" x="190" y="-116" font-family="Helvetica,sans-Serif" font-size="10.00">x265::Analysis::compress</text>
<text text-anchor="middle" x="247" y="-105" font-family="Helvetica,sans-Serif" font-size="10.00">InterCU_dist</text>
</a>
</g>
</g>
<!-- Node1&#45;&gt;Node7 -->
<g id="edge6" class="edge"><title>Node1&#45;&gt;Node7</title>
<path fill="none" stroke="midnightblue" d="M149.698,-99.0026C160.409,-100.559 171.336,-102.148 181.803,-103.669"/>
<polygon fill="midnightblue" stroke="midnightblue" points="149.916,-95.4976 139.516,-97.5227 148.909,-102.425 149.916,-95.4976"/>
</g>
<!-- Node8 -->
<g id="node8" class="node"><title>Node8</title>
<g id="a_node8"><a xlink:href="classx265_1_1Analysis.html#a30d2ff7eca5addbb0a6b3dfe14f09650" target="_top" xlink:title="x265::Analysis::compress\lInterCU_rd0_4">
<polygon fill="white" stroke="black" points="182,-49 182,-79 312,-79 312,-49 182,-49"/>
<text text-anchor="start" x="190" y="-67" font-family="Helvetica,sans-Serif" font-size="10.00">x265::Analysis::compress</text>
<text text-anchor="middle" x="247" y="-56" font-family="Helvetica,sans-Serif" font-size="10.00">InterCU_rd0_4</text>
</a>
</g>
</g>
<!-- Node1&#45;&gt;Node8 -->
<g id="edge8" class="edge"><title>Node1&#45;&gt;Node8</title>
<path fill="none" stroke="midnightblue" d="M152.635,-77.0277C162.451,-75.658 172.397,-74.2702 181.955,-72.9366"/>
<polygon fill="midnightblue" stroke="midnightblue" points="151.894,-73.5971 142.473,-78.4456 152.861,-80.53 151.894,-73.5971"/>
</g>
<!-- Node9 -->
<g id="node9" class="node"><title>Node9</title>
<g id="a_node9"><a xlink:href="classx265_1_1Analysis.html#a0b22b7765aa4a36b1ba6d07ba26901e6" target="_top" xlink:title="x265::Analysis::compress\lInterCU_rd5_6">
<polygon fill="white" stroke="black" points="182,-0 182,-30 312,-30 312,-0 182,-0"/>
<text text-anchor="start" x="190" y="-18" font-family="Helvetica,sans-Serif" font-size="10.00">x265::Analysis::compress</text>
<text text-anchor="middle" x="247" y="-7" font-family="Helvetica,sans-Serif" font-size="10.00">InterCU_rd5_6</text>
</a>
</g>
</g>
<!-- Node1&#45;&gt;Node9 -->
<g id="edge10" class="edge"><title>Node1&#45;&gt;Node9</title>
<path fill="none" stroke="midnightblue" d="M104.276,-74.0986C125.838,-64.3078 155.562,-51.0319 182,-40 189.926,-36.6925 198.457,-33.268 206.624,-30.0538"/>
<polygon fill="midnightblue" stroke="midnightblue" points="102.634,-71.0006 94.9847,-78.3313 105.536,-77.3707 102.634,-71.0006"/>
</g>
<!-- Node3 -->
<g id="node3" class="node"><title>Node3</title>
<g id="a_node3"><a xlink:href="classx265_1_1Analysis.html#aaebc9de2ff98834c650244f3b58942c2" target="_top" xlink:title="x265::Analysis::compressCTU">
<polygon fill="white" stroke="black" points="348.5,-78.5 348.5,-97.5 499.5,-97.5 499.5,-78.5 348.5,-78.5"/>
<text text-anchor="middle" x="424" y="-85.5" font-family="Helvetica,sans-Serif" font-size="10.00">x265::Analysis::compressCTU</text>
</a>
</g>
</g>
<!-- Node2&#45;&gt;Node3 -->
<g id="edge2" class="edge"><title>Node2&#45;&gt;Node3</title>
<path fill="none" stroke="midnightblue" d="M297.05,-143.09C302.111,-141.064 307.167,-139.009 312,-137 343.51,-123.898 379.59,-107.756 401.838,-97.6684"/>
<polygon fill="midnightblue" stroke="midnightblue" points="295.374,-139.99 287.37,-146.931 297.955,-146.497 295.374,-139.99"/>
</g>
<!-- Node4 -->
<g id="node4" class="node"><title>Node4</title>
<g id="a_node4"><a xlink:href="classx265_1_1FrameEncoder.html#a0ae85001572afd28238476542523ac5f" target="_top" xlink:title="x265::FrameEncoder\l::processRowEncoder">
<polygon fill="white" stroke="black" points="536.5,-73 536.5,-103 649.5,-103 649.5,-73 536.5,-73"/>
<text text-anchor="start" x="544.5" y="-91" font-family="Helvetica,sans-Serif" font-size="10.00">x265::FrameEncoder</text>
<text text-anchor="middle" x="593" y="-80" font-family="Helvetica,sans-Serif" font-size="10.00">::processRowEncoder</text>
</a>
</g>
</g>
<!-- Node3&#45;&gt;Node4 -->
<g id="edge3" class="edge"><title>Node3&#45;&gt;Node4</title>
<path fill="none" stroke="midnightblue" d="M509.86,-88C518.863,-88 527.845,-88 536.388,-88"/>
<polygon fill="midnightblue" stroke="midnightblue" points="509.708,-84.5001 499.708,-88 509.708,-91.5001 509.708,-84.5001"/>
</g>
<!-- Node5 -->
<g id="node5" class="node"><title>Node5</title>
<g id="a_node5"><a xlink:href="classx265_1_1FrameEncoder.html#acad645a8ece97d884895f8f7366b7d70" target="_top" xlink:title="x265::FrameEncoder\l::processRow">
<polygon fill="white" stroke="black" points="686.5,-73 686.5,-103 793.5,-103 793.5,-73 686.5,-73"/>
<text text-anchor="start" x="694.5" y="-91" font-family="Helvetica,sans-Serif" font-size="10.00">x265::FrameEncoder</text>
<text text-anchor="middle" x="740" y="-80" font-family="Helvetica,sans-Serif" font-size="10.00">::processRow</text>
</a>
</g>
</g>
<!-- Node4&#45;&gt;Node5 -->
<g id="edge4" class="edge"><title>Node4&#45;&gt;Node5</title>
<path fill="none" stroke="midnightblue" d="M659.877,-88C668.67,-88 677.594,-88 686.126,-88"/>
<polygon fill="midnightblue" stroke="midnightblue" points="659.646,-84.5001 649.646,-88 659.646,-91.5001 659.646,-84.5001"/>
</g>
<!-- Node6 -->
<g id="node6" class="node"><title>Node6</title>
<g id="a_node6"><a xlink:href="classx265_1_1FrameEncoder.html#ac4e9ce2e876c0cdb25c992c872fe4302" target="_top" xlink:title="x265::FrameEncoder\l::compressCTURows">
<polygon fill="white" stroke="red" points="830,-73 830,-103 942,-103 942,-73 830,-73"/>
<text text-anchor="start" x="838" y="-91" font-family="Helvetica,sans-Serif" font-size="10.00">x265::FrameEncoder</text>
<text text-anchor="middle" x="886" y="-80" font-family="Helvetica,sans-Serif" font-size="10.00">::compressCTURows</text>
</a>
</g>
</g>
<!-- Node5&#45;&gt;Node6 -->
<g id="edge5" class="edge"><title>Node5&#45;&gt;Node6</title>
<path fill="none" stroke="midnightblue" d="M803.834,-88C812.475,-88 821.295,-88 829.786,-88"/>
<polygon fill="midnightblue" stroke="midnightblue" points="803.803,-84.5001 793.803,-88 803.803,-91.5001 803.803,-84.5001"/>
</g>
<!-- Node7&#45;&gt;Node3 -->
<g id="edge7" class="edge"><title>Node7&#45;&gt;Node3</title>
<path fill="none" stroke="midnightblue" d="M322.103,-102.414C333.521,-100.783 345.25,-99.1071 356.489,-97.5016"/>
<polygon fill="midnightblue" stroke="midnightblue" points="321.574,-98.9538 312.17,-103.833 322.564,-105.883 321.574,-98.9538"/>
</g>
<!-- Node8&#45;&gt;Node3 -->
<g id="edge9" class="edge"><title>Node8&#45;&gt;Node3</title>
<path fill="none" stroke="midnightblue" d="M322.393,-74.2025C332.722,-75.619 343.299,-77.0696 353.533,-78.4731"/>
<polygon fill="midnightblue" stroke="midnightblue" points="322.553,-70.6917 312.17,-72.8004 321.602,-77.6268 322.553,-70.6917"/>
</g>
<!-- Node9&#45;&gt;Node3 -->
<g id="edge11" class="edge"><title>Node9&#45;&gt;Node3</title>
<path fill="none" stroke="midnightblue" d="M297.035,-33.9474C302.099,-35.9659 307.16,-38.0089 312,-40 343.261,-52.86 379.105,-68.5296 401.402,-78.3885"/>
<polygon fill="midnightblue" stroke="midnightblue" points="297.937,-30.5402 287.35,-30.1158 295.361,-37.0493 297.937,-30.5402"/>
</g>
</g>
</svg>
