<?xml version="1.0" encoding="UTF-8" standalone="no"?>
<!DOCTYPE svg PUBLIC "-//W3C//DTD SVG 1.1//EN"
 "http://www.w3.org/Graphics/SVG/1.1/DTD/svg11.dtd">
<!-- Generated by graphviz version 2.36.0 (20140111.2315)
 -->
<!-- Title: x265::CUData::setQPSubParts Pages: 1 -->
<svg width="1052pt" height="252pt"
 viewBox="0.00 0.00 1052.00 252.00" xmlns="http://www.w3.org/2000/svg" xmlns:xlink="http://www.w3.org/1999/xlink">
<g id="graph0" class="graph" transform="scale(1 1) rotate(0) translate(4 248)">
<title>x265::CUData::setQPSubParts</title>
<polygon fill="white" stroke="none" points="-4,4 -4,-248 1048,-248 1048,4 -4,4"/>
<!-- Node1 -->
<g id="node1" class="node"><title>Node1</title>
<polygon fill="#bfbfbf" stroke="black" points="0,-58.5 0,-77.5 154,-77.5 154,-58.5 0,-58.5"/>
<text text-anchor="middle" x="77" y="-65.5" font-family="Helvetica,sans-Serif" font-size="10.00">x265::CUData::setQPSubParts</text>
</g>
<!-- Node2 -->
<g id="node2" class="node"><title>Node2</title>
<g id="a_node2"><a xlink:href="classx265_1_1CUData.html#aa5f3a78f345a53ae1879591c7e7b7612" target="_top" xlink:title="x265::CUData::setQPSubCUs">
<polygon fill="white" stroke="black" points="190.5,-96.5 190.5,-115.5 341.5,-115.5 341.5,-96.5 190.5,-96.5"/>
<text text-anchor="middle" x="266" y="-103.5" font-family="Helvetica,sans-Serif" font-size="10.00">x265::CUData::setQPSubCUs</text>
</a>
</g>
</g>
<!-- Node1&#45;&gt;Node2 -->
<g id="edge1" class="edge"><title>Node1&#45;&gt;Node2</title>
<path fill="none" stroke="midnightblue" d="M135.131,-79.6095C161.727,-85.014 192.973,-91.3635 218.151,-96.4799"/>
<polygon fill="midnightblue" stroke="midnightblue" points="135.685,-76.1506 125.188,-77.589 134.291,-83.0104 135.685,-76.1506"/>
</g>
<!-- Node3 -->
<g id="node3" class="node"><title>Node3</title>
<g id="a_node3"><a xlink:href="classx265_1_1Analysis.html#a359278813e4f26bd2b5270d07253fe6c" target="_top" xlink:title="x265::Analysis::checkDQP">
<polygon fill="white" stroke="black" points="378.5,-96.5 378.5,-115.5 513.5,-115.5 513.5,-96.5 378.5,-96.5"/>
<text text-anchor="middle" x="446" y="-103.5" font-family="Helvetica,sans-Serif" font-size="10.00">x265::Analysis::checkDQP</text>
</a>
</g>
</g>
<!-- Node1&#45;&gt;Node3 -->
<g id="edge14" class="edge"><title>Node1&#45;&gt;Node3</title>
<path fill="none" stroke="midnightblue" d="M164.31,-71.7989C215.995,-74.6735 282.923,-79.4487 342,-87 360.939,-89.4207 381.669,-93.0521 399.536,-96.4937"/>
<polygon fill="midnightblue" stroke="midnightblue" points="164.358,-68.2965 154.183,-71.2491 163.978,-75.2862 164.358,-68.2965"/>
</g>
<!-- Node6 -->
<g id="node6" class="node"><title>Node6</title>
<g id="a_node6"><a xlink:href="classx265_1_1FrameEncoder.html#a0ae85001572afd28238476542523ac5f" target="_top" xlink:title="x265::FrameEncoder\l::processRowEncoder">
<polygon fill="white" stroke="red" points="930.5,-38 930.5,-68 1043.5,-68 1043.5,-38 930.5,-38"/>
<text text-anchor="start" x="938.5" y="-56" font-family="Helvetica,sans-Serif" font-size="10.00">x265::FrameEncoder</text>
<text text-anchor="middle" x="987" y="-45" font-family="Helvetica,sans-Serif" font-size="10.00">::processRowEncoder</text>
</a>
</g>
</g>
<!-- Node1&#45;&gt;Node6 -->
<g id="edge15" class="edge"><title>Node1&#45;&gt;Node6</title>
<path fill="none" stroke="midnightblue" d="M118.328,-55.5132C185.418,-35.879 324.502,-1.42109e-14 445,-0 445,-0 445,-0 629,-0 736.616,-0 860.521,-23.8555 930.419,-39.5573"/>
<polygon fill="midnightblue" stroke="midnightblue" points="117.172,-52.2054 108.578,-58.4015 119.16,-58.9172 117.172,-52.2054"/>
</g>
<!-- Node2&#45;&gt;Node3 -->
<g id="edge2" class="edge"><title>Node2&#45;&gt;Node3</title>
<path fill="none" stroke="midnightblue" d="M351.767,-106C360.709,-106 369.709,-106 378.403,-106"/>
<polygon fill="midnightblue" stroke="midnightblue" points="351.714,-102.5 341.714,-106 351.714,-109.5 351.714,-102.5"/>
</g>
<!-- Node4 -->
<g id="node4" class="node"><title>Node4</title>
<g id="a_node4"><a xlink:href="classx265_1_1Analysis.html#aae2a6a2252270782b591d2bed7e99dae" target="_top" xlink:title="x265::Analysis::compress\lIntraCU">
<polygon fill="white" stroke="black" points="563,-214 563,-244 693,-244 693,-214 563,-214"/>
<text text-anchor="start" x="571" y="-232" font-family="Helvetica,sans-Serif" font-size="10.00">x265::Analysis::compress</text>
<text text-anchor="middle" x="628" y="-221" font-family="Helvetica,sans-Serif" font-size="10.00">IntraCU</text>
</a>
</g>
</g>
<!-- Node3&#45;&gt;Node4 -->
<g id="edge3" class="edge"><title>Node3&#45;&gt;Node4</title>
<path fill="none" stroke="midnightblue" d="M460.882,-123.322C479.161,-145.062 513.308,-182.143 550,-204 556.4,-207.812 563.45,-211.117 570.607,-213.962"/>
<polygon fill="midnightblue" stroke="midnightblue" points="463.534,-121.036 454.472,-115.546 458.133,-125.489 463.534,-121.036"/>
</g>
<!-- Node7 -->
<g id="node7" class="node"><title>Node7</title>
<g id="a_node7"><a xlink:href="classx265_1_1Analysis.html#a87060ff27a37f56adc5f5b8a4c033ece" target="_top" xlink:title="x265::Analysis::compress\lInterCU_dist">
<polygon fill="white" stroke="black" points="563,-165 563,-195 693,-195 693,-165 563,-165"/>
<text text-anchor="start" x="571" y="-183" font-family="Helvetica,sans-Serif" font-size="10.00">x265::Analysis::compress</text>
<text text-anchor="middle" x="628" y="-172" font-family="Helvetica,sans-Serif" font-size="10.00">InterCU_dist</text>
</a>
</g>
</g>
<!-- Node3&#45;&gt;Node7 -->
<g id="edge6" class="edge"><title>Node3&#45;&gt;Node7</title>
<path fill="none" stroke="midnightblue" d="M474.352,-120.211C494.863,-130.571 523.795,-144.564 550,-155 558.749,-158.484 568.192,-161.857 577.368,-164.938"/>
<polygon fill="midnightblue" stroke="midnightblue" points="475.784,-117.012 465.285,-115.59 472.606,-123.249 475.784,-117.012"/>
</g>
<!-- Node8 -->
<g id="node8" class="node"><title>Node8</title>
<g id="a_node8"><a xlink:href="classx265_1_1Analysis.html#a30d2ff7eca5addbb0a6b3dfe14f09650" target="_top" xlink:title="x265::Analysis::compress\lInterCU_rd0_4">
<polygon fill="white" stroke="black" points="563,-116 563,-146 693,-146 693,-116 563,-116"/>
<text text-anchor="start" x="571" y="-134" font-family="Helvetica,sans-Serif" font-size="10.00">x265::Analysis::compress</text>
<text text-anchor="middle" x="628" y="-123" font-family="Helvetica,sans-Serif" font-size="10.00">InterCU_rd0_4</text>
</a>
</g>
</g>
<!-- Node3&#45;&gt;Node8 -->
<g id="edge8" class="edge"><title>Node3&#45;&gt;Node8</title>
<path fill="none" stroke="midnightblue" d="M523.454,-116.619C536.578,-118.441 550.095,-120.319 562.855,-122.091"/>
<polygon fill="midnightblue" stroke="midnightblue" points="523.9,-113.147 513.514,-115.238 522.937,-120.081 523.9,-113.147"/>
</g>
<!-- Node9 -->
<g id="node9" class="node"><title>Node9</title>
<g id="a_node9"><a xlink:href="classx265_1_1Analysis.html#a0b22b7765aa4a36b1ba6d07ba26901e6" target="_top" xlink:title="x265::Analysis::compress\lInterCU_rd5_6">
<polygon fill="white" stroke="black" points="563,-67 563,-97 693,-97 693,-67 563,-67"/>
<text text-anchor="start" x="571" y="-85" font-family="Helvetica,sans-Serif" font-size="10.00">x265::Analysis::compress</text>
<text text-anchor="middle" x="628" y="-74" font-family="Helvetica,sans-Serif" font-size="10.00">InterCU_rd5_6</text>
</a>
</g>
</g>
<!-- Node3&#45;&gt;Node9 -->
<g id="edge10" class="edge"><title>Node3&#45;&gt;Node9</title>
<path fill="none" stroke="midnightblue" d="M523.454,-95.8061C536.578,-94.0563 550.095,-92.254 562.855,-90.5527"/>
<polygon fill="midnightblue" stroke="midnightblue" points="522.964,-92.3405 513.514,-97.1315 523.889,-99.279 522.964,-92.3405"/>
</g>
<!-- Node10 -->
<g id="node10" class="node"><title>Node10</title>
<g id="a_node10"><a xlink:href="classx265_1_1Analysis.html#a88ad2880a5a8bcad5cfd5d6ea630b265" target="_top" xlink:title="x265::Analysis::encodeResidue">
<polygon fill="white" stroke="black" points="550.5,-28.5 550.5,-47.5 705.5,-47.5 705.5,-28.5 550.5,-28.5"/>
<text text-anchor="middle" x="628" y="-35.5" font-family="Helvetica,sans-Serif" font-size="10.00">x265::Analysis::encodeResidue</text>
</a>
</g>
</g>
<!-- Node3&#45;&gt;Node10 -->
<g id="edge12" class="edge"><title>Node3&#45;&gt;Node10</title>
<path fill="none" stroke="midnightblue" d="M473.84,-91.8443C494.3,-81.4619 523.395,-67.5643 550,-58 561.048,-54.0284 573.248,-50.4893 584.617,-47.5333"/>
<polygon fill="midnightblue" stroke="midnightblue" points="472.109,-88.7989 464.813,-96.4815 475.307,-95.0254 472.109,-88.7989"/>
</g>
<!-- Node5 -->
<g id="node5" class="node"><title>Node5</title>
<g id="a_node5"><a xlink:href="classx265_1_1Analysis.html#aaebc9de2ff98834c650244f3b58942c2" target="_top" xlink:title="x265::Analysis::compressCTU">
<polygon fill="white" stroke="black" points="742.5,-96.5 742.5,-115.5 893.5,-115.5 893.5,-96.5 742.5,-96.5"/>
<text text-anchor="middle" x="818" y="-103.5" font-family="Helvetica,sans-Serif" font-size="10.00">x265::Analysis::compressCTU</text>
</a>
</g>
</g>
<!-- Node4&#45;&gt;Node5 -->
<g id="edge4" class="edge"><title>Node4&#45;&gt;Node5</title>
<path fill="none" stroke="midnightblue" d="M694.365,-209.904C698.38,-208.082 702.292,-206.116 706,-204 749.76,-179.025 791.579,-134.847 808.777,-115.511"/>
<polygon fill="midnightblue" stroke="midnightblue" points="692.721,-206.798 684.855,-213.895 695.43,-213.252 692.721,-206.798"/>
</g>
<!-- Node5&#45;&gt;Node6 -->
<g id="edge5" class="edge"><title>Node5&#45;&gt;Node6</title>
<path fill="none" stroke="midnightblue" d="M859.057,-93.2874C882.981,-85.6948 913.499,-76.0093 938.616,-68.0379"/>
<polygon fill="midnightblue" stroke="midnightblue" points="857.715,-90.041 849.242,-96.4021 859.833,-96.7131 857.715,-90.041"/>
</g>
<!-- Node7&#45;&gt;Node5 -->
<g id="edge7" class="edge"><title>Node7&#45;&gt;Node5</title>
<path fill="none" stroke="midnightblue" d="M687.813,-161.591C693.984,-159.455 700.141,-157.238 706,-155 738.273,-142.674 774.751,-126.031 796.801,-115.661"/>
<polygon fill="midnightblue" stroke="midnightblue" points="686.488,-158.345 678.142,-164.872 688.737,-164.973 686.488,-158.345"/>
</g>
<!-- Node8&#45;&gt;Node5 -->
<g id="edge9" class="edge"><title>Node8&#45;&gt;Node5</title>
<path fill="none" stroke="midnightblue" d="M703.165,-121.138C717.059,-119.29 731.559,-117.362 745.374,-115.525"/>
<polygon fill="midnightblue" stroke="midnightblue" points="702.624,-117.679 693.173,-122.466 703.547,-124.618 702.624,-117.679"/>
</g>
<!-- Node9&#45;&gt;Node5 -->
<g id="edge11" class="edge"><title>Node9&#45;&gt;Node5</title>
<path fill="none" stroke="midnightblue" d="M703.352,-91.4917C716.205,-93.1326 729.571,-94.8389 742.431,-96.4805"/>
<polygon fill="midnightblue" stroke="midnightblue" points="703.536,-87.9869 693.173,-90.1923 702.649,-94.9305 703.536,-87.9869"/>
</g>
<!-- Node10&#45;&gt;Node5 -->
<g id="edge13" class="edge"><title>Node10&#45;&gt;Node5</title>
<path fill="none" stroke="midnightblue" d="M680.188,-50.1148C688.87,-52.5055 697.744,-55.1616 706,-58 738.761,-69.2629 775.402,-85.9474 797.313,-96.3859"/>
<polygon fill="midnightblue" stroke="midnightblue" points="681.073,-46.7286 670.509,-47.5327 679.269,-53.4921 681.073,-46.7286"/>
</g>
</g>
</svg>
