<?xml version="1.0" encoding="UTF-8" standalone="no"?>
<!DOCTYPE svg PUBLIC "-//W3C//DTD SVG 1.1//EN"
 "http://www.w3.org/Graphics/SVG/1.1/DTD/svg11.dtd">
<!-- Generated by graphviz version 2.36.0 (20140111.2315)
 -->
<!-- Title: x265::Quant::transformNxN Pages: 1 -->
<svg width="712pt" height="252pt"
 viewBox="0.00 0.00 712.00 252.00" xmlns="http://www.w3.org/2000/svg" xmlns:xlink="http://www.w3.org/1999/xlink">
<g id="graph0" class="graph" transform="scale(1 1) rotate(0) translate(4 248)">
<title>x265::Quant::transformNxN</title>
<polygon fill="white" stroke="none" points="-4,4 -4,-248 708,-248 708,4 -4,4"/>
<!-- Node1 -->
<g id="node1" class="node"><title>Node1</title>
<polygon fill="#bfbfbf" stroke="black" points="0.5,-137.5 0.5,-156.5 137.5,-156.5 137.5,-137.5 0.5,-137.5"/>
<text text-anchor="middle" x="69" y="-144.5" font-family="Helvetica,sans-Serif" font-size="10.00">x265::Quant::transformNxN</text>
</g>
<!-- Node2 -->
<g id="node2" class="node"><title>Node2</title>
<g id="a_node2"><a xlink:href="classx265_1_1Quant.html#ab353c26be0707486eecf784d618fc385" target="_top" xlink:title="x265::Quant::rdoQuant">
<polygon fill="white" stroke="black" points="194,-137.5 194,-156.5 310,-156.5 310,-137.5 194,-137.5"/>
<text text-anchor="middle" x="252" y="-144.5" font-family="Helvetica,sans-Serif" font-size="10.00">x265::Quant::rdoQuant</text>
</a>
</g>
</g>
<!-- Node1&#45;&gt;Node2 -->
<g id="edge1" class="edge"><title>Node1&#45;&gt;Node2</title>
<path fill="none" stroke="midnightblue" d="M137.655,-147C152.667,-147 168.575,-147 183.577,-147"/>
<polygon fill="midnightblue" stroke="midnightblue" points="183.797,-150.5 193.796,-147 183.796,-143.5 183.797,-150.5"/>
</g>
<!-- Node4 -->
<g id="node4" class="node"><title>Node4</title>
<g id="a_node4"><a xlink:href="classx265_1_1CUData.html#a554b34e5fb607f903b7765bd240c2694" target="_top" xlink:title="x265::CUData::getTUEntropy\lCodingParameters">
<polygon fill="white" stroke="black" points="366,-214 366,-244 512,-244 512,-214 366,-214"/>
<text text-anchor="start" x="374" y="-232" font-family="Helvetica,sans-Serif" font-size="10.00">x265::CUData::getTUEntropy</text>
<text text-anchor="middle" x="439" y="-221" font-family="Helvetica,sans-Serif" font-size="10.00">CodingParameters</text>
</a>
</g>
</g>
<!-- Node1&#45;&gt;Node4 -->
<g id="edge10" class="edge"><title>Node1&#45;&gt;Node4</title>
<path fill="none" stroke="midnightblue" d="M112.934,-156.567C173.539,-170.071 285.171,-194.946 360.495,-211.73"/>
<polygon fill="midnightblue" stroke="midnightblue" points="359.891,-215.181 370.413,-213.94 361.413,-208.349 359.891,-215.181"/>
</g>
<!-- Node10 -->
<g id="node10" class="node"><title>Node10</title>
<g id="a_node10"><a xlink:href="classx265_1_1Quant.html#addfd2976d7e94bfc7db1b8b2640d1641" target="_top" xlink:title="x265::Quant::signBitHidingHDQ">
<polygon fill="white" stroke="black" points="174,-99.5 174,-118.5 330,-118.5 330,-99.5 174,-99.5"/>
<text text-anchor="middle" x="252" y="-106.5" font-family="Helvetica,sans-Serif" font-size="10.00">x265::Quant::signBitHidingHDQ</text>
</a>
</g>
</g>
<!-- Node1&#45;&gt;Node10 -->
<g id="edge11" class="edge"><title>Node1&#45;&gt;Node10</title>
<path fill="none" stroke="midnightblue" d="M115.674,-137.411C139.989,-132.306 170.08,-125.989 195.708,-120.608"/>
<polygon fill="midnightblue" stroke="midnightblue" points="196.587,-124 205.654,-118.52 195.149,-117.149 196.587,-124"/>
</g>
<!-- Node3 -->
<g id="node3" class="node"><title>Node3</title>
<g id="a_node3"><a xlink:href="classx265_1_1CUData.html#a4de1cda97a0a06196c9f6ac92d6829a2" target="_top" xlink:title="x265::CUData::isIntra">
<polygon fill="white" stroke="black" points="569.5,-178.5 569.5,-197.5 682.5,-197.5 682.5,-178.5 569.5,-178.5"/>
<text text-anchor="middle" x="626" y="-185.5" font-family="Helvetica,sans-Serif" font-size="10.00">x265::CUData::isIntra</text>
</a>
</g>
</g>
<!-- Node2&#45;&gt;Node3 -->
<g id="edge2" class="edge"><title>Node2&#45;&gt;Node3</title>
<path fill="none" stroke="midnightblue" d="M304.34,-156.545C323.624,-159.889 345.77,-163.444 366,-166 431.478,-174.272 506.673,-180.272 559.111,-183.897"/>
<polygon fill="midnightblue" stroke="midnightblue" points="559.071,-187.403 569.286,-184.591 559.547,-180.419 559.071,-187.403"/>
</g>
<!-- Node2&#45;&gt;Node4 -->
<g id="edge3" class="edge"><title>Node2&#45;&gt;Node4</title>
<path fill="none" stroke="midnightblue" d="M273.313,-156.619C295.855,-167.23 333.364,-184.697 366,-199 374.38,-202.672 383.351,-206.496 392.019,-210.135"/>
<polygon fill="midnightblue" stroke="midnightblue" points="390.685,-213.371 401.262,-213.996 393.383,-206.912 390.685,-213.371"/>
</g>
<!-- Node6 -->
<g id="node6" class="node"><title>Node6</title>
<g id="a_node6"><a xlink:href="classx265_1_1Quant.html#aaf517e8c951a76b369006e1f48645e74" target="_top" xlink:title="x265::Quant::calcPattern\lSigCtx">
<polygon fill="white" stroke="black" points="376.5,-88 376.5,-118 501.5,-118 501.5,-88 376.5,-88"/>
<text text-anchor="start" x="384.5" y="-106" font-family="Helvetica,sans-Serif" font-size="10.00">x265::Quant::calcPattern</text>
<text text-anchor="middle" x="439" y="-95" font-family="Helvetica,sans-Serif" font-size="10.00">SigCtx</text>
</a>
</g>
</g>
<!-- Node2&#45;&gt;Node6 -->
<g id="edge6" class="edge"><title>Node2&#45;&gt;Node6</title>
<path fill="none" stroke="midnightblue" d="M293.142,-137.453C314.626,-132.343 341.729,-125.897 366.663,-119.967"/>
<polygon fill="midnightblue" stroke="midnightblue" points="367.541,-123.355 376.46,-117.637 365.921,-116.545 367.541,-123.355"/>
</g>
<!-- Node7 -->
<g id="node7" class="node"><title>Node7</title>
<g id="a_node7"><a xlink:href="classx265_1_1Quant.html#a6fe89a8ebf937d5dbe20c7ac3e3288ad" target="_top" xlink:title="x265::Quant::getSigCtxInc">
<polygon fill="white" stroke="black" points="372.5,-49.5 372.5,-68.5 505.5,-68.5 505.5,-49.5 372.5,-49.5"/>
<text text-anchor="middle" x="439" y="-56.5" font-family="Helvetica,sans-Serif" font-size="10.00">x265::Quant::getSigCtxInc</text>
</a>
</g>
</g>
<!-- Node2&#45;&gt;Node7 -->
<g id="edge7" class="edge"><title>Node2&#45;&gt;Node7</title>
<path fill="none" stroke="midnightblue" d="M310.06,-137.815C317.111,-135.295 323.954,-132.086 330,-128 352.687,-112.666 343.437,-93.5156 366,-78 368.911,-75.9982 372.021,-74.2072 375.255,-72.6049"/>
<polygon fill="midnightblue" stroke="midnightblue" points="376.828,-75.7381 384.631,-68.5705 374.061,-69.3081 376.828,-75.7381"/>
</g>
<!-- Node8 -->
<g id="node8" class="node"><title>Node8</title>
<g id="a_node8"><a xlink:href="classx265_1_1Quant.html#ad178d867a67ea861aad413e8d7d07767" target="_top" xlink:title="x265::Quant::getSigCoeff\lGroupCtxInc">
<polygon fill="white" stroke="black" points="375,-0 375,-30 503,-30 503,-0 375,-0"/>
<text text-anchor="start" x="383" y="-18" font-family="Helvetica,sans-Serif" font-size="10.00">x265::Quant::getSigCoeff</text>
<text text-anchor="middle" x="439" y="-7" font-family="Helvetica,sans-Serif" font-size="10.00">GroupCtxInc</text>
</a>
</g>
</g>
<!-- Node2&#45;&gt;Node8 -->
<g id="edge8" class="edge"><title>Node2&#45;&gt;Node8</title>
<path fill="none" stroke="midnightblue" d="M310.264,-139.407C317.445,-136.648 324.268,-132.949 330,-128 361.986,-100.385 335.322,-69.061 366,-40 367.639,-38.4473 369.379,-36.9906 371.2,-35.6238"/>
<polygon fill="midnightblue" stroke="midnightblue" points="373.125,-38.5476 379.636,-30.1898 369.334,-32.6629 373.125,-38.5476"/>
</g>
<!-- Node9 -->
<g id="node9" class="node"><title>Node9</title>
<g id="a_node9"><a xlink:href="classx265_1_1Quant.html#a722c0aa6aa183083114f820bc951049a" target="_top" xlink:title="x265::Quant::getRateLast">
<polygon fill="white" stroke="black" points="374.5,-137.5 374.5,-156.5 503.5,-156.5 503.5,-137.5 374.5,-137.5"/>
<text text-anchor="middle" x="439" y="-144.5" font-family="Helvetica,sans-Serif" font-size="10.00">x265::Quant::getRateLast</text>
</a>
</g>
</g>
<!-- Node2&#45;&gt;Node9 -->
<g id="edge9" class="edge"><title>Node2&#45;&gt;Node9</title>
<path fill="none" stroke="midnightblue" d="M310.016,-147C327.135,-147 346.166,-147 364.206,-147"/>
<polygon fill="midnightblue" stroke="midnightblue" points="364.398,-150.5 374.398,-147 364.398,-143.5 364.398,-150.5"/>
</g>
<!-- Node4&#45;&gt;Node3 -->
<g id="edge5" class="edge"><title>Node4&#45;&gt;Node3</title>
<path fill="none" stroke="midnightblue" d="M507.837,-213.966C529.009,-209.274 552.041,-204.169 572.037,-199.738"/>
<polygon fill="midnightblue" stroke="midnightblue" points="572.883,-203.135 581.888,-197.554 571.368,-196.301 572.883,-203.135"/>
</g>
<!-- Node5 -->
<g id="node5" class="node"><title>Node5</title>
<g id="a_node5"><a xlink:href="classx265_1_1CUData.html#ada5470364be8a87b70b409a3f521fce2" target="_top" xlink:title="x265::CUData::getCoefScanIdx">
<polygon fill="white" stroke="black" points="548,-219.5 548,-238.5 704,-238.5 704,-219.5 548,-219.5"/>
<text text-anchor="middle" x="626" y="-226.5" font-family="Helvetica,sans-Serif" font-size="10.00">x265::CUData::getCoefScanIdx</text>
</a>
</g>
</g>
<!-- Node4&#45;&gt;Node5 -->
<g id="edge4" class="edge"><title>Node4&#45;&gt;Node5</title>
<path fill="none" stroke="midnightblue" d="M512.056,-229C520.514,-229 529.213,-229 537.85,-229"/>
<polygon fill="midnightblue" stroke="midnightblue" points="537.942,-232.5 547.942,-229 537.941,-225.5 537.942,-232.5"/>
</g>
</g>
</svg>
