<?xml version="1.0" encoding="UTF-8" standalone="no"?>
<!DOCTYPE svg PUBLIC "-//W3C//DTD SVG 1.1//EN"
 "http://www.w3.org/Graphics/SVG/1.1/DTD/svg11.dtd">
<!-- Generated by graphviz version 2.36.0 (20140111.2315)
 -->
<!-- Title: x265::Deblock::setEdgefilterTU Pages: 1 -->
<svg width="1368pt" height="38pt"
 viewBox="0.00 0.00 1368.00 38.00" xmlns="http://www.w3.org/2000/svg" xmlns:xlink="http://www.w3.org/1999/xlink">
<g id="graph0" class="graph" transform="scale(1 1) rotate(0) translate(4 34)">
<title>x265::Deblock::setEdgefilterTU</title>
<polygon fill="white" stroke="none" points="-4,4 -4,-34 1364,-34 1364,4 -4,4"/>
<!-- Node1 -->
<g id="node1" class="node"><title>Node1</title>
<polygon fill="#bfbfbf" stroke="black" points="0,-5.5 0,-24.5 154,-24.5 154,-5.5 0,-5.5"/>
<text text-anchor="middle" x="77" y="-12.5" font-family="Helvetica,sans-Serif" font-size="10.00">x265::Deblock::setEdgefilterTU</text>
</g>
<!-- Node2 -->
<g id="node2" class="node"><title>Node2</title>
<g id="a_node2"><a xlink:href="classx265_1_1Deblock.html#a2314896538bde018e8f4134f3f766df9" target="_top" xlink:title="x265::Deblock::deblockCU">
<polygon fill="white" stroke="black" points="190,-5.5 190,-24.5 324,-24.5 324,-5.5 190,-5.5"/>
<text text-anchor="middle" x="257" y="-12.5" font-family="Helvetica,sans-Serif" font-size="10.00">x265::Deblock::deblockCU</text>
</a>
</g>
</g>
<!-- Node1&#45;&gt;Node2 -->
<g id="edge1" class="edge"><title>Node1&#45;&gt;Node2</title>
<path fill="none" stroke="midnightblue" d="M164.106,-15C172.742,-15 181.414,-15 189.796,-15"/>
<polygon fill="midnightblue" stroke="midnightblue" points="164.004,-11.5001 154.004,-15 164.004,-18.5001 164.004,-11.5001"/>
</g>
<!-- Node3 -->
<g id="node3" class="node"><title>Node3</title>
<g id="a_node3"><a xlink:href="classx265_1_1Deblock.html#a166deb5f5a020fff72ffae14556e4d95" target="_top" xlink:title="x265::Deblock::deblockCTU">
<polygon fill="white" stroke="black" points="360,-5.5 360,-24.5 500,-24.5 500,-5.5 360,-5.5"/>
<text text-anchor="middle" x="430" y="-12.5" font-family="Helvetica,sans-Serif" font-size="10.00">x265::Deblock::deblockCTU</text>
</a>
</g>
</g>
<!-- Node2&#45;&gt;Node3 -->
<g id="edge2" class="edge"><title>Node2&#45;&gt;Node3</title>
<path fill="none" stroke="midnightblue" d="M334.126,-15C342.725,-15 351.451,-15 359.951,-15"/>
<polygon fill="midnightblue" stroke="midnightblue" points="334.113,-11.5001 324.113,-15 334.113,-18.5001 334.113,-11.5001"/>
</g>
<!-- Node4 -->
<g id="node4" class="node"><title>Node4</title>
<g id="a_node4"><a xlink:href="classx265_1_1FrameFilter.html#a75d13efc3b8c164f9c1615bffda89891" target="_top" xlink:title="x265::FrameFilter::\lprocessRow">
<polygon fill="white" stroke="black" points="536.5,-0 536.5,-30 635.5,-30 635.5,-0 536.5,-0"/>
<text text-anchor="start" x="544.5" y="-18" font-family="Helvetica,sans-Serif" font-size="10.00">x265::FrameFilter::</text>
<text text-anchor="middle" x="586" y="-7" font-family="Helvetica,sans-Serif" font-size="10.00">processRow</text>
</a>
</g>
</g>
<!-- Node3&#45;&gt;Node4 -->
<g id="edge3" class="edge"><title>Node3&#45;&gt;Node4</title>
<path fill="none" stroke="midnightblue" d="M510.614,-15C519.37,-15 528.081,-15 536.293,-15"/>
<polygon fill="midnightblue" stroke="midnightblue" points="510.341,-11.5001 500.341,-15 510.341,-18.5001 510.341,-11.5001"/>
</g>
<!-- Node5 -->
<g id="node5" class="node"><title>Node5</title>
<g id="a_node5"><a xlink:href="classx265_1_1FrameEncoder.html#a764697a109059858166d1c017b81d233" target="_top" xlink:title="x265::FrameEncoder\l::processRowFilter">
<polygon fill="white" stroke="black" points="672.5,-0 672.5,-30 779.5,-30 779.5,-0 672.5,-0"/>
<text text-anchor="start" x="680.5" y="-18" font-family="Helvetica,sans-Serif" font-size="10.00">x265::FrameEncoder</text>
<text text-anchor="middle" x="726" y="-7" font-family="Helvetica,sans-Serif" font-size="10.00">::processRowFilter</text>
</a>
</g>
</g>
<!-- Node4&#45;&gt;Node5 -->
<g id="edge4" class="edge"><title>Node4&#45;&gt;Node5</title>
<path fill="none" stroke="midnightblue" d="M645.778,-15C654.519,-15 663.485,-15 672.096,-15"/>
<polygon fill="midnightblue" stroke="midnightblue" points="645.654,-11.5001 635.654,-15 645.654,-18.5001 645.654,-11.5001"/>
</g>
<!-- Node6 -->
<g id="node6" class="node"><title>Node6</title>
<g id="a_node6"><a xlink:href="classx265_1_1FrameEncoder.html#acad645a8ece97d884895f8f7366b7d70" target="_top" xlink:title="x265::FrameEncoder\l::processRow">
<polygon fill="white" stroke="black" points="816.5,-0 816.5,-30 923.5,-30 923.5,-0 816.5,-0"/>
<text text-anchor="start" x="824.5" y="-18" font-family="Helvetica,sans-Serif" font-size="10.00">x265::FrameEncoder</text>
<text text-anchor="middle" x="870" y="-7" font-family="Helvetica,sans-Serif" font-size="10.00">::processRow</text>
</a>
</g>
</g>
<!-- Node5&#45;&gt;Node6 -->
<g id="edge5" class="edge"><title>Node5&#45;&gt;Node6</title>
<path fill="none" stroke="midnightblue" d="M789.994,-15C798.704,-15 807.578,-15 816.08,-15"/>
<polygon fill="midnightblue" stroke="midnightblue" points="789.876,-11.5001 779.876,-15 789.876,-18.5001 789.876,-11.5001"/>
</g>
<!-- Node7 -->
<g id="node7" class="node"><title>Node7</title>
<g id="a_node7"><a xlink:href="classx265_1_1FrameEncoder.html#ac4e9ce2e876c0cdb25c992c872fe4302" target="_top" xlink:title="x265::FrameEncoder\l::compressCTURows">
<polygon fill="white" stroke="black" points="960,-0 960,-30 1072,-30 1072,-0 960,-0"/>
<text text-anchor="start" x="968" y="-18" font-family="Helvetica,sans-Serif" font-size="10.00">x265::FrameEncoder</text>
<text text-anchor="middle" x="1016" y="-7" font-family="Helvetica,sans-Serif" font-size="10.00">::compressCTURows</text>
</a>
</g>
</g>
<!-- Node6&#45;&gt;Node7 -->
<g id="edge6" class="edge"><title>Node6&#45;&gt;Node7</title>
<path fill="none" stroke="midnightblue" d="M933.834,-15C942.475,-15 951.295,-15 959.786,-15"/>
<polygon fill="midnightblue" stroke="midnightblue" points="933.803,-11.5001 923.803,-15 933.803,-18.5001 933.803,-11.5001"/>
</g>
<!-- Node8 -->
<g id="node8" class="node"><title>Node8</title>
<g id="a_node8"><a xlink:href="classx265_1_1FrameEncoder.html#a2f5c4c0f1a4e36fce4c9b87eb7ec4973" target="_top" xlink:title="x265::FrameEncoder\l::compressFrame">
<polygon fill="white" stroke="black" points="1108.5,-0 1108.5,-30 1215.5,-30 1215.5,-0 1108.5,-0"/>
<text text-anchor="start" x="1116.5" y="-18" font-family="Helvetica,sans-Serif" font-size="10.00">x265::FrameEncoder</text>
<text text-anchor="middle" x="1162" y="-7" font-family="Helvetica,sans-Serif" font-size="10.00">::compressFrame</text>
</a>
</g>
</g>
<!-- Node7&#45;&gt;Node8 -->
<g id="edge7" class="edge"><title>Node7&#45;&gt;Node8</title>
<path fill="none" stroke="midnightblue" d="M1082.42,-15C1091.15,-15 1100.02,-15 1108.49,-15"/>
<polygon fill="midnightblue" stroke="midnightblue" points="1082.26,-11.5001 1072.26,-15 1082.26,-18.5001 1082.26,-11.5001"/>
</g>
<!-- Node9 -->
<g id="node9" class="node"><title>Node9</title>
<g id="a_node9"><a xlink:href="classx265_1_1FrameEncoder.html#aef61f29b9e93b3af9255d96236bc90a7" target="_top" xlink:title="x265::FrameEncoder\l::threadMain">
<polygon fill="white" stroke="black" points="1252.5,-0 1252.5,-30 1359.5,-30 1359.5,-0 1252.5,-0"/>
<text text-anchor="start" x="1260.5" y="-18" font-family="Helvetica,sans-Serif" font-size="10.00">x265::FrameEncoder</text>
<text text-anchor="middle" x="1306" y="-7" font-family="Helvetica,sans-Serif" font-size="10.00">::threadMain</text>
</a>
</g>
</g>
<!-- Node8&#45;&gt;Node9 -->
<g id="edge8" class="edge"><title>Node8&#45;&gt;Node9</title>
<path fill="none" stroke="midnightblue" d="M1225.99,-15C1234.7,-15 1243.58,-15 1252.08,-15"/>
<polygon fill="midnightblue" stroke="midnightblue" points="1225.88,-11.5001 1215.88,-15 1225.88,-18.5001 1225.88,-11.5001"/>
</g>
</g>
</svg>
