<?xml version="1.0" encoding="UTF-8" standalone="no"?>
<!DOCTYPE svg PUBLIC "-//W3C//DTD SVG 1.1//EN"
 "http://www.w3.org/Graphics/SVG/1.1/DTD/svg11.dtd">
<!-- Generated by graphviz version 2.36.0 (20140111.2315)
 -->
<!-- Title: x265::Quant::invtransformNxN Pages: 1 -->
<!--zoomable 504 -->
<svg id="main" version="1.1" xmlns="http://www.w3.org/2000/svg" xmlns:xlink="http://www.w3.org/1999/xlink" xml:space="preserve" onload="init(evt)">
<style type="text/css"><![CDATA[
.edge:hover path { stroke: red; }
.edge:hover polygon { stroke: red; fill: red; }
]]></style>
<script type="text/javascript"><![CDATA[
var edges = document.getElementsByTagName('g');
if (edges && edges.length) {
  for (var i=0;i<edges.length;i++) {
    if (edges[i].id.substr(0,4)=='edge') {
      edges[i].setAttribute('class','edge');
    }
  }
}
]]></script>
        <defs>
                <circle id="rim" cx="0" cy="0" r="7"/>
                <circle id="rim2" cx="0" cy="0" r="3.5"/>
                <g id="zoomPlus">
                        <use xlink:href="#rim" fill="#404040">
                                <set attributeName="fill" to="#808080" begin="zoomplus.mouseover" end="zoomplus.mouseout"/>
                        </use>
                        <path d="M-4,0h8M0,-4v8" fill="none" stroke="white" stroke-width="1.5" pointer-events="none"/>
                </g>
                <g id="zoomMin">
                        <use xlink:href="#rim" fill="#404040">
                                <set attributeName="fill" to="#808080" begin="zoomminus.mouseover" end="zoomminus.mouseout"/>
                        </use>
                        <path d="M-4,0h8" fill="none" stroke="white" stroke-width="1.5" pointer-events="none"/>
                </g>
                <g id="dirArrow">
                        <path fill="none" stroke="white" stroke-width="1.5" d="M0,-3.0v7 M-2.5,-0.5L0,-3.0L2.5,-0.5"/>
                </g>
               <g id="resetDef">
                       <use xlink:href="#rim2" fill="#404040">
                               <set attributeName="fill" to="#808080" begin="reset.mouseover" end="reset.mouseout"/>
                       </use>
               </g>
        </defs>

<script type="text/javascript">
var viewWidth = 1964;
var viewHeight = 504;
var sectionId = 'dynsection-7';
</script>
<script xlink:href="svgpan.js"/>
<svg id="graph" class="graph">
<g id="viewport">
<title>x265::Quant::invtransformNxN</title>
<polygon fill="white" stroke="none" points="-4,4 -4,-499.564 1960,-499.564 1960,4 -4,4"/>
<!-- Node1 -->
<g id="node1" class="node"><title>Node1</title>
<polygon fill="#bfbfbf" stroke="black" points="0,-225.5 0,-244.5 150,-244.5 150,-225.5 0,-225.5"/>
<text text-anchor="middle" x="75" y="-232.5" font-family="Helvetica,sans-Serif" font-size="10.00">x265::Quant::invtransformNxN</text>
</g>
<!-- Node2 -->
<g id="node2" class="node"><title>Node2</title>
<g id="a_node2"><a xlink:href="classx265_1_1Search.html#a9d5a7faa13067f95fe76558afc63c31b" target="_top" xlink:title="x265::Search::calcIntraChroma\lRecon">
<polygon fill="white" stroke="black" points="189,-324 189,-354 341,-354 341,-324 189,-324"/>
<text text-anchor="start" x="197" y="-342" font-family="Helvetica,sans-Serif" font-size="10.00">x265::Search::calcIntraChroma</text>
<text text-anchor="middle" x="265" y="-331" font-family="Helvetica,sans-Serif" font-size="10.00">Recon</text>
</a>
</g>
</g>
<!-- Node1&#45;&gt;Node2 -->
<g id="edge1" class="edge"><title>Node1&#45;&gt;Node2</title>
<path fill="none" stroke="midnightblue" d="M96.3335,-250.728C117.781,-266.817 152.979,-291.822 186,-309 196.554,-314.49 208.35,-319.542 219.509,-323.872"/>
<polygon fill="midnightblue" stroke="midnightblue" points="98.376,-247.885 88.2934,-244.63 94.1457,-253.462 98.376,-247.885"/>
</g>
<!-- Node17 -->
<g id="node17" class="node"><title>Node17</title>
<g id="a_node17"><a xlink:href="classx265_1_1Search.html#a59b84ac1e21c86af579b6e84e43c5b7a" target="_top" xlink:title="x265::Search::codeIntraLumaQT">
<polygon fill="white" stroke="black" points="591,-285.5 591,-304.5 749,-304.5 749,-285.5 591,-285.5"/>
<text text-anchor="middle" x="670" y="-292.5" font-family="Helvetica,sans-Serif" font-size="10.00">x265::Search::codeIntraLumaQT</text>
</a>
</g>
</g>
<!-- Node1&#45;&gt;Node17 -->
<g id="edge24" class="edge"><title>Node1&#45;&gt;Node17</title>
<path fill="none" stroke="midnightblue" d="M130.148,-246.543C147.881,-249.999 167.72,-253.525 186,-256 328.139,-275.249 495.192,-286.157 590.923,-291.296"/>
<polygon fill="midnightblue" stroke="midnightblue" points="130.469,-243.038 119.979,-244.524 129.106,-249.904 130.469,-243.038"/>
</g>
<!-- Node19 -->
<g id="node19" class="node"><title>Node19</title>
<g id="a_node19"><a xlink:href="classx265_1_1Search.html#a8179474a0f2f2b7b84da90802f92b06e" target="_top" xlink:title="x265::Search::residualTransform\lQuantIntra">
<polygon fill="white" stroke="black" points="186,-198 186,-228 344,-228 344,-198 186,-198"/>
<text text-anchor="start" x="194" y="-216" font-family="Helvetica,sans-Serif" font-size="10.00">x265::Search::residualTransform</text>
<text text-anchor="middle" x="265" y="-205" font-family="Helvetica,sans-Serif" font-size="10.00">QuantIntra</text>
</a>
</g>
</g>
<!-- Node1&#45;&gt;Node19 -->
<g id="edge28" class="edge"><title>Node1&#45;&gt;Node19</title>
<path fill="none" stroke="midnightblue" d="M160.002,-225.17C168.553,-224.169 177.215,-223.156 185.701,-222.163"/>
<polygon fill="midnightblue" stroke="midnightblue" points="159.558,-221.698 150.033,-226.337 160.372,-228.651 159.558,-221.698"/>
</g>
<!-- Node22 -->
<g id="node22" class="node"><title>Node22</title>
<g id="a_node22"><a xlink:href="classx265_1_1Search.html#a42170100e328cf2504b615ecb2579094" target="_top" xlink:title="x265::Search::residualQTIntra\lChroma">
<polygon fill="white" stroke="black" points="191.5,-149 191.5,-179 338.5,-179 338.5,-149 191.5,-149"/>
<text text-anchor="start" x="199.5" y="-167" font-family="Helvetica,sans-Serif" font-size="10.00">x265::Search::residualQTIntra</text>
<text text-anchor="middle" x="265" y="-156" font-family="Helvetica,sans-Serif" font-size="10.00">Chroma</text>
</a>
</g>
</g>
<!-- Node1&#45;&gt;Node22 -->
<g id="edge33" class="edge"><title>Node1&#45;&gt;Node22</title>
<path fill="none" stroke="midnightblue" d="M105.95,-221.19C127.877,-211.329 158.482,-198.081 186,-188 194.381,-184.93 203.361,-181.917 212.138,-179.12"/>
<polygon fill="midnightblue" stroke="midnightblue" points="104.489,-218.01 96.8237,-225.324 107.377,-224.386 104.489,-218.01"/>
</g>
<!-- Node23 -->
<g id="node23" class="node"><title>Node23</title>
<g id="a_node23"><a xlink:href="classx265_1_1Search.html#a11ea3fb9c65e98f50e348de22593748c" target="_top" xlink:title="x265::Search::residualTransform\lQuantInter">
<polygon fill="white" stroke="black" points="186,-100 186,-130 344,-130 344,-100 186,-100"/>
<text text-anchor="start" x="194" y="-118" font-family="Helvetica,sans-Serif" font-size="10.00">x265::Search::residualTransform</text>
<text text-anchor="middle" x="265" y="-107" font-family="Helvetica,sans-Serif" font-size="10.00">QuantInter</text>
</a>
</g>
</g>
<!-- Node1&#45;&gt;Node23 -->
<g id="edge36" class="edge"><title>Node1&#45;&gt;Node23</title>
<path fill="none" stroke="midnightblue" d="M91.4028,-217.681C111.284,-196.316 147.876,-160.226 186,-139 192.066,-135.623 198.667,-132.659 205.377,-130.075"/>
<polygon fill="midnightblue" stroke="midnightblue" points="88.5652,-215.597 84.4045,-225.341 93.7333,-220.319 88.5652,-215.597"/>
</g>
<!-- Node24 -->
<g id="node24" class="node"><title>Node24</title>
<g id="a_node24"><a xlink:href="classx265_1_1Search.html#a9f01b6f04dca31dca9f16e60d1c029b3" target="_top" xlink:title="x265::Search::xEstimateResidualQT">
<polygon fill="white" stroke="black" points="582,-247.5 582,-266.5 758,-266.5 758,-247.5 582,-247.5"/>
<text text-anchor="middle" x="670" y="-254.5" font-family="Helvetica,sans-Serif" font-size="10.00">x265::Search::xEstimateResidualQT</text>
</a>
</g>
</g>
<!-- Node1&#45;&gt;Node24 -->
<g id="edge39" class="edge"><title>Node1&#45;&gt;Node24</title>
<path fill="none" stroke="midnightblue" d="M160.424,-238.132C272.241,-242.28 468.482,-249.561 581.717,-253.762"/>
<polygon fill="midnightblue" stroke="midnightblue" points="160.327,-234.626 150.204,-237.753 160.067,-241.621 160.327,-234.626"/>
</g>
<!-- Node3 -->
<g id="node3" class="node"><title>Node3</title>
<g id="a_node3"><a xlink:href="classx265_1_1Search.html#a0ec5d297bb4eba4e9445ff67b35b95fa" target="_top" xlink:title="x265::Search::codeIntraChromaQt">
<polygon fill="white" stroke="black" points="380,-329.5 380,-348.5 546,-348.5 546,-329.5 380,-329.5"/>
<text text-anchor="middle" x="463" y="-336.5" font-family="Helvetica,sans-Serif" font-size="10.00">x265::Search::codeIntraChromaQt</text>
</a>
</g>
</g>
<!-- Node2&#45;&gt;Node3 -->
<g id="edge2" class="edge"><title>Node2&#45;&gt;Node3</title>
<path fill="none" stroke="midnightblue" d="M351.38,-339C360.817,-339 370.413,-339 379.81,-339"/>
<polygon fill="midnightblue" stroke="midnightblue" points="351.218,-335.5 341.218,-339 351.218,-342.5 351.218,-335.5"/>
</g>
<!-- Node4 -->
<g id="node4" class="node"><title>Node4</title>
<g id="a_node4"><a xlink:href="classx265_1_1Search.html#a70d466b561a7463b8ec5a213384ae667" target="_top" xlink:title="x265::Search::estIntraPred\lChromaQT">
<polygon fill="white" stroke="black" points="603,-324 603,-354 737,-354 737,-324 603,-324"/>
<text text-anchor="start" x="611" y="-342" font-family="Helvetica,sans-Serif" font-size="10.00">x265::Search::estIntraPred</text>
<text text-anchor="middle" x="670" y="-331" font-family="Helvetica,sans-Serif" font-size="10.00">ChromaQT</text>
</a>
</g>
</g>
<!-- Node3&#45;&gt;Node4 -->
<g id="edge3" class="edge"><title>Node3&#45;&gt;Node4</title>
<path fill="none" stroke="midnightblue" d="M556.425,-339C572.077,-339 588.045,-339 602.851,-339"/>
<polygon fill="midnightblue" stroke="midnightblue" points="556.2,-335.5 546.2,-339 556.2,-342.5 556.2,-335.5"/>
</g>
<!-- Node5 -->
<g id="node5" class="node"><title>Node5</title>
<g id="a_node5"><a xlink:href="classx265_1_1Analysis.html#ae4d61bcf4d2c22a054d68d6d77136428" target="_top" xlink:title="x265::Analysis::encodeIntra\lInInter">
<polygon fill="white" stroke="black" points="799,-362 799,-392 937,-392 937,-362 799,-362"/>
<text text-anchor="start" x="807" y="-380" font-family="Helvetica,sans-Serif" font-size="10.00">x265::Analysis::encodeIntra</text>
<text text-anchor="middle" x="868" y="-369" font-family="Helvetica,sans-Serif" font-size="10.00">InInter</text>
</a>
</g>
</g>
<!-- Node4&#45;&gt;Node5 -->
<g id="edge4" class="edge"><title>Node4&#45;&gt;Node5</title>
<path fill="none" stroke="midnightblue" d="M747.017,-353.738C764.101,-357.05 782.124,-360.545 798.863,-363.79"/>
<polygon fill="midnightblue" stroke="midnightblue" points="747.567,-350.279 737.083,-351.812 746.234,-357.152 747.567,-350.279"/>
</g>
<!-- Node13 -->
<g id="node13" class="node"><title>Node13</title>
<g id="a_node13"><a xlink:href="classx265_1_1Search.html#ab02df91827cf67796d1605bde60c6aed" target="_top" xlink:title="x265::Search::checkIntra">
<polygon fill="white" stroke="black" points="989,-232.5 989,-251.5 1115,-251.5 1115,-232.5 989,-232.5"/>
<text text-anchor="middle" x="1052" y="-239.5" font-family="Helvetica,sans-Serif" font-size="10.00">x265::Search::checkIntra</text>
</a>
</g>
</g>
<!-- Node4&#45;&gt;Node13 -->
<g id="edge14" class="edge"><title>Node4&#45;&gt;Node13</title>
<path fill="none" stroke="midnightblue" d="M747.179,-348.661C804.617,-352.18 883.266,-348.655 942,-314 966.525,-299.529 954.732,-277.415 978,-261 983.458,-257.15 989.638,-254.08 996.036,-251.632"/>
<polygon fill="midnightblue" stroke="midnightblue" points="747.291,-345.16 737.071,-347.956 746.804,-352.143 747.291,-345.16"/>
</g>
<!-- Node6 -->
<g id="node6" class="node"><title>Node6</title>
<g id="a_node6"><a xlink:href="classx265_1_1Analysis.html#aa6122285d10bb1bd7584958b88b029d5" target="_top" xlink:title="x265::Analysis::parallel\lModeAnalysis">
<polygon fill="white" stroke="black" points="993,-397 993,-427 1111,-427 1111,-397 993,-397"/>
<text text-anchor="start" x="1001" y="-415" font-family="Helvetica,sans-Serif" font-size="10.00">x265::Analysis::parallel</text>
<text text-anchor="middle" x="1052" y="-404" font-family="Helvetica,sans-Serif" font-size="10.00">ModeAnalysis</text>
</a>
</g>
</g>
<!-- Node5&#45;&gt;Node6 -->
<g id="edge5" class="edge"><title>Node5&#45;&gt;Node6</title>
<path fill="none" stroke="midnightblue" d="M947.045,-392.009C962.427,-394.967 978.312,-398.022 992.895,-400.826"/>
<polygon fill="midnightblue" stroke="midnightblue" points="947.51,-388.534 937.029,-390.082 946.188,-395.408 947.51,-388.534"/>
</g>
<!-- Node8 -->
<g id="node8" class="node"><title>Node8</title>
<g id="a_node8"><a xlink:href="classx265_1_1Analysis.html#a87060ff27a37f56adc5f5b8a4c033ece" target="_top" xlink:title="x265::Analysis::compress\lInterCU_dist">
<polygon fill="white" stroke="black" points="1344,-378 1344,-408 1474,-408 1474,-378 1344,-378"/>
<text text-anchor="start" x="1352" y="-396" font-family="Helvetica,sans-Serif" font-size="10.00">x265::Analysis::compress</text>
<text text-anchor="middle" x="1409" y="-385" font-family="Helvetica,sans-Serif" font-size="10.00">InterCU_dist</text>
</a>
</g>
</g>
<!-- Node5&#45;&gt;Node8 -->
<g id="edge11" class="edge"><title>Node5&#45;&gt;Node8</title>
<path fill="none" stroke="midnightblue" d="M900.417,-397.326C921.576,-410.167 950.533,-426.139 978,-436 1116.86,-485.851 1168.63,-520.409 1308,-472 1344.37,-459.368 1377.49,-427.412 1394.99,-408.236"/>
<polygon fill="midnightblue" stroke="midnightblue" points="902.201,-394.315 891.853,-392.042 898.525,-400.272 902.201,-394.315"/>
</g>
<!-- Node12 -->
<g id="node12" class="node"><title>Node12</title>
<g id="a_node12"><a xlink:href="classx265_1_1Analysis.html#a30d2ff7eca5addbb0a6b3dfe14f09650" target="_top" xlink:title="x265::Analysis::compress\lInterCU_rd0_4">
<polygon fill="white" stroke="black" points="1344,-255 1344,-285 1474,-285 1474,-255 1344,-255"/>
<text text-anchor="start" x="1352" y="-273" font-family="Helvetica,sans-Serif" font-size="10.00">x265::Analysis::compress</text>
<text text-anchor="middle" x="1409" y="-262" font-family="Helvetica,sans-Serif" font-size="10.00">InterCU_rd0_4</text>
</a>
</g>
</g>
<!-- Node5&#45;&gt;Node12 -->
<g id="edge12" class="edge"><title>Node5&#45;&gt;Node12</title>
<path fill="none" stroke="midnightblue" d="M947.059,-362.503C1034.93,-346.04 1181.91,-318.072 1308,-292 1319.58,-289.606 1331.89,-286.972 1343.77,-284.383"/>
<polygon fill="midnightblue" stroke="midnightblue" points="946.352,-359.074 937.167,-364.355 947.64,-365.955 946.352,-359.074"/>
</g>
<!-- Node7 -->
<g id="node7" class="node"><title>Node7</title>
<g id="a_node7"><a xlink:href="classx265_1_1Analysis.html#a29a58dad4cc1c07d2f5e5717c6be7c25" target="_top" xlink:title="x265::Analysis::findJob">
<polygon fill="white" stroke="black" points="1175.5,-443.5 1175.5,-462.5 1294.5,-462.5 1294.5,-443.5 1175.5,-443.5"/>
<text text-anchor="middle" x="1235" y="-450.5" font-family="Helvetica,sans-Serif" font-size="10.00">x265::Analysis::findJob</text>
</a>
</g>
</g>
<!-- Node6&#45;&gt;Node7 -->
<g id="edge6" class="edge"><title>Node6&#45;&gt;Node7</title>
<path fill="none" stroke="midnightblue" d="M1121.28,-427.468C1145.02,-432.844 1170.92,-438.712 1191.91,-443.466"/>
<polygon fill="midnightblue" stroke="midnightblue" points="1121.79,-423.994 1111.27,-425.198 1120.25,-430.821 1121.79,-423.994"/>
</g>
<!-- Node7&#45;&gt;Node8 -->
<g id="edge7" class="edge"><title>Node7&#45;&gt;Node8</title>
<path fill="none" stroke="midnightblue" d="M1274.73,-440.279C1285.52,-436.684 1297.23,-432.733 1308,-429 1327.35,-422.292 1348.72,-414.633 1366.72,-408.109"/>
<polygon fill="midnightblue" stroke="midnightblue" points="1273.52,-436.992 1265.13,-443.465 1275.72,-443.636 1273.52,-436.992"/>
</g>
<!-- Node9 -->
<g id="node9" class="node"><title>Node9</title>
<g id="a_node9"><a xlink:href="classx265_1_1Analysis.html#aaebc9de2ff98834c650244f3b58942c2" target="_top" xlink:title="x265::Analysis::compressCTU">
<polygon fill="white" stroke="black" points="1510.5,-190.5 1510.5,-209.5 1661.5,-209.5 1661.5,-190.5 1510.5,-190.5"/>
<text text-anchor="middle" x="1586" y="-197.5" font-family="Helvetica,sans-Serif" font-size="10.00">x265::Analysis::compressCTU</text>
</a>
</g>
</g>
<!-- Node8&#45;&gt;Node9 -->
<g id="edge8" class="edge"><title>Node8&#45;&gt;Node9</title>
<path fill="none" stroke="midnightblue" d="M1430.58,-370.308C1468.83,-328.113 1549.46,-239.192 1576.19,-209.72"/>
<polygon fill="midnightblue" stroke="midnightblue" points="1427.86,-368.096 1423.73,-377.856 1433.04,-372.799 1427.86,-368.096"/>
</g>
<!-- Node10 -->
<g id="node10" class="node"><title>Node10</title>
<g id="a_node10"><a xlink:href="classx265_1_1FrameEncoder.html#a0ae85001572afd28238476542523ac5f" target="_top" xlink:title="x265::FrameEncoder\l::processRowEncoder">
<polygon fill="white" stroke="black" points="1698.5,-185 1698.5,-215 1811.5,-215 1811.5,-185 1698.5,-185"/>
<text text-anchor="start" x="1706.5" y="-203" font-family="Helvetica,sans-Serif" font-size="10.00">x265::FrameEncoder</text>
<text text-anchor="middle" x="1755" y="-192" font-family="Helvetica,sans-Serif" font-size="10.00">::processRowEncoder</text>
</a>
</g>
</g>
<!-- Node9&#45;&gt;Node10 -->
<g id="edge9" class="edge"><title>Node9&#45;&gt;Node10</title>
<path fill="none" stroke="midnightblue" d="M1671.86,-200C1680.86,-200 1689.85,-200 1698.39,-200"/>
<polygon fill="midnightblue" stroke="midnightblue" points="1671.71,-196.5 1661.71,-200 1671.71,-203.5 1671.71,-196.5"/>
</g>
<!-- Node11 -->
<g id="node11" class="node"><title>Node11</title>
<g id="a_node11"><a xlink:href="classx265_1_1FrameEncoder.html#acad645a8ece97d884895f8f7366b7d70" target="_top" xlink:title="x265::FrameEncoder\l::processRow">
<polygon fill="white" stroke="red" points="1848.5,-185 1848.5,-215 1955.5,-215 1955.5,-185 1848.5,-185"/>
<text text-anchor="start" x="1856.5" y="-203" font-family="Helvetica,sans-Serif" font-size="10.00">x265::FrameEncoder</text>
<text text-anchor="middle" x="1902" y="-192" font-family="Helvetica,sans-Serif" font-size="10.00">::processRow</text>
</a>
</g>
</g>
<!-- Node10&#45;&gt;Node11 -->
<g id="edge10" class="edge"><title>Node10&#45;&gt;Node11</title>
<path fill="none" stroke="midnightblue" d="M1821.88,-200C1830.67,-200 1839.59,-200 1848.13,-200"/>
<polygon fill="midnightblue" stroke="midnightblue" points="1821.65,-196.5 1811.65,-200 1821.65,-203.5 1821.65,-196.5"/>
</g>
<!-- Node12&#45;&gt;Node9 -->
<g id="edge13" class="edge"><title>Node12&#45;&gt;Node9</title>
<path fill="none" stroke="midnightblue" d="M1457.18,-251.129C1490.8,-237.678 1534.6,-220.16 1561.22,-209.513"/>
<polygon fill="midnightblue" stroke="midnightblue" points="1455.53,-248.02 1447.54,-254.983 1458.13,-254.519 1455.53,-248.02"/>
</g>
<!-- Node14 -->
<g id="node14" class="node"><title>Node14</title>
<g id="a_node14"><a xlink:href="classx265_1_1Analysis.html#a10f0a8d9d143faf8dc671c6f0982693d" target="_top" xlink:title="x265::Analysis::tryLossless">
<polygon fill="white" stroke="black" points="1166.5,-241.5 1166.5,-260.5 1303.5,-260.5 1303.5,-241.5 1166.5,-241.5"/>
<text text-anchor="middle" x="1235" y="-248.5" font-family="Helvetica,sans-Serif" font-size="10.00">x265::Analysis::tryLossless</text>
</a>
</g>
</g>
<!-- Node13&#45;&gt;Node14 -->
<g id="edge15" class="edge"><title>Node13&#45;&gt;Node14</title>
<path fill="none" stroke="midnightblue" d="M1125.29,-245.595C1138.88,-246.27 1153.04,-246.974 1166.47,-247.642"/>
<polygon fill="midnightblue" stroke="midnightblue" points="1125.2,-242.086 1115.04,-245.085 1124.85,-249.077 1125.2,-242.086"/>
</g>
<!-- Node15 -->
<g id="node15" class="node"><title>Node15</title>
<g id="a_node15"><a xlink:href="classx265_1_1Analysis.html#aae2a6a2252270782b591d2bed7e99dae" target="_top" xlink:title="x265::Analysis::compress\lIntraCU">
<polygon fill="white" stroke="black" points="1344,-185 1344,-215 1474,-215 1474,-185 1344,-185"/>
<text text-anchor="start" x="1352" y="-203" font-family="Helvetica,sans-Serif" font-size="10.00">x265::Analysis::compress</text>
<text text-anchor="middle" x="1409" y="-192" font-family="Helvetica,sans-Serif" font-size="10.00">IntraCU</text>
</a>
</g>
</g>
<!-- Node13&#45;&gt;Node15 -->
<g id="edge22" class="edge"><title>Node13&#45;&gt;Node15</title>
<path fill="none" stroke="midnightblue" d="M1125.28,-233.449C1189.39,-225.864 1282.16,-214.888 1343.73,-207.604"/>
<polygon fill="midnightblue" stroke="midnightblue" points="1124.76,-229.985 1115.24,-234.636 1125.58,-236.937 1124.76,-229.985"/>
</g>
<!-- Node16 -->
<g id="node16" class="node"><title>Node16</title>
<g id="a_node16"><a xlink:href="classx265_1_1Analysis.html#a0b22b7765aa4a36b1ba6d07ba26901e6" target="_top" xlink:title="x265::Analysis::compress\lInterCU_rd5_6">
<polygon fill="white" stroke="black" points="1344,-116 1344,-146 1474,-146 1474,-116 1344,-116"/>
<text text-anchor="start" x="1352" y="-134" font-family="Helvetica,sans-Serif" font-size="10.00">x265::Analysis::compress</text>
<text text-anchor="middle" x="1409" y="-123" font-family="Helvetica,sans-Serif" font-size="10.00">InterCU_rd5_6</text>
</a>
</g>
</g>
<!-- Node13&#45;&gt;Node16 -->
<g id="edge23" class="edge"><title>Node13&#45;&gt;Node16</title>
<path fill="none" stroke="midnightblue" d="M1057.62,-222.569C1068.21,-182.914 1098.39,-93.3497 1162,-57 1218.34,-24.8041 1246.38,-36.6784 1308,-57 1343.07,-68.5662 1375.91,-97.6982 1393.85,-115.769"/>
<polygon fill="midnightblue" stroke="midnightblue" points="1054.2,-221.791 1055.14,-232.344 1060.99,-223.512 1054.2,-221.791"/>
</g>
<!-- Node14&#45;&gt;Node8 -->
<g id="edge18" class="edge"><title>Node14&#45;&gt;Node8</title>
<path fill="none" stroke="midnightblue" d="M1255.68,-267.251C1289.27,-294.977 1357.16,-351.027 1389.74,-377.927"/>
<polygon fill="midnightblue" stroke="midnightblue" points="1257.49,-264.205 1247.55,-260.538 1253.04,-269.603 1257.49,-264.205"/>
</g>
<!-- Node14&#45;&gt;Node12 -->
<g id="edge19" class="edge"><title>Node14&#45;&gt;Node12</title>
<path fill="none" stroke="midnightblue" d="M1313.93,-259.608C1323.95,-260.715 1334.11,-261.838 1343.88,-262.917"/>
<polygon fill="midnightblue" stroke="midnightblue" points="1314.3,-256.129 1303.98,-258.509 1313.53,-263.086 1314.3,-256.129"/>
</g>
<!-- Node14&#45;&gt;Node15 -->
<g id="edge16" class="edge"><title>Node14&#45;&gt;Node15</title>
<path fill="none" stroke="midnightblue" d="M1278.17,-238.496C1302.03,-231.42 1332.04,-222.522 1357.2,-215.064"/>
<polygon fill="midnightblue" stroke="midnightblue" points="1276.94,-235.209 1268.35,-241.407 1278.93,-241.92 1276.94,-235.209"/>
</g>
<!-- Node14&#45;&gt;Node16 -->
<g id="edge20" class="edge"><title>Node14&#45;&gt;Node16</title>
<path fill="none" stroke="midnightblue" d="M1257.84,-235.524C1279.62,-220.117 1314.06,-195.827 1344,-175 1357.95,-165.299 1373.67,-154.488 1386.04,-146.01"/>
<polygon fill="midnightblue" stroke="midnightblue" points="1255.75,-232.72 1249.61,-241.354 1259.79,-238.434 1255.75,-232.72"/>
</g>
<!-- Node15&#45;&gt;Node9 -->
<g id="edge17" class="edge"><title>Node15&#45;&gt;Node9</title>
<path fill="none" stroke="midnightblue" d="M1484.25,-200C1492.93,-200 1501.78,-200 1510.47,-200"/>
<polygon fill="midnightblue" stroke="midnightblue" points="1484.17,-196.5 1474.17,-200 1484.17,-203.5 1484.17,-196.5"/>
</g>
<!-- Node16&#45;&gt;Node9 -->
<g id="edge21" class="edge"><title>Node16&#45;&gt;Node9</title>
<path fill="none" stroke="midnightblue" d="M1457.96,-149.909C1491.26,-163.039 1534.24,-179.984 1560.69,-190.416"/>
<polygon fill="midnightblue" stroke="midnightblue" points="1458.99,-146.554 1448.4,-146.142 1456.42,-153.066 1458.99,-146.554"/>
</g>
<!-- Node17&#45;&gt;Node5 -->
<g id="edge25" class="edge"><title>Node17&#45;&gt;Node5</title>
<path fill="none" stroke="midnightblue" d="M736.847,-307.098C744.081,-309.099 751.26,-311.389 758,-314 790.203,-326.473 824.176,-347.548 845.467,-361.855"/>
<polygon fill="midnightblue" stroke="midnightblue" points="737.543,-303.663 726.985,-304.547 735.79,-310.44 737.543,-303.663"/>
</g>
<!-- Node18 -->
<g id="node18" class="node"><title>Node18</title>
<g id="a_node18"><a xlink:href="classx265_1_1Search.html#a1778d2ab96ac88c7f76d36818d6adbdd" target="_top" xlink:title="x265::Search::estIntraPredQT">
<polygon fill="white" stroke="black" points="794.5,-285.5 794.5,-304.5 941.5,-304.5 941.5,-285.5 794.5,-285.5"/>
<text text-anchor="middle" x="868" y="-292.5" font-family="Helvetica,sans-Serif" font-size="10.00">x265::Search::estIntraPredQT</text>
</a>
</g>
</g>
<!-- Node17&#45;&gt;Node18 -->
<g id="edge26" class="edge"><title>Node17&#45;&gt;Node18</title>
<path fill="none" stroke="midnightblue" d="M759.268,-295C770.996,-295 782.912,-295 794.335,-295"/>
<polygon fill="midnightblue" stroke="midnightblue" points="759.028,-291.5 749.028,-295 759.028,-298.5 759.028,-291.5"/>
</g>
<!-- Node18&#45;&gt;Node13 -->
<g id="edge27" class="edge"><title>Node18&#45;&gt;Node13</title>
<path fill="none" stroke="midnightblue" d="M908.201,-282.275C928.89,-275.686 954.742,-267.65 978,-261 989.332,-257.76 1001.72,-254.45 1013.02,-251.519"/>
<polygon fill="midnightblue" stroke="midnightblue" points="906.951,-279 898.494,-285.381 909.085,-285.667 906.951,-279"/>
</g>
<!-- Node20 -->
<g id="node20" class="node"><title>Node20</title>
<g id="a_node20"><a xlink:href="classx265_1_1Analysis.html#a88ad2880a5a8bcad5cfd5d6ea630b265" target="_top" xlink:title="x265::Analysis::encodeResidue">
<polygon fill="white" stroke="black" points="385.5,-120.5 385.5,-139.5 540.5,-139.5 540.5,-120.5 385.5,-120.5"/>
<text text-anchor="middle" x="463" y="-127.5" font-family="Helvetica,sans-Serif" font-size="10.00">x265::Analysis::encodeResidue</text>
</a>
</g>
</g>
<!-- Node19&#45;&gt;Node20 -->
<g id="edge29" class="edge"><title>Node19&#45;&gt;Node20</title>
<path fill="none" stroke="midnightblue" d="M329.357,-194.36C334.379,-192.38 339.316,-190.257 344,-188 361.323,-179.652 363.038,-173.059 380,-164 397.808,-154.489 418.863,-145.809 435.179,-139.6"/>
<polygon fill="midnightblue" stroke="midnightblue" points="327.781,-191.212 319.638,-197.99 330.231,-197.77 327.781,-191.212"/>
</g>
<!-- Node21 -->
<g id="node21" class="node"><title>Node21</title>
<g id="a_node21"><a xlink:href="classx265_1_1Search.html#a5284cffef18fe6884b268ea28f21f22f" target="_top" xlink:title="x265::Search::generateCoeff\lRecon">
<polygon fill="white" stroke="black" points="392,-174 392,-204 534,-204 534,-174 392,-174"/>
<text text-anchor="start" x="400" y="-192" font-family="Helvetica,sans-Serif" font-size="10.00">x265::Search::generateCoeff</text>
<text text-anchor="middle" x="463" y="-181" font-family="Helvetica,sans-Serif" font-size="10.00">Recon</text>
</a>
</g>
</g>
<!-- Node19&#45;&gt;Node21 -->
<g id="edge31" class="edge"><title>Node19&#45;&gt;Node21</title>
<path fill="none" stroke="midnightblue" d="M354.106,-202.212C366.753,-200.663 379.621,-199.087 391.858,-197.589"/>
<polygon fill="midnightblue" stroke="midnightblue" points="353.528,-198.756 344.028,-203.446 354.379,-205.704 353.528,-198.756"/>
</g>
<!-- Node20&#45;&gt;Node9 -->
<g id="edge30" class="edge"><title>Node20&#45;&gt;Node9</title>
<path fill="none" stroke="midnightblue" d="M489.794,-115.42C552.359,-81.4689 718.015,-0 867,-0 867,-0 867,-0 1236,-0 1391.03,-0 1539.63,-150.403 1576.37,-190.354"/>
<polygon fill="midnightblue" stroke="midnightblue" points="487.734,-112.558 480.656,-120.441 491.106,-118.692 487.734,-112.558"/>
</g>
<!-- Node21&#45;&gt;Node12 -->
<g id="edge32" class="edge"><title>Node21&#45;&gt;Node12</title>
<path fill="none" stroke="midnightblue" d="M544.269,-184.859C695.534,-178.859 1032.37,-174.108 1308,-232 1331.45,-236.925 1356.66,-246.535 1375.9,-254.859"/>
<polygon fill="midnightblue" stroke="midnightblue" points="543.987,-181.367 534.139,-185.273 544.274,-188.361 543.987,-181.367"/>
</g>
<!-- Node22&#45;&gt;Node20 -->
<g id="edge34" class="edge"><title>Node22&#45;&gt;Node20</title>
<path fill="none" stroke="midnightblue" d="M348.635,-149.665C368.405,-146.236 389.03,-142.658 407.183,-139.509"/>
<polygon fill="midnightblue" stroke="midnightblue" points="347.959,-146.23 338.705,-151.388 349.156,-153.127 347.959,-146.23"/>
</g>
<!-- Node22&#45;&gt;Node21 -->
<g id="edge35" class="edge"><title>Node22&#45;&gt;Node21</title>
<path fill="none" stroke="midnightblue" d="M348.966,-174.582C363.188,-176.396 377.843,-178.266 391.693,-180.032"/>
<polygon fill="midnightblue" stroke="midnightblue" points="349.067,-171.067 338.705,-173.274 348.181,-178.011 349.067,-171.067"/>
</g>
<!-- Node23&#45;&gt;Node20 -->
<g id="edge37" class="edge"><title>Node23&#45;&gt;Node20</title>
<path fill="none" stroke="midnightblue" d="M354.279,-121.756C364.595,-122.546 375.057,-123.346 385.2,-124.122"/>
<polygon fill="midnightblue" stroke="midnightblue" points="354.266,-118.245 344.028,-120.971 353.731,-125.224 354.266,-118.245"/>
</g>
<!-- Node23&#45;&gt;Node21 -->
<g id="edge38" class="edge"><title>Node23&#45;&gt;Node21</title>
<path fill="none" stroke="midnightblue" d="M327.091,-133.14C332.832,-135.042 338.543,-137.01 344,-139 373.16,-149.632 405.579,-163.524 429.046,-173.966"/>
<polygon fill="midnightblue" stroke="midnightblue" points="328.029,-129.764 317.437,-130.008 325.869,-136.423 328.029,-129.764"/>
</g>
<!-- Node25 -->
<g id="node25" class="node"><title>Node25</title>
<g id="a_node25"><a xlink:href="classx265_1_1Search.html#aba5e04ce529f41accd43c540ba1dc7ad" target="_top" xlink:title="x265::Search::encodeResAnd\lCalcRdInterCU">
<polygon fill="white" stroke="black" points="978.5,-271 978.5,-301 1125.5,-301 1125.5,-271 978.5,-271"/>
<text text-anchor="start" x="986.5" y="-289" font-family="Helvetica,sans-Serif" font-size="10.00">x265::Search::encodeResAnd</text>
<text text-anchor="middle" x="1052" y="-278" font-family="Helvetica,sans-Serif" font-size="10.00">CalcRdInterCU</text>
</a>
</g>
</g>
<!-- Node24&#45;&gt;Node25 -->
<g id="edge40" class="edge"><title>Node24&#45;&gt;Node25</title>
<path fill="none" stroke="midnightblue" d="M768.443,-263.324C820.049,-266.801 884.486,-271.346 942,-276 953.744,-276.95 966.192,-278.027 978.316,-279.113"/>
<polygon fill="midnightblue" stroke="midnightblue" points="768.511,-259.82 758.299,-262.643 768.042,-266.805 768.511,-259.82"/>
</g>
<!-- Node25&#45;&gt;Node8 -->
<g id="edge42" class="edge"><title>Node25&#45;&gt;Node8</title>
<path fill="none" stroke="midnightblue" d="M1068.06,-309.682C1086.5,-336.225 1120.46,-377.794 1162,-395 1220.1,-419.067 1292.75,-414.786 1343.99,-406.805"/>
<polygon fill="midnightblue" stroke="midnightblue" points="1070.91,-307.645 1062.41,-301.313 1065.1,-311.56 1070.91,-307.645"/>
</g>
<!-- Node25&#45;&gt;Node12 -->
<g id="edge43" class="edge"><title>Node25&#45;&gt;Node12</title>
<path fill="none" stroke="midnightblue" d="M1136.07,-282.256C1199.47,-279.399 1285.55,-275.519 1343.74,-272.896"/>
<polygon fill="midnightblue" stroke="midnightblue" points="1135.53,-278.777 1125.7,-282.724 1135.84,-285.77 1135.53,-278.777"/>
</g>
<!-- Node25&#45;&gt;Node14 -->
<g id="edge41" class="edge"><title>Node25&#45;&gt;Node14</title>
<path fill="none" stroke="midnightblue" d="M1135.43,-270.06C1152.28,-266.802 1169.5,-263.472 1184.74,-260.526"/>
<polygon fill="midnightblue" stroke="midnightblue" points="1134.73,-266.631 1125.58,-271.966 1136.06,-273.504 1134.73,-266.631"/>
</g>
<!-- Node26 -->
<g id="node26" class="node"><title>Node26</title>
<g id="a_node26"><a xlink:href="classx265_1_1Analysis.html#addd72cb95590e2b2a6965d42d110eab3" target="_top" xlink:title="x265::Analysis::checkMerge2\lNx2N_rd0_4">
<polygon fill="white" stroke="black" points="1162,-356 1162,-386 1308,-386 1308,-356 1162,-356"/>
<text text-anchor="start" x="1170" y="-374" font-family="Helvetica,sans-Serif" font-size="10.00">x265::Analysis::checkMerge2</text>
<text text-anchor="middle" x="1235" y="-363" font-family="Helvetica,sans-Serif" font-size="10.00">Nx2N_rd0_4</text>
</a>
</g>
</g>
<!-- Node25&#45;&gt;Node26 -->
<g id="edge44" class="edge"><title>Node25&#45;&gt;Node26</title>
<path fill="none" stroke="midnightblue" d="M1094.22,-305.356C1126.84,-320.674 1171.74,-341.764 1201.77,-355.863"/>
<polygon fill="midnightblue" stroke="midnightblue" points="1095.48,-302.083 1084.94,-301.001 1092.51,-308.419 1095.48,-302.083"/>
</g>
<!-- Node27 -->
<g id="node27" class="node"><title>Node27</title>
<g id="a_node27"><a xlink:href="classx265_1_1Analysis.html#a0194a9da53aa95173fa1132ba3aea1c7" target="_top" xlink:title="x265::Analysis::checkMerge2\lNx2N_rd5_6">
<polygon fill="white" stroke="black" points="1162,-116 1162,-146 1308,-146 1308,-116 1162,-116"/>
<text text-anchor="start" x="1170" y="-134" font-family="Helvetica,sans-Serif" font-size="10.00">x265::Analysis::checkMerge2</text>
<text text-anchor="middle" x="1235" y="-123" font-family="Helvetica,sans-Serif" font-size="10.00">Nx2N_rd5_6</text>
</a>
</g>
</g>
<!-- Node25&#45;&gt;Node27 -->
<g id="edge47" class="edge"><title>Node25&#45;&gt;Node27</title>
<path fill="none" stroke="midnightblue" d="M1117.03,-266.467C1120.15,-264.78 1123.16,-262.961 1126,-261 1171.89,-229.349 1209.15,-173.07 1225.32,-146.156"/>
<polygon fill="midnightblue" stroke="midnightblue" points="1115.47,-263.336 1108.02,-270.876 1118.54,-269.623 1115.47,-263.336"/>
</g>
<!-- Node28 -->
<g id="node28" class="node"><title>Node28</title>
<g id="a_node28"><a xlink:href="classx265_1_1Analysis.html#a828daa3e9f1ed40a1af9f99f7ff7bb33" target="_top" xlink:title="x265::Analysis::checkInter\l_rd5_6">
<polygon fill="white" stroke="black" points="1168.5,-67 1168.5,-97 1301.5,-97 1301.5,-67 1168.5,-67"/>
<text text-anchor="start" x="1176.5" y="-85" font-family="Helvetica,sans-Serif" font-size="10.00">x265::Analysis::checkInter</text>
<text text-anchor="middle" x="1235" y="-74" font-family="Helvetica,sans-Serif" font-size="10.00">_rd5_6</text>
</a>
</g>
</g>
<!-- Node25&#45;&gt;Node28 -->
<g id="edge49" class="edge"><title>Node25&#45;&gt;Node28</title>
<path fill="none" stroke="midnightblue" d="M1122.18,-264.789C1123.52,-263.595 1124.8,-262.333 1126,-261 1173.4,-208.514 1114.38,-158.292 1162,-106 1165.1,-102.59 1168.71,-99.6641 1172.61,-97.1533"/>
<polygon fill="midnightblue" stroke="midnightblue" points="1119.84,-262.162 1113.89,-270.922 1124.01,-267.79 1119.84,-262.162"/>
</g>
<!-- Node26&#45;&gt;Node8 -->
<g id="edge45" class="edge"><title>Node26&#45;&gt;Node8</title>
<path fill="none" stroke="midnightblue" d="M1318.42,-381.542C1326.96,-382.634 1335.54,-383.732 1343.83,-384.792"/>
<polygon fill="midnightblue" stroke="midnightblue" points="1318.81,-378.063 1308.44,-380.266 1317.92,-385.007 1318.81,-378.063"/>
</g>
<!-- Node26&#45;&gt;Node12 -->
<g id="edge46" class="edge"><title>Node26&#45;&gt;Node12</title>
<path fill="none" stroke="midnightblue" d="M1286.12,-351.817C1293.59,-348.474 1301.09,-344.831 1308,-341 1337.98,-324.382 1369.81,-300.584 1389.29,-285.21"/>
<polygon fill="midnightblue" stroke="midnightblue" points="1284.52,-348.696 1276.73,-355.881 1287.3,-355.12 1284.52,-348.696"/>
</g>
<!-- Node27&#45;&gt;Node16 -->
<g id="edge48" class="edge"><title>Node27&#45;&gt;Node16</title>
<path fill="none" stroke="midnightblue" d="M1318.7,-131C1327.14,-131 1335.63,-131 1343.83,-131"/>
<polygon fill="midnightblue" stroke="midnightblue" points="1318.45,-127.5 1308.44,-131 1318.44,-134.5 1318.45,-127.5"/>
</g>
<!-- Node28&#45;&gt;Node16 -->
<g id="edge50" class="edge"><title>Node28&#45;&gt;Node16</title>
<path fill="none" stroke="midnightblue" d="M1298.81,-99.8941C1317.31,-105.164 1337.36,-110.876 1355.17,-115.948"/>
<polygon fill="midnightblue" stroke="midnightblue" points="1299.59,-96.4753 1289.01,-97.1014 1297.67,-103.207 1299.59,-96.4753"/>
</g>
</g>
</svg>
        <g id="navigator" transform="translate(0 0)" fill="#404254">
                <rect fill="#f2f5e9" fill-opacity="0.5" stroke="#606060" stroke-width=".5" x="0" y="0" width="60" height="60"/>
                <use id="zoomplus" xlink:href="#zoomPlus" x="17" y="9" onmousedown="handleZoom(evt,'in')"/>
                <use id="zoomminus" xlink:href="#zoomMin" x="42" y="9" onmousedown="handleZoom(evt,'out')"/>
                <use id="reset" xlink:href="#resetDef" x="30" y="36" onmousedown="handleReset()"/>
                <g id="arrowUp" xlink:href="#dirArrow" transform="translate(30 24)" onmousedown="handlePan(0,-1)">
                  <use xlink:href="#rim" fill="#404040">
                        <set attributeName="fill" to="#808080" begin="arrowUp.mouseover" end="arrowUp.mouseout"/>
                  </use>
                  <path fill="none" stroke="white" stroke-width="1.5" d="M0,-3.0v7 M-2.5,-0.5L0,-3.0L2.5,-0.5"/>
                </g>
                <g id="arrowRight" xlink:href="#dirArrow" transform="rotate(90) translate(36 -43)" onmousedown="handlePan(1,0)">
                  <use xlink:href="#rim" fill="#404040">
                        <set attributeName="fill" to="#808080" begin="arrowRight.mouseover" end="arrowRight.mouseout"/>
                  </use>
                  <path fill="none" stroke="white" stroke-width="1.5" d="M0,-3.0v7 M-2.5,-0.5L0,-3.0L2.5,-0.5"/>
                </g>
                <g id="arrowDown" xlink:href="#dirArrow" transform="rotate(180) translate(-30 -48)" onmousedown="handlePan(0,1)">
                  <use xlink:href="#rim" fill="#404040">
                        <set attributeName="fill" to="#808080" begin="arrowDown.mouseover" end="arrowDown.mouseout"/>
                  </use>
                  <path fill="none" stroke="white" stroke-width="1.5" d="M0,-3.0v7 M-2.5,-0.5L0,-3.0L2.5,-0.5"/>
                </g>
                <g id="arrowLeft" xlink:href="#dirArrow" transform="rotate(270) translate(-36 17)" onmousedown="handlePan(-1,0)">
                  <use xlink:href="#rim" fill="#404040">
                        <set attributeName="fill" to="#808080" begin="arrowLeft.mouseover" end="arrowLeft.mouseout"/>
                  </use>
                  <path fill="none" stroke="white" stroke-width="1.5" d="M0,-3.0v7 M-2.5,-0.5L0,-3.0L2.5,-0.5"/>
                </g>
        </g>
        <svg viewBox="0 0 15 15" width="100%" height="30px" preserveAspectRatio="xMaxYMin meet">
         <g id="arrow_out" transform="scale(0.3 0.3)">
          <a xlink:href="classx265_1_1Quant_afeb2e80ae9009ff3320ebda1226fd999_icgraph_org.svg" target="_base">
           <rect id="button" ry="5" rx="5" y="6" x="6" height="38" width="38"
                fill="#f2f5e9" fill-opacity="0.5" stroke="#606060" stroke-width="1.0"/>
           <path id="arrow"
             d="M 11.500037,31.436501 C 11.940474,20.09759 22.043105,11.32322 32.158766,21.979434 L 37.068811,17.246167 C 37.068811,17.246167 37.088388,32 37.088388,32 L 22.160133,31.978069 C 22.160133,31.978069 26.997745,27.140456 26.997745,27.140456 C 18.528582,18.264221 13.291696,25.230495 11.500037,31.436501 z"
             style="fill:#404040;"/>
          </a>
         </g>
        </svg>
</svg>
