<?xml version="1.0" encoding="UTF-8" standalone="no"?>
<!DOCTYPE svg PUBLIC "-//W3C//DTD SVG 1.1//EN"
 "http://www.w3.org/Graphics/SVG/1.1/DTD/svg11.dtd">
<!-- Generated by graphviz version 2.36.0 (20140111.2315)
 -->
<!-- Title: x265::Search::calcIntraChromaRecon Pages: 1 -->
<svg width="1838pt" height="230pt"
 viewBox="0.00 0.00 1838.00 230.00" xmlns="http://www.w3.org/2000/svg" xmlns:xlink="http://www.w3.org/1999/xlink">
<g id="graph0" class="graph" transform="scale(1 1) rotate(0) translate(4 226)">
<title>x265::Search::calcIntraChromaRecon</title>
<polygon fill="white" stroke="none" points="-4,4 -4,-226 1834,-226 1834,4 -4,4"/>
<!-- Node1 -->
<g id="node1" class="node"><title>Node1</title>
<polygon fill="#bfbfbf" stroke="black" points="0,-85 0,-115 152,-115 152,-85 0,-85"/>
<text text-anchor="start" x="8" y="-103" font-family="Helvetica,sans-Serif" font-size="10.00">x265::Search::calcIntraChroma</text>
<text text-anchor="middle" x="76" y="-92" font-family="Helvetica,sans-Serif" font-size="10.00">Recon</text>
</g>
<!-- Node2 -->
<g id="node2" class="node"><title>Node2</title>
<g id="a_node2"><a xlink:href="classx265_1_1Search.html#a0ec5d297bb4eba4e9445ff67b35b95fa" target="_top" xlink:title="x265::Search::codeIntraChromaQt">
<polygon fill="white" stroke="black" points="188,-90.5 188,-109.5 354,-109.5 354,-90.5 188,-90.5"/>
<text text-anchor="middle" x="271" y="-97.5" font-family="Helvetica,sans-Serif" font-size="10.00">x265::Search::codeIntraChromaQt</text>
</a>
</g>
</g>
<!-- Node1&#45;&gt;Node2 -->
<g id="edge1" class="edge"><title>Node1&#45;&gt;Node2</title>
<path fill="none" stroke="midnightblue" d="M162.36,-100C170.773,-100 179.301,-100 187.683,-100"/>
<polygon fill="midnightblue" stroke="midnightblue" points="162.172,-96.5001 152.171,-100 162.171,-103.5 162.172,-96.5001"/>
</g>
<!-- Node3 -->
<g id="node3" class="node"><title>Node3</title>
<g id="a_node3"><a xlink:href="classx265_1_1Search.html#a70d466b561a7463b8ec5a213384ae667" target="_top" xlink:title="x265::Search::estIntraPred\lChromaQT">
<polygon fill="white" stroke="black" points="390,-85 390,-115 524,-115 524,-85 390,-85"/>
<text text-anchor="start" x="398" y="-103" font-family="Helvetica,sans-Serif" font-size="10.00">x265::Search::estIntraPred</text>
<text text-anchor="middle" x="457" y="-92" font-family="Helvetica,sans-Serif" font-size="10.00">ChromaQT</text>
</a>
</g>
</g>
<!-- Node2&#45;&gt;Node3 -->
<g id="edge2" class="edge"><title>Node2&#45;&gt;Node3</title>
<path fill="none" stroke="midnightblue" d="M364.188,-100C372.843,-100 381.496,-100 389.84,-100"/>
<polygon fill="midnightblue" stroke="midnightblue" points="364.045,-96.5001 354.045,-100 364.045,-103.5 364.045,-96.5001"/>
</g>
<!-- Node4 -->
<g id="node4" class="node"><title>Node4</title>
<g id="a_node4"><a xlink:href="classx265_1_1Analysis.html#ae4d61bcf4d2c22a054d68d6d77136428" target="_top" xlink:title="x265::Analysis::encodeIntra\lInInter">
<polygon fill="white" stroke="black" points="560,-112 560,-142 698,-142 698,-112 560,-112"/>
<text text-anchor="start" x="568" y="-130" font-family="Helvetica,sans-Serif" font-size="10.00">x265::Analysis::encodeIntra</text>
<text text-anchor="middle" x="629" y="-119" font-family="Helvetica,sans-Serif" font-size="10.00">InInter</text>
</a>
</g>
</g>
<!-- Node3&#45;&gt;Node4 -->
<g id="edge3" class="edge"><title>Node3&#45;&gt;Node4</title>
<path fill="none" stroke="midnightblue" d="M534.143,-112.093C542.666,-113.447 551.309,-114.82 559.725,-116.156"/>
<polygon fill="midnightblue" stroke="midnightblue" points="534.638,-108.628 524.213,-110.516 533.54,-115.542 534.638,-108.628"/>
</g>
<!-- Node13 -->
<g id="node13" class="node"><title>Node13</title>
<g id="a_node13"><a xlink:href="classx265_1_1Search.html#ab02df91827cf67796d1605bde60c6aed" target="_top" xlink:title="x265::Search::checkIntra">
<polygon fill="white" stroke="black" points="734,-47.5 734,-66.5 860,-66.5 860,-47.5 734,-47.5"/>
<text text-anchor="middle" x="797" y="-54.5" font-family="Helvetica,sans-Serif" font-size="10.00">x265::Search::checkIntra</text>
</a>
</g>
</g>
<!-- Node3&#45;&gt;Node13 -->
<g id="edge14" class="edge"><title>Node3&#45;&gt;Node13</title>
<path fill="none" stroke="midnightblue" d="M534.588,-90.2566C594.797,-82.5968 677.605,-72.0621 733.769,-64.917"/>
<polygon fill="midnightblue" stroke="midnightblue" points="533.853,-86.8218 524.375,-91.5559 534.736,-93.7658 533.853,-86.8218"/>
</g>
<!-- Node5 -->
<g id="node5" class="node"><title>Node5</title>
<g id="a_node5"><a xlink:href="classx265_1_1Analysis.html#aa6122285d10bb1bd7584958b88b029d5" target="_top" xlink:title="x265::Analysis::parallel\lModeAnalysis">
<polygon fill="white" stroke="black" points="738,-191 738,-221 856,-221 856,-191 738,-191"/>
<text text-anchor="start" x="746" y="-209" font-family="Helvetica,sans-Serif" font-size="10.00">x265::Analysis::parallel</text>
<text text-anchor="middle" x="797" y="-198" font-family="Helvetica,sans-Serif" font-size="10.00">ModeAnalysis</text>
</a>
</g>
</g>
<!-- Node4&#45;&gt;Node5 -->
<g id="edge4" class="edge"><title>Node4&#45;&gt;Node5</title>
<path fill="none" stroke="midnightblue" d="M670.996,-146.51C699.781,-160.209 737.721,-178.265 764.221,-190.876"/>
<polygon fill="midnightblue" stroke="midnightblue" points="672.148,-143.182 661.614,-142.045 669.14,-149.503 672.148,-143.182"/>
</g>
<!-- Node7 -->
<g id="node7" class="node"><title>Node7</title>
<g id="a_node7"><a xlink:href="classx265_1_1Analysis.html#a87060ff27a37f56adc5f5b8a4c033ece" target="_top" xlink:title="x265::Analysis::compress\lInterCU_dist">
<polygon fill="white" stroke="black" points="1070,-147 1070,-177 1200,-177 1200,-147 1070,-147"/>
<text text-anchor="start" x="1078" y="-165" font-family="Helvetica,sans-Serif" font-size="10.00">x265::Analysis::compress</text>
<text text-anchor="middle" x="1135" y="-154" font-family="Helvetica,sans-Serif" font-size="10.00">InterCU_dist</text>
</a>
</g>
</g>
<!-- Node4&#45;&gt;Node7 -->
<g id="edge11" class="edge"><title>Node4&#45;&gt;Node7</title>
<path fill="none" stroke="midnightblue" d="M708.342,-134.816C716.996,-135.595 725.682,-136.34 734,-137 852.436,-146.393 990.832,-154.378 1069.87,-158.654"/>
<polygon fill="midnightblue" stroke="midnightblue" points="708.499,-131.316 698.221,-133.889 707.86,-138.286 708.499,-131.316"/>
</g>
<!-- Node12 -->
<g id="node12" class="node"><title>Node12</title>
<g id="a_node12"><a xlink:href="classx265_1_1Analysis.html#a30d2ff7eca5addbb0a6b3dfe14f09650" target="_top" xlink:title="x265::Analysis::compress\lInterCU_rd0_4">
<polygon fill="white" stroke="black" points="1070,-98 1070,-128 1200,-128 1200,-98 1070,-98"/>
<text text-anchor="start" x="1078" y="-116" font-family="Helvetica,sans-Serif" font-size="10.00">x265::Analysis::compress</text>
<text text-anchor="middle" x="1135" y="-105" font-family="Helvetica,sans-Serif" font-size="10.00">InterCU_rd0_4</text>
</a>
</g>
</g>
<!-- Node4&#45;&gt;Node12 -->
<g id="edge12" class="edge"><title>Node4&#45;&gt;Node12</title>
<path fill="none" stroke="midnightblue" d="M708.232,-124.827C807.754,-122.062 977.75,-117.34 1069.96,-114.779"/>
<polygon fill="midnightblue" stroke="midnightblue" points="708.133,-121.328 698.234,-125.105 708.327,-128.326 708.133,-121.328"/>
</g>
<!-- Node6 -->
<g id="node6" class="node"><title>Node6</title>
<g id="a_node6"><a xlink:href="classx265_1_1Analysis.html#a29a58dad4cc1c07d2f5e5717c6be7c25" target="_top" xlink:title="x265::Analysis::findJob">
<polygon fill="white" stroke="black" points="905.5,-193.5 905.5,-212.5 1024.5,-212.5 1024.5,-193.5 905.5,-193.5"/>
<text text-anchor="middle" x="965" y="-200.5" font-family="Helvetica,sans-Serif" font-size="10.00">x265::Analysis::findJob</text>
</a>
</g>
</g>
<!-- Node5&#45;&gt;Node6 -->
<g id="edge5" class="edge"><title>Node5&#45;&gt;Node6</title>
<path fill="none" stroke="midnightblue" d="M866.332,-204.765C879.306,-204.531 892.774,-204.287 905.413,-204.059"/>
<polygon fill="midnightblue" stroke="midnightblue" points="865.994,-201.271 856.059,-204.951 866.12,-208.269 865.994,-201.271"/>
</g>
<!-- Node6&#45;&gt;Node7 -->
<g id="edge6" class="edge"><title>Node6&#45;&gt;Node7</title>
<path fill="none" stroke="midnightblue" d="M1014.9,-191.066C1032.81,-186.694 1053.32,-181.689 1072.22,-177.078"/>
<polygon fill="midnightblue" stroke="midnightblue" points="1013.85,-187.72 1004.96,-193.491 1015.51,-194.52 1013.85,-187.72"/>
</g>
<!-- Node8 -->
<g id="node8" class="node"><title>Node8</title>
<g id="a_node8"><a xlink:href="classx265_1_1Analysis.html#aaebc9de2ff98834c650244f3b58942c2" target="_top" xlink:title="x265::Analysis::compressCTU">
<polygon fill="white" stroke="black" points="1236.5,-78.5 1236.5,-97.5 1387.5,-97.5 1387.5,-78.5 1236.5,-78.5"/>
<text text-anchor="middle" x="1312" y="-85.5" font-family="Helvetica,sans-Serif" font-size="10.00">x265::Analysis::compressCTU</text>
</a>
</g>
</g>
<!-- Node7&#45;&gt;Node8 -->
<g id="edge7" class="edge"><title>Node7&#45;&gt;Node8</title>
<path fill="none" stroke="midnightblue" d="M1185.05,-143.09C1190.11,-141.064 1195.17,-139.009 1200,-137 1231.51,-123.898 1267.59,-107.756 1289.84,-97.6684"/>
<polygon fill="midnightblue" stroke="midnightblue" points="1183.37,-139.99 1175.37,-146.931 1185.96,-146.497 1183.37,-139.99"/>
</g>
<!-- Node9 -->
<g id="node9" class="node"><title>Node9</title>
<g id="a_node9"><a xlink:href="classx265_1_1FrameEncoder.html#a0ae85001572afd28238476542523ac5f" target="_top" xlink:title="x265::FrameEncoder\l::processRowEncoder">
<polygon fill="white" stroke="black" points="1424.5,-73 1424.5,-103 1537.5,-103 1537.5,-73 1424.5,-73"/>
<text text-anchor="start" x="1432.5" y="-91" font-family="Helvetica,sans-Serif" font-size="10.00">x265::FrameEncoder</text>
<text text-anchor="middle" x="1481" y="-80" font-family="Helvetica,sans-Serif" font-size="10.00">::processRowEncoder</text>
</a>
</g>
</g>
<!-- Node8&#45;&gt;Node9 -->
<g id="edge8" class="edge"><title>Node8&#45;&gt;Node9</title>
<path fill="none" stroke="midnightblue" d="M1397.86,-88C1406.86,-88 1415.85,-88 1424.39,-88"/>
<polygon fill="midnightblue" stroke="midnightblue" points="1397.71,-84.5001 1387.71,-88 1397.71,-91.5001 1397.71,-84.5001"/>
</g>
<!-- Node10 -->
<g id="node10" class="node"><title>Node10</title>
<g id="a_node10"><a xlink:href="classx265_1_1FrameEncoder.html#acad645a8ece97d884895f8f7366b7d70" target="_top" xlink:title="x265::FrameEncoder\l::processRow">
<polygon fill="white" stroke="black" points="1574.5,-73 1574.5,-103 1681.5,-103 1681.5,-73 1574.5,-73"/>
<text text-anchor="start" x="1582.5" y="-91" font-family="Helvetica,sans-Serif" font-size="10.00">x265::FrameEncoder</text>
<text text-anchor="middle" x="1628" y="-80" font-family="Helvetica,sans-Serif" font-size="10.00">::processRow</text>
</a>
</g>
</g>
<!-- Node9&#45;&gt;Node10 -->
<g id="edge9" class="edge"><title>Node9&#45;&gt;Node10</title>
<path fill="none" stroke="midnightblue" d="M1547.88,-88C1556.67,-88 1565.59,-88 1574.13,-88"/>
<polygon fill="midnightblue" stroke="midnightblue" points="1547.65,-84.5001 1537.65,-88 1547.65,-91.5001 1547.65,-84.5001"/>
</g>
<!-- Node11 -->
<g id="node11" class="node"><title>Node11</title>
<g id="a_node11"><a xlink:href="classx265_1_1FrameEncoder.html#ac4e9ce2e876c0cdb25c992c872fe4302" target="_top" xlink:title="x265::FrameEncoder\l::compressCTURows">
<polygon fill="white" stroke="red" points="1718,-73 1718,-103 1830,-103 1830,-73 1718,-73"/>
<text text-anchor="start" x="1726" y="-91" font-family="Helvetica,sans-Serif" font-size="10.00">x265::FrameEncoder</text>
<text text-anchor="middle" x="1774" y="-80" font-family="Helvetica,sans-Serif" font-size="10.00">::compressCTURows</text>
</a>
</g>
</g>
<!-- Node10&#45;&gt;Node11 -->
<g id="edge10" class="edge"><title>Node10&#45;&gt;Node11</title>
<path fill="none" stroke="midnightblue" d="M1691.83,-88C1700.48,-88 1709.3,-88 1717.79,-88"/>
<polygon fill="midnightblue" stroke="midnightblue" points="1691.8,-84.5001 1681.8,-88 1691.8,-91.5001 1691.8,-84.5001"/>
</g>
<!-- Node12&#45;&gt;Node8 -->
<g id="edge13" class="edge"><title>Node12&#45;&gt;Node8</title>
<path fill="none" stroke="midnightblue" d="M1210.1,-102.414C1221.52,-100.783 1233.25,-99.1071 1244.49,-97.5016"/>
<polygon fill="midnightblue" stroke="midnightblue" points="1209.57,-98.9538 1200.17,-103.833 1210.56,-105.883 1209.57,-98.9538"/>
</g>
<!-- Node14 -->
<g id="node14" class="node"><title>Node14</title>
<g id="a_node14"><a xlink:href="classx265_1_1Analysis.html#a10f0a8d9d143faf8dc671c6f0982693d" target="_top" xlink:title="x265::Analysis::tryLossless">
<polygon fill="white" stroke="black" points="896.5,-76.5 896.5,-95.5 1033.5,-95.5 1033.5,-76.5 896.5,-76.5"/>
<text text-anchor="middle" x="965" y="-83.5" font-family="Helvetica,sans-Serif" font-size="10.00">x265::Analysis::tryLossless</text>
</a>
</g>
</g>
<!-- Node13&#45;&gt;Node14 -->
<g id="edge15" class="edge"><title>Node13&#45;&gt;Node14</title>
<path fill="none" stroke="midnightblue" d="M862.815,-68.3231C878.263,-71.0219 894.596,-73.8752 909.526,-76.4835"/>
<polygon fill="midnightblue" stroke="midnightblue" points="863.268,-64.8493 852.815,-66.5761 862.063,-71.7448 863.268,-64.8493"/>
</g>
<!-- Node15 -->
<g id="node15" class="node"><title>Node15</title>
<g id="a_node15"><a xlink:href="classx265_1_1Analysis.html#aae2a6a2252270782b591d2bed7e99dae" target="_top" xlink:title="x265::Analysis::compress\lIntraCU">
<polygon fill="white" stroke="black" points="1070,-49 1070,-79 1200,-79 1200,-49 1070,-49"/>
<text text-anchor="start" x="1078" y="-67" font-family="Helvetica,sans-Serif" font-size="10.00">x265::Analysis::compress</text>
<text text-anchor="middle" x="1135" y="-56" font-family="Helvetica,sans-Serif" font-size="10.00">IntraCU</text>
</a>
</g>
</g>
<!-- Node13&#45;&gt;Node15 -->
<g id="edge22" class="edge"><title>Node13&#45;&gt;Node15</title>
<path fill="none" stroke="midnightblue" d="M870.064,-58.5013C929.383,-59.7371 1012.7,-61.473 1069.77,-62.6619"/>
<polygon fill="midnightblue" stroke="midnightblue" points="870.09,-55.0012 860.019,-58.2921 869.944,-61.9997 870.09,-55.0012"/>
</g>
<!-- Node16 -->
<g id="node16" class="node"><title>Node16</title>
<g id="a_node16"><a xlink:href="classx265_1_1Analysis.html#a0b22b7765aa4a36b1ba6d07ba26901e6" target="_top" xlink:title="x265::Analysis::compress\lInterCU_rd5_6">
<polygon fill="white" stroke="black" points="1070,-0 1070,-30 1200,-30 1200,-0 1070,-0"/>
<text text-anchor="start" x="1078" y="-18" font-family="Helvetica,sans-Serif" font-size="10.00">x265::Analysis::compress</text>
<text text-anchor="middle" x="1135" y="-7" font-family="Helvetica,sans-Serif" font-size="10.00">InterCU_rd5_6</text>
</a>
</g>
</g>
<!-- Node13&#45;&gt;Node16 -->
<g id="edge23" class="edge"><title>Node13&#45;&gt;Node16</title>
<path fill="none" stroke="midnightblue" d="M870.064,-47.9921C929.383,-40.5771 1012.7,-30.1619 1069.77,-23.0288"/>
<polygon fill="midnightblue" stroke="midnightblue" points="869.508,-44.5342 860.019,-49.2476 870.376,-51.4801 869.508,-44.5342"/>
</g>
<!-- Node14&#45;&gt;Node7 -->
<g id="edge18" class="edge"><title>Node14&#45;&gt;Node7</title>
<path fill="none" stroke="midnightblue" d="M993.476,-100.255C1014.27,-110.853 1043.66,-125.421 1070,-137 1077.64,-140.36 1085.89,-143.752 1093.84,-146.907"/>
<polygon fill="midnightblue" stroke="midnightblue" points="995.062,-97.1349 984.566,-95.6896 991.87,-103.365 995.062,-97.1349"/>
</g>
<!-- Node14&#45;&gt;Node12 -->
<g id="edge19" class="edge"><title>Node14&#45;&gt;Node12</title>
<path fill="none" stroke="midnightblue" d="M1035.2,-97.121C1046.68,-98.9659 1058.54,-100.872 1069.88,-102.695"/>
<polygon fill="midnightblue" stroke="midnightblue" points="1035.66,-93.6504 1025.23,-95.5192 1034.55,-100.562 1035.66,-93.6504"/>
</g>
<!-- Node14&#45;&gt;Node15 -->
<g id="edge16" class="edge"><title>Node14&#45;&gt;Node15</title>
<path fill="none" stroke="midnightblue" d="M1044,-75.786C1052.7,-74.6467 1061.48,-73.4962 1069.98,-72.3836"/>
<polygon fill="midnightblue" stroke="midnightblue" points="1043.31,-72.3463 1033.85,-77.1152 1044.22,-79.287 1043.31,-72.3463"/>
</g>
<!-- Node14&#45;&gt;Node16 -->
<g id="edge20" class="edge"><title>Node14&#45;&gt;Node16</title>
<path fill="none" stroke="midnightblue" d="M995.367,-72.1065C1016.08,-62.4626 1044.55,-49.511 1070,-39 1077.24,-36.0107 1085,-32.9675 1092.53,-30.097"/>
<polygon fill="midnightblue" stroke="midnightblue" points="993.729,-69.0085 986.155,-76.4167 996.696,-75.3488 993.729,-69.0085"/>
</g>
<!-- Node15&#45;&gt;Node8 -->
<g id="edge17" class="edge"><title>Node15&#45;&gt;Node8</title>
<path fill="none" stroke="midnightblue" d="M1210.39,-74.2025C1220.72,-75.619 1231.3,-77.0696 1241.53,-78.4731"/>
<polygon fill="midnightblue" stroke="midnightblue" points="1210.55,-70.6917 1200.17,-72.8004 1209.6,-77.6268 1210.55,-70.6917"/>
</g>
<!-- Node16&#45;&gt;Node8 -->
<g id="edge21" class="edge"><title>Node16&#45;&gt;Node8</title>
<path fill="none" stroke="midnightblue" d="M1186.49,-33.6264C1191.07,-35.4091 1195.63,-37.2173 1200,-39 1231.79,-51.9665 1268.1,-68.2861 1290.28,-78.4321"/>
<polygon fill="midnightblue" stroke="midnightblue" points="1187.7,-30.3402 1177.11,-30.0192 1185.18,-36.8741 1187.7,-30.3402"/>
</g>
</g>
</svg>
