<?xml version="1.0" encoding="UTF-8" standalone="no"?>
<!DOCTYPE svg PUBLIC "-//W3C//DTD SVG 1.1//EN"
 "http://www.w3.org/Graphics/SVG/1.1/DTD/svg11.dtd">
<!-- Generated by graphviz version 2.36.0 (20140111.2315)
 -->
<!-- Title: x265::CUData::getPUBelowLeftAdi Pages: 1 -->
<svg width="2214pt" height="388pt"
 viewBox="0.00 0.00 2214.00 388.15" xmlns="http://www.w3.org/2000/svg" xmlns:xlink="http://www.w3.org/1999/xlink">
<g id="graph0" class="graph" transform="scale(1 1) rotate(0) translate(4 384.15)">
<title>x265::CUData::getPUBelowLeftAdi</title>
<polygon fill="white" stroke="none" points="-4,4 -4,-384.15 2210,-384.15 2210,4 -4,4"/>
<!-- Node1 -->
<g id="node1" class="node"><title>Node1</title>
<polygon fill="#bfbfbf" stroke="black" points="0,-107 0,-137 140,-137 140,-107 0,-107"/>
<text text-anchor="start" x="8" y="-125" font-family="Helvetica,sans-Serif" font-size="10.00">x265::CUData::getPUBelow</text>
<text text-anchor="middle" x="70" y="-114" font-family="Helvetica,sans-Serif" font-size="10.00">LeftAdi</text>
</g>
<!-- Node2 -->
<g id="node2" class="node"><title>Node2</title>
<g id="a_node2"><a xlink:href="classx265_1_1Predict.html#a8c395a0f20b931cc30b4ef7ac713e071" target="_top" xlink:title="x265::Predict::isBelowLeft\lAvailable">
<polygon fill="white" stroke="black" points="176.5,-107 176.5,-137 307.5,-137 307.5,-107 176.5,-107"/>
<text text-anchor="start" x="184.5" y="-125" font-family="Helvetica,sans-Serif" font-size="10.00">x265::Predict::isBelowLeft</text>
<text text-anchor="middle" x="242" y="-114" font-family="Helvetica,sans-Serif" font-size="10.00">Available</text>
</a>
</g>
</g>
<!-- Node1&#45;&gt;Node2 -->
<g id="edge1" class="edge"><title>Node1&#45;&gt;Node2</title>
<path fill="none" stroke="midnightblue" d="M150.309,-122C159.017,-122 167.806,-122 176.306,-122"/>
<polygon fill="midnightblue" stroke="midnightblue" points="150.146,-118.5 140.146,-122 150.145,-125.5 150.146,-118.5"/>
</g>
<!-- Node3 -->
<g id="node3" class="node"><title>Node3</title>
<g id="a_node3"><a xlink:href="classx265_1_1Predict.html#a5cde667623af60ade240748e9818575d" target="_top" xlink:title="x265::Predict::initIntra\lNeighbors">
<polygon fill="white" stroke="black" points="344.5,-107 344.5,-137 457.5,-137 457.5,-107 344.5,-107"/>
<text text-anchor="start" x="352.5" y="-125" font-family="Helvetica,sans-Serif" font-size="10.00">x265::Predict::initIntra</text>
<text text-anchor="middle" x="401" y="-114" font-family="Helvetica,sans-Serif" font-size="10.00">Neighbors</text>
</a>
</g>
</g>
<!-- Node2&#45;&gt;Node3 -->
<g id="edge2" class="edge"><title>Node2&#45;&gt;Node3</title>
<path fill="none" stroke="midnightblue" d="M317.819,-122C326.771,-122 335.786,-122 344.399,-122"/>
<polygon fill="midnightblue" stroke="midnightblue" points="317.764,-118.5 307.764,-122 317.764,-125.5 317.764,-118.5"/>
</g>
<!-- Node4 -->
<g id="node4" class="node"><title>Node4</title>
<g id="a_node4"><a xlink:href="classx265_1_1Predict.html#abb05cb0b8bee26a733e556b3ba9be4e9" target="_top" xlink:title="x265::Predict::initAdiPattern">
<polygon fill="white" stroke="black" points="683.5,-147.5 683.5,-166.5 822.5,-166.5 822.5,-147.5 683.5,-147.5"/>
<text text-anchor="middle" x="753" y="-154.5" font-family="Helvetica,sans-Serif" font-size="10.00">x265::Predict::initAdiPattern</text>
</a>
</g>
</g>
<!-- Node3&#45;&gt;Node4 -->
<g id="edge3" class="edge"><title>Node3&#45;&gt;Node4</title>
<path fill="none" stroke="midnightblue" d="M467.839,-128.584C529.409,-134.741 620.993,-143.899 683.431,-150.143"/>
<polygon fill="midnightblue" stroke="midnightblue" points="468.144,-125.097 457.846,-127.585 467.448,-132.062 468.144,-125.097"/>
</g>
<!-- Node23 -->
<g id="node23" class="node"><title>Node23</title>
<g id="a_node23"><a xlink:href="classx265_1_1Predict.html#adaf25ea2af37db5f3222139d849447a4" target="_top" xlink:title="x265::Predict::initAdiPattern\lChroma">
<polygon fill="white" stroke="black" points="494.5,-79 494.5,-109 633.5,-109 633.5,-79 494.5,-79"/>
<text text-anchor="start" x="502.5" y="-97" font-family="Helvetica,sans-Serif" font-size="10.00">x265::Predict::initAdiPattern</text>
<text text-anchor="middle" x="564" y="-86" font-family="Helvetica,sans-Serif" font-size="10.00">Chroma</text>
</a>
</g>
</g>
<!-- Node3&#45;&gt;Node23 -->
<g id="edge36" class="edge"><title>Node3&#45;&gt;Node23</title>
<path fill="none" stroke="midnightblue" d="M467.98,-110.525C476.717,-109.006 485.689,-107.445 494.468,-105.919"/>
<polygon fill="midnightblue" stroke="midnightblue" points="467.111,-107.124 457.858,-112.286 468.31,-114.02 467.111,-107.124"/>
</g>
<!-- Node5 -->
<g id="node5" class="node"><title>Node5</title>
<g id="a_node5"><a xlink:href="classx265_1_1Analysis.html#a47fe19b013534639df70d2cccc551dca" target="_top" xlink:title="x265::Analysis::checkIntra\lInInter_rd0_4">
<polygon fill="white" stroke="black" points="1077.5,-305 1077.5,-335 1210.5,-335 1210.5,-305 1077.5,-305"/>
<text text-anchor="start" x="1085.5" y="-323" font-family="Helvetica,sans-Serif" font-size="10.00">x265::Analysis::checkIntra</text>
<text text-anchor="middle" x="1144" y="-312" font-family="Helvetica,sans-Serif" font-size="10.00">InInter_rd0_4</text>
</a>
</g>
</g>
<!-- Node4&#45;&gt;Node5 -->
<g id="edge4" class="edge"><title>Node4&#45;&gt;Node5</title>
<path fill="none" stroke="midnightblue" d="M792.655,-170.588C807.474,-177.179 823.748,-186.254 836,-198 859.838,-220.854 845.436,-243.38 872,-263 931.847,-307.202 1018.37,-318.793 1077.44,-321.047"/>
<polygon fill="midnightblue" stroke="midnightblue" points="793.76,-167.256 783.184,-166.613 791.051,-173.711 793.76,-167.256"/>
</g>
<!-- Node13 -->
<g id="node13" class="node"><title>Node13</title>
<g id="a_node13"><a xlink:href="classx265_1_1Search.html#a59b84ac1e21c86af579b6e84e43c5b7a" target="_top" xlink:title="x265::Search::codeIntraLumaQT">
<polygon fill="white" stroke="black" points="872,-185.5 872,-204.5 1030,-204.5 1030,-185.5 872,-185.5"/>
<text text-anchor="middle" x="951" y="-192.5" font-family="Helvetica,sans-Serif" font-size="10.00">x265::Search::codeIntraLumaQT</text>
</a>
</g>
</g>
<!-- Node4&#45;&gt;Node13 -->
<g id="edge14" class="edge"><title>Node4&#45;&gt;Node13</title>
<path fill="none" stroke="midnightblue" d="M813.261,-168.489C841.227,-173.911 874.209,-180.306 900.774,-185.456"/>
<polygon fill="midnightblue" stroke="midnightblue" points="813.689,-165.007 803.206,-166.54 812.357,-171.879 813.689,-165.007"/>
</g>
<!-- Node15 -->
<g id="node15" class="node"><title>Node15</title>
<g id="a_node15"><a xlink:href="classx265_1_1Search.html#a1778d2ab96ac88c7f76d36818d6adbdd" target="_top" xlink:title="x265::Search::estIntraPredQT">
<polygon fill="white" stroke="black" points="1070.5,-147.5 1070.5,-166.5 1217.5,-166.5 1217.5,-147.5 1070.5,-147.5"/>
<text text-anchor="middle" x="1144" y="-154.5" font-family="Helvetica,sans-Serif" font-size="10.00">x265::Search::estIntraPredQT</text>
</a>
</g>
</g>
<!-- Node4&#45;&gt;Node15 -->
<g id="edge35" class="edge"><title>Node4&#45;&gt;Node15</title>
<path fill="none" stroke="midnightblue" d="M832.675,-157C902.202,-157 1002.79,-157 1070.42,-157"/>
<polygon fill="midnightblue" stroke="midnightblue" points="832.65,-153.5 822.65,-157 832.65,-160.5 832.65,-153.5"/>
</g>
<!-- Node20 -->
<g id="node20" class="node"><title>Node20</title>
<g id="a_node20"><a xlink:href="classx265_1_1Search.html#a8179474a0f2f2b7b84da90802f92b06e" target="_top" xlink:title="x265::Search::residualTransform\lQuantIntra">
<polygon fill="white" stroke="black" points="872,-98 872,-128 1030,-128 1030,-98 872,-98"/>
<text text-anchor="start" x="880" y="-116" font-family="Helvetica,sans-Serif" font-size="10.00">x265::Search::residualTransform</text>
<text text-anchor="middle" x="951" y="-105" font-family="Helvetica,sans-Serif" font-size="10.00">QuantIntra</text>
</a>
</g>
</g>
<!-- Node4&#45;&gt;Node20 -->
<g id="edge30" class="edge"><title>Node4&#45;&gt;Node20</title>
<path fill="none" stroke="midnightblue" d="M806.307,-145.258C829.82,-139.979 857.853,-133.686 882.891,-128.065"/>
<polygon fill="midnightblue" stroke="midnightblue" points="805.52,-141.847 796.529,-147.453 807.053,-148.677 805.52,-141.847"/>
</g>
<!-- Node6 -->
<g id="node6" class="node"><title>Node6</title>
<g id="a_node6"><a xlink:href="classx265_1_1Analysis.html#aa6122285d10bb1bd7584958b88b029d5" target="_top" xlink:title="x265::Analysis::parallel\lModeAnalysis">
<polygon fill="white" stroke="black" points="1262,-322 1262,-352 1380,-352 1380,-322 1262,-322"/>
<text text-anchor="start" x="1270" y="-340" font-family="Helvetica,sans-Serif" font-size="10.00">x265::Analysis::parallel</text>
<text text-anchor="middle" x="1321" y="-329" font-family="Helvetica,sans-Serif" font-size="10.00">ModeAnalysis</text>
</a>
</g>
</g>
<!-- Node5&#45;&gt;Node6 -->
<g id="edge5" class="edge"><title>Node5&#45;&gt;Node6</title>
<path fill="none" stroke="midnightblue" d="M1221.01,-327.383C1234.66,-328.71 1248.69,-330.073 1261.74,-331.341"/>
<polygon fill="midnightblue" stroke="midnightblue" points="1220.95,-323.862 1210.66,-326.379 1220.28,-330.829 1220.95,-323.862"/>
</g>
<!-- Node8 -->
<g id="node8" class="node"><title>Node8</title>
<g id="a_node8"><a xlink:href="classx265_1_1Analysis.html#a87060ff27a37f56adc5f5b8a4c033ece" target="_top" xlink:title="x265::Analysis::compress\lInterCU_dist">
<polygon fill="white" stroke="black" points="1594,-278 1594,-308 1724,-308 1724,-278 1594,-278"/>
<text text-anchor="start" x="1602" y="-296" font-family="Helvetica,sans-Serif" font-size="10.00">x265::Analysis::compress</text>
<text text-anchor="middle" x="1659" y="-285" font-family="Helvetica,sans-Serif" font-size="10.00">InterCU_dist</text>
</a>
</g>
</g>
<!-- Node5&#45;&gt;Node8 -->
<g id="edge11" class="edge"><title>Node5&#45;&gt;Node8</title>
<path fill="none" stroke="midnightblue" d="M1186.54,-339.006C1207.49,-347.568 1233.58,-356.707 1258,-361 1389.37,-384.095 1430.31,-391.547 1558,-353 1589.01,-343.638 1620.32,-322.541 1639.44,-308.035"/>
<polygon fill="midnightblue" stroke="midnightblue" points="1187.87,-335.771 1177.3,-335.132 1185.17,-342.226 1187.87,-335.771"/>
</g>
<!-- Node12 -->
<g id="node12" class="node"><title>Node12</title>
<g id="a_node12"><a xlink:href="classx265_1_1Analysis.html#a30d2ff7eca5addbb0a6b3dfe14f09650" target="_top" xlink:title="x265::Analysis::compress\lInterCU_rd0_4">
<polygon fill="white" stroke="black" points="1594,-169 1594,-199 1724,-199 1724,-169 1594,-169"/>
<text text-anchor="start" x="1602" y="-187" font-family="Helvetica,sans-Serif" font-size="10.00">x265::Analysis::compress</text>
<text text-anchor="middle" x="1659" y="-176" font-family="Helvetica,sans-Serif" font-size="10.00">InterCU_rd0_4</text>
</a>
</g>
</g>
<!-- Node5&#45;&gt;Node12 -->
<g id="edge12" class="edge"><title>Node5&#45;&gt;Node12</title>
<path fill="none" stroke="midnightblue" d="M1220.72,-302.898C1303.89,-283.7 1441.18,-250.791 1558,-217 1576.62,-211.615 1596.96,-205.032 1614.41,-199.166"/>
<polygon fill="midnightblue" stroke="midnightblue" points="1219.81,-299.516 1210.85,-305.171 1221.38,-306.337 1219.81,-299.516"/>
</g>
<!-- Node7 -->
<g id="node7" class="node"><title>Node7</title>
<g id="a_node7"><a xlink:href="classx265_1_1Analysis.html#a29a58dad4cc1c07d2f5e5717c6be7c25" target="_top" xlink:title="x265::Analysis::findJob">
<polygon fill="white" stroke="black" points="1429.5,-324.5 1429.5,-343.5 1548.5,-343.5 1548.5,-324.5 1429.5,-324.5"/>
<text text-anchor="middle" x="1489" y="-331.5" font-family="Helvetica,sans-Serif" font-size="10.00">x265::Analysis::findJob</text>
</a>
</g>
</g>
<!-- Node6&#45;&gt;Node7 -->
<g id="edge6" class="edge"><title>Node6&#45;&gt;Node7</title>
<path fill="none" stroke="midnightblue" d="M1390.33,-335.765C1403.31,-335.531 1416.77,-335.287 1429.41,-335.059"/>
<polygon fill="midnightblue" stroke="midnightblue" points="1389.99,-332.271 1380.06,-335.951 1390.12,-339.269 1389.99,-332.271"/>
</g>
<!-- Node7&#45;&gt;Node8 -->
<g id="edge7" class="edge"><title>Node7&#45;&gt;Node8</title>
<path fill="none" stroke="midnightblue" d="M1538.9,-322.066C1556.81,-317.694 1577.32,-312.689 1596.22,-308.078"/>
<polygon fill="midnightblue" stroke="midnightblue" points="1537.85,-318.72 1528.96,-324.491 1539.51,-325.52 1537.85,-318.72"/>
</g>
<!-- Node9 -->
<g id="node9" class="node"><title>Node9</title>
<g id="a_node9"><a xlink:href="classx265_1_1Analysis.html#aaebc9de2ff98834c650244f3b58942c2" target="_top" xlink:title="x265::Analysis::compressCTU">
<polygon fill="white" stroke="black" points="1760.5,-125.5 1760.5,-144.5 1911.5,-144.5 1911.5,-125.5 1760.5,-125.5"/>
<text text-anchor="middle" x="1836" y="-132.5" font-family="Helvetica,sans-Serif" font-size="10.00">x265::Analysis::compressCTU</text>
</a>
</g>
</g>
<!-- Node8&#45;&gt;Node9 -->
<g id="edge8" class="edge"><title>Node8&#45;&gt;Node9</title>
<path fill="none" stroke="midnightblue" d="M1684.46,-270.919C1723.05,-236.071 1796.54,-169.724 1824.15,-144.794"/>
<polygon fill="midnightblue" stroke="midnightblue" points="1681.86,-268.551 1676.78,-277.85 1686.55,-273.747 1681.86,-268.551"/>
</g>
<!-- Node10 -->
<g id="node10" class="node"><title>Node10</title>
<g id="a_node10"><a xlink:href="classx265_1_1FrameEncoder.html#a0ae85001572afd28238476542523ac5f" target="_top" xlink:title="x265::FrameEncoder\l::processRowEncoder">
<polygon fill="white" stroke="black" points="1948.5,-120 1948.5,-150 2061.5,-150 2061.5,-120 1948.5,-120"/>
<text text-anchor="start" x="1956.5" y="-138" font-family="Helvetica,sans-Serif" font-size="10.00">x265::FrameEncoder</text>
<text text-anchor="middle" x="2005" y="-127" font-family="Helvetica,sans-Serif" font-size="10.00">::processRowEncoder</text>
</a>
</g>
</g>
<!-- Node9&#45;&gt;Node10 -->
<g id="edge9" class="edge"><title>Node9&#45;&gt;Node10</title>
<path fill="none" stroke="midnightblue" d="M1921.86,-135C1930.86,-135 1939.85,-135 1948.39,-135"/>
<polygon fill="midnightblue" stroke="midnightblue" points="1921.71,-131.5 1911.71,-135 1921.71,-138.5 1921.71,-131.5"/>
</g>
<!-- Node11 -->
<g id="node11" class="node"><title>Node11</title>
<g id="a_node11"><a xlink:href="classx265_1_1FrameEncoder.html#acad645a8ece97d884895f8f7366b7d70" target="_top" xlink:title="x265::FrameEncoder\l::processRow">
<polygon fill="white" stroke="red" points="2098.5,-120 2098.5,-150 2205.5,-150 2205.5,-120 2098.5,-120"/>
<text text-anchor="start" x="2106.5" y="-138" font-family="Helvetica,sans-Serif" font-size="10.00">x265::FrameEncoder</text>
<text text-anchor="middle" x="2152" y="-127" font-family="Helvetica,sans-Serif" font-size="10.00">::processRow</text>
</a>
</g>
</g>
<!-- Node10&#45;&gt;Node11 -->
<g id="edge10" class="edge"><title>Node10&#45;&gt;Node11</title>
<path fill="none" stroke="midnightblue" d="M2071.88,-135C2080.67,-135 2089.59,-135 2098.13,-135"/>
<polygon fill="midnightblue" stroke="midnightblue" points="2071.65,-131.5 2061.65,-135 2071.65,-138.5 2071.65,-131.5"/>
</g>
<!-- Node12&#45;&gt;Node9 -->
<g id="edge13" class="edge"><title>Node12&#45;&gt;Node9</title>
<path fill="none" stroke="midnightblue" d="M1723.79,-166.14C1749.94,-158.818 1779.15,-150.639 1801.06,-144.502"/>
<polygon fill="midnightblue" stroke="midnightblue" points="1722.62,-162.832 1713.93,-168.899 1724.51,-169.573 1722.62,-162.832"/>
</g>
<!-- Node14 -->
<g id="node14" class="node"><title>Node14</title>
<g id="a_node14"><a xlink:href="classx265_1_1Analysis.html#ae4d61bcf4d2c22a054d68d6d77136428" target="_top" xlink:title="x265::Analysis::encodeIntra\lInInter">
<polygon fill="white" stroke="black" points="1075,-224 1075,-254 1213,-254 1213,-224 1075,-224"/>
<text text-anchor="start" x="1083" y="-242" font-family="Helvetica,sans-Serif" font-size="10.00">x265::Analysis::encodeIntra</text>
<text text-anchor="middle" x="1144" y="-231" font-family="Helvetica,sans-Serif" font-size="10.00">InInter</text>
</a>
</g>
</g>
<!-- Node13&#45;&gt;Node14 -->
<g id="edge15" class="edge"><title>Node13&#45;&gt;Node14</title>
<path fill="none" stroke="midnightblue" d="M1003.28,-206.813C1026.13,-212.077 1053.31,-218.339 1077.6,-223.935"/>
<polygon fill="midnightblue" stroke="midnightblue" points="1003.97,-203.382 993.444,-204.547 1002.4,-210.203 1003.97,-203.382"/>
</g>
<!-- Node13&#45;&gt;Node15 -->
<g id="edge19" class="edge"><title>Node13&#45;&gt;Node15</title>
<path fill="none" stroke="midnightblue" d="M1010.35,-183.39C1037.52,-177.986 1069.43,-171.636 1095.15,-166.52"/>
<polygon fill="midnightblue" stroke="midnightblue" points="1009.32,-180.027 1000.2,-185.411 1010.69,-186.892 1009.32,-180.027"/>
</g>
<!-- Node14&#45;&gt;Node6 -->
<g id="edge16" class="edge"><title>Node14&#45;&gt;Node6</title>
<path fill="none" stroke="midnightblue" d="M1177.62,-259.706C1199.94,-273.612 1230.39,-292.054 1258,-307 1267.46,-312.124 1277.94,-317.352 1287.54,-321.979"/>
<polygon fill="midnightblue" stroke="midnightblue" points="1179.21,-256.576 1168.88,-254.238 1175.5,-262.51 1179.21,-256.576"/>
</g>
<!-- Node14&#45;&gt;Node8 -->
<g id="edge17" class="edge"><title>Node14&#45;&gt;Node8</title>
<path fill="none" stroke="midnightblue" d="M1223.3,-247.243C1324.71,-257.917 1499.57,-276.323 1593.64,-286.226"/>
<polygon fill="midnightblue" stroke="midnightblue" points="1223.43,-243.737 1213.12,-246.171 1222.7,-250.698 1223.43,-243.737"/>
</g>
<!-- Node14&#45;&gt;Node12 -->
<g id="edge18" class="edge"><title>Node14&#45;&gt;Node12</title>
<path fill="none" stroke="midnightblue" d="M1223.3,-230.605C1324.71,-219.733 1499.57,-200.986 1593.64,-190.9"/>
<polygon fill="midnightblue" stroke="midnightblue" points="1222.69,-227.15 1213.12,-231.696 1223.44,-234.11 1222.69,-227.15"/>
</g>
<!-- Node16 -->
<g id="node16" class="node"><title>Node16</title>
<g id="a_node16"><a xlink:href="classx265_1_1Search.html#ab02df91827cf67796d1605bde60c6aed" target="_top" xlink:title="x265::Search::checkIntra">
<polygon fill="white" stroke="black" points="1258,-131.5 1258,-150.5 1384,-150.5 1384,-131.5 1258,-131.5"/>
<text text-anchor="middle" x="1321" y="-138.5" font-family="Helvetica,sans-Serif" font-size="10.00">x265::Search::checkIntra</text>
</a>
</g>
</g>
<!-- Node15&#45;&gt;Node16 -->
<g id="edge20" class="edge"><title>Node15&#45;&gt;Node16</title>
<path fill="none" stroke="midnightblue" d="M1227.77,-149.433C1237.88,-148.508 1248.09,-147.575 1257.83,-146.684"/>
<polygon fill="midnightblue" stroke="midnightblue" points="1227.34,-145.958 1217.7,-150.354 1227.97,-152.928 1227.34,-145.958"/>
</g>
<!-- Node17 -->
<g id="node17" class="node"><title>Node17</title>
<g id="a_node17"><a xlink:href="classx265_1_1Analysis.html#a10f0a8d9d143faf8dc671c6f0982693d" target="_top" xlink:title="x265::Analysis::tryLossless">
<polygon fill="white" stroke="black" points="1420.5,-131.5 1420.5,-150.5 1557.5,-150.5 1557.5,-131.5 1420.5,-131.5"/>
<text text-anchor="middle" x="1489" y="-138.5" font-family="Helvetica,sans-Serif" font-size="10.00">x265::Analysis::tryLossless</text>
</a>
</g>
</g>
<!-- Node16&#45;&gt;Node17 -->
<g id="edge21" class="edge"><title>Node16&#45;&gt;Node17</title>
<path fill="none" stroke="midnightblue" d="M1394.34,-141C1402.98,-141 1411.79,-141 1420.36,-141"/>
<polygon fill="midnightblue" stroke="midnightblue" points="1394.28,-137.5 1384.28,-141 1394.28,-144.5 1394.28,-137.5"/>
</g>
<!-- Node18 -->
<g id="node18" class="node"><title>Node18</title>
<g id="a_node18"><a xlink:href="classx265_1_1Analysis.html#aae2a6a2252270782b591d2bed7e99dae" target="_top" xlink:title="x265::Analysis::compress\lIntraCU">
<polygon fill="white" stroke="black" points="1594,-71 1594,-101 1724,-101 1724,-71 1594,-71"/>
<text text-anchor="start" x="1602" y="-89" font-family="Helvetica,sans-Serif" font-size="10.00">x265::Analysis::compress</text>
<text text-anchor="middle" x="1659" y="-78" font-family="Helvetica,sans-Serif" font-size="10.00">IntraCU</text>
</a>
</g>
</g>
<!-- Node16&#45;&gt;Node18 -->
<g id="edge28" class="edge"><title>Node16&#45;&gt;Node18</title>
<path fill="none" stroke="midnightblue" d="M1363.35,-128.673C1380.72,-123.85 1401.22,-118.618 1420,-115 1478.45,-103.741 1545.86,-96.012 1593.99,-91.382"/>
<polygon fill="midnightblue" stroke="midnightblue" points="1362.19,-125.363 1353.52,-131.45 1364.1,-132.099 1362.19,-125.363"/>
</g>
<!-- Node19 -->
<g id="node19" class="node"><title>Node19</title>
<g id="a_node19"><a xlink:href="classx265_1_1Analysis.html#a0b22b7765aa4a36b1ba6d07ba26901e6" target="_top" xlink:title="x265::Analysis::compress\lInterCU_rd5_6">
<polygon fill="white" stroke="black" points="1594,-120 1594,-150 1724,-150 1724,-120 1594,-120"/>
<text text-anchor="start" x="1602" y="-138" font-family="Helvetica,sans-Serif" font-size="10.00">x265::Analysis::compress</text>
<text text-anchor="middle" x="1659" y="-127" font-family="Helvetica,sans-Serif" font-size="10.00">InterCU_rd5_6</text>
</a>
</g>
</g>
<!-- Node16&#45;&gt;Node19 -->
<g id="edge29" class="edge"><title>Node16&#45;&gt;Node19</title>
<path fill="none" stroke="midnightblue" d="M1371.65,-129.462C1387.05,-126.399 1404.15,-123.522 1420,-122 1481.05,-116.136 1496.79,-118.038 1558,-122 1569.62,-122.752 1581.95,-123.991 1593.84,-125.412"/>
<polygon fill="midnightblue" stroke="midnightblue" points="1370.89,-126.045 1361.8,-131.49 1372.3,-132.902 1370.89,-126.045"/>
</g>
<!-- Node17&#45;&gt;Node8 -->
<g id="edge24" class="edge"><title>Node17&#45;&gt;Node8</title>
<path fill="none" stroke="midnightblue" d="M1508.01,-157.293C1540.73,-186.903 1609.51,-249.127 1641.27,-277.863"/>
<polygon fill="midnightblue" stroke="midnightblue" points="1510.27,-154.622 1500.51,-150.508 1505.58,-159.813 1510.27,-154.622"/>
</g>
<!-- Node17&#45;&gt;Node12 -->
<g id="edge25" class="edge"><title>Node17&#45;&gt;Node12</title>
<path fill="none" stroke="midnightblue" d="M1537.07,-153.047C1556.4,-157.994 1578.98,-163.776 1599.37,-168.994"/>
<polygon fill="midnightblue" stroke="midnightblue" points="1537.84,-149.632 1527.28,-150.543 1536.1,-156.413 1537.84,-149.632"/>
</g>
<!-- Node17&#45;&gt;Node18 -->
<g id="edge22" class="edge"><title>Node17&#45;&gt;Node18</title>
<path fill="none" stroke="midnightblue" d="M1529.04,-128.218C1553.81,-120.109 1585.97,-109.58 1611.98,-101.065"/>
<polygon fill="midnightblue" stroke="midnightblue" points="1527.68,-124.982 1519.26,-131.42 1529.86,-131.635 1527.68,-124.982"/>
</g>
<!-- Node17&#45;&gt;Node19 -->
<g id="edge26" class="edge"><title>Node17&#45;&gt;Node19</title>
<path fill="none" stroke="midnightblue" d="M1568,-138.214C1576.7,-137.904 1585.48,-137.59 1593.98,-137.286"/>
<polygon fill="midnightblue" stroke="midnightblue" points="1567.72,-134.722 1557.85,-138.577 1567.97,-141.718 1567.72,-134.722"/>
</g>
<!-- Node18&#45;&gt;Node9 -->
<g id="edge23" class="edge"><title>Node18&#45;&gt;Node9</title>
<path fill="none" stroke="midnightblue" d="M1723.79,-103.86C1749.94,-111.182 1779.15,-119.361 1801.06,-125.498"/>
<polygon fill="midnightblue" stroke="midnightblue" points="1724.51,-100.427 1713.93,-101.101 1722.62,-107.168 1724.51,-100.427"/>
</g>
<!-- Node19&#45;&gt;Node9 -->
<g id="edge27" class="edge"><title>Node19&#45;&gt;Node9</title>
<path fill="none" stroke="midnightblue" d="M1734.25,-135C1742.93,-135 1751.78,-135 1760.47,-135"/>
<polygon fill="midnightblue" stroke="midnightblue" points="1734.17,-131.5 1724.17,-135 1734.17,-138.5 1734.17,-131.5"/>
</g>
<!-- Node21 -->
<g id="node21" class="node"><title>Node21</title>
<g id="a_node21"><a xlink:href="classx265_1_1Analysis.html#a88ad2880a5a8bcad5cfd5d6ea630b265" target="_top" xlink:title="x265::Analysis::encodeResidue">
<polygon fill="white" stroke="black" points="1066.5,-27.5 1066.5,-46.5 1221.5,-46.5 1221.5,-27.5 1066.5,-27.5"/>
<text text-anchor="middle" x="1144" y="-34.5" font-family="Helvetica,sans-Serif" font-size="10.00">x265::Analysis::encodeResidue</text>
</a>
</g>
</g>
<!-- Node20&#45;&gt;Node21 -->
<g id="edge31" class="edge"><title>Node20&#45;&gt;Node21</title>
<path fill="none" stroke="midnightblue" d="M1015.36,-94.3597C1020.38,-92.3796 1025.32,-90.2572 1030,-88 1047.32,-79.6516 1048.79,-72.5822 1066,-64 1079.94,-57.0454 1096.12,-51.0824 1110.04,-46.5428"/>
<polygon fill="midnightblue" stroke="midnightblue" points="1013.78,-91.2121 1005.64,-97.9901 1016.23,-97.7696 1013.78,-91.2121"/>
</g>
<!-- Node22 -->
<g id="node22" class="node"><title>Node22</title>
<g id="a_node22"><a xlink:href="classx265_1_1Search.html#a5284cffef18fe6884b268ea28f21f22f" target="_top" xlink:title="x265::Search::generateCoeff\lRecon">
<polygon fill="white" stroke="black" points="1073,-74 1073,-104 1215,-104 1215,-74 1073,-74"/>
<text text-anchor="start" x="1081" y="-92" font-family="Helvetica,sans-Serif" font-size="10.00">x265::Search::generateCoeff</text>
<text text-anchor="middle" x="1144" y="-81" font-family="Helvetica,sans-Serif" font-size="10.00">Recon</text>
</a>
</g>
</g>
<!-- Node20&#45;&gt;Node22 -->
<g id="edge33" class="edge"><title>Node20&#45;&gt;Node22</title>
<path fill="none" stroke="midnightblue" d="M1040.23,-101.913C1051.17,-100.539 1062.24,-99.1483 1072.85,-97.8144"/>
<polygon fill="midnightblue" stroke="midnightblue" points="1039.72,-98.4495 1030.24,-103.169 1040.6,-105.395 1039.72,-98.4495"/>
</g>
<!-- Node21&#45;&gt;Node9 -->
<g id="edge32" class="edge"><title>Node21&#45;&gt;Node9</title>
<path fill="none" stroke="midnightblue" d="M1230.56,-26.4513C1345.82,-15.368 1555.92,-6.28353 1724,-61 1765.84,-74.6216 1806.72,-108.786 1825.01,-125.497"/>
<polygon fill="midnightblue" stroke="midnightblue" points="1229.99,-22.9902 1220.38,-27.4585 1230.68,-29.9562 1229.99,-22.9902"/>
</g>
<!-- Node22&#45;&gt;Node12 -->
<g id="edge34" class="edge"><title>Node22&#45;&gt;Node12</title>
<path fill="none" stroke="midnightblue" d="M1177.37,-109.609C1209.96,-130.314 1255.74,-159.274 1258,-160 1371.94,-196.555 1513.34,-194.823 1593.87,-189.751"/>
<polygon fill="midnightblue" stroke="midnightblue" points="1178.9,-106.43 1168.58,-104.019 1175.14,-112.337 1178.9,-106.43"/>
</g>
<!-- Node24 -->
<g id="node24" class="node"><title>Node24</title>
<g id="a_node24"><a xlink:href="classx265_1_1Search.html#a0ec5d297bb4eba4e9445ff67b35b95fa" target="_top" xlink:title="x265::Search::codeIntraChromaQt">
<polygon fill="white" stroke="black" points="670,-207.5 670,-226.5 836,-226.5 836,-207.5 670,-207.5"/>
<text text-anchor="middle" x="753" y="-214.5" font-family="Helvetica,sans-Serif" font-size="10.00">x265::Search::codeIntraChromaQt</text>
</a>
</g>
</g>
<!-- Node23&#45;&gt;Node24 -->
<g id="edge37" class="edge"><title>Node23&#45;&gt;Node24</title>
<path fill="none" stroke="midnightblue" d="M589.712,-115.598C610.357,-133.066 640.997,-157.682 670,-176 689.378,-188.239 712.901,-199.682 729.775,-207.352"/>
<polygon fill="midnightblue" stroke="midnightblue" points="591.923,-112.884 582.046,-109.051 587.377,-118.207 591.923,-112.884"/>
</g>
<!-- Node26 -->
<g id="node26" class="node"><title>Node26</title>
<g id="a_node26"><a xlink:href="classx265_1_1Search.html#a42170100e328cf2504b615ecb2579094" target="_top" xlink:title="x265::Search::residualQTIntra\lChroma">
<polygon fill="white" stroke="black" points="877.5,-49 877.5,-79 1024.5,-79 1024.5,-49 877.5,-49"/>
<text text-anchor="start" x="885.5" y="-67" font-family="Helvetica,sans-Serif" font-size="10.00">x265::Search::residualQTIntra</text>
<text text-anchor="middle" x="951" y="-56" font-family="Helvetica,sans-Serif" font-size="10.00">Chroma</text>
</a>
</g>
</g>
<!-- Node23&#45;&gt;Node26 -->
<g id="edge41" class="edge"><title>Node23&#45;&gt;Node26</title>
<path fill="none" stroke="midnightblue" d="M644.125,-87.8344C712.551,-82.5025 810.67,-74.8569 877.185,-69.6739"/>
<polygon fill="midnightblue" stroke="midnightblue" points="643.528,-84.3702 633.83,-88.6366 644.072,-91.3491 643.528,-84.3702"/>
</g>
<!-- Node27 -->
<g id="node27" class="node"><title>Node27</title>
<g id="a_node27"><a xlink:href="classx265_1_1Search.html#ad676dc0bcf94eea19260363b3b029755" target="_top" xlink:title="x265::Search::getBestIntra\lModeChroma">
<polygon fill="white" stroke="black" points="884,-0 884,-30 1018,-30 1018,-0 884,-0"/>
<text text-anchor="start" x="892" y="-18" font-family="Helvetica,sans-Serif" font-size="10.00">x265::Search::getBestIntra</text>
<text text-anchor="middle" x="951" y="-7" font-family="Helvetica,sans-Serif" font-size="10.00">ModeChroma</text>
</a>
</g>
</g>
<!-- Node23&#45;&gt;Node27 -->
<g id="edge44" class="edge"><title>Node23&#45;&gt;Node27</title>
<path fill="none" stroke="midnightblue" d="M639.186,-76.7443C649.524,-74.4269 660.02,-72.1202 670,-70 743.051,-54.4804 827.162,-38.1667 883.975,-27.3758"/>
<polygon fill="midnightblue" stroke="midnightblue" points="638.33,-73.3494 629.345,-78.9636 639.87,-80.1779 638.33,-73.3494"/>
</g>
<!-- Node25 -->
<g id="node25" class="node"><title>Node25</title>
<g id="a_node25"><a xlink:href="classx265_1_1Search.html#a70d466b561a7463b8ec5a213384ae667" target="_top" xlink:title="x265::Search::estIntraPred\lChromaQT">
<polygon fill="white" stroke="black" points="884,-224 884,-254 1018,-254 1018,-224 884,-224"/>
<text text-anchor="start" x="892" y="-242" font-family="Helvetica,sans-Serif" font-size="10.00">x265::Search::estIntraPred</text>
<text text-anchor="middle" x="951" y="-231" font-family="Helvetica,sans-Serif" font-size="10.00">ChromaQT</text>
</a>
</g>
</g>
<!-- Node24&#45;&gt;Node25 -->
<g id="edge38" class="edge"><title>Node24&#45;&gt;Node25</title>
<path fill="none" stroke="midnightblue" d="M846.339,-227.365C858.948,-228.78 871.683,-230.209 883.704,-231.559"/>
<polygon fill="midnightblue" stroke="midnightblue" points="846.598,-223.872 836.27,-226.234 845.817,-230.828 846.598,-223.872"/>
</g>
<!-- Node25&#45;&gt;Node14 -->
<g id="edge39" class="edge"><title>Node25&#45;&gt;Node14</title>
<path fill="none" stroke="midnightblue" d="M1028.28,-239C1043.69,-239 1059.8,-239 1074.91,-239"/>
<polygon fill="midnightblue" stroke="midnightblue" points="1028.27,-235.5 1018.27,-239 1028.27,-242.5 1028.27,-235.5"/>
</g>
<!-- Node25&#45;&gt;Node16 -->
<g id="edge40" class="edge"><title>Node25&#45;&gt;Node16</title>
<path fill="none" stroke="midnightblue" d="M1028.15,-222.247C1094.73,-207.414 1186.2,-186.531 1222,-176 1247.48,-168.504 1276.01,-158.077 1295.69,-150.556"/>
<polygon fill="midnightblue" stroke="midnightblue" points="1027.11,-218.894 1018.11,-224.482 1028.63,-225.727 1027.11,-218.894"/>
</g>
<!-- Node26&#45;&gt;Node21 -->
<g id="edge42" class="edge"><title>Node26&#45;&gt;Node21</title>
<path fill="none" stroke="midnightblue" d="M1034.67,-52.3133C1048.4,-50.3722 1062.5,-48.3801 1075.79,-46.5015"/>
<polygon fill="midnightblue" stroke="midnightblue" points="1034.17,-48.8501 1024.75,-53.7154 1035.15,-55.7812 1034.17,-48.8501"/>
</g>
<!-- Node26&#45;&gt;Node22 -->
<g id="edge43" class="edge"><title>Node26&#45;&gt;Node22</title>
<path fill="none" stroke="midnightblue" d="M1034.86,-74.8457C1047.57,-76.5088 1060.58,-78.2116 1072.97,-79.8337"/>
<polygon fill="midnightblue" stroke="midnightblue" points="1035.12,-71.3503 1024.75,-73.5227 1034.21,-78.2911 1035.12,-71.3503"/>
</g>
<!-- Node27&#45;&gt;Node21 -->
<g id="edge45" class="edge"><title>Node27&#45;&gt;Node21</title>
<path fill="none" stroke="midnightblue" d="M1028.22,-23.7792C1040.78,-25.2254 1053.8,-26.7252 1066.36,-28.1726"/>
<polygon fill="midnightblue" stroke="midnightblue" points="1028.6,-20.3001 1018.27,-22.6328 1027.8,-27.2542 1028.6,-20.3001"/>
</g>
<!-- Node27&#45;&gt;Node22 -->
<g id="edge46" class="edge"><title>Node27&#45;&gt;Node22</title>
<path fill="none" stroke="midnightblue" d="M1014.38,-33.3189C1019.7,-35.1443 1024.96,-37.0475 1030,-39 1046.5,-45.3959 1049.87,-48.736 1066,-56 1079.39,-62.0305 1094.21,-68.4391 1107.23,-73.9889"/>
<polygon fill="midnightblue" stroke="midnightblue" points="1015.39,-29.9664 1004.8,-30.1236 1013.18,-36.607 1015.39,-29.9664"/>
</g>
</g>
</svg>
