<?xml version="1.0" encoding="UTF-8" standalone="no"?>
<!DOCTYPE svg PUBLIC "-//W3C//DTD SVG 1.1//EN"
 "http://www.w3.org/Graphics/SVG/1.1/DTD/svg11.dtd">
<!-- Generated by graphviz version 2.36.0 (20140111.2315)
 -->
<!-- Title: x265::CUData::getPartIndexAndSize Pages: 1 -->
<svg width="1424pt" height="353pt"
 viewBox="0.00 0.00 1424.00 352.88" xmlns="http://www.w3.org/2000/svg" xmlns:xlink="http://www.w3.org/1999/xlink">
<g id="graph0" class="graph" transform="scale(1 1) rotate(0) translate(4 348.877)">
<title>x265::CUData::getPartIndexAndSize</title>
<polygon fill="white" stroke="none" points="-4,4 -4,-348.877 1420,-348.877 1420,4 -4,4"/>
<!-- Node1 -->
<g id="node1" class="node"><title>Node1</title>
<polygon fill="#bfbfbf" stroke="black" points="0.5,-177.749 0.5,-207.749 141.5,-207.749 141.5,-177.749 0.5,-177.749"/>
<text text-anchor="start" x="8.5" y="-195.749" font-family="Helvetica,sans-Serif" font-size="10.00">x265::CUData::getPartIndex</text>
<text text-anchor="middle" x="71" y="-184.749" font-family="Helvetica,sans-Serif" font-size="10.00">AndSize</text>
</g>
<!-- Node2 -->
<g id="node2" class="node"><title>Node2</title>
<g id="a_node2"><a xlink:href="classx265_1_1CUData.html#ab72d25343c97e9862001adb9e470237f" target="_top" xlink:title="x265::CUData::deriveCenterIdx">
<polygon fill="white" stroke="black" points="178.5,-213.249 178.5,-232.249 333.5,-232.249 333.5,-213.249 178.5,-213.249"/>
<text text-anchor="middle" x="256" y="-220.249" font-family="Helvetica,sans-Serif" font-size="10.00">x265::CUData::deriveCenterIdx</text>
</a>
</g>
</g>
<!-- Node1&#45;&gt;Node2 -->
<g id="edge1" class="edge"><title>Node1&#45;&gt;Node2</title>
<path fill="none" stroke="midnightblue" d="M151.607,-205.799C166.799,-208.29 182.435,-210.853 196.803,-213.209"/>
<polygon fill="midnightblue" stroke="midnightblue" points="152.141,-202.34 141.706,-204.176 151.009,-209.248 152.141,-202.34"/>
</g>
<!-- Node18 -->
<g id="node18" class="node"><title>Node18</title>
<g id="a_node18"><a xlink:href="classx265_1_1Predict.html#a494c21fed3f3ee34543c24b780abfa49" target="_top" xlink:title="x265::Predict::prepMotion\lCompensation">
<polygon fill="white" stroke="black" points="379,-106.749 379,-136.749 507,-136.749 507,-106.749 379,-106.749"/>
<text text-anchor="start" x="387" y="-124.749" font-family="Helvetica,sans-Serif" font-size="10.00">x265::Predict::prepMotion</text>
<text text-anchor="middle" x="443" y="-113.749" font-family="Helvetica,sans-Serif" font-size="10.00">Compensation</text>
</a>
</g>
</g>
<!-- Node1&#45;&gt;Node18 -->
<g id="edge24" class="edge"><title>Node1&#45;&gt;Node18</title>
<path fill="none" stroke="midnightblue" d="M151.832,-177.43C219.82,-164.384 316.184,-145.892 378.887,-133.86"/>
<polygon fill="midnightblue" stroke="midnightblue" points="150.755,-174.073 141.594,-179.394 152.075,-180.947 150.755,-174.073"/>
</g>
<!-- Node3 -->
<g id="node3" class="node"><title>Node3</title>
<g id="a_node3"><a xlink:href="classx265_1_1CUData.html#a0a0813a6acf261b95304a250aec73c3b" target="_top" xlink:title="x265::CUData::getInterMerge\lCandidates">
<polygon fill="white" stroke="black" points="370,-207.749 370,-237.749 516,-237.749 516,-207.749 370,-207.749"/>
<text text-anchor="start" x="378" y="-225.749" font-family="Helvetica,sans-Serif" font-size="10.00">x265::CUData::getInterMerge</text>
<text text-anchor="middle" x="443" y="-214.749" font-family="Helvetica,sans-Serif" font-size="10.00">Candidates</text>
</a>
</g>
</g>
<!-- Node2&#45;&gt;Node3 -->
<g id="edge2" class="edge"><title>Node2&#45;&gt;Node3</title>
<path fill="none" stroke="midnightblue" d="M343.8,-222.749C352.546,-222.749 361.361,-222.749 369.929,-222.749"/>
<polygon fill="midnightblue" stroke="midnightblue" points="343.582,-219.249 333.582,-222.749 343.582,-226.249 343.582,-219.249"/>
</g>
<!-- Node14 -->
<g id="node14" class="node"><title>Node14</title>
<g id="a_node14"><a xlink:href="classx265_1_1CUData.html#ae34dd24258f1cfa1cf930a9dee773bce" target="_top" xlink:title="x265::CUData::fillMvpCand">
<polygon fill="white" stroke="black" points="374.5,-301.249 374.5,-320.249 511.5,-320.249 511.5,-301.249 374.5,-301.249"/>
<text text-anchor="middle" x="443" y="-308.249" font-family="Helvetica,sans-Serif" font-size="10.00">x265::CUData::fillMvpCand</text>
</a>
</g>
</g>
<!-- Node2&#45;&gt;Node14 -->
<g id="edge17" class="edge"><title>Node2&#45;&gt;Node14</title>
<path fill="none" stroke="midnightblue" d="M286.633,-236.845C324.551,-254.881 389.223,-285.645 421.874,-301.176"/>
<polygon fill="midnightblue" stroke="midnightblue" points="287.684,-233.469 277.15,-232.334 284.677,-239.79 287.684,-233.469"/>
</g>
<!-- Node4 -->
<g id="node4" class="node"><title>Node4</title>
<g id="a_node4"><a xlink:href="classx265_1_1Analysis.html#addd72cb95590e2b2a6965d42d110eab3" target="_top" xlink:title="x265::Analysis::checkMerge2\lNx2N_rd0_4">
<polygon fill="white" stroke="black" points="744,-111.749 744,-141.749 890,-141.749 890,-111.749 744,-111.749"/>
<text text-anchor="start" x="752" y="-129.749" font-family="Helvetica,sans-Serif" font-size="10.00">x265::Analysis::checkMerge2</text>
<text text-anchor="middle" x="817" y="-118.749" font-family="Helvetica,sans-Serif" font-size="10.00">Nx2N_rd0_4</text>
</a>
</g>
</g>
<!-- Node3&#45;&gt;Node4 -->
<g id="edge3" class="edge"><title>Node3&#45;&gt;Node4</title>
<path fill="none" stroke="midnightblue" d="M512.64,-205.035C583.068,-186.86 691.449,-158.891 757.807,-141.767"/>
<polygon fill="midnightblue" stroke="midnightblue" points="511.342,-201.756 502.534,-207.643 513.092,-208.534 511.342,-201.756"/>
</g>
<!-- Node8 -->
<g id="node8" class="node"><title>Node8</title>
<g id="a_node8"><a xlink:href="classx265_1_1Analysis.html#a0194a9da53aa95173fa1132ba3aea1c7" target="_top" xlink:title="x265::Analysis::checkMerge2\lNx2N_rd5_6">
<polygon fill="white" stroke="black" points="556,-207.749 556,-237.749 702,-237.749 702,-207.749 556,-207.749"/>
<text text-anchor="start" x="564" y="-225.749" font-family="Helvetica,sans-Serif" font-size="10.00">x265::Analysis::checkMerge2</text>
<text text-anchor="middle" x="629" y="-214.749" font-family="Helvetica,sans-Serif" font-size="10.00">Nx2N_rd5_6</text>
</a>
</g>
</g>
<!-- Node3&#45;&gt;Node8 -->
<g id="edge8" class="edge"><title>Node3&#45;&gt;Node8</title>
<path fill="none" stroke="midnightblue" d="M526.33,-222.749C536.127,-222.749 546.071,-222.749 555.713,-222.749"/>
<polygon fill="midnightblue" stroke="midnightblue" points="526.194,-219.249 516.194,-222.749 526.194,-226.249 526.194,-219.249"/>
</g>
<!-- Node10 -->
<g id="node10" class="node"><title>Node10</title>
<g id="a_node10"><a xlink:href="classx265_1_1Search.html#a761560ef5d3ff0beb48567c88c771d55" target="_top" xlink:title="x265::Search::mergeEstimation">
<polygon fill="white" stroke="black" points="552,-257.249 552,-276.249 706,-276.249 706,-257.249 552,-257.249"/>
<text text-anchor="middle" x="629" y="-264.249" font-family="Helvetica,sans-Serif" font-size="10.00">x265::Search::mergeEstimation</text>
</a>
</g>
</g>
<!-- Node3&#45;&gt;Node10 -->
<g id="edge11" class="edge"><title>Node3&#45;&gt;Node10</title>
<path fill="none" stroke="midnightblue" d="M516.748,-240.145C541.104,-245.97 567.344,-252.244 588.221,-257.237"/>
<polygon fill="midnightblue" stroke="midnightblue" points="517.348,-236.69 506.808,-237.768 515.719,-243.498 517.348,-236.69"/>
</g>
<!-- Node5 -->
<g id="node5" class="node"><title>Node5</title>
<g id="a_node5"><a xlink:href="classx265_1_1Analysis.html#a87060ff27a37f56adc5f5b8a4c033ece" target="_top" xlink:title="x265::Analysis::compress\lInterCU_dist">
<polygon fill="white" stroke="black" points="1098,-44.749 1098,-74.749 1228,-74.749 1228,-44.749 1098,-44.749"/>
<text text-anchor="start" x="1106" y="-62.749" font-family="Helvetica,sans-Serif" font-size="10.00">x265::Analysis::compress</text>
<text text-anchor="middle" x="1163" y="-51.749" font-family="Helvetica,sans-Serif" font-size="10.00">InterCU_dist</text>
</a>
</g>
</g>
<!-- Node4&#45;&gt;Node5 -->
<g id="edge4" class="edge"><title>Node4&#45;&gt;Node5</title>
<path fill="none" stroke="midnightblue" d="M900.031,-110.772C960.616,-98.9721 1041.93,-83.1351 1097.81,-72.2519"/>
<polygon fill="midnightblue" stroke="midnightblue" points="899.26,-107.356 890.114,-112.704 900.598,-114.227 899.26,-107.356"/>
</g>
<!-- Node7 -->
<g id="node7" class="node"><title>Node7</title>
<g id="a_node7"><a xlink:href="classx265_1_1Analysis.html#a30d2ff7eca5addbb0a6b3dfe14f09650" target="_top" xlink:title="x265::Analysis::compress\lInterCU_rd0_4">
<polygon fill="white" stroke="black" points="1098,-122.749 1098,-152.749 1228,-152.749 1228,-122.749 1098,-122.749"/>
<text text-anchor="start" x="1106" y="-140.749" font-family="Helvetica,sans-Serif" font-size="10.00">x265::Analysis::compress</text>
<text text-anchor="middle" x="1163" y="-129.749" font-family="Helvetica,sans-Serif" font-size="10.00">InterCU_rd0_4</text>
</a>
</g>
</g>
<!-- Node4&#45;&gt;Node7 -->
<g id="edge6" class="edge"><title>Node4&#45;&gt;Node7</title>
<path fill="none" stroke="midnightblue" d="M900.406,-129.384C960.951,-131.32 1042.04,-133.913 1097.81,-135.696"/>
<polygon fill="midnightblue" stroke="midnightblue" points="900.22,-125.876 890.114,-129.055 899.997,-132.873 900.22,-125.876"/>
</g>
<!-- Node6 -->
<g id="node6" class="node"><title>Node6</title>
<g id="a_node6"><a xlink:href="classx265_1_1Analysis.html#aaebc9de2ff98834c650244f3b58942c2" target="_top" xlink:title="x265::Analysis::compressCTU">
<polygon fill="white" stroke="red" points="1264.5,-128.249 1264.5,-147.249 1415.5,-147.249 1415.5,-128.249 1264.5,-128.249"/>
<text text-anchor="middle" x="1340" y="-135.249" font-family="Helvetica,sans-Serif" font-size="10.00">x265::Analysis::compressCTU</text>
</a>
</g>
</g>
<!-- Node5&#45;&gt;Node6 -->
<g id="edge5" class="edge"><title>Node5&#45;&gt;Node6</title>
<path fill="none" stroke="midnightblue" d="M1207.25,-79.0278C1242.28,-94.6408 1290.15,-115.977 1317.5,-128.165"/>
<polygon fill="midnightblue" stroke="midnightblue" points="1208.3,-75.6625 1197.74,-74.7882 1205.45,-82.0562 1208.3,-75.6625"/>
</g>
<!-- Node7&#45;&gt;Node6 -->
<g id="edge7" class="edge"><title>Node7&#45;&gt;Node6</title>
<path fill="none" stroke="midnightblue" d="M1238.25,-137.749C1246.93,-137.749 1255.78,-137.749 1264.47,-137.749"/>
<polygon fill="midnightblue" stroke="midnightblue" points="1238.17,-134.249 1228.17,-137.749 1238.17,-141.249 1238.17,-134.249"/>
</g>
<!-- Node9 -->
<g id="node9" class="node"><title>Node9</title>
<g id="a_node9"><a xlink:href="classx265_1_1Analysis.html#a0b22b7765aa4a36b1ba6d07ba26901e6" target="_top" xlink:title="x265::Analysis::compress\lInterCU_rd5_6">
<polygon fill="white" stroke="black" points="1098,-171.749 1098,-201.749 1228,-201.749 1228,-171.749 1098,-171.749"/>
<text text-anchor="start" x="1106" y="-189.749" font-family="Helvetica,sans-Serif" font-size="10.00">x265::Analysis::compress</text>
<text text-anchor="middle" x="1163" y="-178.749" font-family="Helvetica,sans-Serif" font-size="10.00">InterCU_rd5_6</text>
</a>
</g>
</g>
<!-- Node8&#45;&gt;Node9 -->
<g id="edge9" class="edge"><title>Node8&#45;&gt;Node9</title>
<path fill="none" stroke="midnightblue" d="M712.054,-217.196C818.225,-210.012 1001.01,-197.643 1097.69,-191.101"/>
<polygon fill="midnightblue" stroke="midnightblue" points="711.765,-213.708 702.025,-217.875 712.238,-220.692 711.765,-213.708"/>
</g>
<!-- Node9&#45;&gt;Node6 -->
<g id="edge10" class="edge"><title>Node9&#45;&gt;Node6</title>
<path fill="none" stroke="midnightblue" d="M1227.79,-168.889C1253.94,-161.567 1283.15,-153.388 1305.06,-147.251"/>
<polygon fill="midnightblue" stroke="midnightblue" points="1226.62,-165.581 1217.93,-171.648 1228.51,-172.322 1226.62,-165.581"/>
</g>
<!-- Node11 -->
<g id="node11" class="node"><title>Node11</title>
<g id="a_node11"><a xlink:href="classx265_1_1Search.html#a48101e3d900e93b97a83f461be390bd1" target="_top" xlink:title="x265::Search::predInterSearch">
<polygon fill="white" stroke="black" points="742.5,-259.249 742.5,-278.249 891.5,-278.249 891.5,-259.249 742.5,-259.249"/>
<text text-anchor="middle" x="817" y="-266.249" font-family="Helvetica,sans-Serif" font-size="10.00">x265::Search::predInterSearch</text>
</a>
</g>
</g>
<!-- Node10&#45;&gt;Node11 -->
<g id="edge12" class="edge"><title>Node10&#45;&gt;Node11</title>
<path fill="none" stroke="midnightblue" d="M716.336,-267.677C725.024,-267.771 733.791,-267.865 742.33,-267.957"/>
<polygon fill="midnightblue" stroke="midnightblue" points="716.227,-264.176 706.19,-267.568 716.152,-271.176 716.227,-264.176"/>
</g>
<!-- Node12 -->
<g id="node12" class="node"><title>Node12</title>
<g id="a_node12"><a xlink:href="classx265_1_1Analysis.html#a2305f7985af66b49fdbc40ebb1b281d2" target="_top" xlink:title="x265::Analysis::checkInter\l_rd0_4">
<polygon fill="white" stroke="red" points="928.5,-212.749 928.5,-242.749 1061.5,-242.749 1061.5,-212.749 928.5,-212.749"/>
<text text-anchor="start" x="936.5" y="-230.749" font-family="Helvetica,sans-Serif" font-size="10.00">x265::Analysis::checkInter</text>
<text text-anchor="middle" x="995" y="-219.749" font-family="Helvetica,sans-Serif" font-size="10.00">_rd0_4</text>
</a>
</g>
</g>
<!-- Node11&#45;&gt;Node12 -->
<g id="edge13" class="edge"><title>Node11&#45;&gt;Node12</title>
<path fill="none" stroke="midnightblue" d="M868.706,-256.937C887.596,-252.536 909.298,-247.481 929.276,-242.827"/>
<polygon fill="midnightblue" stroke="midnightblue" points="867.765,-253.562 858.82,-259.24 869.354,-260.38 867.765,-253.562"/>
</g>
<!-- Node13 -->
<g id="node13" class="node"><title>Node13</title>
<g id="a_node13"><a xlink:href="classx265_1_1Analysis.html#a828daa3e9f1ed40a1af9f99f7ff7bb33" target="_top" xlink:title="x265::Analysis::checkInter\l_rd5_6">
<polygon fill="white" stroke="black" points="928.5,-261.749 928.5,-291.749 1061.5,-291.749 1061.5,-261.749 928.5,-261.749"/>
<text text-anchor="start" x="936.5" y="-279.749" font-family="Helvetica,sans-Serif" font-size="10.00">x265::Analysis::checkInter</text>
<text text-anchor="middle" x="995" y="-268.749" font-family="Helvetica,sans-Serif" font-size="10.00">_rd5_6</text>
</a>
</g>
</g>
<!-- Node11&#45;&gt;Node13 -->
<g id="edge15" class="edge"><title>Node11&#45;&gt;Node13</title>
<path fill="none" stroke="midnightblue" d="M901.653,-272.551C910.579,-272.957 919.564,-273.366 928.241,-273.76"/>
<polygon fill="midnightblue" stroke="midnightblue" points="901.769,-269.053 891.62,-272.095 901.451,-276.046 901.769,-269.053"/>
</g>
<!-- Node12&#45;&gt;Node7 -->
<g id="edge14" class="edge"><title>Node12&#45;&gt;Node7</title>
<path fill="none" stroke="midnightblue" d="M1024.62,-206.842C1044.54,-192.901 1072.07,-174.806 1098,-161.749 1104.36,-158.546 1111.25,-155.527 1118.08,-152.78"/>
<polygon fill="midnightblue" stroke="midnightblue" points="1022.45,-204.092 1016.31,-212.728 1026.5,-209.805 1022.45,-204.092"/>
</g>
<!-- Node13&#45;&gt;Node9 -->
<g id="edge16" class="edge"><title>Node13&#45;&gt;Node9</title>
<path fill="none" stroke="midnightblue" d="M1049.38,-257.666C1053.7,-255.779 1057.96,-253.799 1062,-251.749 1091,-237.048 1122.04,-215.932 1141.71,-201.798"/>
<polygon fill="midnightblue" stroke="midnightblue" points="1047.76,-254.552 1039.88,-261.639 1050.46,-261.009 1047.76,-254.552"/>
</g>
<!-- Node14&#45;&gt;Node11 -->
<g id="edge23" class="edge"><title>Node14&#45;&gt;Node11</title>
<path fill="none" stroke="midnightblue" d="M483.932,-323.112C535.996,-337.273 629.448,-355.953 706,-334.749 745.921,-323.692 785.9,-293.861 804.779,-278.374"/>
<polygon fill="midnightblue" stroke="midnightblue" points="484.661,-319.681 474.088,-320.353 482.772,-326.422 484.661,-319.681"/>
</g>
<!-- Node15 -->
<g id="node15" class="node"><title>Node15</title>
<g id="a_node15"><a xlink:href="classx265_1_1Search.html#a47294b1b3d67ab31cb6be412407982d5" target="_top" xlink:title="x265::Search::singleMotion\lEstimation">
<polygon fill="white" stroke="black" points="561.5,-295.749 561.5,-325.749 696.5,-325.749 696.5,-295.749 561.5,-295.749"/>
<text text-anchor="start" x="569.5" y="-313.749" font-family="Helvetica,sans-Serif" font-size="10.00">x265::Search::singleMotion</text>
<text text-anchor="middle" x="629" y="-302.749" font-family="Helvetica,sans-Serif" font-size="10.00">Estimation</text>
</a>
</g>
</g>
<!-- Node14&#45;&gt;Node15 -->
<g id="edge18" class="edge"><title>Node14&#45;&gt;Node15</title>
<path fill="none" stroke="midnightblue" d="M522.1,-310.749C535.157,-310.749 548.596,-310.749 561.333,-310.749"/>
<polygon fill="midnightblue" stroke="midnightblue" points="521.731,-307.249 511.731,-310.749 521.731,-314.249 521.731,-307.249"/>
</g>
<!-- Node15&#45;&gt;Node11 -->
<g id="edge22" class="edge"><title>Node15&#45;&gt;Node11</title>
<path fill="none" stroke="midnightblue" d="M706.401,-293.497C729.452,-288.292 753.909,-282.769 773.858,-278.265"/>
<polygon fill="midnightblue" stroke="midnightblue" points="705.608,-290.088 696.625,-295.705 707.15,-296.916 705.608,-290.088"/>
</g>
<!-- Node16 -->
<g id="node16" class="node"><title>Node16</title>
<g id="a_node16"><a xlink:href="classx265_1_1Analysis.html#abd49473ae6e5e1f7e555b447b04398e6" target="_top" xlink:title="x265::Analysis::parallelME">
<polygon fill="white" stroke="black" points="750.5,-17.249 750.5,-36.249 883.5,-36.249 883.5,-17.249 750.5,-17.249"/>
<text text-anchor="middle" x="817" y="-24.249" font-family="Helvetica,sans-Serif" font-size="10.00">x265::Analysis::parallelME</text>
</a>
</g>
</g>
<!-- Node15&#45;&gt;Node16 -->
<g id="edge19" class="edge"><title>Node15&#45;&gt;Node16</title>
<path fill="none" stroke="midnightblue" d="M702.289,-289.517C703.591,-288.328 704.831,-287.074 706,-285.749 761.14,-223.273 703.082,-175.431 742,-101.749 756.78,-73.7675 785.378,-49.3538 802.369,-36.4643"/>
<polygon fill="midnightblue" stroke="midnightblue" points="700.085,-286.795 694.23,-295.624 704.314,-292.374 700.085,-286.795"/>
</g>
<!-- Node17 -->
<g id="node17" class="node"><title>Node17</title>
<g id="a_node17"><a xlink:href="classx265_1_1Analysis.html#a29a58dad4cc1c07d2f5e5717c6be7c25" target="_top" xlink:title="x265::Analysis::findJob">
<polygon fill="white" stroke="black" points="935.5,-17.249 935.5,-36.249 1054.5,-36.249 1054.5,-17.249 935.5,-17.249"/>
<text text-anchor="middle" x="995" y="-24.249" font-family="Helvetica,sans-Serif" font-size="10.00">x265::Analysis::findJob</text>
</a>
</g>
</g>
<!-- Node16&#45;&gt;Node17 -->
<g id="edge20" class="edge"><title>Node16&#45;&gt;Node17</title>
<path fill="none" stroke="midnightblue" d="M893.617,-26.749C907.593,-26.749 921.994,-26.749 935.372,-26.749"/>
<polygon fill="midnightblue" stroke="midnightblue" points="893.536,-23.2491 883.536,-26.749 893.536,-30.2491 893.536,-23.2491"/>
</g>
<!-- Node17&#45;&gt;Node5 -->
<g id="edge21" class="edge"><title>Node17&#45;&gt;Node5</title>
<path fill="none" stroke="midnightblue" d="M1054.07,-38.2936C1068.18,-41.098 1083.35,-44.113 1097.72,-46.9708"/>
<polygon fill="midnightblue" stroke="midnightblue" points="1054.5,-34.811 1044.01,-36.294 1053.14,-41.6767 1054.5,-34.811"/>
</g>
<!-- Node18&#45;&gt;Node4 -->
<g id="edge28" class="edge"><title>Node18&#45;&gt;Node4</title>
<path fill="none" stroke="midnightblue" d="M517.376,-122.735C583.039,-123.618 678.735,-124.904 743.98,-125.781"/>
<polygon fill="midnightblue" stroke="midnightblue" points="517.151,-119.232 507.105,-122.597 517.057,-126.231 517.151,-119.232"/>
</g>
<!-- Node18&#45;&gt;Node5 -->
<g id="edge26" class="edge"><title>Node18&#45;&gt;Node5</title>
<path fill="none" stroke="midnightblue" d="M461.035,-98.6307C480.178,-74.6693 513.641,-38.4328 552,-21.749 627.509,11.0922 1036.42,-1.49501 1062,-7.74902 1091.08,-14.8586 1121.12,-32.0441 1140.59,-44.7221"/>
<polygon fill="midnightblue" stroke="midnightblue" points="458.257,-96.501 454.877,-106.542 463.781,-100.801 458.257,-96.501"/>
</g>
<!-- Node18&#45;&gt;Node7 -->
<g id="edge27" class="edge"><title>Node18&#45;&gt;Node7</title>
<path fill="none" stroke="midnightblue" d="M517.073,-113.519C605.802,-104.672 759.975,-92.9862 892,-101.749 962.779,-106.447 1043.31,-117.999 1097.87,-126.76"/>
<polygon fill="midnightblue" stroke="midnightblue" points="516.707,-110.038 507.111,-114.528 517.413,-117.002 516.707,-110.038"/>
</g>
<!-- Node18&#45;&gt;Node8 -->
<g id="edge29" class="edge"><title>Node18&#45;&gt;Node8</title>
<path fill="none" stroke="midnightblue" d="M480.579,-141.828C515.929,-161.232 568.681,-190.188 600.566,-207.69"/>
<polygon fill="midnightblue" stroke="midnightblue" points="481.997,-138.613 471.547,-136.87 478.629,-144.75 481.997,-138.613"/>
</g>
<!-- Node18&#45;&gt;Node10 -->
<g id="edge30" class="edge"><title>Node18&#45;&gt;Node10</title>
<path fill="none" stroke="midnightblue" d="M466.653,-144.164C481.234,-158.949 500.321,-178.983 516,-197.749 533.326,-218.487 529.655,-231.552 552,-246.749 558.431,-251.122 565.765,-254.54 573.283,-257.21"/>
<polygon fill="midnightblue" stroke="midnightblue" points="469.012,-141.572 459.481,-136.946 464.046,-146.506 469.012,-141.572"/>
</g>
<!-- Node18&#45;&gt;Node11 -->
<g id="edge31" class="edge"><title>Node18&#45;&gt;Node11</title>
<path fill="none" stroke="midnightblue" d="M517.016,-136.902C570.729,-149.475 644.741,-169.821 706,-197.749 744.055,-215.098 784.232,-244.187 803.821,-259.177"/>
<polygon fill="midnightblue" stroke="midnightblue" points="517.761,-133.482 507.231,-134.645 516.188,-140.303 517.761,-133.482"/>
</g>
<!-- Node18&#45;&gt;Node16 -->
<g id="edge25" class="edge"><title>Node18&#45;&gt;Node16</title>
<path fill="none" stroke="midnightblue" d="M469.223,-99.9367C489.966,-83.3579 520.908,-61.6117 552,-50.749 616.845,-28.0943 695.813,-23.6978 750.395,-23.9704"/>
<polygon fill="midnightblue" stroke="midnightblue" points="466.781,-97.4125 461.257,-106.453 471.213,-102.831 466.781,-97.4125"/>
</g>
</g>
</svg>
