<?xml version="1.0" encoding="UTF-8" standalone="no"?>
<!DOCTYPE svg PUBLIC "-//W3C//DTD SVG 1.1//EN"
 "http://www.w3.org/Graphics/SVG/1.1/DTD/svg11.dtd">
<!-- Generated by graphviz version 2.36.0 (20140111.2315)
 -->
<!-- Title: x265::Entropy::codeTransformSubdivFlag Pages: 1 -->
<svg width="2066pt" height="440pt"
 viewBox="0.00 0.00 2066.00 439.73" xmlns="http://www.w3.org/2000/svg" xmlns:xlink="http://www.w3.org/1999/xlink">
<g id="graph0" class="graph" transform="scale(1 1) rotate(0) translate(4 435.727)">
<title>x265::Entropy::codeTransformSubdivFlag</title>
<polygon fill="white" stroke="none" points="-4,4 -4,-435.727 2062,-435.727 2062,4 -4,4"/>
<!-- Node1 -->
<g id="node1" class="node"><title>Node1</title>
<polygon fill="#bfbfbf" stroke="black" points="0.5,-198.971 0.5,-228.971 149.5,-228.971 149.5,-198.971 0.5,-198.971"/>
<text text-anchor="start" x="8.5" y="-216.971" font-family="Helvetica,sans-Serif" font-size="10.00">x265::Entropy::codeTransform</text>
<text text-anchor="middle" x="75" y="-205.971" font-family="Helvetica,sans-Serif" font-size="10.00">SubdivFlag</text>
</g>
<!-- Node2 -->
<g id="node2" class="node"><title>Node2</title>
<g id="a_node2"><a xlink:href="classx265_1_1Entropy.html#af0793a415273d86dc38b396dae9f9db3" target="_top" xlink:title="x265::Entropy::encodeTransform">
<polygon fill="white" stroke="black" points="191.5,-223.471 191.5,-242.471 350.5,-242.471 350.5,-223.471 191.5,-223.471"/>
<text text-anchor="middle" x="271" y="-230.471" font-family="Helvetica,sans-Serif" font-size="10.00">x265::Entropy::encodeTransform</text>
</a>
</g>
</g>
<!-- Node1&#45;&gt;Node2 -->
<g id="edge1" class="edge"><title>Node1&#45;&gt;Node2</title>
<path fill="none" stroke="midnightblue" d="M159.609,-222.159C170.113,-223.188 180.831,-224.238 191.257,-225.259"/>
<polygon fill="midnightblue" stroke="midnightblue" points="159.913,-218.673 149.62,-221.181 159.231,-225.639 159.913,-218.673"/>
</g>
<!-- Node25 -->
<g id="node25" class="node"><title>Node25</title>
<g id="a_node25"><a xlink:href="classx265_1_1Search.html#a59b84ac1e21c86af579b6e84e43c5b7a" target="_top" xlink:title="x265::Search::codeIntraLumaQT">
<polygon fill="white" stroke="black" points="401,-261.471 401,-280.471 559,-280.471 559,-261.471 401,-261.471"/>
<text text-anchor="middle" x="480" y="-268.471" font-family="Helvetica,sans-Serif" font-size="10.00">x265::Search::codeIntraLumaQT</text>
</a>
</g>
</g>
<!-- Node1&#45;&gt;Node25 -->
<g id="edge41" class="edge"><title>Node1&#45;&gt;Node25</title>
<path fill="none" stroke="midnightblue" d="M121.532,-232.771C141.051,-240.02 164.311,-247.604 186,-251.971 257.835,-266.434 341.381,-270.646 400.836,-271.558"/>
<polygon fill="midnightblue" stroke="midnightblue" points="122.576,-229.424 111.985,-229.142 120.089,-235.967 122.576,-229.424"/>
</g>
<!-- Node27 -->
<g id="node27" class="node"><title>Node27</title>
<g id="a_node27"><a xlink:href="classx265_1_1Search.html#a9f01b6f04dca31dca9f16e60d1c029b3" target="_top" xlink:title="x265::Search::xEstimateResidualQT">
<polygon fill="white" stroke="black" points="392,-147.471 392,-166.471 568,-166.471 568,-147.471 392,-147.471"/>
<text text-anchor="middle" x="480" y="-154.471" font-family="Helvetica,sans-Serif" font-size="10.00">x265::Search::xEstimateResidualQT</text>
</a>
</g>
</g>
<!-- Node1&#45;&gt;Node27 -->
<g id="edge45" class="edge"><title>Node1&#45;&gt;Node27</title>
<path fill="none" stroke="midnightblue" d="M159.907,-202.993C215.559,-195.611 290.186,-185.519 356,-175.971 376.421,-173.008 398.724,-169.612 418.662,-166.518"/>
<polygon fill="midnightblue" stroke="midnightblue" points="159.197,-199.556 149.743,-204.339 160.116,-206.496 159.197,-199.556"/>
</g>
<!-- Node28 -->
<g id="node28" class="node"><title>Node28</title>
<g id="a_node28"><a xlink:href="classx265_1_1Search.html#a52f183b79fbb6d1aa3255084d89e01c6" target="_top" xlink:title="x265::Search::xEncodeResidualQT">
<polygon fill="white" stroke="black" points="186,-147.471 186,-166.471 356,-166.471 356,-147.471 186,-147.471"/>
<text text-anchor="middle" x="271" y="-154.471" font-family="Helvetica,sans-Serif" font-size="10.00">x265::Search::xEncodeResidualQT</text>
</a>
</g>
</g>
<!-- Node1&#45;&gt;Node28 -->
<g id="edge47" class="edge"><title>Node1&#45;&gt;Node28</title>
<path fill="none" stroke="midnightblue" d="M135.494,-195.967C151.851,-191.06 169.6,-185.774 186,-180.971 202.448,-176.154 220.742,-170.914 236.047,-166.562"/>
<polygon fill="midnightblue" stroke="midnightblue" points="134.085,-192.736 125.515,-198.966 136.099,-199.44 134.085,-192.736"/>
</g>
<!-- Node3 -->
<g id="node3" class="node"><title>Node3</title>
<g id="a_node3"><a xlink:href="classx265_1_1Entropy.html#a220326e32d9be80554bf11194ef2c642" target="_top" xlink:title="x265::Entropy::codeCoeff">
<polygon fill="white" stroke="black" points="416,-223.471 416,-242.471 544,-242.471 544,-223.471 416,-223.471"/>
<text text-anchor="middle" x="480" y="-230.471" font-family="Helvetica,sans-Serif" font-size="10.00">x265::Entropy::codeCoeff</text>
</a>
</g>
</g>
<!-- Node2&#45;&gt;Node3 -->
<g id="edge2" class="edge"><title>Node2&#45;&gt;Node3</title>
<path fill="none" stroke="midnightblue" d="M360.783,-232.971C379.345,-232.971 398.551,-232.971 415.948,-232.971"/>
<polygon fill="midnightblue" stroke="midnightblue" points="360.553,-229.471 350.553,-232.971 360.553,-236.471 360.553,-229.471"/>
</g>
<!-- Node4 -->
<g id="node4" class="node"><title>Node4</title>
<g id="a_node4"><a xlink:href="classx265_1_1Analysis.html#ae4d61bcf4d2c22a054d68d6d77136428" target="_top" xlink:title="x265::Analysis::encodeIntra\lInInter">
<polygon fill="white" stroke="black" points="609,-299.971 609,-329.971 747,-329.971 747,-299.971 609,-299.971"/>
<text text-anchor="start" x="617" y="-317.971" font-family="Helvetica,sans-Serif" font-size="10.00">x265::Analysis::encodeIntra</text>
<text text-anchor="middle" x="678" y="-306.971" font-family="Helvetica,sans-Serif" font-size="10.00">InInter</text>
</a>
</g>
</g>
<!-- Node3&#45;&gt;Node4 -->
<g id="edge3" class="edge"><title>Node3&#45;&gt;Node4</title>
<path fill="none" stroke="midnightblue" d="M553.963,-245.414C558.84,-247.3 563.569,-249.471 568,-251.971 588.262,-263.403 584.429,-277.394 604,-289.971 609.86,-293.737 616.352,-297.005 622.976,-299.821"/>
<polygon fill="midnightblue" stroke="midnightblue" points="555.034,-242.081 544.439,-242.128 552.751,-248.698 555.034,-242.081"/>
</g>
<!-- Node14 -->
<g id="node14" class="node"><title>Node14</title>
<g id="a_node14"><a xlink:href="classx265_1_1Entropy.html#adeb50a7c9a5df6643407d01158d93799" target="_top" xlink:title="x265::Entropy::encodeCU">
<polygon fill="white" stroke="black" points="613,-41.4709 613,-60.4709 743,-60.4709 743,-41.4709 613,-41.4709"/>
<text text-anchor="middle" x="678" y="-48.4709" font-family="Helvetica,sans-Serif" font-size="10.00">x265::Entropy::encodeCU</text>
</a>
</g>
</g>
<!-- Node3&#45;&gt;Node14 -->
<g id="edge15" class="edge"><title>Node3&#45;&gt;Node14</title>
<path fill="none" stroke="midnightblue" d="M507.457,-218.228C525.417,-207.617 549.22,-192.337 568,-175.971 611.631,-137.947 653.943,-82.5738 670.11,-60.5357"/>
<polygon fill="midnightblue" stroke="midnightblue" points="505.55,-215.288 498.655,-223.333 509.062,-221.344 505.55,-215.288"/>
</g>
<!-- Node17 -->
<g id="node17" class="node"><title>Node17</title>
<g id="a_node17"><a xlink:href="classx265_1_1Search.html#ab02df91827cf67796d1605bde60c6aed" target="_top" xlink:title="x265::Search::checkIntra">
<polygon fill="white" stroke="black" points="799,-226.471 799,-245.471 925,-245.471 925,-226.471 799,-226.471"/>
<text text-anchor="middle" x="862" y="-233.471" font-family="Helvetica,sans-Serif" font-size="10.00">x265::Search::checkIntra</text>
</a>
</g>
</g>
<!-- Node3&#45;&gt;Node17 -->
<g id="edge20" class="edge"><title>Node3&#45;&gt;Node17</title>
<path fill="none" stroke="midnightblue" d="M554.393,-233.55C625.45,-234.111 731.985,-234.952 798.936,-235.481"/>
<polygon fill="midnightblue" stroke="midnightblue" points="554.203,-230.049 544.176,-233.47 554.148,-237.049 554.203,-230.049"/>
</g>
<!-- Node21 -->
<g id="node21" class="node"><title>Node21</title>
<g id="a_node21"><a xlink:href="classx265_1_1Search.html#aba5e04ce529f41accd43c540ba1dc7ad" target="_top" xlink:title="x265::Search::encodeResAnd\lCalcRdInterCU">
<polygon fill="white" stroke="black" points="788.5,-176.971 788.5,-206.971 935.5,-206.971 935.5,-176.971 788.5,-176.971"/>
<text text-anchor="start" x="796.5" y="-194.971" font-family="Helvetica,sans-Serif" font-size="10.00">x265::Search::encodeResAnd</text>
<text text-anchor="middle" x="862" y="-183.971" font-family="Helvetica,sans-Serif" font-size="10.00">CalcRdInterCU</text>
</a>
</g>
</g>
<!-- Node3&#45;&gt;Node21 -->
<g id="edge30" class="edge"><title>Node3&#45;&gt;Node21</title>
<path fill="none" stroke="midnightblue" d="M554.292,-225.063C621.679,-217.792 721.035,-207.072 788.25,-199.82"/>
<polygon fill="midnightblue" stroke="midnightblue" points="553.743,-221.602 544.176,-226.155 554.494,-228.562 553.743,-221.602"/>
</g>
<!-- Node5 -->
<g id="node5" class="node"><title>Node5</title>
<g id="a_node5"><a xlink:href="classx265_1_1Analysis.html#aa6122285d10bb1bd7584958b88b029d5" target="_top" xlink:title="x265::Analysis::parallel\lModeAnalysis">
<polygon fill="white" stroke="black" points="803,-302.971 803,-332.971 921,-332.971 921,-302.971 803,-302.971"/>
<text text-anchor="start" x="811" y="-320.971" font-family="Helvetica,sans-Serif" font-size="10.00">x265::Analysis::parallel</text>
<text text-anchor="middle" x="862" y="-309.971" font-family="Helvetica,sans-Serif" font-size="10.00">ModeAnalysis</text>
</a>
</g>
</g>
<!-- Node4&#45;&gt;Node5 -->
<g id="edge4" class="edge"><title>Node4&#45;&gt;Node5</title>
<path fill="none" stroke="midnightblue" d="M757.045,-316.257C772.427,-316.511 788.312,-316.773 802.895,-317.013"/>
<polygon fill="midnightblue" stroke="midnightblue" points="757.085,-312.758 747.029,-316.092 756.97,-319.757 757.085,-312.758"/>
</g>
<!-- Node7 -->
<g id="node7" class="node"><title>Node7</title>
<g id="a_node7"><a xlink:href="classx265_1_1Analysis.html#a87060ff27a37f56adc5f5b8a4c033ece" target="_top" xlink:title="x265::Analysis::compress\lInterCU_dist">
<polygon fill="white" stroke="black" points="1154,-324.971 1154,-354.971 1284,-354.971 1284,-324.971 1154,-324.971"/>
<text text-anchor="start" x="1162" y="-342.971" font-family="Helvetica,sans-Serif" font-size="10.00">x265::Analysis::compress</text>
<text text-anchor="middle" x="1219" y="-331.971" font-family="Helvetica,sans-Serif" font-size="10.00">InterCU_dist</text>
</a>
</g>
</g>
<!-- Node4&#45;&gt;Node7 -->
<g id="edge12" class="edge"><title>Node4&#45;&gt;Node7</title>
<path fill="none" stroke="midnightblue" d="M719.244,-334.239C774.644,-359.591 878.218,-402.821 972,-418.971 1035.95,-429.983 1056.7,-440.262 1118,-418.971 1154.37,-406.339 1187.49,-374.383 1204.99,-355.207"/>
<polygon fill="midnightblue" stroke="midnightblue" points="720.67,-331.042 710.124,-330.027 717.735,-337.397 720.67,-331.042"/>
</g>
<!-- Node13 -->
<g id="node13" class="node"><title>Node13</title>
<g id="a_node13"><a xlink:href="classx265_1_1Analysis.html#a30d2ff7eca5addbb0a6b3dfe14f09650" target="_top" xlink:title="x265::Analysis::compress\lInterCU_rd0_4">
<polygon fill="white" stroke="black" points="1154,-220.971 1154,-250.971 1284,-250.971 1284,-220.971 1154,-220.971"/>
<text text-anchor="start" x="1162" y="-238.971" font-family="Helvetica,sans-Serif" font-size="10.00">x265::Analysis::compress</text>
<text text-anchor="middle" x="1219" y="-227.971" font-family="Helvetica,sans-Serif" font-size="10.00">InterCU_rd0_4</text>
</a>
</g>
</g>
<!-- Node4&#45;&gt;Node13 -->
<g id="edge13" class="edge"><title>Node4&#45;&gt;Node13</title>
<path fill="none" stroke="midnightblue" d="M757.051,-298.388C767.433,-296.426 777.957,-294.56 788,-292.971 933.822,-269.901 972.049,-277.209 1118,-254.971 1129.62,-253.201 1141.95,-251.068 1153.84,-248.881"/>
<polygon fill="midnightblue" stroke="midnightblue" points="756.318,-294.965 747.161,-300.293 757.642,-301.839 756.318,-294.965"/>
</g>
<!-- Node6 -->
<g id="node6" class="node"><title>Node6</title>
<g id="a_node6"><a xlink:href="classx265_1_1Analysis.html#a29a58dad4cc1c07d2f5e5717c6be7c25" target="_top" xlink:title="x265::Analysis::findJob">
<polygon fill="white" stroke="black" points="985.5,-390.471 985.5,-409.471 1104.5,-409.471 1104.5,-390.471 985.5,-390.471"/>
<text text-anchor="middle" x="1045" y="-397.471" font-family="Helvetica,sans-Serif" font-size="10.00">x265::Analysis::findJob</text>
</a>
</g>
</g>
<!-- Node5&#45;&gt;Node6 -->
<g id="edge5" class="edge"><title>Node5&#45;&gt;Node6</title>
<path fill="none" stroke="midnightblue" d="M897.29,-338.123C918.401,-350.045 946.261,-364.925 972,-375.971 984.714,-381.427 999.111,-386.445 1011.67,-390.466"/>
<polygon fill="midnightblue" stroke="midnightblue" points="898.81,-334.961 888.39,-333.046 895.342,-341.041 898.81,-334.961"/>
</g>
<!-- Node6&#45;&gt;Node7 -->
<g id="edge6" class="edge"><title>Node6&#45;&gt;Node7</title>
<path fill="none" stroke="midnightblue" d="M1084.73,-387.25C1095.52,-383.655 1107.23,-379.704 1118,-375.971 1137.35,-369.263 1158.72,-361.604 1176.72,-355.08"/>
<polygon fill="midnightblue" stroke="midnightblue" points="1083.52,-383.963 1075.13,-390.436 1085.72,-390.607 1083.52,-383.963"/>
</g>
<!-- Node8 -->
<g id="node8" class="node"><title>Node8</title>
<g id="a_node8"><a xlink:href="classx265_1_1Analysis.html#aaebc9de2ff98834c650244f3b58942c2" target="_top" xlink:title="x265::Analysis::compressCTU">
<polygon fill="white" stroke="black" points="1320.5,-169.471 1320.5,-188.471 1471.5,-188.471 1471.5,-169.471 1320.5,-169.471"/>
<text text-anchor="middle" x="1396" y="-176.471" font-family="Helvetica,sans-Serif" font-size="10.00">x265::Analysis::compressCTU</text>
</a>
</g>
</g>
<!-- Node7&#45;&gt;Node8 -->
<g id="edge7" class="edge"><title>Node7&#45;&gt;Node8</title>
<path fill="none" stroke="midnightblue" d="M1244.15,-317.754C1282.84,-282.161 1357.14,-213.803 1384.53,-188.606"/>
<polygon fill="midnightblue" stroke="midnightblue" points="1241.45,-315.478 1236.46,-324.824 1246.19,-320.63 1241.45,-315.478"/>
</g>
<!-- Node9 -->
<g id="node9" class="node"><title>Node9</title>
<g id="a_node9"><a xlink:href="classx265_1_1FrameEncoder.html#a0ae85001572afd28238476542523ac5f" target="_top" xlink:title="x265::FrameEncoder\l::processRowEncoder">
<polygon fill="white" stroke="black" points="1508.5,-95.9709 1508.5,-125.971 1621.5,-125.971 1621.5,-95.9709 1508.5,-95.9709"/>
<text text-anchor="start" x="1516.5" y="-113.971" font-family="Helvetica,sans-Serif" font-size="10.00">x265::FrameEncoder</text>
<text text-anchor="middle" x="1565" y="-102.971" font-family="Helvetica,sans-Serif" font-size="10.00">::processRowEncoder</text>
</a>
</g>
</g>
<!-- Node8&#45;&gt;Node9 -->
<g id="edge8" class="edge"><title>Node8&#45;&gt;Node9</title>
<path fill="none" stroke="midnightblue" d="M1429.92,-165.568C1457.87,-154.184 1497.97,-137.858 1527.02,-126.027"/>
<polygon fill="midnightblue" stroke="midnightblue" points="1428.51,-162.36 1420.57,-169.372 1431.15,-168.843 1428.51,-162.36"/>
</g>
<!-- Node10 -->
<g id="node10" class="node"><title>Node10</title>
<g id="a_node10"><a xlink:href="classx265_1_1FrameEncoder.html#acad645a8ece97d884895f8f7366b7d70" target="_top" xlink:title="x265::FrameEncoder\l::processRow">
<polygon fill="white" stroke="black" points="1658.5,-95.9709 1658.5,-125.971 1765.5,-125.971 1765.5,-95.9709 1658.5,-95.9709"/>
<text text-anchor="start" x="1666.5" y="-113.971" font-family="Helvetica,sans-Serif" font-size="10.00">x265::FrameEncoder</text>
<text text-anchor="middle" x="1712" y="-102.971" font-family="Helvetica,sans-Serif" font-size="10.00">::processRow</text>
</a>
</g>
</g>
<!-- Node9&#45;&gt;Node10 -->
<g id="edge9" class="edge"><title>Node9&#45;&gt;Node10</title>
<path fill="none" stroke="midnightblue" d="M1631.88,-110.971C1640.67,-110.971 1649.59,-110.971 1658.13,-110.971"/>
<polygon fill="midnightblue" stroke="midnightblue" points="1631.65,-107.471 1621.65,-110.971 1631.65,-114.471 1631.65,-107.471"/>
</g>
<!-- Node11 -->
<g id="node11" class="node"><title>Node11</title>
<g id="a_node11"><a xlink:href="classx265_1_1FrameEncoder.html#ac4e9ce2e876c0cdb25c992c872fe4302" target="_top" xlink:title="x265::FrameEncoder\l::compressCTURows">
<polygon fill="white" stroke="black" points="1802,-93.9709 1802,-123.971 1914,-123.971 1914,-93.9709 1802,-93.9709"/>
<text text-anchor="start" x="1810" y="-111.971" font-family="Helvetica,sans-Serif" font-size="10.00">x265::FrameEncoder</text>
<text text-anchor="middle" x="1858" y="-100.971" font-family="Helvetica,sans-Serif" font-size="10.00">::compressCTURows</text>
</a>
</g>
</g>
<!-- Node10&#45;&gt;Node11 -->
<g id="edge10" class="edge"><title>Node10&#45;&gt;Node11</title>
<path fill="none" stroke="midnightblue" d="M1775.83,-110.098C1784.48,-109.978 1793.3,-109.856 1801.79,-109.738"/>
<polygon fill="midnightblue" stroke="midnightblue" points="1775.75,-106.599 1765.8,-110.238 1775.85,-113.598 1775.75,-106.599"/>
</g>
<!-- Node12 -->
<g id="node12" class="node"><title>Node12</title>
<g id="a_node12"><a xlink:href="classx265_1_1FrameEncoder.html#a2f5c4c0f1a4e36fce4c9b87eb7ec4973" target="_top" xlink:title="x265::FrameEncoder\l::compressFrame">
<polygon fill="white" stroke="red" points="1950.5,-70.9709 1950.5,-100.971 2057.5,-100.971 2057.5,-70.9709 1950.5,-70.9709"/>
<text text-anchor="start" x="1958.5" y="-88.9709" font-family="Helvetica,sans-Serif" font-size="10.00">x265::FrameEncoder</text>
<text text-anchor="middle" x="2004" y="-77.9709" font-family="Helvetica,sans-Serif" font-size="10.00">::compressFrame</text>
</a>
</g>
</g>
<!-- Node11&#45;&gt;Node12 -->
<g id="edge11" class="edge"><title>Node11&#45;&gt;Node12</title>
<path fill="none" stroke="midnightblue" d="M1924.14,-98.567C1932.96,-97.1575 1941.93,-95.7259 1950.49,-94.3578"/>
<polygon fill="midnightblue" stroke="midnightblue" points="1923.59,-95.1108 1914.26,-100.144 1924.69,-102.023 1923.59,-95.1108"/>
</g>
<!-- Node13&#45;&gt;Node8 -->
<g id="edge14" class="edge"><title>Node13&#45;&gt;Node8</title>
<path fill="none" stroke="midnightblue" d="M1276.29,-217.636C1306.05,-207.943 1341.35,-196.446 1365.68,-188.522"/>
<polygon fill="midnightblue" stroke="midnightblue" points="1274.86,-214.421 1266.44,-220.846 1277.03,-221.076 1274.86,-214.421"/>
</g>
<!-- Node15 -->
<g id="node15" class="node"><title>Node15</title>
<g id="a_node15"><a xlink:href="classx265_1_1Entropy.html#abb101b71f310e90eb504a8204babc180" target="_top" xlink:title="x265::Entropy::encodeCTU">
<polygon fill="white" stroke="black" points="1328,-52.4709 1328,-71.4709 1464,-71.4709 1464,-52.4709 1328,-52.4709"/>
<text text-anchor="middle" x="1396" y="-59.4709" font-family="Helvetica,sans-Serif" font-size="10.00">x265::Entropy::encodeCTU</text>
</a>
</g>
</g>
<!-- Node14&#45;&gt;Node15 -->
<g id="edge16" class="edge"><title>Node14&#45;&gt;Node15</title>
<path fill="none" stroke="midnightblue" d="M727.342,-39.1393C808.192,-20.8454 975.972,10.7389 1118,-3.97093 1206.7,-13.1578 1308.86,-38.4722 1360.81,-52.4279"/>
<polygon fill="midnightblue" stroke="midnightblue" points="726.417,-35.7604 717.454,-41.409 727.983,-42.583 726.417,-35.7604"/>
</g>
<!-- Node15&#45;&gt;Node9 -->
<g id="edge19" class="edge"><title>Node15&#45;&gt;Node9</title>
<path fill="none" stroke="midnightblue" d="M1439.45,-74.425C1461.75,-80.9702 1489.26,-89.0422 1512.75,-95.934"/>
<polygon fill="midnightblue" stroke="midnightblue" points="1440.18,-70.992 1429.6,-71.5349 1438.21,-77.7089 1440.18,-70.992"/>
</g>
<!-- Node16 -->
<g id="node16" class="node"><title>Node16</title>
<g id="a_node16"><a xlink:href="classx265_1_1FrameEncoder.html#a6d4045d35bfe6b10c8d0dc39353be360" target="_top" xlink:title="x265::FrameEncoder\l::encodeSlice">
<polygon fill="white" stroke="black" points="1658.5,-46.9709 1658.5,-76.9709 1765.5,-76.9709 1765.5,-46.9709 1658.5,-46.9709"/>
<text text-anchor="start" x="1666.5" y="-64.9709" font-family="Helvetica,sans-Serif" font-size="10.00">x265::FrameEncoder</text>
<text text-anchor="middle" x="1712" y="-53.9709" font-family="Helvetica,sans-Serif" font-size="10.00">::encodeSlice</text>
</a>
</g>
</g>
<!-- Node15&#45;&gt;Node16 -->
<g id="edge17" class="edge"><title>Node15&#45;&gt;Node16</title>
<path fill="none" stroke="midnightblue" d="M1474.45,-61.9709C1531.65,-61.9709 1608,-61.9709 1658.29,-61.9709"/>
<polygon fill="midnightblue" stroke="midnightblue" points="1474.36,-58.471 1464.36,-61.9709 1474.36,-65.471 1474.36,-58.471"/>
</g>
<!-- Node16&#45;&gt;Node12 -->
<g id="edge18" class="edge"><title>Node16&#45;&gt;Node12</title>
<path fill="none" stroke="midnightblue" d="M1775.65,-67.1559C1827.81,-71.4724 1901.23,-77.5488 1950.38,-81.6166"/>
<polygon fill="midnightblue" stroke="midnightblue" points="1775.77,-63.6539 1765.52,-66.3171 1775.19,-70.6301 1775.77,-63.6539"/>
</g>
<!-- Node18 -->
<g id="node18" class="node"><title>Node18</title>
<g id="a_node18"><a xlink:href="classx265_1_1Analysis.html#a10f0a8d9d143faf8dc671c6f0982693d" target="_top" xlink:title="x265::Analysis::tryLossless">
<polygon fill="white" stroke="black" points="976.5,-226.471 976.5,-245.471 1113.5,-245.471 1113.5,-226.471 976.5,-226.471"/>
<text text-anchor="middle" x="1045" y="-233.471" font-family="Helvetica,sans-Serif" font-size="10.00">x265::Analysis::tryLossless</text>
</a>
</g>
</g>
<!-- Node17&#45;&gt;Node18 -->
<g id="edge21" class="edge"><title>Node17&#45;&gt;Node18</title>
<path fill="none" stroke="midnightblue" d="M935.293,-235.971C948.879,-235.971 963.037,-235.971 976.471,-235.971"/>
<polygon fill="midnightblue" stroke="midnightblue" points="935.037,-232.471 925.037,-235.971 935.037,-239.471 935.037,-232.471"/>
</g>
<!-- Node19 -->
<g id="node19" class="node"><title>Node19</title>
<g id="a_node19"><a xlink:href="classx265_1_1Analysis.html#aae2a6a2252270782b591d2bed7e99dae" target="_top" xlink:title="x265::Analysis::compress\lIntraCU">
<polygon fill="white" stroke="black" points="1154,-163.971 1154,-193.971 1284,-193.971 1284,-163.971 1154,-163.971"/>
<text text-anchor="start" x="1162" y="-181.971" font-family="Helvetica,sans-Serif" font-size="10.00">x265::Analysis::compress</text>
<text text-anchor="middle" x="1219" y="-170.971" font-family="Helvetica,sans-Serif" font-size="10.00">IntraCU</text>
</a>
</g>
</g>
<!-- Node17&#45;&gt;Node19 -->
<g id="edge28" class="edge"><title>Node17&#45;&gt;Node19</title>
<path fill="none" stroke="midnightblue" d="M926.6,-224.672C941.487,-222.086 957.292,-219.388 972,-216.971 1033.73,-206.825 1104.3,-196.003 1153.98,-188.514"/>
<polygon fill="midnightblue" stroke="midnightblue" points="925.715,-221.273 916.465,-226.439 926.918,-228.169 925.715,-221.273"/>
</g>
<!-- Node20 -->
<g id="node20" class="node"><title>Node20</title>
<g id="a_node20"><a xlink:href="classx265_1_1Analysis.html#a0b22b7765aa4a36b1ba6d07ba26901e6" target="_top" xlink:title="x265::Analysis::compress\lInterCU_rd5_6">
<polygon fill="white" stroke="black" points="1154,-106.971 1154,-136.971 1284,-136.971 1284,-106.971 1154,-106.971"/>
<text text-anchor="start" x="1162" y="-124.971" font-family="Helvetica,sans-Serif" font-size="10.00">x265::Analysis::compress</text>
<text text-anchor="middle" x="1219" y="-113.971" font-family="Helvetica,sans-Serif" font-size="10.00">InterCU_rd5_6</text>
</a>
</g>
</g>
<!-- Node17&#45;&gt;Node20 -->
<g id="edge29" class="edge"><title>Node17&#45;&gt;Node20</title>
<path fill="none" stroke="midnightblue" d="M917.474,-223.265C923.836,-221.134 930.141,-218.709 936,-215.971 953.647,-207.723 954.378,-199.272 972,-190.971 1030.79,-163.279 1102.85,-144.685 1153.75,-133.844"/>
<polygon fill="midnightblue" stroke="midnightblue" points="915.993,-220.06 907.484,-226.373 918.073,-226.744 915.993,-220.06"/>
</g>
<!-- Node18&#45;&gt;Node7 -->
<g id="edge24" class="edge"><title>Node18&#45;&gt;Node7</title>
<path fill="none" stroke="midnightblue" d="M1070.77,-250.95C1103.39,-270.673 1160.42,-305.157 1193.1,-324.918"/>
<polygon fill="midnightblue" stroke="midnightblue" points="1072.24,-247.748 1061.87,-245.569 1068.62,-253.738 1072.24,-247.748"/>
</g>
<!-- Node18&#45;&gt;Node13 -->
<g id="edge25" class="edge"><title>Node18&#45;&gt;Node13</title>
<path fill="none" stroke="midnightblue" d="M1124.24,-235.971C1134.16,-235.971 1144.22,-235.971 1153.88,-235.971"/>
<polygon fill="midnightblue" stroke="midnightblue" points="1123.98,-232.471 1113.98,-235.971 1123.98,-239.471 1123.98,-232.471"/>
</g>
<!-- Node18&#45;&gt;Node19 -->
<g id="edge22" class="edge"><title>Node18&#45;&gt;Node19</title>
<path fill="none" stroke="midnightblue" d="M1084.34,-223.265C1110.44,-214.614 1145.11,-203.126 1172.6,-194.018"/>
<polygon fill="midnightblue" stroke="midnightblue" points="1083.18,-219.962 1074.79,-226.43 1085.38,-226.607 1083.18,-219.962"/>
</g>
<!-- Node18&#45;&gt;Node20 -->
<g id="edge26" class="edge"><title>Node18&#45;&gt;Node20</title>
<path fill="none" stroke="midnightblue" d="M1064.98,-219.827C1085.96,-202.404 1121.15,-174.41 1154,-153.971 1163.7,-147.934 1174.7,-142.103 1184.8,-137.11"/>
<polygon fill="midnightblue" stroke="midnightblue" points="1062.58,-217.274 1057.16,-226.379 1067.07,-222.639 1062.58,-217.274"/>
</g>
<!-- Node19&#45;&gt;Node8 -->
<g id="edge23" class="edge"><title>Node19&#45;&gt;Node8</title>
<path fill="none" stroke="midnightblue" d="M1294.25,-178.971C1302.93,-178.971 1311.78,-178.971 1320.47,-178.971"/>
<polygon fill="midnightblue" stroke="midnightblue" points="1294.17,-175.471 1284.17,-178.971 1294.17,-182.471 1294.17,-175.471"/>
</g>
<!-- Node20&#45;&gt;Node8 -->
<g id="edge27" class="edge"><title>Node20&#45;&gt;Node8</title>
<path fill="none" stroke="midnightblue" d="M1276.29,-140.306C1306.05,-149.999 1341.35,-161.496 1365.68,-169.42"/>
<polygon fill="midnightblue" stroke="midnightblue" points="1277.03,-136.865 1266.44,-137.096 1274.86,-143.521 1277.03,-136.865"/>
</g>
<!-- Node21&#45;&gt;Node7 -->
<g id="edge32" class="edge"><title>Node21&#45;&gt;Node7</title>
<path fill="none" stroke="midnightblue" d="M931.594,-212.853C933.141,-214.144 934.615,-215.515 936,-216.971 975.855,-258.851 925.808,-307.205 972,-341.971 1030.35,-385.89 1120.51,-370.243 1173.95,-355.011"/>
<polygon fill="midnightblue" stroke="midnightblue" points="933.515,-209.925 923.321,-207.04 929.491,-215.653 933.515,-209.925"/>
</g>
<!-- Node21&#45;&gt;Node13 -->
<g id="edge33" class="edge"><title>Node21&#45;&gt;Node13</title>
<path fill="none" stroke="midnightblue" d="M945.866,-198.195C995.856,-202.422 1060.74,-208.742 1118,-216.971 1129.63,-218.643 1141.97,-220.728 1153.86,-222.899"/>
<polygon fill="midnightblue" stroke="midnightblue" points="946.01,-194.695 935.753,-197.352 945.428,-201.671 946.01,-194.695"/>
</g>
<!-- Node21&#45;&gt;Node18 -->
<g id="edge31" class="edge"><title>Node21&#45;&gt;Node18</title>
<path fill="none" stroke="midnightblue" d="M934.562,-209.367C958.521,-215.191 984.333,-221.466 1004.87,-226.459"/>
<polygon fill="midnightblue" stroke="midnightblue" points="935.327,-205.951 924.784,-206.99 933.674,-212.753 935.327,-205.951"/>
</g>
<!-- Node22 -->
<g id="node22" class="node"><title>Node22</title>
<g id="a_node22"><a xlink:href="classx265_1_1Analysis.html#addd72cb95590e2b2a6965d42d110eab3" target="_top" xlink:title="x265::Analysis::checkMerge2\lNx2N_rd0_4">
<polygon fill="white" stroke="black" points="972,-302.971 972,-332.971 1118,-332.971 1118,-302.971 972,-302.971"/>
<text text-anchor="start" x="980" y="-320.971" font-family="Helvetica,sans-Serif" font-size="10.00">x265::Analysis::checkMerge2</text>
<text text-anchor="middle" x="1045" y="-309.971" font-family="Helvetica,sans-Serif" font-size="10.00">Nx2N_rd0_4</text>
</a>
</g>
</g>
<!-- Node21&#45;&gt;Node22 -->
<g id="edge34" class="edge"><title>Node21&#45;&gt;Node22</title>
<path fill="none" stroke="midnightblue" d="M926.2,-211.384C929.595,-213.11 932.887,-214.97 936,-216.971 955.571,-229.548 955.227,-238.849 972,-254.971 989.723,-272.006 1011.02,-290.401 1025.83,-302.889"/>
<polygon fill="midnightblue" stroke="midnightblue" points="927.568,-208.16 917.024,-207.121 924.619,-214.508 927.568,-208.16"/>
</g>
<!-- Node23 -->
<g id="node23" class="node"><title>Node23</title>
<g id="a_node23"><a xlink:href="classx265_1_1Analysis.html#a0194a9da53aa95173fa1132ba3aea1c7" target="_top" xlink:title="x265::Analysis::checkMerge2\lNx2N_rd5_6">
<polygon fill="white" stroke="black" points="972,-62.9709 972,-92.9709 1118,-92.9709 1118,-62.9709 972,-62.9709"/>
<text text-anchor="start" x="980" y="-80.9709" font-family="Helvetica,sans-Serif" font-size="10.00">x265::Analysis::checkMerge2</text>
<text text-anchor="middle" x="1045" y="-69.9709" font-family="Helvetica,sans-Serif" font-size="10.00">Nx2N_rd5_6</text>
</a>
</g>
</g>
<!-- Node21&#45;&gt;Node23 -->
<g id="edge37" class="edge"><title>Node21&#45;&gt;Node23</title>
<path fill="none" stroke="midnightblue" d="M887.329,-170.212C908.59,-151.957 940.849,-126.043 972,-107.971 981.605,-102.399 992.444,-97.3183 1002.74,-92.9862"/>
<polygon fill="midnightblue" stroke="midnightblue" points="884.998,-167.601 879.745,-176.801 889.589,-172.885 884.998,-167.601"/>
</g>
<!-- Node24 -->
<g id="node24" class="node"><title>Node24</title>
<g id="a_node24"><a xlink:href="classx265_1_1Analysis.html#a828daa3e9f1ed40a1af9f99f7ff7bb33" target="_top" xlink:title="x265::Analysis::checkInter\l_rd5_6">
<polygon fill="white" stroke="black" points="978.5,-13.9709 978.5,-43.9709 1111.5,-43.9709 1111.5,-13.9709 978.5,-13.9709"/>
<text text-anchor="start" x="986.5" y="-31.9709" font-family="Helvetica,sans-Serif" font-size="10.00">x265::Analysis::checkInter</text>
<text text-anchor="middle" x="1045" y="-20.9709" font-family="Helvetica,sans-Serif" font-size="10.00">_rd5_6</text>
</a>
</g>
</g>
<!-- Node21&#45;&gt;Node24 -->
<g id="edge39" class="edge"><title>Node21&#45;&gt;Node24</title>
<path fill="none" stroke="midnightblue" d="M875.959,-167.782C893.7,-136.874 928.379,-83.7038 972,-52.9709 976.847,-49.556 982.215,-46.6 987.77,-44.0472"/>
<polygon fill="midnightblue" stroke="midnightblue" points="872.847,-166.177 871.006,-176.611 878.952,-169.602 872.847,-166.177"/>
</g>
<!-- Node22&#45;&gt;Node7 -->
<g id="edge35" class="edge"><title>Node22&#45;&gt;Node7</title>
<path fill="none" stroke="midnightblue" d="M1128.42,-328.513C1136.96,-329.605 1145.54,-330.703 1153.83,-331.763"/>
<polygon fill="midnightblue" stroke="midnightblue" points="1128.81,-325.034 1118.44,-327.237 1127.92,-331.978 1128.81,-325.034"/>
</g>
<!-- Node22&#45;&gt;Node13 -->
<g id="edge36" class="edge"><title>Node22&#45;&gt;Node13</title>
<path fill="none" stroke="midnightblue" d="M1093.24,-298.959C1101.55,-295.427 1110.07,-291.678 1118,-287.971 1142.82,-276.373 1170.4,-261.908 1190.3,-251.181"/>
<polygon fill="midnightblue" stroke="midnightblue" points="1091.87,-295.741 1084,-302.842 1094.58,-302.194 1091.87,-295.741"/>
</g>
<!-- Node23&#45;&gt;Node20 -->
<g id="edge38" class="edge"><title>Node23&#45;&gt;Node20</title>
<path fill="none" stroke="midnightblue" d="M1114.78,-95.5651C1129.51,-99.3342 1144.95,-103.283 1159.26,-106.945"/>
<polygon fill="midnightblue" stroke="midnightblue" points="1115.27,-92.0778 1104.71,-92.9902 1113.53,-98.8594 1115.27,-92.0778"/>
</g>
<!-- Node24&#45;&gt;Node20 -->
<g id="edge40" class="edge"><title>Node24&#45;&gt;Node20</title>
<path fill="none" stroke="midnightblue" d="M1106.43,-47.6945C1110.4,-49.3571 1114.29,-51.1177 1118,-52.9709 1148.39,-68.1344 1180.1,-91.5161 1199.46,-106.782"/>
<polygon fill="midnightblue" stroke="midnightblue" points="1107.67,-44.4207 1097.08,-43.9953 1105.09,-50.9296 1107.67,-44.4207"/>
</g>
<!-- Node25&#45;&gt;Node4 -->
<g id="edge42" class="edge"><title>Node25&#45;&gt;Node4</title>
<path fill="none" stroke="midnightblue" d="M533.307,-282.713C556.82,-287.992 584.853,-294.285 609.891,-299.906"/>
<polygon fill="midnightblue" stroke="midnightblue" points="534.053,-279.294 523.529,-280.518 532.52,-286.124 534.053,-279.294"/>
</g>
<!-- Node26 -->
<g id="node26" class="node"><title>Node26</title>
<g id="a_node26"><a xlink:href="classx265_1_1Search.html#a1778d2ab96ac88c7f76d36818d6adbdd" target="_top" xlink:title="x265::Search::estIntraPredQT">
<polygon fill="white" stroke="black" points="604.5,-261.471 604.5,-280.471 751.5,-280.471 751.5,-261.471 604.5,-261.471"/>
<text text-anchor="middle" x="678" y="-268.471" font-family="Helvetica,sans-Serif" font-size="10.00">x265::Search::estIntraPredQT</text>
</a>
</g>
</g>
<!-- Node25&#45;&gt;Node26 -->
<g id="edge43" class="edge"><title>Node25&#45;&gt;Node26</title>
<path fill="none" stroke="midnightblue" d="M569.268,-270.971C580.996,-270.971 592.912,-270.971 604.335,-270.971"/>
<polygon fill="midnightblue" stroke="midnightblue" points="569.028,-267.471 559.028,-270.971 569.028,-274.471 569.028,-267.471"/>
</g>
<!-- Node26&#45;&gt;Node17 -->
<g id="edge44" class="edge"><title>Node26&#45;&gt;Node17</title>
<path fill="none" stroke="midnightblue" d="M738.601,-259.509C762.137,-254.983 788.865,-249.843 811.328,-245.523"/>
<polygon fill="midnightblue" stroke="midnightblue" points="737.891,-256.081 728.732,-261.407 739.213,-262.955 737.891,-256.081"/>
</g>
<!-- Node27&#45;&gt;Node21 -->
<g id="edge46" class="edge"><title>Node27&#45;&gt;Node21</title>
<path fill="none" stroke="midnightblue" d="M578.432,-165.309C630.034,-169.799 694.471,-175.521 752,-180.971 763.74,-182.083 776.186,-183.302 788.309,-184.51"/>
<polygon fill="midnightblue" stroke="midnightblue" points="578.553,-161.807 568.288,-164.428 577.948,-168.78 578.553,-161.807"/>
</g>
<!-- Node28&#45;&gt;Node27 -->
<g id="edge48" class="edge"><title>Node28&#45;&gt;Node27</title>
<path fill="none" stroke="midnightblue" d="M366.458,-156.971C374.917,-156.971 383.457,-156.971 391.851,-156.971"/>
<polygon fill="midnightblue" stroke="midnightblue" points="366.195,-153.471 356.195,-156.971 366.195,-160.471 366.195,-153.471"/>
</g>
</g>
</svg>
