<?xml version="1.0" encoding="UTF-8" standalone="no"?>
<!DOCTYPE svg PUBLIC "-//W3C//DTD SVG 1.1//EN"
 "http://www.w3.org/Graphics/SVG/1.1/DTD/svg11.dtd">
<!-- Generated by graphviz version 2.36.0 (20140111.2315)
 -->
<!-- Title: x265::CostEstimate::weightCostLuma Pages: 1 -->
<!--zoomable 251 -->
<svg id="main" version="1.1" xmlns="http://www.w3.org/2000/svg" xmlns:xlink="http://www.w3.org/1999/xlink" xml:space="preserve" onload="init(evt)">
<style type="text/css"><![CDATA[
.edge:hover path { stroke: red; }
.edge:hover polygon { stroke: red; fill: red; }
]]></style>
<script type="text/javascript"><![CDATA[
var edges = document.getElementsByTagName('g');
if (edges && edges.length) {
  for (var i=0;i<edges.length;i++) {
    if (edges[i].id.substr(0,4)=='edge') {
      edges[i].setAttribute('class','edge');
    }
  }
}
]]></script>
        <defs>
                <circle id="rim" cx="0" cy="0" r="7"/>
                <circle id="rim2" cx="0" cy="0" r="3.5"/>
                <g id="zoomPlus">
                        <use xlink:href="#rim" fill="#404040">
                                <set attributeName="fill" to="#808080" begin="zoomplus.mouseover" end="zoomplus.mouseout"/>
                        </use>
                        <path d="M-4,0h8M0,-4v8" fill="none" stroke="white" stroke-width="1.5" pointer-events="none"/>
                </g>
                <g id="zoomMin">
                        <use xlink:href="#rim" fill="#404040">
                                <set attributeName="fill" to="#808080" begin="zoomminus.mouseover" end="zoomminus.mouseout"/>
                        </use>
                        <path d="M-4,0h8" fill="none" stroke="white" stroke-width="1.5" pointer-events="none"/>
                </g>
                <g id="dirArrow">
                        <path fill="none" stroke="white" stroke-width="1.5" d="M0,-3.0v7 M-2.5,-0.5L0,-3.0L2.5,-0.5"/>
                </g>
               <g id="resetDef">
                       <use xlink:href="#rim2" fill="#404040">
                               <set attributeName="fill" to="#808080" begin="reset.mouseover" end="reset.mouseout"/>
                       </use>
               </g>
        </defs>

<script type="text/javascript">
var viewWidth = 1694;
var viewHeight = 251;
var sectionId = 'dynsection-9';
</script>
<script xlink:href="svgpan.js"/>
<svg id="graph" class="graph">
<g id="viewport">
<title>x265::CostEstimate::weightCostLuma</title>
<polygon fill="white" stroke="none" points="-4,4 -4,-247.063 1690,-247.063 1690,4 -4,4"/>
<!-- Node1 -->
<g id="node1" class="node"><title>Node1</title>
<polygon fill="#bfbfbf" stroke="black" points="0,-109.493 0,-139.493 104,-139.493 104,-109.493 0,-109.493"/>
<text text-anchor="start" x="8" y="-127.493" font-family="Helvetica,sans-Serif" font-size="10.00">x265::CostEstimate</text>
<text text-anchor="middle" x="52" y="-116.493" font-family="Helvetica,sans-Serif" font-size="10.00">::weightCostLuma</text>
</g>
<!-- Node2 -->
<g id="node2" class="node"><title>Node2</title>
<g id="a_node2"><a xlink:href="classx265_1_1CostEstimate.html#a97a70c43a6dc0ede9d048a1dc8af59ed" target="_top" xlink:title="x265::CostEstimate\l::weightsAnalyse">
<polygon fill="white" stroke="black" points="140,-109.493 140,-139.493 244,-139.493 244,-109.493 140,-109.493"/>
<text text-anchor="start" x="148" y="-127.493" font-family="Helvetica,sans-Serif" font-size="10.00">x265::CostEstimate</text>
<text text-anchor="middle" x="192" y="-116.493" font-family="Helvetica,sans-Serif" font-size="10.00">::weightsAnalyse</text>
</a>
</g>
</g>
<!-- Node1&#45;&gt;Node2 -->
<g id="edge1" class="edge"><title>Node1&#45;&gt;Node2</title>
<path fill="none" stroke="midnightblue" d="M114.496,-124.493C122.872,-124.493 131.398,-124.493 139.571,-124.493"/>
<polygon fill="midnightblue" stroke="midnightblue" points="114.386,-120.993 104.386,-124.493 114.386,-127.993 114.386,-120.993"/>
</g>
<!-- Node3 -->
<g id="node3" class="node"><title>Node3</title>
<g id="a_node3"><a xlink:href="classx265_1_1CostEstimate.html#af33d06405527ebbb03d9c93d565e6e2a" target="_top" xlink:title="x265::CostEstimate\l::estimateFrameCost">
<polygon fill="white" stroke="black" points="280.5,-109.493 280.5,-139.493 389.5,-139.493 389.5,-109.493 280.5,-109.493"/>
<text text-anchor="start" x="288.5" y="-127.493" font-family="Helvetica,sans-Serif" font-size="10.00">x265::CostEstimate</text>
<text text-anchor="middle" x="335" y="-116.493" font-family="Helvetica,sans-Serif" font-size="10.00">::estimateFrameCost</text>
</a>
</g>
</g>
<!-- Node2&#45;&gt;Node3 -->
<g id="edge2" class="edge"><title>Node2&#45;&gt;Node3</title>
<path fill="none" stroke="midnightblue" d="M254.565,-124.493C263.077,-124.493 271.766,-124.493 280.125,-124.493"/>
<polygon fill="midnightblue" stroke="midnightblue" points="254.303,-120.993 244.303,-124.493 254.303,-127.993 254.303,-120.993"/>
</g>
<!-- Node4 -->
<g id="node4" class="node"><title>Node4</title>
<g id="a_node4"><a xlink:href="classx265_1_1Lookahead.html#ad15172de7a432e47e8514fb157fafedd" target="_top" xlink:title="x265::Lookahead::slicetype\lDecide">
<polygon fill="white" stroke="black" points="992,-168.493 992,-198.493 1128,-198.493 1128,-168.493 992,-168.493"/>
<text text-anchor="start" x="1000" y="-186.493" font-family="Helvetica,sans-Serif" font-size="10.00">x265::Lookahead::slicetype</text>
<text text-anchor="middle" x="1060" y="-175.493" font-family="Helvetica,sans-Serif" font-size="10.00">Decide</text>
</a>
</g>
</g>
<!-- Node3&#45;&gt;Node4 -->
<g id="edge3" class="edge"><title>Node3&#45;&gt;Node4</title>
<path fill="none" stroke="midnightblue" d="M353.769,-147.404C370.157,-166.507 396.378,-192.336 426,-203.493 628.188,-279.643 892.934,-227.107 1005.08,-198.572"/>
<polygon fill="midnightblue" stroke="midnightblue" points="356.447,-145.15 347.366,-139.692 351.06,-149.622 356.447,-145.15"/>
</g>
<!-- Node11 -->
<g id="node11" class="node"><title>Node11</title>
<g id="a_node11"><a xlink:href="classx265_1_1Lookahead.html#ad963fd74581c61eaf7713367906b3e96" target="_top" xlink:title="x265::Lookahead::vbvFrameCost">
<polygon fill="white" stroke="black" points="426.5,-174.993 426.5,-193.993 587.5,-193.993 587.5,-174.993 426.5,-174.993"/>
<text text-anchor="middle" x="507" y="-181.993" font-family="Helvetica,sans-Serif" font-size="10.00">x265::Lookahead::vbvFrameCost</text>
</a>
</g>
</g>
<!-- Node3&#45;&gt;Node11 -->
<g id="edge11" class="edge"><title>Node3&#45;&gt;Node11</title>
<path fill="none" stroke="midnightblue" d="M381.199,-143.485C395.435,-149.22 411.284,-155.353 426,-160.493 440.785,-165.656 457.333,-170.734 471.526,-174.88"/>
<polygon fill="midnightblue" stroke="midnightblue" points="382.217,-140.121 371.635,-139.596 379.58,-146.605 382.217,-140.121"/>
</g>
<!-- Node13 -->
<g id="node13" class="node"><title>Node13</title>
<g id="a_node13"><a xlink:href="classx265_1_1Lookahead.html#a2f8c7057dd5c5086830b5f22b38105b0" target="_top" xlink:title="x265::Lookahead::slicetype\lAnalyse">
<polygon fill="white" stroke="black" points="820,-110.493 820,-140.493 956,-140.493 956,-110.493 820,-110.493"/>
<text text-anchor="start" x="828" y="-128.493" font-family="Helvetica,sans-Serif" font-size="10.00">x265::Lookahead::slicetype</text>
<text text-anchor="middle" x="888" y="-117.493" font-family="Helvetica,sans-Serif" font-size="10.00">Analyse</text>
</a>
</g>
</g>
<!-- Node3&#45;&gt;Node13 -->
<g id="edge15" class="edge"><title>Node3&#45;&gt;Node13</title>
<path fill="none" stroke="midnightblue" d="M399.959,-126.089C408.708,-126.256 417.576,-126.399 426,-126.493 566.052,-128.048 730.052,-127.01 819.813,-126.197"/>
<polygon fill="midnightblue" stroke="midnightblue" points="399.843,-122.586 389.774,-125.883 399.701,-129.584 399.843,-122.586"/>
</g>
<!-- Node14 -->
<g id="node14" class="node"><title>Node14</title>
<g id="a_node14"><a xlink:href="classx265_1_1Lookahead.html#abe59d19601dc7f3cc76ba3dd315140ee" target="_top" xlink:title="x265::Lookahead::scenecut\lInternal">
<polygon fill="white" stroke="black" points="438.5,-87.4925 438.5,-117.493 575.5,-117.493 575.5,-87.4925 438.5,-87.4925"/>
<text text-anchor="start" x="446.5" y="-105.493" font-family="Helvetica,sans-Serif" font-size="10.00">x265::Lookahead::scenecut</text>
<text text-anchor="middle" x="507" y="-94.4925" font-family="Helvetica,sans-Serif" font-size="10.00">Internal</text>
</a>
</g>
</g>
<!-- Node3&#45;&gt;Node14 -->
<g id="edge16" class="edge"><title>Node3&#45;&gt;Node14</title>
<path fill="none" stroke="midnightblue" d="M400.077,-116.2C412.533,-114.588 425.629,-112.893 438.201,-111.267"/>
<polygon fill="midnightblue" stroke="midnightblue" points="399.257,-112.777 389.789,-117.532 400.156,-119.719 399.257,-112.777"/>
</g>
<!-- Node16 -->
<g id="node16" class="node"><title>Node16</title>
<g id="a_node16"><a xlink:href="classx265_1_1Lookahead.html#a23cd684acae2cb60daeb2f6df390e30e" target="_top" xlink:title="x265::Lookahead::slicetype\lPathCost">
<polygon fill="white" stroke="black" points="439,-38.4925 439,-68.4925 575,-68.4925 575,-38.4925 439,-38.4925"/>
<text text-anchor="start" x="447" y="-56.4925" font-family="Helvetica,sans-Serif" font-size="10.00">x265::Lookahead::slicetype</text>
<text text-anchor="middle" x="507" y="-45.4925" font-family="Helvetica,sans-Serif" font-size="10.00">PathCost</text>
</a>
</g>
</g>
<!-- Node3&#45;&gt;Node16 -->
<g id="edge19" class="edge"><title>Node3&#45;&gt;Node16</title>
<path fill="none" stroke="midnightblue" d="M370.947,-104.265C387.32,-95.3065 407.301,-85.0996 426,-77.4925 433.925,-74.2687 442.446,-71.2561 450.868,-68.5286"/>
<polygon fill="midnightblue" stroke="midnightblue" points="368.804,-101.451 361.761,-109.366 372.203,-107.571 368.804,-101.451"/>
</g>
<!-- Node18 -->
<g id="node18" class="node"><title>Node18</title>
<g id="a_node18"><a xlink:href="classx265_1_1Lookahead.html#a7de60f6bb080e48623088fb1ed9f034b" target="_top" xlink:title="x265::Lookahead::cuTree">
<polygon fill="white" stroke="black" points="640.5,-2.99253 640.5,-21.9925 767.5,-21.9925 767.5,-2.99253 640.5,-2.99253"/>
<text text-anchor="middle" x="704" y="-9.99253" font-family="Helvetica,sans-Serif" font-size="10.00">x265::Lookahead::cuTree</text>
</a>
</g>
</g>
<!-- Node3&#45;&gt;Node18 -->
<g id="edge22" class="edge"><title>Node3&#45;&gt;Node18</title>
<path fill="none" stroke="midnightblue" d="M350.315,-100.943C365.788,-77.8944 392.754,-44.0498 426,-28.4925 494.063,3.35666 582.035,2.33106 640.377,-3.33"/>
<polygon fill="midnightblue" stroke="midnightblue" points="347.28,-99.1892 344.773,-109.483 353.152,-103 347.28,-99.1892"/>
</g>
<!-- Node5 -->
<g id="node5" class="node"><title>Node5</title>
<g id="a_node5"><a xlink:href="classx265_1_1Lookahead.html#a878bca13580997ab9c01e72a8f8e81c3" target="_top" xlink:title="x265::Lookahead::addPicture">
<polygon fill="white" stroke="black" points="1164.5,-211.993 1164.5,-230.993 1307.5,-230.993 1307.5,-211.993 1164.5,-211.993"/>
<text text-anchor="middle" x="1236" y="-218.993" font-family="Helvetica,sans-Serif" font-size="10.00">x265::Lookahead::addPicture</text>
</a>
</g>
</g>
<!-- Node4&#45;&gt;Node5 -->
<g id="edge4" class="edge"><title>Node4&#45;&gt;Node5</title>
<path fill="none" stroke="midnightblue" d="M1138.28,-200.37C1156.43,-204.334 1175.16,-208.424 1191.24,-211.936"/>
<polygon fill="midnightblue" stroke="midnightblue" points="1138.79,-196.899 1128.27,-198.184 1137.3,-203.737 1138.79,-196.899"/>
</g>
<!-- Node9 -->
<g id="node9" class="node"><title>Node9</title>
<g id="a_node9"><a xlink:href="classx265_1_1Lookahead.html#a0294c952379ca6f328014f92aa51259c" target="_top" xlink:title="x265::Lookahead::flush">
<polygon fill="white" stroke="black" points="1177,-173.993 1177,-192.993 1295,-192.993 1295,-173.993 1177,-173.993"/>
<text text-anchor="middle" x="1236" y="-180.993" font-family="Helvetica,sans-Serif" font-size="10.00">x265::Lookahead::flush</text>
</a>
</g>
</g>
<!-- Node4&#45;&gt;Node9 -->
<g id="edge8" class="edge"><title>Node4&#45;&gt;Node9</title>
<path fill="none" stroke="midnightblue" d="M1138.54,-183.493C1151.45,-183.493 1164.65,-183.493 1176.96,-183.493"/>
<polygon fill="midnightblue" stroke="midnightblue" points="1138.27,-179.993 1128.27,-183.493 1138.27,-186.993 1138.27,-179.993"/>
</g>
<!-- Node10 -->
<g id="node10" class="node"><title>Node10</title>
<g id="a_node10"><a xlink:href="classx265_1_1Lookahead.html#a341d8c6a3a971583aa911cf8dedbe6a1" target="_top" xlink:title="x265::Lookahead::findJob">
<polygon fill="white" stroke="black" points="1172,-135.993 1172,-154.993 1300,-154.993 1300,-135.993 1172,-135.993"/>
<text text-anchor="middle" x="1236" y="-142.993" font-family="Helvetica,sans-Serif" font-size="10.00">x265::Lookahead::findJob</text>
</a>
</g>
</g>
<!-- Node4&#45;&gt;Node10 -->
<g id="edge10" class="edge"><title>Node4&#45;&gt;Node10</title>
<path fill="none" stroke="midnightblue" d="M1138.28,-166.615C1156.43,-162.651 1175.16,-158.561 1191.24,-155.049"/>
<polygon fill="midnightblue" stroke="midnightblue" points="1137.3,-163.248 1128.27,-168.801 1138.79,-170.086 1137.3,-163.248"/>
</g>
<!-- Node6 -->
<g id="node6" class="node"><title>Node6</title>
<g id="a_node6"><a xlink:href="classx265_1_1Encoder.html#af5c80cef5fcafa00d1b3c105681bc784" target="_top" xlink:title="x265::Encoder::encode">
<polygon fill="white" stroke="black" points="1344.5,-192.993 1344.5,-211.993 1461.5,-211.993 1461.5,-192.993 1344.5,-192.993"/>
<text text-anchor="middle" x="1403" y="-199.993" font-family="Helvetica,sans-Serif" font-size="10.00">x265::Encoder::encode</text>
</a>
</g>
</g>
<!-- Node5&#45;&gt;Node6 -->
<g id="edge5" class="edge"><title>Node5&#45;&gt;Node6</title>
<path fill="none" stroke="midnightblue" d="M1317.95,-212.171C1326.84,-211.147 1335.77,-210.119 1344.3,-209.137"/>
<polygon fill="midnightblue" stroke="midnightblue" points="1317.47,-208.703 1307.93,-213.325 1318.27,-215.658 1317.47,-208.703"/>
</g>
<!-- Node7 -->
<g id="node7" class="node"><title>Node7</title>
<g id="a_node7"><a xlink:href="x265_8h.html#a7a45a920b9d86ed3fb3cb3794b14f5ea" target="_top" xlink:title="x265_encoder_encode">
<polygon fill="white" stroke="black" points="1498,-192.993 1498,-211.993 1612,-211.993 1612,-192.993 1498,-192.993"/>
<text text-anchor="middle" x="1555" y="-199.993" font-family="Helvetica,sans-Serif" font-size="10.00">x265_encoder_encode</text>
</a>
</g>
</g>
<!-- Node6&#45;&gt;Node7 -->
<g id="edge6" class="edge"><title>Node6&#45;&gt;Node7</title>
<path fill="none" stroke="midnightblue" d="M1471.72,-202.493C1480.45,-202.493 1489.31,-202.493 1497.83,-202.493"/>
<polygon fill="midnightblue" stroke="midnightblue" points="1471.56,-198.993 1461.56,-202.493 1471.56,-205.993 1471.56,-198.993"/>
</g>
<!-- Node8 -->
<g id="node8" class="node"><title>Node8</title>
<g id="a_node8"><a xlink:href="x265_8cpp.html#a3c04138a5bfe5d72780bb7e82a18e627" target="_top" xlink:title="main">
<polygon fill="white" stroke="black" points="1648,-192.993 1648,-211.993 1686,-211.993 1686,-192.993 1648,-192.993"/>
<text text-anchor="middle" x="1667" y="-199.993" font-family="Helvetica,sans-Serif" font-size="10.00">main</text>
</a>
</g>
</g>
<!-- Node7&#45;&gt;Node8 -->
<g id="edge7" class="edge"><title>Node7&#45;&gt;Node8</title>
<path fill="none" stroke="midnightblue" d="M1622.49,-202.493C1631.78,-202.493 1640.61,-202.493 1647.86,-202.493"/>
<polygon fill="midnightblue" stroke="midnightblue" points="1622.29,-198.993 1612.29,-202.493 1622.29,-205.993 1622.29,-198.993"/>
</g>
<!-- Node9&#45;&gt;Node6 -->
<g id="edge9" class="edge"><title>Node9&#45;&gt;Node6</title>
<path fill="none" stroke="midnightblue" d="M1305.42,-191.372C1318.37,-192.862 1331.78,-194.407 1344.35,-195.854"/>
<polygon fill="midnightblue" stroke="midnightblue" points="1305.51,-187.858 1295.17,-190.191 1304.71,-194.812 1305.51,-187.858"/>
</g>
<!-- Node12 -->
<g id="node12" class="node"><title>Node12</title>
<g id="a_node12"><a xlink:href="classx265_1_1Lookahead.html#ad80879ec65df8318fbb5109388dcfa39" target="_top" xlink:title="x265::Lookahead::vbvLookahead">
<polygon fill="white" stroke="black" points="624,-174.993 624,-193.993 784,-193.993 784,-174.993 624,-174.993"/>
<text text-anchor="middle" x="704" y="-181.993" font-family="Helvetica,sans-Serif" font-size="10.00">x265::Lookahead::vbvLookahead</text>
</a>
</g>
</g>
<!-- Node11&#45;&gt;Node12 -->
<g id="edge12" class="edge"><title>Node11&#45;&gt;Node12</title>
<path fill="none" stroke="midnightblue" d="M597.797,-184.493C606.534,-184.493 615.355,-184.493 623.975,-184.493"/>
<polygon fill="midnightblue" stroke="midnightblue" points="597.595,-180.993 587.595,-184.493 597.595,-187.993 597.595,-180.993"/>
</g>
<!-- Node12&#45;&gt;Node13 -->
<g id="edge13" class="edge"><title>Node12&#45;&gt;Node13</title>
<path fill="none" stroke="midnightblue" d="M747.103,-171.98C759.053,-168.353 772.06,-164.334 784,-160.493 803.687,-154.159 825.377,-146.84 843.754,-140.538"/>
<polygon fill="midnightblue" stroke="midnightblue" points="745.922,-168.68 737.361,-174.921 747.946,-175.381 745.922,-168.68"/>
</g>
<!-- Node13&#45;&gt;Node4 -->
<g id="edge14" class="edge"><title>Node13&#45;&gt;Node4</title>
<path fill="none" stroke="midnightblue" d="M942.935,-143.894C966.17,-151.821 992.995,-160.973 1015,-168.481"/>
<polygon fill="midnightblue" stroke="midnightblue" points="943.816,-140.496 933.222,-140.58 941.556,-147.122 943.816,-140.496"/>
</g>
<!-- Node15 -->
<g id="node15" class="node"><title>Node15</title>
<g id="a_node15"><a xlink:href="classx265_1_1Lookahead.html#aa8614a28660df5604b8f7a2319d1c43a" target="_top" xlink:title="x265::Lookahead::scenecut">
<polygon fill="white" stroke="black" points="635.5,-95.9925 635.5,-114.993 772.5,-114.993 772.5,-95.9925 635.5,-95.9925"/>
<text text-anchor="middle" x="704" y="-102.993" font-family="Helvetica,sans-Serif" font-size="10.00">x265::Lookahead::scenecut</text>
</a>
</g>
</g>
<!-- Node14&#45;&gt;Node15 -->
<g id="edge17" class="edge"><title>Node14&#45;&gt;Node15</title>
<path fill="none" stroke="midnightblue" d="M585.773,-103.689C602.215,-103.942 619.439,-104.207 635.465,-104.454"/>
<polygon fill="midnightblue" stroke="midnightblue" points="585.707,-100.188 575.654,-103.533 585.599,-107.187 585.707,-100.188"/>
</g>
<!-- Node15&#45;&gt;Node13 -->
<g id="edge18" class="edge"><title>Node15&#45;&gt;Node13</title>
<path fill="none" stroke="midnightblue" d="M782.788,-114.041C795.139,-115.398 807.822,-116.792 819.901,-118.119"/>
<polygon fill="midnightblue" stroke="midnightblue" points="782.834,-110.525 772.511,-112.911 782.069,-117.483 782.834,-110.525"/>
</g>
<!-- Node17 -->
<g id="node17" class="node"><title>Node17</title>
<g id="a_node17"><a xlink:href="classx265_1_1Lookahead.html#a694b3e0d0fb30e4e5b149cd3d79a839d" target="_top" xlink:title="x265::Lookahead::slicetypePath">
<polygon fill="white" stroke="black" points="626,-51.9925 626,-70.9925 782,-70.9925 782,-51.9925 626,-51.9925"/>
<text text-anchor="middle" x="704" y="-58.9925" font-family="Helvetica,sans-Serif" font-size="10.00">x265::Lookahead::slicetypePath</text>
</a>
</g>
</g>
<!-- Node16&#45;&gt;Node17 -->
<g id="edge20" class="edge"><title>Node16&#45;&gt;Node17</title>
<path fill="none" stroke="midnightblue" d="M585.182,-56.659C598.514,-57.2059 612.377,-57.7747 625.712,-58.3217"/>
<polygon fill="midnightblue" stroke="midnightblue" points="585.243,-53.1586 575.108,-56.2457 584.956,-60.1527 585.243,-53.1586"/>
</g>
<!-- Node17&#45;&gt;Node13 -->
<g id="edge21" class="edge"><title>Node17&#45;&gt;Node13</title>
<path fill="none" stroke="midnightblue" d="M746.528,-74.1588C758.653,-77.9853 771.897,-82.2897 784,-86.4925 805.495,-93.9566 829.262,-102.908 848.545,-110.352"/>
<polygon fill="midnightblue" stroke="midnightblue" points="747.244,-70.7155 736.655,-71.0695 745.153,-77.3961 747.244,-70.7155"/>
</g>
<!-- Node18&#45;&gt;Node13 -->
<g id="edge23" class="edge"><title>Node18&#45;&gt;Node13</title>
<path fill="none" stroke="midnightblue" d="M746.499,-25.4589C758.932,-30.075 772.351,-35.8131 784,-42.4925 817.869,-61.9117 852.176,-92.141 871.405,-110.26"/>
<polygon fill="midnightblue" stroke="midnightblue" points="747.387,-22.0596 736.792,-22.0008 745.038,-28.6537 747.387,-22.0596"/>
</g>
</g>
</svg>
        <g id="navigator" transform="translate(0 0)" fill="#404254">
                <rect fill="#f2f5e9" fill-opacity="0.5" stroke="#606060" stroke-width=".5" x="0" y="0" width="60" height="60"/>
                <use id="zoomplus" xlink:href="#zoomPlus" x="17" y="9" onmousedown="handleZoom(evt,'in')"/>
                <use id="zoomminus" xlink:href="#zoomMin" x="42" y="9" onmousedown="handleZoom(evt,'out')"/>
                <use id="reset" xlink:href="#resetDef" x="30" y="36" onmousedown="handleReset()"/>
                <g id="arrowUp" xlink:href="#dirArrow" transform="translate(30 24)" onmousedown="handlePan(0,-1)">
                  <use xlink:href="#rim" fill="#404040">
                        <set attributeName="fill" to="#808080" begin="arrowUp.mouseover" end="arrowUp.mouseout"/>
                  </use>
                  <path fill="none" stroke="white" stroke-width="1.5" d="M0,-3.0v7 M-2.5,-0.5L0,-3.0L2.5,-0.5"/>
                </g>
                <g id="arrowRight" xlink:href="#dirArrow" transform="rotate(90) translate(36 -43)" onmousedown="handlePan(1,0)">
                  <use xlink:href="#rim" fill="#404040">
                        <set attributeName="fill" to="#808080" begin="arrowRight.mouseover" end="arrowRight.mouseout"/>
                  </use>
                  <path fill="none" stroke="white" stroke-width="1.5" d="M0,-3.0v7 M-2.5,-0.5L0,-3.0L2.5,-0.5"/>
                </g>
                <g id="arrowDown" xlink:href="#dirArrow" transform="rotate(180) translate(-30 -48)" onmousedown="handlePan(0,1)">
                  <use xlink:href="#rim" fill="#404040">
                        <set attributeName="fill" to="#808080" begin="arrowDown.mouseover" end="arrowDown.mouseout"/>
                  </use>
                  <path fill="none" stroke="white" stroke-width="1.5" d="M0,-3.0v7 M-2.5,-0.5L0,-3.0L2.5,-0.5"/>
                </g>
                <g id="arrowLeft" xlink:href="#dirArrow" transform="rotate(270) translate(-36 17)" onmousedown="handlePan(-1,0)">
                  <use xlink:href="#rim" fill="#404040">
                        <set attributeName="fill" to="#808080" begin="arrowLeft.mouseover" end="arrowLeft.mouseout"/>
                  </use>
                  <path fill="none" stroke="white" stroke-width="1.5" d="M0,-3.0v7 M-2.5,-0.5L0,-3.0L2.5,-0.5"/>
                </g>
        </g>
        <svg viewBox="0 0 15 15" width="100%" height="30px" preserveAspectRatio="xMaxYMin meet">
         <g id="arrow_out" transform="scale(0.3 0.3)">
          <a xlink:href="classx265_1_1CostEstimate_a0cbdff1f1c55dcec0820ddef993eafee_icgraph_org.svg" target="_base">
           <rect id="button" ry="5" rx="5" y="6" x="6" height="38" width="38"
                fill="#f2f5e9" fill-opacity="0.5" stroke="#606060" stroke-width="1.0"/>
           <path id="arrow"
             d="M 11.500037,31.436501 C 11.940474,20.09759 22.043105,11.32322 32.158766,21.979434 L 37.068811,17.246167 C 37.068811,17.246167 37.088388,32 37.088388,32 L 22.160133,31.978069 C 22.160133,31.978069 26.997745,27.140456 26.997745,27.140456 C 18.528582,18.264221 13.291696,25.230495 11.500037,31.436501 z"
             style="fill:#404040;"/>
          </a>
         </g>
        </svg>
</svg>
