<?xml version="1.0" encoding="UTF-8" standalone="no"?>
<!DOCTYPE svg PUBLIC "-//W3C//DTD SVG 1.1//EN"
 "http://www.w3.org/Graphics/SVG/1.1/DTD/svg11.dtd">
<!-- Generated by graphviz version 2.36.0 (20140111.2315)
 -->
<!-- Title: x265::RateControl::clipQscale Pages: 1 -->
<svg width="248pt" height="153pt"
 viewBox="0.00 0.00 248.00 153.00" xmlns="http://www.w3.org/2000/svg" xmlns:xlink="http://www.w3.org/1999/xlink">
<g id="graph0" class="graph" transform="scale(1 1) rotate(0) translate(4 149)">
<title>x265::RateControl::clipQscale</title>
<polygon fill="white" stroke="none" points="-4,4 -4,-149 244,-149 244,4 -4,4"/>
<!-- Node1 -->
<g id="node1" class="node"><title>Node1</title>
<polygon fill="#bfbfbf" stroke="black" points="0,-52 0,-82 102,-82 102,-52 0,-52"/>
<text text-anchor="start" x="8" y="-70" font-family="Helvetica,sans-Serif" font-size="10.00">x265::RateControl::</text>
<text text-anchor="middle" x="51" y="-59" font-family="Helvetica,sans-Serif" font-size="10.00">clipQscale</text>
</g>
<!-- Node2 -->
<g id="node2" class="node"><title>Node2</title>
<g id="a_node2"><a xlink:href="classx265_1_1RateControl.html#a47722986970e185b7770688f20e45cc1" target="_top" xlink:title="x265::RateControl::\lpredictSize">
<polygon fill="white" stroke="black" points="138,-115 138,-145 240,-145 240,-115 138,-115"/>
<text text-anchor="start" x="146" y="-133" font-family="Helvetica,sans-Serif" font-size="10.00">x265::RateControl::</text>
<text text-anchor="middle" x="189" y="-122" font-family="Helvetica,sans-Serif" font-size="10.00">predictSize</text>
</a>
</g>
</g>
<!-- Node1&#45;&gt;Node2 -->
<g id="edge1" class="edge"><title>Node1&#45;&gt;Node2</title>
<path fill="none" stroke="midnightblue" d="M84.5754,-82.0901C103.028,-90.6378 126.308,-101.422 146.107,-110.594"/>
<polygon fill="midnightblue" stroke="midnightblue" points="144.674,-113.787 155.219,-114.815 147.616,-107.436 144.674,-113.787"/>
</g>
<!-- Node3 -->
<g id="node3" class="node"><title>Node3</title>
<g id="a_node3"><a xlink:href="common_8h.html#a0bc45c2b4097068046b78520c8c09a94" target="_top" xlink:title="Clip3">
<polygon fill="white" stroke="black" points="169.5,-76.5 169.5,-95.5 208.5,-95.5 208.5,-76.5 169.5,-76.5"/>
<text text-anchor="middle" x="189" y="-83.5" font-family="Helvetica,sans-Serif" font-size="10.00">Clip3</text>
</a>
</g>
</g>
<!-- Node1&#45;&gt;Node3 -->
<g id="edge2" class="edge"><title>Node1&#45;&gt;Node3</title>
<path fill="none" stroke="midnightblue" d="M102.255,-74.0209C121.497,-76.7091 142.777,-79.682 159.324,-81.9937"/>
<polygon fill="midnightblue" stroke="midnightblue" points="159.057,-85.4904 169.445,-83.4077 160.025,-78.5577 159.057,-85.4904"/>
</g>
<!-- Node4 -->
<g id="node4" class="node"><title>Node4</title>
<g id="a_node4"><a xlink:href="common_8cpp.html#a554f90f0dbbe8f4af1b542ff48c2ec2b" target="_top" xlink:title="x265_qScale2qp">
<polygon fill="white" stroke="black" points="144.5,-38.5 144.5,-57.5 233.5,-57.5 233.5,-38.5 144.5,-38.5"/>
<text text-anchor="middle" x="189" y="-45.5" font-family="Helvetica,sans-Serif" font-size="10.00">x265_qScale2qp</text>
</a>
</g>
</g>
<!-- Node1&#45;&gt;Node4 -->
<g id="edge3" class="edge"><title>Node1&#45;&gt;Node4</title>
<path fill="none" stroke="midnightblue" d="M102.255,-59.9791C112.691,-58.5211 123.727,-56.9794 134.282,-55.5048"/>
<polygon fill="midnightblue" stroke="midnightblue" points="134.799,-58.9666 144.219,-54.1165 133.831,-52.0339 134.799,-58.9666"/>
</g>
<!-- Node5 -->
<g id="node5" class="node"><title>Node5</title>
<g id="a_node5"><a xlink:href="common_8cpp.html#a4f4c9b86a7de778b323e810d58f82881" target="_top" xlink:title="x265_qp2qScale">
<polygon fill="white" stroke="black" points="144.5,-0.5 144.5,-19.5 233.5,-19.5 233.5,-0.5 144.5,-0.5"/>
<text text-anchor="middle" x="189" y="-7.5" font-family="Helvetica,sans-Serif" font-size="10.00">x265_qp2qScale</text>
</a>
</g>
</g>
<!-- Node1&#45;&gt;Node5 -->
<g id="edge4" class="edge"><title>Node1&#45;&gt;Node5</title>
<path fill="none" stroke="midnightblue" d="M84.904,-51.9725C100.851,-44.8146 120.333,-36.2539 138,-29 142.764,-27.0441 147.809,-25.0441 152.792,-23.1107"/>
<polygon fill="midnightblue" stroke="midnightblue" points="154.119,-26.3506 162.204,-19.5043 151.614,-19.814 154.119,-26.3506"/>
</g>
</g>
</svg>
