<?xml version="1.0" encoding="UTF-8" standalone="no"?>
<!DOCTYPE svg PUBLIC "-//W3C//DTD SVG 1.1//EN"
 "http://www.w3.org/Graphics/SVG/1.1/DTD/svg11.dtd">
<!-- Generated by graphviz version 2.36.0 (20140111.2315)
 -->
<!-- Title: x265::CUData::isDiffMER Pages: 1 -->
<svg width="1384pt" height="192pt"
 viewBox="0.00 0.00 1384.00 192.00" xmlns="http://www.w3.org/2000/svg" xmlns:xlink="http://www.w3.org/1999/xlink">
<g id="graph0" class="graph" transform="scale(1 1) rotate(0) translate(4 188)">
<title>x265::CUData::isDiffMER</title>
<polygon fill="white" stroke="none" points="-4,4 -4,-188 1380,-188 1380,4 -4,4"/>
<!-- Node1 -->
<g id="node1" class="node"><title>Node1</title>
<polygon fill="#bfbfbf" stroke="black" points="0.5,-49.5 0.5,-68.5 131.5,-68.5 131.5,-49.5 0.5,-49.5"/>
<text text-anchor="middle" x="66" y="-56.5" font-family="Helvetica,sans-Serif" font-size="10.00">x265::CUData::isDiffMER</text>
</g>
<!-- Node2 -->
<g id="node2" class="node"><title>Node2</title>
<g id="a_node2"><a xlink:href="classx265_1_1CUData.html#a0a0813a6acf261b95304a250aec73c3b" target="_top" xlink:title="x265::CUData::getInterMerge\lCandidates">
<polygon fill="white" stroke="black" points="168,-44 168,-74 314,-74 314,-44 168,-44"/>
<text text-anchor="start" x="176" y="-62" font-family="Helvetica,sans-Serif" font-size="10.00">x265::CUData::getInterMerge</text>
<text text-anchor="middle" x="241" y="-51" font-family="Helvetica,sans-Serif" font-size="10.00">Candidates</text>
</a>
</g>
</g>
<!-- Node1&#45;&gt;Node2 -->
<g id="edge1" class="edge"><title>Node1&#45;&gt;Node2</title>
<path fill="none" stroke="midnightblue" d="M142.173,-59C150.665,-59 159.305,-59 167.758,-59"/>
<polygon fill="midnightblue" stroke="midnightblue" points="141.911,-55.5001 131.911,-59 141.911,-62.5001 141.911,-55.5001"/>
</g>
<!-- Node3 -->
<g id="node3" class="node"><title>Node3</title>
<g id="a_node3"><a xlink:href="classx265_1_1Analysis.html#addd72cb95590e2b2a6965d42d110eab3" target="_top" xlink:title="x265::Analysis::checkMerge2\lNx2N_rd0_4">
<polygon fill="white" stroke="black" points="726,-127 726,-157 872,-157 872,-127 726,-127"/>
<text text-anchor="start" x="734" y="-145" font-family="Helvetica,sans-Serif" font-size="10.00">x265::Analysis::checkMerge2</text>
<text text-anchor="middle" x="799" y="-134" font-family="Helvetica,sans-Serif" font-size="10.00">Nx2N_rd0_4</text>
</a>
</g>
</g>
<!-- Node2&#45;&gt;Node3 -->
<g id="edge2" class="edge"><title>Node2&#45;&gt;Node3</title>
<path fill="none" stroke="midnightblue" d="M324.387,-73.7769C333.029,-75.2423 341.689,-76.6757 350,-78 482.288,-99.08 637.087,-120.47 725.731,-132.406"/>
<polygon fill="midnightblue" stroke="midnightblue" points="324.72,-70.2831 314.273,-72.0466 323.539,-77.1828 324.72,-70.2831"/>
</g>
<!-- Node8 -->
<g id="node8" class="node"><title>Node8</title>
<g id="a_node8"><a xlink:href="classx265_1_1Analysis.html#a0194a9da53aa95173fa1132ba3aea1c7" target="_top" xlink:title="x265::Analysis::checkMerge2\lNx2N_rd5_6">
<polygon fill="white" stroke="black" points="542,-0 542,-30 688,-30 688,-0 542,-0"/>
<text text-anchor="start" x="550" y="-18" font-family="Helvetica,sans-Serif" font-size="10.00">x265::Analysis::checkMerge2</text>
<text text-anchor="middle" x="615" y="-7" font-family="Helvetica,sans-Serif" font-size="10.00">Nx2N_rd5_6</text>
</a>
</g>
</g>
<!-- Node2&#45;&gt;Node8 -->
<g id="edge8" class="edge"><title>Node2&#45;&gt;Node8</title>
<path fill="none" stroke="midnightblue" d="M324.327,-43.8172C332.981,-42.4306 341.66,-41.1266 350,-40 414.672,-31.2633 488.666,-24.5369 541.831,-20.2732"/>
<polygon fill="midnightblue" stroke="midnightblue" points="323.505,-40.4053 314.203,-45.4772 324.637,-47.3131 323.505,-40.4053"/>
</g>
<!-- Node10 -->
<g id="node10" class="node"><title>Node10</title>
<g id="a_node10"><a xlink:href="classx265_1_1Search.html#a761560ef5d3ff0beb48567c88c771d55" target="_top" xlink:title="x265::Search::mergeEstimation">
<polygon fill="white" stroke="black" points="350,-49.5 350,-68.5 504,-68.5 504,-49.5 350,-49.5"/>
<text text-anchor="middle" x="427" y="-56.5" font-family="Helvetica,sans-Serif" font-size="10.00">x265::Search::mergeEstimation</text>
</a>
</g>
</g>
<!-- Node2&#45;&gt;Node10 -->
<g id="edge11" class="edge"><title>Node2&#45;&gt;Node10</title>
<path fill="none" stroke="midnightblue" d="M324.414,-59C332.853,-59 341.401,-59 349.77,-59"/>
<polygon fill="midnightblue" stroke="midnightblue" points="324.194,-55.5001 314.194,-59 324.194,-62.5001 324.194,-55.5001"/>
</g>
<!-- Node4 -->
<g id="node4" class="node"><title>Node4</title>
<g id="a_node4"><a xlink:href="classx265_1_1Analysis.html#a87060ff27a37f56adc5f5b8a4c033ece" target="_top" xlink:title="x265::Analysis::compress\lInterCU_dist">
<polygon fill="white" stroke="black" points="908,-154 908,-184 1038,-184 1038,-154 908,-154"/>
<text text-anchor="start" x="916" y="-172" font-family="Helvetica,sans-Serif" font-size="10.00">x265::Analysis::compress</text>
<text text-anchor="middle" x="973" y="-161" font-family="Helvetica,sans-Serif" font-size="10.00">InterCU_dist</text>
</a>
</g>
</g>
<!-- Node3&#45;&gt;Node4 -->
<g id="edge3" class="edge"><title>Node3&#45;&gt;Node4</title>
<path fill="none" stroke="midnightblue" d="M882.422,-154.938C890.957,-156.278 899.539,-157.625 907.831,-158.927"/>
<polygon fill="midnightblue" stroke="midnightblue" points="882.867,-151.465 872.445,-153.372 881.781,-158.381 882.867,-151.465"/>
</g>
<!-- Node7 -->
<g id="node7" class="node"><title>Node7</title>
<g id="a_node7"><a xlink:href="classx265_1_1Analysis.html#a30d2ff7eca5addbb0a6b3dfe14f09650" target="_top" xlink:title="x265::Analysis::compress\lInterCU_rd0_4">
<polygon fill="white" stroke="black" points="908,-105 908,-135 1038,-135 1038,-105 908,-105"/>
<text text-anchor="start" x="916" y="-123" font-family="Helvetica,sans-Serif" font-size="10.00">x265::Analysis::compress</text>
<text text-anchor="middle" x="973" y="-112" font-family="Helvetica,sans-Serif" font-size="10.00">InterCU_rd0_4</text>
</a>
</g>
</g>
<!-- Node3&#45;&gt;Node7 -->
<g id="edge6" class="edge"><title>Node3&#45;&gt;Node7</title>
<path fill="none" stroke="midnightblue" d="M882.422,-131.458C890.957,-130.366 899.539,-129.268 907.831,-128.208"/>
<polygon fill="midnightblue" stroke="midnightblue" points="881.92,-127.993 872.445,-132.734 882.808,-134.937 881.92,-127.993"/>
</g>
<!-- Node5 -->
<g id="node5" class="node"><title>Node5</title>
<g id="a_node5"><a xlink:href="classx265_1_1Analysis.html#aaebc9de2ff98834c650244f3b58942c2" target="_top" xlink:title="x265::Analysis::compressCTU">
<polygon fill="white" stroke="black" points="1074.5,-110.5 1074.5,-129.5 1225.5,-129.5 1225.5,-110.5 1074.5,-110.5"/>
<text text-anchor="middle" x="1150" y="-117.5" font-family="Helvetica,sans-Serif" font-size="10.00">x265::Analysis::compressCTU</text>
</a>
</g>
</g>
<!-- Node4&#45;&gt;Node5 -->
<g id="edge4" class="edge"><title>Node4&#45;&gt;Node5</title>
<path fill="none" stroke="midnightblue" d="M1037.79,-151.14C1063.94,-143.818 1093.15,-135.639 1115.06,-129.502"/>
<polygon fill="midnightblue" stroke="midnightblue" points="1036.62,-147.832 1027.93,-153.899 1038.51,-154.573 1036.62,-147.832"/>
</g>
<!-- Node6 -->
<g id="node6" class="node"><title>Node6</title>
<g id="a_node6"><a xlink:href="classx265_1_1FrameEncoder.html#a0ae85001572afd28238476542523ac5f" target="_top" xlink:title="x265::FrameEncoder\l::processRowEncoder">
<polygon fill="white" stroke="red" points="1262.5,-105 1262.5,-135 1375.5,-135 1375.5,-105 1262.5,-105"/>
<text text-anchor="start" x="1270.5" y="-123" font-family="Helvetica,sans-Serif" font-size="10.00">x265::FrameEncoder</text>
<text text-anchor="middle" x="1319" y="-112" font-family="Helvetica,sans-Serif" font-size="10.00">::processRowEncoder</text>
</a>
</g>
</g>
<!-- Node5&#45;&gt;Node6 -->
<g id="edge5" class="edge"><title>Node5&#45;&gt;Node6</title>
<path fill="none" stroke="midnightblue" d="M1235.86,-120C1244.86,-120 1253.85,-120 1262.39,-120"/>
<polygon fill="midnightblue" stroke="midnightblue" points="1235.71,-116.5 1225.71,-120 1235.71,-123.5 1235.71,-116.5"/>
</g>
<!-- Node7&#45;&gt;Node5 -->
<g id="edge7" class="edge"><title>Node7&#45;&gt;Node5</title>
<path fill="none" stroke="midnightblue" d="M1048.25,-120C1056.93,-120 1065.78,-120 1074.47,-120"/>
<polygon fill="midnightblue" stroke="midnightblue" points="1048.17,-116.5 1038.17,-120 1048.17,-123.5 1048.17,-116.5"/>
</g>
<!-- Node9 -->
<g id="node9" class="node"><title>Node9</title>
<g id="a_node9"><a xlink:href="classx265_1_1Analysis.html#a0b22b7765aa4a36b1ba6d07ba26901e6" target="_top" xlink:title="x265::Analysis::compress\lInterCU_rd5_6">
<polygon fill="white" stroke="black" points="908,-7 908,-37 1038,-37 1038,-7 908,-7"/>
<text text-anchor="start" x="916" y="-25" font-family="Helvetica,sans-Serif" font-size="10.00">x265::Analysis::compress</text>
<text text-anchor="middle" x="973" y="-14" font-family="Helvetica,sans-Serif" font-size="10.00">InterCU_rd5_6</text>
</a>
</g>
</g>
<!-- Node8&#45;&gt;Node9 -->
<g id="edge9" class="edge"><title>Node8&#45;&gt;Node9</title>
<path fill="none" stroke="midnightblue" d="M698.159,-15.9839C748.373,-16.6598 813.9,-17.6747 872,-19 883.634,-19.2654 896.028,-19.5974 907.988,-19.9429"/>
<polygon fill="midnightblue" stroke="midnightblue" points="698.052,-12.4822 688.006,-15.849 697.959,-19.4816 698.052,-12.4822"/>
</g>
<!-- Node9&#45;&gt;Node5 -->
<g id="edge10" class="edge"><title>Node9&#45;&gt;Node5</title>
<path fill="none" stroke="midnightblue" d="M1027.71,-41.0911C1031.23,-42.664 1034.69,-44.3043 1038,-46 1075.93,-65.4286 1116.68,-95.1571 1136.6,-110.343"/>
<polygon fill="midnightblue" stroke="midnightblue" points="1028.87,-37.7821 1018.3,-37.0927 1026.13,-44.2247 1028.87,-37.7821"/>
</g>
<!-- Node11 -->
<g id="node11" class="node"><title>Node11</title>
<g id="a_node11"><a xlink:href="classx265_1_1Search.html#a48101e3d900e93b97a83f461be390bd1" target="_top" xlink:title="x265::Search::predInterSearch">
<polygon fill="white" stroke="black" points="540.5,-49.5 540.5,-68.5 689.5,-68.5 689.5,-49.5 540.5,-49.5"/>
<text text-anchor="middle" x="615" y="-56.5" font-family="Helvetica,sans-Serif" font-size="10.00">x265::Search::predInterSearch</text>
</a>
</g>
</g>
<!-- Node10&#45;&gt;Node11 -->
<g id="edge12" class="edge"><title>Node10&#45;&gt;Node11</title>
<path fill="none" stroke="midnightblue" d="M514.336,-59C523.024,-59 531.791,-59 540.33,-59"/>
<polygon fill="midnightblue" stroke="midnightblue" points="514.19,-55.5001 504.19,-59 514.19,-62.5001 514.19,-55.5001"/>
</g>
<!-- Node12 -->
<g id="node12" class="node"><title>Node12</title>
<g id="a_node12"><a xlink:href="classx265_1_1Analysis.html#a2305f7985af66b49fdbc40ebb1b281d2" target="_top" xlink:title="x265::Analysis::checkInter\l_rd0_4">
<polygon fill="white" stroke="black" points="732.5,-78 732.5,-108 865.5,-108 865.5,-78 732.5,-78"/>
<text text-anchor="start" x="740.5" y="-96" font-family="Helvetica,sans-Serif" font-size="10.00">x265::Analysis::checkInter</text>
<text text-anchor="middle" x="799" y="-85" font-family="Helvetica,sans-Serif" font-size="10.00">_rd0_4</text>
</a>
</g>
</g>
<!-- Node11&#45;&gt;Node12 -->
<g id="edge13" class="edge"><title>Node11&#45;&gt;Node12</title>
<path fill="none" stroke="midnightblue" d="M677.357,-70.4622C695.006,-73.7593 714.325,-77.3684 732.23,-80.7132"/>
<polygon fill="midnightblue" stroke="midnightblue" points="677.654,-66.9573 667.181,-68.5614 676.369,-73.8383 677.654,-66.9573"/>
</g>
<!-- Node14 -->
<g id="node14" class="node"><title>Node14</title>
<g id="a_node14"><a xlink:href="classx265_1_1Analysis.html#a828daa3e9f1ed40a1af9f99f7ff7bb33" target="_top" xlink:title="x265::Analysis::checkInter\l_rd5_6">
<polygon fill="white" stroke="black" points="732.5,-29 732.5,-59 865.5,-59 865.5,-29 732.5,-29"/>
<text text-anchor="start" x="740.5" y="-47" font-family="Helvetica,sans-Serif" font-size="10.00">x265::Analysis::checkInter</text>
<text text-anchor="middle" x="799" y="-36" font-family="Helvetica,sans-Serif" font-size="10.00">_rd5_6</text>
</a>
</g>
</g>
<!-- Node11&#45;&gt;Node14 -->
<g id="edge16" class="edge"><title>Node11&#45;&gt;Node14</title>
<path fill="none" stroke="midnightblue" d="M699.569,-52.1124C710.597,-51.2035 721.771,-50.2826 732.438,-49.4034"/>
<polygon fill="midnightblue" stroke="midnightblue" points="699.18,-48.6325 689.502,-52.9422 699.755,-55.6089 699.18,-48.6325"/>
</g>
<!-- Node12&#45;&gt;Node7 -->
<g id="edge15" class="edge"><title>Node12&#45;&gt;Node7</title>
<path fill="none" stroke="midnightblue" d="M875.698,-104.883C886.409,-106.564 897.336,-108.28 907.803,-109.923"/>
<polygon fill="midnightblue" stroke="midnightblue" points="875.938,-101.378 865.516,-103.285 874.853,-108.293 875.938,-101.378"/>
</g>
<!-- Node13 -->
<g id="node13" class="node"><title>Node13</title>
<g id="a_node13"><a xlink:href="classx265_1_1Analysis.html#aa6122285d10bb1bd7584958b88b029d5" target="_top" xlink:title="x265::Analysis::parallel\lModeAnalysis">
<polygon fill="white" stroke="red" points="914,-56 914,-86 1032,-86 1032,-56 914,-56"/>
<text text-anchor="start" x="922" y="-74" font-family="Helvetica,sans-Serif" font-size="10.00">x265::Analysis::parallel</text>
<text text-anchor="middle" x="973" y="-63" font-family="Helvetica,sans-Serif" font-size="10.00">ModeAnalysis</text>
</a>
</g>
</g>
<!-- Node12&#45;&gt;Node13 -->
<g id="edge14" class="edge"><title>Node12&#45;&gt;Node13</title>
<path fill="none" stroke="midnightblue" d="M875.72,-83.3148C888.554,-81.6733 901.698,-79.9921 913.986,-78.4204"/>
<polygon fill="midnightblue" stroke="midnightblue" points="874.992,-79.8794 865.516,-84.62 875.88,-86.8229 874.992,-79.8794"/>
</g>
<!-- Node14&#45;&gt;Node9 -->
<g id="edge17" class="edge"><title>Node14&#45;&gt;Node9</title>
<path fill="none" stroke="midnightblue" d="M875.698,-34.3177C886.409,-32.9477 897.336,-31.55 907.803,-30.2113"/>
<polygon fill="midnightblue" stroke="midnightblue" points="874.992,-30.8794 865.516,-35.62 875.88,-37.8229 874.992,-30.8794"/>
</g>
</g>
</svg>
