<?xml version="1.0" encoding="UTF-8" standalone="no"?>
<!DOCTYPE svg PUBLIC "-//W3C//DTD SVG 1.1//EN"
 "http://www.w3.org/Graphics/SVG/1.1/DTD/svg11.dtd">
<!-- Generated by graphviz version 2.36.0 (20140111.2315)
 -->
<!-- Title: x265::Slice::isIntra Pages: 1 -->
<!--zoomable 349 -->
<svg id="main" version="1.1" xmlns="http://www.w3.org/2000/svg" xmlns:xlink="http://www.w3.org/1999/xlink" xml:space="preserve" onload="init(evt)">
<style type="text/css"><![CDATA[
.edge:hover path { stroke: red; }
.edge:hover polygon { stroke: red; fill: red; }
]]></style>
<script type="text/javascript"><![CDATA[
var edges = document.getElementsByTagName('g');
if (edges && edges.length) {
  for (var i=0;i<edges.length;i++) {
    if (edges[i].id.substr(0,4)=='edge') {
      edges[i].setAttribute('class','edge');
    }
  }
}
]]></script>
        <defs>
                <circle id="rim" cx="0" cy="0" r="7"/>
                <circle id="rim2" cx="0" cy="0" r="3.5"/>
                <g id="zoomPlus">
                        <use xlink:href="#rim" fill="#404040">
                                <set attributeName="fill" to="#808080" begin="zoomplus.mouseover" end="zoomplus.mouseout"/>
                        </use>
                        <path d="M-4,0h8M0,-4v8" fill="none" stroke="white" stroke-width="1.5" pointer-events="none"/>
                </g>
                <g id="zoomMin">
                        <use xlink:href="#rim" fill="#404040">
                                <set attributeName="fill" to="#808080" begin="zoomminus.mouseover" end="zoomminus.mouseout"/>
                        </use>
                        <path d="M-4,0h8" fill="none" stroke="white" stroke-width="1.5" pointer-events="none"/>
                </g>
                <g id="dirArrow">
                        <path fill="none" stroke="white" stroke-width="1.5" d="M0,-3.0v7 M-2.5,-0.5L0,-3.0L2.5,-0.5"/>
                </g>
               <g id="resetDef">
                       <use xlink:href="#rim2" fill="#404040">
                               <set attributeName="fill" to="#808080" begin="reset.mouseover" end="reset.mouseout"/>
                       </use>
               </g>
        </defs>

<script type="text/javascript">
var viewWidth = 1922;
var viewHeight = 349;
var sectionId = 'dynsection-7';
</script>
<script xlink:href="svgpan.js"/>
<svg id="graph" class="graph">
<g id="viewport">
<title>x265::Slice::isIntra</title>
<polygon fill="white" stroke="none" points="-4,4 -4,-345 1918,-345 1918,4 -4,4"/>
<!-- Node1 -->
<g id="node1" class="node"><title>Node1</title>
<polygon fill="#bfbfbf" stroke="black" points="0,-109.5 0,-128.5 98,-128.5 98,-109.5 0,-109.5"/>
<text text-anchor="middle" x="49" y="-116.5" font-family="Helvetica,sans-Serif" font-size="10.00">x265::Slice::isIntra</text>
</g>
<!-- Node2 -->
<g id="node2" class="node"><title>Node2</title>
<g id="a_node2"><a xlink:href="classx265_1_1Analysis.html#ae4d61bcf4d2c22a054d68d6d77136428" target="_top" xlink:title="x265::Analysis::encodeIntra\lInInter">
<polygon fill="white" stroke="black" points="333,-161 333,-191 471,-191 471,-161 333,-161"/>
<text text-anchor="start" x="341" y="-179" font-family="Helvetica,sans-Serif" font-size="10.00">x265::Analysis::encodeIntra</text>
<text text-anchor="middle" x="402" y="-168" font-family="Helvetica,sans-Serif" font-size="10.00">InInter</text>
</a>
</g>
</g>
<!-- Node1&#45;&gt;Node2 -->
<g id="edge1" class="edge"><title>Node1&#45;&gt;Node2</title>
<path fill="none" stroke="midnightblue" d="M108.356,-127.882C157.4,-135.414 229.327,-146.618 292,-157 305.171,-159.182 319.224,-161.579 332.71,-163.915"/>
<polygon fill="midnightblue" stroke="midnightblue" points="108.664,-124.388 98.2494,-126.332 107.603,-131.307 108.664,-124.388"/>
</g>
<!-- Node13 -->
<g id="node13" class="node"><title>Node13</title>
<g id="a_node13"><a xlink:href="classx265_1_1Encoder.html#ab6b2602eaeb3c7986173edf5755e0454" target="_top" xlink:title="x265::Encoder::finishFrame\lStats">
<polygon fill="white" stroke="black" points="144.5,-0 144.5,-30 281.5,-30 281.5,-0 144.5,-0"/>
<text text-anchor="start" x="152.5" y="-18" font-family="Helvetica,sans-Serif" font-size="10.00">x265::Encoder::finishFrame</text>
<text text-anchor="middle" x="213" y="-7" font-family="Helvetica,sans-Serif" font-size="10.00">Stats</text>
</a>
</g>
</g>
<!-- Node1&#45;&gt;Node13 -->
<g id="edge14" class="edge"><title>Node1&#45;&gt;Node13</title>
<path fill="none" stroke="midnightblue" d="M65.9204,-101.804C81.8535,-85.4087 107.715,-60.9236 134,-45 143.555,-39.2114 154.419,-34.1909 164.939,-30.0002"/>
<polygon fill="midnightblue" stroke="midnightblue" points="63.304,-99.4757 58.9379,-109.129 68.371,-104.305 63.304,-99.4757"/>
</g>
<!-- Node17 -->
<g id="node17" class="node"><title>Node17</title>
<g id="a_node17"><a xlink:href="classx265_1_1Entropy.html#ad1f2a2f7d75512adb1d05131b6689ac1" target="_top" xlink:title="x265::Entropy::codeSlice\lHeader">
<polygon fill="white" stroke="black" points="1352,-44 1352,-74 1478,-74 1478,-44 1352,-44"/>
<text text-anchor="start" x="1360" y="-62" font-family="Helvetica,sans-Serif" font-size="10.00">x265::Entropy::codeSlice</text>
<text text-anchor="middle" x="1415" y="-51" font-family="Helvetica,sans-Serif" font-size="10.00">Header</text>
</a>
</g>
</g>
<!-- Node1&#45;&gt;Node17 -->
<g id="edge18" class="edge"><title>Node1&#45;&gt;Node17</title>
<path fill="none" stroke="midnightblue" d="M75.6073,-104.635C91.8277,-96.2484 113.535,-86.3024 134,-81 249.263,-51.1358 281.931,-59 401,-59 401,-59 401,-59 1091,-59 1181.7,-59 1286.73,-59 1351.78,-59"/>
<polygon fill="midnightblue" stroke="midnightblue" points="73.9302,-101.563 66.7419,-109.346 77.2149,-107.744 73.9302,-101.563"/>
</g>
<!-- Node18 -->
<g id="node18" class="node"><title>Node18</title>
<g id="a_node18"><a xlink:href="classx265_1_1Entropy.html#adeb50a7c9a5df6643407d01158d93799" target="_top" xlink:title="x265::Entropy::encodeCU">
<polygon fill="white" stroke="black" points="148,-90.5 148,-109.5 278,-109.5 278,-90.5 148,-90.5"/>
<text text-anchor="middle" x="213" y="-97.5" font-family="Helvetica,sans-Serif" font-size="10.00">x265::Entropy::encodeCU</text>
</a>
</g>
</g>
<!-- Node1&#45;&gt;Node18 -->
<g id="edge20" class="edge"><title>Node1&#45;&gt;Node18</title>
<path fill="none" stroke="midnightblue" d="M108.256,-112.168C121.092,-110.662 134.758,-109.059 147.814,-107.528"/>
<polygon fill="midnightblue" stroke="midnightblue" points="107.691,-108.71 98.1667,-113.351 108.506,-115.662 107.691,-108.71"/>
</g>
<!-- Node21 -->
<g id="node21" class="node"><title>Node21</title>
<g id="a_node21"><a xlink:href="classx265_1_1Search.html#a59b84ac1e21c86af579b6e84e43c5b7a" target="_top" xlink:title="x265::Search::codeIntraLumaQT">
<polygon fill="white" stroke="black" points="134,-166.5 134,-185.5 292,-185.5 292,-166.5 134,-166.5"/>
<text text-anchor="middle" x="213" y="-173.5" font-family="Helvetica,sans-Serif" font-size="10.00">x265::Search::codeIntraLumaQT</text>
</a>
</g>
</g>
<!-- Node1&#45;&gt;Node21 -->
<g id="edge25" class="edge"><title>Node1&#45;&gt;Node21</title>
<path fill="none" stroke="midnightblue" d="M82.6306,-132.485C98.0973,-138.705 116.893,-146.018 134,-152 148.578,-157.098 164.882,-162.206 178.8,-166.391"/>
<polygon fill="midnightblue" stroke="midnightblue" points="83.5811,-129.093 72.9987,-128.58 80.9513,-135.581 83.5811,-129.093"/>
</g>
<!-- Node23 -->
<g id="node23" class="node"><title>Node23</title>
<g id="a_node23"><a xlink:href="classx265_1_1Search.html#ab02df91827cf67796d1605bde60c6aed" target="_top" xlink:title="x265::Search::checkIntra">
<polygon fill="white" stroke="black" points="512,-251.5 512,-270.5 638,-270.5 638,-251.5 512,-251.5"/>
<text text-anchor="middle" x="575" y="-258.5" font-family="Helvetica,sans-Serif" font-size="10.00">x265::Search::checkIntra</text>
</a>
</g>
</g>
<!-- Node1&#45;&gt;Node23 -->
<g id="edge38" class="edge"><title>Node1&#45;&gt;Node23</title>
<path fill="none" stroke="midnightblue" d="M64.3638,-136.387C79.7686,-153.87 105.842,-180.28 134,-195 256.533,-259.055 422.831,-265.801 511.783,-264.064"/>
<polygon fill="midnightblue" stroke="midnightblue" points="66.8629,-133.925 57.6961,-128.613 61.5494,-138.482 66.8629,-133.925"/>
</g>
<!-- Node3 -->
<g id="node3" class="node"><title>Node3</title>
<g id="a_node3"><a xlink:href="classx265_1_1Analysis.html#aa6122285d10bb1bd7584958b88b029d5" target="_top" xlink:title="x265::Analysis::parallel\lModeAnalysis">
<polygon fill="white" stroke="black" points="516,-126 516,-156 634,-156 634,-126 516,-126"/>
<text text-anchor="start" x="524" y="-144" font-family="Helvetica,sans-Serif" font-size="10.00">x265::Analysis::parallel</text>
<text text-anchor="middle" x="575" y="-133" font-family="Helvetica,sans-Serif" font-size="10.00">ModeAnalysis</text>
</a>
</g>
</g>
<!-- Node2&#45;&gt;Node3 -->
<g id="edge2" class="edge"><title>Node2&#45;&gt;Node3</title>
<path fill="none" stroke="midnightblue" d="M480.878,-160.06C492.626,-157.655 504.568,-155.211 515.806,-152.911"/>
<polygon fill="midnightblue" stroke="midnightblue" points="480.17,-156.632 471.075,-162.067 481.574,-163.49 480.17,-156.632"/>
</g>
<!-- Node5 -->
<g id="node5" class="node"><title>Node5</title>
<g id="a_node5"><a xlink:href="classx265_1_1Analysis.html#a87060ff27a37f56adc5f5b8a4c033ece" target="_top" xlink:title="x265::Analysis::compress\lInterCU_dist">
<polygon fill="white" stroke="black" points="848,-164 848,-194 978,-194 978,-164 848,-164"/>
<text text-anchor="start" x="856" y="-182" font-family="Helvetica,sans-Serif" font-size="10.00">x265::Analysis::compress</text>
<text text-anchor="middle" x="913" y="-171" font-family="Helvetica,sans-Serif" font-size="10.00">InterCU_dist</text>
</a>
</g>
</g>
<!-- Node2&#45;&gt;Node5 -->
<g id="edge11" class="edge"><title>Node2&#45;&gt;Node5</title>
<path fill="none" stroke="midnightblue" d="M481.221,-176.461C581.824,-177.054 754.66,-178.073 847.896,-178.622"/>
<polygon fill="midnightblue" stroke="midnightblue" points="481.138,-172.961 471.118,-176.401 481.097,-179.96 481.138,-172.961"/>
</g>
<!-- Node12 -->
<g id="node12" class="node"><title>Node12</title>
<g id="a_node12"><a xlink:href="classx265_1_1Analysis.html#a30d2ff7eca5addbb0a6b3dfe14f09650" target="_top" xlink:title="x265::Analysis::compress\lInterCU_rd0_4">
<polygon fill="white" stroke="black" points="848,-213 848,-243 978,-243 978,-213 848,-213"/>
<text text-anchor="start" x="856" y="-231" font-family="Helvetica,sans-Serif" font-size="10.00">x265::Analysis::compress</text>
<text text-anchor="middle" x="913" y="-220" font-family="Helvetica,sans-Serif" font-size="10.00">InterCU_rd0_4</text>
</a>
</g>
</g>
<!-- Node2&#45;&gt;Node12 -->
<g id="edge12" class="edge"><title>Node2&#45;&gt;Node12</title>
<path fill="none" stroke="midnightblue" d="M481.446,-188.052C491.712,-189.471 502.099,-190.829 512,-192 630.231,-205.987 768.695,-217.331 847.803,-223.335"/>
<polygon fill="midnightblue" stroke="midnightblue" points="481.633,-184.544 471.243,-186.616 480.657,-191.475 481.633,-184.544"/>
</g>
<!-- Node4 -->
<g id="node4" class="node"><title>Node4</title>
<g id="a_node4"><a xlink:href="classx265_1_1Analysis.html#a29a58dad4cc1c07d2f5e5717c6be7c25" target="_top" xlink:title="x265::Analysis::findJob">
<polygon fill="white" stroke="black" points="683.5,-134.5 683.5,-153.5 802.5,-153.5 802.5,-134.5 683.5,-134.5"/>
<text text-anchor="middle" x="743" y="-141.5" font-family="Helvetica,sans-Serif" font-size="10.00">x265::Analysis::findJob</text>
</a>
</g>
</g>
<!-- Node3&#45;&gt;Node4 -->
<g id="edge3" class="edge"><title>Node3&#45;&gt;Node4</title>
<path fill="none" stroke="midnightblue" d="M644.332,-142.235C657.306,-142.469 670.774,-142.713 683.413,-142.941"/>
<polygon fill="midnightblue" stroke="midnightblue" points="644.12,-138.731 634.059,-142.049 643.994,-145.729 644.12,-138.731"/>
</g>
<!-- Node4&#45;&gt;Node5 -->
<g id="edge4" class="edge"><title>Node4&#45;&gt;Node5</title>
<path fill="none" stroke="midnightblue" d="M799.8,-155.625C815.208,-158.835 832.048,-162.343 847.887,-165.643"/>
<polygon fill="midnightblue" stroke="midnightblue" points="800.41,-152.177 789.907,-153.564 798.983,-159.03 800.41,-152.177"/>
</g>
<!-- Node6 -->
<g id="node6" class="node"><title>Node6</title>
<g id="a_node6"><a xlink:href="classx265_1_1Analysis.html#aaebc9de2ff98834c650244f3b58942c2" target="_top" xlink:title="x265::Analysis::compressCTU">
<polygon fill="white" stroke="black" points="1014.5,-218.5 1014.5,-237.5 1165.5,-237.5 1165.5,-218.5 1014.5,-218.5"/>
<text text-anchor="middle" x="1090" y="-225.5" font-family="Helvetica,sans-Serif" font-size="10.00">x265::Analysis::compressCTU</text>
</a>
</g>
</g>
<!-- Node5&#45;&gt;Node6 -->
<g id="edge5" class="edge"><title>Node5&#45;&gt;Node6</title>
<path fill="none" stroke="midnightblue" d="M977.785,-196.86C1003.94,-204.182 1033.15,-212.361 1055.06,-218.498"/>
<polygon fill="midnightblue" stroke="midnightblue" points="978.507,-193.427 967.934,-194.101 976.62,-200.168 978.507,-193.427"/>
</g>
<!-- Node7 -->
<g id="node7" class="node"><title>Node7</title>
<g id="a_node7"><a xlink:href="classx265_1_1FrameEncoder.html#a0ae85001572afd28238476542523ac5f" target="_top" xlink:title="x265::FrameEncoder\l::processRowEncoder">
<polygon fill="white" stroke="black" points="1202.5,-137 1202.5,-167 1315.5,-167 1315.5,-137 1202.5,-137"/>
<text text-anchor="start" x="1210.5" y="-155" font-family="Helvetica,sans-Serif" font-size="10.00">x265::FrameEncoder</text>
<text text-anchor="middle" x="1259" y="-144" font-family="Helvetica,sans-Serif" font-size="10.00">::processRowEncoder</text>
</a>
</g>
</g>
<!-- Node6&#45;&gt;Node7 -->
<g id="edge6" class="edge"><title>Node6&#45;&gt;Node7</title>
<path fill="none" stroke="midnightblue" d="M1121.47,-214.135C1150.74,-200.814 1194.84,-180.742 1224.95,-167.041"/>
<polygon fill="midnightblue" stroke="midnightblue" points="1119.8,-211.047 1112.15,-218.375 1122.7,-217.418 1119.8,-211.047"/>
</g>
<!-- Node8 -->
<g id="node8" class="node"><title>Node8</title>
<g id="a_node8"><a xlink:href="classx265_1_1FrameEncoder.html#acad645a8ece97d884895f8f7366b7d70" target="_top" xlink:title="x265::FrameEncoder\l::processRow">
<polygon fill="white" stroke="black" points="1361.5,-137 1361.5,-167 1468.5,-167 1468.5,-137 1361.5,-137"/>
<text text-anchor="start" x="1369.5" y="-155" font-family="Helvetica,sans-Serif" font-size="10.00">x265::FrameEncoder</text>
<text text-anchor="middle" x="1415" y="-144" font-family="Helvetica,sans-Serif" font-size="10.00">::processRow</text>
</a>
</g>
</g>
<!-- Node7&#45;&gt;Node8 -->
<g id="edge7" class="edge"><title>Node7&#45;&gt;Node8</title>
<path fill="none" stroke="midnightblue" d="M1325.88,-152C1337.71,-152 1349.91,-152 1361.31,-152"/>
<polygon fill="midnightblue" stroke="midnightblue" points="1325.6,-148.5 1315.6,-152 1325.6,-155.5 1325.6,-148.5"/>
</g>
<!-- Node9 -->
<g id="node9" class="node"><title>Node9</title>
<g id="a_node9"><a xlink:href="classx265_1_1FrameEncoder.html#ac4e9ce2e876c0cdb25c992c872fe4302" target="_top" xlink:title="x265::FrameEncoder\l::compressCTURows">
<polygon fill="white" stroke="black" points="1514,-137 1514,-167 1626,-167 1626,-137 1514,-137"/>
<text text-anchor="start" x="1522" y="-155" font-family="Helvetica,sans-Serif" font-size="10.00">x265::FrameEncoder</text>
<text text-anchor="middle" x="1570" y="-144" font-family="Helvetica,sans-Serif" font-size="10.00">::compressCTURows</text>
</a>
</g>
</g>
<!-- Node8&#45;&gt;Node9 -->
<g id="edge8" class="edge"><title>Node8&#45;&gt;Node9</title>
<path fill="none" stroke="midnightblue" d="M1478.75,-152C1490.41,-152 1502.5,-152 1513.9,-152"/>
<polygon fill="midnightblue" stroke="midnightblue" points="1478.65,-148.5 1468.65,-152 1478.65,-155.5 1478.65,-148.5"/>
</g>
<!-- Node10 -->
<g id="node10" class="node"><title>Node10</title>
<g id="a_node10"><a xlink:href="classx265_1_1FrameEncoder.html#a2f5c4c0f1a4e36fce4c9b87eb7ec4973" target="_top" xlink:title="x265::FrameEncoder\l::compressFrame">
<polygon fill="white" stroke="black" points="1662.5,-88 1662.5,-118 1769.5,-118 1769.5,-88 1662.5,-88"/>
<text text-anchor="start" x="1670.5" y="-106" font-family="Helvetica,sans-Serif" font-size="10.00">x265::FrameEncoder</text>
<text text-anchor="middle" x="1716" y="-95" font-family="Helvetica,sans-Serif" font-size="10.00">::compressFrame</text>
</a>
</g>
</g>
<!-- Node9&#45;&gt;Node10 -->
<g id="edge9" class="edge"><title>Node9&#45;&gt;Node10</title>
<path fill="none" stroke="midnightblue" d="M1625.04,-133.61C1640.04,-128.508 1656.14,-123.029 1670.52,-118.136"/>
<polygon fill="midnightblue" stroke="midnightblue" points="1623.72,-130.364 1615.38,-136.899 1625.97,-136.991 1623.72,-130.364"/>
</g>
<!-- Node11 -->
<g id="node11" class="node"><title>Node11</title>
<g id="a_node11"><a xlink:href="classx265_1_1FrameEncoder.html#aef61f29b9e93b3af9255d96236bc90a7" target="_top" xlink:title="x265::FrameEncoder\l::threadMain">
<polygon fill="white" stroke="black" points="1806.5,-88 1806.5,-118 1913.5,-118 1913.5,-88 1806.5,-88"/>
<text text-anchor="start" x="1814.5" y="-106" font-family="Helvetica,sans-Serif" font-size="10.00">x265::FrameEncoder</text>
<text text-anchor="middle" x="1860" y="-95" font-family="Helvetica,sans-Serif" font-size="10.00">::threadMain</text>
</a>
</g>
</g>
<!-- Node10&#45;&gt;Node11 -->
<g id="edge10" class="edge"><title>Node10&#45;&gt;Node11</title>
<path fill="none" stroke="midnightblue" d="M1779.99,-103C1788.7,-103 1797.58,-103 1806.08,-103"/>
<polygon fill="midnightblue" stroke="midnightblue" points="1779.88,-99.5001 1769.88,-103 1779.88,-106.5 1779.88,-99.5001"/>
</g>
<!-- Node12&#45;&gt;Node6 -->
<g id="edge13" class="edge"><title>Node12&#45;&gt;Node6</title>
<path fill="none" stroke="midnightblue" d="M988.253,-228C996.93,-228 1005.78,-228 1014.47,-228"/>
<polygon fill="midnightblue" stroke="midnightblue" points="988.17,-224.5 978.17,-228 988.17,-231.5 988.17,-224.5"/>
</g>
<!-- Node14 -->
<g id="node14" class="node"><title>Node14</title>
<g id="a_node14"><a xlink:href="classx265_1_1Encoder.html#af5c80cef5fcafa00d1b3c105681bc784" target="_top" xlink:title="x265::Encoder::encode">
<polygon fill="white" stroke="black" points="343.5,-5.5 343.5,-24.5 460.5,-24.5 460.5,-5.5 343.5,-5.5"/>
<text text-anchor="middle" x="402" y="-12.5" font-family="Helvetica,sans-Serif" font-size="10.00">x265::Encoder::encode</text>
</a>
</g>
</g>
<!-- Node13&#45;&gt;Node14 -->
<g id="edge15" class="edge"><title>Node13&#45;&gt;Node14</title>
<path fill="none" stroke="midnightblue" d="M291.625,-15C308.982,-15 327.091,-15 343.464,-15"/>
<polygon fill="midnightblue" stroke="midnightblue" points="291.511,-11.5001 281.511,-15 291.511,-18.5001 291.511,-11.5001"/>
</g>
<!-- Node15 -->
<g id="node15" class="node"><title>Node15</title>
<g id="a_node15"><a xlink:href="x265_8h.html#a7a45a920b9d86ed3fb3cb3794b14f5ea" target="_top" xlink:title="x265_encoder_encode">
<polygon fill="white" stroke="black" points="518,-5.5 518,-24.5 632,-24.5 632,-5.5 518,-5.5"/>
<text text-anchor="middle" x="575" y="-12.5" font-family="Helvetica,sans-Serif" font-size="10.00">x265_encoder_encode</text>
</a>
</g>
</g>
<!-- Node14&#45;&gt;Node15 -->
<g id="edge16" class="edge"><title>Node14&#45;&gt;Node15</title>
<path fill="none" stroke="midnightblue" d="M470.979,-15C486.54,-15 502.909,-15 517.905,-15"/>
<polygon fill="midnightblue" stroke="midnightblue" points="470.893,-11.5001 460.893,-15 470.893,-18.5001 470.893,-11.5001"/>
</g>
<!-- Node16 -->
<g id="node16" class="node"><title>Node16</title>
<g id="a_node16"><a xlink:href="x265_8cpp.html#a3c04138a5bfe5d72780bb7e82a18e627" target="_top" xlink:title="main">
<polygon fill="white" stroke="black" points="724,-5.5 724,-24.5 762,-24.5 762,-5.5 724,-5.5"/>
<text text-anchor="middle" x="743" y="-12.5" font-family="Helvetica,sans-Serif" font-size="10.00">main</text>
</a>
</g>
</g>
<!-- Node15&#45;&gt;Node16 -->
<g id="edge17" class="edge"><title>Node15&#45;&gt;Node16</title>
<path fill="none" stroke="midnightblue" d="M642.491,-15C672.001,-15 704.413,-15 723.979,-15"/>
<polygon fill="midnightblue" stroke="midnightblue" points="642.2,-11.5001 632.2,-15 642.2,-18.5001 642.2,-11.5001"/>
</g>
<!-- Node17&#45;&gt;Node10 -->
<g id="edge19" class="edge"><title>Node17&#45;&gt;Node10</title>
<path fill="none" stroke="midnightblue" d="M1488.53,-62.2732C1529.19,-64.929 1580.7,-69.6607 1626,-78 1639.57,-80.4987 1654.07,-84.1399 1667.34,-87.8741"/>
<polygon fill="midnightblue" stroke="midnightblue" points="1488.63,-58.773 1478.43,-61.6418 1488.19,-65.7593 1488.63,-58.773"/>
</g>
<!-- Node19 -->
<g id="node19" class="node"><title>Node19</title>
<g id="a_node19"><a xlink:href="classx265_1_1Entropy.html#abb101b71f310e90eb504a8204babc180" target="_top" xlink:title="x265::Entropy::encodeCTU">
<polygon fill="white" stroke="black" points="1022,-93.5 1022,-112.5 1158,-112.5 1158,-93.5 1022,-93.5"/>
<text text-anchor="middle" x="1090" y="-100.5" font-family="Helvetica,sans-Serif" font-size="10.00">x265::Entropy::encodeCTU</text>
</a>
</g>
</g>
<!-- Node18&#45;&gt;Node19 -->
<g id="edge21" class="edge"><title>Node18&#45;&gt;Node19</title>
<path fill="none" stroke="midnightblue" d="M288.489,-99.0174C361.289,-98.1425 475.259,-97 574,-97 574,-97 574,-97 744,-97 840.597,-97 952.384,-99.3805 1021.9,-101.143"/>
<polygon fill="midnightblue" stroke="midnightblue" points="288.01,-95.5228 278.053,-99.1443 288.095,-102.522 288.01,-95.5228"/>
</g>
<!-- Node19&#45;&gt;Node7 -->
<g id="edge24" class="edge"><title>Node19&#45;&gt;Node7</title>
<path fill="none" stroke="midnightblue" d="M1133.45,-115.454C1155.75,-121.999 1183.26,-130.071 1206.75,-136.963"/>
<polygon fill="midnightblue" stroke="midnightblue" points="1134.18,-112.021 1123.6,-112.564 1132.21,-118.738 1134.18,-112.021"/>
</g>
<!-- Node20 -->
<g id="node20" class="node"><title>Node20</title>
<g id="a_node20"><a xlink:href="classx265_1_1FrameEncoder.html#a6d4045d35bfe6b10c8d0dc39353be360" target="_top" xlink:title="x265::FrameEncoder\l::encodeSlice">
<polygon fill="white" stroke="black" points="1516.5,-88 1516.5,-118 1623.5,-118 1623.5,-88 1516.5,-88"/>
<text text-anchor="start" x="1524.5" y="-106" font-family="Helvetica,sans-Serif" font-size="10.00">x265::FrameEncoder</text>
<text text-anchor="middle" x="1570" y="-95" font-family="Helvetica,sans-Serif" font-size="10.00">::encodeSlice</text>
</a>
</g>
</g>
<!-- Node19&#45;&gt;Node20 -->
<g id="edge22" class="edge"><title>Node19&#45;&gt;Node20</title>
<path fill="none" stroke="midnightblue" d="M1168.34,-103C1266.09,-103 1431.77,-103 1516.17,-103"/>
<polygon fill="midnightblue" stroke="midnightblue" points="1168.22,-99.5001 1158.22,-103 1168.22,-106.5 1168.22,-99.5001"/>
</g>
<!-- Node20&#45;&gt;Node10 -->
<g id="edge23" class="edge"><title>Node20&#45;&gt;Node10</title>
<path fill="none" stroke="midnightblue" d="M1633.93,-103C1643.36,-103 1653.01,-103 1662.2,-103"/>
<polygon fill="midnightblue" stroke="midnightblue" points="1633.8,-99.5001 1623.8,-103 1633.8,-106.5 1633.8,-99.5001"/>
</g>
<!-- Node21&#45;&gt;Node2 -->
<g id="edge26" class="edge"><title>Node21&#45;&gt;Node2</title>
<path fill="none" stroke="midnightblue" d="M302.419,-176C312.661,-176 322.985,-176 332.898,-176"/>
<polygon fill="midnightblue" stroke="midnightblue" points="302.221,-172.5 292.221,-176 302.221,-179.5 302.221,-172.5"/>
</g>
<!-- Node22 -->
<g id="node22" class="node"><title>Node22</title>
<g id="a_node22"><a xlink:href="classx265_1_1Search.html#a1778d2ab96ac88c7f76d36818d6adbdd" target="_top" xlink:title="x265::Search::estIntraPredQT">
<polygon fill="white" stroke="black" points="328.5,-211.5 328.5,-230.5 475.5,-230.5 475.5,-211.5 328.5,-211.5"/>
<text text-anchor="middle" x="402" y="-218.5" font-family="Helvetica,sans-Serif" font-size="10.00">x265::Search::estIntraPredQT</text>
</a>
</g>
</g>
<!-- Node21&#45;&gt;Node22 -->
<g id="edge27" class="edge"><title>Node21&#45;&gt;Node22</title>
<path fill="none" stroke="midnightblue" d="M263.689,-187.957C294.259,-195.314 332.901,-204.613 361.399,-211.47"/>
<polygon fill="midnightblue" stroke="midnightblue" points="264.199,-184.48 253.658,-185.543 262.561,-191.286 264.199,-184.48"/>
</g>
<!-- Node22&#45;&gt;Node23 -->
<g id="edge28" class="edge"><title>Node22&#45;&gt;Node23</title>
<path fill="none" stroke="midnightblue" d="M453.79,-232.881C479.2,-238.825 509.536,-245.921 533.375,-251.497"/>
<polygon fill="midnightblue" stroke="midnightblue" points="454.493,-229.451 443.959,-230.581 452.899,-236.267 454.493,-229.451"/>
</g>
<!-- Node24 -->
<g id="node24" class="node"><title>Node24</title>
<g id="a_node24"><a xlink:href="classx265_1_1Analysis.html#a10f0a8d9d143faf8dc671c6f0982693d" target="_top" xlink:title="x265::Analysis::tryLossless">
<polygon fill="white" stroke="black" points="674.5,-251.5 674.5,-270.5 811.5,-270.5 811.5,-251.5 674.5,-251.5"/>
<text text-anchor="middle" x="743" y="-258.5" font-family="Helvetica,sans-Serif" font-size="10.00">x265::Analysis::tryLossless</text>
</a>
</g>
</g>
<!-- Node23&#45;&gt;Node24 -->
<g id="edge29" class="edge"><title>Node23&#45;&gt;Node24</title>
<path fill="none" stroke="midnightblue" d="M648.338,-261C656.984,-261 665.786,-261 674.362,-261"/>
<polygon fill="midnightblue" stroke="midnightblue" points="648.285,-257.5 638.285,-261 648.285,-264.5 648.285,-257.5"/>
</g>
<!-- Node25 -->
<g id="node25" class="node"><title>Node25</title>
<g id="a_node25"><a xlink:href="classx265_1_1Analysis.html#aae2a6a2252270782b591d2bed7e99dae" target="_top" xlink:title="x265::Analysis::compress\lIntraCU">
<polygon fill="white" stroke="black" points="848,-311 848,-341 978,-341 978,-311 848,-311"/>
<text text-anchor="start" x="856" y="-329" font-family="Helvetica,sans-Serif" font-size="10.00">x265::Analysis::compress</text>
<text text-anchor="middle" x="913" y="-318" font-family="Helvetica,sans-Serif" font-size="10.00">IntraCU</text>
</a>
</g>
</g>
<!-- Node23&#45;&gt;Node25 -->
<g id="edge36" class="edge"><title>Node23&#45;&gt;Node25</title>
<path fill="none" stroke="midnightblue" d="M608.929,-274.316C627.715,-281.431 651.863,-289.776 674,-295 732.095,-308.709 799.695,-316.782 847.973,-321.235"/>
<polygon fill="midnightblue" stroke="midnightblue" points="609.952,-270.959 599.362,-270.624 607.432,-277.49 609.952,-270.959"/>
</g>
<!-- Node26 -->
<g id="node26" class="node"><title>Node26</title>
<g id="a_node26"><a xlink:href="classx265_1_1Analysis.html#a0b22b7765aa4a36b1ba6d07ba26901e6" target="_top" xlink:title="x265::Analysis::compress\lInterCU_rd5_6">
<polygon fill="white" stroke="black" points="848,-262 848,-292 978,-292 978,-262 848,-262"/>
<text text-anchor="start" x="856" y="-280" font-family="Helvetica,sans-Serif" font-size="10.00">x265::Analysis::compress</text>
<text text-anchor="middle" x="913" y="-269" font-family="Helvetica,sans-Serif" font-size="10.00">InterCU_rd5_6</text>
</a>
</g>
</g>
<!-- Node23&#45;&gt;Node26 -->
<g id="edge37" class="edge"><title>Node23&#45;&gt;Node26</title>
<path fill="none" stroke="midnightblue" d="M625.649,-272.538C641.055,-275.601 658.15,-278.478 674,-280 732.718,-285.64 799.955,-284.057 847.952,-281.553"/>
<polygon fill="midnightblue" stroke="midnightblue" points="626.3,-269.098 615.799,-270.51 624.888,-275.955 626.3,-269.098"/>
</g>
<!-- Node24&#45;&gt;Node5 -->
<g id="edge32" class="edge"><title>Node24&#45;&gt;Node5</title>
<path fill="none" stroke="midnightblue" d="M768.243,-246.112C788.982,-233.711 819.857,-216.035 848,-203 854.676,-199.908 861.872,-196.906 868.945,-194.131"/>
<polygon fill="midnightblue" stroke="midnightblue" points="766.228,-243.24 759.474,-251.403 769.844,-249.234 766.228,-243.24"/>
</g>
<!-- Node24&#45;&gt;Node12 -->
<g id="edge33" class="edge"><title>Node24&#45;&gt;Node12</title>
<path fill="none" stroke="midnightblue" d="M802.528,-249.503C817.178,-246.626 832.97,-243.524 847.876,-240.596"/>
<polygon fill="midnightblue" stroke="midnightblue" points="801.73,-246.093 792.593,-251.455 803.08,-252.962 801.73,-246.093"/>
</g>
<!-- Node24&#45;&gt;Node25 -->
<g id="edge30" class="edge"><title>Node24&#45;&gt;Node25</title>
<path fill="none" stroke="midnightblue" d="M778.382,-274.302C805.883,-284.943 844.445,-299.863 873.078,-310.941"/>
<polygon fill="midnightblue" stroke="midnightblue" points="779.378,-270.935 768.789,-270.591 776.852,-277.464 779.378,-270.935"/>
</g>
<!-- Node24&#45;&gt;Node26 -->
<g id="edge34" class="edge"><title>Node24&#45;&gt;Node26</title>
<path fill="none" stroke="midnightblue" d="M821.998,-268.428C830.698,-269.257 839.484,-270.094 847.98,-270.903"/>
<polygon fill="midnightblue" stroke="midnightblue" points="822.135,-264.926 811.848,-267.462 821.471,-271.894 822.135,-264.926"/>
</g>
<!-- Node25&#45;&gt;Node6 -->
<g id="edge31" class="edge"><title>Node25&#45;&gt;Node6</title>
<path fill="none" stroke="midnightblue" d="M965.571,-306.953C969.826,-305.051 974.018,-303.058 978,-301 1015.5,-281.619 1056.11,-252.644 1076.22,-237.695"/>
<polygon fill="midnightblue" stroke="midnightblue" points="964.028,-303.807 956.215,-310.962 966.785,-310.241 964.028,-303.807"/>
</g>
<!-- Node26&#45;&gt;Node6 -->
<g id="edge35" class="edge"><title>Node26&#45;&gt;Node6</title>
<path fill="none" stroke="midnightblue" d="M977.785,-259.14C1003.94,-251.818 1033.15,-243.639 1055.06,-237.502"/>
<polygon fill="midnightblue" stroke="midnightblue" points="976.62,-255.832 967.934,-261.899 978.507,-262.573 976.62,-255.832"/>
</g>
</g>
</svg>
        <g id="navigator" transform="translate(0 0)" fill="#404254">
                <rect fill="#f2f5e9" fill-opacity="0.5" stroke="#606060" stroke-width=".5" x="0" y="0" width="60" height="60"/>
                <use id="zoomplus" xlink:href="#zoomPlus" x="17" y="9" onmousedown="handleZoom(evt,'in')"/>
                <use id="zoomminus" xlink:href="#zoomMin" x="42" y="9" onmousedown="handleZoom(evt,'out')"/>
                <use id="reset" xlink:href="#resetDef" x="30" y="36" onmousedown="handleReset()"/>
                <g id="arrowUp" xlink:href="#dirArrow" transform="translate(30 24)" onmousedown="handlePan(0,-1)">
                  <use xlink:href="#rim" fill="#404040">
                        <set attributeName="fill" to="#808080" begin="arrowUp.mouseover" end="arrowUp.mouseout"/>
                  </use>
                  <path fill="none" stroke="white" stroke-width="1.5" d="M0,-3.0v7 M-2.5,-0.5L0,-3.0L2.5,-0.5"/>
                </g>
                <g id="arrowRight" xlink:href="#dirArrow" transform="rotate(90) translate(36 -43)" onmousedown="handlePan(1,0)">
                  <use xlink:href="#rim" fill="#404040">
                        <set attributeName="fill" to="#808080" begin="arrowRight.mouseover" end="arrowRight.mouseout"/>
                  </use>
                  <path fill="none" stroke="white" stroke-width="1.5" d="M0,-3.0v7 M-2.5,-0.5L0,-3.0L2.5,-0.5"/>
                </g>
                <g id="arrowDown" xlink:href="#dirArrow" transform="rotate(180) translate(-30 -48)" onmousedown="handlePan(0,1)">
                  <use xlink:href="#rim" fill="#404040">
                        <set attributeName="fill" to="#808080" begin="arrowDown.mouseover" end="arrowDown.mouseout"/>
                  </use>
                  <path fill="none" stroke="white" stroke-width="1.5" d="M0,-3.0v7 M-2.5,-0.5L0,-3.0L2.5,-0.5"/>
                </g>
                <g id="arrowLeft" xlink:href="#dirArrow" transform="rotate(270) translate(-36 17)" onmousedown="handlePan(-1,0)">
                  <use xlink:href="#rim" fill="#404040">
                        <set attributeName="fill" to="#808080" begin="arrowLeft.mouseover" end="arrowLeft.mouseout"/>
                  </use>
                  <path fill="none" stroke="white" stroke-width="1.5" d="M0,-3.0v7 M-2.5,-0.5L0,-3.0L2.5,-0.5"/>
                </g>
        </g>
        <svg viewBox="0 0 15 15" width="100%" height="30px" preserveAspectRatio="xMaxYMin meet">
         <g id="arrow_out" transform="scale(0.3 0.3)">
          <a xlink:href="classx265_1_1Slice_ad41c52c38e5ddea4266bceee1d6b17d3_icgraph_org.svg" target="_base">
           <rect id="button" ry="5" rx="5" y="6" x="6" height="38" width="38"
                fill="#f2f5e9" fill-opacity="0.5" stroke="#606060" stroke-width="1.0"/>
           <path id="arrow"
             d="M 11.500037,31.436501 C 11.940474,20.09759 22.043105,11.32322 32.158766,21.979434 L 37.068811,17.246167 C 37.068811,17.246167 37.088388,32 37.088388,32 L 22.160133,31.978069 C 22.160133,31.978069 26.997745,27.140456 26.997745,27.140456 C 18.528582,18.264221 13.291696,25.230495 11.500037,31.436501 z"
             style="fill:#404040;"/>
          </a>
         </g>
        </svg>
</svg>
