<?xml version="1.0" encoding="UTF-8" standalone="no"?>
<!DOCTYPE svg PUBLIC "-//W3C//DTD SVG 1.1//EN"
 "http://www.w3.org/Graphics/SVG/1.1/DTD/svg11.dtd">
<!-- Generated by graphviz version 2.36.0 (20140111.2315)
 -->
<!-- Title: x265::Lock::acquire Pages: 1 -->
<!--zoomable 304 -->
<svg id="main" version="1.1" xmlns="http://www.w3.org/2000/svg" xmlns:xlink="http://www.w3.org/1999/xlink" xml:space="preserve" onload="init(evt)">
<style type="text/css"><![CDATA[
.edge:hover path { stroke: red; }
.edge:hover polygon { stroke: red; fill: red; }
]]></style>
<script type="text/javascript"><![CDATA[
var edges = document.getElementsByTagName('g');
if (edges && edges.length) {
  for (var i=0;i<edges.length;i++) {
    if (edges[i].id.substr(0,4)=='edge') {
      edges[i].setAttribute('class','edge');
    }
  }
}
]]></script>
        <defs>
                <circle id="rim" cx="0" cy="0" r="7"/>
                <circle id="rim2" cx="0" cy="0" r="3.5"/>
                <g id="zoomPlus">
                        <use xlink:href="#rim" fill="#404040">
                                <set attributeName="fill" to="#808080" begin="zoomplus.mouseover" end="zoomplus.mouseout"/>
                        </use>
                        <path d="M-4,0h8M0,-4v8" fill="none" stroke="white" stroke-width="1.5" pointer-events="none"/>
                </g>
                <g id="zoomMin">
                        <use xlink:href="#rim" fill="#404040">
                                <set attributeName="fill" to="#808080" begin="zoomminus.mouseover" end="zoomminus.mouseout"/>
                        </use>
                        <path d="M-4,0h8" fill="none" stroke="white" stroke-width="1.5" pointer-events="none"/>
                </g>
                <g id="dirArrow">
                        <path fill="none" stroke="white" stroke-width="1.5" d="M0,-3.0v7 M-2.5,-0.5L0,-3.0L2.5,-0.5"/>
                </g>
               <g id="resetDef">
                       <use xlink:href="#rim2" fill="#404040">
                               <set attributeName="fill" to="#808080" begin="reset.mouseover" end="reset.mouseout"/>
                       </use>
               </g>
        </defs>

<script type="text/javascript">
var viewWidth = 944;
var viewHeight = 304;
var sectionId = 'dynsection-1';
</script>
<script xlink:href="svgpan.js"/>
<svg id="graph" class="graph">
<g id="viewport">
<title>x265::Lock::acquire</title>
<polygon fill="white" stroke="none" points="-4,4 -4,-299.696 940,-299.696 940,4 -4,4"/>
<!-- Node1 -->
<g id="node1" class="node"><title>Node1</title>
<polygon fill="#bfbfbf" stroke="black" points="0,-123.196 0,-142.196 102,-142.196 102,-123.196 0,-123.196"/>
<text text-anchor="middle" x="51" y="-130.196" font-family="Helvetica,sans-Serif" font-size="10.00">x265::Lock::acquire</text>
</g>
<!-- Node2 -->
<g id="node2" class="node"><title>Node2</title>
<g id="a_node2"><a xlink:href="classx265_1_1ScopedLock.html#a7bfe7e9aa75b9286248b444312739f77" target="_top" xlink:title="x265::ScopedLock::ScopedLock">
<polygon fill="white" stroke="black" points="144,-276.196 144,-295.196 302,-295.196 302,-276.196 144,-276.196"/>
<text text-anchor="middle" x="223" y="-283.196" font-family="Helvetica,sans-Serif" font-size="10.00">x265::ScopedLock::ScopedLock</text>
</a>
</g>
</g>
<!-- Node1&#45;&gt;Node2 -->
<g id="edge1" class="edge"><title>Node1&#45;&gt;Node2</title>
<path fill="none" stroke="midnightblue" d="M58.7972,-151.861C70.2951,-181.376 96.4694,-237.587 138,-266.696 143.51,-270.558 149.678,-273.649 156.103,-276.121"/>
<polygon fill="midnightblue" stroke="midnightblue" points="62.0018,-150.437 55.2239,-142.294 55.4443,-152.887 62.0018,-150.437"/>
</g>
<!-- Node3 -->
<g id="node3" class="node"><title>Node3</title>
<g id="a_node3"><a xlink:href="classx265_1_1ThreadPool.html#a9f3974132a6082fa62d4e0c6e37dd3e8" target="_top" xlink:title="x265::ThreadPool::allocThreadPool">
<polygon fill="white" stroke="black" points="138.5,-238.196 138.5,-257.196 307.5,-257.196 307.5,-238.196 138.5,-238.196"/>
<text text-anchor="middle" x="223" y="-245.196" font-family="Helvetica,sans-Serif" font-size="10.00">x265::ThreadPool::allocThreadPool</text>
</a>
</g>
</g>
<!-- Node1&#45;&gt;Node3 -->
<g id="edge2" class="edge"><title>Node1&#45;&gt;Node3</title>
<path fill="none" stroke="midnightblue" d="M63.3874,-150.854C77.973,-172.553 105.312,-208.35 138,-227.696 145.353,-232.048 153.597,-235.454 161.969,-238.119"/>
<polygon fill="midnightblue" stroke="midnightblue" points="66.168,-148.71 57.774,-142.245 60.3045,-152.534 66.168,-148.71"/>
</g>
<!-- Node7 -->
<g id="node7" class="node"><title>Node7</title>
<g id="a_node7"><a xlink:href="classx265_1_1FrameEncoder.html#a0ae85001572afd28238476542523ac5f" target="_top" xlink:title="x265::FrameEncoder\l::processRowEncoder">
<polygon fill="white" stroke="black" points="166.5,-188.696 166.5,-218.696 279.5,-218.696 279.5,-188.696 166.5,-188.696"/>
<text text-anchor="start" x="174.5" y="-206.696" font-family="Helvetica,sans-Serif" font-size="10.00">x265::FrameEncoder</text>
<text text-anchor="middle" x="223" y="-195.696" font-family="Helvetica,sans-Serif" font-size="10.00">::processRowEncoder</text>
</a>
</g>
</g>
<!-- Node1&#45;&gt;Node7 -->
<g id="edge6" class="edge"><title>Node1&#45;&gt;Node7</title>
<path fill="none" stroke="midnightblue" d="M76.3696,-147.441C93.2461,-157.221 116.464,-169.838 138,-178.696 147.006,-182.4 156.759,-185.815 166.322,-188.853"/>
<polygon fill="midnightblue" stroke="midnightblue" points="78.0913,-144.393 67.6971,-142.341 74.543,-150.427 78.0913,-144.393"/>
</g>
<!-- Node12 -->
<g id="node12" class="node"><title>Node12</title>
<g id="a_node12"><a xlink:href="classx265_1_1Lookahead.html#a878bca13580997ab9c01e72a8f8e81c3" target="_top" xlink:title="x265::Lookahead::addPicture">
<polygon fill="white" stroke="black" points="344.5,-98.1961 344.5,-117.196 487.5,-117.196 487.5,-98.1961 344.5,-98.1961"/>
<text text-anchor="middle" x="416" y="-105.196" font-family="Helvetica,sans-Serif" font-size="10.00">x265::Lookahead::addPicture</text>
</a>
</g>
</g>
<!-- Node1&#45;&gt;Node12 -->
<g id="edge11" class="edge"><title>Node1&#45;&gt;Node12</title>
<path fill="none" stroke="midnightblue" d="M112.397,-128.537C176.211,-124.142 276.761,-117.217 344.245,-112.569"/>
<polygon fill="midnightblue" stroke="midnightblue" points="111.828,-125.067 102.092,-129.246 112.309,-132.051 111.828,-125.067"/>
</g>
<!-- Node16 -->
<g id="node16" class="node"><title>Node16</title>
<g id="a_node16"><a xlink:href="classx265_1_1Lookahead.html#a0294c952379ca6f328014f92aa51259c" target="_top" xlink:title="x265::Lookahead::flush">
<polygon fill="white" stroke="black" points="357,-19.1961 357,-38.1961 475,-38.1961 475,-19.1961 357,-19.1961"/>
<text text-anchor="middle" x="416" y="-26.1961" font-family="Helvetica,sans-Serif" font-size="10.00">x265::Lookahead::flush</text>
</a>
</g>
</g>
<!-- Node1&#45;&gt;Node16 -->
<g id="edge15" class="edge"><title>Node1&#45;&gt;Node16</title>
<path fill="none" stroke="midnightblue" d="M60.2154,-113.694C72.6904,-87.5681 99.1434,-41.6398 138,-22.6961 219.069,16.8274 329.979,-4.76348 383.529,-19.1478"/>
<polygon fill="midnightblue" stroke="midnightblue" points="56.9624,-112.392 55.9901,-122.942 63.3293,-115.301 56.9624,-112.392"/>
</g>
<!-- Node17 -->
<g id="node17" class="node"><title>Node17</title>
<g id="a_node17"><a xlink:href="classx265_1_1Lookahead.html#a7943043193deb8e265fd4dd3a0945207" target="_top" xlink:title="x265::Lookahead::getDecided\lPicture">
<polygon fill="white" stroke="black" points="150,-139.696 150,-169.696 296,-169.696 296,-139.696 150,-139.696"/>
<text text-anchor="start" x="158" y="-157.696" font-family="Helvetica,sans-Serif" font-size="10.00">x265::Lookahead::getDecided</text>
<text text-anchor="middle" x="223" y="-146.696" font-family="Helvetica,sans-Serif" font-size="10.00">Picture</text>
</a>
</g>
</g>
<!-- Node1&#45;&gt;Node17 -->
<g id="edge17" class="edge"><title>Node1&#45;&gt;Node17</title>
<path fill="none" stroke="midnightblue" d="M112.147,-140.48C124.363,-142.061 137.331,-143.739 149.912,-145.367"/>
<polygon fill="midnightblue" stroke="midnightblue" points="112.453,-136.99 102.086,-139.178 111.554,-143.932 112.453,-136.99"/>
</g>
<!-- Node18 -->
<g id="node18" class="node"><title>Node18</title>
<g id="a_node18"><a xlink:href="classx265_1_1Lookahead.html#a341d8c6a3a971583aa911cf8dedbe6a1" target="_top" xlink:title="x265::Lookahead::findJob">
<polygon fill="white" stroke="black" points="352,-57.1961 352,-76.1961 480,-76.1961 480,-57.1961 352,-57.1961"/>
<text text-anchor="middle" x="416" y="-64.1961" font-family="Helvetica,sans-Serif" font-size="10.00">x265::Lookahead::findJob</text>
</a>
</g>
</g>
<!-- Node1&#45;&gt;Node18 -->
<g id="edge19" class="edge"><title>Node1&#45;&gt;Node18</title>
<path fill="none" stroke="midnightblue" d="M62.7074,-114.36C76.7686,-92.3186 103.742,-56.4564 138,-41.6961 207.389,-11.7995 232.941,-33.0441 308,-41.6961 333.395,-44.6233 361.521,-51.3358 382.561,-57.0688"/>
<polygon fill="midnightblue" stroke="midnightblue" points="59.577,-112.769 57.3316,-123.123 65.5438,-116.429 59.577,-112.769"/>
</g>
<!-- Node19 -->
<g id="node19" class="node"><title>Node19</title>
<g id="a_node19"><a xlink:href="classx265_1_1Lookahead.html#ad15172de7a432e47e8514fb157fafedd" target="_top" xlink:title="x265::Lookahead::slicetype\lDecide">
<polygon fill="white" stroke="black" points="155,-51.6961 155,-81.6961 291,-81.6961 291,-51.6961 155,-51.6961"/>
<text text-anchor="start" x="163" y="-69.6961" font-family="Helvetica,sans-Serif" font-size="10.00">x265::Lookahead::slicetype</text>
<text text-anchor="middle" x="223" y="-58.6961" font-family="Helvetica,sans-Serif" font-size="10.00">Decide</text>
</a>
</g>
</g>
<!-- Node1&#45;&gt;Node19 -->
<g id="edge20" class="edge"><title>Node1&#45;&gt;Node19</title>
<path fill="none" stroke="midnightblue" d="M83.6606,-118.967C99.835,-112.075 119.878,-103.719 138,-96.6961 150.995,-91.6597 165.235,-86.4567 178.239,-81.8266"/>
<polygon fill="midnightblue" stroke="midnightblue" points="81.9555,-115.89 74.1414,-123.044 84.7117,-122.324 81.9555,-115.89"/>
</g>
<!-- Node4 -->
<g id="node4" class="node"><title>Node4</title>
<g id="a_node4"><a xlink:href="classx265_1_1Encoder.html#aa45d4a8835e915c1e980ad8aaad7cc51" target="_top" xlink:title="x265::Encoder::create">
<polygon fill="white" stroke="black" points="359.5,-238.196 359.5,-257.196 472.5,-257.196 472.5,-238.196 359.5,-238.196"/>
<text text-anchor="middle" x="416" y="-245.196" font-family="Helvetica,sans-Serif" font-size="10.00">x265::Encoder::create</text>
</a>
</g>
</g>
<!-- Node3&#45;&gt;Node4 -->
<g id="edge3" class="edge"><title>Node3&#45;&gt;Node4</title>
<path fill="none" stroke="midnightblue" d="M318.037,-247.696C332.165,-247.696 346.336,-247.696 359.312,-247.696"/>
<polygon fill="midnightblue" stroke="midnightblue" points="317.775,-244.196 307.775,-247.696 317.775,-251.196 317.775,-244.196"/>
</g>
<!-- Node6 -->
<g id="node6" class="node"><title>Node6</title>
<g id="a_node6"><a xlink:href="testpool_8cpp.html#a2c3f6775325c30275d11c6abee2db6a0" target="_top" xlink:title="main">
<polygon fill="white" stroke="black" points="397,-276.196 397,-295.196 435,-295.196 435,-276.196 397,-276.196"/>
<text text-anchor="middle" x="416" y="-283.196" font-family="Helvetica,sans-Serif" font-size="10.00">main</text>
</a>
</g>
</g>
<!-- Node3&#45;&gt;Node6 -->
<g id="edge5" class="edge"><title>Node3&#45;&gt;Node6</title>
<path fill="none" stroke="midnightblue" d="M282.184,-259.272C321.374,-267.069 370.513,-276.845 396.654,-282.046"/>
<polygon fill="midnightblue" stroke="midnightblue" points="282.688,-255.804 272.197,-257.285 281.322,-262.669 282.688,-255.804"/>
</g>
<!-- Node5 -->
<g id="node5" class="node"><title>Node5</title>
<g id="a_node5"><a xlink:href="x265_8h.html#add639f6af182534d265ef22d4bf91f90" target="_top" xlink:title="x265_encoder_open">
<polygon fill="white" stroke="black" points="531,-238.196 531,-257.196 635,-257.196 635,-238.196 531,-238.196"/>
<text text-anchor="middle" x="583" y="-245.196" font-family="Helvetica,sans-Serif" font-size="10.00">x265_encoder_open</text>
</a>
</g>
</g>
<!-- Node4&#45;&gt;Node5 -->
<g id="edge4" class="edge"><title>Node4&#45;&gt;Node5</title>
<path fill="none" stroke="midnightblue" d="M483.165,-247.696C499.07,-247.696 515.818,-247.696 530.916,-247.696"/>
<polygon fill="midnightblue" stroke="midnightblue" points="482.862,-244.196 472.861,-247.696 482.861,-251.196 482.862,-244.196"/>
</g>
<!-- Node8 -->
<g id="node8" class="node"><title>Node8</title>
<g id="a_node8"><a xlink:href="classx265_1_1FrameEncoder.html#acad645a8ece97d884895f8f7366b7d70" target="_top" xlink:title="x265::FrameEncoder\l::processRow">
<polygon fill="white" stroke="black" points="362.5,-188.696 362.5,-218.696 469.5,-218.696 469.5,-188.696 362.5,-188.696"/>
<text text-anchor="start" x="370.5" y="-206.696" font-family="Helvetica,sans-Serif" font-size="10.00">x265::FrameEncoder</text>
<text text-anchor="middle" x="416" y="-195.696" font-family="Helvetica,sans-Serif" font-size="10.00">::processRow</text>
</a>
</g>
</g>
<!-- Node7&#45;&gt;Node8 -->
<g id="edge7" class="edge"><title>Node7&#45;&gt;Node8</title>
<path fill="none" stroke="midnightblue" d="M289.818,-203.696C313.503,-203.696 339.894,-203.696 362.314,-203.696"/>
<polygon fill="midnightblue" stroke="midnightblue" points="289.502,-200.196 279.502,-203.696 289.502,-207.196 289.502,-200.196"/>
</g>
<!-- Node9 -->
<g id="node9" class="node"><title>Node9</title>
<g id="a_node9"><a xlink:href="classx265_1_1FrameEncoder.html#ac4e9ce2e876c0cdb25c992c872fe4302" target="_top" xlink:title="x265::FrameEncoder\l::compressCTURows">
<polygon fill="white" stroke="black" points="527,-188.696 527,-218.696 639,-218.696 639,-188.696 527,-188.696"/>
<text text-anchor="start" x="535" y="-206.696" font-family="Helvetica,sans-Serif" font-size="10.00">x265::FrameEncoder</text>
<text text-anchor="middle" x="583" y="-195.696" font-family="Helvetica,sans-Serif" font-size="10.00">::compressCTURows</text>
</a>
</g>
</g>
<!-- Node8&#45;&gt;Node9 -->
<g id="edge8" class="edge"><title>Node8&#45;&gt;Node9</title>
<path fill="none" stroke="midnightblue" d="M479.718,-203.696C495.279,-203.696 511.838,-203.696 526.998,-203.696"/>
<polygon fill="midnightblue" stroke="midnightblue" points="479.661,-200.196 469.661,-203.696 479.661,-207.196 479.661,-200.196"/>
</g>
<!-- Node10 -->
<g id="node10" class="node"><title>Node10</title>
<g id="a_node10"><a xlink:href="classx265_1_1FrameEncoder.html#a2f5c4c0f1a4e36fce4c9b87eb7ec4973" target="_top" xlink:title="x265::FrameEncoder\l::compressFrame">
<polygon fill="white" stroke="black" points="681.5,-188.696 681.5,-218.696 788.5,-218.696 788.5,-188.696 681.5,-188.696"/>
<text text-anchor="start" x="689.5" y="-206.696" font-family="Helvetica,sans-Serif" font-size="10.00">x265::FrameEncoder</text>
<text text-anchor="middle" x="735" y="-195.696" font-family="Helvetica,sans-Serif" font-size="10.00">::compressFrame</text>
</a>
</g>
</g>
<!-- Node9&#45;&gt;Node10 -->
<g id="edge9" class="edge"><title>Node9&#45;&gt;Node10</title>
<path fill="none" stroke="midnightblue" d="M649.106,-203.696C659.761,-203.696 670.687,-203.696 681.003,-203.696"/>
<polygon fill="midnightblue" stroke="midnightblue" points="649.003,-200.196 639.003,-203.696 649.003,-207.196 649.003,-200.196"/>
</g>
<!-- Node11 -->
<g id="node11" class="node"><title>Node11</title>
<g id="a_node11"><a xlink:href="classx265_1_1FrameEncoder.html#aef61f29b9e93b3af9255d96236bc90a7" target="_top" xlink:title="x265::FrameEncoder\l::threadMain">
<polygon fill="white" stroke="black" points="828.5,-188.696 828.5,-218.696 935.5,-218.696 935.5,-188.696 828.5,-188.696"/>
<text text-anchor="start" x="836.5" y="-206.696" font-family="Helvetica,sans-Serif" font-size="10.00">x265::FrameEncoder</text>
<text text-anchor="middle" x="882" y="-195.696" font-family="Helvetica,sans-Serif" font-size="10.00">::threadMain</text>
</a>
</g>
</g>
<!-- Node10&#45;&gt;Node11 -->
<g id="edge10" class="edge"><title>Node10&#45;&gt;Node11</title>
<path fill="none" stroke="midnightblue" d="M798.801,-203.696C808.549,-203.696 818.535,-203.696 828.038,-203.696"/>
<polygon fill="midnightblue" stroke="midnightblue" points="798.759,-200.196 788.759,-203.696 798.758,-207.196 798.759,-200.196"/>
</g>
<!-- Node13 -->
<g id="node13" class="node"><title>Node13</title>
<g id="a_node13"><a xlink:href="classx265_1_1Encoder.html#af5c80cef5fcafa00d1b3c105681bc784" target="_top" xlink:title="x265::Encoder::encode">
<polygon fill="white" stroke="black" points="524.5,-98.1961 524.5,-117.196 641.5,-117.196 641.5,-98.1961 524.5,-98.1961"/>
<text text-anchor="middle" x="583" y="-105.196" font-family="Helvetica,sans-Serif" font-size="10.00">x265::Encoder::encode</text>
</a>
</g>
</g>
<!-- Node12&#45;&gt;Node13 -->
<g id="edge12" class="edge"><title>Node12&#45;&gt;Node13</title>
<path fill="none" stroke="midnightblue" d="M497.946,-107.696C506.844,-107.696 515.766,-107.696 524.298,-107.696"/>
<polygon fill="midnightblue" stroke="midnightblue" points="497.932,-104.196 487.932,-107.696 497.932,-111.196 497.932,-104.196"/>
</g>
<!-- Node14 -->
<g id="node14" class="node"><title>Node14</title>
<g id="a_node14"><a xlink:href="x265_8h.html#a7a45a920b9d86ed3fb3cb3794b14f5ea" target="_top" xlink:title="x265_encoder_encode">
<polygon fill="white" stroke="black" points="678,-98.1961 678,-117.196 792,-117.196 792,-98.1961 678,-98.1961"/>
<text text-anchor="middle" x="735" y="-105.196" font-family="Helvetica,sans-Serif" font-size="10.00">x265_encoder_encode</text>
</a>
</g>
</g>
<!-- Node13&#45;&gt;Node14 -->
<g id="edge13" class="edge"><title>Node13&#45;&gt;Node14</title>
<path fill="none" stroke="midnightblue" d="M651.721,-107.696C660.45,-107.696 669.311,-107.696 677.826,-107.696"/>
<polygon fill="midnightblue" stroke="midnightblue" points="651.565,-104.196 641.565,-107.696 651.565,-111.196 651.565,-104.196"/>
</g>
<!-- Node15 -->
<g id="node15" class="node"><title>Node15</title>
<g id="a_node15"><a xlink:href="x265_8cpp.html#a3c04138a5bfe5d72780bb7e82a18e627" target="_top" xlink:title="main">
<polygon fill="white" stroke="black" points="863,-98.1961 863,-117.196 901,-117.196 901,-98.1961 863,-98.1961"/>
<text text-anchor="middle" x="882" y="-105.196" font-family="Helvetica,sans-Serif" font-size="10.00">main</text>
</a>
</g>
</g>
<!-- Node14&#45;&gt;Node15 -->
<g id="edge14" class="edge"><title>Node14&#45;&gt;Node15</title>
<path fill="none" stroke="midnightblue" d="M802.212,-107.696C824.494,-107.696 847.575,-107.696 862.949,-107.696"/>
<polygon fill="midnightblue" stroke="midnightblue" points="802.061,-104.196 792.061,-107.696 802.061,-111.196 802.061,-104.196"/>
</g>
<!-- Node16&#45;&gt;Node13 -->
<g id="edge16" class="edge"><title>Node16&#45;&gt;Node13</title>
<path fill="none" stroke="midnightblue" d="M471.055,-41.2854C476.863,-43.1902 482.613,-45.3242 488,-47.6961 519.362,-61.5061 552.292,-84.902 569.63,-98.0265"/>
<polygon fill="midnightblue" stroke="midnightblue" points="471.866,-37.8734 461.279,-38.2946 469.818,-44.5671 471.866,-37.8734"/>
</g>
<!-- Node17&#45;&gt;Node13 -->
<g id="edge18" class="edge"><title>Node17&#45;&gt;Node13</title>
<path fill="none" stroke="midnightblue" d="M306.438,-147.956C358.635,-143.193 427.462,-136.004 488,-126.696 504.785,-124.115 523.117,-120.575 539.099,-117.249"/>
<polygon fill="midnightblue" stroke="midnightblue" points="305.873,-144.492 296.228,-148.876 306.501,-151.464 305.873,-144.492"/>
</g>
<!-- Node19&#45;&gt;Node12 -->
<g id="edge21" class="edge"><title>Node19&#45;&gt;Node12</title>
<path fill="none" stroke="midnightblue" d="M301.078,-83.2415C324.691,-88.3103 349.866,-93.7145 370.529,-98.15"/>
<polygon fill="midnightblue" stroke="midnightblue" points="301.583,-79.7703 291.071,-81.0935 300.114,-86.6144 301.583,-79.7703"/>
</g>
<!-- Node19&#45;&gt;Node16 -->
<g id="edge22" class="edge"><title>Node19&#45;&gt;Node16</title>
<path fill="none" stroke="midnightblue" d="M300.883,-51.4C323.231,-46.9538 346.994,-42.226 367.018,-38.2422"/>
<polygon fill="midnightblue" stroke="midnightblue" points="300.196,-47.968 291.071,-53.3521 301.562,-54.8335 300.196,-47.968"/>
</g>
<!-- Node19&#45;&gt;Node18 -->
<g id="edge23" class="edge"><title>Node19&#45;&gt;Node18</title>
<path fill="none" stroke="midnightblue" d="M301.408,-66.6961C318.202,-66.6961 335.772,-66.6961 351.934,-66.6961"/>
<polygon fill="midnightblue" stroke="midnightblue" points="301.071,-63.1962 291.071,-66.6961 301.071,-70.1962 301.071,-63.1962"/>
</g>
</g>
</svg>
        <g id="navigator" transform="translate(0 0)" fill="#404254">
                <rect fill="#f2f5e9" fill-opacity="0.5" stroke="#606060" stroke-width=".5" x="0" y="0" width="60" height="60"/>
                <use id="zoomplus" xlink:href="#zoomPlus" x="17" y="9" onmousedown="handleZoom(evt,'in')"/>
                <use id="zoomminus" xlink:href="#zoomMin" x="42" y="9" onmousedown="handleZoom(evt,'out')"/>
                <use id="reset" xlink:href="#resetDef" x="30" y="36" onmousedown="handleReset()"/>
                <g id="arrowUp" xlink:href="#dirArrow" transform="translate(30 24)" onmousedown="handlePan(0,-1)">
                  <use xlink:href="#rim" fill="#404040">
                        <set attributeName="fill" to="#808080" begin="arrowUp.mouseover" end="arrowUp.mouseout"/>
                  </use>
                  <path fill="none" stroke="white" stroke-width="1.5" d="M0,-3.0v7 M-2.5,-0.5L0,-3.0L2.5,-0.5"/>
                </g>
                <g id="arrowRight" xlink:href="#dirArrow" transform="rotate(90) translate(36 -43)" onmousedown="handlePan(1,0)">
                  <use xlink:href="#rim" fill="#404040">
                        <set attributeName="fill" to="#808080" begin="arrowRight.mouseover" end="arrowRight.mouseout"/>
                  </use>
                  <path fill="none" stroke="white" stroke-width="1.5" d="M0,-3.0v7 M-2.5,-0.5L0,-3.0L2.5,-0.5"/>
                </g>
                <g id="arrowDown" xlink:href="#dirArrow" transform="rotate(180) translate(-30 -48)" onmousedown="handlePan(0,1)">
                  <use xlink:href="#rim" fill="#404040">
                        <set attributeName="fill" to="#808080" begin="arrowDown.mouseover" end="arrowDown.mouseout"/>
                  </use>
                  <path fill="none" stroke="white" stroke-width="1.5" d="M0,-3.0v7 M-2.5,-0.5L0,-3.0L2.5,-0.5"/>
                </g>
                <g id="arrowLeft" xlink:href="#dirArrow" transform="rotate(270) translate(-36 17)" onmousedown="handlePan(-1,0)">
                  <use xlink:href="#rim" fill="#404040">
                        <set attributeName="fill" to="#808080" begin="arrowLeft.mouseover" end="arrowLeft.mouseout"/>
                  </use>
                  <path fill="none" stroke="white" stroke-width="1.5" d="M0,-3.0v7 M-2.5,-0.5L0,-3.0L2.5,-0.5"/>
                </g>
        </g>
        <svg viewBox="0 0 15 15" width="100%" height="30px" preserveAspectRatio="xMaxYMin meet">
         <g id="arrow_out" transform="scale(0.3 0.3)">
          <a xlink:href="classx265_1_1Lock_a11bb88b077423b018467350cb6858edc_icgraph_org.svg" target="_base">
           <rect id="button" ry="5" rx="5" y="6" x="6" height="38" width="38"
                fill="#f2f5e9" fill-opacity="0.5" stroke="#606060" stroke-width="1.0"/>
           <path id="arrow"
             d="M 11.500037,31.436501 C 11.940474,20.09759 22.043105,11.32322 32.158766,21.979434 L 37.068811,17.246167 C 37.068811,17.246167 37.088388,32 37.088388,32 L 22.160133,31.978069 C 22.160133,31.978069 26.997745,27.140456 26.997745,27.140456 C 18.528582,18.264221 13.291696,25.230495 11.500037,31.436501 z"
             style="fill:#404040;"/>
          </a>
         </g>
        </svg>
</svg>
