<?xml version="1.0" encoding="UTF-8" standalone="no"?>
<!DOCTYPE svg PUBLIC "-//W3C//DTD SVG 1.1//EN"
 "http://www.w3.org/Graphics/SVG/1.1/DTD/svg11.dtd">
<!-- Generated by graphviz version 2.36.0 (20140111.2315)
 -->
<!-- Title: x265::ThreadPool::dequeueJobProvider Pages: 1 -->
<svg width="1840pt" height="620pt"
 viewBox="0.00 0.00 1840.00 620.00" xmlns="http://www.w3.org/2000/svg" xmlns:xlink="http://www.w3.org/1999/xlink">
<g id="graph0" class="graph" transform="scale(1 1) rotate(0) translate(4 616)">
<title>x265::ThreadPool::dequeueJobProvider</title>
<polygon fill="white" stroke="none" points="-4,4 -4,-616 1836,-616 1836,4 -4,4"/>
<!-- Node1 -->
<g id="node1" class="node"><title>Node1</title>
<polygon fill="#bfbfbf" stroke="black" points="0,-307 0,-337 136,-337 136,-307 0,-307"/>
<text text-anchor="start" x="8" y="-325" font-family="Helvetica,sans-Serif" font-size="10.00">x265::ThreadPool::dequeue</text>
<text text-anchor="middle" x="68" y="-314" font-family="Helvetica,sans-Serif" font-size="10.00">JobProvider</text>
</g>
<!-- Node2 -->
<g id="node2" class="node"><title>Node2</title>
<g id="a_node2"><a xlink:href="classx265_1_1JobProvider.html#aad43fe7bf62d5d3656046fcf0888e7b8" target="_top" xlink:title="x265::JobProvider::\ldequeue">
<polygon fill="white" stroke="black" points="172.5,-307 172.5,-337 273.5,-337 273.5,-307 172.5,-307"/>
<text text-anchor="start" x="180.5" y="-325" font-family="Helvetica,sans-Serif" font-size="10.00">x265::JobProvider::</text>
<text text-anchor="middle" x="223" y="-314" font-family="Helvetica,sans-Serif" font-size="10.00">dequeue</text>
</a>
</g>
</g>
<!-- Node1&#45;&gt;Node2 -->
<g id="edge1" class="edge"><title>Node1&#45;&gt;Node2</title>
<path fill="none" stroke="midnightblue" d="M146.166,-322C155.093,-322 164.008,-322 172.424,-322"/>
<polygon fill="midnightblue" stroke="midnightblue" points="146.108,-318.5 136.108,-322 146.108,-325.5 146.108,-318.5"/>
</g>
<!-- Node3 -->
<g id="node3" class="node"><title>Node3</title>
<g id="a_node3"><a xlink:href="classx265_1_1JobProvider.html#ad004107327dde958624d0db7a55c57f7" target="_top" xlink:title="x265::JobProvider::\lflush">
<polygon fill="white" stroke="black" points="334.5,-527 334.5,-557 435.5,-557 435.5,-527 334.5,-527"/>
<text text-anchor="start" x="342.5" y="-545" font-family="Helvetica,sans-Serif" font-size="10.00">x265::JobProvider::</text>
<text text-anchor="middle" x="385" y="-534" font-family="Helvetica,sans-Serif" font-size="10.00">flush</text>
</a>
</g>
</g>
<!-- Node2&#45;&gt;Node3 -->
<g id="edge2" class="edge"><title>Node2&#45;&gt;Node3</title>
<path fill="none" stroke="midnightblue" d="M232.509,-347.248C245.215,-382.228 271.812,-446.079 310,-490 322.981,-504.93 341.111,-517.76 356.176,-526.941"/>
<polygon fill="midnightblue" stroke="midnightblue" points="235.65,-345.632 229.014,-337.373 229.051,-347.968 235.65,-345.632"/>
</g>
<!-- Node9 -->
<g id="node9" class="node"><title>Node9</title>
<g id="a_node9"><a xlink:href="classx265_1_1Analysis.html#a87060ff27a37f56adc5f5b8a4c033ece" target="_top" xlink:title="x265::Analysis::compress\lInterCU_dist">
<polygon fill="white" stroke="black" points="1065,-324 1065,-354 1195,-354 1195,-324 1065,-324"/>
<text text-anchor="start" x="1073" y="-342" font-family="Helvetica,sans-Serif" font-size="10.00">x265::Analysis::compress</text>
<text text-anchor="middle" x="1130" y="-331" font-family="Helvetica,sans-Serif" font-size="10.00">InterCU_dist</text>
</a>
</g>
</g>
<!-- Node2&#45;&gt;Node9 -->
<g id="edge9" class="edge"><title>Node2&#45;&gt;Node9</title>
<path fill="none" stroke="midnightblue" d="M283.735,-315.987C353.702,-309.473 473.14,-300 576,-300 576,-300 576,-300 775,-300 876.865,-300 994.232,-316.152 1064.96,-327.667"/>
<polygon fill="midnightblue" stroke="midnightblue" points="283.406,-312.502 273.778,-316.925 284.063,-319.472 283.406,-312.502"/>
</g>
<!-- Node13 -->
<g id="node13" class="node"><title>Node13</title>
<g id="a_node13"><a xlink:href="classx265_1_1FrameEncoder.html#ac4e9ce2e876c0cdb25c992c872fe4302" target="_top" xlink:title="x265::FrameEncoder\l::compressCTURows">
<polygon fill="white" stroke="red" points="1720,-428 1720,-458 1832,-458 1832,-428 1720,-428"/>
<text text-anchor="start" x="1728" y="-446" font-family="Helvetica,sans-Serif" font-size="10.00">x265::FrameEncoder</text>
<text text-anchor="middle" x="1776" y="-435" font-family="Helvetica,sans-Serif" font-size="10.00">::compressCTURows</text>
</a>
</g>
</g>
<!-- Node2&#45;&gt;Node13 -->
<g id="edge14" class="edge"><title>Node2&#45;&gt;Node13</title>
<path fill="none" stroke="midnightblue" d="M251.036,-343.144C307.798,-385.344 444.983,-476 576,-476 576,-476 576,-476 1482,-476 1565.31,-476 1661.11,-462.662 1719.86,-452.946"/>
<polygon fill="midnightblue" stroke="midnightblue" points="253.036,-340.268 242.942,-337.047 248.824,-345.859 253.036,-340.268"/>
</g>
<!-- Node14 -->
<g id="node14" class="node"><title>Node14</title>
<g id="a_node14"><a xlink:href="classx265_1_1Search.html#a48101e3d900e93b97a83f461be390bd1" target="_top" xlink:title="x265::Search::predInterSearch">
<polygon fill="white" stroke="black" points="310.5,-353.5 310.5,-372.5 459.5,-372.5 459.5,-353.5 310.5,-353.5"/>
<text text-anchor="middle" x="385" y="-360.5" font-family="Helvetica,sans-Serif" font-size="10.00">x265::Search::predInterSearch</text>
</a>
</g>
</g>
<!-- Node2&#45;&gt;Node14 -->
<g id="edge15" class="edge"><title>Node2&#45;&gt;Node14</title>
<path fill="none" stroke="midnightblue" d="M283.623,-337.278C304.783,-342.701 327.982,-348.645 346.741,-353.452"/>
<polygon fill="midnightblue" stroke="midnightblue" points="284.304,-333.84 273.748,-334.748 282.566,-340.621 284.304,-333.84"/>
</g>
<!-- Node21 -->
<g id="node21" class="node"><title>Node21</title>
<g id="a_node21"><a xlink:href="classx265_1_1CostEstimate.html#af33d06405527ebbb03d9c93d565e6e2a" target="_top" xlink:title="x265::CostEstimate\l::estimateFrameCost">
<polygon fill="white" stroke="black" points="330.5,-165 330.5,-195 439.5,-195 439.5,-165 330.5,-165"/>
<text text-anchor="start" x="338.5" y="-183" font-family="Helvetica,sans-Serif" font-size="10.00">x265::CostEstimate</text>
<text text-anchor="middle" x="385" y="-172" font-family="Helvetica,sans-Serif" font-size="10.00">::estimateFrameCost</text>
</a>
</g>
</g>
<!-- Node2&#45;&gt;Node21 -->
<g id="edge25" class="edge"><title>Node2&#45;&gt;Node21</title>
<path fill="none" stroke="midnightblue" d="M248.923,-299.881C281.772,-270.728 338.693,-220.21 367,-195.087"/>
<polygon fill="midnightblue" stroke="midnightblue" points="246.279,-297.548 241.123,-306.804 250.925,-302.783 246.279,-297.548"/>
</g>
<!-- Node35 -->
<g id="node35" class="node"><title>Node35</title>
<g id="a_node35"><a xlink:href="classMD5Frame.html#a54826606d5067ffe9ff99a21aea15ff8" target="_top" xlink:title="MD5Frame::encode">
<polygon fill="white" stroke="black" points="333.5,-63.5 333.5,-82.5 436.5,-82.5 436.5,-63.5 333.5,-63.5"/>
<text text-anchor="middle" x="385" y="-70.5" font-family="Helvetica,sans-Serif" font-size="10.00">MD5Frame::encode</text>
</a>
</g>
</g>
<!-- Node2&#45;&gt;Node35 -->
<g id="edge45" class="edge"><title>Node2&#45;&gt;Node35</title>
<path fill="none" stroke="midnightblue" d="M234.207,-297.51C248.721,-263.942 277.229,-202.406 310,-155 329.737,-126.449 358.557,-97.2799 373.749,-82.6389"/>
<polygon fill="midnightblue" stroke="midnightblue" points="230.87,-296.412 230.162,-306.983 237.308,-299.161 230.87,-296.412"/>
</g>
<!-- Node4 -->
<g id="node4" class="node"><title>Node4</title>
<g id="a_node4"><a xlink:href="classx265_1_1FrameEncoder.html#a8a04405cf881d4ff9fa7bb6dd103f707" target="_top" xlink:title="x265::FrameEncoder\l::destroy">
<polygon fill="white" stroke="black" points="523.5,-505 523.5,-535 630.5,-535 630.5,-505 523.5,-505"/>
<text text-anchor="start" x="531.5" y="-523" font-family="Helvetica,sans-Serif" font-size="10.00">x265::FrameEncoder</text>
<text text-anchor="middle" x="577" y="-512" font-family="Helvetica,sans-Serif" font-size="10.00">::destroy</text>
</a>
</g>
</g>
<!-- Node3&#45;&gt;Node4 -->
<g id="edge3" class="edge"><title>Node3&#45;&gt;Node4</title>
<path fill="none" stroke="midnightblue" d="M445.961,-535.057C470.82,-532.179 499.4,-528.869 523.425,-526.088"/>
<polygon fill="midnightblue" stroke="midnightblue" points="445.451,-531.593 435.92,-536.22 446.256,-538.546 445.451,-531.593"/>
</g>
<!-- Node7 -->
<g id="node7" class="node"><title>Node7</title>
<g id="a_node7"><a xlink:href="classx265_1_1Lookahead.html#ab9a7aba780092c796bb7b2a2e0d41f4d" target="_top" xlink:title="x265::Lookahead::destroy">
<polygon fill="white" stroke="black" points="512.5,-592.5 512.5,-611.5 641.5,-611.5 641.5,-592.5 512.5,-592.5"/>
<text text-anchor="middle" x="577" y="-599.5" font-family="Helvetica,sans-Serif" font-size="10.00">x265::Lookahead::destroy</text>
</a>
</g>
</g>
<!-- Node3&#45;&gt;Node7 -->
<g id="edge6" class="edge"><title>Node3&#45;&gt;Node7</title>
<path fill="none" stroke="midnightblue" d="M432.322,-560.716C451.798,-568.205 474.814,-576.563 496,-583 507.337,-586.445 519.732,-589.653 531.307,-592.416"/>
<polygon fill="midnightblue" stroke="midnightblue" points="433.368,-557.368 422.779,-557.008 430.833,-563.892 433.368,-557.368"/>
</g>
<!-- Node8 -->
<g id="node8" class="node"><title>Node8</title>
<g id="a_node8"><a xlink:href="classMD5Frame.html#a8443b99914fb3ebd12367368532a5ec0" target="_top" xlink:title="MD5Frame::~MD5Frame">
<polygon fill="white" stroke="black" points="514,-554.5 514,-573.5 640,-573.5 640,-554.5 514,-554.5"/>
<text text-anchor="middle" x="577" y="-561.5" font-family="Helvetica,sans-Serif" font-size="10.00">MD5Frame::~MD5Frame</text>
</a>
</g>
</g>
<!-- Node3&#45;&gt;Node8 -->
<g id="edge8" class="edge"><title>Node3&#45;&gt;Node8</title>
<path fill="none" stroke="midnightblue" d="M445.961,-548.943C467.587,-551.447 492.03,-554.277 513.84,-556.803"/>
<polygon fill="midnightblue" stroke="midnightblue" points="446.256,-545.454 435.92,-547.78 445.451,-552.407 446.256,-545.454"/>
</g>
<!-- Node5 -->
<g id="node5" class="node"><title>Node5</title>
<g id="a_node5"><a xlink:href="classx265_1_1Encoder.html#ac689b087686eca38579aad7426e34fc6" target="_top" xlink:title="x265::Encoder::destroy">
<polygon fill="white" stroke="black" points="715,-551.5 715,-570.5 833,-570.5 833,-551.5 715,-551.5"/>
<text text-anchor="middle" x="774" y="-558.5" font-family="Helvetica,sans-Serif" font-size="10.00">x265::Encoder::destroy</text>
</a>
</g>
</g>
<!-- Node4&#45;&gt;Node5 -->
<g id="edge4" class="edge"><title>Node4&#45;&gt;Node5</title>
<path fill="none" stroke="midnightblue" d="M640.344,-533.108C668.732,-539.077 701.71,-546.011 727.684,-551.472"/>
<polygon fill="midnightblue" stroke="midnightblue" points="641.019,-529.674 630.513,-531.041 639.579,-536.524 641.019,-529.674"/>
</g>
<!-- Node6 -->
<g id="node6" class="node"><title>Node6</title>
<g id="a_node6"><a xlink:href="x265_8h.html#ac370491d505086b2eb41e10d89f271ad" target="_top" xlink:title="x265_encoder_close">
<polygon fill="white" stroke="red" points="905,-551.5 905,-570.5 1011,-570.5 1011,-551.5 905,-551.5"/>
<text text-anchor="middle" x="958" y="-558.5" font-family="Helvetica,sans-Serif" font-size="10.00">x265_encoder_close</text>
</a>
</g>
</g>
<!-- Node5&#45;&gt;Node6 -->
<g id="edge5" class="edge"><title>Node5&#45;&gt;Node6</title>
<path fill="none" stroke="midnightblue" d="M843.237,-561C863.579,-561 885.543,-561 904.697,-561"/>
<polygon fill="midnightblue" stroke="midnightblue" points="843.086,-557.5 833.086,-561 843.086,-564.5 843.086,-557.5"/>
</g>
<!-- Node7&#45;&gt;Node5 -->
<g id="edge7" class="edge"><title>Node7&#45;&gt;Node5</title>
<path fill="none" stroke="midnightblue" d="M633.087,-590.418C662.972,-584.134 699.461,-576.462 727.681,-570.529"/>
<polygon fill="midnightblue" stroke="midnightblue" points="632.293,-587.008 623.227,-592.491 633.733,-593.858 632.293,-587.008"/>
</g>
<!-- Node10 -->
<g id="node10" class="node"><title>Node10</title>
<g id="a_node10"><a xlink:href="classx265_1_1Analysis.html#aaebc9de2ff98834c650244f3b58942c2" target="_top" xlink:title="x265::Analysis::compressCTU">
<polygon fill="white" stroke="black" points="1234.5,-384.5 1234.5,-403.5 1385.5,-403.5 1385.5,-384.5 1234.5,-384.5"/>
<text text-anchor="middle" x="1310" y="-391.5" font-family="Helvetica,sans-Serif" font-size="10.00">x265::Analysis::compressCTU</text>
</a>
</g>
</g>
<!-- Node9&#45;&gt;Node10 -->
<g id="edge10" class="edge"><title>Node9&#45;&gt;Node10</title>
<path fill="none" stroke="midnightblue" d="M1189.45,-357.059C1219.01,-366.193 1253.69,-376.908 1278.06,-384.439"/>
<polygon fill="midnightblue" stroke="midnightblue" points="1190.23,-353.637 1179.64,-354.029 1188.16,-360.325 1190.23,-353.637"/>
</g>
<!-- Node11 -->
<g id="node11" class="node"><title>Node11</title>
<g id="a_node11"><a xlink:href="classx265_1_1FrameEncoder.html#a0ae85001572afd28238476542523ac5f" target="_top" xlink:title="x265::FrameEncoder\l::processRowEncoder">
<polygon fill="white" stroke="black" points="1424.5,-384 1424.5,-414 1537.5,-414 1537.5,-384 1424.5,-384"/>
<text text-anchor="start" x="1432.5" y="-402" font-family="Helvetica,sans-Serif" font-size="10.00">x265::FrameEncoder</text>
<text text-anchor="middle" x="1481" y="-391" font-family="Helvetica,sans-Serif" font-size="10.00">::processRowEncoder</text>
</a>
</g>
</g>
<!-- Node10&#45;&gt;Node11 -->
<g id="edge11" class="edge"><title>Node10&#45;&gt;Node11</title>
<path fill="none" stroke="midnightblue" d="M1395.71,-396.506C1405.42,-396.793 1415.12,-397.081 1424.31,-397.352"/>
<polygon fill="midnightblue" stroke="midnightblue" points="1395.72,-393.005 1385.62,-396.208 1395.51,-400.002 1395.72,-393.005"/>
</g>
<!-- Node12 -->
<g id="node12" class="node"><title>Node12</title>
<g id="a_node12"><a xlink:href="classx265_1_1FrameEncoder.html#acad645a8ece97d884895f8f7366b7d70" target="_top" xlink:title="x265::FrameEncoder\l::processRow">
<polygon fill="white" stroke="black" points="1576.5,-395 1576.5,-425 1683.5,-425 1683.5,-395 1576.5,-395"/>
<text text-anchor="start" x="1584.5" y="-413" font-family="Helvetica,sans-Serif" font-size="10.00">x265::FrameEncoder</text>
<text text-anchor="middle" x="1630" y="-402" font-family="Helvetica,sans-Serif" font-size="10.00">::processRow</text>
</a>
</g>
</g>
<!-- Node11&#45;&gt;Node12 -->
<g id="edge12" class="edge"><title>Node11&#45;&gt;Node12</title>
<path fill="none" stroke="midnightblue" d="M1547.81,-403.925C1557.34,-404.637 1567.04,-405.363 1576.26,-406.054"/>
<polygon fill="midnightblue" stroke="midnightblue" points="1547.81,-400.415 1537.57,-403.159 1547.29,-407.395 1547.81,-400.415"/>
</g>
<!-- Node12&#45;&gt;Node13 -->
<g id="edge13" class="edge"><title>Node12&#45;&gt;Node13</title>
<path fill="none" stroke="midnightblue" d="M1693.55,-424.335C1702.28,-426.336 1711.2,-428.38 1719.79,-430.347"/>
<polygon fill="midnightblue" stroke="midnightblue" points="1694.33,-420.923 1683.8,-422.101 1692.77,-427.746 1694.33,-420.923"/>
</g>
<!-- Node15 -->
<g id="node15" class="node"><title>Node15</title>
<g id="a_node15"><a xlink:href="classx265_1_1Analysis.html#a2305f7985af66b49fdbc40ebb1b281d2" target="_top" xlink:title="x265::Analysis::checkInter\l_rd0_4">
<polygon fill="white" stroke="black" points="510.5,-348 510.5,-378 643.5,-378 643.5,-348 510.5,-348"/>
<text text-anchor="start" x="518.5" y="-366" font-family="Helvetica,sans-Serif" font-size="10.00">x265::Analysis::checkInter</text>
<text text-anchor="middle" x="577" y="-355" font-family="Helvetica,sans-Serif" font-size="10.00">_rd0_4</text>
</a>
</g>
</g>
<!-- Node14&#45;&gt;Node15 -->
<g id="edge16" class="edge"><title>Node14&#45;&gt;Node15</title>
<path fill="none" stroke="midnightblue" d="M469.997,-363C483.523,-363 497.351,-363 510.363,-363"/>
<polygon fill="midnightblue" stroke="midnightblue" points="469.731,-359.5 459.731,-363 469.731,-366.5 469.731,-359.5"/>
</g>
<!-- Node19 -->
<g id="node19" class="node"><title>Node19</title>
<g id="a_node19"><a xlink:href="classx265_1_1Analysis.html#a828daa3e9f1ed40a1af9f99f7ff7bb33" target="_top" xlink:title="x265::Analysis::checkInter\l_rd5_6">
<polygon fill="white" stroke="black" points="510.5,-404 510.5,-434 643.5,-434 643.5,-404 510.5,-404"/>
<text text-anchor="start" x="518.5" y="-422" font-family="Helvetica,sans-Serif" font-size="10.00">x265::Analysis::checkInter</text>
<text text-anchor="middle" x="577" y="-411" font-family="Helvetica,sans-Serif" font-size="10.00">_rd5_6</text>
</a>
</g>
</g>
<!-- Node14&#45;&gt;Node19 -->
<g id="edge22" class="edge"><title>Node14&#45;&gt;Node19</title>
<path fill="none" stroke="midnightblue" d="M428.335,-375.478C456.852,-383.883 494.625,-395.016 524.829,-403.918"/>
<polygon fill="midnightblue" stroke="midnightblue" points="429.244,-372.097 418.662,-372.627 427.265,-378.811 429.244,-372.097"/>
</g>
<!-- Node16 -->
<g id="node16" class="node"><title>Node16</title>
<g id="a_node16"><a xlink:href="classx265_1_1Analysis.html#aa6122285d10bb1bd7584958b88b029d5" target="_top" xlink:title="x265::Analysis::parallel\lModeAnalysis">
<polygon fill="white" stroke="black" points="715,-329 715,-359 833,-359 833,-329 715,-329"/>
<text text-anchor="start" x="723" y="-347" font-family="Helvetica,sans-Serif" font-size="10.00">x265::Analysis::parallel</text>
<text text-anchor="middle" x="774" y="-336" font-family="Helvetica,sans-Serif" font-size="10.00">ModeAnalysis</text>
</a>
</g>
</g>
<!-- Node15&#45;&gt;Node16 -->
<g id="edge17" class="edge"><title>Node15&#45;&gt;Node16</title>
<path fill="none" stroke="midnightblue" d="M653.866,-355.608C674.088,-353.638 695.618,-351.54 714.733,-349.677"/>
<polygon fill="midnightblue" stroke="midnightblue" points="653.36,-352.141 643.746,-356.594 654.039,-359.108 653.36,-352.141"/>
</g>
<!-- Node18 -->
<g id="node18" class="node"><title>Node18</title>
<g id="a_node18"><a xlink:href="classx265_1_1Analysis.html#a30d2ff7eca5addbb0a6b3dfe14f09650" target="_top" xlink:title="x265::Analysis::compress\lInterCU_rd0_4">
<polygon fill="white" stroke="black" points="1065,-373 1065,-403 1195,-403 1195,-373 1065,-373"/>
<text text-anchor="start" x="1073" y="-391" font-family="Helvetica,sans-Serif" font-size="10.00">x265::Analysis::compress</text>
<text text-anchor="middle" x="1130" y="-380" font-family="Helvetica,sans-Serif" font-size="10.00">InterCU_rd0_4</text>
</a>
</g>
</g>
<!-- Node15&#45;&gt;Node18 -->
<g id="edge20" class="edge"><title>Node15&#45;&gt;Node18</title>
<path fill="none" stroke="midnightblue" d="M653.916,-366.444C763.041,-371.396 962.332,-380.438 1064.64,-385.08"/>
<polygon fill="midnightblue" stroke="midnightblue" points="653.792,-362.935 643.643,-365.978 653.474,-369.928 653.792,-362.935"/>
</g>
<!-- Node17 -->
<g id="node17" class="node"><title>Node17</title>
<g id="a_node17"><a xlink:href="classx265_1_1Analysis.html#a29a58dad4cc1c07d2f5e5717c6be7c25" target="_top" xlink:title="x265::Analysis::findJob">
<polygon fill="white" stroke="black" points="898.5,-332.5 898.5,-351.5 1017.5,-351.5 1017.5,-332.5 898.5,-332.5"/>
<text text-anchor="middle" x="958" y="-339.5" font-family="Helvetica,sans-Serif" font-size="10.00">x265::Analysis::findJob</text>
</a>
</g>
</g>
<!-- Node16&#45;&gt;Node17 -->
<g id="edge18" class="edge"><title>Node16&#45;&gt;Node17</title>
<path fill="none" stroke="midnightblue" d="M843.266,-343.25C861.34,-343.051 880.693,-342.839 898.216,-342.646"/>
<polygon fill="midnightblue" stroke="midnightblue" points="843.047,-339.752 833.086,-343.362 843.124,-346.751 843.047,-339.752"/>
</g>
<!-- Node17&#45;&gt;Node9 -->
<g id="edge19" class="edge"><title>Node17&#45;&gt;Node9</title>
<path fill="none" stroke="midnightblue" d="M1027.68,-340.788C1039.96,-340.571 1052.72,-340.346 1064.86,-340.132"/>
<polygon fill="midnightblue" stroke="midnightblue" points="1027.44,-337.292 1017.5,-340.968 1027.56,-344.29 1027.44,-337.292"/>
</g>
<!-- Node18&#45;&gt;Node10 -->
<g id="edge21" class="edge"><title>Node18&#45;&gt;Node10</title>
<path fill="none" stroke="midnightblue" d="M1205.01,-390.495C1214.7,-390.821 1224.64,-391.157 1234.35,-391.484"/>
<polygon fill="midnightblue" stroke="midnightblue" points="1205.12,-386.997 1195.01,-390.158 1204.89,-393.993 1205.12,-386.997"/>
</g>
<!-- Node20 -->
<g id="node20" class="node"><title>Node20</title>
<g id="a_node20"><a xlink:href="classx265_1_1Analysis.html#a0b22b7765aa4a36b1ba6d07ba26901e6" target="_top" xlink:title="x265::Analysis::compress\lInterCU_rd5_6">
<polygon fill="white" stroke="black" points="893,-417 893,-447 1023,-447 1023,-417 893,-417"/>
<text text-anchor="start" x="901" y="-435" font-family="Helvetica,sans-Serif" font-size="10.00">x265::Analysis::compress</text>
<text text-anchor="middle" x="958" y="-424" font-family="Helvetica,sans-Serif" font-size="10.00">InterCU_rd5_6</text>
</a>
</g>
</g>
<!-- Node19&#45;&gt;Node20 -->
<g id="edge23" class="edge"><title>Node19&#45;&gt;Node20</title>
<path fill="none" stroke="midnightblue" d="M653.672,-421.596C723.722,-423.998 826.74,-427.532 892.85,-429.8"/>
<polygon fill="midnightblue" stroke="midnightblue" points="653.698,-418.095 643.584,-421.25 653.458,-425.09 653.698,-418.095"/>
</g>
<!-- Node20&#45;&gt;Node10 -->
<g id="edge24" class="edge"><title>Node20&#45;&gt;Node10</title>
<path fill="none" stroke="midnightblue" d="M1033.2,-427.275C1080.46,-423.898 1142.94,-418.758 1198,-412 1216.8,-409.693 1237.28,-406.55 1255.48,-403.536"/>
<polygon fill="midnightblue" stroke="midnightblue" points="1032.78,-423.796 1023.05,-427.99 1033.27,-430.778 1032.78,-423.796"/>
</g>
<!-- Node22 -->
<g id="node22" class="node"><title>Node22</title>
<g id="a_node22"><a xlink:href="classx265_1_1Lookahead.html#ad15172de7a432e47e8514fb157fafedd" target="_top" xlink:title="x265::Lookahead::slicetype\lDecide">
<polygon fill="white" stroke="black" points="1062,-205 1062,-235 1198,-235 1198,-205 1062,-205"/>
<text text-anchor="start" x="1070" y="-223" font-family="Helvetica,sans-Serif" font-size="10.00">x265::Lookahead::slicetype</text>
<text text-anchor="middle" x="1130" y="-212" font-family="Helvetica,sans-Serif" font-size="10.00">Decide</text>
</a>
</g>
</g>
<!-- Node21&#45;&gt;Node22 -->
<g id="edge26" class="edge"><title>Node21&#45;&gt;Node22</title>
<path fill="none" stroke="midnightblue" d="M422.634,-199.631C443.492,-209.691 470.48,-220.879 496,-226 698.575,-266.651 944.999,-244.36 1061.62,-229.65"/>
<polygon fill="midnightblue" stroke="midnightblue" points="424.024,-196.414 413.51,-195.114 420.919,-202.687 424.024,-196.414"/>
</g>
<!-- Node27 -->
<g id="node27" class="node"><title>Node27</title>
<g id="a_node27"><a xlink:href="classx265_1_1Lookahead.html#ad963fd74581c61eaf7713367906b3e96" target="_top" xlink:title="x265::Lookahead::vbvFrameCost">
<polygon fill="white" stroke="black" points="496.5,-38.5 496.5,-57.5 657.5,-57.5 657.5,-38.5 496.5,-38.5"/>
<text text-anchor="middle" x="577" y="-45.5" font-family="Helvetica,sans-Serif" font-size="10.00">x265::Lookahead::vbvFrameCost</text>
</a>
</g>
</g>
<!-- Node21&#45;&gt;Node27 -->
<g id="edge32" class="edge"><title>Node21&#45;&gt;Node27</title>
<path fill="none" stroke="midnightblue" d="M402.183,-156.754C421.492,-130.828 456.205,-89.5747 496,-67 502.829,-63.126 510.416,-60.0396 518.121,-57.5812"/>
<polygon fill="midnightblue" stroke="midnightblue" points="399.301,-154.767 396.241,-164.91 404.958,-158.889 399.301,-154.767"/>
</g>
<!-- Node29 -->
<g id="node29" class="node"><title>Node29</title>
<g id="a_node29"><a xlink:href="classx265_1_1Lookahead.html#a2f8c7057dd5c5086830b5f22b38105b0" target="_top" xlink:title="x265::Lookahead::slicetype\lAnalyse">
<polygon fill="white" stroke="black" points="890,-142 890,-172 1026,-172 1026,-142 890,-142"/>
<text text-anchor="start" x="898" y="-160" font-family="Helvetica,sans-Serif" font-size="10.00">x265::Lookahead::slicetype</text>
<text text-anchor="middle" x="958" y="-149" font-family="Helvetica,sans-Serif" font-size="10.00">Analyse</text>
</a>
</g>
</g>
<!-- Node21&#45;&gt;Node29 -->
<g id="edge36" class="edge"><title>Node21&#45;&gt;Node29</title>
<path fill="none" stroke="midnightblue" d="M449.405,-196.261C464.568,-199.474 480.776,-202.358 496,-204 654.234,-221.061 698.065,-227.833 854,-196 878.73,-190.952 905.341,-180.74 925.319,-172.033"/>
<polygon fill="midnightblue" stroke="midnightblue" points="450.13,-192.837 439.612,-194.112 448.629,-199.674 450.13,-192.837"/>
</g>
<!-- Node30 -->
<g id="node30" class="node"><title>Node30</title>
<g id="a_node30"><a xlink:href="classx265_1_1Lookahead.html#abe59d19601dc7f3cc76ba3dd315140ee" target="_top" xlink:title="x265::Lookahead::scenecut\lInternal">
<polygon fill="white" stroke="black" points="508.5,-77 508.5,-107 645.5,-107 645.5,-77 508.5,-77"/>
<text text-anchor="start" x="516.5" y="-95" font-family="Helvetica,sans-Serif" font-size="10.00">x265::Lookahead::scenecut</text>
<text text-anchor="middle" x="577" y="-84" font-family="Helvetica,sans-Serif" font-size="10.00">Internal</text>
</a>
</g>
</g>
<!-- Node21&#45;&gt;Node30 -->
<g id="edge37" class="edge"><title>Node21&#45;&gt;Node30</title>
<path fill="none" stroke="midnightblue" d="M421.205,-159.978C442.519,-148.225 470.437,-133.477 496,-122 507.773,-116.714 520.783,-111.556 532.831,-107.05"/>
<polygon fill="midnightblue" stroke="midnightblue" points="419.248,-157.061 412.206,-164.978 422.647,-163.18 419.248,-157.061"/>
</g>
<!-- Node32 -->
<g id="node32" class="node"><title>Node32</title>
<g id="a_node32"><a xlink:href="classx265_1_1Lookahead.html#a23cd684acae2cb60daeb2f6df390e30e" target="_top" xlink:title="x265::Lookahead::slicetype\lPathCost">
<polygon fill="white" stroke="black" points="509,-165 509,-195 645,-195 645,-165 509,-165"/>
<text text-anchor="start" x="517" y="-183" font-family="Helvetica,sans-Serif" font-size="10.00">x265::Lookahead::slicetype</text>
<text text-anchor="middle" x="577" y="-172" font-family="Helvetica,sans-Serif" font-size="10.00">PathCost</text>
</a>
</g>
</g>
<!-- Node21&#45;&gt;Node32 -->
<g id="edge40" class="edge"><title>Node21&#45;&gt;Node32</title>
<path fill="none" stroke="midnightblue" d="M449.738,-180C468.761,-180 489.667,-180 508.898,-180"/>
<polygon fill="midnightblue" stroke="midnightblue" points="449.685,-176.5 439.685,-180 449.684,-183.5 449.685,-176.5"/>
</g>
<!-- Node34 -->
<g id="node34" class="node"><title>Node34</title>
<g id="a_node34"><a xlink:href="classx265_1_1Lookahead.html#a7de60f6bb080e48623088fb1ed9f034b" target="_top" xlink:title="x265::Lookahead::cuTree">
<polygon fill="white" stroke="black" points="710.5,-127.5 710.5,-146.5 837.5,-146.5 837.5,-127.5 710.5,-127.5"/>
<text text-anchor="middle" x="774" y="-134.5" font-family="Helvetica,sans-Serif" font-size="10.00">x265::Lookahead::cuTree</text>
</a>
</g>
</g>
<!-- Node21&#45;&gt;Node34 -->
<g id="edge43" class="edge"><title>Node21&#45;&gt;Node34</title>
<path fill="none" stroke="midnightblue" d="M449.464,-163.776C464.625,-160.401 480.817,-157.204 496,-155 569.087,-144.388 653.936,-140.031 710.273,-138.243"/>
<polygon fill="midnightblue" stroke="midnightblue" points="448.642,-160.373 439.671,-166.01 450.199,-167.198 448.642,-160.373"/>
</g>
<!-- Node23 -->
<g id="node23" class="node"><title>Node23</title>
<g id="a_node23"><a xlink:href="classx265_1_1Lookahead.html#a878bca13580997ab9c01e72a8f8e81c3" target="_top" xlink:title="x265::Lookahead::addPicture">
<polygon fill="white" stroke="black" points="1238.5,-248.5 1238.5,-267.5 1381.5,-267.5 1381.5,-248.5 1238.5,-248.5"/>
<text text-anchor="middle" x="1310" y="-255.5" font-family="Helvetica,sans-Serif" font-size="10.00">x265::Lookahead::addPicture</text>
</a>
</g>
</g>
<!-- Node22&#45;&gt;Node23 -->
<g id="edge27" class="edge"><title>Node22&#45;&gt;Node23</title>
<path fill="none" stroke="midnightblue" d="M1208.02,-236.443C1227.28,-240.555 1247.31,-244.829 1264.39,-248.477"/>
<polygon fill="midnightblue" stroke="midnightblue" points="1208.55,-232.977 1198.04,-234.312 1207.09,-239.823 1208.55,-232.977"/>
</g>
<!-- Node25 -->
<g id="node25" class="node"><title>Node25</title>
<g id="a_node25"><a xlink:href="classx265_1_1Lookahead.html#a0294c952379ca6f328014f92aa51259c" target="_top" xlink:title="x265::Lookahead::flush">
<polygon fill="white" stroke="black" points="1251,-172.5 1251,-191.5 1369,-191.5 1369,-172.5 1251,-172.5"/>
<text text-anchor="middle" x="1310" y="-179.5" font-family="Helvetica,sans-Serif" font-size="10.00">x265::Lookahead::flush</text>
</a>
</g>
</g>
<!-- Node22&#45;&gt;Node25 -->
<g id="edge29" class="edge"><title>Node22&#45;&gt;Node25</title>
<path fill="none" stroke="midnightblue" d="M1208.02,-203.557C1227.28,-199.445 1247.31,-195.171 1264.39,-191.523"/>
<polygon fill="midnightblue" stroke="midnightblue" points="1207.09,-200.177 1198.04,-205.688 1208.55,-207.023 1207.09,-200.177"/>
</g>
<!-- Node26 -->
<g id="node26" class="node"><title>Node26</title>
<g id="a_node26"><a xlink:href="classx265_1_1Lookahead.html#a341d8c6a3a971583aa911cf8dedbe6a1" target="_top" xlink:title="x265::Lookahead::findJob">
<polygon fill="white" stroke="black" points="1246,-210.5 1246,-229.5 1374,-229.5 1374,-210.5 1246,-210.5"/>
<text text-anchor="middle" x="1310" y="-217.5" font-family="Helvetica,sans-Serif" font-size="10.00">x265::Lookahead::findJob</text>
</a>
</g>
</g>
<!-- Node22&#45;&gt;Node26 -->
<g id="edge31" class="edge"><title>Node22&#45;&gt;Node26</title>
<path fill="none" stroke="midnightblue" d="M1208.07,-220C1220.68,-220 1233.62,-220 1245.84,-220"/>
<polygon fill="midnightblue" stroke="midnightblue" points="1208.04,-216.5 1198.04,-220 1208.04,-223.5 1208.04,-216.5"/>
</g>
<!-- Node24 -->
<g id="node24" class="node"><title>Node24</title>
<g id="a_node24"><a xlink:href="classx265_1_1Encoder.html#af5c80cef5fcafa00d1b3c105681bc784" target="_top" xlink:title="x265::Encoder::encode">
<polygon fill="white" stroke="red" points="1422.5,-210.5 1422.5,-229.5 1539.5,-229.5 1539.5,-210.5 1422.5,-210.5"/>
<text text-anchor="middle" x="1481" y="-217.5" font-family="Helvetica,sans-Serif" font-size="10.00">x265::Encoder::encode</text>
</a>
</g>
</g>
<!-- Node23&#45;&gt;Node24 -->
<g id="edge28" class="edge"><title>Node23&#45;&gt;Node24</title>
<path fill="none" stroke="midnightblue" d="M1363.59,-246.176C1387.41,-240.818 1415.21,-234.569 1437.66,-229.52"/>
<polygon fill="midnightblue" stroke="midnightblue" points="1362.63,-242.802 1353.65,-248.411 1364.17,-249.632 1362.63,-242.802"/>
</g>
<!-- Node25&#45;&gt;Node24 -->
<g id="edge30" class="edge"><title>Node25&#45;&gt;Node24</title>
<path fill="none" stroke="midnightblue" d="M1363.59,-193.824C1387.41,-199.182 1415.21,-205.431 1437.66,-210.48"/>
<polygon fill="midnightblue" stroke="midnightblue" points="1364.17,-190.368 1353.65,-191.589 1362.63,-197.198 1364.17,-190.368"/>
</g>
<!-- Node28 -->
<g id="node28" class="node"><title>Node28</title>
<g id="a_node28"><a xlink:href="classx265_1_1Lookahead.html#ad80879ec65df8318fbb5109388dcfa39" target="_top" xlink:title="x265::Lookahead::vbvLookahead">
<polygon fill="white" stroke="black" points="694,-44.5 694,-63.5 854,-63.5 854,-44.5 694,-44.5"/>
<text text-anchor="middle" x="774" y="-51.5" font-family="Helvetica,sans-Serif" font-size="10.00">x265::Lookahead::vbvLookahead</text>
</a>
</g>
</g>
<!-- Node27&#45;&gt;Node28 -->
<g id="edge33" class="edge"><title>Node27&#45;&gt;Node28</title>
<path fill="none" stroke="midnightblue" d="M667.797,-50.763C676.534,-51.0318 685.355,-51.3032 693.975,-51.5685"/>
<polygon fill="midnightblue" stroke="midnightblue" points="667.698,-47.2584 657.595,-50.4491 667.483,-54.2551 667.698,-47.2584"/>
</g>
<!-- Node28&#45;&gt;Node29 -->
<g id="edge34" class="edge"><title>Node28&#45;&gt;Node29</title>
<path fill="none" stroke="midnightblue" d="M830.924,-66.5817C838.864,-69.2204 846.777,-72.34 854,-76 888.7,-93.5829 923,-123.817 941.952,-141.956"/>
<polygon fill="midnightblue" stroke="midnightblue" points="831.858,-63.2072 821.271,-63.5976 829.791,-69.8949 831.858,-63.2072"/>
</g>
<!-- Node29&#45;&gt;Node22 -->
<g id="edge35" class="edge"><title>Node29&#45;&gt;Node22</title>
<path fill="none" stroke="midnightblue" d="M1009.12,-175.575C1034.35,-184.926 1064.55,-196.114 1088.32,-204.924"/>
<polygon fill="midnightblue" stroke="midnightblue" points="1010.31,-172.283 999.719,-172.09 1007.88,-178.847 1010.31,-172.283"/>
</g>
<!-- Node31 -->
<g id="node31" class="node"><title>Node31</title>
<g id="a_node31"><a xlink:href="classx265_1_1Lookahead.html#aa8614a28660df5604b8f7a2319d1c43a" target="_top" xlink:title="x265::Lookahead::scenecut">
<polygon fill="white" stroke="black" points="705.5,-85.5 705.5,-104.5 842.5,-104.5 842.5,-85.5 705.5,-85.5"/>
<text text-anchor="middle" x="774" y="-92.5" font-family="Helvetica,sans-Serif" font-size="10.00">x265::Lookahead::scenecut</text>
</a>
</g>
</g>
<!-- Node30&#45;&gt;Node31 -->
<g id="edge38" class="edge"><title>Node30&#45;&gt;Node31</title>
<path fill="none" stroke="midnightblue" d="M655.773,-93.1965C672.215,-93.4495 689.439,-93.7144 705.465,-93.961"/>
<polygon fill="midnightblue" stroke="midnightblue" points="655.707,-89.6952 645.654,-93.0408 655.599,-96.6943 655.707,-89.6952"/>
</g>
<!-- Node31&#45;&gt;Node29 -->
<g id="edge39" class="edge"><title>Node31&#45;&gt;Node29</title>
<path fill="none" stroke="midnightblue" d="M819.807,-107.381C831.026,-110.663 842.998,-114.322 854,-118 875.761,-125.275 899.753,-134.299 919.103,-141.834"/>
<polygon fill="midnightblue" stroke="midnightblue" points="820.763,-104.014 810.185,-104.603 818.821,-110.739 820.763,-104.014"/>
</g>
<!-- Node33 -->
<g id="node33" class="node"><title>Node33</title>
<g id="a_node33"><a xlink:href="classx265_1_1Lookahead.html#a694b3e0d0fb30e4e5b149cd3d79a839d" target="_top" xlink:title="x265::Lookahead::slicetypePath">
<polygon fill="white" stroke="black" points="696,-167.5 696,-186.5 852,-186.5 852,-167.5 696,-167.5"/>
<text text-anchor="middle" x="774" y="-174.5" font-family="Helvetica,sans-Serif" font-size="10.00">x265::Lookahead::slicetypePath</text>
</a>
</g>
</g>
<!-- Node32&#45;&gt;Node33 -->
<g id="edge41" class="edge"><title>Node32&#45;&gt;Node33</title>
<path fill="none" stroke="midnightblue" d="M655.182,-178.813C668.514,-178.607 682.377,-178.394 695.712,-178.189"/>
<polygon fill="midnightblue" stroke="midnightblue" points="655.053,-175.314 645.108,-178.968 655.161,-182.313 655.053,-175.314"/>
</g>
<!-- Node33&#45;&gt;Node29 -->
<g id="edge42" class="edge"><title>Node33&#45;&gt;Node29</title>
<path fill="none" stroke="midnightblue" d="M862.201,-167.417C871.467,-166.399 880.787,-165.375 889.773,-164.388"/>
<polygon fill="midnightblue" stroke="midnightblue" points="861.742,-163.947 852.184,-168.518 862.507,-170.905 861.742,-163.947"/>
</g>
<!-- Node34&#45;&gt;Node29 -->
<g id="edge44" class="edge"><title>Node34&#45;&gt;Node29</title>
<path fill="none" stroke="midnightblue" d="M847.66,-144.985C861.602,-146.517 876.144,-148.115 889.9,-149.626"/>
<polygon fill="midnightblue" stroke="midnightblue" points="847.957,-141.496 837.634,-143.883 847.192,-148.454 847.957,-141.496"/>
</g>
<!-- Node36 -->
<g id="node36" class="node"><title>Node36</title>
<g id="a_node36"><a xlink:href="testpool_8cpp.html#a2c3f6775325c30275d11c6abee2db6a0" target="_top" xlink:title="main">
<polygon fill="white" stroke="black" points="558,-0.5 558,-19.5 596,-19.5 596,-0.5 558,-0.5"/>
<text text-anchor="middle" x="577" y="-7.5" font-family="Helvetica,sans-Serif" font-size="10.00">main</text>
</a>
</g>
</g>
<!-- Node35&#45;&gt;Node36 -->
<g id="edge46" class="edge"><title>Node35&#45;&gt;Node36</title>
<path fill="none" stroke="midnightblue" d="M416.559,-59.365C438.391,-49.974 468.624,-37.674 496,-29 516.821,-22.4029 541.33,-16.9047 557.681,-13.5484"/>
<polygon fill="midnightblue" stroke="midnightblue" points="414.935,-56.2545 407.16,-63.4516 417.726,-62.674 414.935,-56.2545"/>
</g>
</g>
</svg>
