<?xml version="1.0" encoding="UTF-8" standalone="no"?>
<!DOCTYPE svg PUBLIC "-//W3C//DTD SVG 1.1//EN"
 "http://www.w3.org/Graphics/SVG/1.1/DTD/svg11.dtd">
<!-- Generated by graphviz version 2.36.0 (20140111.2315)
 -->
<!-- Title: x265::FrameFilter::processSao Pages: 1 -->
<svg width="676pt" height="139pt"
 viewBox="0.00 0.00 676.00 139.00" xmlns="http://www.w3.org/2000/svg" xmlns:xlink="http://www.w3.org/1999/xlink">
<g id="graph0" class="graph" transform="scale(1 1) rotate(0) translate(4 135)">
<title>x265::FrameFilter::processSao</title>
<polygon fill="white" stroke="none" points="-4,4 -4,-135 672,-135 672,4 -4,4"/>
<!-- Node1 -->
<g id="node1" class="node"><title>Node1</title>
<polygon fill="#bfbfbf" stroke="black" points="0.5,-1 0.5,-31 99.5,-31 99.5,-1 0.5,-1"/>
<text text-anchor="start" x="8.5" y="-19" font-family="Helvetica,sans-Serif" font-size="10.00">x265::FrameFilter::</text>
<text text-anchor="middle" x="50" y="-8" font-family="Helvetica,sans-Serif" font-size="10.00">processSao</text>
</g>
<!-- Node2 -->
<g id="node2" class="node"><title>Node2</title>
<g id="a_node2"><a xlink:href="classx265_1_1SAO.html#a1c1c4142bff7b0f46e60f3d67c6e7786" target="_top" xlink:title="x265::SAO::processSaoUnitRow">
<polygon fill="white" stroke="black" points="136.5,-35.5 136.5,-54.5 297.5,-54.5 297.5,-35.5 136.5,-35.5"/>
<text text-anchor="middle" x="217" y="-42.5" font-family="Helvetica,sans-Serif" font-size="10.00">x265::SAO::processSaoUnitRow</text>
</a>
</g>
</g>
<!-- Node1&#45;&gt;Node2 -->
<g id="edge1" class="edge"><title>Node1&#45;&gt;Node2</title>
<path fill="none" stroke="midnightblue" d="M99.613,-24.5441C115.903,-27.4072 134.327,-30.6454 151.631,-33.6867"/>
<polygon fill="midnightblue" stroke="midnightblue" points="151.211,-37.1664 161.666,-35.4503 152.423,-30.272 151.211,-37.1664"/>
</g>
<!-- Node6 -->
<g id="node6" class="node"><title>Node6</title>
<g id="a_node6"><a xlink:href="classx265_1_1FrameData.html#a83d98df913873a07c3ce59bd5c16b2e4" target="_top" xlink:title="x265::FrameData::getPicCTU">
<polygon fill="white" stroke="black" points="520.5,-16.5 520.5,-35.5 667.5,-35.5 667.5,-16.5 520.5,-16.5"/>
<text text-anchor="middle" x="594" y="-23.5" font-family="Helvetica,sans-Serif" font-size="10.00">x265::FrameData::getPicCTU</text>
</a>
</g>
</g>
<!-- Node1&#45;&gt;Node6 -->
<g id="edge8" class="edge"><title>Node1&#45;&gt;Node6</title>
<path fill="none" stroke="midnightblue" d="M99.8134,-11.5934C180.114,-5.10491 345.042,5.02041 484,-7 501.917,-8.54993 521.308,-11.5075 538.698,-14.6357"/>
<polygon fill="midnightblue" stroke="midnightblue" points="538.209,-18.1046 548.68,-16.488 539.486,-11.2221 538.209,-18.1046"/>
</g>
<!-- Node3 -->
<g id="node3" class="node"><title>Node3</title>
<g id="a_node3"><a xlink:href="classx265_1_1PicYuv.html#a9d693f780209d36825ad229709558021" target="_top" xlink:title="x265::PicYuv::getChromaAddr">
<polygon fill="white" stroke="black" points="334.5,-54.5 334.5,-73.5 483.5,-73.5 483.5,-54.5 334.5,-54.5"/>
<text text-anchor="middle" x="409" y="-61.5" font-family="Helvetica,sans-Serif" font-size="10.00">x265::PicYuv::getChromaAddr</text>
</a>
</g>
</g>
<!-- Node2&#45;&gt;Node3 -->
<g id="edge2" class="edge"><title>Node2&#45;&gt;Node3</title>
<path fill="none" stroke="midnightblue" d="M297.751,-52.9751C306.437,-53.8437 315.298,-54.7298 324.032,-55.6032"/>
<polygon fill="midnightblue" stroke="midnightblue" points="323.911,-59.1085 334.21,-56.621 324.608,-52.1433 323.911,-59.1085"/>
</g>
<!-- Node4 -->
<g id="node4" class="node"><title>Node4</title>
<g id="a_node4"><a xlink:href="classx265_1_1PicYuv.html#a2dd14d73d6720c2eca7300308d510336" target="_top" xlink:title="x265::PicYuv::getLumaAddr">
<polygon fill="white" stroke="black" points="339.5,-16.5 339.5,-35.5 478.5,-35.5 478.5,-16.5 339.5,-16.5"/>
<text text-anchor="middle" x="409" y="-23.5" font-family="Helvetica,sans-Serif" font-size="10.00">x265::PicYuv::getLumaAddr</text>
</a>
</g>
</g>
<!-- Node2&#45;&gt;Node4 -->
<g id="edge3" class="edge"><title>Node2&#45;&gt;Node4</title>
<path fill="none" stroke="midnightblue" d="M297.751,-37.0249C308.11,-35.989 318.717,-34.9283 329.062,-33.8938"/>
<polygon fill="midnightblue" stroke="midnightblue" points="329.699,-37.3477 339.301,-32.8699 329.002,-30.3824 329.699,-37.3477"/>
</g>
<!-- Node5 -->
<g id="node5" class="node"><title>Node5</title>
<g id="a_node5"><a xlink:href="classx265_1_1SAO.html#a3a7151304ddfd9b3bea90251194565fb" target="_top" xlink:title="x265::SAO::processSaoCu">
<polygon fill="white" stroke="black" points="341.5,-92.5 341.5,-111.5 476.5,-111.5 476.5,-92.5 341.5,-92.5"/>
<text text-anchor="middle" x="409" y="-99.5" font-family="Helvetica,sans-Serif" font-size="10.00">x265::SAO::processSaoCu</text>
</a>
</g>
</g>
<!-- Node2&#45;&gt;Node5 -->
<g id="edge4" class="edge"><title>Node2&#45;&gt;Node5</title>
<path fill="none" stroke="midnightblue" d="M245.499,-54.5694C268.904,-62.579 303.485,-74.0947 334,-83 342.053,-85.3503 350.645,-87.699 359.016,-89.9035"/>
<polygon fill="midnightblue" stroke="midnightblue" points="358.139,-93.2917 368.697,-92.4166 359.898,-86.5162 358.139,-93.2917"/>
</g>
<!-- Node5&#45;&gt;Node6 -->
<g id="edge5" class="edge"><title>Node5&#45;&gt;Node6</title>
<path fill="none" stroke="midnightblue" d="M454.359,-92.4147C464.254,-89.7806 474.596,-86.631 484,-83 500.877,-76.4835 503.976,-72.399 520,-64 535.012,-56.1314 551.786,-47.3958 565.466,-40.2861"/>
<polygon fill="midnightblue" stroke="midnightblue" points="567.121,-43.3701 574.382,-35.6545 563.895,-37.1582 567.121,-43.3701"/>
</g>
<!-- Node7 -->
<g id="node7" class="node"><title>Node7</title>
<g id="a_node7"><a xlink:href="classx265_1_1PicYuv.html#aeee8556da4cb35b12357140c8f009586" target="_top" xlink:title="x265::PicYuv::getPlaneAddr">
<polygon fill="white" stroke="black" points="524,-73.5 524,-92.5 664,-92.5 664,-73.5 524,-73.5"/>
<text text-anchor="middle" x="594" y="-80.5" font-family="Helvetica,sans-Serif" font-size="10.00">x265::PicYuv::getPlaneAddr</text>
</a>
</g>
</g>
<!-- Node5&#45;&gt;Node7 -->
<g id="edge6" class="edge"><title>Node5&#45;&gt;Node7</title>
<path fill="none" stroke="midnightblue" d="M476.585,-95.0868C488.561,-93.8434 501.153,-92.536 513.453,-91.259"/>
<polygon fill="midnightblue" stroke="midnightblue" points="514.11,-94.7096 523.695,-90.1956 513.387,-87.7471 514.11,-94.7096"/>
</g>
<!-- Node8 -->
<g id="node8" class="node"><title>Node8</title>
<g id="a_node8"><a xlink:href="common_8h.html#a0cd31af5bfbe1669e9a0d02225e6efba" target="_top" xlink:title="x265_min">
<polygon fill="white" stroke="black" points="564.5,-111.5 564.5,-130.5 623.5,-130.5 623.5,-111.5 564.5,-111.5"/>
<text text-anchor="middle" x="594" y="-118.5" font-family="Helvetica,sans-Serif" font-size="10.00">x265_min</text>
</a>
</g>
</g>
<!-- Node5&#45;&gt;Node8 -->
<g id="edge7" class="edge"><title>Node5&#45;&gt;Node8</title>
<path fill="none" stroke="midnightblue" d="M476.585,-108.913C502.699,-111.624 531.744,-114.64 554.29,-116.981"/>
<polygon fill="midnightblue" stroke="midnightblue" points="554.167,-120.487 564.475,-118.038 554.89,-113.524 554.167,-120.487"/>
</g>
</g>
</svg>
