<?xml version="1.0" encoding="UTF-8" standalone="no"?>
<!DOCTYPE svg PUBLIC "-//W3C//DTD SVG 1.1//EN"
 "http://www.w3.org/Graphics/SVG/1.1/DTD/svg11.dtd">
<!-- Generated by graphviz version 2.36.0 (20140111.2315)
 -->
<!-- Title: x265::Entropy::codeAUD Pages: 1 -->
<svg width="612pt" height="38pt"
 viewBox="0.00 0.00 612.00 38.00" xmlns="http://www.w3.org/2000/svg" xmlns:xlink="http://www.w3.org/1999/xlink">
<g id="graph0" class="graph" transform="scale(1 1) rotate(0) translate(4 34)">
<title>x265::Entropy::codeAUD</title>
<polygon fill="white" stroke="none" points="-4,4 -4,-34 608,-34 608,4 -4,4"/>
<!-- Node1 -->
<g id="node1" class="node"><title>Node1</title>
<polygon fill="#bfbfbf" stroke="black" points="0,-5.5 0,-24.5 126,-24.5 126,-5.5 0,-5.5"/>
<text text-anchor="middle" x="63" y="-12.5" font-family="Helvetica,sans-Serif" font-size="10.00">x265::Entropy::codeAUD</text>
</g>
<!-- Node2 -->
<g id="node2" class="node"><title>Node2</title>
<g id="a_node2"><a xlink:href="classx265_1_1SyntaxElementWriter.html#a0bb88c348aa279a7ff17909fbe9afcb7" target="_top" xlink:title="x265::SyntaxElementWriter\l::WRITE_CODE">
<polygon fill="white" stroke="black" points="162.5,-0 162.5,-30 299.5,-30 299.5,-0 162.5,-0"/>
<text text-anchor="start" x="170.5" y="-18" font-family="Helvetica,sans-Serif" font-size="10.00">x265::SyntaxElementWriter</text>
<text text-anchor="middle" x="231" y="-7" font-family="Helvetica,sans-Serif" font-size="10.00">::WRITE_CODE</text>
</a>
</g>
</g>
<!-- Node1&#45;&gt;Node2 -->
<g id="edge1" class="edge"><title>Node1&#45;&gt;Node2</title>
<path fill="none" stroke="midnightblue" d="M126.285,-15C134.748,-15 143.519,-15 152.214,-15"/>
<polygon fill="midnightblue" stroke="midnightblue" points="152.362,-18.5001 162.362,-15 152.362,-11.5001 152.362,-18.5001"/>
</g>
<!-- Node3 -->
<g id="node3" class="node"><title>Node3</title>
<g id="a_node3"><a xlink:href="classx265_1_1SyntaxElementWriter.html#ae5a4f2eb12b9c33050cd47aafe5d281c" target="_top" xlink:title="x265::SyntaxElementWriter\l::writeCode">
<polygon fill="white" stroke="black" points="336.5,-0 336.5,-30 473.5,-30 473.5,-0 336.5,-0"/>
<text text-anchor="start" x="344.5" y="-18" font-family="Helvetica,sans-Serif" font-size="10.00">x265::SyntaxElementWriter</text>
<text text-anchor="middle" x="405" y="-7" font-family="Helvetica,sans-Serif" font-size="10.00">::writeCode</text>
</a>
</g>
</g>
<!-- Node2&#45;&gt;Node3 -->
<g id="edge2" class="edge"><title>Node2&#45;&gt;Node3</title>
<path fill="none" stroke="midnightblue" d="M299.979,-15C308.55,-15 317.372,-15 326.082,-15"/>
<polygon fill="midnightblue" stroke="midnightblue" points="326.233,-18.5001 336.233,-15 326.233,-11.5001 326.233,-18.5001"/>
</g>
<!-- Node4 -->
<g id="node4" class="node"><title>Node4</title>
<g id="a_node4"><a xlink:href="classx265_1_1BitInterface.html#a28a79d8b25645cdd59d6ff004d4851dc" target="_top" xlink:title="x265::BitInterface\l::write">
<polygon fill="white" stroke="black" points="510,-0 510,-30 604,-30 604,-0 510,-0"/>
<text text-anchor="start" x="518" y="-18" font-family="Helvetica,sans-Serif" font-size="10.00">x265::BitInterface</text>
<text text-anchor="middle" x="557" y="-7" font-family="Helvetica,sans-Serif" font-size="10.00">::write</text>
</a>
</g>
</g>
<!-- Node3&#45;&gt;Node4 -->
<g id="edge3" class="edge"><title>Node3&#45;&gt;Node4</title>
<path fill="none" stroke="midnightblue" d="M473.54,-15C482.275,-15 491.146,-15 499.673,-15"/>
<polygon fill="midnightblue" stroke="midnightblue" points="499.872,-18.5001 509.872,-15 499.872,-11.5001 499.872,-18.5001"/>
</g>
</g>
</svg>
