<?xml version="1.0" encoding="UTF-8" standalone="no"?>
<!DOCTYPE svg PUBLIC "-//W3C//DTD SVG 1.1//EN"
 "http://www.w3.org/Graphics/SVG/1.1/DTD/svg11.dtd">
<!-- Generated by graphviz version 2.36.0 (20140111.2315)
 -->
<!-- Title: x265::CUData::deriveCenterIdx Pages: 1 -->
<svg width="1730pt" height="219pt"
 viewBox="0.00 0.00 1730.00 219.00" xmlns="http://www.w3.org/2000/svg" xmlns:xlink="http://www.w3.org/1999/xlink">
<g id="graph0" class="graph" transform="scale(1 1) rotate(0) translate(4 215)">
<title>x265::CUData::deriveCenterIdx</title>
<polygon fill="white" stroke="none" points="-4,4 -4,-215 1726,-215 1726,4 -4,4"/>
<!-- Node1 -->
<g id="node1" class="node"><title>Node1</title>
<polygon fill="#bfbfbf" stroke="black" points="0.5,-79.5 0.5,-98.5 155.5,-98.5 155.5,-79.5 0.5,-79.5"/>
<text text-anchor="middle" x="78" y="-86.5" font-family="Helvetica,sans-Serif" font-size="10.00">x265::CUData::deriveCenterIdx</text>
</g>
<!-- Node2 -->
<g id="node2" class="node"><title>Node2</title>
<g id="a_node2"><a xlink:href="classx265_1_1CUData.html#a0a0813a6acf261b95304a250aec73c3b" target="_top" xlink:title="x265::CUData::getInterMerge\lCandidates">
<polygon fill="white" stroke="black" points="192,-104 192,-134 338,-134 338,-104 192,-104"/>
<text text-anchor="start" x="200" y="-122" font-family="Helvetica,sans-Serif" font-size="10.00">x265::CUData::getInterMerge</text>
<text text-anchor="middle" x="265" y="-111" font-family="Helvetica,sans-Serif" font-size="10.00">Candidates</text>
</a>
</g>
</g>
<!-- Node1&#45;&gt;Node2 -->
<g id="edge1" class="edge"><title>Node1&#45;&gt;Node2</title>
<path fill="none" stroke="midnightblue" d="M148.016,-100.192C162.283,-102.505 177.348,-104.948 191.728,-107.28"/>
<polygon fill="midnightblue" stroke="midnightblue" points="148.221,-96.6793 137.789,-98.5334 147.1,-103.589 148.221,-96.6793"/>
</g>
<!-- Node16 -->
<g id="node16" class="node"><title>Node16</title>
<g id="a_node16"><a xlink:href="classx265_1_1CUData.html#ae34dd24258f1cfa1cf930a9dee773bce" target="_top" xlink:title="x265::CUData::fillMvpCand">
<polygon fill="white" stroke="black" points="196.5,-49.5 196.5,-68.5 333.5,-68.5 333.5,-49.5 196.5,-49.5"/>
<text text-anchor="middle" x="265" y="-56.5" font-family="Helvetica,sans-Serif" font-size="10.00">x265::CUData::fillMvpCand</text>
</a>
</g>
</g>
<!-- Node1&#45;&gt;Node16 -->
<g id="edge20" class="edge"><title>Node1&#45;&gt;Node16</title>
<path fill="none" stroke="midnightblue" d="M147.831,-77.8382C166.747,-74.7707 187.079,-71.4736 205.364,-68.5086"/>
<polygon fill="midnightblue" stroke="midnightblue" points="147.1,-74.4109 137.789,-79.4666 148.221,-81.3207 147.1,-74.4109"/>
</g>
<!-- Node3 -->
<g id="node3" class="node"><title>Node3</title>
<g id="a_node3"><a xlink:href="classx265_1_1Analysis.html#addd72cb95590e2b2a6965d42d110eab3" target="_top" xlink:title="x265::Analysis::checkMerge2\lNx2N_rd0_4">
<polygon fill="white" stroke="black" points="750,-93 750,-123 896,-123 896,-93 750,-93"/>
<text text-anchor="start" x="758" y="-111" font-family="Helvetica,sans-Serif" font-size="10.00">x265::Analysis::checkMerge2</text>
<text text-anchor="middle" x="823" y="-100" font-family="Helvetica,sans-Serif" font-size="10.00">Nx2N_rd0_4</text>
</a>
</g>
</g>
<!-- Node2&#45;&gt;Node3 -->
<g id="edge2" class="edge"><title>Node2&#45;&gt;Node3</title>
<path fill="none" stroke="midnightblue" d="M348.112,-118.392C399.751,-117.927 467.774,-117.164 528,-116 603.683,-114.537 690.305,-112.086 749.816,-110.281"/>
<polygon fill="midnightblue" stroke="midnightblue" points="347.978,-114.892 338.01,-118.481 348.04,-121.892 347.978,-114.892"/>
</g>
<!-- Node8 -->
<g id="node8" class="node"><title>Node8</title>
<g id="a_node8"><a xlink:href="classx265_1_1Analysis.html#a0194a9da53aa95173fa1132ba3aea1c7" target="_top" xlink:title="x265::Analysis::checkMerge2\lNx2N_rd5_6">
<polygon fill="white" stroke="black" points="566,-175 566,-205 712,-205 712,-175 566,-175"/>
<text text-anchor="start" x="574" y="-193" font-family="Helvetica,sans-Serif" font-size="10.00">x265::Analysis::checkMerge2</text>
<text text-anchor="middle" x="639" y="-182" font-family="Helvetica,sans-Serif" font-size="10.00">Nx2N_rd5_6</text>
</a>
</g>
</g>
<!-- Node2&#45;&gt;Node8 -->
<g id="edge8" class="edge"><title>Node2&#45;&gt;Node8</title>
<path fill="none" stroke="midnightblue" d="M325.077,-136.752C340.878,-141.131 358.011,-145.55 374,-149 438.382,-162.892 512.567,-173.987 565.871,-181.114"/>
<polygon fill="midnightblue" stroke="midnightblue" points="326.007,-133.378 315.433,-134.04 324.112,-140.116 326.007,-133.378"/>
</g>
<!-- Node10 -->
<g id="node10" class="node"><title>Node10</title>
<g id="a_node10"><a xlink:href="classx265_1_1Search.html#a761560ef5d3ff0beb48567c88c771d55" target="_top" xlink:title="x265::Search::mergeEstimation">
<polygon fill="white" stroke="black" points="374,-87.5 374,-106.5 528,-106.5 528,-87.5 374,-87.5"/>
<text text-anchor="middle" x="451" y="-94.5" font-family="Helvetica,sans-Serif" font-size="10.00">x265::Search::mergeEstimation</text>
</a>
</g>
</g>
<!-- Node2&#45;&gt;Node10 -->
<g id="edge11" class="edge"><title>Node2&#45;&gt;Node10</title>
<path fill="none" stroke="midnightblue" d="M348.136,-109.179C356.665,-108.16 365.309,-107.126 373.77,-106.115"/>
<polygon fill="midnightblue" stroke="midnightblue" points="347.707,-105.706 338.194,-110.368 348.538,-112.656 347.707,-105.706"/>
</g>
<!-- Node4 -->
<g id="node4" class="node"><title>Node4</title>
<g id="a_node4"><a xlink:href="classx265_1_1Analysis.html#a87060ff27a37f56adc5f5b8a4c033ece" target="_top" xlink:title="x265::Analysis::compress\lInterCU_dist">
<polygon fill="white" stroke="black" points="1254,-137 1254,-167 1384,-167 1384,-137 1254,-137"/>
<text text-anchor="start" x="1262" y="-155" font-family="Helvetica,sans-Serif" font-size="10.00">x265::Analysis::compress</text>
<text text-anchor="middle" x="1319" y="-144" font-family="Helvetica,sans-Serif" font-size="10.00">InterCU_dist</text>
</a>
</g>
</g>
<!-- Node3&#45;&gt;Node4 -->
<g id="edge3" class="edge"><title>Node3&#45;&gt;Node4</title>
<path fill="none" stroke="midnightblue" d="M893.474,-125.227C906.222,-127.876 919.46,-130.294 932,-132 1044.54,-147.31 1176.99,-151.118 1253.83,-151.941"/>
<polygon fill="midnightblue" stroke="midnightblue" points="893.891,-121.736 883.379,-123.061 892.422,-128.581 893.891,-121.736"/>
</g>
<!-- Node7 -->
<g id="node7" class="node"><title>Node7</title>
<g id="a_node7"><a xlink:href="classx265_1_1Analysis.html#a30d2ff7eca5addbb0a6b3dfe14f09650" target="_top" xlink:title="x265::Analysis::compress\lInterCU_rd0_4">
<polygon fill="white" stroke="black" points="932,-93 932,-123 1062,-123 1062,-93 932,-93"/>
<text text-anchor="start" x="940" y="-111" font-family="Helvetica,sans-Serif" font-size="10.00">x265::Analysis::compress</text>
<text text-anchor="middle" x="997" y="-100" font-family="Helvetica,sans-Serif" font-size="10.00">InterCU_rd0_4</text>
</a>
</g>
</g>
<!-- Node3&#45;&gt;Node7 -->
<g id="edge6" class="edge"><title>Node3&#45;&gt;Node7</title>
<path fill="none" stroke="midnightblue" d="M906.701,-108C915.144,-108 923.629,-108 931.831,-108"/>
<polygon fill="midnightblue" stroke="midnightblue" points="906.445,-104.5 896.445,-108 906.445,-111.5 906.445,-104.5"/>
</g>
<!-- Node5 -->
<g id="node5" class="node"><title>Node5</title>
<g id="a_node5"><a xlink:href="classx265_1_1Analysis.html#aaebc9de2ff98834c650244f3b58942c2" target="_top" xlink:title="x265::Analysis::compressCTU">
<polygon fill="white" stroke="black" points="1420.5,-142.5 1420.5,-161.5 1571.5,-161.5 1571.5,-142.5 1420.5,-142.5"/>
<text text-anchor="middle" x="1496" y="-149.5" font-family="Helvetica,sans-Serif" font-size="10.00">x265::Analysis::compressCTU</text>
</a>
</g>
</g>
<!-- Node4&#45;&gt;Node5 -->
<g id="edge4" class="edge"><title>Node4&#45;&gt;Node5</title>
<path fill="none" stroke="midnightblue" d="M1394.25,-152C1402.93,-152 1411.78,-152 1420.47,-152"/>
<polygon fill="midnightblue" stroke="midnightblue" points="1394.17,-148.5 1384.17,-152 1394.17,-155.5 1394.17,-148.5"/>
</g>
<!-- Node6 -->
<g id="node6" class="node"><title>Node6</title>
<g id="a_node6"><a xlink:href="classx265_1_1FrameEncoder.html#a0ae85001572afd28238476542523ac5f" target="_top" xlink:title="x265::FrameEncoder\l::processRowEncoder">
<polygon fill="white" stroke="red" points="1608.5,-137 1608.5,-167 1721.5,-167 1721.5,-137 1608.5,-137"/>
<text text-anchor="start" x="1616.5" y="-155" font-family="Helvetica,sans-Serif" font-size="10.00">x265::FrameEncoder</text>
<text text-anchor="middle" x="1665" y="-144" font-family="Helvetica,sans-Serif" font-size="10.00">::processRowEncoder</text>
</a>
</g>
</g>
<!-- Node5&#45;&gt;Node6 -->
<g id="edge5" class="edge"><title>Node5&#45;&gt;Node6</title>
<path fill="none" stroke="midnightblue" d="M1581.86,-152C1590.86,-152 1599.85,-152 1608.39,-152"/>
<polygon fill="midnightblue" stroke="midnightblue" points="1581.71,-148.5 1571.71,-152 1581.71,-155.5 1581.71,-148.5"/>
</g>
<!-- Node7&#45;&gt;Node5 -->
<g id="edge7" class="edge"><title>Node7&#45;&gt;Node5</title>
<path fill="none" stroke="midnightblue" d="M1072.38,-107.871C1150.37,-108.621 1276.32,-112.335 1384,-127 1409.64,-130.492 1438.11,-136.957 1459.79,-142.437"/>
<polygon fill="midnightblue" stroke="midnightblue" points="1072.2,-104.37 1062.17,-107.788 1072.14,-111.37 1072.2,-104.37"/>
</g>
<!-- Node9 -->
<g id="node9" class="node"><title>Node9</title>
<g id="a_node9"><a xlink:href="classx265_1_1Analysis.html#a0b22b7765aa4a36b1ba6d07ba26901e6" target="_top" xlink:title="x265::Analysis::compress\lInterCU_rd5_6">
<polygon fill="white" stroke="black" points="932,-181 932,-211 1062,-211 1062,-181 932,-181"/>
<text text-anchor="start" x="940" y="-199" font-family="Helvetica,sans-Serif" font-size="10.00">x265::Analysis::compress</text>
<text text-anchor="middle" x="997" y="-188" font-family="Helvetica,sans-Serif" font-size="10.00">InterCU_rd5_6</text>
</a>
</g>
</g>
<!-- Node8&#45;&gt;Node9 -->
<g id="edge9" class="edge"><title>Node8&#45;&gt;Node9</title>
<path fill="none" stroke="midnightblue" d="M722.071,-191.383C785.863,-192.458 873.094,-193.929 931.834,-194.919"/>
<polygon fill="midnightblue" stroke="midnightblue" points="722.1,-187.883 712.042,-191.214 721.981,-194.882 722.1,-187.883"/>
</g>
<!-- Node9&#45;&gt;Node5 -->
<g id="edge10" class="edge"><title>Node9&#45;&gt;Node5</title>
<path fill="none" stroke="midnightblue" d="M1072.36,-195.693C1150.33,-194.543 1276.26,-190.344 1384,-176 1409.02,-172.67 1436.77,-166.67 1458.26,-161.502"/>
<polygon fill="midnightblue" stroke="midnightblue" points="1072.1,-192.196 1062.15,-195.83 1072.2,-199.195 1072.1,-192.196"/>
</g>
<!-- Node11 -->
<g id="node11" class="node"><title>Node11</title>
<g id="a_node11"><a xlink:href="classx265_1_1Search.html#a48101e3d900e93b97a83f461be390bd1" target="_top" xlink:title="x265::Search::predInterSearch">
<polygon fill="white" stroke="black" points="564.5,-49.5 564.5,-68.5 713.5,-68.5 713.5,-49.5 564.5,-49.5"/>
<text text-anchor="middle" x="639" y="-56.5" font-family="Helvetica,sans-Serif" font-size="10.00">x265::Search::predInterSearch</text>
</a>
</g>
</g>
<!-- Node10&#45;&gt;Node11 -->
<g id="edge12" class="edge"><title>Node10&#45;&gt;Node11</title>
<path fill="none" stroke="midnightblue" d="M508.825,-85.3905C535.279,-79.986 566.358,-73.6365 591.402,-68.5201"/>
<polygon fill="midnightblue" stroke="midnightblue" points="508.033,-81.9801 498.936,-87.411 509.434,-88.8384 508.033,-81.9801"/>
</g>
<!-- Node12 -->
<g id="node12" class="node"><title>Node12</title>
<g id="a_node12"><a xlink:href="classx265_1_1Analysis.html#a2305f7985af66b49fdbc40ebb1b281d2" target="_top" xlink:title="x265::Analysis::checkInter\l_rd0_4">
<polygon fill="white" stroke="black" points="756.5,-44 756.5,-74 889.5,-74 889.5,-44 756.5,-44"/>
<text text-anchor="start" x="764.5" y="-62" font-family="Helvetica,sans-Serif" font-size="10.00">x265::Analysis::checkInter</text>
<text text-anchor="middle" x="823" y="-51" font-family="Helvetica,sans-Serif" font-size="10.00">_rd0_4</text>
</a>
</g>
</g>
<!-- Node11&#45;&gt;Node12 -->
<g id="edge13" class="edge"><title>Node11&#45;&gt;Node12</title>
<path fill="none" stroke="midnightblue" d="M723.569,-59C734.597,-59 745.771,-59 756.438,-59"/>
<polygon fill="midnightblue" stroke="midnightblue" points="723.502,-55.5001 713.502,-59 723.502,-62.5001 723.502,-55.5001"/>
</g>
<!-- Node15 -->
<g id="node15" class="node"><title>Node15</title>
<g id="a_node15"><a xlink:href="classx265_1_1Analysis.html#a828daa3e9f1ed40a1af9f99f7ff7bb33" target="_top" xlink:title="x265::Analysis::checkInter\l_rd5_6">
<polygon fill="white" stroke="black" points="756.5,-142 756.5,-172 889.5,-172 889.5,-142 756.5,-142"/>
<text text-anchor="start" x="764.5" y="-160" font-family="Helvetica,sans-Serif" font-size="10.00">x265::Analysis::checkInter</text>
<text text-anchor="middle" x="823" y="-149" font-family="Helvetica,sans-Serif" font-size="10.00">_rd5_6</text>
</a>
</g>
</g>
<!-- Node11&#45;&gt;Node15 -->
<g id="edge18" class="edge"><title>Node11&#45;&gt;Node15</title>
<path fill="none" stroke="midnightblue" d="M660.256,-74.7145C681.64,-90.7467 716.788,-115.543 750,-132 757.351,-135.642 765.364,-138.987 773.288,-141.964"/>
<polygon fill="midnightblue" stroke="midnightblue" points="662.323,-71.8898 652.242,-68.6318 658.091,-77.4656 662.323,-71.8898"/>
</g>
<!-- Node12&#45;&gt;Node7 -->
<g id="edge17" class="edge"><title>Node12&#45;&gt;Node7</title>
<path fill="none" stroke="midnightblue" d="M886.812,-76.8941C905.312,-82.1644 925.359,-87.8755 943.166,-92.9484"/>
<polygon fill="midnightblue" stroke="midnightblue" points="887.585,-73.4753 877.009,-74.1014 885.668,-80.2074 887.585,-73.4753"/>
</g>
<!-- Node13 -->
<g id="node13" class="node"><title>Node13</title>
<g id="a_node13"><a xlink:href="classx265_1_1Analysis.html#aa6122285d10bb1bd7584958b88b029d5" target="_top" xlink:title="x265::Analysis::parallel\lModeAnalysis">
<polygon fill="white" stroke="black" points="938,-44 938,-74 1056,-74 1056,-44 938,-44"/>
<text text-anchor="start" x="946" y="-62" font-family="Helvetica,sans-Serif" font-size="10.00">x265::Analysis::parallel</text>
<text text-anchor="middle" x="997" y="-51" font-family="Helvetica,sans-Serif" font-size="10.00">ModeAnalysis</text>
</a>
</g>
</g>
<!-- Node12&#45;&gt;Node13 -->
<g id="edge14" class="edge"><title>Node12&#45;&gt;Node13</title>
<path fill="none" stroke="midnightblue" d="M899.72,-59C912.554,-59 925.698,-59 937.986,-59"/>
<polygon fill="midnightblue" stroke="midnightblue" points="899.517,-55.5001 889.516,-59 899.516,-62.5001 899.517,-55.5001"/>
</g>
<!-- Node14 -->
<g id="node14" class="node"><title>Node14</title>
<g id="a_node14"><a xlink:href="classx265_1_1Analysis.html#a29a58dad4cc1c07d2f5e5717c6be7c25" target="_top" xlink:title="x265::Analysis::findJob">
<polygon fill="white" stroke="black" points="1098.5,-49.5 1098.5,-68.5 1217.5,-68.5 1217.5,-49.5 1098.5,-49.5"/>
<text text-anchor="middle" x="1158" y="-56.5" font-family="Helvetica,sans-Serif" font-size="10.00">x265::Analysis::findJob</text>
</a>
</g>
</g>
<!-- Node13&#45;&gt;Node14 -->
<g id="edge15" class="edge"><title>Node13&#45;&gt;Node14</title>
<path fill="none" stroke="midnightblue" d="M1066.42,-59C1077.08,-59 1088.02,-59 1098.44,-59"/>
<polygon fill="midnightblue" stroke="midnightblue" points="1066.3,-55.5001 1056.3,-59 1066.3,-62.5001 1066.3,-55.5001"/>
</g>
<!-- Node14&#45;&gt;Node4 -->
<g id="edge16" class="edge"><title>Node14&#45;&gt;Node4</title>
<path fill="none" stroke="midnightblue" d="M1184.3,-73.7962C1213.86,-91.0886 1262.52,-119.548 1292.27,-136.949"/>
<polygon fill="midnightblue" stroke="midnightblue" points="1185.82,-70.6301 1175.42,-68.6024 1182.28,-76.6724 1185.82,-70.6301"/>
</g>
<!-- Node15&#45;&gt;Node9 -->
<g id="edge19" class="edge"><title>Node15&#45;&gt;Node9</title>
<path fill="none" stroke="midnightblue" d="M899.366,-174.089C910.183,-176.542 921.228,-179.046 931.803,-181.444"/>
<polygon fill="midnightblue" stroke="midnightblue" points="900.043,-170.654 889.516,-171.855 898.495,-177.48 900.043,-170.654"/>
</g>
<!-- Node16&#45;&gt;Node11 -->
<g id="edge25" class="edge"><title>Node16&#45;&gt;Node11</title>
<path fill="none" stroke="midnightblue" d="M343.974,-59C408.87,-59 500.616,-59 564.296,-59"/>
<polygon fill="midnightblue" stroke="midnightblue" points="343.798,-55.5001 333.798,-59 343.798,-62.5001 343.798,-55.5001"/>
</g>
<!-- Node17 -->
<g id="node17" class="node"><title>Node17</title>
<g id="a_node17"><a xlink:href="classx265_1_1Search.html#a47294b1b3d67ab31cb6be412407982d5" target="_top" xlink:title="x265::Search::singleMotion\lEstimation">
<polygon fill="white" stroke="black" points="383.5,-0 383.5,-30 518.5,-30 518.5,-0 383.5,-0"/>
<text text-anchor="start" x="391.5" y="-18" font-family="Helvetica,sans-Serif" font-size="10.00">x265::Search::singleMotion</text>
<text text-anchor="middle" x="451" y="-7" font-family="Helvetica,sans-Serif" font-size="10.00">Estimation</text>
</a>
</g>
</g>
<!-- Node16&#45;&gt;Node17 -->
<g id="edge21" class="edge"><title>Node16&#45;&gt;Node17</title>
<path fill="none" stroke="midnightblue" d="M315.697,-47.116C337.647,-41.8669 363.705,-35.6358 386.999,-30.0654"/>
<polygon fill="midnightblue" stroke="midnightblue" points="314.837,-43.7228 305.925,-49.4527 316.465,-50.5309 314.837,-43.7228"/>
</g>
<!-- Node17&#45;&gt;Node11 -->
<g id="edge24" class="edge"><title>Node17&#45;&gt;Node11</title>
<path fill="none" stroke="midnightblue" d="M525.539,-32.3964C550.16,-38.2206 576.685,-44.4954 597.788,-49.4876"/>
<polygon fill="midnightblue" stroke="midnightblue" points="526.028,-28.9154 515.49,-30.0192 524.416,-35.7274 526.028,-28.9154"/>
</g>
<!-- Node18 -->
<g id="node18" class="node"><title>Node18</title>
<g id="a_node18"><a xlink:href="classx265_1_1Analysis.html#abd49473ae6e5e1f7e555b447b04398e6" target="_top" xlink:title="x265::Analysis::parallelME">
<polygon fill="white" stroke="black" points="572.5,-5.5 572.5,-24.5 705.5,-24.5 705.5,-5.5 572.5,-5.5"/>
<text text-anchor="middle" x="639" y="-12.5" font-family="Helvetica,sans-Serif" font-size="10.00">x265::Analysis::parallelME</text>
</a>
</g>
</g>
<!-- Node17&#45;&gt;Node18 -->
<g id="edge22" class="edge"><title>Node17&#45;&gt;Node18</title>
<path fill="none" stroke="midnightblue" d="M529.021,-15C543.455,-15 558.419,-15 572.464,-15"/>
<polygon fill="midnightblue" stroke="midnightblue" points="528.625,-11.5001 518.625,-15 528.625,-18.5001 528.625,-11.5001"/>
</g>
<!-- Node18&#45;&gt;Node14 -->
<g id="edge23" class="edge"><title>Node18&#45;&gt;Node14</title>
<path fill="none" stroke="midnightblue" d="M715.908,-13.5924C800.755,-13.136 941.994,-15.7206 1062,-34 1084.26,-37.3899 1108.82,-43.9307 1127.39,-49.4718"/>
<polygon fill="midnightblue" stroke="midnightblue" points="715.821,-10.0928 705.846,-13.6623 715.87,-17.0927 715.821,-10.0928"/>
</g>
</g>
</svg>
