<?xml version="1.0" encoding="UTF-8" standalone="no"?>
<!DOCTYPE svg PUBLIC "-//W3C//DTD SVG 1.1//EN"
 "http://www.w3.org/Graphics/SVG/1.1/DTD/svg11.dtd">
<!-- Generated by graphviz version 2.36.0 (20140111.2315)
 -->
<!-- Title: IntraPredHarness Pages: 1 -->
<svg width="223pt" height="196pt"
 viewBox="0.00 0.00 223.00 196.00" xmlns="http://www.w3.org/2000/svg" xmlns:xlink="http://www.w3.org/1999/xlink">
<g id="graph0" class="graph" transform="scale(1 1) rotate(0) translate(4 192)">
<title>IntraPredHarness</title>
<polygon fill="white" stroke="none" points="-4,4 -4,-192 219,-192 219,4 -4,4"/>
<!-- Node1 -->
<g id="node1" class="node"><title>Node1</title>
<polygon fill="#bfbfbf" stroke="black" points="75.5,-0.5 75.5,-19.5 168.5,-19.5 168.5,-0.5 75.5,-0.5"/>
<text text-anchor="middle" x="122" y="-7.5" font-family="Helvetica,sans-Serif" font-size="10.00">IntraPredHarness</text>
</g>
<!-- Node2 -->
<g id="node2" class="node"><title>Node2</title>
<g id="a_node2"><a xlink:href="classTestHarness.html" target="_top" xlink:title="TestHarness">
<polygon fill="white" stroke="black" points="16.5,-100.5 16.5,-119.5 89.5,-119.5 89.5,-100.5 16.5,-100.5"/>
<text text-anchor="middle" x="53" y="-107.5" font-family="Helvetica,sans-Serif" font-size="10.00">TestHarness</text>
</a>
</g>
</g>
<!-- Node2&#45;&gt;Node1 -->
<g id="edge1" class="edge"><title>Node2&#45;&gt;Node1</title>
<path fill="none" stroke="midnightblue" d="M65.0008,-91.9554C79.8744,-70.8305 104.642,-35.6533 115.989,-19.5374"/>
<polygon fill="midnightblue" stroke="midnightblue" points="62.0185,-90.1116 59.1233,-100.303 67.7422,-94.1415 62.0185,-90.1116"/>
</g>
<!-- Node3 -->
<g id="node3" class="node"><title>Node3</title>
<polygon fill="white" stroke="#bfbfbf" points="0,-168.5 0,-187.5 48,-187.5 48,-168.5 0,-168.5"/>
<text text-anchor="middle" x="24" y="-175.5" font-family="Helvetica,sans-Serif" font-size="10.00">__int64</text>
</g>
<!-- Node3&#45;&gt;Node2 -->
<g id="edge2" class="edge"><title>Node3&#45;&gt;Node2</title>
<path fill="none" stroke="#9a32cd" stroke-dasharray="5,2" d="M21.6218,-158.097C21.5231,-151.497 22.2733,-144.195 25,-138 28.21,-130.707 34.4097,-124.4 40.1611,-119.721"/>
<polygon fill="#9a32cd" stroke="#9a32cd" points="18.1435,-158.517 22.3902,-168.223 25.1234,-157.987 18.1435,-158.517"/>
<text text-anchor="middle" x="43" y="-141.5" font-family="Helvetica,sans-Serif" font-size="10.00"> m_rand</text>
</g>
<!-- Node4 -->
<g id="node4" class="node"><title>Node4</title>
<polygon fill="white" stroke="#bfbfbf" points="68.5,-168.5 68.5,-187.5 97.5,-187.5 97.5,-168.5 68.5,-168.5"/>
<text text-anchor="middle" x="83" y="-175.5" font-family="Helvetica,sans-Serif" font-size="10.00">int</text>
</g>
<!-- Node4&#45;&gt;Node2 -->
<g id="edge3" class="edge"><title>Node4&#45;&gt;Node2</title>
<path fill="none" stroke="#9a32cd" stroke-dasharray="5,2" d="M74.9027,-159.186C69.1147,-146.452 61.5731,-129.861 57.0187,-119.841"/>
<polygon fill="#9a32cd" stroke="#9a32cd" points="71.7537,-160.716 79.078,-168.372 78.1262,-157.82 71.7537,-160.716"/>
<text text-anchor="middle" x="85" y="-141.5" font-family="Helvetica,sans-Serif" font-size="10.00"> m_ok</text>
</g>
<!-- Node5 -->
<g id="node5" class="node"><title>Node5</title>
<polygon fill="white" stroke="#bfbfbf" points="107.5,-100.5 107.5,-119.5 184.5,-119.5 184.5,-100.5 107.5,-100.5"/>
<text text-anchor="middle" x="146" y="-107.5" font-family="Helvetica,sans-Serif" font-size="10.00">unsigned char</text>
</g>
<!-- Node5&#45;&gt;Node1 -->
<g id="edge4" class="edge"><title>Node5&#45;&gt;Node1</title>
<path fill="none" stroke="#9a32cd" stroke-dasharray="5,2" d="M141.473,-90.5136C136.268,-69.2626 127.949,-35.2919 124.091,-19.5374"/>
<polygon fill="#9a32cd" stroke="#9a32cd" points="138.092,-91.4227 143.87,-100.303 144.891,-89.7576 138.092,-91.4227"/>
<text text-anchor="middle" x="177" y="-74" font-family="Helvetica,sans-Serif" font-size="10.00"> pixel_out_c</text>
<text text-anchor="middle" x="177" y="-63" font-family="Helvetica,sans-Serif" font-size="10.00">pixel_out_33_c</text>
<text text-anchor="middle" x="177" y="-52" font-family="Helvetica,sans-Serif" font-size="10.00">pixel_out_vec</text>
<text text-anchor="middle" x="177" y="-41" font-family="Helvetica,sans-Serif" font-size="10.00">pixel_out_33_vec</text>
</g>
</g>
</svg>
