<?xml version="1.0" encoding="UTF-8" standalone="no"?>
<!DOCTYPE svg PUBLIC "-//W3C//DTD SVG 1.1//EN"
 "http://www.w3.org/Graphics/SVG/1.1/DTD/svg11.dtd">
<!-- Generated by graphviz version 2.36.0 (20140111.2315)
 -->
<!-- Title: x265::ShortYuv::copyPartToPartChroma Pages: 1 -->
<!--zoomable 420 -->
<svg id="main" version="1.1" xmlns="http://www.w3.org/2000/svg" xmlns:xlink="http://www.w3.org/1999/xlink" xml:space="preserve" onload="init(evt)">
<style type="text/css"><![CDATA[
.edge:hover path { stroke: red; }
.edge:hover polygon { stroke: red; fill: red; }
]]></style>
<script type="text/javascript"><![CDATA[
var edges = document.getElementsByTagName('g');
if (edges && edges.length) {
  for (var i=0;i<edges.length;i++) {
    if (edges[i].id.substr(0,4)=='edge') {
      edges[i].setAttribute('class','edge');
    }
  }
}
]]></script>
        <defs>
                <circle id="rim" cx="0" cy="0" r="7"/>
                <circle id="rim2" cx="0" cy="0" r="3.5"/>
                <g id="zoomPlus">
                        <use xlink:href="#rim" fill="#404040">
                                <set attributeName="fill" to="#808080" begin="zoomplus.mouseover" end="zoomplus.mouseout"/>
                        </use>
                        <path d="M-4,0h8M0,-4v8" fill="none" stroke="white" stroke-width="1.5" pointer-events="none"/>
                </g>
                <g id="zoomMin">
                        <use xlink:href="#rim" fill="#404040">
                                <set attributeName="fill" to="#808080" begin="zoomminus.mouseover" end="zoomminus.mouseout"/>
                        </use>
                        <path d="M-4,0h8" fill="none" stroke="white" stroke-width="1.5" pointer-events="none"/>
                </g>
                <g id="dirArrow">
                        <path fill="none" stroke="white" stroke-width="1.5" d="M0,-3.0v7 M-2.5,-0.5L0,-3.0L2.5,-0.5"/>
                </g>
               <g id="resetDef">
                       <use xlink:href="#rim2" fill="#404040">
                               <set attributeName="fill" to="#808080" begin="reset.mouseover" end="reset.mouseout"/>
                       </use>
               </g>
        </defs>

<script type="text/javascript">
var viewWidth = 1388;
var viewHeight = 420;
var sectionId = 'dynsection-2';
</script>
<script xlink:href="svgpan.js"/>
<svg id="graph" class="graph">
<g id="viewport">
<title>x265::ShortYuv::copyPartToPartChroma</title>
<polygon fill="white" stroke="none" points="-4,4 -4,-415.916 1384,-415.916 1384,4 -4,4"/>
<!-- Node1 -->
<g id="node1" class="node"><title>Node1</title>
<polygon fill="#bfbfbf" stroke="black" points="0.5,-208.401 0.5,-238.401 129.5,-238.401 129.5,-208.401 0.5,-208.401"/>
<text text-anchor="start" x="8.5" y="-226.401" font-family="Helvetica,sans-Serif" font-size="10.00">x265::ShortYuv::copyPart</text>
<text text-anchor="middle" x="65" y="-215.401" font-family="Helvetica,sans-Serif" font-size="10.00">ToPartChroma</text>
</g>
<!-- Node2 -->
<g id="node2" class="node"><title>Node2</title>
<g id="a_node2"><a xlink:href="classx265_1_1Search.html#a8ad95e68a9288c105ac14a9b65a87e7d" target="_top" xlink:title="x265::Search::xSetIntraResult\lChromaQT">
<polygon fill="white" stroke="black" points="166.5,-233.401 166.5,-263.401 315.5,-263.401 315.5,-233.401 166.5,-233.401"/>
<text text-anchor="start" x="174.5" y="-251.401" font-family="Helvetica,sans-Serif" font-size="10.00">x265::Search::xSetIntraResult</text>
<text text-anchor="middle" x="241" y="-240.401" font-family="Helvetica,sans-Serif" font-size="10.00">ChromaQT</text>
</a>
</g>
</g>
<!-- Node1&#45;&gt;Node2 -->
<g id="edge1" class="edge"><title>Node1&#45;&gt;Node2</title>
<path fill="none" stroke="midnightblue" d="M139.71,-233.992C148.573,-235.265 157.625,-236.566 166.486,-237.839"/>
<polygon fill="midnightblue" stroke="midnightblue" points="140.199,-230.526 129.803,-232.569 139.204,-237.455 140.199,-230.526"/>
</g>
<!-- Node14 -->
<g id="node14" class="node"><title>Node14</title>
<g id="a_node14"><a xlink:href="classx265_1_1Search.html#af3b0a03cdb0c02601c17c5758e916725" target="_top" xlink:title="x265::Search::saveResidual\lQTData">
<polygon fill="white" stroke="black" points="171,-184.401 171,-214.401 311,-214.401 311,-184.401 171,-184.401"/>
<text text-anchor="start" x="179" y="-202.401" font-family="Helvetica,sans-Serif" font-size="10.00">x265::Search::saveResidual</text>
<text text-anchor="middle" x="241" y="-191.401" font-family="Helvetica,sans-Serif" font-size="10.00">QTData</text>
</a>
</g>
</g>
<!-- Node1&#45;&gt;Node14 -->
<g id="edge21" class="edge"><title>Node1&#45;&gt;Node14</title>
<path fill="none" stroke="midnightblue" d="M139.968,-213.199C150.237,-211.783 160.755,-210.332 170.93,-208.928"/>
<polygon fill="midnightblue" stroke="midnightblue" points="139.231,-209.767 129.803,-214.601 140.188,-216.702 139.231,-209.767"/>
</g>
<!-- Node3 -->
<g id="node3" class="node"><title>Node3</title>
<g id="a_node3"><a xlink:href="classx265_1_1Search.html#a70d466b561a7463b8ec5a213384ae667" target="_top" xlink:title="x265::Search::estIntraPred\lChromaQT">
<polygon fill="white" stroke="black" points="352,-233.401 352,-263.401 486,-263.401 486,-233.401 352,-233.401"/>
<text text-anchor="start" x="360" y="-251.401" font-family="Helvetica,sans-Serif" font-size="10.00">x265::Search::estIntraPred</text>
<text text-anchor="middle" x="419" y="-240.401" font-family="Helvetica,sans-Serif" font-size="10.00">ChromaQT</text>
</a>
</g>
</g>
<!-- Node2&#45;&gt;Node3 -->
<g id="edge2" class="edge"><title>Node2&#45;&gt;Node3</title>
<path fill="none" stroke="midnightblue" d="M325.86,-248.401C334.623,-248.401 343.44,-248.401 351.963,-248.401"/>
<polygon fill="midnightblue" stroke="midnightblue" points="325.62,-244.902 315.62,-248.401 325.62,-251.902 325.62,-244.902"/>
</g>
<!-- Node4 -->
<g id="node4" class="node"><title>Node4</title>
<g id="a_node4"><a xlink:href="classx265_1_1Analysis.html#ae4d61bcf4d2c22a054d68d6d77136428" target="_top" xlink:title="x265::Analysis::encodeIntra\lInInter">
<polygon fill="white" stroke="black" points="522,-296.401 522,-326.401 660,-326.401 660,-296.401 522,-296.401"/>
<text text-anchor="start" x="530" y="-314.401" font-family="Helvetica,sans-Serif" font-size="10.00">x265::Analysis::encodeIntra</text>
<text text-anchor="middle" x="591" y="-303.401" font-family="Helvetica,sans-Serif" font-size="10.00">InInter</text>
</a>
</g>
</g>
<!-- Node3&#45;&gt;Node4 -->
<g id="edge3" class="edge"><title>Node3&#45;&gt;Node4</title>
<path fill="none" stroke="midnightblue" d="M470.123,-266.976C495.355,-276.327 525.547,-287.516 549.319,-296.325"/>
<polygon fill="midnightblue" stroke="midnightblue" points="471.312,-263.685 460.719,-263.492 468.88,-270.248 471.312,-263.685"/>
</g>
<!-- Node10 -->
<g id="node10" class="node"><title>Node10</title>
<g id="a_node10"><a xlink:href="classx265_1_1Search.html#ab02df91827cf67796d1605bde60c6aed" target="_top" xlink:title="x265::Search::checkIntra">
<polygon fill="white" stroke="black" points="707,-139.901 707,-158.901 833,-158.901 833,-139.901 707,-139.901"/>
<text text-anchor="middle" x="770" y="-146.901" font-family="Helvetica,sans-Serif" font-size="10.00">x265::Search::checkIntra</text>
</a>
</g>
</g>
<!-- Node3&#45;&gt;Node10 -->
<g id="edge11" class="edge"><title>Node3&#45;&gt;Node10</title>
<path fill="none" stroke="midnightblue" d="M482.67,-230.624C556.57,-209.661 676.708,-175.582 735.053,-159.031"/>
<polygon fill="midnightblue" stroke="midnightblue" points="481.671,-227.269 473.006,-233.365 483.581,-234.004 481.671,-227.269"/>
</g>
<!-- Node5 -->
<g id="node5" class="node"><title>Node5</title>
<g id="a_node5"><a xlink:href="classx265_1_1Analysis.html#aa6122285d10bb1bd7584958b88b029d5" target="_top" xlink:title="x265::Analysis::parallel\lModeAnalysis">
<polygon fill="white" stroke="black" points="711,-317.401 711,-347.401 829,-347.401 829,-317.401 711,-317.401"/>
<text text-anchor="start" x="719" y="-335.401" font-family="Helvetica,sans-Serif" font-size="10.00">x265::Analysis::parallel</text>
<text text-anchor="middle" x="770" y="-324.401" font-family="Helvetica,sans-Serif" font-size="10.00">ModeAnalysis</text>
</a>
</g>
</g>
<!-- Node4&#45;&gt;Node5 -->
<g id="edge4" class="edge"><title>Node4&#45;&gt;Node5</title>
<path fill="none" stroke="midnightblue" d="M670.492,-320.714C684.088,-322.327 698.002,-323.978 710.931,-325.512"/>
<polygon fill="midnightblue" stroke="midnightblue" points="670.522,-317.193 660.18,-319.491 669.698,-324.144 670.522,-317.193"/>
</g>
<!-- Node7 -->
<g id="node7" class="node"><title>Node7</title>
<g id="a_node7"><a xlink:href="classx265_1_1Analysis.html#a87060ff27a37f56adc5f5b8a4c033ece" target="_top" xlink:title="x265::Analysis::compress\lInterCU_dist">
<polygon fill="white" stroke="black" points="1062,-301.401 1062,-331.401 1192,-331.401 1192,-301.401 1062,-301.401"/>
<text text-anchor="start" x="1070" y="-319.401" font-family="Helvetica,sans-Serif" font-size="10.00">x265::Analysis::compress</text>
<text text-anchor="middle" x="1127" y="-308.401" font-family="Helvetica,sans-Serif" font-size="10.00">InterCU_dist</text>
</a>
</g>
</g>
<!-- Node4&#45;&gt;Node7 -->
<g id="edge8" class="edge"><title>Node4&#45;&gt;Node7</title>
<path fill="none" stroke="midnightblue" d="M628.799,-331.149C704.786,-369.211 883.825,-444.785 1026,-395.401 1062.37,-382.77 1095.49,-350.813 1112.99,-331.637"/>
<polygon fill="midnightblue" stroke="midnightblue" points="630.126,-327.898 619.626,-326.484 626.953,-334.137 630.126,-327.898"/>
</g>
<!-- Node9 -->
<g id="node9" class="node"><title>Node9</title>
<g id="a_node9"><a xlink:href="classx265_1_1Analysis.html#a30d2ff7eca5addbb0a6b3dfe14f09650" target="_top" xlink:title="x265::Analysis::compress\lInterCU_rd0_4">
<polygon fill="white" stroke="black" points="1062,-202.401 1062,-232.401 1192,-232.401 1192,-202.401 1062,-202.401"/>
<text text-anchor="start" x="1070" y="-220.401" font-family="Helvetica,sans-Serif" font-size="10.00">x265::Analysis::compress</text>
<text text-anchor="middle" x="1127" y="-209.401" font-family="Helvetica,sans-Serif" font-size="10.00">InterCU_rd0_4</text>
</a>
</g>
</g>
<!-- Node4&#45;&gt;Node9 -->
<g id="edge9" class="edge"><title>Node4&#45;&gt;Node9</title>
<path fill="none" stroke="midnightblue" d="M670.18,-297.64C776.258,-278.967 963.785,-245.956 1061.98,-228.671"/>
<polygon fill="midnightblue" stroke="midnightblue" points="669.416,-294.22 660.174,-299.401 670.629,-301.114 669.416,-294.22"/>
</g>
<!-- Node6 -->
<g id="node6" class="node"><title>Node6</title>
<g id="a_node6"><a xlink:href="classx265_1_1Analysis.html#a29a58dad4cc1c07d2f5e5717c6be7c25" target="_top" xlink:title="x265::Analysis::findJob">
<polygon fill="white" stroke="black" points="893.5,-366.901 893.5,-385.901 1012.5,-385.901 1012.5,-366.901 893.5,-366.901"/>
<text text-anchor="middle" x="953" y="-373.901" font-family="Helvetica,sans-Serif" font-size="10.00">x265::Analysis::findJob</text>
</a>
</g>
</g>
<!-- Node5&#45;&gt;Node6 -->
<g id="edge5" class="edge"><title>Node5&#45;&gt;Node6</title>
<path fill="none" stroke="midnightblue" d="M839.024,-348.938C863.895,-354.984 891.185,-361.618 912.712,-366.851"/>
<polygon fill="midnightblue" stroke="midnightblue" points="839.81,-345.527 829.266,-346.566 838.156,-352.329 839.81,-345.527"/>
</g>
<!-- Node6&#45;&gt;Node7 -->
<g id="edge6" class="edge"><title>Node6&#45;&gt;Node7</title>
<path fill="none" stroke="midnightblue" d="M992.726,-363.681C1003.52,-360.086 1015.23,-356.135 1026,-352.401 1045.35,-345.694 1066.72,-338.035 1084.72,-331.511"/>
<polygon fill="midnightblue" stroke="midnightblue" points="991.518,-360.394 983.13,-366.866 993.724,-367.037 991.518,-360.394"/>
</g>
<!-- Node8 -->
<g id="node8" class="node"><title>Node8</title>
<g id="a_node8"><a xlink:href="classx265_1_1Analysis.html#aaebc9de2ff98834c650244f3b58942c2" target="_top" xlink:title="x265::Analysis::compressCTU">
<polygon fill="white" stroke="red" points="1228.5,-182.901 1228.5,-201.901 1379.5,-201.901 1379.5,-182.901 1228.5,-182.901"/>
<text text-anchor="middle" x="1304" y="-189.901" font-family="Helvetica,sans-Serif" font-size="10.00">x265::Analysis::compressCTU</text>
</a>
</g>
</g>
<!-- Node7&#45;&gt;Node8 -->
<g id="edge7" class="edge"><title>Node7&#45;&gt;Node8</title>
<path fill="none" stroke="midnightblue" d="M1157.68,-295.374C1196.04,-268.187 1261.27,-221.968 1289.41,-202.028"/>
<polygon fill="midnightblue" stroke="midnightblue" points="1155.59,-292.559 1149.46,-301.197 1159.64,-298.271 1155.59,-292.559"/>
</g>
<!-- Node9&#45;&gt;Node8 -->
<g id="edge10" class="edge"><title>Node9&#45;&gt;Node8</title>
<path fill="none" stroke="midnightblue" d="M1202.1,-206.815C1213.52,-205.184 1225.25,-203.509 1236.49,-201.903"/>
<polygon fill="midnightblue" stroke="midnightblue" points="1201.57,-203.355 1192.17,-208.234 1202.56,-210.285 1201.57,-203.355"/>
</g>
<!-- Node11 -->
<g id="node11" class="node"><title>Node11</title>
<g id="a_node11"><a xlink:href="classx265_1_1Analysis.html#a10f0a8d9d143faf8dc671c6f0982693d" target="_top" xlink:title="x265::Analysis::tryLossless">
<polygon fill="white" stroke="black" points="884.5,-164.901 884.5,-183.901 1021.5,-183.901 1021.5,-164.901 884.5,-164.901"/>
<text text-anchor="middle" x="953" y="-171.901" font-family="Helvetica,sans-Serif" font-size="10.00">x265::Analysis::tryLossless</text>
</a>
</g>
</g>
<!-- Node10&#45;&gt;Node11 -->
<g id="edge12" class="edge"><title>Node10&#45;&gt;Node11</title>
<path fill="none" stroke="midnightblue" d="M843.293,-159.387C856.879,-161.263 871.037,-163.219 884.471,-165.074"/>
<polygon fill="midnightblue" stroke="midnightblue" points="843.422,-155.871 833.037,-157.97 842.464,-162.805 843.422,-155.871"/>
</g>
<!-- Node12 -->
<g id="node12" class="node"><title>Node12</title>
<g id="a_node12"><a xlink:href="classx265_1_1Analysis.html#aae2a6a2252270782b591d2bed7e99dae" target="_top" xlink:title="x265::Analysis::compress\lIntraCU">
<polygon fill="white" stroke="black" points="1062,-153.401 1062,-183.401 1192,-183.401 1192,-153.401 1062,-153.401"/>
<text text-anchor="start" x="1070" y="-171.401" font-family="Helvetica,sans-Serif" font-size="10.00">x265::Analysis::compress</text>
<text text-anchor="middle" x="1127" y="-160.401" font-family="Helvetica,sans-Serif" font-size="10.00">IntraCU</text>
</a>
</g>
</g>
<!-- Node10&#45;&gt;Node12 -->
<g id="edge19" class="edge"><title>Node10&#45;&gt;Node12</title>
<path fill="none" stroke="midnightblue" d="M843.467,-149.071C894.559,-149.335 964.554,-150.698 1026,-155.401 1037.61,-156.29 1049.93,-157.594 1061.82,-159.038"/>
<polygon fill="midnightblue" stroke="midnightblue" points="843.199,-145.57 833.185,-149.031 843.172,-152.57 843.199,-145.57"/>
</g>
<!-- Node13 -->
<g id="node13" class="node"><title>Node13</title>
<g id="a_node13"><a xlink:href="classx265_1_1Analysis.html#a0b22b7765aa4a36b1ba6d07ba26901e6" target="_top" xlink:title="x265::Analysis::compress\lInterCU_rd5_6">
<polygon fill="white" stroke="black" points="1062,-77.4015 1062,-107.401 1192,-107.401 1192,-77.4015 1062,-77.4015"/>
<text text-anchor="start" x="1070" y="-95.4015" font-family="Helvetica,sans-Serif" font-size="10.00">x265::Analysis::compress</text>
<text text-anchor="middle" x="1127" y="-84.4015" font-family="Helvetica,sans-Serif" font-size="10.00">InterCU_rd5_6</text>
</a>
</g>
</g>
<!-- Node10&#45;&gt;Node13 -->
<g id="edge20" class="edge"><title>Node10&#45;&gt;Node13</title>
<path fill="none" stroke="midnightblue" d="M779.822,-130.602C795.22,-100.316 830.18,-41.7587 880,-18.4015 938.752,9.14358 964.375,1.92016 1026,-18.4015 1061.07,-29.9677 1093.91,-59.0996 1111.85,-77.17"/>
<polygon fill="midnightblue" stroke="midnightblue" points="776.622,-129.179 775.357,-139.698 782.905,-132.264 776.622,-129.179"/>
</g>
<!-- Node11&#45;&gt;Node7 -->
<g id="edge15" class="edge"><title>Node11&#45;&gt;Node7</title>
<path fill="none" stroke="midnightblue" d="M973.684,-190.652C1007.27,-218.379 1075.16,-274.428 1107.74,-301.328"/>
<polygon fill="midnightblue" stroke="midnightblue" points="975.492,-187.606 965.552,-183.939 971.036,-193.005 975.492,-187.606"/>
</g>
<!-- Node11&#45;&gt;Node9 -->
<g id="edge16" class="edge"><title>Node11&#45;&gt;Node9</title>
<path fill="none" stroke="midnightblue" d="M1001.92,-186.38C1021.77,-191.343 1045.01,-197.153 1065.97,-202.395"/>
<polygon fill="midnightblue" stroke="midnightblue" points="1002.72,-182.974 992.172,-183.945 1001.02,-189.765 1002.72,-182.974"/>
</g>
<!-- Node11&#45;&gt;Node12 -->
<g id="edge13" class="edge"><title>Node11&#45;&gt;Node12</title>
<path fill="none" stroke="midnightblue" d="M1032.24,-171.672C1042.16,-171.326 1052.22,-170.975 1061.88,-170.638"/>
<polygon fill="midnightblue" stroke="midnightblue" points="1031.85,-168.184 1021.98,-172.03 1032.09,-175.179 1031.85,-168.184"/>
</g>
<!-- Node11&#45;&gt;Node13 -->
<g id="edge17" class="edge"><title>Node11&#45;&gt;Node13</title>
<path fill="none" stroke="midnightblue" d="M983.44,-160.366C1014.34,-145.637 1062.73,-122.565 1094.41,-107.462"/>
<polygon fill="midnightblue" stroke="midnightblue" points="981.588,-157.372 974.067,-164.835 984.6,-163.69 981.588,-157.372"/>
</g>
<!-- Node12&#45;&gt;Node8 -->
<g id="edge14" class="edge"><title>Node12&#45;&gt;Node8</title>
<path fill="none" stroke="midnightblue" d="M1202.39,-178.604C1212.72,-180.02 1223.3,-181.471 1233.53,-182.875"/>
<polygon fill="midnightblue" stroke="midnightblue" points="1202.55,-175.093 1192.17,-177.202 1201.6,-182.028 1202.55,-175.093"/>
</g>
<!-- Node13&#45;&gt;Node8 -->
<g id="edge18" class="edge"><title>Node13&#45;&gt;Node8</title>
<path fill="none" stroke="midnightblue" d="M1163.62,-112.758C1201,-134.113 1258.13,-166.76 1286.22,-182.812"/>
<polygon fill="midnightblue" stroke="midnightblue" points="1165,-109.512 1154.58,-107.589 1161.52,-115.59 1165,-109.512"/>
</g>
<!-- Node15 -->
<g id="node15" class="node"><title>Node15</title>
<g id="a_node15"><a xlink:href="classx265_1_1Search.html#aba5e04ce529f41accd43c540ba1dc7ad" target="_top" xlink:title="x265::Search::encodeResAnd\lCalcRdInterCU">
<polygon fill="white" stroke="black" points="696.5,-184.401 696.5,-214.401 843.5,-214.401 843.5,-184.401 696.5,-184.401"/>
<text text-anchor="start" x="704.5" y="-202.401" font-family="Helvetica,sans-Serif" font-size="10.00">x265::Search::encodeResAnd</text>
<text text-anchor="middle" x="770" y="-191.401" font-family="Helvetica,sans-Serif" font-size="10.00">CalcRdInterCU</text>
</a>
</g>
</g>
<!-- Node14&#45;&gt;Node15 -->
<g id="edge22" class="edge"><title>Node14&#45;&gt;Node15</title>
<path fill="none" stroke="midnightblue" d="M321.382,-199.401C423.103,-199.401 598.008,-199.401 696.364,-199.401"/>
<polygon fill="midnightblue" stroke="midnightblue" points="321.167,-195.902 311.167,-199.401 321.167,-202.902 321.167,-195.902"/>
</g>
<!-- Node15&#45;&gt;Node7 -->
<g id="edge24" class="edge"><title>Node15&#45;&gt;Node7</title>
<path fill="none" stroke="midnightblue" d="M784.43,-223.439C802.071,-252.247 836.037,-299.052 880,-318.401 937.659,-343.779 1010.54,-339.249 1061.96,-330.85"/>
<polygon fill="midnightblue" stroke="midnightblue" points="787.4,-221.586 779.284,-214.776 781.382,-225.161 787.4,-221.586"/>
</g>
<!-- Node15&#45;&gt;Node9 -->
<g id="edge25" class="edge"><title>Node15&#45;&gt;Node9</title>
<path fill="none" stroke="midnightblue" d="M854.065,-203.613C917.468,-206.828 1003.55,-211.193 1061.74,-214.143"/>
<polygon fill="midnightblue" stroke="midnightblue" points="853.861,-200.098 843.696,-203.087 853.506,-207.089 853.861,-200.098"/>
</g>
<!-- Node15&#45;&gt;Node11 -->
<g id="edge23" class="edge"><title>Node15&#45;&gt;Node11</title>
<path fill="none" stroke="midnightblue" d="M853.766,-187.97C864.02,-186.553 874.407,-185.119 884.395,-183.739"/>
<polygon fill="midnightblue" stroke="midnightblue" points="853.004,-184.542 843.577,-189.377 853.962,-191.476 853.004,-184.542"/>
</g>
<!-- Node16 -->
<g id="node16" class="node"><title>Node16</title>
<g id="a_node16"><a xlink:href="classx265_1_1Analysis.html#addd72cb95590e2b2a6965d42d110eab3" target="_top" xlink:title="x265::Analysis::checkMerge2\lNx2N_rd0_4">
<polygon fill="white" stroke="black" points="880,-279.401 880,-309.401 1026,-309.401 1026,-279.401 880,-279.401"/>
<text text-anchor="start" x="888" y="-297.401" font-family="Helvetica,sans-Serif" font-size="10.00">x265::Analysis::checkMerge2</text>
<text text-anchor="middle" x="953" y="-286.401" font-family="Helvetica,sans-Serif" font-size="10.00">Nx2N_rd0_4</text>
</a>
</g>
</g>
<!-- Node15&#45;&gt;Node16 -->
<g id="edge26" class="edge"><title>Node15&#45;&gt;Node16</title>
<path fill="none" stroke="midnightblue" d="M808.852,-219.269C842.904,-237.141 892.202,-263.016 923.155,-279.262"/>
<polygon fill="midnightblue" stroke="midnightblue" points="810.161,-216.003 799.68,-214.454 806.908,-222.201 810.161,-216.003"/>
</g>
<!-- Node17 -->
<g id="node17" class="node"><title>Node17</title>
<g id="a_node17"><a xlink:href="classx265_1_1Analysis.html#a0194a9da53aa95173fa1132ba3aea1c7" target="_top" xlink:title="x265::Analysis::checkMerge2\lNx2N_rd5_6">
<polygon fill="white" stroke="black" points="880,-77.4015 880,-107.401 1026,-107.401 1026,-77.4015 880,-77.4015"/>
<text text-anchor="start" x="888" y="-95.4015" font-family="Helvetica,sans-Serif" font-size="10.00">x265::Analysis::checkMerge2</text>
<text text-anchor="middle" x="953" y="-84.4015" font-family="Helvetica,sans-Serif" font-size="10.00">Nx2N_rd5_6</text>
</a>
</g>
</g>
<!-- Node15&#45;&gt;Node17 -->
<g id="edge29" class="edge"><title>Node15&#45;&gt;Node17</title>
<path fill="none" stroke="midnightblue" d="M820.167,-180.215C828.27,-176.574 836.475,-172.585 844,-168.401 877.064,-150.02 912.372,-123.761 933.296,-107.416"/>
<polygon fill="midnightblue" stroke="midnightblue" points="818.518,-177.116 810.749,-184.319 821.315,-183.533 818.518,-177.116"/>
</g>
<!-- Node18 -->
<g id="node18" class="node"><title>Node18</title>
<g id="a_node18"><a xlink:href="classx265_1_1Analysis.html#a828daa3e9f1ed40a1af9f99f7ff7bb33" target="_top" xlink:title="x265::Analysis::checkInter\l_rd5_6">
<polygon fill="white" stroke="black" points="886.5,-28.4015 886.5,-58.4015 1019.5,-58.4015 1019.5,-28.4015 886.5,-28.4015"/>
<text text-anchor="start" x="894.5" y="-46.4015" font-family="Helvetica,sans-Serif" font-size="10.00">x265::Analysis::checkInter</text>
<text text-anchor="middle" x="953" y="-35.4015" font-family="Helvetica,sans-Serif" font-size="10.00">_rd5_6</text>
</a>
</g>
</g>
<!-- Node15&#45;&gt;Node18 -->
<g id="edge31" class="edge"><title>Node15&#45;&gt;Node18</title>
<path fill="none" stroke="midnightblue" d="M830.922,-179.139C835.706,-176.031 840.163,-172.472 844,-168.401 876.685,-133.722 845.957,-100.749 880,-67.4015 883.483,-63.99 887.463,-61.0633 891.723,-58.5525"/>
<polygon fill="midnightblue" stroke="midnightblue" points="828.944,-176.239 822.02,-184.259 832.434,-182.307 828.944,-176.239"/>
</g>
<!-- Node16&#45;&gt;Node7 -->
<g id="edge27" class="edge"><title>Node16&#45;&gt;Node7</title>
<path fill="none" stroke="midnightblue" d="M1036.42,-304.944C1044.96,-306.036 1053.54,-307.133 1061.83,-308.194"/>
<polygon fill="midnightblue" stroke="midnightblue" points="1036.81,-301.465 1026.44,-303.668 1035.92,-308.408 1036.81,-301.465"/>
</g>
<!-- Node16&#45;&gt;Node9 -->
<g id="edge28" class="edge"><title>Node16&#45;&gt;Node9</title>
<path fill="none" stroke="midnightblue" d="M1000.56,-275.357C1009.05,-271.783 1017.81,-268.028 1026,-264.401 1049.15,-254.144 1075.01,-241.969 1094.64,-232.58"/>
<polygon fill="midnightblue" stroke="midnightblue" points="999.009,-272.213 991.134,-279.3 1001.71,-278.671 999.009,-272.213"/>
</g>
<!-- Node17&#45;&gt;Node13 -->
<g id="edge30" class="edge"><title>Node17&#45;&gt;Node13</title>
<path fill="none" stroke="midnightblue" d="M1036.7,-92.4015C1045.14,-92.4015 1053.63,-92.4015 1061.83,-92.4015"/>
<polygon fill="midnightblue" stroke="midnightblue" points="1036.45,-88.9016 1026.44,-92.4015 1036.44,-95.9016 1036.45,-88.9016"/>
</g>
<!-- Node18&#45;&gt;Node13 -->
<g id="edge32" class="edge"><title>Node18&#45;&gt;Node13</title>
<path fill="none" stroke="midnightblue" d="M1016.81,-61.2955C1035.31,-66.5659 1055.36,-72.277 1073.17,-77.3499"/>
<polygon fill="midnightblue" stroke="midnightblue" points="1017.59,-57.8767 1007.01,-58.5029 1015.67,-64.6089 1017.59,-57.8767"/>
</g>
</g>
</svg>
        <g id="navigator" transform="translate(0 0)" fill="#404254">
                <rect fill="#f2f5e9" fill-opacity="0.5" stroke="#606060" stroke-width=".5" x="0" y="0" width="60" height="60"/>
                <use id="zoomplus" xlink:href="#zoomPlus" x="17" y="9" onmousedown="handleZoom(evt,'in')"/>
                <use id="zoomminus" xlink:href="#zoomMin" x="42" y="9" onmousedown="handleZoom(evt,'out')"/>
                <use id="reset" xlink:href="#resetDef" x="30" y="36" onmousedown="handleReset()"/>
                <g id="arrowUp" xlink:href="#dirArrow" transform="translate(30 24)" onmousedown="handlePan(0,-1)">
                  <use xlink:href="#rim" fill="#404040">
                        <set attributeName="fill" to="#808080" begin="arrowUp.mouseover" end="arrowUp.mouseout"/>
                  </use>
                  <path fill="none" stroke="white" stroke-width="1.5" d="M0,-3.0v7 M-2.5,-0.5L0,-3.0L2.5,-0.5"/>
                </g>
                <g id="arrowRight" xlink:href="#dirArrow" transform="rotate(90) translate(36 -43)" onmousedown="handlePan(1,0)">
                  <use xlink:href="#rim" fill="#404040">
                        <set attributeName="fill" to="#808080" begin="arrowRight.mouseover" end="arrowRight.mouseout"/>
                  </use>
                  <path fill="none" stroke="white" stroke-width="1.5" d="M0,-3.0v7 M-2.5,-0.5L0,-3.0L2.5,-0.5"/>
                </g>
                <g id="arrowDown" xlink:href="#dirArrow" transform="rotate(180) translate(-30 -48)" onmousedown="handlePan(0,1)">
                  <use xlink:href="#rim" fill="#404040">
                        <set attributeName="fill" to="#808080" begin="arrowDown.mouseover" end="arrowDown.mouseout"/>
                  </use>
                  <path fill="none" stroke="white" stroke-width="1.5" d="M0,-3.0v7 M-2.5,-0.5L0,-3.0L2.5,-0.5"/>
                </g>
                <g id="arrowLeft" xlink:href="#dirArrow" transform="rotate(270) translate(-36 17)" onmousedown="handlePan(-1,0)">
                  <use xlink:href="#rim" fill="#404040">
                        <set attributeName="fill" to="#808080" begin="arrowLeft.mouseover" end="arrowLeft.mouseout"/>
                  </use>
                  <path fill="none" stroke="white" stroke-width="1.5" d="M0,-3.0v7 M-2.5,-0.5L0,-3.0L2.5,-0.5"/>
                </g>
        </g>
        <svg viewBox="0 0 15 15" width="100%" height="30px" preserveAspectRatio="xMaxYMin meet">
         <g id="arrow_out" transform="scale(0.3 0.3)">
          <a xlink:href="classx265_1_1ShortYuv_a720f8df8b449cd8cacd245781db504bb_icgraph_org.svg" target="_base">
           <rect id="button" ry="5" rx="5" y="6" x="6" height="38" width="38"
                fill="#f2f5e9" fill-opacity="0.5" stroke="#606060" stroke-width="1.0"/>
           <path id="arrow"
             d="M 11.500037,31.436501 C 11.940474,20.09759 22.043105,11.32322 32.158766,21.979434 L 37.068811,17.246167 C 37.068811,17.246167 37.088388,32 37.088388,32 L 22.160133,31.978069 C 22.160133,31.978069 26.997745,27.140456 26.997745,27.140456 C 18.528582,18.264221 13.291696,25.230495 11.500037,31.436501 z"
             style="fill:#404040;"/>
          </a>
         </g>
        </svg>
</svg>
