<?xml version="1.0" encoding="UTF-8" standalone="no"?>
<!DOCTYPE svg PUBLIC "-//W3C//DTD SVG 1.1//EN"
 "http://www.w3.org/Graphics/SVG/1.1/DTD/svg11.dtd">
<!-- Generated by graphviz version 2.36.0 (20140111.2315)
 -->
<!-- Title: x265::Search::setSearchRange Pages: 1 -->
<!--zoomable 154 -->
<svg id="main" version="1.1" xmlns="http://www.w3.org/2000/svg" xmlns:xlink="http://www.w3.org/1999/xlink" xml:space="preserve" onload="init(evt)">
<style type="text/css"><![CDATA[
.edge:hover path { stroke: red; }
.edge:hover polygon { stroke: red; fill: red; }
]]></style>
<script type="text/javascript"><![CDATA[
var edges = document.getElementsByTagName('g');
if (edges && edges.length) {
  for (var i=0;i<edges.length;i++) {
    if (edges[i].id.substr(0,4)=='edge') {
      edges[i].setAttribute('class','edge');
    }
  }
}
]]></script>
        <defs>
                <circle id="rim" cx="0" cy="0" r="7"/>
                <circle id="rim2" cx="0" cy="0" r="3.5"/>
                <g id="zoomPlus">
                        <use xlink:href="#rim" fill="#404040">
                                <set attributeName="fill" to="#808080" begin="zoomplus.mouseover" end="zoomplus.mouseout"/>
                        </use>
                        <path d="M-4,0h8M0,-4v8" fill="none" stroke="white" stroke-width="1.5" pointer-events="none"/>
                </g>
                <g id="zoomMin">
                        <use xlink:href="#rim" fill="#404040">
                                <set attributeName="fill" to="#808080" begin="zoomminus.mouseover" end="zoomminus.mouseout"/>
                        </use>
                        <path d="M-4,0h8" fill="none" stroke="white" stroke-width="1.5" pointer-events="none"/>
                </g>
                <g id="dirArrow">
                        <path fill="none" stroke="white" stroke-width="1.5" d="M0,-3.0v7 M-2.5,-0.5L0,-3.0L2.5,-0.5"/>
                </g>
               <g id="resetDef">
                       <use xlink:href="#rim2" fill="#404040">
                               <set attributeName="fill" to="#808080" begin="reset.mouseover" end="reset.mouseout"/>
                       </use>
               </g>
        </defs>

<script type="text/javascript">
var viewWidth = 1364;
var viewHeight = 154;
var sectionId = 'dynsection-50';
</script>
<script xlink:href="svgpan.js"/>
<svg id="graph" class="graph">
<g id="viewport">
<title>x265::Search::setSearchRange</title>
<polygon fill="white" stroke="none" points="-4,4 -4,-150 1360,-150 1360,4 -4,4"/>
<!-- Node1 -->
<g id="node1" class="node"><title>Node1</title>
<polygon fill="#bfbfbf" stroke="black" points="0.5,-88.5 0.5,-107.5 153.5,-107.5 153.5,-88.5 0.5,-88.5"/>
<text text-anchor="middle" x="77" y="-95.5" font-family="Helvetica,sans-Serif" font-size="10.00">x265::Search::setSearchRange</text>
</g>
<!-- Node2 -->
<g id="node2" class="node"><title>Node2</title>
<g id="a_node2"><a xlink:href="classx265_1_1Search.html#a47294b1b3d67ab31cb6be412407982d5" target="_top" xlink:title="x265::Search::singleMotion\lEstimation">
<polygon fill="white" stroke="black" points="190.5,-105 190.5,-135 325.5,-135 325.5,-105 190.5,-105"/>
<text text-anchor="start" x="198.5" y="-123" font-family="Helvetica,sans-Serif" font-size="10.00">x265::Search::singleMotion</text>
<text text-anchor="middle" x="258" y="-112" font-family="Helvetica,sans-Serif" font-size="10.00">Estimation</text>
</a>
</g>
</g>
<!-- Node1&#45;&gt;Node2 -->
<g id="edge1" class="edge"><title>Node1&#45;&gt;Node2</title>
<path fill="none" stroke="midnightblue" d="M163.731,-108.537C172.694,-109.638 181.707,-110.746 190.411,-111.816"/>
<polygon fill="midnightblue" stroke="midnightblue" points="164.005,-105.044 153.653,-107.298 163.151,-111.992 164.005,-105.044"/>
</g>
<!-- Node7 -->
<g id="node7" class="node"><title>Node7</title>
<g id="a_node7"><a xlink:href="classx265_1_1Search.html#a48101e3d900e93b97a83f461be390bd1" target="_top" xlink:title="x265::Search::predInterSearch">
<polygon fill="white" stroke="black" points="362.5,-66.5 362.5,-85.5 511.5,-85.5 511.5,-66.5 362.5,-66.5"/>
<text text-anchor="middle" x="437" y="-73.5" font-family="Helvetica,sans-Serif" font-size="10.00">x265::Search::predInterSearch</text>
</a>
</g>
</g>
<!-- Node1&#45;&gt;Node7 -->
<g id="edge15" class="edge"><title>Node1&#45;&gt;Node7</title>
<path fill="none" stroke="midnightblue" d="M164.22,-92.7015C224.734,-88.9828 304.799,-84.0627 362.331,-80.5272"/>
<polygon fill="midnightblue" stroke="midnightblue" points="163.689,-89.2275 153.923,-93.3344 164.118,-96.2143 163.689,-89.2275"/>
</g>
<!-- Node3 -->
<g id="node3" class="node"><title>Node3</title>
<g id="a_node3"><a xlink:href="classx265_1_1Analysis.html#abd49473ae6e5e1f7e555b447b04398e6" target="_top" xlink:title="x265::Analysis::parallelME">
<polygon fill="white" stroke="black" points="370.5,-126.5 370.5,-145.5 503.5,-145.5 503.5,-126.5 370.5,-126.5"/>
<text text-anchor="middle" x="437" y="-133.5" font-family="Helvetica,sans-Serif" font-size="10.00">x265::Analysis::parallelME</text>
</a>
</g>
</g>
<!-- Node2&#45;&gt;Node3 -->
<g id="edge2" class="edge"><title>Node2&#45;&gt;Node3</title>
<path fill="none" stroke="midnightblue" d="M335.698,-126.933C347.22,-127.975 359.012,-129.041 370.277,-130.059"/>
<polygon fill="midnightblue" stroke="midnightblue" points="335.938,-123.441 325.664,-126.026 335.308,-130.412 335.938,-123.441"/>
</g>
<!-- Node2&#45;&gt;Node7 -->
<g id="edge6" class="edge"><title>Node2&#45;&gt;Node7</title>
<path fill="none" stroke="midnightblue" d="M329.293,-102.526C352.634,-96.7237 377.741,-90.4824 397.734,-85.5124"/>
<polygon fill="midnightblue" stroke="midnightblue" points="328.279,-99.1716 319.418,-104.981 329.967,-105.965 328.279,-99.1716"/>
</g>
<!-- Node4 -->
<g id="node4" class="node"><title>Node4</title>
<g id="a_node4"><a xlink:href="classx265_1_1Analysis.html#a29a58dad4cc1c07d2f5e5717c6be7c25" target="_top" xlink:title="x265::Analysis::findJob">
<polygon fill="white" stroke="black" points="877.5,-93.5 877.5,-112.5 996.5,-112.5 996.5,-93.5 877.5,-93.5"/>
<text text-anchor="middle" x="937" y="-100.5" font-family="Helvetica,sans-Serif" font-size="10.00">x265::Analysis::findJob</text>
</a>
</g>
</g>
<!-- Node3&#45;&gt;Node4 -->
<g id="edge3" class="edge"><title>Node3&#45;&gt;Node4</title>
<path fill="none" stroke="midnightblue" d="M513.783,-137.684C594.078,-138.542 724.422,-137.292 836,-124 856.786,-121.524 879.656,-116.869 898.273,-112.569"/>
<polygon fill="midnightblue" stroke="midnightblue" points="513.802,-134.184 503.761,-137.563 513.718,-141.184 513.802,-134.184"/>
</g>
<!-- Node5 -->
<g id="node5" class="node"><title>Node5</title>
<g id="a_node5"><a xlink:href="classx265_1_1Analysis.html#a87060ff27a37f56adc5f5b8a4c033ece" target="_top" xlink:title="x265::Analysis::compress\lInterCU_dist">
<polygon fill="white" stroke="black" points="1038,-88 1038,-118 1168,-118 1168,-88 1038,-88"/>
<text text-anchor="start" x="1046" y="-106" font-family="Helvetica,sans-Serif" font-size="10.00">x265::Analysis::compress</text>
<text text-anchor="middle" x="1103" y="-95" font-family="Helvetica,sans-Serif" font-size="10.00">InterCU_dist</text>
</a>
</g>
</g>
<!-- Node4&#45;&gt;Node5 -->
<g id="edge4" class="edge"><title>Node4&#45;&gt;Node5</title>
<path fill="none" stroke="midnightblue" d="M1006.88,-103C1017.14,-103 1027.68,-103 1037.83,-103"/>
<polygon fill="midnightblue" stroke="midnightblue" points="1006.74,-99.5001 996.745,-103 1006.74,-106.5 1006.74,-99.5001"/>
</g>
<!-- Node6 -->
<g id="node6" class="node"><title>Node6</title>
<g id="a_node6"><a xlink:href="classx265_1_1Analysis.html#aaebc9de2ff98834c650244f3b58942c2" target="_top" xlink:title="x265::Analysis::compressCTU">
<polygon fill="white" stroke="red" points="1204.5,-49.5 1204.5,-68.5 1355.5,-68.5 1355.5,-49.5 1204.5,-49.5"/>
<text text-anchor="middle" x="1280" y="-56.5" font-family="Helvetica,sans-Serif" font-size="10.00">x265::Analysis::compressCTU</text>
</a>
</g>
</g>
<!-- Node5&#45;&gt;Node6 -->
<g id="edge5" class="edge"><title>Node5&#45;&gt;Node6</title>
<path fill="none" stroke="midnightblue" d="M1173.5,-85.5259C1196.58,-79.7237 1221.4,-73.4824 1241.17,-68.5124"/>
<polygon fill="midnightblue" stroke="midnightblue" points="1172.58,-82.1479 1163.74,-87.9808 1174.29,-88.9366 1172.58,-82.1479"/>
</g>
<!-- Node8 -->
<g id="node8" class="node"><title>Node8</title>
<g id="a_node8"><a xlink:href="classx265_1_1Analysis.html#a2305f7985af66b49fdbc40ebb1b281d2" target="_top" xlink:title="x265::Analysis::checkInter\l_rd0_4">
<polygon fill="white" stroke="black" points="548.5,-61 548.5,-91 681.5,-91 681.5,-61 548.5,-61"/>
<text text-anchor="start" x="556.5" y="-79" font-family="Helvetica,sans-Serif" font-size="10.00">x265::Analysis::checkInter</text>
<text text-anchor="middle" x="615" y="-68" font-family="Helvetica,sans-Serif" font-size="10.00">_rd0_4</text>
</a>
</g>
</g>
<!-- Node7&#45;&gt;Node8 -->
<g id="edge7" class="edge"><title>Node7&#45;&gt;Node8</title>
<path fill="none" stroke="midnightblue" d="M521.653,-76C530.579,-76 539.564,-76 548.241,-76"/>
<polygon fill="midnightblue" stroke="midnightblue" points="521.62,-72.5001 511.62,-76 521.62,-79.5001 521.62,-72.5001"/>
</g>
<!-- Node11 -->
<g id="node11" class="node"><title>Node11</title>
<g id="a_node11"><a xlink:href="classx265_1_1Analysis.html#a828daa3e9f1ed40a1af9f99f7ff7bb33" target="_top" xlink:title="x265::Analysis::checkInter\l_rd5_6">
<polygon fill="white" stroke="black" points="548.5,-4 548.5,-34 681.5,-34 681.5,-4 548.5,-4"/>
<text text-anchor="start" x="556.5" y="-22" font-family="Helvetica,sans-Serif" font-size="10.00">x265::Analysis::checkInter</text>
<text text-anchor="middle" x="615" y="-11" font-family="Helvetica,sans-Serif" font-size="10.00">_rd5_6</text>
</a>
</g>
</g>
<!-- Node7&#45;&gt;Node11 -->
<g id="edge12" class="edge"><title>Node7&#45;&gt;Node11</title>
<path fill="none" stroke="midnightblue" d="M477.233,-63.2939C503.944,-54.6433 539.415,-43.1555 567.54,-34.0468"/>
<polygon fill="midnightblue" stroke="midnightblue" points="475.894,-60.0486 467.458,-66.4595 478.05,-66.7081 475.894,-60.0486"/>
</g>
<!-- Node9 -->
<g id="node9" class="node"><title>Node9</title>
<g id="a_node9"><a xlink:href="classx265_1_1Analysis.html#aa6122285d10bb1bd7584958b88b029d5" target="_top" xlink:title="x265::Analysis::parallel\lModeAnalysis">
<polygon fill="white" stroke="black" points="718,-85 718,-115 836,-115 836,-85 718,-85"/>
<text text-anchor="start" x="726" y="-103" font-family="Helvetica,sans-Serif" font-size="10.00">x265::Analysis::parallel</text>
<text text-anchor="middle" x="777" y="-92" font-family="Helvetica,sans-Serif" font-size="10.00">ModeAnalysis</text>
</a>
</g>
</g>
<!-- Node8&#45;&gt;Node9 -->
<g id="edge8" class="edge"><title>Node8&#45;&gt;Node9</title>
<path fill="none" stroke="midnightblue" d="M691.529,-87.3294C700.426,-88.6639 709.397,-90.0095 717.999,-91.2999"/>
<polygon fill="midnightblue" stroke="midnightblue" points="691.948,-83.8532 681.54,-85.831 690.91,-90.7757 691.948,-83.8532"/>
</g>
<!-- Node10 -->
<g id="node10" class="node"><title>Node10</title>
<g id="a_node10"><a xlink:href="classx265_1_1Analysis.html#a30d2ff7eca5addbb0a6b3dfe14f09650" target="_top" xlink:title="x265::Analysis::compress\lInterCU_rd0_4">
<polygon fill="white" stroke="black" points="872,-44 872,-74 1002,-74 1002,-44 872,-44"/>
<text text-anchor="start" x="880" y="-62" font-family="Helvetica,sans-Serif" font-size="10.00">x265::Analysis::compress</text>
<text text-anchor="middle" x="937" y="-51" font-family="Helvetica,sans-Serif" font-size="10.00">InterCU_rd0_4</text>
</a>
</g>
</g>
<!-- Node8&#45;&gt;Node10 -->
<g id="edge10" class="edge"><title>Node8&#45;&gt;Node10</title>
<path fill="none" stroke="midnightblue" d="M691.551,-71.9863C746.436,-69.0706 819.903,-65.1676 871.925,-62.404"/>
<polygon fill="midnightblue" stroke="midnightblue" points="691.329,-68.4931 681.529,-72.5188 691.701,-75.4832 691.329,-68.4931"/>
</g>
<!-- Node9&#45;&gt;Node4 -->
<g id="edge9" class="edge"><title>Node9&#45;&gt;Node4</title>
<path fill="none" stroke="midnightblue" d="M846.538,-101.301C856.798,-101.496 867.298,-101.696 877.328,-101.886"/>
<polygon fill="midnightblue" stroke="midnightblue" points="846.449,-97.7991 836.384,-101.109 846.316,-104.798 846.449,-97.7991"/>
</g>
<!-- Node10&#45;&gt;Node6 -->
<g id="edge11" class="edge"><title>Node10&#45;&gt;Node6</title>
<path fill="none" stroke="midnightblue" d="M1012.16,-59C1069.11,-59 1147.41,-59 1204.46,-59"/>
<polygon fill="midnightblue" stroke="midnightblue" points="1012.14,-55.5001 1002.14,-59 1012.14,-62.5001 1012.14,-55.5001"/>
</g>
<!-- Node12 -->
<g id="node12" class="node"><title>Node12</title>
<g id="a_node12"><a xlink:href="classx265_1_1Analysis.html#a0b22b7765aa4a36b1ba6d07ba26901e6" target="_top" xlink:title="x265::Analysis::compress\lInterCU_rd5_6">
<polygon fill="white" stroke="black" points="1038,-0 1038,-30 1168,-30 1168,-0 1038,-0"/>
<text text-anchor="start" x="1046" y="-18" font-family="Helvetica,sans-Serif" font-size="10.00">x265::Analysis::compress</text>
<text text-anchor="middle" x="1103" y="-7" font-family="Helvetica,sans-Serif" font-size="10.00">InterCU_rd5_6</text>
</a>
</g>
</g>
<!-- Node11&#45;&gt;Node12 -->
<g id="edge13" class="edge"><title>Node11&#45;&gt;Node12</title>
<path fill="none" stroke="midnightblue" d="M691.674,-18.3772C786.828,-17.594 948.521,-16.2632 1037.88,-15.5277"/>
<polygon fill="midnightblue" stroke="midnightblue" points="691.515,-14.8783 681.544,-18.4605 691.573,-21.878 691.515,-14.8783"/>
</g>
<!-- Node12&#45;&gt;Node6 -->
<g id="edge14" class="edge"><title>Node12&#45;&gt;Node6</title>
<path fill="none" stroke="midnightblue" d="M1173.5,-32.4741C1196.58,-38.2763 1221.4,-44.5176 1241.17,-49.4876"/>
<polygon fill="midnightblue" stroke="midnightblue" points="1174.29,-29.0634 1163.74,-30.0192 1172.58,-35.8521 1174.29,-29.0634"/>
</g>
</g>
</svg>
        <g id="navigator" transform="translate(0 0)" fill="#404254">
                <rect fill="#f2f5e9" fill-opacity="0.5" stroke="#606060" stroke-width=".5" x="0" y="0" width="60" height="60"/>
                <use id="zoomplus" xlink:href="#zoomPlus" x="17" y="9" onmousedown="handleZoom(evt,'in')"/>
                <use id="zoomminus" xlink:href="#zoomMin" x="42" y="9" onmousedown="handleZoom(evt,'out')"/>
                <use id="reset" xlink:href="#resetDef" x="30" y="36" onmousedown="handleReset()"/>
                <g id="arrowUp" xlink:href="#dirArrow" transform="translate(30 24)" onmousedown="handlePan(0,-1)">
                  <use xlink:href="#rim" fill="#404040">
                        <set attributeName="fill" to="#808080" begin="arrowUp.mouseover" end="arrowUp.mouseout"/>
                  </use>
                  <path fill="none" stroke="white" stroke-width="1.5" d="M0,-3.0v7 M-2.5,-0.5L0,-3.0L2.5,-0.5"/>
                </g>
                <g id="arrowRight" xlink:href="#dirArrow" transform="rotate(90) translate(36 -43)" onmousedown="handlePan(1,0)">
                  <use xlink:href="#rim" fill="#404040">
                        <set attributeName="fill" to="#808080" begin="arrowRight.mouseover" end="arrowRight.mouseout"/>
                  </use>
                  <path fill="none" stroke="white" stroke-width="1.5" d="M0,-3.0v7 M-2.5,-0.5L0,-3.0L2.5,-0.5"/>
                </g>
                <g id="arrowDown" xlink:href="#dirArrow" transform="rotate(180) translate(-30 -48)" onmousedown="handlePan(0,1)">
                  <use xlink:href="#rim" fill="#404040">
                        <set attributeName="fill" to="#808080" begin="arrowDown.mouseover" end="arrowDown.mouseout"/>
                  </use>
                  <path fill="none" stroke="white" stroke-width="1.5" d="M0,-3.0v7 M-2.5,-0.5L0,-3.0L2.5,-0.5"/>
                </g>
                <g id="arrowLeft" xlink:href="#dirArrow" transform="rotate(270) translate(-36 17)" onmousedown="handlePan(-1,0)">
                  <use xlink:href="#rim" fill="#404040">
                        <set attributeName="fill" to="#808080" begin="arrowLeft.mouseover" end="arrowLeft.mouseout"/>
                  </use>
                  <path fill="none" stroke="white" stroke-width="1.5" d="M0,-3.0v7 M-2.5,-0.5L0,-3.0L2.5,-0.5"/>
                </g>
        </g>
        <svg viewBox="0 0 15 15" width="100%" height="30px" preserveAspectRatio="xMaxYMin meet">
         <g id="arrow_out" transform="scale(0.3 0.3)">
          <a xlink:href="classx265_1_1Search_a24733c240f7870af9e8e0cc556d0f9fc_icgraph_org.svg" target="_base">
           <rect id="button" ry="5" rx="5" y="6" x="6" height="38" width="38"
                fill="#f2f5e9" fill-opacity="0.5" stroke="#606060" stroke-width="1.0"/>
           <path id="arrow"
             d="M 11.500037,31.436501 C 11.940474,20.09759 22.043105,11.32322 32.158766,21.979434 L 37.068811,17.246167 C 37.068811,17.246167 37.088388,32 37.088388,32 L 22.160133,31.978069 C 22.160133,31.978069 26.997745,27.140456 26.997745,27.140456 C 18.528582,18.264221 13.291696,25.230495 11.500037,31.436501 z"
             style="fill:#404040;"/>
          </a>
         </g>
        </svg>
</svg>
