<?xml version="1.0" encoding="UTF-8" standalone="no"?>
<!DOCTYPE svg PUBLIC "-//W3C//DTD SVG 1.1//EN"
 "http://www.w3.org/Graphics/SVG/1.1/DTD/svg11.dtd">
<!-- Generated by graphviz version 2.36.0 (20140111.2315)
 -->
<!-- Title: x265::CUData::getQpMinCuAbove Pages: 1 -->
<svg width="2502pt" height="503pt"
 viewBox="0.00 0.00 2502.00 503.33" xmlns="http://www.w3.org/2000/svg" xmlns:xlink="http://www.w3.org/1999/xlink">
<g id="graph0" class="graph" transform="scale(1 1) rotate(0) translate(4 499.335)">
<title>x265::CUData::getQpMinCuAbove</title>
<polygon fill="white" stroke="none" points="-4,4 -4,-499.335 2498,-499.335 2498,4 -4,4"/>
<!-- Node1 -->
<g id="node1" class="node"><title>Node1</title>
<polygon fill="#bfbfbf" stroke="black" points="0,-388.394 0,-418.394 140,-418.394 140,-388.394 0,-388.394"/>
<text text-anchor="start" x="8" y="-406.394" font-family="Helvetica,sans-Serif" font-size="10.00">x265::CUData::getQpMinCu</text>
<text text-anchor="middle" x="70" y="-395.394" font-family="Helvetica,sans-Serif" font-size="10.00">Above</text>
</g>
<!-- Node2 -->
<g id="node2" class="node"><title>Node2</title>
<g id="a_node2"><a xlink:href="classx265_1_1CUData.html#a83aa8547b59c61d599373675ddb0ace4" target="_top" xlink:title="x265::CUData::getRefQP">
<polygon fill="white" stroke="black" points="176.5,-393.894 176.5,-412.894 305.5,-412.894 305.5,-393.894 176.5,-393.894"/>
<text text-anchor="middle" x="241" y="-400.894" font-family="Helvetica,sans-Serif" font-size="10.00">x265::CUData::getRefQP</text>
</a>
</g>
</g>
<!-- Node1&#45;&gt;Node2 -->
<g id="edge1" class="edge"><title>Node1&#45;&gt;Node2</title>
<path fill="none" stroke="midnightblue" d="M150.38,-403.394C159.076,-403.394 167.845,-403.394 176.316,-403.394"/>
<polygon fill="midnightblue" stroke="midnightblue" points="150.226,-399.894 140.226,-403.394 150.226,-406.894 150.226,-399.894"/>
</g>
<!-- Node3 -->
<g id="node3" class="node"><title>Node3</title>
<g id="a_node3"><a xlink:href="classx265_1_1Analysis.html#a359278813e4f26bd2b5270d07253fe6c" target="_top" xlink:title="x265::Analysis::checkDQP">
<polygon fill="white" stroke="black" points="1243.5,-448.894 1243.5,-467.894 1378.5,-467.894 1378.5,-448.894 1243.5,-448.894"/>
<text text-anchor="middle" x="1311" y="-455.894" font-family="Helvetica,sans-Serif" font-size="10.00">x265::Analysis::checkDQP</text>
</a>
</g>
</g>
<!-- Node2&#45;&gt;Node3 -->
<g id="edge2" class="edge"><title>Node2&#45;&gt;Node3</title>
<path fill="none" stroke="midnightblue" d="M310.508,-414.431C382.226,-425.015 498.214,-439.394 599,-439.394 599,-439.394 599,-439.394 950,-439.394 1052.49,-439.394 1171.16,-447.168 1243.37,-452.771"/>
<polygon fill="midnightblue" stroke="midnightblue" points="310.663,-410.916 300.255,-412.9 309.629,-417.839 310.663,-410.916"/>
</g>
<!-- Node15 -->
<g id="node15" class="node"><title>Node15</title>
<g id="a_node15"><a xlink:href="classx265_1_1Entropy.html#af4ab096830911ac48684ea5258cea013" target="_top" xlink:title="x265::Entropy::codeDeltaQP">
<polygon fill="white" stroke="black" points="342,-358.894 342,-377.894 484,-377.894 484,-358.894 342,-358.894"/>
<text text-anchor="middle" x="413" y="-365.894" font-family="Helvetica,sans-Serif" font-size="10.00">x265::Entropy::codeDeltaQP</text>
</a>
</g>
</g>
<!-- Node2&#45;&gt;Node15 -->
<g id="edge18" class="edge"><title>Node2&#45;&gt;Node15</title>
<path fill="none" stroke="midnightblue" d="M298.261,-391.811C320.101,-387.315 344.809,-382.228 365.603,-377.946"/>
<polygon fill="midnightblue" stroke="midnightblue" points="297.542,-388.385 288.453,-393.83 298.954,-395.242 297.542,-388.385"/>
</g>
<!-- Node4 -->
<g id="node4" class="node"><title>Node4</title>
<g id="a_node4"><a xlink:href="classx265_1_1Analysis.html#aae2a6a2252270782b591d2bed7e99dae" target="_top" xlink:title="x265::Analysis::compress\lIntraCU">
<polygon fill="white" stroke="black" points="1433,-388.394 1433,-418.394 1563,-418.394 1563,-388.394 1433,-388.394"/>
<text text-anchor="start" x="1441" y="-406.394" font-family="Helvetica,sans-Serif" font-size="10.00">x265::Analysis::compress</text>
<text text-anchor="middle" x="1498" y="-395.394" font-family="Helvetica,sans-Serif" font-size="10.00">IntraCU</text>
</a>
</g>
</g>
<!-- Node3&#45;&gt;Node4 -->
<g id="edge3" class="edge"><title>Node3&#45;&gt;Node4</title>
<path fill="none" stroke="midnightblue" d="M1353.91,-445.935C1381.32,-437.784 1417.3,-427.087 1446.33,-418.459"/>
<polygon fill="midnightblue" stroke="midnightblue" points="1352.81,-442.609 1344.22,-448.814 1354.81,-449.319 1352.81,-442.609"/>
</g>
<!-- Node11 -->
<g id="node11" class="node"><title>Node11</title>
<g id="a_node11"><a xlink:href="classx265_1_1Analysis.html#a87060ff27a37f56adc5f5b8a4c033ece" target="_top" xlink:title="x265::Analysis::compress\lInterCU_dist">
<polygon fill="white" stroke="black" points="1433,-186.394 1433,-216.394 1563,-216.394 1563,-186.394 1433,-186.394"/>
<text text-anchor="start" x="1441" y="-204.394" font-family="Helvetica,sans-Serif" font-size="10.00">x265::Analysis::compress</text>
<text text-anchor="middle" x="1498" y="-193.394" font-family="Helvetica,sans-Serif" font-size="10.00">InterCU_dist</text>
</a>
</g>
</g>
<!-- Node3&#45;&gt;Node11 -->
<g id="edge10" class="edge"><title>Node3&#45;&gt;Node11</title>
<path fill="none" stroke="midnightblue" d="M1338.95,-443.379C1354.4,-433.418 1372.87,-418.957 1384,-401.394 1421.85,-341.651 1378.05,-303.328 1420,-246.394 1429.55,-233.431 1444.05,-223.573 1457.9,-216.438"/>
<polygon fill="midnightblue" stroke="midnightblue" points="1336.97,-440.492 1330.28,-448.714 1340.63,-446.453 1336.97,-440.492"/>
</g>
<!-- Node12 -->
<g id="node12" class="node"><title>Node12</title>
<g id="a_node12"><a xlink:href="classx265_1_1Analysis.html#a30d2ff7eca5addbb0a6b3dfe14f09650" target="_top" xlink:title="x265::Analysis::compress\lInterCU_rd0_4">
<polygon fill="white" stroke="black" points="1433,-256.394 1433,-286.394 1563,-286.394 1563,-256.394 1433,-256.394"/>
<text text-anchor="start" x="1441" y="-274.394" font-family="Helvetica,sans-Serif" font-size="10.00">x265::Analysis::compress</text>
<text text-anchor="middle" x="1498" y="-263.394" font-family="Helvetica,sans-Serif" font-size="10.00">InterCU_rd0_4</text>
</a>
</g>
</g>
<!-- Node3&#45;&gt;Node12 -->
<g id="edge12" class="edge"><title>Node3&#45;&gt;Node12</title>
<path fill="none" stroke="midnightblue" d="M1337.02,-443.226C1352.25,-432.97 1371.16,-418.252 1384,-401.394 1408.86,-368.756 1392.91,-347.204 1420,-316.394 1431.04,-303.836 1446.47,-293.865 1460.62,-286.533"/>
<polygon fill="midnightblue" stroke="midnightblue" points="1335.04,-440.344 1328.56,-448.731 1338.85,-446.211 1335.04,-440.344"/>
</g>
<!-- Node13 -->
<g id="node13" class="node"><title>Node13</title>
<g id="a_node13"><a xlink:href="classx265_1_1Analysis.html#a0b22b7765aa4a36b1ba6d07ba26901e6" target="_top" xlink:title="x265::Analysis::compress\lInterCU_rd5_6">
<polygon fill="white" stroke="black" points="1433,-326.394 1433,-356.394 1563,-356.394 1563,-326.394 1433,-326.394"/>
<text text-anchor="start" x="1441" y="-344.394" font-family="Helvetica,sans-Serif" font-size="10.00">x265::Analysis::compress</text>
<text text-anchor="middle" x="1498" y="-333.394" font-family="Helvetica,sans-Serif" font-size="10.00">InterCU_rd5_6</text>
</a>
</g>
</g>
<!-- Node3&#45;&gt;Node13 -->
<g id="edge14" class="edge"><title>Node3&#45;&gt;Node13</title>
<path fill="none" stroke="midnightblue" d="M1365.84,-445.039C1372.31,-442.139 1378.55,-438.631 1384,-434.394 1407.36,-416.239 1397.83,-397.986 1420,-378.394 1430.11,-369.457 1442.77,-362.199 1454.88,-356.554"/>
<polygon fill="midnightblue" stroke="midnightblue" points="1364.24,-441.908 1356.25,-448.867 1366.84,-448.409 1364.24,-441.908"/>
</g>
<!-- Node14 -->
<g id="node14" class="node"><title>Node14</title>
<g id="a_node14"><a xlink:href="classx265_1_1Analysis.html#a88ad2880a5a8bcad5cfd5d6ea630b265" target="_top" xlink:title="x265::Analysis::encodeResidue">
<polygon fill="white" stroke="black" points="1420.5,-444.894 1420.5,-463.894 1575.5,-463.894 1575.5,-444.894 1420.5,-444.894"/>
<text text-anchor="middle" x="1498" y="-451.894" font-family="Helvetica,sans-Serif" font-size="10.00">x265::Analysis::encodeResidue</text>
</a>
</g>
</g>
<!-- Node3&#45;&gt;Node14 -->
<g id="edge16" class="edge"><title>Node3&#45;&gt;Node14</title>
<path fill="none" stroke="midnightblue" d="M1388.84,-456.733C1399.26,-456.507 1409.95,-456.276 1420.37,-456.051"/>
<polygon fill="midnightblue" stroke="midnightblue" points="1388.45,-453.24 1378.53,-456.956 1388.6,-460.239 1388.45,-453.24"/>
</g>
<!-- Node5 -->
<g id="node5" class="node"><title>Node5</title>
<g id="a_node5"><a xlink:href="classx265_1_1Analysis.html#aaebc9de2ff98834c650244f3b58942c2" target="_top" xlink:title="x265::Analysis::compressCTU">
<polygon fill="white" stroke="black" points="1612.5,-296.894 1612.5,-315.894 1763.5,-315.894 1763.5,-296.894 1612.5,-296.894"/>
<text text-anchor="middle" x="1688" y="-303.894" font-family="Helvetica,sans-Serif" font-size="10.00">x265::Analysis::compressCTU</text>
</a>
</g>
</g>
<!-- Node4&#45;&gt;Node5 -->
<g id="edge4" class="edge"><title>Node4&#45;&gt;Node5</title>
<path fill="none" stroke="midnightblue" d="M1539.41,-383.735C1551.24,-377.904 1564.17,-371.455 1576,-365.394 1609.21,-348.377 1647.58,-327.769 1669.4,-315.96"/>
<polygon fill="midnightblue" stroke="midnightblue" points="1537.63,-380.709 1530.2,-388.26 1540.72,-386.991 1537.63,-380.709"/>
</g>
<!-- Node6 -->
<g id="node6" class="node"><title>Node6</title>
<g id="a_node6"><a xlink:href="classx265_1_1FrameEncoder.html#a0ae85001572afd28238476542523ac5f" target="_top" xlink:title="x265::FrameEncoder\l::processRowEncoder">
<polygon fill="white" stroke="black" points="1800.5,-180.394 1800.5,-210.394 1913.5,-210.394 1913.5,-180.394 1800.5,-180.394"/>
<text text-anchor="start" x="1808.5" y="-198.394" font-family="Helvetica,sans-Serif" font-size="10.00">x265::FrameEncoder</text>
<text text-anchor="middle" x="1857" y="-187.394" font-family="Helvetica,sans-Serif" font-size="10.00">::processRowEncoder</text>
</a>
</g>
</g>
<!-- Node5&#45;&gt;Node6 -->
<g id="edge5" class="edge"><title>Node5&#45;&gt;Node6</title>
<path fill="none" stroke="midnightblue" d="M1712.21,-290.964C1744.21,-269.697 1801.5,-231.62 1833.25,-210.517"/>
<polygon fill="midnightblue" stroke="midnightblue" points="1709.92,-288.287 1703.53,-296.738 1713.79,-294.117 1709.92,-288.287"/>
</g>
<!-- Node7 -->
<g id="node7" class="node"><title>Node7</title>
<g id="a_node7"><a xlink:href="classx265_1_1FrameEncoder.html#acad645a8ece97d884895f8f7366b7d70" target="_top" xlink:title="x265::FrameEncoder\l::processRow">
<polygon fill="white" stroke="black" points="1950.5,-180.394 1950.5,-210.394 2057.5,-210.394 2057.5,-180.394 1950.5,-180.394"/>
<text text-anchor="start" x="1958.5" y="-198.394" font-family="Helvetica,sans-Serif" font-size="10.00">x265::FrameEncoder</text>
<text text-anchor="middle" x="2004" y="-187.394" font-family="Helvetica,sans-Serif" font-size="10.00">::processRow</text>
</a>
</g>
</g>
<!-- Node6&#45;&gt;Node7 -->
<g id="edge6" class="edge"><title>Node6&#45;&gt;Node7</title>
<path fill="none" stroke="midnightblue" d="M1923.88,-195.394C1932.67,-195.394 1941.59,-195.394 1950.13,-195.394"/>
<polygon fill="midnightblue" stroke="midnightblue" points="1923.65,-191.894 1913.65,-195.394 1923.65,-198.894 1923.65,-191.894"/>
</g>
<!-- Node8 -->
<g id="node8" class="node"><title>Node8</title>
<g id="a_node8"><a xlink:href="classx265_1_1FrameEncoder.html#ac4e9ce2e876c0cdb25c992c872fe4302" target="_top" xlink:title="x265::FrameEncoder\l::compressCTURows">
<polygon fill="white" stroke="black" points="2094,-178.394 2094,-208.394 2206,-208.394 2206,-178.394 2094,-178.394"/>
<text text-anchor="start" x="2102" y="-196.394" font-family="Helvetica,sans-Serif" font-size="10.00">x265::FrameEncoder</text>
<text text-anchor="middle" x="2150" y="-185.394" font-family="Helvetica,sans-Serif" font-size="10.00">::compressCTURows</text>
</a>
</g>
</g>
<!-- Node7&#45;&gt;Node8 -->
<g id="edge7" class="edge"><title>Node7&#45;&gt;Node8</title>
<path fill="none" stroke="midnightblue" d="M2067.83,-194.521C2076.48,-194.401 2085.3,-194.279 2093.79,-194.161"/>
<polygon fill="midnightblue" stroke="midnightblue" points="2067.75,-191.022 2057.8,-194.661 2067.85,-198.021 2067.75,-191.022"/>
</g>
<!-- Node9 -->
<g id="node9" class="node"><title>Node9</title>
<g id="a_node9"><a xlink:href="classx265_1_1FrameEncoder.html#a2f5c4c0f1a4e36fce4c9b87eb7ec4973" target="_top" xlink:title="x265::FrameEncoder\l::compressFrame">
<polygon fill="white" stroke="black" points="2242.5,-155.394 2242.5,-185.394 2349.5,-185.394 2349.5,-155.394 2242.5,-155.394"/>
<text text-anchor="start" x="2250.5" y="-173.394" font-family="Helvetica,sans-Serif" font-size="10.00">x265::FrameEncoder</text>
<text text-anchor="middle" x="2296" y="-162.394" font-family="Helvetica,sans-Serif" font-size="10.00">::compressFrame</text>
</a>
</g>
</g>
<!-- Node8&#45;&gt;Node9 -->
<g id="edge8" class="edge"><title>Node8&#45;&gt;Node9</title>
<path fill="none" stroke="midnightblue" d="M2216.14,-182.99C2224.96,-181.581 2233.93,-180.149 2242.49,-178.781"/>
<polygon fill="midnightblue" stroke="midnightblue" points="2215.59,-179.534 2206.26,-184.567 2216.69,-186.446 2215.59,-179.534"/>
</g>
<!-- Node10 -->
<g id="node10" class="node"><title>Node10</title>
<g id="a_node10"><a xlink:href="classx265_1_1FrameEncoder.html#aef61f29b9e93b3af9255d96236bc90a7" target="_top" xlink:title="x265::FrameEncoder\l::threadMain">
<polygon fill="white" stroke="black" points="2386.5,-155.394 2386.5,-185.394 2493.5,-185.394 2493.5,-155.394 2386.5,-155.394"/>
<text text-anchor="start" x="2394.5" y="-173.394" font-family="Helvetica,sans-Serif" font-size="10.00">x265::FrameEncoder</text>
<text text-anchor="middle" x="2440" y="-162.394" font-family="Helvetica,sans-Serif" font-size="10.00">::threadMain</text>
</a>
</g>
</g>
<!-- Node9&#45;&gt;Node10 -->
<g id="edge9" class="edge"><title>Node9&#45;&gt;Node10</title>
<path fill="none" stroke="midnightblue" d="M2359.99,-170.394C2368.7,-170.394 2377.58,-170.394 2386.08,-170.394"/>
<polygon fill="midnightblue" stroke="midnightblue" points="2359.88,-166.894 2349.88,-170.394 2359.88,-173.894 2359.88,-166.894"/>
</g>
<!-- Node11&#45;&gt;Node5 -->
<g id="edge11" class="edge"><title>Node11&#45;&gt;Node5</title>
<path fill="none" stroke="midnightblue" d="M1534.68,-221.323C1575.15,-243.923 1639.45,-279.834 1669.91,-296.851"/>
<polygon fill="midnightblue" stroke="midnightblue" points="1536.37,-218.258 1525.94,-216.438 1532.96,-224.37 1536.37,-218.258"/>
</g>
<!-- Node12&#45;&gt;Node5 -->
<g id="edge13" class="edge"><title>Node12&#45;&gt;Node5</title>
<path fill="none" stroke="midnightblue" d="M1573.04,-285.179C1594.08,-289.094 1616.51,-293.27 1635.85,-296.872"/>
<polygon fill="midnightblue" stroke="midnightblue" points="1573.64,-281.731 1563.17,-283.341 1572.36,-288.612 1573.64,-281.731"/>
</g>
<!-- Node13&#45;&gt;Node5 -->
<g id="edge15" class="edge"><title>Node13&#45;&gt;Node5</title>
<path fill="none" stroke="midnightblue" d="M1573.04,-327.609C1594.08,-323.694 1616.51,-319.518 1635.85,-315.916"/>
<polygon fill="midnightblue" stroke="midnightblue" points="1572.36,-324.176 1563.17,-329.447 1573.64,-331.058 1572.36,-324.176"/>
</g>
<!-- Node14&#45;&gt;Node5 -->
<g id="edge17" class="edge"><title>Node14&#45;&gt;Node5</title>
<path fill="none" stroke="midnightblue" d="M1547.65,-441.416C1557.46,-437.696 1567.4,-433.067 1576,-427.394 1624.08,-395.699 1665.39,-338.686 1680.68,-316.043"/>
<polygon fill="midnightblue" stroke="midnightblue" points="1546.21,-438.215 1537.94,-444.839 1548.53,-444.817 1546.21,-438.215"/>
</g>
<!-- Node16 -->
<g id="node16" class="node"><title>Node16</title>
<g id="a_node16"><a xlink:href="classx265_1_1Entropy.html#af0793a415273d86dc38b396dae9f9db3" target="_top" xlink:title="x265::Entropy::encodeTransform">
<polygon fill="white" stroke="black" points="520.5,-324.894 520.5,-343.894 679.5,-343.894 679.5,-324.894 520.5,-324.894"/>
<text text-anchor="middle" x="600" y="-331.894" font-family="Helvetica,sans-Serif" font-size="10.00">x265::Entropy::encodeTransform</text>
</a>
</g>
</g>
<!-- Node15&#45;&gt;Node16 -->
<g id="edge19" class="edge"><title>Node15&#45;&gt;Node16</title>
<path fill="none" stroke="midnightblue" d="M476.05,-356.99C499.1,-352.754 524.99,-347.996 547.045,-343.943"/>
<polygon fill="midnightblue" stroke="midnightblue" points="475.228,-353.583 466.025,-358.833 476.493,-360.467 475.228,-353.583"/>
</g>
<!-- Node17 -->
<g id="node17" class="node"><title>Node17</title>
<g id="a_node17"><a xlink:href="classx265_1_1Entropy.html#a220326e32d9be80554bf11194ef2c642" target="_top" xlink:title="x265::Entropy::codeCoeff">
<polygon fill="white" stroke="black" points="716,-257.894 716,-276.894 844,-276.894 844,-257.894 716,-257.894"/>
<text text-anchor="middle" x="780" y="-264.894" font-family="Helvetica,sans-Serif" font-size="10.00">x265::Entropy::codeCoeff</text>
</a>
</g>
</g>
<!-- Node16&#45;&gt;Node17 -->
<g id="edge20" class="edge"><title>Node16&#45;&gt;Node17</title>
<path fill="none" stroke="midnightblue" d="M636.205,-321.143C670.806,-308.119 722.768,-288.56 753.544,-276.976"/>
<polygon fill="midnightblue" stroke="midnightblue" points="634.629,-317.996 626.503,-324.795 637.095,-324.547 634.629,-317.996"/>
</g>
<!-- Node18 -->
<g id="node18" class="node"><title>Node18</title>
<g id="a_node18"><a xlink:href="classx265_1_1Analysis.html#ae4d61bcf4d2c22a054d68d6d77136428" target="_top" xlink:title="x265::Analysis::encodeIntra\lInInter">
<polygon fill="white" stroke="black" points="880,-107.394 880,-137.394 1018,-137.394 1018,-107.394 880,-107.394"/>
<text text-anchor="start" x="888" y="-125.394" font-family="Helvetica,sans-Serif" font-size="10.00">x265::Analysis::encodeIntra</text>
<text text-anchor="middle" x="949" y="-114.394" font-family="Helvetica,sans-Serif" font-size="10.00">InInter</text>
</a>
</g>
</g>
<!-- Node17&#45;&gt;Node18 -->
<g id="edge21" class="edge"><title>Node17&#45;&gt;Node18</title>
<path fill="none" stroke="midnightblue" d="M799.83,-251.044C832.404,-222.762 898.811,-165.103 930.463,-137.621"/>
<polygon fill="midnightblue" stroke="midnightblue" points="797.214,-248.681 791.957,-257.88 801.803,-253.967 797.214,-248.681"/>
</g>
<!-- Node21 -->
<g id="node21" class="node"><title>Node21</title>
<g id="a_node21"><a xlink:href="classx265_1_1Entropy.html#adeb50a7c9a5df6643407d01158d93799" target="_top" xlink:title="x265::Entropy::encodeCU">
<polygon fill="white" stroke="black" points="884,-46.8941 884,-65.8941 1014,-65.8941 1014,-46.8941 884,-46.8941"/>
<text text-anchor="middle" x="949" y="-53.8941" font-family="Helvetica,sans-Serif" font-size="10.00">x265::Entropy::encodeCU</text>
</a>
</g>
</g>
<!-- Node17&#45;&gt;Node21 -->
<g id="edge27" class="edge"><title>Node17&#45;&gt;Node21</title>
<path fill="none" stroke="midnightblue" d="M788.379,-248.27C802.161,-214.496 834.587,-143.504 880,-97.3941 893.252,-83.9383 911.795,-73.1423 926.171,-66.013"/>
<polygon fill="midnightblue" stroke="midnightblue" points="785.012,-247.264 784.566,-257.85 791.516,-249.853 785.012,-247.264"/>
</g>
<!-- Node24 -->
<g id="node24" class="node"><title>Node24</title>
<g id="a_node24"><a xlink:href="classx265_1_1Search.html#ab02df91827cf67796d1605bde60c6aed" target="_top" xlink:title="x265::Search::checkIntra">
<polygon fill="white" stroke="black" points="1065,-391.894 1065,-410.894 1191,-410.894 1191,-391.894 1065,-391.894"/>
<text text-anchor="middle" x="1128" y="-398.894" font-family="Helvetica,sans-Serif" font-size="10.00">x265::Search::checkIntra</text>
</a>
</g>
</g>
<!-- Node17&#45;&gt;Node24 -->
<g id="edge32" class="edge"><title>Node17&#45;&gt;Node24</title>
<path fill="none" stroke="midnightblue" d="M815.226,-280.649C884.858,-307.617 1041.55,-368.301 1102.29,-391.823"/>
<polygon fill="midnightblue" stroke="midnightblue" points="816.195,-277.271 805.606,-276.924 813.667,-283.799 816.195,-277.271"/>
</g>
<!-- Node26 -->
<g id="node26" class="node"><title>Node26</title>
<g id="a_node26"><a xlink:href="classx265_1_1Search.html#aba5e04ce529f41accd43c540ba1dc7ad" target="_top" xlink:title="x265::Search::encodeResAnd\lCalcRdInterCU">
<polygon fill="white" stroke="black" points="1054.5,-252.394 1054.5,-282.394 1201.5,-282.394 1201.5,-252.394 1054.5,-252.394"/>
<text text-anchor="start" x="1062.5" y="-270.394" font-family="Helvetica,sans-Serif" font-size="10.00">x265::Search::encodeResAnd</text>
<text text-anchor="middle" x="1128" y="-259.394" font-family="Helvetica,sans-Serif" font-size="10.00">CalcRdInterCU</text>
</a>
</g>
</g>
<!-- Node17&#45;&gt;Node26 -->
<g id="edge40" class="edge"><title>Node17&#45;&gt;Node26</title>
<path fill="none" stroke="midnightblue" d="M854.418,-267.394C913.39,-267.394 995.77,-267.394 1054.5,-267.394"/>
<polygon fill="midnightblue" stroke="midnightblue" points="854.059,-263.894 844.059,-267.394 854.059,-270.894 854.059,-263.894"/>
</g>
<!-- Node18&#45;&gt;Node11 -->
<g id="edge25" class="edge"><title>Node18&#45;&gt;Node11</title>
<path fill="none" stroke="midnightblue" d="M1028.27,-123.007C1115.92,-125.128 1261.72,-132.972 1384,-160.394 1411.08,-166.468 1440.53,-177.297 1462.57,-186.301"/>
<polygon fill="midnightblue" stroke="midnightblue" points="1028.21,-119.505 1018.14,-122.781 1028.06,-126.503 1028.21,-119.505"/>
</g>
<!-- Node18&#45;&gt;Node12 -->
<g id="edge26" class="edge"><title>Node18&#45;&gt;Node12</title>
<path fill="none" stroke="midnightblue" d="M1027.96,-138.15C1036.72,-139.694 1045.54,-141.147 1054,-142.394 1126.93,-153.143 1320.02,-139.769 1384,-176.394 1407.45,-189.82 1400,-207.216 1420,-225.394 1433.48,-237.65 1450.72,-248.311 1465.47,-256.276"/>
<polygon fill="midnightblue" stroke="midnightblue" points="1028.57,-134.703 1018.1,-136.374 1027.33,-141.592 1028.57,-134.703"/>
</g>
<!-- Node19 -->
<g id="node19" class="node"><title>Node19</title>
<g id="a_node19"><a xlink:href="classx265_1_1Analysis.html#aa6122285d10bb1bd7584958b88b029d5" target="_top" xlink:title="x265::Analysis::parallel\lModeAnalysis">
<polygon fill="white" stroke="black" points="1069,-28.3941 1069,-58.3941 1187,-58.3941 1187,-28.3941 1069,-28.3941"/>
<text text-anchor="start" x="1077" y="-46.3941" font-family="Helvetica,sans-Serif" font-size="10.00">x265::Analysis::parallel</text>
<text text-anchor="middle" x="1128" y="-35.3941" font-family="Helvetica,sans-Serif" font-size="10.00">ModeAnalysis</text>
</a>
</g>
</g>
<!-- Node18&#45;&gt;Node19 -->
<g id="edge22" class="edge"><title>Node18&#45;&gt;Node19</title>
<path fill="none" stroke="midnightblue" d="M990.275,-102.84C1009.47,-93.6705 1032.81,-82.7327 1054,-73.3941 1065.41,-68.3655 1077.93,-63.1212 1089.33,-58.4499"/>
<polygon fill="midnightblue" stroke="midnightblue" points="988.717,-99.7052 981.214,-107.185 991.744,-106.017 988.717,-99.7052"/>
</g>
<!-- Node20 -->
<g id="node20" class="node"><title>Node20</title>
<g id="a_node20"><a xlink:href="classx265_1_1Analysis.html#a29a58dad4cc1c07d2f5e5717c6be7c25" target="_top" xlink:title="x265::Analysis::findJob">
<polygon fill="white" stroke="black" points="1251.5,-33.8941 1251.5,-52.8941 1370.5,-52.8941 1370.5,-33.8941 1251.5,-33.8941"/>
<text text-anchor="middle" x="1311" y="-40.8941" font-family="Helvetica,sans-Serif" font-size="10.00">x265::Analysis::findJob</text>
</a>
</g>
</g>
<!-- Node19&#45;&gt;Node20 -->
<g id="edge23" class="edge"><title>Node19&#45;&gt;Node20</title>
<path fill="none" stroke="midnightblue" d="M1197.52,-43.3941C1215.2,-43.3941 1234.08,-43.3941 1251.22,-43.3941"/>
<polygon fill="midnightblue" stroke="midnightblue" points="1197.27,-39.8942 1187.27,-43.3941 1197.27,-46.8942 1197.27,-39.8942"/>
</g>
<!-- Node20&#45;&gt;Node11 -->
<g id="edge24" class="edge"><title>Node20&#45;&gt;Node11</title>
<path fill="none" stroke="midnightblue" d="M1362.84,-56.3956C1370.26,-59.3956 1377.56,-63.0258 1384,-67.3941 1432.1,-100.02 1471.33,-158.554 1488.15,-186.175"/>
<polygon fill="midnightblue" stroke="midnightblue" points="1364.02,-53.1017 1353.43,-52.9243 1361.6,-59.6691 1364.02,-53.1017"/>
</g>
<!-- Node22 -->
<g id="node22" class="node"><title>Node22</title>
<g id="a_node22"><a xlink:href="classx265_1_1Entropy.html#abb101b71f310e90eb504a8204babc180" target="_top" xlink:title="x265::Entropy::encodeCTU">
<polygon fill="white" stroke="black" points="1620,-136.894 1620,-155.894 1756,-155.894 1756,-136.894 1620,-136.894"/>
<text text-anchor="middle" x="1688" y="-143.894" font-family="Helvetica,sans-Serif" font-size="10.00">x265::Entropy::encodeCTU</text>
</a>
</g>
</g>
<!-- Node21&#45;&gt;Node22 -->
<g id="edge28" class="edge"><title>Node21&#45;&gt;Node22</title>
<path fill="none" stroke="midnightblue" d="M979.109,-42.6319C999.551,-33.7538 1027.81,-23.0289 1054,-18.3941 1198.45,7.16869 1240.47,5.87911 1384,-24.3941 1498.03,-48.4439 1624.23,-112.497 1669.59,-136.832"/>
<polygon fill="midnightblue" stroke="midnightblue" points="977.454,-39.5379 969.746,-46.8071 980.304,-45.9312 977.454,-39.5379"/>
</g>
<!-- Node22&#45;&gt;Node6 -->
<g id="edge31" class="edge"><title>Node22&#45;&gt;Node6</title>
<path fill="none" stroke="midnightblue" d="M1731.45,-158.848C1753.75,-165.393 1781.26,-173.465 1804.75,-180.357"/>
<polygon fill="midnightblue" stroke="midnightblue" points="1732.18,-155.415 1721.6,-155.958 1730.21,-162.132 1732.18,-155.415"/>
</g>
<!-- Node23 -->
<g id="node23" class="node"><title>Node23</title>
<g id="a_node23"><a xlink:href="classx265_1_1FrameEncoder.html#a6d4045d35bfe6b10c8d0dc39353be360" target="_top" xlink:title="x265::FrameEncoder\l::encodeSlice">
<polygon fill="white" stroke="black" points="1950.5,-131.394 1950.5,-161.394 2057.5,-161.394 2057.5,-131.394 1950.5,-131.394"/>
<text text-anchor="start" x="1958.5" y="-149.394" font-family="Helvetica,sans-Serif" font-size="10.00">x265::FrameEncoder</text>
<text text-anchor="middle" x="2004" y="-138.394" font-family="Helvetica,sans-Serif" font-size="10.00">::encodeSlice</text>
</a>
</g>
</g>
<!-- Node22&#45;&gt;Node23 -->
<g id="edge29" class="edge"><title>Node22&#45;&gt;Node23</title>
<path fill="none" stroke="midnightblue" d="M1766.45,-146.394C1823.65,-146.394 1900,-146.394 1950.29,-146.394"/>
<polygon fill="midnightblue" stroke="midnightblue" points="1766.36,-142.894 1756.36,-146.394 1766.36,-149.894 1766.36,-142.894"/>
</g>
<!-- Node23&#45;&gt;Node9 -->
<g id="edge30" class="edge"><title>Node23&#45;&gt;Node9</title>
<path fill="none" stroke="midnightblue" d="M2067.65,-151.579C2119.81,-155.896 2193.23,-161.972 2242.38,-166.04"/>
<polygon fill="midnightblue" stroke="midnightblue" points="2067.77,-148.077 2057.52,-150.74 2067.19,-155.053 2067.77,-148.077"/>
</g>
<!-- Node24&#45;&gt;Node4 -->
<g id="edge38" class="edge"><title>Node24&#45;&gt;Node4</title>
<path fill="none" stroke="midnightblue" d="M1145.72,-418.086C1165.69,-436.721 1201.05,-465.785 1238,-477.394 1299.91,-496.845 1325.05,-504.508 1384,-477.394 1406.34,-467.121 1400.11,-449.839 1420,-435.394 1429.25,-428.675 1440.13,-423.055 1450.74,-418.496"/>
<polygon fill="midnightblue" stroke="midnightblue" points="1148.02,-415.443 1138.38,-411.05 1143.18,-420.497 1148.02,-415.443"/>
</g>
<!-- Node24&#45;&gt;Node13 -->
<g id="edge39" class="edge"><title>Node24&#45;&gt;Node13</title>
<path fill="none" stroke="midnightblue" d="M1200.77,-411.982C1252.72,-417.12 1324.04,-418.912 1384,-401.394 1402.22,-396.069 1403.41,-387.634 1420,-378.394 1433.86,-370.671 1449.59,-362.941 1463.2,-356.558"/>
<polygon fill="midnightblue" stroke="midnightblue" points="1200.96,-408.483 1190.64,-410.914 1200.22,-415.444 1200.96,-408.483"/>
</g>
<!-- Node25 -->
<g id="node25" class="node"><title>Node25</title>
<g id="a_node25"><a xlink:href="classx265_1_1Analysis.html#a10f0a8d9d143faf8dc671c6f0982693d" target="_top" xlink:title="x265::Analysis::tryLossless">
<polygon fill="white" stroke="black" points="1242.5,-372.894 1242.5,-391.894 1379.5,-391.894 1379.5,-372.894 1242.5,-372.894"/>
<text text-anchor="middle" x="1311" y="-379.894" font-family="Helvetica,sans-Serif" font-size="10.00">x265::Analysis::tryLossless</text>
</a>
</g>
</g>
<!-- Node24&#45;&gt;Node25 -->
<g id="edge33" class="edge"><title>Node24&#45;&gt;Node25</title>
<path fill="none" stroke="midnightblue" d="M1201.29,-393.805C1214.88,-392.379 1229.04,-390.893 1242.47,-389.483"/>
<polygon fill="midnightblue" stroke="midnightblue" points="1200.62,-390.357 1191.04,-394.882 1201.35,-397.319 1200.62,-390.357"/>
</g>
<!-- Node25&#45;&gt;Node4 -->
<g id="edge34" class="edge"><title>Node25&#45;&gt;Node4</title>
<path fill="none" stroke="midnightblue" d="M1389.92,-391.239C1404.28,-392.869 1419.11,-394.553 1433,-396.129"/>
<polygon fill="midnightblue" stroke="midnightblue" points="1389.91,-387.715 1379.57,-390.065 1389.12,-394.67 1389.91,-387.715"/>
</g>
<!-- Node25&#45;&gt;Node11 -->
<g id="edge35" class="edge"><title>Node25&#45;&gt;Node11</title>
<path fill="none" stroke="midnightblue" d="M1377.68,-367.572C1379.93,-366.012 1382.04,-364.291 1384,-362.394 1422.74,-324.8 1386.42,-288.658 1420,-246.394 1430.21,-233.544 1445.17,-223.62 1459.19,-216.403"/>
<polygon fill="midnightblue" stroke="midnightblue" points="1375.44,-364.822 1368.51,-372.829 1378.92,-370.896 1375.44,-364.822"/>
</g>
<!-- Node25&#45;&gt;Node12 -->
<g id="edge36" class="edge"><title>Node25&#45;&gt;Node12</title>
<path fill="none" stroke="midnightblue" d="M1372,-369C1376.21,-367.083 1380.26,-364.893 1384,-362.394 1405.59,-347.975 1400.45,-333.47 1420,-316.394 1433.53,-304.58 1450.61,-294.233 1465.24,-286.449"/>
<polygon fill="midnightblue" stroke="midnightblue" points="1370.58,-365.8 1362.61,-372.778 1373.19,-372.295 1370.58,-365.8"/>
</g>
<!-- Node25&#45;&gt;Node13 -->
<g id="edge37" class="edge"><title>Node25&#45;&gt;Node13</title>
<path fill="none" stroke="midnightblue" d="M1364.71,-370.711C1385.95,-366.004 1410.65,-360.531 1432.91,-355.597"/>
<polygon fill="midnightblue" stroke="midnightblue" points="1363.91,-367.304 1354.91,-372.885 1365.43,-374.138 1363.91,-367.304"/>
</g>
<!-- Node26&#45;&gt;Node11 -->
<g id="edge42" class="edge"><title>Node26&#45;&gt;Node11</title>
<path fill="none" stroke="midnightblue" d="M1147.73,-244.403C1167.48,-222.15 1200.85,-189.864 1238,-176.394 1310.83,-149.987 1402.32,-170.181 1454.78,-186.39"/>
<polygon fill="midnightblue" stroke="midnightblue" points="1144.97,-242.238 1141.09,-252.094 1150.27,-246.814 1144.97,-242.238"/>
</g>
<!-- Node26&#45;&gt;Node12 -->
<g id="edge43" class="edge"><title>Node26&#45;&gt;Node12</title>
<path fill="none" stroke="midnightblue" d="M1211.98,-264.873C1220.76,-264.677 1229.56,-264.51 1238,-264.394 1302.88,-263.501 1319.14,-262.387 1384,-264.394 1399.82,-264.883 1416.86,-265.757 1432.79,-266.725"/>
<polygon fill="midnightblue" stroke="midnightblue" points="1211.61,-261.38 1201.7,-265.115 1211.78,-268.378 1211.61,-261.38"/>
</g>
<!-- Node26&#45;&gt;Node25 -->
<g id="edge41" class="edge"><title>Node26&#45;&gt;Node25</title>
<path fill="none" stroke="midnightblue" d="M1149.13,-290.017C1169.52,-311.597 1202.96,-343.528 1238,-362.394 1246,-366.699 1255,-370.145 1263.87,-372.88"/>
<polygon fill="midnightblue" stroke="midnightblue" points="1151.6,-287.53 1142.23,-282.578 1146.47,-292.29 1151.6,-287.53"/>
</g>
<!-- Node27 -->
<g id="node27" class="node"><title>Node27</title>
<g id="a_node27"><a xlink:href="classx265_1_1Analysis.html#addd72cb95590e2b2a6965d42d110eab3" target="_top" xlink:title="x265::Analysis::checkMerge2\lNx2N_rd0_4">
<polygon fill="white" stroke="black" points="1238,-186.394 1238,-216.394 1384,-216.394 1384,-186.394 1238,-186.394"/>
<text text-anchor="start" x="1246" y="-204.394" font-family="Helvetica,sans-Serif" font-size="10.00">x265::Analysis::checkMerge2</text>
<text text-anchor="middle" x="1311" y="-193.394" font-family="Helvetica,sans-Serif" font-size="10.00">Nx2N_rd0_4</text>
</a>
</g>
</g>
<!-- Node26&#45;&gt;Node27 -->
<g id="edge44" class="edge"><title>Node26&#45;&gt;Node27</title>
<path fill="none" stroke="midnightblue" d="M1180.14,-248.745C1208.14,-238.536 1242.38,-226.052 1268.67,-216.465"/>
<polygon fill="midnightblue" stroke="midnightblue" points="1178.72,-245.538 1170.53,-252.252 1181.12,-252.115 1178.72,-245.538"/>
</g>
<!-- Node28 -->
<g id="node28" class="node"><title>Node28</title>
<g id="a_node28"><a xlink:href="classx265_1_1Analysis.html#a0194a9da53aa95173fa1132ba3aea1c7" target="_top" xlink:title="x265::Analysis::checkMerge2\lNx2N_rd5_6">
<polygon fill="white" stroke="black" points="1238,-274.394 1238,-304.394 1384,-304.394 1384,-274.394 1238,-274.394"/>
<text text-anchor="start" x="1246" y="-292.394" font-family="Helvetica,sans-Serif" font-size="10.00">x265::Analysis::checkMerge2</text>
<text text-anchor="middle" x="1311" y="-281.394" font-family="Helvetica,sans-Serif" font-size="10.00">Nx2N_rd5_6</text>
</a>
</g>
</g>
<!-- Node26&#45;&gt;Node28 -->
<g id="edge47" class="edge"><title>Node26&#45;&gt;Node28</title>
<path fill="none" stroke="midnightblue" d="M1211.78,-277.456C1220.54,-278.52 1229.38,-279.595 1238,-280.642"/>
<polygon fill="midnightblue" stroke="midnightblue" points="1211.93,-273.948 1201.58,-276.216 1211.08,-280.897 1211.93,-273.948"/>
</g>
<!-- Node29 -->
<g id="node29" class="node"><title>Node29</title>
<g id="a_node29"><a xlink:href="classx265_1_1Analysis.html#a828daa3e9f1ed40a1af9f99f7ff7bb33" target="_top" xlink:title="x265::Analysis::checkInter\l_rd5_6">
<polygon fill="white" stroke="black" points="1244.5,-323.394 1244.5,-353.394 1377.5,-353.394 1377.5,-323.394 1244.5,-323.394"/>
<text text-anchor="start" x="1252.5" y="-341.394" font-family="Helvetica,sans-Serif" font-size="10.00">x265::Analysis::checkInter</text>
<text text-anchor="middle" x="1311" y="-330.394" font-family="Helvetica,sans-Serif" font-size="10.00">_rd5_6</text>
</a>
</g>
</g>
<!-- Node26&#45;&gt;Node29 -->
<g id="edge49" class="edge"><title>Node26&#45;&gt;Node29</title>
<path fill="none" stroke="midnightblue" d="M1172.53,-286.529C1192.37,-295.056 1216.25,-305.039 1238,-313.394 1246.77,-316.763 1256.21,-320.186 1265.28,-323.375"/>
<polygon fill="midnightblue" stroke="midnightblue" points="1173.7,-283.224 1163.13,-282.473 1170.93,-289.65 1173.7,-283.224"/>
</g>
<!-- Node27&#45;&gt;Node11 -->
<g id="edge45" class="edge"><title>Node27&#45;&gt;Node11</title>
<path fill="none" stroke="midnightblue" d="M1394.36,-201.394C1407.31,-201.394 1420.52,-201.394 1432.97,-201.394"/>
<polygon fill="midnightblue" stroke="midnightblue" points="1394.06,-197.894 1384.06,-201.394 1394.06,-204.894 1394.06,-197.894"/>
</g>
<!-- Node27&#45;&gt;Node12 -->
<g id="edge46" class="edge"><title>Node27&#45;&gt;Node12</title>
<path fill="none" stroke="midnightblue" d="M1361.12,-219.981C1391.1,-231.323 1428.93,-245.638 1457.06,-256.282"/>
<polygon fill="midnightblue" stroke="midnightblue" points="1362.28,-216.676 1351.69,-216.411 1359.8,-223.223 1362.28,-216.676"/>
</g>
<!-- Node28&#45;&gt;Node13 -->
<g id="edge48" class="edge"><title>Node28&#45;&gt;Node13</title>
<path fill="none" stroke="midnightblue" d="M1375.21,-307.16C1397.46,-313.416 1422.24,-320.381 1443.61,-326.387"/>
<polygon fill="midnightblue" stroke="midnightblue" points="1376.08,-303.771 1365.51,-304.435 1374.19,-310.51 1376.08,-303.771"/>
</g>
<!-- Node29&#45;&gt;Node13 -->
<g id="edge50" class="edge"><title>Node29&#45;&gt;Node13</title>
<path fill="none" stroke="midnightblue" d="M1387.93,-339.625C1402.8,-339.867 1418.26,-340.117 1432.71,-340.352"/>
<polygon fill="midnightblue" stroke="midnightblue" points="1387.8,-336.123 1377.74,-339.46 1387.69,-343.122 1387.8,-336.123"/>
</g>
</g>
</svg>
