<?xml version="1.0" encoding="UTF-8" standalone="no"?>
<!DOCTYPE svg PUBLIC "-//W3C//DTD SVG 1.1//EN"
 "http://www.w3.org/Graphics/SVG/1.1/DTD/svg11.dtd">
<!-- Generated by graphviz version 2.36.0 (20140111.2315)
 -->
<!-- Title: x265::Search::residualQTIntraChroma Pages: 1 -->
<svg width="1156pt" height="77pt"
 viewBox="0.00 0.00 1156.00 77.00" xmlns="http://www.w3.org/2000/svg" xmlns:xlink="http://www.w3.org/1999/xlink">
<g id="graph0" class="graph" transform="scale(1 1) rotate(0) translate(4 73)">
<title>x265::Search::residualQTIntraChroma</title>
<polygon fill="white" stroke="none" points="-4,4 -4,-73 1152,-73 1152,4 -4,4"/>
<!-- Node1 -->
<g id="node1" class="node"><title>Node1</title>
<polygon fill="#bfbfbf" stroke="black" points="0.5,-22 0.5,-52 147.5,-52 147.5,-22 0.5,-22"/>
<text text-anchor="start" x="8.5" y="-40" font-family="Helvetica,sans-Serif" font-size="10.00">x265::Search::residualQTIntra</text>
<text text-anchor="middle" x="74" y="-29" font-family="Helvetica,sans-Serif" font-size="10.00">Chroma</text>
</g>
<!-- Node2 -->
<g id="node2" class="node"><title>Node2</title>
<g id="a_node2"><a xlink:href="classx265_1_1Analysis.html#a88ad2880a5a8bcad5cfd5d6ea630b265" target="_top" xlink:title="x265::Analysis::encodeResidue">
<polygon fill="white" stroke="black" points="362.5,-49.5 362.5,-68.5 517.5,-68.5 517.5,-49.5 362.5,-49.5"/>
<text text-anchor="middle" x="440" y="-56.5" font-family="Helvetica,sans-Serif" font-size="10.00">x265::Analysis::encodeResidue</text>
</a>
</g>
</g>
<!-- Node1&#45;&gt;Node2 -->
<g id="edge1" class="edge"><title>Node1&#45;&gt;Node2</title>
<path fill="none" stroke="midnightblue" d="M157.833,-42.0064C219.247,-45.7182 302.347,-50.7408 362.259,-54.3618"/>
<polygon fill="midnightblue" stroke="midnightblue" points="157.979,-38.5089 147.786,-41.3992 157.557,-45.4962 157.979,-38.5089"/>
</g>
<!-- Node7 -->
<g id="node7" class="node"><title>Node7</title>
<g id="a_node7"><a xlink:href="classx265_1_1Search.html#a5284cffef18fe6884b268ea28f21f22f" target="_top" xlink:title="x265::Search::generateCoeff\lRecon">
<polygon fill="white" stroke="black" points="184,-0 184,-30 326,-30 326,-0 184,-0"/>
<text text-anchor="start" x="192" y="-18" font-family="Helvetica,sans-Serif" font-size="10.00">x265::Search::generateCoeff</text>
<text text-anchor="middle" x="255" y="-7" font-family="Helvetica,sans-Serif" font-size="10.00">Recon</text>
</a>
</g>
</g>
<!-- Node1&#45;&gt;Node7 -->
<g id="edge6" class="edge"><title>Node1&#45;&gt;Node7</title>
<path fill="none" stroke="midnightblue" d="M157.482,-26.8625C166.332,-25.7749 175.274,-24.6759 183.959,-23.6084"/>
<polygon fill="midnightblue" stroke="midnightblue" points="157.046,-23.3897 147.548,-28.0835 157.9,-30.3374 157.046,-23.3897"/>
</g>
<!-- Node3 -->
<g id="node3" class="node"><title>Node3</title>
<g id="a_node3"><a xlink:href="classx265_1_1Analysis.html#aaebc9de2ff98834c650244f3b58942c2" target="_top" xlink:title="x265::Analysis::compressCTU">
<polygon fill="white" stroke="black" points="554.5,-27.5 554.5,-46.5 705.5,-46.5 705.5,-27.5 554.5,-27.5"/>
<text text-anchor="middle" x="630" y="-34.5" font-family="Helvetica,sans-Serif" font-size="10.00">x265::Analysis::compressCTU</text>
</a>
</g>
</g>
<!-- Node2&#45;&gt;Node3 -->
<g id="edge2" class="edge"><title>Node2&#45;&gt;Node3</title>
<path fill="none" stroke="midnightblue" d="M527.72,-48.8519C536.61,-47.8116 545.587,-46.7611 554.331,-45.7379"/>
<polygon fill="midnightblue" stroke="midnightblue" points="527.263,-45.3814 517.738,-50.02 528.077,-52.3339 527.263,-45.3814"/>
</g>
<!-- Node4 -->
<g id="node4" class="node"><title>Node4</title>
<g id="a_node4"><a xlink:href="classx265_1_1FrameEncoder.html#a0ae85001572afd28238476542523ac5f" target="_top" xlink:title="x265::FrameEncoder\l::processRowEncoder">
<polygon fill="white" stroke="black" points="742.5,-22 742.5,-52 855.5,-52 855.5,-22 742.5,-22"/>
<text text-anchor="start" x="750.5" y="-40" font-family="Helvetica,sans-Serif" font-size="10.00">x265::FrameEncoder</text>
<text text-anchor="middle" x="799" y="-29" font-family="Helvetica,sans-Serif" font-size="10.00">::processRowEncoder</text>
</a>
</g>
</g>
<!-- Node3&#45;&gt;Node4 -->
<g id="edge3" class="edge"><title>Node3&#45;&gt;Node4</title>
<path fill="none" stroke="midnightblue" d="M715.86,-37C724.863,-37 733.845,-37 742.388,-37"/>
<polygon fill="midnightblue" stroke="midnightblue" points="715.708,-33.5001 705.708,-37 715.708,-40.5001 715.708,-33.5001"/>
</g>
<!-- Node5 -->
<g id="node5" class="node"><title>Node5</title>
<g id="a_node5"><a xlink:href="classx265_1_1FrameEncoder.html#acad645a8ece97d884895f8f7366b7d70" target="_top" xlink:title="x265::FrameEncoder\l::processRow">
<polygon fill="white" stroke="black" points="892.5,-22 892.5,-52 999.5,-52 999.5,-22 892.5,-22"/>
<text text-anchor="start" x="900.5" y="-40" font-family="Helvetica,sans-Serif" font-size="10.00">x265::FrameEncoder</text>
<text text-anchor="middle" x="946" y="-29" font-family="Helvetica,sans-Serif" font-size="10.00">::processRow</text>
</a>
</g>
</g>
<!-- Node4&#45;&gt;Node5 -->
<g id="edge4" class="edge"><title>Node4&#45;&gt;Node5</title>
<path fill="none" stroke="midnightblue" d="M865.877,-37C874.67,-37 883.594,-37 892.126,-37"/>
<polygon fill="midnightblue" stroke="midnightblue" points="865.646,-33.5001 855.646,-37 865.646,-40.5001 865.646,-33.5001"/>
</g>
<!-- Node6 -->
<g id="node6" class="node"><title>Node6</title>
<g id="a_node6"><a xlink:href="classx265_1_1FrameEncoder.html#ac4e9ce2e876c0cdb25c992c872fe4302" target="_top" xlink:title="x265::FrameEncoder\l::compressCTURows">
<polygon fill="white" stroke="red" points="1036,-22 1036,-52 1148,-52 1148,-22 1036,-22"/>
<text text-anchor="start" x="1044" y="-40" font-family="Helvetica,sans-Serif" font-size="10.00">x265::FrameEncoder</text>
<text text-anchor="middle" x="1092" y="-29" font-family="Helvetica,sans-Serif" font-size="10.00">::compressCTURows</text>
</a>
</g>
</g>
<!-- Node5&#45;&gt;Node6 -->
<g id="edge5" class="edge"><title>Node5&#45;&gt;Node6</title>
<path fill="none" stroke="midnightblue" d="M1009.83,-37C1018.48,-37 1027.3,-37 1035.79,-37"/>
<polygon fill="midnightblue" stroke="midnightblue" points="1009.8,-33.5001 999.803,-37 1009.8,-40.5001 1009.8,-33.5001"/>
</g>
<!-- Node8 -->
<g id="node8" class="node"><title>Node8</title>
<g id="a_node8"><a xlink:href="classx265_1_1Analysis.html#a30d2ff7eca5addbb0a6b3dfe14f09650" target="_top" xlink:title="x265::Analysis::compress\lInterCU_rd0_4">
<polygon fill="white" stroke="black" points="375,-0 375,-30 505,-30 505,-0 375,-0"/>
<text text-anchor="start" x="383" y="-18" font-family="Helvetica,sans-Serif" font-size="10.00">x265::Analysis::compress</text>
<text text-anchor="middle" x="440" y="-7" font-family="Helvetica,sans-Serif" font-size="10.00">InterCU_rd0_4</text>
</a>
</g>
</g>
<!-- Node7&#45;&gt;Node8 -->
<g id="edge7" class="edge"><title>Node7&#45;&gt;Node8</title>
<path fill="none" stroke="midnightblue" d="M336.474,-15C349.352,-15 362.526,-15 374.955,-15"/>
<polygon fill="midnightblue" stroke="midnightblue" points="336.229,-11.5001 326.229,-15 336.229,-18.5001 336.229,-11.5001"/>
</g>
<!-- Node8&#45;&gt;Node3 -->
<g id="edge8" class="edge"><title>Node8&#45;&gt;Node3</title>
<path fill="none" stroke="midnightblue" d="M515.352,-23.7007C528.205,-25.2049 541.571,-26.769 554.431,-28.2738"/>
<polygon fill="midnightblue" stroke="midnightblue" points="515.512,-20.1957 505.173,-22.5096 514.699,-27.1483 515.512,-20.1957"/>
</g>
</g>
</svg>
