<?xml version="1.0" encoding="UTF-8" standalone="no"?>
<!DOCTYPE svg PUBLIC "-//W3C//DTD SVG 1.1//EN"
 "http://www.w3.org/Graphics/SVG/1.1/DTD/svg11.dtd">
<!-- Generated by graphviz version 2.36.0 (20140111.2315)
 -->
<!-- Title: x265_qp2qScale Pages: 1 -->
<svg width="1294pt" height="453pt"
 viewBox="0.00 0.00 1294.00 453.14" xmlns="http://www.w3.org/2000/svg" xmlns:xlink="http://www.w3.org/1999/xlink">
<g id="graph0" class="graph" transform="scale(1 1) rotate(0) translate(4 449.14)">
<title>x265_qp2qScale</title>
<polygon fill="white" stroke="none" points="-4,4 -4,-449.14 1290,-449.14 1290,4 -4,4"/>
<!-- Node1 -->
<g id="node1" class="node"><title>Node1</title>
<polygon fill="#bfbfbf" stroke="black" points="0.5,-218.5 0.5,-237.5 89.5,-237.5 89.5,-218.5 0.5,-218.5"/>
<text text-anchor="middle" x="45" y="-225.5" font-family="Helvetica,sans-Serif" font-size="10.00">x265_qp2qScale</text>
</g>
<!-- Node2 -->
<g id="node2" class="node"><title>Node2</title>
<g id="a_node2"><a xlink:href="classx265_1_1FrameEncoder.html#a0ae85001572afd28238476542523ac5f" target="_top" xlink:title="x265::FrameEncoder\l::processRowEncoder">
<polygon fill="white" stroke="black" points="451.5,-352 451.5,-382 564.5,-382 564.5,-352 451.5,-352"/>
<text text-anchor="start" x="459.5" y="-370" font-family="Helvetica,sans-Serif" font-size="10.00">x265::FrameEncoder</text>
<text text-anchor="middle" x="508" y="-359" font-family="Helvetica,sans-Serif" font-size="10.00">::processRowEncoder</text>
</a>
</g>
</g>
<!-- Node1&#45;&gt;Node2 -->
<g id="edge1" class="edge"><title>Node1&#45;&gt;Node2</title>
<path fill="none" stroke="midnightblue" d="M49.405,-248.003C56.6091,-283.671 76.9499,-357.887 126,-394 229.377,-470.111 289.382,-446.821 414,-416 440.397,-409.471 467.571,-393.943 485.675,-382.103"/>
<polygon fill="midnightblue" stroke="midnightblue" points="52.7891,-247.059 47.5079,-237.875 45.9088,-248.348 52.7891,-247.059"/>
</g>
<!-- Node7 -->
<g id="node7" class="node"><title>Node7</title>
<g id="a_node7"><a xlink:href="classx265_1_1RateControl.html#a3026f42a6b82d279d2f6c9467fdaad9e" target="_top" xlink:title="x265::RateControl::\lRateControl">
<polygon fill="white" stroke="black" points="131,-0 131,-30 233,-30 233,-0 131,-0"/>
<text text-anchor="start" x="139" y="-18" font-family="Helvetica,sans-Serif" font-size="10.00">x265::RateControl::</text>
<text text-anchor="middle" x="182" y="-7" font-family="Helvetica,sans-Serif" font-size="10.00">RateControl</text>
</a>
</g>
</g>
<!-- Node1&#45;&gt;Node7 -->
<g id="edge6" class="edge"><title>Node1&#45;&gt;Node7</title>
<path fill="none" stroke="midnightblue" d="M50.0502,-208.68C58.4818,-172.581 80.9928,-94.1146 126,-45 131.364,-39.1461 138.142,-34.1914 145.09,-30.099"/>
<polygon fill="midnightblue" stroke="midnightblue" points="46.6333,-207.922 47.8762,-218.443 53.466,-209.443 46.6333,-207.922"/>
</g>
<!-- Node8 -->
<g id="node8" class="node"><title>Node8</title>
<g id="a_node8"><a xlink:href="classx265_1_1RateControl.html#a876ac228bb24724125ce1caadbff73ec" target="_top" xlink:title="x265::RateControl::init">
<polygon fill="white" stroke="black" points="450.5,-150.5 450.5,-169.5 565.5,-169.5 565.5,-150.5 450.5,-150.5"/>
<text text-anchor="middle" x="508" y="-157.5" font-family="Helvetica,sans-Serif" font-size="10.00">x265::RateControl::init</text>
</a>
</g>
</g>
<!-- Node1&#45;&gt;Node8 -->
<g id="edge7" class="edge"><title>Node1&#45;&gt;Node8</title>
<path fill="none" stroke="midnightblue" d="M58.8397,-210.293C72.9801,-192.456 97.526,-166.039 126,-155 244.115,-109.209 398.717,-134.724 469.123,-150.487"/>
<polygon fill="midnightblue" stroke="midnightblue" points="56.0473,-208.183 52.7623,-218.256 61.6117,-212.43 56.0473,-208.183"/>
</g>
<!-- Node12 -->
<g id="node12" class="node"><title>Node12</title>
<g id="a_node12"><a xlink:href="classx265_1_1RateControl.html#a20bb1fccf54857b75ef70fcc61406bb7" target="_top" xlink:title="x265::RateControl::\lrateEstimateQscale">
<polygon fill="white" stroke="black" points="746.5,-213 746.5,-243 849.5,-243 849.5,-213 746.5,-213"/>
<text text-anchor="start" x="754.5" y="-231" font-family="Helvetica,sans-Serif" font-size="10.00">x265::RateControl::</text>
<text text-anchor="middle" x="798" y="-220" font-family="Helvetica,sans-Serif" font-size="10.00">rateEstimateQscale</text>
</a>
</g>
</g>
<!-- Node1&#45;&gt;Node12 -->
<g id="edge19" class="edge"><title>Node1&#45;&gt;Node12</title>
<path fill="none" stroke="midnightblue" d="M82.8948,-240.746C96.3197,-244.936 111.707,-249.226 126,-252 221.079,-270.451 246.147,-272 343,-272 343,-272 343,-272 509,-272 592.963,-272 689.132,-253.499 746.374,-240.491"/>
<polygon fill="midnightblue" stroke="midnightblue" points="83.6531,-237.314 73.0618,-237.588 81.5126,-243.979 83.6531,-237.314"/>
</g>
<!-- Node14 -->
<g id="node14" class="node"><title>Node14</title>
<g id="a_node14"><a xlink:href="classx265_1_1RateControl.html#a26331c267938f5e6e49ad5b07e4ff013" target="_top" xlink:title="x265::RateControl::\lrateControlEnd">
<polygon fill="white" stroke="black" points="747,-104 747,-134 849,-134 849,-104 747,-104"/>
<text text-anchor="start" x="755" y="-122" font-family="Helvetica,sans-Serif" font-size="10.00">x265::RateControl::</text>
<text text-anchor="middle" x="798" y="-111" font-family="Helvetica,sans-Serif" font-size="10.00">rateControlEnd</text>
</a>
</g>
</g>
<!-- Node1&#45;&gt;Node14 -->
<g id="edge31" class="edge"><title>Node1&#45;&gt;Node14</title>
<path fill="none" stroke="midnightblue" d="M54.9373,-209.545C67.3572,-186.087 92.182,-146.324 126,-127 210.534,-78.6955 245.638,-97 343,-97 343,-97 343,-97 509,-97 592.618,-97 689.496,-106.334 746.883,-112.843"/>
<polygon fill="midnightblue" stroke="midnightblue" points="51.7999,-207.993 50.3839,-218.493 58.0386,-211.168 51.7999,-207.993"/>
</g>
<!-- Node15 -->
<g id="node15" class="node"><title>Node15</title>
<g id="a_node15"><a xlink:href="classx265_1_1RateControl.html#add904797841a6b6c624e925968d0260a" target="_top" xlink:title="x265::RateControl::\lgetDiffLimitedQScale">
<polygon fill="white" stroke="black" points="127,-164 127,-194 237,-194 237,-164 127,-164"/>
<text text-anchor="start" x="135" y="-182" font-family="Helvetica,sans-Serif" font-size="10.00">x265::RateControl::</text>
<text text-anchor="middle" x="182" y="-171" font-family="Helvetica,sans-Serif" font-size="10.00">getDiffLimitedQScale</text>
</a>
</g>
</g>
<!-- Node1&#45;&gt;Node15 -->
<g id="edge16" class="edge"><title>Node1&#45;&gt;Node15</title>
<path fill="none" stroke="midnightblue" d="M81.7834,-215.012C99.5446,-208.565 121.097,-200.742 139.572,-194.037"/>
<polygon fill="midnightblue" stroke="midnightblue" points="80.5556,-211.734 72.3498,-218.436 82.944,-218.314 80.5556,-211.734"/>
</g>
<!-- Node17 -->
<g id="node17" class="node"><title>Node17</title>
<g id="a_node17"><a xlink:href="classx265_1_1RateControl.html#a145b4c751f9bdfd8ad8f0241745a1b0c" target="_top" xlink:title="x265::RateControl::\lrateControlUpdateStats">
<polygon fill="white" stroke="black" points="284.5,-377 284.5,-407 403.5,-407 403.5,-377 284.5,-377"/>
<text text-anchor="start" x="292.5" y="-395" font-family="Helvetica,sans-Serif" font-size="10.00">x265::RateControl::</text>
<text text-anchor="middle" x="344" y="-384" font-family="Helvetica,sans-Serif" font-size="10.00">rateControlUpdateStats</text>
</a>
</g>
</g>
<!-- Node1&#45;&gt;Node17 -->
<g id="edge20" class="edge"><title>Node1&#45;&gt;Node17</title>
<path fill="none" stroke="midnightblue" d="M51.3883,-247.452C60.9247,-277.89 83.8597,-336.168 126,-364 172.753,-394.878 237.668,-399.47 284.297,-397.815"/>
<polygon fill="midnightblue" stroke="midnightblue" points="54.6675,-246.199 48.4703,-237.606 47.956,-248.188 54.6675,-246.199"/>
</g>
<!-- Node18 -->
<g id="node18" class="node"><title>Node18</title>
<g id="a_node18"><a xlink:href="classx265_1_1RateControl.html#a9e8c75424270fc93216b1f0a1cbcef6d" target="_top" xlink:title="x265::RateControl::\lclipQscale">
<polygon fill="white" stroke="black" points="131,-213 131,-243 233,-243 233,-213 131,-213"/>
<text text-anchor="start" x="139" y="-231" font-family="Helvetica,sans-Serif" font-size="10.00">x265::RateControl::</text>
<text text-anchor="middle" x="182" y="-220" font-family="Helvetica,sans-Serif" font-size="10.00">clipQscale</text>
</a>
</g>
</g>
<!-- Node1&#45;&gt;Node18 -->
<g id="edge22" class="edge"><title>Node1&#45;&gt;Node18</title>
<path fill="none" stroke="midnightblue" d="M99.8652,-228C110.081,-228 120.732,-228 130.828,-228"/>
<polygon fill="midnightblue" stroke="midnightblue" points="99.8307,-224.5 89.8306,-228 99.8306,-231.5 99.8307,-224.5"/>
</g>
<!-- Node19 -->
<g id="node19" class="node"><title>Node19</title>
<g id="a_node19"><a xlink:href="classx265_1_1RateControl.html#a7f16f7a200441c356c6fe14ba8d99568" target="_top" xlink:title="x265::RateControl::\lpredictRowsSizeSum">
<polygon fill="white" stroke="black" points="126.5,-301 126.5,-331 237.5,-331 237.5,-301 126.5,-301"/>
<text text-anchor="start" x="134.5" y="-319" font-family="Helvetica,sans-Serif" font-size="10.00">x265::RateControl::</text>
<text text-anchor="middle" x="182" y="-308" font-family="Helvetica,sans-Serif" font-size="10.00">predictRowsSizeSum</text>
</a>
</g>
</g>
<!-- Node1&#45;&gt;Node19 -->
<g id="edge25" class="edge"><title>Node1&#45;&gt;Node19</title>
<path fill="none" stroke="midnightblue" d="M66.1752,-243.733C82.0573,-255.845 104.951,-272.705 126,-286 134.185,-291.169 143.326,-296.37 151.769,-300.956"/>
<polygon fill="midnightblue" stroke="midnightblue" points="68.1902,-240.868 58.1294,-237.546 63.9231,-246.417 68.1902,-240.868"/>
</g>
<!-- Node20 -->
<g id="node20" class="node"><title>Node20</title>
<g id="a_node20"><a xlink:href="classx265_1_1RateControl.html#a9048fff1bfee4305bff8a77ec45b813f" target="_top" xlink:title="x265::RateControl::\lrowDiagonalVbvRateControl">
<polygon fill="white" stroke="black" points="274,-328 274,-358 414,-358 414,-328 274,-328"/>
<text text-anchor="start" x="282" y="-346" font-family="Helvetica,sans-Serif" font-size="10.00">x265::RateControl::</text>
<text text-anchor="middle" x="344" y="-335" font-family="Helvetica,sans-Serif" font-size="10.00">rowDiagonalVbvRateControl</text>
</a>
</g>
</g>
<!-- Node1&#45;&gt;Node20 -->
<g id="edge28" class="edge"><title>Node1&#45;&gt;Node20</title>
<path fill="none" stroke="midnightblue" d="M53.0347,-246.826C64.0341,-273.2 88.0595,-320.142 126,-340 171.065,-363.587 228.946,-363.131 273.595,-357.431"/>
<polygon fill="midnightblue" stroke="midnightblue" points="56.2838,-245.524 49.3408,-237.522 49.7777,-248.107 56.2838,-245.524"/>
</g>
<!-- Node21 -->
<g id="node21" class="node"><title>Node21</title>
<g id="a_node21"><a xlink:href="classx265_1_1RateControl.html#ab7fe3380cc234b450909f871e9d0bd0a" target="_top" xlink:title="x265::RateControl::\lupdateVbv">
<polygon fill="white" stroke="black" points="293,-38 293,-68 395,-68 395,-38 293,-38"/>
<text text-anchor="start" x="301" y="-56" font-family="Helvetica,sans-Serif" font-size="10.00">x265::RateControl::</text>
<text text-anchor="middle" x="344" y="-45" font-family="Helvetica,sans-Serif" font-size="10.00">updateVbv</text>
</a>
</g>
</g>
<!-- Node1&#45;&gt;Node21 -->
<g id="edge29" class="edge"><title>Node1&#45;&gt;Node21</title>
<path fill="none" stroke="midnightblue" d="M50.778,-208.23C59.6498,-176.148 81.9097,-113.294 126,-83 175.213,-49.1864 245.68,-45.5639 292.822,-47.819"/>
<polygon fill="midnightblue" stroke="midnightblue" points="47.3172,-207.631 48.1844,-218.19 54.0913,-209.395 47.3172,-207.631"/>
</g>
<!-- Node3 -->
<g id="node3" class="node"><title>Node3</title>
<g id="a_node3"><a xlink:href="classx265_1_1FrameEncoder.html#acad645a8ece97d884895f8f7366b7d70" target="_top" xlink:title="x265::FrameEncoder\l::processRow">
<polygon fill="white" stroke="black" points="602.5,-326 602.5,-356 709.5,-356 709.5,-326 602.5,-326"/>
<text text-anchor="start" x="610.5" y="-344" font-family="Helvetica,sans-Serif" font-size="10.00">x265::FrameEncoder</text>
<text text-anchor="middle" x="656" y="-333" font-family="Helvetica,sans-Serif" font-size="10.00">::processRow</text>
</a>
</g>
</g>
<!-- Node2&#45;&gt;Node3 -->
<g id="edge2" class="edge"><title>Node2&#45;&gt;Node3</title>
<path fill="none" stroke="midnightblue" d="M574.624,-355.314C583.935,-353.655 593.407,-351.969 602.428,-350.362"/>
<polygon fill="midnightblue" stroke="midnightblue" points="573.844,-351.897 564.613,-357.096 575.072,-358.789 573.844,-351.897"/>
</g>
<!-- Node4 -->
<g id="node4" class="node"><title>Node4</title>
<g id="a_node4"><a xlink:href="classx265_1_1FrameEncoder.html#ac4e9ce2e876c0cdb25c992c872fe4302" target="_top" xlink:title="x265::FrameEncoder\l::compressCTURows">
<polygon fill="white" stroke="black" points="886,-278 886,-308 998,-308 998,-278 886,-278"/>
<text text-anchor="start" x="894" y="-296" font-family="Helvetica,sans-Serif" font-size="10.00">x265::FrameEncoder</text>
<text text-anchor="middle" x="942" y="-285" font-family="Helvetica,sans-Serif" font-size="10.00">::compressCTURows</text>
</a>
</g>
</g>
<!-- Node3&#45;&gt;Node4 -->
<g id="edge3" class="edge"><title>Node3&#45;&gt;Node4</title>
<path fill="none" stroke="midnightblue" d="M719.727,-330.398C769.359,-322.01 838.004,-310.408 885.621,-302.36"/>
<polygon fill="midnightblue" stroke="midnightblue" points="719.029,-326.966 709.753,-332.084 720.196,-333.869 719.029,-326.966"/>
</g>
<!-- Node5 -->
<g id="node5" class="node"><title>Node5</title>
<g id="a_node5"><a xlink:href="classx265_1_1FrameEncoder.html#a2f5c4c0f1a4e36fce4c9b87eb7ec4973" target="_top" xlink:title="x265::FrameEncoder\l::compressFrame">
<polygon fill="white" stroke="black" points="1034.5,-213 1034.5,-243 1141.5,-243 1141.5,-213 1034.5,-213"/>
<text text-anchor="start" x="1042.5" y="-231" font-family="Helvetica,sans-Serif" font-size="10.00">x265::FrameEncoder</text>
<text text-anchor="middle" x="1088" y="-220" font-family="Helvetica,sans-Serif" font-size="10.00">::compressFrame</text>
</a>
</g>
</g>
<!-- Node4&#45;&gt;Node5 -->
<g id="edge4" class="edge"><title>Node4&#45;&gt;Node5</title>
<path fill="none" stroke="midnightblue" d="M985.708,-273.722C1007.38,-263.938 1033.33,-252.227 1053.53,-243.106"/>
<polygon fill="midnightblue" stroke="midnightblue" points="984.073,-270.62 976.398,-277.924 986.953,-277 984.073,-270.62"/>
</g>
<!-- Node6 -->
<g id="node6" class="node"><title>Node6</title>
<g id="a_node6"><a xlink:href="classx265_1_1FrameEncoder.html#aef61f29b9e93b3af9255d96236bc90a7" target="_top" xlink:title="x265::FrameEncoder\l::threadMain">
<polygon fill="white" stroke="black" points="1178.5,-213 1178.5,-243 1285.5,-243 1285.5,-213 1178.5,-213"/>
<text text-anchor="start" x="1186.5" y="-231" font-family="Helvetica,sans-Serif" font-size="10.00">x265::FrameEncoder</text>
<text text-anchor="middle" x="1232" y="-220" font-family="Helvetica,sans-Serif" font-size="10.00">::threadMain</text>
</a>
</g>
</g>
<!-- Node5&#45;&gt;Node6 -->
<g id="edge5" class="edge"><title>Node5&#45;&gt;Node6</title>
<path fill="none" stroke="midnightblue" d="M1151.99,-228C1160.7,-228 1169.58,-228 1178.08,-228"/>
<polygon fill="midnightblue" stroke="midnightblue" points="1151.88,-224.5 1141.88,-228 1151.88,-231.5 1151.88,-224.5"/>
</g>
<!-- Node9 -->
<g id="node9" class="node"><title>Node9</title>
<g id="a_node9"><a xlink:href="classx265_1_1Encoder.html#a01e97423efe4bdd957c53f8d59fe2b74" target="_top" xlink:title="x265::Encoder::init">
<polygon fill="white" stroke="black" points="607,-175.5 607,-194.5 705,-194.5 705,-175.5 607,-175.5"/>
<text text-anchor="middle" x="656" y="-182.5" font-family="Helvetica,sans-Serif" font-size="10.00">x265::Encoder::init</text>
</a>
</g>
</g>
<!-- Node8&#45;&gt;Node9 -->
<g id="edge8" class="edge"><title>Node8&#45;&gt;Node9</title>
<path fill="none" stroke="midnightblue" d="M574.477,-171.212C585.317,-173.068 596.38,-174.962 606.698,-176.729"/>
<polygon fill="midnightblue" stroke="midnightblue" points="575.06,-167.761 564.613,-169.523 573.879,-174.66 575.06,-167.761"/>
</g>
<!-- Node11 -->
<g id="node11" class="node"><title>Node11</title>
<g id="a_node11"><a xlink:href="classx265_1_1RateControl.html#a707ab4308990444a40f1fb4c2d2f4f48" target="_top" xlink:title="x265::RateControl::\lcheckAndResetABR">
<polygon fill="white" stroke="black" points="602.5,-126 602.5,-156 709.5,-156 709.5,-126 602.5,-126"/>
<text text-anchor="start" x="610.5" y="-144" font-family="Helvetica,sans-Serif" font-size="10.00">x265::RateControl::</text>
<text text-anchor="middle" x="656" y="-133" font-family="Helvetica,sans-Serif" font-size="10.00">checkAndResetABR</text>
</a>
</g>
</g>
<!-- Node8&#45;&gt;Node11 -->
<g id="edge10" class="edge"><title>Node8&#45;&gt;Node11</title>
<path fill="none" stroke="midnightblue" d="M575.827,-151.303C584.721,-150.146 593.738,-148.972 602.345,-147.852"/>
<polygon fill="midnightblue" stroke="midnightblue" points="575.33,-147.838 565.865,-152.6 576.234,-154.78 575.33,-147.838"/>
</g>
<!-- Node10 -->
<g id="node10" class="node"><title>Node10</title>
<g id="a_node10"><a xlink:href="x265_8h.html#add639f6af182534d265ef22d4bf91f90" target="_top" xlink:title="x265_encoder_open">
<polygon fill="white" stroke="black" points="746,-174.5 746,-193.5 850,-193.5 850,-174.5 746,-174.5"/>
<text text-anchor="middle" x="798" y="-181.5" font-family="Helvetica,sans-Serif" font-size="10.00">x265_encoder_open</text>
</a>
</g>
</g>
<!-- Node9&#45;&gt;Node10 -->
<g id="edge9" class="edge"><title>Node9&#45;&gt;Node10</title>
<path fill="none" stroke="midnightblue" d="M715.208,-184.584C725.383,-184.512 735.9,-184.436 745.866,-184.365"/>
<polygon fill="midnightblue" stroke="midnightblue" points="715.155,-181.084 705.18,-184.656 715.205,-188.084 715.155,-181.084"/>
</g>
<!-- Node11&#45;&gt;Node12 -->
<g id="edge11" class="edge"><title>Node11&#45;&gt;Node12</title>
<path fill="none" stroke="midnightblue" d="M702.559,-161.133C705.132,-162.686 707.632,-164.31 710,-166 728.675,-179.33 727.426,-189.53 746,-203 750.949,-206.589 756.493,-209.906 762.052,-212.872"/>
<polygon fill="midnightblue" stroke="midnightblue" points="704.052,-157.958 693.614,-156.142 700.641,-164.071 704.052,-157.958"/>
</g>
<!-- Node11&#45;&gt;Node14 -->
<g id="edge14" class="edge"><title>Node11&#45;&gt;Node14</title>
<path fill="none" stroke="midnightblue" d="M719.429,-131.19C728.645,-129.742 738.038,-128.266 746.959,-126.864"/>
<polygon fill="midnightblue" stroke="midnightblue" points="718.865,-127.735 709.529,-132.745 719.951,-134.651 718.865,-127.735"/>
</g>
<!-- Node13 -->
<g id="node13" class="node"><title>Node13</title>
<g id="a_node13"><a xlink:href="classx265_1_1RateControl.html#a6453a04a36d66b87ed8a23df88e75326" target="_top" xlink:title="x265::RateControl::\lrateControlStart">
<polygon fill="white" stroke="black" points="891,-213 891,-243 993,-243 993,-213 891,-213"/>
<text text-anchor="start" x="899" y="-231" font-family="Helvetica,sans-Serif" font-size="10.00">x265::RateControl::</text>
<text text-anchor="middle" x="942" y="-220" font-family="Helvetica,sans-Serif" font-size="10.00">rateControlStart</text>
</a>
</g>
</g>
<!-- Node12&#45;&gt;Node13 -->
<g id="edge12" class="edge"><title>Node12&#45;&gt;Node13</title>
<path fill="none" stroke="midnightblue" d="M860.053,-228C870.37,-228 880.973,-228 890.967,-228"/>
<polygon fill="midnightblue" stroke="midnightblue" points="859.864,-224.5 849.864,-228 859.864,-231.5 859.864,-224.5"/>
</g>
<!-- Node13&#45;&gt;Node5 -->
<g id="edge13" class="edge"><title>Node13&#45;&gt;Node5</title>
<path fill="none" stroke="midnightblue" d="M1003.51,-228C1013.8,-228 1024.41,-228 1034.47,-228"/>
<polygon fill="midnightblue" stroke="midnightblue" points="1003.36,-224.5 993.364,-228 1003.36,-231.5 1003.36,-224.5"/>
</g>
<!-- Node14&#45;&gt;Node5 -->
<g id="edge15" class="edge"><title>Node14&#45;&gt;Node5</title>
<path fill="none" stroke="midnightblue" d="M848.133,-137.595C904.327,-158.863 995.246,-193.274 1047.2,-212.938"/>
<polygon fill="midnightblue" stroke="midnightblue" points="849.334,-134.308 838.743,-134.042 846.856,-140.855 849.334,-134.308"/>
</g>
<!-- Node16 -->
<g id="node16" class="node"><title>Node16</title>
<g id="a_node16"><a xlink:href="classx265_1_1RateControl.html#ab62a87de35962cdad349f03adc82a7ee" target="_top" xlink:title="x265::RateControl::\linitPass2">
<polygon fill="white" stroke="black" points="293,-164 293,-194 395,-194 395,-164 293,-164"/>
<text text-anchor="start" x="301" y="-182" font-family="Helvetica,sans-Serif" font-size="10.00">x265::RateControl::</text>
<text text-anchor="middle" x="344" y="-171" font-family="Helvetica,sans-Serif" font-size="10.00">initPass2</text>
</a>
</g>
</g>
<!-- Node15&#45;&gt;Node16 -->
<g id="edge17" class="edge"><title>Node15&#45;&gt;Node16</title>
<path fill="none" stroke="midnightblue" d="M247.496,-179C262.631,-179 278.536,-179 292.93,-179"/>
<polygon fill="midnightblue" stroke="midnightblue" points="247.169,-175.5 237.169,-179 247.169,-182.5 247.169,-175.5"/>
</g>
<!-- Node16&#45;&gt;Node8 -->
<g id="edge18" class="edge"><title>Node16&#45;&gt;Node8</title>
<path fill="none" stroke="midnightblue" d="M405.401,-171.916C420.153,-170.186 435.882,-168.341 450.447,-166.633"/>
<polygon fill="midnightblue" stroke="midnightblue" points="404.894,-168.451 395.37,-173.092 405.709,-175.404 404.894,-168.451"/>
</g>
<!-- Node17&#45;&gt;Node2 -->
<g id="edge21" class="edge"><title>Node17&#45;&gt;Node2</title>
<path fill="none" stroke="midnightblue" d="M413.865,-381.373C426.371,-379.443 439.272,-377.452 451.338,-375.59"/>
<polygon fill="midnightblue" stroke="midnightblue" points="413.293,-377.919 403.944,-382.904 414.361,-384.838 413.293,-377.919"/>
</g>
<!-- Node18&#45;&gt;Node12 -->
<g id="edge24" class="edge"><title>Node18&#45;&gt;Node12</title>
<path fill="none" stroke="midnightblue" d="M243.435,-228C364.389,-228 634.23,-228 746.491,-228"/>
<polygon fill="midnightblue" stroke="midnightblue" points="243.246,-224.5 233.246,-228 243.246,-231.5 243.246,-224.5"/>
</g>
<!-- Node18&#45;&gt;Node16 -->
<g id="edge23" class="edge"><title>Node18&#45;&gt;Node16</title>
<path fill="none" stroke="midnightblue" d="M242.144,-209.887C259.154,-204.678 277.516,-199.054 293.852,-194.052"/>
<polygon fill="midnightblue" stroke="midnightblue" points="240.848,-206.624 232.311,-212.899 242.897,-213.317 240.848,-206.624"/>
</g>
<!-- Node19&#45;&gt;Node20 -->
<g id="edge26" class="edge"><title>Node19&#45;&gt;Node20</title>
<path fill="none" stroke="midnightblue" d="M247.634,-326.907C256.288,-328.367 265.192,-329.87 273.918,-331.342"/>
<polygon fill="midnightblue" stroke="midnightblue" points="248.058,-323.429 237.615,-325.216 246.894,-330.332 248.058,-323.429"/>
</g>
<!-- Node20&#45;&gt;Node2 -->
<g id="edge27" class="edge"><title>Node20&#45;&gt;Node2</title>
<path fill="none" stroke="midnightblue" d="M424.098,-354.718C433.278,-356.078 442.49,-357.443 451.263,-358.743"/>
<polygon fill="midnightblue" stroke="midnightblue" points="424.577,-351.251 414.172,-353.248 423.552,-358.176 424.577,-351.251"/>
</g>
<!-- Node21&#45;&gt;Node14 -->
<g id="edge30" class="edge"><title>Node21&#45;&gt;Node14</title>
<path fill="none" stroke="midnightblue" d="M405.465,-52.2848C478.61,-52.7136 605.002,-57.6196 710,-83 729.702,-87.7624 750.729,-96.3575 767.176,-103.955"/>
<polygon fill="midnightblue" stroke="midnightblue" points="405.08,-48.7836 395.069,-52.2521 405.057,-55.7836 405.08,-48.7836"/>
</g>
</g>
</svg>
