<?xml version="1.0" encoding="UTF-8" standalone="no"?>
<!DOCTYPE svg PUBLIC "-//W3C//DTD SVG 1.1//EN"
 "http://www.w3.org/Graphics/SVG/1.1/DTD/svg11.dtd">
<!-- Generated by graphviz version 2.36.0 (20140111.2315)
 -->
<!-- Title: x265_exp2fix8 Pages: 1 -->
<!--zoomable 215 -->
<svg id="main" version="1.1" xmlns="http://www.w3.org/2000/svg" xmlns:xlink="http://www.w3.org/1999/xlink" xml:space="preserve" onload="init(evt)">
<style type="text/css"><![CDATA[
.edge:hover path { stroke: red; }
.edge:hover polygon { stroke: red; fill: red; }
]]></style>
<script type="text/javascript"><![CDATA[
var edges = document.getElementsByTagName('g');
if (edges && edges.length) {
  for (var i=0;i<edges.length;i++) {
    if (edges[i].id.substr(0,4)=='edge') {
      edges[i].setAttribute('class','edge');
    }
  }
}
]]></script>
        <defs>
                <circle id="rim" cx="0" cy="0" r="7"/>
                <circle id="rim2" cx="0" cy="0" r="3.5"/>
                <g id="zoomPlus">
                        <use xlink:href="#rim" fill="#404040">
                                <set attributeName="fill" to="#808080" begin="zoomplus.mouseover" end="zoomplus.mouseout"/>
                        </use>
                        <path d="M-4,0h8M0,-4v8" fill="none" stroke="white" stroke-width="1.5" pointer-events="none"/>
                </g>
                <g id="zoomMin">
                        <use xlink:href="#rim" fill="#404040">
                                <set attributeName="fill" to="#808080" begin="zoomminus.mouseover" end="zoomminus.mouseout"/>
                        </use>
                        <path d="M-4,0h8" fill="none" stroke="white" stroke-width="1.5" pointer-events="none"/>
                </g>
                <g id="dirArrow">
                        <path fill="none" stroke="white" stroke-width="1.5" d="M0,-3.0v7 M-2.5,-0.5L0,-3.0L2.5,-0.5"/>
                </g>
               <g id="resetDef">
                       <use xlink:href="#rim2" fill="#404040">
                               <set attributeName="fill" to="#808080" begin="reset.mouseover" end="reset.mouseout"/>
                       </use>
               </g>
        </defs>

<script type="text/javascript">
var viewWidth = 1564;
var viewHeight = 215;
var sectionId = 'dynsection-1';
</script>
<script xlink:href="svgpan.js"/>
<svg id="graph" class="graph">
<g id="viewport">
<title>x265_exp2fix8</title>
<polygon fill="white" stroke="none" points="-4,4 -4,-211 1560,-211 1560,4 -4,4"/>
<!-- Node1 -->
<g id="node1" class="node"><title>Node1</title>
<polygon fill="#bfbfbf" stroke="black" points="0,-119.5 0,-138.5 80,-138.5 80,-119.5 0,-119.5"/>
<text text-anchor="middle" x="40" y="-126.5" font-family="Helvetica,sans-Serif" font-size="10.00">x265_exp2fix8</text>
</g>
<!-- Node2 -->
<g id="node2" class="node"><title>Node2</title>
<g id="a_node2"><a xlink:href="classx265_1_1RateControl.html#a1b6e63ee8a14d7d176ddc492f3893b7f" target="_top" xlink:title="x265::RateControl::\lcalcAdaptiveQuantFrame">
<polygon fill="white" stroke="black" points="124.5,-177 124.5,-207 251.5,-207 251.5,-177 124.5,-177"/>
<text text-anchor="start" x="132.5" y="-195" font-family="Helvetica,sans-Serif" font-size="10.00">x265::RateControl::</text>
<text text-anchor="middle" x="188" y="-184" font-family="Helvetica,sans-Serif" font-size="10.00">calcAdaptiveQuantFrame</text>
</a>
</g>
</g>
<!-- Node1&#45;&gt;Node2 -->
<g id="edge1" class="edge"><title>Node1&#45;&gt;Node2</title>
<path fill="none" stroke="midnightblue" d="M71.9546,-142.742C85.4609,-148.707 101.494,-155.745 116,-162 127.428,-166.928 139.922,-172.235 151.201,-176.995"/>
<polygon fill="midnightblue" stroke="midnightblue" points="73.1857,-139.46 62.6245,-138.615 70.3541,-145.861 73.1857,-139.46"/>
</g>
<!-- Node6 -->
<g id="node6" class="node"><title>Node6</title>
<g id="a_node6"><a xlink:href="classx265_1_1RateControl.html#a9b138cb4a223f9c23abb89e5099258d5" target="_top" xlink:title="x265::RateControl::\lcuTreeReadFor2Pass">
<polygon fill="white" stroke="black" points="321,-144 321,-174 433,-174 433,-144 321,-144"/>
<text text-anchor="start" x="329" y="-162" font-family="Helvetica,sans-Serif" font-size="10.00">x265::RateControl::</text>
<text text-anchor="middle" x="377" y="-151" font-family="Helvetica,sans-Serif" font-size="10.00">cuTreeReadFor2Pass</text>
</a>
</g>
</g>
<!-- Node1&#45;&gt;Node6 -->
<g id="edge7" class="edge"><title>Node1&#45;&gt;Node6</title>
<path fill="none" stroke="midnightblue" d="M90.3073,-133.416C151.812,-138.923 256.668,-148.314 320.801,-154.057"/>
<polygon fill="midnightblue" stroke="midnightblue" points="90.3567,-129.906 80.0844,-132.5 89.7323,-136.878 90.3567,-129.906"/>
</g>
<!-- Node7 -->
<g id="node7" class="node"><title>Node7</title>
<g id="a_node7"><a xlink:href="classx265_1_1Lookahead.html#a8aa7fba019ad6f8db10af9cac45edca6" target="_top" xlink:title="x265::Lookahead::getEstimated\lPictureCost">
<polygon fill="white" stroke="black" points="299.5,-95 299.5,-125 454.5,-125 454.5,-95 299.5,-95"/>
<text text-anchor="start" x="307.5" y="-113" font-family="Helvetica,sans-Serif" font-size="10.00">x265::Lookahead::getEstimated</text>
<text text-anchor="middle" x="377" y="-102" font-family="Helvetica,sans-Serif" font-size="10.00">PictureCost</text>
</a>
</g>
</g>
<!-- Node1&#45;&gt;Node7 -->
<g id="edge8" class="edge"><title>Node1&#45;&gt;Node7</title>
<path fill="none" stroke="midnightblue" d="M90.2846,-126.205C145.366,-123.081 235.237,-117.984 299.478,-114.34"/>
<polygon fill="midnightblue" stroke="midnightblue" points="89.8701,-122.723 80.0844,-126.783 90.2666,-129.711 89.8701,-122.723"/>
</g>
<!-- Node8 -->
<g id="node8" class="node"><title>Node8</title>
<g id="a_node8"><a xlink:href="classx265_1_1Lookahead.html#a9a76af299443c51828478d5c036cc2bc" target="_top" xlink:title="x265::Lookahead::frameCost\lRecalculate">
<polygon fill="white" stroke="black" points="116.5,-51 116.5,-81 259.5,-81 259.5,-51 116.5,-51"/>
<text text-anchor="start" x="124.5" y="-69" font-family="Helvetica,sans-Serif" font-size="10.00">x265::Lookahead::frameCost</text>
<text text-anchor="middle" x="188" y="-58" font-family="Helvetica,sans-Serif" font-size="10.00">Recalculate</text>
</a>
</g>
</g>
<!-- Node1&#45;&gt;Node8 -->
<g id="edge10" class="edge"><title>Node1&#45;&gt;Node8</title>
<path fill="none" stroke="midnightblue" d="M71.9546,-115.258C85.4609,-109.293 101.494,-102.255 116,-96 127.428,-91.072 139.922,-85.7653 151.201,-81.0054"/>
<polygon fill="midnightblue" stroke="midnightblue" points="70.3541,-112.139 62.6245,-119.385 73.1857,-118.54 70.3541,-112.139"/>
</g>
<!-- Node3 -->
<g id="node3" class="node"><title>Node3</title>
<g id="a_node3"><a xlink:href="classx265_1_1Encoder.html#af5c80cef5fcafa00d1b3c105681bc784" target="_top" xlink:title="x265::Encoder::encode">
<polygon fill="white" stroke="black" points="1214.5,-114.5 1214.5,-133.5 1331.5,-133.5 1331.5,-114.5 1214.5,-114.5"/>
<text text-anchor="middle" x="1273" y="-121.5" font-family="Helvetica,sans-Serif" font-size="10.00">x265::Encoder::encode</text>
</a>
</g>
</g>
<!-- Node2&#45;&gt;Node3 -->
<g id="edge2" class="edge"><title>Node2&#45;&gt;Node3</title>
<path fill="none" stroke="midnightblue" d="M261.605,-195.319C338.808,-198.557 464.492,-203 573,-203 573,-203 573,-203 931,-203 1042.21,-203 1071.03,-193.403 1178,-163 1204.68,-155.416 1233.99,-142.466 1252.67,-133.584"/>
<polygon fill="midnightblue" stroke="midnightblue" points="261.645,-191.817 251.505,-194.89 261.348,-198.811 261.645,-191.817"/>
</g>
<!-- Node2&#45;&gt;Node6 -->
<g id="edge5" class="edge"><title>Node2&#45;&gt;Node6</title>
<path fill="none" stroke="midnightblue" d="M261.392,-179.225C281.111,-175.745 302.152,-172.032 320.752,-168.75"/>
<polygon fill="midnightblue" stroke="midnightblue" points="260.768,-175.781 251.528,-180.966 261.984,-182.674 260.768,-175.781"/>
</g>
<!-- Node4 -->
<g id="node4" class="node"><title>Node4</title>
<g id="a_node4"><a xlink:href="x265_8h.html#a7a45a920b9d86ed3fb3cb3794b14f5ea" target="_top" xlink:title="x265_encoder_encode">
<polygon fill="white" stroke="black" points="1368,-114.5 1368,-133.5 1482,-133.5 1482,-114.5 1368,-114.5"/>
<text text-anchor="middle" x="1425" y="-121.5" font-family="Helvetica,sans-Serif" font-size="10.00">x265_encoder_encode</text>
</a>
</g>
</g>
<!-- Node3&#45;&gt;Node4 -->
<g id="edge3" class="edge"><title>Node3&#45;&gt;Node4</title>
<path fill="none" stroke="midnightblue" d="M1341.72,-124C1350.45,-124 1359.31,-124 1367.83,-124"/>
<polygon fill="midnightblue" stroke="midnightblue" points="1341.56,-120.5 1331.56,-124 1341.56,-127.5 1341.56,-120.5"/>
</g>
<!-- Node5 -->
<g id="node5" class="node"><title>Node5</title>
<g id="a_node5"><a xlink:href="x265_8cpp.html#a3c04138a5bfe5d72780bb7e82a18e627" target="_top" xlink:title="main">
<polygon fill="white" stroke="black" points="1518,-114.5 1518,-133.5 1556,-133.5 1556,-114.5 1518,-114.5"/>
<text text-anchor="middle" x="1537" y="-121.5" font-family="Helvetica,sans-Serif" font-size="10.00">main</text>
</a>
</g>
</g>
<!-- Node4&#45;&gt;Node5 -->
<g id="edge4" class="edge"><title>Node4&#45;&gt;Node5</title>
<path fill="none" stroke="midnightblue" d="M1492.49,-124C1501.78,-124 1510.61,-124 1517.86,-124"/>
<polygon fill="midnightblue" stroke="midnightblue" points="1492.29,-120.5 1482.29,-124 1492.29,-127.5 1492.29,-120.5"/>
</g>
<!-- Node6&#45;&gt;Node3 -->
<g id="edge6" class="edge"><title>Node6&#45;&gt;Node3</title>
<path fill="none" stroke="midnightblue" d="M443.54,-159.833C519.098,-160.721 647.022,-162 757,-162 757,-162 757,-162 931,-162 1033.61,-162 1152.52,-144.796 1219.34,-133.54"/>
<polygon fill="midnightblue" stroke="midnightblue" points="443.274,-156.33 433.233,-159.711 443.191,-163.33 443.274,-156.33"/>
</g>
<!-- Node7&#45;&gt;Node3 -->
<g id="edge9" class="edge"><title>Node7&#45;&gt;Node3</title>
<path fill="none" stroke="midnightblue" d="M464.659,-115.022C541.456,-119.038 656.65,-124 757,-124 757,-124 757,-124 931,-124 1030.61,-124 1146.58,-124 1214.38,-124"/>
<polygon fill="midnightblue" stroke="midnightblue" points="464.723,-111.521 454.552,-114.487 464.353,-118.511 464.723,-111.521"/>
</g>
<!-- Node8&#45;&gt;Node7 -->
<g id="edge11" class="edge"><title>Node8&#45;&gt;Node7</title>
<path fill="none" stroke="midnightblue" d="M262.852,-83.3769C279.148,-87.2112 296.278,-91.2418 312.139,-94.9738"/>
<polygon fill="midnightblue" stroke="midnightblue" points="263.368,-79.9027 252.832,-81.0192 261.764,-86.7167 263.368,-79.9027"/>
</g>
<!-- Node9 -->
<g id="node9" class="node"><title>Node9</title>
<g id="a_node9"><a xlink:href="classx265_1_1Lookahead.html#ad963fd74581c61eaf7713367906b3e96" target="_top" xlink:title="x265::Lookahead::vbvFrameCost">
<polygon fill="white" stroke="black" points="296.5,-52.5 296.5,-71.5 457.5,-71.5 457.5,-52.5 296.5,-52.5"/>
<text text-anchor="middle" x="377" y="-59.5" font-family="Helvetica,sans-Serif" font-size="10.00">x265::Lookahead::vbvFrameCost</text>
</a>
</g>
</g>
<!-- Node8&#45;&gt;Node9 -->
<g id="edge12" class="edge"><title>Node8&#45;&gt;Node9</title>
<path fill="none" stroke="midnightblue" d="M269.927,-64.2689C278.717,-64.0809 287.659,-63.8897 296.432,-63.702"/>
<polygon fill="midnightblue" stroke="midnightblue" points="269.62,-60.7746 259.697,-64.4878 269.769,-67.773 269.62,-60.7746"/>
</g>
<!-- Node10 -->
<g id="node10" class="node"><title>Node10</title>
<g id="a_node10"><a xlink:href="classx265_1_1Lookahead.html#ad80879ec65df8318fbb5109388dcfa39" target="_top" xlink:title="x265::Lookahead::vbvLookahead">
<polygon fill="white" stroke="black" points="494,-43.5 494,-62.5 654,-62.5 654,-43.5 494,-43.5"/>
<text text-anchor="middle" x="574" y="-50.5" font-family="Helvetica,sans-Serif" font-size="10.00">x265::Lookahead::vbvLookahead</text>
</a>
</g>
</g>
<!-- Node9&#45;&gt;Node10 -->
<g id="edge13" class="edge"><title>Node9&#45;&gt;Node10</title>
<path fill="none" stroke="midnightblue" d="M467.797,-57.8555C476.534,-57.4523 485.355,-57.0452 493.975,-56.6473"/>
<polygon fill="midnightblue" stroke="midnightblue" points="467.423,-54.369 457.595,-58.3264 467.746,-61.3615 467.423,-54.369"/>
</g>
<!-- Node11 -->
<g id="node11" class="node"><title>Node11</title>
<g id="a_node11"><a xlink:href="classx265_1_1Lookahead.html#a2f8c7057dd5c5086830b5f22b38105b0" target="_top" xlink:title="x265::Lookahead::slicetype\lAnalyse">
<polygon fill="white" stroke="black" points="690,-36 690,-66 826,-66 826,-36 690,-36"/>
<text text-anchor="start" x="698" y="-54" font-family="Helvetica,sans-Serif" font-size="10.00">x265::Lookahead::slicetype</text>
<text text-anchor="middle" x="758" y="-43" font-family="Helvetica,sans-Serif" font-size="10.00">Analyse</text>
</a>
</g>
</g>
<!-- Node10&#45;&gt;Node11 -->
<g id="edge14" class="edge"><title>Node10&#45;&gt;Node11</title>
<path fill="none" stroke="midnightblue" d="M664.118,-52.0207C672.733,-51.926 681.37,-51.8311 689.721,-51.7393"/>
<polygon fill="midnightblue" stroke="midnightblue" points="663.995,-48.5217 654.034,-52.1315 664.072,-55.5213 663.995,-48.5217"/>
</g>
<!-- Node12 -->
<g id="node12" class="node"><title>Node12</title>
<g id="a_node12"><a xlink:href="classx265_1_1Lookahead.html#ad15172de7a432e47e8514fb157fafedd" target="_top" xlink:title="x265::Lookahead::slicetype\lDecide">
<polygon fill="white" stroke="black" points="862,-34 862,-64 998,-64 998,-34 862,-34"/>
<text text-anchor="start" x="870" y="-52" font-family="Helvetica,sans-Serif" font-size="10.00">x265::Lookahead::slicetype</text>
<text text-anchor="middle" x="930" y="-41" font-family="Helvetica,sans-Serif" font-size="10.00">Decide</text>
</a>
</g>
</g>
<!-- Node11&#45;&gt;Node12 -->
<g id="edge15" class="edge"><title>Node11&#45;&gt;Node12</title>
<path fill="none" stroke="midnightblue" d="M836.425,-50.0891C844.876,-49.9897 853.428,-49.8891 861.743,-49.7913"/>
<polygon fill="midnightblue" stroke="midnightblue" points="836.147,-46.5921 826.189,-50.2095 836.229,-53.5916 836.147,-46.5921"/>
</g>
<!-- Node13 -->
<g id="node13" class="node"><title>Node13</title>
<g id="a_node13"><a xlink:href="classx265_1_1Lookahead.html#a878bca13580997ab9c01e72a8f8e81c3" target="_top" xlink:title="x265::Lookahead::addPicture">
<polygon fill="white" stroke="black" points="1034.5,-76.5 1034.5,-95.5 1177.5,-95.5 1177.5,-76.5 1034.5,-76.5"/>
<text text-anchor="middle" x="1106" y="-83.5" font-family="Helvetica,sans-Serif" font-size="10.00">x265::Lookahead::addPicture</text>
</a>
</g>
</g>
<!-- Node12&#45;&gt;Node13 -->
<g id="edge16" class="edge"><title>Node12&#45;&gt;Node13</title>
<path fill="none" stroke="midnightblue" d="M1008.1,-65.3942C1025.92,-69.1839 1044.3,-73.0931 1060.2,-76.4744"/>
<polygon fill="midnightblue" stroke="midnightblue" points="1008.78,-61.9617 998.273,-63.3052 1007.33,-68.8086 1008.78,-61.9617"/>
</g>
<!-- Node14 -->
<g id="node14" class="node"><title>Node14</title>
<g id="a_node14"><a xlink:href="classx265_1_1Lookahead.html#a0294c952379ca6f328014f92aa51259c" target="_top" xlink:title="x265::Lookahead::flush">
<polygon fill="white" stroke="black" points="1047,-38.5 1047,-57.5 1165,-57.5 1165,-38.5 1047,-38.5"/>
<text text-anchor="middle" x="1106" y="-45.5" font-family="Helvetica,sans-Serif" font-size="10.00">x265::Lookahead::flush</text>
</a>
</g>
</g>
<!-- Node12&#45;&gt;Node14 -->
<g id="edge18" class="edge"><title>Node12&#45;&gt;Node14</title>
<path fill="none" stroke="midnightblue" d="M1008.54,-48.5543C1021.45,-48.4801 1034.65,-48.4043 1046.96,-48.3336"/>
<polygon fill="midnightblue" stroke="midnightblue" points="1008.25,-45.0559 998.273,-48.6134 1008.29,-52.0557 1008.25,-45.0559"/>
</g>
<!-- Node15 -->
<g id="node15" class="node"><title>Node15</title>
<g id="a_node15"><a xlink:href="classx265_1_1Lookahead.html#a341d8c6a3a971583aa911cf8dedbe6a1" target="_top" xlink:title="x265::Lookahead::findJob">
<polygon fill="white" stroke="black" points="1042,-0.5 1042,-19.5 1170,-19.5 1170,-0.5 1042,-0.5"/>
<text text-anchor="middle" x="1106" y="-7.5" font-family="Helvetica,sans-Serif" font-size="10.00">x265::Lookahead::findJob</text>
</a>
</g>
</g>
<!-- Node12&#45;&gt;Node15 -->
<g id="edge20" class="edge"><title>Node12&#45;&gt;Node15</title>
<path fill="none" stroke="midnightblue" d="M1008.25,-31.6854C1026.9,-27.5051 1046.16,-23.1892 1062.53,-19.519"/>
<polygon fill="midnightblue" stroke="midnightblue" points="1007.27,-28.3191 998.273,-33.9216 1008.8,-35.1497 1007.27,-28.3191"/>
</g>
<!-- Node13&#45;&gt;Node3 -->
<g id="edge17" class="edge"><title>Node13&#45;&gt;Node3</title>
<path fill="none" stroke="midnightblue" d="M1158.65,-97.8961C1181.85,-103.237 1208.84,-109.454 1230.66,-114.48"/>
<polygon fill="midnightblue" stroke="midnightblue" points="1159.17,-94.4226 1148.64,-95.589 1157.6,-101.244 1159.17,-94.4226"/>
</g>
<!-- Node14&#45;&gt;Node3 -->
<g id="edge19" class="edge"><title>Node14&#45;&gt;Node3</title>
<path fill="none" stroke="midnightblue" d="M1160.08,-60.4181C1166.21,-62.3752 1172.3,-64.5682 1178,-67 1208.72,-80.1075 1241.37,-101.931 1258.95,-114.428"/>
<polygon fill="midnightblue" stroke="midnightblue" points="1161.05,-57.0548 1150.46,-57.5362 1159.04,-63.7601 1161.05,-57.0548"/>
</g>
</g>
</svg>
        <g id="navigator" transform="translate(0 0)" fill="#404254">
                <rect fill="#f2f5e9" fill-opacity="0.5" stroke="#606060" stroke-width=".5" x="0" y="0" width="60" height="60"/>
                <use id="zoomplus" xlink:href="#zoomPlus" x="17" y="9" onmousedown="handleZoom(evt,'in')"/>
                <use id="zoomminus" xlink:href="#zoomMin" x="42" y="9" onmousedown="handleZoom(evt,'out')"/>
                <use id="reset" xlink:href="#resetDef" x="30" y="36" onmousedown="handleReset()"/>
                <g id="arrowUp" xlink:href="#dirArrow" transform="translate(30 24)" onmousedown="handlePan(0,-1)">
                  <use xlink:href="#rim" fill="#404040">
                        <set attributeName="fill" to="#808080" begin="arrowUp.mouseover" end="arrowUp.mouseout"/>
                  </use>
                  <path fill="none" stroke="white" stroke-width="1.5" d="M0,-3.0v7 M-2.5,-0.5L0,-3.0L2.5,-0.5"/>
                </g>
                <g id="arrowRight" xlink:href="#dirArrow" transform="rotate(90) translate(36 -43)" onmousedown="handlePan(1,0)">
                  <use xlink:href="#rim" fill="#404040">
                        <set attributeName="fill" to="#808080" begin="arrowRight.mouseover" end="arrowRight.mouseout"/>
                  </use>
                  <path fill="none" stroke="white" stroke-width="1.5" d="M0,-3.0v7 M-2.5,-0.5L0,-3.0L2.5,-0.5"/>
                </g>
                <g id="arrowDown" xlink:href="#dirArrow" transform="rotate(180) translate(-30 -48)" onmousedown="handlePan(0,1)">
                  <use xlink:href="#rim" fill="#404040">
                        <set attributeName="fill" to="#808080" begin="arrowDown.mouseover" end="arrowDown.mouseout"/>
                  </use>
                  <path fill="none" stroke="white" stroke-width="1.5" d="M0,-3.0v7 M-2.5,-0.5L0,-3.0L2.5,-0.5"/>
                </g>
                <g id="arrowLeft" xlink:href="#dirArrow" transform="rotate(270) translate(-36 17)" onmousedown="handlePan(-1,0)">
                  <use xlink:href="#rim" fill="#404040">
                        <set attributeName="fill" to="#808080" begin="arrowLeft.mouseover" end="arrowLeft.mouseout"/>
                  </use>
                  <path fill="none" stroke="white" stroke-width="1.5" d="M0,-3.0v7 M-2.5,-0.5L0,-3.0L2.5,-0.5"/>
                </g>
        </g>
        <svg viewBox="0 0 15 15" width="100%" height="30px" preserveAspectRatio="xMaxYMin meet">
         <g id="arrow_out" transform="scale(0.3 0.3)">
          <a xlink:href="common_8cpp_ac466459518e3d7434dd4f8b9a36317bb_icgraph_org.svg" target="_base">
           <rect id="button" ry="5" rx="5" y="6" x="6" height="38" width="38"
                fill="#f2f5e9" fill-opacity="0.5" stroke="#606060" stroke-width="1.0"/>
           <path id="arrow"
             d="M 11.500037,31.436501 C 11.940474,20.09759 22.043105,11.32322 32.158766,21.979434 L 37.068811,17.246167 C 37.068811,17.246167 37.088388,32 37.088388,32 L 22.160133,31.978069 C 22.160133,31.978069 26.997745,27.140456 26.997745,27.140456 C 18.528582,18.264221 13.291696,25.230495 11.500037,31.436501 z"
             style="fill:#404040;"/>
          </a>
         </g>
        </svg>
</svg>
