<?xml version="1.0" encoding="UTF-8" standalone="no"?>
<!DOCTYPE svg PUBLIC "-//W3C//DTD SVG 1.1//EN"
 "http://www.w3.org/Graphics/SVG/1.1/DTD/svg11.dtd">
<!-- Generated by graphviz version 2.36.0 (20140111.2315)
 -->
<!-- Title: source/common/common.h Pages: 1 -->
<svg width="973pt" height="196pt"
 viewBox="0.00 0.00 973.00 196.00" xmlns="http://www.w3.org/2000/svg" xmlns:xlink="http://www.w3.org/1999/xlink">
<g id="graph0" class="graph" transform="scale(1 1) rotate(0) translate(4 192)">
<title>source/common/common.h</title>
<polygon fill="white" stroke="none" points="-4,4 -4,-192 969,-192 969,4 -4,4"/>
<!-- Node1 -->
<g id="node1" class="node"><title>Node1</title>
<polygon fill="#bfbfbf" stroke="black" points="446.5,-168.5 446.5,-187.5 581.5,-187.5 581.5,-168.5 446.5,-168.5"/>
<text text-anchor="middle" x="514" y="-175.5" font-family="Helvetica,sans-Serif" font-size="10.00">source/common/common.h</text>
</g>
<!-- Node2 -->
<g id="node2" class="node"><title>Node2</title>
<polygon fill="white" stroke="#bfbfbf" points="0,-112.5 0,-131.5 56,-131.5 56,-112.5 0,-112.5"/>
<text text-anchor="middle" x="28" y="-119.5" font-family="Helvetica,sans-Serif" font-size="10.00">algorithm</text>
</g>
<!-- Node1&#45;&gt;Node2 -->
<g id="edge1" class="edge"><title>Node1&#45;&gt;Node2</title>
<path fill="none" stroke="midnightblue" d="M446.287,-173.15C360.117,-167.596 206.583,-155.512 66.2758,-131.999"/>
<polygon fill="midnightblue" stroke="midnightblue" points="66.6428,-128.511 56.1977,-130.286 65.4699,-135.412 66.6428,-128.511"/>
</g>
<!-- Node3 -->
<g id="node3" class="node"><title>Node3</title>
<polygon fill="white" stroke="#bfbfbf" points="74.5,-112.5 74.5,-131.5 119.5,-131.5 119.5,-112.5 74.5,-112.5"/>
<text text-anchor="middle" x="97" y="-119.5" font-family="Helvetica,sans-Serif" font-size="10.00">climits</text>
</g>
<!-- Node1&#45;&gt;Node3 -->
<g id="edge2" class="edge"><title>Node1&#45;&gt;Node3</title>
<path fill="none" stroke="midnightblue" d="M446.384,-172.344C371.217,-166.44 246.154,-154.451 129.441,-131.776"/>
<polygon fill="midnightblue" stroke="midnightblue" points="130.107,-128.34 119.619,-129.838 128.752,-135.208 130.107,-128.34"/>
</g>
<!-- Node4 -->
<g id="node4" class="node"><title>Node4</title>
<polygon fill="white" stroke="#bfbfbf" points="138,-112.5 138,-131.5 182,-131.5 182,-112.5 138,-112.5"/>
<text text-anchor="middle" x="160" y="-119.5" font-family="Helvetica,sans-Serif" font-size="10.00">cmath</text>
</g>
<!-- Node1&#45;&gt;Node4 -->
<g id="edge3" class="edge"><title>Node1&#45;&gt;Node4</title>
<path fill="none" stroke="midnightblue" d="M446.318,-170.237C383.079,-163.306 285.932,-151.1 192.219,-131.763"/>
<polygon fill="midnightblue" stroke="midnightblue" points="192.789,-128.306 182.284,-129.683 191.355,-135.158 192.789,-128.306"/>
</g>
<!-- Node5 -->
<g id="node5" class="node"><title>Node5</title>
<polygon fill="white" stroke="#bfbfbf" points="200.5,-112.5 200.5,-131.5 249.5,-131.5 249.5,-112.5 200.5,-112.5"/>
<text text-anchor="middle" x="225" y="-119.5" font-family="Helvetica,sans-Serif" font-size="10.00">cstdarg</text>
</g>
<!-- Node1&#45;&gt;Node5 -->
<g id="edge4" class="edge"><title>Node1&#45;&gt;Node5</title>
<path fill="none" stroke="midnightblue" d="M457.769,-168.471C408.149,-160.628 333.678,-148.094 259.773,-132.016"/>
<polygon fill="midnightblue" stroke="midnightblue" points="260.342,-128.558 249.824,-129.829 258.839,-135.394 260.342,-128.558"/>
</g>
<!-- Node6 -->
<g id="node6" class="node"><title>Node6</title>
<polygon fill="white" stroke="#bfbfbf" points="267.5,-112.5 267.5,-131.5 316.5,-131.5 316.5,-112.5 267.5,-112.5"/>
<text text-anchor="middle" x="292" y="-119.5" font-family="Helvetica,sans-Serif" font-size="10.00">cstddef</text>
</g>
<!-- Node1&#45;&gt;Node6 -->
<g id="edge5" class="edge"><title>Node1&#45;&gt;Node6</title>
<path fill="none" stroke="midnightblue" d="M477.192,-168.463C441.246,-160.065 384.749,-146.706 326.59,-132.104"/>
<polygon fill="midnightblue" stroke="midnightblue" points="327.417,-128.703 316.865,-129.655 325.707,-135.491 327.417,-128.703"/>
</g>
<!-- Node7 -->
<g id="node7" class="node"><title>Node7</title>
<polygon fill="white" stroke="#bfbfbf" points="334.5,-112.5 334.5,-131.5 377.5,-131.5 377.5,-112.5 334.5,-112.5"/>
<text text-anchor="middle" x="356" y="-119.5" font-family="Helvetica,sans-Serif" font-size="10.00">cstdio</text>
</g>
<!-- Node1&#45;&gt;Node7 -->
<g id="edge6" class="edge"><title>Node1&#45;&gt;Node7</title>
<path fill="none" stroke="midnightblue" d="M488.964,-168.444C461.446,-159.038 417.193,-143.914 387.378,-133.724"/>
<polygon fill="midnightblue" stroke="midnightblue" points="388.46,-130.395 377.865,-130.473 386.196,-137.019 388.46,-130.395"/>
</g>
<!-- Node8 -->
<g id="node8" class="node"><title>Node8</title>
<polygon fill="white" stroke="#bfbfbf" points="395.5,-112.5 395.5,-131.5 440.5,-131.5 440.5,-112.5 395.5,-112.5"/>
<text text-anchor="middle" x="418" y="-119.5" font-family="Helvetica,sans-Serif" font-size="10.00">cstdlib</text>
</g>
<!-- Node1&#45;&gt;Node8 -->
<g id="edge7" class="edge"><title>Node1&#45;&gt;Node8</title>
<path fill="none" stroke="midnightblue" d="M498.576,-168.324C483.46,-159.822 460.185,-146.729 442.529,-136.797"/>
<polygon fill="midnightblue" stroke="midnightblue" points="443.817,-133.507 433.386,-131.655 440.386,-139.608 443.817,-133.507"/>
</g>
<!-- Node9 -->
<g id="node9" class="node"><title>Node9</title>
<polygon fill="white" stroke="#bfbfbf" points="459,-112.5 459,-131.5 505,-131.5 505,-112.5 459,-112.5"/>
<text text-anchor="middle" x="482" y="-119.5" font-family="Helvetica,sans-Serif" font-size="10.00">cstring</text>
</g>
<!-- Node1&#45;&gt;Node9 -->
<g id="edge8" class="edge"><title>Node1&#45;&gt;Node9</title>
<path fill="none" stroke="midnightblue" d="M508.716,-168.083C504.289,-160.613 497.837,-149.724 492.382,-140.52"/>
<polygon fill="midnightblue" stroke="midnightblue" points="495.295,-138.57 487.186,-131.751 489.273,-142.138 495.295,-138.57"/>
</g>
<!-- Node10 -->
<g id="node10" class="node"><title>Node10</title>
<polygon fill="white" stroke="#bfbfbf" points="523,-112.5 523,-131.5 569,-131.5 569,-112.5 523,-112.5"/>
<text text-anchor="middle" x="546" y="-119.5" font-family="Helvetica,sans-Serif" font-size="10.00">cctype</text>
</g>
<!-- Node1&#45;&gt;Node10 -->
<g id="edge9" class="edge"><title>Node1&#45;&gt;Node10</title>
<path fill="none" stroke="midnightblue" d="M519.284,-168.083C523.711,-160.613 530.163,-149.724 535.618,-140.52"/>
<polygon fill="midnightblue" stroke="midnightblue" points="538.727,-142.138 540.814,-131.751 532.705,-138.57 538.727,-142.138"/>
</g>
<!-- Node11 -->
<g id="node11" class="node"><title>Node11</title>
<polygon fill="white" stroke="#bfbfbf" points="587.5,-112.5 587.5,-131.5 628.5,-131.5 628.5,-112.5 587.5,-112.5"/>
<text text-anchor="middle" x="608" y="-119.5" font-family="Helvetica,sans-Serif" font-size="10.00">ctime</text>
</g>
<!-- Node1&#45;&gt;Node11 -->
<g id="edge10" class="edge"><title>Node1&#45;&gt;Node11</title>
<path fill="none" stroke="midnightblue" d="M529.103,-168.324C543.903,-159.822 566.694,-146.729 583.982,-136.797"/>
<polygon fill="midnightblue" stroke="midnightblue" points="586.007,-139.671 592.935,-131.655 582.52,-133.601 586.007,-139.671"/>
</g>
<!-- Node12 -->
<g id="node12" class="node"><title>Node12</title>
<g id="a_node12"><a xlink:href="stdint_8h.html" target="_top" xlink:title="stdint.h">
<polygon fill="white" stroke="black" points="691.5,-56.5 691.5,-75.5 740.5,-75.5 740.5,-56.5 691.5,-56.5"/>
<text text-anchor="middle" x="716" y="-63.5" font-family="Helvetica,sans-Serif" font-size="10.00">stdint.h</text>
</a>
</g>
</g>
<!-- Node1&#45;&gt;Node12 -->
<g id="edge11" class="edge"><title>Node1&#45;&gt;Node12</title>
<path fill="none" stroke="midnightblue" d="M546.127,-168.5C571.736,-160.971 607.986,-148.597 637,-132 660.935,-118.309 684.893,-97.3179 700.045,-82.9165"/>
<polygon fill="midnightblue" stroke="midnightblue" points="702.761,-85.1579 707.5,-75.6819 697.886,-80.1344 702.761,-85.1579"/>
</g>
<!-- Node15 -->
<g id="node15" class="node"><title>Node15</title>
<polygon fill="white" stroke="#bfbfbf" points="685,-112.5 685,-131.5 745,-131.5 745,-112.5 685,-112.5"/>
<text text-anchor="middle" x="715" y="-119.5" font-family="Helvetica,sans-Serif" font-size="10.00">memory.h</text>
</g>
<!-- Node1&#45;&gt;Node15 -->
<g id="edge14" class="edge"><title>Node1&#45;&gt;Node15</title>
<path fill="none" stroke="midnightblue" d="M545.849,-168.444C580.907,-159.025 637.313,-143.871 675.244,-133.681"/>
<polygon fill="midnightblue" stroke="midnightblue" points="676.192,-137.05 684.941,-131.075 674.376,-130.29 676.192,-137.05"/>
</g>
<!-- Node16 -->
<g id="node16" class="node"><title>Node16</title>
<polygon fill="white" stroke="#bfbfbf" points="763,-112.5 763,-131.5 815,-131.5 815,-112.5 763,-112.5"/>
<text text-anchor="middle" x="789" y="-119.5" font-family="Helvetica,sans-Serif" font-size="10.00">assert.h</text>
</g>
<!-- Node1&#45;&gt;Node16 -->
<g id="edge15" class="edge"><title>Node1&#45;&gt;Node16</title>
<path fill="none" stroke="midnightblue" d="M564.068,-168.457C610.368,-160.359 681.311,-147.448 752.632,-131.967"/>
<polygon fill="midnightblue" stroke="midnightblue" points="753.675,-135.322 762.696,-129.766 752.179,-128.484 753.675,-135.322"/>
</g>
<!-- Node17 -->
<g id="node17" class="node"><title>Node17</title>
<g id="a_node17"><a xlink:href="x265_8h.html" target="_top" xlink:title="x265.h">
<polygon fill="white" stroke="black" points="833,-112.5 833,-131.5 879,-131.5 879,-112.5 833,-112.5"/>
<text text-anchor="middle" x="856" y="-119.5" font-family="Helvetica,sans-Serif" font-size="10.00">x265.h</text>
</a>
</g>
</g>
<!-- Node1&#45;&gt;Node17 -->
<g id="edge16" class="edge"><title>Node1&#45;&gt;Node17</title>
<path fill="none" stroke="midnightblue" d="M581.57,-169.758C642.391,-162.656 734.339,-150.479 822.743,-132.04"/>
<polygon fill="midnightblue" stroke="midnightblue" points="823.61,-135.435 832.668,-129.94 822.161,-128.586 823.61,-135.435"/>
</g>
<!-- Node19 -->
<g id="node19" class="node"><title>Node19</title>
<g id="a_node19"><a xlink:href="constants_8h.html" target="_top" xlink:title="constants.h">
<polygon fill="white" stroke="black" points="897,-112.5 897,-131.5 965,-131.5 965,-112.5 897,-112.5"/>
<text text-anchor="middle" x="931" y="-119.5" font-family="Helvetica,sans-Serif" font-size="10.00">constants.h</text>
</a>
</g>
</g>
<!-- Node1&#45;&gt;Node19 -->
<g id="edge19" class="edge"><title>Node1&#45;&gt;Node19</title>
<path fill="none" stroke="midnightblue" d="M581.63,-169.963C655.092,-162.358 775.588,-149.011 879,-132 881.592,-131.574 884.264,-131.099 886.971,-130.597"/>
<polygon fill="midnightblue" stroke="midnightblue" points="887.681,-134.025 896.838,-128.696 886.356,-127.151 887.681,-134.025"/>
</g>
<!-- Node13 -->
<g id="node13" class="node"><title>Node13</title>
<polygon fill="white" stroke="#bfbfbf" points="653.5,-0.5 653.5,-19.5 708.5,-19.5 708.5,-0.5 653.5,-0.5"/>
<text text-anchor="middle" x="681" y="-7.5" font-family="Helvetica,sans-Serif" font-size="10.00">crtdefs.h</text>
</g>
<!-- Node12&#45;&gt;Node13 -->
<g id="edge12" class="edge"><title>Node12&#45;&gt;Node13</title>
<path fill="none" stroke="midnightblue" d="M710.22,-56.083C705.328,-48.5341 698.173,-37.4948 692.167,-28.2298"/>
<polygon fill="midnightblue" stroke="midnightblue" points="695.048,-26.239 686.672,-19.7511 689.174,-30.0463 695.048,-26.239"/>
</g>
<!-- Node14 -->
<g id="node14" class="node"><title>Node14</title>
<polygon fill="white" stroke="#bfbfbf" points="727,-0.5 727,-19.5 775,-19.5 775,-0.5 727,-0.5"/>
<text text-anchor="middle" x="751" y="-7.5" font-family="Helvetica,sans-Serif" font-size="10.00">limits.h</text>
</g>
<!-- Node12&#45;&gt;Node14 -->
<g id="edge13" class="edge"><title>Node12&#45;&gt;Node14</title>
<path fill="none" stroke="midnightblue" d="M721.78,-56.083C726.672,-48.5341 733.827,-37.4948 739.833,-28.2298"/>
<polygon fill="midnightblue" stroke="midnightblue" points="742.826,-30.0463 745.328,-19.7511 736.952,-26.239 742.826,-30.0463"/>
</g>
<!-- Node17&#45;&gt;Node12 -->
<g id="edge17" class="edge"><title>Node17&#45;&gt;Node12</title>
<path fill="none" stroke="midnightblue" d="M833.817,-112.444C810.572,-103.478 773.851,-89.314 747.585,-79.1827"/>
<polygon fill="midnightblue" stroke="midnightblue" points="748.669,-75.8497 738.08,-75.5164 746.15,-82.3807 748.669,-75.8497"/>
</g>
<!-- Node18 -->
<g id="node18" class="node"><title>Node18</title>
<g id="a_node18"><a xlink:href="x265__config_8h.html" target="_top" xlink:title="x265_config.h">
<polygon fill="white" stroke="black" points="817.5,-56.5 817.5,-75.5 894.5,-75.5 894.5,-56.5 817.5,-56.5"/>
<text text-anchor="middle" x="856" y="-63.5" font-family="Helvetica,sans-Serif" font-size="10.00">x265_config.h</text>
</a>
</g>
</g>
<!-- Node17&#45;&gt;Node18 -->
<g id="edge18" class="edge"><title>Node17&#45;&gt;Node18</title>
<path fill="none" stroke="midnightblue" d="M856,-112.083C856,-105.006 856,-94.8611 856,-85.9865"/>
<polygon fill="midnightblue" stroke="midnightblue" points="859.5,-85.751 856,-75.7511 852.5,-85.7511 859.5,-85.751"/>
</g>
<!-- Node19&#45;&gt;Node1 -->
<g id="edge20" class="edge"><title>Node19&#45;&gt;Node1</title>
<path fill="none" stroke="midnightblue" d="M899.735,-131.538C898.816,-131.697 897.903,-131.851 897,-132 792.164,-149.245 669.772,-162.725 592.023,-170.273"/>
<polygon fill="midnightblue" stroke="midnightblue" points="591.445,-166.813 581.827,-171.254 592.116,-173.781 591.445,-166.813"/>
</g>
</g>
</svg>
