<?xml version="1.0" encoding="UTF-8" standalone="no"?>
<!DOCTYPE svg PUBLIC "-//W3C//DTD SVG 1.1//EN"
 "http://www.w3.org/Graphics/SVG/1.1/DTD/svg11.dtd">
<!-- Generated by graphviz version 2.36.0 (20140111.2315)
 -->
<!-- Title: source/common/constants.h Pages: 1 -->
<svg width="902pt" height="252pt"
 viewBox="0.00 0.00 902.00 252.00" xmlns="http://www.w3.org/2000/svg" xmlns:xlink="http://www.w3.org/1999/xlink">
<g id="graph0" class="graph" transform="scale(1 1) rotate(0) translate(4 248)">
<title>source/common/constants.h</title>
<polygon fill="white" stroke="none" points="-4,4 -4,-248 898,-248 898,4 -4,4"/>
<!-- Node1 -->
<g id="node1" class="node"><title>Node1</title>
<polygon fill="#bfbfbf" stroke="black" points="380,-224.5 380,-243.5 520,-243.5 520,-224.5 380,-224.5"/>
<text text-anchor="middle" x="450" y="-231.5" font-family="Helvetica,sans-Serif" font-size="10.00">source/common/constants.h</text>
</g>
<!-- Node2 -->
<g id="node2" class="node"><title>Node2</title>
<g id="a_node2"><a xlink:href="common_8h.html" target="_top" xlink:title="common.h">
<polygon fill="white" stroke="black" points="419,-168.5 419,-187.5 481,-187.5 481,-168.5 419,-168.5"/>
<text text-anchor="middle" x="450" y="-175.5" font-family="Helvetica,sans-Serif" font-size="10.00">common.h</text>
</a>
</g>
</g>
<!-- Node1&#45;&gt;Node2 -->
<g id="edge1" class="edge"><title>Node1&#45;&gt;Node2</title>
<path fill="none" stroke="midnightblue" d="M444.834,-224.083C443.324,-216.927 442.894,-206.635 443.542,-197.691"/>
<polygon fill="midnightblue" stroke="midnightblue" points="447.015,-198.126 444.869,-187.751 440.077,-197.2 447.015,-198.126"/>
</g>
<!-- Node2&#45;&gt;Node1 -->
<g id="edge20" class="edge"><title>Node2&#45;&gt;Node1</title>
<path fill="none" stroke="midnightblue" d="M455.131,-187.751C456.657,-194.858 457.104,-205.136 456.472,-214.101"/>
<polygon fill="midnightblue" stroke="midnightblue" points="452.993,-213.713 455.166,-224.083 459.934,-214.622 452.993,-213.713"/>
</g>
<!-- Node3 -->
<g id="node3" class="node"><title>Node3</title>
<polygon fill="white" stroke="#bfbfbf" points="0,-112.5 0,-131.5 56,-131.5 56,-112.5 0,-112.5"/>
<text text-anchor="middle" x="28" y="-119.5" font-family="Helvetica,sans-Serif" font-size="10.00">algorithm</text>
</g>
<!-- Node2&#45;&gt;Node3 -->
<g id="edge2" class="edge"><title>Node2&#45;&gt;Node3</title>
<path fill="none" stroke="midnightblue" d="M418.87,-174.661C354.741,-169.564 203.132,-156.086 66.4388,-132.061"/>
<polygon fill="midnightblue" stroke="midnightblue" points="66.6652,-128.546 56.2062,-130.237 65.437,-135.437 66.6652,-128.546"/>
</g>
<!-- Node4 -->
<g id="node4" class="node"><title>Node4</title>
<polygon fill="white" stroke="#bfbfbf" points="74.5,-112.5 74.5,-131.5 119.5,-131.5 119.5,-112.5 74.5,-112.5"/>
<text text-anchor="middle" x="97" y="-119.5" font-family="Helvetica,sans-Serif" font-size="10.00">climits</text>
</g>
<!-- Node2&#45;&gt;Node4 -->
<g id="edge3" class="edge"><title>Node2&#45;&gt;Node4</title>
<path fill="none" stroke="midnightblue" d="M418.771,-174.037C362.795,-168.422 241.572,-154.886 129.731,-131.882"/>
<polygon fill="midnightblue" stroke="midnightblue" points="130.136,-128.391 119.632,-129.773 128.706,-135.243 130.136,-128.391"/>
</g>
<!-- Node5 -->
<g id="node5" class="node"><title>Node5</title>
<polygon fill="white" stroke="#bfbfbf" points="138,-112.5 138,-131.5 182,-131.5 182,-112.5 138,-112.5"/>
<text text-anchor="middle" x="160" y="-119.5" font-family="Helvetica,sans-Serif" font-size="10.00">cmath</text>
</g>
<!-- Node2&#45;&gt;Node5 -->
<g id="edge4" class="edge"><title>Node2&#45;&gt;Node5</title>
<path fill="none" stroke="midnightblue" d="M418.821,-172.607C371.872,-165.766 280.083,-151.515 192.173,-131.823"/>
<polygon fill="midnightblue" stroke="midnightblue" points="192.832,-128.383 182.306,-129.585 191.284,-135.21 192.832,-128.383"/>
</g>
<!-- Node6 -->
<g id="node6" class="node"><title>Node6</title>
<polygon fill="white" stroke="#bfbfbf" points="200.5,-112.5 200.5,-131.5 249.5,-131.5 249.5,-112.5 200.5,-112.5"/>
<text text-anchor="middle" x="225" y="-119.5" font-family="Helvetica,sans-Serif" font-size="10.00">cstdarg</text>
</g>
<!-- Node2&#45;&gt;Node6 -->
<g id="edge5" class="edge"><title>Node2&#45;&gt;Node6</title>
<path fill="none" stroke="midnightblue" d="M418.839,-169.934C382.899,-161.724 321.794,-147.582 259.813,-132.152"/>
<polygon fill="midnightblue" stroke="midnightblue" points="260.412,-128.694 249.862,-129.665 258.715,-135.485 260.412,-128.694"/>
</g>
<!-- Node7 -->
<g id="node7" class="node"><title>Node7</title>
<polygon fill="white" stroke="#bfbfbf" points="267.5,-112.5 267.5,-131.5 316.5,-131.5 316.5,-112.5 267.5,-112.5"/>
<text text-anchor="middle" x="292" y="-119.5" font-family="Helvetica,sans-Serif" font-size="10.00">cstddef</text>
</g>
<!-- Node2&#45;&gt;Node7 -->
<g id="edge6" class="edge"><title>Node2&#45;&gt;Node7</title>
<path fill="none" stroke="midnightblue" d="M424.964,-168.444C398.306,-159.332 355.943,-144.854 326.215,-134.694"/>
<polygon fill="midnightblue" stroke="midnightblue" points="327.253,-131.35 316.658,-131.428 324.989,-137.974 327.253,-131.35"/>
</g>
<!-- Node8 -->
<g id="node8" class="node"><title>Node8</title>
<polygon fill="white" stroke="#bfbfbf" points="334.5,-112.5 334.5,-131.5 377.5,-131.5 377.5,-112.5 334.5,-112.5"/>
<text text-anchor="middle" x="356" y="-119.5" font-family="Helvetica,sans-Serif" font-size="10.00">cstdio</text>
</g>
<!-- Node2&#45;&gt;Node8 -->
<g id="edge7" class="edge"><title>Node2&#45;&gt;Node8</title>
<path fill="none" stroke="midnightblue" d="M434.897,-168.324C420.097,-159.822 397.306,-146.729 380.018,-136.797"/>
<polygon fill="midnightblue" stroke="midnightblue" points="381.48,-133.601 371.065,-131.655 377.993,-139.671 381.48,-133.601"/>
</g>
<!-- Node9 -->
<g id="node9" class="node"><title>Node9</title>
<polygon fill="white" stroke="#bfbfbf" points="395.5,-112.5 395.5,-131.5 440.5,-131.5 440.5,-112.5 395.5,-112.5"/>
<text text-anchor="middle" x="418" y="-119.5" font-family="Helvetica,sans-Serif" font-size="10.00">cstdlib</text>
</g>
<!-- Node2&#45;&gt;Node9 -->
<g id="edge8" class="edge"><title>Node2&#45;&gt;Node9</title>
<path fill="none" stroke="midnightblue" d="M444.716,-168.083C440.289,-160.613 433.837,-149.724 428.382,-140.52"/>
<polygon fill="midnightblue" stroke="midnightblue" points="431.295,-138.57 423.186,-131.751 425.273,-142.138 431.295,-138.57"/>
</g>
<!-- Node10 -->
<g id="node10" class="node"><title>Node10</title>
<polygon fill="white" stroke="#bfbfbf" points="459,-112.5 459,-131.5 505,-131.5 505,-112.5 459,-112.5"/>
<text text-anchor="middle" x="482" y="-119.5" font-family="Helvetica,sans-Serif" font-size="10.00">cstring</text>
</g>
<!-- Node2&#45;&gt;Node10 -->
<g id="edge9" class="edge"><title>Node2&#45;&gt;Node10</title>
<path fill="none" stroke="midnightblue" d="M455.284,-168.083C459.711,-160.613 466.163,-149.724 471.618,-140.52"/>
<polygon fill="midnightblue" stroke="midnightblue" points="474.727,-142.138 476.814,-131.751 468.705,-138.57 474.727,-142.138"/>
</g>
<!-- Node11 -->
<g id="node11" class="node"><title>Node11</title>
<polygon fill="white" stroke="#bfbfbf" points="523,-112.5 523,-131.5 569,-131.5 569,-112.5 523,-112.5"/>
<text text-anchor="middle" x="546" y="-119.5" font-family="Helvetica,sans-Serif" font-size="10.00">cctype</text>
</g>
<!-- Node2&#45;&gt;Node11 -->
<g id="edge10" class="edge"><title>Node2&#45;&gt;Node11</title>
<path fill="none" stroke="midnightblue" d="M465.424,-168.324C480.54,-159.822 503.815,-146.729 521.471,-136.797"/>
<polygon fill="midnightblue" stroke="midnightblue" points="523.614,-139.608 530.614,-131.655 520.183,-133.507 523.614,-139.608"/>
</g>
<!-- Node12 -->
<g id="node12" class="node"><title>Node12</title>
<polygon fill="white" stroke="#bfbfbf" points="587.5,-112.5 587.5,-131.5 628.5,-131.5 628.5,-112.5 587.5,-112.5"/>
<text text-anchor="middle" x="608" y="-119.5" font-family="Helvetica,sans-Serif" font-size="10.00">ctime</text>
</g>
<!-- Node2&#45;&gt;Node12 -->
<g id="edge11" class="edge"><title>Node2&#45;&gt;Node12</title>
<path fill="none" stroke="midnightblue" d="M475.036,-168.444C502.867,-158.932 547.814,-143.57 577.633,-133.379"/>
<polygon fill="midnightblue" stroke="midnightblue" points="578.788,-136.683 587.118,-130.137 576.524,-130.059 578.788,-136.683"/>
</g>
<!-- Node13 -->
<g id="node13" class="node"><title>Node13</title>
<g id="a_node13"><a xlink:href="stdint_8h.html" target="_top" xlink:title="stdint.h">
<polygon fill="white" stroke="black" points="691.5,-56.5 691.5,-75.5 740.5,-75.5 740.5,-56.5 691.5,-56.5"/>
<text text-anchor="middle" x="716" y="-63.5" font-family="Helvetica,sans-Serif" font-size="10.00">stdint.h</text>
</a>
</g>
</g>
<!-- Node2&#45;&gt;Node13 -->
<g id="edge12" class="edge"><title>Node2&#45;&gt;Node13</title>
<path fill="none" stroke="midnightblue" d="M481.255,-173.835C519.626,-168.991 585.894,-157.468 637,-132 661.948,-119.568 685.997,-97.9504 700.874,-83.0818"/>
<polygon fill="midnightblue" stroke="midnightblue" points="703.674,-85.2233 708.142,-75.617 698.658,-80.3399 703.674,-85.2233"/>
</g>
<!-- Node16 -->
<g id="node16" class="node"><title>Node16</title>
<polygon fill="white" stroke="#bfbfbf" points="685,-112.5 685,-131.5 745,-131.5 745,-112.5 685,-112.5"/>
<text text-anchor="middle" x="715" y="-119.5" font-family="Helvetica,sans-Serif" font-size="10.00">memory.h</text>
</g>
<!-- Node2&#45;&gt;Node16 -->
<g id="edge15" class="edge"><title>Node2&#45;&gt;Node16</title>
<path fill="none" stroke="midnightblue" d="M481.111,-170.674C523.892,-161.974 603.287,-145.819 671,-132 672.246,-131.746 673.512,-131.487 674.791,-131.226"/>
<polygon fill="midnightblue" stroke="midnightblue" points="675.607,-134.632 684.704,-129.201 674.206,-127.773 675.607,-134.632"/>
</g>
<!-- Node17 -->
<g id="node17" class="node"><title>Node17</title>
<polygon fill="white" stroke="#bfbfbf" points="763,-112.5 763,-131.5 815,-131.5 815,-112.5 763,-112.5"/>
<text text-anchor="middle" x="789" y="-119.5" font-family="Helvetica,sans-Serif" font-size="10.00">assert.h</text>
</g>
<!-- Node2&#45;&gt;Node17 -->
<g id="edge16" class="edge"><title>Node2&#45;&gt;Node17</title>
<path fill="none" stroke="midnightblue" d="M481.142,-173.393C534.576,-166.984 647.319,-152.507 752.859,-131.838"/>
<polygon fill="midnightblue" stroke="midnightblue" points="753.592,-135.261 762.721,-129.884 752.231,-128.395 753.592,-135.261"/>
</g>
<!-- Node18 -->
<g id="node18" class="node"><title>Node18</title>
<g id="a_node18"><a xlink:href="x265_8h.html" target="_top" xlink:title="x265.h">
<polygon fill="white" stroke="black" points="833,-112.5 833,-131.5 879,-131.5 879,-112.5 833,-112.5"/>
<text text-anchor="middle" x="856" y="-119.5" font-family="Helvetica,sans-Serif" font-size="10.00">x265.h</text>
</a>
</g>
</g>
<!-- Node2&#45;&gt;Node18 -->
<g id="edge17" class="edge"><title>Node2&#45;&gt;Node18</title>
<path fill="none" stroke="midnightblue" d="M481.288,-174.877C544.268,-170.252 690.905,-157.716 822.809,-131.965"/>
<polygon fill="midnightblue" stroke="midnightblue" points="823.554,-135.386 832.682,-130.007 822.192,-128.52 823.554,-135.386"/>
</g>
<!-- Node14 -->
<g id="node14" class="node"><title>Node14</title>
<polygon fill="white" stroke="#bfbfbf" points="653.5,-0.5 653.5,-19.5 708.5,-19.5 708.5,-0.5 653.5,-0.5"/>
<text text-anchor="middle" x="681" y="-7.5" font-family="Helvetica,sans-Serif" font-size="10.00">crtdefs.h</text>
</g>
<!-- Node13&#45;&gt;Node14 -->
<g id="edge13" class="edge"><title>Node13&#45;&gt;Node14</title>
<path fill="none" stroke="midnightblue" d="M710.22,-56.083C705.328,-48.5341 698.173,-37.4948 692.167,-28.2298"/>
<polygon fill="midnightblue" stroke="midnightblue" points="695.048,-26.239 686.672,-19.7511 689.174,-30.0463 695.048,-26.239"/>
</g>
<!-- Node15 -->
<g id="node15" class="node"><title>Node15</title>
<polygon fill="white" stroke="#bfbfbf" points="727,-0.5 727,-19.5 775,-19.5 775,-0.5 727,-0.5"/>
<text text-anchor="middle" x="751" y="-7.5" font-family="Helvetica,sans-Serif" font-size="10.00">limits.h</text>
</g>
<!-- Node13&#45;&gt;Node15 -->
<g id="edge14" class="edge"><title>Node13&#45;&gt;Node15</title>
<path fill="none" stroke="midnightblue" d="M721.78,-56.083C726.672,-48.5341 733.827,-37.4948 739.833,-28.2298"/>
<polygon fill="midnightblue" stroke="midnightblue" points="742.826,-30.0463 745.328,-19.7511 736.952,-26.239 742.826,-30.0463"/>
</g>
<!-- Node18&#45;&gt;Node13 -->
<g id="edge18" class="edge"><title>Node18&#45;&gt;Node13</title>
<path fill="none" stroke="midnightblue" d="M833.817,-112.444C810.572,-103.478 773.851,-89.314 747.585,-79.1827"/>
<polygon fill="midnightblue" stroke="midnightblue" points="748.669,-75.8497 738.08,-75.5164 746.15,-82.3807 748.669,-75.8497"/>
</g>
<!-- Node19 -->
<g id="node19" class="node"><title>Node19</title>
<g id="a_node19"><a xlink:href="x265__config_8h.html" target="_top" xlink:title="x265_config.h">
<polygon fill="white" stroke="black" points="817.5,-56.5 817.5,-75.5 894.5,-75.5 894.5,-56.5 817.5,-56.5"/>
<text text-anchor="middle" x="856" y="-63.5" font-family="Helvetica,sans-Serif" font-size="10.00">x265_config.h</text>
</a>
</g>
</g>
<!-- Node18&#45;&gt;Node19 -->
<g id="edge19" class="edge"><title>Node18&#45;&gt;Node19</title>
<path fill="none" stroke="midnightblue" d="M856,-112.083C856,-105.006 856,-94.8611 856,-85.9865"/>
<polygon fill="midnightblue" stroke="midnightblue" points="859.5,-85.751 856,-75.7511 852.5,-85.7511 859.5,-85.751"/>
</g>
</g>
</svg>
