<?xml version="1.0" encoding="UTF-8" standalone="no"?>
<!DOCTYPE svg PUBLIC "-//W3C//DTD SVG 1.1//EN"
 "http://www.w3.org/Graphics/SVG/1.1/DTD/svg11.dtd">
<!-- Generated by graphviz version 2.36.0 (20140111.2315)
 -->
<!-- Title: source/common/constants.cpp Pages: 1 -->
<svg width="988pt" height="308pt"
 viewBox="0.00 0.00 988.00 308.00" xmlns="http://www.w3.org/2000/svg" xmlns:xlink="http://www.w3.org/1999/xlink">
<g id="graph0" class="graph" transform="scale(1 1) rotate(0) translate(4 304)">
<title>source/common/constants.cpp</title>
<polygon fill="white" stroke="none" points="-4,4 -4,-304 984,-304 984,4 -4,4"/>
<!-- Node1 -->
<g id="node1" class="node"><title>Node1</title>
<polygon fill="#bfbfbf" stroke="black" points="386.5,-280.5 386.5,-299.5 537.5,-299.5 537.5,-280.5 386.5,-280.5"/>
<text text-anchor="middle" x="462" y="-287.5" font-family="Helvetica,sans-Serif" font-size="10.00">source/common/constants.cpp</text>
</g>
<!-- Node2 -->
<g id="node2" class="node"><title>Node2</title>
<g id="a_node2"><a xlink:href="common_8h.html" target="_top" xlink:title="common.h">
<polygon fill="white" stroke="black" points="431,-168.5 431,-187.5 493,-187.5 493,-168.5 431,-168.5"/>
<text text-anchor="middle" x="462" y="-175.5" font-family="Helvetica,sans-Serif" font-size="10.00">common.h</text>
</a>
</g>
</g>
<!-- Node1&#45;&gt;Node2 -->
<g id="edge1" class="edge"><title>Node1&#45;&gt;Node2</title>
<path fill="none" stroke="midnightblue" d="M462,-280.368C462,-262.617 462,-221.666 462,-197.597"/>
<polygon fill="midnightblue" stroke="midnightblue" points="465.5,-197.591 462,-187.591 458.5,-197.591 465.5,-197.591"/>
</g>
<!-- Node20 -->
<g id="node20" class="node"><title>Node20</title>
<g id="a_node20"><a xlink:href="constants_8h.html" target="_top" xlink:title="constants.h">
<polygon fill="white" stroke="black" points="0,-112.5 0,-131.5 68,-131.5 68,-112.5 0,-112.5"/>
<text text-anchor="middle" x="34" y="-119.5" font-family="Helvetica,sans-Serif" font-size="10.00">constants.h</text>
</a>
</g>
</g>
<!-- Node1&#45;&gt;Node20 -->
<g id="edge22" class="edge"><title>Node1&#45;&gt;Node20</title>
<path fill="none" stroke="midnightblue" d="M439.89,-280.425C369.077,-252.96 147.719,-167.106 65.3183,-135.147"/>
<polygon fill="midnightblue" stroke="midnightblue" points="66.5667,-131.877 55.9777,-131.524 64.0354,-138.403 66.5667,-131.877"/>
</g>
<!-- Node21 -->
<g id="node21" class="node"><title>Node21</title>
<g id="a_node21"><a xlink:href="threading_8h.html" target="_top" xlink:title="threading.h">
<polygon fill="white" stroke="black" points="593.5,-224.5 593.5,-243.5 658.5,-243.5 658.5,-224.5 593.5,-224.5"/>
<text text-anchor="middle" x="626" y="-231.5" font-family="Helvetica,sans-Serif" font-size="10.00">threading.h</text>
</a>
</g>
</g>
<!-- Node1&#45;&gt;Node21 -->
<g id="edge23" class="edge"><title>Node1&#45;&gt;Node21</title>
<path fill="none" stroke="midnightblue" d="M487.986,-280.444C515.696,-271.32 559.752,-256.813 590.616,-246.651"/>
<polygon fill="midnightblue" stroke="midnightblue" points="591.732,-249.968 600.135,-243.516 589.542,-243.32 591.732,-249.968"/>
</g>
<!-- Node3 -->
<g id="node3" class="node"><title>Node3</title>
<polygon fill="white" stroke="#bfbfbf" points="781,-112.5 781,-131.5 837,-131.5 837,-112.5 781,-112.5"/>
<text text-anchor="middle" x="809" y="-119.5" font-family="Helvetica,sans-Serif" font-size="10.00">algorithm</text>
</g>
<!-- Node2&#45;&gt;Node3 -->
<g id="edge2" class="edge"><title>Node2&#45;&gt;Node3</title>
<path fill="none" stroke="midnightblue" d="M493.389,-169.661C496.294,-169.065 499.197,-168.501 502,-168 618.03,-147.254 651.277,-153.955 770.875,-132.035"/>
<polygon fill="midnightblue" stroke="midnightblue" points="771.595,-135.461 780.785,-130.19 770.313,-128.579 771.595,-135.461"/>
</g>
<!-- Node4 -->
<g id="node4" class="node"><title>Node4</title>
<polygon fill="white" stroke="#bfbfbf" points="855.5,-112.5 855.5,-131.5 900.5,-131.5 900.5,-112.5 855.5,-112.5"/>
<text text-anchor="middle" x="878" y="-119.5" font-family="Helvetica,sans-Serif" font-size="10.00">climits</text>
</g>
<!-- Node2&#45;&gt;Node4 -->
<g id="edge3" class="edge"><title>Node2&#45;&gt;Node4</title>
<path fill="none" stroke="midnightblue" d="M493.375,-169.577C496.282,-168.999 499.19,-168.462 502,-168 653.251,-143.134 694.345,-160.258 845,-132 845.106,-131.98 845.212,-131.96 845.318,-131.94"/>
<polygon fill="midnightblue" stroke="midnightblue" points="846.396,-135.285 855.389,-129.684 844.866,-128.454 846.396,-135.285"/>
</g>
<!-- Node5 -->
<g id="node5" class="node"><title>Node5</title>
<polygon fill="white" stroke="#bfbfbf" points="86,-112.5 86,-131.5 130,-131.5 130,-112.5 86,-112.5"/>
<text text-anchor="middle" x="108" y="-119.5" font-family="Helvetica,sans-Serif" font-size="10.00">cmath</text>
</g>
<!-- Node2&#45;&gt;Node5 -->
<g id="edge4" class="edge"><title>Node2&#45;&gt;Node5</title>
<path fill="none" stroke="midnightblue" d="M430.558,-174.14C374.204,-168.688 252.179,-155.404 140.349,-132.022"/>
<polygon fill="midnightblue" stroke="midnightblue" points="140.762,-128.531 130.253,-129.877 139.308,-135.379 140.762,-128.531"/>
</g>
<!-- Node6 -->
<g id="node6" class="node"><title>Node6</title>
<polygon fill="white" stroke="#bfbfbf" points="148.5,-112.5 148.5,-131.5 197.5,-131.5 197.5,-112.5 148.5,-112.5"/>
<text text-anchor="middle" x="173" y="-119.5" font-family="Helvetica,sans-Serif" font-size="10.00">cstdarg</text>
</g>
<!-- Node2&#45;&gt;Node6 -->
<g id="edge5" class="edge"><title>Node2&#45;&gt;Node6</title>
<path fill="none" stroke="midnightblue" d="M430.684,-172.449C384.048,-165.465 293.418,-151.101 207.692,-132.23"/>
<polygon fill="midnightblue" stroke="midnightblue" points="208.327,-128.786 197.805,-130.029 206.805,-135.619 208.327,-128.786"/>
</g>
<!-- Node7 -->
<g id="node7" class="node"><title>Node7</title>
<polygon fill="white" stroke="#bfbfbf" points="215.5,-112.5 215.5,-131.5 264.5,-131.5 264.5,-112.5 215.5,-112.5"/>
<text text-anchor="middle" x="240" y="-119.5" font-family="Helvetica,sans-Serif" font-size="10.00">cstddef</text>
</g>
<!-- Node2&#45;&gt;Node7 -->
<g id="edge6" class="edge"><title>Node2&#45;&gt;Node7</title>
<path fill="none" stroke="midnightblue" d="M430.821,-169.904C395.269,-161.74 335.163,-147.723 274.904,-132.433"/>
<polygon fill="midnightblue" stroke="midnightblue" points="275.398,-128.947 264.843,-129.868 273.669,-135.73 275.398,-128.947"/>
</g>
<!-- Node8 -->
<g id="node8" class="node"><title>Node8</title>
<polygon fill="white" stroke="#bfbfbf" points="282.5,-112.5 282.5,-131.5 325.5,-131.5 325.5,-112.5 282.5,-112.5"/>
<text text-anchor="middle" x="304" y="-119.5" font-family="Helvetica,sans-Serif" font-size="10.00">cstdio</text>
</g>
<!-- Node2&#45;&gt;Node8 -->
<g id="edge7" class="edge"><title>Node2&#45;&gt;Node8</title>
<path fill="none" stroke="midnightblue" d="M436.964,-168.444C409.446,-159.038 365.193,-143.914 335.378,-133.724"/>
<polygon fill="midnightblue" stroke="midnightblue" points="336.46,-130.395 325.865,-130.473 334.196,-137.019 336.46,-130.395"/>
</g>
<!-- Node9 -->
<g id="node9" class="node"><title>Node9</title>
<polygon fill="white" stroke="#bfbfbf" points="343.5,-112.5 343.5,-131.5 388.5,-131.5 388.5,-112.5 343.5,-112.5"/>
<text text-anchor="middle" x="366" y="-119.5" font-family="Helvetica,sans-Serif" font-size="10.00">cstdlib</text>
</g>
<!-- Node2&#45;&gt;Node9 -->
<g id="edge8" class="edge"><title>Node2&#45;&gt;Node9</title>
<path fill="none" stroke="midnightblue" d="M446.576,-168.324C431.46,-159.822 408.185,-146.729 390.529,-136.797"/>
<polygon fill="midnightblue" stroke="midnightblue" points="391.817,-133.507 381.386,-131.655 388.386,-139.608 391.817,-133.507"/>
</g>
<!-- Node10 -->
<g id="node10" class="node"><title>Node10</title>
<polygon fill="white" stroke="#bfbfbf" points="407,-112.5 407,-131.5 453,-131.5 453,-112.5 407,-112.5"/>
<text text-anchor="middle" x="430" y="-119.5" font-family="Helvetica,sans-Serif" font-size="10.00">cstring</text>
</g>
<!-- Node2&#45;&gt;Node10 -->
<g id="edge9" class="edge"><title>Node2&#45;&gt;Node10</title>
<path fill="none" stroke="midnightblue" d="M456.716,-168.083C452.289,-160.613 445.837,-149.724 440.382,-140.52"/>
<polygon fill="midnightblue" stroke="midnightblue" points="443.295,-138.57 435.186,-131.751 437.273,-142.138 443.295,-138.57"/>
</g>
<!-- Node11 -->
<g id="node11" class="node"><title>Node11</title>
<polygon fill="white" stroke="#bfbfbf" points="471,-112.5 471,-131.5 517,-131.5 517,-112.5 471,-112.5"/>
<text text-anchor="middle" x="494" y="-119.5" font-family="Helvetica,sans-Serif" font-size="10.00">cctype</text>
</g>
<!-- Node2&#45;&gt;Node11 -->
<g id="edge10" class="edge"><title>Node2&#45;&gt;Node11</title>
<path fill="none" stroke="midnightblue" d="M467.284,-168.083C471.711,-160.613 478.163,-149.724 483.618,-140.52"/>
<polygon fill="midnightblue" stroke="midnightblue" points="486.727,-142.138 488.814,-131.751 480.705,-138.57 486.727,-142.138"/>
</g>
<!-- Node12 -->
<g id="node12" class="node"><title>Node12</title>
<polygon fill="white" stroke="#bfbfbf" points="535.5,-112.5 535.5,-131.5 576.5,-131.5 576.5,-112.5 535.5,-112.5"/>
<text text-anchor="middle" x="556" y="-119.5" font-family="Helvetica,sans-Serif" font-size="10.00">ctime</text>
</g>
<!-- Node2&#45;&gt;Node12 -->
<g id="edge11" class="edge"><title>Node2&#45;&gt;Node12</title>
<path fill="none" stroke="midnightblue" d="M477.103,-168.324C491.903,-159.822 514.694,-146.729 531.982,-136.797"/>
<polygon fill="midnightblue" stroke="midnightblue" points="534.007,-139.671 540.935,-131.655 530.52,-133.601 534.007,-139.671"/>
</g>
<!-- Node13 -->
<g id="node13" class="node"><title>Node13</title>
<g id="a_node13"><a xlink:href="stdint_8h.html" target="_top" xlink:title="stdint.h">
<polygon fill="white" stroke="black" points="708.5,-56.5 708.5,-75.5 757.5,-75.5 757.5,-56.5 708.5,-56.5"/>
<text text-anchor="middle" x="733" y="-63.5" font-family="Helvetica,sans-Serif" font-size="10.00">stdint.h</text>
</a>
</g>
</g>
<!-- Node2&#45;&gt;Node13 -->
<g id="edge12" class="edge"><title>Node2&#45;&gt;Node13</title>
<path fill="none" stroke="midnightblue" d="M488.283,-168.434C513.44,-159.989 552.292,-146.305 585,-132 602.847,-124.194 606.316,-120.168 624,-112 649.627,-100.163 679.269,-88.023 701.166,-79.3398"/>
<polygon fill="midnightblue" stroke="midnightblue" points="702.619,-82.5293 710.64,-75.607 700.053,-76.0165 702.619,-82.5293"/>
</g>
<!-- Node16 -->
<g id="node16" class="node"><title>Node16</title>
<polygon fill="white" stroke="#bfbfbf" points="633,-112.5 633,-131.5 693,-131.5 693,-112.5 633,-112.5"/>
<text text-anchor="middle" x="663" y="-119.5" font-family="Helvetica,sans-Serif" font-size="10.00">memory.h</text>
</g>
<!-- Node2&#45;&gt;Node16 -->
<g id="edge15" class="edge"><title>Node2&#45;&gt;Node16</title>
<path fill="none" stroke="midnightblue" d="M493.406,-168.562C528.374,-159.168 584.971,-143.963 623.06,-133.73"/>
<polygon fill="midnightblue" stroke="midnightblue" points="624.05,-137.088 632.8,-131.114 622.234,-130.328 624.05,-137.088"/>
</g>
<!-- Node17 -->
<g id="node17" class="node"><title>Node17</title>
<polygon fill="white" stroke="#bfbfbf" points="711,-112.5 711,-131.5 763,-131.5 763,-112.5 711,-112.5"/>
<text text-anchor="middle" x="737" y="-119.5" font-family="Helvetica,sans-Serif" font-size="10.00">assert.h</text>
</g>
<!-- Node2&#45;&gt;Node17 -->
<g id="edge16" class="edge"><title>Node2&#45;&gt;Node17</title>
<path fill="none" stroke="midnightblue" d="M493.416,-169.799C496.315,-169.175 499.21,-168.566 502,-168 586.989,-150.759 611.431,-150.878 700.681,-131.936"/>
<polygon fill="midnightblue" stroke="midnightblue" points="701.657,-135.306 710.701,-129.788 700.189,-128.462 701.657,-135.306"/>
</g>
<!-- Node18 -->
<g id="node18" class="node"><title>Node18</title>
<g id="a_node18"><a xlink:href="x265_8h.html" target="_top" xlink:title="x265.h">
<polygon fill="white" stroke="black" points="919,-112.5 919,-131.5 965,-131.5 965,-112.5 919,-112.5"/>
<text text-anchor="middle" x="942" y="-119.5" font-family="Helvetica,sans-Serif" font-size="10.00">x265.h</text>
</a>
</g>
</g>
<!-- Node2&#45;&gt;Node18 -->
<g id="edge17" class="edge"><title>Node2&#45;&gt;Node18</title>
<path fill="none" stroke="midnightblue" d="M493.367,-169.528C496.276,-168.96 499.187,-168.439 502,-168 678.183,-140.513 728.443,-163.167 908.604,-131.704"/>
<polygon fill="midnightblue" stroke="midnightblue" points="909.449,-135.108 918.681,-129.912 908.223,-128.217 909.449,-135.108"/>
</g>
<!-- Node2&#45;&gt;Node20 -->
<g id="edge20" class="edge"><title>Node2&#45;&gt;Node20</title>
<path fill="none" stroke="midnightblue" d="M430.918,-174.732C365.547,-169.327 209.854,-154.555 75.3228,-133.16"/>
<polygon fill="midnightblue" stroke="midnightblue" points="75.6935,-129.675 65.2644,-131.542 74.5813,-136.586 75.6935,-129.675"/>
</g>
<!-- Node14 -->
<g id="node14" class="node"><title>Node14</title>
<polygon fill="white" stroke="#bfbfbf" points="670.5,-0.5 670.5,-19.5 725.5,-19.5 725.5,-0.5 670.5,-0.5"/>
<text text-anchor="middle" x="698" y="-7.5" font-family="Helvetica,sans-Serif" font-size="10.00">crtdefs.h</text>
</g>
<!-- Node13&#45;&gt;Node14 -->
<g id="edge13" class="edge"><title>Node13&#45;&gt;Node14</title>
<path fill="none" stroke="midnightblue" d="M727.22,-56.083C722.328,-48.5341 715.173,-37.4948 709.167,-28.2298"/>
<polygon fill="midnightblue" stroke="midnightblue" points="712.048,-26.239 703.672,-19.7511 706.174,-30.0463 712.048,-26.239"/>
</g>
<!-- Node15 -->
<g id="node15" class="node"><title>Node15</title>
<polygon fill="white" stroke="#bfbfbf" points="744,-0.5 744,-19.5 792,-19.5 792,-0.5 744,-0.5"/>
<text text-anchor="middle" x="768" y="-7.5" font-family="Helvetica,sans-Serif" font-size="10.00">limits.h</text>
</g>
<!-- Node13&#45;&gt;Node15 -->
<g id="edge14" class="edge"><title>Node13&#45;&gt;Node15</title>
<path fill="none" stroke="midnightblue" d="M738.78,-56.083C743.672,-48.5341 750.827,-37.4948 756.833,-28.2298"/>
<polygon fill="midnightblue" stroke="midnightblue" points="759.826,-30.0463 762.328,-19.7511 753.952,-26.239 759.826,-30.0463"/>
</g>
<!-- Node18&#45;&gt;Node13 -->
<g id="edge18" class="edge"><title>Node18&#45;&gt;Node13</title>
<path fill="none" stroke="midnightblue" d="M918.934,-114.659C915.603,-113.758 912.215,-112.849 909,-112 859.878,-99.0225 802.883,-84.558 767.376,-75.6172"/>
<polygon fill="midnightblue" stroke="midnightblue" points="768.07,-72.1826 757.518,-73.1377 766.362,-78.9712 768.07,-72.1826"/>
</g>
<!-- Node19 -->
<g id="node19" class="node"><title>Node19</title>
<g id="a_node19"><a xlink:href="x265__config_8h.html" target="_top" xlink:title="x265_config.h">
<polygon fill="white" stroke="black" points="903.5,-56.5 903.5,-75.5 980.5,-75.5 980.5,-56.5 903.5,-56.5"/>
<text text-anchor="middle" x="942" y="-63.5" font-family="Helvetica,sans-Serif" font-size="10.00">x265_config.h</text>
</a>
</g>
</g>
<!-- Node18&#45;&gt;Node19 -->
<g id="edge19" class="edge"><title>Node18&#45;&gt;Node19</title>
<path fill="none" stroke="midnightblue" d="M942,-112.083C942,-105.006 942,-94.8611 942,-85.9865"/>
<polygon fill="midnightblue" stroke="midnightblue" points="945.5,-85.751 942,-75.7511 938.5,-85.7511 945.5,-85.751"/>
</g>
<!-- Node20&#45;&gt;Node2 -->
<g id="edge21" class="edge"><title>Node20&#45;&gt;Node2</title>
<path fill="none" stroke="midnightblue" d="M68.1598,-128.71C74.1647,-129.897 80.2787,-131.069 86,-132 207.302,-151.742 351.466,-166.218 420.874,-172.894"/>
<polygon fill="midnightblue" stroke="midnightblue" points="420.67,-176.391 430.959,-173.86 421.338,-169.423 420.67,-176.391"/>
</g>
<!-- Node21&#45;&gt;Node2 -->
<g id="edge24" class="edge"><title>Node21&#45;&gt;Node2</title>
<path fill="none" stroke="midnightblue" d="M600.014,-224.444C572.304,-215.32 528.248,-200.813 497.384,-190.651"/>
<polygon fill="midnightblue" stroke="midnightblue" points="498.458,-187.32 487.865,-187.516 496.268,-193.968 498.458,-187.32"/>
</g>
<!-- Node21&#45;&gt;Node18 -->
<g id="edge25" class="edge"><title>Node21&#45;&gt;Node18</title>
<path fill="none" stroke="midnightblue" d="M644.444,-224.353C663.45,-215.4 693.9,-200.936 720,-188 737.453,-179.349 740.733,-174.765 759,-168 823.292,-144.189 842.587,-149.022 909,-132 909.101,-131.974 909.202,-131.948 909.302,-131.922"/>
<polygon fill="midnightblue" stroke="midnightblue" points="910.165,-135.315 918.945,-129.385 908.383,-128.545 910.165,-135.315"/>
</g>
<!-- Node22 -->
<g id="node22" class="node"><title>Node22</title>
<polygon fill="white" stroke="#bfbfbf" points="768.5,-168.5 768.5,-187.5 825.5,-187.5 825.5,-168.5 768.5,-168.5"/>
<text text-anchor="middle" x="797" y="-175.5" font-family="Helvetica,sans-Serif" font-size="10.00">pthread.h</text>
</g>
<!-- Node21&#45;&gt;Node22 -->
<g id="edge26" class="edge"><title>Node21&#45;&gt;Node22</title>
<path fill="none" stroke="midnightblue" d="M653.095,-224.444C681.988,-215.32 727.925,-200.813 760.105,-190.651"/>
<polygon fill="midnightblue" stroke="midnightblue" points="761.549,-193.865 770.031,-187.516 759.441,-187.19 761.549,-193.865"/>
</g>
<!-- Node23 -->
<g id="node23" class="node"><title>Node23</title>
<polygon fill="white" stroke="#bfbfbf" points="511.5,-168.5 511.5,-187.5 584.5,-187.5 584.5,-168.5 511.5,-168.5"/>
<text text-anchor="middle" x="548" y="-175.5" font-family="Helvetica,sans-Serif" font-size="10.00">semaphore.h</text>
</g>
<!-- Node21&#45;&gt;Node23 -->
<g id="edge27" class="edge"><title>Node21&#45;&gt;Node23</title>
<path fill="none" stroke="midnightblue" d="M613.468,-224.324C601.414,-215.979 582.973,-203.212 568.731,-193.352"/>
<polygon fill="midnightblue" stroke="midnightblue" points="570.715,-190.469 560.501,-187.655 566.731,-196.224 570.715,-190.469"/>
</g>
<!-- Node24 -->
<g id="node24" class="node"><title>Node24</title>
<polygon fill="white" stroke="#bfbfbf" points="602.5,-168.5 602.5,-187.5 649.5,-187.5 649.5,-168.5 602.5,-168.5"/>
<text text-anchor="middle" x="626" y="-175.5" font-family="Helvetica,sans-Serif" font-size="10.00">errno.h</text>
</g>
<!-- Node21&#45;&gt;Node24 -->
<g id="edge28" class="edge"><title>Node21&#45;&gt;Node24</title>
<path fill="none" stroke="midnightblue" d="M626,-224.083C626,-217.006 626,-206.861 626,-197.986"/>
<polygon fill="midnightblue" stroke="midnightblue" points="629.5,-197.751 626,-187.751 622.5,-197.751 629.5,-197.751"/>
</g>
<!-- Node25 -->
<g id="node25" class="node"><title>Node25</title>
<polygon fill="white" stroke="#bfbfbf" points="668,-168.5 668,-187.5 712,-187.5 712,-168.5 668,-168.5"/>
<text text-anchor="middle" x="690" y="-175.5" font-family="Helvetica,sans-Serif" font-size="10.00">fcntl.h</text>
</g>
<!-- Node21&#45;&gt;Node25 -->
<g id="edge29" class="edge"><title>Node21&#45;&gt;Node25</title>
<path fill="none" stroke="midnightblue" d="M636.283,-224.324C645.836,-216.263 660.28,-204.077 671.784,-194.369"/>
<polygon fill="midnightblue" stroke="midnightblue" points="674.144,-196.958 679.53,-187.834 669.63,-191.608 674.144,-196.958"/>
</g>
</g>
</svg>
