<?xml version="1.0" encoding="UTF-8" standalone="no"?>
<!DOCTYPE svg PUBLIC "-//W3C//DTD SVG 1.1//EN"
 "http://www.w3.org/Graphics/SVG/1.1/DTD/svg11.dtd">
<!-- Generated by graphviz version 2.36.0 (20140111.2315)
 -->
<!-- Title: x265_idct8_ssse3 Pages: 1 -->
<svg width="622pt" height="85pt"
 viewBox="0.00 0.00 622.00 85.00" xmlns="http://www.w3.org/2000/svg" xmlns:xlink="http://www.w3.org/1999/xlink">
<g id="graph0" class="graph" transform="scale(1 1) rotate(0) translate(4 81)">
<title>x265_idct8_ssse3</title>
<polygon fill="white" stroke="none" points="-4,4 -4,-81 618,-81 618,4 -4,4"/>
<!-- Node1 -->
<g id="node1" class="node"><title>Node1</title>
<polygon fill="#bfbfbf" stroke="black" points="0.5,-19.5 0.5,-38.5 95.5,-38.5 95.5,-19.5 0.5,-19.5"/>
<text text-anchor="middle" x="48" y="-26.5" font-family="Helvetica,sans-Serif" font-size="10.00">x265_idct8_ssse3</text>
</g>
<!-- Node2 -->
<g id="node2" class="node"><title>Node2</title>
<g id="a_node2"><a xlink:href="namespacex265.html#a5fd4feac77a19680bbf653b38723ad04" target="_top" xlink:title="x265::Setup_Assembly\l_Primitives">
<polygon fill="white" stroke="black" points="132,-14 132,-44 250,-44 250,-14 132,-14"/>
<text text-anchor="start" x="140" y="-32" font-family="Helvetica,sans-Serif" font-size="10.00">x265::Setup_Assembly</text>
<text text-anchor="middle" x="191" y="-21" font-family="Helvetica,sans-Serif" font-size="10.00">_Primitives</text>
</a>
</g>
</g>
<!-- Node1&#45;&gt;Node2 -->
<g id="edge1" class="edge"><title>Node1&#45;&gt;Node2</title>
<path fill="none" stroke="midnightblue" d="M105.574,-29C114.248,-29 123.215,-29 131.921,-29"/>
<polygon fill="midnightblue" stroke="midnightblue" points="105.559,-25.5001 95.5594,-29 105.559,-32.5001 105.559,-25.5001"/>
</g>
<!-- Node3 -->
<g id="node3" class="node"><title>Node3</title>
<g id="a_node3"><a xlink:href="x265_8h.html#a04a58d574a81e33aa7fe7632e2328bf2" target="_top" xlink:title="x265_setup_primitives">
<polygon fill="white" stroke="black" points="286,-38.5 286,-57.5 400,-57.5 400,-38.5 286,-38.5"/>
<text text-anchor="middle" x="343" y="-45.5" font-family="Helvetica,sans-Serif" font-size="10.00">x265_setup_primitives</text>
</a>
</g>
</g>
<!-- Node2&#45;&gt;Node3 -->
<g id="edge2" class="edge"><title>Node2&#45;&gt;Node3</title>
<path fill="none" stroke="midnightblue" d="M260.386,-37.6623C268.941,-38.7459 277.612,-39.8442 285.949,-40.9002"/>
<polygon fill="midnightblue" stroke="midnightblue" points="260.784,-34.1848 250.423,-36.4003 259.904,-41.1293 260.784,-34.1848"/>
</g>
<!-- Node7 -->
<g id="node7" class="node"><title>Node7</title>
<g id="a_node7"><a xlink:href="testbench_8cpp.html#a0ddf1224851353fc92bfbff6f499fa97" target="_top" xlink:title="main">
<polygon fill="white" stroke="black" points="324,-0.5 324,-19.5 362,-19.5 362,-0.5 324,-0.5"/>
<text text-anchor="middle" x="343" y="-7.5" font-family="Helvetica,sans-Serif" font-size="10.00">main</text>
</a>
</g>
</g>
<!-- Node2&#45;&gt;Node7 -->
<g id="edge6" class="edge"><title>Node2&#45;&gt;Node7</title>
<path fill="none" stroke="midnightblue" d="M260.652,-20.3041C283.878,-17.3622 307.921,-14.3166 323.787,-12.3069"/>
<polygon fill="midnightblue" stroke="midnightblue" points="259.904,-16.8707 250.423,-21.5997 260.784,-23.8152 259.904,-16.8707"/>
</g>
<!-- Node4 -->
<g id="node4" class="node"><title>Node4</title>
<g id="a_node4"><a xlink:href="x265_8h.html#add639f6af182534d265ef22d4bf91f90" target="_top" xlink:title="x265_encoder_open">
<polygon fill="white" stroke="black" points="436,-57.5 436,-76.5 540,-76.5 540,-57.5 436,-57.5"/>
<text text-anchor="middle" x="488" y="-64.5" font-family="Helvetica,sans-Serif" font-size="10.00">x265_encoder_open</text>
</a>
</g>
</g>
<!-- Node3&#45;&gt;Node4 -->
<g id="edge3" class="edge"><title>Node3&#45;&gt;Node4</title>
<path fill="none" stroke="midnightblue" d="M410.118,-56.7849C418.712,-57.9268 427.411,-59.0825 435.713,-60.1856"/>
<polygon fill="midnightblue" stroke="midnightblue" points="410.481,-53.3024 400.107,-55.4548 409.559,-60.2415 410.481,-53.3024"/>
</g>
<!-- Node5 -->
<g id="node5" class="node"><title>Node5</title>
<g id="a_node5"><a xlink:href="structCLIOptions.html#a9fc5f387d720db54ca46e6abf917719f" target="_top" xlink:title="CLIOptions::parse">
<polygon fill="white" stroke="black" points="440,-19.5 440,-38.5 536,-38.5 536,-19.5 440,-19.5"/>
<text text-anchor="middle" x="488" y="-26.5" font-family="Helvetica,sans-Serif" font-size="10.00">CLIOptions::parse</text>
</a>
</g>
</g>
<!-- Node3&#45;&gt;Node5 -->
<g id="edge4" class="edge"><title>Node3&#45;&gt;Node5</title>
<path fill="none" stroke="midnightblue" d="M410.073,-39.2211C420.117,-37.8866 430.304,-36.533 439.836,-35.2666"/>
<polygon fill="midnightblue" stroke="midnightblue" points="409.559,-35.7585 400.107,-40.5452 410.481,-42.6976 409.559,-35.7585"/>
</g>
<!-- Node6 -->
<g id="node6" class="node"><title>Node6</title>
<g id="a_node6"><a xlink:href="x265_8cpp.html#a3c04138a5bfe5d72780bb7e82a18e627" target="_top" xlink:title="main">
<polygon fill="white" stroke="black" points="576,-19.5 576,-38.5 614,-38.5 614,-19.5 576,-19.5"/>
<text text-anchor="middle" x="595" y="-26.5" font-family="Helvetica,sans-Serif" font-size="10.00">main</text>
</a>
</g>
</g>
<!-- Node5&#45;&gt;Node6 -->
<g id="edge5" class="edge"><title>Node5&#45;&gt;Node6</title>
<path fill="none" stroke="midnightblue" d="M546.513,-29C557.159,-29 567.528,-29 575.846,-29"/>
<polygon fill="midnightblue" stroke="midnightblue" points="546.278,-25.5001 536.278,-29 546.278,-32.5001 546.278,-25.5001"/>
</g>
</g>
</svg>
