<?xml version="1.0" encoding="UTF-8" standalone="no"?>
<!DOCTYPE svg PUBLIC "-//W3C//DTD SVG 1.1//EN"
 "http://www.w3.org/Graphics/SVG/1.1/DTD/svg11.dtd">
<!-- Generated by graphviz version 2.36.0 (20140111.2315)
 -->
<!-- Title: source/common/deblock.cpp Pages: 1 -->
<!--zoomable 588 -->
<svg id="main" version="1.1" xmlns="http://www.w3.org/2000/svg" xmlns:xlink="http://www.w3.org/1999/xlink" xml:space="preserve" onload="init(evt)">
<style type="text/css"><![CDATA[
.edge:hover path { stroke: red; }
.edge:hover polygon { stroke: red; fill: red; }
]]></style>
<script type="text/javascript"><![CDATA[
var edges = document.getElementsByTagName('g');
if (edges && edges.length) {
  for (var i=0;i<edges.length;i++) {
    if (edges[i].id.substr(0,4)=='edge') {
      edges[i].setAttribute('class','edge');
    }
  }
}
]]></script>
        <defs>
                <circle id="rim" cx="0" cy="0" r="7"/>
                <circle id="rim2" cx="0" cy="0" r="3.5"/>
                <g id="zoomPlus">
                        <use xlink:href="#rim" fill="#404040">
                                <set attributeName="fill" to="#808080" begin="zoomplus.mouseover" end="zoomplus.mouseout"/>
                        </use>
                        <path d="M-4,0h8M0,-4v8" fill="none" stroke="white" stroke-width="1.5" pointer-events="none"/>
                </g>
                <g id="zoomMin">
                        <use xlink:href="#rim" fill="#404040">
                                <set attributeName="fill" to="#808080" begin="zoomminus.mouseover" end="zoomminus.mouseout"/>
                        </use>
                        <path d="M-4,0h8" fill="none" stroke="white" stroke-width="1.5" pointer-events="none"/>
                </g>
                <g id="dirArrow">
                        <path fill="none" stroke="white" stroke-width="1.5" d="M0,-3.0v7 M-2.5,-0.5L0,-3.0L2.5,-0.5"/>
                </g>
               <g id="resetDef">
                       <use xlink:href="#rim2" fill="#404040">
                               <set attributeName="fill" to="#808080" begin="reset.mouseover" end="reset.mouseout"/>
                       </use>
               </g>
        </defs>

<script type="text/javascript">
var viewWidth = 1231;
var viewHeight = 588;
var sectionId = 'dynsection-0';
</script>
<script xlink:href="svgpan.js"/>
<svg id="graph" class="graph">
<g id="viewport">
<title>source/common/deblock.cpp</title>
<polygon fill="white" stroke="none" points="-4,4 -4,-584 1227,-584 1227,4 -4,4"/>
<!-- Node1 -->
<g id="node1" class="node"><title>Node1</title>
<polygon fill="#bfbfbf" stroke="black" points="475,-560.5 475,-579.5 617,-579.5 617,-560.5 475,-560.5"/>
<text text-anchor="middle" x="546" y="-567.5" font-family="Helvetica,sans-Serif" font-size="10.00">source/common/deblock.cpp</text>
</g>
<!-- Node2 -->
<g id="node2" class="node"><title>Node2</title>
<g id="a_node2"><a xlink:href="common_8h.html" target="_top" xlink:title="common.h">
<polygon fill="white" stroke="black" points="538,-168.5 538,-187.5 600,-187.5 600,-168.5 538,-168.5"/>
<text text-anchor="middle" x="569" y="-175.5" font-family="Helvetica,sans-Serif" font-size="10.00">common.h</text>
</a>
</g>
</g>
<!-- Node1&#45;&gt;Node2 -->
<g id="edge1" class="edge"><title>Node1&#45;&gt;Node2</title>
<path fill="none" stroke="midnightblue" d="M474.778,-561.636C412.857,-550.826 333,-524.238 333,-459 333,-459 333,-459 333,-289 333,-204.255 459.561,-184.639 527.319,-180.209"/>
<polygon fill="midnightblue" stroke="midnightblue" points="527.876,-183.683 537.661,-179.621 527.478,-176.695 527.876,-183.683"/>
</g>
<!-- Node21 -->
<g id="node21" class="node"><title>Node21</title>
<g id="a_node21"><a xlink:href="deblock_8h.html" target="_top" xlink:title="deblock.h">
<polygon fill="white" stroke="black" points="361.5,-448.5 361.5,-467.5 420.5,-467.5 420.5,-448.5 361.5,-448.5"/>
<text text-anchor="middle" x="391" y="-455.5" font-family="Helvetica,sans-Serif" font-size="10.00">deblock.h</text>
</a>
</g>
</g>
<!-- Node1&#45;&gt;Node21 -->
<g id="edge22" class="edge"><title>Node1&#45;&gt;Node21</title>
<path fill="none" stroke="midnightblue" d="M533.837,-560.368C507.353,-541.573 444.219,-496.768 411.479,-473.533"/>
<polygon fill="midnightblue" stroke="midnightblue" points="413.287,-470.525 403.106,-467.591 409.236,-476.233 413.287,-470.525"/>
</g>
<!-- Node22 -->
<g id="node22" class="node"><title>Node22</title>
<g id="a_node22"><a xlink:href="frame_8h.html" target="_top" xlink:title="frame.h">
<polygon fill="white" stroke="black" points="495,-504.5 495,-523.5 545,-523.5 545,-504.5 495,-504.5"/>
<text text-anchor="middle" x="520" y="-511.5" font-family="Helvetica,sans-Serif" font-size="10.00">frame.h</text>
</a>
</g>
</g>
<!-- Node1&#45;&gt;Node22 -->
<g id="edge24" class="edge"><title>Node1&#45;&gt;Node22</title>
<path fill="none" stroke="midnightblue" d="M541.707,-560.083C538.148,-552.691 532.978,-541.953 528.576,-532.811"/>
<polygon fill="midnightblue" stroke="midnightblue" points="531.705,-531.243 524.213,-523.751 525.398,-534.279 531.705,-531.243"/>
</g>
<!-- Node24 -->
<g id="node24" class="node"><title>Node24</title>
<g id="a_node24"><a xlink:href="slice_8h.html" target="_top" xlink:title="slice.h">
<polygon fill="white" stroke="black" points="515.5,-336.5 515.5,-355.5 560.5,-355.5 560.5,-336.5 515.5,-336.5"/>
<text text-anchor="middle" x="538" y="-343.5" font-family="Helvetica,sans-Serif" font-size="10.00">slice.h</text>
</a>
</g>
</g>
<!-- Node1&#45;&gt;Node24 -->
<g id="edge55" class="edge"><title>Node1&#45;&gt;Node24</title>
<path fill="none" stroke="midnightblue" d="M547.987,-560.433C549.967,-551.424 552.871,-536.805 554,-524 556.968,-490.353 556.651,-481.674 554,-448 551.718,-419.015 545.808,-385.781 541.845,-365.596"/>
<polygon fill="midnightblue" stroke="midnightblue" points="545.236,-364.704 539.83,-355.592 538.374,-366.087 545.236,-364.704"/>
</g>
<!-- Node26 -->
<g id="node26" class="node"><title>Node26</title>
<g id="a_node26"><a xlink:href="mv_8h.html" target="_top" xlink:title="mv.h">
<polygon fill="white" stroke="black" points="639,-336.5 639,-355.5 677,-355.5 677,-336.5 639,-336.5"/>
<text text-anchor="middle" x="658" y="-343.5" font-family="Helvetica,sans-Serif" font-size="10.00">mv.h</text>
</a>
</g>
</g>
<!-- Node1&#45;&gt;Node26 -->
<g id="edge56" class="edge"><title>Node1&#45;&gt;Node26</title>
<path fill="none" stroke="midnightblue" d="M554.519,-560.424C575.937,-538.223 631.894,-476.117 654,-412 659.13,-397.119 659.864,-379.2 659.465,-365.948"/>
<polygon fill="midnightblue" stroke="midnightblue" points="662.946,-365.492 658.906,-355.698 655.956,-365.874 662.946,-365.492"/>
</g>
<!-- Node35 -->
<g id="node35" class="node"><title>Node35</title>
<g id="a_node35"><a xlink:href="picyuv_8h.html" target="_top" xlink:title="picyuv.h">
<polygon fill="white" stroke="black" points="787.5,-280.5 787.5,-299.5 840.5,-299.5 840.5,-280.5 787.5,-280.5"/>
<text text-anchor="middle" x="814" y="-287.5" font-family="Helvetica,sans-Serif" font-size="10.00">picyuv.h</text>
</a>
</g>
</g>
<!-- Node1&#45;&gt;Node35 -->
<g id="edge50" class="edge"><title>Node1&#45;&gt;Node35</title>
<path fill="none" stroke="midnightblue" d="M617.322,-561.892C722.528,-549.4 907,-518.95 907,-459 907,-459 907,-459 907,-401 907,-358.311 865.649,-323.643 838.093,-305.28"/>
<polygon fill="midnightblue" stroke="midnightblue" points="839.667,-302.132 829.357,-299.69 835.894,-308.028 839.667,-302.132"/>
</g>
<!-- Node3 -->
<g id="node3" class="node"><title>Node3</title>
<polygon fill="white" stroke="#bfbfbf" points="0,-112.5 0,-131.5 56,-131.5 56,-112.5 0,-112.5"/>
<text text-anchor="middle" x="28" y="-119.5" font-family="Helvetica,sans-Serif" font-size="10.00">algorithm</text>
</g>
<!-- Node2&#45;&gt;Node3 -->
<g id="edge2" class="edge"><title>Node2&#45;&gt;Node3</title>
<path fill="none" stroke="midnightblue" d="M537.826,-175.839C459.89,-172.592 250.22,-161.738 66.316,-131.98"/>
<polygon fill="midnightblue" stroke="midnightblue" points="66.6272,-128.484 56.1923,-130.318 65.4933,-135.391 66.6272,-128.484"/>
</g>
<!-- Node4 -->
<g id="node4" class="node"><title>Node4</title>
<polygon fill="white" stroke="#bfbfbf" points="74.5,-112.5 74.5,-131.5 119.5,-131.5 119.5,-112.5 74.5,-112.5"/>
<text text-anchor="middle" x="97" y="-119.5" font-family="Helvetica,sans-Serif" font-size="10.00">climits</text>
</g>
<!-- Node2&#45;&gt;Node4 -->
<g id="edge3" class="edge"><title>Node2&#45;&gt;Node4</title>
<path fill="none" stroke="midnightblue" d="M537.794,-175.656C466.882,-172.211 288.153,-161.312 129.546,-131.76"/>
<polygon fill="midnightblue" stroke="midnightblue" points="130.087,-128.301 119.611,-129.879 128.785,-135.179 130.087,-128.301"/>
</g>
<!-- Node5 -->
<g id="node5" class="node"><title>Node5</title>
<polygon fill="white" stroke="#bfbfbf" points="138,-112.5 138,-131.5 182,-131.5 182,-112.5 138,-112.5"/>
<text text-anchor="middle" x="160" y="-119.5" font-family="Helvetica,sans-Serif" font-size="10.00">cmath</text>
</g>
<!-- Node2&#45;&gt;Node5 -->
<g id="edge4" class="edge"><title>Node2&#45;&gt;Node5</title>
<path fill="none" stroke="midnightblue" d="M537.857,-175.029C474.452,-170.646 325.757,-158.48 192.236,-131.95"/>
<polygon fill="midnightblue" stroke="midnightblue" points="192.737,-128.481 182.242,-129.931 191.351,-135.342 192.737,-128.481"/>
</g>
<!-- Node6 -->
<g id="node6" class="node"><title>Node6</title>
<polygon fill="white" stroke="#bfbfbf" points="200.5,-112.5 200.5,-131.5 249.5,-131.5 249.5,-112.5 200.5,-112.5"/>
<text text-anchor="middle" x="225" y="-119.5" font-family="Helvetica,sans-Serif" font-size="10.00">cstdarg</text>
</g>
<!-- Node2&#45;&gt;Node6 -->
<g id="edge5" class="edge"><title>Node2&#45;&gt;Node6</title>
<path fill="none" stroke="midnightblue" d="M537.881,-173.776C483.343,-167.852 366.821,-153.973 259.782,-132.175"/>
<polygon fill="midnightblue" stroke="midnightblue" points="260.289,-128.706 249.787,-130.11 258.873,-135.561 260.289,-128.706"/>
</g>
<!-- Node7 -->
<g id="node7" class="node"><title>Node7</title>
<polygon fill="white" stroke="#bfbfbf" points="267.5,-112.5 267.5,-131.5 316.5,-131.5 316.5,-112.5 267.5,-112.5"/>
<text text-anchor="middle" x="292" y="-119.5" font-family="Helvetica,sans-Serif" font-size="10.00">cstddef</text>
</g>
<!-- Node2&#45;&gt;Node7 -->
<g id="edge6" class="edge"><title>Node2&#45;&gt;Node7</title>
<path fill="none" stroke="midnightblue" d="M537.629,-172.079C492.834,-164.866 407.784,-150.477 326.679,-132.248"/>
<polygon fill="midnightblue" stroke="midnightblue" points="327.337,-128.808 316.81,-130.006 325.786,-135.634 327.337,-128.808"/>
</g>
<!-- Node8 -->
<g id="node8" class="node"><title>Node8</title>
<polygon fill="white" stroke="#bfbfbf" points="334.5,-112.5 334.5,-131.5 377.5,-131.5 377.5,-112.5 334.5,-112.5"/>
<text text-anchor="middle" x="356" y="-119.5" font-family="Helvetica,sans-Serif" font-size="10.00">cstdio</text>
</g>
<!-- Node2&#45;&gt;Node8 -->
<g id="edge7" class="edge"><title>Node2&#45;&gt;Node8</title>
<path fill="none" stroke="midnightblue" d="M537.792,-169.831C503.194,-161.773 445.521,-148.014 387.315,-132.267"/>
<polygon fill="midnightblue" stroke="midnightblue" points="388.161,-128.87 377.593,-129.619 386.322,-135.624 388.161,-128.87"/>
</g>
<!-- Node9 -->
<g id="node9" class="node"><title>Node9</title>
<polygon fill="white" stroke="#bfbfbf" points="395.5,-112.5 395.5,-131.5 440.5,-131.5 440.5,-112.5 395.5,-112.5"/>
<text text-anchor="middle" x="418" y="-119.5" font-family="Helvetica,sans-Serif" font-size="10.00">cstdlib</text>
</g>
<!-- Node2&#45;&gt;Node9 -->
<g id="edge8" class="edge"><title>Node2&#45;&gt;Node9</title>
<path fill="none" stroke="midnightblue" d="M545.074,-168.444C519.484,-159.292 478.752,-144.726 450.324,-134.559"/>
<polygon fill="midnightblue" stroke="midnightblue" points="451.421,-131.235 440.826,-131.163 449.063,-137.826 451.421,-131.235"/>
</g>
<!-- Node10 -->
<g id="node10" class="node"><title>Node10</title>
<polygon fill="white" stroke="#bfbfbf" points="459,-112.5 459,-131.5 505,-131.5 505,-112.5 459,-112.5"/>
<text text-anchor="middle" x="482" y="-119.5" font-family="Helvetica,sans-Serif" font-size="10.00">cstring</text>
</g>
<!-- Node2&#45;&gt;Node10 -->
<g id="edge9" class="edge"><title>Node2&#45;&gt;Node10</title>
<path fill="none" stroke="midnightblue" d="M555.022,-168.324C541.45,-159.9 520.62,-146.971 504.675,-137.074"/>
<polygon fill="midnightblue" stroke="midnightblue" points="506.286,-133.954 495.943,-131.655 502.594,-139.902 506.286,-133.954"/>
</g>
<!-- Node11 -->
<g id="node11" class="node"><title>Node11</title>
<polygon fill="white" stroke="#bfbfbf" points="523,-112.5 523,-131.5 569,-131.5 569,-112.5 523,-112.5"/>
<text text-anchor="middle" x="546" y="-119.5" font-family="Helvetica,sans-Serif" font-size="10.00">cctype</text>
</g>
<!-- Node2&#45;&gt;Node11 -->
<g id="edge10" class="edge"><title>Node2&#45;&gt;Node11</title>
<path fill="none" stroke="midnightblue" d="M565.202,-168.083C562.087,-160.77 557.577,-150.181 553.711,-141.103"/>
<polygon fill="midnightblue" stroke="midnightblue" points="556.866,-139.58 549.727,-131.751 550.426,-142.323 556.866,-139.58"/>
</g>
<!-- Node12 -->
<g id="node12" class="node"><title>Node12</title>
<polygon fill="white" stroke="#bfbfbf" points="587.5,-112.5 587.5,-131.5 628.5,-131.5 628.5,-112.5 587.5,-112.5"/>
<text text-anchor="middle" x="608" y="-119.5" font-family="Helvetica,sans-Serif" font-size="10.00">ctime</text>
</g>
<!-- Node2&#45;&gt;Node12 -->
<g id="edge11" class="edge"><title>Node2&#45;&gt;Node12</title>
<path fill="none" stroke="midnightblue" d="M575.44,-168.083C580.949,-160.455 589.031,-149.264 595.765,-139.941"/>
<polygon fill="midnightblue" stroke="midnightblue" points="598.662,-141.907 601.68,-131.751 592.987,-137.809 598.662,-141.907"/>
</g>
<!-- Node13 -->
<g id="node13" class="node"><title>Node13</title>
<g id="a_node13"><a xlink:href="stdint_8h.html" target="_top" xlink:title="stdint.h">
<polygon fill="white" stroke="black" points="734.5,-56.5 734.5,-75.5 783.5,-75.5 783.5,-56.5 734.5,-56.5"/>
<text text-anchor="middle" x="759" y="-63.5" font-family="Helvetica,sans-Serif" font-size="10.00">stdint.h</text>
</a>
</g>
</g>
<!-- Node2&#45;&gt;Node13 -->
<g id="edge12" class="edge"><title>Node2&#45;&gt;Node13</title>
<path fill="none" stroke="midnightblue" d="M582.722,-168.367C602.957,-155.705 642.074,-131.486 676,-112 695.13,-101.013 717.086,-89.1406 733.609,-80.3507"/>
<polygon fill="midnightblue" stroke="midnightblue" points="735.45,-83.3363 742.647,-75.5615 732.172,-77.1509 735.45,-83.3363"/>
</g>
<!-- Node16 -->
<g id="node16" class="node"><title>Node16</title>
<polygon fill="white" stroke="#bfbfbf" points="685,-112.5 685,-131.5 745,-131.5 745,-112.5 685,-112.5"/>
<text text-anchor="middle" x="715" y="-119.5" font-family="Helvetica,sans-Serif" font-size="10.00">memory.h</text>
</g>
<!-- Node2&#45;&gt;Node16 -->
<g id="edge15" class="edge"><title>Node2&#45;&gt;Node16</title>
<path fill="none" stroke="midnightblue" d="M592.134,-168.444C616.482,-159.438 655.007,-145.189 682.423,-135.049"/>
<polygon fill="midnightblue" stroke="midnightblue" points="683.809,-138.268 691.974,-131.516 681.381,-131.703 683.809,-138.268"/>
</g>
<!-- Node17 -->
<g id="node17" class="node"><title>Node17</title>
<polygon fill="white" stroke="#bfbfbf" points="763,-112.5 763,-131.5 815,-131.5 815,-112.5 763,-112.5"/>
<text text-anchor="middle" x="789" y="-119.5" font-family="Helvetica,sans-Serif" font-size="10.00">assert.h</text>
</g>
<!-- Node2&#45;&gt;Node17 -->
<g id="edge16" class="edge"><title>Node2&#45;&gt;Node17</title>
<path fill="none" stroke="midnightblue" d="M600.266,-169.405C634.954,-160.967 692.849,-146.852 752.655,-132.075"/>
<polygon fill="midnightblue" stroke="midnightblue" points="753.79,-135.4 762.658,-129.602 752.11,-128.605 753.79,-135.4"/>
</g>
<!-- Node18 -->
<g id="node18" class="node"><title>Node18</title>
<g id="a_node18"><a xlink:href="x265_8h.html" target="_top" xlink:title="x265.h">
<polygon fill="white" stroke="black" points="919,-112.5 919,-131.5 965,-131.5 965,-112.5 919,-112.5"/>
<text text-anchor="middle" x="942" y="-119.5" font-family="Helvetica,sans-Serif" font-size="10.00">x265.h</text>
</a>
</g>
</g>
<!-- Node2&#45;&gt;Node18 -->
<g id="edge17" class="edge"><title>Node2&#45;&gt;Node18</title>
<path fill="none" stroke="midnightblue" d="M600.28,-174.381C658.971,-169.143 789.703,-155.948 908.672,-132.019"/>
<polygon fill="midnightblue" stroke="midnightblue" points="909.579,-135.407 918.676,-129.976 908.178,-128.548 909.579,-135.407"/>
</g>
<!-- Node20 -->
<g id="node20" class="node"><title>Node20</title>
<g id="a_node20"><a xlink:href="constants_8h.html" target="_top" xlink:title="constants.h">
<polygon fill="white" stroke="black" points="833,-112.5 833,-131.5 901,-131.5 901,-112.5 833,-112.5"/>
<text text-anchor="middle" x="867" y="-119.5" font-family="Helvetica,sans-Serif" font-size="10.00">constants.h</text>
</a>
</g>
</g>
<!-- Node2&#45;&gt;Node20 -->
<g id="edge20" class="edge"><title>Node2&#45;&gt;Node20</title>
<path fill="none" stroke="midnightblue" d="M600.106,-170.81C646.955,-162.455 737.752,-146.896 815,-132 817.579,-131.503 820.242,-130.976 822.942,-130.438"/>
<polygon fill="midnightblue" stroke="midnightblue" points="823.679,-133.86 832.796,-128.463 822.304,-126.996 823.679,-133.86"/>
</g>
<!-- Node14 -->
<g id="node14" class="node"><title>Node14</title>
<polygon fill="white" stroke="#bfbfbf" points="696.5,-0.5 696.5,-19.5 751.5,-19.5 751.5,-0.5 696.5,-0.5"/>
<text text-anchor="middle" x="724" y="-7.5" font-family="Helvetica,sans-Serif" font-size="10.00">crtdefs.h</text>
</g>
<!-- Node13&#45;&gt;Node14 -->
<g id="edge13" class="edge"><title>Node13&#45;&gt;Node14</title>
<path fill="none" stroke="midnightblue" d="M753.22,-56.083C748.328,-48.5341 741.173,-37.4948 735.167,-28.2298"/>
<polygon fill="midnightblue" stroke="midnightblue" points="738.048,-26.239 729.672,-19.7511 732.174,-30.0463 738.048,-26.239"/>
</g>
<!-- Node15 -->
<g id="node15" class="node"><title>Node15</title>
<polygon fill="white" stroke="#bfbfbf" points="770,-0.5 770,-19.5 818,-19.5 818,-0.5 770,-0.5"/>
<text text-anchor="middle" x="794" y="-7.5" font-family="Helvetica,sans-Serif" font-size="10.00">limits.h</text>
</g>
<!-- Node13&#45;&gt;Node15 -->
<g id="edge14" class="edge"><title>Node13&#45;&gt;Node15</title>
<path fill="none" stroke="midnightblue" d="M764.78,-56.083C769.672,-48.5341 776.827,-37.4948 782.833,-28.2298"/>
<polygon fill="midnightblue" stroke="midnightblue" points="785.826,-30.0463 788.328,-19.7511 779.952,-26.239 785.826,-30.0463"/>
</g>
<!-- Node18&#45;&gt;Node13 -->
<g id="edge18" class="edge"><title>Node18&#45;&gt;Node13</title>
<path fill="none" stroke="midnightblue" d="M918.823,-114.161C887.175,-104.822 830.19,-88.0069 793.509,-77.183"/>
<polygon fill="midnightblue" stroke="midnightblue" points="794.321,-73.7736 783.74,-74.3002 792.34,-80.4874 794.321,-73.7736"/>
</g>
<!-- Node19 -->
<g id="node19" class="node"><title>Node19</title>
<g id="a_node19"><a xlink:href="x265__config_8h.html" target="_top" xlink:title="x265_config.h">
<polygon fill="white" stroke="black" points="903.5,-56.5 903.5,-75.5 980.5,-75.5 980.5,-56.5 903.5,-56.5"/>
<text text-anchor="middle" x="942" y="-63.5" font-family="Helvetica,sans-Serif" font-size="10.00">x265_config.h</text>
</a>
</g>
</g>
<!-- Node18&#45;&gt;Node19 -->
<g id="edge19" class="edge"><title>Node18&#45;&gt;Node19</title>
<path fill="none" stroke="midnightblue" d="M942,-112.083C942,-105.006 942,-94.8611 942,-85.9865"/>
<polygon fill="midnightblue" stroke="midnightblue" points="945.5,-85.751 942,-75.7511 938.5,-85.7511 945.5,-85.751"/>
</g>
<!-- Node20&#45;&gt;Node2 -->
<g id="edge21" class="edge"><title>Node20&#45;&gt;Node2</title>
<path fill="none" stroke="midnightblue" d="M835.266,-131.56C834.505,-131.709 833.749,-131.856 833,-132 754.58,-147.122 662.195,-162.927 609.987,-171.185"/>
<polygon fill="midnightblue" stroke="midnightblue" points="609.436,-167.729 600.097,-172.733 610.519,-174.644 609.436,-167.729"/>
</g>
<!-- Node21&#45;&gt;Node2 -->
<g id="edge23" class="edge"><title>Node21&#45;&gt;Node2</title>
<path fill="none" stroke="midnightblue" d="M392.307,-448.466C395.018,-430.007 401,-384.968 401,-347 401,-347 401,-347 401,-289 401,-256.398 410.2,-245.163 435,-224 461.186,-201.655 498.907,-190.287 527.661,-184.575"/>
<polygon fill="midnightblue" stroke="midnightblue" points="528.604,-187.96 537.81,-182.716 527.343,-181.075 528.604,-187.96"/>
</g>
<!-- Node22&#45;&gt;Node2 -->
<g id="edge25" class="edge"><title>Node22&#45;&gt;Node2</title>
<path fill="none" stroke="midnightblue" d="M506.082,-504.314C494.3,-496.27 477.807,-483.269 468,-468 451.735,-442.675 449,-433.098 449,-403 449,-403 449,-403 449,-289 449,-241.08 501.643,-208.382 537.194,-191.764"/>
<polygon fill="midnightblue" stroke="midnightblue" points="539.013,-194.785 546.71,-187.504 536.153,-188.396 539.013,-194.785"/>
</g>
<!-- Node23 -->
<g id="node23" class="node"><title>Node23</title>
<g id="a_node23"><a xlink:href="framedata_8h.html" target="_top" xlink:title="framedata.h">
<polygon fill="white" stroke="black" points="477,-448.5 477,-467.5 545,-467.5 545,-448.5 477,-448.5"/>
<text text-anchor="middle" x="511" y="-455.5" font-family="Helvetica,sans-Serif" font-size="10.00">framedata.h</text>
</a>
</g>
</g>
<!-- Node22&#45;&gt;Node23 -->
<g id="edge26" class="edge"><title>Node22&#45;&gt;Node23</title>
<path fill="none" stroke="midnightblue" d="M518.514,-504.083C517.321,-496.927 515.606,-486.635 514.115,-477.691"/>
<polygon fill="midnightblue" stroke="midnightblue" points="517.555,-477.04 512.459,-467.751 510.65,-478.19 517.555,-477.04"/>
</g>
<!-- Node29 -->
<g id="node29" class="node"><title>Node29</title>
<g id="a_node29"><a xlink:href="lowres_8h.html" target="_top" xlink:title="lowres.h">
<polygon fill="white" stroke="black" points="701.5,-392.5 701.5,-411.5 754.5,-411.5 754.5,-392.5 701.5,-392.5"/>
<text text-anchor="middle" x="728" y="-399.5" font-family="Helvetica,sans-Serif" font-size="10.00">lowres.h</text>
</a>
</g>
</g>
<!-- Node22&#45;&gt;Node29 -->
<g id="edge39" class="edge"><title>Node22&#45;&gt;Node29</title>
<path fill="none" stroke="midnightblue" d="M536.321,-504.368C572.47,-485.251 659.494,-439.229 702.736,-416.361"/>
<polygon fill="midnightblue" stroke="midnightblue" points="704.551,-419.36 711.754,-411.591 701.278,-413.172 704.551,-419.36"/>
</g>
<!-- Node30 -->
<g id="node30" class="node"><title>Node30</title>
<g id="a_node30"><a xlink:href="threading_8h.html" target="_top" xlink:title="threading.h">
<polygon fill="white" stroke="black" points="943.5,-224.5 943.5,-243.5 1008.5,-243.5 1008.5,-224.5 943.5,-224.5"/>
<text text-anchor="middle" x="976" y="-231.5" font-family="Helvetica,sans-Serif" font-size="10.00">threading.h</text>
</a>
</g>
</g>
<!-- Node22&#45;&gt;Node30 -->
<g id="edge43" class="edge"><title>Node22&#45;&gt;Node30</title>
<path fill="none" stroke="midnightblue" d="M545.099,-510.578C625.122,-502.172 869,-470.976 869,-403 869,-403 869,-403 869,-345 869,-299.413 916.803,-265.624 948.506,-248.227"/>
<polygon fill="midnightblue" stroke="midnightblue" points="950.148,-251.318 957.362,-243.559 946.884,-245.125 950.148,-251.318"/>
</g>
<!-- Node23&#45;&gt;Node2 -->
<g id="edge27" class="edge"><title>Node23&#45;&gt;Node2</title>
<path fill="none" stroke="midnightblue" d="M507.763,-448.301C501.212,-429.889 487,-385.507 487,-347 487,-347 487,-347 487,-289 487,-248.269 523.587,-212.872 547.883,-193.856"/>
<polygon fill="midnightblue" stroke="midnightblue" points="550.298,-196.42 556.188,-187.612 546.091,-190.825 550.298,-196.42"/>
</g>
<!-- Node23&#45;&gt;Node24 -->
<g id="edge28" class="edge"><title>Node23&#45;&gt;Node24</title>
<path fill="none" stroke="midnightblue" d="M513.119,-448.368C517.476,-430.617 527.527,-389.666 533.435,-365.597"/>
<polygon fill="midnightblue" stroke="midnightblue" points="536.906,-366.137 535.891,-355.591 530.108,-364.469 536.906,-366.137"/>
</g>
<!-- Node25 -->
<g id="node25" class="node"><title>Node25</title>
<g id="a_node25"><a xlink:href="cudata_8h.html" target="_top" xlink:title="cudata.h">
<polygon fill="white" stroke="black" points="591,-392.5 591,-411.5 645,-411.5 645,-392.5 591,-392.5"/>
<text text-anchor="middle" x="618" y="-399.5" font-family="Helvetica,sans-Serif" font-size="10.00">cudata.h</text>
</a>
</g>
</g>
<!-- Node23&#45;&gt;Node25 -->
<g id="edge30" class="edge"><title>Node23&#45;&gt;Node25</title>
<path fill="none" stroke="midnightblue" d="M528.191,-448.324C545.351,-439.664 571.946,-426.242 591.747,-416.249"/>
<polygon fill="midnightblue" stroke="midnightblue" points="593.501,-419.285 600.851,-411.655 590.347,-413.035 593.501,-419.285"/>
</g>
<!-- Node24&#45;&gt;Node2 -->
<g id="edge29" class="edge"><title>Node24&#45;&gt;Node2</title>
<path fill="none" stroke="midnightblue" d="M538.725,-336.406C540.511,-316.47 545.67,-265.605 555,-224 557.017,-215.007 559.969,-205.216 562.643,-197.07"/>
<polygon fill="midnightblue" stroke="midnightblue" points="565.987,-198.109 565.897,-187.515 559.36,-195.853 565.987,-198.109"/>
</g>
<!-- Node25&#45;&gt;Node2 -->
<g id="edge31" class="edge"><title>Node25&#45;&gt;Node2</title>
<path fill="none" stroke="midnightblue" d="M616.079,-392.297C608.854,-359.563 583.209,-243.375 573.12,-197.666"/>
<polygon fill="midnightblue" stroke="midnightblue" points="576.534,-196.894 570.961,-187.884 569.698,-198.403 576.534,-196.894"/>
</g>
<!-- Node25&#45;&gt;Node24 -->
<g id="edge32" class="edge"><title>Node25&#45;&gt;Node24</title>
<path fill="none" stroke="midnightblue" d="M605.147,-392.324C592.784,-383.979 573.87,-371.212 559.263,-361.352"/>
<polygon fill="midnightblue" stroke="midnightblue" points="561.068,-358.348 550.821,-355.655 557.152,-364.15 561.068,-358.348"/>
</g>
<!-- Node25&#45;&gt;Node26 -->
<g id="edge33" class="edge"><title>Node25&#45;&gt;Node26</title>
<path fill="none" stroke="midnightblue" d="M624.605,-392.083C630.255,-384.455 638.545,-373.264 645.451,-363.941"/>
<polygon fill="midnightblue" stroke="midnightblue" points="648.378,-365.87 651.518,-355.751 642.753,-361.703 648.378,-365.87"/>
</g>
<!-- Node26&#45;&gt;Node2 -->
<g id="edge34" class="edge"><title>Node26&#45;&gt;Node2</title>
<path fill="none" stroke="midnightblue" d="M652.903,-336.437C647.577,-327.43 639.033,-312.814 632,-300 612.047,-263.648 589.917,-220.42 577.922,-196.726"/>
<polygon fill="midnightblue" stroke="midnightblue" points="580.934,-194.926 573.303,-187.577 574.685,-198.081 580.934,-194.926"/>
</g>
<!-- Node27 -->
<g id="node27" class="node"><title>Node27</title>
<g id="a_node27"><a xlink:href="primitives_8h.html" target="_top" xlink:title="primitives.h">
<polygon fill="white" stroke="black" points="641.5,-280.5 641.5,-299.5 708.5,-299.5 708.5,-280.5 641.5,-280.5"/>
<text text-anchor="middle" x="675" y="-287.5" font-family="Helvetica,sans-Serif" font-size="10.00">primitives.h</text>
</a>
</g>
</g>
<!-- Node26&#45;&gt;Node27 -->
<g id="edge35" class="edge"><title>Node26&#45;&gt;Node27</title>
<path fill="none" stroke="midnightblue" d="M660.807,-336.083C663.085,-328.849 666.371,-318.409 669.208,-309.397"/>
<polygon fill="midnightblue" stroke="midnightblue" points="672.581,-310.341 672.245,-299.751 665.904,-308.239 672.581,-310.341"/>
</g>
<!-- Node27&#45;&gt;Node2 -->
<g id="edge36" class="edge"><title>Node27&#45;&gt;Node2</title>
<path fill="none" stroke="midnightblue" d="M668.435,-280.202C658.672,-267.333 639.484,-242.86 621,-224 610.685,-213.475 598.227,-202.638 588.092,-194.236"/>
<polygon fill="midnightblue" stroke="midnightblue" points="590.182,-191.424 580.222,-187.812 585.755,-196.847 590.182,-191.424"/>
</g>
<!-- Node28 -->
<g id="node28" class="node"><title>Node28</title>
<g id="a_node28"><a xlink:href="cpu_8h.html" target="_top" xlink:title="cpu.h">
<polygon fill="white" stroke="black" points="673.5,-224.5 673.5,-243.5 714.5,-243.5 714.5,-224.5 673.5,-224.5"/>
<text text-anchor="middle" x="694" y="-231.5" font-family="Helvetica,sans-Serif" font-size="10.00">cpu.h</text>
</a>
</g>
</g>
<!-- Node27&#45;&gt;Node28 -->
<g id="edge37" class="edge"><title>Node27&#45;&gt;Node28</title>
<path fill="none" stroke="midnightblue" d="M678.137,-280.083C680.683,-272.849 684.356,-262.409 687.527,-253.397"/>
<polygon fill="midnightblue" stroke="midnightblue" points="690.903,-254.346 690.921,-243.751 684.3,-252.023 690.903,-254.346"/>
</g>
<!-- Node28&#45;&gt;Node2 -->
<g id="edge38" class="edge"><title>Node28&#45;&gt;Node2</title>
<path fill="none" stroke="midnightblue" d="M674.193,-224.444C653.713,-215.596 621.517,-201.687 598.135,-191.586"/>
<polygon fill="midnightblue" stroke="midnightblue" points="599.282,-188.269 588.714,-187.516 596.506,-194.695 599.282,-188.269"/>
</g>
<!-- Node29&#45;&gt;Node2 -->
<g id="edge41" class="edge"><title>Node29&#45;&gt;Node2</title>
<path fill="none" stroke="midnightblue" d="M730.886,-392.476C739.684,-364.774 763.198,-276.077 723,-224 696.82,-190.084 646.504,-180.679 610.507,-178.575"/>
<polygon fill="midnightblue" stroke="midnightblue" points="610.441,-175.069 600.303,-178.148 610.148,-182.063 610.441,-175.069"/>
</g>
<!-- Node29&#45;&gt;Node26 -->
<g id="edge42" class="edge"><title>Node29&#45;&gt;Node26</title>
<path fill="none" stroke="midnightblue" d="M716.753,-392.324C706.203,-384.185 690.199,-371.839 677.558,-362.087"/>
<polygon fill="midnightblue" stroke="midnightblue" points="679.507,-359.171 669.451,-355.834 675.231,-364.713 679.507,-359.171"/>
</g>
<!-- Node29&#45;&gt;Node27 -->
<g id="edge40" class="edge"><title>Node29&#45;&gt;Node27</title>
<path fill="none" stroke="midnightblue" d="M723.841,-392.368C715.172,-374.376 695.02,-332.55 683.493,-308.627"/>
<polygon fill="midnightblue" stroke="midnightblue" points="686.633,-307.081 679.14,-299.591 680.327,-310.119 686.633,-307.081"/>
</g>
<!-- Node30&#45;&gt;Node2 -->
<g id="edge44" class="edge"><title>Node30&#45;&gt;Node2</title>
<path fill="none" stroke="midnightblue" d="M943.381,-228.672C869.907,-218.924 691.548,-195.259 610.414,-184.495"/>
<polygon fill="midnightblue" stroke="midnightblue" points="610.465,-180.971 600.092,-183.125 609.544,-187.91 610.465,-180.971"/>
</g>
<!-- Node30&#45;&gt;Node18 -->
<g id="edge45" class="edge"><title>Node30&#45;&gt;Node18</title>
<path fill="none" stroke="midnightblue" d="M965.286,-224.305C956.062,-216.069 943.409,-202.789 938,-188 932.539,-173.068 934.284,-154.927 936.967,-141.609"/>
<polygon fill="midnightblue" stroke="midnightblue" points="940.408,-142.268 939.303,-131.731 933.596,-140.657 940.408,-142.268"/>
</g>
<!-- Node31 -->
<g id="node31" class="node"><title>Node31</title>
<polygon fill="white" stroke="#bfbfbf" points="947.5,-168.5 947.5,-187.5 1004.5,-187.5 1004.5,-168.5 947.5,-168.5"/>
<text text-anchor="middle" x="976" y="-175.5" font-family="Helvetica,sans-Serif" font-size="10.00">pthread.h</text>
</g>
<!-- Node30&#45;&gt;Node31 -->
<g id="edge46" class="edge"><title>Node30&#45;&gt;Node31</title>
<path fill="none" stroke="midnightblue" d="M976,-224.083C976,-217.006 976,-206.861 976,-197.986"/>
<polygon fill="midnightblue" stroke="midnightblue" points="979.5,-197.751 976,-187.751 972.5,-197.751 979.5,-197.751"/>
</g>
<!-- Node32 -->
<g id="node32" class="node"><title>Node32</title>
<polygon fill="white" stroke="#bfbfbf" points="1022.5,-168.5 1022.5,-187.5 1095.5,-187.5 1095.5,-168.5 1022.5,-168.5"/>
<text text-anchor="middle" x="1059" y="-175.5" font-family="Helvetica,sans-Serif" font-size="10.00">semaphore.h</text>
</g>
<!-- Node30&#45;&gt;Node32 -->
<g id="edge47" class="edge"><title>Node30&#45;&gt;Node32</title>
<path fill="none" stroke="midnightblue" d="M989.335,-224.324C1002.16,-215.979 1021.78,-203.212 1036.94,-193.352"/>
<polygon fill="midnightblue" stroke="midnightblue" points="1039.22,-196.042 1045.7,-187.655 1035.41,-190.174 1039.22,-196.042"/>
</g>
<!-- Node33 -->
<g id="node33" class="node"><title>Node33</title>
<polygon fill="white" stroke="#bfbfbf" points="1113.5,-168.5 1113.5,-187.5 1160.5,-187.5 1160.5,-168.5 1113.5,-168.5"/>
<text text-anchor="middle" x="1137" y="-175.5" font-family="Helvetica,sans-Serif" font-size="10.00">errno.h</text>
</g>
<!-- Node30&#45;&gt;Node33 -->
<g id="edge48" class="edge"><title>Node30&#45;&gt;Node33</title>
<path fill="none" stroke="midnightblue" d="M1001.51,-224.444C1029.15,-215.172 1073.37,-200.343 1103.72,-190.161"/>
<polygon fill="midnightblue" stroke="midnightblue" points="1105.07,-193.4 1113.44,-186.902 1102.85,-186.763 1105.07,-193.4"/>
</g>
<!-- Node34 -->
<g id="node34" class="node"><title>Node34</title>
<polygon fill="white" stroke="#bfbfbf" points="1179,-168.5 1179,-187.5 1223,-187.5 1223,-168.5 1179,-168.5"/>
<text text-anchor="middle" x="1201" y="-175.5" font-family="Helvetica,sans-Serif" font-size="10.00">fcntl.h</text>
</g>
<!-- Node30&#45;&gt;Node34 -->
<g id="edge49" class="edge"><title>Node30&#45;&gt;Node34</title>
<path fill="none" stroke="midnightblue" d="M1008.55,-225.881C1045.05,-217.795 1106.23,-203.933 1168.63,-187.998"/>
<polygon fill="midnightblue" stroke="midnightblue" points="1169.84,-191.302 1178.66,-185.423 1168.1,-184.522 1169.84,-191.302"/>
</g>
<!-- Node35&#45;&gt;Node2 -->
<g id="edge51" class="edge"><title>Node35&#45;&gt;Node2</title>
<path fill="none" stroke="midnightblue" d="M808.907,-280.313C800.162,-266.2 780.903,-238.423 757,-224 711.498,-196.544 650.357,-185.837 610.333,-181.663"/>
<polygon fill="midnightblue" stroke="midnightblue" points="610.421,-178.156 600.135,-180.693 609.759,-185.124 610.421,-178.156"/>
</g>
<!-- Node35&#45;&gt;Node18 -->
<g id="edge54" class="edge"><title>Node35&#45;&gt;Node18</title>
<path fill="none" stroke="midnightblue" d="M824.343,-280.275C834.309,-271.606 849.522,-257.669 861,-244 889.862,-209.631 917.649,-164.736 931.971,-140.446"/>
<polygon fill="midnightblue" stroke="midnightblue" points="935.08,-142.062 937.092,-131.66 929.032,-138.538 935.08,-142.062"/>
</g>
<!-- Node36 -->
<g id="node36" class="node"><title>Node36</title>
<g id="a_node36"><a xlink:href="md5_8h.html" target="_top" xlink:title="md5.h">
<polygon fill="white" stroke="black" points="809,-224.5 809,-243.5 853,-243.5 853,-224.5 809,-224.5"/>
<text text-anchor="middle" x="831" y="-231.5" font-family="Helvetica,sans-Serif" font-size="10.00">md5.h</text>
</a>
</g>
</g>
<!-- Node35&#45;&gt;Node36 -->
<g id="edge52" class="edge"><title>Node35&#45;&gt;Node36</title>
<path fill="none" stroke="midnightblue" d="M816.807,-280.083C819.085,-272.849 822.371,-262.409 825.208,-253.397"/>
<polygon fill="midnightblue" stroke="midnightblue" points="828.581,-254.341 828.245,-243.751 821.904,-252.239 828.581,-254.341"/>
</g>
<!-- Node36&#45;&gt;Node2 -->
<g id="edge53" class="edge"><title>Node36&#45;&gt;Node2</title>
<path fill="none" stroke="midnightblue" d="M808.955,-227.309C804.354,-226.172 799.526,-225.016 795,-224 730.719,-209.574 655.623,-195.087 610.223,-186.587"/>
<polygon fill="midnightblue" stroke="midnightblue" points="610.646,-183.106 600.174,-184.713 609.362,-189.987 610.646,-183.106"/>
</g>
</g>
</svg>
        <g id="navigator" transform="translate(0 0)" fill="#404254">
                <rect fill="#f2f5e9" fill-opacity="0.5" stroke="#606060" stroke-width=".5" x="0" y="0" width="60" height="60"/>
                <use id="zoomplus" xlink:href="#zoomPlus" x="17" y="9" onmousedown="handleZoom(evt,'in')"/>
                <use id="zoomminus" xlink:href="#zoomMin" x="42" y="9" onmousedown="handleZoom(evt,'out')"/>
                <use id="reset" xlink:href="#resetDef" x="30" y="36" onmousedown="handleReset()"/>
                <g id="arrowUp" xlink:href="#dirArrow" transform="translate(30 24)" onmousedown="handlePan(0,-1)">
                  <use xlink:href="#rim" fill="#404040">
                        <set attributeName="fill" to="#808080" begin="arrowUp.mouseover" end="arrowUp.mouseout"/>
                  </use>
                  <path fill="none" stroke="white" stroke-width="1.5" d="M0,-3.0v7 M-2.5,-0.5L0,-3.0L2.5,-0.5"/>
                </g>
                <g id="arrowRight" xlink:href="#dirArrow" transform="rotate(90) translate(36 -43)" onmousedown="handlePan(1,0)">
                  <use xlink:href="#rim" fill="#404040">
                        <set attributeName="fill" to="#808080" begin="arrowRight.mouseover" end="arrowRight.mouseout"/>
                  </use>
                  <path fill="none" stroke="white" stroke-width="1.5" d="M0,-3.0v7 M-2.5,-0.5L0,-3.0L2.5,-0.5"/>
                </g>
                <g id="arrowDown" xlink:href="#dirArrow" transform="rotate(180) translate(-30 -48)" onmousedown="handlePan(0,1)">
                  <use xlink:href="#rim" fill="#404040">
                        <set attributeName="fill" to="#808080" begin="arrowDown.mouseover" end="arrowDown.mouseout"/>
                  </use>
                  <path fill="none" stroke="white" stroke-width="1.5" d="M0,-3.0v7 M-2.5,-0.5L0,-3.0L2.5,-0.5"/>
                </g>
                <g id="arrowLeft" xlink:href="#dirArrow" transform="rotate(270) translate(-36 17)" onmousedown="handlePan(-1,0)">
                  <use xlink:href="#rim" fill="#404040">
                        <set attributeName="fill" to="#808080" begin="arrowLeft.mouseover" end="arrowLeft.mouseout"/>
                  </use>
                  <path fill="none" stroke="white" stroke-width="1.5" d="M0,-3.0v7 M-2.5,-0.5L0,-3.0L2.5,-0.5"/>
                </g>
        </g>
        <svg viewBox="0 0 15 15" width="100%" height="30px" preserveAspectRatio="xMaxYMin meet">
         <g id="arrow_out" transform="scale(0.3 0.3)">
          <a xlink:href="deblock_8cpp__incl_org.svg" target="_base">
           <rect id="button" ry="5" rx="5" y="6" x="6" height="38" width="38"
                fill="#f2f5e9" fill-opacity="0.5" stroke="#606060" stroke-width="1.0"/>
           <path id="arrow"
             d="M 11.500037,31.436501 C 11.940474,20.09759 22.043105,11.32322 32.158766,21.979434 L 37.068811,17.246167 C 37.068811,17.246167 37.088388,32 37.088388,32 L 22.160133,31.978069 C 22.160133,31.978069 26.997745,27.140456 26.997745,27.140456 C 18.528582,18.264221 13.291696,25.230495 11.500037,31.436501 z"
             style="fill:#404040;"/>
          </a>
         </g>
        </svg>
</svg>
