<?xml version="1.0" encoding="UTF-8" standalone="no"?>
<!DOCTYPE svg PUBLIC "-//W3C//DTD SVG 1.1//EN"
 "http://www.w3.org/Graphics/SVG/1.1/DTD/svg11.dtd">
<!-- Generated by graphviz version 2.36.0 (20140111.2315)
 -->
<!-- Title: source/encoder Pages: 1 -->
<svg width="134pt" height="151pt"
 viewBox="0.00 0.00 134.00 151.00" xmlns="http://www.w3.org/2000/svg" xmlns:xlink="http://www.w3.org/1999/xlink">
<g id="graph0" class="graph" transform="scale(1 1) rotate(0) translate(4 147)">
<title>source/encoder</title>
<polygon fill="white" stroke="none" points="-4,4 -4,-147 130,-147 130,4 -4,4"/>
<g id="clust1" class="cluster"><title>clusterdir_f520a136cb27c3ce35c16f6ca4c85224</title>
<g id="a_clust1"><a xlink:href="dir_f520a136cb27c3ce35c16f6ca4c85224.html" target="_top" xlink:title="source">
<polygon fill="#ddddee" stroke="black" points="28,-64 28,-135 98,-135 98,-64 28,-64"/>
<text text-anchor="middle" x="63" y="-123" font-family="Helvetica,sans-Serif" font-size="10.00">source</text>
</a>
</g>
</g>
<!-- dir_d3f558618313466a3925230c9e0d935e -->
<g id="node1" class="node"><title>dir_d3f558618313466a3925230c9e0d935e</title>
<g id="a_node1"><a xlink:href="dir_d3f558618313466a3925230c9e0d935e.html" target="_top" xlink:title="encoder">
<polygon fill="#eeeeff" stroke="black" points="90,-108 36,-108 36,-72 90,-72 90,-108"/>
<text text-anchor="middle" x="63" y="-87.5" font-family="Helvetica,sans-Serif" font-size="10.00">encoder</text>
</a>
</g>
</g>
<!-- dir_71bfb29d02a865ae8cf54f2e1aed134e -->
<g id="node2" class="node"><title>dir_71bfb29d02a865ae8cf54f2e1aed134e</title>
<g id="a_node2"><a xlink:href="dir_71bfb29d02a865ae8cf54f2e1aed134e.html" target="_top" xlink:title="PPA">
<polygon fill="none" stroke="black" points="54,-36 0,-36 0,-0 54,-0 54,-36"/>
<text text-anchor="middle" x="27" y="-15.5" font-family="Helvetica,sans-Serif" font-size="10.00">PPA</text>
</a>
</g>
</g>
<!-- dir_d3f558618313466a3925230c9e0d935e&#45;&gt;dir_71bfb29d02a865ae8cf54f2e1aed134e -->
<g id="edge1" class="edge"><title>dir_d3f558618313466a3925230c9e0d935e&#45;&gt;dir_71bfb29d02a865ae8cf54f2e1aed134e</title>
<path fill="none" stroke="black" d="M54.1011,-71.6966C50.0032,-63.7284 45.0512,-54.0995 40.5073,-45.2641"/>
<polygon fill="black" stroke="black" points="43.4826,-43.3965 35.7965,-36.1043 37.2575,-46.598 43.4826,-43.3965"/>
<g id="a_edge1&#45;headlabel"><a xlink:href="dir_000018_000020.html" target="_top" xlink:title="3">
<text text-anchor="middle" x="47.6514" y="-42.7946" font-family="Helvetica,sans-Serif" font-size="10.00">3</text>
</a>
</g>
</g>
<!-- dir_6e3d3f4264c2b66d2031d52ff3a4deaa -->
<g id="node3" class="node"><title>dir_6e3d3f4264c2b66d2031d52ff3a4deaa</title>
<g id="a_node3"><a xlink:href="dir_6e3d3f4264c2b66d2031d52ff3a4deaa.html" target="_top" xlink:title="common">
<polygon fill="white" stroke="red" points="126,-36 72,-36 72,-0 126,-0 126,-36"/>
<text text-anchor="middle" x="99" y="-15.5" font-family="Helvetica,sans-Serif" font-size="10.00">common</text>
</a>
</g>
</g>
<!-- dir_d3f558618313466a3925230c9e0d935e&#45;&gt;dir_6e3d3f4264c2b66d2031d52ff3a4deaa -->
<g id="edge2" class="edge"><title>dir_d3f558618313466a3925230c9e0d935e&#45;&gt;dir_6e3d3f4264c2b66d2031d52ff3a4deaa</title>
<path fill="none" stroke="black" d="M65.9832,-71.6966C69.294,-63.6436 74.0975,-53.8945 79.0908,-44.9824"/>
<polygon fill="black" stroke="black" points="82.2591,-46.4991 84.3085,-36.1043 76.2242,-42.9523 82.2591,-46.4991"/>
<g id="a_edge2&#45;headlabel"><a xlink:href="dir_000018_000010.html" target="_top" xlink:title="111">
<text text-anchor="middle" x="82.8857" y="-48.5367" font-family="Helvetica,sans-Serif" font-size="10.00">111</text>
</a>
</g>
</g>
<!-- dir_6e3d3f4264c2b66d2031d52ff3a4deaa&#45;&gt;dir_d3f558618313466a3925230c9e0d935e -->
<g id="edge3" class="edge"><title>dir_6e3d3f4264c2b66d2031d52ff3a4deaa&#45;&gt;dir_d3f558618313466a3925230c9e0d935e</title>
<path fill="none" stroke="black" d="M96.0985,-36.1043C92.8124,-44.1291 88.0229,-53.871 83.0328,-62.7967"/>
<polygon fill="black" stroke="black" points="79.8533,-61.2998 77.8146,-71.6966 85.8919,-64.8403 79.8533,-61.2998"/>
<g id="a_edge3&#45;headlabel"><a xlink:href="dir_000010_000018.html" target="_top" xlink:title="1">
<text text-anchor="middle" x="79.222" y="-54.2628" font-family="Helvetica,sans-Serif" font-size="10.00">1</text>
</a>
</g>
</g>
</g>
</svg>
