<?xml version="1.0" encoding="UTF-8" standalone="no"?>
<!DOCTYPE svg PUBLIC "-//W3C//DTD SVG 1.1//EN"
 "http://www.w3.org/Graphics/SVG/1.1/DTD/svg11.dtd">
<!-- Generated by graphviz version 2.36.0 (20140111.2315)
 -->
<!-- Title: source/encoder/dpb.cpp Pages: 1 -->
<!--zoomable 588 -->
<svg id="main" version="1.1" xmlns="http://www.w3.org/2000/svg" xmlns:xlink="http://www.w3.org/1999/xlink" xml:space="preserve" onload="init(evt)">
<style type="text/css"><![CDATA[
.edge:hover path { stroke: red; }
.edge:hover polygon { stroke: red; fill: red; }
]]></style>
<script type="text/javascript"><![CDATA[
var edges = document.getElementsByTagName('g');
if (edges && edges.length) {
  for (var i=0;i<edges.length;i++) {
    if (edges[i].id.substr(0,4)=='edge') {
      edges[i].setAttribute('class','edge');
    }
  }
}
]]></script>
        <defs>
                <circle id="rim" cx="0" cy="0" r="7"/>
                <circle id="rim2" cx="0" cy="0" r="3.5"/>
                <g id="zoomPlus">
                        <use xlink:href="#rim" fill="#404040">
                                <set attributeName="fill" to="#808080" begin="zoomplus.mouseover" end="zoomplus.mouseout"/>
                        </use>
                        <path d="M-4,0h8M0,-4v8" fill="none" stroke="white" stroke-width="1.5" pointer-events="none"/>
                </g>
                <g id="zoomMin">
                        <use xlink:href="#rim" fill="#404040">
                                <set attributeName="fill" to="#808080" begin="zoomminus.mouseover" end="zoomminus.mouseout"/>
                        </use>
                        <path d="M-4,0h8" fill="none" stroke="white" stroke-width="1.5" pointer-events="none"/>
                </g>
                <g id="dirArrow">
                        <path fill="none" stroke="white" stroke-width="1.5" d="M0,-3.0v7 M-2.5,-0.5L0,-3.0L2.5,-0.5"/>
                </g>
               <g id="resetDef">
                       <use xlink:href="#rim2" fill="#404040">
                               <set attributeName="fill" to="#808080" begin="reset.mouseover" end="reset.mouseout"/>
                       </use>
               </g>
        </defs>

<script type="text/javascript">
var viewWidth = 973;
var viewHeight = 588;
var sectionId = 'dynsection-0';
</script>
<script xlink:href="svgpan.js"/>
<svg id="graph" class="graph">
<g id="viewport">
<title>source/encoder/dpb.cpp</title>
<polygon fill="white" stroke="none" points="-4,4 -4,-584 969,-584 969,4 -4,4"/>
<!-- Node1 -->
<g id="node1" class="node"><title>Node1</title>
<polygon fill="#bfbfbf" stroke="black" points="595.5,-560.5 595.5,-579.5 716.5,-579.5 716.5,-560.5 595.5,-560.5"/>
<text text-anchor="middle" x="656" y="-567.5" font-family="Helvetica,sans-Serif" font-size="10.00">source/encoder/dpb.cpp</text>
</g>
<!-- Node2 -->
<g id="node2" class="node"><title>Node2</title>
<g id="a_node2"><a xlink:href="common_8h.html" target="_top" xlink:title="common.h">
<polygon fill="white" stroke="black" points="482,-168.5 482,-187.5 544,-187.5 544,-168.5 482,-168.5"/>
<text text-anchor="middle" x="513" y="-175.5" font-family="Helvetica,sans-Serif" font-size="10.00">common.h</text>
</a>
</g>
</g>
<!-- Node1&#45;&gt;Node2 -->
<g id="edge1" class="edge"><title>Node1&#45;&gt;Node2</title>
<path fill="none" stroke="midnightblue" d="M671.357,-560.31C697.772,-544.093 749,-506.515 749,-459 749,-459 749,-459 749,-289 749,-258.775 751.381,-244.314 729,-224 672.189,-172.435 634.126,-202.209 554.367,-188.082"/>
<polygon fill="midnightblue" stroke="midnightblue" points="554.917,-184.623 544.43,-186.133 553.57,-191.492 554.917,-184.623"/>
</g>
<!-- Node21 -->
<g id="node21" class="node"><title>Node21</title>
<g id="a_node21"><a xlink:href="frame_8h.html" target="_top" xlink:title="frame.h">
<polygon fill="white" stroke="black" points="512,-504.5 512,-523.5 562,-523.5 562,-504.5 512,-504.5"/>
<text text-anchor="middle" x="537" y="-511.5" font-family="Helvetica,sans-Serif" font-size="10.00">frame.h</text>
</a>
</g>
</g>
<!-- Node1&#45;&gt;Node21 -->
<g id="edge22" class="edge"><title>Node1&#45;&gt;Node21</title>
<path fill="none" stroke="midnightblue" d="M637.144,-560.444C617.734,-551.636 587.27,-537.812 565.035,-527.722"/>
<polygon fill="midnightblue" stroke="midnightblue" points="566.32,-524.462 555.768,-523.516 563.428,-530.836 566.32,-524.462"/>
</g>
<!-- Node23 -->
<g id="node23" class="node"><title>Node23</title>
<g id="a_node23"><a xlink:href="slice_8h.html" target="_top" xlink:title="slice.h">
<polygon fill="white" stroke="black" points="272.5,-336.5 272.5,-355.5 317.5,-355.5 317.5,-336.5 272.5,-336.5"/>
<text text-anchor="middle" x="295" y="-343.5" font-family="Helvetica,sans-Serif" font-size="10.00">slice.h</text>
</a>
</g>
</g>
<!-- Node1&#45;&gt;Node23 -->
<g id="edge53" class="edge"><title>Node1&#45;&gt;Node23</title>
<path fill="none" stroke="midnightblue" d="M595.183,-567.02C520.269,-561.353 393.554,-540.777 317,-468 289.107,-441.483 289.586,-392.321 292.312,-365.548"/>
<polygon fill="midnightblue" stroke="midnightblue" points="295.792,-365.929 293.542,-355.576 288.844,-365.073 295.792,-365.929"/>
</g>
<!-- Node34 -->
<g id="node34" class="node"><title>Node34</title>
<g id="a_node34"><a xlink:href="picyuv_8h.html" target="_top" xlink:title="picyuv.h">
<polygon fill="white" stroke="black" points="629.5,-280.5 629.5,-299.5 682.5,-299.5 682.5,-280.5 629.5,-280.5"/>
<text text-anchor="middle" x="656" y="-287.5" font-family="Helvetica,sans-Serif" font-size="10.00">picyuv.h</text>
</a>
</g>
</g>
<!-- Node1&#45;&gt;Node34 -->
<g id="edge48" class="edge"><title>Node1&#45;&gt;Node34</title>
<path fill="none" stroke="midnightblue" d="M656,-560.442C656,-541.936 656,-496.812 656,-459 656,-459 656,-459 656,-401 656,-368.948 656,-331.643 656,-309.749"/>
<polygon fill="midnightblue" stroke="midnightblue" points="659.5,-309.558 656,-299.558 652.5,-309.558 659.5,-309.558"/>
</g>
<!-- Node36 -->
<g id="node36" class="node"><title>Node36</title>
<g id="a_node36"><a xlink:href="dpb_8h.html" target="_top" xlink:title="dpb.h">
<polygon fill="white" stroke="black" points="779.5,-504.5 779.5,-523.5 820.5,-523.5 820.5,-504.5 779.5,-504.5"/>
<text text-anchor="middle" x="800" y="-511.5" font-family="Helvetica,sans-Serif" font-size="10.00">dpb.h</text>
</a>
</g>
</g>
<!-- Node1&#45;&gt;Node36 -->
<g id="edge54" class="edge"><title>Node1&#45;&gt;Node36</title>
<path fill="none" stroke="midnightblue" d="M678.817,-560.444C703.397,-551.226 742.625,-536.516 769.759,-526.34"/>
<polygon fill="midnightblue" stroke="midnightblue" points="771.025,-529.604 779.16,-522.815 768.567,-523.049 771.025,-529.604"/>
</g>
<!-- Node3 -->
<g id="node3" class="node"><title>Node3</title>
<polygon fill="white" stroke="#bfbfbf" points="655,-112.5 655,-131.5 711,-131.5 711,-112.5 655,-112.5"/>
<text text-anchor="middle" x="683" y="-119.5" font-family="Helvetica,sans-Serif" font-size="10.00">algorithm</text>
</g>
<!-- Node2&#45;&gt;Node3 -->
<g id="edge2" class="edge"><title>Node2&#45;&gt;Node3</title>
<path fill="none" stroke="midnightblue" d="M539.937,-168.444C568.66,-159.32 614.329,-144.813 646.321,-134.651"/>
<polygon fill="midnightblue" stroke="midnightblue" points="647.718,-137.88 656.189,-131.516 645.599,-131.208 647.718,-137.88"/>
</g>
<!-- Node4 -->
<g id="node4" class="node"><title>Node4</title>
<polygon fill="white" stroke="#bfbfbf" points="729.5,-112.5 729.5,-131.5 774.5,-131.5 774.5,-112.5 729.5,-112.5"/>
<text text-anchor="middle" x="752" y="-119.5" font-family="Helvetica,sans-Serif" font-size="10.00">climits</text>
</g>
<!-- Node2&#45;&gt;Node4 -->
<g id="edge3" class="edge"><title>Node2&#45;&gt;Node4</title>
<path fill="none" stroke="midnightblue" d="M544.004,-169.999C547.043,-169.321 550.081,-168.645 553,-168 626.715,-151.714 645.669,-149.938 719,-132 719.209,-131.949 719.419,-131.897 719.629,-131.846"/>
<polygon fill="midnightblue" stroke="midnightblue" points="720.505,-135.234 729.318,-129.355 718.762,-128.455 720.505,-135.234"/>
</g>
<!-- Node5 -->
<g id="node5" class="node"><title>Node5</title>
<polygon fill="white" stroke="#bfbfbf" points="793,-112.5 793,-131.5 837,-131.5 837,-112.5 793,-112.5"/>
<text text-anchor="middle" x="815" y="-119.5" font-family="Helvetica,sans-Serif" font-size="10.00">cmath</text>
</g>
<!-- Node2&#45;&gt;Node5 -->
<g id="edge4" class="edge"><title>Node2&#45;&gt;Node5</title>
<path fill="none" stroke="midnightblue" d="M544.402,-169.729C547.304,-169.119 550.203,-168.533 553,-168 651.561,-149.22 680.19,-153.741 782.868,-131.772"/>
<polygon fill="midnightblue" stroke="midnightblue" points="783.676,-135.178 792.706,-129.636 782.191,-128.338 783.676,-135.178"/>
</g>
<!-- Node6 -->
<g id="node6" class="node"><title>Node6</title>
<polygon fill="white" stroke="#bfbfbf" points="-0.5,-112.5 -0.5,-131.5 48.5,-131.5 48.5,-112.5 -0.5,-112.5"/>
<text text-anchor="middle" x="24" y="-119.5" font-family="Helvetica,sans-Serif" font-size="10.00">cstdarg</text>
</g>
<!-- Node2&#45;&gt;Node6 -->
<g id="edge5" class="edge"><title>Node2&#45;&gt;Node6</title>
<path fill="none" stroke="midnightblue" d="M481.786,-175.727C409.105,-172.379 222.878,-161.589 59.0245,-132.109"/>
<polygon fill="midnightblue" stroke="midnightblue" points="59.2298,-128.589 48.7633,-130.233 57.9706,-135.475 59.2298,-128.589"/>
</g>
<!-- Node7 -->
<g id="node7" class="node"><title>Node7</title>
<polygon fill="white" stroke="#bfbfbf" points="66.5,-112.5 66.5,-131.5 115.5,-131.5 115.5,-112.5 66.5,-112.5"/>
<text text-anchor="middle" x="91" y="-119.5" font-family="Helvetica,sans-Serif" font-size="10.00">cstddef</text>
</g>
<!-- Node2&#45;&gt;Node7 -->
<g id="edge6" class="edge"><title>Node2&#45;&gt;Node7</title>
<path fill="none" stroke="midnightblue" d="M481.997,-175.012C417.333,-170.523 263.282,-158.055 125.651,-132.081"/>
<polygon fill="midnightblue" stroke="midnightblue" points="126.252,-128.632 115.772,-130.187 124.934,-135.507 126.252,-128.632"/>
</g>
<!-- Node8 -->
<g id="node8" class="node"><title>Node8</title>
<polygon fill="white" stroke="#bfbfbf" points="133.5,-112.5 133.5,-131.5 176.5,-131.5 176.5,-112.5 133.5,-112.5"/>
<text text-anchor="middle" x="155" y="-119.5" font-family="Helvetica,sans-Serif" font-size="10.00">cstdio</text>
</g>
<!-- Node2&#45;&gt;Node8 -->
<g id="edge7" class="edge"><title>Node2&#45;&gt;Node8</title>
<path fill="none" stroke="midnightblue" d="M481.627,-174.219C424.727,-168.846 300.629,-155.617 186.527,-131.809"/>
<polygon fill="midnightblue" stroke="midnightblue" points="187.087,-128.35 176.578,-129.7 185.635,-135.198 187.087,-128.35"/>
</g>
<!-- Node9 -->
<g id="node9" class="node"><title>Node9</title>
<polygon fill="white" stroke="#bfbfbf" points="919.5,-112.5 919.5,-131.5 964.5,-131.5 964.5,-112.5 919.5,-112.5"/>
<text text-anchor="middle" x="942" y="-119.5" font-family="Helvetica,sans-Serif" font-size="10.00">cstdlib</text>
</g>
<!-- Node2&#45;&gt;Node9 -->
<g id="edge8" class="edge"><title>Node2&#45;&gt;Node9</title>
<path fill="none" stroke="midnightblue" d="M544.373,-169.565C547.281,-168.99 550.19,-168.456 553,-168 707.183,-142.974 751.511,-160.929 909.326,-131.777"/>
<polygon fill="midnightblue" stroke="midnightblue" points="910.21,-135.173 919.39,-129.883 908.915,-128.293 910.21,-135.173"/>
</g>
<!-- Node10 -->
<g id="node10" class="node"><title>Node10</title>
<polygon fill="white" stroke="#bfbfbf" points="195,-112.5 195,-131.5 241,-131.5 241,-112.5 195,-112.5"/>
<text text-anchor="middle" x="218" y="-119.5" font-family="Helvetica,sans-Serif" font-size="10.00">cstring</text>
</g>
<!-- Node2&#45;&gt;Node10 -->
<g id="edge9" class="edge"><title>Node2&#45;&gt;Node10</title>
<path fill="none" stroke="midnightblue" d="M481.618,-172.716C433.885,-165.966 340.023,-151.775 251.3,-132.106"/>
<polygon fill="midnightblue" stroke="midnightblue" points="251.871,-128.647 241.347,-129.871 250.337,-135.477 251.871,-128.647"/>
</g>
<!-- Node11 -->
<g id="node11" class="node"><title>Node11</title>
<polygon fill="white" stroke="#bfbfbf" points="259,-112.5 259,-131.5 305,-131.5 305,-112.5 259,-112.5"/>
<text text-anchor="middle" x="282" y="-119.5" font-family="Helvetica,sans-Serif" font-size="10.00">cctype</text>
</g>
<!-- Node2&#45;&gt;Node11 -->
<g id="edge10" class="edge"><title>Node2&#45;&gt;Node11</title>
<path fill="none" stroke="midnightblue" d="M481.859,-170.48C444.505,-162.546 379.774,-148.436 315.005,-132.156"/>
<polygon fill="midnightblue" stroke="midnightblue" points="315.587,-128.693 305.034,-129.632 313.869,-135.479 315.587,-128.693"/>
</g>
<!-- Node12 -->
<g id="node12" class="node"><title>Node12</title>
<polygon fill="white" stroke="#bfbfbf" points="323.5,-112.5 323.5,-131.5 364.5,-131.5 364.5,-112.5 323.5,-112.5"/>
<text text-anchor="middle" x="344" y="-119.5" font-family="Helvetica,sans-Serif" font-size="10.00">ctime</text>
</g>
<!-- Node2&#45;&gt;Node12 -->
<g id="edge11" class="edge"><title>Node2&#45;&gt;Node12</title>
<path fill="none" stroke="midnightblue" d="M486.221,-168.444C455.735,-158.702 406.048,-142.826 374.205,-132.651"/>
<polygon fill="midnightblue" stroke="midnightblue" points="375.131,-129.273 364.54,-129.563 373,-135.941 375.131,-129.273"/>
</g>
<!-- Node13 -->
<g id="node13" class="node"><title>Node13</title>
<g id="a_node13"><a xlink:href="stdint_8h.html" target="_top" xlink:title="stdint.h">
<polygon fill="white" stroke="black" points="570.5,-56.5 570.5,-75.5 619.5,-75.5 619.5,-56.5 570.5,-56.5"/>
<text text-anchor="middle" x="595" y="-63.5" font-family="Helvetica,sans-Serif" font-size="10.00">stdint.h</text>
</a>
</g>
</g>
<!-- Node2&#45;&gt;Node13 -->
<g id="edge12" class="edge"><title>Node2&#45;&gt;Node13</title>
<path fill="none" stroke="midnightblue" d="M481.982,-170.138C444.635,-160.435 389.552,-140.637 412,-112 430.061,-88.9591 512.305,-76.141 560.167,-70.5129"/>
<polygon fill="midnightblue" stroke="midnightblue" points="560.849,-73.9582 570.393,-69.3581 560.064,-67.0024 560.849,-73.9582"/>
</g>
<!-- Node16 -->
<g id="node16" class="node"><title>Node16</title>
<polygon fill="white" stroke="#bfbfbf" points="421,-112.5 421,-131.5 481,-131.5 481,-112.5 421,-112.5"/>
<text text-anchor="middle" x="451" y="-119.5" font-family="Helvetica,sans-Serif" font-size="10.00">memory.h</text>
</g>
<!-- Node2&#45;&gt;Node16 -->
<g id="edge15" class="edge"><title>Node2&#45;&gt;Node16</title>
<path fill="none" stroke="midnightblue" d="M503.039,-168.324C493.873,-160.341 480.063,-148.313 468.972,-138.653"/>
<polygon fill="midnightblue" stroke="midnightblue" points="470.982,-135.762 461.143,-131.834 466.385,-141.041 470.982,-135.762"/>
</g>
<!-- Node17 -->
<g id="node17" class="node"><title>Node17</title>
<polygon fill="white" stroke="#bfbfbf" points="499,-112.5 499,-131.5 551,-131.5 551,-112.5 499,-112.5"/>
<text text-anchor="middle" x="525" y="-119.5" font-family="Helvetica,sans-Serif" font-size="10.00">assert.h</text>
</g>
<!-- Node2&#45;&gt;Node17 -->
<g id="edge16" class="edge"><title>Node2&#45;&gt;Node17</title>
<path fill="none" stroke="midnightblue" d="M514.982,-168.083C516.572,-160.927 518.859,-150.635 520.846,-141.691"/>
<polygon fill="midnightblue" stroke="midnightblue" points="524.303,-142.272 523.055,-131.751 517.469,-140.754 524.303,-142.272"/>
</g>
<!-- Node18 -->
<g id="node18" class="node"><title>Node18</title>
<g id="a_node18"><a xlink:href="x265_8h.html" target="_top" xlink:title="x265.h">
<polygon fill="white" stroke="black" points="855,-112.5 855,-131.5 901,-131.5 901,-112.5 855,-112.5"/>
<text text-anchor="middle" x="878" y="-119.5" font-family="Helvetica,sans-Serif" font-size="10.00">x265.h</text>
</a>
</g>
</g>
<!-- Node2&#45;&gt;Node18 -->
<g id="edge17" class="edge"><title>Node2&#45;&gt;Node18</title>
<path fill="none" stroke="midnightblue" d="M544.384,-169.631C547.29,-169.042 550.195,-168.487 553,-168 678.686,-146.167 714.945,-156.719 844.739,-131.752"/>
<polygon fill="midnightblue" stroke="midnightblue" points="845.521,-135.166 854.662,-129.81 844.176,-128.296 845.521,-135.166"/>
</g>
<!-- Node20 -->
<g id="node20" class="node"><title>Node20</title>
<g id="a_node20"><a xlink:href="constants_8h.html" target="_top" xlink:title="constants.h">
<polygon fill="white" stroke="black" points="569,-112.5 569,-131.5 637,-131.5 637,-112.5 569,-112.5"/>
<text text-anchor="middle" x="603" y="-119.5" font-family="Helvetica,sans-Serif" font-size="10.00">constants.h</text>
</a>
</g>
</g>
<!-- Node2&#45;&gt;Node20 -->
<g id="edge20" class="edge"><title>Node2&#45;&gt;Node20</title>
<path fill="none" stroke="midnightblue" d="M522.345,-168.324C534.789,-159.743 556.609,-146.486 574.524,-136.522"/>
<polygon fill="midnightblue" stroke="midnightblue" points="576.356,-139.51 583.466,-131.655 573.009,-133.362 576.356,-139.51"/>
</g>
<!-- Node14 -->
<g id="node14" class="node"><title>Node14</title>
<polygon fill="white" stroke="#bfbfbf" points="532.5,-0.5 532.5,-19.5 587.5,-19.5 587.5,-0.5 532.5,-0.5"/>
<text text-anchor="middle" x="560" y="-7.5" font-family="Helvetica,sans-Serif" font-size="10.00">crtdefs.h</text>
</g>
<!-- Node13&#45;&gt;Node14 -->
<g id="edge13" class="edge"><title>Node13&#45;&gt;Node14</title>
<path fill="none" stroke="midnightblue" d="M589.22,-56.083C584.328,-48.5341 577.173,-37.4948 571.167,-28.2298"/>
<polygon fill="midnightblue" stroke="midnightblue" points="574.048,-26.239 565.672,-19.7511 568.174,-30.0463 574.048,-26.239"/>
</g>
<!-- Node15 -->
<g id="node15" class="node"><title>Node15</title>
<polygon fill="white" stroke="#bfbfbf" points="606,-0.5 606,-19.5 654,-19.5 654,-0.5 606,-0.5"/>
<text text-anchor="middle" x="630" y="-7.5" font-family="Helvetica,sans-Serif" font-size="10.00">limits.h</text>
</g>
<!-- Node13&#45;&gt;Node15 -->
<g id="edge14" class="edge"><title>Node13&#45;&gt;Node15</title>
<path fill="none" stroke="midnightblue" d="M600.78,-56.083C605.672,-48.5341 612.827,-37.4948 618.833,-28.2298"/>
<polygon fill="midnightblue" stroke="midnightblue" points="621.826,-30.0463 624.328,-19.7511 615.952,-26.239 621.826,-30.0463"/>
</g>
<!-- Node18&#45;&gt;Node13 -->
<g id="edge18" class="edge"><title>Node18&#45;&gt;Node13</title>
<path fill="none" stroke="midnightblue" d="M854.986,-114.445C851.647,-113.576 848.244,-112.733 845,-112 768.656,-94.7537 678.01,-79.792 629.585,-72.2362"/>
<polygon fill="midnightblue" stroke="midnightblue" points="630.047,-68.7662 619.63,-70.6946 628.976,-75.6837 630.047,-68.7662"/>
</g>
<!-- Node19 -->
<g id="node19" class="node"><title>Node19</title>
<g id="a_node19"><a xlink:href="x265__config_8h.html" target="_top" xlink:title="x265_config.h">
<polygon fill="white" stroke="black" points="839.5,-56.5 839.5,-75.5 916.5,-75.5 916.5,-56.5 839.5,-56.5"/>
<text text-anchor="middle" x="878" y="-63.5" font-family="Helvetica,sans-Serif" font-size="10.00">x265_config.h</text>
</a>
</g>
</g>
<!-- Node18&#45;&gt;Node19 -->
<g id="edge19" class="edge"><title>Node18&#45;&gt;Node19</title>
<path fill="none" stroke="midnightblue" d="M878,-112.083C878,-105.006 878,-94.8611 878,-85.9865"/>
<polygon fill="midnightblue" stroke="midnightblue" points="881.5,-85.751 878,-75.7511 874.5,-85.7511 881.5,-85.751"/>
</g>
<!-- Node20&#45;&gt;Node2 -->
<g id="edge21" class="edge"><title>Node20&#45;&gt;Node2</title>
<path fill="none" stroke="midnightblue" d="M593.686,-131.655C581.258,-140.228 559.442,-153.483 541.521,-163.453"/>
<polygon fill="midnightblue" stroke="midnightblue" points="539.684,-160.468 532.575,-168.324 543.031,-166.616 539.684,-160.468"/>
</g>
<!-- Node21&#45;&gt;Node2 -->
<g id="edge23" class="edge"><title>Node21&#45;&gt;Node2</title>
<path fill="none" stroke="midnightblue" d="M520.036,-504.364C491.506,-488.489 437,-451.779 437,-403 437,-403 437,-403 437,-289 437,-249.276 470.964,-213.504 493.482,-194.154"/>
<polygon fill="midnightblue" stroke="midnightblue" points="495.976,-196.634 501.457,-187.567 491.518,-191.236 495.976,-196.634"/>
</g>
<!-- Node22 -->
<g id="node22" class="node"><title>Node22</title>
<g id="a_node22"><a xlink:href="framedata_8h.html" target="_top" xlink:title="framedata.h">
<polygon fill="white" stroke="black" points="326,-448.5 326,-467.5 394,-467.5 394,-448.5 326,-448.5"/>
<text text-anchor="middle" x="360" y="-455.5" font-family="Helvetica,sans-Serif" font-size="10.00">framedata.h</text>
</a>
</g>
</g>
<!-- Node21&#45;&gt;Node22 -->
<g id="edge24" class="edge"><title>Node21&#45;&gt;Node22</title>
<path fill="none" stroke="midnightblue" d="M511.64,-505.263C481.799,-496.159 431.972,-480.957 397.625,-470.479"/>
<polygon fill="midnightblue" stroke="midnightblue" points="398.527,-467.095 387.941,-467.524 396.484,-473.79 398.527,-467.095"/>
</g>
<!-- Node28 -->
<g id="node28" class="node"><title>Node28</title>
<g id="a_node28"><a xlink:href="lowres_8h.html" target="_top" xlink:title="lowres.h">
<polygon fill="white" stroke="black" points="510.5,-392.5 510.5,-411.5 563.5,-411.5 563.5,-392.5 510.5,-392.5"/>
<text text-anchor="middle" x="537" y="-399.5" font-family="Helvetica,sans-Serif" font-size="10.00">lowres.h</text>
</a>
</g>
</g>
<!-- Node21&#45;&gt;Node28 -->
<g id="edge37" class="edge"><title>Node21&#45;&gt;Node28</title>
<path fill="none" stroke="midnightblue" d="M537,-504.368C537,-486.617 537,-445.666 537,-421.597"/>
<polygon fill="midnightblue" stroke="midnightblue" points="540.5,-421.591 537,-411.591 533.5,-421.591 540.5,-421.591"/>
</g>
<!-- Node29 -->
<g id="node29" class="node"><title>Node29</title>
<g id="a_node29"><a xlink:href="threading_8h.html" target="_top" xlink:title="threading.h">
<polygon fill="white" stroke="black" points="777.5,-224.5 777.5,-243.5 842.5,-243.5 842.5,-224.5 777.5,-224.5"/>
<text text-anchor="middle" x="810" y="-231.5" font-family="Helvetica,sans-Serif" font-size="10.00">threading.h</text>
</a>
</g>
</g>
<!-- Node21&#45;&gt;Node29 -->
<g id="edge41" class="edge"><title>Node21&#45;&gt;Node29</title>
<path fill="none" stroke="midnightblue" d="M562.301,-509.04C610.56,-499.895 711,-472.512 711,-403 711,-403 711,-403 711,-345 711,-301.183 754.936,-266.928 784.27,-248.941"/>
<polygon fill="midnightblue" stroke="midnightblue" points="786.363,-251.77 793.206,-243.682 782.813,-245.738 786.363,-251.77"/>
</g>
<!-- Node22&#45;&gt;Node2 -->
<g id="edge25" class="edge"><title>Node22&#45;&gt;Node2</title>
<path fill="none" stroke="midnightblue" d="M365.423,-448.25C376.139,-430.096 399,-386.713 399,-347 399,-347 399,-347 399,-289 399,-258.205 402.454,-246.939 423,-224 436.473,-208.958 456.128,-198.325 473.636,-191.187"/>
<polygon fill="midnightblue" stroke="midnightblue" points="474.997,-194.414 483.089,-187.574 472.499,-187.875 474.997,-194.414"/>
</g>
<!-- Node22&#45;&gt;Node23 -->
<g id="edge26" class="edge"><title>Node22&#45;&gt;Node23</title>
<path fill="none" stroke="midnightblue" d="M345.273,-448.203C333.317,-440.265 317.013,-427.475 308,-412 299.764,-397.86 296.667,-379.376 295.54,-365.735"/>
<polygon fill="midnightblue" stroke="midnightblue" points="299.028,-365.411 294.988,-355.617 292.038,-365.793 299.028,-365.411"/>
</g>
<!-- Node24 -->
<g id="node24" class="node"><title>Node24</title>
<g id="a_node24"><a xlink:href="cudata_8h.html" target="_top" xlink:title="cudata.h">
<polygon fill="white" stroke="black" points="317,-392.5 317,-411.5 371,-411.5 371,-392.5 317,-392.5"/>
<text text-anchor="middle" x="344" y="-399.5" font-family="Helvetica,sans-Serif" font-size="10.00">cudata.h</text>
</a>
</g>
</g>
<!-- Node22&#45;&gt;Node24 -->
<g id="edge28" class="edge"><title>Node22&#45;&gt;Node24</title>
<path fill="none" stroke="midnightblue" d="M357.358,-448.083C355.214,-440.849 352.121,-430.409 349.451,-421.397"/>
<polygon fill="midnightblue" stroke="midnightblue" points="352.79,-420.345 346.593,-411.751 346.078,-422.333 352.79,-420.345"/>
</g>
<!-- Node23&#45;&gt;Node2 -->
<g id="edge27" class="edge"><title>Node23&#45;&gt;Node2</title>
<path fill="none" stroke="midnightblue" d="M295.48,-336.499C297.197,-314.446 304.92,-254.965 339,-224 375.307,-191.011 432.645,-181.569 471.489,-179.194"/>
<polygon fill="midnightblue" stroke="midnightblue" points="472.1,-182.669 481.922,-178.698 471.767,-175.677 472.1,-182.669"/>
</g>
<!-- Node24&#45;&gt;Node2 -->
<g id="edge29" class="edge"><title>Node24&#45;&gt;Node2</title>
<path fill="none" stroke="midnightblue" d="M343.313,-392.332C341.576,-364.188 339.976,-274.292 385,-224 407.039,-199.382 443.357,-188.231 471.688,-183.181"/>
<polygon fill="midnightblue" stroke="midnightblue" points="472.399,-186.612 481.724,-181.583 471.298,-179.699 472.399,-186.612"/>
</g>
<!-- Node24&#45;&gt;Node23 -->
<g id="edge30" class="edge"><title>Node24&#45;&gt;Node23</title>
<path fill="none" stroke="midnightblue" d="M335.909,-392.083C328.845,-384.298 318.412,-372.801 309.851,-363.367"/>
<polygon fill="midnightblue" stroke="midnightblue" points="312.253,-360.805 302.941,-355.751 307.069,-365.509 312.253,-360.805"/>
</g>
<!-- Node25 -->
<g id="node25" class="node"><title>Node25</title>
<g id="a_node25"><a xlink:href="mv_8h.html" target="_top" xlink:title="mv.h">
<polygon fill="white" stroke="black" points="468,-336.5 468,-355.5 506,-355.5 506,-336.5 468,-336.5"/>
<text text-anchor="middle" x="487" y="-343.5" font-family="Helvetica,sans-Serif" font-size="10.00">mv.h</text>
</a>
</g>
</g>
<!-- Node24&#45;&gt;Node25 -->
<g id="edge31" class="edge"><title>Node24&#45;&gt;Node25</title>
<path fill="none" stroke="midnightblue" d="M366.659,-392.444C391.38,-383.108 431.021,-368.139 457.997,-357.952"/>
<polygon fill="midnightblue" stroke="midnightblue" points="459.539,-361.111 467.657,-354.304 457.066,-354.563 459.539,-361.111"/>
</g>
<!-- Node25&#45;&gt;Node2 -->
<g id="edge32" class="edge"><title>Node25&#45;&gt;Node2</title>
<path fill="none" stroke="midnightblue" d="M487.732,-336.141C488.817,-323.604 491.049,-299.986 494,-280 498.269,-251.093 504.852,-217.837 509.041,-197.627"/>
<polygon fill="midnightblue" stroke="midnightblue" points="512.515,-198.114 511.144,-187.608 505.664,-196.676 512.515,-198.114"/>
</g>
<!-- Node26 -->
<g id="node26" class="node"><title>Node26</title>
<g id="a_node26"><a xlink:href="primitives_8h.html" target="_top" xlink:title="primitives.h">
<polygon fill="white" stroke="black" points="503.5,-280.5 503.5,-299.5 570.5,-299.5 570.5,-280.5 503.5,-280.5"/>
<text text-anchor="middle" x="537" y="-287.5" font-family="Helvetica,sans-Serif" font-size="10.00">primitives.h</text>
</a>
</g>
</g>
<!-- Node25&#45;&gt;Node26 -->
<g id="edge33" class="edge"><title>Node25&#45;&gt;Node26</title>
<path fill="none" stroke="midnightblue" d="M495.256,-336.083C502.465,-328.298 513.11,-316.801 521.846,-307.367"/>
<polygon fill="midnightblue" stroke="midnightblue" points="524.671,-309.467 528.897,-299.751 519.535,-304.711 524.671,-309.467"/>
</g>
<!-- Node26&#45;&gt;Node2 -->
<g id="edge34" class="edge"><title>Node26&#45;&gt;Node2</title>
<path fill="none" stroke="midnightblue" d="M535.117,-280.368C531.244,-262.617 522.309,-221.666 517.058,-197.597"/>
<polygon fill="midnightblue" stroke="midnightblue" points="520.426,-196.615 514.874,-187.591 513.587,-198.108 520.426,-196.615"/>
</g>
<!-- Node27 -->
<g id="node27" class="node"><title>Node27</title>
<g id="a_node27"><a xlink:href="cpu_8h.html" target="_top" xlink:title="cpu.h">
<polygon fill="white" stroke="black" points="541.5,-224.5 541.5,-243.5 582.5,-243.5 582.5,-224.5 541.5,-224.5"/>
<text text-anchor="middle" x="562" y="-231.5" font-family="Helvetica,sans-Serif" font-size="10.00">cpu.h</text>
</a>
</g>
</g>
<!-- Node26&#45;&gt;Node27 -->
<g id="edge35" class="edge"><title>Node26&#45;&gt;Node27</title>
<path fill="none" stroke="midnightblue" d="M541.128,-280.083C544.514,-272.77 549.416,-262.181 553.619,-253.103"/>
<polygon fill="midnightblue" stroke="midnightblue" points="556.923,-254.296 557.949,-243.751 550.571,-251.355 556.923,-254.296"/>
</g>
<!-- Node27&#45;&gt;Node2 -->
<g id="edge36" class="edge"><title>Node27&#45;&gt;Node2</title>
<path fill="none" stroke="midnightblue" d="M553.909,-224.083C546.845,-216.298 536.412,-204.801 527.851,-195.367"/>
<polygon fill="midnightblue" stroke="midnightblue" points="530.253,-192.805 520.941,-187.751 525.069,-197.509 530.253,-192.805"/>
</g>
<!-- Node28&#45;&gt;Node2 -->
<g id="edge39" class="edge"><title>Node28&#45;&gt;Node2</title>
<path fill="none" stroke="midnightblue" d="M544.256,-392.338C565.677,-365.659 625.065,-282.98 591,-224 582.323,-208.977 566.513,-198.523 551.383,-191.499"/>
<polygon fill="midnightblue" stroke="midnightblue" points="552.693,-188.253 542.121,-187.559 549.953,-194.694 552.693,-188.253"/>
</g>
<!-- Node28&#45;&gt;Node25 -->
<g id="edge40" class="edge"><title>Node28&#45;&gt;Node25</title>
<path fill="none" stroke="midnightblue" d="M528.744,-392.083C521.535,-384.298 510.89,-372.801 502.154,-363.367"/>
<polygon fill="midnightblue" stroke="midnightblue" points="504.465,-360.711 495.103,-355.751 499.329,-365.467 504.465,-360.711"/>
</g>
<!-- Node28&#45;&gt;Node26 -->
<g id="edge38" class="edge"><title>Node28&#45;&gt;Node26</title>
<path fill="none" stroke="midnightblue" d="M537,-392.368C537,-374.617 537,-333.666 537,-309.597"/>
<polygon fill="midnightblue" stroke="midnightblue" points="540.5,-309.591 537,-299.591 533.5,-309.591 540.5,-309.591"/>
</g>
<!-- Node29&#45;&gt;Node2 -->
<g id="edge42" class="edge"><title>Node29&#45;&gt;Node2</title>
<path fill="none" stroke="midnightblue" d="M777.399,-226.672C772.574,-225.761 767.659,-224.845 763,-224 672.92,-207.656 647.556,-206.463 554.268,-188.174"/>
<polygon fill="midnightblue" stroke="midnightblue" points="554.899,-184.731 544.41,-186.228 553.543,-191.599 554.899,-184.731"/>
</g>
<!-- Node29&#45;&gt;Node18 -->
<g id="edge43" class="edge"><title>Node29&#45;&gt;Node18</title>
<path fill="none" stroke="midnightblue" d="M817.768,-224.461C825.498,-215.711 837.414,-201.511 846,-188 855.582,-172.922 864.382,-154.567 870.318,-141.212"/>
<polygon fill="midnightblue" stroke="midnightblue" points="873.661,-142.3 874.424,-131.732 867.238,-139.517 873.661,-142.3"/>
</g>
<!-- Node30 -->
<g id="node30" class="node"><title>Node30</title>
<polygon fill="white" stroke="#bfbfbf" points="562.5,-168.5 562.5,-187.5 619.5,-187.5 619.5,-168.5 562.5,-168.5"/>
<text text-anchor="middle" x="591" y="-175.5" font-family="Helvetica,sans-Serif" font-size="10.00">pthread.h</text>
</g>
<!-- Node29&#45;&gt;Node30 -->
<g id="edge44" class="edge"><title>Node29&#45;&gt;Node30</title>
<path fill="none" stroke="midnightblue" d="M777.213,-224.916C737.75,-215.185 671.57,-198.867 629.656,-188.532"/>
<polygon fill="midnightblue" stroke="midnightblue" points="630.359,-185.1 619.812,-186.104 628.683,-191.897 630.359,-185.1"/>
</g>
<!-- Node31 -->
<g id="node31" class="node"><title>Node31</title>
<polygon fill="white" stroke="#bfbfbf" points="637.5,-168.5 637.5,-187.5 710.5,-187.5 710.5,-168.5 637.5,-168.5"/>
<text text-anchor="middle" x="674" y="-175.5" font-family="Helvetica,sans-Serif" font-size="10.00">semaphore.h</text>
</g>
<!-- Node29&#45;&gt;Node31 -->
<g id="edge45" class="edge"><title>Node29&#45;&gt;Node31</title>
<path fill="none" stroke="midnightblue" d="M788.45,-224.444C765.969,-215.517 730.512,-201.439 705.02,-191.317"/>
<polygon fill="midnightblue" stroke="midnightblue" points="706.035,-187.954 695.449,-187.516 703.451,-194.46 706.035,-187.954"/>
</g>
<!-- Node32 -->
<g id="node32" class="node"><title>Node32</title>
<polygon fill="white" stroke="#bfbfbf" points="728.5,-168.5 728.5,-187.5 775.5,-187.5 775.5,-168.5 728.5,-168.5"/>
<text text-anchor="middle" x="752" y="-175.5" font-family="Helvetica,sans-Serif" font-size="10.00">errno.h</text>
</g>
<!-- Node29&#45;&gt;Node32 -->
<g id="edge46" class="edge"><title>Node29&#45;&gt;Node32</title>
<path fill="none" stroke="midnightblue" d="M800.681,-224.324C792.107,-216.341 779.188,-204.313 768.812,-194.653"/>
<polygon fill="midnightblue" stroke="midnightblue" points="771.192,-192.086 761.488,-187.834 766.422,-197.21 771.192,-192.086"/>
</g>
<!-- Node33 -->
<g id="node33" class="node"><title>Node33</title>
<polygon fill="white" stroke="#bfbfbf" points="794,-168.5 794,-187.5 838,-187.5 838,-168.5 794,-168.5"/>
<text text-anchor="middle" x="816" y="-175.5" font-family="Helvetica,sans-Serif" font-size="10.00">fcntl.h</text>
</g>
<!-- Node29&#45;&gt;Node33 -->
<g id="edge47" class="edge"><title>Node29&#45;&gt;Node33</title>
<path fill="none" stroke="midnightblue" d="M810.991,-224.083C811.786,-216.927 812.929,-206.635 813.923,-197.691"/>
<polygon fill="midnightblue" stroke="midnightblue" points="817.402,-198.076 815.028,-187.751 810.445,-197.303 817.402,-198.076"/>
</g>
<!-- Node34&#45;&gt;Node2 -->
<g id="edge49" class="edge"><title>Node34&#45;&gt;Node2</title>
<path fill="none" stroke="midnightblue" d="M654.003,-280.204C650.448,-266.436 641.771,-239.746 625,-224 613.726,-213.414 578.222,-200.077 550.175,-190.679"/>
<polygon fill="midnightblue" stroke="midnightblue" points="551.211,-187.335 540.617,-187.53 549.02,-193.983 551.211,-187.335"/>
</g>
<!-- Node34&#45;&gt;Node18 -->
<g id="edge52" class="edge"><title>Node34&#45;&gt;Node18</title>
<path fill="none" stroke="midnightblue" d="M682.714,-286.228C730.332,-280.754 827.132,-267.049 851,-244 878.783,-217.17 880.883,-168.501 879.654,-141.792"/>
<polygon fill="midnightblue" stroke="midnightblue" points="883.126,-141.262 878.962,-131.52 876.142,-141.732 883.126,-141.262"/>
</g>
<!-- Node35 -->
<g id="node35" class="node"><title>Node35</title>
<g id="a_node35"><a xlink:href="md5_8h.html" target="_top" xlink:title="md5.h">
<polygon fill="white" stroke="black" points="677,-224.5 677,-243.5 721,-243.5 721,-224.5 677,-224.5"/>
<text text-anchor="middle" x="699" y="-231.5" font-family="Helvetica,sans-Serif" font-size="10.00">md5.h</text>
</a>
</g>
</g>
<!-- Node34&#45;&gt;Node35 -->
<g id="edge50" class="edge"><title>Node34&#45;&gt;Node35</title>
<path fill="none" stroke="midnightblue" d="M663.101,-280.083C669.237,-272.377 678.27,-261.033 685.739,-251.653"/>
<polygon fill="midnightblue" stroke="midnightblue" points="688.54,-253.754 692.032,-243.751 683.064,-249.394 688.54,-253.754"/>
</g>
<!-- Node35&#45;&gt;Node2 -->
<g id="edge51" class="edge"><title>Node35&#45;&gt;Node2</title>
<path fill="none" stroke="midnightblue" d="M676.933,-226.593C646.192,-217.669 589.994,-201.353 552.073,-190.344"/>
<polygon fill="midnightblue" stroke="midnightblue" points="552.955,-186.955 542.376,-187.529 551.004,-193.678 552.955,-186.955"/>
</g>
<!-- Node37 -->
<g id="node37" class="node"><title>Node37</title>
<g id="a_node37"><a xlink:href="piclist_8h.html" target="_top" xlink:title="piclist.h">
<polygon fill="white" stroke="black" points="847,-448.5 847,-467.5 897,-467.5 897,-448.5 847,-448.5"/>
<text text-anchor="middle" x="872" y="-455.5" font-family="Helvetica,sans-Serif" font-size="10.00">piclist.h</text>
</a>
</g>
</g>
<!-- Node36&#45;&gt;Node37 -->
<g id="edge55" class="edge"><title>Node36&#45;&gt;Node37</title>
<path fill="none" stroke="midnightblue" d="M811.568,-504.324C822.42,-496.185 838.881,-483.839 851.883,-474.087"/>
<polygon fill="midnightblue" stroke="midnightblue" points="854.321,-476.634 860.221,-467.834 850.121,-471.034 854.321,-476.634"/>
</g>
<!-- Node37&#45;&gt;Node9 -->
<g id="edge56" class="edge"><title>Node37&#45;&gt;Node9</title>
<path fill="none" stroke="midnightblue" d="M882.329,-448.496C901.8,-431.442 942,-390.914 942,-347 942,-347 942,-347 942,-233 942,-200.948 942,-163.643 942,-141.749"/>
<polygon fill="midnightblue" stroke="midnightblue" points="945.5,-141.558 942,-131.558 938.5,-141.558 945.5,-141.558"/>
</g>
</g>
</svg>
        <g id="navigator" transform="translate(0 0)" fill="#404254">
                <rect fill="#f2f5e9" fill-opacity="0.5" stroke="#606060" stroke-width=".5" x="0" y="0" width="60" height="60"/>
                <use id="zoomplus" xlink:href="#zoomPlus" x="17" y="9" onmousedown="handleZoom(evt,'in')"/>
                <use id="zoomminus" xlink:href="#zoomMin" x="42" y="9" onmousedown="handleZoom(evt,'out')"/>
                <use id="reset" xlink:href="#resetDef" x="30" y="36" onmousedown="handleReset()"/>
                <g id="arrowUp" xlink:href="#dirArrow" transform="translate(30 24)" onmousedown="handlePan(0,-1)">
                  <use xlink:href="#rim" fill="#404040">
                        <set attributeName="fill" to="#808080" begin="arrowUp.mouseover" end="arrowUp.mouseout"/>
                  </use>
                  <path fill="none" stroke="white" stroke-width="1.5" d="M0,-3.0v7 M-2.5,-0.5L0,-3.0L2.5,-0.5"/>
                </g>
                <g id="arrowRight" xlink:href="#dirArrow" transform="rotate(90) translate(36 -43)" onmousedown="handlePan(1,0)">
                  <use xlink:href="#rim" fill="#404040">
                        <set attributeName="fill" to="#808080" begin="arrowRight.mouseover" end="arrowRight.mouseout"/>
                  </use>
                  <path fill="none" stroke="white" stroke-width="1.5" d="M0,-3.0v7 M-2.5,-0.5L0,-3.0L2.5,-0.5"/>
                </g>
                <g id="arrowDown" xlink:href="#dirArrow" transform="rotate(180) translate(-30 -48)" onmousedown="handlePan(0,1)">
                  <use xlink:href="#rim" fill="#404040">
                        <set attributeName="fill" to="#808080" begin="arrowDown.mouseover" end="arrowDown.mouseout"/>
                  </use>
                  <path fill="none" stroke="white" stroke-width="1.5" d="M0,-3.0v7 M-2.5,-0.5L0,-3.0L2.5,-0.5"/>
                </g>
                <g id="arrowLeft" xlink:href="#dirArrow" transform="rotate(270) translate(-36 17)" onmousedown="handlePan(-1,0)">
                  <use xlink:href="#rim" fill="#404040">
                        <set attributeName="fill" to="#808080" begin="arrowLeft.mouseover" end="arrowLeft.mouseout"/>
                  </use>
                  <path fill="none" stroke="white" stroke-width="1.5" d="M0,-3.0v7 M-2.5,-0.5L0,-3.0L2.5,-0.5"/>
                </g>
        </g>
        <svg viewBox="0 0 15 15" width="100%" height="30px" preserveAspectRatio="xMaxYMin meet">
         <g id="arrow_out" transform="scale(0.3 0.3)">
          <a xlink:href="dpb_8cpp__incl_org.svg" target="_base">
           <rect id="button" ry="5" rx="5" y="6" x="6" height="38" width="38"
                fill="#f2f5e9" fill-opacity="0.5" stroke="#606060" stroke-width="1.0"/>
           <path id="arrow"
             d="M 11.500037,31.436501 C 11.940474,20.09759 22.043105,11.32322 32.158766,21.979434 L 37.068811,17.246167 C 37.068811,17.246167 37.088388,32 37.088388,32 L 22.160133,31.978069 C 22.160133,31.978069 26.997745,27.140456 26.997745,27.140456 C 18.528582,18.264221 13.291696,25.230495 11.500037,31.436501 z"
             style="fill:#404040;"/>
          </a>
         </g>
        </svg>
</svg>
