<?xml version="1.0" encoding="UTF-8" standalone="no"?>
<!DOCTYPE svg PUBLIC "-//W3C//DTD SVG 1.1//EN"
 "http://www.w3.org/Graphics/SVG/1.1/DTD/svg11.dtd">
<!-- Generated by graphviz version 2.36.0 (20140111.2315)
 -->
<!-- Title: source/encoder/dpb.h Pages: 1 -->
<svg width="287pt" height="84pt"
 viewBox="0.00 0.00 287.00 84.00" xmlns="http://www.w3.org/2000/svg" xmlns:xlink="http://www.w3.org/1999/xlink">
<g id="graph0" class="graph" transform="scale(1 1) rotate(0) translate(4 80)">
<title>source/encoder/dpb.h</title>
<polygon fill="white" stroke="none" points="-4,4 -4,-80 283,-80 283,4 -4,4"/>
<!-- Node1 -->
<g id="node1" class="node"><title>Node1</title>
<polygon fill="#bfbfbf" stroke="black" points="79,-56.5 79,-75.5 189,-75.5 189,-56.5 79,-56.5"/>
<text text-anchor="middle" x="134" y="-63.5" font-family="Helvetica,sans-Serif" font-size="10.00">source/encoder/dpb.h</text>
</g>
<!-- Node2 -->
<g id="node2" class="node"><title>Node2</title>
<g id="a_node2"><a xlink:href="dpb_8cpp.html" target="_top" xlink:title="source/encoder/dpb.cpp">
<polygon fill="white" stroke="black" points="-0.5,-0.5 -0.5,-19.5 120.5,-19.5 120.5,-0.5 -0.5,-0.5"/>
<text text-anchor="middle" x="60" y="-7.5" font-family="Helvetica,sans-Serif" font-size="10.00">source/encoder/dpb.cpp</text>
</a>
</g>
</g>
<!-- Node1&#45;&gt;Node2 -->
<g id="edge1" class="edge"><title>Node1&#45;&gt;Node2</title>
<path fill="none" stroke="midnightblue" d="M113.966,-50.3804C100.591,-40.6204 83.4412,-28.1057 72.1057,-19.8339"/>
<polygon fill="midnightblue" stroke="midnightblue" points="111.97,-53.2565 122.111,-56.324 116.096,-47.602 111.97,-53.2565"/>
</g>
<!-- Node3 -->
<g id="node3" class="node"><title>Node3</title>
<g id="a_node3"><a xlink:href="encoder_8cpp.html" target="_top" xlink:title="source/encoder/encoder.cpp">
<polygon fill="white" stroke="black" points="139,-0.5 139,-19.5 279,-19.5 279,-0.5 139,-0.5"/>
<text text-anchor="middle" x="209" y="-7.5" font-family="Helvetica,sans-Serif" font-size="10.00">source/encoder/encoder.cpp</text>
</a>
</g>
</g>
<!-- Node1&#45;&gt;Node3 -->
<g id="edge2" class="edge"><title>Node1&#45;&gt;Node3</title>
<path fill="none" stroke="midnightblue" d="M154.305,-50.3804C167.861,-40.6204 185.242,-28.1057 196.731,-19.8339"/>
<polygon fill="midnightblue" stroke="midnightblue" points="152.12,-47.6405 146.05,-56.324 156.21,-53.3213 152.12,-47.6405"/>
</g>
</g>
</svg>
