<?xml version="1.0" encoding="UTF-8" standalone="no"?>
<!DOCTYPE svg PUBLIC "-//W3C//DTD SVG 1.1//EN"
 "http://www.w3.org/Graphics/SVG/1.1/DTD/svg11.dtd">
<!-- Generated by graphviz version 2.36.0 (20140111.2315)
 -->
<!-- Title: source/encoder/entropy.h Pages: 1 -->
<!--zoomable 532 -->
<svg id="main" version="1.1" xmlns="http://www.w3.org/2000/svg" xmlns:xlink="http://www.w3.org/1999/xlink" xml:space="preserve" onload="init(evt)">
<style type="text/css"><![CDATA[
.edge:hover path { stroke: red; }
.edge:hover polygon { stroke: red; fill: red; }
]]></style>
<script type="text/javascript"><![CDATA[
var edges = document.getElementsByTagName('g');
if (edges && edges.length) {
  for (var i=0;i<edges.length;i++) {
    if (edges[i].id.substr(0,4)=='edge') {
      edges[i].setAttribute('class','edge');
    }
  }
}
]]></script>
        <defs>
                <circle id="rim" cx="0" cy="0" r="7"/>
                <circle id="rim2" cx="0" cy="0" r="3.5"/>
                <g id="zoomPlus">
                        <use xlink:href="#rim" fill="#404040">
                                <set attributeName="fill" to="#808080" begin="zoomplus.mouseover" end="zoomplus.mouseout"/>
                        </use>
                        <path d="M-4,0h8M0,-4v8" fill="none" stroke="white" stroke-width="1.5" pointer-events="none"/>
                </g>
                <g id="zoomMin">
                        <use xlink:href="#rim" fill="#404040">
                                <set attributeName="fill" to="#808080" begin="zoomminus.mouseover" end="zoomminus.mouseout"/>
                        </use>
                        <path d="M-4,0h8" fill="none" stroke="white" stroke-width="1.5" pointer-events="none"/>
                </g>
                <g id="dirArrow">
                        <path fill="none" stroke="white" stroke-width="1.5" d="M0,-3.0v7 M-2.5,-0.5L0,-3.0L2.5,-0.5"/>
                </g>
               <g id="resetDef">
                       <use xlink:href="#rim2" fill="#404040">
                               <set attributeName="fill" to="#808080" begin="reset.mouseover" end="reset.mouseout"/>
                       </use>
               </g>
        </defs>

<script type="text/javascript">
var viewWidth = 988;
var viewHeight = 532;
var sectionId = 'dynsection-0';
</script>
<script xlink:href="svgpan.js"/>
<svg id="graph" class="graph">
<g id="viewport">
<title>source/encoder/entropy.h</title>
<polygon fill="white" stroke="none" points="-4,4 -4,-528 984,-528 984,4 -4,4"/>
<!-- Node1 -->
<g id="node1" class="node"><title>Node1</title>
<polygon fill="#bfbfbf" stroke="black" points="622.5,-504.5 622.5,-523.5 749.5,-523.5 749.5,-504.5 622.5,-504.5"/>
<text text-anchor="middle" x="686" y="-511.5" font-family="Helvetica,sans-Serif" font-size="10.00">source/encoder/entropy.h</text>
</g>
<!-- Node2 -->
<g id="node2" class="node"><title>Node2</title>
<g id="a_node2"><a xlink:href="common_8h.html" target="_top" xlink:title="common.h">
<polygon fill="white" stroke="black" points="456,-168.5 456,-187.5 518,-187.5 518,-168.5 456,-168.5"/>
<text text-anchor="middle" x="487" y="-175.5" font-family="Helvetica,sans-Serif" font-size="10.00">common.h</text>
</a>
</g>
</g>
<!-- Node1&#45;&gt;Node2 -->
<g id="edge1" class="edge"><title>Node1&#45;&gt;Node2</title>
<path fill="none" stroke="midnightblue" d="M694.453,-504.438C710.767,-486.962 745,-445.258 745,-403 745,-403 745,-403 745,-289 745,-195.947 601.23,-180.523 528.336,-178.683"/>
<polygon fill="midnightblue" stroke="midnightblue" points="528.181,-175.18 518.121,-178.503 528.057,-182.179 528.181,-175.18"/>
</g>
<!-- Node21 -->
<g id="node21" class="node"><title>Node21</title>
<g id="a_node21"><a xlink:href="bitstream_8h.html" target="_top" xlink:title="bitstream.h">
<polygon fill="white" stroke="black" points="773.5,-448.5 773.5,-467.5 838.5,-467.5 838.5,-448.5 773.5,-448.5"/>
<text text-anchor="middle" x="806" y="-455.5" font-family="Helvetica,sans-Serif" font-size="10.00">bitstream.h</text>
</a>
</g>
</g>
<!-- Node1&#45;&gt;Node21 -->
<g id="edge22" class="edge"><title>Node1&#45;&gt;Node21</title>
<path fill="none" stroke="midnightblue" d="M705.014,-504.444C724.588,-495.636 755.308,-481.812 777.729,-471.722"/>
<polygon fill="midnightblue" stroke="midnightblue" points="779.392,-474.812 787.075,-467.516 776.519,-468.428 779.392,-474.812"/>
</g>
<!-- Node22 -->
<g id="node22" class="node"><title>Node22</title>
<g id="a_node22"><a xlink:href="frame_8h.html" target="_top" xlink:title="frame.h">
<polygon fill="white" stroke="black" points="471,-448.5 471,-467.5 521,-467.5 521,-448.5 471,-448.5"/>
<text text-anchor="middle" x="496" y="-455.5" font-family="Helvetica,sans-Serif" font-size="10.00">frame.h</text>
</a>
</g>
</g>
<!-- Node1&#45;&gt;Node22 -->
<g id="edge23" class="edge"><title>Node1&#45;&gt;Node22</title>
<path fill="none" stroke="midnightblue" d="M655.894,-504.444C621.989,-494.808 566.961,-479.168 531.124,-468.983"/>
<polygon fill="midnightblue" stroke="midnightblue" points="531.687,-465.504 521.111,-466.137 529.773,-472.237 531.687,-465.504"/>
</g>
<!-- Node24 -->
<g id="node24" class="node"><title>Node24</title>
<g id="a_node24"><a xlink:href="slice_8h.html" target="_top" xlink:title="slice.h">
<polygon fill="white" stroke="black" points="515.5,-280.5 515.5,-299.5 560.5,-299.5 560.5,-280.5 515.5,-280.5"/>
<text text-anchor="middle" x="538" y="-287.5" font-family="Helvetica,sans-Serif" font-size="10.00">slice.h</text>
</a>
</g>
</g>
<!-- Node1&#45;&gt;Node24 -->
<g id="edge49" class="edge"><title>Node1&#45;&gt;Node24</title>
<path fill="none" stroke="midnightblue" d="M680.198,-504.297C658.145,-471.217 579.273,-352.909 549.494,-308.241"/>
<polygon fill="midnightblue" stroke="midnightblue" points="552.382,-306.263 543.922,-299.884 546.557,-310.146 552.382,-306.263"/>
</g>
<!-- Node34 -->
<g id="node34" class="node"><title>Node34</title>
<g id="a_node34"><a xlink:href="contexts_8h.html" target="_top" xlink:title="contexts.h">
<polygon fill="white" stroke="black" points="655,-392.5 655,-411.5 717,-411.5 717,-392.5 655,-392.5"/>
<text text-anchor="middle" x="686" y="-399.5" font-family="Helvetica,sans-Serif" font-size="10.00">contexts.h</text>
</a>
</g>
</g>
<!-- Node1&#45;&gt;Node34 -->
<g id="edge47" class="edge"><title>Node1&#45;&gt;Node34</title>
<path fill="none" stroke="midnightblue" d="M686,-504.368C686,-486.617 686,-445.666 686,-421.597"/>
<polygon fill="midnightblue" stroke="midnightblue" points="689.5,-421.591 686,-411.591 682.5,-421.591 689.5,-421.591"/>
</g>
<!-- Node3 -->
<g id="node3" class="node"><title>Node3</title>
<polygon fill="white" stroke="#bfbfbf" points="798,-112.5 798,-131.5 854,-131.5 854,-112.5 798,-112.5"/>
<text text-anchor="middle" x="826" y="-119.5" font-family="Helvetica,sans-Serif" font-size="10.00">algorithm</text>
</g>
<!-- Node2&#45;&gt;Node3 -->
<g id="edge2" class="edge"><title>Node2&#45;&gt;Node3</title>
<path fill="none" stroke="midnightblue" d="M518.026,-173.32C571.211,-166.81 683.379,-152.194 787.707,-132.105"/>
<polygon fill="midnightblue" stroke="midnightblue" points="788.63,-135.492 797.776,-130.144 787.292,-128.621 788.63,-135.492"/>
</g>
<!-- Node4 -->
<g id="node4" class="node"><title>Node4</title>
<polygon fill="white" stroke="#bfbfbf" points="872.5,-112.5 872.5,-131.5 917.5,-131.5 917.5,-112.5 872.5,-112.5"/>
<text text-anchor="middle" x="895" y="-119.5" font-family="Helvetica,sans-Serif" font-size="10.00">climits</text>
</g>
<!-- Node2&#45;&gt;Node4 -->
<g id="edge3" class="edge"><title>Node2&#45;&gt;Node4</title>
<path fill="none" stroke="midnightblue" d="M518.355,-174.802C583.055,-169.924 735.863,-156.63 862,-132 862.106,-131.979 862.211,-131.959 862.317,-131.938"/>
<polygon fill="midnightblue" stroke="midnightblue" points="863.411,-135.278 872.381,-129.639 861.852,-128.454 863.411,-135.278"/>
</g>
<!-- Node5 -->
<g id="node5" class="node"><title>Node5</title>
<polygon fill="white" stroke="#bfbfbf" points="936,-112.5 936,-131.5 980,-131.5 980,-112.5 936,-112.5"/>
<text text-anchor="middle" x="958" y="-119.5" font-family="Helvetica,sans-Serif" font-size="10.00">cmath</text>
</g>
<!-- Node2&#45;&gt;Node5 -->
<g id="edge4" class="edge"><title>Node2&#45;&gt;Node5</title>
<path fill="none" stroke="midnightblue" d="M518.135,-175.65C588.886,-172.191 767.208,-161.266 925.803,-131.673"/>
<polygon fill="midnightblue" stroke="midnightblue" points="926.564,-135.091 935.737,-129.79 925.26,-128.214 926.564,-135.091"/>
</g>
<!-- Node6 -->
<g id="node6" class="node"><title>Node6</title>
<polygon fill="white" stroke="#bfbfbf" points="79.5,-112.5 79.5,-131.5 128.5,-131.5 128.5,-112.5 79.5,-112.5"/>
<text text-anchor="middle" x="104" y="-119.5" font-family="Helvetica,sans-Serif" font-size="10.00">cstdarg</text>
</g>
<!-- Node2&#45;&gt;Node6 -->
<g id="edge5" class="edge"><title>Node2&#45;&gt;Node6</title>
<path fill="none" stroke="midnightblue" d="M455.865,-174.455C396.072,-169.255 260.927,-155.994 138.68,-132.116"/>
<polygon fill="midnightblue" stroke="midnightblue" points="139.268,-128.665 128.779,-130.153 137.907,-135.531 139.268,-128.665"/>
</g>
<!-- Node7 -->
<g id="node7" class="node"><title>Node7</title>
<polygon fill="white" stroke="#bfbfbf" points="146.5,-112.5 146.5,-131.5 195.5,-131.5 195.5,-112.5 146.5,-112.5"/>
<text text-anchor="middle" x="171" y="-119.5" font-family="Helvetica,sans-Serif" font-size="10.00">cstddef</text>
</g>
<!-- Node2&#45;&gt;Node7 -->
<g id="edge6" class="edge"><title>Node2&#45;&gt;Node7</title>
<path fill="none" stroke="midnightblue" d="M455.807,-173.167C405.187,-166.704 301.865,-152.505 205.678,-132.187"/>
<polygon fill="midnightblue" stroke="midnightblue" points="206.306,-128.743 195.795,-130.072 204.841,-135.588 206.306,-128.743"/>
</g>
<!-- Node8 -->
<g id="node8" class="node"><title>Node8</title>
<polygon fill="white" stroke="#bfbfbf" points="213.5,-112.5 213.5,-131.5 256.5,-131.5 256.5,-112.5 213.5,-112.5"/>
<text text-anchor="middle" x="235" y="-119.5" font-family="Helvetica,sans-Serif" font-size="10.00">cstdio</text>
</g>
<!-- Node2&#45;&gt;Node8 -->
<g id="edge7" class="edge"><title>Node2&#45;&gt;Node8</title>
<path fill="none" stroke="midnightblue" d="M455.913,-171.626C414.648,-164.292 339.346,-150.21 266.376,-132.179"/>
<polygon fill="midnightblue" stroke="midnightblue" points="267.115,-128.756 256.565,-129.726 265.417,-135.547 267.115,-128.756"/>
</g>
<!-- Node9 -->
<g id="node9" class="node"><title>Node9</title>
<polygon fill="white" stroke="#bfbfbf" points="274.5,-112.5 274.5,-131.5 319.5,-131.5 319.5,-112.5 274.5,-112.5"/>
<text text-anchor="middle" x="297" y="-119.5" font-family="Helvetica,sans-Serif" font-size="10.00">cstdlib</text>
</g>
<!-- Node2&#45;&gt;Node9 -->
<g id="edge8" class="edge"><title>Node2&#45;&gt;Node9</title>
<path fill="none" stroke="midnightblue" d="M456.894,-168.444C422.132,-158.564 365.166,-142.373 329.444,-132.221"/>
<polygon fill="midnightblue" stroke="midnightblue" points="330.104,-128.77 319.528,-129.403 328.19,-135.503 330.104,-128.77"/>
</g>
<!-- Node10 -->
<g id="node10" class="node"><title>Node10</title>
<polygon fill="white" stroke="#bfbfbf" points="338,-112.5 338,-131.5 384,-131.5 384,-112.5 338,-112.5"/>
<text text-anchor="middle" x="361" y="-119.5" font-family="Helvetica,sans-Serif" font-size="10.00">cstring</text>
</g>
<!-- Node2&#45;&gt;Node10 -->
<g id="edge9" class="edge"><title>Node2&#45;&gt;Node10</title>
<path fill="none" stroke="midnightblue" d="M467.035,-168.444C446.391,-159.596 413.937,-145.687 390.368,-135.586"/>
<polygon fill="midnightblue" stroke="midnightblue" points="391.442,-132.239 380.872,-131.516 388.684,-138.673 391.442,-132.239"/>
</g>
<!-- Node11 -->
<g id="node11" class="node"><title>Node11</title>
<polygon fill="white" stroke="#bfbfbf" points="402,-112.5 402,-131.5 448,-131.5 448,-112.5 402,-112.5"/>
<text text-anchor="middle" x="425" y="-119.5" font-family="Helvetica,sans-Serif" font-size="10.00">cctype</text>
</g>
<!-- Node2&#45;&gt;Node11 -->
<g id="edge10" class="edge"><title>Node2&#45;&gt;Node11</title>
<path fill="none" stroke="midnightblue" d="M477.039,-168.324C467.873,-160.341 454.063,-148.313 442.972,-138.653"/>
<polygon fill="midnightblue" stroke="midnightblue" points="444.982,-135.762 435.143,-131.834 440.385,-141.041 444.982,-135.762"/>
</g>
<!-- Node12 -->
<g id="node12" class="node"><title>Node12</title>
<polygon fill="white" stroke="#bfbfbf" points="466.5,-112.5 466.5,-131.5 507.5,-131.5 507.5,-112.5 466.5,-112.5"/>
<text text-anchor="middle" x="487" y="-119.5" font-family="Helvetica,sans-Serif" font-size="10.00">ctime</text>
</g>
<!-- Node2&#45;&gt;Node12 -->
<g id="edge11" class="edge"><title>Node2&#45;&gt;Node12</title>
<path fill="none" stroke="midnightblue" d="M487,-168.083C487,-161.006 487,-150.861 487,-141.986"/>
<polygon fill="midnightblue" stroke="midnightblue" points="490.5,-141.751 487,-131.751 483.5,-141.751 490.5,-141.751"/>
</g>
<!-- Node13 -->
<g id="node13" class="node"><title>Node13</title>
<g id="a_node13"><a xlink:href="stdint_8h.html" target="_top" xlink:title="stdint.h">
<polygon fill="white" stroke="black" points="302.5,-56.5 302.5,-75.5 351.5,-75.5 351.5,-56.5 302.5,-56.5"/>
<text text-anchor="middle" x="327" y="-63.5" font-family="Helvetica,sans-Serif" font-size="10.00">stdint.h</text>
</a>
</g>
</g>
<!-- Node2&#45;&gt;Node13 -->
<g id="edge12" class="edge"><title>Node2&#45;&gt;Node13</title>
<path fill="none" stroke="midnightblue" d="M496.363,-168.27C509.401,-155.056 529.94,-129.648 516,-112 497.155,-88.1419 411.129,-75.5703 361.883,-70.2204"/>
<polygon fill="midnightblue" stroke="midnightblue" points="361.987,-66.7123 351.678,-69.1578 361.262,-73.6747 361.987,-66.7123"/>
</g>
<!-- Node16 -->
<g id="node16" class="node"><title>Node16</title>
<polygon fill="white" stroke="#bfbfbf" points="564,-112.5 564,-131.5 624,-131.5 624,-112.5 564,-112.5"/>
<text text-anchor="middle" x="594" y="-119.5" font-family="Helvetica,sans-Serif" font-size="10.00">memory.h</text>
</g>
<!-- Node2&#45;&gt;Node16 -->
<g id="edge15" class="edge"><title>Node2&#45;&gt;Node16</title>
<path fill="none" stroke="midnightblue" d="M504.191,-168.324C521.351,-159.664 547.946,-146.242 567.747,-136.249"/>
<polygon fill="midnightblue" stroke="midnightblue" points="569.501,-139.285 576.851,-131.655 566.347,-133.035 569.501,-139.285"/>
</g>
<!-- Node17 -->
<g id="node17" class="node"><title>Node17</title>
<polygon fill="white" stroke="#bfbfbf" points="642,-112.5 642,-131.5 694,-131.5 694,-112.5 642,-112.5"/>
<text text-anchor="middle" x="668" y="-119.5" font-family="Helvetica,sans-Serif" font-size="10.00">assert.h</text>
</g>
<!-- Node2&#45;&gt;Node17 -->
<g id="edge16" class="edge"><title>Node2&#45;&gt;Node17</title>
<path fill="none" stroke="midnightblue" d="M515.68,-168.444C547.253,-159.024 598.054,-143.868 632.211,-133.677"/>
<polygon fill="midnightblue" stroke="midnightblue" points="633.223,-137.028 641.805,-130.815 631.222,-130.32 633.223,-137.028"/>
</g>
<!-- Node18 -->
<g id="node18" class="node"><title>Node18</title>
<g id="a_node18"><a xlink:href="x265_8h.html" target="_top" xlink:title="x265.h">
<polygon fill="white" stroke="black" points="15,-112.5 15,-131.5 61,-131.5 61,-112.5 15,-112.5"/>
<text text-anchor="middle" x="38" y="-119.5" font-family="Helvetica,sans-Serif" font-size="10.00">x265.h</text>
</a>
</g>
</g>
<!-- Node2&#45;&gt;Node18 -->
<g id="edge17" class="edge"><title>Node2&#45;&gt;Node18</title>
<path fill="none" stroke="midnightblue" d="M455.872,-175.418C387.769,-171.579 220.376,-160.086 71.5397,-132.003"/>
<polygon fill="midnightblue" stroke="midnightblue" points="71.7915,-128.488 61.3111,-130.041 70.4726,-135.362 71.7915,-128.488"/>
</g>
<!-- Node20 -->
<g id="node20" class="node"><title>Node20</title>
<g id="a_node20"><a xlink:href="constants_8h.html" target="_top" xlink:title="constants.h">
<polygon fill="white" stroke="black" points="712,-112.5 712,-131.5 780,-131.5 780,-112.5 712,-112.5"/>
<text text-anchor="middle" x="746" y="-119.5" font-family="Helvetica,sans-Serif" font-size="10.00">constants.h</text>
</a>
</g>
</g>
<!-- Node2&#45;&gt;Node20 -->
<g id="edge20" class="edge"><title>Node2&#45;&gt;Node20</title>
<path fill="none" stroke="midnightblue" d="M518.327,-169.126C558.977,-160.151 631.569,-145.037 694,-132 696.571,-131.463 699.229,-130.908 701.925,-130.349"/>
<polygon fill="midnightblue" stroke="midnightblue" points="702.675,-133.768 711.77,-128.334 701.272,-126.91 702.675,-133.768"/>
</g>
<!-- Node14 -->
<g id="node14" class="node"><title>Node14</title>
<polygon fill="white" stroke="#bfbfbf" points="264.5,-0.5 264.5,-19.5 319.5,-19.5 319.5,-0.5 264.5,-0.5"/>
<text text-anchor="middle" x="292" y="-7.5" font-family="Helvetica,sans-Serif" font-size="10.00">crtdefs.h</text>
</g>
<!-- Node13&#45;&gt;Node14 -->
<g id="edge13" class="edge"><title>Node13&#45;&gt;Node14</title>
<path fill="none" stroke="midnightblue" d="M321.22,-56.083C316.328,-48.5341 309.173,-37.4948 303.167,-28.2298"/>
<polygon fill="midnightblue" stroke="midnightblue" points="306.048,-26.239 297.672,-19.7511 300.174,-30.0463 306.048,-26.239"/>
</g>
<!-- Node15 -->
<g id="node15" class="node"><title>Node15</title>
<polygon fill="white" stroke="#bfbfbf" points="338,-0.5 338,-19.5 386,-19.5 386,-0.5 338,-0.5"/>
<text text-anchor="middle" x="362" y="-7.5" font-family="Helvetica,sans-Serif" font-size="10.00">limits.h</text>
</g>
<!-- Node13&#45;&gt;Node15 -->
<g id="edge14" class="edge"><title>Node13&#45;&gt;Node15</title>
<path fill="none" stroke="midnightblue" d="M332.78,-56.083C337.672,-48.5341 344.827,-37.4948 350.833,-28.2298"/>
<polygon fill="midnightblue" stroke="midnightblue" points="353.826,-30.0463 356.328,-19.7511 347.952,-26.239 353.826,-30.0463"/>
</g>
<!-- Node18&#45;&gt;Node13 -->
<g id="edge18" class="edge"><title>Node18&#45;&gt;Node13</title>
<path fill="none" stroke="midnightblue" d="M61.001,-114.232C64.0161,-113.433 67.0738,-112.666 70,-112 148.799,-94.0681 242.587,-79.2743 292.201,-71.9538"/>
<polygon fill="midnightblue" stroke="midnightblue" points="292.997,-75.3748 302.385,-70.4648 291.984,-68.4484 292.997,-75.3748"/>
</g>
<!-- Node19 -->
<g id="node19" class="node"><title>Node19</title>
<g id="a_node19"><a xlink:href="x265__config_8h.html" target="_top" xlink:title="x265_config.h">
<polygon fill="white" stroke="black" points="-0.5,-56.5 -0.5,-75.5 76.5,-75.5 76.5,-56.5 -0.5,-56.5"/>
<text text-anchor="middle" x="38" y="-63.5" font-family="Helvetica,sans-Serif" font-size="10.00">x265_config.h</text>
</a>
</g>
</g>
<!-- Node18&#45;&gt;Node19 -->
<g id="edge19" class="edge"><title>Node18&#45;&gt;Node19</title>
<path fill="none" stroke="midnightblue" d="M38,-112.083C38,-105.006 38,-94.8611 38,-85.9865"/>
<polygon fill="midnightblue" stroke="midnightblue" points="41.5001,-85.751 38,-75.7511 34.5001,-85.7511 41.5001,-85.751"/>
</g>
<!-- Node20&#45;&gt;Node2 -->
<g id="edge21" class="edge"><title>Node20&#45;&gt;Node2</title>
<path fill="none" stroke="midnightblue" d="M714.259,-131.528C713.5,-131.687 712.747,-131.844 712,-132 648.166,-145.33 573.711,-160.831 528.343,-169.721"/>
<polygon fill="midnightblue" stroke="midnightblue" points="527.439,-166.331 518.29,-171.674 528.774,-173.203 527.439,-166.331"/>
</g>
<!-- Node22&#45;&gt;Node2 -->
<g id="edge24" class="edge"><title>Node22&#45;&gt;Node2</title>
<path fill="none" stroke="midnightblue" d="M511.357,-448.31C537.772,-432.093 589,-394.515 589,-347 589,-347 589,-347 589,-289 589,-244.392 543.34,-210.234 513.119,-192.511"/>
<polygon fill="midnightblue" stroke="midnightblue" points="514.733,-189.404 504.303,-187.545 511.298,-195.503 514.733,-189.404"/>
</g>
<!-- Node23 -->
<g id="node23" class="node"><title>Node23</title>
<g id="a_node23"><a xlink:href="framedata_8h.html" target="_top" xlink:title="framedata.h">
<polygon fill="white" stroke="black" points="462,-392.5 462,-411.5 530,-411.5 530,-392.5 462,-392.5"/>
<text text-anchor="middle" x="496" y="-399.5" font-family="Helvetica,sans-Serif" font-size="10.00">framedata.h</text>
</a>
</g>
</g>
<!-- Node22&#45;&gt;Node23 -->
<g id="edge25" class="edge"><title>Node22&#45;&gt;Node23</title>
<path fill="none" stroke="midnightblue" d="M496,-448.083C496,-441.006 496,-430.861 496,-421.986"/>
<polygon fill="midnightblue" stroke="midnightblue" points="499.5,-421.751 496,-411.751 492.5,-421.751 499.5,-421.751"/>
</g>
<!-- Node28 -->
<g id="node28" class="node"><title>Node28</title>
<g id="a_node28"><a xlink:href="lowres_8h.html" target="_top" xlink:title="lowres.h">
<polygon fill="white" stroke="black" points="341.5,-336.5 341.5,-355.5 394.5,-355.5 394.5,-336.5 341.5,-336.5"/>
<text text-anchor="middle" x="368" y="-343.5" font-family="Helvetica,sans-Serif" font-size="10.00">lowres.h</text>
</a>
</g>
</g>
<!-- Node22&#45;&gt;Node28 -->
<g id="edge36" class="edge"><title>Node22&#45;&gt;Node28</title>
<path fill="none" stroke="midnightblue" d="M485.956,-448.368C464.272,-429.733 412.838,-385.532 385.61,-362.134"/>
<polygon fill="midnightblue" stroke="midnightblue" points="387.863,-359.455 377.997,-355.591 383.3,-364.764 387.863,-359.455"/>
</g>
<!-- Node29 -->
<g id="node29" class="node"><title>Node29</title>
<g id="a_node29"><a xlink:href="threading_8h.html" target="_top" xlink:title="threading.h">
<polygon fill="white" stroke="black" points="193.5,-224.5 193.5,-243.5 258.5,-243.5 258.5,-224.5 193.5,-224.5"/>
<text text-anchor="middle" x="226" y="-231.5" font-family="Helvetica,sans-Serif" font-size="10.00">threading.h</text>
</a>
</g>
</g>
<!-- Node22&#45;&gt;Node29 -->
<g id="edge40" class="edge"><title>Node22&#45;&gt;Node29</title>
<path fill="none" stroke="midnightblue" d="M480.387,-448.497C464.324,-439.66 438.663,-425.287 417,-412 378.436,-388.347 366.102,-385.727 332,-356 294.106,-322.967 257.094,-276.564 238.459,-251.925"/>
<polygon fill="midnightblue" stroke="midnightblue" points="241.044,-249.536 232.254,-243.621 235.436,-253.727 241.044,-249.536"/>
</g>
<!-- Node23&#45;&gt;Node2 -->
<g id="edge26" class="edge"><title>Node23&#45;&gt;Node2</title>
<path fill="none" stroke="midnightblue" d="M485.838,-392.185C477.092,-383.87 465.1,-370.539 460,-356 440.41,-300.153 464.894,-229.472 478.729,-196.912"/>
<polygon fill="midnightblue" stroke="midnightblue" points="481.939,-198.309 482.778,-187.748 475.536,-195.48 481.939,-198.309"/>
</g>
<!-- Node23&#45;&gt;Node24 -->
<g id="edge27" class="edge"><title>Node23&#45;&gt;Node24</title>
<path fill="none" stroke="midnightblue" d="M505.515,-392.391C514.071,-384.018 526.162,-370.475 532,-356 537.902,-341.368 539.159,-323.427 539.078,-310.104"/>
<polygon fill="midnightblue" stroke="midnightblue" points="542.566,-309.665 538.745,-299.783 535.569,-309.89 542.566,-309.665"/>
</g>
<!-- Node25 -->
<g id="node25" class="node"><title>Node25</title>
<g id="a_node25"><a xlink:href="cudata_8h.html" target="_top" xlink:title="cudata.h">
<polygon fill="white" stroke="black" points="469,-336.5 469,-355.5 523,-355.5 523,-336.5 469,-336.5"/>
<text text-anchor="middle" x="496" y="-343.5" font-family="Helvetica,sans-Serif" font-size="10.00">cudata.h</text>
</a>
</g>
</g>
<!-- Node23&#45;&gt;Node25 -->
<g id="edge29" class="edge"><title>Node23&#45;&gt;Node25</title>
<path fill="none" stroke="midnightblue" d="M496,-392.083C496,-385.006 496,-374.861 496,-365.986"/>
<polygon fill="midnightblue" stroke="midnightblue" points="499.5,-365.751 496,-355.751 492.5,-365.751 499.5,-365.751"/>
</g>
<!-- Node24&#45;&gt;Node2 -->
<g id="edge28" class="edge"><title>Node24&#45;&gt;Node2</title>
<path fill="none" stroke="midnightblue" d="M533.998,-280.368C525.693,-262.456 506.437,-220.923 495.321,-196.948"/>
<polygon fill="midnightblue" stroke="midnightblue" points="498.365,-195.192 490.983,-187.591 492.014,-198.136 498.365,-195.192"/>
</g>
<!-- Node25&#45;&gt;Node2 -->
<g id="edge30" class="edge"><title>Node25&#45;&gt;Node2</title>
<path fill="none" stroke="midnightblue" d="M495.516,-336.075C494.099,-309.945 489.939,-233.211 488.007,-197.577"/>
<polygon fill="midnightblue" stroke="midnightblue" points="491.501,-197.364 487.465,-187.568 484.511,-197.743 491.501,-197.364"/>
</g>
<!-- Node25&#45;&gt;Node24 -->
<g id="edge31" class="edge"><title>Node25&#45;&gt;Node24</title>
<path fill="none" stroke="midnightblue" d="M502.935,-336.083C508.929,-328.377 517.752,-317.033 525.048,-307.653"/>
<polygon fill="midnightblue" stroke="midnightblue" points="527.817,-309.793 531.194,-299.751 522.291,-305.496 527.817,-309.793"/>
</g>
<!-- Node26 -->
<g id="node26" class="node"><title>Node26</title>
<g id="a_node26"><a xlink:href="mv_8h.html" target="_top" xlink:title="mv.h">
<polygon fill="white" stroke="black" points="379,-280.5 379,-299.5 417,-299.5 417,-280.5 379,-280.5"/>
<text text-anchor="middle" x="398" y="-287.5" font-family="Helvetica,sans-Serif" font-size="10.00">mv.h</text>
</a>
</g>
</g>
<!-- Node25&#45;&gt;Node26 -->
<g id="edge32" class="edge"><title>Node25&#45;&gt;Node26</title>
<path fill="none" stroke="midnightblue" d="M480.255,-336.324C464.681,-327.743 440.623,-314.486 422.541,-304.522"/>
<polygon fill="midnightblue" stroke="midnightblue" points="424.154,-301.415 413.706,-299.655 420.776,-307.546 424.154,-301.415"/>
</g>
<!-- Node26&#45;&gt;Node2 -->
<g id="edge33" class="edge"><title>Node26&#45;&gt;Node2</title>
<path fill="none" stroke="midnightblue" d="M401.728,-280.425C407.629,-267.412 420.003,-242.265 435,-224 444.233,-212.755 456.461,-202.017 466.739,-193.853"/>
<polygon fill="midnightblue" stroke="midnightblue" points="469.015,-196.518 474.805,-187.646 464.746,-190.971 469.015,-196.518"/>
</g>
<!-- Node27 -->
<g id="node27" class="node"><title>Node27</title>
<g id="a_node27"><a xlink:href="primitives_8h.html" target="_top" xlink:title="primitives.h">
<polygon fill="white" stroke="red" points="315.5,-224.5 315.5,-243.5 382.5,-243.5 382.5,-224.5 315.5,-224.5"/>
<text text-anchor="middle" x="349" y="-231.5" font-family="Helvetica,sans-Serif" font-size="10.00">primitives.h</text>
</a>
</g>
</g>
<!-- Node26&#45;&gt;Node27 -->
<g id="edge34" class="edge"><title>Node26&#45;&gt;Node27</title>
<path fill="none" stroke="midnightblue" d="M389.909,-280.083C382.845,-272.298 372.412,-260.801 363.851,-251.367"/>
<polygon fill="midnightblue" stroke="midnightblue" points="366.253,-248.805 356.941,-243.751 361.069,-253.509 366.253,-248.805"/>
</g>
<!-- Node27&#45;&gt;Node2 -->
<g id="edge35" class="edge"><title>Node27&#45;&gt;Node2</title>
<path fill="none" stroke="midnightblue" d="M370.867,-224.444C393.779,-215.478 429.975,-201.314 455.866,-191.183"/>
<polygon fill="midnightblue" stroke="midnightblue" points="457.199,-194.42 465.236,-187.516 454.648,-187.901 457.199,-194.42"/>
</g>
<!-- Node28&#45;&gt;Node2 -->
<g id="edge38" class="edge"><title>Node28&#45;&gt;Node2</title>
<path fill="none" stroke="midnightblue" d="M357.333,-336.443C332.765,-315.715 276.487,-261.749 306,-224 323.001,-202.255 397.636,-189.514 445.598,-183.43"/>
<polygon fill="midnightblue" stroke="midnightblue" points="446.19,-186.883 455.692,-182.197 445.341,-179.935 446.19,-186.883"/>
</g>
<!-- Node28&#45;&gt;Node26 -->
<g id="edge39" class="edge"><title>Node28&#45;&gt;Node26</title>
<path fill="none" stroke="midnightblue" d="M372.954,-336.083C377.104,-328.613 383.153,-317.724 388.267,-308.52"/>
<polygon fill="midnightblue" stroke="midnightblue" points="391.341,-310.192 393.138,-299.751 385.222,-306.793 391.341,-310.192"/>
</g>
<!-- Node28&#45;&gt;Node27 -->
<g id="edge37" class="edge"><title>Node28&#45;&gt;Node27</title>
<path fill="none" stroke="midnightblue" d="M366.509,-336.368C363.443,-318.617 356.37,-277.666 352.212,-253.597"/>
<polygon fill="midnightblue" stroke="midnightblue" points="355.635,-252.85 350.484,-243.591 348.737,-254.041 355.635,-252.85"/>
</g>
<!-- Node29&#45;&gt;Node2 -->
<g id="edge41" class="edge"><title>Node29&#45;&gt;Node2</title>
<path fill="none" stroke="midnightblue" d="M258.528,-226.27C305.929,-216.463 393.97,-198.248 445.827,-187.518"/>
<polygon fill="midnightblue" stroke="midnightblue" points="446.61,-190.931 455.694,-185.477 445.192,-184.076 446.61,-190.931"/>
</g>
<!-- Node29&#45;&gt;Node18 -->
<g id="edge42" class="edge"><title>Node29&#45;&gt;Node18</title>
<path fill="none" stroke="midnightblue" d="M230.054,-224.324C235.741,-210.721 244.02,-184.253 231,-168 187.127,-113.234 144.886,-146.745 71.1564,-131.938"/>
<polygon fill="midnightblue" stroke="midnightblue" points="71.5589,-128.44 61.0321,-129.639 70.0088,-135.266 71.5589,-128.44"/>
</g>
<!-- Node30 -->
<g id="node30" class="node"><title>Node30</title>
<polygon fill="white" stroke="#bfbfbf" points="279.5,-168.5 279.5,-187.5 336.5,-187.5 336.5,-168.5 279.5,-168.5"/>
<text text-anchor="middle" x="308" y="-175.5" font-family="Helvetica,sans-Serif" font-size="10.00">pthread.h</text>
</g>
<!-- Node29&#45;&gt;Node30 -->
<g id="edge43" class="edge"><title>Node29&#45;&gt;Node30</title>
<path fill="none" stroke="midnightblue" d="M239.175,-224.324C251.847,-215.979 271.233,-203.212 286.206,-193.352"/>
<polygon fill="midnightblue" stroke="midnightblue" points="288.431,-196.078 294.858,-187.655 284.581,-190.231 288.431,-196.078"/>
</g>
<!-- Node31 -->
<g id="node31" class="node"><title>Node31</title>
<polygon fill="white" stroke="#bfbfbf" points="22.5,-168.5 22.5,-187.5 95.5,-187.5 95.5,-168.5 22.5,-168.5"/>
<text text-anchor="middle" x="59" y="-175.5" font-family="Helvetica,sans-Serif" font-size="10.00">semaphore.h</text>
</g>
<!-- Node29&#45;&gt;Node31 -->
<g id="edge44" class="edge"><title>Node29&#45;&gt;Node31</title>
<path fill="none" stroke="midnightblue" d="M199.538,-224.444C171.322,-215.32 126.46,-200.813 95.0315,-190.651"/>
<polygon fill="midnightblue" stroke="midnightblue" points="95.9296,-187.263 85.3378,-187.516 93.7759,-193.923 95.9296,-187.263"/>
</g>
<!-- Node32 -->
<g id="node32" class="node"><title>Node32</title>
<polygon fill="white" stroke="#bfbfbf" points="113.5,-168.5 113.5,-187.5 160.5,-187.5 160.5,-168.5 113.5,-168.5"/>
<text text-anchor="middle" x="137" y="-175.5" font-family="Helvetica,sans-Serif" font-size="10.00">errno.h</text>
</g>
<!-- Node29&#45;&gt;Node32 -->
<g id="edge45" class="edge"><title>Node29&#45;&gt;Node32</title>
<path fill="none" stroke="midnightblue" d="M211.701,-224.324C197.817,-215.9 176.508,-202.971 160.196,-193.074"/>
<polygon fill="midnightblue" stroke="midnightblue" points="161.629,-189.85 151.264,-187.655 157.998,-195.834 161.629,-189.85"/>
</g>
<!-- Node33 -->
<g id="node33" class="node"><title>Node33</title>
<polygon fill="white" stroke="#bfbfbf" points="179,-168.5 179,-187.5 223,-187.5 223,-168.5 179,-168.5"/>
<text text-anchor="middle" x="201" y="-175.5" font-family="Helvetica,sans-Serif" font-size="10.00">fcntl.h</text>
</g>
<!-- Node29&#45;&gt;Node33 -->
<g id="edge46" class="edge"><title>Node29&#45;&gt;Node33</title>
<path fill="none" stroke="midnightblue" d="M221.872,-224.083C218.486,-216.77 213.584,-206.181 209.381,-197.103"/>
<polygon fill="midnightblue" stroke="midnightblue" points="212.429,-195.355 205.051,-187.751 206.077,-198.296 212.429,-195.355"/>
</g>
<!-- Node34&#45;&gt;Node2 -->
<g id="edge48" class="edge"><title>Node34&#45;&gt;Node2</title>
<path fill="none" stroke="midnightblue" d="M684.317,-392.273C678.418,-363.952 656.085,-273.572 603,-224 582.278,-204.65 552.313,-193.313 528.03,-186.858"/>
<polygon fill="midnightblue" stroke="midnightblue" points="528.561,-183.384 518.014,-184.382 526.881,-190.18 528.561,-183.384"/>
</g>
</g>
</svg>
        <g id="navigator" transform="translate(0 0)" fill="#404254">
                <rect fill="#f2f5e9" fill-opacity="0.5" stroke="#606060" stroke-width=".5" x="0" y="0" width="60" height="60"/>
                <use id="zoomplus" xlink:href="#zoomPlus" x="17" y="9" onmousedown="handleZoom(evt,'in')"/>
                <use id="zoomminus" xlink:href="#zoomMin" x="42" y="9" onmousedown="handleZoom(evt,'out')"/>
                <use id="reset" xlink:href="#resetDef" x="30" y="36" onmousedown="handleReset()"/>
                <g id="arrowUp" xlink:href="#dirArrow" transform="translate(30 24)" onmousedown="handlePan(0,-1)">
                  <use xlink:href="#rim" fill="#404040">
                        <set attributeName="fill" to="#808080" begin="arrowUp.mouseover" end="arrowUp.mouseout"/>
                  </use>
                  <path fill="none" stroke="white" stroke-width="1.5" d="M0,-3.0v7 M-2.5,-0.5L0,-3.0L2.5,-0.5"/>
                </g>
                <g id="arrowRight" xlink:href="#dirArrow" transform="rotate(90) translate(36 -43)" onmousedown="handlePan(1,0)">
                  <use xlink:href="#rim" fill="#404040">
                        <set attributeName="fill" to="#808080" begin="arrowRight.mouseover" end="arrowRight.mouseout"/>
                  </use>
                  <path fill="none" stroke="white" stroke-width="1.5" d="M0,-3.0v7 M-2.5,-0.5L0,-3.0L2.5,-0.5"/>
                </g>
                <g id="arrowDown" xlink:href="#dirArrow" transform="rotate(180) translate(-30 -48)" onmousedown="handlePan(0,1)">
                  <use xlink:href="#rim" fill="#404040">
                        <set attributeName="fill" to="#808080" begin="arrowDown.mouseover" end="arrowDown.mouseout"/>
                  </use>
                  <path fill="none" stroke="white" stroke-width="1.5" d="M0,-3.0v7 M-2.5,-0.5L0,-3.0L2.5,-0.5"/>
                </g>
                <g id="arrowLeft" xlink:href="#dirArrow" transform="rotate(270) translate(-36 17)" onmousedown="handlePan(-1,0)">
                  <use xlink:href="#rim" fill="#404040">
                        <set attributeName="fill" to="#808080" begin="arrowLeft.mouseover" end="arrowLeft.mouseout"/>
                  </use>
                  <path fill="none" stroke="white" stroke-width="1.5" d="M0,-3.0v7 M-2.5,-0.5L0,-3.0L2.5,-0.5"/>
                </g>
        </g>
        <svg viewBox="0 0 15 15" width="100%" height="30px" preserveAspectRatio="xMaxYMin meet">
         <g id="arrow_out" transform="scale(0.3 0.3)">
          <a xlink:href="entropy_8h__incl_org.svg" target="_base">
           <rect id="button" ry="5" rx="5" y="6" x="6" height="38" width="38"
                fill="#f2f5e9" fill-opacity="0.5" stroke="#606060" stroke-width="1.0"/>
           <path id="arrow"
             d="M 11.500037,31.436501 C 11.940474,20.09759 22.043105,11.32322 32.158766,21.979434 L 37.068811,17.246167 C 37.068811,17.246167 37.088388,32 37.088388,32 L 22.160133,31.978069 C 22.160133,31.978069 26.997745,27.140456 26.997745,27.140456 C 18.528582,18.264221 13.291696,25.230495 11.500037,31.436501 z"
             style="fill:#404040;"/>
          </a>
         </g>
        </svg>
</svg>
