<?xml version="1.0" encoding="UTF-8" standalone="no"?>
<!DOCTYPE svg PUBLIC "-//W3C//DTD SVG 1.1//EN"
 "http://www.w3.org/Graphics/SVG/1.1/DTD/svg11.dtd">
<!-- Generated by graphviz version 2.36.0 (20140111.2315)
 -->
<!-- Title: source/common/frame.cpp Pages: 1 -->
<svg width="1225pt" height="532pt"
 viewBox="0.00 0.00 1225.00 532.00" xmlns="http://www.w3.org/2000/svg" xmlns:xlink="http://www.w3.org/1999/xlink">
<g id="graph0" class="graph" transform="scale(1 1) rotate(0) translate(4 528)">
<title>source/common/frame.cpp</title>
<polygon fill="white" stroke="none" points="-4,4 -4,-528 1221,-528 1221,4 -4,4"/>
<!-- Node1 -->
<g id="node1" class="node"><title>Node1</title>
<polygon fill="#bfbfbf" stroke="black" points="549.5,-504.5 549.5,-523.5 682.5,-523.5 682.5,-504.5 549.5,-504.5"/>
<text text-anchor="middle" x="616" y="-511.5" font-family="Helvetica,sans-Serif" font-size="10.00">source/common/frame.cpp</text>
</g>
<!-- Node2 -->
<g id="node2" class="node"><title>Node2</title>
<g id="a_node2"><a xlink:href="common_8h.html" target="_top" xlink:title="common.h">
<polygon fill="white" stroke="black" points="544,-168.5 544,-187.5 606,-187.5 606,-168.5 544,-168.5"/>
<text text-anchor="middle" x="575" y="-175.5" font-family="Helvetica,sans-Serif" font-size="10.00">common.h</text>
</a>
</g>
</g>
<!-- Node1&#45;&gt;Node2 -->
<g id="edge1" class="edge"><title>Node1&#45;&gt;Node2</title>
<path fill="none" stroke="midnightblue" d="M551.115,-504.458C493.043,-492.74 417,-465.47 417,-403 417,-403 417,-403 417,-289 417,-232.016 487.077,-202.144 533.892,-188.546"/>
<polygon fill="midnightblue" stroke="midnightblue" points="535.078,-191.85 543.784,-185.812 533.213,-185.103 535.078,-191.85"/>
</g>
<!-- Node21 -->
<g id="node21" class="node"><title>Node21</title>
<g id="a_node21"><a xlink:href="frame_8h.html" target="_top" xlink:title="frame.h">
<polygon fill="white" stroke="black" points="591,-448.5 591,-467.5 641,-467.5 641,-448.5 591,-448.5"/>
<text text-anchor="middle" x="616" y="-455.5" font-family="Helvetica,sans-Serif" font-size="10.00">frame.h</text>
</a>
</g>
</g>
<!-- Node1&#45;&gt;Node21 -->
<g id="edge22" class="edge"><title>Node1&#45;&gt;Node21</title>
<path fill="none" stroke="midnightblue" d="M616,-504.083C616,-497.006 616,-486.861 616,-477.986"/>
<polygon fill="midnightblue" stroke="midnightblue" points="619.5,-477.751 616,-467.751 612.5,-477.751 619.5,-477.751"/>
</g>
<!-- Node33 -->
<g id="node33" class="node"><title>Node33</title>
<g id="a_node33"><a xlink:href="picyuv_8h.html" target="_top" xlink:title="picyuv.h">
<polygon fill="white" stroke="black" points="781.5,-280.5 781.5,-299.5 834.5,-299.5 834.5,-280.5 781.5,-280.5"/>
<text text-anchor="middle" x="808" y="-287.5" font-family="Helvetica,sans-Serif" font-size="10.00">picyuv.h</text>
</a>
</g>
</g>
<!-- Node1&#45;&gt;Node33 -->
<g id="edge46" class="edge"><title>Node1&#45;&gt;Node33</title>
<path fill="none" stroke="midnightblue" d="M623.527,-504.297C652.256,-471.079 755.314,-351.918 793.571,-307.684"/>
<polygon fill="midnightblue" stroke="midnightblue" points="796.422,-309.737 800.317,-299.884 791.128,-305.158 796.422,-309.737"/>
</g>
<!-- Node3 -->
<g id="node3" class="node"><title>Node3</title>
<polygon fill="white" stroke="#bfbfbf" points="0,-112.5 0,-131.5 56,-131.5 56,-112.5 0,-112.5"/>
<text text-anchor="middle" x="28" y="-119.5" font-family="Helvetica,sans-Serif" font-size="10.00">algorithm</text>
</g>
<!-- Node2&#45;&gt;Node3 -->
<g id="edge2" class="edge"><title>Node2&#45;&gt;Node3</title>
<path fill="none" stroke="midnightblue" d="M543.749,-175.881C465.081,-172.717 252.443,-162.011 66.1646,-131.953"/>
<polygon fill="midnightblue" stroke="midnightblue" points="66.6258,-128.482 56.1918,-130.321 65.4952,-135.39 66.6258,-128.482"/>
</g>
<!-- Node4 -->
<g id="node4" class="node"><title>Node4</title>
<polygon fill="white" stroke="#bfbfbf" points="74.5,-112.5 74.5,-131.5 119.5,-131.5 119.5,-112.5 74.5,-112.5"/>
<text text-anchor="middle" x="97" y="-119.5" font-family="Helvetica,sans-Serif" font-size="10.00">climits</text>
</g>
<!-- Node2&#45;&gt;Node4 -->
<g id="edge3" class="edge"><title>Node2&#45;&gt;Node4</title>
<path fill="none" stroke="midnightblue" d="M543.914,-175.721C472.413,-172.386 290.727,-161.662 129.696,-131.785"/>
<polygon fill="midnightblue" stroke="midnightblue" points="130.085,-128.297 119.61,-129.883 128.788,-135.176 130.085,-128.297"/>
</g>
<!-- Node5 -->
<g id="node5" class="node"><title>Node5</title>
<polygon fill="white" stroke="#bfbfbf" points="138,-112.5 138,-131.5 182,-131.5 182,-112.5 138,-112.5"/>
<text text-anchor="middle" x="160" y="-119.5" font-family="Helvetica,sans-Serif" font-size="10.00">cmath</text>
</g>
<!-- Node2&#45;&gt;Node5 -->
<g id="edge4" class="edge"><title>Node2&#45;&gt;Node5</title>
<path fill="none" stroke="midnightblue" d="M543.865,-175.109C479.742,-170.84 328.244,-158.825 192.408,-131.98"/>
<polygon fill="midnightblue" stroke="midnightblue" points="192.735,-128.475 182.241,-129.936 191.355,-135.338 192.735,-128.475"/>
</g>
<!-- Node6 -->
<g id="node6" class="node"><title>Node6</title>
<polygon fill="white" stroke="#bfbfbf" points="200.5,-112.5 200.5,-131.5 249.5,-131.5 249.5,-112.5 200.5,-112.5"/>
<text text-anchor="middle" x="225" y="-119.5" font-family="Helvetica,sans-Serif" font-size="10.00">cstdarg</text>
</g>
<!-- Node2&#45;&gt;Node6 -->
<g id="edge5" class="edge"><title>Node2&#45;&gt;Node6</title>
<path fill="none" stroke="midnightblue" d="M543.73,-173.875C488.278,-168.052 368.965,-154.255 259.654,-132.142"/>
<polygon fill="midnightblue" stroke="midnightblue" points="260.285,-128.699 249.786,-130.117 258.878,-135.556 260.285,-128.699"/>
</g>
<!-- Node7 -->
<g id="node7" class="node"><title>Node7</title>
<polygon fill="white" stroke="#bfbfbf" points="267.5,-112.5 267.5,-131.5 316.5,-131.5 316.5,-112.5 267.5,-112.5"/>
<text text-anchor="middle" x="292" y="-119.5" font-family="Helvetica,sans-Serif" font-size="10.00">cstddef</text>
</g>
<!-- Node2&#45;&gt;Node7 -->
<g id="edge6" class="edge"><title>Node2&#45;&gt;Node7</title>
<path fill="none" stroke="midnightblue" d="M543.642,-172.266C497.917,-165.166 410.095,-150.787 326.691,-132.24"/>
<polygon fill="midnightblue" stroke="midnightblue" points="327.332,-128.797 316.807,-130.018 325.796,-135.626 327.332,-128.797"/>
</g>
<!-- Node8 -->
<g id="node8" class="node"><title>Node8</title>
<polygon fill="white" stroke="#bfbfbf" points="334.5,-112.5 334.5,-131.5 377.5,-131.5 377.5,-112.5 334.5,-112.5"/>
<text text-anchor="middle" x="356" y="-119.5" font-family="Helvetica,sans-Serif" font-size="10.00">cstdio</text>
</g>
<!-- Node2&#45;&gt;Node8 -->
<g id="edge7" class="edge"><title>Node2&#45;&gt;Node8</title>
<path fill="none" stroke="midnightblue" d="M543.758,-170.142C508.076,-162.183 447.738,-148.339 387.287,-132.241"/>
<polygon fill="midnightblue" stroke="midnightblue" points="388.153,-128.85 377.588,-129.639 386.339,-135.611 388.153,-128.85"/>
</g>
<!-- Node9 -->
<g id="node9" class="node"><title>Node9</title>
<polygon fill="white" stroke="#bfbfbf" points="395.5,-112.5 395.5,-131.5 440.5,-131.5 440.5,-112.5 395.5,-112.5"/>
<text text-anchor="middle" x="418" y="-119.5" font-family="Helvetica,sans-Serif" font-size="10.00">cstdlib</text>
</g>
<!-- Node2&#45;&gt;Node9 -->
<g id="edge8" class="edge"><title>Node2&#45;&gt;Node9</title>
<path fill="none" stroke="midnightblue" d="M550.123,-168.444C523.089,-159.145 479.803,-144.257 450.195,-134.073"/>
<polygon fill="midnightblue" stroke="midnightblue" points="451.316,-130.758 440.722,-130.815 449.04,-137.377 451.316,-130.758"/>
</g>
<!-- Node10 -->
<g id="node10" class="node"><title>Node10</title>
<polygon fill="white" stroke="#bfbfbf" points="459,-112.5 459,-131.5 505,-131.5 505,-112.5 459,-112.5"/>
<text text-anchor="middle" x="482" y="-119.5" font-family="Helvetica,sans-Serif" font-size="10.00">cstring</text>
</g>
<!-- Node2&#45;&gt;Node10 -->
<g id="edge9" class="edge"><title>Node2&#45;&gt;Node10</title>
<path fill="none" stroke="midnightblue" d="M560.058,-168.324C545.415,-159.822 522.866,-146.729 505.762,-136.797"/>
<polygon fill="midnightblue" stroke="midnightblue" points="507.31,-133.649 496.905,-131.655 503.795,-139.703 507.31,-133.649"/>
</g>
<!-- Node11 -->
<g id="node11" class="node"><title>Node11</title>
<polygon fill="white" stroke="#bfbfbf" points="523,-112.5 523,-131.5 569,-131.5 569,-112.5 523,-112.5"/>
<text text-anchor="middle" x="546" y="-119.5" font-family="Helvetica,sans-Serif" font-size="10.00">cctype</text>
</g>
<!-- Node2&#45;&gt;Node11 -->
<g id="edge10" class="edge"><title>Node2&#45;&gt;Node11</title>
<path fill="none" stroke="midnightblue" d="M570.211,-168.083C566.242,-160.691 560.475,-149.953 555.565,-140.811"/>
<polygon fill="midnightblue" stroke="midnightblue" points="558.514,-138.905 550.7,-131.751 552.347,-142.217 558.514,-138.905"/>
</g>
<!-- Node12 -->
<g id="node12" class="node"><title>Node12</title>
<polygon fill="white" stroke="#bfbfbf" points="587.5,-112.5 587.5,-131.5 628.5,-131.5 628.5,-112.5 587.5,-112.5"/>
<text text-anchor="middle" x="608" y="-119.5" font-family="Helvetica,sans-Serif" font-size="10.00">ctime</text>
</g>
<!-- Node2&#45;&gt;Node12 -->
<g id="edge11" class="edge"><title>Node2&#45;&gt;Node12</title>
<path fill="none" stroke="midnightblue" d="M580.449,-168.083C585.014,-160.613 591.668,-149.724 597.293,-140.52"/>
<polygon fill="midnightblue" stroke="midnightblue" points="600.424,-142.109 602.652,-131.751 594.451,-138.459 600.424,-142.109"/>
</g>
<!-- Node13 -->
<g id="node13" class="node"><title>Node13</title>
<g id="a_node13"><a xlink:href="stdint_8h.html" target="_top" xlink:title="stdint.h">
<polygon fill="white" stroke="black" points="734.5,-56.5 734.5,-75.5 783.5,-75.5 783.5,-56.5 734.5,-56.5"/>
<text text-anchor="middle" x="759" y="-63.5" font-family="Helvetica,sans-Serif" font-size="10.00">stdint.h</text>
</a>
</g>
</g>
<!-- Node2&#45;&gt;Node13 -->
<g id="edge12" class="edge"><title>Node2&#45;&gt;Node13</title>
<path fill="none" stroke="midnightblue" d="M587.564,-168.481C606.479,-155.755 643.518,-131.221 676,-112 694.868,-100.835 716.676,-89.0534 733.202,-80.3468"/>
<polygon fill="midnightblue" stroke="midnightblue" points="735.025,-83.3433 742.26,-75.6038 731.778,-77.1421 735.025,-83.3433"/>
</g>
<!-- Node16 -->
<g id="node16" class="node"><title>Node16</title>
<polygon fill="white" stroke="#bfbfbf" points="685,-112.5 685,-131.5 745,-131.5 745,-112.5 685,-112.5"/>
<text text-anchor="middle" x="715" y="-119.5" font-family="Helvetica,sans-Serif" font-size="10.00">memory.h</text>
</g>
<!-- Node2&#45;&gt;Node16 -->
<g id="edge15" class="edge"><title>Node2&#45;&gt;Node16</title>
<path fill="none" stroke="midnightblue" d="M597.183,-168.444C620.428,-159.478 657.149,-145.314 683.415,-135.183"/>
<polygon fill="midnightblue" stroke="midnightblue" points="684.85,-138.381 692.92,-131.516 682.331,-131.85 684.85,-138.381"/>
</g>
<!-- Node17 -->
<g id="node17" class="node"><title>Node17</title>
<polygon fill="white" stroke="#bfbfbf" points="763,-112.5 763,-131.5 815,-131.5 815,-112.5 763,-112.5"/>
<text text-anchor="middle" x="789" y="-119.5" font-family="Helvetica,sans-Serif" font-size="10.00">assert.h</text>
</g>
<!-- Node2&#45;&gt;Node17 -->
<g id="edge16" class="edge"><title>Node2&#45;&gt;Node17</title>
<path fill="none" stroke="midnightblue" d="M606.117,-169.148C645.124,-159.305 711.849,-142.468 753.012,-132.081"/>
<polygon fill="midnightblue" stroke="midnightblue" points="754.054,-135.428 762.894,-129.587 752.342,-128.641 754.054,-135.428"/>
</g>
<!-- Node18 -->
<g id="node18" class="node"><title>Node18</title>
<g id="a_node18"><a xlink:href="x265_8h.html" target="_top" xlink:title="x265.h">
<polygon fill="white" stroke="black" points="919,-112.5 919,-131.5 965,-131.5 965,-112.5 919,-112.5"/>
<text text-anchor="middle" x="942" y="-119.5" font-family="Helvetica,sans-Serif" font-size="10.00">x265.h</text>
</a>
</g>
</g>
<!-- Node2&#45;&gt;Node18 -->
<g id="edge17" class="edge"><title>Node2&#45;&gt;Node18</title>
<path fill="none" stroke="midnightblue" d="M606.19,-174.288C664.073,-168.94 792.121,-155.623 908.858,-131.987"/>
<polygon fill="midnightblue" stroke="midnightblue" points="909.584,-135.411 918.675,-129.969 908.175,-128.555 909.584,-135.411"/>
</g>
<!-- Node20 -->
<g id="node20" class="node"><title>Node20</title>
<g id="a_node20"><a xlink:href="constants_8h.html" target="_top" xlink:title="constants.h">
<polygon fill="white" stroke="black" points="833,-112.5 833,-131.5 901,-131.5 901,-112.5 833,-112.5"/>
<text text-anchor="middle" x="867" y="-119.5" font-family="Helvetica,sans-Serif" font-size="10.00">constants.h</text>
</a>
</g>
</g>
<!-- Node2&#45;&gt;Node20 -->
<g id="edge20" class="edge"><title>Node2&#45;&gt;Node20</title>
<path fill="none" stroke="midnightblue" d="M606.009,-170.609C651.906,-162.16 739.975,-146.628 815,-132 817.578,-131.497 820.241,-130.967 822.94,-130.426"/>
<polygon fill="midnightblue" stroke="midnightblue" points="823.678,-133.847 832.793,-128.446 822.299,-126.985 823.678,-133.847"/>
</g>
<!-- Node14 -->
<g id="node14" class="node"><title>Node14</title>
<polygon fill="white" stroke="#bfbfbf" points="696.5,-0.5 696.5,-19.5 751.5,-19.5 751.5,-0.5 696.5,-0.5"/>
<text text-anchor="middle" x="724" y="-7.5" font-family="Helvetica,sans-Serif" font-size="10.00">crtdefs.h</text>
</g>
<!-- Node13&#45;&gt;Node14 -->
<g id="edge13" class="edge"><title>Node13&#45;&gt;Node14</title>
<path fill="none" stroke="midnightblue" d="M753.22,-56.083C748.328,-48.5341 741.173,-37.4948 735.167,-28.2298"/>
<polygon fill="midnightblue" stroke="midnightblue" points="738.048,-26.239 729.672,-19.7511 732.174,-30.0463 738.048,-26.239"/>
</g>
<!-- Node15 -->
<g id="node15" class="node"><title>Node15</title>
<polygon fill="white" stroke="#bfbfbf" points="770,-0.5 770,-19.5 818,-19.5 818,-0.5 770,-0.5"/>
<text text-anchor="middle" x="794" y="-7.5" font-family="Helvetica,sans-Serif" font-size="10.00">limits.h</text>
</g>
<!-- Node13&#45;&gt;Node15 -->
<g id="edge14" class="edge"><title>Node13&#45;&gt;Node15</title>
<path fill="none" stroke="midnightblue" d="M764.78,-56.083C769.672,-48.5341 776.827,-37.4948 782.833,-28.2298"/>
<polygon fill="midnightblue" stroke="midnightblue" points="785.826,-30.0463 788.328,-19.7511 779.952,-26.239 785.826,-30.0463"/>
</g>
<!-- Node18&#45;&gt;Node13 -->
<g id="edge18" class="edge"><title>Node18&#45;&gt;Node13</title>
<path fill="none" stroke="midnightblue" d="M918.823,-114.161C887.175,-104.822 830.19,-88.0069 793.509,-77.183"/>
<polygon fill="midnightblue" stroke="midnightblue" points="794.321,-73.7736 783.74,-74.3002 792.34,-80.4874 794.321,-73.7736"/>
</g>
<!-- Node19 -->
<g id="node19" class="node"><title>Node19</title>
<g id="a_node19"><a xlink:href="x265__config_8h.html" target="_top" xlink:title="x265_config.h">
<polygon fill="white" stroke="black" points="903.5,-56.5 903.5,-75.5 980.5,-75.5 980.5,-56.5 903.5,-56.5"/>
<text text-anchor="middle" x="942" y="-63.5" font-family="Helvetica,sans-Serif" font-size="10.00">x265_config.h</text>
</a>
</g>
</g>
<!-- Node18&#45;&gt;Node19 -->
<g id="edge19" class="edge"><title>Node18&#45;&gt;Node19</title>
<path fill="none" stroke="midnightblue" d="M942,-112.083C942,-105.006 942,-94.8611 942,-85.9865"/>
<polygon fill="midnightblue" stroke="midnightblue" points="945.5,-85.751 942,-75.7511 938.5,-85.7511 945.5,-85.751"/>
</g>
<!-- Node20&#45;&gt;Node2 -->
<g id="edge21" class="edge"><title>Node20&#45;&gt;Node2</title>
<path fill="none" stroke="midnightblue" d="M835.265,-131.556C834.504,-131.706 833.749,-131.854 833,-132 756.962,-146.825 667.524,-162.58 616.288,-170.948"/>
<polygon fill="midnightblue" stroke="midnightblue" points="615.573,-167.518 606.26,-172.569 616.69,-174.428 615.573,-167.518"/>
</g>
<!-- Node21&#45;&gt;Node2 -->
<g id="edge23" class="edge"><title>Node21&#45;&gt;Node2</title>
<path fill="none" stroke="midnightblue" d="M590.844,-451.999C545.562,-441.373 455,-411.997 455,-347 455,-347 455,-347 455,-289 455,-241.08 507.643,-208.382 543.194,-191.764"/>
<polygon fill="midnightblue" stroke="midnightblue" points="545.013,-194.785 552.71,-187.504 542.153,-188.396 545.013,-194.785"/>
</g>
<!-- Node22 -->
<g id="node22" class="node"><title>Node22</title>
<g id="a_node22"><a xlink:href="framedata_8h.html" target="_top" xlink:title="framedata.h">
<polygon fill="white" stroke="black" points="536,-392.5 536,-411.5 604,-411.5 604,-392.5 536,-392.5"/>
<text text-anchor="middle" x="570" y="-399.5" font-family="Helvetica,sans-Serif" font-size="10.00">framedata.h</text>
</a>
</g>
</g>
<!-- Node21&#45;&gt;Node22 -->
<g id="edge24" class="edge"><title>Node21&#45;&gt;Node22</title>
<path fill="none" stroke="midnightblue" d="M608.404,-448.083C601.773,-440.298 591.979,-428.801 583.942,-419.367"/>
<polygon fill="midnightblue" stroke="midnightblue" points="586.604,-417.094 577.455,-411.751 581.275,-421.633 586.604,-417.094"/>
</g>
<!-- Node27 -->
<g id="node27" class="node"><title>Node27</title>
<g id="a_node27"><a xlink:href="lowres_8h.html" target="_top" xlink:title="lowres.h">
<polygon fill="white" stroke="black" points="651.5,-336.5 651.5,-355.5 704.5,-355.5 704.5,-336.5 651.5,-336.5"/>
<text text-anchor="middle" x="678" y="-343.5" font-family="Helvetica,sans-Serif" font-size="10.00">lowres.h</text>
</a>
</g>
</g>
<!-- Node21&#45;&gt;Node27 -->
<g id="edge35" class="edge"><title>Node21&#45;&gt;Node27</title>
<path fill="none" stroke="midnightblue" d="M620.865,-448.368C631.052,-430.296 654.791,-388.176 668.245,-364.307"/>
<polygon fill="midnightblue" stroke="midnightblue" points="671.296,-366.022 673.158,-355.591 665.198,-362.584 671.296,-366.022"/>
</g>
<!-- Node28 -->
<g id="node28" class="node"><title>Node28</title>
<g id="a_node28"><a xlink:href="threading_8h.html" target="_top" xlink:title="threading.h">
<polygon fill="white" stroke="black" points="937.5,-224.5 937.5,-243.5 1002.5,-243.5 1002.5,-224.5 937.5,-224.5"/>
<text text-anchor="middle" x="970" y="-231.5" font-family="Helvetica,sans-Serif" font-size="10.00">threading.h</text>
</a>
</g>
</g>
<!-- Node21&#45;&gt;Node28 -->
<g id="edge39" class="edge"><title>Node21&#45;&gt;Node28</title>
<path fill="none" stroke="midnightblue" d="M629.877,-448.297C683.962,-414.379 880.923,-290.862 947.69,-248.991"/>
<polygon fill="midnightblue" stroke="midnightblue" points="949.606,-251.921 956.219,-243.643 945.887,-245.99 949.606,-251.921"/>
</g>
<!-- Node22&#45;&gt;Node2 -->
<g id="edge25" class="edge"><title>Node22&#45;&gt;Node2</title>
<path fill="none" stroke="midnightblue" d="M560.756,-392.304C541.365,-372.962 499.24,-324.568 512,-280 521.471,-246.92 545.272,-214.146 560.756,-195.273"/>
<polygon fill="midnightblue" stroke="midnightblue" points="563.432,-197.529 567.204,-187.629 558.081,-193.016 563.432,-197.529"/>
</g>
<!-- Node23 -->
<g id="node23" class="node"><title>Node23</title>
<g id="a_node23"><a xlink:href="slice_8h.html" target="_top" xlink:title="slice.h">
<polygon fill="white" stroke="black" points="521.5,-280.5 521.5,-299.5 566.5,-299.5 566.5,-280.5 521.5,-280.5"/>
<text text-anchor="middle" x="544" y="-287.5" font-family="Helvetica,sans-Serif" font-size="10.00">slice.h</text>
</a>
</g>
</g>
<!-- Node22&#45;&gt;Node23 -->
<g id="edge26" class="edge"><title>Node22&#45;&gt;Node23</title>
<path fill="none" stroke="midnightblue" d="M567.96,-392.368C563.764,-374.617 554.085,-333.666 548.396,-309.597"/>
<polygon fill="midnightblue" stroke="midnightblue" points="551.737,-308.518 546.031,-299.591 544.925,-310.128 551.737,-308.518"/>
</g>
<!-- Node24 -->
<g id="node24" class="node"><title>Node24</title>
<g id="a_node24"><a xlink:href="cudata_8h.html" target="_top" xlink:title="cudata.h">
<polygon fill="white" stroke="black" points="570,-336.5 570,-355.5 624,-355.5 624,-336.5 570,-336.5"/>
<text text-anchor="middle" x="597" y="-343.5" font-family="Helvetica,sans-Serif" font-size="10.00">cudata.h</text>
</a>
</g>
</g>
<!-- Node22&#45;&gt;Node24 -->
<g id="edge28" class="edge"><title>Node22&#45;&gt;Node24</title>
<path fill="none" stroke="midnightblue" d="M574.459,-392.083C578.154,-384.691 583.523,-373.953 588.094,-364.811"/>
<polygon fill="midnightblue" stroke="midnightblue" points="591.283,-366.261 592.624,-355.751 585.022,-363.13 591.283,-366.261"/>
</g>
<!-- Node23&#45;&gt;Node2 -->
<g id="edge27" class="edge"><title>Node23&#45;&gt;Node2</title>
<path fill="none" stroke="midnightblue" d="M546.182,-280.134C549.3,-267.589 555.288,-243.961 561,-224 563.536,-215.14 566.55,-205.364 569.131,-197.195"/>
<polygon fill="midnightblue" stroke="midnightblue" points="572.49,-198.182 572.198,-187.592 565.822,-196.053 572.49,-198.182"/>
</g>
<!-- Node24&#45;&gt;Node2 -->
<g id="edge29" class="edge"><title>Node24&#45;&gt;Node2</title>
<path fill="none" stroke="midnightblue" d="M595.817,-336.075C592.354,-309.945 582.185,-233.211 577.462,-197.577"/>
<polygon fill="midnightblue" stroke="midnightblue" points="580.919,-197.022 576.136,-187.568 573.98,-197.941 580.919,-197.022"/>
</g>
<!-- Node24&#45;&gt;Node23 -->
<g id="edge30" class="edge"><title>Node24&#45;&gt;Node23</title>
<path fill="none" stroke="midnightblue" d="M588.248,-336.083C580.53,-328.22 569.095,-316.569 559.783,-307.081"/>
<polygon fill="midnightblue" stroke="midnightblue" points="562.092,-304.436 552.589,-299.751 557.096,-309.34 562.092,-304.436"/>
</g>
<!-- Node25 -->
<g id="node25" class="node"><title>Node25</title>
<g id="a_node25"><a xlink:href="mv_8h.html" target="_top" xlink:title="mv.h">
<polygon fill="white" stroke="black" points="623,-280.5 623,-299.5 661,-299.5 661,-280.5 623,-280.5"/>
<text text-anchor="middle" x="642" y="-287.5" font-family="Helvetica,sans-Serif" font-size="10.00">mv.h</text>
</a>
</g>
</g>
<!-- Node24&#45;&gt;Node25 -->
<g id="edge31" class="edge"><title>Node24&#45;&gt;Node25</title>
<path fill="none" stroke="midnightblue" d="M604.431,-336.083C610.853,-328.377 620.306,-317.033 628.122,-307.653"/>
<polygon fill="midnightblue" stroke="midnightblue" points="630.994,-309.674 634.707,-299.751 625.617,-305.193 630.994,-309.674"/>
</g>
<!-- Node25&#45;&gt;Node2 -->
<g id="edge32" class="edge"><title>Node25&#45;&gt;Node2</title>
<path fill="none" stroke="midnightblue" d="M636.743,-280.368C625.735,-262.296 600.08,-220.176 585.542,-196.307"/>
<polygon fill="midnightblue" stroke="midnightblue" points="588.424,-194.311 580.233,-187.591 582.446,-197.953 588.424,-194.311"/>
</g>
<!-- Node26 -->
<g id="node26" class="node"><title>Node26</title>
<g id="a_node26"><a xlink:href="primitives_8h.html" target="_top" xlink:title="primitives.h">
<polygon fill="white" stroke="red" points="641.5,-224.5 641.5,-243.5 708.5,-243.5 708.5,-224.5 641.5,-224.5"/>
<text text-anchor="middle" x="675" y="-231.5" font-family="Helvetica,sans-Serif" font-size="10.00">primitives.h</text>
</a>
</g>
</g>
<!-- Node25&#45;&gt;Node26 -->
<g id="edge33" class="edge"><title>Node25&#45;&gt;Node26</title>
<path fill="none" stroke="midnightblue" d="M647.449,-280.083C652.014,-272.613 658.668,-261.724 664.293,-252.52"/>
<polygon fill="midnightblue" stroke="midnightblue" points="667.424,-254.109 669.652,-243.751 661.451,-250.459 667.424,-254.109"/>
</g>
<!-- Node26&#45;&gt;Node2 -->
<g id="edge34" class="edge"><title>Node26&#45;&gt;Node2</title>
<path fill="none" stroke="midnightblue" d="M658.933,-224.324C643.042,-215.743 618.493,-202.486 600.042,-192.522"/>
<polygon fill="midnightblue" stroke="midnightblue" points="601.489,-189.326 591.027,-187.655 598.163,-195.486 601.489,-189.326"/>
</g>
<!-- Node27&#45;&gt;Node2 -->
<g id="edge37" class="edge"><title>Node27&#45;&gt;Node2</title>
<path fill="none" stroke="midnightblue" d="M685.726,-336.237C703.436,-315.054 743.467,-260.152 717,-224 694.186,-192.838 649.667,-182.719 616.529,-179.697"/>
<polygon fill="midnightblue" stroke="midnightblue" points="616.44,-176.182 606.212,-178.948 615.932,-183.163 616.44,-176.182"/>
</g>
<!-- Node27&#45;&gt;Node25 -->
<g id="edge38" class="edge"><title>Node27&#45;&gt;Node25</title>
<path fill="none" stroke="midnightblue" d="M672.055,-336.083C667.023,-328.534 659.663,-317.495 653.487,-308.23"/>
<polygon fill="midnightblue" stroke="midnightblue" points="656.293,-306.13 647.834,-299.751 650.469,-310.013 656.293,-306.13"/>
</g>
<!-- Node27&#45;&gt;Node26 -->
<g id="edge36" class="edge"><title>Node27&#45;&gt;Node26</title>
<path fill="none" stroke="midnightblue" d="M677.765,-336.368C677.28,-318.617 676.164,-277.666 675.507,-253.597"/>
<polygon fill="midnightblue" stroke="midnightblue" points="679.006,-253.492 675.234,-243.591 672.008,-253.683 679.006,-253.492"/>
</g>
<!-- Node28&#45;&gt;Node2 -->
<g id="edge40" class="edge"><title>Node28&#45;&gt;Node2</title>
<path fill="none" stroke="midnightblue" d="M937.339,-228.535C865.697,-218.741 694.872,-195.388 616.09,-184.617"/>
<polygon fill="midnightblue" stroke="midnightblue" points="616.434,-181.132 606.052,-183.245 615.486,-188.067 616.434,-181.132"/>
</g>
<!-- Node28&#45;&gt;Node18 -->
<g id="edge41" class="edge"><title>Node28&#45;&gt;Node18</title>
<path fill="none" stroke="midnightblue" d="M959.286,-224.305C950.062,-216.069 937.409,-202.789 932,-188 926.43,-172.77 930.119,-154.432 934.507,-141.122"/>
<polygon fill="midnightblue" stroke="midnightblue" points="937.812,-142.274 938.013,-131.682 931.25,-139.838 937.812,-142.274"/>
</g>
<!-- Node29 -->
<g id="node29" class="node"><title>Node29</title>
<polygon fill="white" stroke="#bfbfbf" points="941.5,-168.5 941.5,-187.5 998.5,-187.5 998.5,-168.5 941.5,-168.5"/>
<text text-anchor="middle" x="970" y="-175.5" font-family="Helvetica,sans-Serif" font-size="10.00">pthread.h</text>
</g>
<!-- Node28&#45;&gt;Node29 -->
<g id="edge42" class="edge"><title>Node28&#45;&gt;Node29</title>
<path fill="none" stroke="midnightblue" d="M970,-224.083C970,-217.006 970,-206.861 970,-197.986"/>
<polygon fill="midnightblue" stroke="midnightblue" points="973.5,-197.751 970,-187.751 966.5,-197.751 973.5,-197.751"/>
</g>
<!-- Node30 -->
<g id="node30" class="node"><title>Node30</title>
<polygon fill="white" stroke="#bfbfbf" points="1016.5,-168.5 1016.5,-187.5 1089.5,-187.5 1089.5,-168.5 1016.5,-168.5"/>
<text text-anchor="middle" x="1053" y="-175.5" font-family="Helvetica,sans-Serif" font-size="10.00">semaphore.h</text>
</g>
<!-- Node28&#45;&gt;Node30 -->
<g id="edge43" class="edge"><title>Node28&#45;&gt;Node30</title>
<path fill="none" stroke="midnightblue" d="M983.335,-224.324C996.162,-215.979 1015.78,-203.212 1030.94,-193.352"/>
<polygon fill="midnightblue" stroke="midnightblue" points="1033.22,-196.042 1039.7,-187.655 1029.41,-190.174 1033.22,-196.042"/>
</g>
<!-- Node31 -->
<g id="node31" class="node"><title>Node31</title>
<polygon fill="white" stroke="#bfbfbf" points="1107.5,-168.5 1107.5,-187.5 1154.5,-187.5 1154.5,-168.5 1107.5,-168.5"/>
<text text-anchor="middle" x="1131" y="-175.5" font-family="Helvetica,sans-Serif" font-size="10.00">errno.h</text>
</g>
<!-- Node28&#45;&gt;Node31 -->
<g id="edge44" class="edge"><title>Node28&#45;&gt;Node31</title>
<path fill="none" stroke="midnightblue" d="M995.511,-224.444C1023.15,-215.172 1067.37,-200.343 1097.72,-190.161"/>
<polygon fill="midnightblue" stroke="midnightblue" points="1099.07,-193.4 1107.44,-186.902 1096.85,-186.763 1099.07,-193.4"/>
</g>
<!-- Node32 -->
<g id="node32" class="node"><title>Node32</title>
<polygon fill="white" stroke="#bfbfbf" points="1173,-168.5 1173,-187.5 1217,-187.5 1217,-168.5 1173,-168.5"/>
<text text-anchor="middle" x="1195" y="-175.5" font-family="Helvetica,sans-Serif" font-size="10.00">fcntl.h</text>
</g>
<!-- Node28&#45;&gt;Node32 -->
<g id="edge45" class="edge"><title>Node28&#45;&gt;Node32</title>
<path fill="none" stroke="midnightblue" d="M1002.55,-225.881C1039.05,-217.795 1100.23,-203.933 1162.63,-187.998"/>
<polygon fill="midnightblue" stroke="midnightblue" points="1163.84,-191.302 1172.66,-185.423 1162.1,-184.522 1163.84,-191.302"/>
</g>
<!-- Node33&#45;&gt;Node2 -->
<g id="edge47" class="edge"><title>Node33&#45;&gt;Node2</title>
<path fill="none" stroke="midnightblue" d="M802.882,-280.354C794.101,-266.301 774.791,-238.606 751,-224 709.358,-198.435 653.655,-187.332 616.164,-182.549"/>
<polygon fill="midnightblue" stroke="midnightblue" points="616.44,-179.058 606.099,-181.361 615.62,-186.01 616.44,-179.058"/>
</g>
<!-- Node33&#45;&gt;Node18 -->
<g id="edge50" class="edge"><title>Node33&#45;&gt;Node18</title>
<path fill="none" stroke="midnightblue" d="M818.243,-280.189C828.135,-271.458 843.295,-257.475 855,-244 885.259,-209.168 915.577,-164.149 931.19,-140.038"/>
<polygon fill="midnightblue" stroke="midnightblue" points="934.14,-141.92 936.595,-131.614 928.249,-138.14 934.14,-141.92"/>
</g>
<!-- Node34 -->
<g id="node34" class="node"><title>Node34</title>
<g id="a_node34"><a xlink:href="md5_8h.html" target="_top" xlink:title="md5.h">
<polygon fill="white" stroke="black" points="803,-224.5 803,-243.5 847,-243.5 847,-224.5 803,-224.5"/>
<text text-anchor="middle" x="825" y="-231.5" font-family="Helvetica,sans-Serif" font-size="10.00">md5.h</text>
</a>
</g>
</g>
<!-- Node33&#45;&gt;Node34 -->
<g id="edge48" class="edge"><title>Node33&#45;&gt;Node34</title>
<path fill="none" stroke="midnightblue" d="M810.807,-280.083C813.085,-272.849 816.371,-262.409 819.208,-253.397"/>
<polygon fill="midnightblue" stroke="midnightblue" points="822.581,-254.341 822.245,-243.751 815.904,-252.239 822.581,-254.341"/>
</g>
<!-- Node34&#45;&gt;Node2 -->
<g id="edge49" class="edge"><title>Node34&#45;&gt;Node2</title>
<path fill="none" stroke="midnightblue" d="M802.947,-227.347C798.346,-226.207 793.52,-225.04 789,-224 729.058,-210.21 659.276,-195.851 616.117,-187.167"/>
<polygon fill="midnightblue" stroke="midnightblue" points="616.762,-183.726 606.269,-185.191 615.385,-190.59 616.762,-183.726"/>
</g>
</g>
</svg>
