<?xml version="1.0" encoding="UTF-8" standalone="no"?>
<!DOCTYPE svg PUBLIC "-//W3C//DTD SVG 1.1//EN"
 "http://www.w3.org/Graphics/SVG/1.1/DTD/svg11.dtd">
<!-- Generated by graphviz version 2.36.0 (20140111.2315)
 -->
<!-- Title: source/encoder/framefilter.h Pages: 1 -->
<!--zoomable 700 -->
<svg id="main" version="1.1" xmlns="http://www.w3.org/2000/svg" xmlns:xlink="http://www.w3.org/1999/xlink" xml:space="preserve" onload="init(evt)">
<style type="text/css"><![CDATA[
.edge:hover path { stroke: red; }
.edge:hover polygon { stroke: red; fill: red; }
]]></style>
<script type="text/javascript"><![CDATA[
var edges = document.getElementsByTagName('g');
if (edges && edges.length) {
  for (var i=0;i<edges.length;i++) {
    if (edges[i].id.substr(0,4)=='edge') {
      edges[i].setAttribute('class','edge');
    }
  }
}
]]></script>
        <defs>
                <circle id="rim" cx="0" cy="0" r="7"/>
                <circle id="rim2" cx="0" cy="0" r="3.5"/>
                <g id="zoomPlus">
                        <use xlink:href="#rim" fill="#404040">
                                <set attributeName="fill" to="#808080" begin="zoomplus.mouseover" end="zoomplus.mouseout"/>
                        </use>
                        <path d="M-4,0h8M0,-4v8" fill="none" stroke="white" stroke-width="1.5" pointer-events="none"/>
                </g>
                <g id="zoomMin">
                        <use xlink:href="#rim" fill="#404040">
                                <set attributeName="fill" to="#808080" begin="zoomminus.mouseover" end="zoomminus.mouseout"/>
                        </use>
                        <path d="M-4,0h8" fill="none" stroke="white" stroke-width="1.5" pointer-events="none"/>
                </g>
                <g id="dirArrow">
                        <path fill="none" stroke="white" stroke-width="1.5" d="M0,-3.0v7 M-2.5,-0.5L0,-3.0L2.5,-0.5"/>
                </g>
               <g id="resetDef">
                       <use xlink:href="#rim2" fill="#404040">
                               <set attributeName="fill" to="#808080" begin="reset.mouseover" end="reset.mouseout"/>
                       </use>
               </g>
        </defs>

<script type="text/javascript">
var viewWidth = 988;
var viewHeight = 700;
var sectionId = 'dynsection-0';
</script>
<script xlink:href="svgpan.js"/>
<svg id="graph" class="graph">
<g id="viewport">
<title>source/encoder/framefilter.h</title>
<polygon fill="white" stroke="none" points="-4,4 -4,-696 984,-696 984,4 -4,4"/>
<!-- Node1 -->
<g id="node1" class="node"><title>Node1</title>
<polygon fill="#bfbfbf" stroke="black" points="529,-672.5 529,-691.5 667,-691.5 667,-672.5 529,-672.5"/>
<text text-anchor="middle" x="598" y="-679.5" font-family="Helvetica,sans-Serif" font-size="10.00">source/encoder/framefilter.h</text>
</g>
<!-- Node2 -->
<g id="node2" class="node"><title>Node2</title>
<g id="a_node2"><a xlink:href="common_8h.html" target="_top" xlink:title="common.h">
<polygon fill="white" stroke="black" points="470,-168.5 470,-187.5 532,-187.5 532,-168.5 470,-168.5"/>
<text text-anchor="middle" x="501" y="-175.5" font-family="Helvetica,sans-Serif" font-size="10.00">common.h</text>
</a>
</g>
</g>
<!-- Node1&#45;&gt;Node2 -->
<g id="edge1" class="edge"><title>Node1&#45;&gt;Node2</title>
<path fill="none" stroke="midnightblue" d="M650.045,-672.468C734.241,-657.175 891,-621.871 891,-571 891,-571 891,-571 891,-289 891,-217.148 642.688,-189.925 542.337,-181.858"/>
<polygon fill="midnightblue" stroke="midnightblue" points="542.498,-178.36 532.256,-181.072 541.954,-185.339 542.498,-178.36"/>
</g>
<!-- Node21 -->
<g id="node21" class="node"><title>Node21</title>
<g id="a_node21"><a xlink:href="frame_8h.html" target="_top" xlink:title="frame.h">
<polygon fill="white" stroke="black" points="537,-504.5 537,-523.5 587,-523.5 587,-504.5 537,-504.5"/>
<text text-anchor="middle" x="562" y="-511.5" font-family="Helvetica,sans-Serif" font-size="10.00">frame.h</text>
</a>
</g>
</g>
<!-- Node1&#45;&gt;Node21 -->
<g id="edge22" class="edge"><title>Node1&#45;&gt;Node21</title>
<path fill="none" stroke="midnightblue" d="M596.064,-672.075C590.398,-645.945 573.757,-569.211 566.029,-533.577"/>
<polygon fill="midnightblue" stroke="midnightblue" points="569.398,-532.599 563.858,-523.568 562.557,-534.083 569.398,-532.599"/>
</g>
<!-- Node34 -->
<g id="node34" class="node"><title>Node34</title>
<g id="a_node34"><a xlink:href="deblock_8h.html" target="_top" xlink:title="deblock.h">
<polygon fill="white" stroke="black" points="338.5,-560.5 338.5,-579.5 397.5,-579.5 397.5,-560.5 338.5,-560.5"/>
<text text-anchor="middle" x="368" y="-567.5" font-family="Helvetica,sans-Serif" font-size="10.00">deblock.h</text>
</a>
</g>
</g>
<!-- Node1&#45;&gt;Node34 -->
<g id="edge48" class="edge"><title>Node1&#45;&gt;Node34</title>
<path fill="none" stroke="midnightblue" d="M579.952,-672.368C539.728,-653.131 442.536,-606.648 395.038,-583.931"/>
<polygon fill="midnightblue" stroke="midnightblue" points="396.495,-580.749 385.964,-579.591 393.475,-587.064 396.495,-580.749"/>
</g>
<!-- Node35 -->
<g id="node35" class="node"><title>Node35</title>
<g id="a_node35"><a xlink:href="sao_8h.html" target="_top" xlink:title="sao.h">
<polygon fill="white" stroke="black" points="621.5,-616.5 621.5,-635.5 662.5,-635.5 662.5,-616.5 621.5,-616.5"/>
<text text-anchor="middle" x="642" y="-623.5" font-family="Helvetica,sans-Serif" font-size="10.00">sao.h</text>
</a>
</g>
</g>
<!-- Node1&#45;&gt;Node35 -->
<g id="edge50" class="edge"><title>Node1&#45;&gt;Node35</title>
<path fill="none" stroke="midnightblue" d="M605.266,-672.083C611.545,-664.377 620.788,-653.033 628.431,-643.653"/>
<polygon fill="midnightblue" stroke="midnightblue" points="631.266,-645.714 634.869,-635.751 625.839,-641.293 631.266,-645.714"/>
</g>
<!-- Node3 -->
<g id="node3" class="node"><title>Node3</title>
<polygon fill="white" stroke="#bfbfbf" points="924,-112.5 924,-131.5 980,-131.5 980,-112.5 924,-112.5"/>
<text text-anchor="middle" x="952" y="-119.5" font-family="Helvetica,sans-Serif" font-size="10.00">algorithm</text>
</g>
<!-- Node2&#45;&gt;Node3 -->
<g id="edge2" class="edge"><title>Node2&#45;&gt;Node3</title>
<path fill="none" stroke="midnightblue" d="M532.095,-175.011C599.742,-170.388 765.441,-157.458 913.613,-132.033"/>
<polygon fill="midnightblue" stroke="midnightblue" points="914.546,-135.424 923.798,-130.261 913.346,-128.527 914.546,-135.424"/>
</g>
<!-- Node4 -->
<g id="node4" class="node"><title>Node4</title>
<polygon fill="white" stroke="#bfbfbf" points="79.5,-112.5 79.5,-131.5 124.5,-131.5 124.5,-112.5 79.5,-112.5"/>
<text text-anchor="middle" x="102" y="-119.5" font-family="Helvetica,sans-Serif" font-size="10.00">climits</text>
</g>
<!-- Node2&#45;&gt;Node4 -->
<g id="edge3" class="edge"><title>Node2&#45;&gt;Node4</title>
<path fill="none" stroke="midnightblue" d="M469.812,-174.786C407.805,-170.041 264.561,-157.363 134.739,-131.843"/>
<polygon fill="midnightblue" stroke="midnightblue" points="135.114,-128.349 124.622,-129.822 133.743,-135.213 135.114,-128.349"/>
</g>
<!-- Node5 -->
<g id="node5" class="node"><title>Node5</title>
<polygon fill="white" stroke="#bfbfbf" points="143,-112.5 143,-131.5 187,-131.5 187,-112.5 143,-112.5"/>
<text text-anchor="middle" x="165" y="-119.5" font-family="Helvetica,sans-Serif" font-size="10.00">cmath</text>
</g>
<!-- Node2&#45;&gt;Node5 -->
<g id="edge4" class="edge"><title>Node2&#45;&gt;Node5</title>
<path fill="none" stroke="midnightblue" d="M469.572,-173.792C415.664,-167.981 301.998,-154.391 197.059,-131.98"/>
<polygon fill="midnightblue" stroke="midnightblue" points="197.773,-128.553 187.258,-129.855 196.289,-135.394 197.773,-128.553"/>
</g>
<!-- Node6 -->
<g id="node6" class="node"><title>Node6</title>
<polygon fill="white" stroke="#bfbfbf" points="205.5,-112.5 205.5,-131.5 254.5,-131.5 254.5,-112.5 205.5,-112.5"/>
<text text-anchor="middle" x="230" y="-119.5" font-family="Helvetica,sans-Serif" font-size="10.00">cstdarg</text>
</g>
<!-- Node2&#45;&gt;Node6 -->
<g id="edge5" class="edge"><title>Node2&#45;&gt;Node6</title>
<path fill="none" stroke="midnightblue" d="M469.648,-171.889C425.844,-164.57 343.654,-150.198 264.896,-132.308"/>
<polygon fill="midnightblue" stroke="midnightblue" points="265.342,-128.82 254.813,-129.994 263.776,-135.642 265.342,-128.82"/>
</g>
<!-- Node7 -->
<g id="node7" class="node"><title>Node7</title>
<polygon fill="white" stroke="#bfbfbf" points="272.5,-112.5 272.5,-131.5 321.5,-131.5 321.5,-112.5 272.5,-112.5"/>
<text text-anchor="middle" x="297" y="-119.5" font-family="Helvetica,sans-Serif" font-size="10.00">cstddef</text>
</g>
<!-- Node2&#45;&gt;Node7 -->
<g id="edge6" class="edge"><title>Node2&#45;&gt;Node7</title>
<path fill="none" stroke="midnightblue" d="M469.774,-168.872C437.418,-160.43 385.129,-146.733 331.225,-132.313"/>
<polygon fill="midnightblue" stroke="midnightblue" points="332.067,-128.915 321.502,-129.708 330.256,-135.677 332.067,-128.915"/>
</g>
<!-- Node8 -->
<g id="node8" class="node"><title>Node8</title>
<polygon fill="white" stroke="#bfbfbf" points="339.5,-112.5 339.5,-131.5 382.5,-131.5 382.5,-112.5 339.5,-112.5"/>
<text text-anchor="middle" x="361" y="-119.5" font-family="Helvetica,sans-Serif" font-size="10.00">cstdio</text>
</g>
<!-- Node2&#45;&gt;Node8 -->
<g id="edge7" class="edge"><title>Node2&#45;&gt;Node8</title>
<path fill="none" stroke="midnightblue" d="M478.817,-168.444C455.435,-159.425 418.419,-145.147 392.122,-135.004"/>
<polygon fill="midnightblue" stroke="midnightblue" points="393.209,-131.672 382.62,-131.339 390.69,-138.203 393.209,-131.672"/>
</g>
<!-- Node9 -->
<g id="node9" class="node"><title>Node9</title>
<polygon fill="white" stroke="#bfbfbf" points="400.5,-112.5 400.5,-131.5 445.5,-131.5 445.5,-112.5 400.5,-112.5"/>
<text text-anchor="middle" x="423" y="-119.5" font-family="Helvetica,sans-Serif" font-size="10.00">cstdlib</text>
</g>
<!-- Node2&#45;&gt;Node9 -->
<g id="edge8" class="edge"><title>Node2&#45;&gt;Node9</title>
<path fill="none" stroke="midnightblue" d="M488.468,-168.324C476.414,-159.979 457.973,-147.212 443.731,-137.352"/>
<polygon fill="midnightblue" stroke="midnightblue" points="445.715,-134.469 435.501,-131.655 441.731,-140.224 445.715,-134.469"/>
</g>
<!-- Node10 -->
<g id="node10" class="node"><title>Node10</title>
<polygon fill="white" stroke="#bfbfbf" points="464,-112.5 464,-131.5 510,-131.5 510,-112.5 464,-112.5"/>
<text text-anchor="middle" x="487" y="-119.5" font-family="Helvetica,sans-Serif" font-size="10.00">cstring</text>
</g>
<!-- Node2&#45;&gt;Node10 -->
<g id="edge9" class="edge"><title>Node2&#45;&gt;Node10</title>
<path fill="none" stroke="midnightblue" d="M498.688,-168.083C496.833,-160.927 494.165,-150.635 491.846,-141.691"/>
<polygon fill="midnightblue" stroke="midnightblue" points="495.166,-140.553 489.269,-131.751 488.391,-142.309 495.166,-140.553"/>
</g>
<!-- Node11 -->
<g id="node11" class="node"><title>Node11</title>
<polygon fill="white" stroke="#bfbfbf" points="528,-112.5 528,-131.5 574,-131.5 574,-112.5 528,-112.5"/>
<text text-anchor="middle" x="551" y="-119.5" font-family="Helvetica,sans-Serif" font-size="10.00">cctype</text>
</g>
<!-- Node2&#45;&gt;Node11 -->
<g id="edge10" class="edge"><title>Node2&#45;&gt;Node11</title>
<path fill="none" stroke="midnightblue" d="M509.256,-168.083C516.465,-160.298 527.11,-148.801 535.846,-139.367"/>
<polygon fill="midnightblue" stroke="midnightblue" points="538.671,-141.467 542.897,-131.751 533.535,-136.711 538.671,-141.467"/>
</g>
<!-- Node12 -->
<g id="node12" class="node"><title>Node12</title>
<polygon fill="white" stroke="#bfbfbf" points="592.5,-112.5 592.5,-131.5 633.5,-131.5 633.5,-112.5 592.5,-112.5"/>
<text text-anchor="middle" x="613" y="-119.5" font-family="Helvetica,sans-Serif" font-size="10.00">ctime</text>
</g>
<!-- Node2&#45;&gt;Node12 -->
<g id="edge11" class="edge"><title>Node2&#45;&gt;Node12</title>
<path fill="none" stroke="midnightblue" d="M518.995,-168.324C537.038,-159.625 565.047,-146.12 585.803,-136.113"/>
<polygon fill="midnightblue" stroke="midnightblue" points="587.562,-139.15 595.05,-131.655 584.522,-132.845 587.562,-139.15"/>
</g>
<!-- Node13 -->
<g id="node13" class="node"><title>Node13</title>
<g id="a_node13"><a xlink:href="stdint_8h.html" target="_top" xlink:title="stdint.h">
<polygon fill="white" stroke="black" points="365.5,-56.5 365.5,-75.5 414.5,-75.5 414.5,-56.5 365.5,-56.5"/>
<text text-anchor="middle" x="390" y="-63.5" font-family="Helvetica,sans-Serif" font-size="10.00">stdint.h</text>
</a>
</g>
</g>
<!-- Node2&#45;&gt;Node13 -->
<g id="edge12" class="edge"><title>Node2&#45;&gt;Node13</title>
<path fill="none" stroke="midnightblue" d="M532.042,-173.952C582.754,-167.786 674.618,-150.958 642,-112 614.693,-79.3852 487.321,-70.385 424.801,-67.9196"/>
<polygon fill="midnightblue" stroke="midnightblue" points="424.752,-64.4157 414.633,-67.5541 424.501,-71.4112 424.752,-64.4157"/>
</g>
<!-- Node16 -->
<g id="node16" class="node"><title>Node16</title>
<polygon fill="white" stroke="#bfbfbf" points="690,-112.5 690,-131.5 750,-131.5 750,-112.5 690,-112.5"/>
<text text-anchor="middle" x="720" y="-119.5" font-family="Helvetica,sans-Serif" font-size="10.00">memory.h</text>
</g>
<!-- Node2&#45;&gt;Node16 -->
<g id="edge15" class="edge"><title>Node2&#45;&gt;Node16</title>
<path fill="none" stroke="midnightblue" d="M532.377,-169.263C571.248,-159.679 637.523,-143.337 680.006,-132.862"/>
<polygon fill="midnightblue" stroke="midnightblue" points="680.866,-136.254 689.738,-130.462 679.191,-129.458 680.866,-136.254"/>
</g>
<!-- Node17 -->
<g id="node17" class="node"><title>Node17</title>
<polygon fill="white" stroke="#bfbfbf" points="768,-112.5 768,-131.5 820,-131.5 820,-112.5 768,-112.5"/>
<text text-anchor="middle" x="794" y="-119.5" font-family="Helvetica,sans-Serif" font-size="10.00">assert.h</text>
</g>
<!-- Node2&#45;&gt;Node17 -->
<g id="edge16" class="edge"><title>Node2&#45;&gt;Node17</title>
<path fill="none" stroke="midnightblue" d="M532.393,-172.246C579.2,-164.998 670.247,-150.279 757.867,-131.888"/>
<polygon fill="midnightblue" stroke="midnightblue" points="758.647,-135.301 767.704,-129.805 757.196,-128.453 758.647,-135.301"/>
</g>
<!-- Node18 -->
<g id="node18" class="node"><title>Node18</title>
<g id="a_node18"><a xlink:href="x265_8h.html" target="_top" xlink:title="x265.h">
<polygon fill="white" stroke="black" points="15,-112.5 15,-131.5 61,-131.5 61,-112.5 15,-112.5"/>
<text text-anchor="middle" x="38" y="-119.5" font-family="Helvetica,sans-Serif" font-size="10.00">x265.h</text>
</a>
</g>
</g>
<!-- Node2&#45;&gt;Node18 -->
<g id="edge17" class="edge"><title>Node2&#45;&gt;Node18</title>
<path fill="none" stroke="midnightblue" d="M469.901,-175.57C400.148,-171.977 225.857,-160.847 71.4498,-131.978"/>
<polygon fill="midnightblue" stroke="midnightblue" points="71.787,-128.479 61.3093,-130.05 70.4799,-135.356 71.787,-128.479"/>
</g>
<!-- Node20 -->
<g id="node20" class="node"><title>Node20</title>
<g id="a_node20"><a xlink:href="constants_8h.html" target="_top" xlink:title="constants.h">
<polygon fill="white" stroke="black" points="838,-112.5 838,-131.5 906,-131.5 906,-112.5 838,-112.5"/>
<text text-anchor="middle" x="872" y="-119.5" font-family="Helvetica,sans-Serif" font-size="10.00">constants.h</text>
</a>
</g>
</g>
<!-- Node2&#45;&gt;Node20 -->
<g id="edge20" class="edge"><title>Node2&#45;&gt;Node20</title>
<path fill="none" stroke="midnightblue" d="M532.446,-172.777C589.915,-165.64 714.94,-150.179 820,-132 822.588,-131.552 825.258,-131.062 827.963,-130.549"/>
<polygon fill="midnightblue" stroke="midnightblue" points="828.681,-133.975 837.826,-128.626 827.341,-127.104 828.681,-133.975"/>
</g>
<!-- Node14 -->
<g id="node14" class="node"><title>Node14</title>
<polygon fill="white" stroke="#bfbfbf" points="327.5,-0.5 327.5,-19.5 382.5,-19.5 382.5,-0.5 327.5,-0.5"/>
<text text-anchor="middle" x="355" y="-7.5" font-family="Helvetica,sans-Serif" font-size="10.00">crtdefs.h</text>
</g>
<!-- Node13&#45;&gt;Node14 -->
<g id="edge13" class="edge"><title>Node13&#45;&gt;Node14</title>
<path fill="none" stroke="midnightblue" d="M384.22,-56.083C379.328,-48.5341 372.173,-37.4948 366.167,-28.2298"/>
<polygon fill="midnightblue" stroke="midnightblue" points="369.048,-26.239 360.672,-19.7511 363.174,-30.0463 369.048,-26.239"/>
</g>
<!-- Node15 -->
<g id="node15" class="node"><title>Node15</title>
<polygon fill="white" stroke="#bfbfbf" points="401,-0.5 401,-19.5 449,-19.5 449,-0.5 401,-0.5"/>
<text text-anchor="middle" x="425" y="-7.5" font-family="Helvetica,sans-Serif" font-size="10.00">limits.h</text>
</g>
<!-- Node13&#45;&gt;Node15 -->
<g id="edge14" class="edge"><title>Node13&#45;&gt;Node15</title>
<path fill="none" stroke="midnightblue" d="M395.78,-56.083C400.672,-48.5341 407.827,-37.4948 413.833,-28.2298"/>
<polygon fill="midnightblue" stroke="midnightblue" points="416.826,-30.0463 419.328,-19.7511 410.952,-26.239 416.826,-30.0463"/>
</g>
<!-- Node18&#45;&gt;Node13 -->
<g id="edge18" class="edge"><title>Node18&#45;&gt;Node13</title>
<path fill="none" stroke="midnightblue" d="M61.3289,-114.048C64.2344,-113.297 67.176,-112.593 70,-112 172.601,-90.4596 295.921,-76.3886 355.043,-70.3599"/>
<polygon fill="midnightblue" stroke="midnightblue" points="355.716,-73.81 365.316,-69.3278 355.016,-66.8451 355.716,-73.81"/>
</g>
<!-- Node19 -->
<g id="node19" class="node"><title>Node19</title>
<g id="a_node19"><a xlink:href="x265__config_8h.html" target="_top" xlink:title="x265_config.h">
<polygon fill="white" stroke="black" points="-0.5,-56.5 -0.5,-75.5 76.5,-75.5 76.5,-56.5 -0.5,-56.5"/>
<text text-anchor="middle" x="38" y="-63.5" font-family="Helvetica,sans-Serif" font-size="10.00">x265_config.h</text>
</a>
</g>
</g>
<!-- Node18&#45;&gt;Node19 -->
<g id="edge19" class="edge"><title>Node18&#45;&gt;Node19</title>
<path fill="none" stroke="midnightblue" d="M38,-112.083C38,-105.006 38,-94.8611 38,-85.9865"/>
<polygon fill="midnightblue" stroke="midnightblue" points="41.5001,-85.751 38,-75.7511 34.5001,-85.7511 41.5001,-85.751"/>
</g>
<!-- Node20&#45;&gt;Node2 -->
<g id="edge21" class="edge"><title>Node20&#45;&gt;Node2</title>
<path fill="none" stroke="midnightblue" d="M840.731,-131.517C839.814,-131.683 838.902,-131.844 838,-132 732.31,-150.288 606.417,-165.825 542.449,-172.905"/>
<polygon fill="midnightblue" stroke="midnightblue" points="541.916,-169.442 532.355,-174.007 542.676,-176.401 541.916,-169.442"/>
</g>
<!-- Node21&#45;&gt;Node2 -->
<g id="edge23" class="edge"><title>Node21&#45;&gt;Node2</title>
<path fill="none" stroke="midnightblue" d="M550.455,-504.374C540.408,-496.186 526.338,-482.936 519,-468 473.538,-375.464 489.366,-245.711 497.459,-197.764"/>
<polygon fill="midnightblue" stroke="midnightblue" points="500.954,-198.098 499.264,-187.639 494.063,-196.869 500.954,-198.098"/>
</g>
<!-- Node22 -->
<g id="node22" class="node"><title>Node22</title>
<g id="a_node22"><a xlink:href="framedata_8h.html" target="_top" xlink:title="framedata.h">
<polygon fill="white" stroke="black" points="528,-448.5 528,-467.5 596,-467.5 596,-448.5 528,-448.5"/>
<text text-anchor="middle" x="562" y="-455.5" font-family="Helvetica,sans-Serif" font-size="10.00">framedata.h</text>
</a>
</g>
</g>
<!-- Node21&#45;&gt;Node22 -->
<g id="edge24" class="edge"><title>Node21&#45;&gt;Node22</title>
<path fill="none" stroke="midnightblue" d="M562,-504.083C562,-497.006 562,-486.861 562,-477.986"/>
<polygon fill="midnightblue" stroke="midnightblue" points="565.5,-477.751 562,-467.751 558.5,-477.751 565.5,-477.751"/>
</g>
<!-- Node28 -->
<g id="node28" class="node"><title>Node28</title>
<g id="a_node28"><a xlink:href="lowres_8h.html" target="_top" xlink:title="lowres.h">
<polygon fill="white" stroke="black" points="363.5,-392.5 363.5,-411.5 416.5,-411.5 416.5,-392.5 363.5,-392.5"/>
<text text-anchor="middle" x="390" y="-399.5" font-family="Helvetica,sans-Serif" font-size="10.00">lowres.h</text>
</a>
</g>
</g>
<!-- Node21&#45;&gt;Node28 -->
<g id="edge37" class="edge"><title>Node21&#45;&gt;Node28</title>
<path fill="none" stroke="midnightblue" d="M536.844,-505.506C514.247,-498.08 480.758,-485.312 455,-468 434.817,-454.435 415.632,-433.99 403.408,-419.661"/>
<polygon fill="midnightblue" stroke="midnightblue" points="405.831,-417.101 396.749,-411.646 400.447,-421.574 405.831,-417.101"/>
</g>
<!-- Node29 -->
<g id="node29" class="node"><title>Node29</title>
<g id="a_node29"><a xlink:href="threading_8h.html" target="_top" xlink:title="threading.h">
<polygon fill="white" stroke="black" points="145.5,-224.5 145.5,-243.5 210.5,-243.5 210.5,-224.5 145.5,-224.5"/>
<text text-anchor="middle" x="178" y="-231.5" font-family="Helvetica,sans-Serif" font-size="10.00">threading.h</text>
</a>
</g>
</g>
<!-- Node21&#45;&gt;Node29 -->
<g id="edge41" class="edge"><title>Node21&#45;&gt;Node29</title>
<path fill="none" stroke="midnightblue" d="M536.708,-508.843C466.958,-496.668 277,-458.423 277,-403 277,-403 277,-403 277,-345 277,-301.183 233.064,-266.928 203.73,-248.941"/>
<polygon fill="midnightblue" stroke="midnightblue" points="205.187,-245.738 194.794,-243.682 201.637,-251.77 205.187,-245.738"/>
</g>
<!-- Node22&#45;&gt;Node2 -->
<g id="edge25" class="edge"><title>Node22&#45;&gt;Node2</title>
<path fill="none" stroke="midnightblue" d="M552.534,-448.371C544.013,-439.984 531.946,-426.431 526,-412 495.325,-337.548 497.139,-238.942 499.54,-198.036"/>
<polygon fill="midnightblue" stroke="midnightblue" points="503.044,-198.104 500.222,-187.892 496.059,-197.635 503.044,-198.104"/>
</g>
<!-- Node23 -->
<g id="node23" class="node"><title>Node23</title>
<g id="a_node23"><a xlink:href="slice_8h.html" target="_top" xlink:title="slice.h">
<polygon fill="white" stroke="black" points="581.5,-336.5 581.5,-355.5 626.5,-355.5 626.5,-336.5 581.5,-336.5"/>
<text text-anchor="middle" x="604" y="-343.5" font-family="Helvetica,sans-Serif" font-size="10.00">slice.h</text>
</a>
</g>
</g>
<!-- Node22&#45;&gt;Node23 -->
<g id="edge26" class="edge"><title>Node22&#45;&gt;Node23</title>
<path fill="none" stroke="midnightblue" d="M571.515,-448.391C580.071,-440.018 592.162,-426.475 598,-412 603.902,-397.368 605.159,-379.427 605.078,-366.104"/>
<polygon fill="midnightblue" stroke="midnightblue" points="608.566,-365.665 604.745,-355.783 601.569,-365.89 608.566,-365.665"/>
</g>
<!-- Node24 -->
<g id="node24" class="node"><title>Node24</title>
<g id="a_node24"><a xlink:href="cudata_8h.html" target="_top" xlink:title="cudata.h">
<polygon fill="white" stroke="black" points="535,-392.5 535,-411.5 589,-411.5 589,-392.5 535,-392.5"/>
<text text-anchor="middle" x="562" y="-399.5" font-family="Helvetica,sans-Serif" font-size="10.00">cudata.h</text>
</a>
</g>
</g>
<!-- Node22&#45;&gt;Node24 -->
<g id="edge28" class="edge"><title>Node22&#45;&gt;Node24</title>
<path fill="none" stroke="midnightblue" d="M562,-448.083C562,-441.006 562,-430.861 562,-421.986"/>
<polygon fill="midnightblue" stroke="midnightblue" points="565.5,-421.751 562,-411.751 558.5,-421.751 565.5,-421.751"/>
</g>
<!-- Node23&#45;&gt;Node2 -->
<g id="edge27" class="edge"><title>Node23&#45;&gt;Node2</title>
<path fill="none" stroke="midnightblue" d="M603.298,-336.206C601.212,-314.955 593.436,-259.912 567,-224 557.18,-210.661 542.157,-199.973 528.923,-192.367"/>
<polygon fill="midnightblue" stroke="midnightblue" points="530.592,-189.29 520.133,-187.598 527.254,-195.443 530.592,-189.29"/>
</g>
<!-- Node24&#45;&gt;Node2 -->
<g id="edge29" class="edge"><title>Node24&#45;&gt;Node2</title>
<path fill="none" stroke="midnightblue" d="M561.513,-392.214C559.813,-365.857 552.879,-285.481 529,-224 525.176,-214.154 519.151,-204.089 513.668,-195.982"/>
<polygon fill="midnightblue" stroke="midnightblue" points="516.491,-193.913 507.854,-187.777 510.78,-197.96 516.491,-193.913"/>
</g>
<!-- Node24&#45;&gt;Node23 -->
<g id="edge30" class="edge"><title>Node24&#45;&gt;Node23</title>
<path fill="none" stroke="midnightblue" d="M568.935,-392.083C574.929,-384.377 583.752,-373.033 591.048,-363.653"/>
<polygon fill="midnightblue" stroke="midnightblue" points="593.817,-365.793 597.194,-355.751 588.291,-361.496 593.817,-365.793"/>
</g>
<!-- Node25 -->
<g id="node25" class="node"><title>Node25</title>
<g id="a_node25"><a xlink:href="mv_8h.html" target="_top" xlink:title="mv.h">
<polygon fill="white" stroke="black" points="409,-336.5 409,-355.5 447,-355.5 447,-336.5 409,-336.5"/>
<text text-anchor="middle" x="428" y="-343.5" font-family="Helvetica,sans-Serif" font-size="10.00">mv.h</text>
</a>
</g>
</g>
<!-- Node24&#45;&gt;Node25 -->
<g id="edge31" class="edge"><title>Node24&#45;&gt;Node25</title>
<path fill="none" stroke="midnightblue" d="M540.767,-392.444C518.095,-383.307 482.03,-368.773 456.808,-358.609"/>
<polygon fill="midnightblue" stroke="midnightblue" points="457.976,-355.307 447.393,-354.815 455.36,-361.799 457.976,-355.307"/>
</g>
<!-- Node25&#45;&gt;Node2 -->
<g id="edge32" class="edge"><title>Node25&#45;&gt;Node2</title>
<path fill="none" stroke="midnightblue" d="M429.233,-336.318C432.415,-315.767 442.156,-262.946 463,-224 468.645,-213.452 477.068,-203.146 484.55,-195.064"/>
<polygon fill="midnightblue" stroke="midnightblue" points="487.143,-197.418 491.581,-187.797 482.112,-192.55 487.143,-197.418"/>
</g>
<!-- Node26 -->
<g id="node26" class="node"><title>Node26</title>
<g id="a_node26"><a xlink:href="primitives_8h.html" target="_top" xlink:title="primitives.h">
<polygon fill="white" stroke="black" points="343.5,-280.5 343.5,-299.5 410.5,-299.5 410.5,-280.5 343.5,-280.5"/>
<text text-anchor="middle" x="377" y="-287.5" font-family="Helvetica,sans-Serif" font-size="10.00">primitives.h</text>
</a>
</g>
</g>
<!-- Node25&#45;&gt;Node26 -->
<g id="edge33" class="edge"><title>Node25&#45;&gt;Node26</title>
<path fill="none" stroke="midnightblue" d="M419.578,-336.083C412.152,-328.22 401.148,-316.569 392.188,-307.081"/>
<polygon fill="midnightblue" stroke="midnightblue" points="394.676,-304.618 385.265,-299.751 389.587,-309.424 394.676,-304.618"/>
</g>
<!-- Node26&#45;&gt;Node2 -->
<g id="edge34" class="edge"><title>Node26&#45;&gt;Node2</title>
<path fill="none" stroke="midnightblue" d="M381.964,-280.136C389.786,-266.747 406.054,-241.114 425,-224 439.323,-211.062 457.935,-199.967 473.156,-192.032"/>
<polygon fill="midnightblue" stroke="midnightblue" points="474.771,-195.137 482.126,-187.51 471.62,-188.886 474.771,-195.137"/>
</g>
<!-- Node27 -->
<g id="node27" class="node"><title>Node27</title>
<g id="a_node27"><a xlink:href="cpu_8h.html" target="_top" xlink:title="cpu.h">
<polygon fill="white" stroke="black" points="331.5,-224.5 331.5,-243.5 372.5,-243.5 372.5,-224.5 331.5,-224.5"/>
<text text-anchor="middle" x="352" y="-231.5" font-family="Helvetica,sans-Serif" font-size="10.00">cpu.h</text>
</a>
</g>
</g>
<!-- Node26&#45;&gt;Node27 -->
<g id="edge35" class="edge"><title>Node26&#45;&gt;Node27</title>
<path fill="none" stroke="midnightblue" d="M372.872,-280.083C369.486,-272.77 364.584,-262.181 360.381,-253.103"/>
<polygon fill="midnightblue" stroke="midnightblue" points="363.429,-251.355 356.051,-243.751 357.077,-254.296 363.429,-251.355"/>
</g>
<!-- Node27&#45;&gt;Node2 -->
<g id="edge36" class="edge"><title>Node27&#45;&gt;Node2</title>
<path fill="none" stroke="midnightblue" d="M372.718,-225.492C397.324,-216.574 438.691,-201.582 467.783,-191.038"/>
<polygon fill="midnightblue" stroke="midnightblue" points="469.305,-194.21 477.514,-187.512 466.92,-187.629 469.305,-194.21"/>
</g>
<!-- Node28&#45;&gt;Node2 -->
<g id="edge39" class="edge"><title>Node28&#45;&gt;Node2</title>
<path fill="none" stroke="midnightblue" d="M381.24,-392.376C354.591,-365.109 278.885,-279.295 322,-224 338.75,-202.518 412.209,-189.721 459.66,-183.549"/>
<polygon fill="midnightblue" stroke="midnightblue" points="460.166,-187.013 469.653,-182.296 459.295,-180.067 460.166,-187.013"/>
</g>
<!-- Node28&#45;&gt;Node25 -->
<g id="edge40" class="edge"><title>Node28&#45;&gt;Node25</title>
<path fill="none" stroke="midnightblue" d="M396.275,-392.083C401.642,-384.455 409.518,-373.264 416.079,-363.941"/>
<polygon fill="midnightblue" stroke="midnightblue" points="418.949,-365.943 421.842,-355.751 413.225,-361.915 418.949,-365.943"/>
</g>
<!-- Node28&#45;&gt;Node26 -->
<g id="edge38" class="edge"><title>Node28&#45;&gt;Node26</title>
<path fill="none" stroke="midnightblue" d="M388.98,-392.368C386.882,-374.617 382.042,-333.666 379.198,-309.597"/>
<polygon fill="midnightblue" stroke="midnightblue" points="382.665,-309.112 378.015,-299.591 375.713,-309.933 382.665,-309.112"/>
</g>
<!-- Node29&#45;&gt;Node2 -->
<g id="edge42" class="edge"><title>Node29&#45;&gt;Node2</title>
<path fill="none" stroke="midnightblue" d="M210.595,-226.638C215.421,-225.731 220.337,-224.826 225,-224 308.135,-209.266 405.687,-193.784 459.703,-185.369"/>
<polygon fill="midnightblue" stroke="midnightblue" points="460.565,-188.777 469.909,-183.783 459.49,-181.86 460.565,-188.777"/>
</g>
<!-- Node29&#45;&gt;Node18 -->
<g id="edge43" class="edge"><title>Node29&#45;&gt;Node18</title>
<path fill="none" stroke="midnightblue" d="M145.268,-229.002C118.013,-223.978 80.058,-212.773 57,-188 45.3701,-175.505 40.8205,-156.276 39.0608,-141.97"/>
<polygon fill="midnightblue" stroke="midnightblue" points="42.527,-141.431 38.1658,-131.775 35.5538,-142.043 42.527,-141.431"/>
</g>
<!-- Node30 -->
<g id="node30" class="node"><title>Node30</title>
<polygon fill="white" stroke="#bfbfbf" points="66.5,-168.5 66.5,-187.5 123.5,-187.5 123.5,-168.5 66.5,-168.5"/>
<text text-anchor="middle" x="95" y="-175.5" font-family="Helvetica,sans-Serif" font-size="10.00">pthread.h</text>
</g>
<!-- Node29&#45;&gt;Node30 -->
<g id="edge44" class="edge"><title>Node29&#45;&gt;Node30</title>
<path fill="none" stroke="midnightblue" d="M164.665,-224.324C151.838,-215.979 132.215,-203.212 117.06,-193.352"/>
<polygon fill="midnightblue" stroke="midnightblue" points="118.593,-190.174 108.302,-187.655 114.776,-196.042 118.593,-190.174"/>
</g>
<!-- Node31 -->
<g id="node31" class="node"><title>Node31</title>
<polygon fill="white" stroke="#bfbfbf" points="141.5,-168.5 141.5,-187.5 214.5,-187.5 214.5,-168.5 141.5,-168.5"/>
<text text-anchor="middle" x="178" y="-175.5" font-family="Helvetica,sans-Serif" font-size="10.00">semaphore.h</text>
</g>
<!-- Node29&#45;&gt;Node31 -->
<g id="edge45" class="edge"><title>Node29&#45;&gt;Node31</title>
<path fill="none" stroke="midnightblue" d="M178,-224.083C178,-217.006 178,-206.861 178,-197.986"/>
<polygon fill="midnightblue" stroke="midnightblue" points="181.5,-197.751 178,-187.751 174.5,-197.751 181.5,-197.751"/>
</g>
<!-- Node32 -->
<g id="node32" class="node"><title>Node32</title>
<polygon fill="white" stroke="#bfbfbf" points="232.5,-168.5 232.5,-187.5 279.5,-187.5 279.5,-168.5 232.5,-168.5"/>
<text text-anchor="middle" x="256" y="-175.5" font-family="Helvetica,sans-Serif" font-size="10.00">errno.h</text>
</g>
<!-- Node29&#45;&gt;Node32 -->
<g id="edge46" class="edge"><title>Node29&#45;&gt;Node32</title>
<path fill="none" stroke="midnightblue" d="M190.532,-224.324C202.586,-215.979 221.027,-203.212 235.269,-193.352"/>
<polygon fill="midnightblue" stroke="midnightblue" points="237.269,-196.224 243.499,-187.655 233.285,-190.469 237.269,-196.224"/>
</g>
<!-- Node33 -->
<g id="node33" class="node"><title>Node33</title>
<polygon fill="white" stroke="#bfbfbf" points="298,-168.5 298,-187.5 342,-187.5 342,-168.5 298,-168.5"/>
<text text-anchor="middle" x="320" y="-175.5" font-family="Helvetica,sans-Serif" font-size="10.00">fcntl.h</text>
</g>
<!-- Node29&#45;&gt;Node33 -->
<g id="edge47" class="edge"><title>Node29&#45;&gt;Node33</title>
<path fill="none" stroke="midnightblue" d="M200.5,-224.444C224.077,-215.478 261.322,-201.314 287.964,-191.183"/>
<polygon fill="midnightblue" stroke="midnightblue" points="289.502,-194.342 297.605,-187.516 287.014,-187.8 289.502,-194.342"/>
</g>
<!-- Node34&#45;&gt;Node2 -->
<g id="edge49" class="edge"><title>Node34&#45;&gt;Node2</title>
<path fill="none" stroke="midnightblue" d="M342.514,-560.407C304.919,-545.928 239,-512.862 239,-459 239,-459 239,-459 239,-289 239,-194.49 385.728,-179.83 459.576,-178.437"/>
<polygon fill="midnightblue" stroke="midnightblue" points="459.957,-181.933 469.916,-178.32 459.877,-174.933 459.957,-181.933"/>
</g>
<!-- Node35&#45;&gt;Node2 -->
<g id="edge51" class="edge"><title>Node35&#45;&gt;Node2</title>
<path fill="none" stroke="midnightblue" d="M643.7,-616.483C647.223,-598.056 655,-553.076 655,-515 655,-515 655,-515 655,-289 655,-233.29 587.441,-203.121 541.818,-189.1"/>
<polygon fill="midnightblue" stroke="midnightblue" points="542.745,-185.725 532.164,-186.27 540.776,-192.442 542.745,-185.725"/>
</g>
<!-- Node35&#45;&gt;Node21 -->
<g id="edge52" class="edge"><title>Node35&#45;&gt;Node21</title>
<path fill="none" stroke="midnightblue" d="M635.723,-616.368C622.52,-598.215 591.674,-555.802 574.356,-531.99"/>
<polygon fill="midnightblue" stroke="midnightblue" points="576.961,-529.62 568.248,-523.591 571.299,-533.737 576.961,-529.62"/>
</g>
<!-- Node36 -->
<g id="node36" class="node"><title>Node36</title>
<g id="a_node36"><a xlink:href="entropy_8h.html" target="_top" xlink:title="entropy.h">
<polygon fill="white" stroke="black" points="693.5,-560.5 693.5,-579.5 750.5,-579.5 750.5,-560.5 693.5,-560.5"/>
<text text-anchor="middle" x="722" y="-567.5" font-family="Helvetica,sans-Serif" font-size="10.00">entropy.h</text>
</a>
</g>
</g>
<!-- Node35&#45;&gt;Node36 -->
<g id="edge53" class="edge"><title>Node35&#45;&gt;Node36</title>
<path fill="none" stroke="midnightblue" d="M654.853,-616.324C667.216,-607.979 686.13,-595.212 700.737,-585.352"/>
<polygon fill="midnightblue" stroke="midnightblue" points="702.848,-588.15 709.179,-579.655 698.932,-582.348 702.848,-588.15"/>
</g>
<!-- Node36&#45;&gt;Node2 -->
<g id="edge54" class="edge"><title>Node36&#45;&gt;Node2</title>
<path fill="none" stroke="midnightblue" d="M723.177,-560.462C725.616,-541.994 731,-496.939 731,-459 731,-459 731,-459 731,-289 731,-206.231 608.281,-185.688 542.124,-180.627"/>
<polygon fill="midnightblue" stroke="midnightblue" points="542.233,-177.126 532.019,-179.94 541.759,-184.11 542.233,-177.126"/>
</g>
<!-- Node36&#45;&gt;Node21 -->
<g id="edge56" class="edge"><title>Node36&#45;&gt;Node21</title>
<path fill="none" stroke="midnightblue" d="M696.648,-560.444C669.731,-551.359 627.004,-536.939 596.913,-526.783"/>
<polygon fill="midnightblue" stroke="midnightblue" points="597.828,-523.398 587.234,-523.516 595.59,-530.031 597.828,-523.398"/>
</g>
<!-- Node36&#45;&gt;Node23 -->
<g id="edge59" class="edge"><title>Node36&#45;&gt;Node23</title>
<path fill="none" stroke="midnightblue" d="M717.374,-560.297C699.865,-527.356 637.432,-409.898 613.464,-364.805"/>
<polygon fill="midnightblue" stroke="midnightblue" points="616.506,-363.071 608.722,-355.884 610.325,-366.357 616.506,-363.071"/>
</g>
<!-- Node37 -->
<g id="node37" class="node"><title>Node37</title>
<g id="a_node37"><a xlink:href="bitstream_8h.html" target="_top" xlink:title="bitstream.h">
<polygon fill="white" stroke="black" points="797.5,-504.5 797.5,-523.5 862.5,-523.5 862.5,-504.5 797.5,-504.5"/>
<text text-anchor="middle" x="830" y="-511.5" font-family="Helvetica,sans-Serif" font-size="10.00">bitstream.h</text>
</a>
</g>
</g>
<!-- Node36&#45;&gt;Node37 -->
<g id="edge55" class="edge"><title>Node36&#45;&gt;Node37</title>
<path fill="none" stroke="midnightblue" d="M739.352,-560.324C756.672,-551.664 783.515,-538.242 803.502,-528.249"/>
<polygon fill="midnightblue" stroke="midnightblue" points="805.312,-531.257 812.691,-523.655 802.181,-524.996 805.312,-531.257"/>
</g>
<!-- Node38 -->
<g id="node38" class="node"><title>Node38</title>
<g id="a_node38"><a xlink:href="contexts_8h.html" target="_top" xlink:title="contexts.h">
<polygon fill="white" stroke="black" points="759,-448.5 759,-467.5 821,-467.5 821,-448.5 759,-448.5"/>
<text text-anchor="middle" x="790" y="-455.5" font-family="Helvetica,sans-Serif" font-size="10.00">contexts.h</text>
</a>
</g>
</g>
<!-- Node36&#45;&gt;Node38 -->
<g id="edge57" class="edge"><title>Node36&#45;&gt;Node38</title>
<path fill="none" stroke="midnightblue" d="M727.336,-560.368C738.508,-542.296 764.545,-500.176 779.301,-476.307"/>
<polygon fill="midnightblue" stroke="midnightblue" points="782.408,-477.938 784.689,-467.591 776.454,-474.257 782.408,-477.938"/>
</g>
<!-- Node38&#45;&gt;Node2 -->
<g id="edge58" class="edge"><title>Node38&#45;&gt;Node2</title>
<path fill="none" stroke="midnightblue" d="M788.693,-448.466C785.982,-430.007 780,-384.968 780,-347 780,-347 780,-347 780,-289 780,-256.189 771.519,-243.32 745,-224 713.322,-200.922 603.391,-187.915 542.463,-182.323"/>
<polygon fill="midnightblue" stroke="midnightblue" points="542.676,-178.828 532.405,-181.426 542.055,-185.801 542.676,-178.828"/>
</g>
</g>
</svg>
        <g id="navigator" transform="translate(0 0)" fill="#404254">
                <rect fill="#f2f5e9" fill-opacity="0.5" stroke="#606060" stroke-width=".5" x="0" y="0" width="60" height="60"/>
                <use id="zoomplus" xlink:href="#zoomPlus" x="17" y="9" onmousedown="handleZoom(evt,'in')"/>
                <use id="zoomminus" xlink:href="#zoomMin" x="42" y="9" onmousedown="handleZoom(evt,'out')"/>
                <use id="reset" xlink:href="#resetDef" x="30" y="36" onmousedown="handleReset()"/>
                <g id="arrowUp" xlink:href="#dirArrow" transform="translate(30 24)" onmousedown="handlePan(0,-1)">
                  <use xlink:href="#rim" fill="#404040">
                        <set attributeName="fill" to="#808080" begin="arrowUp.mouseover" end="arrowUp.mouseout"/>
                  </use>
                  <path fill="none" stroke="white" stroke-width="1.5" d="M0,-3.0v7 M-2.5,-0.5L0,-3.0L2.5,-0.5"/>
                </g>
                <g id="arrowRight" xlink:href="#dirArrow" transform="rotate(90) translate(36 -43)" onmousedown="handlePan(1,0)">
                  <use xlink:href="#rim" fill="#404040">
                        <set attributeName="fill" to="#808080" begin="arrowRight.mouseover" end="arrowRight.mouseout"/>
                  </use>
                  <path fill="none" stroke="white" stroke-width="1.5" d="M0,-3.0v7 M-2.5,-0.5L0,-3.0L2.5,-0.5"/>
                </g>
                <g id="arrowDown" xlink:href="#dirArrow" transform="rotate(180) translate(-30 -48)" onmousedown="handlePan(0,1)">
                  <use xlink:href="#rim" fill="#404040">
                        <set attributeName="fill" to="#808080" begin="arrowDown.mouseover" end="arrowDown.mouseout"/>
                  </use>
                  <path fill="none" stroke="white" stroke-width="1.5" d="M0,-3.0v7 M-2.5,-0.5L0,-3.0L2.5,-0.5"/>
                </g>
                <g id="arrowLeft" xlink:href="#dirArrow" transform="rotate(270) translate(-36 17)" onmousedown="handlePan(-1,0)">
                  <use xlink:href="#rim" fill="#404040">
                        <set attributeName="fill" to="#808080" begin="arrowLeft.mouseover" end="arrowLeft.mouseout"/>
                  </use>
                  <path fill="none" stroke="white" stroke-width="1.5" d="M0,-3.0v7 M-2.5,-0.5L0,-3.0L2.5,-0.5"/>
                </g>
        </g>
        <svg viewBox="0 0 15 15" width="100%" height="30px" preserveAspectRatio="xMaxYMin meet">
         <g id="arrow_out" transform="scale(0.3 0.3)">
          <a xlink:href="framefilter_8h__incl_org.svg" target="_base">
           <rect id="button" ry="5" rx="5" y="6" x="6" height="38" width="38"
                fill="#f2f5e9" fill-opacity="0.5" stroke="#606060" stroke-width="1.0"/>
           <path id="arrow"
             d="M 11.500037,31.436501 C 11.940474,20.09759 22.043105,11.32322 32.158766,21.979434 L 37.068811,17.246167 C 37.068811,17.246167 37.088388,32 37.088388,32 L 22.160133,31.978069 C 22.160133,31.978069 26.997745,27.140456 26.997745,27.140456 C 18.528582,18.264221 13.291696,25.230495 11.500037,31.436501 z"
             style="fill:#404040;"/>
          </a>
         </g>
        </svg>
</svg>
