<?xml version="1.0" encoding="UTF-8" standalone="no"?>
<!DOCTYPE svg PUBLIC "-//W3C//DTD SVG 1.1//EN"
 "http://www.w3.org/Graphics/SVG/1.1/DTD/svg11.dtd">
<!-- Generated by graphviz version 2.36.0 (20140111.2315)
 -->
<!-- Title: source/compat/getopt/getopt.c Pages: 1 -->
<svg width="202pt" height="208pt"
 viewBox="0.00 0.00 202.00 208.00" xmlns="http://www.w3.org/2000/svg" xmlns:xlink="http://www.w3.org/1999/xlink">
<g id="graph0" class="graph" transform="scale(1 1) rotate(0) translate(4 204)">
<title>source/compat/getopt/getopt.c</title>
<polygon fill="white" stroke="none" points="-4,4 -4,-204 198,-204 198,4 -4,4"/>
<!-- Node1 -->
<g id="node1" class="node"><title>Node1</title>
<polygon fill="#bfbfbf" stroke="black" points="40.5,-169 40.5,-199 151.5,-199 151.5,-169 40.5,-169"/>
<text text-anchor="start" x="48.5" y="-187" font-family="Helvetica,sans-Serif" font-size="10.00">source/compat/getopt</text>
<text text-anchor="middle" x="96" y="-176" font-family="Helvetica,sans-Serif" font-size="10.00">/getopt.c</text>
</g>
<!-- Node2 -->
<g id="node2" class="node"><title>Node2</title>
<polygon fill="white" stroke="#bfbfbf" points="6,-112.5 6,-131.5 52,-131.5 52,-112.5 6,-112.5"/>
<text text-anchor="middle" x="29" y="-119.5" font-family="Helvetica,sans-Serif" font-size="10.00">stdio.h</text>
</g>
<!-- Node1&#45;&gt;Node2 -->
<g id="edge1" class="edge"><title>Node1&#45;&gt;Node2</title>
<path fill="none" stroke="midnightblue" d="M80.1219,-168.781C69.9846,-159.703 56.8375,-147.929 46.4146,-138.595"/>
<polygon fill="midnightblue" stroke="midnightblue" points="48.5336,-135.794 38.7491,-131.731 43.8637,-141.009 48.5336,-135.794"/>
</g>
<!-- Node3 -->
<g id="node3" class="node"><title>Node3</title>
<g id="a_node3"><a xlink:href="getopt_8h.html" target="_top" xlink:title="getopt.h">
<polygon fill="white" stroke="black" points="70,-112.5 70,-131.5 122,-131.5 122,-112.5 70,-112.5"/>
<text text-anchor="middle" x="96" y="-119.5" font-family="Helvetica,sans-Serif" font-size="10.00">getopt.h</text>
</a>
</g>
</g>
<!-- Node1&#45;&gt;Node3 -->
<g id="edge2" class="edge"><title>Node1&#45;&gt;Node3</title>
<path fill="none" stroke="midnightblue" d="M96,-168.781C96,-160.781 96,-150.689 96,-142.017"/>
<polygon fill="midnightblue" stroke="midnightblue" points="99.5001,-141.73 96,-131.731 92.5001,-141.731 99.5001,-141.73"/>
</g>
<!-- Node8 -->
<g id="node8" class="node"><title>Node8</title>
<polygon fill="white" stroke="#bfbfbf" points="140,-112.5 140,-131.5 194,-131.5 194,-112.5 140,-112.5"/>
<text text-anchor="middle" x="167" y="-119.5" font-family="Helvetica,sans-Serif" font-size="10.00">strings.h</text>
</g>
<!-- Node1&#45;&gt;Node8 -->
<g id="edge7" class="edge"><title>Node1&#45;&gt;Node8</title>
<path fill="none" stroke="midnightblue" d="M112.826,-168.781C123.675,-159.613 137.777,-147.696 148.873,-138.319"/>
<polygon fill="midnightblue" stroke="midnightblue" points="151.29,-140.858 156.669,-131.731 146.772,-135.512 151.29,-140.858"/>
</g>
<!-- Node4 -->
<g id="node4" class="node"><title>Node4</title>
<g id="a_node4"><a xlink:href="stdint_8h.html" target="_top" xlink:title="stdint.h">
<polygon fill="white" stroke="black" points="37.5,-56.5 37.5,-75.5 86.5,-75.5 86.5,-56.5 37.5,-56.5"/>
<text text-anchor="middle" x="62" y="-63.5" font-family="Helvetica,sans-Serif" font-size="10.00">stdint.h</text>
</a>
</g>
</g>
<!-- Node3&#45;&gt;Node4 -->
<g id="edge3" class="edge"><title>Node3&#45;&gt;Node4</title>
<path fill="none" stroke="midnightblue" d="M90.3856,-112.083C85.6326,-104.534 78.6819,-93.4948 72.8484,-84.2298"/>
<polygon fill="midnightblue" stroke="midnightblue" points="75.7999,-82.3486 67.5099,-75.7511 69.8763,-86.0783 75.7999,-82.3486"/>
</g>
<!-- Node7 -->
<g id="node7" class="node"><title>Node7</title>
<polygon fill="white" stroke="#bfbfbf" points="104.5,-56.5 104.5,-75.5 153.5,-75.5 153.5,-56.5 104.5,-56.5"/>
<text text-anchor="middle" x="129" y="-63.5" font-family="Helvetica,sans-Serif" font-size="10.00">ctype.h</text>
</g>
<!-- Node3&#45;&gt;Node7 -->
<g id="edge6" class="edge"><title>Node3&#45;&gt;Node7</title>
<path fill="none" stroke="midnightblue" d="M101.449,-112.083C106.014,-104.613 112.668,-93.7244 118.293,-84.5199"/>
<polygon fill="midnightblue" stroke="midnightblue" points="121.424,-86.109 123.652,-75.7511 115.451,-82.4588 121.424,-86.109"/>
</g>
<!-- Node5 -->
<g id="node5" class="node"><title>Node5</title>
<polygon fill="white" stroke="#bfbfbf" points="-0.5,-0.5 -0.5,-19.5 54.5,-19.5 54.5,-0.5 -0.5,-0.5"/>
<text text-anchor="middle" x="27" y="-7.5" font-family="Helvetica,sans-Serif" font-size="10.00">crtdefs.h</text>
</g>
<!-- Node4&#45;&gt;Node5 -->
<g id="edge4" class="edge"><title>Node4&#45;&gt;Node5</title>
<path fill="none" stroke="midnightblue" d="M56.2205,-56.083C51.3276,-48.5341 44.1726,-37.4948 38.1674,-28.2298"/>
<polygon fill="midnightblue" stroke="midnightblue" points="41.048,-26.239 32.672,-19.7511 35.174,-30.0463 41.048,-26.239"/>
</g>
<!-- Node6 -->
<g id="node6" class="node"><title>Node6</title>
<polygon fill="white" stroke="#bfbfbf" points="73,-0.5 73,-19.5 121,-19.5 121,-0.5 73,-0.5"/>
<text text-anchor="middle" x="97" y="-7.5" font-family="Helvetica,sans-Serif" font-size="10.00">limits.h</text>
</g>
<!-- Node4&#45;&gt;Node6 -->
<g id="edge5" class="edge"><title>Node4&#45;&gt;Node6</title>
<path fill="none" stroke="midnightblue" d="M67.7795,-56.083C72.6724,-48.5341 79.8274,-37.4948 85.8326,-28.2298"/>
<polygon fill="midnightblue" stroke="midnightblue" points="88.826,-30.0463 91.328,-19.7511 82.952,-26.239 88.826,-30.0463"/>
</g>
</g>
</svg>
