<?xml version="1.0" encoding="UTF-8" standalone="no"?>
<!DOCTYPE svg PUBLIC "-//W3C//DTD SVG 1.1//EN"
 "http://www.w3.org/Graphics/SVG/1.1/DTD/svg11.dtd">
<!-- Generated by graphviz version 2.36.0 (20140111.2315)
 -->
<!-- Title: Graphical Class Hierarchy Pages: 1 -->
<svg width="282pt" height="66pt"
 viewBox="0.00 0.00 282.00 66.00" xmlns="http://www.w3.org/2000/svg" xmlns:xlink="http://www.w3.org/1999/xlink">
<g id="graph0" class="graph" transform="scale(1 1) rotate(0) translate(4 62)">
<title>Graphical Class Hierarchy</title>
<polygon fill="white" stroke="none" points="-4,4 -4,-62 278,-62 278,4 -4,4"/>
<!-- Node1 -->
<g id="node1" class="node"><title>Node1</title>
<g id="a_node1"><a xlink:href="structx265_1_1ReferencePlanes.html" target="_top" xlink:title="x265::ReferencePlanes">
<polygon fill="white" stroke="black" points="0.5,-19.5 0.5,-38.5 119.5,-38.5 119.5,-19.5 0.5,-19.5"/>
<text text-anchor="middle" x="60" y="-26.5" font-family="Helvetica,sans-Serif" font-size="10.00">x265::ReferencePlanes</text>
</a>
</g>
</g>
<!-- Node2 -->
<g id="node2" class="node"><title>Node2</title>
<g id="a_node2"><a xlink:href="structx265_1_1Lowres.html" target="_top" xlink:title="x265::Lowres">
<polygon fill="white" stroke="black" points="177.5,-38.5 177.5,-57.5 252.5,-57.5 252.5,-38.5 177.5,-38.5"/>
<text text-anchor="middle" x="215" y="-45.5" font-family="Helvetica,sans-Serif" font-size="10.00">x265::Lowres</text>
</a>
</g>
</g>
<!-- Node1&#45;&gt;Node2 -->
<g id="edge1" class="edge"><title>Node1&#45;&gt;Node2</title>
<path fill="none" stroke="midnightblue" d="M129.826,-37.547C146.205,-39.581 163.058,-41.6738 177.341,-43.4475"/>
<polygon fill="midnightblue" stroke="midnightblue" points="130.071,-34.0507 119.716,-36.2916 129.209,-40.9973 130.071,-34.0507"/>
</g>
<!-- Node3 -->
<g id="node3" class="node"><title>Node3</title>
<g id="a_node3"><a xlink:href="classx265_1_1MotionReference.html" target="_top" xlink:title="x265::MotionReference">
<polygon fill="white" stroke="black" points="156,-0.5 156,-19.5 274,-19.5 274,-0.5 156,-0.5"/>
<text text-anchor="middle" x="215" y="-7.5" font-family="Helvetica,sans-Serif" font-size="10.00">x265::MotionReference</text>
</a>
</g>
</g>
<!-- Node1&#45;&gt;Node3 -->
<g id="edge2" class="edge"><title>Node1&#45;&gt;Node3</title>
<path fill="none" stroke="midnightblue" d="M129.858,-20.449C138.573,-19.3667 147.422,-18.2678 155.946,-17.2093"/>
<polygon fill="midnightblue" stroke="midnightblue" points="129.209,-17.0027 119.716,-21.7084 130.071,-23.9493 129.209,-17.0027"/>
</g>
</g>
</svg>
