<?xml version="1.0" encoding="UTF-8" standalone="no"?>
<!DOCTYPE svg PUBLIC "-//W3C//DTD SVG 1.1//EN"
 "http://www.w3.org/Graphics/SVG/1.1/DTD/svg11.dtd">
<!-- Generated by graphviz version 2.36.0 (20140111.2315)
 -->
<!-- Title: source/input/y4m.h Pages: 1 -->
<svg width="249pt" height="84pt"
 viewBox="0.00 0.00 249.00 84.00" xmlns="http://www.w3.org/2000/svg" xmlns:xlink="http://www.w3.org/1999/xlink">
<g id="graph0" class="graph" transform="scale(1 1) rotate(0) translate(4 80)">
<title>source/input/y4m.h</title>
<polygon fill="white" stroke="none" points="-4,4 -4,-80 245,-80 245,4 -4,4"/>
<!-- Node1 -->
<g id="node1" class="node"><title>Node1</title>
<polygon fill="#bfbfbf" stroke="black" points="71,-56.5 71,-75.5 171,-75.5 171,-56.5 71,-56.5"/>
<text text-anchor="middle" x="121" y="-63.5" font-family="Helvetica,sans-Serif" font-size="10.00">source/input/y4m.h</text>
</g>
<!-- Node2 -->
<g id="node2" class="node"><title>Node2</title>
<g id="a_node2"><a xlink:href="input_8cpp.html" target="_top" xlink:title="source/input/input.cpp">
<polygon fill="white" stroke="black" points="-0.5,-0.5 -0.5,-19.5 112.5,-19.5 112.5,-0.5 -0.5,-0.5"/>
<text text-anchor="middle" x="56" y="-7.5" font-family="Helvetica,sans-Serif" font-size="10.00">source/input/input.cpp</text>
</a>
</g>
</g>
<!-- Node1&#45;&gt;Node2 -->
<g id="edge1" class="edge"><title>Node1&#45;&gt;Node2</title>
<path fill="none" stroke="midnightblue" d="M102.727,-49.8197C91.0822,-40.1452 76.4005,-27.9481 66.6334,-19.8339"/>
<polygon fill="midnightblue" stroke="midnightblue" points="100.628,-52.6259 110.557,-56.324 105.101,-47.2416 100.628,-52.6259"/>
</g>
<!-- Node3 -->
<g id="node3" class="node"><title>Node3</title>
<g id="a_node3"><a xlink:href="input_2y4m_8cpp.html" target="_top" xlink:title="source/input/y4m.cpp">
<polygon fill="white" stroke="black" points="131,-0.5 131,-19.5 241,-19.5 241,-0.5 131,-0.5"/>
<text text-anchor="middle" x="186" y="-7.5" font-family="Helvetica,sans-Serif" font-size="10.00">source/input/y4m.cpp</text>
</a>
</g>
</g>
<!-- Node1&#45;&gt;Node3 -->
<g id="edge2" class="edge"><title>Node1&#45;&gt;Node3</title>
<path fill="none" stroke="midnightblue" d="M139.273,-49.8197C150.918,-40.1452 165.599,-27.9481 175.367,-19.8339"/>
<polygon fill="midnightblue" stroke="midnightblue" points="136.899,-47.2416 131.443,-56.324 141.372,-52.6259 136.899,-47.2416"/>
</g>
</g>
</svg>
