<?xml version="1.0" encoding="UTF-8" standalone="no"?>
<!DOCTYPE svg PUBLIC "-//W3C//DTD SVG 1.1//EN"
 "http://www.w3.org/Graphics/SVG/1.1/DTD/svg11.dtd">
<!-- Generated by graphviz version 2.36.0 (20140111.2315)
 -->
<!-- Title: source/encoder/level.h Pages: 1 -->
<svg width="988pt" height="252pt"
 viewBox="0.00 0.00 988.00 252.00" xmlns="http://www.w3.org/2000/svg" xmlns:xlink="http://www.w3.org/1999/xlink">
<g id="graph0" class="graph" transform="scale(1 1) rotate(0) translate(4 248)">
<title>source/encoder/level.h</title>
<polygon fill="white" stroke="none" points="-4,4 -4,-248 984,-248 984,4 -4,4"/>
<!-- Node1 -->
<g id="node1" class="node"><title>Node1</title>
<polygon fill="#bfbfbf" stroke="black" points="601.5,-224.5 601.5,-243.5 716.5,-243.5 716.5,-224.5 601.5,-224.5"/>
<text text-anchor="middle" x="659" y="-231.5" font-family="Helvetica,sans-Serif" font-size="10.00">source/encoder/level.h</text>
</g>
<!-- Node2 -->
<g id="node2" class="node"><title>Node2</title>
<g id="a_node2"><a xlink:href="common_8h.html" target="_top" xlink:title="common.h">
<polygon fill="white" stroke="black" points="515,-168.5 515,-187.5 577,-187.5 577,-168.5 515,-168.5"/>
<text text-anchor="middle" x="546" y="-175.5" font-family="Helvetica,sans-Serif" font-size="10.00">common.h</text>
</a>
</g>
</g>
<!-- Node1&#45;&gt;Node2 -->
<g id="edge1" class="edge"><title>Node1&#45;&gt;Node2</title>
<path fill="none" stroke="midnightblue" d="M641.095,-224.444C622.746,-215.675 593.995,-201.935 572.906,-191.858"/>
<polygon fill="midnightblue" stroke="midnightblue" points="574.353,-188.67 563.821,-187.516 571.335,-194.986 574.353,-188.67"/>
</g>
<!-- Node18 -->
<g id="node18" class="node"><title>Node18</title>
<g id="a_node18"><a xlink:href="x265_8h.html" target="_top" xlink:title="x265.h">
<polygon fill="white" stroke="black" points="919,-112.5 919,-131.5 965,-131.5 965,-112.5 919,-112.5"/>
<text text-anchor="middle" x="942" y="-119.5" font-family="Helvetica,sans-Serif" font-size="10.00">x265.h</text>
</a>
</g>
</g>
<!-- Node1&#45;&gt;Node18 -->
<g id="edge22" class="edge"><title>Node1&#45;&gt;Node18</title>
<path fill="none" stroke="midnightblue" d="M681.207,-224.368C731.216,-204.93 852.792,-157.674 910.541,-135.228"/>
<polygon fill="midnightblue" stroke="midnightblue" points="911.844,-138.477 919.897,-131.591 909.308,-131.952 911.844,-138.477"/>
</g>
<!-- Node3 -->
<g id="node3" class="node"><title>Node3</title>
<polygon fill="white" stroke="#bfbfbf" points="0,-112.5 0,-131.5 56,-131.5 56,-112.5 0,-112.5"/>
<text text-anchor="middle" x="28" y="-119.5" font-family="Helvetica,sans-Serif" font-size="10.00">algorithm</text>
</g>
<!-- Node2&#45;&gt;Node3 -->
<g id="edge2" class="edge"><title>Node2&#45;&gt;Node3</title>
<path fill="none" stroke="midnightblue" d="M514.848,-175.656C439.414,-172.067 240.885,-160.629 66.0821,-131.95"/>
<polygon fill="midnightblue" stroke="midnightblue" points="66.6333,-128.494 56.1944,-130.305 65.4843,-135.399 66.6333,-128.494"/>
</g>
<!-- Node4 -->
<g id="node4" class="node"><title>Node4</title>
<polygon fill="white" stroke="#bfbfbf" points="74.5,-112.5 74.5,-131.5 119.5,-131.5 119.5,-112.5 74.5,-112.5"/>
<text text-anchor="middle" x="97" y="-119.5" font-family="Helvetica,sans-Serif" font-size="10.00">climits</text>
</g>
<!-- Node2&#45;&gt;Node4 -->
<g id="edge3" class="edge"><title>Node2&#45;&gt;Node4</title>
<path fill="none" stroke="midnightblue" d="M514.872,-175.418C446.701,-171.576 279.041,-160.063 129.44,-131.753"/>
<polygon fill="midnightblue" stroke="midnightblue" points="130.095,-128.314 119.614,-129.863 128.773,-135.189 130.095,-128.314"/>
</g>
<!-- Node5 -->
<g id="node5" class="node"><title>Node5</title>
<polygon fill="white" stroke="#bfbfbf" points="138,-112.5 138,-131.5 182,-131.5 182,-112.5 138,-112.5"/>
<text text-anchor="middle" x="160" y="-119.5" font-family="Helvetica,sans-Serif" font-size="10.00">cmath</text>
</g>
<!-- Node2&#45;&gt;Node5 -->
<g id="edge4" class="edge"><title>Node2&#45;&gt;Node5</title>
<path fill="none" stroke="midnightblue" d="M514.866,-174.702C454.408,-169.886 316.828,-157.21 192.33,-131.987"/>
<polygon fill="midnightblue" stroke="midnightblue" points="192.747,-128.5 182.246,-129.91 191.335,-135.356 192.747,-128.5"/>
</g>
<!-- Node6 -->
<g id="node6" class="node"><title>Node6</title>
<polygon fill="white" stroke="#bfbfbf" points="200.5,-112.5 200.5,-131.5 249.5,-131.5 249.5,-112.5 200.5,-112.5"/>
<text text-anchor="middle" x="225" y="-119.5" font-family="Helvetica,sans-Serif" font-size="10.00">cstdarg</text>
</g>
<!-- Node2&#45;&gt;Node6 -->
<g id="edge5" class="edge"><title>Node2&#45;&gt;Node6</title>
<path fill="none" stroke="midnightblue" d="M514.68,-173.267C463.323,-166.896 357.851,-152.765 259.861,-132.219"/>
<polygon fill="midnightblue" stroke="midnightblue" points="260.303,-128.735 249.794,-130.08 258.848,-135.582 260.303,-128.735"/>
</g>
<!-- Node7 -->
<g id="node7" class="node"><title>Node7</title>
<polygon fill="white" stroke="#bfbfbf" points="267.5,-112.5 267.5,-131.5 316.5,-131.5 316.5,-112.5 267.5,-112.5"/>
<text text-anchor="middle" x="292" y="-119.5" font-family="Helvetica,sans-Serif" font-size="10.00">cstddef</text>
</g>
<!-- Node2&#45;&gt;Node7 -->
<g id="edge6" class="edge"><title>Node2&#45;&gt;Node7</title>
<path fill="none" stroke="midnightblue" d="M514.75,-171.304C473.654,-163.668 399.004,-149.299 326.562,-132.266"/>
<polygon fill="midnightblue" stroke="midnightblue" points="327.359,-128.858 316.822,-129.956 325.744,-135.669 327.359,-128.858"/>
</g>
<!-- Node8 -->
<g id="node8" class="node"><title>Node8</title>
<polygon fill="white" stroke="#bfbfbf" points="334.5,-112.5 334.5,-131.5 377.5,-131.5 377.5,-112.5 334.5,-112.5"/>
<text text-anchor="middle" x="356" y="-119.5" font-family="Helvetica,sans-Serif" font-size="10.00">cstdio</text>
</g>
<!-- Node2&#45;&gt;Node8 -->
<g id="edge7" class="edge"><title>Node2&#45;&gt;Node8</title>
<path fill="none" stroke="midnightblue" d="M514.983,-168.448C484.669,-160.051 436.971,-146.741 387.251,-132.332"/>
<polygon fill="midnightblue" stroke="midnightblue" points="388.196,-128.962 377.617,-129.534 386.244,-135.684 388.196,-128.962"/>
</g>
<!-- Node9 -->
<g id="node9" class="node"><title>Node9</title>
<polygon fill="white" stroke="#bfbfbf" points="395.5,-112.5 395.5,-131.5 440.5,-131.5 440.5,-112.5 395.5,-112.5"/>
<text text-anchor="middle" x="418" y="-119.5" font-family="Helvetica,sans-Serif" font-size="10.00">cstdlib</text>
</g>
<!-- Node2&#45;&gt;Node9 -->
<g id="edge8" class="edge"><title>Node2&#45;&gt;Node9</title>
<path fill="none" stroke="midnightblue" d="M525.718,-168.444C504.653,-159.557 471.483,-145.563 447.514,-135.451"/>
<polygon fill="midnightblue" stroke="midnightblue" points="448.761,-132.179 438.187,-131.516 446.04,-138.628 448.761,-132.179"/>
</g>
<!-- Node10 -->
<g id="node10" class="node"><title>Node10</title>
<polygon fill="white" stroke="#bfbfbf" points="459,-112.5 459,-131.5 505,-131.5 505,-112.5 459,-112.5"/>
<text text-anchor="middle" x="482" y="-119.5" font-family="Helvetica,sans-Serif" font-size="10.00">cstring</text>
</g>
<!-- Node2&#45;&gt;Node10 -->
<g id="edge9" class="edge"><title>Node2&#45;&gt;Node10</title>
<path fill="none" stroke="midnightblue" d="M535.717,-168.324C526.164,-160.263 511.72,-148.077 500.216,-138.369"/>
<polygon fill="midnightblue" stroke="midnightblue" points="502.37,-135.608 492.47,-131.834 497.856,-140.958 502.37,-135.608"/>
</g>
<!-- Node11 -->
<g id="node11" class="node"><title>Node11</title>
<polygon fill="white" stroke="#bfbfbf" points="523,-112.5 523,-131.5 569,-131.5 569,-112.5 523,-112.5"/>
<text text-anchor="middle" x="546" y="-119.5" font-family="Helvetica,sans-Serif" font-size="10.00">cctype</text>
</g>
<!-- Node2&#45;&gt;Node11 -->
<g id="edge10" class="edge"><title>Node2&#45;&gt;Node11</title>
<path fill="none" stroke="midnightblue" d="M546,-168.083C546,-161.006 546,-150.861 546,-141.986"/>
<polygon fill="midnightblue" stroke="midnightblue" points="549.5,-141.751 546,-131.751 542.5,-141.751 549.5,-141.751"/>
</g>
<!-- Node12 -->
<g id="node12" class="node"><title>Node12</title>
<polygon fill="white" stroke="#bfbfbf" points="587.5,-112.5 587.5,-131.5 628.5,-131.5 628.5,-112.5 587.5,-112.5"/>
<text text-anchor="middle" x="608" y="-119.5" font-family="Helvetica,sans-Serif" font-size="10.00">ctime</text>
</g>
<!-- Node2&#45;&gt;Node12 -->
<g id="edge11" class="edge"><title>Node2&#45;&gt;Node12</title>
<path fill="none" stroke="midnightblue" d="M555.961,-168.324C565.127,-160.341 578.937,-148.313 590.028,-138.653"/>
<polygon fill="midnightblue" stroke="midnightblue" points="592.615,-141.041 597.857,-131.834 588.018,-135.762 592.615,-141.041"/>
</g>
<!-- Node13 -->
<g id="node13" class="node"><title>Node13</title>
<g id="a_node13"><a xlink:href="stdint_8h.html" target="_top" xlink:title="stdint.h">
<polygon fill="white" stroke="black" points="734.5,-56.5 734.5,-75.5 783.5,-75.5 783.5,-56.5 734.5,-56.5"/>
<text text-anchor="middle" x="759" y="-63.5" font-family="Helvetica,sans-Serif" font-size="10.00">stdint.h</text>
</a>
</g>
</g>
<!-- Node2&#45;&gt;Node13 -->
<g id="edge12" class="edge"><title>Node2&#45;&gt;Node13</title>
<path fill="none" stroke="midnightblue" d="M563.866,-168.363C582.273,-159.419 611.758,-144.962 637,-132 670.925,-114.58 709.741,-93.7412 734.304,-80.4402"/>
<polygon fill="midnightblue" stroke="midnightblue" points="736.166,-83.4119 743.288,-75.5674 732.829,-77.2587 736.166,-83.4119"/>
</g>
<!-- Node16 -->
<g id="node16" class="node"><title>Node16</title>
<polygon fill="white" stroke="#bfbfbf" points="685,-112.5 685,-131.5 745,-131.5 745,-112.5 685,-112.5"/>
<text text-anchor="middle" x="715" y="-119.5" font-family="Helvetica,sans-Serif" font-size="10.00">memory.h</text>
</g>
<!-- Node2&#45;&gt;Node16 -->
<g id="edge15" class="edge"><title>Node2&#45;&gt;Node16</title>
<path fill="none" stroke="midnightblue" d="M572.779,-168.444C601.333,-159.32 646.733,-144.813 678.537,-134.651"/>
<polygon fill="midnightblue" stroke="midnightblue" points="679.886,-137.894 688.347,-131.516 677.756,-131.226 679.886,-137.894"/>
</g>
<!-- Node17 -->
<g id="node17" class="node"><title>Node17</title>
<polygon fill="white" stroke="#bfbfbf" points="763,-112.5 763,-131.5 815,-131.5 815,-112.5 763,-112.5"/>
<text text-anchor="middle" x="789" y="-119.5" font-family="Helvetica,sans-Serif" font-size="10.00">assert.h</text>
</g>
<!-- Node2&#45;&gt;Node17 -->
<g id="edge16" class="edge"><title>Node2&#45;&gt;Node17</title>
<path fill="none" stroke="midnightblue" d="M577.279,-170.515C615.969,-162.424 684.094,-147.955 752.574,-132.039"/>
<polygon fill="midnightblue" stroke="midnightblue" points="753.734,-135.362 762.677,-129.681 752.143,-128.545 753.734,-135.362"/>
</g>
<!-- Node2&#45;&gt;Node18 -->
<g id="edge17" class="edge"><title>Node2&#45;&gt;Node18</title>
<path fill="none" stroke="midnightblue" d="M577.418,-174.725C639.182,-169.909 780.838,-157.165 908.716,-131.991"/>
<polygon fill="midnightblue" stroke="midnightblue" points="909.561,-135.392 918.68,-129.998 908.188,-128.527 909.561,-135.392"/>
</g>
<!-- Node20 -->
<g id="node20" class="node"><title>Node20</title>
<g id="a_node20"><a xlink:href="constants_8h.html" target="_top" xlink:title="constants.h">
<polygon fill="white" stroke="black" points="833,-112.5 833,-131.5 901,-131.5 901,-112.5 833,-112.5"/>
<text text-anchor="middle" x="867" y="-119.5" font-family="Helvetica,sans-Serif" font-size="10.00">constants.h</text>
</a>
</g>
</g>
<!-- Node2&#45;&gt;Node20 -->
<g id="edge20" class="edge"><title>Node2&#45;&gt;Node20</title>
<path fill="none" stroke="midnightblue" d="M577.044,-171.568C627.32,-163.602 728.951,-147.961 815,-132 817.583,-131.521 820.248,-131.008 822.95,-130.479"/>
<polygon fill="midnightblue" stroke="midnightblue" points="823.68,-133.902 832.808,-128.523 822.318,-127.036 823.68,-133.902"/>
</g>
<!-- Node14 -->
<g id="node14" class="node"><title>Node14</title>
<polygon fill="white" stroke="#bfbfbf" points="696.5,-0.5 696.5,-19.5 751.5,-19.5 751.5,-0.5 696.5,-0.5"/>
<text text-anchor="middle" x="724" y="-7.5" font-family="Helvetica,sans-Serif" font-size="10.00">crtdefs.h</text>
</g>
<!-- Node13&#45;&gt;Node14 -->
<g id="edge13" class="edge"><title>Node13&#45;&gt;Node14</title>
<path fill="none" stroke="midnightblue" d="M753.22,-56.083C748.328,-48.5341 741.173,-37.4948 735.167,-28.2298"/>
<polygon fill="midnightblue" stroke="midnightblue" points="738.048,-26.239 729.672,-19.7511 732.174,-30.0463 738.048,-26.239"/>
</g>
<!-- Node15 -->
<g id="node15" class="node"><title>Node15</title>
<polygon fill="white" stroke="#bfbfbf" points="770,-0.5 770,-19.5 818,-19.5 818,-0.5 770,-0.5"/>
<text text-anchor="middle" x="794" y="-7.5" font-family="Helvetica,sans-Serif" font-size="10.00">limits.h</text>
</g>
<!-- Node13&#45;&gt;Node15 -->
<g id="edge14" class="edge"><title>Node13&#45;&gt;Node15</title>
<path fill="none" stroke="midnightblue" d="M764.78,-56.083C769.672,-48.5341 776.827,-37.4948 782.833,-28.2298"/>
<polygon fill="midnightblue" stroke="midnightblue" points="785.826,-30.0463 788.328,-19.7511 779.952,-26.239 785.826,-30.0463"/>
</g>
<!-- Node18&#45;&gt;Node13 -->
<g id="edge18" class="edge"><title>Node18&#45;&gt;Node13</title>
<path fill="none" stroke="midnightblue" d="M918.823,-114.161C887.175,-104.822 830.19,-88.0069 793.509,-77.183"/>
<polygon fill="midnightblue" stroke="midnightblue" points="794.321,-73.7736 783.74,-74.3002 792.34,-80.4874 794.321,-73.7736"/>
</g>
<!-- Node19 -->
<g id="node19" class="node"><title>Node19</title>
<g id="a_node19"><a xlink:href="x265__config_8h.html" target="_top" xlink:title="x265_config.h">
<polygon fill="white" stroke="black" points="903.5,-56.5 903.5,-75.5 980.5,-75.5 980.5,-56.5 903.5,-56.5"/>
<text text-anchor="middle" x="942" y="-63.5" font-family="Helvetica,sans-Serif" font-size="10.00">x265_config.h</text>
</a>
</g>
</g>
<!-- Node18&#45;&gt;Node19 -->
<g id="edge19" class="edge"><title>Node18&#45;&gt;Node19</title>
<path fill="none" stroke="midnightblue" d="M942,-112.083C942,-105.006 942,-94.8611 942,-85.9865"/>
<polygon fill="midnightblue" stroke="midnightblue" points="945.5,-85.751 942,-75.7511 938.5,-85.7511 945.5,-85.751"/>
</g>
<!-- Node20&#45;&gt;Node2 -->
<g id="edge21" class="edge"><title>Node20&#45;&gt;Node2</title>
<path fill="none" stroke="midnightblue" d="M835.269,-131.575C834.507,-131.719 833.75,-131.861 833,-132 746.11,-148.117 643.331,-163.908 587.249,-171.799"/>
<polygon fill="midnightblue" stroke="midnightblue" points="586.757,-168.334 577.335,-173.179 587.722,-175.267 586.757,-168.334"/>
</g>
</g>
</svg>
