<?xml version="1.0" encoding="UTF-8" standalone="no"?>
<!DOCTYPE svg PUBLIC "-//W3C//DTD SVG 1.1//EN"
 "http://www.w3.org/Graphics/SVG/1.1/DTD/svg11.dtd">
<!-- Generated by graphviz version 2.36.0 (20140111.2315)
 -->
<!-- Title: source/common/md5.h Pages: 1 -->
<!--zoomable 196 -->
<svg id="main" version="1.1" xmlns="http://www.w3.org/2000/svg" xmlns:xlink="http://www.w3.org/1999/xlink" xml:space="preserve" onload="init(evt)">
<style type="text/css"><![CDATA[
.edge:hover path { stroke: red; }
.edge:hover polygon { stroke: red; fill: red; }
]]></style>
<script type="text/javascript"><![CDATA[
var edges = document.getElementsByTagName('g');
if (edges && edges.length) {
  for (var i=0;i<edges.length;i++) {
    if (edges[i].id.substr(0,4)=='edge') {
      edges[i].setAttribute('class','edge');
    }
  }
}
]]></script>
        <defs>
                <circle id="rim" cx="0" cy="0" r="7"/>
                <circle id="rim2" cx="0" cy="0" r="3.5"/>
                <g id="zoomPlus">
                        <use xlink:href="#rim" fill="#404040">
                                <set attributeName="fill" to="#808080" begin="zoomplus.mouseover" end="zoomplus.mouseout"/>
                        </use>
                        <path d="M-4,0h8M0,-4v8" fill="none" stroke="white" stroke-width="1.5" pointer-events="none"/>
                </g>
                <g id="zoomMin">
                        <use xlink:href="#rim" fill="#404040">
                                <set attributeName="fill" to="#808080" begin="zoomminus.mouseover" end="zoomminus.mouseout"/>
                        </use>
                        <path d="M-4,0h8" fill="none" stroke="white" stroke-width="1.5" pointer-events="none"/>
                </g>
                <g id="dirArrow">
                        <path fill="none" stroke="white" stroke-width="1.5" d="M0,-3.0v7 M-2.5,-0.5L0,-3.0L2.5,-0.5"/>
                </g>
               <g id="resetDef">
                       <use xlink:href="#rim2" fill="#404040">
                               <set attributeName="fill" to="#808080" begin="reset.mouseover" end="reset.mouseout"/>
                       </use>
               </g>
        </defs>

<script type="text/javascript">
var viewWidth = 3113;
var viewHeight = 196;
var sectionId = 'dynsection-1';
</script>
<script xlink:href="svgpan.js"/>
<svg id="graph" class="graph">
<g id="viewport">
<title>source/common/md5.h</title>
<polygon fill="white" stroke="none" points="-4,4 -4,-192 3109,-192 3109,4 -4,4"/>
<!-- Node1 -->
<g id="node1" class="node"><title>Node1</title>
<polygon fill="#bfbfbf" stroke="black" points="2311,-168.5 2311,-187.5 2427,-187.5 2427,-168.5 2311,-168.5"/>
<text text-anchor="middle" x="2369" y="-175.5" font-family="Helvetica,sans-Serif" font-size="10.00">source/common/md5.h</text>
</g>
<!-- Node2 -->
<g id="node2" class="node"><title>Node2</title>
<g id="a_node2"><a xlink:href="picyuv_8h.html" target="_top" xlink:title="source/common/picyuv.h">
<polygon fill="white" stroke="black" points="1548,-112.5 1548,-131.5 1674,-131.5 1674,-112.5 1548,-112.5"/>
<text text-anchor="middle" x="1611" y="-119.5" font-family="Helvetica,sans-Serif" font-size="10.00">source/common/picyuv.h</text>
</a>
</g>
</g>
<!-- Node1&#45;&gt;Node2 -->
<g id="edge1" class="edge"><title>Node1&#45;&gt;Node2</title>
<path fill="none" stroke="midnightblue" d="M2300.62,-172.129C2154.83,-161.743 1815.24,-137.55 1674.18,-127.501"/>
<polygon fill="midnightblue" stroke="midnightblue" points="2300.56,-175.633 2310.78,-172.852 2301.05,-168.651 2300.56,-175.633"/>
</g>
<!-- Node15 -->
<g id="node15" class="node"><title>Node15</title>
<g id="a_node15"><a xlink:href="frameencoder_8h.html" target="_top" xlink:title="source/encoder/frameencoder.h">
<polygon fill="white" stroke="black" points="2867,-56.5 2867,-75.5 3021,-75.5 3021,-56.5 2867,-56.5"/>
<text text-anchor="middle" x="2944" y="-63.5" font-family="Helvetica,sans-Serif" font-size="10.00">source/encoder/frameencoder.h</text>
</a>
</g>
</g>
<!-- Node1&#45;&gt;Node15 -->
<g id="edge26" class="edge"><title>Node1&#45;&gt;Node15</title>
<path fill="none" stroke="midnightblue" d="M2353.79,-160.733C2342.21,-146.38 2330.25,-125.673 2343,-112 2382.04,-70.1271 2799.96,-80.9462 2857,-76 2860.18,-75.7245 2863.42,-75.4336 2866.69,-75.1318"/>
<polygon fill="midnightblue" stroke="midnightblue" points="2351.18,-163.072 2360.37,-168.349 2356.48,-158.495 2351.18,-163.072"/>
</g>
<!-- Node25 -->
<g id="node25" class="node"><title>Node25</title>
<g id="a_node25"><a xlink:href="md5_8cpp.html" target="_top" xlink:title="source/common/md5.cpp">
<polygon fill="white" stroke="black" points="2351.5,-112.5 2351.5,-131.5 2478.5,-131.5 2478.5,-112.5 2351.5,-112.5"/>
<text text-anchor="middle" x="2415" y="-119.5" font-family="Helvetica,sans-Serif" font-size="10.00">source/common/md5.cpp</text>
</a>
</g>
</g>
<!-- Node1&#45;&gt;Node25 -->
<g id="edge25" class="edge"><title>Node1&#45;&gt;Node25</title>
<path fill="none" stroke="midnightblue" d="M2383.11,-160.431C2391.18,-150.967 2400.96,-139.483 2407.55,-131.751"/>
<polygon fill="midnightblue" stroke="midnightblue" points="2380.42,-158.201 2376.6,-168.083 2385.75,-162.74 2380.42,-158.201"/>
</g>
<!-- Node26 -->
<g id="node26" class="node"><title>Node26</title>
<g id="a_node26"><a xlink:href="testpool_8cpp.html" target="_top" xlink:title="source/test/testpool.cpp">
<polygon fill="white" stroke="black" points="2497,-112.5 2497,-131.5 2619,-131.5 2619,-112.5 2497,-112.5"/>
<text text-anchor="middle" x="2558" y="-119.5" font-family="Helvetica,sans-Serif" font-size="10.00">source/test/testpool.cpp</text>
</a>
</g>
</g>
<!-- Node1&#45;&gt;Node26 -->
<g id="edge27" class="edge"><title>Node1&#45;&gt;Node26</title>
<path fill="none" stroke="midnightblue" d="M2409.01,-165.568C2444.67,-155.381 2496.04,-140.703 2528.19,-131.516"/>
<polygon fill="midnightblue" stroke="midnightblue" points="2407.6,-162.331 2398.95,-168.444 2409.52,-169.062 2407.6,-162.331"/>
</g>
<!-- Node3 -->
<g id="node3" class="node"><title>Node3</title>
<g id="a_node3"><a xlink:href="cudata_8cpp.html" target="_top" xlink:title="source/common/cudata.cpp">
<polygon fill="white" stroke="black" points="-0.5,-56.5 -0.5,-75.5 136.5,-75.5 136.5,-56.5 -0.5,-56.5"/>
<text text-anchor="middle" x="68" y="-63.5" font-family="Helvetica,sans-Serif" font-size="10.00">source/common/cudata.cpp</text>
</a>
</g>
</g>
<!-- Node2&#45;&gt;Node3 -->
<g id="edge2" class="edge"><title>Node2&#45;&gt;Node3</title>
<path fill="none" stroke="midnightblue" d="M1537.52,-120.927C1322.96,-120.244 678.791,-114.851 146,-76 143.009,-75.7819 139.956,-75.5348 136.874,-75.2653"/>
<polygon fill="midnightblue" stroke="midnightblue" points="1537.71,-124.428 1547.72,-120.957 1537.73,-117.428 1537.71,-124.428"/>
</g>
<!-- Node4 -->
<g id="node4" class="node"><title>Node4</title>
<g id="a_node4"><a xlink:href="deblock_8cpp.html" target="_top" xlink:title="source/common/deblock.cpp">
<polygon fill="white" stroke="black" points="155,-56.5 155,-75.5 297,-75.5 297,-56.5 155,-56.5"/>
<text text-anchor="middle" x="226" y="-63.5" font-family="Helvetica,sans-Serif" font-size="10.00">source/common/deblock.cpp</text>
</a>
</g>
</g>
<!-- Node2&#45;&gt;Node4 -->
<g id="edge3" class="edge"><title>Node2&#45;&gt;Node4</title>
<path fill="none" stroke="midnightblue" d="M1537.74,-120.464C1339.21,-118.581 774.34,-110.367 306,-76 303.073,-75.7852 300.088,-75.5451 297.073,-75.2852"/>
<polygon fill="midnightblue" stroke="midnightblue" points="1537.72,-123.964 1547.76,-120.556 1537.79,-116.964 1537.72,-123.964"/>
</g>
<!-- Node5 -->
<g id="node5" class="node"><title>Node5</title>
<g id="a_node5"><a xlink:href="frame_8cpp.html" target="_top" xlink:title="source/common/frame.cpp">
<polygon fill="white" stroke="black" points="315.5,-56.5 315.5,-75.5 448.5,-75.5 448.5,-56.5 315.5,-56.5"/>
<text text-anchor="middle" x="382" y="-63.5" font-family="Helvetica,sans-Serif" font-size="10.00">source/common/frame.cpp</text>
</a>
</g>
</g>
<!-- Node2&#45;&gt;Node5 -->
<g id="edge4" class="edge"><title>Node2&#45;&gt;Node5</title>
<path fill="none" stroke="midnightblue" d="M1537.76,-120.144C1355.17,-117.575 865.199,-108.007 458,-76 454.953,-75.7605 451.841,-75.4915 448.699,-75.2"/>
<polygon fill="midnightblue" stroke="midnightblue" points="1537.73,-123.644 1547.78,-120.282 1537.83,-116.645 1537.73,-123.644"/>
</g>
<!-- Node6 -->
<g id="node6" class="node"><title>Node6</title>
<g id="a_node6"><a xlink:href="framedata_8cpp.html" target="_top" xlink:title="source/common/framedata.cpp">
<polygon fill="white" stroke="black" points="467,-56.5 467,-75.5 619,-75.5 619,-56.5 467,-56.5"/>
<text text-anchor="middle" x="543" y="-63.5" font-family="Helvetica,sans-Serif" font-size="10.00">source/common/framedata.cpp</text>
</a>
</g>
</g>
<!-- Node2&#45;&gt;Node6 -->
<g id="edge5" class="edge"><title>Node2&#45;&gt;Node6</title>
<path fill="none" stroke="midnightblue" d="M1537.54,-119.137C1373.97,-114.661 967.423,-101.715 628,-76 625.189,-75.787 622.326,-75.556 619.436,-75.311"/>
<polygon fill="midnightblue" stroke="midnightblue" points="1537.87,-122.648 1547.96,-119.42 1538.06,-115.65 1537.87,-122.648"/>
</g>
<!-- Node7 -->
<g id="node7" class="node"><title>Node7</title>
<g id="a_node7"><a xlink:href="lowres_8cpp.html" target="_top" xlink:title="source/common/lowres.cpp">
<polygon fill="white" stroke="black" points="637.5,-56.5 637.5,-75.5 774.5,-75.5 774.5,-56.5 637.5,-56.5"/>
<text text-anchor="middle" x="706" y="-63.5" font-family="Helvetica,sans-Serif" font-size="10.00">source/common/lowres.cpp</text>
</a>
</g>
</g>
<!-- Node2&#45;&gt;Node7 -->
<g id="edge6" class="edge"><title>Node2&#45;&gt;Node7</title>
<path fill="none" stroke="midnightblue" d="M1537.72,-118.546C1393.19,-113.367 1061.23,-99.7974 783,-76 780.318,-75.7706 777.585,-75.5221 774.826,-75.2589"/>
<polygon fill="midnightblue" stroke="midnightblue" points="1537.69,-122.047 1547.8,-118.904 1537.93,-115.051 1537.69,-122.047"/>
</g>
<!-- Node8 -->
<g id="node8" class="node"><title>Node8</title>
<g id="a_node8"><a xlink:href="picyuv_8cpp.html" target="_top" xlink:title="source/common/picyuv.cpp">
<polygon fill="white" stroke="black" points="792.5,-56.5 792.5,-75.5 929.5,-75.5 929.5,-56.5 792.5,-56.5"/>
<text text-anchor="middle" x="861" y="-63.5" font-family="Helvetica,sans-Serif" font-size="10.00">source/common/picyuv.cpp</text>
</a>
</g>
</g>
<!-- Node2&#45;&gt;Node8 -->
<g id="edge7" class="edge"><title>Node2&#45;&gt;Node8</title>
<path fill="none" stroke="midnightblue" d="M1537.71,-117.292C1413.96,-110.765 1155.77,-95.995 938,-76 935.319,-75.7539 932.588,-75.4913 929.829,-75.2163"/>
<polygon fill="midnightblue" stroke="midnightblue" points="1537.65,-120.794 1547.82,-117.823 1538.02,-113.804 1537.65,-120.794"/>
</g>
<!-- Node9 -->
<g id="node9" class="node"><title>Node9</title>
<g id="a_node9"><a xlink:href="predict_8cpp.html" target="_top" xlink:title="source/common/predict.cpp">
<polygon fill="white" stroke="black" points="947.5,-56.5 947.5,-75.5 1084.5,-75.5 1084.5,-56.5 947.5,-56.5"/>
<text text-anchor="middle" x="1016" y="-63.5" font-family="Helvetica,sans-Serif" font-size="10.00">source/common/predict.cpp</text>
</a>
</g>
</g>
<!-- Node2&#45;&gt;Node9 -->
<g id="edge8" class="edge"><title>Node2&#45;&gt;Node9</title>
<path fill="none" stroke="midnightblue" d="M1537.65,-115.267C1437.38,-107.282 1251.94,-91.9825 1094,-76 1091.02,-75.6981 1087.97,-75.3816 1084.89,-75.0552"/>
<polygon fill="midnightblue" stroke="midnightblue" points="1537.43,-118.76 1547.67,-116.064 1537.98,-111.782 1537.43,-118.76"/>
</g>
<!-- Node10 -->
<g id="node10" class="node"><title>Node10</title>
<g id="a_node10"><a xlink:href="slice_8cpp.html" target="_top" xlink:title="source/common/slice.cpp">
<polygon fill="white" stroke="black" points="1103,-56.5 1103,-75.5 1231,-75.5 1231,-56.5 1103,-56.5"/>
<text text-anchor="middle" x="1167" y="-63.5" font-family="Helvetica,sans-Serif" font-size="10.00">source/common/slice.cpp</text>
</a>
</g>
</g>
<!-- Node2&#45;&gt;Node10 -->
<g id="edge9" class="edge"><title>Node2&#45;&gt;Node10</title>
<path fill="none" stroke="midnightblue" d="M1537.72,-112.155C1462.88,-103.111 1343.34,-88.6369 1240,-76 1237.08,-75.6435 1234.1,-75.2784 1231.09,-74.9091"/>
<polygon fill="midnightblue" stroke="midnightblue" points="1537.63,-115.669 1547.98,-113.394 1538.47,-108.72 1537.63,-115.669"/>
</g>
<!-- Node11 -->
<g id="node11" class="node"><title>Node11</title>
<g id="a_node11"><a xlink:href="common_2yuv_8cpp.html" target="_top" xlink:title="source/common/yuv.cpp">
<polygon fill="white" stroke="black" points="1249,-56.5 1249,-75.5 1373,-75.5 1373,-56.5 1249,-56.5"/>
<text text-anchor="middle" x="1311" y="-63.5" font-family="Helvetica,sans-Serif" font-size="10.00">source/common/yuv.cpp</text>
</a>
</g>
</g>
<!-- Node2&#45;&gt;Node11 -->
<g id="edge10" class="edge"><title>Node2&#45;&gt;Node11</title>
<path fill="none" stroke="midnightblue" d="M1553.58,-110.664C1496.88,-100.459 1411.21,-85.0386 1358.31,-75.5164"/>
<polygon fill="midnightblue" stroke="midnightblue" points="1553,-114.117 1563.46,-112.444 1554.24,-107.227 1553,-114.117"/>
</g>
<!-- Node12 -->
<g id="node12" class="node"><title>Node12</title>
<g id="a_node12"><a xlink:href="analysis_8cpp.html" target="_top" xlink:title="source/encoder/analysis.cpp">
<polygon fill="white" stroke="black" points="1391.5,-56.5 1391.5,-75.5 1532.5,-75.5 1532.5,-56.5 1391.5,-56.5"/>
<text text-anchor="middle" x="1462" y="-63.5" font-family="Helvetica,sans-Serif" font-size="10.00">source/encoder/analysis.cpp</text>
</a>
</g>
</g>
<!-- Node2&#45;&gt;Node12 -->
<g id="edge11" class="edge"><title>Node2&#45;&gt;Node12</title>
<path fill="none" stroke="midnightblue" d="M1577.63,-108.906C1549.62,-98.7536 1510.3,-84.5063 1485.5,-75.5164"/>
<polygon fill="midnightblue" stroke="midnightblue" points="1576.8,-112.327 1587.39,-112.444 1579.18,-105.746 1576.8,-112.327"/>
</g>
<!-- Node13 -->
<g id="node13" class="node"><title>Node13</title>
<g id="a_node13"><a xlink:href="dpb_8cpp.html" target="_top" xlink:title="source/encoder/dpb.cpp">
<polygon fill="white" stroke="black" points="1550.5,-56.5 1550.5,-75.5 1671.5,-75.5 1671.5,-56.5 1550.5,-56.5"/>
<text text-anchor="middle" x="1611" y="-63.5" font-family="Helvetica,sans-Serif" font-size="10.00">source/encoder/dpb.cpp</text>
</a>
</g>
</g>
<!-- Node2&#45;&gt;Node13 -->
<g id="edge12" class="edge"><title>Node2&#45;&gt;Node13</title>
<path fill="none" stroke="midnightblue" d="M1611,-101.805C1611,-92.9102 1611,-82.7798 1611,-75.7511"/>
<polygon fill="midnightblue" stroke="midnightblue" points="1607.5,-102.083 1611,-112.083 1614.5,-102.083 1607.5,-102.083"/>
</g>
<!-- Node14 -->
<g id="node14" class="node"><title>Node14</title>
<g id="a_node14"><a xlink:href="encoder_8cpp.html" target="_top" xlink:title="source/encoder/encoder.cpp">
<polygon fill="white" stroke="black" points="2167,-0.5 2167,-19.5 2307,-19.5 2307,-0.5 2167,-0.5"/>
<text text-anchor="middle" x="2237" y="-7.5" font-family="Helvetica,sans-Serif" font-size="10.00">source/encoder/encoder.cpp</text>
</a>
</g>
</g>
<!-- Node2&#45;&gt;Node14 -->
<g id="edge13" class="edge"><title>Node2&#45;&gt;Node14</title>
<path fill="none" stroke="midnightblue" d="M1632.18,-106.671C1658.18,-89.3645 1701.03,-61.8386 1719,-56 1800.34,-29.565 2045.1,-17.6086 2166.76,-13.1806"/>
<polygon fill="midnightblue" stroke="midnightblue" points="1630.12,-103.841 1623.75,-112.314 1634.01,-109.657 1630.12,-103.841"/>
</g>
<!-- Node2&#45;&gt;Node15 -->
<g id="edge14" class="edge"><title>Node2&#45;&gt;Node15</title>
<path fill="none" stroke="midnightblue" d="M1684.57,-120.062C1877.27,-117.234 2412.52,-106.982 2857,-76 2860.18,-75.7783 2863.43,-75.5324 2866.7,-75.2677"/>
<polygon fill="midnightblue" stroke="midnightblue" points="1684.24,-116.567 1674.29,-120.211 1684.34,-123.566 1684.24,-116.567"/>
</g>
<!-- Node18 -->
<g id="node18" class="node"><title>Node18</title>
<g id="a_node18"><a xlink:href="entropy_8cpp.html" target="_top" xlink:title="source/encoder/entropy.cpp">
<polygon fill="white" stroke="black" points="1728.5,-56.5 1728.5,-75.5 1865.5,-75.5 1865.5,-56.5 1728.5,-56.5"/>
<text text-anchor="middle" x="1797" y="-63.5" font-family="Helvetica,sans-Serif" font-size="10.00">source/encoder/entropy.cpp</text>
</a>
</g>
</g>
<!-- Node2&#45;&gt;Node18 -->
<g id="edge18" class="edge"><title>Node2&#45;&gt;Node18</title>
<path fill="none" stroke="midnightblue" d="M1650.38,-109.568C1685.47,-99.381 1736.02,-84.7034 1767.67,-75.5164"/>
<polygon fill="midnightblue" stroke="midnightblue" points="1649.1,-106.294 1640.47,-112.444 1651.05,-113.017 1649.1,-106.294"/>
</g>
<!-- Node19 -->
<g id="node19" class="node"><title>Node19</title>
<g id="a_node19"><a xlink:href="ratecontrol_8cpp.html" target="_top" xlink:title="source/encoder/ratecontrol.cpp">
<polygon fill="white" stroke="black" points="1883.5,-56.5 1883.5,-75.5 2034.5,-75.5 2034.5,-56.5 1883.5,-56.5"/>
<text text-anchor="middle" x="1959" y="-63.5" font-family="Helvetica,sans-Serif" font-size="10.00">source/encoder/ratecontrol.cpp</text>
</a>
</g>
</g>
<!-- Node2&#45;&gt;Node19 -->
<g id="edge19" class="edge"><title>Node2&#45;&gt;Node19</title>
<path fill="none" stroke="midnightblue" d="M1676.39,-110.854C1742.14,-100.651 1842.37,-85.0977 1904.12,-75.5164"/>
<polygon fill="midnightblue" stroke="midnightblue" points="1675.49,-107.451 1666.14,-112.444 1676.56,-114.369 1675.49,-107.451"/>
</g>
<!-- Node20 -->
<g id="node20" class="node"><title>Node20</title>
<g id="a_node20"><a xlink:href="reference_8cpp.html" target="_top" xlink:title="source/encoder/reference.cpp">
<polygon fill="white" stroke="black" points="2053,-56.5 2053,-75.5 2199,-75.5 2199,-56.5 2053,-56.5"/>
<text text-anchor="middle" x="2126" y="-63.5" font-family="Helvetica,sans-Serif" font-size="10.00">source/encoder/reference.cpp</text>
</a>
</g>
</g>
<!-- Node2&#45;&gt;Node20 -->
<g id="edge20" class="edge"><title>Node2&#45;&gt;Node20</title>
<path fill="none" stroke="midnightblue" d="M1684.51,-113.438C1770.48,-104.572 1917.09,-89.3847 2043,-76 2046.17,-75.6629 2049.41,-75.3173 2052.68,-74.9672"/>
<polygon fill="midnightblue" stroke="midnightblue" points="1683.92,-109.981 1674.33,-114.488 1684.63,-116.944 1683.92,-109.981"/>
</g>
<!-- Node21 -->
<g id="node21" class="node"><title>Node21</title>
<g id="a_node21"><a xlink:href="sao_8cpp.html" target="_top" xlink:title="source/encoder/sao.cpp">
<polygon fill="white" stroke="black" points="2217.5,-56.5 2217.5,-75.5 2338.5,-75.5 2338.5,-56.5 2217.5,-56.5"/>
<text text-anchor="middle" x="2278" y="-63.5" font-family="Helvetica,sans-Serif" font-size="10.00">source/encoder/sao.cpp</text>
</a>
</g>
</g>
<!-- Node2&#45;&gt;Node21 -->
<g id="edge21" class="edge"><title>Node2&#45;&gt;Node21</title>
<path fill="none" stroke="midnightblue" d="M1684.51,-116.708C1797.29,-109.842 2019.74,-95.1847 2208,-76 2211.05,-75.6895 2214.17,-75.3537 2217.32,-75.0007"/>
<polygon fill="midnightblue" stroke="midnightblue" points="1684.05,-113.23 1674.28,-117.329 1684.47,-120.217 1684.05,-113.23"/>
</g>
<!-- Node22 -->
<g id="node22" class="node"><title>Node22</title>
<g id="a_node22"><a xlink:href="search_8cpp.html" target="_top" xlink:title="source/encoder/search.cpp">
<polygon fill="white" stroke="black" points="2357,-56.5 2357,-75.5 2491,-75.5 2491,-56.5 2357,-56.5"/>
<text text-anchor="middle" x="2424" y="-63.5" font-family="Helvetica,sans-Serif" font-size="10.00">source/encoder/search.cpp</text>
</a>
</g>
</g>
<!-- Node2&#45;&gt;Node22 -->
<g id="edge22" class="edge"><title>Node2&#45;&gt;Node22</title>
<path fill="none" stroke="midnightblue" d="M1684.12,-117.871C1816.51,-111.906 2104.66,-97.5543 2347,-76 2350.22,-75.7138 2353.51,-75.4022 2356.83,-75.0724"/>
<polygon fill="midnightblue" stroke="midnightblue" points="1683.93,-114.376 1674.1,-118.32 1684.24,-121.369 1683.93,-114.376"/>
</g>
<!-- Node23 -->
<g id="node23" class="node"><title>Node23</title>
<g id="a_node23"><a xlink:href="slicetype_8cpp.html" target="_top" xlink:title="source/encoder/slicetype.cpp">
<polygon fill="white" stroke="black" points="2509,-56.5 2509,-75.5 2653,-75.5 2653,-56.5 2509,-56.5"/>
<text text-anchor="middle" x="2581" y="-63.5" font-family="Helvetica,sans-Serif" font-size="10.00">source/encoder/slicetype.cpp</text>
</a>
</g>
</g>
<!-- Node2&#45;&gt;Node23 -->
<g id="edge23" class="edge"><title>Node2&#45;&gt;Node23</title>
<path fill="none" stroke="midnightblue" d="M1684.3,-118.781C1836.48,-113.845 2197.72,-100.422 2500,-76 2502.82,-75.7721 2505.69,-75.5249 2508.6,-75.2628"/>
<polygon fill="midnightblue" stroke="midnightblue" points="1684.02,-115.288 1674.14,-119.108 1684.25,-122.284 1684.02,-115.288"/>
</g>
<!-- Node24 -->
<g id="node24" class="node"><title>Node24</title>
<g id="a_node24"><a xlink:href="weightPrediction_8cpp.html" target="_top" xlink:title="source/encoder/weightPrediction.cpp">
<polygon fill="white" stroke="black" points="2671.5,-56.5 2671.5,-75.5 2848.5,-75.5 2848.5,-56.5 2671.5,-56.5"/>
<text text-anchor="middle" x="2760" y="-63.5" font-family="Helvetica,sans-Serif" font-size="10.00">source/encoder/weightPrediction.cpp</text>
</a>
</g>
</g>
<!-- Node2&#45;&gt;Node24 -->
<g id="edge24" class="edge"><title>Node2&#45;&gt;Node24</title>
<path fill="none" stroke="midnightblue" d="M1684.3,-119.092C1855.56,-114.366 2295.26,-100.677 2662,-76 2665.07,-75.7935 2668.19,-75.5716 2671.34,-75.3374"/>
<polygon fill="midnightblue" stroke="midnightblue" points="1684.04,-115.598 1674.14,-119.371 1684.23,-122.595 1684.04,-115.598"/>
</g>
<!-- Node15&#45;&gt;Node14 -->
<g id="edge15" class="edge"><title>Node15&#45;&gt;Node14</title>
<path fill="none" stroke="midnightblue" d="M2856.57,-55.9909C2650.28,-37.9709 2420.41,-22.6311 2307.26,-15.3959"/>
<polygon fill="midnightblue" stroke="midnightblue" points="2856.42,-59.4909 2866.69,-56.8784 2857.03,-52.5177 2856.42,-59.4909"/>
</g>
<!-- Node16 -->
<g id="node16" class="node"><title>Node16</title>
<g id="a_node16"><a xlink:href="frameencoder_8cpp.html" target="_top" xlink:title="source/encoder/frameencoder.cpp">
<polygon fill="white" stroke="black" points="2774,-0.5 2774,-19.5 2938,-19.5 2938,-0.5 2774,-0.5"/>
<text text-anchor="middle" x="2856" y="-7.5" font-family="Helvetica,sans-Serif" font-size="10.00">source/encoder/frameencoder.cpp</text>
</a>
</g>
</g>
<!-- Node15&#45;&gt;Node16 -->
<g id="edge16" class="edge"><title>Node15&#45;&gt;Node16</title>
<path fill="none" stroke="midnightblue" d="M2921.02,-50.9005C2904.89,-40.9986 2883.82,-28.0705 2870.1,-19.6545"/>
<polygon fill="midnightblue" stroke="midnightblue" points="2919.51,-54.0769 2929.86,-56.324 2923.17,-48.1106 2919.51,-54.0769"/>
</g>
<!-- Node17 -->
<g id="node17" class="node"><title>Node17</title>
<g id="a_node17"><a xlink:href="framefilter_8cpp.html" target="_top" xlink:title="source/encoder/framefilter.cpp">
<polygon fill="white" stroke="black" points="2956.5,-0.5 2956.5,-19.5 3105.5,-19.5 3105.5,-0.5 2956.5,-0.5"/>
<text text-anchor="middle" x="3031" y="-7.5" font-family="Helvetica,sans-Serif" font-size="10.00">source/encoder/framefilter.cpp</text>
</a>
</g>
</g>
<!-- Node15&#45;&gt;Node17 -->
<g id="edge17" class="edge"><title>Node15&#45;&gt;Node17</title>
<path fill="none" stroke="midnightblue" d="M2966.72,-50.9005C2982.67,-40.9986 3003.5,-28.0705 3017.06,-19.6545"/>
<polygon fill="midnightblue" stroke="midnightblue" points="2964.63,-48.0765 2957.98,-56.324 2968.32,-54.024 2964.63,-48.0765"/>
</g>
</g>
</svg>
        <g id="navigator" transform="translate(0 0)" fill="#404254">
                <rect fill="#f2f5e9" fill-opacity="0.5" stroke="#606060" stroke-width=".5" x="0" y="0" width="60" height="60"/>
                <use id="zoomplus" xlink:href="#zoomPlus" x="17" y="9" onmousedown="handleZoom(evt,'in')"/>
                <use id="zoomminus" xlink:href="#zoomMin" x="42" y="9" onmousedown="handleZoom(evt,'out')"/>
                <use id="reset" xlink:href="#resetDef" x="30" y="36" onmousedown="handleReset()"/>
                <g id="arrowUp" xlink:href="#dirArrow" transform="translate(30 24)" onmousedown="handlePan(0,-1)">
                  <use xlink:href="#rim" fill="#404040">
                        <set attributeName="fill" to="#808080" begin="arrowUp.mouseover" end="arrowUp.mouseout"/>
                  </use>
                  <path fill="none" stroke="white" stroke-width="1.5" d="M0,-3.0v7 M-2.5,-0.5L0,-3.0L2.5,-0.5"/>
                </g>
                <g id="arrowRight" xlink:href="#dirArrow" transform="rotate(90) translate(36 -43)" onmousedown="handlePan(1,0)">
                  <use xlink:href="#rim" fill="#404040">
                        <set attributeName="fill" to="#808080" begin="arrowRight.mouseover" end="arrowRight.mouseout"/>
                  </use>
                  <path fill="none" stroke="white" stroke-width="1.5" d="M0,-3.0v7 M-2.5,-0.5L0,-3.0L2.5,-0.5"/>
                </g>
                <g id="arrowDown" xlink:href="#dirArrow" transform="rotate(180) translate(-30 -48)" onmousedown="handlePan(0,1)">
                  <use xlink:href="#rim" fill="#404040">
                        <set attributeName="fill" to="#808080" begin="arrowDown.mouseover" end="arrowDown.mouseout"/>
                  </use>
                  <path fill="none" stroke="white" stroke-width="1.5" d="M0,-3.0v7 M-2.5,-0.5L0,-3.0L2.5,-0.5"/>
                </g>
                <g id="arrowLeft" xlink:href="#dirArrow" transform="rotate(270) translate(-36 17)" onmousedown="handlePan(-1,0)">
                  <use xlink:href="#rim" fill="#404040">
                        <set attributeName="fill" to="#808080" begin="arrowLeft.mouseover" end="arrowLeft.mouseout"/>
                  </use>
                  <path fill="none" stroke="white" stroke-width="1.5" d="M0,-3.0v7 M-2.5,-0.5L0,-3.0L2.5,-0.5"/>
                </g>
        </g>
        <svg viewBox="0 0 15 15" width="100%" height="30px" preserveAspectRatio="xMaxYMin meet">
         <g id="arrow_out" transform="scale(0.3 0.3)">
          <a xlink:href="md5_8h__dep__incl_org.svg" target="_base">
           <rect id="button" ry="5" rx="5" y="6" x="6" height="38" width="38"
                fill="#f2f5e9" fill-opacity="0.5" stroke="#606060" stroke-width="1.0"/>
           <path id="arrow"
             d="M 11.500037,31.436501 C 11.940474,20.09759 22.043105,11.32322 32.158766,21.979434 L 37.068811,17.246167 C 37.068811,17.246167 37.088388,32 37.088388,32 L 22.160133,31.978069 C 22.160133,31.978069 26.997745,27.140456 26.997745,27.140456 C 18.528582,18.264221 13.291696,25.230495 11.500037,31.436501 z"
             style="fill:#404040;"/>
          </a>
         </g>
        </svg>
</svg>
