<?xml version="1.0" encoding="UTF-8" standalone="no"?>
<!DOCTYPE svg PUBLIC "-//W3C//DTD SVG 1.1//EN"
 "http://www.w3.org/Graphics/SVG/1.1/DTD/svg11.dtd">
<!-- Generated by graphviz version 2.36.0 (20140111.2315)
 -->
<!-- Title: source/common/mv.h Pages: 1 -->
<svg width="2433pt" height="476pt"
 viewBox="0.00 0.00 2433.00 476.00" xmlns="http://www.w3.org/2000/svg" xmlns:xlink="http://www.w3.org/1999/xlink">
<g id="graph0" class="graph" transform="scale(1 1) rotate(0) translate(4 472)">
<title>source/common/mv.h</title>
<polygon fill="white" stroke="none" points="-4,4 -4,-472 2429,-472 2429,4 -4,4"/>
<!-- Node1 -->
<g id="node1" class="node"><title>Node1</title>
<polygon fill="#bfbfbf" stroke="black" points="1790.5,-448.5 1790.5,-467.5 1901.5,-467.5 1901.5,-448.5 1790.5,-448.5"/>
<text text-anchor="middle" x="1846" y="-455.5" font-family="Helvetica,sans-Serif" font-size="10.00">source/common/mv.h</text>
</g>
<!-- Node2 -->
<g id="node2" class="node"><title>Node2</title>
<g id="a_node2"><a xlink:href="cudata_8h.html" target="_top" xlink:title="source/common/cudata.h">
<polygon fill="white" stroke="black" points="356.5,-392.5 356.5,-411.5 483.5,-411.5 483.5,-392.5 356.5,-392.5"/>
<text text-anchor="middle" x="420" y="-399.5" font-family="Helvetica,sans-Serif" font-size="10.00">source/common/cudata.h</text>
</a>
</g>
</g>
<!-- Node1&#45;&gt;Node2 -->
<g id="edge1" class="edge"><title>Node1&#45;&gt;Node2</title>
<path fill="none" stroke="midnightblue" d="M1779.8,-454.493C1540.16,-445.418 719.684,-414.348 483.863,-405.418"/>
<polygon fill="midnightblue" stroke="midnightblue" points="1779.97,-458.002 1790.1,-454.883 1780.24,-451.007 1779.97,-458.002"/>
</g>
<!-- Node5 -->
<g id="node5" class="node"><title>Node5</title>
<g id="a_node5"><a xlink:href="cudata_8cpp.html" target="_top" xlink:title="source/common/cudata.cpp">
<polygon fill="white" stroke="black" points="-0.5,-224.5 -0.5,-243.5 136.5,-243.5 136.5,-224.5 -0.5,-224.5"/>
<text text-anchor="middle" x="68" y="-231.5" font-family="Helvetica,sans-Serif" font-size="10.00">source/common/cudata.cpp</text>
</a>
</g>
</g>
<!-- Node1&#45;&gt;Node5 -->
<g id="edge69" class="edge"><title>Node1&#45;&gt;Node5</title>
<path fill="none" stroke="midnightblue" d="M1779.95,-457.268C1505.31,-458.081 461.506,-458.086 322,-412 211.253,-375.415 105.753,-273.675 76.178,-243.525"/>
<polygon fill="midnightblue" stroke="midnightblue" points="1780.17,-460.767 1790.16,-457.236 1780.15,-453.767 1780.17,-460.767"/>
</g>
<!-- Node6 -->
<g id="node6" class="node"><title>Node6</title>
<g id="a_node6"><a xlink:href="deblock_8cpp.html" target="_top" xlink:title="source/common/deblock.cpp">
<polygon fill="white" stroke="black" points="193,-224.5 193,-243.5 335,-243.5 335,-224.5 193,-224.5"/>
<text text-anchor="middle" x="264" y="-231.5" font-family="Helvetica,sans-Serif" font-size="10.00">source/common/deblock.cpp</text>
</a>
</g>
</g>
<!-- Node1&#45;&gt;Node6 -->
<g id="edge70" class="edge"><title>Node1&#45;&gt;Node6</title>
<path fill="none" stroke="midnightblue" d="M1780.23,-456.935C1498.82,-456.413 407.625,-451.821 347,-412 285.725,-371.753 268.763,-273.414 264.958,-243.666"/>
<polygon fill="midnightblue" stroke="midnightblue" points="1780.28,-460.435 1790.29,-456.952 1780.3,-453.435 1780.28,-460.435"/>
</g>
<!-- Node30 -->
<g id="node30" class="node"><title>Node30</title>
<g id="a_node30"><a xlink:href="slicetype_8cpp.html" target="_top" xlink:title="source/encoder/slicetype.cpp">
<polygon fill="white" stroke="black" points="1815,-168.5 1815,-187.5 1959,-187.5 1959,-168.5 1815,-168.5"/>
<text text-anchor="middle" x="1887" y="-175.5" font-family="Helvetica,sans-Serif" font-size="10.00">source/encoder/slicetype.cpp</text>
</a>
</g>
</g>
<!-- Node1&#45;&gt;Node30 -->
<g id="edge80" class="edge"><title>Node1&#45;&gt;Node30</title>
<path fill="none" stroke="midnightblue" d="M1911.65,-457.277C2055.75,-456.113 2387,-442.998 2387,-347 2387,-347 2387,-347 2387,-289 2387,-245.726 2097.64,-204.632 1959.17,-187.446"/>
<polygon fill="midnightblue" stroke="midnightblue" points="1911.58,-453.777 1901.61,-457.341 1911.63,-460.777 1911.58,-453.777"/>
</g>
<!-- Node31 -->
<g id="node31" class="node"><title>Node31</title>
<g id="a_node31"><a xlink:href="weightPrediction_8cpp.html" target="_top" xlink:title="source/encoder/weightPrediction.cpp">
<polygon fill="white" stroke="black" points="2059.5,-168.5 2059.5,-187.5 2236.5,-187.5 2236.5,-168.5 2059.5,-168.5"/>
<text text-anchor="middle" x="2148" y="-175.5" font-family="Helvetica,sans-Serif" font-size="10.00">source/encoder/weightPrediction.cpp</text>
</a>
</g>
</g>
<!-- Node1&#45;&gt;Node31 -->
<g id="edge81" class="edge"><title>Node1&#45;&gt;Node31</title>
<path fill="none" stroke="midnightblue" d="M1912.21,-455.982C2030.04,-453.364 2270.98,-444.132 2348,-412 2389.33,-394.756 2425,-391.785 2425,-347 2425,-347 2425,-347 2425,-289 2425,-240.038 2273.62,-203.352 2194.68,-187.549"/>
<polygon fill="midnightblue" stroke="midnightblue" points="1911.81,-452.49 1901.89,-456.202 1911.96,-459.488 1911.81,-452.49"/>
</g>
<!-- Node33 -->
<g id="node33" class="node"><title>Node33</title>
<g id="a_node33"><a xlink:href="lowres_8h.html" target="_top" xlink:title="source/common/lowres.h">
<polygon fill="white" stroke="black" points="2054,-392.5 2054,-411.5 2180,-411.5 2180,-392.5 2054,-392.5"/>
<text text-anchor="middle" x="2117" y="-399.5" font-family="Helvetica,sans-Serif" font-size="10.00">source/common/lowres.h</text>
</a>
</g>
</g>
<!-- Node1&#45;&gt;Node33 -->
<g id="edge50" class="edge"><title>Node1&#45;&gt;Node33</title>
<path fill="none" stroke="midnightblue" d="M1898.83,-446.473C1950.04,-436.268 2026.77,-420.979 2074.26,-411.516"/>
<polygon fill="midnightblue" stroke="midnightblue" points="1898.06,-443.057 1888.94,-448.444 1899.43,-449.922 1898.06,-443.057"/>
</g>
<!-- Node34 -->
<g id="node34" class="node"><title>Node34</title>
<g id="a_node34"><a xlink:href="lowres_8cpp.html" target="_top" xlink:title="source/common/lowres.cpp">
<polygon fill="white" stroke="black" points="2221.5,-336.5 2221.5,-355.5 2358.5,-355.5 2358.5,-336.5 2221.5,-336.5"/>
<text text-anchor="middle" x="2290" y="-343.5" font-family="Helvetica,sans-Serif" font-size="10.00">source/common/lowres.cpp</text>
</a>
</g>
</g>
<!-- Node1&#45;&gt;Node34 -->
<g id="edge71" class="edge"><title>Node1&#45;&gt;Node34</title>
<path fill="none" stroke="midnightblue" d="M1911.61,-456.857C1982.18,-454.786 2096.68,-445.818 2189,-412 2225.61,-398.587 2262.63,-370.087 2279.92,-355.698"/>
<polygon fill="midnightblue" stroke="midnightblue" points="1911.43,-453.361 1901.53,-457.115 1911.61,-460.358 1911.43,-453.361"/>
</g>
<!-- Node35 -->
<g id="node35" class="node"><title>Node35</title>
<g id="a_node35"><a xlink:href="reference_8h.html" target="_top" xlink:title="source/encoder/reference.h">
<polygon fill="white" stroke="black" points="1869.5,-336.5 1869.5,-355.5 2004.5,-355.5 2004.5,-336.5 1869.5,-336.5"/>
<text text-anchor="middle" x="1937" y="-343.5" font-family="Helvetica,sans-Serif" font-size="10.00">source/encoder/reference.h</text>
</a>
</g>
</g>
<!-- Node1&#45;&gt;Node35 -->
<g id="edge78" class="edge"><title>Node1&#45;&gt;Node35</title>
<path fill="none" stroke="midnightblue" d="M1859.58,-440.586C1879.2,-416.871 1914.77,-373.869 1929.89,-355.591"/>
<polygon fill="midnightblue" stroke="midnightblue" points="1856.82,-438.432 1853.14,-448.368 1862.21,-442.894 1856.82,-438.432"/>
</g>
<!-- Node36 -->
<g id="node36" class="node"><title>Node36</title>
<g id="a_node36"><a xlink:href="motion_8h.html" target="_top" xlink:title="source/encoder/motion.h">
<polygon fill="white" stroke="black" points="1741,-280.5 1741,-299.5 1865,-299.5 1865,-280.5 1741,-280.5"/>
<text text-anchor="middle" x="1803" y="-287.5" font-family="Helvetica,sans-Serif" font-size="10.00">source/encoder/motion.h</text>
</a>
</g>
</g>
<!-- Node1&#45;&gt;Node36 -->
<g id="edge79" class="edge"><title>Node1&#45;&gt;Node36</title>
<path fill="none" stroke="midnightblue" d="M1841.06,-437.93C1831.73,-401.92 1811.87,-325.231 1805.22,-299.568"/>
<polygon fill="midnightblue" stroke="midnightblue" points="1837.79,-439.272 1843.69,-448.075 1844.57,-437.517 1837.79,-439.272"/>
</g>
<!-- Node40 -->
<g id="node40" class="node"><title>Node40</title>
<g id="a_node40"><a xlink:href="bitcost_8h.html" target="_top" xlink:title="source/encoder/bitcost.h">
<polygon fill="white" stroke="black" points="794,-336.5 794,-355.5 918,-355.5 918,-336.5 794,-336.5"/>
<text text-anchor="middle" x="856" y="-343.5" font-family="Helvetica,sans-Serif" font-size="10.00">source/encoder/bitcost.h</text>
</a>
</g>
</g>
<!-- Node1&#45;&gt;Node40 -->
<g id="edge72" class="edge"><title>Node1&#45;&gt;Node40</title>
<path fill="none" stroke="midnightblue" d="M1780.11,-449.679C1598.88,-429.542 1094.71,-373.524 918.088,-353.899"/>
<polygon fill="midnightblue" stroke="midnightblue" points="1779.97,-453.185 1790.29,-450.811 1780.74,-446.228 1779.97,-453.185"/>
</g>
<!-- Node3 -->
<g id="node3" class="node"><title>Node3</title>
<g id="a_node3"><a xlink:href="framedata_8h.html" target="_top" xlink:title="source/common/framedata.h">
<polygon fill="white" stroke="black" points="472.5,-336.5 472.5,-355.5 613.5,-355.5 613.5,-336.5 472.5,-336.5"/>
<text text-anchor="middle" x="543" y="-343.5" font-family="Helvetica,sans-Serif" font-size="10.00">source/common/framedata.h</text>
</a>
</g>
</g>
<!-- Node2&#45;&gt;Node3 -->
<g id="edge2" class="edge"><title>Node2&#45;&gt;Node3</title>
<path fill="none" stroke="midnightblue" d="M448.773,-388.368C471.807,-378.255 503.484,-364.349 523.601,-355.516"/>
<polygon fill="midnightblue" stroke="midnightblue" points="447.239,-385.219 439.49,-392.444 450.053,-391.628 447.239,-385.219"/>
</g>
<!-- Node2&#45;&gt;Node5 -->
<g id="edge46" class="edge"><title>Node2&#45;&gt;Node5</title>
<path fill="none" stroke="midnightblue" d="M392.849,-388.132C346.119,-365.993 247.464,-319.287 164,-280 137.02,-267.301 105.743,-252.654 86.412,-243.609"/>
<polygon fill="midnightblue" stroke="midnightblue" points="391.472,-391.353 402.008,-392.472 394.47,-385.027 391.472,-391.353"/>
</g>
<!-- Node11 -->
<g id="node11" class="node"><title>Node11</title>
<g id="a_node11"><a xlink:href="analysis_8h.html" target="_top" xlink:title="source/encoder/analysis.h">
<polygon fill="white" stroke="black" points="736.5,-112.5 736.5,-131.5 867.5,-131.5 867.5,-112.5 736.5,-112.5"/>
<text text-anchor="middle" x="802" y="-119.5" font-family="Helvetica,sans-Serif" font-size="10.00">source/encoder/analysis.h</text>
</a>
</g>
</g>
<!-- Node2&#45;&gt;Node11 -->
<g id="edge48" class="edge"><title>Node2&#45;&gt;Node11</title>
<path fill="none" stroke="midnightblue" d="M413.909,-382.747C396.783,-330.692 350.378,-184.205 365,-168 371.155,-161.178 615.778,-139.119 736.281,-128.634"/>
<polygon fill="midnightblue" stroke="midnightblue" points="410.62,-383.949 417.087,-392.341 417.265,-381.748 410.62,-383.949"/>
</g>
<!-- Node18 -->
<g id="node18" class="node"><title>Node18</title>
<g id="a_node18"><a xlink:href="search_8cpp.html" target="_top" xlink:title="source/encoder/search.cpp">
<polygon fill="white" stroke="black" points="546,-112.5 546,-131.5 680,-131.5 680,-112.5 546,-112.5"/>
<text text-anchor="middle" x="613" y="-119.5" font-family="Helvetica,sans-Serif" font-size="10.00">source/encoder/search.cpp</text>
</a>
</g>
</g>
<!-- Node2&#45;&gt;Node18 -->
<g id="edge49" class="edge"><title>Node2&#45;&gt;Node18</title>
<path fill="none" stroke="midnightblue" d="M405.793,-384.324C399.388,-376.182 392.129,-366.003 387,-356 358.846,-301.097 363.311,-282.601 344,-224 336.033,-199.825 315.486,-187.369 332,-168 358.926,-136.419 471.528,-126.908 545.761,-124.101"/>
<polygon fill="midnightblue" stroke="midnightblue" points="403.23,-386.72 412.265,-392.253 408.653,-382.293 403.23,-386.72"/>
</g>
<!-- Node20 -->
<g id="node20" class="node"><title>Node20</title>
<g id="a_node20"><a xlink:href="quant_8cpp.html" target="_top" xlink:title="source/common/quant.cpp">
<polygon fill="white" stroke="black" points="374,-168.5 374,-187.5 506,-187.5 506,-168.5 374,-168.5"/>
<text text-anchor="middle" x="440" y="-175.5" font-family="Helvetica,sans-Serif" font-size="10.00">source/common/quant.cpp</text>
</a>
</g>
</g>
<!-- Node2&#45;&gt;Node20 -->
<g id="edge47" class="edge"><title>Node2&#45;&gt;Node20</title>
<path fill="none" stroke="midnightblue" d="M421.685,-382.295C425.798,-336.644 436.229,-220.854 439.2,-187.884"/>
<polygon fill="midnightblue" stroke="midnightblue" points="418.195,-382.024 420.784,-392.297 425.167,-382.652 418.195,-382.024"/>
</g>
<!-- Node4 -->
<g id="node4" class="node"><title>Node4</title>
<g id="a_node4"><a xlink:href="frame_8h.html" target="_top" xlink:title="source/common/frame.h">
<polygon fill="white" stroke="black" points="1020,-280.5 1020,-299.5 1142,-299.5 1142,-280.5 1020,-280.5"/>
<text text-anchor="middle" x="1081" y="-287.5" font-family="Helvetica,sans-Serif" font-size="10.00">source/common/frame.h</text>
</a>
</g>
</g>
<!-- Node3&#45;&gt;Node4 -->
<g id="edge3" class="edge"><title>Node3&#45;&gt;Node4</title>
<path fill="none" stroke="midnightblue" d="M623.846,-336.885C732.315,-325.998 922.547,-306.904 1019.87,-297.136"/>
<polygon fill="midnightblue" stroke="midnightblue" points="623.211,-333.431 613.611,-337.913 623.91,-340.396 623.211,-333.431"/>
</g>
<!-- Node32 -->
<g id="node32" class="node"><title>Node32</title>
<g id="a_node32"><a xlink:href="framedata_8cpp.html" target="_top" xlink:title="source/common/framedata.cpp">
<polygon fill="white" stroke="black" points="467,-280.5 467,-299.5 619,-299.5 619,-280.5 467,-280.5"/>
<text text-anchor="middle" x="543" y="-287.5" font-family="Helvetica,sans-Serif" font-size="10.00">source/common/framedata.cpp</text>
</a>
</g>
</g>
<!-- Node3&#45;&gt;Node32 -->
<g id="edge45" class="edge"><title>Node3&#45;&gt;Node32</title>
<path fill="none" stroke="midnightblue" d="M543,-325.805C543,-316.91 543,-306.78 543,-299.751"/>
<polygon fill="midnightblue" stroke="midnightblue" points="539.5,-326.083 543,-336.083 546.5,-326.083 539.5,-326.083"/>
</g>
<!-- Node4&#45;&gt;Node5 -->
<g id="edge4" class="edge"><title>Node4&#45;&gt;Node5</title>
<path fill="none" stroke="midnightblue" d="M1009.66,-286.084C857.749,-279.728 491.078,-263.611 184,-244 168.68,-243.022 152.232,-241.831 136.677,-240.64"/>
<polygon fill="midnightblue" stroke="midnightblue" points="1009.65,-289.586 1019.79,-286.506 1009.95,-282.592 1009.65,-289.586"/>
</g>
<!-- Node4&#45;&gt;Node6 -->
<g id="edge5" class="edge"><title>Node4&#45;&gt;Node6</title>
<path fill="none" stroke="midnightblue" d="M1009.59,-284.28C854.764,-274.047 489.692,-249.917 335.123,-239.701"/>
<polygon fill="midnightblue" stroke="midnightblue" points="1009.72,-287.796 1019.93,-284.963 1010.18,-280.811 1009.72,-287.796"/>
</g>
<!-- Node7 -->
<g id="node7" class="node"><title>Node7</title>
<g id="a_node7"><a xlink:href="frame_8cpp.html" target="_top" xlink:title="source/common/frame.cpp">
<polygon fill="white" stroke="black" points="1233.5,-224.5 1233.5,-243.5 1366.5,-243.5 1366.5,-224.5 1233.5,-224.5"/>
<text text-anchor="middle" x="1300" y="-231.5" font-family="Helvetica,sans-Serif" font-size="10.00">source/common/frame.cpp</text>
</a>
</g>
</g>
<!-- Node4&#45;&gt;Node7 -->
<g id="edge6" class="edge"><title>Node4&#45;&gt;Node7</title>
<path fill="none" stroke="midnightblue" d="M1125.51,-278.024C1166.88,-267.823 1227.64,-252.841 1265.46,-243.516"/>
<polygon fill="midnightblue" stroke="midnightblue" points="1124.57,-274.651 1115.7,-280.444 1126.25,-281.448 1124.57,-274.651"/>
</g>
<!-- Node8 -->
<g id="node8" class="node"><title>Node8</title>
<g id="a_node8"><a xlink:href="piclist_8cpp.html" target="_top" xlink:title="source/common/piclist.cpp">
<polygon fill="white" stroke="black" points="1385,-224.5 1385,-243.5 1519,-243.5 1519,-224.5 1385,-224.5"/>
<text text-anchor="middle" x="1452" y="-231.5" font-family="Helvetica,sans-Serif" font-size="10.00">source/common/piclist.cpp</text>
</a>
</g>
</g>
<!-- Node4&#45;&gt;Node8 -->
<g id="edge7" class="edge"><title>Node4&#45;&gt;Node8</title>
<path fill="none" stroke="midnightblue" d="M1149.85,-278.979C1219.93,-268.779 1327.39,-253.137 1393.49,-243.516"/>
<polygon fill="midnightblue" stroke="midnightblue" points="1149.18,-275.54 1139.79,-280.444 1150.19,-282.467 1149.18,-275.54"/>
</g>
<!-- Node9 -->
<g id="node9" class="node"><title>Node9</title>
<g id="a_node9"><a xlink:href="predict_8h.html" target="_top" xlink:title="source/common/predict.h">
<polygon fill="white" stroke="black" points="1088.5,-224.5 1088.5,-243.5 1215.5,-243.5 1215.5,-224.5 1088.5,-224.5"/>
<text text-anchor="middle" x="1152" y="-231.5" font-family="Helvetica,sans-Serif" font-size="10.00">source/common/predict.h</text>
</a>
</g>
</g>
<!-- Node4&#45;&gt;Node9 -->
<g id="edge8" class="edge"><title>Node4&#45;&gt;Node9</title>
<path fill="none" stroke="midnightblue" d="M1100.59,-274.101C1113.37,-264.382 1129.61,-252.027 1140.39,-243.834"/>
<polygon fill="midnightblue" stroke="midnightblue" points="1098.25,-271.484 1092.41,-280.324 1102.49,-277.056 1098.25,-271.484"/>
</g>
<!-- Node13 -->
<g id="node13" class="node"><title>Node13</title>
<g id="a_node13"><a xlink:href="frameencoder_8h.html" target="_top" xlink:title="source/encoder/frameencoder.h">
<polygon fill="white" stroke="black" points="1277,-56.5 1277,-75.5 1431,-75.5 1431,-56.5 1277,-56.5"/>
<text text-anchor="middle" x="1354" y="-63.5" font-family="Helvetica,sans-Serif" font-size="10.00">source/encoder/frameencoder.h</text>
</a>
</g>
</g>
<!-- Node4&#45;&gt;Node13 -->
<g id="edge39" class="edge"><title>Node4&#45;&gt;Node13</title>
<path fill="none" stroke="midnightblue" d="M1152.23,-286.966C1272.04,-282.804 1503.31,-271.297 1528,-244 1559.36,-209.324 1412.53,-106.256 1367.07,-75.6578"/>
<polygon fill="midnightblue" stroke="midnightblue" points="1151.92,-283.475 1142.04,-287.312 1152.15,-290.471 1151.92,-283.475"/>
</g>
<!-- Node14 -->
<g id="node14" class="node"><title>Node14</title>
<g id="a_node14"><a xlink:href="encoder_8cpp.html" target="_top" xlink:title="source/encoder/encoder.cpp">
<polygon fill="white" stroke="black" points="1419,-0.5 1419,-19.5 1559,-19.5 1559,-0.5 1419,-0.5"/>
<text text-anchor="middle" x="1489" y="-7.5" font-family="Helvetica,sans-Serif" font-size="10.00">source/encoder/encoder.cpp</text>
</a>
</g>
</g>
<!-- Node4&#45;&gt;Node14 -->
<g id="edge38" class="edge"><title>Node4&#45;&gt;Node14</title>
<path fill="none" stroke="midnightblue" d="M1152.17,-287.254C1275.69,-283.483 1519.14,-272.489 1545,-244 1576.25,-209.575 1510.25,-57.6642 1492.99,-19.6479"/>
<polygon fill="midnightblue" stroke="midnightblue" points="1151.93,-283.76 1142.04,-287.556 1152.14,-290.757 1151.93,-283.76"/>
</g>
<!-- Node4&#45;&gt;Node20 -->
<g id="edge20" class="edge"><title>Node4&#45;&gt;Node20</title>
<path fill="none" stroke="midnightblue" d="M1009.81,-285.203C871.839,-277.543 577.709,-259.636 534,-244 498.878,-231.436 464.647,-202.271 448.939,-187.663"/>
<polygon fill="midnightblue" stroke="midnightblue" points="1009.69,-288.701 1019.87,-285.758 1010.08,-281.712 1009.69,-288.701"/>
</g>
<!-- Node21 -->
<g id="node21" class="node"><title>Node21</title>
<g id="a_node21"><a xlink:href="slice_8cpp.html" target="_top" xlink:title="source/common/slice.cpp">
<polygon fill="white" stroke="black" points="803,-224.5 803,-243.5 931,-243.5 931,-224.5 803,-224.5"/>
<text text-anchor="middle" x="867" y="-231.5" font-family="Helvetica,sans-Serif" font-size="10.00">source/common/slice.cpp</text>
</a>
</g>
</g>
<!-- Node4&#45;&gt;Node21 -->
<g id="edge21" class="edge"><title>Node4&#45;&gt;Node21</title>
<path fill="none" stroke="midnightblue" d="M1037.24,-277.959C996.826,-267.76 937.627,-252.822 900.75,-243.516"/>
<polygon fill="midnightblue" stroke="midnightblue" points="1036.54,-281.39 1047.09,-280.444 1038.25,-274.603 1036.54,-281.39"/>
</g>
<!-- Node22 -->
<g id="node22" class="node"><title>Node22</title>
<g id="a_node22"><a xlink:href="entropy_8h.html" target="_top" xlink:title="source/encoder/entropy.h">
<polygon fill="white" stroke="black" points="543.5,-224.5 543.5,-243.5 670.5,-243.5 670.5,-224.5 543.5,-224.5"/>
<text text-anchor="middle" x="607" y="-231.5" font-family="Helvetica,sans-Serif" font-size="10.00">source/encoder/entropy.h</text>
</a>
</g>
</g>
<!-- Node4&#45;&gt;Node22 -->
<g id="edge22" class="edge"><title>Node4&#45;&gt;Node22</title>
<path fill="none" stroke="midnightblue" d="M1009.45,-280.849C917.349,-270.356 758.73,-252.286 670.641,-242.25"/>
<polygon fill="midnightblue" stroke="midnightblue" points="1009.19,-284.341 1019.52,-281.996 1009.98,-277.386 1009.19,-284.341"/>
</g>
<!-- Node24 -->
<g id="node24" class="node"><title>Node24</title>
<g id="a_node24"><a xlink:href="sao_8h.html" target="_top" xlink:title="source/encoder/sao.h">
<polygon fill="white" stroke="black" points="954,-168.5 954,-187.5 1064,-187.5 1064,-168.5 954,-168.5"/>
<text text-anchor="middle" x="1009" y="-175.5" font-family="Helvetica,sans-Serif" font-size="10.00">source/encoder/sao.h</text>
</a>
</g>
</g>
<!-- Node4&#45;&gt;Node24 -->
<g id="edge40" class="edge"><title>Node4&#45;&gt;Node24</title>
<path fill="none" stroke="midnightblue" d="M1009.64,-283.87C920.34,-276.713 777.08,-262.5 761,-244 755.169,-237.291 755.303,-230.823 761,-224 767.187,-216.589 882.729,-198.007 953.894,-187.18"/>
<polygon fill="midnightblue" stroke="midnightblue" points="1009.47,-287.368 1019.71,-284.666 1010.02,-280.39 1009.47,-287.368"/>
</g>
<!-- Node25 -->
<g id="node25" class="node"><title>Node25</title>
<g id="a_node25"><a xlink:href="framefilter_8h.html" target="_top" xlink:title="source/encoder/framefilter.h">
<polygon fill="white" stroke="black" points="1180,-112.5 1180,-131.5 1318,-131.5 1318,-112.5 1180,-112.5"/>
<text text-anchor="middle" x="1249" y="-119.5" font-family="Helvetica,sans-Serif" font-size="10.00">source/encoder/framefilter.h</text>
</a>
</g>
</g>
<!-- Node4&#45;&gt;Node25 -->
<g id="edge41" class="edge"><title>Node4&#45;&gt;Node25</title>
<path fill="none" stroke="midnightblue" d="M1009.54,-288.017C933.733,-285.282 821.202,-275.8 794,-244 788.222,-237.245 788.131,-230.675 794,-224 835.279,-177.053 1013.5,-207.186 1073,-188 1090.79,-182.263 1092.81,-175.354 1110,-168 1145.68,-152.733 1188.36,-139.641 1216.93,-131.578"/>
<polygon fill="midnightblue" stroke="midnightblue" points="1009.87,-291.53 1019.98,-288.36 1010.1,-284.534 1009.87,-291.53"/>
</g>
<!-- Node28 -->
<g id="node28" class="node"><title>Node28</title>
<g id="a_node28"><a xlink:href="dpb_8cpp.html" target="_top" xlink:title="source/encoder/dpb.cpp">
<polygon fill="white" stroke="black" points="949.5,-224.5 949.5,-243.5 1070.5,-243.5 1070.5,-224.5 949.5,-224.5"/>
<text text-anchor="middle" x="1010" y="-231.5" font-family="Helvetica,sans-Serif" font-size="10.00">source/encoder/dpb.cpp</text>
</a>
</g>
</g>
<!-- Node4&#45;&gt;Node28 -->
<g id="edge37" class="edge"><title>Node4&#45;&gt;Node28</title>
<path fill="none" stroke="midnightblue" d="M1061.41,-274.101C1048.63,-264.382 1032.39,-252.027 1021.61,-243.834"/>
<polygon fill="midnightblue" stroke="midnightblue" points="1059.51,-277.056 1069.59,-280.324 1063.75,-271.484 1059.51,-277.056"/>
</g>
<!-- Node29 -->
<g id="node29" class="node"><title>Node29</title>
<g id="a_node29"><a xlink:href="ratecontrol_8cpp.html" target="_top" xlink:title="source/encoder/ratecontrol.cpp">
<polygon fill="white" stroke="black" points="1569.5,-168.5 1569.5,-187.5 1720.5,-187.5 1720.5,-168.5 1569.5,-168.5"/>
<text text-anchor="middle" x="1645" y="-175.5" font-family="Helvetica,sans-Serif" font-size="10.00">source/encoder/ratecontrol.cpp</text>
</a>
</g>
</g>
<!-- Node4&#45;&gt;Node29 -->
<g id="edge42" class="edge"><title>Node4&#45;&gt;Node29</title>
<path fill="none" stroke="midnightblue" d="M1152.36,-286.123C1285.37,-280.276 1561.18,-265.696 1599,-244 1621.54,-231.068 1635.79,-202.075 1641.76,-187.585"/>
<polygon fill="midnightblue" stroke="midnightblue" points="1152.1,-282.63 1142.26,-286.562 1152.41,-289.624 1152.1,-282.63"/>
</g>
<!-- Node4&#45;&gt;Node30 -->
<g id="edge43" class="edge"><title>Node4&#45;&gt;Node30</title>
<path fill="none" stroke="midnightblue" d="M1152.26,-287.907C1327.99,-284.763 1772.24,-273.922 1832,-244 1856.85,-231.558 1874.86,-202.335 1882.68,-187.689"/>
<polygon fill="midnightblue" stroke="midnightblue" points="1152.01,-284.411 1142.08,-288.086 1152.14,-291.409 1152.01,-284.411"/>
</g>
<!-- Node4&#45;&gt;Node31 -->
<g id="edge44" class="edge"><title>Node4&#45;&gt;Node31</title>
<path fill="none" stroke="midnightblue" d="M1152.4,-288.735C1289.74,-287.372 1599.94,-280.149 1858,-244 1953.81,-230.579 2064.84,-201.949 2117.4,-187.588"/>
<polygon fill="midnightblue" stroke="midnightblue" points="1151.99,-285.239 1142.03,-288.83 1152.06,-292.238 1151.99,-285.239"/>
</g>
<!-- Node10 -->
<g id="node10" class="node"><title>Node10</title>
<g id="a_node10"><a xlink:href="predict_8cpp.html" target="_top" xlink:title="source/common/predict.cpp">
<polygon fill="white" stroke="black" points="1296.5,-168.5 1296.5,-187.5 1433.5,-187.5 1433.5,-168.5 1296.5,-168.5"/>
<text text-anchor="middle" x="1365" y="-175.5" font-family="Helvetica,sans-Serif" font-size="10.00">source/common/predict.cpp</text>
</a>
</g>
</g>
<!-- Node9&#45;&gt;Node10 -->
<g id="edge9" class="edge"><title>Node9&#45;&gt;Node10</title>
<path fill="none" stroke="midnightblue" d="M1195.55,-221.959C1235.78,-211.76 1294.7,-196.822 1331.41,-187.516"/>
<polygon fill="midnightblue" stroke="midnightblue" points="1194.58,-218.593 1185.75,-224.444 1196.3,-225.379 1194.58,-218.593"/>
</g>
<!-- Node9&#45;&gt;Node11 -->
<g id="edge10" class="edge"><title>Node9&#45;&gt;Node11</title>
<path fill="none" stroke="midnightblue" d="M1223.66,-223.04C1308.38,-211.098 1438.43,-192.165 1442,-188 1447.78,-181.25 1448.08,-174.482 1442,-168 1398.88,-122.049 938.748,-137.806 876,-132 873.294,-131.75 870.534,-131.48 867.746,-131.195"/>
<polygon fill="midnightblue" stroke="midnightblue" points="1222.98,-219.601 1213.57,-224.46 1223.96,-226.532 1222.98,-219.601"/>
</g>
<!-- Node17 -->
<g id="node17" class="node"><title>Node17</title>
<g id="a_node17"><a xlink:href="search_8h.html" target="_top" xlink:title="source/encoder/search.h">
<polygon fill="white" stroke="black" points="812,-168.5 812,-187.5 936,-187.5 936,-168.5 812,-168.5"/>
<text text-anchor="middle" x="874" y="-175.5" font-family="Helvetica,sans-Serif" font-size="10.00">source/encoder/search.h</text>
</a>
</g>
</g>
<!-- Node9&#45;&gt;Node17 -->
<g id="edge16" class="edge"><title>Node9&#45;&gt;Node17</title>
<path fill="none" stroke="midnightblue" d="M1097.81,-222.473C1045.27,-212.268 966.561,-196.979 917.844,-187.516"/>
<polygon fill="midnightblue" stroke="midnightblue" points="1097.47,-225.972 1107.95,-224.444 1098.8,-219.101 1097.47,-225.972"/>
</g>
<!-- Node19 -->
<g id="node19" class="node"><title>Node19</title>
<g id="a_node19"><a xlink:href="intrapredharness_8cpp.html" target="_top" xlink:title="source/test/intrapredharness.cpp">
<polygon fill="white" stroke="black" points="1119.5,-168.5 1119.5,-187.5 1278.5,-187.5 1278.5,-168.5 1119.5,-168.5"/>
<text text-anchor="middle" x="1199" y="-175.5" font-family="Helvetica,sans-Serif" font-size="10.00">source/test/intrapredharness.cpp</text>
</a>
</g>
</g>
<!-- Node9&#45;&gt;Node19 -->
<g id="edge19" class="edge"><title>Node9&#45;&gt;Node19</title>
<path fill="none" stroke="midnightblue" d="M1166.42,-216.431C1174.66,-206.967 1184.65,-195.483 1191.38,-187.751"/>
<polygon fill="midnightblue" stroke="midnightblue" points="1163.69,-214.242 1159.76,-224.083 1168.97,-218.838 1163.69,-214.242"/>
</g>
<!-- Node12 -->
<g id="node12" class="node"><title>Node12</title>
<g id="a_node12"><a xlink:href="analysis_8cpp.html" target="_top" xlink:title="source/encoder/analysis.cpp">
<polygon fill="white" stroke="black" points="731.5,-56.5 731.5,-75.5 872.5,-75.5 872.5,-56.5 731.5,-56.5"/>
<text text-anchor="middle" x="802" y="-63.5" font-family="Helvetica,sans-Serif" font-size="10.00">source/encoder/analysis.cpp</text>
</a>
</g>
</g>
<!-- Node11&#45;&gt;Node12 -->
<g id="edge11" class="edge"><title>Node11&#45;&gt;Node12</title>
<path fill="none" stroke="midnightblue" d="M802,-101.805C802,-92.9102 802,-82.7798 802,-75.7511"/>
<polygon fill="midnightblue" stroke="midnightblue" points="798.5,-102.083 802,-112.083 805.5,-102.083 798.5,-102.083"/>
</g>
<!-- Node11&#45;&gt;Node13 -->
<g id="edge12" class="edge"><title>Node11&#45;&gt;Node13</title>
<path fill="none" stroke="midnightblue" d="M877.856,-111.822C1024.68,-96.0934 1184.54,-81.6734 1276.94,-73.6057"/>
<polygon fill="midnightblue" stroke="midnightblue" points="877.325,-108.359 867.757,-112.909 878.074,-115.319 877.325,-108.359"/>
</g>
<!-- Node13&#45;&gt;Node14 -->
<g id="edge13" class="edge"><title>Node13&#45;&gt;Node14</title>
<path fill="none" stroke="midnightblue" d="M1384.91,-52.6377C1410.24,-42.504 1445.43,-28.4274 1467.71,-19.5164"/>
<polygon fill="midnightblue" stroke="midnightblue" points="1383.38,-49.4799 1375.39,-56.4435 1385.98,-55.9792 1383.38,-49.4799"/>
</g>
<!-- Node15 -->
<g id="node15" class="node"><title>Node15</title>
<g id="a_node15"><a xlink:href="frameencoder_8cpp.html" target="_top" xlink:title="source/encoder/frameencoder.cpp">
<polygon fill="white" stroke="black" points="1679,-0.5 1679,-19.5 1843,-19.5 1843,-0.5 1679,-0.5"/>
<text text-anchor="middle" x="1761" y="-7.5" font-family="Helvetica,sans-Serif" font-size="10.00">source/encoder/frameencoder.cpp</text>
</a>
</g>
</g>
<!-- Node13&#45;&gt;Node15 -->
<g id="edge14" class="edge"><title>Node13&#45;&gt;Node15</title>
<path fill="none" stroke="midnightblue" d="M1428.58,-55.1046C1505.44,-44.9074 1624,-29.1766 1696.81,-19.5164"/>
<polygon fill="midnightblue" stroke="midnightblue" points="1427.94,-51.6586 1418.49,-56.4435 1428.86,-58.5978 1427.94,-51.6586"/>
</g>
<!-- Node16 -->
<g id="node16" class="node"><title>Node16</title>
<g id="a_node16"><a xlink:href="framefilter_8cpp.html" target="_top" xlink:title="source/encoder/framefilter.cpp">
<polygon fill="white" stroke="black" points="1200.5,-0.5 1200.5,-19.5 1349.5,-19.5 1349.5,-0.5 1200.5,-0.5"/>
<text text-anchor="middle" x="1275" y="-7.5" font-family="Helvetica,sans-Serif" font-size="10.00">source/encoder/framefilter.cpp</text>
</a>
</g>
</g>
<!-- Node13&#45;&gt;Node16 -->
<g id="edge15" class="edge"><title>Node13&#45;&gt;Node16</title>
<path fill="none" stroke="midnightblue" d="M1332.97,-50.6221C1318.53,-40.7574 1299.86,-27.9919 1287.66,-19.6545"/>
<polygon fill="midnightblue" stroke="midnightblue" points="1331.08,-53.5703 1341.31,-56.324 1335.03,-47.7914 1331.08,-53.5703"/>
</g>
<!-- Node17&#45;&gt;Node11 -->
<g id="edge17" class="edge"><title>Node17&#45;&gt;Node11</title>
<path fill="none" stroke="midnightblue" d="M854.134,-162.101C841.177,-152.382 824.703,-140.027 813.779,-131.834"/>
<polygon fill="midnightblue" stroke="midnightblue" points="852.332,-165.124 862.432,-168.324 856.532,-159.524 852.332,-165.124"/>
</g>
<!-- Node17&#45;&gt;Node18 -->
<g id="edge18" class="edge"><title>Node17&#45;&gt;Node18</title>
<path fill="none" stroke="midnightblue" d="M822.813,-166.41C773.487,-156.204 699.805,-140.96 654.163,-131.516"/>
<polygon fill="midnightblue" stroke="midnightblue" points="822.142,-169.845 832.644,-168.444 823.56,-162.99 822.142,-169.845"/>
</g>
<!-- Node22&#45;&gt;Node11 -->
<g id="edge24" class="edge"><title>Node22&#45;&gt;Node11</title>
<path fill="none" stroke="midnightblue" d="M645.762,-221.189C668.734,-213.382 697.958,-202.011 722,-188 750.449,-171.421 779.331,-145.095 793.326,-131.598"/>
<polygon fill="midnightblue" stroke="midnightblue" points="644.405,-217.951 636.012,-224.417 646.605,-224.596 644.405,-217.951"/>
</g>
<!-- Node22&#45;&gt;Node13 -->
<g id="edge34" class="edge"><title>Node22&#45;&gt;Node13</title>
<path fill="none" stroke="midnightblue" d="M629.098,-218.501C640.931,-210.24 655.413,-199.303 667,-188 697.805,-157.949 688.969,-132.143 727,-112 774.468,-86.8592 1119.75,-73.7729 1276.71,-69.0692"/>
<polygon fill="midnightblue" stroke="midnightblue" points="626.946,-215.732 620.657,-224.258 630.891,-221.514 626.946,-215.732"/>
</g>
<!-- Node22&#45;&gt;Node17 -->
<g id="edge25" class="edge"><title>Node22&#45;&gt;Node17</title>
<path fill="none" stroke="midnightblue" d="M659.364,-222.41C709.824,-212.204 785.199,-196.96 831.891,-187.516"/>
<polygon fill="midnightblue" stroke="midnightblue" points="658.415,-219.031 649.307,-224.444 659.802,-225.892 658.415,-219.031"/>
</g>
<!-- Node22&#45;&gt;Node18 -->
<g id="edge36" class="edge"><title>Node22&#45;&gt;Node18</title>
<path fill="none" stroke="midnightblue" d="M627.705,-217.951C636.671,-210.144 646.2,-199.775 651,-188 659.685,-166.696 638.467,-143.962 624.358,-131.834"/>
<polygon fill="midnightblue" stroke="midnightblue" points="625.35,-215.355 619.781,-224.369 629.755,-220.795 625.35,-215.355"/>
</g>
<!-- Node22&#45;&gt;Node20 -->
<g id="edge23" class="edge"><title>Node22&#45;&gt;Node20</title>
<path fill="none" stroke="midnightblue" d="M570.83,-221.304C539.363,-211.129 494.506,-196.625 466.338,-187.516"/>
<polygon fill="midnightblue" stroke="midnightblue" points="569.947,-224.697 580.538,-224.444 572.1,-218.037 569.947,-224.697"/>
</g>
<!-- Node23 -->
<g id="node23" class="node"><title>Node23</title>
<g id="a_node23"><a xlink:href="api_8cpp.html" target="_top" xlink:title="source/encoder/api.cpp">
<polygon fill="white" stroke="black" points="524,-168.5 524,-187.5 642,-187.5 642,-168.5 524,-168.5"/>
<text text-anchor="middle" x="583" y="-175.5" font-family="Helvetica,sans-Serif" font-size="10.00">source/encoder/api.cpp</text>
</a>
</g>
</g>
<!-- Node22&#45;&gt;Node23 -->
<g id="edge26" class="edge"><title>Node22&#45;&gt;Node23</title>
<path fill="none" stroke="midnightblue" d="M598.862,-214.69C594.817,-205.589 590.117,-195.014 586.889,-187.751"/>
<polygon fill="midnightblue" stroke="midnightblue" points="595.777,-216.366 603.037,-224.083 602.174,-213.523 595.777,-216.366"/>
</g>
<!-- Node22&#45;&gt;Node24 -->
<g id="edge27" class="edge"><title>Node22&#45;&gt;Node24</title>
<path fill="none" stroke="midnightblue" d="M680.903,-223.236C749.19,-214.19 853.459,-200.313 944,-188 947.161,-187.57 950.408,-187.127 953.684,-186.678"/>
<polygon fill="midnightblue" stroke="midnightblue" points="680.132,-219.808 670.678,-224.59 681.051,-226.747 680.132,-219.808"/>
</g>
<!-- Node26 -->
<g id="node26" class="node"><title>Node26</title>
<g id="a_node26"><a xlink:href="entropy_8cpp.html" target="_top" xlink:title="source/encoder/entropy.cpp">
<polygon fill="white" stroke="black" points="885.5,-112.5 885.5,-131.5 1022.5,-131.5 1022.5,-112.5 885.5,-112.5"/>
<text text-anchor="middle" x="954" y="-119.5" font-family="Helvetica,sans-Serif" font-size="10.00">source/encoder/entropy.cpp</text>
</a>
</g>
</g>
<!-- Node22&#45;&gt;Node26 -->
<g id="edge35" class="edge"><title>Node22&#45;&gt;Node26</title>
<path fill="none" stroke="midnightblue" d="M645.923,-221.576C675.025,-212.856 715.707,-200.287 751,-188 774.385,-179.858 779.562,-175.986 803,-168 844.04,-154.016 892.145,-140.098 922.834,-131.525"/>
<polygon fill="midnightblue" stroke="midnightblue" points="644.723,-218.282 636.14,-224.493 646.723,-224.99 644.723,-218.282"/>
</g>
<!-- Node24&#45;&gt;Node13 -->
<g id="edge28" class="edge"><title>Node24&#45;&gt;Node13</title>
<path fill="none" stroke="midnightblue" d="M1074.18,-171.237C1161.38,-163.004 1307.39,-147.186 1327,-132 1344.97,-118.086 1351.08,-90.0776 1353.08,-75.801"/>
<polygon fill="midnightblue" stroke="midnightblue" points="1073.74,-167.763 1064.11,-172.179 1074.39,-174.732 1073.74,-167.763"/>
</g>
<!-- Node24&#45;&gt;Node25 -->
<g id="edge29" class="edge"><title>Node24&#45;&gt;Node25</title>
<path fill="none" stroke="midnightblue" d="M1056.92,-166.217C1102.27,-156.013 1169.44,-140.901 1211.15,-131.516"/>
<polygon fill="midnightblue" stroke="midnightblue" points="1056.02,-162.834 1047.03,-168.444 1057.55,-169.663 1056.02,-162.834"/>
</g>
<!-- Node24&#45;&gt;Node26 -->
<g id="edge32" class="edge"><title>Node24&#45;&gt;Node26</title>
<path fill="none" stroke="midnightblue" d="M992.706,-161.002C982.959,-151.433 970.947,-139.639 962.913,-131.751"/>
<polygon fill="midnightblue" stroke="midnightblue" points="990.33,-163.575 999.918,-168.083 995.234,-158.58 990.33,-163.575"/>
</g>
<!-- Node27 -->
<g id="node27" class="node"><title>Node27</title>
<g id="a_node27"><a xlink:href="sao_8cpp.html" target="_top" xlink:title="source/encoder/sao.cpp">
<polygon fill="white" stroke="black" points="1040.5,-112.5 1040.5,-131.5 1161.5,-131.5 1161.5,-112.5 1040.5,-112.5"/>
<text text-anchor="middle" x="1101" y="-119.5" font-family="Helvetica,sans-Serif" font-size="10.00">source/encoder/sao.cpp</text>
</a>
</g>
</g>
<!-- Node24&#45;&gt;Node27 -->
<g id="edge33" class="edge"><title>Node24&#45;&gt;Node27</title>
<path fill="none" stroke="midnightblue" d="M1032.55,-163.177C1049.48,-153.241 1071.78,-140.149 1086.26,-131.655"/>
<polygon fill="midnightblue" stroke="midnightblue" points="1030.63,-160.243 1023.78,-168.324 1034.18,-166.28 1030.63,-160.243"/>
</g>
<!-- Node25&#45;&gt;Node13 -->
<g id="edge30" class="edge"><title>Node25&#45;&gt;Node13</title>
<path fill="none" stroke="midnightblue" d="M1274.81,-107.726C1294.25,-97.7271 1320.35,-84.3065 1337.17,-75.6545"/>
<polygon fill="midnightblue" stroke="midnightblue" points="1273.16,-104.638 1265.87,-112.324 1276.36,-110.863 1273.16,-104.638"/>
</g>
<!-- Node25&#45;&gt;Node16 -->
<g id="edge31" class="edge"><title>Node25&#45;&gt;Node16</title>
<path fill="none" stroke="midnightblue" d="M1253.41,-102.348C1259.1,-78.2538 1268.78,-37.3079 1272.97,-19.5914"/>
<polygon fill="midnightblue" stroke="midnightblue" points="1249.93,-101.832 1251.04,-112.368 1256.75,-103.442 1249.93,-101.832"/>
</g>
<!-- Node33&#45;&gt;Node4 -->
<g id="edge51" class="edge"><title>Node33&#45;&gt;Node4</title>
<path fill="none" stroke="midnightblue" d="M2043.63,-393.209C1848.95,-372.539 1321.97,-316.585 1142.11,-297.489"/>
<polygon fill="midnightblue" stroke="midnightblue" points="2043.44,-396.709 2053.75,-394.285 2044.18,-389.748 2043.44,-396.709"/>
</g>
<!-- Node33&#45;&gt;Node30 -->
<g id="edge67" class="edge"><title>Node33&#45;&gt;Node30</title>
<path fill="none" stroke="midnightblue" d="M2126.36,-383.397C2143.46,-348.556 2174.59,-270.195 2136,-224 2113.78,-197.41 2024.4,-186.503 1959.06,-182.047"/>
<polygon fill="midnightblue" stroke="midnightblue" points="2123.21,-381.87 2121.79,-392.369 2129.45,-385.049 2123.21,-381.87"/>
</g>
<!-- Node33&#45;&gt;Node31 -->
<g id="edge68" class="edge"><title>Node33&#45;&gt;Node31</title>
<path fill="none" stroke="midnightblue" d="M2141.37,-386.726C2151.95,-379.089 2163.22,-368.64 2169,-356 2193.39,-302.643 2181.71,-281.274 2169,-224 2166.01,-210.533 2158.56,-196.322 2153.38,-187.557"/>
<polygon fill="midnightblue" stroke="midnightblue" points="2139.15,-383.999 2132.78,-392.467 2143.04,-389.818 2139.15,-383.999"/>
</g>
<!-- Node33&#45;&gt;Node34 -->
<g id="edge52" class="edge"><title>Node33&#45;&gt;Node34</title>
<path fill="none" stroke="midnightblue" d="M2154.05,-389.436C2186.66,-379.255 2233.41,-364.664 2262.72,-355.516"/>
<polygon fill="midnightblue" stroke="midnightblue" points="2152.92,-386.123 2144.41,-392.444 2155,-392.805 2152.92,-386.123"/>
</g>
<!-- Node33&#45;&gt;Node35 -->
<g id="edge53" class="edge"><title>Node33&#45;&gt;Node35</title>
<path fill="none" stroke="midnightblue" d="M2078.89,-389.568C2044.94,-379.381 1996.01,-364.703 1965.39,-355.516"/>
<polygon fill="midnightblue" stroke="midnightblue" points="2077.89,-392.922 2088.48,-392.444 2079.91,-386.218 2077.89,-392.922"/>
</g>
<!-- Node38 -->
<g id="node38" class="node"><title>Node38</title>
<g id="a_node38"><a xlink:href="motion_8cpp.html" target="_top" xlink:title="source/encoder/motion.cpp">
<polygon fill="white" stroke="black" points="1993,-224.5 1993,-243.5 2127,-243.5 2127,-224.5 1993,-224.5"/>
<text text-anchor="middle" x="2060" y="-231.5" font-family="Helvetica,sans-Serif" font-size="10.00">source/encoder/motion.cpp</text>
</a>
</g>
</g>
<!-- Node33&#45;&gt;Node38 -->
<g id="edge66" class="edge"><title>Node33&#45;&gt;Node38</title>
<path fill="none" stroke="midnightblue" d="M2117.14,-382.23C2116.64,-357.652 2113.41,-313.729 2098,-280 2091.37,-265.491 2078.71,-251.954 2069.83,-243.593"/>
<polygon fill="midnightblue" stroke="midnightblue" points="2113.64,-382.358 2117.2,-392.335 2120.64,-382.312 2113.64,-382.358"/>
</g>
<!-- Node35&#45;&gt;Node13 -->
<g id="edge64" class="edge"><title>Node35&#45;&gt;Node13</title>
<path fill="none" stroke="midnightblue" d="M1933.91,-325.989C1932.34,-312.951 1931.26,-295.309 1934,-280 1943.16,-228.792 2001.67,-207.657 1968,-168 1899.96,-87.8582 1580.49,-71.1961 1431.22,-67.8131"/>
<polygon fill="midnightblue" stroke="midnightblue" points="1930.48,-326.678 1935.35,-336.087 1937.41,-325.694 1930.48,-326.678"/>
</g>
<!-- Node35&#45;&gt;Node36 -->
<g id="edge54" class="edge"><title>Node35&#45;&gt;Node36</title>
<path fill="none" stroke="midnightblue" d="M1906.32,-332.638C1881.18,-322.504 1846.25,-308.427 1824.13,-299.516"/>
<polygon fill="midnightblue" stroke="midnightblue" points="1905.18,-335.952 1915.77,-336.444 1907.8,-329.459 1905.18,-335.952"/>
</g>
<!-- Node39 -->
<g id="node39" class="node"><title>Node39</title>
<g id="a_node39"><a xlink:href="reference_8cpp.html" target="_top" xlink:title="source/encoder/reference.cpp">
<polygon fill="white" stroke="black" points="1943,-280.5 1943,-299.5 2089,-299.5 2089,-280.5 1943,-280.5"/>
<text text-anchor="middle" x="2016" y="-287.5" font-family="Helvetica,sans-Serif" font-size="10.00">source/encoder/reference.cpp</text>
</a>
</g>
</g>
<!-- Node35&#45;&gt;Node39 -->
<g id="edge65" class="edge"><title>Node35&#45;&gt;Node39</title>
<path fill="none" stroke="midnightblue" d="M1958.03,-330.622C1972.47,-320.757 1991.14,-307.992 2003.34,-299.655"/>
<polygon fill="midnightblue" stroke="midnightblue" points="1955.97,-327.791 1949.69,-336.324 1959.92,-333.57 1955.97,-327.791"/>
</g>
<!-- Node36&#45;&gt;Node17 -->
<g id="edge55" class="edge"><title>Node36&#45;&gt;Node17</title>
<path fill="none" stroke="midnightblue" d="M1764.37,-277.664C1711.53,-262.664 1613.48,-236.648 1528,-224 1271.19,-186.004 1203.46,-212.336 945,-188 942.155,-187.732 939.248,-187.44 936.313,-187.129"/>
<polygon fill="midnightblue" stroke="midnightblue" points="1763.44,-281.036 1774.01,-280.421 1765.36,-274.306 1763.44,-281.036"/>
</g>
<!-- Node36&#45;&gt;Node30 -->
<g id="edge63" class="edge"><title>Node36&#45;&gt;Node30</title>
<path fill="none" stroke="midnightblue" d="M1828.92,-275.256C1841.35,-267.525 1855.55,-256.842 1865,-244 1877.86,-226.539 1883.55,-201.053 1885.77,-187.777"/>
<polygon fill="midnightblue" stroke="midnightblue" points="1827.12,-272.257 1820.28,-280.351 1830.67,-278.286 1827.12,-272.257"/>
</g>
<!-- Node37 -->
<g id="node37" class="node"><title>Node37</title>
<g id="a_node37"><a xlink:href="slicetype_8h.html" target="_top" xlink:title="source/encoder/slicetype.h">
<polygon fill="white" stroke="black" points="1689,-224.5 1689,-243.5 1823,-243.5 1823,-224.5 1689,-224.5"/>
<text text-anchor="middle" x="1756" y="-231.5" font-family="Helvetica,sans-Serif" font-size="10.00">source/encoder/slicetype.h</text>
</a>
</g>
</g>
<!-- Node36&#45;&gt;Node37 -->
<g id="edge56" class="edge"><title>Node36&#45;&gt;Node37</title>
<path fill="none" stroke="midnightblue" d="M1788.58,-272.431C1780.34,-262.967 1770.35,-251.483 1763.62,-243.751"/>
<polygon fill="midnightblue" stroke="midnightblue" points="1786.03,-274.838 1795.24,-280.083 1791.31,-270.242 1786.03,-274.838"/>
</g>
<!-- Node36&#45;&gt;Node38 -->
<g id="edge62" class="edge"><title>Node36&#45;&gt;Node38</title>
<path fill="none" stroke="midnightblue" d="M1853.71,-278.346C1902.28,-268.141 1974.62,-252.94 2019.47,-243.516"/>
<polygon fill="midnightblue" stroke="midnightblue" points="1852.79,-274.962 1843.72,-280.444 1854.23,-281.812 1852.79,-274.962"/>
</g>
<!-- Node37&#45;&gt;Node14 -->
<g id="edge57" class="edge"><title>Node37&#45;&gt;Node14</title>
<path fill="none" stroke="midnightblue" d="M1751.44,-214.225C1747.34,-200.313 1740.21,-181.505 1729,-168 1665.73,-91.7473 1555.8,-39.1744 1509.99,-19.5433"/>
<polygon fill="midnightblue" stroke="midnightblue" points="1748.12,-215.385 1754.1,-224.137 1754.88,-213.571 1748.12,-215.385"/>
</g>
<!-- Node37&#45;&gt;Node15 -->
<g id="edge58" class="edge"><title>Node37&#45;&gt;Node15</title>
<path fill="none" stroke="midnightblue" d="M1759.53,-214.547C1760.91,-206.437 1762.32,-196.78 1763,-188 1767.97,-123.657 1763.44,-45.7711 1761.65,-19.8584"/>
<polygon fill="midnightblue" stroke="midnightblue" points="1756.08,-213.955 1757.74,-224.419 1762.97,-215.204 1756.08,-213.955"/>
</g>
<!-- Node37&#45;&gt;Node29 -->
<g id="edge59" class="edge"><title>Node37&#45;&gt;Node29</title>
<path fill="none" stroke="midnightblue" d="M1728.99,-219.862C1708.41,-209.849 1680.66,-196.346 1662.79,-187.655"/>
<polygon fill="midnightblue" stroke="midnightblue" points="1727.64,-223.097 1738.17,-224.324 1730.7,-216.802 1727.64,-223.097"/>
</g>
<!-- Node37&#45;&gt;Node30 -->
<g id="edge60" class="edge"><title>Node37&#45;&gt;Node30</title>
<path fill="none" stroke="midnightblue" d="M1786.32,-220.503C1810.88,-210.38 1844.82,-196.388 1866.34,-187.516"/>
<polygon fill="midnightblue" stroke="midnightblue" points="1784.67,-217.397 1776.76,-224.444 1787.34,-223.868 1784.67,-217.397"/>
</g>
<!-- Node37&#45;&gt;Node31 -->
<g id="edge61" class="edge"><title>Node37&#45;&gt;Node31</title>
<path fill="none" stroke="midnightblue" d="M1828.29,-223.042C1902.32,-212.843 2016.19,-197.157 2086.18,-187.516"/>
<polygon fill="midnightblue" stroke="midnightblue" points="1827.54,-219.612 1818.11,-224.444 1828.5,-226.546 1827.54,-219.612"/>
</g>
<!-- Node40&#45;&gt;Node14 -->
<g id="edge77" class="edge"><title>Node40&#45;&gt;Node14</title>
<path fill="none" stroke="midnightblue" d="M850.593,-326.451C845.069,-311.145 834.866,-290.323 818,-280 697.64,-206.332 294.472,-331.804 184,-244 160.438,-225.273 165,-209.098 165,-179 165,-179 165,-179 165,-121 165,-59.8249 1291.76,-24.1498 1358,-20 1377.79,-18.7599 1399.26,-17.3232 1418.99,-15.9668"/>
<polygon fill="midnightblue" stroke="midnightblue" points="847.403,-327.961 853.818,-336.393 854.062,-325.801 847.403,-327.961"/>
</g>
<!-- Node40&#45;&gt;Node17 -->
<g id="edge73" class="edge"><title>Node40&#45;&gt;Node17</title>
<path fill="none" stroke="midnightblue" d="M783.683,-345.048C719.408,-341.989 639.413,-328.732 666,-280 696.377,-224.321 768.489,-198.898 819.248,-187.593"/>
<polygon fill="midnightblue" stroke="midnightblue" points="783.713,-348.552 793.845,-345.455 783.993,-341.558 783.713,-348.552"/>
</g>
<!-- Node40&#45;&gt;Node23 -->
<g id="edge75" class="edge"><title>Node40&#45;&gt;Node23</title>
<path fill="none" stroke="midnightblue" d="M860.28,-326.558C862.481,-311.957 862.645,-292.075 851,-280 752.573,-177.933 628.438,-349.77 534,-244 516.964,-224.92 548.513,-200.327 568.461,-187.555"/>
<polygon fill="midnightblue" stroke="midnightblue" points="856.824,-325.994 858.361,-336.477 863.697,-327.324 856.824,-325.994"/>
</g>
<!-- Node40&#45;&gt;Node36 -->
<g id="edge74" class="edge"><title>Node40&#45;&gt;Node36</title>
<path fill="none" stroke="midnightblue" d="M928.275,-340.879C1107.98,-330.632 1572.61,-304.137 1740.94,-294.539"/>
<polygon fill="midnightblue" stroke="midnightblue" points="927.92,-337.393 918.135,-341.457 928.318,-344.382 927.92,-337.393"/>
</g>
<!-- Node41 -->
<g id="node41" class="node"><title>Node41</title>
<g id="a_node41"><a xlink:href="bitcost_8cpp.html" target="_top" xlink:title="source/encoder/bitcost.cpp">
<polygon fill="white" stroke="black" points="675,-280.5 675,-299.5 809,-299.5 809,-280.5 675,-280.5"/>
<text text-anchor="middle" x="742" y="-287.5" font-family="Helvetica,sans-Serif" font-size="10.00">source/encoder/bitcost.cpp</text>
</a>
</g>
</g>
<!-- Node40&#45;&gt;Node41 -->
<g id="edge76" class="edge"><title>Node40&#45;&gt;Node41</title>
<path fill="none" stroke="midnightblue" d="M828.758,-332.096C807.46,-322.007 778.458,-308.27 759.979,-299.516"/>
<polygon fill="midnightblue" stroke="midnightblue" points="827.401,-335.326 837.936,-336.444 830.397,-329 827.401,-335.326"/>
</g>
</g>
</svg>
