<?xml version="1.0" encoding="UTF-8" standalone="no"?>
<!DOCTYPE svg PUBLIC "-//W3C//DTD SVG 1.1//EN"
 "http://www.w3.org/Graphics/SVG/1.1/DTD/svg11.dtd">
<!-- Generated by graphviz version 2.36.0 (20140111.2315)
 -->
<!-- Title: source/encoder/nal.h Pages: 1 -->
<svg width="1126pt" height="140pt"
 viewBox="0.00 0.00 1126.00 140.00" xmlns="http://www.w3.org/2000/svg" xmlns:xlink="http://www.w3.org/1999/xlink">
<g id="graph0" class="graph" transform="scale(1 1) rotate(0) translate(4 136)">
<title>source/encoder/nal.h</title>
<polygon fill="white" stroke="none" points="-4,4 -4,-136 1122,-136 1122,4 -4,4"/>
<!-- Node1 -->
<g id="node1" class="node"><title>Node1</title>
<polygon fill="#bfbfbf" stroke="black" points="696.5,-112.5 696.5,-131.5 803.5,-131.5 803.5,-112.5 696.5,-112.5"/>
<text text-anchor="middle" x="750" y="-119.5" font-family="Helvetica,sans-Serif" font-size="10.00">source/encoder/nal.h</text>
</g>
<!-- Node2 -->
<g id="node2" class="node"><title>Node2</title>
<g id="a_node2"><a xlink:href="encoder_8h.html" target="_top" xlink:title="source/encoder/encoder.h">
<polygon fill="white" stroke="black" points="507.5,-56.5 507.5,-75.5 636.5,-75.5 636.5,-56.5 507.5,-56.5"/>
<text text-anchor="middle" x="572" y="-63.5" font-family="Helvetica,sans-Serif" font-size="10.00">source/encoder/encoder.h</text>
</a>
</g>
</g>
<!-- Node1&#45;&gt;Node2 -->
<g id="edge1" class="edge"><title>Node1&#45;&gt;Node2</title>
<path fill="none" stroke="midnightblue" d="M711.883,-109.436C678.322,-99.2551 630.226,-84.664 600.073,-75.5164"/>
<polygon fill="midnightblue" stroke="midnightblue" points="711.21,-112.89 721.795,-112.444 713.242,-106.191 711.21,-112.89"/>
</g>
<!-- Node4 -->
<g id="node4" class="node"><title>Node4</title>
<g id="a_node4"><a xlink:href="api_8cpp.html" target="_top" xlink:title="source/encoder/api.cpp">
<polygon fill="white" stroke="black" points="0,-0.5 0,-19.5 118,-19.5 118,-0.5 0,-0.5"/>
<text text-anchor="middle" x="59" y="-7.5" font-family="Helvetica,sans-Serif" font-size="10.00">source/encoder/api.cpp</text>
</a>
</g>
</g>
<!-- Node1&#45;&gt;Node4 -->
<g id="edge9" class="edge"><title>Node1&#45;&gt;Node4</title>
<path fill="none" stroke="midnightblue" d="M686.16,-110.837C551.027,-89.3256 238.205,-39.5276 112.612,-19.5345"/>
<polygon fill="midnightblue" stroke="midnightblue" points="685.927,-114.344 696.353,-112.46 687.028,-107.431 685.927,-114.344"/>
</g>
<!-- Node5 -->
<g id="node5" class="node"><title>Node5</title>
<g id="a_node5"><a xlink:href="encoder_8cpp.html" target="_top" xlink:title="source/encoder/encoder.cpp">
<polygon fill="white" stroke="black" points="628,-0.5 628,-19.5 768,-19.5 768,-0.5 628,-0.5"/>
<text text-anchor="middle" x="698" y="-7.5" font-family="Helvetica,sans-Serif" font-size="10.00">source/encoder/encoder.cpp</text>
</a>
</g>
</g>
<!-- Node1&#45;&gt;Node5 -->
<g id="edge14" class="edge"><title>Node1&#45;&gt;Node5</title>
<path fill="none" stroke="midnightblue" d="M735.655,-104.393C729.221,-96.2668 721.976,-86.0798 717,-76 707.632,-57.0238 702.045,-32.5979 699.553,-19.7675"/>
<polygon fill="midnightblue" stroke="midnightblue" points="733.112,-106.81 742.174,-112.3 738.513,-102.357 733.112,-106.81"/>
</g>
<!-- Node6 -->
<g id="node6" class="node"><title>Node6</title>
<g id="a_node6"><a xlink:href="frameencoder_8cpp.html" target="_top" xlink:title="source/encoder/frameencoder.cpp">
<polygon fill="white" stroke="black" points="954,-0.5 954,-19.5 1118,-19.5 1118,-0.5 954,-0.5"/>
<text text-anchor="middle" x="1036" y="-7.5" font-family="Helvetica,sans-Serif" font-size="10.00">source/encoder/frameencoder.cpp</text>
</a>
</g>
</g>
<!-- Node1&#45;&gt;Node6 -->
<g id="edge15" class="edge"><title>Node1&#45;&gt;Node6</title>
<path fill="none" stroke="midnightblue" d="M791.327,-109.644C819.334,-101.46 856.94,-89.5088 889,-76 906.588,-68.5892 909.716,-64.0947 927,-56 956.479,-42.1937 991.387,-28.1783 1013.61,-19.5395"/>
<polygon fill="midnightblue" stroke="midnightblue" points="790.111,-106.352 781.472,-112.485 792.05,-113.078 790.111,-106.352"/>
</g>
<!-- Node10 -->
<g id="node10" class="node"><title>Node10</title>
<g id="a_node10"><a xlink:href="frameencoder_8h.html" target="_top" xlink:title="source/encoder/frameencoder.h">
<polygon fill="white" stroke="black" points="726,-56.5 726,-75.5 880,-75.5 880,-56.5 726,-56.5"/>
<text text-anchor="middle" x="803" y="-63.5" font-family="Helvetica,sans-Serif" font-size="10.00">source/encoder/frameencoder.h</text>
</a>
</g>
</g>
<!-- Node1&#45;&gt;Node10 -->
<g id="edge10" class="edge"><title>Node1&#45;&gt;Node10</title>
<path fill="none" stroke="midnightblue" d="M765.981,-104.718C775.322,-95.1997 786.746,-83.5608 794.411,-75.7511"/>
<polygon fill="midnightblue" stroke="midnightblue" points="763.259,-102.494 758.752,-112.083 768.254,-107.398 763.259,-102.494"/>
</g>
<!-- Node11 -->
<g id="node11" class="node"><title>Node11</title>
<g id="a_node11"><a xlink:href="nal_8cpp.html" target="_top" xlink:title="source/encoder/nal.cpp">
<polygon fill="white" stroke="black" points="936,-56.5 936,-75.5 1054,-75.5 1054,-56.5 936,-56.5"/>
<text text-anchor="middle" x="995" y="-63.5" font-family="Helvetica,sans-Serif" font-size="10.00">source/encoder/nal.cpp</text>
</a>
</g>
</g>
<!-- Node1&#45;&gt;Node11 -->
<g id="edge16" class="edge"><title>Node1&#45;&gt;Node11</title>
<path fill="none" stroke="midnightblue" d="M798.63,-110.281C844.929,-100.077 913.695,-84.9203 956.361,-75.5164"/>
<polygon fill="midnightblue" stroke="midnightblue" points="797.833,-106.873 788.821,-112.444 799.34,-113.709 797.833,-106.873"/>
</g>
<!-- Node3 -->
<g id="node3" class="node"><title>Node3</title>
<g id="a_node3"><a xlink:href="analysis_8cpp.html" target="_top" xlink:title="source/encoder/analysis.cpp">
<polygon fill="white" stroke="black" points="468.5,-0.5 468.5,-19.5 609.5,-19.5 609.5,-0.5 468.5,-0.5"/>
<text text-anchor="middle" x="539" y="-7.5" font-family="Helvetica,sans-Serif" font-size="10.00">source/encoder/analysis.cpp</text>
</a>
</g>
</g>
<!-- Node2&#45;&gt;Node3 -->
<g id="edge2" class="edge"><title>Node2&#45;&gt;Node3</title>
<path fill="none" stroke="midnightblue" d="M561.168,-47.2747C555.528,-38.0454 548.882,-27.1703 544.348,-19.7511"/>
<polygon fill="midnightblue" stroke="midnightblue" points="558.35,-49.3753 566.551,-56.083 564.323,-45.7251 558.35,-49.3753"/>
</g>
<!-- Node2&#45;&gt;Node4 -->
<g id="edge3" class="edge"><title>Node2&#45;&gt;Node4</title>
<path fill="none" stroke="midnightblue" d="M497.243,-58.1493C408.763,-49.8771 257.018,-35.1744 127,-20 124.161,-19.6687 121.257,-19.3204 118.325,-18.9612"/>
<polygon fill="midnightblue" stroke="midnightblue" points="497.168,-61.6575 507.45,-59.1013 497.818,-54.6877 497.168,-61.6575"/>
</g>
<!-- Node2&#45;&gt;Node5 -->
<g id="edge4" class="edge"><title>Node2&#45;&gt;Node5</title>
<path fill="none" stroke="midnightblue" d="M601.16,-52.503C624.781,-42.3795 657.428,-28.388 678.128,-19.5164"/>
<polygon fill="midnightblue" stroke="midnightblue" points="599.778,-49.2873 591.965,-56.4435 602.535,-55.7213 599.778,-49.2873"/>
</g>
<!-- Node2&#45;&gt;Node6 -->
<g id="edge5" class="edge"><title>Node2&#45;&gt;Node6</title>
<path fill="none" stroke="midnightblue" d="M646.581,-56.3203C733.582,-46.1952 876.485,-29.5643 962.862,-19.5118"/>
<polygon fill="midnightblue" stroke="midnightblue" points="646.046,-52.8589 636.517,-57.4915 646.855,-59.812 646.046,-52.8589"/>
</g>
<!-- Node7 -->
<g id="node7" class="node"><title>Node7</title>
<g id="a_node7"><a xlink:href="framefilter_8cpp.html" target="_top" xlink:title="source/encoder/framefilter.cpp">
<polygon fill="white" stroke="black" points="786.5,-0.5 786.5,-19.5 935.5,-19.5 935.5,-0.5 786.5,-0.5"/>
<text text-anchor="middle" x="861" y="-7.5" font-family="Helvetica,sans-Serif" font-size="10.00">source/encoder/framefilter.cpp</text>
</a>
</g>
</g>
<!-- Node2&#45;&gt;Node7 -->
<g id="edge6" class="edge"><title>Node2&#45;&gt;Node7</title>
<path fill="none" stroke="midnightblue" d="M627.655,-54.6007C682.273,-44.3953 764.566,-29.0189 815.421,-19.5164"/>
<polygon fill="midnightblue" stroke="midnightblue" points="626.98,-51.1663 617.793,-56.4435 628.266,-58.0472 626.98,-51.1663"/>
</g>
<!-- Node8 -->
<g id="node8" class="node"><title>Node8</title>
<g id="a_node8"><a xlink:href="ratecontrol_8cpp.html" target="_top" xlink:title="source/encoder/ratecontrol.cpp">
<polygon fill="white" stroke="black" points="136.5,-0.5 136.5,-19.5 287.5,-19.5 287.5,-0.5 136.5,-0.5"/>
<text text-anchor="middle" x="212" y="-7.5" font-family="Helvetica,sans-Serif" font-size="10.00">source/encoder/ratecontrol.cpp</text>
</a>
</g>
</g>
<!-- Node2&#45;&gt;Node8 -->
<g id="edge7" class="edge"><title>Node2&#45;&gt;Node8</title>
<path fill="none" stroke="midnightblue" d="M504.778,-54.9166C436.767,-44.715 332.783,-29.1174 268.776,-19.5164"/>
<polygon fill="midnightblue" stroke="midnightblue" points="504.548,-58.4213 514.957,-56.4435 505.587,-51.4988 504.548,-58.4213"/>
</g>
<!-- Node9 -->
<g id="node9" class="node"><title>Node9</title>
<g id="a_node9"><a xlink:href="slicetype_8cpp.html" target="_top" xlink:title="source/encoder/slicetype.cpp">
<polygon fill="white" stroke="black" points="306,-0.5 306,-19.5 450,-19.5 450,-0.5 306,-0.5"/>
<text text-anchor="middle" x="378" y="-7.5" font-family="Helvetica,sans-Serif" font-size="10.00">source/encoder/slicetype.cpp</text>
</a>
</g>
</g>
<!-- Node2&#45;&gt;Node9 -->
<g id="edge8" class="edge"><title>Node2&#45;&gt;Node9</title>
<path fill="none" stroke="midnightblue" d="M531.399,-53.6986C494.785,-43.507 441.743,-28.7429 408.596,-19.5164"/>
<polygon fill="midnightblue" stroke="midnightblue" points="530.688,-57.1337 541.26,-56.4435 532.565,-50.3901 530.688,-57.1337"/>
</g>
<!-- Node10&#45;&gt;Node5 -->
<g id="edge11" class="edge"><title>Node10&#45;&gt;Node5</title>
<path fill="none" stroke="midnightblue" d="M777.19,-51.7261C757.747,-41.7271 731.652,-28.3065 714.828,-19.6545"/>
<polygon fill="midnightblue" stroke="midnightblue" points="775.636,-54.8629 786.13,-56.324 778.838,-48.6379 775.636,-54.8629"/>
</g>
<!-- Node10&#45;&gt;Node6 -->
<g id="edge12" class="edge"><title>Node10&#45;&gt;Node6</title>
<path fill="none" stroke="midnightblue" d="M849.803,-54.1529C893.827,-43.95 958.847,-28.8809 999.253,-19.5164"/>
<polygon fill="midnightblue" stroke="midnightblue" points="848.871,-50.7761 839.92,-56.4435 850.452,-57.5953 848.871,-50.7761"/>
</g>
<!-- Node10&#45;&gt;Node7 -->
<g id="edge13" class="edge"><title>Node10&#45;&gt;Node7</title>
<path fill="none" stroke="midnightblue" d="M819.913,-49.2533C830.203,-39.6731 842.966,-27.7906 851.512,-19.8339"/>
<polygon fill="midnightblue" stroke="midnightblue" points="817.253,-46.9481 812.319,-56.324 822.023,-52.0714 817.253,-46.9481"/>
</g>
</g>
</svg>
