<?xml version="1.0" encoding="UTF-8" standalone="no"?>
<!DOCTYPE svg PUBLIC "-//W3C//DTD SVG 1.1//EN"
 "http://www.w3.org/Graphics/SVG/1.1/DTD/svg11.dtd">
<!-- Generated by graphviz version 2.36.0 (20140111.2315)
 -->
<!-- Title: x265::initROM Pages: 1 -->
<svg width="478pt" height="96pt"
 viewBox="0.00 0.00 478.00 96.00" xmlns="http://www.w3.org/2000/svg" xmlns:xlink="http://www.w3.org/1999/xlink">
<g id="graph0" class="graph" transform="scale(1 1) rotate(0) translate(4 92)">
<title>x265::initROM</title>
<polygon fill="white" stroke="none" points="-4,4 -4,-92 474,-92 474,4 -4,4"/>
<!-- Node1 -->
<g id="node1" class="node"><title>Node1</title>
<polygon fill="#bfbfbf" stroke="black" points="0,-27.5 0,-46.5 80,-46.5 80,-27.5 0,-27.5"/>
<text text-anchor="middle" x="40" y="-34.5" font-family="Helvetica,sans-Serif" font-size="10.00">x265::initROM</text>
</g>
<!-- Node2 -->
<g id="node2" class="node"><title>Node2</title>
<g id="a_node2"><a xlink:href="x265_8h.html#a04a58d574a81e33aa7fe7632e2328bf2" target="_top" xlink:title="x265_setup_primitives">
<polygon fill="white" stroke="black" points="129,-49.5 129,-68.5 243,-68.5 243,-49.5 129,-49.5"/>
<text text-anchor="middle" x="186" y="-56.5" font-family="Helvetica,sans-Serif" font-size="10.00">x265_setup_primitives</text>
</a>
</g>
</g>
<!-- Node1&#45;&gt;Node2 -->
<g id="edge1" class="edge"><title>Node1&#45;&gt;Node2</title>
<path fill="none" stroke="midnightblue" d="M90.4921,-44.5613C102.889,-46.4552 116.275,-48.5004 128.965,-50.4391"/>
<polygon fill="midnightblue" stroke="midnightblue" points="90.7626,-41.0621 80.3486,-43.0116 89.7053,-47.9818 90.7626,-41.0621"/>
</g>
<!-- Node6 -->
<g id="node6" class="node"><title>Node6</title>
<g id="a_node6"><a xlink:href="classIntraPredHarness.html#a776ce1a76e29b3371bf616b0ab437da5" target="_top" xlink:title="IntraPredHarness::IntraPred\lHarness">
<polygon fill="white" stroke="black" points="116.5,-0 116.5,-30 255.5,-30 255.5,-0 116.5,-0"/>
<text text-anchor="start" x="124.5" y="-18" font-family="Helvetica,sans-Serif" font-size="10.00">IntraPredHarness::IntraPred</text>
<text text-anchor="middle" x="186" y="-7" font-family="Helvetica,sans-Serif" font-size="10.00">Harness</text>
</a>
</g>
</g>
<!-- Node1&#45;&gt;Node6 -->
<g id="edge5" class="edge"><title>Node1&#45;&gt;Node6</title>
<path fill="none" stroke="midnightblue" d="M90.3227,-29.4646C98.7147,-28.1825 107.564,-26.8304 116.348,-25.4886"/>
<polygon fill="midnightblue" stroke="midnightblue" points="89.7053,-26.0182 80.3486,-30.9884 90.7626,-32.9379 89.7053,-26.0182"/>
</g>
<!-- Node3 -->
<g id="node3" class="node"><title>Node3</title>
<g id="a_node3"><a xlink:href="x265_8h.html#add639f6af182534d265ef22d4bf91f90" target="_top" xlink:title="x265_encoder_open">
<polygon fill="white" stroke="black" points="292,-68.5 292,-87.5 396,-87.5 396,-68.5 292,-68.5"/>
<text text-anchor="middle" x="344" y="-75.5" font-family="Helvetica,sans-Serif" font-size="10.00">x265_encoder_open</text>
</a>
</g>
</g>
<!-- Node2&#45;&gt;Node3 -->
<g id="edge2" class="edge"><title>Node2&#45;&gt;Node3</title>
<path fill="none" stroke="midnightblue" d="M253.517,-67.1015C266.382,-68.6683 279.672,-70.2869 291.947,-71.782"/>
<polygon fill="midnightblue" stroke="midnightblue" points="253.669,-63.5942 243.32,-65.8594 252.823,-70.5429 253.669,-63.5942"/>
</g>
<!-- Node4 -->
<g id="node4" class="node"><title>Node4</title>
<g id="a_node4"><a xlink:href="structCLIOptions.html#a9fc5f387d720db54ca46e6abf917719f" target="_top" xlink:title="CLIOptions::parse">
<polygon fill="white" stroke="black" points="296,-30.5 296,-49.5 392,-49.5 392,-30.5 296,-30.5"/>
<text text-anchor="middle" x="344" y="-37.5" font-family="Helvetica,sans-Serif" font-size="10.00">CLIOptions::parse</text>
</a>
</g>
</g>
<!-- Node2&#45;&gt;Node4 -->
<g id="edge3" class="edge"><title>Node2&#45;&gt;Node4</title>
<path fill="none" stroke="midnightblue" d="M253.541,-50.8957C267.741,-49.1661 282.46,-47.3735 295.758,-45.7538"/>
<polygon fill="midnightblue" stroke="midnightblue" points="252.823,-47.4571 243.32,-52.1406 253.669,-54.4058 252.823,-47.4571"/>
</g>
<!-- Node5 -->
<g id="node5" class="node"><title>Node5</title>
<g id="a_node5"><a xlink:href="x265_8cpp.html#a3c04138a5bfe5d72780bb7e82a18e627" target="_top" xlink:title="main">
<polygon fill="white" stroke="black" points="432,-30.5 432,-49.5 470,-49.5 470,-30.5 432,-30.5"/>
<text text-anchor="middle" x="451" y="-37.5" font-family="Helvetica,sans-Serif" font-size="10.00">main</text>
</a>
</g>
</g>
<!-- Node4&#45;&gt;Node5 -->
<g id="edge4" class="edge"><title>Node4&#45;&gt;Node5</title>
<path fill="none" stroke="midnightblue" d="M402.513,-40C413.159,-40 423.528,-40 431.846,-40"/>
<polygon fill="midnightblue" stroke="midnightblue" points="402.278,-36.5001 392.278,-40 402.278,-43.5001 402.278,-36.5001"/>
</g>
</g>
</svg>
