<?xml version="1.0" encoding="UTF-8" standalone="no"?>
<!DOCTYPE svg PUBLIC "-//W3C//DTD SVG 1.1//EN"
 "http://www.w3.org/Graphics/SVG/1.1/DTD/svg11.dtd">
<!-- Generated by graphviz version 2.36.0 (20140111.2315)
 -->
<!-- Title: x265::getTUBits Pages: 1 -->
<svg width="1634pt" height="213pt"
 viewBox="0.00 0.00 1634.00 213.00" xmlns="http://www.w3.org/2000/svg" xmlns:xlink="http://www.w3.org/1999/xlink">
<g id="graph0" class="graph" transform="scale(1 1) rotate(0) translate(4 209)">
<title>x265::getTUBits</title>
<polygon fill="white" stroke="none" points="-4,4 -4,-209 1630,-209 1630,4 -4,4"/>
<!-- Node1 -->
<g id="node1" class="node"><title>Node1</title>
<polygon fill="#bfbfbf" stroke="black" points="0,-116.5 0,-135.5 88,-135.5 88,-116.5 0,-116.5"/>
<text text-anchor="middle" x="44" y="-123.5" font-family="Helvetica,sans-Serif" font-size="10.00">x265::getTUBits</text>
</g>
<!-- Node2 -->
<g id="node2" class="node"><title>Node2</title>
<g id="a_node2"><a xlink:href="classx265_1_1Analysis.html#addd72cb95590e2b2a6965d42d110eab3" target="_top" xlink:title="x265::Analysis::checkMerge2\lNx2N_rd0_4">
<polygon fill="white" stroke="black" points="500,-54 500,-84 646,-84 646,-54 500,-54"/>
<text text-anchor="start" x="508" y="-72" font-family="Helvetica,sans-Serif" font-size="10.00">x265::Analysis::checkMerge2</text>
<text text-anchor="middle" x="573" y="-61" font-family="Helvetica,sans-Serif" font-size="10.00">Nx2N_rd0_4</text>
</a>
</g>
</g>
<!-- Node1&#45;&gt;Node2 -->
<g id="edge1" class="edge"><title>Node1&#45;&gt;Node2</title>
<path fill="none" stroke="midnightblue" d="M98.0888,-120.258C193.107,-109.981 392.324,-88.4336 499.718,-76.818"/>
<polygon fill="midnightblue" stroke="midnightblue" points="97.6922,-116.78 88.1266,-121.335 98.445,-123.74 97.6922,-116.78"/>
</g>
<!-- Node8 -->
<g id="node8" class="node"><title>Node8</title>
<g id="a_node8"><a xlink:href="classx265_1_1Search.html#a761560ef5d3ff0beb48567c88c771d55" target="_top" xlink:title="x265::Search::mergeEstimation">
<polygon fill="white" stroke="black" points="124,-135.5 124,-154.5 278,-154.5 278,-135.5 124,-135.5"/>
<text text-anchor="middle" x="201" y="-142.5" font-family="Helvetica,sans-Serif" font-size="10.00">x265::Search::mergeEstimation</text>
</a>
</g>
</g>
<!-- Node1&#45;&gt;Node8 -->
<g id="edge8" class="edge"><title>Node1&#45;&gt;Node8</title>
<path fill="none" stroke="midnightblue" d="M98.3485,-132.539C106.575,-133.548 115.204,-134.606 123.813,-135.661"/>
<polygon fill="midnightblue" stroke="midnightblue" points="98.5277,-129.035 88.1761,-131.293 97.676,-135.983 98.5277,-129.035"/>
</g>
<!-- Node9 -->
<g id="node9" class="node"><title>Node9</title>
<g id="a_node9"><a xlink:href="classx265_1_1Search.html#a48101e3d900e93b97a83f461be390bd1" target="_top" xlink:title="x265::Search::predInterSearch">
<polygon fill="white" stroke="black" points="314.5,-121.5 314.5,-140.5 463.5,-140.5 463.5,-121.5 314.5,-121.5"/>
<text text-anchor="middle" x="389" y="-128.5" font-family="Helvetica,sans-Serif" font-size="10.00">x265::Search::predInterSearch</text>
</a>
</g>
</g>
<!-- Node1&#45;&gt;Node9 -->
<g id="edge22" class="edge"><title>Node1&#45;&gt;Node9</title>
<path fill="none" stroke="midnightblue" d="M98.3824,-125.311C145.613,-124.867 216.399,-124.601 278,-126 289.754,-126.267 302.209,-126.694 314.35,-127.189"/>
<polygon fill="midnightblue" stroke="midnightblue" points="98.3434,-121.812 88.379,-125.412 98.4136,-128.811 98.3434,-121.812"/>
</g>
<!-- Node15 -->
<g id="node15" class="node"><title>Node15</title>
<g id="a_node15"><a xlink:href="classx265_1_1Search.html#a47294b1b3d67ab31cb6be412407982d5" target="_top" xlink:title="x265::Search::singleMotion\lEstimation">
<polygon fill="white" stroke="black" points="133.5,-174 133.5,-204 268.5,-204 268.5,-174 133.5,-174"/>
<text text-anchor="start" x="141.5" y="-192" font-family="Helvetica,sans-Serif" font-size="10.00">x265::Search::singleMotion</text>
<text text-anchor="middle" x="201" y="-181" font-family="Helvetica,sans-Serif" font-size="10.00">Estimation</text>
</a>
</g>
</g>
<!-- Node1&#45;&gt;Node15 -->
<g id="edge18" class="edge"><title>Node1&#45;&gt;Node15</title>
<path fill="none" stroke="midnightblue" d="M72.4377,-140.288C87.4546,-147.83 106.514,-156.954 124,-164 132.632,-167.478 141.951,-170.849 151.007,-173.929"/>
<polygon fill="midnightblue" stroke="midnightblue" points="73.7109,-137.009 63.2104,-135.599 70.5394,-143.25 73.7109,-137.009"/>
</g>
<!-- Node3 -->
<g id="node3" class="node"><title>Node3</title>
<g id="a_node3"><a xlink:href="classx265_1_1Analysis.html#a87060ff27a37f56adc5f5b8a4c033ece" target="_top" xlink:title="x265::Analysis::compress\lInterCU_dist">
<polygon fill="white" stroke="black" points="1014,-44 1014,-74 1144,-74 1144,-44 1014,-44"/>
<text text-anchor="start" x="1022" y="-62" font-family="Helvetica,sans-Serif" font-size="10.00">x265::Analysis::compress</text>
<text text-anchor="middle" x="1079" y="-51" font-family="Helvetica,sans-Serif" font-size="10.00">InterCU_dist</text>
</a>
</g>
</g>
<!-- Node2&#45;&gt;Node3 -->
<g id="edge2" class="edge"><title>Node2&#45;&gt;Node3</title>
<path fill="none" stroke="midnightblue" d="M656.273,-67.3676C756.278,-65.3834 922.918,-62.077 1013.9,-60.2717"/>
<polygon fill="midnightblue" stroke="midnightblue" points="656.139,-63.8695 646.211,-67.5672 656.278,-70.8681 656.139,-63.8695"/>
</g>
<!-- Node7 -->
<g id="node7" class="node"><title>Node7</title>
<g id="a_node7"><a xlink:href="classx265_1_1Analysis.html#a30d2ff7eca5addbb0a6b3dfe14f09650" target="_top" xlink:title="x265::Analysis::compress\lInterCU_rd0_4">
<polygon fill="white" stroke="black" points="682,-88 682,-118 812,-118 812,-88 682,-88"/>
<text text-anchor="start" x="690" y="-106" font-family="Helvetica,sans-Serif" font-size="10.00">x265::Analysis::compress</text>
<text text-anchor="middle" x="747" y="-95" font-family="Helvetica,sans-Serif" font-size="10.00">InterCU_rd0_4</text>
</a>
</g>
</g>
<!-- Node2&#45;&gt;Node7 -->
<g id="edge6" class="edge"><title>Node2&#45;&gt;Node7</title>
<path fill="none" stroke="midnightblue" d="M656.422,-85.2928C664.957,-86.9799 673.539,-88.6764 681.831,-90.3155"/>
<polygon fill="midnightblue" stroke="midnightblue" points="656.934,-81.8263 646.445,-83.3205 655.576,-88.6934 656.934,-81.8263"/>
</g>
<!-- Node4 -->
<g id="node4" class="node"><title>Node4</title>
<g id="a_node4"><a xlink:href="classx265_1_1Analysis.html#aaebc9de2ff98834c650244f3b58942c2" target="_top" xlink:title="x265::Analysis::compressCTU">
<polygon fill="white" stroke="black" points="1180.5,-49.5 1180.5,-68.5 1331.5,-68.5 1331.5,-49.5 1180.5,-49.5"/>
<text text-anchor="middle" x="1256" y="-56.5" font-family="Helvetica,sans-Serif" font-size="10.00">x265::Analysis::compressCTU</text>
</a>
</g>
</g>
<!-- Node3&#45;&gt;Node4 -->
<g id="edge3" class="edge"><title>Node3&#45;&gt;Node4</title>
<path fill="none" stroke="midnightblue" d="M1154.25,-59C1162.93,-59 1171.78,-59 1180.47,-59"/>
<polygon fill="midnightblue" stroke="midnightblue" points="1154.17,-55.5001 1144.17,-59 1154.17,-62.5001 1154.17,-55.5001"/>
</g>
<!-- Node5 -->
<g id="node5" class="node"><title>Node5</title>
<g id="a_node5"><a xlink:href="classx265_1_1FrameEncoder.html#a0ae85001572afd28238476542523ac5f" target="_top" xlink:title="x265::FrameEncoder\l::processRowEncoder">
<polygon fill="white" stroke="black" points="1368.5,-44 1368.5,-74 1481.5,-74 1481.5,-44 1368.5,-44"/>
<text text-anchor="start" x="1376.5" y="-62" font-family="Helvetica,sans-Serif" font-size="10.00">x265::FrameEncoder</text>
<text text-anchor="middle" x="1425" y="-51" font-family="Helvetica,sans-Serif" font-size="10.00">::processRowEncoder</text>
</a>
</g>
</g>
<!-- Node4&#45;&gt;Node5 -->
<g id="edge4" class="edge"><title>Node4&#45;&gt;Node5</title>
<path fill="none" stroke="midnightblue" d="M1341.86,-59C1350.86,-59 1359.85,-59 1368.39,-59"/>
<polygon fill="midnightblue" stroke="midnightblue" points="1341.71,-55.5001 1331.71,-59 1341.71,-62.5001 1341.71,-55.5001"/>
</g>
<!-- Node6 -->
<g id="node6" class="node"><title>Node6</title>
<g id="a_node6"><a xlink:href="classx265_1_1FrameEncoder.html#acad645a8ece97d884895f8f7366b7d70" target="_top" xlink:title="x265::FrameEncoder\l::processRow">
<polygon fill="white" stroke="red" points="1518.5,-44 1518.5,-74 1625.5,-74 1625.5,-44 1518.5,-44"/>
<text text-anchor="start" x="1526.5" y="-62" font-family="Helvetica,sans-Serif" font-size="10.00">x265::FrameEncoder</text>
<text text-anchor="middle" x="1572" y="-51" font-family="Helvetica,sans-Serif" font-size="10.00">::processRow</text>
</a>
</g>
</g>
<!-- Node5&#45;&gt;Node6 -->
<g id="edge5" class="edge"><title>Node5&#45;&gt;Node6</title>
<path fill="none" stroke="midnightblue" d="M1491.88,-59C1500.67,-59 1509.59,-59 1518.13,-59"/>
<polygon fill="midnightblue" stroke="midnightblue" points="1491.65,-55.5001 1481.65,-59 1491.65,-62.5001 1491.65,-55.5001"/>
</g>
<!-- Node7&#45;&gt;Node4 -->
<g id="edge7" class="edge"><title>Node7&#45;&gt;Node4</title>
<path fill="none" stroke="midnightblue" d="M822.518,-102.836C902.362,-101.823 1032.65,-97.7505 1144,-83 1169.02,-79.6859 1196.77,-73.6859 1218.26,-68.5144"/>
<polygon fill="midnightblue" stroke="midnightblue" points="822.035,-99.3416 812.075,-102.955 822.114,-106.341 822.035,-99.3416"/>
</g>
<!-- Node8&#45;&gt;Node9 -->
<g id="edge9" class="edge"><title>Node8&#45;&gt;Node9</title>
<path fill="none" stroke="midnightblue" d="M288.336,-138.502C297.024,-137.848 305.791,-137.188 314.33,-136.545"/>
<polygon fill="midnightblue" stroke="midnightblue" points="287.899,-135.024 278.19,-139.265 288.425,-142.005 287.899,-135.024"/>
</g>
<!-- Node10 -->
<g id="node10" class="node"><title>Node10</title>
<g id="a_node10"><a xlink:href="classx265_1_1Analysis.html#a2305f7985af66b49fdbc40ebb1b281d2" target="_top" xlink:title="x265::Analysis::checkInter\l_rd0_4">
<polygon fill="white" stroke="black" points="506.5,-116 506.5,-146 639.5,-146 639.5,-116 506.5,-116"/>
<text text-anchor="start" x="514.5" y="-134" font-family="Helvetica,sans-Serif" font-size="10.00">x265::Analysis::checkInter</text>
<text text-anchor="middle" x="573" y="-123" font-family="Helvetica,sans-Serif" font-size="10.00">_rd0_4</text>
</a>
</g>
</g>
<!-- Node9&#45;&gt;Node10 -->
<g id="edge10" class="edge"><title>Node9&#45;&gt;Node10</title>
<path fill="none" stroke="midnightblue" d="M473.569,-131C484.597,-131 495.771,-131 506.438,-131"/>
<polygon fill="midnightblue" stroke="midnightblue" points="473.502,-127.5 463.502,-131 473.502,-134.5 473.502,-127.5"/>
</g>
<!-- Node13 -->
<g id="node13" class="node"><title>Node13</title>
<g id="a_node13"><a xlink:href="classx265_1_1Analysis.html#a828daa3e9f1ed40a1af9f99f7ff7bb33" target="_top" xlink:title="x265::Analysis::checkInter\l_rd5_6">
<polygon fill="white" stroke="black" points="506.5,-4 506.5,-34 639.5,-34 639.5,-4 506.5,-4"/>
<text text-anchor="start" x="514.5" y="-22" font-family="Helvetica,sans-Serif" font-size="10.00">x265::Analysis::checkInter</text>
<text text-anchor="middle" x="573" y="-11" font-family="Helvetica,sans-Serif" font-size="10.00">_rd5_6</text>
</a>
</g>
</g>
<!-- Node9&#45;&gt;Node13 -->
<g id="edge15" class="edge"><title>Node9&#45;&gt;Node13</title>
<path fill="none" stroke="midnightblue" d="M407.118,-114.411C427.704,-95.2222 464.004,-63.7437 500,-44 506.729,-40.3092 514.105,-37.0076 521.489,-34.1082"/>
<polygon fill="midnightblue" stroke="midnightblue" points="404.646,-111.932 399.787,-121.347 409.457,-117.017 404.646,-111.932"/>
</g>
<!-- Node10&#45;&gt;Node7 -->
<g id="edge14" class="edge"><title>Node10&#45;&gt;Node7</title>
<path fill="none" stroke="midnightblue" d="M649.698,-118.677C660.409,-116.933 671.336,-115.155 681.803,-113.451"/>
<polygon fill="midnightblue" stroke="midnightblue" points="648.824,-115.273 639.516,-120.335 649.949,-122.182 648.824,-115.273"/>
</g>
<!-- Node11 -->
<g id="node11" class="node"><title>Node11</title>
<g id="a_node11"><a xlink:href="classx265_1_1Analysis.html#aa6122285d10bb1bd7584958b88b029d5" target="_top" xlink:title="x265::Analysis::parallel\lModeAnalysis">
<polygon fill="white" stroke="black" points="688,-137 688,-167 806,-167 806,-137 688,-137"/>
<text text-anchor="start" x="696" y="-155" font-family="Helvetica,sans-Serif" font-size="10.00">x265::Analysis::parallel</text>
<text text-anchor="middle" x="747" y="-144" font-family="Helvetica,sans-Serif" font-size="10.00">ModeAnalysis</text>
</a>
</g>
</g>
<!-- Node10&#45;&gt;Node11 -->
<g id="edge11" class="edge"><title>Node10&#45;&gt;Node11</title>
<path fill="none" stroke="midnightblue" d="M649.72,-140.245C662.554,-141.812 675.698,-143.417 687.986,-144.917"/>
<polygon fill="midnightblue" stroke="midnightblue" points="649.867,-136.737 639.516,-138.999 649.019,-143.685 649.867,-136.737"/>
</g>
<!-- Node12 -->
<g id="node12" class="node"><title>Node12</title>
<g id="a_node12"><a xlink:href="classx265_1_1Analysis.html#a29a58dad4cc1c07d2f5e5717c6be7c25" target="_top" xlink:title="x265::Analysis::findJob">
<polygon fill="white" stroke="black" points="853.5,-142.5 853.5,-161.5 972.5,-161.5 972.5,-142.5 853.5,-142.5"/>
<text text-anchor="middle" x="913" y="-149.5" font-family="Helvetica,sans-Serif" font-size="10.00">x265::Analysis::findJob</text>
</a>
</g>
</g>
<!-- Node11&#45;&gt;Node12 -->
<g id="edge12" class="edge"><title>Node11&#45;&gt;Node12</title>
<path fill="none" stroke="midnightblue" d="M816.459,-152C828.721,-152 841.398,-152 853.353,-152"/>
<polygon fill="midnightblue" stroke="midnightblue" points="816.282,-148.5 806.282,-152 816.282,-155.5 816.282,-148.5"/>
</g>
<!-- Node12&#45;&gt;Node3 -->
<g id="edge13" class="edge"><title>Node12&#45;&gt;Node3</title>
<path fill="none" stroke="midnightblue" d="M939.697,-137.428C970.151,-120.158 1020.64,-91.5276 1051.46,-74.0511"/>
<polygon fill="midnightblue" stroke="midnightblue" points="937.905,-134.42 930.933,-142.398 941.358,-140.509 937.905,-134.42"/>
</g>
<!-- Node14 -->
<g id="node14" class="node"><title>Node14</title>
<g id="a_node14"><a xlink:href="classx265_1_1Analysis.html#a0b22b7765aa4a36b1ba6d07ba26901e6" target="_top" xlink:title="x265::Analysis::compress\lInterCU_rd5_6">
<polygon fill="white" stroke="black" points="848,-0 848,-30 978,-30 978,-0 848,-0"/>
<text text-anchor="start" x="856" y="-18" font-family="Helvetica,sans-Serif" font-size="10.00">x265::Analysis::compress</text>
<text text-anchor="middle" x="913" y="-7" font-family="Helvetica,sans-Serif" font-size="10.00">InterCU_rd5_6</text>
</a>
</g>
</g>
<!-- Node13&#45;&gt;Node14 -->
<g id="edge16" class="edge"><title>Node13&#45;&gt;Node14</title>
<path fill="none" stroke="midnightblue" d="M649.674,-18.1045C709.246,-17.3995 791.356,-16.4277 847.759,-15.7602"/>
<polygon fill="midnightblue" stroke="midnightblue" points="649.528,-14.6058 639.571,-18.224 649.611,-21.6053 649.528,-14.6058"/>
</g>
<!-- Node14&#45;&gt;Node4 -->
<g id="edge17" class="edge"><title>Node14&#45;&gt;Node4</title>
<path fill="none" stroke="midnightblue" d="M988.242,-18.5068C1033.45,-21.2926 1092.27,-26.0769 1144,-34 1169.19,-37.8578 1197.18,-44.1757 1218.75,-49.4948"/>
<polygon fill="midnightblue" stroke="midnightblue" points="988.418,-15.0112 978.227,-17.9085 988.001,-21.9987 988.418,-15.0112"/>
</g>
<!-- Node15&#45;&gt;Node9 -->
<g id="edge21" class="edge"><title>Node15&#45;&gt;Node9</title>
<path fill="none" stroke="midnightblue" d="M260.14,-170.87C292.319,-160.836 331.008,-148.772 357.34,-140.561"/>
<polygon fill="midnightblue" stroke="midnightblue" points="258.888,-167.594 250.384,-173.913 260.972,-174.277 258.888,-167.594"/>
</g>
<!-- Node16 -->
<g id="node16" class="node"><title>Node16</title>
<g id="a_node16"><a xlink:href="classx265_1_1Analysis.html#abd49473ae6e5e1f7e555b447b04398e6" target="_top" xlink:title="x265::Analysis::parallelME">
<polygon fill="white" stroke="black" points="322.5,-182.5 322.5,-201.5 455.5,-201.5 455.5,-182.5 322.5,-182.5"/>
<text text-anchor="middle" x="389" y="-189.5" font-family="Helvetica,sans-Serif" font-size="10.00">x265::Analysis::parallelME</text>
</a>
</g>
</g>
<!-- Node15&#45;&gt;Node16 -->
<g id="edge19" class="edge"><title>Node15&#45;&gt;Node16</title>
<path fill="none" stroke="midnightblue" d="M279.021,-190.242C293.455,-190.475 308.419,-190.716 322.464,-190.943"/>
<polygon fill="midnightblue" stroke="midnightblue" points="278.68,-186.736 268.625,-190.075 278.567,-193.736 278.68,-186.736"/>
</g>
<!-- Node16&#45;&gt;Node12 -->
<g id="edge20" class="edge"><title>Node16&#45;&gt;Node12</title>
<path fill="none" stroke="midnightblue" d="M465.827,-193.615C550.602,-194.38 691.778,-192.54 812,-176 834.817,-172.861 860.031,-166.791 879.432,-161.542"/>
<polygon fill="midnightblue" stroke="midnightblue" points="465.81,-190.115 455.774,-193.51 465.737,-197.114 465.81,-190.115"/>
</g>
</g>
</svg>
