<?xml version="1.0" encoding="UTF-8" standalone="no"?>
<!DOCTYPE svg PUBLIC "-//W3C//DTD SVG 1.1//EN"
 "http://www.w3.org/Graphics/SVG/1.1/DTD/svg11.dtd">
<!-- Generated by graphviz version 2.36.0 (20140111.2315)
 -->
<!-- Title: x265::Setup_Alias_Primitives Pages: 1 -->
<svg width="518pt" height="85pt"
 viewBox="0.00 0.00 518.00 85.00" xmlns="http://www.w3.org/2000/svg" xmlns:xlink="http://www.w3.org/1999/xlink">
<g id="graph0" class="graph" transform="scale(1 1) rotate(0) translate(4 81)">
<title>x265::Setup_Alias_Primitives</title>
<polygon fill="white" stroke="none" points="-4,4 -4,-81 514,-81 514,4 -4,4"/>
<!-- Node1 -->
<g id="node1" class="node"><title>Node1</title>
<polygon fill="#bfbfbf" stroke="black" points="0.5,-19.5 0.5,-38.5 145.5,-38.5 145.5,-19.5 0.5,-19.5"/>
<text text-anchor="middle" x="73" y="-26.5" font-family="Helvetica,sans-Serif" font-size="10.00">x265::Setup_Alias_Primitives</text>
</g>
<!-- Node2 -->
<g id="node2" class="node"><title>Node2</title>
<g id="a_node2"><a xlink:href="x265_8h.html#a04a58d574a81e33aa7fe7632e2328bf2" target="_top" xlink:title="x265_setup_primitives">
<polygon fill="white" stroke="black" points="182,-38.5 182,-57.5 296,-57.5 296,-38.5 182,-38.5"/>
<text text-anchor="middle" x="239" y="-45.5" font-family="Helvetica,sans-Serif" font-size="10.00">x265_setup_primitives</text>
</a>
</g>
</g>
<!-- Node1&#45;&gt;Node2 -->
<g id="edge1" class="edge"><title>Node1&#45;&gt;Node2</title>
<path fill="none" stroke="midnightblue" d="M156.145,-38.5168C164.864,-39.5269 173.581,-40.5368 181.901,-41.5007"/>
<polygon fill="midnightblue" stroke="midnightblue" points="156.269,-35.0079 145.933,-37.3337 155.464,-41.9613 156.269,-35.0079"/>
</g>
<!-- Node6 -->
<g id="node6" class="node"><title>Node6</title>
<g id="a_node6"><a xlink:href="testbench_8cpp.html#a0ddf1224851353fc92bfbff6f499fa97" target="_top" xlink:title="main">
<polygon fill="white" stroke="black" points="220,-0.5 220,-19.5 258,-19.5 258,-0.5 220,-0.5"/>
<text text-anchor="middle" x="239" y="-7.5" font-family="Helvetica,sans-Serif" font-size="10.00">main</text>
</a>
</g>
</g>
<!-- Node1&#45;&gt;Node6 -->
<g id="edge5" class="edge"><title>Node1&#45;&gt;Node6</title>
<path fill="none" stroke="midnightblue" d="M156.178,-19.4794C180.136,-16.7038 204.073,-13.9305 219.81,-12.1074"/>
<polygon fill="midnightblue" stroke="midnightblue" points="155.464,-16.0387 145.933,-20.6663 156.269,-22.9921 155.464,-16.0387"/>
</g>
<!-- Node3 -->
<g id="node3" class="node"><title>Node3</title>
<g id="a_node3"><a xlink:href="x265_8h.html#add639f6af182534d265ef22d4bf91f90" target="_top" xlink:title="x265_encoder_open">
<polygon fill="white" stroke="black" points="332,-57.5 332,-76.5 436,-76.5 436,-57.5 332,-57.5"/>
<text text-anchor="middle" x="384" y="-64.5" font-family="Helvetica,sans-Serif" font-size="10.00">x265_encoder_open</text>
</a>
</g>
</g>
<!-- Node2&#45;&gt;Node3 -->
<g id="edge2" class="edge"><title>Node2&#45;&gt;Node3</title>
<path fill="none" stroke="midnightblue" d="M306.118,-56.7849C314.712,-57.9268 323.411,-59.0825 331.713,-60.1856"/>
<polygon fill="midnightblue" stroke="midnightblue" points="306.481,-53.3024 296.107,-55.4548 305.559,-60.2415 306.481,-53.3024"/>
</g>
<!-- Node4 -->
<g id="node4" class="node"><title>Node4</title>
<g id="a_node4"><a xlink:href="structCLIOptions.html#a9fc5f387d720db54ca46e6abf917719f" target="_top" xlink:title="CLIOptions::parse">
<polygon fill="white" stroke="black" points="336,-19.5 336,-38.5 432,-38.5 432,-19.5 336,-19.5"/>
<text text-anchor="middle" x="384" y="-26.5" font-family="Helvetica,sans-Serif" font-size="10.00">CLIOptions::parse</text>
</a>
</g>
</g>
<!-- Node2&#45;&gt;Node4 -->
<g id="edge3" class="edge"><title>Node2&#45;&gt;Node4</title>
<path fill="none" stroke="midnightblue" d="M306.073,-39.2211C316.117,-37.8866 326.304,-36.533 335.836,-35.2666"/>
<polygon fill="midnightblue" stroke="midnightblue" points="305.559,-35.7585 296.107,-40.5452 306.481,-42.6976 305.559,-35.7585"/>
</g>
<!-- Node5 -->
<g id="node5" class="node"><title>Node5</title>
<g id="a_node5"><a xlink:href="x265_8cpp.html#a3c04138a5bfe5d72780bb7e82a18e627" target="_top" xlink:title="main">
<polygon fill="white" stroke="black" points="472,-19.5 472,-38.5 510,-38.5 510,-19.5 472,-19.5"/>
<text text-anchor="middle" x="491" y="-26.5" font-family="Helvetica,sans-Serif" font-size="10.00">main</text>
</a>
</g>
</g>
<!-- Node4&#45;&gt;Node5 -->
<g id="edge4" class="edge"><title>Node4&#45;&gt;Node5</title>
<path fill="none" stroke="midnightblue" d="M442.513,-29C453.159,-29 463.528,-29 471.846,-29"/>
<polygon fill="midnightblue" stroke="midnightblue" points="442.278,-25.5001 432.278,-29 442.278,-32.5001 442.278,-25.5001"/>
</g>
</g>
</svg>
