<?xml version="1.0" encoding="UTF-8" standalone="no"?>
<!DOCTYPE svg PUBLIC "-//W3C//DTD SVG 1.1//EN"
 "http://www.w3.org/Graphics/SVG/1.1/DTD/svg11.dtd">
<!-- Generated by graphviz version 2.36.0 (20140111.2315)
 -->
<!-- Title: x265::x265_param2string Pages: 1 -->
<!--zoomable 170 -->
<svg id="main" version="1.1" xmlns="http://www.w3.org/2000/svg" xmlns:xlink="http://www.w3.org/1999/xlink" xml:space="preserve" onload="init(evt)">
<style type="text/css"><![CDATA[
.edge:hover path { stroke: red; }
.edge:hover polygon { stroke: red; fill: red; }
]]></style>
<script type="text/javascript"><![CDATA[
var edges = document.getElementsByTagName('g');
if (edges && edges.length) {
  for (var i=0;i<edges.length;i++) {
    if (edges[i].id.substr(0,4)=='edge') {
      edges[i].setAttribute('class','edge');
    }
  }
}
]]></script>
        <defs>
                <circle id="rim" cx="0" cy="0" r="7"/>
                <circle id="rim2" cx="0" cy="0" r="3.5"/>
                <g id="zoomPlus">
                        <use xlink:href="#rim" fill="#404040">
                                <set attributeName="fill" to="#808080" begin="zoomplus.mouseover" end="zoomplus.mouseout"/>
                        </use>
                        <path d="M-4,0h8M0,-4v8" fill="none" stroke="white" stroke-width="1.5" pointer-events="none"/>
                </g>
                <g id="zoomMin">
                        <use xlink:href="#rim" fill="#404040">
                                <set attributeName="fill" to="#808080" begin="zoomminus.mouseover" end="zoomminus.mouseout"/>
                        </use>
                        <path d="M-4,0h8" fill="none" stroke="white" stroke-width="1.5" pointer-events="none"/>
                </g>
                <g id="dirArrow">
                        <path fill="none" stroke="white" stroke-width="1.5" d="M0,-3.0v7 M-2.5,-0.5L0,-3.0L2.5,-0.5"/>
                </g>
               <g id="resetDef">
                       <use xlink:href="#rim2" fill="#404040">
                               <set attributeName="fill" to="#808080" begin="reset.mouseover" end="reset.mouseout"/>
                       </use>
               </g>
        </defs>

<script type="text/javascript">
var viewWidth = 1022;
var viewHeight = 170;
var sectionId = 'dynsection-52';
</script>
<script xlink:href="svgpan.js"/>
<svg id="graph" class="graph">
<g id="viewport">
<title>x265::x265_param2string</title>
<polygon fill="white" stroke="none" points="-4,4 -4,-166.305 1018,-166.305 1018,4 -4,4"/>
<!-- Node1 -->
<g id="node1" class="node"><title>Node1</title>
<polygon fill="#bfbfbf" stroke="black" points="0,-88.5 0,-107.5 126,-107.5 126,-88.5 0,-88.5"/>
<text text-anchor="middle" x="63" y="-95.5" font-family="Helvetica,sans-Serif" font-size="10.00">x265::x265_param2string</text>
</g>
<!-- Node2 -->
<g id="node2" class="node"><title>Node2</title>
<g id="a_node2"><a xlink:href="classx265_1_1Encoder.html#a5095039a4d1af32049c30052ef3e6588" target="_top" xlink:title="x265::Encoder::getStream\lHeaders">
<polygon fill="white" stroke="black" points="162.5,-127 162.5,-157 293.5,-157 293.5,-127 162.5,-127"/>
<text text-anchor="start" x="170.5" y="-145" font-family="Helvetica,sans-Serif" font-size="10.00">x265::Encoder::getStream</text>
<text text-anchor="middle" x="228" y="-134" font-family="Helvetica,sans-Serif" font-size="10.00">Headers</text>
</a>
</g>
</g>
<!-- Node1&#45;&gt;Node2 -->
<g id="edge1" class="edge"><title>Node1&#45;&gt;Node2</title>
<path fill="none" stroke="midnightblue" d="M109.08,-110.169C128.301,-115.357 150.926,-121.465 171.19,-126.935"/>
<polygon fill="midnightblue" stroke="midnightblue" points="109.935,-106.774 99.3686,-107.547 108.111,-113.533 109.935,-106.774"/>
</g>
<!-- Node4 -->
<g id="node4" class="node"><title>Node4</title>
<g id="a_node4"><a xlink:href="x265_8cpp.html#a3c04138a5bfe5d72780bb7e82a18e627" target="_top" xlink:title="main">
<polygon fill="white" stroke="black" points="517,-126.5 517,-145.5 555,-145.5 555,-126.5 517,-126.5"/>
<text text-anchor="middle" x="536" y="-133.5" font-family="Helvetica,sans-Serif" font-size="10.00">main</text>
</a>
</g>
</g>
<!-- Node1&#45;&gt;Node4 -->
<g id="edge15" class="edge"><title>Node1&#45;&gt;Node4</title>
<path fill="none" stroke="midnightblue" d="M136.265,-98.0187C213.693,-98.8671 340.035,-102.64 448,-117 472.061,-120.2 499.331,-126.621 516.825,-131.109"/>
<polygon fill="midnightblue" stroke="midnightblue" points="136.171,-94.5177 126.138,-97.9214 136.104,-101.517 136.171,-94.5177"/>
</g>
<!-- Node7 -->
<g id="node7" class="node"><title>Node7</title>
<g id="a_node7"><a xlink:href="classx265_1_1RateControl.html#a876ac228bb24724125ce1caadbff73ec" target="_top" xlink:title="x265::RateControl::init">
<polygon fill="white" stroke="black" points="170.5,-44.5 170.5,-63.5 285.5,-63.5 285.5,-44.5 170.5,-44.5"/>
<text text-anchor="middle" x="228" y="-51.5" font-family="Helvetica,sans-Serif" font-size="10.00">x265::RateControl::init</text>
</a>
</g>
</g>
<!-- Node1&#45;&gt;Node7 -->
<g id="edge6" class="edge"><title>Node1&#45;&gt;Node7</title>
<path fill="none" stroke="midnightblue" d="M109.028,-85.8453C135.111,-78.8045 167.472,-70.0688 191.7,-63.5287"/>
<polygon fill="midnightblue" stroke="midnightblue" points="108.111,-82.4674 99.3686,-88.4527 109.935,-89.2255 108.111,-82.4674"/>
</g>
<!-- Node3 -->
<g id="node3" class="node"><title>Node3</title>
<g id="a_node3"><a xlink:href="x265_8h.html#a575071c7bc7374ffd708d93f016211b5" target="_top" xlink:title="x265_encoder_headers">
<polygon fill="white" stroke="black" points="330.5,-126.5 330.5,-145.5 447.5,-145.5 447.5,-126.5 330.5,-126.5"/>
<text text-anchor="middle" x="389" y="-133.5" font-family="Helvetica,sans-Serif" font-size="10.00">x265_encoder_headers</text>
</a>
</g>
</g>
<!-- Node2&#45;&gt;Node3 -->
<g id="edge2" class="edge"><title>Node2&#45;&gt;Node3</title>
<path fill="none" stroke="midnightblue" d="M303.699,-139.181C312.632,-138.844 321.646,-138.504 330.288,-138.178"/>
<polygon fill="midnightblue" stroke="midnightblue" points="303.532,-135.685 293.671,-139.56 303.796,-142.68 303.532,-135.685"/>
</g>
<!-- Node5 -->
<g id="node5" class="node"><title>Node5</title>
<g id="a_node5"><a xlink:href="classx265_1_1FrameEncoder.html#a2f5c4c0f1a4e36fce4c9b87eb7ec4973" target="_top" xlink:title="x265::FrameEncoder\l::compressFrame">
<polygon fill="white" stroke="black" points="762.5,-88 762.5,-118 869.5,-118 869.5,-88 762.5,-88"/>
<text text-anchor="start" x="770.5" y="-106" font-family="Helvetica,sans-Serif" font-size="10.00">x265::FrameEncoder</text>
<text text-anchor="middle" x="816" y="-95" font-family="Helvetica,sans-Serif" font-size="10.00">::compressFrame</text>
</a>
</g>
</g>
<!-- Node2&#45;&gt;Node5 -->
<g id="edge4" class="edge"><title>Node2&#45;&gt;Node5</title>
<path fill="none" stroke="midnightblue" d="M303.534,-152.686C312.437,-153.638 321.411,-154.45 330,-155 444.432,-162.334 473.907,-166.458 588,-155 650.27,-148.746 665.091,-141.377 726,-127 737.837,-124.206 750.49,-120.956 762.431,-117.766"/>
<polygon fill="midnightblue" stroke="midnightblue" points="303.867,-149.201 293.537,-151.556 303.081,-156.157 303.867,-149.201"/>
</g>
<!-- Node3&#45;&gt;Node4 -->
<g id="edge3" class="edge"><title>Node3&#45;&gt;Node4</title>
<path fill="none" stroke="midnightblue" d="M457.934,-136C479.572,-136 501.755,-136 516.732,-136"/>
<polygon fill="midnightblue" stroke="midnightblue" points="457.725,-132.5 447.724,-136 457.724,-139.5 457.725,-132.5"/>
</g>
<!-- Node6 -->
<g id="node6" class="node"><title>Node6</title>
<g id="a_node6"><a xlink:href="classx265_1_1FrameEncoder.html#aef61f29b9e93b3af9255d96236bc90a7" target="_top" xlink:title="x265::FrameEncoder\l::threadMain">
<polygon fill="white" stroke="black" points="906.5,-88 906.5,-118 1013.5,-118 1013.5,-88 906.5,-88"/>
<text text-anchor="start" x="914.5" y="-106" font-family="Helvetica,sans-Serif" font-size="10.00">x265::FrameEncoder</text>
<text text-anchor="middle" x="960" y="-95" font-family="Helvetica,sans-Serif" font-size="10.00">::threadMain</text>
</a>
</g>
</g>
<!-- Node5&#45;&gt;Node6 -->
<g id="edge5" class="edge"><title>Node5&#45;&gt;Node6</title>
<path fill="none" stroke="midnightblue" d="M879.994,-103C888.704,-103 897.578,-103 906.08,-103"/>
<polygon fill="midnightblue" stroke="midnightblue" points="879.876,-99.5001 869.876,-103 879.876,-106.5 879.876,-99.5001"/>
</g>
<!-- Node8 -->
<g id="node8" class="node"><title>Node8</title>
<g id="a_node8"><a xlink:href="classx265_1_1Encoder.html#a01e97423efe4bdd957c53f8d59fe2b74" target="_top" xlink:title="x265::Encoder::init">
<polygon fill="white" stroke="black" points="340,-0.5 340,-19.5 438,-19.5 438,-0.5 340,-0.5"/>
<text text-anchor="middle" x="389" y="-7.5" font-family="Helvetica,sans-Serif" font-size="10.00">x265::Encoder::init</text>
</a>
</g>
</g>
<!-- Node7&#45;&gt;Node8 -->
<g id="edge7" class="edge"><title>Node7&#45;&gt;Node8</title>
<path fill="none" stroke="midnightblue" d="M273.259,-41.7522C298.644,-34.7276 330.037,-26.04 353.567,-19.5287"/>
<polygon fill="midnightblue" stroke="midnightblue" points="272.205,-38.4123 263.501,-44.4527 274.072,-45.1587 272.205,-38.4123"/>
</g>
<!-- Node10 -->
<g id="node10" class="node"><title>Node10</title>
<g id="a_node10"><a xlink:href="classx265_1_1RateControl.html#a707ab4308990444a40f1fb4c2d2f4f48" target="_top" xlink:title="x265::RateControl::\lcheckAndResetABR">
<polygon fill="white" stroke="black" points="335.5,-39 335.5,-69 442.5,-69 442.5,-39 335.5,-39"/>
<text text-anchor="start" x="343.5" y="-57" font-family="Helvetica,sans-Serif" font-size="10.00">x265::RateControl::</text>
<text text-anchor="middle" x="389" y="-46" font-family="Helvetica,sans-Serif" font-size="10.00">checkAndResetABR</text>
</a>
</g>
</g>
<!-- Node7&#45;&gt;Node10 -->
<g id="edge9" class="edge"><title>Node7&#45;&gt;Node10</title>
<path fill="none" stroke="midnightblue" d="M295.553,-54C308.852,-54 322.647,-54 335.397,-54"/>
<polygon fill="midnightblue" stroke="midnightblue" points="295.505,-50.5001 285.505,-54 295.505,-57.5001 295.505,-50.5001"/>
</g>
<!-- Node9 -->
<g id="node9" class="node"><title>Node9</title>
<g id="a_node9"><a xlink:href="x265_8h.html#add639f6af182534d265ef22d4bf91f90" target="_top" xlink:title="x265_encoder_open">
<polygon fill="white" stroke="black" points="484,-0.5 484,-19.5 588,-19.5 588,-0.5 484,-0.5"/>
<text text-anchor="middle" x="536" y="-7.5" font-family="Helvetica,sans-Serif" font-size="10.00">x265_encoder_open</text>
</a>
</g>
</g>
<!-- Node8&#45;&gt;Node9 -->
<g id="edge8" class="edge"><title>Node8&#45;&gt;Node9</title>
<path fill="none" stroke="midnightblue" d="M448.447,-10C460.201,-10 472.467,-10 483.945,-10"/>
<polygon fill="midnightblue" stroke="midnightblue" points="448.283,-6.5001 438.283,-10 448.283,-13.5001 448.283,-6.5001"/>
</g>
<!-- Node11 -->
<g id="node11" class="node"><title>Node11</title>
<g id="a_node11"><a xlink:href="classx265_1_1RateControl.html#a20bb1fccf54857b75ef70fcc61406bb7" target="_top" xlink:title="x265::RateControl::\lrateEstimateQscale">
<polygon fill="white" stroke="black" points="484.5,-39 484.5,-69 587.5,-69 587.5,-39 484.5,-39"/>
<text text-anchor="start" x="492.5" y="-57" font-family="Helvetica,sans-Serif" font-size="10.00">x265::RateControl::</text>
<text text-anchor="middle" x="536" y="-46" font-family="Helvetica,sans-Serif" font-size="10.00">rateEstimateQscale</text>
</a>
</g>
</g>
<!-- Node10&#45;&gt;Node11 -->
<g id="edge10" class="edge"><title>Node10&#45;&gt;Node11</title>
<path fill="none" stroke="midnightblue" d="M452.789,-54C463.372,-54 474.236,-54 484.458,-54"/>
<polygon fill="midnightblue" stroke="midnightblue" points="452.759,-50.5001 442.759,-54 452.758,-57.5001 452.759,-50.5001"/>
</g>
<!-- Node13 -->
<g id="node13" class="node"><title>Node13</title>
<g id="a_node13"><a xlink:href="classx265_1_1RateControl.html#a26331c267938f5e6e49ad5b07e4ff013" target="_top" xlink:title="x265::RateControl::\lrateControlEnd">
<polygon fill="white" stroke="black" points="624,-88 624,-118 726,-118 726,-88 624,-88"/>
<text text-anchor="start" x="632" y="-106" font-family="Helvetica,sans-Serif" font-size="10.00">x265::RateControl::</text>
<text text-anchor="middle" x="675" y="-95" font-family="Helvetica,sans-Serif" font-size="10.00">rateControlEnd</text>
</a>
</g>
</g>
<!-- Node10&#45;&gt;Node13 -->
<g id="edge13" class="edge"><title>Node10&#45;&gt;Node13</title>
<path fill="none" stroke="midnightblue" d="M452.777,-71.1298C463.16,-73.6452 473.848,-76.0434 484,-78 531.044,-87.0671 585.28,-93.8439 623.733,-98.038"/>
<polygon fill="midnightblue" stroke="midnightblue" points="453.491,-67.7009 442.943,-68.6927 451.808,-74.4954 453.491,-67.7009"/>
</g>
<!-- Node12 -->
<g id="node12" class="node"><title>Node12</title>
<g id="a_node12"><a xlink:href="classx265_1_1RateControl.html#a6453a04a36d66b87ed8a23df88e75326" target="_top" xlink:title="x265::RateControl::\lrateControlStart">
<polygon fill="white" stroke="black" points="624,-39 624,-69 726,-69 726,-39 624,-39"/>
<text text-anchor="start" x="632" y="-57" font-family="Helvetica,sans-Serif" font-size="10.00">x265::RateControl::</text>
<text text-anchor="middle" x="675" y="-46" font-family="Helvetica,sans-Serif" font-size="10.00">rateControlStart</text>
</a>
</g>
</g>
<!-- Node11&#45;&gt;Node12 -->
<g id="edge11" class="edge"><title>Node11&#45;&gt;Node12</title>
<path fill="none" stroke="midnightblue" d="M597.674,-54C606.329,-54 615.153,-54 623.584,-54"/>
<polygon fill="midnightblue" stroke="midnightblue" points="597.625,-50.5001 587.625,-54 597.624,-57.5001 597.625,-50.5001"/>
</g>
<!-- Node12&#45;&gt;Node5 -->
<g id="edge12" class="edge"><title>Node12&#45;&gt;Node5</title>
<path fill="none" stroke="midnightblue" d="M728.58,-72.5355C742.935,-77.5959 758.315,-83.0177 772.063,-87.8641"/>
<polygon fill="midnightblue" stroke="midnightblue" points="729.434,-69.1253 718.839,-69.1014 727.106,-75.7271 729.434,-69.1253"/>
</g>
<!-- Node13&#45;&gt;Node5 -->
<g id="edge14" class="edge"><title>Node13&#45;&gt;Node5</title>
<path fill="none" stroke="midnightblue" d="M736.46,-103C744.99,-103 753.705,-103 762.078,-103"/>
<polygon fill="midnightblue" stroke="midnightblue" points="736.182,-99.5001 726.182,-103 736.182,-106.5 736.182,-99.5001"/>
</g>
</g>
</svg>
        <g id="navigator" transform="translate(0 0)" fill="#404254">
                <rect fill="#f2f5e9" fill-opacity="0.5" stroke="#606060" stroke-width=".5" x="0" y="0" width="60" height="60"/>
                <use id="zoomplus" xlink:href="#zoomPlus" x="17" y="9" onmousedown="handleZoom(evt,'in')"/>
                <use id="zoomminus" xlink:href="#zoomMin" x="42" y="9" onmousedown="handleZoom(evt,'out')"/>
                <use id="reset" xlink:href="#resetDef" x="30" y="36" onmousedown="handleReset()"/>
                <g id="arrowUp" xlink:href="#dirArrow" transform="translate(30 24)" onmousedown="handlePan(0,-1)">
                  <use xlink:href="#rim" fill="#404040">
                        <set attributeName="fill" to="#808080" begin="arrowUp.mouseover" end="arrowUp.mouseout"/>
                  </use>
                  <path fill="none" stroke="white" stroke-width="1.5" d="M0,-3.0v7 M-2.5,-0.5L0,-3.0L2.5,-0.5"/>
                </g>
                <g id="arrowRight" xlink:href="#dirArrow" transform="rotate(90) translate(36 -43)" onmousedown="handlePan(1,0)">
                  <use xlink:href="#rim" fill="#404040">
                        <set attributeName="fill" to="#808080" begin="arrowRight.mouseover" end="arrowRight.mouseout"/>
                  </use>
                  <path fill="none" stroke="white" stroke-width="1.5" d="M0,-3.0v7 M-2.5,-0.5L0,-3.0L2.5,-0.5"/>
                </g>
                <g id="arrowDown" xlink:href="#dirArrow" transform="rotate(180) translate(-30 -48)" onmousedown="handlePan(0,1)">
                  <use xlink:href="#rim" fill="#404040">
                        <set attributeName="fill" to="#808080" begin="arrowDown.mouseover" end="arrowDown.mouseout"/>
                  </use>
                  <path fill="none" stroke="white" stroke-width="1.5" d="M0,-3.0v7 M-2.5,-0.5L0,-3.0L2.5,-0.5"/>
                </g>
                <g id="arrowLeft" xlink:href="#dirArrow" transform="rotate(270) translate(-36 17)" onmousedown="handlePan(-1,0)">
                  <use xlink:href="#rim" fill="#404040">
                        <set attributeName="fill" to="#808080" begin="arrowLeft.mouseover" end="arrowLeft.mouseout"/>
                  </use>
                  <path fill="none" stroke="white" stroke-width="1.5" d="M0,-3.0v7 M-2.5,-0.5L0,-3.0L2.5,-0.5"/>
                </g>
        </g>
        <svg viewBox="0 0 15 15" width="100%" height="30px" preserveAspectRatio="xMaxYMin meet">
         <g id="arrow_out" transform="scale(0.3 0.3)">
          <a xlink:href="namespacex265_a4819045d47ad5d930e467bf61716fdcd_icgraph_org.svg" target="_base">
           <rect id="button" ry="5" rx="5" y="6" x="6" height="38" width="38"
                fill="#f2f5e9" fill-opacity="0.5" stroke="#606060" stroke-width="1.0"/>
           <path id="arrow"
             d="M 11.500037,31.436501 C 11.940474,20.09759 22.043105,11.32322 32.158766,21.979434 L 37.068811,17.246167 C 37.068811,17.246167 37.088388,32 37.088388,32 L 22.160133,31.978069 C 22.160133,31.978069 26.997745,27.140456 26.997745,27.140456 C 18.528582,18.264221 13.291696,25.230495 11.500037,31.436501 z"
             style="fill:#404040;"/>
          </a>
         </g>
        </svg>
</svg>
