<?xml version="1.0" encoding="UTF-8" standalone="no"?>
<!DOCTYPE svg PUBLIC "-//W3C//DTD SVG 1.1//EN"
 "http://www.w3.org/Graphics/SVG/1.1/DTD/svg11.dtd">
<!-- Generated by graphviz version 2.36.0 (20140111.2315)
 -->
<!-- Title: source/output/y4m.h Pages: 1 -->
<svg width="267pt" height="84pt"
 viewBox="0.00 0.00 267.00 84.00" xmlns="http://www.w3.org/2000/svg" xmlns:xlink="http://www.w3.org/1999/xlink">
<g id="graph0" class="graph" transform="scale(1 1) rotate(0) translate(4 80)">
<title>source/output/y4m.h</title>
<polygon fill="white" stroke="none" points="-4,4 -4,-80 263,-80 263,4 -4,4"/>
<!-- Node1 -->
<g id="node1" class="node"><title>Node1</title>
<polygon fill="#bfbfbf" stroke="black" points="78,-56.5 78,-75.5 184,-75.5 184,-56.5 78,-56.5"/>
<text text-anchor="middle" x="131" y="-63.5" font-family="Helvetica,sans-Serif" font-size="10.00">source/output/y4m.h</text>
</g>
<!-- Node2 -->
<g id="node2" class="node"><title>Node2</title>
<g id="a_node2"><a xlink:href="output_8cpp.html" target="_top" xlink:title="source/output/output.cpp">
<polygon fill="white" stroke="black" points="-0.5,-0.5 -0.5,-19.5 124.5,-19.5 124.5,-0.5 -0.5,-0.5"/>
<text text-anchor="middle" x="62" y="-7.5" font-family="Helvetica,sans-Serif" font-size="10.00">source/output/output.cpp</text>
</a>
</g>
</g>
<!-- Node1&#45;&gt;Node2 -->
<g id="edge1" class="edge"><title>Node1&#45;&gt;Node2</title>
<path fill="none" stroke="midnightblue" d="M111.962,-50.1008C99.5442,-40.3824 83.7566,-28.0269 73.2878,-19.8339"/>
<polygon fill="midnightblue" stroke="midnightblue" points="109.882,-52.9171 119.914,-56.324 114.196,-47.4046 109.882,-52.9171"/>
</g>
<!-- Node3 -->
<g id="node3" class="node"><title>Node3</title>
<g id="a_node3"><a xlink:href="output_2y4m_8cpp.html" target="_top" xlink:title="source/output/y4m.cpp">
<polygon fill="white" stroke="black" points="143,-0.5 143,-19.5 259,-19.5 259,-0.5 143,-0.5"/>
<text text-anchor="middle" x="201" y="-7.5" font-family="Helvetica,sans-Serif" font-size="10.00">source/output/y4m.cpp</text>
</a>
</g>
</g>
<!-- Node1&#45;&gt;Node3 -->
<g id="edge2" class="edge"><title>Node1&#45;&gt;Node3</title>
<path fill="none" stroke="midnightblue" d="M150.314,-50.1008C162.912,-40.3824 178.928,-28.0269 189.549,-19.8339"/>
<polygon fill="midnightblue" stroke="midnightblue" points="148.027,-47.4446 142.247,-56.324 152.302,-52.9871 148.027,-47.4446"/>
</g>
</g>
</svg>
