<?xml version="1.0" encoding="UTF-8" standalone="no"?>
<!DOCTYPE svg PUBLIC "-//W3C//DTD SVG 1.1//EN"
 "http://www.w3.org/Graphics/SVG/1.1/DTD/svg11.dtd">
<!-- Generated by graphviz version 2.36.0 (20140111.2315)
 -->
<!-- Title: source/common/param.h Pages: 1 -->
<svg width="1044pt" height="84pt"
 viewBox="0.00 0.00 1044.00 84.00" xmlns="http://www.w3.org/2000/svg" xmlns:xlink="http://www.w3.org/1999/xlink">
<g id="graph0" class="graph" transform="scale(1 1) rotate(0) translate(4 80)">
<title>source/common/param.h</title>
<polygon fill="white" stroke="none" points="-4,4 -4,-80 1040,-80 1040,4 -4,4"/>
<!-- Node1 -->
<g id="node1" class="node"><title>Node1</title>
<polygon fill="#bfbfbf" stroke="black" points="466.5,-56.5 466.5,-75.5 591.5,-75.5 591.5,-56.5 466.5,-56.5"/>
<text text-anchor="middle" x="529" y="-63.5" font-family="Helvetica,sans-Serif" font-size="10.00">source/common/param.h</text>
</g>
<!-- Node2 -->
<g id="node2" class="node"><title>Node2</title>
<g id="a_node2"><a xlink:href="param_8cpp.html" target="_top" xlink:title="source/common/param.cpp">
<polygon fill="white" stroke="black" points="-0.5,-0.5 -0.5,-19.5 134.5,-19.5 134.5,-0.5 -0.5,-0.5"/>
<text text-anchor="middle" x="67" y="-7.5" font-family="Helvetica,sans-Serif" font-size="10.00">source/common/param.cpp</text>
</a>
</g>
</g>
<!-- Node1&#45;&gt;Node2 -->
<g id="edge1" class="edge"><title>Node1&#45;&gt;Node2</title>
<path fill="none" stroke="midnightblue" d="M456.279,-56.5001C368.019,-46.184 220.379,-28.9274 134.528,-18.8929"/>
<polygon fill="midnightblue" stroke="midnightblue" points="455.873,-59.9764 466.212,-57.6611 456.686,-53.0238 455.873,-59.9764"/>
</g>
<!-- Node3 -->
<g id="node3" class="node"><title>Node3</title>
<g id="a_node3"><a xlink:href="api_8cpp.html" target="_top" xlink:title="source/encoder/api.cpp">
<polygon fill="white" stroke="black" points="153,-0.5 153,-19.5 271,-19.5 271,-0.5 153,-0.5"/>
<text text-anchor="middle" x="212" y="-7.5" font-family="Helvetica,sans-Serif" font-size="10.00">source/encoder/api.cpp</text>
</a>
</g>
</g>
<!-- Node1&#45;&gt;Node3 -->
<g id="edge2" class="edge"><title>Node1&#45;&gt;Node3</title>
<path fill="none" stroke="midnightblue" d="M468.697,-54.7275C408.793,-44.523 318.009,-29.0583 261.995,-19.5164"/>
<polygon fill="midnightblue" stroke="midnightblue" points="468.325,-58.2145 478.77,-56.4435 469.5,-51.3139 468.325,-58.2145"/>
</g>
<!-- Node4 -->
<g id="node4" class="node"><title>Node4</title>
<g id="a_node4"><a xlink:href="encoder_8cpp.html" target="_top" xlink:title="source/encoder/encoder.cpp">
<polygon fill="white" stroke="black" points="289,-0.5 289,-19.5 429,-19.5 429,-0.5 289,-0.5"/>
<text text-anchor="middle" x="359" y="-7.5" font-family="Helvetica,sans-Serif" font-size="10.00">source/encoder/encoder.cpp</text>
</a>
</g>
</g>
<!-- Node1&#45;&gt;Node4 -->
<g id="edge3" class="edge"><title>Node1&#45;&gt;Node4</title>
<path fill="none" stroke="midnightblue" d="M492.181,-53.3044C460.148,-43.1294 414.485,-28.6246 385.811,-19.5164"/>
<polygon fill="midnightblue" stroke="midnightblue" points="491.473,-56.7518 502.063,-56.4435 493.592,-50.0803 491.473,-56.7518"/>
</g>
<!-- Node5 -->
<g id="node5" class="node"><title>Node5</title>
<g id="a_node5"><a xlink:href="frameencoder_8cpp.html" target="_top" xlink:title="source/encoder/frameencoder.cpp">
<polygon fill="white" stroke="black" points="447,-0.5 447,-19.5 611,-19.5 611,-0.5 447,-0.5"/>
<text text-anchor="middle" x="529" y="-7.5" font-family="Helvetica,sans-Serif" font-size="10.00">source/encoder/frameencoder.cpp</text>
</a>
</g>
</g>
<!-- Node1&#45;&gt;Node5 -->
<g id="edge4" class="edge"><title>Node1&#45;&gt;Node5</title>
<path fill="none" stroke="midnightblue" d="M529,-45.8045C529,-36.9102 529,-26.7798 529,-19.7511"/>
<polygon fill="midnightblue" stroke="midnightblue" points="525.5,-46.083 529,-56.083 532.5,-46.083 525.5,-46.083"/>
</g>
<!-- Node6 -->
<g id="node6" class="node"><title>Node6</title>
<g id="a_node6"><a xlink:href="ratecontrol_8cpp.html" target="_top" xlink:title="source/encoder/ratecontrol.cpp">
<polygon fill="white" stroke="black" points="629.5,-0.5 629.5,-19.5 780.5,-19.5 780.5,-0.5 629.5,-0.5"/>
<text text-anchor="middle" x="705" y="-7.5" font-family="Helvetica,sans-Serif" font-size="10.00">source/encoder/ratecontrol.cpp</text>
</a>
</g>
</g>
<!-- Node1&#45;&gt;Node6 -->
<g id="edge5" class="edge"><title>Node1&#45;&gt;Node6</title>
<path fill="none" stroke="midnightblue" d="M566.689,-53.4363C599.872,-43.2551 647.428,-28.664 677.243,-19.5164"/>
<polygon fill="midnightblue" stroke="midnightblue" points="565.421,-50.1642 556.888,-56.4435 567.475,-56.8563 565.421,-50.1642"/>
</g>
<!-- Node7 -->
<g id="node7" class="node"><title>Node7</title>
<g id="a_node7"><a xlink:href="testbench_8cpp.html" target="_top" xlink:title="source/test/testbench.cpp">
<polygon fill="white" stroke="black" points="799,-0.5 799,-19.5 929,-19.5 929,-0.5 799,-0.5"/>
<text text-anchor="middle" x="864" y="-7.5" font-family="Helvetica,sans-Serif" font-size="10.00">source/test/testbench.cpp</text>
</a>
</g>
</g>
<!-- Node1&#45;&gt;Node7 -->
<g id="edge6" class="edge"><title>Node1&#45;&gt;Node7</title>
<path fill="none" stroke="midnightblue" d="M592.336,-54.7907C655.636,-44.587 751.849,-29.078 811.167,-19.5164"/>
<polygon fill="midnightblue" stroke="midnightblue" points="591.397,-51.3967 582.082,-56.4435 592.511,-58.3075 591.397,-51.3967"/>
</g>
<!-- Node8 -->
<g id="node8" class="node"><title>Node8</title>
<g id="a_node8"><a xlink:href="x265_8cpp.html" target="_top" xlink:title="source/x265.cpp">
<polygon fill="white" stroke="black" points="947.5,-0.5 947.5,-19.5 1036.5,-19.5 1036.5,-0.5 947.5,-0.5"/>
<text text-anchor="middle" x="992" y="-7.5" font-family="Helvetica,sans-Serif" font-size="10.00">source/x265.cpp</text>
</a>
</g>
</g>
<!-- Node1&#45;&gt;Node8 -->
<g id="edge7" class="edge"><title>Node1&#45;&gt;Node8</title>
<path fill="none" stroke="midnightblue" d="M601.801,-58.2222C683.71,-50.3103 820.652,-36.2218 938,-20 941.013,-19.5835 944.116,-19.1306 947.24,-18.6567"/>
<polygon fill="midnightblue" stroke="midnightblue" points="601.464,-54.7384 591.845,-59.1797 602.134,-61.7063 601.464,-54.7384"/>
</g>
</g>
</svg>
