<?xml version="1.0" encoding="UTF-8" standalone="no"?>
<!DOCTYPE svg PUBLIC "-//W3C//DTD SVG 1.1//EN"
 "http://www.w3.org/Graphics/SVG/1.1/DTD/svg11.dtd">
<!-- Generated by graphviz version 2.36.0 (20140111.2315)
 -->
<!-- Title: x265_pixel_ssd_64x16_sse4 Pages: 1 -->
<svg width="668pt" height="85pt"
 viewBox="0.00 0.00 668.00 85.00" xmlns="http://www.w3.org/2000/svg" xmlns:xlink="http://www.w3.org/1999/xlink">
<g id="graph0" class="graph" transform="scale(1 1) rotate(0) translate(4 81)">
<title>x265_pixel_ssd_64x16_sse4</title>
<polygon fill="white" stroke="none" points="-4,4 -4,-81 664,-81 664,4 -4,4"/>
<!-- Node1 -->
<g id="node1" class="node"><title>Node1</title>
<polygon fill="#bfbfbf" stroke="black" points="0,-19.5 0,-38.5 142,-38.5 142,-19.5 0,-19.5"/>
<text text-anchor="middle" x="71" y="-26.5" font-family="Helvetica,sans-Serif" font-size="10.00">x265_pixel_ssd_64x16_sse4</text>
</g>
<!-- Node2 -->
<g id="node2" class="node"><title>Node2</title>
<g id="a_node2"><a xlink:href="namespacex265.html#a5fd4feac77a19680bbf653b38723ad04" target="_top" xlink:title="x265::Setup_Assembly\l_Primitives">
<polygon fill="white" stroke="black" points="178,-14 178,-44 296,-44 296,-14 178,-14"/>
<text text-anchor="start" x="186" y="-32" font-family="Helvetica,sans-Serif" font-size="10.00">x265::Setup_Assembly</text>
<text text-anchor="middle" x="237" y="-21" font-family="Helvetica,sans-Serif" font-size="10.00">_Primitives</text>
</a>
</g>
</g>
<!-- Node1&#45;&gt;Node2 -->
<g id="edge1" class="edge"><title>Node1&#45;&gt;Node2</title>
<path fill="none" stroke="midnightblue" d="M152.149,-29C160.802,-29 169.483,-29 177.806,-29"/>
<polygon fill="midnightblue" stroke="midnightblue" points="152.027,-25.5001 142.026,-29 152.026,-32.5001 152.027,-25.5001"/>
</g>
<!-- Node3 -->
<g id="node3" class="node"><title>Node3</title>
<g id="a_node3"><a xlink:href="x265_8h.html#a04a58d574a81e33aa7fe7632e2328bf2" target="_top" xlink:title="x265_setup_primitives">
<polygon fill="white" stroke="black" points="332,-38.5 332,-57.5 446,-57.5 446,-38.5 332,-38.5"/>
<text text-anchor="middle" x="389" y="-45.5" font-family="Helvetica,sans-Serif" font-size="10.00">x265_setup_primitives</text>
</a>
</g>
</g>
<!-- Node2&#45;&gt;Node3 -->
<g id="edge2" class="edge"><title>Node2&#45;&gt;Node3</title>
<path fill="none" stroke="midnightblue" d="M306.386,-37.6623C314.941,-38.7459 323.612,-39.8442 331.949,-40.9002"/>
<polygon fill="midnightblue" stroke="midnightblue" points="306.784,-34.1848 296.423,-36.4003 305.904,-41.1293 306.784,-34.1848"/>
</g>
<!-- Node7 -->
<g id="node7" class="node"><title>Node7</title>
<g id="a_node7"><a xlink:href="testbench_8cpp.html#a0ddf1224851353fc92bfbff6f499fa97" target="_top" xlink:title="main">
<polygon fill="white" stroke="black" points="370,-0.5 370,-19.5 408,-19.5 408,-0.5 370,-0.5"/>
<text text-anchor="middle" x="389" y="-7.5" font-family="Helvetica,sans-Serif" font-size="10.00">main</text>
</a>
</g>
</g>
<!-- Node2&#45;&gt;Node7 -->
<g id="edge6" class="edge"><title>Node2&#45;&gt;Node7</title>
<path fill="none" stroke="midnightblue" d="M306.652,-20.3041C329.878,-17.3622 353.921,-14.3166 369.787,-12.3069"/>
<polygon fill="midnightblue" stroke="midnightblue" points="305.904,-16.8707 296.423,-21.5997 306.784,-23.8152 305.904,-16.8707"/>
</g>
<!-- Node4 -->
<g id="node4" class="node"><title>Node4</title>
<g id="a_node4"><a xlink:href="x265_8h.html#add639f6af182534d265ef22d4bf91f90" target="_top" xlink:title="x265_encoder_open">
<polygon fill="white" stroke="black" points="482,-57.5 482,-76.5 586,-76.5 586,-57.5 482,-57.5"/>
<text text-anchor="middle" x="534" y="-64.5" font-family="Helvetica,sans-Serif" font-size="10.00">x265_encoder_open</text>
</a>
</g>
</g>
<!-- Node3&#45;&gt;Node4 -->
<g id="edge3" class="edge"><title>Node3&#45;&gt;Node4</title>
<path fill="none" stroke="midnightblue" d="M456.118,-56.7849C464.712,-57.9268 473.411,-59.0825 481.713,-60.1856"/>
<polygon fill="midnightblue" stroke="midnightblue" points="456.481,-53.3024 446.107,-55.4548 455.559,-60.2415 456.481,-53.3024"/>
</g>
<!-- Node5 -->
<g id="node5" class="node"><title>Node5</title>
<g id="a_node5"><a xlink:href="structCLIOptions.html#a9fc5f387d720db54ca46e6abf917719f" target="_top" xlink:title="CLIOptions::parse">
<polygon fill="white" stroke="black" points="486,-19.5 486,-38.5 582,-38.5 582,-19.5 486,-19.5"/>
<text text-anchor="middle" x="534" y="-26.5" font-family="Helvetica,sans-Serif" font-size="10.00">CLIOptions::parse</text>
</a>
</g>
</g>
<!-- Node3&#45;&gt;Node5 -->
<g id="edge4" class="edge"><title>Node3&#45;&gt;Node5</title>
<path fill="none" stroke="midnightblue" d="M456.073,-39.2211C466.117,-37.8866 476.304,-36.533 485.836,-35.2666"/>
<polygon fill="midnightblue" stroke="midnightblue" points="455.559,-35.7585 446.107,-40.5452 456.481,-42.6976 455.559,-35.7585"/>
</g>
<!-- Node6 -->
<g id="node6" class="node"><title>Node6</title>
<g id="a_node6"><a xlink:href="x265_8cpp.html#a3c04138a5bfe5d72780bb7e82a18e627" target="_top" xlink:title="main">
<polygon fill="white" stroke="black" points="622,-19.5 622,-38.5 660,-38.5 660,-19.5 622,-19.5"/>
<text text-anchor="middle" x="641" y="-26.5" font-family="Helvetica,sans-Serif" font-size="10.00">main</text>
</a>
</g>
</g>
<!-- Node5&#45;&gt;Node6 -->
<g id="edge5" class="edge"><title>Node5&#45;&gt;Node6</title>
<path fill="none" stroke="midnightblue" d="M592.513,-29C603.159,-29 613.528,-29 621.846,-29"/>
<polygon fill="midnightblue" stroke="midnightblue" points="592.278,-25.5001 582.278,-29 592.278,-32.5001 592.278,-25.5001"/>
</g>
</g>
</svg>
