<?xml version="1.0" encoding="UTF-8" standalone="no"?>
<!DOCTYPE svg PUBLIC "-//W3C//DTD SVG 1.1//EN"
 "http://www.w3.org/Graphics/SVG/1.1/DTD/svg11.dtd">
<!-- Generated by graphviz version 2.36.0 (20140111.2315)
 -->
<!-- Title: x265_quant_avx2 Pages: 1 -->
<svg width="620pt" height="85pt"
 viewBox="0.00 0.00 620.00 85.00" xmlns="http://www.w3.org/2000/svg" xmlns:xlink="http://www.w3.org/1999/xlink">
<g id="graph0" class="graph" transform="scale(1 1) rotate(0) translate(4 81)">
<title>x265_quant_avx2</title>
<polygon fill="white" stroke="none" points="-4,4 -4,-81 616,-81 616,4 -4,4"/>
<!-- Node1 -->
<g id="node1" class="node"><title>Node1</title>
<polygon fill="#bfbfbf" stroke="black" points="0.5,-19.5 0.5,-38.5 93.5,-38.5 93.5,-19.5 0.5,-19.5"/>
<text text-anchor="middle" x="47" y="-26.5" font-family="Helvetica,sans-Serif" font-size="10.00">x265_quant_avx2</text>
</g>
<!-- Node2 -->
<g id="node2" class="node"><title>Node2</title>
<g id="a_node2"><a xlink:href="namespacex265.html#a5fd4feac77a19680bbf653b38723ad04" target="_top" xlink:title="x265::Setup_Assembly\l_Primitives">
<polygon fill="white" stroke="black" points="130,-14 130,-44 248,-44 248,-14 130,-14"/>
<text text-anchor="start" x="138" y="-32" font-family="Helvetica,sans-Serif" font-size="10.00">x265::Setup_Assembly</text>
<text text-anchor="middle" x="189" y="-21" font-family="Helvetica,sans-Serif" font-size="10.00">_Primitives</text>
</a>
</g>
</g>
<!-- Node1&#45;&gt;Node2 -->
<g id="edge1" class="edge"><title>Node1&#45;&gt;Node2</title>
<path fill="none" stroke="midnightblue" d="M104.012,-29C112.495,-29 121.264,-29 129.793,-29"/>
<polygon fill="midnightblue" stroke="midnightblue" points="103.841,-25.5001 93.8412,-29 103.841,-32.5001 103.841,-25.5001"/>
</g>
<!-- Node3 -->
<g id="node3" class="node"><title>Node3</title>
<g id="a_node3"><a xlink:href="x265_8h.html#a04a58d574a81e33aa7fe7632e2328bf2" target="_top" xlink:title="x265_setup_primitives">
<polygon fill="white" stroke="black" points="284,-38.5 284,-57.5 398,-57.5 398,-38.5 284,-38.5"/>
<text text-anchor="middle" x="341" y="-45.5" font-family="Helvetica,sans-Serif" font-size="10.00">x265_setup_primitives</text>
</a>
</g>
</g>
<!-- Node2&#45;&gt;Node3 -->
<g id="edge2" class="edge"><title>Node2&#45;&gt;Node3</title>
<path fill="none" stroke="midnightblue" d="M258.386,-37.6623C266.941,-38.7459 275.612,-39.8442 283.949,-40.9002"/>
<polygon fill="midnightblue" stroke="midnightblue" points="258.784,-34.1848 248.423,-36.4003 257.904,-41.1293 258.784,-34.1848"/>
</g>
<!-- Node7 -->
<g id="node7" class="node"><title>Node7</title>
<g id="a_node7"><a xlink:href="testbench_8cpp.html#a0ddf1224851353fc92bfbff6f499fa97" target="_top" xlink:title="main">
<polygon fill="white" stroke="black" points="322,-0.5 322,-19.5 360,-19.5 360,-0.5 322,-0.5"/>
<text text-anchor="middle" x="341" y="-7.5" font-family="Helvetica,sans-Serif" font-size="10.00">main</text>
</a>
</g>
</g>
<!-- Node2&#45;&gt;Node7 -->
<g id="edge6" class="edge"><title>Node2&#45;&gt;Node7</title>
<path fill="none" stroke="midnightblue" d="M258.652,-20.3041C281.878,-17.3622 305.921,-14.3166 321.787,-12.3069"/>
<polygon fill="midnightblue" stroke="midnightblue" points="257.904,-16.8707 248.423,-21.5997 258.784,-23.8152 257.904,-16.8707"/>
</g>
<!-- Node4 -->
<g id="node4" class="node"><title>Node4</title>
<g id="a_node4"><a xlink:href="x265_8h.html#add639f6af182534d265ef22d4bf91f90" target="_top" xlink:title="x265_encoder_open">
<polygon fill="white" stroke="black" points="434,-57.5 434,-76.5 538,-76.5 538,-57.5 434,-57.5"/>
<text text-anchor="middle" x="486" y="-64.5" font-family="Helvetica,sans-Serif" font-size="10.00">x265_encoder_open</text>
</a>
</g>
</g>
<!-- Node3&#45;&gt;Node4 -->
<g id="edge3" class="edge"><title>Node3&#45;&gt;Node4</title>
<path fill="none" stroke="midnightblue" d="M408.118,-56.7849C416.712,-57.9268 425.411,-59.0825 433.713,-60.1856"/>
<polygon fill="midnightblue" stroke="midnightblue" points="408.481,-53.3024 398.107,-55.4548 407.559,-60.2415 408.481,-53.3024"/>
</g>
<!-- Node5 -->
<g id="node5" class="node"><title>Node5</title>
<g id="a_node5"><a xlink:href="structCLIOptions.html#a9fc5f387d720db54ca46e6abf917719f" target="_top" xlink:title="CLIOptions::parse">
<polygon fill="white" stroke="black" points="438,-19.5 438,-38.5 534,-38.5 534,-19.5 438,-19.5"/>
<text text-anchor="middle" x="486" y="-26.5" font-family="Helvetica,sans-Serif" font-size="10.00">CLIOptions::parse</text>
</a>
</g>
</g>
<!-- Node3&#45;&gt;Node5 -->
<g id="edge4" class="edge"><title>Node3&#45;&gt;Node5</title>
<path fill="none" stroke="midnightblue" d="M408.073,-39.2211C418.117,-37.8866 428.304,-36.533 437.836,-35.2666"/>
<polygon fill="midnightblue" stroke="midnightblue" points="407.559,-35.7585 398.107,-40.5452 408.481,-42.6976 407.559,-35.7585"/>
</g>
<!-- Node6 -->
<g id="node6" class="node"><title>Node6</title>
<g id="a_node6"><a xlink:href="x265_8cpp.html#a3c04138a5bfe5d72780bb7e82a18e627" target="_top" xlink:title="main">
<polygon fill="white" stroke="black" points="574,-19.5 574,-38.5 612,-38.5 612,-19.5 574,-19.5"/>
<text text-anchor="middle" x="593" y="-26.5" font-family="Helvetica,sans-Serif" font-size="10.00">main</text>
</a>
</g>
</g>
<!-- Node5&#45;&gt;Node6 -->
<g id="edge5" class="edge"><title>Node5&#45;&gt;Node6</title>
<path fill="none" stroke="midnightblue" d="M544.513,-29C555.159,-29 565.528,-29 573.846,-29"/>
<polygon fill="midnightblue" stroke="midnightblue" points="544.278,-25.5001 534.278,-29 544.278,-32.5001 544.278,-25.5001"/>
</g>
</g>
</svg>
