<?xml version="1.0" encoding="UTF-8" standalone="no"?>
<!DOCTYPE svg PUBLIC "-//W3C//DTD SVG 1.1//EN"
 "http://www.w3.org/Graphics/SVG/1.1/DTD/svg11.dtd">
<!-- Generated by graphviz version 2.36.0 (20140111.2315)
 -->
<!-- Title: x265_transpose4_sse2 Pages: 1 -->
<svg width="644pt" height="85pt"
 viewBox="0.00 0.00 644.00 85.00" xmlns="http://www.w3.org/2000/svg" xmlns:xlink="http://www.w3.org/1999/xlink">
<g id="graph0" class="graph" transform="scale(1 1) rotate(0) translate(4 81)">
<title>x265_transpose4_sse2</title>
<polygon fill="white" stroke="none" points="-4,4 -4,-81 640,-81 640,4 -4,4"/>
<!-- Node1 -->
<g id="node1" class="node"><title>Node1</title>
<polygon fill="#bfbfbf" stroke="black" points="0.5,-19.5 0.5,-38.5 117.5,-38.5 117.5,-19.5 0.5,-19.5"/>
<text text-anchor="middle" x="59" y="-26.5" font-family="Helvetica,sans-Serif" font-size="10.00">x265_transpose4_sse2</text>
</g>
<!-- Node2 -->
<g id="node2" class="node"><title>Node2</title>
<g id="a_node2"><a xlink:href="namespacex265.html#a5fd4feac77a19680bbf653b38723ad04" target="_top" xlink:title="x265::Setup_Assembly\l_Primitives">
<polygon fill="white" stroke="black" points="154,-14 154,-44 272,-44 272,-14 154,-14"/>
<text text-anchor="start" x="162" y="-32" font-family="Helvetica,sans-Serif" font-size="10.00">x265::Setup_Assembly</text>
<text text-anchor="middle" x="213" y="-21" font-family="Helvetica,sans-Serif" font-size="10.00">_Primitives</text>
</a>
</g>
</g>
<!-- Node1&#45;&gt;Node2 -->
<g id="edge1" class="edge"><title>Node1&#45;&gt;Node2</title>
<path fill="none" stroke="midnightblue" d="M127.927,-29C136.548,-29 145.309,-29 153.759,-29"/>
<polygon fill="midnightblue" stroke="midnightblue" points="127.898,-25.5001 117.898,-29 127.898,-32.5001 127.898,-25.5001"/>
</g>
<!-- Node3 -->
<g id="node3" class="node"><title>Node3</title>
<g id="a_node3"><a xlink:href="x265_8h.html#a04a58d574a81e33aa7fe7632e2328bf2" target="_top" xlink:title="x265_setup_primitives">
<polygon fill="white" stroke="black" points="308,-38.5 308,-57.5 422,-57.5 422,-38.5 308,-38.5"/>
<text text-anchor="middle" x="365" y="-45.5" font-family="Helvetica,sans-Serif" font-size="10.00">x265_setup_primitives</text>
</a>
</g>
</g>
<!-- Node2&#45;&gt;Node3 -->
<g id="edge2" class="edge"><title>Node2&#45;&gt;Node3</title>
<path fill="none" stroke="midnightblue" d="M282.386,-37.6623C290.941,-38.7459 299.612,-39.8442 307.949,-40.9002"/>
<polygon fill="midnightblue" stroke="midnightblue" points="282.784,-34.1848 272.423,-36.4003 281.904,-41.1293 282.784,-34.1848"/>
</g>
<!-- Node7 -->
<g id="node7" class="node"><title>Node7</title>
<g id="a_node7"><a xlink:href="testbench_8cpp.html#a0ddf1224851353fc92bfbff6f499fa97" target="_top" xlink:title="main">
<polygon fill="white" stroke="black" points="346,-0.5 346,-19.5 384,-19.5 384,-0.5 346,-0.5"/>
<text text-anchor="middle" x="365" y="-7.5" font-family="Helvetica,sans-Serif" font-size="10.00">main</text>
</a>
</g>
</g>
<!-- Node2&#45;&gt;Node7 -->
<g id="edge6" class="edge"><title>Node2&#45;&gt;Node7</title>
<path fill="none" stroke="midnightblue" d="M282.652,-20.3041C305.878,-17.3622 329.921,-14.3166 345.787,-12.3069"/>
<polygon fill="midnightblue" stroke="midnightblue" points="281.904,-16.8707 272.423,-21.5997 282.784,-23.8152 281.904,-16.8707"/>
</g>
<!-- Node4 -->
<g id="node4" class="node"><title>Node4</title>
<g id="a_node4"><a xlink:href="x265_8h.html#add639f6af182534d265ef22d4bf91f90" target="_top" xlink:title="x265_encoder_open">
<polygon fill="white" stroke="black" points="458,-57.5 458,-76.5 562,-76.5 562,-57.5 458,-57.5"/>
<text text-anchor="middle" x="510" y="-64.5" font-family="Helvetica,sans-Serif" font-size="10.00">x265_encoder_open</text>
</a>
</g>
</g>
<!-- Node3&#45;&gt;Node4 -->
<g id="edge3" class="edge"><title>Node3&#45;&gt;Node4</title>
<path fill="none" stroke="midnightblue" d="M432.118,-56.7849C440.712,-57.9268 449.411,-59.0825 457.713,-60.1856"/>
<polygon fill="midnightblue" stroke="midnightblue" points="432.481,-53.3024 422.107,-55.4548 431.559,-60.2415 432.481,-53.3024"/>
</g>
<!-- Node5 -->
<g id="node5" class="node"><title>Node5</title>
<g id="a_node5"><a xlink:href="structCLIOptions.html#a9fc5f387d720db54ca46e6abf917719f" target="_top" xlink:title="CLIOptions::parse">
<polygon fill="white" stroke="black" points="462,-19.5 462,-38.5 558,-38.5 558,-19.5 462,-19.5"/>
<text text-anchor="middle" x="510" y="-26.5" font-family="Helvetica,sans-Serif" font-size="10.00">CLIOptions::parse</text>
</a>
</g>
</g>
<!-- Node3&#45;&gt;Node5 -->
<g id="edge4" class="edge"><title>Node3&#45;&gt;Node5</title>
<path fill="none" stroke="midnightblue" d="M432.073,-39.2211C442.117,-37.8866 452.304,-36.533 461.836,-35.2666"/>
<polygon fill="midnightblue" stroke="midnightblue" points="431.559,-35.7585 422.107,-40.5452 432.481,-42.6976 431.559,-35.7585"/>
</g>
<!-- Node6 -->
<g id="node6" class="node"><title>Node6</title>
<g id="a_node6"><a xlink:href="x265_8cpp.html#a3c04138a5bfe5d72780bb7e82a18e627" target="_top" xlink:title="main">
<polygon fill="white" stroke="black" points="598,-19.5 598,-38.5 636,-38.5 636,-19.5 598,-19.5"/>
<text text-anchor="middle" x="617" y="-26.5" font-family="Helvetica,sans-Serif" font-size="10.00">main</text>
</a>
</g>
</g>
<!-- Node5&#45;&gt;Node6 -->
<g id="edge5" class="edge"><title>Node5&#45;&gt;Node6</title>
<path fill="none" stroke="midnightblue" d="M568.513,-29C579.159,-29 589.528,-29 597.846,-29"/>
<polygon fill="midnightblue" stroke="midnightblue" points="568.278,-25.5001 558.278,-29 568.278,-32.5001 568.278,-25.5001"/>
</g>
</g>
</svg>
