<?xml version="1.0" encoding="UTF-8" standalone="no"?>
<!DOCTYPE svg PUBLIC "-//W3C//DTD SVG 1.1//EN"
 "http://www.w3.org/Graphics/SVG/1.1/DTD/svg11.dtd">
<!-- Generated by graphviz version 2.36.0 (20140111.2315)
 -->
<!-- Title: source/encoder/rdcost.h Pages: 1 -->
<svg width="524pt" height="252pt"
 viewBox="0.00 0.00 524.00 252.00" xmlns="http://www.w3.org/2000/svg" xmlns:xlink="http://www.w3.org/1999/xlink">
<g id="graph0" class="graph" transform="scale(1 1) rotate(0) translate(4 248)">
<title>source/encoder/rdcost.h</title>
<polygon fill="white" stroke="none" points="-4,4 -4,-248 520,-248 520,4 -4,4"/>
<!-- Node1 -->
<g id="node1" class="node"><title>Node1</title>
<polygon fill="#bfbfbf" stroke="black" points="359,-224.5 359,-243.5 481,-243.5 481,-224.5 359,-224.5"/>
<text text-anchor="middle" x="420" y="-231.5" font-family="Helvetica,sans-Serif" font-size="10.00">source/encoder/rdcost.h</text>
</g>
<!-- Node2 -->
<g id="node2" class="node"><title>Node2</title>
<g id="a_node2"><a xlink:href="search_8h.html" target="_top" xlink:title="source/encoder/search.h">
<polygon fill="white" stroke="black" points="268,-168.5 268,-187.5 392,-187.5 392,-168.5 268,-168.5"/>
<text text-anchor="middle" x="330" y="-175.5" font-family="Helvetica,sans-Serif" font-size="10.00">source/encoder/search.h</text>
</a>
</g>
</g>
<!-- Node1&#45;&gt;Node2 -->
<g id="edge1" class="edge"><title>Node1&#45;&gt;Node2</title>
<path fill="none" stroke="midnightblue" d="M396.962,-219.177C380.401,-209.241 358.582,-196.149 344.424,-187.655"/>
<polygon fill="midnightblue" stroke="midnightblue" points="395.164,-222.18 405.54,-224.324 398.766,-216.178 395.164,-222.18"/>
</g>
<!-- Node4 -->
<g id="node4" class="node"><title>Node4</title>
<g id="a_node4"><a xlink:href="analysis_8cpp.html" target="_top" xlink:title="source/encoder/analysis.cpp">
<polygon fill="white" stroke="black" points="375.5,-56.5 375.5,-75.5 516.5,-75.5 516.5,-56.5 375.5,-56.5"/>
<text text-anchor="middle" x="446" y="-63.5" font-family="Helvetica,sans-Serif" font-size="10.00">source/encoder/analysis.cpp</text>
</a>
</g>
</g>
<!-- Node1&#45;&gt;Node4 -->
<g id="edge9" class="edge"><title>Node1&#45;&gt;Node4</title>
<path fill="none" stroke="midnightblue" d="M430.959,-215.635C442.551,-196.151 460.101,-163.178 467,-132 471.561,-111.389 459.627,-88.0156 451.931,-75.6855"/>
<polygon fill="midnightblue" stroke="midnightblue" points="427.902,-213.924 425.673,-224.282 433.875,-217.575 427.902,-213.924"/>
</g>
<!-- Node9 -->
<g id="node9" class="node"><title>Node9</title>
<g id="a_node9"><a xlink:href="search_8cpp.html" target="_top" xlink:title="source/encoder/search.cpp">
<polygon fill="white" stroke="black" points="324,-112.5 324,-131.5 458,-131.5 458,-112.5 324,-112.5"/>
<text text-anchor="middle" x="391" y="-119.5" font-family="Helvetica,sans-Serif" font-size="10.00">source/encoder/search.cpp</text>
</a>
</g>
</g>
<!-- Node1&#45;&gt;Node9 -->
<g id="edge10" class="edge"><title>Node1&#45;&gt;Node9</title>
<path fill="none" stroke="midnightblue" d="M415.169,-214.674C408.828,-190.625 397.957,-149.388 393.265,-131.591"/>
<polygon fill="midnightblue" stroke="midnightblue" points="411.791,-215.591 417.724,-224.368 418.559,-213.807 411.791,-215.591"/>
</g>
<!-- Node3 -->
<g id="node3" class="node"><title>Node3</title>
<g id="a_node3"><a xlink:href="analysis_8h.html" target="_top" xlink:title="source/encoder/analysis.h">
<polygon fill="white" stroke="black" points="174.5,-112.5 174.5,-131.5 305.5,-131.5 305.5,-112.5 174.5,-112.5"/>
<text text-anchor="middle" x="240" y="-119.5" font-family="Helvetica,sans-Serif" font-size="10.00">source/encoder/analysis.h</text>
</a>
</g>
</g>
<!-- Node2&#45;&gt;Node3 -->
<g id="edge2" class="edge"><title>Node2&#45;&gt;Node3</title>
<path fill="none" stroke="midnightblue" d="M306.962,-163.177C290.401,-153.241 268.582,-140.149 254.424,-131.655"/>
<polygon fill="midnightblue" stroke="midnightblue" points="305.164,-166.18 315.54,-168.324 308.766,-160.178 305.164,-166.18"/>
</g>
<!-- Node2&#45;&gt;Node9 -->
<g id="edge8" class="edge"><title>Node2&#45;&gt;Node9</title>
<path fill="none" stroke="midnightblue" d="M347.467,-161.537C358.344,-151.909 371.944,-139.869 381.021,-131.834"/>
<polygon fill="midnightblue" stroke="midnightblue" points="344.968,-159.075 339.801,-168.324 349.608,-164.316 344.968,-159.075"/>
</g>
<!-- Node3&#45;&gt;Node4 -->
<g id="edge3" class="edge"><title>Node3&#45;&gt;Node4</title>
<path fill="none" stroke="midnightblue" d="M282.615,-109.829C321.51,-99.6333 378.164,-84.7823 413.511,-75.5164"/>
<polygon fill="midnightblue" stroke="midnightblue" points="281.427,-106.522 272.641,-112.444 283.202,-113.293 281.427,-106.522"/>
</g>
<!-- Node5 -->
<g id="node5" class="node"><title>Node5</title>
<g id="a_node5"><a xlink:href="frameencoder_8h.html" target="_top" xlink:title="source/encoder/frameencoder.h">
<polygon fill="white" stroke="black" points="163,-56.5 163,-75.5 317,-75.5 317,-56.5 163,-56.5"/>
<text text-anchor="middle" x="240" y="-63.5" font-family="Helvetica,sans-Serif" font-size="10.00">source/encoder/frameencoder.h</text>
</a>
</g>
</g>
<!-- Node3&#45;&gt;Node5 -->
<g id="edge4" class="edge"><title>Node3&#45;&gt;Node5</title>
<path fill="none" stroke="midnightblue" d="M240,-101.805C240,-92.9102 240,-82.7798 240,-75.7511"/>
<polygon fill="midnightblue" stroke="midnightblue" points="236.5,-102.083 240,-112.083 243.5,-102.083 236.5,-102.083"/>
</g>
<!-- Node6 -->
<g id="node6" class="node"><title>Node6</title>
<g id="a_node6"><a xlink:href="encoder_8cpp.html" target="_top" xlink:title="source/encoder/encoder.cpp">
<polygon fill="white" stroke="black" points="0,-0.5 0,-19.5 140,-19.5 140,-0.5 0,-0.5"/>
<text text-anchor="middle" x="70" y="-7.5" font-family="Helvetica,sans-Serif" font-size="10.00">source/encoder/encoder.cpp</text>
</a>
</g>
</g>
<!-- Node5&#45;&gt;Node6 -->
<g id="edge5" class="edge"><title>Node5&#45;&gt;Node6</title>
<path fill="none" stroke="midnightblue" d="M203.181,-53.3044C171.148,-43.1294 125.485,-28.6246 96.811,-19.5164"/>
<polygon fill="midnightblue" stroke="midnightblue" points="202.473,-56.7518 213.063,-56.4435 204.592,-50.0803 202.473,-56.7518"/>
</g>
<!-- Node7 -->
<g id="node7" class="node"><title>Node7</title>
<g id="a_node7"><a xlink:href="frameencoder_8cpp.html" target="_top" xlink:title="source/encoder/frameencoder.cpp">
<polygon fill="white" stroke="black" points="158,-0.5 158,-19.5 322,-19.5 322,-0.5 158,-0.5"/>
<text text-anchor="middle" x="240" y="-7.5" font-family="Helvetica,sans-Serif" font-size="10.00">source/encoder/frameencoder.cpp</text>
</a>
</g>
</g>
<!-- Node5&#45;&gt;Node7 -->
<g id="edge6" class="edge"><title>Node5&#45;&gt;Node7</title>
<path fill="none" stroke="midnightblue" d="M240,-45.8045C240,-36.9102 240,-26.7798 240,-19.7511"/>
<polygon fill="midnightblue" stroke="midnightblue" points="236.5,-46.083 240,-56.083 243.5,-46.083 236.5,-46.083"/>
</g>
<!-- Node8 -->
<g id="node8" class="node"><title>Node8</title>
<g id="a_node8"><a xlink:href="framefilter_8cpp.html" target="_top" xlink:title="source/encoder/framefilter.cpp">
<polygon fill="white" stroke="black" points="340.5,-0.5 340.5,-19.5 489.5,-19.5 489.5,-0.5 340.5,-0.5"/>
<text text-anchor="middle" x="415" y="-7.5" font-family="Helvetica,sans-Serif" font-size="10.00">source/encoder/framefilter.cpp</text>
</a>
</g>
</g>
<!-- Node5&#45;&gt;Node8 -->
<g id="edge7" class="edge"><title>Node5&#45;&gt;Node8</title>
<path fill="none" stroke="midnightblue" d="M277.475,-53.4363C310.47,-43.2551 357.756,-28.664 387.4,-19.5164"/>
<polygon fill="midnightblue" stroke="midnightblue" points="276.253,-50.1505 267.729,-56.4435 278.317,-56.8393 276.253,-50.1505"/>
</g>
</g>
</svg>
