<?xml version="1.0" encoding="UTF-8" standalone="no"?>
<!DOCTYPE svg PUBLIC "-//W3C//DTD SVG 1.1//EN"
 "http://www.w3.org/Graphics/SVG/1.1/DTD/svg11.dtd">
<!-- Generated by graphviz version 2.36.0 (20140111.2315)
 -->
<!-- Title: source/encoder/reference.h Pages: 1 -->
<svg width="973pt" height="476pt"
 viewBox="0.00 0.00 973.00 476.00" xmlns="http://www.w3.org/2000/svg" xmlns:xlink="http://www.w3.org/1999/xlink">
<g id="graph0" class="graph" transform="scale(1 1) rotate(0) translate(4 472)">
<title>source/encoder/reference.h</title>
<polygon fill="white" stroke="none" points="-4,4 -4,-472 969,-472 969,4 -4,4"/>
<!-- Node1 -->
<g id="node1" class="node"><title>Node1</title>
<polygon fill="#bfbfbf" stroke="black" points="463.5,-448.5 463.5,-467.5 598.5,-467.5 598.5,-448.5 463.5,-448.5"/>
<text text-anchor="middle" x="531" y="-455.5" font-family="Helvetica,sans-Serif" font-size="10.00">source/encoder/reference.h</text>
</g>
<!-- Node2 -->
<g id="node2" class="node"><title>Node2</title>
<g id="a_node2"><a xlink:href="primitives_8h.html" target="_top" xlink:title="primitives.h">
<polygon fill="white" stroke="black" points="443.5,-280.5 443.5,-299.5 510.5,-299.5 510.5,-280.5 443.5,-280.5"/>
<text text-anchor="middle" x="477" y="-287.5" font-family="Helvetica,sans-Serif" font-size="10.00">primitives.h</text>
</a>
</g>
</g>
<!-- Node1&#45;&gt;Node2 -->
<g id="edge1" class="edge"><title>Node1&#45;&gt;Node2</title>
<path fill="none" stroke="midnightblue" d="M521.668,-448.314C513.242,-439.887 501.239,-426.307 495,-412 480.196,-378.052 477.208,-334.208 476.808,-309.703"/>
<polygon fill="midnightblue" stroke="midnightblue" points="480.308,-309.62 476.776,-299.631 473.308,-309.642 480.308,-309.62"/>
</g>
<!-- Node23 -->
<g id="node23" class="node"><title>Node23</title>
<g id="a_node23"><a xlink:href="lowres_8h.html" target="_top" xlink:title="lowres.h">
<polygon fill="white" stroke="black" points="504.5,-392.5 504.5,-411.5 557.5,-411.5 557.5,-392.5 504.5,-392.5"/>
<text text-anchor="middle" x="531" y="-399.5" font-family="Helvetica,sans-Serif" font-size="10.00">lowres.h</text>
</a>
</g>
</g>
<!-- Node1&#45;&gt;Node23 -->
<g id="edge25" class="edge"><title>Node1&#45;&gt;Node23</title>
<path fill="none" stroke="midnightblue" d="M531,-448.083C531,-441.006 531,-430.861 531,-421.986"/>
<polygon fill="midnightblue" stroke="midnightblue" points="534.5,-421.751 531,-411.751 527.5,-421.751 534.5,-421.751"/>
</g>
<!-- Node24 -->
<g id="node24" class="node"><title>Node24</title>
<g id="a_node24"><a xlink:href="mv_8h.html" target="_top" xlink:title="mv.h">
<polygon fill="white" stroke="black" points="567,-336.5 567,-355.5 605,-355.5 605,-336.5 567,-336.5"/>
<text text-anchor="middle" x="586" y="-343.5" font-family="Helvetica,sans-Serif" font-size="10.00">mv.h</text>
</a>
</g>
</g>
<!-- Node1&#45;&gt;Node24 -->
<g id="edge31" class="edge"><title>Node1&#45;&gt;Node24</title>
<path fill="none" stroke="midnightblue" d="M539.287,-448.364C547.141,-439.762 558.782,-425.872 566,-412 573.664,-397.271 578.943,-379.11 582.145,-365.732"/>
<polygon fill="midnightblue" stroke="midnightblue" points="585.599,-366.321 584.352,-355.8 578.766,-364.802 585.599,-366.321"/>
</g>
<!-- Node3 -->
<g id="node3" class="node"><title>Node3</title>
<g id="a_node3"><a xlink:href="common_8h.html" target="_top" xlink:title="common.h">
<polygon fill="white" stroke="black" points="483,-168.5 483,-187.5 545,-187.5 545,-168.5 483,-168.5"/>
<text text-anchor="middle" x="514" y="-175.5" font-family="Helvetica,sans-Serif" font-size="10.00">common.h</text>
</a>
</g>
</g>
<!-- Node2&#45;&gt;Node3 -->
<g id="edge2" class="edge"><title>Node2&#45;&gt;Node3</title>
<path fill="none" stroke="midnightblue" d="M471.04,-280.242C463.117,-267.424 451.095,-243.014 460,-224 466.045,-211.094 477.812,-200.599 488.823,-193"/>
<polygon fill="midnightblue" stroke="midnightblue" points="490.828,-195.872 497.367,-187.536 487.057,-189.975 490.828,-195.872"/>
</g>
<!-- Node22 -->
<g id="node22" class="node"><title>Node22</title>
<g id="a_node22"><a xlink:href="cpu_8h.html" target="_top" xlink:title="cpu.h">
<polygon fill="white" stroke="black" points="469.5,-224.5 469.5,-243.5 510.5,-243.5 510.5,-224.5 469.5,-224.5"/>
<text text-anchor="middle" x="490" y="-231.5" font-family="Helvetica,sans-Serif" font-size="10.00">cpu.h</text>
</a>
</g>
</g>
<!-- Node2&#45;&gt;Node22 -->
<g id="edge23" class="edge"><title>Node2&#45;&gt;Node22</title>
<path fill="none" stroke="midnightblue" d="M479.147,-280.083C480.869,-272.927 483.347,-262.635 485.5,-253.691"/>
<polygon fill="midnightblue" stroke="midnightblue" points="488.955,-254.293 487.893,-243.751 482.15,-252.654 488.955,-254.293"/>
</g>
<!-- Node4 -->
<g id="node4" class="node"><title>Node4</title>
<polygon fill="white" stroke="#bfbfbf" points="0,-112.5 0,-131.5 56,-131.5 56,-112.5 0,-112.5"/>
<text text-anchor="middle" x="28" y="-119.5" font-family="Helvetica,sans-Serif" font-size="10.00">algorithm</text>
</g>
<!-- Node3&#45;&gt;Node4 -->
<g id="edge3" class="edge"><title>Node3&#45;&gt;Node4</title>
<path fill="none" stroke="midnightblue" d="M482.772,-175.365C410.931,-171.286 228.3,-159.104 66.3421,-132.007"/>
<polygon fill="midnightblue" stroke="midnightblue" points="66.6424,-128.508 56.1977,-130.286 65.4711,-135.41 66.6424,-128.508"/>
</g>
<!-- Node5 -->
<g id="node5" class="node"><title>Node5</title>
<polygon fill="white" stroke="#bfbfbf" points="74.5,-112.5 74.5,-131.5 119.5,-131.5 119.5,-112.5 74.5,-112.5"/>
<text text-anchor="middle" x="97" y="-119.5" font-family="Helvetica,sans-Serif" font-size="10.00">climits</text>
</g>
<!-- Node3&#45;&gt;Node5 -->
<g id="edge4" class="edge"><title>Node3&#45;&gt;Node5</title>
<path fill="none" stroke="midnightblue" d="M482.801,-175.03C418.478,-170.61 266.403,-158.317 129.452,-131.774"/>
<polygon fill="midnightblue" stroke="midnightblue" points="130.107,-128.336 119.619,-129.838 128.754,-135.204 130.107,-128.336"/>
</g>
<!-- Node6 -->
<g id="node6" class="node"><title>Node6</title>
<polygon fill="white" stroke="#bfbfbf" points="138,-112.5 138,-131.5 182,-131.5 182,-112.5 138,-112.5"/>
<text text-anchor="middle" x="160" y="-119.5" font-family="Helvetica,sans-Serif" font-size="10.00">cmath</text>
</g>
<!-- Node3&#45;&gt;Node6 -->
<g id="edge5" class="edge"><title>Node3&#45;&gt;Node6</title>
<path fill="none" stroke="midnightblue" d="M482.558,-174.14C426.204,-168.688 304.179,-155.404 192.349,-132.022"/>
<polygon fill="midnightblue" stroke="midnightblue" points="192.762,-128.531 182.253,-129.877 191.308,-135.379 192.762,-128.531"/>
</g>
<!-- Node7 -->
<g id="node7" class="node"><title>Node7</title>
<polygon fill="white" stroke="#bfbfbf" points="200.5,-112.5 200.5,-131.5 249.5,-131.5 249.5,-112.5 200.5,-112.5"/>
<text text-anchor="middle" x="225" y="-119.5" font-family="Helvetica,sans-Serif" font-size="10.00">cstdarg</text>
</g>
<!-- Node3&#45;&gt;Node7 -->
<g id="edge6" class="edge"><title>Node3&#45;&gt;Node7</title>
<path fill="none" stroke="midnightblue" d="M482.684,-172.449C436.048,-165.465 345.418,-151.101 259.692,-132.23"/>
<polygon fill="midnightblue" stroke="midnightblue" points="260.327,-128.786 249.805,-130.029 258.805,-135.619 260.327,-128.786"/>
</g>
<!-- Node8 -->
<g id="node8" class="node"><title>Node8</title>
<polygon fill="white" stroke="#bfbfbf" points="267.5,-112.5 267.5,-131.5 316.5,-131.5 316.5,-112.5 267.5,-112.5"/>
<text text-anchor="middle" x="292" y="-119.5" font-family="Helvetica,sans-Serif" font-size="10.00">cstddef</text>
</g>
<!-- Node3&#45;&gt;Node8 -->
<g id="edge7" class="edge"><title>Node3&#45;&gt;Node8</title>
<path fill="none" stroke="midnightblue" d="M482.821,-169.904C447.269,-161.74 387.163,-147.723 326.904,-132.433"/>
<polygon fill="midnightblue" stroke="midnightblue" points="327.398,-128.947 316.843,-129.868 325.669,-135.73 327.398,-128.947"/>
</g>
<!-- Node9 -->
<g id="node9" class="node"><title>Node9</title>
<polygon fill="white" stroke="#bfbfbf" points="334.5,-112.5 334.5,-131.5 377.5,-131.5 377.5,-112.5 334.5,-112.5"/>
<text text-anchor="middle" x="356" y="-119.5" font-family="Helvetica,sans-Serif" font-size="10.00">cstdio</text>
</g>
<!-- Node3&#45;&gt;Node9 -->
<g id="edge8" class="edge"><title>Node3&#45;&gt;Node9</title>
<path fill="none" stroke="midnightblue" d="M488.964,-168.444C461.446,-159.038 417.193,-143.914 387.378,-133.724"/>
<polygon fill="midnightblue" stroke="midnightblue" points="388.46,-130.395 377.865,-130.473 386.196,-137.019 388.46,-130.395"/>
</g>
<!-- Node10 -->
<g id="node10" class="node"><title>Node10</title>
<polygon fill="white" stroke="#bfbfbf" points="395.5,-112.5 395.5,-131.5 440.5,-131.5 440.5,-112.5 395.5,-112.5"/>
<text text-anchor="middle" x="418" y="-119.5" font-family="Helvetica,sans-Serif" font-size="10.00">cstdlib</text>
</g>
<!-- Node3&#45;&gt;Node10 -->
<g id="edge9" class="edge"><title>Node3&#45;&gt;Node10</title>
<path fill="none" stroke="midnightblue" d="M498.576,-168.324C483.46,-159.822 460.185,-146.729 442.529,-136.797"/>
<polygon fill="midnightblue" stroke="midnightblue" points="443.817,-133.507 433.386,-131.655 440.386,-139.608 443.817,-133.507"/>
</g>
<!-- Node11 -->
<g id="node11" class="node"><title>Node11</title>
<polygon fill="white" stroke="#bfbfbf" points="459,-112.5 459,-131.5 505,-131.5 505,-112.5 459,-112.5"/>
<text text-anchor="middle" x="482" y="-119.5" font-family="Helvetica,sans-Serif" font-size="10.00">cstring</text>
</g>
<!-- Node3&#45;&gt;Node11 -->
<g id="edge10" class="edge"><title>Node3&#45;&gt;Node11</title>
<path fill="none" stroke="midnightblue" d="M508.716,-168.083C504.289,-160.613 497.837,-149.724 492.382,-140.52"/>
<polygon fill="midnightblue" stroke="midnightblue" points="495.295,-138.57 487.186,-131.751 489.273,-142.138 495.295,-138.57"/>
</g>
<!-- Node12 -->
<g id="node12" class="node"><title>Node12</title>
<polygon fill="white" stroke="#bfbfbf" points="523,-112.5 523,-131.5 569,-131.5 569,-112.5 523,-112.5"/>
<text text-anchor="middle" x="546" y="-119.5" font-family="Helvetica,sans-Serif" font-size="10.00">cctype</text>
</g>
<!-- Node3&#45;&gt;Node12 -->
<g id="edge11" class="edge"><title>Node3&#45;&gt;Node12</title>
<path fill="none" stroke="midnightblue" d="M519.284,-168.083C523.711,-160.613 530.163,-149.724 535.618,-140.52"/>
<polygon fill="midnightblue" stroke="midnightblue" points="538.727,-142.138 540.814,-131.751 532.705,-138.57 538.727,-142.138"/>
</g>
<!-- Node13 -->
<g id="node13" class="node"><title>Node13</title>
<polygon fill="white" stroke="#bfbfbf" points="587.5,-112.5 587.5,-131.5 628.5,-131.5 628.5,-112.5 587.5,-112.5"/>
<text text-anchor="middle" x="608" y="-119.5" font-family="Helvetica,sans-Serif" font-size="10.00">ctime</text>
</g>
<!-- Node3&#45;&gt;Node13 -->
<g id="edge12" class="edge"><title>Node3&#45;&gt;Node13</title>
<path fill="none" stroke="midnightblue" d="M529.103,-168.324C543.903,-159.822 566.694,-146.729 583.982,-136.797"/>
<polygon fill="midnightblue" stroke="midnightblue" points="586.007,-139.671 592.935,-131.655 582.52,-133.601 586.007,-139.671"/>
</g>
<!-- Node14 -->
<g id="node14" class="node"><title>Node14</title>
<g id="a_node14"><a xlink:href="stdint_8h.html" target="_top" xlink:title="stdint.h">
<polygon fill="white" stroke="black" points="632.5,-56.5 632.5,-75.5 681.5,-75.5 681.5,-56.5 632.5,-56.5"/>
<text text-anchor="middle" x="657" y="-63.5" font-family="Helvetica,sans-Serif" font-size="10.00">stdint.h</text>
</a>
</g>
</g>
<!-- Node3&#45;&gt;Node14 -->
<g id="edge13" class="edge"><title>Node3&#45;&gt;Node14</title>
<path fill="none" stroke="midnightblue" d="M545.269,-173.405C573.022,-168.596 612.816,-157.481 637,-132 648.801,-119.566 653.649,-100.329 655.635,-86.0043"/>
<polygon fill="midnightblue" stroke="midnightblue" points="659.144,-86.1007 656.693,-75.7933 652.181,-85.3796 659.144,-86.1007"/>
</g>
<!-- Node17 -->
<g id="node17" class="node"><title>Node17</title>
<polygon fill="white" stroke="#bfbfbf" points="749,-112.5 749,-131.5 809,-131.5 809,-112.5 749,-112.5"/>
<text text-anchor="middle" x="779" y="-119.5" font-family="Helvetica,sans-Serif" font-size="10.00">memory.h</text>
</g>
<!-- Node3&#45;&gt;Node17 -->
<g id="edge16" class="edge"><title>Node3&#45;&gt;Node17</title>
<path fill="none" stroke="midnightblue" d="M545.135,-171.11C586.898,-163.141 663.614,-148.268 738.688,-132.234"/>
<polygon fill="midnightblue" stroke="midnightblue" points="739.743,-135.587 748.786,-130.067 738.275,-128.743 739.743,-135.587"/>
</g>
<!-- Node18 -->
<g id="node18" class="node"><title>Node18</title>
<polygon fill="white" stroke="#bfbfbf" points="827,-112.5 827,-131.5 879,-131.5 879,-112.5 827,-112.5"/>
<text text-anchor="middle" x="853" y="-119.5" font-family="Helvetica,sans-Serif" font-size="10.00">assert.h</text>
</g>
<!-- Node3&#45;&gt;Node18 -->
<g id="edge17" class="edge"><title>Node3&#45;&gt;Node18</title>
<path fill="none" stroke="midnightblue" d="M545.142,-173.393C598.576,-166.984 711.319,-152.507 816.859,-131.838"/>
<polygon fill="midnightblue" stroke="midnightblue" points="817.592,-135.261 826.721,-129.884 816.231,-128.395 817.592,-135.261"/>
</g>
<!-- Node19 -->
<g id="node19" class="node"><title>Node19</title>
<g id="a_node19"><a xlink:href="x265_8h.html" target="_top" xlink:title="x265.h">
<polygon fill="white" stroke="black" points="685,-112.5 685,-131.5 731,-131.5 731,-112.5 685,-112.5"/>
<text text-anchor="middle" x="708" y="-119.5" font-family="Helvetica,sans-Serif" font-size="10.00">x265.h</text>
</a>
</g>
</g>
<!-- Node3&#45;&gt;Node19 -->
<g id="edge18" class="edge"><title>Node3&#45;&gt;Node19</title>
<path fill="none" stroke="midnightblue" d="M544.74,-168.444C580.386,-158.522 638.899,-142.234 675.342,-132.09"/>
<polygon fill="midnightblue" stroke="midnightblue" points="676.303,-135.456 684.998,-129.403 674.426,-128.712 676.303,-135.456"/>
</g>
<!-- Node21 -->
<g id="node21" class="node"><title>Node21</title>
<g id="a_node21"><a xlink:href="constants_8h.html" target="_top" xlink:title="constants.h">
<polygon fill="white" stroke="black" points="897,-112.5 897,-131.5 965,-131.5 965,-112.5 897,-112.5"/>
<text text-anchor="middle" x="931" y="-119.5" font-family="Helvetica,sans-Serif" font-size="10.00">constants.h</text>
</a>
</g>
</g>
<!-- Node3&#45;&gt;Node21 -->
<g id="edge21" class="edge"><title>Node3&#45;&gt;Node21</title>
<path fill="none" stroke="midnightblue" d="M545.488,-173.641C608.992,-167.266 756.067,-152.222 879,-132 881.592,-131.574 884.264,-131.099 886.971,-130.597"/>
<polygon fill="midnightblue" stroke="midnightblue" points="887.681,-134.025 896.838,-128.696 886.356,-127.151 887.681,-134.025"/>
</g>
<!-- Node15 -->
<g id="node15" class="node"><title>Node15</title>
<polygon fill="white" stroke="#bfbfbf" points="594.5,-0.5 594.5,-19.5 649.5,-19.5 649.5,-0.5 594.5,-0.5"/>
<text text-anchor="middle" x="622" y="-7.5" font-family="Helvetica,sans-Serif" font-size="10.00">crtdefs.h</text>
</g>
<!-- Node14&#45;&gt;Node15 -->
<g id="edge14" class="edge"><title>Node14&#45;&gt;Node15</title>
<path fill="none" stroke="midnightblue" d="M651.22,-56.083C646.328,-48.5341 639.173,-37.4948 633.167,-28.2298"/>
<polygon fill="midnightblue" stroke="midnightblue" points="636.048,-26.239 627.672,-19.7511 630.174,-30.0463 636.048,-26.239"/>
</g>
<!-- Node16 -->
<g id="node16" class="node"><title>Node16</title>
<polygon fill="white" stroke="#bfbfbf" points="668,-0.5 668,-19.5 716,-19.5 716,-0.5 668,-0.5"/>
<text text-anchor="middle" x="692" y="-7.5" font-family="Helvetica,sans-Serif" font-size="10.00">limits.h</text>
</g>
<!-- Node14&#45;&gt;Node16 -->
<g id="edge15" class="edge"><title>Node14&#45;&gt;Node16</title>
<path fill="none" stroke="midnightblue" d="M662.78,-56.083C667.672,-48.5341 674.827,-37.4948 680.833,-28.2298"/>
<polygon fill="midnightblue" stroke="midnightblue" points="683.826,-30.0463 686.328,-19.7511 677.952,-26.239 683.826,-30.0463"/>
</g>
<!-- Node19&#45;&gt;Node14 -->
<g id="edge19" class="edge"><title>Node19&#45;&gt;Node14</title>
<path fill="none" stroke="midnightblue" d="M699.578,-112.083C692.152,-104.22 681.148,-92.5688 672.188,-83.0813"/>
<polygon fill="midnightblue" stroke="midnightblue" points="674.676,-80.618 665.265,-75.7511 669.587,-85.4244 674.676,-80.618"/>
</g>
<!-- Node20 -->
<g id="node20" class="node"><title>Node20</title>
<g id="a_node20"><a xlink:href="x265__config_8h.html" target="_top" xlink:title="x265_config.h">
<polygon fill="white" stroke="black" points="699.5,-56.5 699.5,-75.5 776.5,-75.5 776.5,-56.5 699.5,-56.5"/>
<text text-anchor="middle" x="738" y="-63.5" font-family="Helvetica,sans-Serif" font-size="10.00">x265_config.h</text>
</a>
</g>
</g>
<!-- Node19&#45;&gt;Node20 -->
<g id="edge20" class="edge"><title>Node19&#45;&gt;Node20</title>
<path fill="none" stroke="midnightblue" d="M712.954,-112.083C717.104,-104.613 723.153,-93.7244 728.267,-84.5199"/>
<polygon fill="midnightblue" stroke="midnightblue" points="731.341,-86.1924 733.138,-75.7511 725.222,-82.7929 731.341,-86.1924"/>
</g>
<!-- Node21&#45;&gt;Node3 -->
<g id="edge22" class="edge"><title>Node21&#45;&gt;Node3</title>
<path fill="none" stroke="midnightblue" d="M899.735,-131.538C898.816,-131.697 897.903,-131.851 897,-132 773.625,-152.295 625.933,-167.375 555.308,-173.71"/>
<polygon fill="midnightblue" stroke="midnightblue" points="554.707,-170.249 545.054,-174.616 555.323,-177.222 554.707,-170.249"/>
</g>
<!-- Node22&#45;&gt;Node3 -->
<g id="edge24" class="edge"><title>Node22&#45;&gt;Node3</title>
<path fill="none" stroke="midnightblue" d="M493.963,-224.083C497.213,-216.77 501.919,-206.181 505.954,-197.103"/>
<polygon fill="midnightblue" stroke="midnightblue" points="509.248,-198.311 510.111,-187.751 502.851,-195.468 509.248,-198.311"/>
</g>
<!-- Node23&#45;&gt;Node2 -->
<g id="edge26" class="edge"><title>Node23&#45;&gt;Node2</title>
<path fill="none" stroke="midnightblue" d="M526.763,-392.368C517.93,-374.376 497.397,-332.55 485.653,-308.627"/>
<polygon fill="midnightblue" stroke="midnightblue" points="488.766,-307.026 481.218,-299.591 482.483,-310.11 488.766,-307.026"/>
</g>
<!-- Node23&#45;&gt;Node3 -->
<g id="edge27" class="edge"><title>Node23&#45;&gt;Node3</title>
<path fill="none" stroke="midnightblue" d="M530.535,-392.149C529.145,-366.257 524.76,-288.422 519,-224 518.229,-215.379 517.196,-205.849 516.27,-197.787"/>
<polygon fill="midnightblue" stroke="midnightblue" points="519.717,-197.136 515.069,-187.616 512.766,-197.957 519.717,-197.136"/>
</g>
<!-- Node23&#45;&gt;Node24 -->
<g id="edge28" class="edge"><title>Node23&#45;&gt;Node24</title>
<path fill="none" stroke="midnightblue" d="M540.082,-392.083C548.171,-384.141 560.195,-372.335 569.91,-362.797"/>
<polygon fill="midnightblue" stroke="midnightblue" points="572.403,-365.254 577.087,-355.751 567.499,-360.26 572.403,-365.254"/>
</g>
<!-- Node24&#45;&gt;Node2 -->
<g id="edge30" class="edge"><title>Node24&#45;&gt;Node2</title>
<path fill="none" stroke="midnightblue" d="M568.487,-336.324C550.928,-327.625 523.669,-314.12 503.469,-304.113"/>
<polygon fill="midnightblue" stroke="midnightblue" points="504.984,-300.958 494.469,-299.655 501.876,-307.23 504.984,-300.958"/>
</g>
<!-- Node24&#45;&gt;Node3 -->
<g id="edge29" class="edge"><title>Node24&#45;&gt;Node3</title>
<path fill="none" stroke="midnightblue" d="M584.978,-336.3C582.282,-315.708 573.707,-262.805 553,-224 547.306,-213.328 538.67,-203.012 530.971,-194.955"/>
<polygon fill="midnightblue" stroke="midnightblue" points="533.277,-192.311 523.728,-187.722 528.331,-197.264 533.277,-192.311"/>
</g>
</g>
</svg>
