<?xml version="1.0" encoding="UTF-8" standalone="no"?>
<!DOCTYPE svg PUBLIC "-//W3C//DTD SVG 1.1//EN"
 "http://www.w3.org/Graphics/SVG/1.1/DTD/svg11.dtd">
<!-- Generated by graphviz version 2.36.0 (20140111.2315)
 -->
<!-- Title: source/encoder/sao.h Pages: 1 -->
<svg width="725pt" height="196pt"
 viewBox="0.00 0.00 725.00 196.00" xmlns="http://www.w3.org/2000/svg" xmlns:xlink="http://www.w3.org/1999/xlink">
<g id="graph0" class="graph" transform="scale(1 1) rotate(0) translate(4 192)">
<title>source/encoder/sao.h</title>
<polygon fill="white" stroke="none" points="-4,4 -4,-192 721,-192 721,4 -4,4"/>
<!-- Node1 -->
<g id="node1" class="node"><title>Node1</title>
<polygon fill="#bfbfbf" stroke="black" points="377,-168.5 377,-187.5 487,-187.5 487,-168.5 377,-168.5"/>
<text text-anchor="middle" x="432" y="-175.5" font-family="Helvetica,sans-Serif" font-size="10.00">source/encoder/sao.h</text>
</g>
<!-- Node2 -->
<g id="node2" class="node"><title>Node2</title>
<g id="a_node2"><a xlink:href="frameencoder_8h.html" target="_top" xlink:title="source/encoder/frameencoder.h">
<polygon fill="white" stroke="black" points="180,-56.5 180,-75.5 334,-75.5 334,-56.5 180,-56.5"/>
<text text-anchor="middle" x="257" y="-63.5" font-family="Helvetica,sans-Serif" font-size="10.00">source/encoder/frameencoder.h</text>
</a>
</g>
</g>
<!-- Node1&#45;&gt;Node2 -->
<g id="edge1" class="edge"><title>Node1&#45;&gt;Node2</title>
<path fill="none" stroke="midnightblue" d="M366.993,-172.61C335.742,-167.258 299.963,-155.878 276,-132 260.676,-116.73 257.565,-89.8318 257.027,-75.9091"/>
<polygon fill="midnightblue" stroke="midnightblue" points="366.543,-176.082 376.959,-174.144 367.608,-169.163 366.543,-176.082"/>
</g>
<!-- Node6 -->
<g id="node6" class="node"><title>Node6</title>
<g id="a_node6"><a xlink:href="framefilter_8h.html" target="_top" xlink:title="source/encoder/framefilter.h">
<polygon fill="white" stroke="black" points="285,-112.5 285,-131.5 423,-131.5 423,-112.5 285,-112.5"/>
<text text-anchor="middle" x="354" y="-119.5" font-family="Helvetica,sans-Serif" font-size="10.00">source/encoder/framefilter.h</text>
</a>
</g>
</g>
<!-- Node1&#45;&gt;Node6 -->
<g id="edge5" class="edge"><title>Node1&#45;&gt;Node6</title>
<path fill="none" stroke="midnightblue" d="M411.232,-162.622C396.983,-152.757 378.544,-139.992 366.501,-131.655"/>
<polygon fill="midnightblue" stroke="midnightblue" points="409.254,-165.51 419.468,-168.324 413.238,-159.754 409.254,-165.51"/>
</g>
<!-- Node7 -->
<g id="node7" class="node"><title>Node7</title>
<g id="a_node7"><a xlink:href="entropy_8cpp.html" target="_top" xlink:title="source/encoder/entropy.cpp">
<polygon fill="white" stroke="black" points="441.5,-112.5 441.5,-131.5 578.5,-131.5 578.5,-112.5 441.5,-112.5"/>
<text text-anchor="middle" x="510" y="-119.5" font-family="Helvetica,sans-Serif" font-size="10.00">source/encoder/entropy.cpp</text>
</a>
</g>
</g>
<!-- Node1&#45;&gt;Node7 -->
<g id="edge8" class="edge"><title>Node1&#45;&gt;Node7</title>
<path fill="none" stroke="midnightblue" d="M452.768,-162.622C467.017,-152.757 485.456,-139.992 497.499,-131.655"/>
<polygon fill="midnightblue" stroke="midnightblue" points="450.762,-159.754 444.532,-168.324 454.746,-165.51 450.762,-159.754"/>
</g>
<!-- Node8 -->
<g id="node8" class="node"><title>Node8</title>
<g id="a_node8"><a xlink:href="sao_8cpp.html" target="_top" xlink:title="source/encoder/sao.cpp">
<polygon fill="white" stroke="black" points="596.5,-112.5 596.5,-131.5 717.5,-131.5 717.5,-112.5 596.5,-112.5"/>
<text text-anchor="middle" x="657" y="-119.5" font-family="Helvetica,sans-Serif" font-size="10.00">source/encoder/sao.cpp</text>
</a>
</g>
</g>
<!-- Node1&#45;&gt;Node8 -->
<g id="edge9" class="edge"><title>Node1&#45;&gt;Node8</title>
<path fill="none" stroke="midnightblue" d="M477.465,-166.088C519.973,-155.887 582.579,-140.861 621.515,-131.516"/>
<polygon fill="midnightblue" stroke="midnightblue" points="476.559,-162.706 467.652,-168.444 478.193,-169.513 476.559,-162.706"/>
</g>
<!-- Node3 -->
<g id="node3" class="node"><title>Node3</title>
<g id="a_node3"><a xlink:href="encoder_8cpp.html" target="_top" xlink:title="source/encoder/encoder.cpp">
<polygon fill="white" stroke="black" points="0,-0.5 0,-19.5 140,-19.5 140,-0.5 0,-0.5"/>
<text text-anchor="middle" x="70" y="-7.5" font-family="Helvetica,sans-Serif" font-size="10.00">source/encoder/encoder.cpp</text>
</a>
</g>
</g>
<!-- Node2&#45;&gt;Node3 -->
<g id="edge2" class="edge"><title>Node2&#45;&gt;Node3</title>
<path fill="none" stroke="midnightblue" d="M217.41,-53.5677C182.134,-43.381 131.306,-28.7034 99.4921,-19.5164"/>
<polygon fill="midnightblue" stroke="midnightblue" points="216.791,-57.0317 227.369,-56.4435 218.733,-50.3065 216.791,-57.0317"/>
</g>
<!-- Node4 -->
<g id="node4" class="node"><title>Node4</title>
<g id="a_node4"><a xlink:href="frameencoder_8cpp.html" target="_top" xlink:title="source/encoder/frameencoder.cpp">
<polygon fill="white" stroke="black" points="158,-0.5 158,-19.5 322,-19.5 322,-0.5 158,-0.5"/>
<text text-anchor="middle" x="240" y="-7.5" font-family="Helvetica,sans-Serif" font-size="10.00">source/encoder/frameencoder.cpp</text>
</a>
</g>
</g>
<!-- Node2&#45;&gt;Node4 -->
<g id="edge3" class="edge"><title>Node2&#45;&gt;Node4</title>
<path fill="none" stroke="midnightblue" d="M251.143,-46.3956C248.299,-37.362 245.017,-26.936 242.755,-19.7511"/>
<polygon fill="midnightblue" stroke="midnightblue" points="247.851,-47.5955 254.193,-56.083 254.528,-45.4935 247.851,-47.5955"/>
</g>
<!-- Node5 -->
<g id="node5" class="node"><title>Node5</title>
<g id="a_node5"><a xlink:href="framefilter_8cpp.html" target="_top" xlink:title="source/encoder/framefilter.cpp">
<polygon fill="white" stroke="black" points="340.5,-0.5 340.5,-19.5 489.5,-19.5 489.5,-0.5 340.5,-0.5"/>
<text text-anchor="middle" x="415" y="-7.5" font-family="Helvetica,sans-Serif" font-size="10.00">source/encoder/framefilter.cpp</text>
</a>
</g>
</g>
<!-- Node2&#45;&gt;Node5 -->
<g id="edge4" class="edge"><title>Node2&#45;&gt;Node5</title>
<path fill="none" stroke="midnightblue" d="M291.608,-53.172C321.359,-43.0039 363.547,-28.5852 390.082,-19.5164"/>
<polygon fill="midnightblue" stroke="midnightblue" points="290.366,-49.8975 282.036,-56.4435 292.63,-56.5213 290.366,-49.8975"/>
</g>
<!-- Node6&#45;&gt;Node2 -->
<g id="edge6" class="edge"><title>Node6&#45;&gt;Node2</title>
<path fill="none" stroke="midnightblue" d="M329.665,-107.453C311.757,-97.4835 287.946,-84.2279 272.546,-75.6545"/>
<polygon fill="midnightblue" stroke="midnightblue" points="327.975,-110.518 338.415,-112.324 331.38,-104.402 327.975,-110.518"/>
</g>
<!-- Node6&#45;&gt;Node5 -->
<g id="edge7" class="edge"><title>Node6&#45;&gt;Node5</title>
<path fill="none" stroke="midnightblue" d="M363.804,-103.32C377.086,-79.3697 400.278,-37.5484 410.236,-19.5914"/>
<polygon fill="midnightblue" stroke="midnightblue" points="360.575,-101.926 358.787,-112.368 366.697,-105.321 360.575,-101.926"/>
</g>
</g>
</svg>
