<?xml version="1.0" encoding="UTF-8" standalone="no"?>
<!DOCTYPE svg PUBLIC "-//W3C//DTD SVG 1.1//EN"
 "http://www.w3.org/Graphics/SVG/1.1/DTD/svg11.dtd">
<!-- Generated by graphviz version 2.36.0 (20140111.2315)
 -->
<!-- Title: source/compat/msvc/stdint.h Pages: 1 -->
<svg width="129pt" height="96pt"
 viewBox="0.00 0.00 129.00 96.00" xmlns="http://www.w3.org/2000/svg" xmlns:xlink="http://www.w3.org/1999/xlink">
<g id="graph0" class="graph" transform="scale(1 1) rotate(0) translate(4 92)">
<title>source/compat/msvc/stdint.h</title>
<polygon fill="white" stroke="none" points="-4,4 -4,-92 125,-92 125,4 -4,4"/>
<!-- Node1 -->
<g id="node1" class="node"><title>Node1</title>
<polygon fill="#bfbfbf" stroke="black" points="8,-57 8,-87 116,-87 116,-57 8,-57"/>
<text text-anchor="start" x="16" y="-75" font-family="Helvetica,sans-Serif" font-size="10.00">source/compat/msvc</text>
<text text-anchor="middle" x="62" y="-64" font-family="Helvetica,sans-Serif" font-size="10.00">/stdint.h</text>
</g>
<!-- Node2 -->
<g id="node2" class="node"><title>Node2</title>
<polygon fill="white" stroke="#bfbfbf" points="-0.5,-0.5 -0.5,-19.5 54.5,-19.5 54.5,-0.5 -0.5,-0.5"/>
<text text-anchor="middle" x="27" y="-7.5" font-family="Helvetica,sans-Serif" font-size="10.00">crtdefs.h</text>
</g>
<!-- Node1&#45;&gt;Node2 -->
<g id="edge1" class="edge"><title>Node1&#45;&gt;Node2</title>
<path fill="none" stroke="midnightblue" d="M53.7055,-56.7808C48.7769,-48.3318 42.4864,-37.5481 37.2488,-28.5693"/>
<polygon fill="midnightblue" stroke="midnightblue" points="40.1548,-26.6048 32.0928,-19.7305 34.1083,-30.1319 40.1548,-26.6048"/>
</g>
<!-- Node3 -->
<g id="node3" class="node"><title>Node3</title>
<polygon fill="white" stroke="#bfbfbf" points="73,-0.5 73,-19.5 121,-19.5 121,-0.5 73,-0.5"/>
<text text-anchor="middle" x="97" y="-7.5" font-family="Helvetica,sans-Serif" font-size="10.00">limits.h</text>
</g>
<!-- Node1&#45;&gt;Node3 -->
<g id="edge2" class="edge"><title>Node1&#45;&gt;Node3</title>
<path fill="none" stroke="midnightblue" d="M70.2945,-56.7808C75.2231,-48.3318 81.5136,-37.5481 86.7512,-28.5693"/>
<polygon fill="midnightblue" stroke="midnightblue" points="89.8917,-30.1319 91.9072,-19.7305 83.8452,-26.6048 89.8917,-30.1319"/>
</g>
</g>
</svg>
