<?xml version="1.0" encoding="UTF-8" standalone="no"?>
<!DOCTYPE svg PUBLIC "-//W3C//DTD SVG 1.1//EN"
 "http://www.w3.org/Graphics/SVG/1.1/DTD/svg11.dtd">
<!-- Generated by graphviz version 2.36.0 (20140111.2315)
 -->
<!-- Title: x265::Lowres::destroy Pages: 1 -->
<svg width="812pt" height="104pt"
 viewBox="0.00 0.00 812.00 104.00" xmlns="http://www.w3.org/2000/svg" xmlns:xlink="http://www.w3.org/1999/xlink">
<g id="graph0" class="graph" transform="scale(1 1) rotate(0) translate(4 100)">
<title>x265::Lowres::destroy</title>
<polygon fill="white" stroke="none" points="-4,4 -4,-100 808,-100 808,4 -4,4"/>
<!-- Node1 -->
<g id="node1" class="node"><title>Node1</title>
<polygon fill="#bfbfbf" stroke="black" points="0.5,-38.5 0.5,-57.5 113.5,-57.5 113.5,-38.5 0.5,-38.5"/>
<text text-anchor="middle" x="57" y="-45.5" font-family="Helvetica,sans-Serif" font-size="10.00">x265::Lowres::destroy</text>
</g>
<!-- Node2 -->
<g id="node2" class="node"><title>Node2</title>
<g id="a_node2"><a xlink:href="classx265_1_1Frame.html#a538e2e03787c196818d3d8e3c3e42609" target="_top" xlink:title="x265::Frame::destroy">
<polygon fill="white" stroke="black" points="150,-38.5 150,-57.5 260,-57.5 260,-38.5 150,-38.5"/>
<text text-anchor="middle" x="205" y="-45.5" font-family="Helvetica,sans-Serif" font-size="10.00">x265::Frame::destroy</text>
</a>
</g>
</g>
<!-- Node1&#45;&gt;Node2 -->
<g id="edge1" class="edge"><title>Node1&#45;&gt;Node2</title>
<path fill="none" stroke="midnightblue" d="M123.801,-48C132.561,-48 141.46,-48 149.988,-48"/>
<polygon fill="midnightblue" stroke="midnightblue" points="123.613,-44.5001 113.613,-48 123.613,-51.5001 123.613,-44.5001"/>
</g>
<!-- Node3 -->
<g id="node3" class="node"><title>Node3</title>
<g id="a_node3"><a xlink:href="classx265_1_1DPB.html#ab413f4582b68ea3e7ca50918ff4c4da3" target="_top" xlink:title="x265::DPB::~DPB">
<polygon fill="white" stroke="black" points="312,-76.5 312,-95.5 410,-95.5 410,-76.5 312,-76.5"/>
<text text-anchor="middle" x="361" y="-83.5" font-family="Helvetica,sans-Serif" font-size="10.00">x265::DPB::~DPB</text>
</a>
</g>
</g>
<!-- Node2&#45;&gt;Node3 -->
<g id="edge2" class="edge"><title>Node2&#45;&gt;Node3</title>
<path fill="none" stroke="midnightblue" d="M254.794,-60.04C276.308,-65.3488 301.232,-71.4988 321.419,-76.4799"/>
<polygon fill="midnightblue" stroke="midnightblue" points="255.408,-56.5867 244.861,-57.589 253.731,-63.3828 255.408,-56.5867"/>
</g>
<!-- Node4 -->
<g id="node4" class="node"><title>Node4</title>
<g id="a_node4"><a xlink:href="classx265_1_1Encoder.html#af5c80cef5fcafa00d1b3c105681bc784" target="_top" xlink:title="x265::Encoder::encode">
<polygon fill="white" stroke="black" points="302.5,-38.5 302.5,-57.5 419.5,-57.5 419.5,-38.5 302.5,-38.5"/>
<text text-anchor="middle" x="361" y="-45.5" font-family="Helvetica,sans-Serif" font-size="10.00">x265::Encoder::encode</text>
</a>
</g>
</g>
<!-- Node2&#45;&gt;Node4 -->
<g id="edge3" class="edge"><title>Node2&#45;&gt;Node4</title>
<path fill="none" stroke="midnightblue" d="M270.328,-48C280.927,-48 291.855,-48 302.279,-48"/>
<polygon fill="midnightblue" stroke="midnightblue" points="270.295,-44.5001 260.295,-48 270.295,-51.5001 270.295,-44.5001"/>
</g>
<!-- Node7 -->
<g id="node7" class="node"><title>Node7</title>
<g id="a_node7"><a xlink:href="classx265_1_1Lookahead.html#ab9a7aba780092c796bb7b2a2e0d41f4d" target="_top" xlink:title="x265::Lookahead::destroy">
<polygon fill="white" stroke="black" points="296.5,-0.5 296.5,-19.5 425.5,-19.5 425.5,-0.5 296.5,-0.5"/>
<text text-anchor="middle" x="361" y="-7.5" font-family="Helvetica,sans-Serif" font-size="10.00">x265::Lookahead::destroy</text>
</a>
</g>
</g>
<!-- Node2&#45;&gt;Node7 -->
<g id="edge6" class="edge"><title>Node2&#45;&gt;Node7</title>
<path fill="none" stroke="midnightblue" d="M254.794,-35.96C276.308,-30.6512 301.232,-24.5012 321.419,-19.5201"/>
<polygon fill="midnightblue" stroke="midnightblue" points="253.731,-32.6172 244.861,-38.411 255.408,-39.4133 253.731,-32.6172"/>
</g>
<!-- Node5 -->
<g id="node5" class="node"><title>Node5</title>
<g id="a_node5"><a xlink:href="x265_8h.html#a7a45a920b9d86ed3fb3cb3794b14f5ea" target="_top" xlink:title="x265_encoder_encode">
<polygon fill="white" stroke="black" points="616,-38.5 616,-57.5 730,-57.5 730,-38.5 616,-38.5"/>
<text text-anchor="middle" x="673" y="-45.5" font-family="Helvetica,sans-Serif" font-size="10.00">x265_encoder_encode</text>
</a>
</g>
</g>
<!-- Node4&#45;&gt;Node5 -->
<g id="edge4" class="edge"><title>Node4&#45;&gt;Node5</title>
<path fill="none" stroke="midnightblue" d="M429.714,-48C485.427,-48 563.462,-48 615.772,-48"/>
<polygon fill="midnightblue" stroke="midnightblue" points="429.582,-44.5001 419.582,-48 429.582,-51.5001 429.582,-44.5001"/>
</g>
<!-- Node6 -->
<g id="node6" class="node"><title>Node6</title>
<g id="a_node6"><a xlink:href="x265_8cpp.html#a3c04138a5bfe5d72780bb7e82a18e627" target="_top" xlink:title="main">
<polygon fill="white" stroke="black" points="766,-19.5 766,-38.5 804,-38.5 804,-19.5 766,-19.5"/>
<text text-anchor="middle" x="785" y="-26.5" font-family="Helvetica,sans-Serif" font-size="10.00">main</text>
</a>
</g>
</g>
<!-- Node5&#45;&gt;Node6 -->
<g id="edge5" class="edge"><title>Node5&#45;&gt;Node6</title>
<path fill="none" stroke="midnightblue" d="M739.22,-36.7347C749.017,-35.0425 758.366,-33.4277 765.963,-32.1155"/>
<polygon fill="midnightblue" stroke="midnightblue" points="738.581,-33.2933 729.322,-38.4443 739.772,-40.1911 738.581,-33.2933"/>
</g>
<!-- Node8 -->
<g id="node8" class="node"><title>Node8</title>
<g id="a_node8"><a xlink:href="classx265_1_1Encoder.html#ac689b087686eca38579aad7426e34fc6" target="_top" xlink:title="x265::Encoder::destroy">
<polygon fill="white" stroke="black" points="462,-0.5 462,-19.5 580,-19.5 580,-0.5 462,-0.5"/>
<text text-anchor="middle" x="521" y="-7.5" font-family="Helvetica,sans-Serif" font-size="10.00">x265::Encoder::destroy</text>
</a>
</g>
</g>
<!-- Node7&#45;&gt;Node8 -->
<g id="edge7" class="edge"><title>Node7&#45;&gt;Node8</title>
<path fill="none" stroke="midnightblue" d="M435.942,-10C444.627,-10 453.395,-10 461.821,-10"/>
<polygon fill="midnightblue" stroke="midnightblue" points="435.809,-6.5001 425.809,-10 435.809,-13.5001 435.809,-6.5001"/>
</g>
<!-- Node9 -->
<g id="node9" class="node"><title>Node9</title>
<g id="a_node9"><a xlink:href="x265_8h.html#ac370491d505086b2eb41e10d89f271ad" target="_top" xlink:title="x265_encoder_close">
<polygon fill="white" stroke="black" points="620,-0.5 620,-19.5 726,-19.5 726,-0.5 620,-0.5"/>
<text text-anchor="middle" x="673" y="-7.5" font-family="Helvetica,sans-Serif" font-size="10.00">x265_encoder_close</text>
</a>
</g>
</g>
<!-- Node8&#45;&gt;Node9 -->
<g id="edge8" class="edge"><title>Node8&#45;&gt;Node9</title>
<path fill="none" stroke="midnightblue" d="M590.587,-10C600.418,-10 610.398,-10 619.843,-10"/>
<polygon fill="midnightblue" stroke="midnightblue" points="590.423,-6.5001 580.423,-10 590.423,-13.5001 590.423,-6.5001"/>
</g>
<!-- Node9&#45;&gt;Node6 -->
<g id="edge9" class="edge"><title>Node9&#45;&gt;Node6</title>
<path fill="none" stroke="midnightblue" d="M736.167,-20.738C747.067,-22.6206 757.584,-24.4372 765.968,-25.8853"/>
<polygon fill="midnightblue" stroke="midnightblue" points="736.551,-17.2525 726.101,-18.9992 735.359,-24.1503 736.551,-17.2525"/>
</g>
</g>
</svg>
