<?xml version="1.0" encoding="UTF-8" standalone="no"?>
<!DOCTYPE svg PUBLIC "-//W3C//DTD SVG 1.1//EN"
 "http://www.w3.org/Graphics/SVG/1.1/DTD/svg11.dtd">
<!-- Generated by graphviz version 2.36.0 (20140111.2315)
 -->
<!-- Title: x265::MV::mvmax Pages: 1 -->
<!--zoomable 175 -->
<svg id="main" version="1.1" xmlns="http://www.w3.org/2000/svg" xmlns:xlink="http://www.w3.org/1999/xlink" xml:space="preserve" onload="init(evt)">
<style type="text/css"><![CDATA[
.edge:hover path { stroke: red; }
.edge:hover polygon { stroke: red; fill: red; }
]]></style>
<script type="text/javascript"><![CDATA[
var edges = document.getElementsByTagName('g');
if (edges && edges.length) {
  for (var i=0;i<edges.length;i++) {
    if (edges[i].id.substr(0,4)=='edge') {
      edges[i].setAttribute('class','edge');
    }
  }
}
]]></script>
        <defs>
                <circle id="rim" cx="0" cy="0" r="7"/>
                <circle id="rim2" cx="0" cy="0" r="3.5"/>
                <g id="zoomPlus">
                        <use xlink:href="#rim" fill="#404040">
                                <set attributeName="fill" to="#808080" begin="zoomplus.mouseover" end="zoomplus.mouseout"/>
                        </use>
                        <path d="M-4,0h8M0,-4v8" fill="none" stroke="white" stroke-width="1.5" pointer-events="none"/>
                </g>
                <g id="zoomMin">
                        <use xlink:href="#rim" fill="#404040">
                                <set attributeName="fill" to="#808080" begin="zoomminus.mouseover" end="zoomminus.mouseout"/>
                        </use>
                        <path d="M-4,0h8" fill="none" stroke="white" stroke-width="1.5" pointer-events="none"/>
                </g>
                <g id="dirArrow">
                        <path fill="none" stroke="white" stroke-width="1.5" d="M0,-3.0v7 M-2.5,-0.5L0,-3.0L2.5,-0.5"/>
                </g>
               <g id="resetDef">
                       <use xlink:href="#rim2" fill="#404040">
                               <set attributeName="fill" to="#808080" begin="reset.mouseover" end="reset.mouseout"/>
                       </use>
               </g>
        </defs>

<script type="text/javascript">
var viewWidth = 914;
var viewHeight = 175;
var sectionId = 'dynsection-7';
</script>
<script xlink:href="svgpan.js"/>
<svg id="graph" class="graph">
<g id="viewport">
<title>x265::MV::mvmax</title>
<polygon fill="white" stroke="none" points="-4,4 -4,-171 910,-171 910,4 -4,4"/>
<!-- Node1 -->
<g id="node1" class="node"><title>Node1</title>
<polygon fill="#bfbfbf" stroke="black" points="0.5,-63.5 0.5,-82.5 97.5,-82.5 97.5,-63.5 0.5,-63.5"/>
<text text-anchor="middle" x="49" y="-70.5" font-family="Helvetica,sans-Serif" font-size="10.00">x265::MV::mvmax</text>
</g>
<!-- Node2 -->
<g id="node2" class="node"><title>Node2</title>
<g id="a_node2"><a xlink:href="structx265_1_1MV.html#aab942064e803bea5dc44bd93c5049044" target="_top" xlink:title="x265::MV::clipped">
<polygon fill="white" stroke="black" points="134.5,-63.5 134.5,-82.5 229.5,-82.5 229.5,-63.5 134.5,-63.5"/>
<text text-anchor="middle" x="182" y="-70.5" font-family="Helvetica,sans-Serif" font-size="10.00">x265::MV::clipped</text>
</a>
</g>
</g>
<!-- Node1&#45;&gt;Node2 -->
<g id="edge1" class="edge"><title>Node1&#45;&gt;Node2</title>
<path fill="none" stroke="midnightblue" d="M107.953,-73C116.824,-73 125.883,-73 134.466,-73"/>
<polygon fill="midnightblue" stroke="midnightblue" points="107.665,-69.5001 97.6646,-73 107.665,-76.5001 107.665,-69.5001"/>
</g>
<!-- Node3 -->
<g id="node3" class="node"><title>Node3</title>
<g id="a_node3"><a xlink:href="classx265_1_1MotionEstimate.html#a2fa2c8bf4129cf3352a828a0795bd139" target="_top" xlink:title="x265::MotionEstimate\l::motionEstimate">
<polygon fill="white" stroke="black" points="266,-58 266,-88 378,-88 378,-58 266,-58"/>
<text text-anchor="start" x="274" y="-76" font-family="Helvetica,sans-Serif" font-size="10.00">x265::MotionEstimate</text>
<text text-anchor="middle" x="322" y="-65" font-family="Helvetica,sans-Serif" font-size="10.00">::motionEstimate</text>
</a>
</g>
</g>
<!-- Node2&#45;&gt;Node3 -->
<g id="edge2" class="edge"><title>Node2&#45;&gt;Node3</title>
<path fill="none" stroke="midnightblue" d="M239.954,-73C248.477,-73 257.253,-73 265.74,-73"/>
<polygon fill="midnightblue" stroke="midnightblue" points="239.721,-69.5001 229.721,-73 239.72,-76.5001 239.721,-69.5001"/>
</g>
<!-- Node4 -->
<g id="node4" class="node"><title>Node4</title>
<g id="a_node4"><a xlink:href="classx265_1_1Search.html#a47294b1b3d67ab31cb6be412407982d5" target="_top" xlink:title="x265::Search::singleMotion\lEstimation">
<polygon fill="white" stroke="black" points="414.5,-102 414.5,-132 549.5,-132 549.5,-102 414.5,-102"/>
<text text-anchor="start" x="422.5" y="-120" font-family="Helvetica,sans-Serif" font-size="10.00">x265::Search::singleMotion</text>
<text text-anchor="middle" x="482" y="-109" font-family="Helvetica,sans-Serif" font-size="10.00">Estimation</text>
</a>
</g>
</g>
<!-- Node3&#45;&gt;Node4 -->
<g id="edge3" class="edge"><title>Node3&#45;&gt;Node4</title>
<path fill="none" stroke="midnightblue" d="M386.57,-90.7029C399.986,-94.4392 414.02,-98.3475 427.042,-101.974"/>
<polygon fill="midnightblue" stroke="midnightblue" points="387.505,-87.3303 376.933,-88.0192 385.627,-94.0737 387.505,-87.3303"/>
</g>
<!-- Node7 -->
<g id="node7" class="node"><title>Node7</title>
<g id="a_node7"><a xlink:href="classx265_1_1Search.html#a48101e3d900e93b97a83f461be390bd1" target="_top" xlink:title="x265::Search::predInterSearch">
<polygon fill="white" stroke="black" points="586.5,-68.5 586.5,-87.5 735.5,-87.5 735.5,-68.5 586.5,-68.5"/>
<text text-anchor="middle" x="661" y="-75.5" font-family="Helvetica,sans-Serif" font-size="10.00">x265::Search::predInterSearch</text>
</a>
</g>
</g>
<!-- Node3&#45;&gt;Node7 -->
<g id="edge9" class="edge"><title>Node3&#45;&gt;Node7</title>
<path fill="none" stroke="midnightblue" d="M388.567,-73.9728C445.34,-74.8151 527.387,-76.0324 586.395,-76.9079"/>
<polygon fill="midnightblue" stroke="midnightblue" points="388.322,-70.4689 378.271,-73.82 388.218,-77.4681 388.322,-70.4689"/>
</g>
<!-- Node10 -->
<g id="node10" class="node"><title>Node10</title>
<g id="a_node10"><a xlink:href="classx265_1_1EstimateRow.html#ab4418a4e826e746d0b9cdce75a0736d9" target="_top" xlink:title="x265::EstimateRow::\lestimateCUCost">
<polygon fill="white" stroke="black" points="427.5,-6 427.5,-36 536.5,-36 536.5,-6 427.5,-6"/>
<text text-anchor="start" x="435.5" y="-24" font-family="Helvetica,sans-Serif" font-size="10.00">x265::EstimateRow::</text>
<text text-anchor="middle" x="482" y="-13" font-family="Helvetica,sans-Serif" font-size="10.00">estimateCUCost</text>
</a>
</g>
</g>
<!-- Node3&#45;&gt;Node10 -->
<g id="edge10" class="edge"><title>Node3&#45;&gt;Node10</title>
<path fill="none" stroke="midnightblue" d="M378.263,-54.8122C396.937,-48.6662 417.563,-41.8781 435.403,-36.0068"/>
<polygon fill="midnightblue" stroke="midnightblue" points="377.105,-51.5086 368.7,-57.9594 379.293,-58.1578 377.105,-51.5086"/>
</g>
<!-- Node5 -->
<g id="node5" class="node"><title>Node5</title>
<g id="a_node5"><a xlink:href="classx265_1_1Analysis.html#abd49473ae6e5e1f7e555b447b04398e6" target="_top" xlink:title="x265::Analysis::parallelME">
<polygon fill="white" stroke="black" points="594.5,-133.5 594.5,-152.5 727.5,-152.5 727.5,-133.5 594.5,-133.5"/>
<text text-anchor="middle" x="661" y="-140.5" font-family="Helvetica,sans-Serif" font-size="10.00">x265::Analysis::parallelME</text>
</a>
</g>
</g>
<!-- Node4&#45;&gt;Node5 -->
<g id="edge4" class="edge"><title>Node4&#45;&gt;Node5</title>
<path fill="none" stroke="midnightblue" d="M559.902,-128.296C571.659,-130.023 583.693,-131.791 595.156,-133.475"/>
<polygon fill="midnightblue" stroke="midnightblue" points="560.066,-124.783 549.664,-126.792 559.049,-131.709 560.066,-124.783"/>
</g>
<!-- Node4&#45;&gt;Node7 -->
<g id="edge6" class="edge"><title>Node4&#45;&gt;Node7</title>
<path fill="none" stroke="midnightblue" d="M559.501,-100.144C579.08,-95.8298 599.458,-91.3397 616.705,-87.5396"/>
<polygon fill="midnightblue" stroke="midnightblue" points="558.676,-96.7415 549.664,-102.311 560.183,-103.578 558.676,-96.7415"/>
</g>
<!-- Node6 -->
<g id="node6" class="node"><title>Node6</title>
<g id="a_node6"><a xlink:href="classx265_1_1Analysis.html#a29a58dad4cc1c07d2f5e5717c6be7c25" target="_top" xlink:title="x265::Analysis::findJob">
<polygon fill="white" stroke="red" points="779.5,-147.5 779.5,-166.5 898.5,-166.5 898.5,-147.5 779.5,-147.5"/>
<text text-anchor="middle" x="839" y="-154.5" font-family="Helvetica,sans-Serif" font-size="10.00">x265::Analysis::findJob</text>
</a>
</g>
</g>
<!-- Node5&#45;&gt;Node6 -->
<g id="edge5" class="edge"><title>Node5&#45;&gt;Node6</title>
<path fill="none" stroke="midnightblue" d="M737.617,-149.015C751.593,-150.127 765.994,-151.272 779.372,-152.336"/>
<polygon fill="midnightblue" stroke="midnightblue" points="737.782,-145.517 727.536,-148.213 737.227,-152.495 737.782,-145.517"/>
</g>
<!-- Node8 -->
<g id="node8" class="node"><title>Node8</title>
<g id="a_node8"><a xlink:href="classx265_1_1Analysis.html#a2305f7985af66b49fdbc40ebb1b281d2" target="_top" xlink:title="x265::Analysis::checkInter\l_rd0_4">
<polygon fill="white" stroke="red" points="772.5,-98 772.5,-128 905.5,-128 905.5,-98 772.5,-98"/>
<text text-anchor="start" x="780.5" y="-116" font-family="Helvetica,sans-Serif" font-size="10.00">x265::Analysis::checkInter</text>
<text text-anchor="middle" x="839" y="-105" font-family="Helvetica,sans-Serif" font-size="10.00">_rd0_4</text>
</a>
</g>
</g>
<!-- Node7&#45;&gt;Node8 -->
<g id="edge7" class="edge"><title>Node7&#45;&gt;Node8</title>
<path fill="none" stroke="midnightblue" d="M720.272,-89.5882C736.998,-92.9144 755.348,-96.5635 772.48,-99.9704"/>
<polygon fill="midnightblue" stroke="midnightblue" points="720.583,-86.0816 710.093,-87.5639 719.218,-92.9472 720.583,-86.0816"/>
</g>
<!-- Node9 -->
<g id="node9" class="node"><title>Node9</title>
<g id="a_node9"><a xlink:href="classx265_1_1Analysis.html#a828daa3e9f1ed40a1af9f99f7ff7bb33" target="_top" xlink:title="x265::Analysis::checkInter\l_rd5_6">
<polygon fill="white" stroke="red" points="772.5,-49 772.5,-79 905.5,-79 905.5,-49 772.5,-49"/>
<text text-anchor="start" x="780.5" y="-67" font-family="Helvetica,sans-Serif" font-size="10.00">x265::Analysis::checkInter</text>
<text text-anchor="middle" x="839" y="-56" font-family="Helvetica,sans-Serif" font-size="10.00">_rd5_6</text>
</a>
</g>
</g>
<!-- Node7&#45;&gt;Node9 -->
<g id="edge8" class="edge"><title>Node7&#45;&gt;Node9</title>
<path fill="none" stroke="midnightblue" d="M745.653,-71.3458C754.579,-70.6358 763.564,-69.921 772.241,-69.2308"/>
<polygon fill="midnightblue" stroke="midnightblue" points="745.311,-67.8618 735.62,-72.1439 745.866,-74.8398 745.311,-67.8618"/>
</g>
<!-- Node11 -->
<g id="node11" class="node"><title>Node11</title>
<g id="a_node11"><a xlink:href="classx265_1_1CostEstimate.html#a239a71996364d7662e9c9c32b82d6c9f" target="_top" xlink:title="x265::CostEstimate\l::processRow">
<polygon fill="white" stroke="black" points="609,-2 609,-32 713,-32 713,-2 609,-2"/>
<text text-anchor="start" x="617" y="-20" font-family="Helvetica,sans-Serif" font-size="10.00">x265::CostEstimate</text>
<text text-anchor="middle" x="661" y="-9" font-family="Helvetica,sans-Serif" font-size="10.00">::processRow</text>
</a>
</g>
</g>
<!-- Node10&#45;&gt;Node11 -->
<g id="edge11" class="edge"><title>Node10&#45;&gt;Node11</title>
<path fill="none" stroke="midnightblue" d="M546.722,-19.56C567.088,-19.0997 589.357,-18.5965 608.72,-18.1589"/>
<polygon fill="midnightblue" stroke="midnightblue" points="546.505,-16.0639 536.586,-19.789 546.663,-23.0621 546.505,-16.0639"/>
</g>
<!-- Node12 -->
<g id="node12" class="node"><title>Node12</title>
<g id="a_node12"><a xlink:href="classx265_1_1CostEstimate.html#af33d06405527ebbb03d9c93d565e6e2a" target="_top" xlink:title="x265::CostEstimate\l::estimateFrameCost">
<polygon fill="white" stroke="red" points="784.5,-0 784.5,-30 893.5,-30 893.5,-0 784.5,-0"/>
<text text-anchor="start" x="792.5" y="-18" font-family="Helvetica,sans-Serif" font-size="10.00">x265::CostEstimate</text>
<text text-anchor="middle" x="839" y="-7" font-family="Helvetica,sans-Serif" font-size="10.00">::estimateFrameCost</text>
</a>
</g>
</g>
<!-- Node11&#45;&gt;Node12 -->
<g id="edge12" class="edge"><title>Node11&#45;&gt;Node12</title>
<path fill="none" stroke="midnightblue" d="M723.548,-16.3006C743.385,-16.0752 765.199,-15.8273 784.414,-15.6089"/>
<polygon fill="midnightblue" stroke="midnightblue" points="723.339,-12.8026 713.38,-16.4161 723.419,-19.8022 723.339,-12.8026"/>
</g>
</g>
</svg>
        <g id="navigator" transform="translate(0 0)" fill="#404254">
                <rect fill="#f2f5e9" fill-opacity="0.5" stroke="#606060" stroke-width=".5" x="0" y="0" width="60" height="60"/>
                <use id="zoomplus" xlink:href="#zoomPlus" x="17" y="9" onmousedown="handleZoom(evt,'in')"/>
                <use id="zoomminus" xlink:href="#zoomMin" x="42" y="9" onmousedown="handleZoom(evt,'out')"/>
                <use id="reset" xlink:href="#resetDef" x="30" y="36" onmousedown="handleReset()"/>
                <g id="arrowUp" xlink:href="#dirArrow" transform="translate(30 24)" onmousedown="handlePan(0,-1)">
                  <use xlink:href="#rim" fill="#404040">
                        <set attributeName="fill" to="#808080" begin="arrowUp.mouseover" end="arrowUp.mouseout"/>
                  </use>
                  <path fill="none" stroke="white" stroke-width="1.5" d="M0,-3.0v7 M-2.5,-0.5L0,-3.0L2.5,-0.5"/>
                </g>
                <g id="arrowRight" xlink:href="#dirArrow" transform="rotate(90) translate(36 -43)" onmousedown="handlePan(1,0)">
                  <use xlink:href="#rim" fill="#404040">
                        <set attributeName="fill" to="#808080" begin="arrowRight.mouseover" end="arrowRight.mouseout"/>
                  </use>
                  <path fill="none" stroke="white" stroke-width="1.5" d="M0,-3.0v7 M-2.5,-0.5L0,-3.0L2.5,-0.5"/>
                </g>
                <g id="arrowDown" xlink:href="#dirArrow" transform="rotate(180) translate(-30 -48)" onmousedown="handlePan(0,1)">
                  <use xlink:href="#rim" fill="#404040">
                        <set attributeName="fill" to="#808080" begin="arrowDown.mouseover" end="arrowDown.mouseout"/>
                  </use>
                  <path fill="none" stroke="white" stroke-width="1.5" d="M0,-3.0v7 M-2.5,-0.5L0,-3.0L2.5,-0.5"/>
                </g>
                <g id="arrowLeft" xlink:href="#dirArrow" transform="rotate(270) translate(-36 17)" onmousedown="handlePan(-1,0)">
                  <use xlink:href="#rim" fill="#404040">
                        <set attributeName="fill" to="#808080" begin="arrowLeft.mouseover" end="arrowLeft.mouseout"/>
                  </use>
                  <path fill="none" stroke="white" stroke-width="1.5" d="M0,-3.0v7 M-2.5,-0.5L0,-3.0L2.5,-0.5"/>
                </g>
        </g>
        <svg viewBox="0 0 15 15" width="100%" height="30px" preserveAspectRatio="xMaxYMin meet">
         <g id="arrow_out" transform="scale(0.3 0.3)">
          <a xlink:href="structx265_1_1MV_a018ff75610ce4789aa617555d70384c3_icgraph_org.svg" target="_base">
           <rect id="button" ry="5" rx="5" y="6" x="6" height="38" width="38"
                fill="#f2f5e9" fill-opacity="0.5" stroke="#606060" stroke-width="1.0"/>
           <path id="arrow"
             d="M 11.500037,31.436501 C 11.940474,20.09759 22.043105,11.32322 32.158766,21.979434 L 37.068811,17.246167 C 37.068811,17.246167 37.088388,32 37.088388,32 L 22.160133,31.978069 C 22.160133,31.978069 26.997745,27.140456 26.997745,27.140456 C 18.528582,18.264221 13.291696,25.230495 11.500037,31.436501 z"
             style="fill:#404040;"/>
          </a>
         </g>
        </svg>
</svg>
