<?xml version="1.0" encoding="UTF-8" standalone="no"?>
<!DOCTYPE svg PUBLIC "-//W3C//DTD SVG 1.1//EN"
 "http://www.w3.org/Graphics/SVG/1.1/DTD/svg11.dtd">
<!-- Generated by graphviz version 2.36.0 (20140111.2315)
 -->
<!-- Title: x265::HRDTiming Pages: 1 -->
<svg width="132pt" height="128pt"
 viewBox="0.00 0.00 132.00 128.00" xmlns="http://www.w3.org/2000/svg" xmlns:xlink="http://www.w3.org/1999/xlink">
<g id="graph0" class="graph" transform="scale(1 1) rotate(0) translate(4 124)">
<title>x265::HRDTiming</title>
<polygon fill="white" stroke="none" points="-4,4 -4,-124 128,-124 128,4 -4,4"/>
<!-- Node1 -->
<g id="node1" class="node"><title>Node1</title>
<polygon fill="#bfbfbf" stroke="black" points="-0.5,-0.5 -0.5,-19.5 94.5,-19.5 94.5,-0.5 -0.5,-0.5"/>
<text text-anchor="middle" x="47" y="-7.5" font-family="Helvetica,sans-Serif" font-size="10.00">x265::HRDTiming</text>
</g>
<!-- Node2 -->
<g id="node2" class="node"><title>Node2</title>
<polygon fill="white" stroke="#bfbfbf" points="24.5,-100.5 24.5,-119.5 69.5,-119.5 69.5,-100.5 24.5,-100.5"/>
<text text-anchor="middle" x="47" y="-107.5" font-family="Helvetica,sans-Serif" font-size="10.00">double</text>
</g>
<!-- Node2&#45;&gt;Node1 -->
<g id="edge1" class="edge"><title>Node2&#45;&gt;Node1</title>
<path fill="none" stroke="#9a32cd" stroke-dasharray="5,2" d="M47,-90.2203C47,-68.9514 47,-35.2197 47,-19.5374"/>
<polygon fill="#9a32cd" stroke="#9a32cd" points="43.5001,-90.3031 47,-100.303 50.5001,-90.3032 43.5001,-90.3031"/>
<text text-anchor="middle" x="85.5" y="-74" font-family="Helvetica,sans-Serif" font-size="10.00"> cpbFinalAT</text>
<text text-anchor="middle" x="85.5" y="-63" font-family="Helvetica,sans-Serif" font-size="10.00">cpbRemovalTime</text>
<text text-anchor="middle" x="85.5" y="-52" font-family="Helvetica,sans-Serif" font-size="10.00">cpbInitialAT</text>
<text text-anchor="middle" x="85.5" y="-41" font-family="Helvetica,sans-Serif" font-size="10.00">dpbOutputTime</text>
</g>
</g>
</svg>
