<?xml version="1.0" encoding="UTF-8" standalone="no"?>
<!DOCTYPE svg PUBLIC "-//W3C//DTD SVG 1.1//EN"
 "http://www.w3.org/Graphics/SVG/1.1/DTD/svg11.dtd">
<!-- Generated by graphviz version 2.36.0 (20140111.2315)
 -->
<!-- Title: DctConf Pages: 1 -->
<svg width="92pt" height="96pt"
 viewBox="0.00 0.00 92.00 96.00" xmlns="http://www.w3.org/2000/svg" xmlns:xlink="http://www.w3.org/1999/xlink">
<g id="graph0" class="graph" transform="scale(1 1) rotate(0) translate(4 92)">
<title>DctConf</title>
<polygon fill="white" stroke="none" points="-4,4 -4,-92 88,-92 88,4 -4,4"/>
<!-- Node1 -->
<g id="node1" class="node"><title>Node1</title>
<polygon fill="#bfbfbf" stroke="black" points="15.5,-0.5 15.5,-19.5 68.5,-19.5 68.5,-0.5 15.5,-0.5"/>
<text text-anchor="middle" x="42" y="-7.5" font-family="Helvetica,sans-Serif" font-size="10.00">DctConf</text>
</g>
<!-- Node2 -->
<g id="node2" class="node"><title>Node2</title>
<polygon fill="white" stroke="#bfbfbf" points="-0.5,-68.5 -0.5,-87.5 34.5,-87.5 34.5,-68.5 -0.5,-68.5"/>
<text text-anchor="middle" x="17" y="-75.5" font-family="Helvetica,sans-Serif" font-size="10.00">char</text>
</g>
<!-- Node2&#45;&gt;Node1 -->
<g id="edge1" class="edge"><title>Node2&#45;&gt;Node1</title>
<path fill="none" stroke="#9a32cd" stroke-dasharray="5,2" d="M14.8897,-58.209C14.8161,-51.6193 15.5136,-44.2956 18,-38 20.7645,-31.0001 26.2108,-24.63 31.2171,-19.8373"/>
<polygon fill="#9a32cd" stroke="#9a32cd" points="11.4045,-58.5499 15.5619,-68.295 18.389,-58.0843 11.4045,-58.5499"/>
<text text-anchor="middle" x="32" y="-41.5" font-family="Helvetica,sans-Serif" font-size="10.00"> name</text>
</g>
<!-- Node3 -->
<g id="node3" class="node"><title>Node3</title>
<polygon fill="white" stroke="#bfbfbf" points="53.5,-68.5 53.5,-87.5 82.5,-87.5 82.5,-68.5 53.5,-68.5"/>
<text text-anchor="middle" x="68" y="-75.5" font-family="Helvetica,sans-Serif" font-size="10.00">int</text>
</g>
<!-- Node3&#45;&gt;Node1 -->
<g id="edge2" class="edge"><title>Node3&#45;&gt;Node1</title>
<path fill="none" stroke="#9a32cd" stroke-dasharray="5,2" d="M60.8329,-58.8066C55.8369,-46.1244 49.3909,-29.7615 45.4829,-19.8411"/>
<polygon fill="#9a32cd" stroke="#9a32cd" points="57.6792,-60.3504 64.601,-68.3717 64.1921,-57.7847 57.6792,-60.3504"/>
<text text-anchor="middle" x="70.5" y="-41.5" font-family="Helvetica,sans-Serif" font-size="10.00"> width</text>
</g>
</g>
</svg>
