<?xml version="1.0" encoding="UTF-8" standalone="no"?>
<!DOCTYPE svg PUBLIC "-//W3C//DTD SVG 1.1//EN"
 "http://www.w3.org/Graphics/SVG/1.1/DTD/svg11.dtd">
<!-- Generated by graphviz version 2.36.0 (20140111.2315)
 -->
<!-- Title: x265::SAO::SAOContexts Pages: 1 -->
<!--zoomable 376 -->
<svg id="main" version="1.1" xmlns="http://www.w3.org/2000/svg" xmlns:xlink="http://www.w3.org/1999/xlink" xml:space="preserve" onload="init(evt)">
<style type="text/css"><![CDATA[
.edge:hover path { stroke: red; }
.edge:hover polygon { stroke: red; fill: red; }
]]></style>
<script type="text/javascript"><![CDATA[
var edges = document.getElementsByTagName('g');
if (edges && edges.length) {
  for (var i=0;i<edges.length;i++) {
    if (edges[i].id.substr(0,4)=='edge') {
      edges[i].setAttribute('class','edge');
    }
  }
}
]]></script>
        <defs>
                <circle id="rim" cx="0" cy="0" r="7"/>
                <circle id="rim2" cx="0" cy="0" r="3.5"/>
                <g id="zoomPlus">
                        <use xlink:href="#rim" fill="#404040">
                                <set attributeName="fill" to="#808080" begin="zoomplus.mouseover" end="zoomplus.mouseout"/>
                        </use>
                        <path d="M-4,0h8M0,-4v8" fill="none" stroke="white" stroke-width="1.5" pointer-events="none"/>
                </g>
                <g id="zoomMin">
                        <use xlink:href="#rim" fill="#404040">
                                <set attributeName="fill" to="#808080" begin="zoomminus.mouseover" end="zoomminus.mouseout"/>
                        </use>
                        <path d="M-4,0h8" fill="none" stroke="white" stroke-width="1.5" pointer-events="none"/>
                </g>
                <g id="dirArrow">
                        <path fill="none" stroke="white" stroke-width="1.5" d="M0,-3.0v7 M-2.5,-0.5L0,-3.0L2.5,-0.5"/>
                </g>
               <g id="resetDef">
                       <use xlink:href="#rim2" fill="#404040">
                               <set attributeName="fill" to="#808080" begin="reset.mouseover" end="reset.mouseout"/>
                       </use>
               </g>
        </defs>

<script type="text/javascript">
var viewWidth = 594;
var viewHeight = 376;
var sectionId = 'dynsection-0';
</script>
<script xlink:href="svgpan.js"/>
<svg id="graph" class="graph">
<g id="viewport">
<title>x265::SAO::SAOContexts</title>
<polygon fill="white" stroke="none" points="-4,4 -4,-372 590,-372 590,4 -4,4"/>
<!-- Node1 -->
<g id="node1" class="node"><title>Node1</title>
<polygon fill="#bfbfbf" stroke="black" points="223.5,-0.5 223.5,-19.5 354.5,-19.5 354.5,-0.5 223.5,-0.5"/>
<text text-anchor="middle" x="289" y="-7.5" font-family="Helvetica,sans-Serif" font-size="10.00">x265::SAO::SAOContexts</text>
</g>
<!-- Node2 -->
<g id="node2" class="node"><title>Node2</title>
<g id="a_node2"><a xlink:href="classx265_1_1Entropy.html" target="_top" xlink:title="x265::Entropy">
<polygon fill="white" stroke="black" points="250.5,-90.5 250.5,-109.5 327.5,-109.5 327.5,-90.5 250.5,-90.5"/>
<text text-anchor="middle" x="289" y="-97.5" font-family="Helvetica,sans-Serif" font-size="10.00">x265::Entropy</text>
</a>
</g>
</g>
<!-- Node2&#45;&gt;Node1 -->
<g id="edge1" class="edge"><title>Node2&#45;&gt;Node1</title>
<path fill="none" stroke="#9a32cd" stroke-dasharray="5,2" d="M289,-79.9784C289,-61.3096 289,-33.6696 289,-19.7241"/>
<polygon fill="#9a32cd" stroke="#9a32cd" points="285.5,-80.2405 289,-90.2405 292.5,-80.2405 285.5,-80.2405"/>
<text text-anchor="middle" x="300" y="-63.5" font-family="Helvetica,sans-Serif" font-size="10.00"> next</text>
<text text-anchor="middle" x="300" y="-52.5" font-family="Helvetica,sans-Serif" font-size="10.00">temp</text>
<text text-anchor="middle" x="300" y="-41.5" font-family="Helvetica,sans-Serif" font-size="10.00">cur</text>
</g>
<!-- Node3 -->
<g id="node3" class="node"><title>Node3</title>
<g id="a_node3"><a xlink:href="classx265_1_1SyntaxElementWriter.html" target="_top" xlink:title="x265::SyntaxElementWriter">
<polygon fill="white" stroke="black" points="-0.5,-186.5 -0.5,-205.5 136.5,-205.5 136.5,-186.5 -0.5,-186.5"/>
<text text-anchor="middle" x="68" y="-193.5" font-family="Helvetica,sans-Serif" font-size="10.00">x265::SyntaxElementWriter</text>
</a>
</g>
</g>
<!-- Node3&#45;&gt;Node2 -->
<g id="edge2" class="edge"><title>Node3&#45;&gt;Node2</title>
<path fill="none" stroke="midnightblue" d="M90.9054,-181.219C116.016,-166.541 157.826,-143.353 196,-128 214.562,-120.535 235.962,-114.176 253.552,-109.507"/>
<polygon fill="midnightblue" stroke="midnightblue" points="88.973,-178.295 82.1414,-186.393 92.532,-184.323 88.973,-178.295"/>
</g>
<!-- Node4 -->
<g id="node4" class="node"><title>Node4</title>
<g id="a_node4"><a xlink:href="classx265_1_1BitInterface.html" target="_top" xlink:title="x265::BitInterface">
<polygon fill="white" stroke="black" points="21,-348.5 21,-367.5 115,-367.5 115,-348.5 21,-348.5"/>
<text text-anchor="middle" x="68" y="-355.5" font-family="Helvetica,sans-Serif" font-size="10.00">x265::BitInterface</text>
</a>
</g>
</g>
<!-- Node4&#45;&gt;Node3 -->
<g id="edge3" class="edge"><title>Node4&#45;&gt;Node3</title>
<path fill="none" stroke="#9a32cd" stroke-dasharray="5,2" d="M68,-338.221C68,-303.53 68,-230.659 68,-205.645"/>
<polygon fill="#9a32cd" stroke="#9a32cd" points="64.5001,-338.398 68,-348.398 71.5001,-338.398 64.5001,-338.398"/>
<text text-anchor="middle" x="85" y="-283.5" font-family="Helvetica,sans-Serif" font-size="10.00"> m_bitIf</text>
</g>
<!-- Node5 -->
<g id="node5" class="node"><title>Node5</title>
<polygon fill="white" stroke="#bfbfbf" points="154.5,-186.5 154.5,-205.5 231.5,-205.5 231.5,-186.5 154.5,-186.5"/>
<text text-anchor="middle" x="193" y="-193.5" font-family="Helvetica,sans-Serif" font-size="10.00">unsigned char</text>
</g>
<!-- Node5&#45;&gt;Node2 -->
<g id="edge4" class="edge"><title>Node5&#45;&gt;Node2</title>
<path fill="none" stroke="#9a32cd" stroke-dasharray="5,2" d="M193.738,-176.312C195.291,-161.45 199.72,-141.052 212,-128 222.095,-117.27 236.696,-110.802 250.476,-106.904"/>
<polygon fill="#9a32cd" stroke="#9a32cd" points="190.24,-176.164 193.028,-186.385 197.222,-176.656 190.24,-176.164"/>
<text text-anchor="middle" x="248.5" y="-136.5" font-family="Helvetica,sans-Serif" font-size="10.00"> m_contextState</text>
</g>
<!-- Node6 -->
<g id="node6" class="node"><title>Node6</title>
<polygon fill="white" stroke="#bfbfbf" points="265,-186.5 265,-205.5 313,-205.5 313,-186.5 265,-186.5"/>
<text text-anchor="middle" x="289" y="-193.5" font-family="Helvetica,sans-Serif" font-size="10.00">__int64</text>
</g>
<!-- Node6&#45;&gt;Node2 -->
<g id="edge5" class="edge"><title>Node6&#45;&gt;Node2</title>
<path fill="none" stroke="#9a32cd" stroke-dasharray="5,2" d="M289,-176.143C289,-155.915 289,-124.678 289,-109.654"/>
<polygon fill="#9a32cd" stroke="#9a32cd" points="285.5,-176.325 289,-186.325 292.5,-176.325 285.5,-176.325"/>
<text text-anchor="middle" x="314.5" y="-142" font-family="Helvetica,sans-Serif" font-size="10.00"> m_fracBits</text>
<text text-anchor="middle" x="314.5" y="-131" font-family="Helvetica,sans-Serif" font-size="10.00">m_pad</text>
</g>
<!-- Node7 -->
<g id="node7" class="node"><title>Node7</title>
<g id="a_node7"><a xlink:href="structx265_1_1EstBitsSbac.html" target="_top" xlink:title="x265::EstBitsSbac">
<polygon fill="white" stroke="black" points="468,-186.5 468,-205.5 566,-205.5 566,-186.5 468,-186.5"/>
<text text-anchor="middle" x="517" y="-193.5" font-family="Helvetica,sans-Serif" font-size="10.00">x265::EstBitsSbac</text>
</a>
</g>
</g>
<!-- Node7&#45;&gt;Node2 -->
<g id="edge6" class="edge"><title>Node7&#45;&gt;Node2</title>
<path fill="none" stroke="#9a32cd" stroke-dasharray="5,2" d="M490.292,-181.936C460.917,-167.798 412.145,-144.998 369,-128 351.816,-121.23 332.167,-114.583 316.643,-109.579"/>
<polygon fill="#9a32cd" stroke="#9a32cd" points="488.948,-185.174 499.475,-186.378 491.997,-178.873 488.948,-185.174"/>
<text text-anchor="middle" x="454" y="-136.5" font-family="Helvetica,sans-Serif" font-size="10.00"> m_estBitsSbac</text>
</g>
<!-- Node8 -->
<g id="node8" class="node"><title>Node8</title>
<polygon fill="white" stroke="#bfbfbf" points="356.5,-348.5 356.5,-367.5 385.5,-367.5 385.5,-348.5 356.5,-348.5"/>
<text text-anchor="middle" x="371" y="-355.5" font-family="Helvetica,sans-Serif" font-size="10.00">int</text>
</g>
<!-- Node8&#45;&gt;Node2 -->
<g id="edge8" class="edge"><title>Node8&#45;&gt;Node2</title>
<path fill="none" stroke="#9a32cd" stroke-dasharray="5,2" d="M370.726,-338.086C369.682,-289.513 364.697,-161.828 341,-128 335.164,-119.669 325.952,-113.726 316.894,-109.578"/>
<polygon fill="#9a32cd" stroke="#9a32cd" points="367.232,-338.455 370.912,-348.391 374.231,-338.329 367.232,-338.455"/>
<text text-anchor="middle" x="411.5" y="-215.5" font-family="Helvetica,sans-Serif" font-size="10.00"> m_bufferedByte</text>
<text text-anchor="middle" x="411.5" y="-204.5" font-family="Helvetica,sans-Serif" font-size="10.00">m_bitsLeft</text>
<text text-anchor="middle" x="411.5" y="-193.5" font-family="Helvetica,sans-Serif" font-size="10.00">m_numBufferedBytes</text>
<text text-anchor="middle" x="411.5" y="-182.5" font-family="Helvetica,sans-Serif" font-size="10.00">m_low</text>
<text text-anchor="middle" x="411.5" y="-171.5" font-family="Helvetica,sans-Serif" font-size="10.00">m_range</text>
</g>
<!-- Node8&#45;&gt;Node7 -->
<g id="edge7" class="edge"><title>Node8&#45;&gt;Node7</title>
<path fill="none" stroke="#9a32cd" stroke-dasharray="5,2" d="M385.731,-340.856C416.293,-307.364 485.691,-231.311 509.112,-205.645"/>
<polygon fill="#9a32cd" stroke="#9a32cd" points="383.005,-338.652 378.85,-348.398 388.176,-343.37 383.005,-338.652"/>
<text text-anchor="middle" x="530" y="-322" font-family="Helvetica,sans-Serif" font-size="10.00"> lastYBits</text>
<text text-anchor="middle" x="530" y="-311" font-family="Helvetica,sans-Serif" font-size="10.00">blockRootCbpBits</text>
<text text-anchor="middle" x="530" y="-300" font-family="Helvetica,sans-Serif" font-size="10.00">significantCoeffGroupBits</text>
<text text-anchor="middle" x="530" y="-289" font-family="Helvetica,sans-Serif" font-size="10.00">greaterOneBits</text>
<text text-anchor="middle" x="530" y="-278" font-family="Helvetica,sans-Serif" font-size="10.00">significantBits</text>
<text text-anchor="middle" x="530" y="-267" font-family="Helvetica,sans-Serif" font-size="10.00">blockCbpBits</text>
<text text-anchor="middle" x="530" y="-256" font-family="Helvetica,sans-Serif" font-size="10.00">levelAbsBits</text>
<text text-anchor="middle" x="530" y="-245" font-family="Helvetica,sans-Serif" font-size="10.00">lastXBits</text>
</g>
</g>
</svg>
        <g id="navigator" transform="translate(0 0)" fill="#404254">
                <rect fill="#f2f5e9" fill-opacity="0.5" stroke="#606060" stroke-width=".5" x="0" y="0" width="60" height="60"/>
                <use id="zoomplus" xlink:href="#zoomPlus" x="17" y="9" onmousedown="handleZoom(evt,'in')"/>
                <use id="zoomminus" xlink:href="#zoomMin" x="42" y="9" onmousedown="handleZoom(evt,'out')"/>
                <use id="reset" xlink:href="#resetDef" x="30" y="36" onmousedown="handleReset()"/>
                <g id="arrowUp" xlink:href="#dirArrow" transform="translate(30 24)" onmousedown="handlePan(0,-1)">
                  <use xlink:href="#rim" fill="#404040">
                        <set attributeName="fill" to="#808080" begin="arrowUp.mouseover" end="arrowUp.mouseout"/>
                  </use>
                  <path fill="none" stroke="white" stroke-width="1.5" d="M0,-3.0v7 M-2.5,-0.5L0,-3.0L2.5,-0.5"/>
                </g>
                <g id="arrowRight" xlink:href="#dirArrow" transform="rotate(90) translate(36 -43)" onmousedown="handlePan(1,0)">
                  <use xlink:href="#rim" fill="#404040">
                        <set attributeName="fill" to="#808080" begin="arrowRight.mouseover" end="arrowRight.mouseout"/>
                  </use>
                  <path fill="none" stroke="white" stroke-width="1.5" d="M0,-3.0v7 M-2.5,-0.5L0,-3.0L2.5,-0.5"/>
                </g>
                <g id="arrowDown" xlink:href="#dirArrow" transform="rotate(180) translate(-30 -48)" onmousedown="handlePan(0,1)">
                  <use xlink:href="#rim" fill="#404040">
                        <set attributeName="fill" to="#808080" begin="arrowDown.mouseover" end="arrowDown.mouseout"/>
                  </use>
                  <path fill="none" stroke="white" stroke-width="1.5" d="M0,-3.0v7 M-2.5,-0.5L0,-3.0L2.5,-0.5"/>
                </g>
                <g id="arrowLeft" xlink:href="#dirArrow" transform="rotate(270) translate(-36 17)" onmousedown="handlePan(-1,0)">
                  <use xlink:href="#rim" fill="#404040">
                        <set attributeName="fill" to="#808080" begin="arrowLeft.mouseover" end="arrowLeft.mouseout"/>
                  </use>
                  <path fill="none" stroke="white" stroke-width="1.5" d="M0,-3.0v7 M-2.5,-0.5L0,-3.0L2.5,-0.5"/>
                </g>
        </g>
        <svg viewBox="0 0 15 15" width="100%" height="30px" preserveAspectRatio="xMaxYMin meet">
         <g id="arrow_out" transform="scale(0.3 0.3)">
          <a xlink:href="structx265_1_1SAO_1_1SAOContexts__coll__graph_org.svg" target="_base">
           <rect id="button" ry="5" rx="5" y="6" x="6" height="38" width="38"
                fill="#f2f5e9" fill-opacity="0.5" stroke="#606060" stroke-width="1.0"/>
           <path id="arrow"
             d="M 11.500037,31.436501 C 11.940474,20.09759 22.043105,11.32322 32.158766,21.979434 L 37.068811,17.246167 C 37.068811,17.246167 37.088388,32 37.088388,32 L 22.160133,31.978069 C 22.160133,31.978069 26.997745,27.140456 26.997745,27.140456 C 18.528582,18.264221 13.291696,25.230495 11.500037,31.436501 z"
             style="fill:#404040;"/>
          </a>
         </g>
        </svg>
</svg>
