<?xml version="1.0" encoding="UTF-8" standalone="no"?>
<!DOCTYPE svg PUBLIC "-//W3C//DTD SVG 1.1//EN"
 "http://www.w3.org/Graphics/SVG/1.1/DTD/svg11.dtd">
<!-- Generated by graphviz version 2.36.0 (20140111.2315)
 -->
<!-- Title: x265::CUDataMemPool Pages: 1 -->
<svg width="280pt" height="186pt"
 viewBox="0.00 0.00 280.00 186.00" xmlns="http://www.w3.org/2000/svg" xmlns:xlink="http://www.w3.org/1999/xlink">
<g id="graph0" class="graph" transform="scale(1 1) rotate(0) translate(4 182)">
<title>x265::CUDataMemPool</title>
<polygon fill="white" stroke="none" points="-4,4 -4,-182 276,-182 276,4 -4,4"/>
<!-- Node1 -->
<g id="node1" class="node"><title>Node1</title>
<polygon fill="#bfbfbf" stroke="black" points="68.5,-0.5 68.5,-19.5 189.5,-19.5 189.5,-0.5 68.5,-0.5"/>
<text text-anchor="middle" x="129" y="-7.5" font-family="Helvetica,sans-Serif" font-size="10.00">x265::CUDataMemPool</text>
</g>
<!-- Node2 -->
<g id="node2" class="node"><title>Node2</title>
<polygon fill="white" stroke="#bfbfbf" points="-0.5,-68.5 -0.5,-87.5 52.5,-87.5 52.5,-68.5 -0.5,-68.5"/>
<text text-anchor="middle" x="26" y="-75.5" font-family="Helvetica,sans-Serif" font-size="10.00">coeff_t *</text>
</g>
<!-- Node2&#45;&gt;Node1 -->
<g id="edge1" class="edge"><title>Node2&#45;&gt;Node1</title>
<path fill="none" stroke="#9a32cd" stroke-dasharray="5,2" d="M31.3736,-58.731C34.343,-51.4064 38.7338,-43.4322 45,-38 54.8382,-29.4712 67.4038,-23.6294 79.801,-19.6306"/>
<polygon fill="#9a32cd" stroke="#9a32cd" points="28.0184,-57.7248 28.0749,-68.3195 34.6377,-60.002 28.0184,-57.7248"/>
<text text-anchor="middle" x="85" y="-41.5" font-family="Helvetica,sans-Serif" font-size="10.00"> trCoeffMemBlock</text>
</g>
<!-- Node3 -->
<g id="node3" class="node"><title>Node3</title>
<polygon fill="white" stroke="#bfbfbf" points="102.5,-68.5 102.5,-87.5 155.5,-87.5 155.5,-68.5 102.5,-68.5"/>
<text text-anchor="middle" x="129" y="-75.5" font-family="Helvetica,sans-Serif" font-size="10.00">uint8_t *</text>
</g>
<!-- Node3&#45;&gt;Node1 -->
<g id="edge2" class="edge"><title>Node3&#45;&gt;Node1</title>
<path fill="none" stroke="#9a32cd" stroke-dasharray="5,2" d="M129,-58.0413C129,-45.4724 129,-29.5631 129,-19.8411"/>
<polygon fill="#9a32cd" stroke="#9a32cd" points="125.5,-58.3716 129,-68.3717 132.5,-58.3717 125.5,-58.3716"/>
<text text-anchor="middle" x="163.5" y="-41.5" font-family="Helvetica,sans-Serif" font-size="10.00"> charMemBlock</text>
</g>
<!-- Node4 -->
<g id="node4" class="node"><title>Node4</title>
<g id="a_node4"><a xlink:href="structx265_1_1MV.html" target="_top" xlink:title="x265::MV">
<polygon fill="white" stroke="black" points="191.5,-68.5 191.5,-87.5 250.5,-87.5 250.5,-68.5 191.5,-68.5"/>
<text text-anchor="middle" x="221" y="-75.5" font-family="Helvetica,sans-Serif" font-size="10.00">x265::MV</text>
</a>
</g>
</g>
<!-- Node4&#45;&gt;Node1 -->
<g id="edge3" class="edge"><title>Node4&#45;&gt;Node1</title>
<path fill="none" stroke="#9a32cd" stroke-dasharray="5,2" d="M214.141,-59.1426C210.566,-51.7781 205.551,-43.6611 199,-38 189.342,-29.6536 176.82,-23.7407 165.042,-19.6213"/>
<polygon fill="#9a32cd" stroke="#9a32cd" points="210.965,-60.6162 218.134,-68.4174 217.395,-57.8484 210.965,-60.6162"/>
<text text-anchor="middle" x="240" y="-41.5" font-family="Helvetica,sans-Serif" font-size="10.00"> mvMemBlock</text>
</g>
<!-- Node5 -->
<g id="node5" class="node"><title>Node5</title>
<polygon fill="white" stroke="#bfbfbf" points="182.5,-158.5 182.5,-177.5 211.5,-177.5 211.5,-158.5 182.5,-158.5"/>
<text text-anchor="middle" x="197" y="-165.5" font-family="Helvetica,sans-Serif" font-size="10.00"> </text>
</g>
<!-- Node5&#45;&gt;Node4 -->
<g id="edge4" class="edge"><title>Node5&#45;&gt;Node4</title>
<path fill="none" stroke="#9a32cd" stroke-dasharray="5,2" d="M197.518,-148.104C198.327,-135.821 200.295,-119.618 205,-106 207.278,-99.408 211.278,-92.658 214.708,-87.556"/>
<polygon fill="#9a32cd" stroke="#9a32cd" points="194.005,-148.318 197.046,-158.467 200.998,-148.636 194.005,-148.318"/>
<text text-anchor="middle" x="214.5" y="-120.5" font-family="Helvetica,sans-Serif" font-size="10.00"> @9</text>
</g>
<!-- Node6 -->
<g id="node6" class="node"><title>Node6</title>
<polygon fill="white" stroke="#bfbfbf" points="229.5,-158.5 229.5,-177.5 258.5,-177.5 258.5,-158.5 229.5,-158.5"/>
<text text-anchor="middle" x="244" y="-165.5" font-family="Helvetica,sans-Serif" font-size="10.00">int</text>
</g>
<!-- Node6&#45;&gt;Node4 -->
<g id="edge5" class="edge"><title>Node6&#45;&gt;Node4</title>
<path fill="none" stroke="#9a32cd" stroke-dasharray="5,2" d="M239.166,-148.504C234.286,-129.832 226.959,-101.801 223.28,-87.7241"/>
<polygon fill="#9a32cd" stroke="#9a32cd" points="235.796,-149.451 241.711,-158.241 242.568,-147.68 235.796,-149.451"/>
<text text-anchor="middle" x="247" y="-131.5" font-family="Helvetica,sans-Serif" font-size="10.00"> x</text>
<text text-anchor="middle" x="247" y="-120.5" font-family="Helvetica,sans-Serif" font-size="10.00">y</text>
<text text-anchor="middle" x="247" y="-109.5" font-family="Helvetica,sans-Serif" font-size="10.00">word</text>
</g>
</g>
</svg>
