<?xml version="1.0" encoding="UTF-8" standalone="no"?>
<!DOCTYPE svg PUBLIC "-//W3C//DTD SVG 1.1//EN"
 "http://www.w3.org/Graphics/SVG/1.1/DTD/svg11.dtd">
<!-- Generated by graphviz version 2.36.0 (20140111.2315)
 -->
<!-- Title: x265::VUI Pages: 1 -->
<svg width="681pt" height="354pt"
 viewBox="0.00 0.00 681.16 354.00" xmlns="http://www.w3.org/2000/svg" xmlns:xlink="http://www.w3.org/1999/xlink">
<g id="graph0" class="graph" transform="scale(1 1) rotate(0) translate(4 350)">
<title>x265::VUI</title>
<polygon fill="white" stroke="none" points="-4,4 -4,-350 677.159,-350 677.159,4 -4,4"/>
<!-- Node1 -->
<g id="node1" class="node"><title>Node1</title>
<polygon fill="#bfbfbf" stroke="black" points="296.659,-0.5 296.659,-19.5 357.659,-19.5 357.659,-0.5 296.659,-0.5"/>
<text text-anchor="middle" x="327.159" y="-7.5" font-family="Helvetica,sans-Serif" font-size="10.00">x265::VUI</text>
</g>
<!-- Node2 -->
<g id="node2" class="node"><title>Node2</title>
<polygon fill="white" stroke="#bfbfbf" points="114.659,-326.5 114.659,-345.5 143.659,-345.5 143.659,-326.5 114.659,-326.5"/>
<text text-anchor="middle" x="129.159" y="-333.5" font-family="Helvetica,sans-Serif" font-size="10.00">int</text>
</g>
<!-- Node2&#45;&gt;Node1 -->
<g id="edge1" class="edge"><title>Node2&#45;&gt;Node1</title>
<path fill="none" stroke="#9a32cd" stroke-dasharray="5,2" d="M104.563,-330.001C91.4121,-326.112 75.9559,-319.39 66.1595,-308 -3.77262,-226.694 -26.8598,-150.913 41.1595,-68 73.2309,-28.906 229.378,-16.1169 296.449,-12.3841"/>
<polygon fill="#9a32cd" stroke="#9a32cd" points="103.907,-333.446 114.464,-332.547 105.65,-326.666 103.907,-333.446"/>
<text text-anchor="middle" x="113.159" y="-187" font-family="Helvetica,sans-Serif" font-size="10.00"> chromaSampleLocTypeTopField</text>
<text text-anchor="middle" x="113.159" y="-176" font-family="Helvetica,sans-Serif" font-size="10.00">videoFormat</text>
<text text-anchor="middle" x="113.159" y="-165" font-family="Helvetica,sans-Serif" font-size="10.00">matrixCoefficients</text>
<text text-anchor="middle" x="113.159" y="-154" font-family="Helvetica,sans-Serif" font-size="10.00">colourPrimaries</text>
<text text-anchor="middle" x="113.159" y="-143" font-family="Helvetica,sans-Serif" font-size="10.00">sarHeight</text>
<text text-anchor="middle" x="113.159" y="-132" font-family="Helvetica,sans-Serif" font-size="10.00">aspectRatioIdc</text>
<text text-anchor="middle" x="113.159" y="-121" font-family="Helvetica,sans-Serif" font-size="10.00">transferCharacteristics</text>
<text text-anchor="start" x="41.1595" y="-110" font-family="Helvetica,sans-Serif" font-size="10.00">chromaSampleLocTypeBottom</text>
<text text-anchor="middle" x="113.159" y="-99" font-family="Helvetica,sans-Serif" font-size="10.00">Field</text>
<text text-anchor="middle" x="113.159" y="-88" font-family="Helvetica,sans-Serif" font-size="10.00">sarWidth</text>
</g>
<!-- Node4 -->
<g id="node4" class="node"><title>Node4</title>
<g id="a_node4"><a xlink:href="structx265_1_1TimingInfo.html" target="_top" xlink:title="x265::TimingInfo">
<polygon fill="white" stroke="black" points="194.659,-130.5 194.659,-149.5 283.659,-149.5 283.659,-130.5 194.659,-130.5"/>
<text text-anchor="middle" x="239.159" y="-137.5" font-family="Helvetica,sans-Serif" font-size="10.00">x265::TimingInfo</text>
</a>
</g>
</g>
<!-- Node2&#45;&gt;Node4 -->
<g id="edge4" class="edge"><title>Node2&#45;&gt;Node4</title>
<path fill="none" stroke="#9a32cd" stroke-dasharray="5,2" d="M105.224,-326.407C97.0503,-322.19 88.8055,-316.206 84.1595,-308 67.0792,-277.833 62.0201,-256.676 84.1595,-230 111.883,-196.595 142.736,-233.998 180.159,-212 206.411,-196.569 226.195,-164.934 234.651,-149.647"/>
<polygon fill="#9a32cd" stroke="#9a32cd" points="104.009,-329.697 114.568,-330.574 106.86,-323.304 104.009,-329.697"/>
<text text-anchor="middle" x="119.159" y="-272" font-family="Helvetica,sans-Serif" font-size="10.00"> timeScale</text>
<text text-anchor="middle" x="119.159" y="-261" font-family="Helvetica,sans-Serif" font-size="10.00">numUnitsInTick</text>
</g>
<!-- Node5 -->
<g id="node5" class="node"><title>Node5</title>
<g id="a_node5"><a xlink:href="structx265_1_1HRDInfo.html" target="_top" xlink:title="x265::HRDInfo">
<polygon fill="white" stroke="black" points="301.659,-130.5 301.659,-149.5 384.659,-149.5 384.659,-130.5 301.659,-130.5"/>
<text text-anchor="middle" x="343.159" y="-137.5" font-family="Helvetica,sans-Serif" font-size="10.00">x265::HRDInfo</text>
</a>
</g>
</g>
<!-- Node2&#45;&gt;Node5 -->
<g id="edge6" class="edge"><title>Node2&#45;&gt;Node5</title>
<path fill="none" stroke="#9a32cd" stroke-dasharray="5,2" d="M146.107,-319.072C149.1,-315.641 151.958,-311.874 154.159,-308 172.019,-276.579 149.979,-253.822 177.159,-230 216.065,-195.901 248.098,-239.11 292.159,-212 316.719,-196.889 332.916,-165.099 339.635,-149.711"/>
<polygon fill="#9a32cd" stroke="#9a32cd" points="143.515,-316.719 139.123,-326.36 148.569,-321.562 143.515,-316.719"/>
<text text-anchor="middle" x="244.659" y="-299.5" font-family="Helvetica,sans-Serif" font-size="10.00"> cpbSizeValue</text>
<text text-anchor="middle" x="244.659" y="-288.5" font-family="Helvetica,sans-Serif" font-size="10.00">bitRateValue</text>
<text text-anchor="middle" x="244.659" y="-277.5" font-family="Helvetica,sans-Serif" font-size="10.00">dpbOutputDelayLength</text>
<text text-anchor="middle" x="244.659" y="-266.5" font-family="Helvetica,sans-Serif" font-size="10.00">cpbSizeScale</text>
<text text-anchor="middle" x="244.659" y="-255.5" font-family="Helvetica,sans-Serif" font-size="10.00">cpbRemovalDelayLength</text>
<text text-anchor="middle" x="244.659" y="-244.5" font-family="Helvetica,sans-Serif" font-size="10.00">bitRateScale</text>
<text text-anchor="middle" x="244.659" y="-233.5" font-family="Helvetica,sans-Serif" font-size="10.00">initialCpbRemovalDelayLength</text>
</g>
<!-- Node6 -->
<g id="node6" class="node"><title>Node6</title>
<g id="a_node6"><a xlink:href="structx265_1_1Window.html" target="_top" xlink:title="x265::Window">
<polygon fill="white" stroke="black" points="402.659,-130.5 402.659,-149.5 481.659,-149.5 481.659,-130.5 402.659,-130.5"/>
<text text-anchor="middle" x="442.159" y="-137.5" font-family="Helvetica,sans-Serif" font-size="10.00">x265::Window</text>
</a>
</g>
</g>
<!-- Node2&#45;&gt;Node6 -->
<g id="edge9" class="edge"><title>Node2&#45;&gt;Node6</title>
<path fill="none" stroke="#9a32cd" stroke-dasharray="5,2" d="M153.976,-334.663C198.507,-333.536 289.46,-328.693 312.159,-308 338.528,-283.963 306.486,-255.774 331.159,-230 351.001,-209.273 369.884,-228.78 393.159,-212 415.999,-195.534 431.719,-164.962 438.459,-149.882"/>
<polygon fill="#9a32cd" stroke="#9a32cd" points="153.649,-331.169 143.724,-334.877 153.795,-338.168 153.649,-331.169"/>
<text text-anchor="middle" x="360.159" y="-283" font-family="Helvetica,sans-Serif" font-size="10.00"> leftOffset</text>
<text text-anchor="middle" x="360.159" y="-272" font-family="Helvetica,sans-Serif" font-size="10.00">bottomOffset</text>
<text text-anchor="middle" x="360.159" y="-261" font-family="Helvetica,sans-Serif" font-size="10.00">rightOffset</text>
<text text-anchor="middle" x="360.159" y="-250" font-family="Helvetica,sans-Serif" font-size="10.00">topOffset</text>
</g>
<!-- Node3 -->
<g id="node3" class="node"><title>Node3</title>
<polygon fill="white" stroke="#bfbfbf" points="456.659,-326.5 456.659,-345.5 491.659,-345.5 491.659,-326.5 456.659,-326.5"/>
<text text-anchor="middle" x="474.159" y="-333.5" font-family="Helvetica,sans-Serif" font-size="10.00">bool</text>
</g>
<!-- Node3&#45;&gt;Node1 -->
<g id="edge2" class="edge"><title>Node3&#45;&gt;Node1</title>
<path fill="none" stroke="#9a32cd" stroke-dasharray="5,2" d="M501.16,-324.27C507.905,-320.224 514.308,-314.882 518.159,-308 544.41,-261.093 565.222,-98.3174 511.159,-38 491.334,-15.8809 404.953,-11.6098 357.932,-10.9569"/>
<polygon fill="#9a32cd" stroke="#9a32cd" points="499.246,-321.319 491.958,-329.008 502.451,-327.542 499.246,-321.319"/>
<text text-anchor="middle" x="608.659" y="-203.5" font-family="Helvetica,sans-Serif" font-size="10.00"> fieldSeqFlag</text>
<text text-anchor="start" x="544.159" y="-192.5" font-family="Helvetica,sans-Serif" font-size="10.00">videoSignalTypePresent</text>
<text text-anchor="middle" x="608.659" y="-181.5" font-family="Helvetica,sans-Serif" font-size="10.00">Flag</text>
<text text-anchor="start" x="544.159" y="-170.5" font-family="Helvetica,sans-Serif" font-size="10.00">aspectRatioInfoPresent</text>
<text text-anchor="middle" x="608.659" y="-159.5" font-family="Helvetica,sans-Serif" font-size="10.00">Flag</text>
<text text-anchor="middle" x="608.659" y="-148.5" font-family="Helvetica,sans-Serif" font-size="10.00">videoFullRangeFlag</text>
<text text-anchor="middle" x="608.659" y="-137.5" font-family="Helvetica,sans-Serif" font-size="10.00">chromaLocInfoPresentFlag</text>
<text text-anchor="middle" x="608.659" y="-126.5" font-family="Helvetica,sans-Serif" font-size="10.00">frameFieldInfoPresentFlag</text>
<text text-anchor="middle" x="608.659" y="-115.5" font-family="Helvetica,sans-Serif" font-size="10.00">colourDescriptionPresentFlag</text>
<text text-anchor="middle" x="608.659" y="-104.5" font-family="Helvetica,sans-Serif" font-size="10.00">hrdParametersPresentFlag</text>
<text text-anchor="middle" x="608.659" y="-93.5" font-family="Helvetica,sans-Serif" font-size="10.00">overscanAppropriateFlag</text>
<text text-anchor="middle" x="608.659" y="-82.5" font-family="Helvetica,sans-Serif" font-size="10.00">overscanInfoPresentFlag</text>
<text text-anchor="middle" x="608.659" y="-71.5" font-family="Helvetica,sans-Serif" font-size="10.00">...</text>
</g>
<!-- Node3&#45;&gt;Node5 -->
<g id="edge7" class="edge"><title>Node3&#45;&gt;Node5</title>
<path fill="none" stroke="#9a32cd" stroke-dasharray="5,2" d="M446.99,-327.046C436.734,-322.843 425.728,-316.702 418.159,-308 394.269,-280.532 407.704,-263.372 393.159,-230 379.706,-199.131 358.68,-165.058 348.733,-149.541"/>
<polygon fill="#9a32cd" stroke="#9a32cd" points="445.863,-330.36 456.457,-330.501 448.263,-323.784 445.863,-330.36"/>
<text text-anchor="middle" x="436.159" y="-266.5" font-family="Helvetica,sans-Serif" font-size="10.00"> cbrFlag</text>
</g>
<!-- Node3&#45;&gt;Node6 -->
<g id="edge10" class="edge"><title>Node3&#45;&gt;Node6</title>
<path fill="none" stroke="#9a32cd" stroke-dasharray="5,2" d="M471.108,-316.5C464.392,-275.783 448.538,-179.672 443.632,-149.93"/>
<polygon fill="#9a32cd" stroke="#9a32cd" points="467.662,-317.117 472.743,-326.414 474.569,-315.977 467.662,-317.117"/>
<text text-anchor="middle" x="492.159" y="-266.5" font-family="Helvetica,sans-Serif" font-size="10.00"> bEnabled</text>
</g>
<!-- Node4&#45;&gt;Node1 -->
<g id="edge3" class="edge"><title>Node4&#45;&gt;Node1</title>
<path fill="none" stroke="#9a32cd" stroke-dasharray="5,2" d="M242.334,-120.403C246.905,-98.4779 257.208,-61.9926 278.159,-38 285.123,-30.0255 295.04,-23.9469 304.133,-19.5955"/>
<polygon fill="#9a32cd" stroke="#9a32cd" points="238.863,-119.922 240.44,-130.399 245.74,-121.225 238.863,-119.922"/>
<text text-anchor="middle" x="301.159" y="-41.5" font-family="Helvetica,sans-Serif" font-size="10.00"> timingInfo</text>
</g>
<!-- Node5&#45;&gt;Node1 -->
<g id="edge5" class="edge"><title>Node5&#45;&gt;Node1</title>
<path fill="none" stroke="#9a32cd" stroke-dasharray="5,2" d="M339.255,-120.496C335.658,-102.565 330.531,-74.5532 328.159,-50 327.157,-39.6178 326.998,-27.6135 327.032,-19.6957"/>
<polygon fill="#9a32cd" stroke="#9a32cd" points="335.862,-121.373 341.306,-130.462 342.718,-119.962 335.862,-121.373"/>
<text text-anchor="middle" x="361.659" y="-41.5" font-family="Helvetica,sans-Serif" font-size="10.00"> hrdParameters</text>
</g>
<!-- Node6&#45;&gt;Node1 -->
<g id="edge8" class="edge"><title>Node6&#45;&gt;Node1</title>
<path fill="none" stroke="#9a32cd" stroke-dasharray="5,2" d="M438.019,-120.535C432.114,-98.1814 419.221,-60.715 395.159,-38 384.815,-28.2341 370.506,-21.8454 357.682,-17.7481"/>
<polygon fill="#9a32cd" stroke="#9a32cd" points="434.662,-121.543 440.434,-130.427 441.463,-119.882 434.662,-121.543"/>
<text text-anchor="middle" x="456.659" y="-41.5" font-family="Helvetica,sans-Serif" font-size="10.00"> defaultDisplayWindow</text>
</g>
</g>
</svg>
