<?xml version="1.0" encoding="UTF-8" standalone="no"?>
<!DOCTYPE svg PUBLIC "-//W3C//DTD SVG 1.1//EN"
 "http://www.w3.org/Graphics/SVG/1.1/DTD/svg11.dtd">
<!-- Generated by graphviz version 2.36.0 (20140111.2315)
 -->
<!-- Title: x265::VPS Pages: 1 -->
<svg width="511pt" height="242pt"
 viewBox="0.00 0.00 510.52 242.00" xmlns="http://www.w3.org/2000/svg" xmlns:xlink="http://www.w3.org/1999/xlink">
<g id="graph0" class="graph" transform="scale(1 1) rotate(0) translate(4 238)">
<title>x265::VPS</title>
<polygon fill="white" stroke="none" points="-4,4 -4,-238 506.524,-238 506.524,4 -4,4"/>
<!-- Node1 -->
<g id="node1" class="node"><title>Node1</title>
<polygon fill="#bfbfbf" stroke="black" points="129.524,-0.5 129.524,-19.5 193.524,-19.5 193.524,-0.5 129.524,-0.5"/>
<text text-anchor="middle" x="161.524" y="-7.5" font-family="Helvetica,sans-Serif" font-size="10.00">x265::VPS</text>
</g>
<!-- Node2 -->
<g id="node2" class="node"><title>Node2</title>
<polygon fill="white" stroke="#bfbfbf" points="26.0243,-214.5 26.0243,-233.5 55.0243,-233.5 55.0243,-214.5 26.0243,-214.5"/>
<text text-anchor="middle" x="40.5243" y="-221.5" font-family="Helvetica,sans-Serif" font-size="10.00">int</text>
</g>
<!-- Node2&#45;&gt;Node1 -->
<g id="edge1" class="edge"><title>Node2&#45;&gt;Node1</title>
<path fill="none" stroke="#9a32cd" stroke-dasharray="5,2" d="M27.8598,-205.612C26.1288,-202.534 24.5848,-199.266 23.5243,-196 5.93073,-141.811 -15.5573,-115.083 16.5243,-68 41.7316,-31.0059 94.9483,-18.0213 129.424,-13.4641"/>
<polygon fill="#9a32cd" stroke="#9a32cd" points="24.9578,-207.57 33.3178,-214.078 30.8412,-203.777 24.9578,-207.57"/>
<text text-anchor="middle" x="63.5243" y="-82" font-family="Helvetica,sans-Serif" font-size="10.00"> maxDecPicBuffering</text>
<text text-anchor="middle" x="63.5243" y="-71" font-family="Helvetica,sans-Serif" font-size="10.00">numReorderPics</text>
</g>
<!-- Node3 -->
<g id="node3" class="node"><title>Node3</title>
<g id="a_node3"><a xlink:href="structx265_1_1ProfileTierLevel.html" target="_top" xlink:title="x265::ProfileTierLevel">
<polygon fill="white" stroke="black" points="221.024,-69.5 221.024,-88.5 332.024,-88.5 332.024,-69.5 221.024,-69.5"/>
<text text-anchor="middle" x="276.524" y="-76.5" font-family="Helvetica,sans-Serif" font-size="10.00">x265::ProfileTierLevel</text>
</a>
</g>
</g>
<!-- Node2&#45;&gt;Node3 -->
<g id="edge3" class="edge"><title>Node2&#45;&gt;Node3</title>
<path fill="none" stroke="#9a32cd" stroke-dasharray="5,2" d="M65.5345,-221.269C100.41,-218.333 161.115,-211.155 176.524,-196 205.052,-167.944 168.981,-137.941 195.524,-108 203.618,-98.8702 214.837,-92.7164 226.349,-88.5688"/>
<polygon fill="#9a32cd" stroke="#9a32cd" points="64.9051,-217.808 55.209,-222.078 65.4518,-224.787 64.9051,-217.808"/>
<text text-anchor="middle" x="251.524" y="-177" font-family="Helvetica,sans-Serif" font-size="10.00"> chromaFormatConstraint</text>
<text text-anchor="middle" x="251.524" y="-166" font-family="Helvetica,sans-Serif" font-size="10.00">maxLumaSrForLevel</text>
<text text-anchor="middle" x="251.524" y="-155" font-family="Helvetica,sans-Serif" font-size="10.00">minCrForLevel</text>
<text text-anchor="middle" x="251.524" y="-144" font-family="Helvetica,sans-Serif" font-size="10.00">bitDepthConstraint</text>
<text text-anchor="middle" x="251.524" y="-133" font-family="Helvetica,sans-Serif" font-size="10.00">levelIdc</text>
<text text-anchor="middle" x="251.524" y="-122" font-family="Helvetica,sans-Serif" font-size="10.00">profileIdc</text>
</g>
<!-- Node5 -->
<g id="node5" class="node"><title>Node5</title>
<g id="a_node5"><a xlink:href="structx265_1_1HRDInfo.html" target="_top" xlink:title="x265::HRDInfo">
<polygon fill="white" stroke="black" points="120.024,-69.5 120.024,-88.5 203.024,-88.5 203.024,-69.5 120.024,-69.5"/>
<text text-anchor="middle" x="161.524" y="-76.5" font-family="Helvetica,sans-Serif" font-size="10.00">x265::HRDInfo</text>
</a>
</g>
</g>
<!-- Node2&#45;&gt;Node5 -->
<g id="edge6" class="edge"><title>Node2&#45;&gt;Node5</title>
<path fill="none" stroke="#9a32cd" stroke-dasharray="5,2" d="M34.4211,-204.716C27.3991,-179.917 19.4579,-135.561 41.5243,-108 44.0731,-104.817 86.1687,-95.4898 119.79,-88.4685"/>
<polygon fill="#9a32cd" stroke="#9a32cd" points="31.0909,-205.794 37.3778,-214.322 37.7812,-203.735 31.0909,-205.794"/>
<text text-anchor="middle" x="109.024" y="-182.5" font-family="Helvetica,sans-Serif" font-size="10.00"> cpbSizeValue</text>
<text text-anchor="middle" x="109.024" y="-171.5" font-family="Helvetica,sans-Serif" font-size="10.00">bitRateValue</text>
<text text-anchor="middle" x="109.024" y="-160.5" font-family="Helvetica,sans-Serif" font-size="10.00">dpbOutputDelayLength</text>
<text text-anchor="middle" x="109.024" y="-149.5" font-family="Helvetica,sans-Serif" font-size="10.00">cpbSizeScale</text>
<text text-anchor="middle" x="109.024" y="-138.5" font-family="Helvetica,sans-Serif" font-size="10.00">cpbRemovalDelayLength</text>
<text text-anchor="middle" x="109.024" y="-127.5" font-family="Helvetica,sans-Serif" font-size="10.00">bitRateScale</text>
<text text-anchor="middle" x="109.024" y="-116.5" font-family="Helvetica,sans-Serif" font-size="10.00">initialCpbRemovalDelayLength</text>
</g>
<!-- Node3&#45;&gt;Node1 -->
<g id="edge2" class="edge"><title>Node3&#45;&gt;Node1</title>
<path fill="none" stroke="#9a32cd" stroke-dasharray="5,2" d="M261.702,-61.9124C253.668,-53.9061 243.214,-44.5627 232.524,-38 219.825,-30.2033 204.503,-24.0289 191.348,-19.5638"/>
<polygon fill="#9a32cd" stroke="#9a32cd" points="259.387,-64.5537 268.849,-69.3206 264.425,-59.6936 259.387,-64.5537"/>
<text text-anchor="middle" x="255.524" y="-41.5" font-family="Helvetica,sans-Serif" font-size="10.00"> ptl</text>
</g>
<!-- Node4 -->
<g id="node4" class="node"><title>Node4</title>
<polygon fill="white" stroke="#bfbfbf" points="345.024,-214.5 345.024,-233.5 380.024,-233.5 380.024,-214.5 345.024,-214.5"/>
<text text-anchor="middle" x="362.524" y="-221.5" font-family="Helvetica,sans-Serif" font-size="10.00">bool</text>
</g>
<!-- Node4&#45;&gt;Node3 -->
<g id="edge4" class="edge"><title>Node4&#45;&gt;Node3</title>
<path fill="none" stroke="#9a32cd" stroke-dasharray="5,2" d="M370.415,-204.948C379.791,-180.419 391.678,-136.373 370.524,-108 361.364,-95.7136 347.027,-88.6054 332.284,-84.553"/>
<polygon fill="#9a32cd" stroke="#9a32cd" points="367.079,-203.861 366.534,-214.442 373.558,-206.51 367.079,-203.861"/>
<text text-anchor="middle" x="442.024" y="-188" font-family="Helvetica,sans-Serif" font-size="10.00"> frameOnlyConstraintFlag</text>
<text text-anchor="middle" x="442.024" y="-177" font-family="Helvetica,sans-Serif" font-size="10.00">progressiveSourceFlag</text>
<text text-anchor="middle" x="442.024" y="-166" font-family="Helvetica,sans-Serif" font-size="10.00">intraConstraintFlag</text>
<text text-anchor="middle" x="442.024" y="-155" font-family="Helvetica,sans-Serif" font-size="10.00">profileCompatibilityFlag</text>
<text text-anchor="middle" x="442.024" y="-144" font-family="Helvetica,sans-Serif" font-size="10.00">nonPackedConstraintFlag</text>
<text text-anchor="middle" x="442.024" y="-133" font-family="Helvetica,sans-Serif" font-size="10.00">interlacedSourceFlag</text>
<text text-anchor="middle" x="442.024" y="-122" font-family="Helvetica,sans-Serif" font-size="10.00">lowerBitRateConstraintFlag</text>
<text text-anchor="middle" x="442.024" y="-111" font-family="Helvetica,sans-Serif" font-size="10.00">tierFlag</text>
</g>
<!-- Node4&#45;&gt;Node5 -->
<g id="edge7" class="edge"><title>Node4&#45;&gt;Node5</title>
<path fill="none" stroke="#9a32cd" stroke-dasharray="5,2" d="M340.556,-207.868C336.733,-204.363 333.148,-200.365 330.524,-196 309.908,-161.708 340.277,-135.825 311.524,-108 279.387,-76.8999 256.468,-98.3027 212.524,-90 209.51,-89.4305 206.397,-88.8358 203.264,-88.2328"/>
<polygon fill="#9a32cd" stroke="#9a32cd" points="338.538,-210.738 348.506,-214.33 342.953,-205.306 338.538,-210.738"/>
<text text-anchor="middle" x="348.524" y="-149.5" font-family="Helvetica,sans-Serif" font-size="10.00"> cbrFlag</text>
</g>
<!-- Node5&#45;&gt;Node1 -->
<g id="edge5" class="edge"><title>Node5&#45;&gt;Node1</title>
<path fill="none" stroke="#9a32cd" stroke-dasharray="5,2" d="M161.524,-59.0183C161.524,-46.034 161.524,-29.4419 161.524,-19.5494"/>
<polygon fill="#9a32cd" stroke="#9a32cd" points="158.024,-59.2409 161.524,-69.2409 165.024,-59.241 158.024,-59.2409"/>
<text text-anchor="middle" x="195.024" y="-41.5" font-family="Helvetica,sans-Serif" font-size="10.00"> hrdParameters</text>
</g>
</g>
</svg>
