<?xml version="1.0" encoding="UTF-8" standalone="no"?>
<!DOCTYPE svg PUBLIC "-//W3C//DTD SVG 1.1//EN"
 "http://www.w3.org/Graphics/SVG/1.1/DTD/svg11.dtd">
<!-- Generated by graphviz version 2.36.0 (20140111.2315)
 -->
<!-- Title: x265::InputFileInfo Pages: 1 -->
<svg width="136pt" height="206pt"
 viewBox="0.00 0.00 136.00 206.00" xmlns="http://www.w3.org/2000/svg" xmlns:xlink="http://www.w3.org/1999/xlink">
<g id="graph0" class="graph" transform="scale(1 1) rotate(0) translate(4 202)">
<title>x265::InputFileInfo</title>
<polygon fill="white" stroke="none" points="-4,4 -4,-202 132,-202 132,4 -4,4"/>
<!-- Node1 -->
<g id="node1" class="node"><title>Node1</title>
<polygon fill="#bfbfbf" stroke="black" points="2,-0.5 2,-19.5 100,-19.5 100,-0.5 2,-0.5"/>
<text text-anchor="middle" x="51" y="-7.5" font-family="Helvetica,sans-Serif" font-size="10.00">x265::InputFileInfo</text>
</g>
<!-- Node2 -->
<g id="node2" class="node"><title>Node2</title>
<polygon fill="white" stroke="#bfbfbf" points="-0.5,-178.5 -0.5,-197.5 28.5,-197.5 28.5,-178.5 -0.5,-178.5"/>
<text text-anchor="middle" x="14" y="-185.5" font-family="Helvetica,sans-Serif" font-size="10.00">int</text>
</g>
<!-- Node2&#45;&gt;Node1 -->
<g id="edge1" class="edge"><title>Node2&#45;&gt;Node1</title>
<path fill="none" stroke="#9a32cd" stroke-dasharray="5,2" d="M9.15512,-168.567C2.47169,-139.158 -6.4803,-80.6026 15,-38 18.9394,-30.1869 26.3224,-24.0423 33.3819,-19.6018"/>
<polygon fill="#9a32cd" stroke="#9a32cd" points="5.76378,-169.433 11.5374,-178.317 12.5637,-167.772 5.76378,-169.433"/>
<text text-anchor="middle" x="41" y="-151.5" font-family="Helvetica,sans-Serif" font-size="10.00"> width</text>
<text text-anchor="middle" x="41" y="-140.5" font-family="Helvetica,sans-Serif" font-size="10.00">skipFrames</text>
<text text-anchor="middle" x="41" y="-129.5" font-family="Helvetica,sans-Serif" font-size="10.00">fpsDenom</text>
<text text-anchor="middle" x="41" y="-118.5" font-family="Helvetica,sans-Serif" font-size="10.00">height</text>
<text text-anchor="middle" x="41" y="-107.5" font-family="Helvetica,sans-Serif" font-size="10.00">frameCount</text>
<text text-anchor="middle" x="41" y="-96.5" font-family="Helvetica,sans-Serif" font-size="10.00">csp</text>
<text text-anchor="middle" x="41" y="-85.5" font-family="Helvetica,sans-Serif" font-size="10.00">sarHeight</text>
<text text-anchor="middle" x="41" y="-74.5" font-family="Helvetica,sans-Serif" font-size="10.00">depth</text>
<text text-anchor="middle" x="41" y="-63.5" font-family="Helvetica,sans-Serif" font-size="10.00">sarWidth</text>
<text text-anchor="middle" x="41" y="-52.5" font-family="Helvetica,sans-Serif" font-size="10.00">fpsNum</text>
<text text-anchor="middle" x="41" y="-41.5" font-family="Helvetica,sans-Serif" font-size="10.00">...</text>
</g>
<!-- Node3 -->
<g id="node3" class="node"><title>Node3</title>
<polygon fill="white" stroke="#bfbfbf" points="54.5,-178.5 54.5,-197.5 123.5,-197.5 123.5,-178.5 54.5,-178.5"/>
<text text-anchor="middle" x="89" y="-185.5" font-family="Helvetica,sans-Serif" font-size="10.00">const char *</text>
</g>
<!-- Node3&#45;&gt;Node1 -->
<g id="edge2" class="edge"><title>Node3&#45;&gt;Node1</title>
<path fill="none" stroke="#9a32cd" stroke-dasharray="5,2" d="M88.5337,-168.06C87.3116,-139.199 82.8996,-82.8373 67,-38 64.669,-31.4267 60.669,-24.6767 57.2518,-19.57"/>
<polygon fill="#9a32cd" stroke="#9a32cd" points="85.0445,-168.444 88.8788,-178.32 92.0406,-168.208 85.0445,-168.444"/>
<text text-anchor="middle" x="108" y="-96.5" font-family="Helvetica,sans-Serif" font-size="10.00"> filename</text>
</g>
</g>
</svg>
