<?xml version="1.0" encoding="UTF-8" standalone="no"?>
<!DOCTYPE svg PUBLIC "-//W3C//DTD SVG 1.1//EN"
 "http://www.w3.org/Graphics/SVG/1.1/DTD/svg11.dtd">
<!-- Generated by graphviz version 2.36.0 (20140111.2315)
 -->
<!-- Title: x265::HRDInfo Pages: 1 -->
<svg width="216pt" height="162pt"
 viewBox="0.00 0.00 216.00 162.00" xmlns="http://www.w3.org/2000/svg" xmlns:xlink="http://www.w3.org/1999/xlink">
<g id="graph0" class="graph" transform="scale(1 1) rotate(0) translate(4 158)">
<title>x265::HRDInfo</title>
<polygon fill="white" stroke="none" points="-4,4 -4,-158 212,-158 212,4 -4,4"/>
<!-- Node1 -->
<g id="node1" class="node"><title>Node1</title>
<polygon fill="#bfbfbf" stroke="black" points="51.5,-0.5 51.5,-19.5 134.5,-19.5 134.5,-0.5 51.5,-0.5"/>
<text text-anchor="middle" x="93" y="-7.5" font-family="Helvetica,sans-Serif" font-size="10.00">x265::HRDInfo</text>
</g>
<!-- Node2 -->
<g id="node2" class="node"><title>Node2</title>
<polygon fill="white" stroke="#bfbfbf" points="-0.5,-134.5 -0.5,-153.5 28.5,-153.5 28.5,-134.5 -0.5,-134.5"/>
<text text-anchor="middle" x="14" y="-141.5" font-family="Helvetica,sans-Serif" font-size="10.00">int</text>
</g>
<!-- Node2&#45;&gt;Node1 -->
<g id="edge1" class="edge"><title>Node2&#45;&gt;Node1</title>
<path fill="none" stroke="#9a32cd" stroke-dasharray="5,2" d="M8.32596,-124.677C2.52491,-102.047 -3.29556,-63.4365 15,-38 23.4511,-26.2503 37.3749,-19.5692 51.1375,-15.7861"/>
<polygon fill="#9a32cd" stroke="#9a32cd" points="4.97877,-125.703 11.0664,-134.374 11.715,-123.799 4.97877,-125.703"/>
<text text-anchor="middle" x="82.5" y="-107.5" font-family="Helvetica,sans-Serif" font-size="10.00"> cpbSizeValue</text>
<text text-anchor="middle" x="82.5" y="-96.5" font-family="Helvetica,sans-Serif" font-size="10.00">bitRateValue</text>
<text text-anchor="middle" x="82.5" y="-85.5" font-family="Helvetica,sans-Serif" font-size="10.00">dpbOutputDelayLength</text>
<text text-anchor="middle" x="82.5" y="-74.5" font-family="Helvetica,sans-Serif" font-size="10.00">cpbSizeScale</text>
<text text-anchor="middle" x="82.5" y="-63.5" font-family="Helvetica,sans-Serif" font-size="10.00">cpbRemovalDelayLength</text>
<text text-anchor="middle" x="82.5" y="-52.5" font-family="Helvetica,sans-Serif" font-size="10.00">bitRateScale</text>
<text text-anchor="middle" x="82.5" y="-41.5" font-family="Helvetica,sans-Serif" font-size="10.00">initialCpbRemovalDelayLength</text>
</g>
<!-- Node3 -->
<g id="node3" class="node"><title>Node3</title>
<polygon fill="white" stroke="#bfbfbf" points="154.5,-134.5 154.5,-153.5 189.5,-153.5 189.5,-134.5 154.5,-134.5"/>
<text text-anchor="middle" x="172" y="-141.5" font-family="Helvetica,sans-Serif" font-size="10.00">bool</text>
</g>
<!-- Node3&#45;&gt;Node1 -->
<g id="edge2" class="edge"><title>Node3&#45;&gt;Node1</title>
<path fill="none" stroke="#9a32cd" stroke-dasharray="5,2" d="M172.855,-124.27C172.911,-101.502 169.725,-63.0272 150,-38 143.357,-29.5721 133.448,-23.6401 123.745,-19.5281"/>
<polygon fill="#9a32cd" stroke="#9a32cd" points="169.354,-124.243 172.612,-134.325 176.352,-124.412 169.354,-124.243"/>
<text text-anchor="middle" x="190" y="-74.5" font-family="Helvetica,sans-Serif" font-size="10.00"> cbrFlag</text>
</g>
</g>
</svg>
