<?xml version="1.0" encoding="UTF-8" standalone="no"?>
<!DOCTYPE svg PUBLIC "-//W3C//DTD SVG 1.1//EN"
 "http://www.w3.org/Graphics/SVG/1.1/DTD/svg11.dtd">
<!-- Generated by graphviz version 2.36.0 (20140111.2315)
 -->
<!-- Title: x265::MV::mvmin Pages: 1 -->
<svg width="910pt" height="175pt"
 viewBox="0.00 0.00 910.00 175.00" xmlns="http://www.w3.org/2000/svg" xmlns:xlink="http://www.w3.org/1999/xlink">
<g id="graph0" class="graph" transform="scale(1 1) rotate(0) translate(4 171)">
<title>x265::MV::mvmin</title>
<polygon fill="white" stroke="none" points="-4,4 -4,-171 906,-171 906,4 -4,4"/>
<!-- Node1 -->
<g id="node1" class="node"><title>Node1</title>
<polygon fill="#bfbfbf" stroke="black" points="0,-63.5 0,-82.5 94,-82.5 94,-63.5 0,-63.5"/>
<text text-anchor="middle" x="47" y="-70.5" font-family="Helvetica,sans-Serif" font-size="10.00">x265::MV::mvmin</text>
</g>
<!-- Node2 -->
<g id="node2" class="node"><title>Node2</title>
<g id="a_node2"><a xlink:href="structx265_1_1MV.html#aab942064e803bea5dc44bd93c5049044" target="_top" xlink:title="x265::MV::clipped">
<polygon fill="white" stroke="black" points="130.5,-63.5 130.5,-82.5 225.5,-82.5 225.5,-63.5 130.5,-63.5"/>
<text text-anchor="middle" x="178" y="-70.5" font-family="Helvetica,sans-Serif" font-size="10.00">x265::MV::clipped</text>
</a>
</g>
</g>
<!-- Node1&#45;&gt;Node2 -->
<g id="edge1" class="edge"><title>Node1&#45;&gt;Node2</title>
<path fill="none" stroke="midnightblue" d="M104.259,-73C112.933,-73 121.81,-73 130.247,-73"/>
<polygon fill="midnightblue" stroke="midnightblue" points="104.208,-69.5001 94.2076,-73 104.208,-76.5001 104.208,-69.5001"/>
</g>
<!-- Node3 -->
<g id="node3" class="node"><title>Node3</title>
<g id="a_node3"><a xlink:href="classx265_1_1MotionEstimate.html#a2fa2c8bf4129cf3352a828a0795bd139" target="_top" xlink:title="x265::MotionEstimate\l::motionEstimate">
<polygon fill="white" stroke="black" points="262,-58 262,-88 374,-88 374,-58 262,-58"/>
<text text-anchor="start" x="270" y="-76" font-family="Helvetica,sans-Serif" font-size="10.00">x265::MotionEstimate</text>
<text text-anchor="middle" x="318" y="-65" font-family="Helvetica,sans-Serif" font-size="10.00">::motionEstimate</text>
</a>
</g>
</g>
<!-- Node2&#45;&gt;Node3 -->
<g id="edge2" class="edge"><title>Node2&#45;&gt;Node3</title>
<path fill="none" stroke="midnightblue" d="M235.954,-73C244.477,-73 253.253,-73 261.74,-73"/>
<polygon fill="midnightblue" stroke="midnightblue" points="235.721,-69.5001 225.721,-73 235.72,-76.5001 235.721,-69.5001"/>
</g>
<!-- Node4 -->
<g id="node4" class="node"><title>Node4</title>
<g id="a_node4"><a xlink:href="classx265_1_1Search.html#a47294b1b3d67ab31cb6be412407982d5" target="_top" xlink:title="x265::Search::singleMotion\lEstimation">
<polygon fill="white" stroke="black" points="410.5,-102 410.5,-132 545.5,-132 545.5,-102 410.5,-102"/>
<text text-anchor="start" x="418.5" y="-120" font-family="Helvetica,sans-Serif" font-size="10.00">x265::Search::singleMotion</text>
<text text-anchor="middle" x="478" y="-109" font-family="Helvetica,sans-Serif" font-size="10.00">Estimation</text>
</a>
</g>
</g>
<!-- Node3&#45;&gt;Node4 -->
<g id="edge3" class="edge"><title>Node3&#45;&gt;Node4</title>
<path fill="none" stroke="midnightblue" d="M382.57,-90.7029C395.986,-94.4392 410.02,-98.3475 423.042,-101.974"/>
<polygon fill="midnightblue" stroke="midnightblue" points="383.505,-87.3303 372.933,-88.0192 381.627,-94.0737 383.505,-87.3303"/>
</g>
<!-- Node7 -->
<g id="node7" class="node"><title>Node7</title>
<g id="a_node7"><a xlink:href="classx265_1_1Search.html#a48101e3d900e93b97a83f461be390bd1" target="_top" xlink:title="x265::Search::predInterSearch">
<polygon fill="white" stroke="black" points="582.5,-68.5 582.5,-87.5 731.5,-87.5 731.5,-68.5 582.5,-68.5"/>
<text text-anchor="middle" x="657" y="-75.5" font-family="Helvetica,sans-Serif" font-size="10.00">x265::Search::predInterSearch</text>
</a>
</g>
</g>
<!-- Node3&#45;&gt;Node7 -->
<g id="edge9" class="edge"><title>Node3&#45;&gt;Node7</title>
<path fill="none" stroke="midnightblue" d="M384.567,-73.9728C441.34,-74.8151 523.387,-76.0324 582.395,-76.9079"/>
<polygon fill="midnightblue" stroke="midnightblue" points="384.322,-70.4689 374.271,-73.82 384.218,-77.4681 384.322,-70.4689"/>
</g>
<!-- Node10 -->
<g id="node10" class="node"><title>Node10</title>
<g id="a_node10"><a xlink:href="classx265_1_1EstimateRow.html#ab4418a4e826e746d0b9cdce75a0736d9" target="_top" xlink:title="x265::EstimateRow::\lestimateCUCost">
<polygon fill="white" stroke="black" points="423.5,-6 423.5,-36 532.5,-36 532.5,-6 423.5,-6"/>
<text text-anchor="start" x="431.5" y="-24" font-family="Helvetica,sans-Serif" font-size="10.00">x265::EstimateRow::</text>
<text text-anchor="middle" x="478" y="-13" font-family="Helvetica,sans-Serif" font-size="10.00">estimateCUCost</text>
</a>
</g>
</g>
<!-- Node3&#45;&gt;Node10 -->
<g id="edge10" class="edge"><title>Node3&#45;&gt;Node10</title>
<path fill="none" stroke="midnightblue" d="M374.263,-54.8122C392.937,-48.6662 413.563,-41.8781 431.403,-36.0068"/>
<polygon fill="midnightblue" stroke="midnightblue" points="373.105,-51.5086 364.7,-57.9594 375.293,-58.1578 373.105,-51.5086"/>
</g>
<!-- Node5 -->
<g id="node5" class="node"><title>Node5</title>
<g id="a_node5"><a xlink:href="classx265_1_1Analysis.html#abd49473ae6e5e1f7e555b447b04398e6" target="_top" xlink:title="x265::Analysis::parallelME">
<polygon fill="white" stroke="black" points="590.5,-133.5 590.5,-152.5 723.5,-152.5 723.5,-133.5 590.5,-133.5"/>
<text text-anchor="middle" x="657" y="-140.5" font-family="Helvetica,sans-Serif" font-size="10.00">x265::Analysis::parallelME</text>
</a>
</g>
</g>
<!-- Node4&#45;&gt;Node5 -->
<g id="edge4" class="edge"><title>Node4&#45;&gt;Node5</title>
<path fill="none" stroke="midnightblue" d="M555.902,-128.296C567.659,-130.023 579.693,-131.791 591.156,-133.475"/>
<polygon fill="midnightblue" stroke="midnightblue" points="556.066,-124.783 545.664,-126.792 555.049,-131.709 556.066,-124.783"/>
</g>
<!-- Node4&#45;&gt;Node7 -->
<g id="edge6" class="edge"><title>Node4&#45;&gt;Node7</title>
<path fill="none" stroke="midnightblue" d="M555.501,-100.144C575.08,-95.8298 595.458,-91.3397 612.705,-87.5396"/>
<polygon fill="midnightblue" stroke="midnightblue" points="554.676,-96.7415 545.664,-102.311 556.183,-103.578 554.676,-96.7415"/>
</g>
<!-- Node6 -->
<g id="node6" class="node"><title>Node6</title>
<g id="a_node6"><a xlink:href="classx265_1_1Analysis.html#a29a58dad4cc1c07d2f5e5717c6be7c25" target="_top" xlink:title="x265::Analysis::findJob">
<polygon fill="white" stroke="red" points="775.5,-147.5 775.5,-166.5 894.5,-166.5 894.5,-147.5 775.5,-147.5"/>
<text text-anchor="middle" x="835" y="-154.5" font-family="Helvetica,sans-Serif" font-size="10.00">x265::Analysis::findJob</text>
</a>
</g>
</g>
<!-- Node5&#45;&gt;Node6 -->
<g id="edge5" class="edge"><title>Node5&#45;&gt;Node6</title>
<path fill="none" stroke="midnightblue" d="M733.617,-149.015C747.593,-150.127 761.994,-151.272 775.372,-152.336"/>
<polygon fill="midnightblue" stroke="midnightblue" points="733.782,-145.517 723.536,-148.213 733.227,-152.495 733.782,-145.517"/>
</g>
<!-- Node8 -->
<g id="node8" class="node"><title>Node8</title>
<g id="a_node8"><a xlink:href="classx265_1_1Analysis.html#a2305f7985af66b49fdbc40ebb1b281d2" target="_top" xlink:title="x265::Analysis::checkInter\l_rd0_4">
<polygon fill="white" stroke="red" points="768.5,-98 768.5,-128 901.5,-128 901.5,-98 768.5,-98"/>
<text text-anchor="start" x="776.5" y="-116" font-family="Helvetica,sans-Serif" font-size="10.00">x265::Analysis::checkInter</text>
<text text-anchor="middle" x="835" y="-105" font-family="Helvetica,sans-Serif" font-size="10.00">_rd0_4</text>
</a>
</g>
</g>
<!-- Node7&#45;&gt;Node8 -->
<g id="edge7" class="edge"><title>Node7&#45;&gt;Node8</title>
<path fill="none" stroke="midnightblue" d="M716.272,-89.5882C732.998,-92.9144 751.348,-96.5635 768.48,-99.9704"/>
<polygon fill="midnightblue" stroke="midnightblue" points="716.583,-86.0816 706.093,-87.5639 715.218,-92.9472 716.583,-86.0816"/>
</g>
<!-- Node9 -->
<g id="node9" class="node"><title>Node9</title>
<g id="a_node9"><a xlink:href="classx265_1_1Analysis.html#a828daa3e9f1ed40a1af9f99f7ff7bb33" target="_top" xlink:title="x265::Analysis::checkInter\l_rd5_6">
<polygon fill="white" stroke="red" points="768.5,-49 768.5,-79 901.5,-79 901.5,-49 768.5,-49"/>
<text text-anchor="start" x="776.5" y="-67" font-family="Helvetica,sans-Serif" font-size="10.00">x265::Analysis::checkInter</text>
<text text-anchor="middle" x="835" y="-56" font-family="Helvetica,sans-Serif" font-size="10.00">_rd5_6</text>
</a>
</g>
</g>
<!-- Node7&#45;&gt;Node9 -->
<g id="edge8" class="edge"><title>Node7&#45;&gt;Node9</title>
<path fill="none" stroke="midnightblue" d="M741.653,-71.3458C750.579,-70.6358 759.564,-69.921 768.241,-69.2308"/>
<polygon fill="midnightblue" stroke="midnightblue" points="741.311,-67.8618 731.62,-72.1439 741.866,-74.8398 741.311,-67.8618"/>
</g>
<!-- Node11 -->
<g id="node11" class="node"><title>Node11</title>
<g id="a_node11"><a xlink:href="classx265_1_1CostEstimate.html#a239a71996364d7662e9c9c32b82d6c9f" target="_top" xlink:title="x265::CostEstimate\l::processRow">
<polygon fill="white" stroke="black" points="605,-2 605,-32 709,-32 709,-2 605,-2"/>
<text text-anchor="start" x="613" y="-20" font-family="Helvetica,sans-Serif" font-size="10.00">x265::CostEstimate</text>
<text text-anchor="middle" x="657" y="-9" font-family="Helvetica,sans-Serif" font-size="10.00">::processRow</text>
</a>
</g>
</g>
<!-- Node10&#45;&gt;Node11 -->
<g id="edge11" class="edge"><title>Node10&#45;&gt;Node11</title>
<path fill="none" stroke="midnightblue" d="M542.722,-19.56C563.088,-19.0997 585.357,-18.5965 604.72,-18.1589"/>
<polygon fill="midnightblue" stroke="midnightblue" points="542.505,-16.0639 532.586,-19.789 542.663,-23.0621 542.505,-16.0639"/>
</g>
<!-- Node12 -->
<g id="node12" class="node"><title>Node12</title>
<g id="a_node12"><a xlink:href="classx265_1_1CostEstimate.html#af33d06405527ebbb03d9c93d565e6e2a" target="_top" xlink:title="x265::CostEstimate\l::estimateFrameCost">
<polygon fill="white" stroke="red" points="780.5,-0 780.5,-30 889.5,-30 889.5,-0 780.5,-0"/>
<text text-anchor="start" x="788.5" y="-18" font-family="Helvetica,sans-Serif" font-size="10.00">x265::CostEstimate</text>
<text text-anchor="middle" x="835" y="-7" font-family="Helvetica,sans-Serif" font-size="10.00">::estimateFrameCost</text>
</a>
</g>
</g>
<!-- Node11&#45;&gt;Node12 -->
<g id="edge12" class="edge"><title>Node11&#45;&gt;Node12</title>
<path fill="none" stroke="midnightblue" d="M719.548,-16.3006C739.385,-16.0752 761.199,-15.8273 780.414,-15.6089"/>
<polygon fill="midnightblue" stroke="midnightblue" points="719.339,-12.8026 709.38,-16.4161 719.419,-19.8022 719.339,-12.8026"/>
</g>
</g>
</svg>
