<?xml version="1.0" encoding="UTF-8" standalone="no"?>
<!DOCTYPE svg PUBLIC "-//W3C//DTD SVG 1.1//EN"
 "http://www.w3.org/Graphics/SVG/1.1/DTD/svg11.dtd">
<!-- Generated by graphviz version 2.36.0 (20140111.2315)
 -->
<!-- Title: source/common/wavefront.cpp Pages: 1 -->
<!--zoomable 364 -->
<svg id="main" version="1.1" xmlns="http://www.w3.org/2000/svg" xmlns:xlink="http://www.w3.org/1999/xlink" xml:space="preserve" onload="init(evt)">
<style type="text/css"><![CDATA[
.edge:hover path { stroke: red; }
.edge:hover polygon { stroke: red; fill: red; }
]]></style>
<script type="text/javascript"><![CDATA[
var edges = document.getElementsByTagName('g');
if (edges && edges.length) {
  for (var i=0;i<edges.length;i++) {
    if (edges[i].id.substr(0,4)=='edge') {
      edges[i].setAttribute('class','edge');
    }
  }
}
]]></script>
        <defs>
                <circle id="rim" cx="0" cy="0" r="7"/>
                <circle id="rim2" cx="0" cy="0" r="3.5"/>
                <g id="zoomPlus">
                        <use xlink:href="#rim" fill="#404040">
                                <set attributeName="fill" to="#808080" begin="zoomplus.mouseover" end="zoomplus.mouseout"/>
                        </use>
                        <path d="M-4,0h8M0,-4v8" fill="none" stroke="white" stroke-width="1.5" pointer-events="none"/>
                </g>
                <g id="zoomMin">
                        <use xlink:href="#rim" fill="#404040">
                                <set attributeName="fill" to="#808080" begin="zoomminus.mouseover" end="zoomminus.mouseout"/>
                        </use>
                        <path d="M-4,0h8" fill="none" stroke="white" stroke-width="1.5" pointer-events="none"/>
                </g>
                <g id="dirArrow">
                        <path fill="none" stroke="white" stroke-width="1.5" d="M0,-3.0v7 M-2.5,-0.5L0,-3.0L2.5,-0.5"/>
                </g>
               <g id="resetDef">
                       <use xlink:href="#rim2" fill="#404040">
                               <set attributeName="fill" to="#808080" begin="reset.mouseover" end="reset.mouseout"/>
                       </use>
               </g>
        </defs>

<script type="text/javascript">
var viewWidth = 988;
var viewHeight = 364;
var sectionId = 'dynsection-0';
</script>
<script xlink:href="svgpan.js"/>
<svg id="graph" class="graph">
<g id="viewport">
<title>source/common/wavefront.cpp</title>
<polygon fill="white" stroke="none" points="-4,4 -4,-360 984,-360 984,4 -4,4"/>
<!-- Node1 -->
<g id="node1" class="node"><title>Node1</title>
<polygon fill="#bfbfbf" stroke="black" points="518.5,-336.5 518.5,-355.5 669.5,-355.5 669.5,-336.5 518.5,-336.5"/>
<text text-anchor="middle" x="594" y="-343.5" font-family="Helvetica,sans-Serif" font-size="10.00">source/common/wavefront.cpp</text>
</g>
<!-- Node2 -->
<g id="node2" class="node"><title>Node2</title>
<g id="a_node2"><a xlink:href="threadpool_8h.html" target="_top" xlink:title="threadpool.h">
<polygon fill="white" stroke="black" points="567,-224.5 567,-243.5 637,-243.5 637,-224.5 567,-224.5"/>
<text text-anchor="middle" x="602" y="-231.5" font-family="Helvetica,sans-Serif" font-size="10.00">threadpool.h</text>
</a>
</g>
</g>
<!-- Node1&#45;&gt;Node2 -->
<g id="edge1" class="edge"><title>Node1&#45;&gt;Node2</title>
<path fill="none" stroke="midnightblue" d="M597.088,-336.173C600.052,-327.198 604.319,-312.827 606,-300 608.022,-284.567 606.713,-266.934 605.07,-253.932"/>
<polygon fill="midnightblue" stroke="midnightblue" points="608.51,-253.265 603.616,-243.868 601.582,-254.266 608.51,-253.265"/>
</g>
<!-- Node3 -->
<g id="node3" class="node"><title>Node3</title>
<g id="a_node3"><a xlink:href="common_8h.html" target="_top" xlink:title="common.h">
<polygon fill="white" stroke="black" points="502,-168.5 502,-187.5 564,-187.5 564,-168.5 502,-168.5"/>
<text text-anchor="middle" x="533" y="-175.5" font-family="Helvetica,sans-Serif" font-size="10.00">common.h</text>
</a>
</g>
</g>
<!-- Node1&#45;&gt;Node3 -->
<g id="edge33" class="edge"><title>Node1&#45;&gt;Node3</title>
<path fill="none" stroke="midnightblue" d="M567.071,-336.356C550.281,-329.411 530.022,-317.825 520,-300 501.607,-267.288 514.996,-221.718 524.919,-196.881"/>
<polygon fill="midnightblue" stroke="midnightblue" points="528.171,-198.177 528.856,-187.604 521.727,-195.442 528.171,-198.177"/>
</g>
<!-- Node22 -->
<g id="node22" class="node"><title>Node22</title>
<g id="a_node22"><a xlink:href="threading_8h.html" target="_top" xlink:title="threading.h">
<polygon fill="white" stroke="black" points="661.5,-224.5 661.5,-243.5 726.5,-243.5 726.5,-224.5 661.5,-224.5"/>
<text text-anchor="middle" x="694" y="-231.5" font-family="Helvetica,sans-Serif" font-size="10.00">threading.h</text>
</a>
</g>
</g>
<!-- Node1&#45;&gt;Node22 -->
<g id="edge23" class="edge"><title>Node1&#45;&gt;Node22</title>
<path fill="none" stroke="midnightblue" d="M601.847,-336.368C618.569,-317.974 657.935,-274.671 679.407,-251.052"/>
<polygon fill="midnightblue" stroke="midnightblue" points="682.053,-253.345 686.19,-243.591 676.873,-248.636 682.053,-253.345"/>
</g>
<!-- Node27 -->
<g id="node27" class="node"><title>Node27</title>
<g id="a_node27"><a xlink:href="wavefront_8h.html" target="_top" xlink:title="wavefront.h">
<polygon fill="white" stroke="black" points="529,-280.5 529,-299.5 597,-299.5 597,-280.5 529,-280.5"/>
<text text-anchor="middle" x="563" y="-287.5" font-family="Helvetica,sans-Serif" font-size="10.00">wavefront.h</text>
</a>
</g>
</g>
<!-- Node1&#45;&gt;Node27 -->
<g id="edge30" class="edge"><title>Node1&#45;&gt;Node27</title>
<path fill="none" stroke="midnightblue" d="M588.881,-336.083C584.592,-328.613 578.342,-317.724 573.058,-308.52"/>
<polygon fill="midnightblue" stroke="midnightblue" points="576.038,-306.681 568.024,-299.751 569.967,-310.166 576.038,-306.681"/>
</g>
<!-- Node2&#45;&gt;Node3 -->
<g id="edge2" class="edge"><title>Node2&#45;&gt;Node3</title>
<path fill="none" stroke="midnightblue" d="M590.914,-224.324C580.514,-216.185 564.739,-203.839 552.278,-194.087"/>
<polygon fill="midnightblue" stroke="midnightblue" points="554.32,-191.241 544.288,-187.834 550.006,-196.753 554.32,-191.241"/>
</g>
<!-- Node4 -->
<g id="node4" class="node"><title>Node4</title>
<polygon fill="white" stroke="#bfbfbf" points="844,-112.5 844,-131.5 900,-131.5 900,-112.5 844,-112.5"/>
<text text-anchor="middle" x="872" y="-119.5" font-family="Helvetica,sans-Serif" font-size="10.00">algorithm</text>
</g>
<!-- Node3&#45;&gt;Node4 -->
<g id="edge3" class="edge"><title>Node3&#45;&gt;Node4</title>
<path fill="none" stroke="midnightblue" d="M564.392,-169.673C567.295,-169.075 570.198,-168.507 573,-168 685.499,-147.653 717.772,-153.566 833.796,-132.058"/>
<polygon fill="midnightblue" stroke="midnightblue" points="834.603,-135.467 843.783,-130.178 833.308,-128.588 834.603,-135.467"/>
</g>
<!-- Node5 -->
<g id="node5" class="node"><title>Node5</title>
<polygon fill="white" stroke="#bfbfbf" points="-0.5,-112.5 -0.5,-131.5 44.5,-131.5 44.5,-112.5 -0.5,-112.5"/>
<text text-anchor="middle" x="22" y="-119.5" font-family="Helvetica,sans-Serif" font-size="10.00">climits</text>
</g>
<!-- Node3&#45;&gt;Node5 -->
<g id="edge4" class="edge"><title>Node3&#45;&gt;Node5</title>
<path fill="none" stroke="midnightblue" d="M501.911,-176.021C426.644,-173.238 228.639,-163.458 54.4587,-131.726"/>
<polygon fill="midnightblue" stroke="midnightblue" points="55.0764,-128.281 44.6064,-129.903 53.8025,-135.164 55.0764,-128.281"/>
</g>
<!-- Node6 -->
<g id="node6" class="node"><title>Node6</title>
<polygon fill="white" stroke="#bfbfbf" points="63,-112.5 63,-131.5 107,-131.5 107,-112.5 63,-112.5"/>
<text text-anchor="middle" x="85" y="-119.5" font-family="Helvetica,sans-Serif" font-size="10.00">cmath</text>
</g>
<!-- Node3&#45;&gt;Node6 -->
<g id="edge5" class="edge"><title>Node3&#45;&gt;Node6</title>
<path fill="none" stroke="midnightblue" d="M501.855,-175.506C433.718,-171.839 266.262,-160.669 117.462,-131.967"/>
<polygon fill="midnightblue" stroke="midnightblue" points="117.723,-128.452 107.236,-129.961 116.375,-135.321 117.723,-128.452"/>
</g>
<!-- Node7 -->
<g id="node7" class="node"><title>Node7</title>
<polygon fill="white" stroke="#bfbfbf" points="125.5,-112.5 125.5,-131.5 174.5,-131.5 174.5,-112.5 125.5,-112.5"/>
<text text-anchor="middle" x="150" y="-119.5" font-family="Helvetica,sans-Serif" font-size="10.00">cstdarg</text>
</g>
<!-- Node3&#45;&gt;Node7 -->
<g id="edge6" class="edge"><title>Node3&#45;&gt;Node7</title>
<path fill="none" stroke="midnightblue" d="M501.865,-174.455C442.072,-169.255 306.927,-155.994 184.68,-132.116"/>
<polygon fill="midnightblue" stroke="midnightblue" points="185.268,-128.665 174.779,-130.153 183.907,-135.531 185.268,-128.665"/>
</g>
<!-- Node8 -->
<g id="node8" class="node"><title>Node8</title>
<polygon fill="white" stroke="#bfbfbf" points="192.5,-112.5 192.5,-131.5 241.5,-131.5 241.5,-112.5 192.5,-112.5"/>
<text text-anchor="middle" x="217" y="-119.5" font-family="Helvetica,sans-Serif" font-size="10.00">cstddef</text>
</g>
<!-- Node3&#45;&gt;Node8 -->
<g id="edge7" class="edge"><title>Node3&#45;&gt;Node8</title>
<path fill="none" stroke="midnightblue" d="M501.807,-173.167C451.187,-166.704 347.865,-152.505 251.678,-132.187"/>
<polygon fill="midnightblue" stroke="midnightblue" points="252.306,-128.743 241.795,-130.072 250.841,-135.588 252.306,-128.743"/>
</g>
<!-- Node9 -->
<g id="node9" class="node"><title>Node9</title>
<polygon fill="white" stroke="#bfbfbf" points="259.5,-112.5 259.5,-131.5 302.5,-131.5 302.5,-112.5 259.5,-112.5"/>
<text text-anchor="middle" x="281" y="-119.5" font-family="Helvetica,sans-Serif" font-size="10.00">cstdio</text>
</g>
<!-- Node3&#45;&gt;Node9 -->
<g id="edge8" class="edge"><title>Node3&#45;&gt;Node9</title>
<path fill="none" stroke="midnightblue" d="M501.913,-171.626C460.648,-164.292 385.346,-150.21 312.376,-132.179"/>
<polygon fill="midnightblue" stroke="midnightblue" points="313.115,-128.756 302.565,-129.726 311.417,-135.547 313.115,-128.756"/>
</g>
<!-- Node10 -->
<g id="node10" class="node"><title>Node10</title>
<polygon fill="white" stroke="#bfbfbf" points="320.5,-112.5 320.5,-131.5 365.5,-131.5 365.5,-112.5 320.5,-112.5"/>
<text text-anchor="middle" x="343" y="-119.5" font-family="Helvetica,sans-Serif" font-size="10.00">cstdlib</text>
</g>
<!-- Node3&#45;&gt;Node10 -->
<g id="edge9" class="edge"><title>Node3&#45;&gt;Node10</title>
<path fill="none" stroke="midnightblue" d="M502.894,-168.444C468.132,-158.564 411.166,-142.373 375.444,-132.221"/>
<polygon fill="midnightblue" stroke="midnightblue" points="376.104,-128.77 365.528,-129.403 374.19,-135.503 376.104,-128.77"/>
</g>
<!-- Node11 -->
<g id="node11" class="node"><title>Node11</title>
<polygon fill="white" stroke="#bfbfbf" points="384,-112.5 384,-131.5 430,-131.5 430,-112.5 384,-112.5"/>
<text text-anchor="middle" x="407" y="-119.5" font-family="Helvetica,sans-Serif" font-size="10.00">cstring</text>
</g>
<!-- Node3&#45;&gt;Node11 -->
<g id="edge10" class="edge"><title>Node3&#45;&gt;Node11</title>
<path fill="none" stroke="midnightblue" d="M513.035,-168.444C492.391,-159.596 459.937,-145.687 436.368,-135.586"/>
<polygon fill="midnightblue" stroke="midnightblue" points="437.442,-132.239 426.872,-131.516 434.684,-138.673 437.442,-132.239"/>
</g>
<!-- Node12 -->
<g id="node12" class="node"><title>Node12</title>
<polygon fill="white" stroke="#bfbfbf" points="448,-112.5 448,-131.5 494,-131.5 494,-112.5 448,-112.5"/>
<text text-anchor="middle" x="471" y="-119.5" font-family="Helvetica,sans-Serif" font-size="10.00">cctype</text>
</g>
<!-- Node3&#45;&gt;Node12 -->
<g id="edge11" class="edge"><title>Node3&#45;&gt;Node12</title>
<path fill="none" stroke="midnightblue" d="M523.039,-168.324C513.873,-160.341 500.063,-148.313 488.972,-138.653"/>
<polygon fill="midnightblue" stroke="midnightblue" points="490.982,-135.762 481.143,-131.834 486.385,-141.041 490.982,-135.762"/>
</g>
<!-- Node13 -->
<g id="node13" class="node"><title>Node13</title>
<polygon fill="white" stroke="#bfbfbf" points="512.5,-112.5 512.5,-131.5 553.5,-131.5 553.5,-112.5 512.5,-112.5"/>
<text text-anchor="middle" x="533" y="-119.5" font-family="Helvetica,sans-Serif" font-size="10.00">ctime</text>
</g>
<!-- Node3&#45;&gt;Node13 -->
<g id="edge12" class="edge"><title>Node3&#45;&gt;Node13</title>
<path fill="none" stroke="midnightblue" d="M533,-168.083C533,-161.006 533,-150.861 533,-141.986"/>
<polygon fill="midnightblue" stroke="midnightblue" points="536.5,-141.751 533,-131.751 529.5,-141.751 536.5,-141.751"/>
</g>
<!-- Node14 -->
<g id="node14" class="node"><title>Node14</title>
<g id="a_node14"><a xlink:href="stdint_8h.html" target="_top" xlink:title="stdint.h">
<polygon fill="white" stroke="black" points="696.5,-56.5 696.5,-75.5 745.5,-75.5 745.5,-56.5 696.5,-56.5"/>
<text text-anchor="middle" x="721" y="-63.5" font-family="Helvetica,sans-Serif" font-size="10.00">stdint.h</text>
</a>
</g>
</g>
<!-- Node3&#45;&gt;Node14 -->
<g id="edge13" class="edge"><title>Node3&#45;&gt;Node14</title>
<path fill="none" stroke="midnightblue" d="M540.072,-168.26C551.557,-154.569 575.553,-127.983 601,-112 627.662,-95.2542 661.513,-83.272 686.46,-75.9035"/>
<polygon fill="midnightblue" stroke="midnightblue" points="687.564,-79.228 696.222,-73.1202 685.645,-72.4963 687.564,-79.228"/>
</g>
<!-- Node17 -->
<g id="node17" class="node"><title>Node17</title>
<polygon fill="white" stroke="#bfbfbf" points="610,-112.5 610,-131.5 670,-131.5 670,-112.5 610,-112.5"/>
<text text-anchor="middle" x="640" y="-119.5" font-family="Helvetica,sans-Serif" font-size="10.00">memory.h</text>
</g>
<!-- Node3&#45;&gt;Node17 -->
<g id="edge16" class="edge"><title>Node3&#45;&gt;Node17</title>
<path fill="none" stroke="midnightblue" d="M550.191,-168.324C567.351,-159.664 593.946,-146.242 613.747,-136.249"/>
<polygon fill="midnightblue" stroke="midnightblue" points="615.501,-139.285 622.851,-131.655 612.347,-133.035 615.501,-139.285"/>
</g>
<!-- Node18 -->
<g id="node18" class="node"><title>Node18</title>
<polygon fill="white" stroke="#bfbfbf" points="688,-112.5 688,-131.5 740,-131.5 740,-112.5 688,-112.5"/>
<text text-anchor="middle" x="714" y="-119.5" font-family="Helvetica,sans-Serif" font-size="10.00">assert.h</text>
</g>
<!-- Node3&#45;&gt;Node18 -->
<g id="edge17" class="edge"><title>Node3&#45;&gt;Node18</title>
<path fill="none" stroke="midnightblue" d="M561.68,-168.444C593.253,-159.024 644.054,-143.868 678.211,-133.677"/>
<polygon fill="midnightblue" stroke="midnightblue" points="679.223,-137.028 687.805,-130.815 677.222,-130.32 679.223,-137.028"/>
</g>
<!-- Node19 -->
<g id="node19" class="node"><title>Node19</title>
<g id="a_node19"><a xlink:href="x265_8h.html" target="_top" xlink:title="x265.h">
<polygon fill="white" stroke="black" points="918,-112.5 918,-131.5 964,-131.5 964,-112.5 918,-112.5"/>
<text text-anchor="middle" x="941" y="-119.5" font-family="Helvetica,sans-Serif" font-size="10.00">x265.h</text>
</a>
</g>
</g>
<!-- Node3&#45;&gt;Node19 -->
<g id="edge18" class="edge"><title>Node3&#45;&gt;Node19</title>
<path fill="none" stroke="midnightblue" d="M564.376,-169.584C567.283,-169.005 570.191,-168.465 573,-168 717.558,-144.05 759.081,-159.108 907.723,-131.722"/>
<polygon fill="midnightblue" stroke="midnightblue" points="908.488,-135.14 917.671,-129.856 907.197,-128.26 908.488,-135.14"/>
</g>
<!-- Node21 -->
<g id="node21" class="node"><title>Node21</title>
<g id="a_node21"><a xlink:href="constants_8h.html" target="_top" xlink:title="constants.h">
<polygon fill="white" stroke="black" points="758,-112.5 758,-131.5 826,-131.5 826,-112.5 758,-112.5"/>
<text text-anchor="middle" x="792" y="-119.5" font-family="Helvetica,sans-Serif" font-size="10.00">constants.h</text>
</a>
</g>
</g>
<!-- Node3&#45;&gt;Node21 -->
<g id="edge21" class="edge"><title>Node3&#45;&gt;Node21</title>
<path fill="none" stroke="midnightblue" d="M561.894,-168.454C562.601,-168.301 563.304,-168.149 564,-168 642.062,-151.236 661.814,-148.178 740,-132 742.572,-131.468 745.23,-130.916 747.927,-130.359"/>
<polygon fill="midnightblue" stroke="midnightblue" points="748.676,-133.779 757.774,-128.349 747.276,-126.92 748.676,-133.779"/>
</g>
<!-- Node15 -->
<g id="node15" class="node"><title>Node15</title>
<polygon fill="white" stroke="#bfbfbf" points="658.5,-0.5 658.5,-19.5 713.5,-19.5 713.5,-0.5 658.5,-0.5"/>
<text text-anchor="middle" x="686" y="-7.5" font-family="Helvetica,sans-Serif" font-size="10.00">crtdefs.h</text>
</g>
<!-- Node14&#45;&gt;Node15 -->
<g id="edge14" class="edge"><title>Node14&#45;&gt;Node15</title>
<path fill="none" stroke="midnightblue" d="M715.22,-56.083C710.328,-48.5341 703.173,-37.4948 697.167,-28.2298"/>
<polygon fill="midnightblue" stroke="midnightblue" points="700.048,-26.239 691.672,-19.7511 694.174,-30.0463 700.048,-26.239"/>
</g>
<!-- Node16 -->
<g id="node16" class="node"><title>Node16</title>
<polygon fill="white" stroke="#bfbfbf" points="732,-0.5 732,-19.5 780,-19.5 780,-0.5 732,-0.5"/>
<text text-anchor="middle" x="756" y="-7.5" font-family="Helvetica,sans-Serif" font-size="10.00">limits.h</text>
</g>
<!-- Node14&#45;&gt;Node16 -->
<g id="edge15" class="edge"><title>Node14&#45;&gt;Node16</title>
<path fill="none" stroke="midnightblue" d="M726.78,-56.083C731.672,-48.5341 738.827,-37.4948 744.833,-28.2298"/>
<polygon fill="midnightblue" stroke="midnightblue" points="747.826,-30.0463 750.328,-19.7511 741.952,-26.239 747.826,-30.0463"/>
</g>
<!-- Node19&#45;&gt;Node14 -->
<g id="edge19" class="edge"><title>Node19&#45;&gt;Node14</title>
<path fill="none" stroke="midnightblue" d="M917.945,-114.617C914.612,-113.722 911.221,-112.827 908,-112 854.932,-98.3815 793.074,-83.7349 755.492,-74.9721"/>
<polygon fill="midnightblue" stroke="midnightblue" points="756.096,-71.5192 745.563,-72.6623 754.51,-78.3372 756.096,-71.5192"/>
</g>
<!-- Node20 -->
<g id="node20" class="node"><title>Node20</title>
<g id="a_node20"><a xlink:href="x265__config_8h.html" target="_top" xlink:title="x265_config.h">
<polygon fill="white" stroke="black" points="902.5,-56.5 902.5,-75.5 979.5,-75.5 979.5,-56.5 902.5,-56.5"/>
<text text-anchor="middle" x="941" y="-63.5" font-family="Helvetica,sans-Serif" font-size="10.00">x265_config.h</text>
</a>
</g>
</g>
<!-- Node19&#45;&gt;Node20 -->
<g id="edge20" class="edge"><title>Node19&#45;&gt;Node20</title>
<path fill="none" stroke="midnightblue" d="M941,-112.083C941,-105.006 941,-94.8611 941,-85.9865"/>
<polygon fill="midnightblue" stroke="midnightblue" points="944.5,-85.751 941,-75.7511 937.5,-85.7511 944.5,-85.751"/>
</g>
<!-- Node21&#45;&gt;Node3 -->
<g id="edge22" class="edge"><title>Node21&#45;&gt;Node3</title>
<path fill="none" stroke="midnightblue" d="M760.26,-131.532C759.501,-131.689 758.747,-131.845 758,-132 679.814,-148.178 660.062,-151.236 582,-168 579.414,-168.555 576.736,-169.139 574.02,-169.731"/>
<polygon fill="midnightblue" stroke="midnightblue" points="573.145,-166.34 564.112,-171.877 574.627,-173.181 573.145,-166.34"/>
</g>
<!-- Node22&#45;&gt;Node3 -->
<g id="edge24" class="edge"><title>Node22&#45;&gt;Node3</title>
<path fill="none" stroke="midnightblue" d="M668.489,-224.444C641.404,-215.359 598.41,-200.939 568.131,-190.783"/>
<polygon fill="midnightblue" stroke="midnightblue" points="568.986,-187.378 558.392,-187.516 566.76,-194.015 568.986,-187.378"/>
</g>
<!-- Node22&#45;&gt;Node19 -->
<g id="edge25" class="edge"><title>Node22&#45;&gt;Node19</title>
<path fill="none" stroke="midnightblue" d="M726.67,-228.985C762.516,-223.574 820.944,-211.743 866,-188 889.923,-175.393 912.7,-153.816 926.747,-139.004"/>
<polygon fill="midnightblue" stroke="midnightblue" points="929.395,-141.294 933.603,-131.571 924.25,-136.548 929.395,-141.294"/>
</g>
<!-- Node23 -->
<g id="node23" class="node"><title>Node23</title>
<polygon fill="white" stroke="#bfbfbf" points="582.5,-168.5 582.5,-187.5 639.5,-187.5 639.5,-168.5 582.5,-168.5"/>
<text text-anchor="middle" x="611" y="-175.5" font-family="Helvetica,sans-Serif" font-size="10.00">pthread.h</text>
</g>
<!-- Node22&#45;&gt;Node23 -->
<g id="edge26" class="edge"><title>Node22&#45;&gt;Node23</title>
<path fill="none" stroke="midnightblue" d="M680.665,-224.324C667.838,-215.979 648.215,-203.212 633.06,-193.352"/>
<polygon fill="midnightblue" stroke="midnightblue" points="634.593,-190.174 624.302,-187.655 630.776,-196.042 634.593,-190.174"/>
</g>
<!-- Node24 -->
<g id="node24" class="node"><title>Node24</title>
<polygon fill="white" stroke="#bfbfbf" points="657.5,-168.5 657.5,-187.5 730.5,-187.5 730.5,-168.5 657.5,-168.5"/>
<text text-anchor="middle" x="694" y="-175.5" font-family="Helvetica,sans-Serif" font-size="10.00">semaphore.h</text>
</g>
<!-- Node22&#45;&gt;Node24 -->
<g id="edge27" class="edge"><title>Node22&#45;&gt;Node24</title>
<path fill="none" stroke="midnightblue" d="M694,-224.083C694,-217.006 694,-206.861 694,-197.986"/>
<polygon fill="midnightblue" stroke="midnightblue" points="697.5,-197.751 694,-187.751 690.5,-197.751 697.5,-197.751"/>
</g>
<!-- Node25 -->
<g id="node25" class="node"><title>Node25</title>
<polygon fill="white" stroke="#bfbfbf" points="748.5,-168.5 748.5,-187.5 795.5,-187.5 795.5,-168.5 748.5,-168.5"/>
<text text-anchor="middle" x="772" y="-175.5" font-family="Helvetica,sans-Serif" font-size="10.00">errno.h</text>
</g>
<!-- Node22&#45;&gt;Node25 -->
<g id="edge28" class="edge"><title>Node22&#45;&gt;Node25</title>
<path fill="none" stroke="midnightblue" d="M706.532,-224.324C718.586,-215.979 737.027,-203.212 751.269,-193.352"/>
<polygon fill="midnightblue" stroke="midnightblue" points="753.269,-196.224 759.499,-187.655 749.285,-190.469 753.269,-196.224"/>
</g>
<!-- Node26 -->
<g id="node26" class="node"><title>Node26</title>
<polygon fill="white" stroke="#bfbfbf" points="814,-168.5 814,-187.5 858,-187.5 858,-168.5 814,-168.5"/>
<text text-anchor="middle" x="836" y="-175.5" font-family="Helvetica,sans-Serif" font-size="10.00">fcntl.h</text>
</g>
<!-- Node22&#45;&gt;Node26 -->
<g id="edge29" class="edge"><title>Node22&#45;&gt;Node26</title>
<path fill="none" stroke="midnightblue" d="M716.5,-224.444C740.077,-215.478 777.322,-201.314 803.964,-191.183"/>
<polygon fill="midnightblue" stroke="midnightblue" points="805.502,-194.342 813.605,-187.516 803.014,-187.8 805.502,-194.342"/>
</g>
<!-- Node27&#45;&gt;Node2 -->
<g id="edge32" class="edge"><title>Node27&#45;&gt;Node2</title>
<path fill="none" stroke="midnightblue" d="M569.44,-280.083C574.949,-272.455 583.031,-261.264 589.765,-251.941"/>
<polygon fill="midnightblue" stroke="midnightblue" points="592.662,-253.907 595.68,-243.751 586.987,-249.809 592.662,-253.907"/>
</g>
<!-- Node27&#45;&gt;Node3 -->
<g id="edge31" class="edge"><title>Node27&#45;&gt;Node3</title>
<path fill="none" stroke="midnightblue" d="M560.646,-280.368C555.783,-262.537 544.535,-221.295 537.983,-197.272"/>
<polygon fill="midnightblue" stroke="midnightblue" points="541.351,-196.318 535.343,-187.591 534.598,-198.16 541.351,-196.318"/>
</g>
</g>
</svg>
        <g id="navigator" transform="translate(0 0)" fill="#404254">
                <rect fill="#f2f5e9" fill-opacity="0.5" stroke="#606060" stroke-width=".5" x="0" y="0" width="60" height="60"/>
                <use id="zoomplus" xlink:href="#zoomPlus" x="17" y="9" onmousedown="handleZoom(evt,'in')"/>
                <use id="zoomminus" xlink:href="#zoomMin" x="42" y="9" onmousedown="handleZoom(evt,'out')"/>
                <use id="reset" xlink:href="#resetDef" x="30" y="36" onmousedown="handleReset()"/>
                <g id="arrowUp" xlink:href="#dirArrow" transform="translate(30 24)" onmousedown="handlePan(0,-1)">
                  <use xlink:href="#rim" fill="#404040">
                        <set attributeName="fill" to="#808080" begin="arrowUp.mouseover" end="arrowUp.mouseout"/>
                  </use>
                  <path fill="none" stroke="white" stroke-width="1.5" d="M0,-3.0v7 M-2.5,-0.5L0,-3.0L2.5,-0.5"/>
                </g>
                <g id="arrowRight" xlink:href="#dirArrow" transform="rotate(90) translate(36 -43)" onmousedown="handlePan(1,0)">
                  <use xlink:href="#rim" fill="#404040">
                        <set attributeName="fill" to="#808080" begin="arrowRight.mouseover" end="arrowRight.mouseout"/>
                  </use>
                  <path fill="none" stroke="white" stroke-width="1.5" d="M0,-3.0v7 M-2.5,-0.5L0,-3.0L2.5,-0.5"/>
                </g>
                <g id="arrowDown" xlink:href="#dirArrow" transform="rotate(180) translate(-30 -48)" onmousedown="handlePan(0,1)">
                  <use xlink:href="#rim" fill="#404040">
                        <set attributeName="fill" to="#808080" begin="arrowDown.mouseover" end="arrowDown.mouseout"/>
                  </use>
                  <path fill="none" stroke="white" stroke-width="1.5" d="M0,-3.0v7 M-2.5,-0.5L0,-3.0L2.5,-0.5"/>
                </g>
                <g id="arrowLeft" xlink:href="#dirArrow" transform="rotate(270) translate(-36 17)" onmousedown="handlePan(-1,0)">
                  <use xlink:href="#rim" fill="#404040">
                        <set attributeName="fill" to="#808080" begin="arrowLeft.mouseover" end="arrowLeft.mouseout"/>
                  </use>
                  <path fill="none" stroke="white" stroke-width="1.5" d="M0,-3.0v7 M-2.5,-0.5L0,-3.0L2.5,-0.5"/>
                </g>
        </g>
        <svg viewBox="0 0 15 15" width="100%" height="30px" preserveAspectRatio="xMaxYMin meet">
         <g id="arrow_out" transform="scale(0.3 0.3)">
          <a xlink:href="wavefront_8cpp__incl_org.svg" target="_base">
           <rect id="button" ry="5" rx="5" y="6" x="6" height="38" width="38"
                fill="#f2f5e9" fill-opacity="0.5" stroke="#606060" stroke-width="1.0"/>
           <path id="arrow"
             d="M 11.500037,31.436501 C 11.940474,20.09759 22.043105,11.32322 32.158766,21.979434 L 37.068811,17.246167 C 37.068811,17.246167 37.088388,32 37.088388,32 L 22.160133,31.978069 C 22.160133,31.978069 26.997745,27.140456 26.997745,27.140456 C 18.528582,18.264221 13.291696,25.230495 11.500037,31.436501 z"
             style="fill:#404040;"/>
          </a>
         </g>
        </svg>
</svg>
