<?xml version="1.0" encoding="UTF-8" standalone="no"?>
<!DOCTYPE svg PUBLIC "-//W3C//DTD SVG 1.1//EN"
 "http://www.w3.org/Graphics/SVG/1.1/DTD/svg11.dtd">
<!-- Generated by graphviz version 2.36.0 (20140111.2315)
 -->
<!-- Title: source/x265.cpp Pages: 1 -->
<!--zoomable 308 -->
<svg id="main" version="1.1" xmlns="http://www.w3.org/2000/svg" xmlns:xlink="http://www.w3.org/1999/xlink" xml:space="preserve" onload="init(evt)">
<style type="text/css"><![CDATA[
.edge:hover path { stroke: red; }
.edge:hover polygon { stroke: red; fill: red; }
]]></style>
<script type="text/javascript"><![CDATA[
var edges = document.getElementsByTagName('g');
if (edges && edges.length) {
  for (var i=0;i<edges.length;i++) {
    if (edges[i].id.substr(0,4)=='edge') {
      edges[i].setAttribute('class','edge');
    }
  }
}
]]></script>
        <defs>
                <circle id="rim" cx="0" cy="0" r="7"/>
                <circle id="rim2" cx="0" cy="0" r="3.5"/>
                <g id="zoomPlus">
                        <use xlink:href="#rim" fill="#404040">
                                <set attributeName="fill" to="#808080" begin="zoomplus.mouseover" end="zoomplus.mouseout"/>
                        </use>
                        <path d="M-4,0h8M0,-4v8" fill="none" stroke="white" stroke-width="1.5" pointer-events="none"/>
                </g>
                <g id="zoomMin">
                        <use xlink:href="#rim" fill="#404040">
                                <set attributeName="fill" to="#808080" begin="zoomminus.mouseover" end="zoomminus.mouseout"/>
                        </use>
                        <path d="M-4,0h8" fill="none" stroke="white" stroke-width="1.5" pointer-events="none"/>
                </g>
                <g id="dirArrow">
                        <path fill="none" stroke="white" stroke-width="1.5" d="M0,-3.0v7 M-2.5,-0.5L0,-3.0L2.5,-0.5"/>
                </g>
               <g id="resetDef">
                       <use xlink:href="#rim2" fill="#404040">
                               <set attributeName="fill" to="#808080" begin="reset.mouseover" end="reset.mouseout"/>
                       </use>
               </g>
        </defs>

<script type="text/javascript">
var viewWidth = 1108;
var viewHeight = 308;
var sectionId = 'dynsection-0';
</script>
<script xlink:href="svgpan.js"/>
<svg id="graph" class="graph">
<g id="viewport">
<title>source/x265.cpp</title>
<polygon fill="white" stroke="none" points="-4,4 -4,-304 1104,-304 1104,4 -4,4"/>
<!-- Node1 -->
<g id="node1" class="node"><title>Node1</title>
<polygon fill="#bfbfbf" stroke="black" points="484.5,-280.5 484.5,-299.5 573.5,-299.5 573.5,-280.5 484.5,-280.5"/>
<text text-anchor="middle" x="529" y="-287.5" font-family="Helvetica,sans-Serif" font-size="10.00">source/x265.cpp</text>
</g>
<!-- Node2 -->
<g id="node2" class="node"><title>Node2</title>
<g id="a_node2"><a xlink:href="input_8h.html" target="_top" xlink:title="input/input.h">
<polygon fill="white" stroke="black" points="18,-168.5 18,-187.5 88,-187.5 88,-168.5 18,-168.5"/>
<text text-anchor="middle" x="53" y="-175.5" font-family="Helvetica,sans-Serif" font-size="10.00">input/input.h</text>
</a>
</g>
</g>
<!-- Node1&#45;&gt;Node2 -->
<g id="edge1" class="edge"><title>Node1&#45;&gt;Node2</title>
<path fill="none" stroke="midnightblue" d="M484.191,-288.549C388.871,-286.904 169.444,-279.281 105,-244 85.451,-233.298 70.5842,-211.901 61.8527,-196.579"/>
<polygon fill="midnightblue" stroke="midnightblue" points="64.8259,-194.717 57.0134,-187.561 58.6578,-198.027 64.8259,-194.717"/>
</g>
<!-- Node3 -->
<g id="node3" class="node"><title>Node3</title>
<g id="a_node3"><a xlink:href="x265_8h.html" target="_top" xlink:title="x265.h">
<polygon fill="white" stroke="black" points="30,-112.5 30,-131.5 76,-131.5 76,-112.5 30,-112.5"/>
<text text-anchor="middle" x="53" y="-119.5" font-family="Helvetica,sans-Serif" font-size="10.00">x265.h</text>
</a>
</g>
</g>
<!-- Node1&#45;&gt;Node3 -->
<g id="edge31" class="edge"><title>Node1&#45;&gt;Node3</title>
<path fill="none" stroke="midnightblue" d="M484.366,-284.237C432.729,-278.021 345.51,-265.343 273,-244 211.473,-225.89 195.657,-219.874 140,-188 114.503,-173.399 87.8096,-152.488 70.8241,-138.36"/>
<polygon fill="midnightblue" stroke="midnightblue" points="72.7841,-135.434 62.8845,-131.659 68.2695,-140.783 72.7841,-135.434"/>
</g>
<!-- Node8 -->
<g id="node8" class="node"><title>Node8</title>
<g id="a_node8"><a xlink:href="output_8h.html" target="_top" xlink:title="output/output.h">
<polygon fill="white" stroke="black" points="149,-168.5 149,-187.5 231,-187.5 231,-168.5 149,-168.5"/>
<text text-anchor="middle" x="190" y="-175.5" font-family="Helvetica,sans-Serif" font-size="10.00">output/output.h</text>
</a>
</g>
</g>
<!-- Node1&#45;&gt;Node8 -->
<g id="edge7" class="edge"><title>Node1&#45;&gt;Node8</title>
<path fill="none" stroke="midnightblue" d="M484.301,-282.617C441.575,-275.752 375.747,-263.171 321,-244 281.692,-230.235 238.97,-207.421 213.35,-192.807"/>
<polygon fill="midnightblue" stroke="midnightblue" points="214.82,-189.615 204.411,-187.644 211.319,-195.677 214.82,-189.615"/>
</g>
<!-- Node9 -->
<g id="node9" class="node"><title>Node9</title>
<g id="a_node9"><a xlink:href="filters_8h.html" target="_top" xlink:title="filters/filters.h">
<polygon fill="white" stroke="black" points="250,-168.5 250,-187.5 326,-187.5 326,-168.5 250,-168.5"/>
<text text-anchor="middle" x="288" y="-175.5" font-family="Helvetica,sans-Serif" font-size="10.00">filters/filters.h</text>
</a>
</g>
</g>
<!-- Node1&#45;&gt;Node9 -->
<g id="edge9" class="edge"><title>Node1&#45;&gt;Node9</title>
<path fill="none" stroke="midnightblue" d="M484.164,-284.931C446.029,-279.863 390.941,-268.633 349,-244 328.446,-231.928 310.542,-210.851 299.541,-195.976"/>
<polygon fill="midnightblue" stroke="midnightblue" points="302.269,-193.773 293.621,-187.652 296.564,-197.83 302.269,-193.773"/>
</g>
<!-- Node10 -->
<g id="node10" class="node"><title>Node10</title>
<g id="a_node10"><a xlink:href="common_8h.html" target="_top" xlink:title="common.h">
<polygon fill="white" stroke="black" points="433,-168.5 433,-187.5 495,-187.5 495,-168.5 433,-168.5"/>
<text text-anchor="middle" x="464" y="-175.5" font-family="Helvetica,sans-Serif" font-size="10.00">common.h</text>
</a>
</g>
</g>
<!-- Node1&#45;&gt;Node10 -->
<g id="edge11" class="edge"><title>Node1&#45;&gt;Node10</title>
<path fill="none" stroke="midnightblue" d="M484.159,-283.405C438.824,-276.719 373.322,-263.876 358,-244 336.646,-216.299 384.781,-197.626 423,-187.649"/>
<polygon fill="midnightblue" stroke="midnightblue" points="424.087,-190.985 432.951,-185.182 422.403,-184.191 424.087,-190.985"/>
</g>
<!-- Node24 -->
<g id="node24" class="node"><title>Node24</title>
<g id="a_node24"><a xlink:href="param_8h.html" target="_top" xlink:title="param.h">
<polygon fill="white" stroke="black" points="367,-224.5 367,-243.5 419,-243.5 419,-224.5 367,-224.5"/>
<text text-anchor="middle" x="393" y="-231.5" font-family="Helvetica,sans-Serif" font-size="10.00">param.h</text>
</a>
</g>
</g>
<!-- Node1&#45;&gt;Node24 -->
<g id="edge28" class="edge"><title>Node1&#45;&gt;Node24</title>
<path fill="none" stroke="midnightblue" d="M507.45,-280.444C484.969,-271.517 449.512,-257.439 424.02,-247.317"/>
<polygon fill="midnightblue" stroke="midnightblue" points="425.035,-243.954 414.449,-243.516 422.451,-250.46 425.035,-243.954"/>
</g>
<!-- Node25 -->
<g id="node25" class="node"><title>Node25</title>
<g id="a_node25"><a xlink:href="cpu_8h.html" target="_top" xlink:title="cpu.h">
<polygon fill="white" stroke="black" points="437.5,-224.5 437.5,-243.5 478.5,-243.5 478.5,-224.5 437.5,-224.5"/>
<text text-anchor="middle" x="458" y="-231.5" font-family="Helvetica,sans-Serif" font-size="10.00">cpu.h</text>
</a>
</g>
</g>
<!-- Node1&#45;&gt;Node25 -->
<g id="edge29" class="edge"><title>Node1&#45;&gt;Node25</title>
<path fill="none" stroke="midnightblue" d="M517.593,-280.324C506.891,-272.185 490.659,-259.839 477.837,-250.087"/>
<polygon fill="midnightblue" stroke="midnightblue" points="479.693,-247.102 469.615,-243.834 475.456,-252.673 479.693,-247.102"/>
</g>
<!-- Node26 -->
<g id="node26" class="node"><title>Node26</title>
<g id="a_node26"><a xlink:href="ppa_8h.html" target="_top" xlink:title="PPA/ppa.h">
<polygon fill="white" stroke="black" points="497,-224.5 497,-243.5 561,-243.5 561,-224.5 497,-224.5"/>
<text text-anchor="middle" x="529" y="-231.5" font-family="Helvetica,sans-Serif" font-size="10.00">PPA/ppa.h</text>
</a>
</g>
</g>
<!-- Node1&#45;&gt;Node26 -->
<g id="edge32" class="edge"><title>Node1&#45;&gt;Node26</title>
<path fill="none" stroke="midnightblue" d="M529,-280.083C529,-273.006 529,-262.861 529,-253.986"/>
<polygon fill="midnightblue" stroke="midnightblue" points="532.5,-253.751 529,-243.751 525.5,-253.751 532.5,-253.751"/>
</g>
<!-- Node27 -->
<g id="node27" class="node"><title>Node27</title>
<polygon fill="white" stroke="#bfbfbf" points="579,-224.5 579,-243.5 629,-243.5 629,-224.5 579,-224.5"/>
<text text-anchor="middle" x="604" y="-231.5" font-family="Helvetica,sans-Serif" font-size="10.00">signal.h</text>
</g>
<!-- Node1&#45;&gt;Node27 -->
<g id="edge33" class="edge"><title>Node1&#45;&gt;Node27</title>
<path fill="none" stroke="midnightblue" d="M541.05,-280.324C552.463,-272.107 569.831,-259.602 583.435,-249.807"/>
<polygon fill="midnightblue" stroke="midnightblue" points="585.66,-252.517 591.731,-243.834 581.57,-246.837 585.66,-252.517"/>
</g>
<!-- Node28 -->
<g id="node28" class="node"><title>Node28</title>
<polygon fill="white" stroke="#bfbfbf" points="647.5,-224.5 647.5,-243.5 694.5,-243.5 694.5,-224.5 647.5,-224.5"/>
<text text-anchor="middle" x="671" y="-231.5" font-family="Helvetica,sans-Serif" font-size="10.00">errno.h</text>
</g>
<!-- Node1&#45;&gt;Node28 -->
<g id="edge34" class="edge"><title>Node1&#45;&gt;Node28</title>
<path fill="none" stroke="midnightblue" d="M551.5,-280.444C575.077,-271.478 612.322,-257.314 638.964,-247.183"/>
<polygon fill="midnightblue" stroke="midnightblue" points="640.502,-250.342 648.605,-243.516 638.014,-243.8 640.502,-250.342"/>
</g>
<!-- Node29 -->
<g id="node29" class="node"><title>Node29</title>
<polygon fill="white" stroke="#bfbfbf" points="713,-224.5 713,-243.5 757,-243.5 757,-224.5 713,-224.5"/>
<text text-anchor="middle" x="735" y="-231.5" font-family="Helvetica,sans-Serif" font-size="10.00">fcntl.h</text>
</g>
<!-- Node1&#45;&gt;Node29 -->
<g id="edge35" class="edge"><title>Node1&#45;&gt;Node29</title>
<path fill="none" stroke="midnightblue" d="M562.737,-280.499C597.833,-271.604 654.349,-257.131 703,-244 703.101,-243.973 703.202,-243.945 703.303,-243.918"/>
<polygon fill="midnightblue" stroke="midnightblue" points="704.268,-247.283 712.983,-241.258 702.413,-240.533 704.268,-247.283"/>
</g>
<!-- Node30 -->
<g id="node30" class="node"><title>Node30</title>
<g id="a_node30"><a xlink:href="getopt_8h.html" target="_top" xlink:title="getopt.h">
<polygon fill="white" stroke="black" points="775,-224.5 775,-243.5 827,-243.5 827,-224.5 775,-224.5"/>
<text text-anchor="middle" x="801" y="-231.5" font-family="Helvetica,sans-Serif" font-size="10.00">getopt.h</text>
</a>
</g>
</g>
<!-- Node1&#45;&gt;Node30 -->
<g id="edge36" class="edge"><title>Node1&#45;&gt;Node30</title>
<path fill="none" stroke="midnightblue" d="M573.52,-281.286C619.037,-273.226 691.995,-259.831 764.88,-243.917"/>
<polygon fill="midnightblue" stroke="midnightblue" points="765.68,-247.325 774.694,-241.759 764.176,-240.489 765.68,-247.325"/>
</g>
<!-- Node32 -->
<g id="node32" class="node"><title>Node32</title>
<polygon fill="white" stroke="#bfbfbf" points="845.5,-224.5 845.5,-243.5 886.5,-243.5 886.5,-224.5 845.5,-224.5"/>
<text text-anchor="middle" x="866" y="-231.5" font-family="Helvetica,sans-Serif" font-size="10.00">string</text>
</g>
<!-- Node1&#45;&gt;Node32 -->
<g id="edge39" class="edge"><title>Node1&#45;&gt;Node32</title>
<path fill="none" stroke="midnightblue" d="M573.601,-284.529C631.74,-278.246 736.669,-265.358 835.587,-243.781"/>
<polygon fill="midnightblue" stroke="midnightblue" points="836.441,-247.177 845.447,-241.597 834.927,-240.343 836.441,-247.177"/>
</g>
<!-- Node33 -->
<g id="node33" class="node"><title>Node33</title>
<polygon fill="white" stroke="#bfbfbf" points="905,-224.5 905,-243.5 957,-243.5 957,-224.5 905,-224.5"/>
<text text-anchor="middle" x="931" y="-231.5" font-family="Helvetica,sans-Serif" font-size="10.00">ostream</text>
</g>
<!-- Node1&#45;&gt;Node33 -->
<g id="edge40" class="edge"><title>Node1&#45;&gt;Node33</title>
<path fill="none" stroke="midnightblue" d="M573.779,-285.278C641.206,-279.284 772.946,-266.059 894.854,-243.791"/>
<polygon fill="midnightblue" stroke="midnightblue" points="895.54,-247.223 904.736,-241.961 894.265,-240.34 895.54,-247.223"/>
</g>
<!-- Node34 -->
<g id="node34" class="node"><title>Node34</title>
<polygon fill="white" stroke="#bfbfbf" points="975,-224.5 975,-243.5 1025,-243.5 1025,-224.5 975,-224.5"/>
<text text-anchor="middle" x="1000" y="-231.5" font-family="Helvetica,sans-Serif" font-size="10.00">fstream</text>
</g>
<!-- Node1&#45;&gt;Node34 -->
<g id="edge41" class="edge"><title>Node1&#45;&gt;Node34</title>
<path fill="none" stroke="midnightblue" d="M573.677,-286.708C651.349,-282.223 816.38,-270.483 964.655,-243.977"/>
<polygon fill="midnightblue" stroke="midnightblue" points="965.634,-247.356 974.848,-242.126 964.383,-240.469 965.634,-247.356"/>
</g>
<!-- Node2&#45;&gt;Node3 -->
<g id="edge2" class="edge"><title>Node2&#45;&gt;Node3</title>
<path fill="none" stroke="midnightblue" d="M53,-168.083C53,-161.006 53,-150.861 53,-141.986"/>
<polygon fill="midnightblue" stroke="midnightblue" points="56.5001,-141.751 53,-131.751 49.5001,-141.751 56.5001,-141.751"/>
</g>
<!-- Node4 -->
<g id="node4" class="node"><title>Node4</title>
<g id="a_node4"><a xlink:href="stdint_8h.html" target="_top" xlink:title="stdint.h">
<polygon fill="white" stroke="black" points="94.5,-56.5 94.5,-75.5 143.5,-75.5 143.5,-56.5 94.5,-56.5"/>
<text text-anchor="middle" x="119" y="-63.5" font-family="Helvetica,sans-Serif" font-size="10.00">stdint.h</text>
</a>
</g>
</g>
<!-- Node3&#45;&gt;Node4 -->
<g id="edge3" class="edge"><title>Node3&#45;&gt;Node4</title>
<path fill="none" stroke="midnightblue" d="M63.604,-112.324C73.4562,-104.263 88.3509,-92.0765 100.215,-82.3695"/>
<polygon fill="midnightblue" stroke="midnightblue" points="102.68,-84.8752 108.203,-75.8339 98.2471,-79.4575 102.68,-84.8752"/>
</g>
<!-- Node7 -->
<g id="node7" class="node"><title>Node7</title>
<g id="a_node7"><a xlink:href="x265__config_8h.html" target="_top" xlink:title="x265_config.h">
<polygon fill="white" stroke="black" points="-0.5,-56.5 -0.5,-75.5 76.5,-75.5 76.5,-56.5 -0.5,-56.5"/>
<text text-anchor="middle" x="38" y="-63.5" font-family="Helvetica,sans-Serif" font-size="10.00">x265_config.h</text>
</a>
</g>
</g>
<!-- Node3&#45;&gt;Node7 -->
<g id="edge6" class="edge"><title>Node3&#45;&gt;Node7</title>
<path fill="none" stroke="midnightblue" d="M50.5231,-112.083C48.5135,-104.849 45.6135,-94.4087 43.1102,-85.3968"/>
<polygon fill="midnightblue" stroke="midnightblue" points="46.4797,-84.4495 40.4309,-75.7511 39.7351,-86.323 46.4797,-84.4495"/>
</g>
<!-- Node5 -->
<g id="node5" class="node"><title>Node5</title>
<polygon fill="white" stroke="#bfbfbf" points="56.5,-0.5 56.5,-19.5 111.5,-19.5 111.5,-0.5 56.5,-0.5"/>
<text text-anchor="middle" x="84" y="-7.5" font-family="Helvetica,sans-Serif" font-size="10.00">crtdefs.h</text>
</g>
<!-- Node4&#45;&gt;Node5 -->
<g id="edge4" class="edge"><title>Node4&#45;&gt;Node5</title>
<path fill="none" stroke="midnightblue" d="M113.22,-56.083C108.328,-48.5341 101.173,-37.4948 95.1674,-28.2298"/>
<polygon fill="midnightblue" stroke="midnightblue" points="98.048,-26.239 89.672,-19.7511 92.174,-30.0463 98.048,-26.239"/>
</g>
<!-- Node6 -->
<g id="node6" class="node"><title>Node6</title>
<polygon fill="white" stroke="#bfbfbf" points="130,-0.5 130,-19.5 178,-19.5 178,-0.5 130,-0.5"/>
<text text-anchor="middle" x="154" y="-7.5" font-family="Helvetica,sans-Serif" font-size="10.00">limits.h</text>
</g>
<!-- Node4&#45;&gt;Node6 -->
<g id="edge5" class="edge"><title>Node4&#45;&gt;Node6</title>
<path fill="none" stroke="midnightblue" d="M124.78,-56.083C129.672,-48.5341 136.827,-37.4948 142.833,-28.2298"/>
<polygon fill="midnightblue" stroke="midnightblue" points="145.826,-30.0463 148.328,-19.7511 139.952,-26.239 145.826,-30.0463"/>
</g>
<!-- Node8&#45;&gt;Node3 -->
<g id="edge8" class="edge"><title>Node8&#45;&gt;Node3</title>
<path fill="none" stroke="midnightblue" d="M168.292,-168.444C145.645,-159.517 109.928,-145.439 84.2482,-135.317"/>
<polygon fill="midnightblue" stroke="midnightblue" points="85.1934,-131.927 74.6065,-131.516 82.6264,-138.44 85.1934,-131.927"/>
</g>
<!-- Node9&#45;&gt;Node3 -->
<g id="edge10" class="edge"><title>Node9&#45;&gt;Node3</title>
<path fill="none" stroke="midnightblue" d="M249.633,-168.461C209.715,-159.534 145.419,-145.037 90,-132 88.7331,-131.702 87.4422,-131.397 86.1385,-131.087"/>
<polygon fill="midnightblue" stroke="midnightblue" points="86.6205,-127.603 76.0797,-128.671 84.9859,-134.409 86.6205,-127.603"/>
</g>
<!-- Node10&#45;&gt;Node3 -->
<g id="edge25" class="edge"><title>Node10&#45;&gt;Node3</title>
<path fill="none" stroke="midnightblue" d="M432.782,-174.508C368.355,-169.087 216.13,-154.845 90,-132 88.7193,-131.768 87.4168,-131.519 86.1033,-131.256"/>
<polygon fill="midnightblue" stroke="midnightblue" points="86.5196,-127.764 76.0023,-129.043 85.0218,-134.602 86.5196,-127.764"/>
</g>
<!-- Node10&#45;&gt;Node4 -->
<g id="edge22" class="edge"><title>Node10&#45;&gt;Node4</title>
<path fill="none" stroke="midnightblue" d="M432.75,-175.113C352.503,-169.961 144,-154.518 123,-132 111.694,-119.876 112.027,-100.317 114.375,-85.8174"/>
<polygon fill="midnightblue" stroke="midnightblue" points="117.824,-86.4216 116.404,-75.9223 110.967,-85.0153 117.824,-86.4216"/>
</g>
<!-- Node11 -->
<g id="node11" class="node"><title>Node11</title>
<polygon fill="white" stroke="#bfbfbf" points="132,-112.5 132,-131.5 188,-131.5 188,-112.5 132,-112.5"/>
<text text-anchor="middle" x="160" y="-119.5" font-family="Helvetica,sans-Serif" font-size="10.00">algorithm</text>
</g>
<!-- Node10&#45;&gt;Node11 -->
<g id="edge12" class="edge"><title>Node10&#45;&gt;Node11</title>
<path fill="none" stroke="midnightblue" d="M432.625,-172.457C384.348,-165.307 288.752,-150.509 198.12,-132.113"/>
<polygon fill="midnightblue" stroke="midnightblue" points="198.734,-128.667 188.235,-130.088 197.329,-135.524 198.734,-128.667"/>
</g>
<!-- Node12 -->
<g id="node12" class="node"><title>Node12</title>
<polygon fill="white" stroke="#bfbfbf" points="206.5,-112.5 206.5,-131.5 251.5,-131.5 251.5,-112.5 206.5,-112.5"/>
<text text-anchor="middle" x="229" y="-119.5" font-family="Helvetica,sans-Serif" font-size="10.00">climits</text>
</g>
<!-- Node10&#45;&gt;Node12 -->
<g id="edge13" class="edge"><title>Node10&#45;&gt;Node12</title>
<path fill="none" stroke="midnightblue" d="M432.921,-170.675C394.853,-162.806 328.194,-148.628 261.518,-132.017"/>
<polygon fill="midnightblue" stroke="midnightblue" points="262.235,-128.589 251.684,-129.549 260.531,-135.378 262.235,-128.589"/>
</g>
<!-- Node13 -->
<g id="node13" class="node"><title>Node13</title>
<polygon fill="white" stroke="#bfbfbf" points="270,-112.5 270,-131.5 314,-131.5 314,-112.5 270,-112.5"/>
<text text-anchor="middle" x="292" y="-119.5" font-family="Helvetica,sans-Serif" font-size="10.00">cmath</text>
</g>
<!-- Node10&#45;&gt;Node13 -->
<g id="edge14" class="edge"><title>Node10&#45;&gt;Node13</title>
<path fill="none" stroke="midnightblue" d="M436.746,-168.444C406.146,-158.837 356.539,-143.262 324.09,-133.075"/>
<polygon fill="midnightblue" stroke="midnightblue" points="324.793,-129.627 314.204,-129.971 322.696,-136.306 324.793,-129.627"/>
</g>
<!-- Node14 -->
<g id="node14" class="node"><title>Node14</title>
<polygon fill="white" stroke="#bfbfbf" points="332.5,-112.5 332.5,-131.5 381.5,-131.5 381.5,-112.5 332.5,-112.5"/>
<text text-anchor="middle" x="357" y="-119.5" font-family="Helvetica,sans-Serif" font-size="10.00">cstdarg</text>
</g>
<!-- Node10&#45;&gt;Node14 -->
<g id="edge15" class="edge"><title>Node10&#45;&gt;Node14</title>
<path fill="none" stroke="midnightblue" d="M446.809,-168.324C429.649,-159.664 403.054,-146.242 383.253,-136.249"/>
<polygon fill="midnightblue" stroke="midnightblue" points="384.653,-133.035 374.149,-131.655 381.499,-139.285 384.653,-133.035"/>
</g>
<!-- Node15 -->
<g id="node15" class="node"><title>Node15</title>
<polygon fill="white" stroke="#bfbfbf" points="399.5,-112.5 399.5,-131.5 448.5,-131.5 448.5,-112.5 399.5,-112.5"/>
<text text-anchor="middle" x="424" y="-119.5" font-family="Helvetica,sans-Serif" font-size="10.00">cstddef</text>
</g>
<!-- Node10&#45;&gt;Node15 -->
<g id="edge16" class="edge"><title>Node10&#45;&gt;Node15</title>
<path fill="none" stroke="midnightblue" d="M457.395,-168.083C451.745,-160.455 443.455,-149.264 436.549,-139.941"/>
<polygon fill="midnightblue" stroke="midnightblue" points="439.247,-137.703 430.482,-131.751 433.622,-141.87 439.247,-137.703"/>
</g>
<!-- Node16 -->
<g id="node16" class="node"><title>Node16</title>
<polygon fill="white" stroke="#bfbfbf" points="466.5,-112.5 466.5,-131.5 509.5,-131.5 509.5,-112.5 466.5,-112.5"/>
<text text-anchor="middle" x="488" y="-119.5" font-family="Helvetica,sans-Serif" font-size="10.00">cstdio</text>
</g>
<!-- Node10&#45;&gt;Node16 -->
<g id="edge17" class="edge"><title>Node10&#45;&gt;Node16</title>
<path fill="none" stroke="midnightblue" d="M467.963,-168.083C471.213,-160.77 475.919,-150.181 479.954,-141.103"/>
<polygon fill="midnightblue" stroke="midnightblue" points="483.248,-142.311 484.111,-131.751 476.851,-139.468 483.248,-142.311"/>
</g>
<!-- Node17 -->
<g id="node17" class="node"><title>Node17</title>
<polygon fill="white" stroke="#bfbfbf" points="527.5,-112.5 527.5,-131.5 572.5,-131.5 572.5,-112.5 527.5,-112.5"/>
<text text-anchor="middle" x="550" y="-119.5" font-family="Helvetica,sans-Serif" font-size="10.00">cstdlib</text>
</g>
<!-- Node10&#45;&gt;Node17 -->
<g id="edge18" class="edge"><title>Node10&#45;&gt;Node17</title>
<path fill="none" stroke="midnightblue" d="M477.817,-168.324C491.233,-159.9 511.824,-146.971 527.586,-137.074"/>
<polygon fill="midnightblue" stroke="midnightblue" points="529.609,-139.936 536.217,-131.655 525.887,-134.008 529.609,-139.936"/>
</g>
<!-- Node18 -->
<g id="node18" class="node"><title>Node18</title>
<polygon fill="white" stroke="#bfbfbf" points="591,-112.5 591,-131.5 637,-131.5 637,-112.5 591,-112.5"/>
<text text-anchor="middle" x="614" y="-119.5" font-family="Helvetica,sans-Serif" font-size="10.00">cstring</text>
</g>
<!-- Node10&#45;&gt;Node18 -->
<g id="edge19" class="edge"><title>Node10&#45;&gt;Node18</title>
<path fill="none" stroke="midnightblue" d="M487.768,-168.444C513.041,-159.345 553.18,-144.895 581.397,-134.737"/>
<polygon fill="midnightblue" stroke="midnightblue" points="582.613,-138.019 590.836,-131.339 580.242,-131.433 582.613,-138.019"/>
</g>
<!-- Node19 -->
<g id="node19" class="node"><title>Node19</title>
<polygon fill="white" stroke="#bfbfbf" points="655,-112.5 655,-131.5 701,-131.5 701,-112.5 655,-112.5"/>
<text text-anchor="middle" x="678" y="-119.5" font-family="Helvetica,sans-Serif" font-size="10.00">cctype</text>
</g>
<!-- Node10&#45;&gt;Node19 -->
<g id="edge20" class="edge"><title>Node10&#45;&gt;Node19</title>
<path fill="none" stroke="midnightblue" d="M495.316,-169.577C529.725,-161.351 586.858,-147.486 645.2,-132.151"/>
<polygon fill="midnightblue" stroke="midnightblue" points="646.176,-135.513 654.952,-129.577 644.39,-128.745 646.176,-135.513"/>
</g>
<!-- Node20 -->
<g id="node20" class="node"><title>Node20</title>
<polygon fill="white" stroke="#bfbfbf" points="719.5,-112.5 719.5,-131.5 760.5,-131.5 760.5,-112.5 719.5,-112.5"/>
<text text-anchor="middle" x="740" y="-119.5" font-family="Helvetica,sans-Serif" font-size="10.00">ctime</text>
</g>
<!-- Node10&#45;&gt;Node20 -->
<g id="edge21" class="edge"><title>Node10&#45;&gt;Node20</title>
<path fill="none" stroke="midnightblue" d="M495.298,-172.411C540.47,-165.542 626.704,-151.511 709.597,-131.86"/>
<polygon fill="midnightblue" stroke="midnightblue" points="710.519,-135.238 719.425,-129.499 708.884,-128.431 710.519,-135.238"/>
</g>
<!-- Node21 -->
<g id="node21" class="node"><title>Node21</title>
<polygon fill="white" stroke="#bfbfbf" points="779,-112.5 779,-131.5 839,-131.5 839,-112.5 779,-112.5"/>
<text text-anchor="middle" x="809" y="-119.5" font-family="Helvetica,sans-Serif" font-size="10.00">memory.h</text>
</g>
<!-- Node10&#45;&gt;Node21 -->
<g id="edge23" class="edge"><title>Node10&#45;&gt;Node21</title>
<path fill="none" stroke="midnightblue" d="M495.302,-173.168C550.698,-166.211 669.544,-150.499 769,-132 769.101,-131.981 769.201,-131.963 769.302,-131.944"/>
<polygon fill="midnightblue" stroke="midnightblue" points="769.789,-135.416 778.909,-130.024 768.417,-128.551 769.789,-135.416"/>
</g>
<!-- Node22 -->
<g id="node22" class="node"><title>Node22</title>
<polygon fill="white" stroke="#bfbfbf" points="857,-112.5 857,-131.5 909,-131.5 909,-112.5 857,-112.5"/>
<text text-anchor="middle" x="883" y="-119.5" font-family="Helvetica,sans-Serif" font-size="10.00">assert.h</text>
</g>
<!-- Node10&#45;&gt;Node22 -->
<g id="edge24" class="edge"><title>Node10&#45;&gt;Node22</title>
<path fill="none" stroke="midnightblue" d="M495.479,-174.675C559.586,-169.645 710.008,-156.349 846.518,-131.839"/>
<polygon fill="midnightblue" stroke="midnightblue" points="847.527,-135.213 856.739,-129.978 846.273,-128.326 847.527,-135.213"/>
</g>
<!-- Node23 -->
<g id="node23" class="node"><title>Node23</title>
<g id="a_node23"><a xlink:href="constants_8h.html" target="_top" xlink:title="constants.h">
<polygon fill="white" stroke="black" points="927,-112.5 927,-131.5 995,-131.5 995,-112.5 927,-112.5"/>
<text text-anchor="middle" x="961" y="-119.5" font-family="Helvetica,sans-Serif" font-size="10.00">constants.h</text>
</a>
</g>
</g>
<!-- Node10&#45;&gt;Node23 -->
<g id="edge26" class="edge"><title>Node10&#45;&gt;Node23</title>
<path fill="none" stroke="midnightblue" d="M495.199,-174.749C568.121,-169.648 754.386,-155.773 909,-132 911.596,-131.601 914.272,-131.146 916.981,-130.658"/>
<polygon fill="midnightblue" stroke="midnightblue" points="917.68,-134.088 926.852,-128.785 916.375,-127.211 917.68,-134.088"/>
</g>
<!-- Node23&#45;&gt;Node10 -->
<g id="edge27" class="edge"><title>Node23&#45;&gt;Node10</title>
<path fill="none" stroke="midnightblue" d="M929.739,-131.563C928.819,-131.715 927.905,-131.861 927,-132 772.661,-155.73 586.784,-169.599 505.368,-174.721"/>
<polygon fill="midnightblue" stroke="midnightblue" points="504.811,-171.249 495.046,-175.358 505.243,-178.236 504.811,-171.249"/>
</g>
<!-- Node25&#45;&gt;Node10 -->
<g id="edge30" class="edge"><title>Node25&#45;&gt;Node10</title>
<path fill="none" stroke="midnightblue" d="M458.991,-224.083C459.786,-216.927 460.929,-206.635 461.923,-197.691"/>
<polygon fill="midnightblue" stroke="midnightblue" points="465.402,-198.076 463.028,-187.751 458.445,-197.303 465.402,-198.076"/>
</g>
<!-- Node30&#45;&gt;Node4 -->
<g id="edge37" class="edge"><title>Node30&#45;&gt;Node4</title>
<path fill="none" stroke="midnightblue" d="M825.5,-224.497C874.931,-206.79 983.635,-164.879 1004,-132 1008.68,-124.443 1010.12,-118.443 1004,-112 974.213,-80.6603 314.114,-69.6591 153.832,-67.445"/>
<polygon fill="midnightblue" stroke="midnightblue" points="153.636,-63.9421 143.589,-67.3061 153.541,-70.9415 153.636,-63.9421"/>
</g>
<!-- Node31 -->
<g id="node31" class="node"><title>Node31</title>
<polygon fill="white" stroke="#bfbfbf" points="1051.5,-168.5 1051.5,-187.5 1100.5,-187.5 1100.5,-168.5 1051.5,-168.5"/>
<text text-anchor="middle" x="1076" y="-175.5" font-family="Helvetica,sans-Serif" font-size="10.00">ctype.h</text>
</g>
<!-- Node30&#45;&gt;Node31 -->
<g id="edge38" class="edge"><title>Node30&#45;&gt;Node31</title>
<path fill="none" stroke="midnightblue" d="M827.299,-226.21C830.558,-225.432 833.851,-224.676 837,-224 925.304,-205.037 948.527,-206.16 1037,-188 1038.45,-187.703 1039.92,-187.393 1041.41,-187.075"/>
<polygon fill="midnightblue" stroke="midnightblue" points="1042.27,-190.469 1051.28,-184.895 1040.76,-183.634 1042.27,-190.469"/>
</g>
</g>
</svg>
        <g id="navigator" transform="translate(0 0)" fill="#404254">
                <rect fill="#f2f5e9" fill-opacity="0.5" stroke="#606060" stroke-width=".5" x="0" y="0" width="60" height="60"/>
                <use id="zoomplus" xlink:href="#zoomPlus" x="17" y="9" onmousedown="handleZoom(evt,'in')"/>
                <use id="zoomminus" xlink:href="#zoomMin" x="42" y="9" onmousedown="handleZoom(evt,'out')"/>
                <use id="reset" xlink:href="#resetDef" x="30" y="36" onmousedown="handleReset()"/>
                <g id="arrowUp" xlink:href="#dirArrow" transform="translate(30 24)" onmousedown="handlePan(0,-1)">
                  <use xlink:href="#rim" fill="#404040">
                        <set attributeName="fill" to="#808080" begin="arrowUp.mouseover" end="arrowUp.mouseout"/>
                  </use>
                  <path fill="none" stroke="white" stroke-width="1.5" d="M0,-3.0v7 M-2.5,-0.5L0,-3.0L2.5,-0.5"/>
                </g>
                <g id="arrowRight" xlink:href="#dirArrow" transform="rotate(90) translate(36 -43)" onmousedown="handlePan(1,0)">
                  <use xlink:href="#rim" fill="#404040">
                        <set attributeName="fill" to="#808080" begin="arrowRight.mouseover" end="arrowRight.mouseout"/>
                  </use>
                  <path fill="none" stroke="white" stroke-width="1.5" d="M0,-3.0v7 M-2.5,-0.5L0,-3.0L2.5,-0.5"/>
                </g>
                <g id="arrowDown" xlink:href="#dirArrow" transform="rotate(180) translate(-30 -48)" onmousedown="handlePan(0,1)">
                  <use xlink:href="#rim" fill="#404040">
                        <set attributeName="fill" to="#808080" begin="arrowDown.mouseover" end="arrowDown.mouseout"/>
                  </use>
                  <path fill="none" stroke="white" stroke-width="1.5" d="M0,-3.0v7 M-2.5,-0.5L0,-3.0L2.5,-0.5"/>
                </g>
                <g id="arrowLeft" xlink:href="#dirArrow" transform="rotate(270) translate(-36 17)" onmousedown="handlePan(-1,0)">
                  <use xlink:href="#rim" fill="#404040">
                        <set attributeName="fill" to="#808080" begin="arrowLeft.mouseover" end="arrowLeft.mouseout"/>
                  </use>
                  <path fill="none" stroke="white" stroke-width="1.5" d="M0,-3.0v7 M-2.5,-0.5L0,-3.0L2.5,-0.5"/>
                </g>
        </g>
        <svg viewBox="0 0 15 15" width="100%" height="30px" preserveAspectRatio="xMaxYMin meet">
         <g id="arrow_out" transform="scale(0.3 0.3)">
          <a xlink:href="x265_8cpp__incl_org.svg" target="_base">
           <rect id="button" ry="5" rx="5" y="6" x="6" height="38" width="38"
                fill="#f2f5e9" fill-opacity="0.5" stroke="#606060" stroke-width="1.0"/>
           <path id="arrow"
             d="M 11.500037,31.436501 C 11.940474,20.09759 22.043105,11.32322 32.158766,21.979434 L 37.068811,17.246167 C 37.068811,17.246167 37.088388,32 37.088388,32 L 22.160133,31.978069 C 22.160133,31.978069 26.997745,27.140456 26.997745,27.140456 C 18.528582,18.264221 13.291696,25.230495 11.500037,31.436501 z"
             style="fill:#404040;"/>
          </a>
         </g>
        </svg>
</svg>
